<svg version="1.1" viewBox="0.0 0.0 573.0446194225722 220.29396325459317" fill="none" stroke="none" stroke-linecap="square" stroke-miterlimit="10" xmlns:xlink="http://www.w3.org/1999/xlink" xmlns="http://www.w3.org/2000/svg"><clipPath id="p.0"><path d="m0 0l573.0446 0l0 220.29396l-573.0446 0l0 -220.29396z" clip-rule="nonzero"/></clipPath><g clip-path="url(#p.0)"><path fill="#000000" fill-opacity="0.0" d="m0 0l573.0446 0l0 220.29396l-573.0446 0z" fill-rule="evenodd"/><g filter="url(#shadowFilter-p.1)"><use xlink:href="#p.1" transform="matrix(1.0 0.0 0.0 1.0 0.0 2.0)"/></g><defs><filter id="shadowFilter-p.1" filterUnits="userSpaceOnUse"><feGaussianBlur in="SourceAlpha" stdDeviation="2.0" result="blur"/><feComponentTransfer in="blur" color-interpolation-filters="sRGB"><feFuncR type="linear" slope="0" intercept="0.0"/><feFuncG type="linear" slope="0" intercept="0.0"/><feFuncB type="linear" slope="0" intercept="0.0"/><feFuncA type="linear" slope="0.5" intercept="0"/></feComponentTransfer></filter></defs><g id="p.1"><path fill="#ffffff" d="m4.75853 41.861984l563.5275 0l0 170.55118l-563.5275 0z" fill-rule="evenodd"/></g><path fill="#ffffff" fill-opacity="0.5333" d="m294.23993 173.62827l246.29926 0l0 32.40944l-246.29926 0z" fill-rule="evenodd"/><path fill="#000000" d="m326.57288 195.69298l0 -1.203125l0.828125 -0.125l3.765625 -10.046875l1.90625 0l3.71875 10.046875l0.828125 0.125l0 1.203125l-3.609375 0l0 -1.203125l0.8125 -0.15625l-0.609375 -1.78125l-4.234375 0l-0.609375 1.78125l0.8125 0.15625l0 1.203125l-3.609375 0zm3.921875 -4.65625l3.21875 0l-1.484375 -4.203125l-0.09375 -0.3125l-0.046875 0l-0.109375 0.328125l-1.484375 4.1875zm8.0546875 4.65625l0 -1.203125l1.25 -0.234375l0 -8.5l-1.25 -0.234375l0 -1.203125l1.25 0l1.96875 0l1.328125 0l0 1.203125l-1.328125 0.234375l0 8.421875l3.546875 0l0.140625 -1.71875l1.5 0l0 3.234375l-8.40625 0zm13.828125 0.171875q-1.171875 0 -2.171875 -0.296875q-1.0 -0.296875 -1.9375 -0.96875l0 -2.609375l1.515625 0l0.25 1.6875q0.421875 0.296875 1.015625 0.484375q0.609375 0.171875 1.328125 0.171875q0.6875 0 1.15625 -0.1875q0.484375 -0.203125 0.734375 -0.5625q0.25 -0.359375 0.25 -0.859375q0 -0.453125 -0.21875 -0.796875q-0.21875 -0.359375 -0.734375 -0.625q-0.5 -0.28125 -1.375 -0.515625q-1.265625 -0.34375 -2.125 -0.8125q-0.859375 -0.46875 -1.296875 -1.125q-0.421875 -0.65625 -0.421875 -1.546875q0 -0.921875 0.484375 -1.625q0.5 -0.703125 1.375 -1.109375q0.890625 -0.40625 2.046875 -0.40625q1.265625 -0.015625 2.234375 0.328125q0.984375 0.34375 1.65625 0.890625l0 2.453125l-1.5 0l-0.28125 -1.59375q-0.3125 -0.234375 -0.828125 -0.390625q-0.515625 -0.15625 -1.203125 -0.15625q-0.59375 0 -1.046875 0.203125q-0.453125 0.1875 -0.71875 0.546875q-0.25 0.34375 -0.25 0.84375q0 0.421875 0.21875 0.75q0.234375 0.3125 0.765625 0.578125q0.53125 0.265625 1.4375 0.53125q1.84375 0.484375 2.796875 1.359375q0.953125 0.859375 0.953125 2.203125q0 0.953125 -0.515625 1.65625q-0.5 0.703125 -1.4375 1.109375q-0.921875 0.390625 -2.15625 0.390625zm10.171875 0q-1.140625 0 -2.0625 -0.421875q-0.90625 -0.4375 -1.5625 -1.203125q-0.640625 -0.78125 -1.0 -1.828125q-0.34375 -1.0625 -0.34375 -2.328125l0 -0.171875q0 -1.25 0.34375 -2.296875q0.359375 -1.0625 1.0 -1.828125q0.65625 -0.78125 1.5625 -1.203125q0.921875 -0.4375 2.046875 -0.4375q1.171875 0 2.09375 0.4375q0.921875 0.421875 1.5625 1.203125q0.65625 0.765625 1.0 1.828125q0.34375 1.046875 0.34375 2.296875l0 0.171875q0 1.265625 -0.34375 2.328125q-0.34375 1.046875 -1.0 1.828125q-0.640625 0.765625 -1.5625 1.203125q-0.921875 0.421875 -2.078125 0.421875zm0 -1.578125q1.03125 0 1.6875 -0.515625q0.671875 -0.53125 1.0 -1.46875q0.328125 -0.953125 0.328125 -2.21875l0 -0.1875q0 -1.234375 -0.328125 -2.171875q-0.328125 -0.9375 -1.0 -1.46875q-0.671875 -0.53125 -1.703125 -0.53125q-0.984375 0 -1.65625 0.53125q-0.65625 0.53125 -1.0 1.46875q-0.328125 0.9375 -0.328125 2.171875l0 0.1875q0 1.25 0.328125 2.203125q0.34375 0.953125 1.015625 1.484375q0.671875 0.515625 1.65625 0.515625zm9.9453125 1.40625l0 -1.203125l1.25 -0.234375l0 -8.5l-1.25 -0.234375l0 -1.203125l8.84375 0l0 2.953125l-1.53125 0l-0.125 -1.4375l-3.96875 0l0 3.46875l4.046875 0l0 1.53125l-4.046875 0l0 3.421875l1.234375 0.234375l0 1.203125l-4.453125 0zm9.8515625 0l0 -1.203125l1.25 -0.234375l0 -8.5l-1.25 -0.234375l0 -1.203125l4.453125 0l0 1.203125l-1.234375 0.234375l0 8.5l1.234375 0.234375l0 1.203125l-4.453125 0zm4.9609375 0l0 -1.203125l0.828125 -0.125l3.765625 -10.046875l1.90625 0l3.71875 10.046875l0.828125 0.125l0 1.203125l-3.609375 0l0 -1.203125l0.8125 -0.15625l-0.609375 -1.78125l-4.234375 0l-0.609375 1.78125l0.8125 0.15625l0 1.203125l-3.609375 0zm3.921875 -4.65625l3.21875 0l-1.484375 -4.203125l-0.09375 -0.3125l-0.046875 0l-0.109375 0.328125l-1.484375 4.1875zm9.2890625 4.65625l0 -1.203125l1.25 -0.234375l0 -8.4375l-2.296875 0l-0.171875 1.453125l-1.46875 0l0 -2.953125l9.84375 0l0 2.953125l-1.484375 0l-0.171875 -1.453125l-2.28125 0l0 8.4375l1.234375 0.234375l0 1.203125l-4.453125 0zm12.1484375 0l0 -1.203125l1.25 -0.234375l0 -8.5l-1.25 -0.234375l0 -1.203125l4.453125 0l0 1.203125l-1.234375 0.234375l0 3.546875l4.96875 0l0 -3.546875l-1.234375 -0.234375l0 -1.203125l1.234375 0l1.96875 0l1.234375 0l0 1.203125l-1.234375 0.234375l0 8.5l1.234375 0.234375l0 1.203125l-4.4375 0l0 -1.203125l1.234375 -0.234375l0 -3.421875l-4.96875 0l0 3.421875l1.234375 0.234375l0 1.203125l-4.453125 0zm12.421875 0l0 -1.203125l1.25 -0.234375l0 -8.5l-1.25 -0.234375l0 -1.203125l4.453125 0l0 1.203125l-1.234375 0.234375l0 8.5l1.234375 0.234375l0 1.203125l-4.453125 0zm5.484375 0l0 -1.203125l1.25 -0.234375l0 -8.5l-1.25 -0.234375l0 -1.203125l8.671875 0l0 2.921875l-1.53125 0l-0.140625 -1.40625l-3.78125 0l0 3.21875l3.984375 0l0 1.515625l-3.984375 0l0 3.625l4.0 0l0.125 -1.453125l1.515625 0l0 2.953125l-8.859375 0zm10.2109375 0l0 -1.203125l1.25 -0.234375l0 -8.5l-1.25 -0.234375l0 -1.203125l5.265625 0q1.28125 0 2.1875 0.390625q0.90625 0.390625 1.375 1.125q0.484375 0.734375 0.484375 1.78125q0 1.0 -0.484375 1.75q-0.46875 0.734375 -1.3125 1.140625q-0.84375 0.40625 -1.984375 0.421875l-2.3125 0.03125l0 3.296875l1.234375 0.234375l0 1.203125l-4.453125 0zm7.40625 0l-2.171875 -5.234375l1.84375 -0.3125l1.84375 4.140625l0.890625 0.1875l0 1.21875l-2.40625 0zm-4.1875 -6.265625l1.953125 0q1.109375 0 1.640625 -0.453125q0.53125 -0.453125 0.53125 -1.3125q0 -0.828125 -0.515625 -1.328125q-0.515625 -0.5 -1.5625 -0.5l-2.046875 0l0 3.59375zm7.609375 6.265625l0 -1.203125l0.828125 -0.125l3.765625 -10.046875l1.90625 0l3.71875 10.046875l0.828125 0.125l0 1.203125l-3.609375 0l0 -1.203125l0.8125 -0.15625l-0.609375 -1.78125l-4.234375 0l-0.609375 1.78125l0.8125 0.15625l0 1.203125l-3.609375 0zm3.921875 -4.65625l3.21875 0l-1.484375 -4.203125l-0.09375 -0.3125l-0.046875 0l-0.109375 0.328125l-1.484375 4.1875zm8.0546875 4.65625l0 -1.203125l1.25 -0.234375l0 -8.5l-1.25 -0.234375l0 -1.203125l5.265625 0q1.28125 0 2.1875 0.390625q0.90625 0.390625 1.375 1.125q0.484375 0.734375 0.484375 1.78125q0 1.0 -0.484375 1.75q-0.46875 0.734375 -1.3125 1.140625q-0.84375 0.40625 -1.984375 0.421875l-2.3125 0.03125l0 3.296875l1.234375 0.234375l0 1.203125l-4.453125 0zm7.40625 0l-2.171875 -5.234375l1.84375 -0.3125l1.84375 4.140625l0.890625 0.1875l0 1.21875l-2.40625 0zm-4.1875 -6.265625l1.953125 0q1.109375 0 1.640625 -0.453125q0.53125 -0.453125 0.53125 -1.3125q0 -0.828125 -0.515625 -1.328125q-0.515625 -0.5 -1.5625 -0.5l-2.046875 0l0 3.59375zm13.015625 6.4375q-1.6875 0 -2.875 -0.71875q-1.1875 -0.71875 -1.828125 -2.0q-0.625 -1.296875 -0.625 -3.0l0 -0.28125q0 -1.671875 0.625 -2.953125q0.625 -1.28125 1.78125 -2.015625q1.171875 -0.75 2.796875 -0.75q1.125 0 2.09375 0.34375q0.96875 0.328125 1.6875 0.9375l0 2.625l-1.5 0l-0.203125 -1.75q-0.25 -0.1875 -0.5625 -0.3125q-0.3125 -0.140625 -0.6875 -0.203125q-0.375 -0.078125 -0.8125 -0.078125q-1.015625 0 -1.75 0.515625q-0.734375 0.515625 -1.125 1.453125q-0.375 0.921875 -0.375 2.171875l0 0.296875q0 1.296875 0.40625 2.234375q0.40625 0.9375 1.171875 1.4375q0.765625 0.5 1.828125 0.5q0.515625 0 1.015625 -0.125q0.5 -0.125 0.890625 -0.3125l0.203125 -1.59375l1.484375 0l0 2.609375q-0.65625 0.421875 -1.609375 0.703125q-0.9375 0.265625 -2.03125 0.265625zm4.90625 -0.171875l0 -1.203125l1.25 -0.234375l0 -8.5l-1.25 -0.234375l0 -1.203125l4.453125 0l0 1.203125l-1.234375 0.234375l0 3.546875l4.96875 0l0 -3.546875l-1.234375 -0.234375l0 -1.203125l1.234375 0l1.96875 0l1.234375 0l0 1.203125l-1.234375 0.234375l0 8.5l1.234375 0.234375l0 1.203125l-4.4375 0l0 -1.203125l1.234375 -0.234375l0 -3.421875l-4.96875 0l0 3.421875l1.234375 0.234375l0 1.203125l-4.453125 0zm15.40625 0l0 -1.203125l1.234375 -0.234375l0 -2.5625l-3.421875 -6.015625l-1.03125 -0.15625l0 -1.203125l4.28125 0l0 1.203125l-1.078125 0.140625l2.109375 3.984375l0.171875 0.34375l0.03125 -0.015625l0.15625 -0.3125l2.28125 -4.0l-1.28125 -0.140625l0 -1.203125l4.1875 0l0 1.203125l-1.0625 0.15625l-3.375 5.859375l0 2.71875l1.234375 0.234375l0 1.203125l-4.4375 0z" fill-rule="nonzero"/><path fill="#ffffff" fill-opacity="0.5333" d="m20.022358 173.62827l186.4252 0l0 32.40944l-186.4252 0z" fill-rule="evenodd"/><path fill="#000000" d="m45.401897 195.69298l0 -1.203125l1.25 -0.234375l0 -8.5l-1.25 -0.234375l0 -1.203125l8.84375 0l0 2.953125l-1.53125 0l-0.125 -1.4375l-3.96875 0l0 3.46875l4.046875 0l0 1.53125l-4.046875 0l0 3.421875l1.234375 0.234375l0 1.203125l-4.453125 0zm9.8515625 0l0 -1.203125l1.25 -0.234375l0 -8.5l-1.25 -0.234375l0 -1.203125l4.453125 0l0 1.203125l-1.234375 0.234375l0 8.5l1.234375 0.234375l0 1.203125l-4.453125 0zm4.9609375 0l0 -1.203125l0.828125 -0.125l3.7656212 -10.046875l1.90625 0l3.71875 10.046875l0.828125 0.125l0 1.203125l-3.609375 0l0 -1.203125l0.8125 -0.15625l-0.609375 -1.78125l-4.234371 0l-0.609375 1.78125l0.8125 0.15625l0 1.203125l-3.609375 0zm3.9218712 -4.65625l3.21875 0l-1.484375 -4.203125l-0.09375 -0.3125l-0.046875 0l-0.109375 0.328125l-1.484375 4.1875zm9.2890625 4.65625l0 -1.203125l1.25 -0.234375l0 -8.4375l-2.296875 0l-0.171875 1.453125l-1.46875 0l0 -2.953125l9.84375 0l0 2.953125l-1.484375 0l-0.171875 -1.453125l-2.28125 0l0 8.4375l1.234375 0.234375l0 1.203125l-4.453125 0zm12.1484375 0l0 -1.203125l1.25 -0.234375l0 -8.5l-1.25 -0.234375l0 -1.203125l4.453125 0l0 1.203125l-1.234375 0.234375l0 3.546875l4.96875 0l0 -3.546875l-1.234375 -0.234375l0 -1.203125l1.234375 0l1.96875 0l1.234375 0l0 1.203125l-1.234375 0.234375l0 8.5l1.234375 0.234375l0 1.203125l-4.4375 0l0 -1.203125l1.234375 -0.234375l0 -3.421875l-4.96875 0l0 3.421875l1.234375 0.234375l0 1.203125l-4.453125 0zm12.421875 0l0 -1.203125l1.25 -0.234375l0 -8.5l-1.25 -0.234375l0 -1.203125l4.453125 0l0 1.203125l-1.234375 0.234375l0 8.5l1.234375 0.234375l0 1.203125l-4.453125 0zm5.484375 0l0 -1.203125l1.25 -0.234375l0 -8.5l-1.25 -0.234375l0 -1.203125l8.671875 0l0 2.921875l-1.53125 0l-0.140625 -1.40625l-3.78125 0l0 3.21875l3.984375 0l0 1.515625l-3.984375 0l0 3.625l4.0 0l0.125 -1.453125l1.515625 0l0 2.953125l-8.859375 0zm10.2109375 0l0 -1.203125l1.25 -0.234375l0 -8.5l-1.25 -0.234375l0 -1.203125l5.265625 0q1.28125 0 2.1875 0.390625q0.90625 0.390625 1.375 1.125q0.484375 0.734375 0.484375 1.78125q0 1.0 -0.484375 1.75q-0.46875 0.734375 -1.3125 1.140625q-0.84375 0.40625 -1.984375 0.421875l-2.3125 0.03125l0 3.296875l1.234375 0.234375l0 1.203125l-4.453125 0zm7.40625 0l-2.171875 -5.234375l1.84375 -0.3125l1.84375 4.140625l0.890625 0.1875l0 1.21875l-2.40625 0zm-4.1875 -6.265625l1.953125 0q1.109375 0 1.640625 -0.453125q0.53125 -0.453125 0.53125 -1.3125q0 -0.828125 -0.515625 -1.328125q-0.515625 -0.5 -1.5625 -0.5l-2.046875 0l0 3.59375zm7.609375 6.265625l0 -1.203125l0.828125 -0.125l3.7656326 -10.046875l1.90625 0l3.71875 10.046875l0.828125 0.125l0 1.203125l-3.609375 0l0 -1.203125l0.8125 -0.15625l-0.609375 -1.78125l-4.2343826 0l-0.609375 1.78125l0.8125076 0.15625l0 1.203125l-3.6093826 0zm3.9218826 -4.65625l3.21875 0l-1.484375 -4.203125l-0.09375 -0.3125l-0.046875 0l-0.109375 0.328125l-1.484375 4.1875zm8.0546875 4.65625l0 -1.203125l1.25 -0.234375l0 -8.5l-1.25 -0.234375l0 -1.203125l5.265625 0q1.28125 0 2.1875 0.390625q0.90625 0.390625 1.375 1.125q0.484375 0.734375 0.484375 1.78125q0 1.0 -0.484375 1.75q-0.46875 0.734375 -1.3125 1.140625q-0.84375 0.40625 -1.984375 0.421875l-2.3125 0.03125l0 3.296875l1.234375 0.234375l0 1.203125l-4.453125 0zm7.40625 0l-2.171875 -5.234375l1.84375 -0.3125l1.84375 4.140625l0.890625 0.1875l0 1.21875l-2.40625 0zm-4.1875 -6.265625l1.953125 0q1.109375 0 1.640625 -0.453125q0.53125 -0.453125 0.53125 -1.3125q0 -0.828125 -0.515625 -1.328125q-0.515625 -0.5 -1.5625 -0.5l-2.046875 0l0 3.59375zm13.015625 6.4375q-1.6875 0 -2.875 -0.71875q-1.1875 -0.71875 -1.828125 -2.0q-0.625 -1.296875 -0.625 -3.0l0 -0.28125q0 -1.671875 0.625 -2.953125q0.625 -1.28125 1.78125 -2.015625q1.171875 -0.75 2.796875 -0.75q1.125 0 2.09375 0.34375q0.96875 0.328125 1.6875 0.9375l0 2.625l-1.5 0l-0.203125 -1.75q-0.25 -0.1875 -0.5625 -0.3125q-0.3125 -0.140625 -0.6875 -0.203125q-0.375 -0.078125 -0.8125 -0.078125q-1.015625 0 -1.75 0.515625q-0.734375 0.515625 -1.125 1.453125q-0.375 0.921875 -0.375 2.171875l0 0.296875q0 1.296875 0.40625 2.234375q0.40625 0.9375 1.171875 1.4375q0.765625 0.5 1.828125 0.5q0.515625 0 1.015625 -0.125q0.5 -0.125 0.890625 -0.3125l0.203125 -1.59375l1.484375 0l0 2.609375q-0.65625 0.421875 -1.609375 0.703125q-0.9375 0.265625 -2.03125 0.265625zm4.90625 -0.171875l0 -1.203125l1.25 -0.234375l0 -8.5l-1.25 -0.234375l0 -1.203125l4.453125 0l0 1.203125l-1.234375 0.234375l0 3.546875l4.96875 0l0 -3.546875l-1.234375 -0.234375l0 -1.203125l1.234375 0l1.96875 0l1.234375 0l0 1.203125l-1.234375 0.234375l0 8.5l1.234375 0.234375l0 1.203125l-4.4375 0l0 -1.203125l1.234375 -0.234375l0 -3.421875l-4.96875 0l0 3.421875l1.234375 0.234375l0 1.203125l-4.453125 0zm15.40625 0l0 -1.203125l1.234375 -0.234375l0 -2.5625l-3.421875 -6.015625l-1.03125 -0.15625l0 -1.203125l4.28125 0l0 1.203125l-1.078125 0.140625l2.109375 3.984375l0.171875 0.34375l0.03125 -0.015625l0.15625 -0.3125l2.28125 -4.0l-1.28125 -0.140625l0 -1.203125l4.1875 0l0 1.203125l-1.0625 0.15625l-3.375 5.859375l0 2.71875l1.234375 0.234375l0 1.203125l-4.4375 0z" fill-rule="nonzero"/><path fill="#000000" fill-opacity="0.0" d="m351.70236 97.707146l0 0c0 -4.792267 3.8919373 -8.67717 8.692902 -8.67717l0 0c2.3055115 0 4.516571 0.9141998 6.14682 2.5414886c1.630249 1.6272812 2.546112 3.8343506 2.546112 6.135681l0 0c0 4.792267 -3.8919678 8.677162 -8.692932 8.677162l0 0c-4.8009644 0 -8.692902 -3.8848953 -8.692902 -8.677162z" fill-rule="evenodd"/><path stroke="#000000" stroke-width="1.0" stroke-linejoin="round" stroke-linecap="butt" d="m351.70236 97.707146l0 0c0 -4.792267 3.8919373 -8.67717 8.692902 -8.67717l0 0c2.3055115 0 4.516571 0.9141998 6.14682 2.5414886c1.630249 1.6272812 2.546112 3.8343506 2.546112 6.135681l0 0c0 4.792267 -3.8919678 8.677162 -8.692932 8.677162l0 0c-4.8009644 0 -8.692902 -3.8848953 -8.692902 -8.677162z" fill-rule="evenodd"/><path fill="#000000" fill-opacity="0.0" d="m408.81003 97.707146l0 0c0 -4.792267 3.8919373 -8.67717 8.692902 -8.67717l0 0c2.3055115 0 4.5166016 0.9141998 6.14682 2.5414886c1.630249 1.6272812 2.546112 3.8343506 2.546112 6.135681l0 0c0 4.792267 -3.8919678 8.677162 -8.692932 8.677162l0 0c-4.8009644 0 -8.692902 -3.8848953 -8.692902 -8.677162z" fill-rule="evenodd"/><path stroke="#000000" stroke-width="1.0" stroke-linejoin="round" stroke-linecap="butt" d="m408.81003 97.707146l0 0c0 -4.792267 3.8919373 -8.67717 8.692902 -8.67717l0 0c2.3055115 0 4.5166016 0.9141998 6.14682 2.5414886c1.630249 1.6272812 2.546112 3.8343506 2.546112 6.135681l0 0c0 4.792267 -3.8919678 8.677162 -8.692932 8.677162l0 0c-4.8009644 0 -8.692902 -3.8848953 -8.692902 -8.677162z" fill-rule="evenodd"/><path fill="#000000" fill-opacity="0.0" d="m286.5502 129.72182l0 0c0 -9.401894 7.6428833 -17.023628 17.070862 -17.023628l0 0c4.5274963 0 8.869537 1.7935562 12.070923 4.986107c3.201416 3.1925507 4.999939 7.5225754 4.999939 12.037521l0 0c0 9.401886 -7.6428833 17.02362 -17.070862 17.02362l0 0c-9.4279785 0 -17.070862 -7.6217346 -17.070862 -17.02362z" fill-rule="evenodd"/><path stroke="#000000" stroke-width="1.0" stroke-linejoin="round" stroke-linecap="butt" d="m286.5502 129.72182l0 0c0 -9.401894 7.6428833 -17.023628 17.070862 -17.023628l0 0c4.5274963 0 8.869537 1.7935562 12.070923 4.986107c3.201416 3.1925507 4.999939 7.5225754 4.999939 12.037521l0 0c0 9.401886 -7.6428833 17.02362 -17.070862 17.02362l0 0c-9.4279785 0 -17.070862 -7.6217346 -17.070862 -17.02362z" fill-rule="evenodd"/><path fill="#000000" fill-opacity="0.0" d="m522.9156 97.707146l0 0c0 -4.792267 3.8919678 -8.67717 8.692932 -8.67717l0 0c2.305481 0 4.5166016 0.9141998 6.1467896 2.5414886c1.630249 1.6272812 2.5461426 3.8343506 2.5461426 6.135681l0 0c0 4.792267 -3.8919678 8.677162 -8.692932 8.677162l0 0c-4.8009644 0 -8.692932 -3.8848953 -8.692932 -8.677162z" fill-rule="evenodd"/><path stroke="#000000" stroke-width="1.0" stroke-linejoin="round" stroke-linecap="butt" d="m522.9156 97.707146l0 0c0 -4.792267 3.8919678 -8.67717 8.692932 -8.67717l0 0c2.305481 0 4.5166016 0.9141998 6.1467896 2.5414886c1.630249 1.6272812 2.5461426 3.8343506 2.5461426 6.135681l0 0c0 4.792267 -3.8919678 8.677162 -8.692932 8.677162l0 0c-4.8009644 0 -8.692932 -3.8848953 -8.692932 -8.677162z" fill-rule="evenodd"/><path fill="#000000" fill-opacity="0.0" d="m294.92816 97.707146l0 0c0 -4.792267 3.8919373 -8.67717 8.692902 -8.67717l0 0c2.3055115 0 4.5166016 0.9141998 6.14682 2.5414886c1.630249 1.6272812 2.546112 3.8343506 2.546112 6.135681l0 0c0 4.792267 -3.8919678 8.677162 -8.692932 8.677162l0 0c-4.8009644 0 -8.692902 -3.8848953 -8.692902 -8.677162z" fill-rule="evenodd"/><path stroke="#000000" stroke-width="1.0" stroke-linejoin="round" stroke-linecap="butt" d="m294.92816 97.707146l0 0c0 -4.792267 3.8919373 -8.67717 8.692902 -8.67717l0 0c2.3055115 0 4.5166016 0.9141998 6.14682 2.5414886c1.630249 1.6272812 2.546112 3.8343506 2.546112 6.135681l0 0c0 4.792267 -3.8919678 8.677162 -8.692932 8.677162l0 0c-4.8009644 0 -8.692902 -3.8848953 -8.692902 -8.677162z" fill-rule="evenodd"/><path fill="#000000" fill-opacity="0.0" d="m465.917 97.707146l0 0c0 -4.792267 3.8919678 -8.67717 8.692932 -8.67717l0 0c2.3055115 0 4.516571 0.9141998 6.14682 2.5414886c1.6302185 1.6272812 2.5460815 3.8343506 2.5460815 6.135681l0 0c0 4.792267 -3.8919373 8.677162 -8.692902 8.677162l0 0c-4.8009644 0 -8.692932 -3.8848953 -8.692932 -8.677162z" fill-rule="evenodd"/><path stroke="#000000" stroke-width="1.0" stroke-linejoin="round" stroke-linecap="butt" d="m465.917 97.707146l0 0c0 -4.792267 3.8919678 -8.67717 8.692932 -8.67717l0 0c2.3055115 0 4.516571 0.9141998 6.14682 2.5414886c1.6302185 1.6272812 2.5460815 3.8343506 2.5460815 6.135681l0 0c0 4.792267 -3.8919373 8.677162 -8.692902 8.677162l0 0c-4.8009644 0 -8.692932 -3.8848953 -8.692932 -8.677162z" fill-rule="evenodd"/><path fill="#000000" fill-opacity="0.0" d="m413.4888 52.011356l0 0c0 -2.2700195 1.84729 -4.1102333 4.126007 -4.1102333l0 0c1.0942688 0 2.1437378 0.43304062 2.917511 1.2038574c0.7737732 0.7708206 1.2084656 1.8162766 1.2084656 2.906376l0 0c0 2.2700233 -1.8472595 4.110237 -4.1259766 4.110237l0 0c-2.278717 0 -4.126007 -1.8402138 -4.126007 -4.110237z" fill-rule="evenodd"/><path stroke="#000000" stroke-width="1.0" stroke-linejoin="round" stroke-linecap="butt" d="m413.4888 52.011356l0 0c0 -2.2700195 1.84729 -4.1102333 4.126007 -4.1102333l0 0c1.0942688 0 2.1437378 0.43304062 2.917511 1.2038574c0.7737732 0.7708206 1.2084656 1.8162766 1.2084656 2.906376l0 0c0 2.2700233 -1.8472595 4.110237 -4.1259766 4.110237l0 0c-2.278717 0 -4.126007 -1.8402138 -4.126007 -4.110237z" fill-rule="evenodd"/><path fill="#000000" fill-opacity="0.0" d="m417.6148 56.121593l0 16.45406l-113.98425 0l0 16.459328" fill-rule="evenodd"/><path stroke="#000000" stroke-width="1.0" stroke-linejoin="round" stroke-linecap="butt" d="m417.6148 56.121593l0 16.45406l-113.98425 0l0 16.459328" fill-rule="evenodd"/><path fill="#000000" fill-opacity="0.0" d="m417.6148 56.121593l0 16.45406l-0.12600708 0l0 16.459328" fill-rule="evenodd"/><path stroke="#000000" stroke-width="1.0" stroke-linejoin="round" stroke-linecap="butt" d="m417.6148 56.121593l0 16.45406l-0.12600708 0l0 16.459328" fill-rule="evenodd"/><path fill="#000000" fill-opacity="0.0" d="m360.39526 89.029976l0 -16.454056l57.228363 0l0 -16.459328" fill-rule="evenodd"/><path stroke="#000000" stroke-width="1.0" stroke-linejoin="round" stroke-linecap="butt" d="m360.39526 89.029976l0 -16.454056l57.228363 0l0 -16.459328" fill-rule="evenodd"/><path fill="#000000" fill-opacity="0.0" d="m417.6148 56.121593l0 16.45406l57.007874 0l0 16.459328" fill-rule="evenodd"/><path stroke="#000000" stroke-width="1.0" stroke-linejoin="round" stroke-linecap="butt" d="m417.6148 56.121593l0 16.45406l57.007874 0l0 16.459328" fill-rule="evenodd"/><path fill="#000000" fill-opacity="0.0" d="m417.6148 56.121593l0 16.45406l113.98425 0l0 16.459328" fill-rule="evenodd"/><path stroke="#000000" stroke-width="1.0" stroke-linejoin="round" stroke-linecap="butt" d="m417.6148 56.121593l0 16.45406l113.98425 0l0 16.459328" fill-rule="evenodd"/><path fill="#000000" fill-opacity="0.0" d="m303.62106 106.38431l0 3.1569138l0.06298828 0l0 3.1423035" fill-rule="evenodd"/><path stroke="#000000" stroke-width="1.0" stroke-linejoin="round" stroke-linecap="butt" d="m303.62106 106.38431l0 3.1569138l0.06298828 0l0 3.1423035" fill-rule="evenodd"/><path fill="#000000" fill-opacity="0.0" d="m360.39526 106.38431l0 3.543312l0.06298828 0l0 3.5433044" fill-rule="evenodd"/><path stroke="#000000" stroke-width="1.0" stroke-linejoin="round" stroke-linecap="butt" d="m360.39526 106.38431l0 3.543312l0.06298828 0l0 3.5433044" fill-rule="evenodd"/><path fill="#000000" fill-opacity="0.0" d="m417.50293 106.38431l0 3.5427399l0.0630188 0l0 3.5438766" fill-rule="evenodd"/><path stroke="#000000" stroke-width="1.0" stroke-linejoin="round" stroke-linecap="butt" d="m417.50293 106.38431l0 3.5427399l0.0630188 0l0 3.5438766" fill-rule="evenodd"/><path fill="#000000" fill-opacity="0.0" d="m531.6085 106.38431l0 3.5427399l0.06298828 0l0 3.5438766" fill-rule="evenodd"/><path stroke="#000000" stroke-width="1.0" stroke-linejoin="round" stroke-linecap="butt" d="m531.6085 106.38431l0 3.5427399l0.06298828 0l0 3.5438766" fill-rule="evenodd"/><path fill="#000000" fill-opacity="0.0" d="m329.67087 144.1166l0 0c0 -16.92514 13.755768 -30.645676 30.724396 -30.645676l0 0c8.148621 0 15.963501 3.2287292 21.725433 8.975914c5.761963 5.7471695 8.998993 13.542015 8.998993 21.669762l0 0c0 16.925125 -13.755798 30.64566 -30.724426 30.64566l0 0c-16.968628 0 -30.724396 -13.720535 -30.724396 -30.64566z" fill-rule="evenodd"/><path stroke="#000000" stroke-width="1.0" stroke-linejoin="round" stroke-linecap="butt" d="m329.67087 144.1166l0 0c0 -16.92514 13.755768 -30.645676 30.724396 -30.645676l0 0c8.148621 0 15.963501 3.2287292 21.725433 8.975914c5.761963 5.7471695 8.998993 13.542015 8.998993 21.669762l0 0c0 16.925125 -13.755798 30.64566 -30.724426 30.64566l0 0c-16.968628 0 -30.724396 -13.720535 -30.724396 -30.64566z" fill-rule="evenodd"/><path fill="#000000" fill-opacity="0.0" d="m396.49506 134.43045l0 0c0 -11.576241 9.405548 -20.960632 21.007874 -20.960632l0 0c5.5716553 0 10.91507 2.2083435 14.854828 6.139229c3.9397278 3.9308777 6.1530457 9.262291 6.1530457 14.8214035l0 0c0 11.576233 -9.405518 20.960632 -21.007874 20.960632l0 0c-11.602325 0 -21.007874 -9.384399 -21.007874 -20.960632z" fill-rule="evenodd"/><path stroke="#000000" stroke-width="1.0" stroke-linejoin="round" stroke-linecap="butt" d="m396.49506 134.43045l0 0c0 -11.576241 9.405548 -20.960632 21.007874 -20.960632l0 0c5.5716553 0 10.91507 2.2083435 14.854828 6.139229c3.9397278 3.9308777 6.1530457 9.262291 6.1530457 14.8214035l0 0c0 11.576233 -9.405518 20.960632 -21.007874 20.960632l0 0c-11.602325 0 -21.007874 -9.384399 -21.007874 -20.960632z" fill-rule="evenodd"/><path fill="#000000" fill-opacity="0.0" d="m508.49042 136.52493l0 0c0 -12.732986 10.350342 -23.055115 23.118103 -23.055115l0 0c6.1312866 0 12.011475 2.429016 16.346985 6.7526855c4.335449 4.323677 6.771118 10.187836 6.771118 16.30243l0 0c0 12.732986 -10.350342 23.055115 -23.118103 23.055115l0 0c-12.767761 0 -23.118103 -10.322128 -23.118103 -23.055115z" fill-rule="evenodd"/><path stroke="#000000" stroke-width="1.0" stroke-linejoin="round" stroke-linecap="butt" d="m508.49042 136.52493l0 0c0 -12.732986 10.350342 -23.055115 23.118103 -23.055115l0 0c6.1312866 0 12.011475 2.429016 16.346985 6.7526855c4.335449 4.323677 6.771118 10.187836 6.771118 16.30243l0 0c0 12.732986 -10.350342 23.055115 -23.118103 23.055115l0 0c-12.767761 0 -23.118103 -10.322128 -23.118103 -23.055115z" fill-rule="evenodd"/><path fill="#000000" fill-opacity="0.0" d="m133.46622 89.35961l0 0c0 -9.401894 7.6428833 -17.023628 17.070862 -17.023628l0 0c4.527481 0 8.869522 1.7935562 12.070923 4.986107c3.201416 3.1925507 4.999939 7.5225754 4.999939 12.037521l0 0c0 9.401886 -7.6428833 17.02362 -17.070862 17.02362l0 0c-9.4279785 0 -17.070862 -7.6217346 -17.070862 -17.02362z" fill-rule="evenodd"/><path stroke="#000000" stroke-width="1.0" stroke-linejoin="round" stroke-linecap="butt" d="m133.46622 89.35961l0 0c0 -9.401894 7.6428833 -17.023628 17.070862 -17.023628l0 0c4.527481 0 8.869522 1.7935562 12.070923 4.986107c3.201416 3.1925507 4.999939 7.5225754 4.999939 12.037521l0 0c0 9.401886 -7.6428833 17.02362 -17.070862 17.02362l0 0c-9.4279785 0 -17.070862 -7.6217346 -17.070862 -17.02362z" fill-rule="evenodd"/><path fill="#000000" fill-opacity="0.0" d="m82.94797 144.1166l0 0c0 -16.92514 13.755791 -30.645676 30.724411 -30.645676l0 0c8.148621 0 15.963501 3.2287292 21.725433 8.975914c5.7619476 5.7471695 8.998978 13.542015 8.998978 21.669762l0 0c0 16.925125 -13.755783 30.64566 -30.724411 30.64566l0 0c-16.96862 0 -30.724411 -13.720535 -30.724411 -30.64566z" fill-rule="evenodd"/><path stroke="#000000" stroke-width="1.0" stroke-linejoin="round" stroke-linecap="butt" d="m82.94797 144.1166l0 0c0 -16.92514 13.755791 -30.645676 30.724411 -30.645676l0 0c8.148621 0 15.963501 3.2287292 21.725433 8.975914c5.7619476 5.7471695 8.998978 13.542015 8.998978 21.669762l0 0c0 16.925125 -13.755783 30.64566 -30.724411 30.64566l0 0c-16.96862 0 -30.724411 -13.720535 -30.724411 -30.64566z" fill-rule="evenodd"/><path fill="#000000" fill-opacity="0.0" d="m155.86263 138.32132l0 0c0 -13.724503 11.1540985 -24.850403 24.913391 -24.850403l0 0c6.607437 0 12.94426 2.618164 17.616425 7.278511c4.672165 4.6603546 7.2969513 10.981148 7.2969513 17.571892l0 0c0 13.724487 -11.1540985 24.850388 -24.913376 24.850388l0 0c-13.759293 0 -24.913391 -11.1259 -24.913391 -24.850388z" fill-rule="evenodd"/><path stroke="#000000" stroke-width="1.0" stroke-linejoin="round" stroke-linecap="butt" d="m155.86263 138.32132l0 0c0 -13.724503 11.1540985 -24.850403 24.913391 -24.850403l0 0c6.607437 0 12.94426 2.618164 17.616425 7.278511c4.672165 4.6603546 7.2969513 10.981148 7.2969513 17.571892l0 0c0 13.724487 -11.1540985 24.850388 -24.913376 24.850388l0 0c-13.759293 0 -24.913391 -11.1259 -24.913391 -24.850388z" fill-rule="evenodd"/><path fill="#000000" fill-opacity="0.0" d="m27.38111 89.35961l0 0c0 -9.401894 7.642889 -17.023628 17.070868 -17.023628l0 0c4.5274734 0 8.869514 1.7935562 12.070923 4.986107c3.2014084 3.1925507 4.999943 7.5225754 4.999943 12.037521l0 0c0 9.401886 -7.642887 17.02362 -17.070866 17.02362l0 0c-9.4279785 0 -17.070868 -7.6217346 -17.070868 -17.02362z" fill-rule="evenodd"/><path stroke="#000000" stroke-width="1.0" stroke-linejoin="round" stroke-linecap="butt" d="m27.38111 89.35961l0 0c0 -9.401894 7.642889 -17.023628 17.070868 -17.023628l0 0c4.5274734 0 8.869514 1.7935562 12.070923 4.986107c3.2014084 3.1925507 4.999943 7.5225754 4.999943 12.037521l0 0c0 9.401886 -7.642887 17.02362 -17.070866 17.02362l0 0c-9.4279785 0 -17.070868 -7.6217346 -17.070868 -17.02362z" fill-rule="evenodd"/><path fill="#000000" fill-opacity="0.0" d="m93.368546 51.948364l0 0c0 -2.2700195 1.8472672 -4.1102333 4.125984 -4.1102333l0 0c1.0942764 0 2.1437378 0.43304062 2.917511 1.2038574c0.7737732 0.7708206 1.2084732 1.8162766 1.2084732 2.906376l0 0c0 2.2700233 -1.8472672 4.110237 -4.125984 4.110237l0 0c-2.278717 0 -4.125984 -1.8402138 -4.125984 -4.110237z" fill-rule="evenodd"/><path stroke="#000000" stroke-width="1.0" stroke-linejoin="round" stroke-linecap="butt" d="m93.368546 51.948364l0 0c0 -2.2700195 1.8472672 -4.1102333 4.125984 -4.1102333l0 0c1.0942764 0 2.1437378 0.43304062 2.917511 1.2038574c0.7737732 0.7708206 1.2084732 1.8162766 1.2084732 2.906376l0 0c0 2.2700233 -1.8472672 4.110237 -4.125984 4.110237l0 0c-2.278717 0 -4.125984 -1.8402138 -4.125984 -4.110237z" fill-rule="evenodd"/><path fill="#000000" fill-opacity="0.0" d="m97.49453 56.0586c0 0.01574707 0.01574707 0.023620605 0.03149414 0.031497955c0.01574707 0.007873535 0.03149414 0.01574707 0.03149414 0.03149414" fill-rule="evenodd"/><path stroke="#000000" stroke-width="1.0" stroke-linejoin="round" stroke-linecap="butt" d="m97.49453 56.0586c0 0.01574707 0.01574707 0.023620605 0.03149414 0.031497955c0.01574707 0.007873535 0.03149414 0.01574707 0.03149414 0.03149414" fill-rule="evenodd"/><path fill="#000000" fill-opacity="0.0" d="m97.49453 56.0586c0 4.0693474 10.244095 5.4812126 20.48819 8.138695c10.244087 2.6574783 20.488182 6.56057 20.488182 13.121147" fill-rule="evenodd"/><path stroke="#000000" stroke-width="1.0" stroke-linejoin="round" stroke-linecap="butt" d="m97.49453 56.0586c0 4.0693474 10.244095 5.4812126 20.48819 8.138695c10.244087 2.6574783 20.488182 6.56057 20.488182 13.121147" fill-rule="evenodd"/><path fill="#000000" fill-opacity="0.0" d="m97.49453 56.0586c0 4.0693474 -10.244095 5.4812126 -20.48819 8.138695c-10.244095 2.6574783 -20.48819 6.56057 -20.48819 13.121147" fill-rule="evenodd"/><path stroke="#000000" stroke-width="1.0" stroke-linejoin="round" stroke-linecap="butt" d="m97.49453 56.0586c0 4.0693474 -10.244095 5.4812126 -20.48819 8.138695c-10.244095 2.6574783 -20.48819 6.56057 -20.48819 13.121147" fill-rule="evenodd"/><path fill="#000000" fill-opacity="0.0" d="m24.483473 133.39218l0 0c0 -11.002213 8.940203 -19.921265 19.968504 -19.921265l0 0c5.2959747 0 10.375042 2.0988464 14.119865 5.8348007c3.7448196 3.735962 5.8486366 8.803017 5.8486366 14.086464l0 0c0 11.002213 -8.940201 19.92125 -19.968502 19.92125l0 0c-11.028301 0 -19.968504 -8.919037 -19.968504 -19.92125z" fill-rule="evenodd"/><path stroke="#000000" stroke-width="1.0" stroke-linejoin="round" stroke-linecap="butt" d="m24.483473 133.39218l0 0c0 -11.002213 8.940203 -19.921265 19.968504 -19.921265l0 0c5.2959747 0 10.375042 2.0988464 14.119865 5.8348007c3.7448196 3.735962 5.8486366 8.803017 5.8486366 14.086464l0 0c0 11.002213 -8.940201 19.92125 -19.968502 19.92125l0 0c-11.028301 0 -19.968504 -8.919037 -19.968504 -19.92125z" fill-rule="evenodd"/><path fill="#000000" fill-opacity="0.0" d="m44.451977 106.38323c0 1.7719345 0.01574707 2.658043 0.03149414 3.543869c0.015750885 0.8858261 0.031497955 1.7713699 0.031497955 3.5427399" fill-rule="evenodd"/><path stroke="#000000" stroke-width="1.0" stroke-linejoin="round" stroke-linecap="butt" d="m44.451977 106.38323c0 1.7719345 0.01574707 2.658043 0.03149414 3.543869c0.015750885 0.8858261 0.031497955 1.7713699 0.031497955 3.5427399" fill-rule="evenodd"/><path fill="#000000" fill-opacity="0.0" d="m150.53708 106.38323c0 1.771904 -3.7873993 1.5359421 -7.5747986 3.5438156c-3.7873993 2.0078735 -7.5747986 6.25959 -7.5747986 12.519173" fill-rule="evenodd"/><path stroke="#000000" stroke-width="1.0" stroke-linejoin="round" stroke-linecap="butt" d="m150.53708 106.38323c0 1.771904 -3.7873993 1.5359421 -7.5747986 3.5438156c-3.7873993 2.0078735 -7.5747986 6.25959 -7.5747986 12.519173" fill-rule="evenodd"/><path fill="#000000" fill-opacity="0.0" d="m150.53708 106.38323c0 1.7719345 3.157486 1.7485962 6.3149567 3.543869c3.157486 1.7952805 6.314972 5.409172 6.314972 10.8183365" fill-rule="evenodd"/><path stroke="#000000" stroke-width="1.0" stroke-linejoin="round" stroke-linecap="butt" d="m150.53708 106.38323c0 1.7719345 3.157486 1.7485962 6.3149567 3.543869c3.157486 1.7952805 6.314972 5.409172 6.314972 10.8183365" fill-rule="evenodd"/><path fill="#000000" fill-opacity="0.0" d="m146.26332 26.482939c-11.160599 0 -16.742462 6.370081 -22.321205 12.74016c-5.578743 6.370075 -11.154358 12.740154 -22.308716 12.740154" fill-rule="evenodd"/><path stroke="#ff0000" stroke-width="1.0" stroke-linejoin="round" stroke-linecap="butt" stroke-dasharray="4.0,3.0" d="m146.26332 26.482939c-11.160599 0 -16.742462 6.370081 -22.321205 12.74016c-2.7893753 3.1850395 -5.577965 6.370075 -9.063507 8.758858c-1.7427597 1.1943893 -3.6597748 2.1897125 -5.838234 2.8864403c-0.27230835 0.08709335 -0.5487137 0.16951752 -0.82935333 0.24708557c-0.14032745 0.038780212 -0.2817154 0.076351166 -0.4241867 0.11267471l-0.1930008 0.047161102" fill-rule="evenodd"/><path fill="#ff0000" stroke="#ff0000" stroke-width="1.0" stroke-linecap="butt" d="m107.40445 49.63448l-4.3187943 2.1611595l4.6975555 1.1205215z" fill-rule="evenodd"/><path fill="#000000" fill-opacity="0.0" d="m381.68304 39.91687c7.952759 0 11.929138 3.0078735 15.905487 6.015747c3.9763794 3.0078735 7.952759 6.015747 15.905518 6.015747" fill-rule="evenodd"/><path stroke="#ff0000" stroke-width="1.0" stroke-linejoin="round" stroke-linecap="butt" stroke-dasharray="4.0,3.0" d="m381.68304 39.91687c7.9527283 0 11.929108 3.0078735 15.905487 6.015751c1.9881897 1.5039368 3.9763794 3.0078735 6.4616394 4.135826c0.6213074 0.28198624 1.2736511 0.54047775 1.9648743 0.7695923c0.34561157 0.11455917 0.70092773 0.22177505 1.0668945 0.3209076c0.0914917 0.024784088 0.1836853 0.049064636 0.27651978 0.0728302l0.17352295 0.043109894" fill-rule="evenodd"/><path fill="#ff0000" stroke="#ff0000" stroke-width="1.0" stroke-linecap="butt" d="m407.34656 52.916183l4.694824 -1.1319084l-4.324005 -2.1506805z" fill-rule="evenodd"/><path fill="#efefef" d="m146.26332 3.0498688l222.58269 0l0 46.866142l-222.58269 0z" fill-rule="evenodd"/><path fill="#000000" d="m166.69792 33.809868l-4.296875 -16.21875l2.203125 0l2.453125 10.625q0.40625 1.671875 0.6875 3.328125q0.625 -2.609375 0.734375 -3.0l3.09375 -10.953125l2.578125 0l2.328125 8.203125q0.875 3.0625 1.265625 5.75q0.3125 -1.546875 0.796875 -3.53125l2.546875 -10.421875l2.15625 0l-4.4375 16.21875l-2.078125 0l-3.40625 -12.359375q-0.4375 -1.546875 -0.515625 -1.90625q-0.25 1.125 -0.484375 1.90625l-3.4375 12.359375l-2.1875 0zm18.305923 0l0 -16.21875l1.984375 0l0 5.8125q1.390625 -1.609375 3.515625 -1.609375q1.3125 0 2.265625 0.515625q0.96875 0.515625 1.375 1.421875q0.421875 0.90625 0.421875 2.640625l0 7.4375l-1.984375 0l0 -7.4375q0 -1.5 -0.65625 -2.171875q-0.640625 -0.6875 -1.828125 -0.6875q-0.890625 0 -1.671875 0.46875q-0.765625 0.453125 -1.109375 1.234375q-0.328125 0.78125 -0.328125 2.171875l0 6.421875l-1.984375 0zm20.256577 -1.453125q-1.109375 0.9375 -2.140625 1.328125q-1.015625 0.390625 -2.1875 0.390625q-1.9375 0 -2.984375 -0.9375q-1.03125 -0.953125 -1.03125 -2.421875q0 -0.859375 0.390625 -1.578125q0.40625 -0.71875 1.03125 -1.140625q0.640625 -0.4375 1.4375 -0.65625q0.59375 -0.15625 1.765625 -0.296875q2.421875 -0.296875 3.5625 -0.6875q0 -0.40625 0 -0.515625q0 -1.21875 -0.5625 -1.71875q-0.765625 -0.671875 -2.265625 -0.671875q-1.40625 0 -2.078125 0.5q-0.671875 0.484375 -0.984375 1.734375l-1.953125 -0.265625q0.265625 -1.25 0.875 -2.015625q0.609375 -0.78125 1.75 -1.1875q1.15625 -0.421875 2.671875 -0.421875q1.515625 0 2.453125 0.359375q0.9375 0.34375 1.375 0.890625q0.453125 0.53125 0.625 1.34375q0.09375 0.515625 0.09375 1.84375l0 2.65625q0 2.78125 0.125 3.515625q0.140625 0.734375 0.515625 1.40625l-2.078125 0q-0.3125 -0.625 -0.40625 -1.453125zm-0.15625 -4.4375q-1.09375 0.4375 -3.265625 0.75q-1.21875 0.171875 -1.734375 0.390625q-0.5 0.21875 -0.78125 0.65625q-0.28125 0.421875 -0.28125 0.9375q0 0.796875 0.609375 1.328125q0.609375 0.53125 1.765625 0.53125q1.140625 0 2.03125 -0.5q0.90625 -0.5 1.328125 -1.375q0.328125 -0.671875 0.328125 -2.0l0 -0.71875zm9.444077 4.109375l0.28125 1.765625q-0.84375 0.171875 -1.5 0.171875q-1.078125 0 -1.6875 -0.34375q-0.59375 -0.34375 -0.84375 -0.890625q-0.234375 -0.5625 -0.234375 -2.359375l0 -6.765625l-1.46875 0l0 -1.546875l1.46875 0l0 -2.90625l1.984375 -1.203125l0 4.109375l2.0 0l0 1.546875l-2.0 0l0 6.875q0 0.84375 0.09375 1.09375q0.109375 0.25 0.34375 0.390625q0.25 0.140625 0.6875 0.140625q0.328125 0 0.875 -0.078125zm1.825882 -12.296875l0 -2.3125l2.125 0l0 1.828125q0 1.484375 -0.34375 2.140625q-0.46875 0.890625 -1.46875 1.34375l-0.5 -0.78125q0.609375 -0.25 0.890625 -0.765625q0.296875 -0.53125 0.328125 -1.453125l-1.03125 0zm3.952118 10.578125l1.96875 -0.3125q0.15625 1.171875 0.90625 1.8125q0.765625 0.625 2.125 0.625q1.375 0 2.03125 -0.546875q0.671875 -0.5625 0.671875 -1.3125q0 -0.6875 -0.578125 -1.0625q-0.421875 -0.265625 -2.046875 -0.6875q-2.1875 -0.546875 -3.03125 -0.953125q-0.84375 -0.40625 -1.28125 -1.109375q-0.4375 -0.71875 -0.4375 -1.578125q0 -0.796875 0.359375 -1.453125q0.359375 -0.671875 0.984375 -1.125q0.453125 -0.328125 1.25 -0.5625q0.8125 -0.25 1.734375 -0.25q1.375 0 2.421875 0.40625q1.046875 0.390625 1.546875 1.078125q0.5 0.671875 0.6875 1.8125l-1.953125 0.265625q-0.125 -0.90625 -0.765625 -1.40625q-0.640625 -0.515625 -1.796875 -0.515625q-1.375 0 -1.96875 0.453125q-0.578125 0.453125 -0.578125 1.0625q0 0.390625 0.25 0.6875q0.234375 0.328125 0.75 0.53125q0.3125 0.125 1.765625 0.515625q2.109375 0.5625 2.9375 0.921875q0.84375 0.359375 1.3125 1.046875q0.484375 0.6875 0.484375 1.703125q0 1.0 -0.578125 1.875q-0.578125 0.875 -1.671875 1.359375q-1.09375 0.484375 -2.484375 0.484375q-2.296875 0 -3.5 -0.953125q-1.1875 -0.953125 -1.515625 -2.8125zm18.419632 -10.421875l0 -2.296875l2.0 0l0 2.296875l-2.0 0zm0 13.921875l0 -11.75l2.0 0l0 11.75l-2.0 0zm5.033493 0l0 -11.75l1.78125 0l0 1.671875q1.296875 -1.9375 3.75 -1.9375q1.0625 0 1.953125 0.390625q0.890625 0.375 1.328125 1.0q0.4375 0.609375 0.625 1.46875q0.109375 0.546875 0.109375 1.9375l0 7.21875l-2.0 0l0 -7.140625q0 -1.21875 -0.234375 -1.8125q-0.234375 -0.609375 -0.828125 -0.96875q-0.578125 -0.359375 -1.375 -0.359375q-1.28125 0 -2.203125 0.8125q-0.921875 0.796875 -0.921875 3.046875l0 6.421875l-1.984375 0zm26.551224 -1.453125q-1.109375 0.9375 -2.140625 1.328125q-1.015625 0.390625 -2.1875 0.390625q-1.9375 0 -2.984375 -0.9375q-1.03125 -0.953125 -1.03125 -2.421875q0 -0.859375 0.390625 -1.578125q0.40625 -0.71875 1.03125 -1.140625q0.640625 -0.4375 1.4375 -0.65625q0.59375 -0.15625 1.765625 -0.296875q2.421875 -0.296875 3.5625 -0.6875q0 -0.40625 0 -0.515625q0 -1.21875 -0.5625 -1.71875q-0.765625 -0.671875 -2.265625 -0.671875q-1.40625 0 -2.078125 0.5q-0.671875 0.484375 -0.984375 1.734375l-1.953125 -0.265625q0.265625 -1.25 0.875 -2.015625q0.609375 -0.78125 1.75 -1.1875q1.15625 -0.421875 2.671875 -0.421875q1.515625 0 2.453125 0.359375q0.9375 0.34375 1.375 0.890625q0.453125 0.53125 0.625 1.34375q0.09375 0.515625 0.09375 1.84375l0 2.65625q0 2.78125 0.125 3.515625q0.140625 0.734375 0.515625 1.40625l-2.078125 0q-0.3125 -0.625 -0.40625 -1.453125zm-0.15625 -4.4375q-1.09375 0.4375 -3.265625 0.75q-1.21875 0.171875 -1.734375 0.390625q-0.5 0.21875 -0.78125 0.65625q-0.28125 0.421875 -0.28125 0.9375q0 0.796875 0.609375 1.328125q0.609375 0.53125 1.765625 0.53125q1.140625 0 2.03125 -0.5q0.90625 -0.5 1.328125 -1.375q0.328125 -0.671875 0.328125 -2.0l0 -0.71875zm11.6137085 5.890625l0 -16.21875l2.203125 0l8.53125 12.734375l0 -12.734375l2.046875 0l0 16.21875l-2.203125 0l-8.515625 -12.75l0 12.75l-2.0625 0zm23.799103 -1.453125q-1.109375 0.9375 -2.140625 1.328125q-1.015625 0.390625 -2.1875 0.390625q-1.9375 0 -2.984375 -0.9375q-1.03125 -0.953125 -1.03125 -2.421875q0 -0.859375 0.390625 -1.578125q0.40625 -0.71875 1.03125 -1.140625q0.640625 -0.4375 1.4375 -0.65625q0.59375 -0.15625 1.765625 -0.296875q2.421875 -0.296875 3.5625 -0.6875q0 -0.40625 0 -0.515625q0 -1.21875 -0.5625 -1.71875q-0.765625 -0.671875 -2.265625 -0.671875q-1.40625 0 -2.078125 0.5q-0.671875 0.484375 -0.984375 1.734375l-1.953125 -0.265625q0.265625 -1.25 0.875 -2.015625q0.609375 -0.78125 1.75 -1.1875q1.15625 -0.421875 2.671875 -0.421875q1.515625 0 2.453125 0.359375q0.9375 0.34375 1.375 0.890625q0.453125 0.53125 0.625 1.34375q0.09375 0.515625 0.09375 1.84375l0 2.65625q0 2.78125 0.125 3.515625q0.140625 0.734375 0.515625 1.40625l-2.078125 0q-0.3125 -0.625 -0.40625 -1.453125zm-0.15625 -4.4375q-1.09375 0.4375 -3.265625 0.75q-1.21875 0.171875 -1.734375 0.390625q-0.5 0.21875 -0.78125 0.65625q-0.28125 0.421875 -0.28125 0.9375q0 0.796875 0.609375 1.328125q0.609375 0.53125 1.765625 0.53125q1.140625 0 2.03125 -0.5q0.90625 -0.5 1.328125 -1.375q0.328125 -0.671875 0.328125 -2.0l0 -0.71875zm5.100342 5.890625l0 -11.75l1.78125 0l0 1.65625q0.546875 -0.875 1.46875 -1.390625q0.921875 -0.53125 2.09375 -0.53125q1.296875 0 2.125 0.546875q0.84375 0.53125 1.1875 1.515625q1.390625 -2.0625 3.625 -2.0625q1.75 0 2.6875 0.96875q0.9375 0.96875 0.9375 2.984375l0 8.0625l-1.96875 0l0 -7.40625q0 -1.1875 -0.203125 -1.703125q-0.1875 -0.53125 -0.703125 -0.84375q-0.5 -0.328125 -1.1875 -0.328125q-1.234375 0 -2.0625 0.828125q-0.8125 0.8125 -0.8125 2.625l0 6.828125l-2.0 0l0 -7.640625q0 -1.3125 -0.484375 -1.96875q-0.484375 -0.671875 -1.59375 -0.671875q-0.84375 0 -1.5625 0.4375q-0.703125 0.4375 -1.03125 1.296875q-0.3125 0.84375 -0.3125 2.453125l0 6.09375l-1.984375 0zm26.904083 -3.78125l2.0625 0.25q-0.484375 1.8125 -1.8125 2.8125q-1.3125 0.984375 -3.359375 0.984375q-2.578125 0 -4.09375 -1.578125q-1.5 -1.59375 -1.5 -4.46875q0 -2.953125 1.53125 -4.59375q1.53125 -1.640625 3.953125 -1.640625q2.359375 0 3.84375 1.609375q1.5 1.59375 1.5 4.515625q0 0.171875 0 0.53125l-8.765625 0q0.109375 1.9375 1.09375 2.96875q0.984375 1.015625 2.453125 1.015625q1.09375 0 1.859375 -0.5625q0.78125 -0.578125 1.234375 -1.84375zm-6.53125 -3.21875l6.5625 0q-0.140625 -1.484375 -0.75 -2.21875q-0.953125 -1.15625 -2.46875 -1.15625q-1.375 0 -2.3125 0.921875q-0.9375 0.90625 -1.03125 2.453125zm14.819061 3.0q-0.015625 -0.390625 -0.015625 -0.59375q0 -1.171875 0.34375 -2.015625q0.234375 -0.640625 0.78125 -1.296875q0.390625 -0.484375 1.421875 -1.390625q1.046875 -0.90625 1.359375 -1.453125q0.3125 -0.546875 0.3125 -1.1875q0 -1.15625 -0.921875 -2.03125q-0.90625 -0.890625 -2.21875 -0.890625q-1.265625 0 -2.125 0.796875q-0.84375 0.796875 -1.109375 2.484375l-2.046875 -0.234375q0.265625 -2.265625 1.625 -3.46875q1.375 -1.21875 3.625 -1.21875q2.375 0 3.78125 1.296875q1.421875 1.296875 1.421875 3.140625q0 1.0625 -0.5 1.953125q-0.484375 0.890625 -1.9375 2.171875q-0.96875 0.875 -1.28125 1.28125q-0.296875 0.40625 -0.4375 0.9375q-0.140625 0.53125 -0.15625 1.71875l-1.921875 0zm-0.125 4.0l0 -2.265625l2.28125 0l0 2.265625l-2.28125 0z" fill-rule="nonzero"/></g></svg>