<svg version="1.1" viewBox="0.0 0.0 908.0 428.0" fill="none" stroke="none" stroke-linecap="square" stroke-miterlimit="10" xmlns:xlink="http://www.w3.org/1999/xlink" xmlns="http://www.w3.org/2000/svg"><clipPath id="p.0"><path d="m0 0l908.0 0l0 428.0l-908.0 0l0 -428.0z" clip-rule="nonzero"/></clipPath><g clip-path="url(#p.0)"><path fill="#000000" fill-opacity="0.0" d="m0 0l908.0 0l0 428.0l-908.0 0z" fill-rule="evenodd"/><path fill="#efefef" d="m49.70875 77.837425c10.617405 -10.253006 36.99658 -0.52526855 57.136272 -0.78790283c20.139687 -0.26263428 52.37023 -11.231888 63.701866 -0.78791046c11.3316345 10.443977 4.4416046 42.48903 4.287903 63.451767c-0.15371704 20.962738 5.6836395 51.86734 -5.21019 62.32466c-10.893845 10.457336 -39.947327 0.6125183 -60.152832 0.41932678c-20.205505 -0.19319153 -50.02502 9.069824 -61.080215 -1.578476c-11.055195 -10.6483 -5.4704857 -41.804398 -5.25095 -62.31131c0.21953201 -20.506912 -4.0492554 -50.477142 6.5681458 -60.730156z" fill-rule="evenodd"/><path fill="#000000" fill-opacity="0.0" d="m150.98022 129.78387l-80.49931 73.71419" fill-rule="evenodd"/><path stroke="#ffffff" stroke-width="4.0" stroke-linejoin="round" stroke-linecap="butt" d="m150.98022 129.78387l-80.49931 73.71419" fill-rule="evenodd"/><path fill="#000000" fill-opacity="0.0" d="m166.51141 129.78387l-80.499306 73.71419" fill-rule="evenodd"/><path stroke="#ffffff" stroke-width="4.0" stroke-linejoin="round" stroke-linecap="butt" d="m166.51141 129.78387l-80.499306 73.71419" fill-rule="evenodd"/><path fill="#000000" fill-opacity="0.0" d="m182.04262 129.78387l-80.499306 73.71419" fill-rule="evenodd"/><path stroke="#ffffff" stroke-width="4.0" stroke-linejoin="round" stroke-linecap="butt" d="m182.04262 129.78387l-80.499306 73.71419" fill-rule="evenodd"/><path fill="#000000" fill-opacity="0.0" d="m178.28871 147.17586l-61.207603 56.31743" fill-rule="evenodd"/><path stroke="#ffffff" stroke-width="4.0" stroke-linejoin="round" stroke-linecap="butt" d="m178.28871 147.17586l-61.207603 56.31743" fill-rule="evenodd"/><path fill="#000000" fill-opacity="0.0" d="m178.28871 161.35695l-45.676407 42.142303" fill-rule="evenodd"/><path stroke="#ffffff" stroke-width="4.0" stroke-linejoin="round" stroke-linecap="butt" d="m178.28871 161.35695l-45.676407 42.142303" fill-rule="evenodd"/><path fill="#000000" fill-opacity="0.0" d="m178.14436 175.97375l-29.99234 27.5318" fill-rule="evenodd"/><path stroke="#ffffff" stroke-width="4.0" stroke-linejoin="round" stroke-linecap="butt" d="m178.14436 175.97375l-29.99234 27.5318" fill-rule="evenodd"/><path fill="#000000" fill-opacity="0.0" d="m178.14436 189.72179l-14.461136 13.757202" fill-rule="evenodd"/><path stroke="#ffffff" stroke-width="4.0" stroke-linejoin="round" stroke-linecap="butt" d="m178.14436 189.72179l-14.461136 13.757202" fill-rule="evenodd"/><path fill="#000000" fill-opacity="0.0" d="m135.44902 129.78387l-80.49931 73.71419" fill-rule="evenodd"/><path stroke="#ffffff" stroke-width="4.0" stroke-linejoin="round" stroke-linecap="butt" d="m135.44902 129.78387l-80.49931 73.71419" fill-rule="evenodd"/><path fill="#000000" fill-opacity="0.0" d="m119.917816 129.78387l-71.847084 66.03453" fill-rule="evenodd"/><path stroke="#ffffff" stroke-width="4.0" stroke-linejoin="round" stroke-linecap="butt" d="m119.917816 129.78387l-71.847084 66.03453" fill-rule="evenodd"/><path fill="#000000" fill-opacity="0.0" d="m73.32422 129.78387l-28.463676 25.894867" fill-rule="evenodd"/><path stroke="#ffffff" stroke-width="4.0" stroke-linejoin="round" stroke-linecap="butt" d="m73.32422 129.78387l-28.463676 25.894867" fill-rule="evenodd"/><path fill="#000000" fill-opacity="0.0" d="m88.855415 129.78387l-43.47513 39.930695" fill-rule="evenodd"/><path stroke="#ffffff" stroke-width="4.0" stroke-linejoin="round" stroke-linecap="butt" d="m88.855415 129.78387l-43.47513 39.930695" fill-rule="evenodd"/><path fill="#000000" fill-opacity="0.0" d="m104.38662 129.78387l-61.146458 55.655685" fill-rule="evenodd"/><path stroke="#ffffff" stroke-width="4.0" stroke-linejoin="round" stroke-linecap="butt" d="m104.38662 129.78387l-61.146458 55.655685" fill-rule="evenodd"/><path fill="#000000" fill-opacity="0.0" d="m150.80138 73.06853l-80.50393 73.70079" fill-rule="evenodd"/><path stroke="#ffffff" stroke-width="4.0" stroke-linejoin="round" stroke-linecap="butt" d="m150.80138 73.06853l-80.50393 73.70079" fill-rule="evenodd"/><path fill="#000000" fill-opacity="0.0" d="m166.33258 73.06853l-80.50394 73.70079" fill-rule="evenodd"/><path stroke="#ffffff" stroke-width="4.0" stroke-linejoin="round" stroke-linecap="butt" d="m166.33258 73.06853l-80.50394 73.70079" fill-rule="evenodd"/><path fill="#000000" fill-opacity="0.0" d="m181.86378 73.06853l-80.50394 73.70079" fill-rule="evenodd"/><path stroke="#ffffff" stroke-width="4.0" stroke-linejoin="round" stroke-linecap="butt" d="m181.86378 73.06853l-80.50394 73.70079" fill-rule="evenodd"/><path fill="#000000" fill-opacity="0.0" d="m178.10988 90.46051l-61.196854 56.314957" fill-rule="evenodd"/><path stroke="#ffffff" stroke-width="4.0" stroke-linejoin="round" stroke-linecap="butt" d="m178.10988 90.46051l-61.196854 56.314957" fill-rule="evenodd"/><path fill="#000000" fill-opacity="0.0" d="m178.10988 104.64162l-45.669296 42.141724" fill-rule="evenodd"/><path stroke="#ffffff" stroke-width="4.0" stroke-linejoin="round" stroke-linecap="butt" d="m178.10988 104.64162l-45.669296 42.141724" fill-rule="evenodd"/><path fill="#000000" fill-opacity="0.0" d="m177.78668 119.258415l-29.984253 27.52755" fill-rule="evenodd"/><path stroke="#ffffff" stroke-width="4.0" stroke-linejoin="round" stroke-linecap="butt" d="m177.78668 119.258415l-29.984253 27.52755" fill-rule="evenodd"/><path fill="#000000" fill-opacity="0.0" d="m135.27019 73.06853l-80.50394 73.70079" fill-rule="evenodd"/><path stroke="#ffffff" stroke-width="4.0" stroke-linejoin="round" stroke-linecap="butt" d="m135.27019 73.06853l-80.50394 73.70079" fill-rule="evenodd"/><path fill="#000000" fill-opacity="0.0" d="m119.02364 73.06853l-71.84709 66.034546" fill-rule="evenodd"/><path stroke="#ffffff" stroke-width="4.0" stroke-linejoin="round" stroke-linecap="butt" d="m119.02364 73.06853l-71.84709 66.034546" fill-rule="evenodd"/><path fill="#000000" fill-opacity="0.0" d="m72.43004 73.06853l-28.463673 25.894875" fill-rule="evenodd"/><path stroke="#ffffff" stroke-width="4.0" stroke-linejoin="round" stroke-linecap="butt" d="m72.43004 73.06853l-28.463673 25.894875" fill-rule="evenodd"/><path fill="#000000" fill-opacity="0.0" d="m87.96124 73.06853l-43.475132 39.930695" fill-rule="evenodd"/><path stroke="#ffffff" stroke-width="4.0" stroke-linejoin="round" stroke-linecap="butt" d="m87.96124 73.06853l-43.475132 39.930695" fill-rule="evenodd"/><path fill="#000000" fill-opacity="0.0" d="m103.49244 73.06853l-61.146454 55.6557" fill-rule="evenodd"/><path stroke="#ffffff" stroke-width="4.0" stroke-linejoin="round" stroke-linecap="butt" d="m103.49244 73.06853l-61.146454 55.6557" fill-rule="evenodd"/><path fill="#000000" fill-opacity="0.0" d="m128.65515 39.80672l95.90552 0l0 31.874012l-95.90552 0z" fill-rule="evenodd"/><path fill="#666666" d="m141.76807 61.503727l0 -1.203125l1.25 -0.234375l0 -8.5l-1.25 -0.234375l0 -1.203125l5.265625 0q1.28125 0 2.1875 0.390625q0.90625 0.390625 1.375 1.125q0.484375 0.734375 0.484375 1.78125q0 1.0 -0.484375 1.75q-0.46875 0.734375 -1.3125 1.140625q-0.84375 0.40625 -1.984375 0.421875l-2.3125 0.03125l0 3.296875l1.234375 0.234375l0 1.203125l-4.453125 0zm7.40625 0l-2.171875 -5.234375l1.84375 -0.3125l1.84375 4.140625l0.890625 0.1875l0 1.21875l-2.40625 0zm-4.1875 -6.265625l1.953125 0q1.109375 0 1.640625 -0.453125q0.53125 -0.453125 0.53125 -1.3125q0 -0.828125 -0.515625 -1.328125q-0.515625 -0.5 -1.5625 -0.5l-2.046875 0l0 3.59375zm7.609375 6.265625l0 -1.203125l0.828125 -0.125l3.765625 -10.046875l1.90625 0l3.71875 10.046875l0.828125 0.125l0 1.203125l-3.609375 0l0 -1.203125l0.8125 -0.15625l-0.609375 -1.78125l-4.234375 0l-0.609375 1.78125l0.8125 0.15625l0 1.203125l-3.609375 0zm3.921875 -4.65625l3.21875 0l-1.484375 -4.203125l-0.09375 -0.3125l-0.046875 0l-0.109375 0.328125l-1.484375 4.1875zm8.0546875 4.65625l0 -1.203125l1.25 -0.25l0 -8.46875l-1.25 -0.25l0 -1.203125l1.25 0l3.515625 0q1.53125 0 2.671875 0.71875q1.140625 0.71875 1.78125 1.984375q0.640625 1.25 0.640625 2.875l0 0.21875q0 1.609375 -0.625 2.875q-0.625 1.25 -1.765625 1.984375q-1.125 0.71875 -2.640625 0.71875l-4.828125 0zm3.21875 -1.515625l1.5 0q1.0 0 1.703125 -0.53125q0.71875 -0.546875 1.09375 -1.453125q0.375 -0.921875 0.375 -2.078125l0 -0.234375q0 -1.171875 -0.375 -2.078125q-0.375 -0.921875 -1.09375 -1.4375q-0.703125 -0.53125 -1.703125 -0.53125l-1.5 0l0 8.34375zm7.6953125 1.515625l0 -1.203125l1.25 -0.234375l0 -8.5l-1.25 -0.234375l0 -1.203125l4.453125 0l0 1.203125l-1.234375 0.234375l0 8.5l1.234375 0.234375l0 1.203125l-4.453125 0zm10.796875 0.171875q-1.6875 0 -2.875 -0.71875q-1.1875 -0.71875 -1.828125 -2.0q-0.625 -1.296875 -0.625 -3.0l0 -0.28125q0 -1.671875 0.625 -2.953125q0.625 -1.28125 1.78125 -2.015625q1.171875 -0.75 2.796875 -0.75q1.125 0 2.09375 0.34375q0.96875 0.328125 1.6875 0.9375l0 2.625l-1.5 0l-0.203125 -1.75q-0.25 -0.1875 -0.5625 -0.3125q-0.3125 -0.140625 -0.6875 -0.203125q-0.375 -0.078125 -0.8125 -0.078125q-1.015625 0 -1.75 0.515625q-0.734375 0.515625 -1.125 1.453125q-0.375 0.921875 -0.375 2.171875l0 0.296875q0 1.296875 0.40625 2.234375q0.40625 0.9375 1.171875 1.4375q0.765625 0.5 1.828125 0.5q0.515625 0 1.015625 -0.125q0.5 -0.125 0.890625 -0.3125l0.203125 -1.59375l1.484375 0l0 2.609375q-0.65625 0.421875 -1.609375 0.703125q-0.9375 0.265625 -2.03125 0.265625zm4.8125 -0.171875l0 -1.203125l0.828125 -0.125l3.765625 -10.046875l1.90625 0l3.71875 10.046875l0.828125 0.125l0 1.203125l-3.609375 0l0 -1.203125l0.8125 -0.15625l-0.609375 -1.78125l-4.234375 0l-0.609375 1.78125l0.8125 0.15625l0 1.203125l-3.609375 0zm3.921875 -4.65625l3.21875 0l-1.484375 -4.203125l-0.09375 -0.3125l-0.046875 0l-0.109375 0.328125l-1.484375 4.1875zm8.0546875 4.65625l0 -1.203125l1.25 -0.234375l0 -8.5l-1.25 -0.234375l0 -1.203125l1.25 0l1.96875 0l1.328125 0l0 1.203125l-1.328125 0.234375l0 8.421875l3.546875 0l0.140625 -1.71875l1.5 0l0 3.234375l-8.40625 0z" fill-rule="nonzero"/><path fill="#efefef" d="m548.00555 77.76069c11.446289 -15.656555 42.997864 -2.4140396 66.12482 -1.70224c23.126953 0.71180725 60.15448 -12.021584 72.63684 5.9730606c12.482422 17.994644 2.255249 68.46117 2.2573242 101.99481c0.0021362305 33.53366 10.379639 81.820724 -2.2445679 99.20711c-12.624207 17.386353 -50.37152 5.6310425 -73.50055 5.1110535c-23.12909 -0.52001953 -53.96942 11.493347 -65.273865 -8.23111c-11.304443 -19.724457 -2.5528564 -76.39017 -2.5528564 -110.115616c0 -33.72545 -8.893433 -76.58052 2.5528564 -92.23707z" fill-rule="evenodd"/><path fill="#000000" fill-opacity="0.0" d="m646.6909 73.78518l-80.49933 73.714195" fill-rule="evenodd"/><path stroke="#ffffff" stroke-width="4.0" stroke-linejoin="round" stroke-linecap="butt" d="m646.6909 73.78518l-80.49933 73.714195" fill-rule="evenodd"/><path fill="#000000" fill-opacity="0.0" d="m662.2221 73.78518l-80.49933 73.714195" fill-rule="evenodd"/><path stroke="#ffffff" stroke-width="4.0" stroke-linejoin="round" stroke-linecap="butt" d="m662.2221 73.78518l-80.49933 73.714195" fill-rule="evenodd"/><path fill="#000000" fill-opacity="0.0" d="m677.7533 73.78518l-80.49933 73.714195" fill-rule="evenodd"/><path stroke="#ffffff" stroke-width="4.0" stroke-linejoin="round" stroke-linecap="butt" d="m677.7533 73.78518l-80.49933 73.714195" fill-rule="evenodd"/><path fill="#000000" fill-opacity="0.0" d="m693.2998 73.78518l-80.49933 73.714195" fill-rule="evenodd"/><path stroke="#ffffff" stroke-width="4.0" stroke-linejoin="round" stroke-linecap="butt" d="m693.2998 73.78518l-80.49933 73.714195" fill-rule="evenodd"/><path fill="#000000" fill-opacity="0.0" d="m693.02466 88.38841l-64.69299 59.103714" fill-rule="evenodd"/><path stroke="#ffffff" stroke-width="4.0" stroke-linejoin="round" stroke-linecap="butt" d="m693.02466 88.38841l-64.69299 59.103714" fill-rule="evenodd"/><path fill="#000000" fill-opacity="0.0" d="m690.61444 104.41235l-46.74646 43.082672" fill-rule="evenodd"/><path stroke="#ffffff" stroke-width="4.0" stroke-linejoin="round" stroke-linecap="butt" d="m690.61444 104.41235l-46.74646 43.082672" fill-rule="evenodd"/><path fill="#000000" fill-opacity="0.0" d="m692.4896 117.07826l-33.08026 30.422562" fill-rule="evenodd"/><path stroke="#ffffff" stroke-width="4.0" stroke-linejoin="round" stroke-linecap="butt" d="m692.4896 117.07826l-33.08026 30.422562" fill-rule="evenodd"/><path fill="#000000" fill-opacity="0.0" d="m695.16986 128.37135l-20.239502 19.120773" fill-rule="evenodd"/><path stroke="#ffffff" stroke-width="4.0" stroke-linejoin="round" stroke-linecap="butt" d="m695.16986 128.37135l-20.239502 19.120773" fill-rule="evenodd"/><path fill="#000000" fill-opacity="0.0" d="m631.1597 73.78518l-80.49933 73.714195" fill-rule="evenodd"/><path stroke="#ffffff" stroke-width="4.0" stroke-linejoin="round" stroke-linecap="butt" d="m631.1597 73.78518l-80.49933 73.714195" fill-rule="evenodd"/><path fill="#000000" fill-opacity="0.0" d="m615.6285 73.78518l-71.847046 66.03454" fill-rule="evenodd"/><path stroke="#ffffff" stroke-width="4.0" stroke-linejoin="round" stroke-linecap="butt" d="m615.6285 73.78518l-71.847046 66.03454" fill-rule="evenodd"/><path fill="#000000" fill-opacity="0.0" d="m569.0349 73.78518l-28.463684 25.894875" fill-rule="evenodd"/><path stroke="#ffffff" stroke-width="4.0" stroke-linejoin="round" stroke-linecap="butt" d="m569.0349 73.78518l-28.463684 25.894875" fill-rule="evenodd"/><path fill="#000000" fill-opacity="0.0" d="m584.5661 73.78518l-43.475098 39.930702" fill-rule="evenodd"/><path stroke="#ffffff" stroke-width="4.0" stroke-linejoin="round" stroke-linecap="butt" d="m584.5661 73.78518l-43.475098 39.930702" fill-rule="evenodd"/><path fill="#000000" fill-opacity="0.0" d="m600.0973 73.78518l-61.146423 55.655693" fill-rule="evenodd"/><path stroke="#ffffff" stroke-width="4.0" stroke-linejoin="round" stroke-linecap="butt" d="m600.0973 73.78518l-61.146423 55.655693" fill-rule="evenodd"/><path fill="#000000" fill-opacity="0.0" d="m645.0057 217.78519l-80.50232 73.7142" fill-rule="evenodd"/><path stroke="#ffffff" stroke-width="4.0" stroke-linejoin="round" stroke-linecap="butt" d="m645.0057 217.78519l-80.50232 73.7142" fill-rule="evenodd"/><path fill="#000000" fill-opacity="0.0" d="m660.5375 217.78519l-80.50232 73.7142" fill-rule="evenodd"/><path stroke="#ffffff" stroke-width="4.0" stroke-linejoin="round" stroke-linecap="butt" d="m660.5375 217.78519l-80.50232 73.7142" fill-rule="evenodd"/><path fill="#000000" fill-opacity="0.0" d="m676.0692 217.78519l-80.50232 73.7142" fill-rule="evenodd"/><path stroke="#ffffff" stroke-width="4.0" stroke-linejoin="round" stroke-linecap="butt" d="m676.0692 217.78519l-80.50232 73.7142" fill-rule="evenodd"/><path fill="#000000" fill-opacity="0.0" d="m691.6163 217.78519l-80.50232 73.7142" fill-rule="evenodd"/><path stroke="#ffffff" stroke-width="4.0" stroke-linejoin="round" stroke-linecap="butt" d="m691.6163 217.78519l-80.50232 73.7142" fill-rule="evenodd"/><path fill="#000000" fill-opacity="0.0" d="m691.3411 232.38841l-64.69537 59.103714" fill-rule="evenodd"/><path stroke="#ffffff" stroke-width="4.0" stroke-linejoin="round" stroke-linecap="butt" d="m691.3411 232.38841l-64.69537 59.103714" fill-rule="evenodd"/><path fill="#000000" fill-opacity="0.0" d="m688.93085 248.41235l-46.74823 43.082672" fill-rule="evenodd"/><path stroke="#ffffff" stroke-width="4.0" stroke-linejoin="round" stroke-linecap="butt" d="m688.93085 248.41235l-46.74823 43.082672" fill-rule="evenodd"/><path fill="#000000" fill-opacity="0.0" d="m690.8061 261.07828l-33.081482 30.422546" fill-rule="evenodd"/><path stroke="#ffffff" stroke-width="4.0" stroke-linejoin="round" stroke-linecap="butt" d="m690.8061 261.07828l-33.081482 30.422546" fill-rule="evenodd"/><path fill="#000000" fill-opacity="0.0" d="m693.48645 272.37137l-20.240234 19.120758" fill-rule="evenodd"/><path stroke="#ffffff" stroke-width="4.0" stroke-linejoin="round" stroke-linecap="butt" d="m693.48645 272.37137l-20.240234 19.120758" fill-rule="evenodd"/><path fill="#000000" fill-opacity="0.0" d="m629.4739 217.78519l-80.50232 73.7142" fill-rule="evenodd"/><path stroke="#ffffff" stroke-width="4.0" stroke-linejoin="round" stroke-linecap="butt" d="m629.4739 217.78519l-80.50232 73.7142" fill-rule="evenodd"/><path fill="#000000" fill-opacity="0.0" d="m613.9421 217.78519l-71.84973 66.034546" fill-rule="evenodd"/><path stroke="#ffffff" stroke-width="4.0" stroke-linejoin="round" stroke-linecap="butt" d="m613.9421 217.78519l-71.84973 66.034546" fill-rule="evenodd"/><path fill="#000000" fill-opacity="0.0" d="m567.34674 217.78519l-28.464722 25.894867" fill-rule="evenodd"/><path stroke="#ffffff" stroke-width="4.0" stroke-linejoin="round" stroke-linecap="butt" d="m567.34674 217.78519l-28.464722 25.894867" fill-rule="evenodd"/><path fill="#000000" fill-opacity="0.0" d="m582.87854 217.78519l-43.476746 39.930695" fill-rule="evenodd"/><path stroke="#ffffff" stroke-width="4.0" stroke-linejoin="round" stroke-linecap="butt" d="m582.87854 217.78519l-43.476746 39.930695" fill-rule="evenodd"/><path fill="#000000" fill-opacity="0.0" d="m598.41034 217.78519l-61.148743 55.6557" fill-rule="evenodd"/><path stroke="#ffffff" stroke-width="4.0" stroke-linejoin="round" stroke-linecap="butt" d="m598.41034 217.78519l-61.148743 55.6557" fill-rule="evenodd"/><path fill="#000000" fill-opacity="0.0" d="m645.5557 145.78519l-80.49933 73.71419" fill-rule="evenodd"/><path stroke="#ffffff" stroke-width="4.0" stroke-linejoin="round" stroke-linecap="butt" d="m645.5557 145.78519l-80.49933 73.71419" fill-rule="evenodd"/><path fill="#000000" fill-opacity="0.0" d="m661.0869 145.78519l-80.49933 73.71419" fill-rule="evenodd"/><path stroke="#ffffff" stroke-width="4.0" stroke-linejoin="round" stroke-linecap="butt" d="m661.0869 145.78519l-80.49933 73.71419" fill-rule="evenodd"/><path fill="#000000" fill-opacity="0.0" d="m676.6181 145.78519l-80.49933 73.71419" fill-rule="evenodd"/><path stroke="#ffffff" stroke-width="4.0" stroke-linejoin="round" stroke-linecap="butt" d="m676.6181 145.78519l-80.49933 73.71419" fill-rule="evenodd"/><path fill="#000000" fill-opacity="0.0" d="m692.1646 145.78519l-80.49933 73.71419" fill-rule="evenodd"/><path stroke="#ffffff" stroke-width="4.0" stroke-linejoin="round" stroke-linecap="butt" d="m692.1646 145.78519l-80.49933 73.71419" fill-rule="evenodd"/><path fill="#000000" fill-opacity="0.0" d="m691.8894 160.38841l-64.69293 59.103714" fill-rule="evenodd"/><path stroke="#ffffff" stroke-width="4.0" stroke-linejoin="round" stroke-linecap="butt" d="m691.8894 160.38841l-64.69293 59.103714" fill-rule="evenodd"/><path fill="#000000" fill-opacity="0.0" d="m689.47925 176.41235l-46.74646 43.082672" fill-rule="evenodd"/><path stroke="#ffffff" stroke-width="4.0" stroke-linejoin="round" stroke-linecap="butt" d="m689.47925 176.41235l-46.74646 43.082672" fill-rule="evenodd"/><path fill="#000000" fill-opacity="0.0" d="m691.3544 189.07826l-33.0802 30.422562" fill-rule="evenodd"/><path stroke="#ffffff" stroke-width="4.0" stroke-linejoin="round" stroke-linecap="butt" d="m691.3544 189.07826l-33.0802 30.422562" fill-rule="evenodd"/><path fill="#000000" fill-opacity="0.0" d="m694.03467 200.37135l-20.239502 19.120773" fill-rule="evenodd"/><path stroke="#ffffff" stroke-width="4.0" stroke-linejoin="round" stroke-linecap="butt" d="m694.03467 200.37135l-20.239502 19.120773" fill-rule="evenodd"/><path fill="#000000" fill-opacity="0.0" d="m630.0245 145.78519l-80.49927 73.71419" fill-rule="evenodd"/><path stroke="#ffffff" stroke-width="4.0" stroke-linejoin="round" stroke-linecap="butt" d="m630.0245 145.78519l-80.49927 73.71419" fill-rule="evenodd"/><path fill="#000000" fill-opacity="0.0" d="m614.4933 145.78519l-71.84711 66.03453" fill-rule="evenodd"/><path stroke="#ffffff" stroke-width="4.0" stroke-linejoin="round" stroke-linecap="butt" d="m614.4933 145.78519l-71.84711 66.03453" fill-rule="evenodd"/><path fill="#000000" fill-opacity="0.0" d="m567.8997 145.78519l-28.463684 25.894867" fill-rule="evenodd"/><path stroke="#ffffff" stroke-width="4.0" stroke-linejoin="round" stroke-linecap="butt" d="m567.8997 145.78519l-28.463684 25.894867" fill-rule="evenodd"/><path fill="#000000" fill-opacity="0.0" d="m583.4309 145.78519l-43.47516 39.930695" fill-rule="evenodd"/><path stroke="#ffffff" stroke-width="4.0" stroke-linejoin="round" stroke-linecap="butt" d="m583.4309 145.78519l-43.47516 39.930695" fill-rule="evenodd"/><path fill="#000000" fill-opacity="0.0" d="m598.9621 145.78519l-61.146484 55.655685" fill-rule="evenodd"/><path stroke="#ffffff" stroke-width="4.0" stroke-linejoin="round" stroke-linecap="butt" d="m598.9621 145.78519l-61.146484 55.655685" fill-rule="evenodd"/><path fill="#000000" fill-opacity="0.0" d="m498.0 385.6929l0 -362.2047l41.228333 0l0 362.2047z" fill-rule="evenodd"/><path fill="#000000" d="m525.33417 275.16006l-1.40625 0l-0.265625 -1.453125l-9.90625 0l-0.265625 1.453125l-1.421875 0l0 -1.453125l0 -4.375q0 -2.234375 0.90625 -3.484375q0.90625 -1.25 2.71875 -1.25q0.890625 0 1.609375 0.515625q0.71875 0.515625 1.0625 1.4375q0.171875 -0.796875 0.625 -1.34375q0.453125 -0.546875 1.109375 -0.828125q0.65625 -0.296875 1.421875 -0.296875q1.875 0 2.84375 1.234375q0.96875 1.21875 0.96875 3.40625l0 6.4375zm-1.765625 -3.75l0 -2.6875q0 -1.125 -0.515625 -1.734375q-0.53125 -0.609375 -1.53125 -0.609375q-0.703125 0 -1.1875 0.234375q-0.5 0.21875 -0.75 0.6875q-0.265625 0.46875 -0.265625 1.1875l0 2.921875l4.25 0zm-5.90625 0l0 -2.328125q0 -1.03125 -0.484375 -1.609375q-0.5 -0.578125 -1.375 -0.578125q-1.0 0 -1.46875 0.625q-0.484375 0.609375 -0.484375 1.8125l0 2.078125l3.8125 0zm7.671875 -8.411194l-1.40625 0l-0.265625 -1.453125l-9.90625 0l-0.265625 1.453125l-1.421875 0l0 -10.109375l3.421875 0l0 1.78125l-1.65625 0.15625l0 4.421875l3.75 0l0 -4.65625l1.78125 0l0 4.65625l4.21875 0l0 -4.671875l-1.6875 -0.15625l0 -1.765625l3.4375 0l0 10.34375zm0 -11.921738l-1.40625 0l-0.265625 -1.453125l-9.90625 0l-0.265625 1.453125l-1.421875 0l0 -1.453125l0 -2.3125l9.6875 -6.09375l-0.015625 -0.046875l-7.984375 0l-0.265625 1.671875l-1.421875 0l0 -3.75l0 -1.4375l1.421875 0l0.265625 1.4375l11.578125 0l0 2.1875l-9.640625 6.21875l0 0.0625l7.96875 0l0.265625 -1.671875l1.40625 0l0 5.1875zm0 -14.550461l-1.40625 0l-0.265625 -1.453125l-9.90625 0l-0.265625 1.453125l-1.421875 0l0 -10.109375l3.421875 0l0 1.78125l-1.65625 0.15625l0 4.421875l3.75 0l0 -4.65625l1.78125 0l0 4.65625l4.21875 0l0 -4.671875l-1.6875 -0.15625l0 -1.765625l3.4375 0l0 10.34375zm0 -11.906113l-1.40625 0l-0.265625 -1.453125l-9.90625 0l-0.265625 1.453125l-1.421875 0l0 -10.3125l3.453125 0l0 1.78125l-1.671875 0.140625l0 4.640625l4.046875 0l0 -4.734375l1.765625 0l0 4.734375l4.0 0l0.265625 -1.453125l1.40625 0l0 5.203125zm0 -11.487076l-1.40625 0l-0.265625 -1.453125l-9.90625 0l-0.265625 1.453125l-1.421875 0l0 -5.1875l1.421875 0l0.265625 1.4375l9.90625 0l0.265625 -1.4375l1.40625 0l0 5.1875zm0.1875 -12.582367q0 1.953125 -0.828125 3.34375q-0.828125 1.390625 -2.328125 2.125q-1.5 0.734375 -3.484375 0.734375l-0.34375 0q-1.9375 0 -3.4375 -0.734375q-1.5 -0.734375 -2.359375 -2.078125q-0.859375 -1.359375 -0.859375 -3.25q0 -1.328125 0.390625 -2.453125q0.390625 -1.125 1.109375 -1.96875l3.046875 0l0 1.75l-2.046875 0.234375q-0.21875 0.3125 -0.375 0.671875q-0.15625 0.359375 -0.234375 0.796875q-0.078125 0.4375 -0.078125 0.9375q0 1.203125 0.609375 2.0625q0.59375 0.84375 1.6875 1.296875q1.078125 0.4375 2.53125 0.4375l0.359375 0q1.5 0 2.59375 -0.46875q1.09375 -0.484375 1.671875 -1.375q0.578125 -0.890625 0.578125 -2.125q0 -0.59375 -0.140625 -1.1875q-0.140625 -0.59375 -0.359375 -1.03125l-1.859375 -0.25l0 -1.734375l3.046875 0q0.5 0.765625 0.8125 1.875q0.296875 1.109375 0.296875 2.390625zm-0.1875 -5.727722l-1.40625 0l-0.265625 -1.453125l-9.90625 0l-0.265625 1.453125l-1.421875 0l0 -5.1875l1.421875 0l0.265625 1.4375l9.90625 0l0.265625 -1.4375l1.40625 0l0 5.1875zm0 -5.784195l-1.40625 0l-0.140625 -0.96875l-11.71875 -4.390625l0 -2.234375l11.71875 -4.328125l0.140625 -0.96875l1.40625 0l0 4.21875l-1.40625 0l-0.171875 -0.953125l-2.078125 0.703125l0 4.9375l2.078125 0.71875l0.171875 -0.953125l1.40625 0l0 4.21875zm-5.421875 -4.578125l0 -3.75l-4.90625 1.71875l-0.359375 0.125l0 0.046875l0.375 0.140625l4.890625 1.71875zm5.421875 -9.386795l-1.40625 0l-0.265625 -1.453125l-9.90625 0l-0.265625 1.453125l-1.421875 0l0 -6.140625q0 -1.484375 0.46875 -2.546875q0.453125 -1.0625 1.3125 -1.609375q0.859375 -0.5625 2.0625 -0.5625q1.171875 0 2.046875 0.5625q0.859375 0.546875 1.34375 1.53125q0.46875 0.984375 0.484375 2.3125l0.03125 2.703125l3.84375 0l0.265625 -1.453125l1.40625 0l0 5.203125zm0 -8.640625l-6.109375 2.53125l-0.34375 -2.140625l4.8125 -2.15625l0.21875 -1.03125l1.421875 0l0 2.796875zm-7.3125 4.890625l0 -2.28125q0 -1.296875 -0.515625 -1.921875q-0.53125 -0.625 -1.53125 -0.625q-0.96875 0 -1.546875 0.609375q-0.578125 0.59375 -0.578125 1.828125l0 2.390625l4.171875 0zm7.3125 -8.985077l-1.40625 0l-0.265625 -1.453125l-9.90625 0l-0.265625 1.453125l-1.421875 0l0 -5.1875l1.421875 0l0.265625 1.4375l9.90625 0l0.265625 -1.4375l1.40625 0l0 5.1875zm0 -6.394867l-1.40625 0l-0.265625 -1.453125l-9.90625 0l-0.265625 1.453125l-1.421875 0l0 -10.109375l3.421875 0l0 1.78125l-1.65625 0.15625l0 4.421875l3.75 0l0 -4.65625l1.78125 0l0 4.65625l4.21875 0l0 -4.671875l-1.6875 -0.15625l0 -1.765625l3.4375 0l0 10.34375zm0.1875 -17.062363q0 1.359375 -0.328125 2.53125q-0.34375 1.15625 -1.125 2.265625l-3.046875 0l0 -1.78125l1.96875 -0.296875q0.34375 -0.46875 0.5625 -1.171875q0.203125 -0.71875 0.203125 -1.546875q0 -0.8125 -0.234375 -1.359375q-0.234375 -0.546875 -0.640625 -0.84375q-0.421875 -0.296875 -1.0 -0.296875q-0.53125 0 -0.9375 0.265625q-0.40625 0.25 -0.734375 0.84375q-0.328125 0.59375 -0.59375 1.609375q-0.40625 1.484375 -0.953125 2.484375q-0.546875 0.984375 -1.3125 1.5q-0.765625 0.5 -1.796875 0.5q-1.0625 0 -1.875 -0.578125q-0.828125 -0.578125 -1.296875 -1.609375q-0.484375 -1.03125 -0.5 -2.375q-0.015625 -1.484375 0.390625 -2.609375q0.40625 -1.140625 1.046875 -1.921875l2.84375 0l0 1.734375l-1.84375 0.328125q-0.265625 0.375 -0.453125 0.984375q-0.1875 0.59375 -0.1875 1.40625q0 0.6875 0.234375 1.21875q0.21875 0.53125 0.640625 0.828125q0.40625 0.296875 0.984375 0.296875q0.5 0 0.875 -0.265625q0.375 -0.265625 0.6875 -0.875q0.296875 -0.625 0.59375 -1.6875q0.578125 -2.15625 1.59375 -3.265625q1.015625 -1.109375 2.578125 -1.109375q1.09375 0 1.921875 0.59375q0.828125 0.59375 1.28125 1.671875q0.453125 1.078125 0.453125 2.53125z" fill-rule="nonzero"/><path fill="#000000" fill-opacity="0.0" d="m533.5853 385.6929l372.97638 0l0 40.81891l-372.97638 0z" fill-rule="evenodd"/><path fill="#000000" d="m692.9425 412.82236l0 -1.40625l1.453125 -0.265625l0 -9.90625l-1.453125 -0.265625l0 -1.421875l6.140625 0q1.484375 0 2.546875 0.46875q1.0625 0.453125 1.609375 1.3125q0.5625 0.859375 0.5625 2.0625q0 1.171875 -0.5625 2.046875q-0.546875 0.859375 -1.53125 1.34375q-0.984375 0.46875 -2.3125 0.484375l-2.703125 0.03125l0 3.84375l1.453125 0.265625l0 1.40625l-5.203125 0zm8.640625 0l-2.53125 -6.109375l2.140625 -0.34375l2.15625 4.8125l1.03125 0.21875l0 1.421875l-2.796875 0zm-4.890625 -7.3125l2.28125 0q1.296875 0 1.921875 -0.515625q0.625 -0.53125 0.625 -1.53125q0 -0.96875 -0.609375 -1.546875q-0.59375 -0.578125 -1.828125 -0.578125l-2.390625 0l0 4.171875zm8.985046 7.3125l0 -1.40625l1.453125 -0.265625l0 -9.90625l-1.453125 -0.265625l0 -1.421875l5.1875 0l0 1.421875l-1.4375 0.265625l0 9.90625l1.4375 0.265625l0 1.40625l-5.1875 0zm11.551147 0.1875q-1.359375 0 -2.53125 -0.328125q-1.15625 -0.34375 -2.265625 -1.125l0 -3.046875l1.78125 0l0.296875 1.96875q0.46875 0.34375 1.171875 0.5625q0.71875 0.203125 1.546875 0.203125q0.8125 0 1.359375 -0.234375q0.546875 -0.234375 0.84375 -0.640625q0.296875 -0.421875 0.296875 -1.0q0 -0.53125 -0.265625 -0.9375q-0.25 -0.40625 -0.84375 -0.734375q-0.59375 -0.328125 -1.609375 -0.59375q-1.484375 -0.40625 -2.484375 -0.953125q-0.984375 -0.546875 -1.5 -1.3125q-0.5 -0.765625 -0.5 -1.796875q0 -1.0625 0.578125 -1.875q0.578125 -0.828125 1.609375 -1.296875q1.03125 -0.484375 2.375 -0.5q1.484375 -0.015625 2.609375 0.390625q1.140625 0.40625 1.921875 1.046875l0 2.84375l-1.734375 0l-0.328125 -1.84375q-0.375 -0.265625 -0.984375 -0.453125q-0.59375 -0.1875 -1.40625 -0.1875q-0.6875 0 -1.21875 0.234375q-0.53125 0.21875 -0.828125 0.640625q-0.296875 0.40625 -0.296875 0.984375q0 0.5 0.265625 0.875q0.265625 0.375 0.875 0.6875q0.625 0.296875 1.6875 0.59375q2.15625 0.578125 3.265625 1.59375q1.109375 1.015625 1.109375 2.578125q0 1.09375 -0.59375 1.921875q-0.59375 0.828125 -1.671875 1.28125q-1.078125 0.453125 -2.53125 0.453125zm9.423401 -3.6875l-1.203125 -1.375l6.421875 -6.828125l0.015625 -0.03125l-1.171875 -0.109375l0 -1.421875l4.953125 0l0 1.421875l-1.25 0.234375l-7.765625 8.109375zm-3.375 3.5l0 -1.40625l1.453125 -0.265625l0 -9.90625l-1.453125 -0.265625l0 -1.421875l5.15625 0l0 1.421875l-1.40625 0.265625l0 9.90625l1.40625 0.265625l0 1.40625l-5.15625 0zm7.734375 0l0 -1.40625l1.171875 -0.109375l0 -0.015625l-3.5 -4.828125l1.4375 -1.609375l4.75 6.34375l1.265625 0.21875l0 1.40625l-5.125 0zm11.332092 0.1875q-1.359375 0 -2.53125 -0.328125q-1.15625 -0.34375 -2.265625 -1.125l0 -3.046875l1.78125 0l0.296875 1.96875q0.46875 0.34375 1.171875 0.5625q0.71875 0.203125 1.546875 0.203125q0.8125 0 1.359375 -0.234375q0.546875 -0.234375 0.84375 -0.640625q0.296875 -0.421875 0.296875 -1.0q0 -0.53125 -0.265625 -0.9375q-0.25 -0.40625 -0.84375 -0.734375q-0.59375 -0.328125 -1.609375 -0.59375q-1.484375 -0.40625 -2.484375 -0.953125q-0.984375 -0.546875 -1.5 -1.3125q-0.5 -0.765625 -0.5 -1.796875q0 -1.0625 0.578125 -1.875q0.578125 -0.828125 1.609375 -1.296875q1.03125 -0.484375 2.375 -0.5q1.484375 -0.015625 2.609375 0.390625q1.140625 0.40625 1.921875 1.046875l0 2.84375l-1.734375 0l-0.328125 -1.84375q-0.375 -0.265625 -0.984375 -0.453125q-0.59375 -0.1875 -1.40625 -0.1875q-0.6875 0 -1.21875 0.234375q-0.53125 0.21875 -0.828125 0.640625q-0.296875 0.40625 -0.296875 0.984375q0 0.5 0.265625 0.875q0.265625 0.375 0.875 0.6875q0.625 0.296875 1.6875 0.59375q2.15625 0.578125 3.265625 1.59375q1.109375 1.015625 1.109375 2.578125q0 1.09375 -0.59375 1.921875q-0.59375 0.828125 -1.671875 1.28125q-1.078125 0.453125 -2.53125 0.453125z" fill-rule="nonzero"/><path fill="#000000" fill-opacity="0.0" d="m-2.0 385.6929l0 -362.2047l41.228348 0l0 362.2047z" fill-rule="evenodd"/><path fill="#000000" d="m25.334171 228.1779l-1.40625 0l-0.265625 -1.4375l-3.0 0l-7.0 3.984375l-0.171875 1.203125l-1.421875 0l0 -4.984375l1.421875 0l0.15625 1.265625l4.640625 -2.46875l0.40625 -0.203125l-0.015625 -0.03125l-0.375 -0.1875l-4.65625 -2.65625l-0.15625 1.5l-1.421875 0l0 -4.890625l1.421875 0l0.171875 1.25l6.828125 3.921875l3.171875 0l0.265625 -1.4375l1.40625 0l0 5.171875zm0 -9.961182l-1.40625 0l-0.265625 -1.453125l-9.90625 0l-0.265625 1.453125l-1.421875 0l0 -5.1875l1.421875 0l0.265625 1.4375l9.90625 0l0.265625 -1.4375l1.40625 0l0 5.1875zm0 -6.394867l-1.40625 0l-0.265625 -1.453125l-9.90625 0l-0.265625 1.453125l-1.421875 0l0 -10.109375l3.421875 0l0 1.78125l-1.65625 0.15625l0 4.421875l3.75 0l0 -4.65625l1.78125 0l0 4.65625l4.21875 0l0 -4.671875l-1.6875 -0.15625l0 -1.765625l3.4375 0l0 10.34375zm0 -11.906113l-1.40625 0l-0.265625 -1.453125l-9.90625 0l-0.265625 1.453125l-1.421875 0l0 -1.453125l0 -2.296875l0 -1.5625l1.421875 0l0.265625 1.5625l9.8125 0l0 -4.140625l-2.0 -0.15625l0 -1.765625l3.765625 0l0 9.8125zm0 -10.967834l-1.40625 0l-0.28125 -1.46875l-9.875 0l-0.28125 1.46875l-1.421875 0l0 -1.46875l0 -4.09375q0 -1.78125 0.84375 -3.109375q0.828125 -1.34375 2.296875 -2.078125q1.46875 -0.75 3.359375 -0.75l0.265625 0q1.875 0 3.34375 0.734375q1.46875 0.71875 2.3125 2.046875q0.84375 1.328125 0.84375 3.09375l0 5.625zm-1.765625 -3.765625l0 -1.75q0 -1.15625 -0.625 -1.984375q-0.625 -0.828125 -1.6875 -1.265625q-1.078125 -0.4375 -2.421875 -0.4375l-0.265625 0q-1.375 0 -2.4375 0.4375q-1.0625 0.4375 -1.671875 1.265625q-0.609375 0.828125 -0.609375 1.984375l0 1.75l9.71875 0z" fill-rule="nonzero"/><path fill="#000000" fill-opacity="0.0" d="m33.015747 385.6929l372.97638 0l0 40.81891l-372.97638 0z" fill-rule="evenodd"/><path fill="#000000" d="m192.37292 412.82236l0 -1.40625l1.453125 -0.265625l0 -9.90625l-1.453125 -0.265625l0 -1.421875l6.140625 0q1.484375 0 2.546875 0.46875q1.0625 0.453125 1.609375 1.3125q0.5625 0.859375 0.5625 2.0625q0 1.171875 -0.5625 2.046875q-0.546875 0.859375 -1.53125 1.34375q-0.984375 0.46875 -2.3125 0.484375l-2.703125 0.03125l0 3.84375l1.453125 0.265625l0 1.40625l-5.203125 0zm8.640625 0l-2.53125 -6.109375l2.140625 -0.34375l2.15625 4.8125l1.03125 0.21875l0 1.421875l-2.796875 0zm-4.890625 -7.3125l2.28125 0q1.296875 0 1.921875 -0.515625q0.625 -0.53125 0.625 -1.53125q0 -0.96875 -0.609375 -1.546875q-0.59375 -0.578125 -1.828125 -0.578125l-2.390625 0l0 4.171875zm8.985077 7.3125l0 -1.40625l1.453125 -0.265625l0 -9.90625l-1.453125 -0.265625l0 -1.421875l5.1875 0l0 1.421875l-1.4375 0.265625l0 9.90625l1.4375 0.265625l0 1.40625l-5.1875 0zm11.551117 0.1875q-1.359375 0 -2.53125 -0.328125q-1.15625 -0.34375 -2.265625 -1.125l0 -3.046875l1.78125 0l0.296875 1.96875q0.46875 0.34375 1.171875 0.5625q0.71875 0.203125 1.546875 0.203125q0.8125 0 1.359375 -0.234375q0.546875 -0.234375 0.84375 -0.640625q0.296875 -0.421875 0.296875 -1.0q0 -0.53125 -0.265625 -0.9375q-0.25 -0.40625 -0.84375 -0.734375q-0.59375 -0.328125 -1.609375 -0.59375q-1.484375 -0.40625 -2.484375 -0.953125q-0.984375 -0.546875 -1.5 -1.3125q-0.5 -0.765625 -0.5 -1.796875q0 -1.0625 0.578125 -1.875q0.578125 -0.828125 1.609375 -1.296875q1.03125 -0.484375 2.375 -0.5q1.484375 -0.015625 2.609375 0.390625q1.140625 0.40625 1.921875 1.046875l0 2.84375l-1.734375 0l-0.328125 -1.84375q-0.375 -0.265625 -0.984375 -0.453125q-0.59375 -0.1875 -1.40625 -0.1875q-0.6875 0 -1.21875 0.234375q-0.53125 0.21875 -0.828125 0.640625q-0.296875 0.40625 -0.296875 0.984375q0 0.5 0.265625 0.875q0.265625 0.375 0.875 0.6875q0.625 0.296875 1.6875 0.59375q2.15625 0.578125 3.265625 1.59375q1.109375 1.015625 1.109375 2.578125q0 1.09375 -0.59375 1.921875q-0.59375 0.828125 -1.671875 1.28125q-1.078125 0.453125 -2.53125 0.453125zm9.423431 -3.6875l-1.203125 -1.375l6.421875 -6.828125l0.015625 -0.03125l-1.171875 -0.109375l0 -1.421875l4.953125 0l0 1.421875l-1.25 0.234375l-7.765625 8.109375zm-3.375 3.5l0 -1.40625l1.453125 -0.265625l0 -9.90625l-1.453125 -0.265625l0 -1.421875l5.15625 0l0 1.421875l-1.40625 0.265625l0 9.90625l1.40625 0.265625l0 1.40625l-5.15625 0zm7.734375 0l0 -1.40625l1.171875 -0.109375l0 -0.015625l-3.5 -4.828125l1.4375 -1.609375l4.75 6.34375l1.265625 0.21875l0 1.40625l-5.125 0zm11.332077 0.1875q-1.359375 0 -2.53125 -0.328125q-1.15625 -0.34375 -2.265625 -1.125l0 -3.046875l1.78125 0l0.296875 1.96875q0.46875 0.34375 1.171875 0.5625q0.71875 0.203125 1.546875 0.203125q0.8125 0 1.359375 -0.234375q0.546875 -0.234375 0.84375 -0.640625q0.296875 -0.421875 0.296875 -1.0q0 -0.53125 -0.265625 -0.9375q-0.25 -0.40625 -0.84375 -0.734375q-0.59375 -0.328125 -1.609375 -0.59375q-1.484375 -0.40625 -2.484375 -0.953125q-0.984375 -0.546875 -1.5 -1.3125q-0.5 -0.765625 -0.5 -1.796875q0 -1.0625 0.578125 -1.875q0.578125 -0.828125 1.609375 -1.296875q1.03125 -0.484375 2.375 -0.5q1.484375 -0.015625 2.609375 0.390625q1.140625 0.40625 1.921875 1.046875l0 2.84375l-1.734375 0l-0.328125 -1.84375q-0.375 -0.265625 -0.984375 -0.453125q-0.59375 -0.1875 -1.40625 -0.1875q-0.6875 0 -1.21875 0.234375q-0.53125 0.21875 -0.828125 0.640625q-0.296875 0.40625 -0.296875 0.984375q0 0.5 0.265625 0.875q0.265625 0.375 0.875 0.6875q0.625 0.296875 1.6875 0.59375q2.15625 0.578125 3.265625 1.59375q1.109375 1.015625 1.109375 2.578125q0 1.09375 -0.59375 1.921875q-0.59375 0.828125 -1.671875 1.28125q-1.078125 0.453125 -2.53125 0.453125z" fill-rule="nonzero"/><path fill="#000000" fill-opacity="0.0" d="m92.15395 358.01727c-3.6672745 -1.2109375 -11.782593 1.118988 -10.559059 4.748474c1.7244186 5.1152954 17.64077 6.181793 16.317589 0.9507446c-1.1471939 -4.535309 -8.091461 -8.385895 -12.477692 -6.6499634c-3.2815628 1.2987671 -3.168991 7.719391 -0.9606323 10.450317c2.27977 2.8191833 9.156792 -3.0753784 8.640427 -6.6499634c-0.21479797 -1.486908 0.47899628 -2.374237 -0.9606323 -2.8496094c-2.035759 -0.6722107 4.3967743 7.2010803 2.8792648 5.6992188c-0.81552124 -0.8071289 -2.3637695 -0.8778076 -2.8792648 -1.8988647c-0.9592285 -1.8999939 -7.9046097 2.8496094 -5.7585297 2.8496094c2.862091 0 6.220627 -6.028473 3.8398972 -7.600708c-3.2916489 -2.1737976 -6.5535507 9.944275 -2.8792648 11.3984375c3.576744 1.4155884 9.658539 -5.279358 7.677162 -8.548828c-1.4721375 -2.4291687 -6.399475 8.868164 -3.8398972 7.600708c2.8613052 -1.4169006 2.861702 -10.91568 0 -9.499573c-3.0417252 1.505188 -8.604958 4.797241 -6.719162 7.5980835c1.5263977 2.2670593 7.2618713 -5.430298 4.8005295 -6.649933" fill-rule="evenodd"/><path stroke="#000000" stroke-width="1.0" stroke-linejoin="round" stroke-linecap="butt" d="m92.15395 358.01727c-3.6672745 -1.2109375 -11.782593 1.118988 -10.559059 4.748474c1.7244186 5.1152954 17.64077 6.181793 16.317589 0.9507446c-1.1471939 -4.535309 -8.091461 -8.385895 -12.477692 -6.6499634c-3.2815628 1.2987671 -3.168991 7.719391 -0.9606323 10.450317c2.27977 2.8191833 9.156792 -3.0753784 8.640427 -6.6499634c-0.21479797 -1.486908 0.47899628 -2.374237 -0.9606323 -2.8496094c-2.035759 -0.6722107 4.3967743 7.2010803 2.8792648 5.6992188c-0.81552124 -0.8071289 -2.3637695 -0.8778076 -2.8792648 -1.8988647c-0.9592285 -1.8999939 -7.9046097 2.8496094 -5.7585297 2.8496094c2.862091 0 6.220627 -6.028473 3.8398972 -7.600708c-3.2916489 -2.1737976 -6.5535507 9.944275 -2.8792648 11.3984375c3.576744 1.4155884 9.658539 -5.279358 7.677162 -8.548828c-1.4721375 -2.4291687 -6.399475 8.868164 -3.8398972 7.600708c2.8613052 -1.4169006 2.861702 -10.91568 0 -9.499573c-3.0417252 1.505188 -8.604958 4.797241 -6.719162 7.5980835c1.5263977 2.2670593 7.2618713 -5.430298 4.8005295 -6.649933" fill-rule="evenodd"/><path fill="#000000" fill-opacity="0.0" d="m42.34487 331.1735l95.90551 0l0 31.873993l-95.90551 0z" fill-rule="evenodd"/><path fill="#666666" d="m67.44607 352.87048l0 -1.203125l1.25 -0.234375l0 -8.5l-1.25 -0.234375l0 -1.203125l1.25 0l3.75 0q1.90625 0 2.984375 0.78125q1.078125 0.765625 1.078125 2.3125q0 0.78125 -0.453125 1.390625q-0.4375 0.609375 -1.234375 0.90625q0.6875 0.15625 1.15625 0.546875q0.46875 0.390625 0.71875 0.953125q0.25 0.546875 0.25 1.21875q0 1.59375 -1.0625 2.4375q-1.046875 0.828125 -2.921875 0.828125l-5.515625 0zm3.21875 -1.515625l2.296875 0q0.96875 0 1.484375 -0.453125q0.53125 -0.453125 0.53125 -1.296875q0 -0.609375 -0.203125 -1.03125q-0.1875 -0.421875 -0.59375 -0.640625q-0.390625 -0.234375 -1.015625 -0.234375l-2.5 0l0 3.65625zm0 -5.0625l2.0 0q0.875 0 1.375 -0.421875q0.5 -0.421875 0.5 -1.1875q0 -0.84375 -0.53125 -1.25q-0.53125 -0.421875 -1.5625 -0.421875l-1.78125 0l0 3.28125zm7.1171875 6.578125l0 -1.203125l0.828125 -0.125l3.765625 -10.046875l1.90625 0l3.71875 10.046875l0.828125 0.125l0 1.203125l-3.609375 0l0 -1.203125l0.8125 -0.15625l-0.609375 -1.78125l-4.234375 0l-0.609375 1.78125l0.8125 0.15625l0 1.203125l-3.609375 0zm3.921875 -4.65625l3.21875 0l-1.484375 -4.203125l-0.09375 -0.3125l-0.046875 0l-0.109375 0.328125l-1.484375 4.1875zm8.0703125 4.65625l0 -1.203125l1.234375 -0.234375l0 -8.5l-1.234375 -0.234375l0 -1.203125l1.234375 0l2.0 0l5.21875 8.296875l0.046875 -0.015625l0 -6.84375l-1.4375 -0.234375l0 -1.203125l3.203125 0l1.25 0l0 1.203125l-1.25 0.234375l0 9.9375l-1.859375 0l-5.34375 -8.28125l-0.046875 0.015625l0 6.828125l1.4375 0.234375l0 1.203125l-4.453125 0zm15.3671875 -3.0l-1.03125 -1.1875l5.5 -5.84375l0.03125 -0.03125l-1.015625 -0.109375l0 -1.203125l4.25 0l0 1.203125l-1.078125 0.21875l-6.65625 6.953125zm-2.890625 3.0l0 -1.203125l1.25 -0.234375l0 -8.5l-1.25 -0.234375l0 -1.203125l4.421875 0l0 1.203125l-1.203125 0.234375l0 8.5l1.203125 0.234375l0 1.203125l-4.421875 0zm6.625 0l0 -1.203125l1.015625 -0.109375l0 0l-3.0 -4.140625l1.234375 -1.390625l4.0625 5.4375l1.09375 0.203125l0 1.203125l-4.40625 0z" fill-rule="nonzero"/><path fill="#000000" fill-opacity="0.0" d="m90.01933 371.7993c-1.1193848 4.7703857 -0.48905945 10.632935 -0.48905945 15.9664" fill-rule="evenodd"/><path stroke="#000000" stroke-width="1.0" stroke-linejoin="round" stroke-linecap="butt" stroke-dasharray="4.0,3.0" d="m90.01933 371.7993c-1.1193848 4.7703857 -0.48905945 10.632935 -0.48905945 15.9664" fill-rule="evenodd"/><path fill="#000000" fill-opacity="0.0" d="m91.33992 364.03943c-14.743874 -1.7855835 -32.86331 -0.78012085 -49.347466 -0.78012085" fill-rule="evenodd"/><path stroke="#000000" stroke-width="1.0" stroke-linejoin="round" stroke-linecap="butt" stroke-dasharray="4.0,3.0" d="m91.33992 364.03943c-14.743874 -1.7855835 -32.86331 -0.78012085 -49.347466 -0.78012085" fill-rule="evenodd"/><path fill="#000000" fill-opacity="0.0" d="m212.87138 176.40181l95.90553 0l0 31.874023l-95.90553 0z" fill-rule="evenodd"/><path fill="#666666" d="m254.96086 198.09882l-3.71875 -10.046875l-0.96875 -0.125l0 -1.203125l4.125 0l0 1.203125l-1.03125 0.171875l2.375 6.921875l0.203125 0.75l0.046875 0l0.21876526 -0.734375l2.40625 -6.953125l-1.1875 -0.15625l0 -1.203125l4.015625 0l0 1.203125l-0.984375 0.125l-3.59375 10.046875l-1.9062653 0zm12.398453 0.171875q-1.6875 0 -2.875 -0.71875q-1.1875 -0.71875 -1.828125 -2.0q-0.625 -1.296875 -0.625 -3.0l0 -0.28125q0 -1.671875 0.625 -2.953125q0.625 -1.28125 1.78125 -2.015625q1.171875 -0.75 2.796875 -0.75q1.125 0 2.09375 0.34375q0.96875 0.328125 1.6875 0.9375l0 2.625l-1.5 0l-0.203125 -1.75q-0.25 -0.1875 -0.5625 -0.3125q-0.3125 -0.140625 -0.6875 -0.203125q-0.375 -0.078125 -0.8125 -0.078125q-1.015625 0 -1.75 0.515625q-0.734375 0.515625 -1.125 1.453125q-0.375 0.921875 -0.375 2.171875l0 0.296875q0 1.296875 0.40625 2.234375q0.40625 0.9375 1.171875 1.4375q0.765625 0.5 1.828125 0.5q0.515625 0 1.015625 -0.125q0.5 -0.125 0.890625 -0.3125l0.203125 -1.59375l1.484375 0l0 2.609375q-0.65625 0.421875 -1.609375 0.703125q-0.9375 0.265625 -2.03125 0.265625z" fill-rule="nonzero"/><path fill="#000000" fill-opacity="0.0" d="m262.30167 386.90814c2.427124 -16.907288 -1.0875244 -34.923737 -3.0447693 -52.015045c-4.4903564 -39.212036 -0.6095886 -79.96573 -0.6095886 -119.95096" fill-rule="evenodd"/><path stroke="#000000" stroke-width="1.0" stroke-linejoin="round" stroke-linecap="butt" stroke-dasharray="4.0,3.0" d="m262.30167 386.90814c2.427124 -16.907288 -1.0875244 -34.923737 -3.0447693 -52.015045c-4.4903564 -39.212036 -0.6095886 -79.96573 -0.6095886 -119.95096" fill-rule="evenodd"/><path fill="#000000" fill-opacity="0.0" d="m258.3125 208.36229c-21.269012 2.4500732 -43.933334 -1.0978241 -65.43387 -3.0735474c-49.32794 -4.5328217 -100.59529 -0.6153717 -150.8959 -0.6153717" fill-rule="evenodd"/><path stroke="#000000" stroke-width="1.0" stroke-linejoin="round" stroke-linecap="butt" stroke-dasharray="4.0,3.0" d="m258.3125 208.36229c-21.269012 2.4500732 -43.933334 -1.0978241 -65.43387 -3.0735474c-49.32794 -4.5328217 -100.59529 -0.6153717 -150.8959 -0.6153717" fill-rule="evenodd"/><path fill="#000000" fill-opacity="0.0" d="m266.13312 208.4631c-0.77404785 -3.7487488 -6.870392 -9.539322 -9.434509 -6.6756897c-3.6137238 4.035904 3.411255 18.21112 7.3269043 14.461212c3.394867 -3.2511444 3.2920227 -11.128555 -0.42004395 -14.019943c-2.7772217 -2.1631775 -8.339081 1.1439514 -9.624466 4.4023285c-1.3269501 3.363739 7.269394 6.31044 10.138992 4.0803986c1.1936646 -0.92762756 2.316986 -0.7766876 2.0131226 -2.2483063c-0.4296875 -2.0809937 -4.102661 7.369385 -3.5472412 5.3177032c0.29849243 -1.1025848 -0.41378784 -2.46492 0.22189331 -3.4173431c1.1829224 -1.7722473 -6.4457397 -5.3500977 -5.3726807 -3.5106964c1.4310303 2.4531097 8.385254 2.3171844 8.570618 -0.509552c0.25628662 -3.9082794 -11.978104 -0.6444092 -11.413391 3.2319794c0.5497284 3.7734985 9.448761 5.638397 11.318909 2.305252c1.3894958 -2.476471 -10.959488 -1.0504608 -8.570648 0.509552c2.6704407 1.7439117 10.982208 -3.0056152 8.312256 -4.7502594c-2.8379517 -1.8543854 -8.500153 -4.9764404 -10.008026 -1.9595642c-1.2204895 2.4419098 8.382507 3.508728 8.219055 0.7892151" fill-rule="evenodd"/><path stroke="#000000" stroke-width="1.0" stroke-linejoin="round" stroke-linecap="butt" d="m266.13312 208.4631c-0.77404785 -3.7487488 -6.870392 -9.539322 -9.434509 -6.6756897c-3.6137238 4.035904 3.411255 18.21112 7.3269043 14.461212c3.394867 -3.2511444 3.2920227 -11.128555 -0.42004395 -14.019943c-2.7772217 -2.1631775 -8.339081 1.1439514 -9.624466 4.4023285c-1.3269501 3.363739 7.269394 6.31044 10.138992 4.0803986c1.1936646 -0.92762756 2.316986 -0.7766876 2.0131226 -2.2483063c-0.4296875 -2.0809937 -4.102661 7.369385 -3.5472412 5.3177032c0.29849243 -1.1025848 -0.41378784 -2.46492 0.22189331 -3.4173431c1.1829224 -1.7722473 -6.4457397 -5.3500977 -5.3726807 -3.5106964c1.4310303 2.4531097 8.385254 2.3171844 8.570618 -0.509552c0.25628662 -3.9082794 -11.978104 -0.6444092 -11.413391 3.2319794c0.5497284 3.7734985 9.448761 5.638397 11.318909 2.305252c1.3894958 -2.476471 -10.959488 -1.0504608 -8.570648 0.509552c2.6704407 1.7439117 10.982208 -3.0056152 8.312256 -4.7502594c-2.8379517 -1.8543854 -8.500153 -4.9764404 -10.008026 -1.9595642c-1.2204895 2.4419098 8.382507 3.508728 8.219055 0.7892151" fill-rule="evenodd"/><path fill="#000000" fill-opacity="0.0" d="m642.2053 39.80672l95.90552 0l0 31.874012l-95.90552 0z" fill-rule="evenodd"/><path fill="#666666" d="m655.31824 61.503727l0 -1.203125l1.25 -0.234375l0 -8.5l-1.25 -0.234375l0 -1.203125l5.265625 0q1.28125 0 2.1875 0.390625q0.90625 0.390625 1.375 1.125q0.484375 0.734375 0.484375 1.78125q0 1.0 -0.484375 1.75q-0.46875 0.734375 -1.3125 1.140625q-0.84375 0.40625 -1.984375 0.421875l-2.3125 0.03125l0 3.296875l1.234375 0.234375l0 1.203125l-4.453125 0zm7.40625 0l-2.171875 -5.234375l1.84375 -0.3125l1.84375 4.140625l0.890625 0.1875l0 1.21875l-2.40625 0zm-4.1875 -6.265625l1.953125 0q1.109375 0 1.640625 -0.453125q0.53125 -0.453125 0.53125 -1.3125q0 -0.828125 -0.515625 -1.328125q-0.515625 -0.5 -1.5625 -0.5l-2.046875 0l0 3.59375zm7.609375 6.265625l0 -1.203125l0.828125 -0.125l3.765625 -10.046875l1.90625 0l3.71875 10.046875l0.828125 0.125l0 1.203125l-3.609375 0l0 -1.203125l0.8125 -0.15625l-0.609375 -1.78125l-4.234375 0l-0.609375 1.78125l0.8125 0.15625l0 1.203125l-3.609375 0zm3.921875 -4.65625l3.21875 0l-1.484375 -4.203125l-0.09375 -0.3125l-0.046875 0l-0.109375 0.328125l-1.484375 4.1875zm8.0546875 4.65625l0 -1.203125l1.25 -0.25l0 -8.46875l-1.25 -0.25l0 -1.203125l1.25 0l3.515625 0q1.53125 0 2.671875 0.71875q1.140625 0.71875 1.78125 1.984375q0.640625 1.25 0.640625 2.875l0 0.21875q0 1.609375 -0.625 2.875q-0.625 1.25 -1.765625 1.984375q-1.125 0.71875 -2.640625 0.71875l-4.828125 0zm3.21875 -1.515625l1.5 0q1.0 0 1.703125 -0.53125q0.71875 -0.546875 1.09375 -1.453125q0.375 -0.921875 0.375 -2.078125l0 -0.234375q0 -1.171875 -0.375 -2.078125q-0.375 -0.921875 -1.09375 -1.4375q-0.703125 -0.53125 -1.703125 -0.53125l-1.5 0l0 8.34375zm7.6953125 1.515625l0 -1.203125l1.25 -0.234375l0 -8.5l-1.25 -0.234375l0 -1.203125l4.453125 0l0 1.203125l-1.234375 0.234375l0 8.5l1.234375 0.234375l0 1.203125l-4.453125 0zm10.796875 0.171875q-1.6875 0 -2.875 -0.71875q-1.1875 -0.71875 -1.828125 -2.0q-0.625 -1.296875 -0.625 -3.0l0 -0.28125q0 -1.671875 0.625 -2.953125q0.625 -1.28125 1.78125 -2.015625q1.171875 -0.75 2.796875 -0.75q1.125 0 2.09375 0.34375q0.96875 0.328125 1.6875 0.9375l0 2.625l-1.5 0l-0.203125 -1.75q-0.25 -0.1875 -0.5625 -0.3125q-0.3125 -0.140625 -0.6875 -0.203125q-0.375 -0.078125 -0.8125 -0.078125q-1.015625 0 -1.75 0.515625q-0.734375 0.515625 -1.125 1.453125q-0.375 0.921875 -0.375 2.171875l0 0.296875q0 1.296875 0.40625 2.234375q0.40625 0.9375 1.171875 1.4375q0.765625 0.5 1.828125 0.5q0.515625 0 1.015625 -0.125q0.5 -0.125 0.890625 -0.3125l0.203125 -1.59375l1.484375 0l0 2.609375q-0.65625 0.421875 -1.609375 0.703125q-0.9375 0.265625 -2.03125 0.265625zm4.8125 -0.171875l0 -1.203125l0.828125 -0.125l3.765625 -10.046875l1.90625 0l3.71875 10.046875l0.828125 0.125l0 1.203125l-3.609375 0l0 -1.203125l0.8125 -0.15625l-0.609375 -1.78125l-4.234375 0l-0.609375 1.78125l0.8125 0.15625l0 1.203125l-3.609375 0zm3.921875 -4.65625l3.21875 0l-1.484375 -4.203125l-0.09375 -0.3125l-0.046875 0l-0.109375 0.328125l-1.484375 4.1875zm8.0546875 4.65625l0 -1.203125l1.25 -0.234375l0 -8.5l-1.25 -0.234375l0 -1.203125l1.25 0l1.96875 0l1.328125 0l0 1.203125l-1.328125 0.234375l0 8.421875l3.546875 0l0.140625 -1.71875l1.5 0l0 3.234375l-8.40625 0z" fill-rule="nonzero"/><path fill="#000000" fill-opacity="0.0" d="m539.9546 331.6075l95.90552 0l0 31.873993l-95.90552 0z" fill-rule="evenodd"/><path fill="#666666" d="m565.0558 353.3045l0 -1.203125l1.25 -0.234375l0 -8.5l-1.25 -0.234375l0 -1.203125l1.25 0l3.75 0q1.90625 0 2.984375 0.78125q1.078125 0.765625 1.078125 2.3125q0 0.78125 -0.453125 1.390625q-0.4375 0.609375 -1.234375 0.90625q0.6875 0.15625 1.15625 0.546875q0.46875 0.390625 0.71875 0.953125q0.25 0.546875 0.25 1.21875q0 1.59375 -1.0625 2.4375q-1.046875 0.828125 -2.921875 0.828125l-5.515625 0zm3.21875 -1.515625l2.296875 0q0.96875 0 1.484375 -0.453125q0.53125 -0.453125 0.53125 -1.296875q0 -0.609375 -0.203125 -1.03125q-0.1875 -0.421875 -0.59375 -0.640625q-0.390625 -0.234375 -1.015625 -0.234375l-2.5 0l0 3.65625zm0 -5.0625l2.0 0q0.875 0 1.375 -0.421875q0.5 -0.421875 0.5 -1.1875q0 -0.84375 -0.53125 -1.25q-0.53125 -0.421875 -1.5625 -0.421875l-1.78125 0l0 3.28125zm7.1171875 6.578125l0 -1.203125l0.828125 -0.125l3.765625 -10.046875l1.90625 0l3.71875 10.046875l0.828125 0.125l0 1.203125l-3.609375 0l0 -1.203125l0.8125 -0.15625l-0.609375 -1.78125l-4.234375 0l-0.609375 1.78125l0.8125 0.15625l0 1.203125l-3.609375 0zm3.921875 -4.65625l3.21875 0l-1.484375 -4.203125l-0.09375 -0.3125l-0.046875 0l-0.109375 0.328125l-1.484375 4.1875zm8.0703125 4.65625l0 -1.203125l1.234375 -0.234375l0 -8.5l-1.234375 -0.234375l0 -1.203125l1.234375 0l2.0 0l5.21875 8.296875l0.046875 -0.015625l0 -6.84375l-1.4375 -0.234375l0 -1.203125l3.203125 0l1.25 0l0 1.203125l-1.25 0.234375l0 9.9375l-1.859375 0l-5.34375 -8.28125l-0.046875 0.015625l0 6.828125l1.4375 0.234375l0 1.203125l-4.453125 0zm15.3671875 -3.0l-1.03125 -1.1875l5.5 -5.84375l0.03125 -0.03125l-1.015625 -0.109375l0 -1.203125l4.25 0l0 1.203125l-1.078125 0.21875l-6.65625 6.953125zm-2.890625 3.0l0 -1.203125l1.25 -0.234375l0 -8.5l-1.25 -0.234375l0 -1.203125l4.421875 0l0 1.203125l-1.203125 0.234375l0 8.5l1.203125 0.234375l0 1.203125l-4.421875 0zm6.625 0l0 -1.203125l1.015625 -0.109375l0 0l-3.0 -4.140625l1.234375 -1.390625l4.0625 5.4375l1.09375 0.203125l0 1.203125l-4.40625 0z" fill-rule="nonzero"/><path fill="#000000" fill-opacity="0.0" d="m680.44617 74.32772c-9.036255 0.69620514 -20.089294 -0.7783661 -30.091064 -0.55862427c-10.388489 0.22823334 -20.828064 0.4042282 -31.178589 0.6702881c-7.2281494 0.18579865 -14.437805 1.1390457 -21.390137 0.7821121c-4.614502 -0.23690796 -8.497131 -0.7422714 -13.050964 -1.0055923c-4.9487915 -0.2861557 -10.40686 0.6068649 -15.589783 0.44696045c-3.9830933 -0.12288666 -6.5299683 -0.8268585 -10.513123 -0.9496765c-4.9995117 -0.15415955 -10.128357 0.22348022 -15.22699 0.22348022" fill-rule="evenodd"/><path stroke="#000000" stroke-width="1.0" stroke-linejoin="round" stroke-linecap="butt" stroke-dasharray="4.0,3.0" d="m680.44617 74.32772c-9.036255 0.69620514 -20.089294 -0.7783661 -30.091064 -0.55862427c-10.388489 0.22823334 -20.828064 0.4042282 -31.178589 0.6702881c-7.2281494 0.18579865 -14.437805 1.1390457 -21.390137 0.7821121c-4.614502 -0.23690796 -8.497131 -0.7422714 -13.050964 -1.0055923c-4.9487915 -0.2861557 -10.40686 0.6068649 -15.589783 0.44696045c-3.9830933 -0.12288666 -6.5299683 -0.8268585 -10.513123 -0.9496765c-4.9995117 -0.15415955 -10.128357 0.22348022 -15.22699 0.22348022" fill-rule="evenodd"/><path fill="#000000" fill-opacity="0.0" d="m687.54974 69.96532c-2.8931885 2.5376892 -4.9121704 10.658409 -1.1245117 11.424644c5.338135 1.0799103 14.229553 -12.028687 8.990662 -13.510384c-4.542053 -1.2846298 -11.383484 2.7418213 -12.057617 7.369316c-0.5043335 3.4620667 5.170105 6.576233 8.663818 6.049034c3.6067505 -0.5442505 1.8873901 -9.386131 -1.4985962 -10.731018c-1.4084473 -0.55942535 -1.8379517 -1.5977936 -2.973755 -0.601593c-1.6060181 1.4087143 8.499451 -0.16756439 6.4265747 0.38208008c-1.1140137 0.29537964 -1.9500122 1.5870361 -3.1011963 1.51828c-2.1421509 -0.12793732 -1.4588623 8.199989 -0.38580322 6.360588c1.4310303 -2.4530945 -2.1646729 -8.34623 -4.730774 -7.0919037c-3.5479126 1.7342529 5.4245605 10.589676 8.534119 8.16761c3.0270386 -2.3577728 0.20977783 -10.918282 -3.6417236 -10.854942c-2.8616333 0.047058105 4.5599976 9.9195175 4.730774 7.0919037c0.19085693 -3.160942 -8.120544 -7.911148 -8.312256 -4.7502594c-0.20379639 3.3597336 -0.1048584 9.774178 3.2888184 9.558418c2.7468872 -0.17463684 -1.1206055 -8.939568 -3.418518 -7.439842" fill-rule="evenodd"/><path stroke="#000000" stroke-width="1.0" stroke-linejoin="round" stroke-linecap="butt" d="m687.54974 69.96532c-2.8931885 2.5376892 -4.9121704 10.658409 -1.1245117 11.424644c5.338135 1.0799103 14.229553 -12.028687 8.990662 -13.510384c-4.542053 -1.2846298 -11.383484 2.7418213 -12.057617 7.369316c-0.5043335 3.4620667 5.170105 6.576233 8.663818 6.049034c3.6067505 -0.5442505 1.8873901 -9.386131 -1.4985962 -10.731018c-1.4084473 -0.55942535 -1.8379517 -1.5977936 -2.973755 -0.601593c-1.6060181 1.4087143 8.499451 -0.16756439 6.4265747 0.38208008c-1.1140137 0.29537964 -1.9500122 1.5870361 -3.1011963 1.51828c-2.1421509 -0.12793732 -1.4588623 8.199989 -0.38580322 6.360588c1.4310303 -2.4530945 -2.1646729 -8.34623 -4.730774 -7.0919037c-3.5479126 1.7342529 5.4245605 10.589676 8.534119 8.16761c3.0270386 -2.3577728 0.20977783 -10.918282 -3.6417236 -10.854942c-2.8616333 0.047058105 4.5599976 9.9195175 4.730774 7.0919037c0.19085693 -3.160942 -8.120544 -7.911148 -8.312256 -4.7502594c-0.20379639 3.3597336 -0.1048584 9.774178 3.2888184 9.558418c2.7468872 -0.17463684 -1.1206055 -8.939568 -3.418518 -7.439842" fill-rule="evenodd"/><path fill="#000000" fill-opacity="0.0" d="m747.8714 260.40182l95.90552 0l0 31.873993l-95.90552 0z" fill-rule="evenodd"/><path fill="#666666" d="m789.9609 282.09882l-3.71875 -10.046875l-0.96875 -0.125l0 -1.203125l4.125 0l0 1.203125l-1.03125 0.171875l2.375 6.921875l0.203125 0.75l0.046875 0l0.21875 -0.734375l2.40625 -6.953125l-1.1875 -0.15625l0 -1.203125l4.015625 0l0 1.203125l-0.984375 0.125l-3.59375 10.046875l-1.90625 0zm12.3984375 0.171875q-1.6875 0 -2.875 -0.71875q-1.1875 -0.71875 -1.828125 -2.0q-0.625 -1.296875 -0.625 -3.0l0 -0.28125q0 -1.671875 0.625 -2.953125q0.625 -1.28125 1.78125 -2.015625q1.171875 -0.75 2.796875 -0.75q1.125 0 2.09375 0.34375q0.96875 0.328125 1.6875 0.9375l0 2.625l-1.5 0l-0.203125 -1.75q-0.25 -0.1875 -0.5625 -0.3125q-0.3125 -0.140625 -0.6875 -0.203125q-0.375 -0.078125 -0.8125 -0.078125q-1.015625 0 -1.75 0.515625q-0.734375 0.515625 -1.125 1.453125q-0.375 0.921875 -0.375 2.171875l0 0.296875q0 1.296875 0.40625 2.234375q0.40625 0.9375 1.171875 1.4375q0.765625 0.5 1.828125 0.5q0.515625 0 1.015625 -0.125q0.5 -0.125 0.890625 -0.3125l0.203125 -1.59375l1.484375 0l0 2.609375q-0.65625 0.421875 -1.609375 0.703125q-0.9375 0.265625 -2.03125 0.265625z" fill-rule="nonzero"/><path fill="#000000" fill-opacity="0.0" d="m797.7636 302.94226c2.427124 7.907074 -1.0875244 16.332886 -3.0447388 24.32605c-4.4904175 18.33841 -0.60961914 37.397858 -0.60961914 56.09787" fill-rule="evenodd"/><path stroke="#000000" stroke-width="1.0" stroke-linejoin="round" stroke-linecap="butt" stroke-dasharray="4.0,3.0" d="m797.7636 302.94226c2.427124 7.907074 -1.0875244 16.332886 -3.0447388 24.32605c-4.4904175 18.33841 -0.60961914 37.397858 -0.60961914 56.09787" fill-rule="evenodd"/><path fill="#000000" fill-opacity="0.0" d="m796.3937 294.36227c-25.109436 2.4501038 -51.86609 -1.0978088 -77.24884 -3.0735168c-58.23474 -4.532837 -118.759155 -0.61538696 -178.14221 -0.61538696" fill-rule="evenodd"/><path stroke="#000000" stroke-width="1.0" stroke-linejoin="round" stroke-linecap="butt" stroke-dasharray="4.0,3.0" d="m796.3937 294.36227c-25.109436 2.4501038 -51.86609 -1.0978088 -77.24884 -3.0735168c-58.23474 -4.532837 -118.759155 -0.61538696 -178.14221 -0.61538696" fill-rule="evenodd"/><path fill="#000000" fill-opacity="0.0" d="m801.1331 294.4631c-0.77404785 -3.7487488 -6.8704224 -9.539307 -9.434509 -6.6756897c-3.6137085 4.035919 3.411255 18.21112 7.3269043 14.461212c3.3948364 -3.2511597 3.2920532 -11.128571 -0.42004395 -14.019928c-2.7772217 -2.163208 -8.33905 1.1439514 -9.624451 4.402313c-1.3269653 3.363739 7.269348 6.310425 10.138977 4.0803833c1.1936646 -0.9276123 2.3170166 -0.77667236 2.0131226 -2.248291c-0.4296875 -2.0809937 -4.102661 7.369385 -3.5472412 5.3177185c0.2984619 -1.1026001 -0.41381836 -2.4649353 0.22192383 -3.4173584c1.1828613 -1.7722473 -6.4457397 -5.3500977 -5.3727417 -3.5106812c1.4310303 2.4530945 8.385315 2.3171692 8.570679 -0.509552c0.25628662 -3.9082947 -11.978149 -0.6444092 -11.413452 3.231964c0.54974365 3.7734985 9.4487915 5.638397 11.31897 2.3052673c1.3894653 -2.4765015 -10.959534 -1.0504761 -8.570679 0.509552c2.6704712 1.7438965 10.982178 -3.0056458 8.312256 -4.7502747c-2.8379517 -1.8543701 -8.500122 -4.9764404 -10.007996 -1.9595642c-1.22052 2.441925 8.382507 3.508728 8.219055 0.7892151" fill-rule="evenodd"/><path stroke="#000000" stroke-width="1.0" stroke-linejoin="round" stroke-linecap="butt" d="m801.1331 294.4631c-0.77404785 -3.7487488 -6.8704224 -9.539307 -9.434509 -6.6756897c-3.6137085 4.035919 3.411255 18.21112 7.3269043 14.461212c3.3948364 -3.2511597 3.2920532 -11.128571 -0.42004395 -14.019928c-2.7772217 -2.163208 -8.33905 1.1439514 -9.624451 4.402313c-1.3269653 3.363739 7.269348 6.310425 10.138977 4.0803833c1.1936646 -0.9276123 2.3170166 -0.77667236 2.0131226 -2.248291c-0.4296875 -2.0809937 -4.102661 7.369385 -3.5472412 5.3177185c0.2984619 -1.1026001 -0.41381836 -2.4649353 0.22192383 -3.4173584c1.1828613 -1.7722473 -6.4457397 -5.3500977 -5.3727417 -3.5106812c1.4310303 2.4530945 8.385315 2.3171692 8.570679 -0.509552c0.25628662 -3.9082947 -11.978149 -0.6444092 -11.413452 3.231964c0.54974365 3.7734985 9.4487915 5.638397 11.31897 2.3052673c1.3894653 -2.4765015 -10.959534 -1.0504761 -8.570679 0.509552c2.6704712 1.7438965 10.982178 -3.0056458 8.312256 -4.7502747c-2.8379517 -1.8543701 -8.500122 -4.9764404 -10.007996 -1.9595642c-1.22052 2.441925 8.382507 3.508728 8.219055 0.7892151" fill-rule="evenodd"/><path fill="#000000" fill-opacity="0.0" d="m589.36536 358.01727c-3.6672974 -1.2109375 -11.782593 1.118988 -10.559082 4.748474c1.7244263 5.1152954 17.640747 6.181793 16.317566 0.9507446c-1.1471558 -4.535309 -8.091431 -8.385895 -12.477661 -6.6499634c-3.2815552 1.2987671 -3.1690063 7.719391 -0.9606323 10.450317c2.2797852 2.8191833 9.156799 -3.0753784 8.640442 -6.6499634c-0.21484375 -1.486908 0.4790039 -2.374237 -0.9606323 -2.8496094c-2.0357666 -0.6722107 4.3967285 7.2010803 2.8792725 5.6992188c-0.81555176 -0.8071289 -2.3637695 -0.8778076 -2.8792725 -1.8988647c-0.9592285 -1.8999939 -7.904602 2.8496094 -5.758545 2.8496094c2.8620605 0 6.220642 -6.028473 3.8399048 -7.600708c-3.291687 -2.1737976 -6.553589 9.944275 -2.8792725 11.3984375c3.5767212 1.4155884 9.658508 -5.279358 7.677185 -8.548828c-1.472168 -2.4291687 -6.399475 8.868164 -3.8399048 7.600708c2.861267 -1.4169006 2.8616943 -10.91568 0 -9.499573c-3.041748 1.505188 -8.60498 4.797241 -6.7191772 7.5980835c1.5263672 2.2670593 7.261841 -5.430298 4.800537 -6.649933" fill-rule="evenodd"/><path stroke="#000000" stroke-width="1.0" stroke-linejoin="round" stroke-linecap="butt" d="m589.36536 358.01727c-3.6672974 -1.2109375 -11.782593 1.118988 -10.559082 4.748474c1.7244263 5.1152954 17.640747 6.181793 16.317566 0.9507446c-1.1471558 -4.535309 -8.091431 -8.385895 -12.477661 -6.6499634c-3.2815552 1.2987671 -3.1690063 7.719391 -0.9606323 10.450317c2.2797852 2.8191833 9.156799 -3.0753784 8.640442 -6.6499634c-0.21484375 -1.486908 0.4790039 -2.374237 -0.9606323 -2.8496094c-2.0357666 -0.6722107 4.3967285 7.2010803 2.8792725 5.6992188c-0.81555176 -0.8071289 -2.3637695 -0.8778076 -2.8792725 -1.8988647c-0.9592285 -1.8999939 -7.904602 2.8496094 -5.758545 2.8496094c2.8620605 0 6.220642 -6.028473 3.8399048 -7.600708c-3.291687 -2.1737976 -6.553589 9.944275 -2.8792725 11.3984375c3.5767212 1.4155884 9.658508 -5.279358 7.677185 -8.548828c-1.472168 -2.4291687 -6.399475 8.868164 -3.8399048 7.600708c2.861267 -1.4169006 2.8616943 -10.91568 0 -9.499573c-3.041748 1.505188 -8.60498 4.797241 -6.7191772 7.5980835c1.5263672 2.2670593 7.261841 -5.430298 4.800537 -6.649933" fill-rule="evenodd"/><path fill="#000000" fill-opacity="0.0" d="m587.2307 371.7993c-1.1193848 4.7703857 -0.4890747 10.632935 -0.4890747 15.9664" fill-rule="evenodd"/><path stroke="#000000" stroke-width="1.0" stroke-linejoin="round" stroke-linecap="butt" stroke-dasharray="4.0,3.0" d="m587.2307 371.7993c-1.1193848 4.7703857 -0.4890747 10.632935 -0.4890747 15.9664" fill-rule="evenodd"/><path fill="#000000" fill-opacity="0.0" d="m588.55133 364.03943c-14.7438965 -1.7855835 -32.863342 -0.78012085 -49.347473 -0.78012085" fill-rule="evenodd"/><path stroke="#000000" stroke-width="1.0" stroke-linejoin="round" stroke-linecap="butt" stroke-dasharray="4.0,3.0" d="m588.55133 364.03943c-14.7438965 -1.7855835 -32.863342 -0.78012085 -49.347473 -0.78012085" fill-rule="evenodd"/><path fill="#000000" fill-opacity="0.0" d="m542.83386 28.612213c-1.7219849 23.467602 1.9251709 52.17272 1.3817139 78.147606c-0.56451416 26.97921 -0.9998169 54.091286 -1.657898 80.971886c-0.4595337 18.771729 -2.8172607 37.49553 -1.9344482 55.550858c0.5859375 11.984009 1.8359375 22.067413 2.4871826 33.89383c0.7078247 12.852234 -1.5009766 27.027008 -1.1054688 40.487213c0.30395508 10.344299 2.045105 16.958527 2.348877 27.303009c0.38134766 12.983917 -0.5527344 26.30365 -0.5527344 39.544952" fill-rule="evenodd"/><path stroke="#000000" stroke-width="2.0" stroke-linejoin="round" stroke-linecap="butt" d="m542.83386 28.612213c-1.7219849 23.467602 1.9251709 52.17272 1.3817139 78.147606c-0.56451416 26.97921 -0.9998169 54.091286 -1.657898 80.971886c-0.4595337 18.771729 -2.8172607 37.49553 -1.9344482 55.550858c0.5859375 11.984009 1.8359375 22.067413 2.4871826 33.89383c0.7078247 12.852234 -1.5009766 27.027008 -1.1054688 40.487213c0.30395508 10.344299 2.045105 16.958527 2.348877 27.303009c0.38134766 12.983917 -0.5527344 26.30365 -0.5527344 39.544952" fill-rule="evenodd"/><path fill="#000000" fill-opacity="0.0" d="m906.56055 382.9154c-23.94165 -1.6878967 -53.226562 1.8870544 -79.7262 1.3543396c-27.52417 -0.5533447 -55.1839 -0.9800415 -82.60748 -1.625061c-19.15094 -0.45046997 -38.25293 -2.7615051 -56.672974 -1.8961487c-12.226135 0.57437134 -22.513184 1.7995605 -34.57849 2.4379578c-13.111877 0.6937561 -27.572998 -1.471283 -41.305054 -1.0836182c-10.553284 0.2979126 -17.301086 2.0046387 -27.854553 2.3023987c-13.246155 0.37374878 -26.83496 -0.5418091 -40.34375 -0.5418091" fill-rule="evenodd"/><path stroke="#000000" stroke-width="2.0" stroke-linejoin="round" stroke-linecap="butt" d="m906.56055 382.9154c-23.94165 -1.6878967 -53.226562 1.8870544 -79.7262 1.3543396c-27.52417 -0.5533447 -55.1839 -0.9800415 -82.60748 -1.625061c-19.15094 -0.45046997 -38.25293 -2.7615051 -56.672974 -1.8961487c-12.226135 0.57437134 -22.513184 1.7995605 -34.57849 2.4379578c-13.111877 0.6937561 -27.572998 -1.471283 -41.305054 -1.0836182c-10.553284 0.2979126 -17.301086 2.0046387 -27.854553 2.3023987c-13.246155 0.37374878 -26.83496 -0.5418091 -40.34375 -0.5418091" fill-rule="evenodd"/><path fill="#000000" fill-opacity="0.0" d="m177.90063 202.01605c1.6878815 12.309189 -1.8870697 27.365555 -1.3543396 40.989853c0.55332947 14.151077 0.980011 28.371872 1.625061 42.471237c0.4504547 9.8461 2.7614899 19.667084 1.8961487 29.137451c-0.57437134 6.2858276 -1.7995758 11.574768 -2.4379578 17.777924c-0.69377136 6.7412415 1.471283 14.176178 1.0836182 21.236298c-0.29792786 5.4257507 -2.004654 8.89505 -2.302414 14.320923c-0.37374878 6.8103027 0.5418091 13.796722 0.5418091 20.742035" fill-rule="evenodd"/><path stroke="#000000" stroke-width="1.0" stroke-linejoin="round" stroke-linecap="butt" stroke-dasharray="4.0,3.0" d="m177.90063 202.01605c1.6878815 12.309189 -1.8870697 27.365555 -1.3543396 40.989853c0.55332947 14.151077 0.980011 28.371872 1.625061 42.471237c0.4504547 9.8461 2.7614899 19.667084 1.8961487 29.137451c-0.57437134 6.2858276 -1.7995758 11.574768 -2.4379578 17.777924c-0.69377136 6.7412415 1.471283 14.176178 1.0836182 21.236298c-0.29792786 5.4257507 -2.004654 8.89505 -2.302414 14.320923c-0.37374878 6.8103027 0.5418091 13.796722 0.5418091 20.742035" fill-rule="evenodd"/><path fill="#000000" fill-opacity="0.0" d="m178.22017 75.238976c0.9988556 8.359238 -1.1167297 18.584106 -0.8014679 27.836449c0.3274536 9.610085 0.57995605 19.267502 0.9616699 28.842468c0.26657104 6.686554 1.634201 13.356033 1.1221008 19.787415c-0.33988953 4.268738 -1.0649414 7.860489 -1.4427338 12.07309c-0.41053772 4.578018 0.87068176 9.627121 0.64126587 14.421692c-0.17630005 3.6846771 -1.1862946 6.04068 -1.3625183 9.725433c-0.22117615 4.6249084 0.32063293 9.369446 0.32063293 14.086044" fill-rule="evenodd"/><path stroke="#000000" stroke-width="1.0" stroke-linejoin="round" stroke-linecap="butt" stroke-dasharray="4.0,3.0" d="m178.22017 75.238976c0.9988556 8.359238 -1.1167297 18.584106 -0.8014679 27.836449c0.3274536 9.610085 0.57995605 19.267502 0.9616699 28.842468c0.26657104 6.686554 1.634201 13.356033 1.1221008 19.787415c-0.33988953 4.268738 -1.0649414 7.860489 -1.4427338 12.07309c-0.41053772 4.578018 0.87068176 9.627121 0.64126587 14.421692c-0.17630005 3.6846771 -1.1862946 6.04068 -1.3625183 9.725433c-0.22117615 4.6249084 0.32063293 9.369446 0.32063293 14.086044" fill-rule="evenodd"/><path fill="#000000" fill-opacity="0.0" d="m175.47116 69.95817c-2.9042206 2.524849 -4.958145 10.636894 -1.1736908 11.420128c5.333679 1.1038666 14.2816925 -11.965523 9.049057 -13.470741c-4.536682 -1.3050232 -11.395645 2.690979 -12.089706 7.3156586c-0.5192566 3.4599762 5.141968 6.5996857 8.638107 6.0881042c3.6091766 -0.52812195 1.9277954 -9.378105 -1.4524994 -10.738213c-1.4060974 -0.56575775 -1.831192 -1.6060944 -2.9712677 -0.6149368c-1.6121826 1.4015884 8.500412 -0.12950897 6.4250793 0.4108734c-1.1153107 0.29040527 -1.9568634 1.5783768 -3.1078033 1.5044632c-2.1416473 -0.1375351 -1.4941559 8.193832 -0.4131775 6.359146c1.4416351 -2.4468002 -2.1288452 -8.3563 -4.700409 -7.1134033c-3.5554962 1.7184448 5.3792267 10.614441 8.499298 8.206192c3.037262 -2.3443222 0.25671387 -10.917831 -3.5951996 -10.871742c-2.8619232 0.034248352 4.517517 9.940392 4.700409 7.113411c0.20446777 -3.1602325 -8.086746 -7.9478683 -8.2920685 -4.787697c-0.21824646 3.3589783 -0.14685059 9.774155 3.2478638 9.573578c2.7477264 -0.16234589 -1.0822601 -8.944984 -3.3866577 -7.4554825" fill-rule="evenodd"/><path stroke="#000000" stroke-width="1.0" stroke-linejoin="round" stroke-linecap="butt" d="m175.47116 69.95817c-2.9042206 2.524849 -4.958145 10.636894 -1.1736908 11.420128c5.333679 1.1038666 14.2816925 -11.965523 9.049057 -13.470741c-4.536682 -1.3050232 -11.395645 2.690979 -12.089706 7.3156586c-0.5192566 3.4599762 5.141968 6.5996857 8.638107 6.0881042c3.6091766 -0.52812195 1.9277954 -9.378105 -1.4524994 -10.738213c-1.4060974 -0.56575775 -1.831192 -1.6060944 -2.9712677 -0.6149368c-1.6121826 1.4015884 8.500412 -0.12950897 6.4250793 0.4108734c-1.1153107 0.29040527 -1.9568634 1.5783768 -3.1078033 1.5044632c-2.1416473 -0.1375351 -1.4941559 8.193832 -0.4131775 6.359146c1.4416351 -2.4468002 -2.1288452 -8.3563 -4.700409 -7.1134033c-3.5554962 1.7184448 5.3792267 10.614441 8.499298 8.206192c3.037262 -2.3443222 0.25671387 -10.917831 -3.5951996 -10.871742c-2.8619232 0.034248352 4.517517 9.940392 4.700409 7.113411c0.20446777 -3.1602325 -8.086746 -7.9478683 -8.2920685 -4.787697c-0.21824646 3.3589783 -0.14685059 9.774155 3.2478638 9.573578c2.7477264 -0.16234589 -1.0822601 -8.944984 -3.3866577 -7.4554825" fill-rule="evenodd"/><path fill="#000000" fill-opacity="0.0" d="m41.850395 73.83951c9.009987 -1.4797363 20.030834 1.6543655 30.003456 1.1873245c10.358208 -0.48509216 20.767433 -0.8591614 31.087784 -1.4246597c7.2070847 -0.3949051 14.395775 -2.4209518 21.32782 -1.6623154c4.601059 0.5035324 8.472412 1.577652 13.012955 2.1373138c4.9344025 0.6082077 10.376572 -1.289856 15.544388 -0.9499893c3.9715118 0.2611847 6.5109406 1.757431 10.482529 2.018486c4.984955 0.32765198 10.098846 -0.47499847 15.182617 -0.47499847" fill-rule="evenodd"/><path stroke="#000000" stroke-width="1.0" stroke-linejoin="round" stroke-linecap="butt" stroke-dasharray="4.0,3.0" d="m41.850395 73.83951c9.009987 -1.4797363 20.030834 1.6543655 30.003456 1.1873245c10.358208 -0.48509216 20.767433 -0.8591614 31.087784 -1.4246597c7.2070847 -0.3949051 14.395775 -2.4209518 21.32782 -1.6623154c4.601059 0.5035324 8.472412 1.577652 13.012955 2.1373138c4.9344025 0.6082077 10.376572 -1.289856 15.544388 -0.9499893c3.9715118 0.2611847 6.5109406 1.757431 10.482529 2.018486c4.984955 0.32765198 10.098846 -0.47499847 15.182617 -0.47499847" fill-rule="evenodd"/><path fill="#000000" fill-opacity="0.0" d="m688.90063 257.0105c1.6878662 8.684601 -1.887085 19.307465 -1.3543701 28.919952c0.5533447 9.984131 0.9800415 20.017456 1.625061 29.965118c0.4505005 6.946808 2.7615356 13.875916 1.8961792 20.557617c-0.5743408 4.434906 -1.7995605 8.166443 -2.4379883 12.54303c-0.6937256 4.756195 1.4713135 10.001831 1.0836182 14.983032c-0.2979126 3.8280945 -2.0046387 6.275818 -2.3023682 10.103973c-0.3737793 4.8049316 0.5418091 9.734161 0.5418091 14.634338" fill-rule="evenodd"/><path stroke="#000000" stroke-width="1.0" stroke-linejoin="round" stroke-linecap="butt" stroke-dasharray="4.0,3.0" d="m688.90063 257.0105c1.6878662 8.684601 -1.887085 19.307465 -1.3543701 28.919952c0.5533447 9.984131 0.9800415 20.017456 1.625061 29.965118c0.4505005 6.946808 2.7615356 13.875916 1.8961792 20.557617c-0.5743408 4.434906 -1.7995605 8.166443 -2.4379883 12.54303c-0.6937256 4.756195 1.4713135 10.001831 1.0836182 14.983032c-0.2979126 3.8280945 -2.0046387 6.275818 -2.3023682 10.103973c-0.3737793 4.8049316 0.5418091 9.734161 0.5418091 14.634338" fill-rule="evenodd"/><path fill="#000000" fill-opacity="0.0" d="m689.22015 73.78492c0.99884033 14.192047 -1.1166992 31.55149 -0.80145264 47.25982c0.3274536 16.315704 0.57995605 32.711746 0.9616699 48.967804c0.26660156 11.352219 1.6342163 22.675446 1.1221313 33.59442c-0.3399048 7.247345 -1.0650024 13.345291 -1.442749 20.49733c-0.4105835 7.7724 0.8706665 16.344604 0.64123535 24.48468c-0.17626953 6.255707 -1.1862793 10.255661 -1.3624878 16.51152c-0.2211914 7.8520203 0.32061768 15.907135 0.32061768 23.914825" fill-rule="evenodd"/><path stroke="#000000" stroke-width="1.0" stroke-linejoin="round" stroke-linecap="butt" stroke-dasharray="4.0,3.0" d="m689.22015 73.78492c0.99884033 14.192047 -1.1166992 31.55149 -0.80145264 47.25982c0.3274536 16.315704 0.57995605 32.711746 0.9616699 48.967804c0.26660156 11.352219 1.6342163 22.675446 1.1221313 33.59442c-0.3399048 7.247345 -1.0650024 13.345291 -1.442749 20.49733c-0.4105835 7.7724 0.8706665 16.344604 0.64123535 24.48468c-0.17626953 6.255707 -1.1862793 10.255661 -1.3624878 16.51152c-0.2211914 7.8520203 0.32061768 15.907135 0.32061768 23.914825" fill-rule="evenodd"/><path fill="#000000" fill-opacity="0.0" d="m397.4375 387.21582c-23.46762 1.7219849 -52.17273 -1.9251709 -78.14761 -1.3816833c-26.979218 0.56451416 -54.091278 0.9998169 -80.97189 1.6578674c-18.771713 0.4595642 -37.49553 2.8172913 -55.550858 1.9344482c-11.984009 -0.5859375 -22.067413 -1.835907 -33.89383 -2.4871826c-12.852249 -0.7077942 -27.027008 1.5010071 -40.48723 1.1054993c-10.344284 -0.30395508 -16.958504 -2.0451355 -27.303001 -2.3489075c-12.983894 -0.38131714 -26.303638 0.5527344 -39.544945 0.5527344" fill-rule="evenodd"/><path stroke="#000000" stroke-width="2.0" stroke-linejoin="round" stroke-linecap="butt" d="m397.4375 387.21582c-23.46762 1.7219849 -52.17273 -1.9251709 -78.14761 -1.3816833c-26.979218 0.56451416 -54.091278 0.9998169 -80.97189 1.6578674c-18.771713 0.4595642 -37.49553 2.8172913 -55.550858 1.9344482c-11.984009 -0.5859375 -22.067413 -1.835907 -33.89383 -2.4871826c-12.852249 -0.7077942 -27.027008 1.5010071 -40.48723 1.1054993c-10.344284 -0.30395508 -16.958504 -2.0451355 -27.303001 -2.3489075c-12.983894 -0.38131714 -26.303638 0.5527344 -39.544945 0.5527344" fill-rule="evenodd"/><path fill="#000000" fill-opacity="0.0" d="m43.1343 23.489136c1.6878777 23.941647 -1.8870697 53.22661 -1.3543358 79.72619c0.55332947 27.524193 0.9800186 55.18392 1.6250572 82.607506c0.4504547 19.150925 2.7614899 38.252945 1.8961449 56.673004c-0.5743599 12.226074 -1.7995682 22.513168 -2.437954 34.578476c-0.6937599 13.111847 1.4712868 27.572968 1.0836182 41.305084c-0.29792786 10.553223 -2.0046425 17.301056 -2.3024101 27.854523c-0.37374496 13.246155 0.5418091 26.83496 0.5418091 40.34375" fill-rule="evenodd"/><path stroke="#000000" stroke-width="2.0" stroke-linejoin="round" stroke-linecap="butt" d="m43.1343 23.489136c1.6878777 23.941647 -1.8870697 53.22661 -1.3543358 79.72619c0.55332947 27.524193 0.9800186 55.18392 1.6250572 82.607506c0.4504547 19.150925 2.7614899 38.252945 1.8961449 56.673004c-0.5743599 12.226074 -1.7995682 22.513168 -2.437954 34.578476c-0.6937599 13.111847 1.4712868 27.572968 1.0836182 41.305084c-0.29792786 10.553223 -2.0046425 17.301056 -2.3024101 27.854523c-0.37374496 13.246155 0.5418091 26.83496 0.5418091 40.34375" fill-rule="evenodd"/></g></svg>