<svg version="1.1" viewBox="0.0 0.0 141.69291338582678 165.93438320209972" fill="none" stroke="none" stroke-linecap="square" stroke-miterlimit="10" xmlns:xlink="http://www.w3.org/1999/xlink" xmlns="http://www.w3.org/2000/svg"><clipPath id="p.0"><path d="m0 0l141.69292 0l0 165.93439l-141.69292 0l0 -165.93439z" clip-rule="nonzero"/></clipPath><g clip-path="url(#p.0)"><path fill="#000000" fill-opacity="0.0" d="m0 0l141.69292 0l0 165.93439l-141.69292 0z" fill-rule="evenodd"/><g filter="url(#shadowFilter-p.1)"><use xlink:href="#p.1" transform="matrix(1.0 0.0 0.0 1.0 1.0000002624671922 0.0)"/></g><defs><filter id="shadowFilter-p.1" filterUnits="userSpaceOnUse"><feGaussianBlur in="SourceAlpha" stdDeviation="2.5" result="blur"/><feComponentTransfer in="blur" color-interpolation-filters="sRGB"><feFuncR type="linear" slope="0" intercept="0.0"/><feFuncG type="linear" slope="0" intercept="0.0"/><feFuncB type="linear" slope="0" intercept="0.0"/><feFuncA type="linear" slope="0.5" intercept="0"/></feComponentTransfer></filter></defs><g id="p.1"><path fill="#ffffff" d="m4.984252 4.7979l132.0315 0l0 156.69292l-132.0315 0z" fill-rule="evenodd"/></g><path fill="#ffffff" d="m70.41195 88.28063l0 0c0 -17.725296 14.369186 -32.094486 32.094482 -32.094486l0 0c8.511993 0 16.675346 3.3813744 22.694237 9.400257c6.018875 6.0188828 9.400253 14.182243 9.400253 22.69423l0 0c0 17.725296 -14.369186 32.09449 -32.09449 32.09449l0 0c-17.725296 0 -32.094482 -14.369194 -32.094482 -32.09449z" fill-rule="evenodd"/><path stroke="#000000" stroke-width="1.0" stroke-linejoin="round" stroke-linecap="butt" d="m70.41195 88.28063l0 0c0 -17.725296 14.369186 -32.094486 32.094482 -32.094486l0 0c8.511993 0 16.675346 3.3813744 22.694237 9.400257c6.018875 6.0188828 9.400253 14.182243 9.400253 22.69423l0 0c0 17.725296 -14.369186 32.09449 -32.09449 32.09449l0 0c-17.725296 0 -32.094482 -14.369194 -32.094482 -32.09449z" fill-rule="evenodd"/><path fill="#000000" d="m92.89112 92.46334q-0.765625 0 -1.4375 -0.1875q-0.671875 -0.203125 -1.296875 -0.640625l0 -1.75l1.015625 0l0.171875 1.125q0.265625 0.203125 0.671875 0.328125q0.40625 0.109375 0.875 0.109375q0.46875 0 0.78125 -0.125q0.3125 -0.140625 0.46875 -0.375q0.171875 -0.234375 0.171875 -0.5625q0 -0.3125 -0.140625 -0.53125q-0.140625 -0.234375 -0.484375 -0.421875q-0.34375 -0.1875 -0.921875 -0.34375q-0.84375 -0.234375 -1.421875 -0.546875q-0.5625 -0.3125 -0.859375 -0.75q-0.28125 -0.4375 -0.28125 -1.03125q0 -0.609375 0.328125 -1.078125q0.34375 -0.46875 0.921875 -0.734375q0.59375 -0.265625 1.359375 -0.28125q0.84375 0 1.484375 0.234375q0.65625 0.21875 1.109375 0.59375l0 1.625l-1.0 0l-0.1875 -1.0625q-0.21875 -0.15625 -0.5625 -0.25q-0.328125 -0.109375 -0.796875 -0.109375q-0.390625 0 -0.703125 0.125q-0.296875 0.125 -0.46875 0.375q-0.171875 0.234375 -0.171875 0.5625q0 0.28125 0.15625 0.5q0.15625 0.203125 0.5 0.390625q0.359375 0.171875 0.953125 0.34375q1.234375 0.328125 1.875 0.90625q0.640625 0.578125 0.640625 1.46875q0 0.625 -0.34375 1.109375q-0.34375 0.46875 -0.96875 0.734375q-0.609375 0.25 -1.4375 0.25zm3.431244 -0.109375l0 -0.796875l0.796875 -0.15625l0 -3.71875l-0.828125 -0.15625l0 -0.796875l2.03125 0l0.0625 0.734375q0.265625 -0.40625 0.671875 -0.625q0.421875 -0.21875 0.96875 -0.21875q0.546875 0 0.9375 0.25q0.40625 0.25 0.609375 0.75q0.25 -0.46875 0.671875 -0.734375q0.4375 -0.265625 1.0 -0.265625q0.84375 0 1.328125 0.578125q0.5 0.578125 0.5 1.75l0 2.453125l0.78125 0.15625l0 0.796875l-2.828125 0l0 -0.796875l0.734375 -0.15625l0 -2.453125q0 -0.71875 -0.25 -1.0q-0.234375 -0.296875 -0.6875 -0.296875q-0.4375 0 -0.71875 0.28125q-0.28125 0.28125 -0.359375 0.703125l0 2.765625l0.71875 0.15625l0 0.796875l-2.734375 0l0 -0.796875l0.703125 -0.15625l0 -2.453125q0 -0.6875 -0.25 -0.984375q-0.234375 -0.3125 -0.703125 -0.3125q-0.375 0 -0.640625 0.15625q-0.265625 0.15625 -0.421875 0.453125l0 3.140625l0.734375 0.15625l0 0.796875l-2.828125 0zm12.010956 0.109375q-0.859375 0 -1.34375 -0.4375q-0.484375 -0.453125 -0.484375 -1.21875q0 -0.53125 0.296875 -0.921875q0.296875 -0.40625 0.859375 -0.625q0.5625 -0.234375 1.359375 -0.234375l0.859375 0l0 -0.484375q0 -0.4375 -0.28125 -0.703125q-0.265625 -0.265625 -0.765625 -0.265625q-0.296875 0 -0.515625 0.078125q-0.21875 0.0625 -0.40625 0.1875l-0.109375 0.765625l-0.96875 0l-0.015625 -1.390625q0.421875 -0.28125 0.921875 -0.4375q0.515625 -0.15625 1.140625 -0.15625q1.078125 0 1.6875 0.5q0.625 0.5 0.625 1.4375l0 2.484375q0 0.109375 0 0.21875q0 0.109375 0.015625 0.21875l0.5625 0.078125l0 0.796875l-1.703125 0q-0.0625 -0.1875 -0.109375 -0.359375q-0.03125 -0.171875 -0.0625 -0.34375q-0.28125 0.359375 -0.6875 0.59375q-0.390625 0.21875 -0.875 0.21875zm0.296875 -1.015625q0.390625 0 0.734375 -0.1875q0.34375 -0.1875 0.515625 -0.46875l0 -0.9375l-0.875 0q-0.59375 0 -0.890625 0.28125q-0.296875 0.265625 -0.296875 0.625q0 0.328125 0.203125 0.515625q0.21875 0.171875 0.609375 0.171875zm3.7181396 0.90625l0 -0.796875l0.78125 -0.15625l0 -6.203125l-0.828125 -0.15625l0 -0.796875l2.140625 0l0 7.15625l0.78125 0.15625l0 0.796875l-2.875 0zm3.3977203 0l0 -0.796875l0.78125 -0.15625l0 -6.203125l-0.828125 -0.15625l0 -0.796875l2.140625 0l0 7.15625l0.78125 0.15625l0 0.796875l-2.875 0zm5.9966736 0.109375q-0.78125 0 -1.375 -0.359375q-0.59375 -0.359375 -0.921875 -0.984375q-0.328125 -0.625 -0.328125 -1.4375l0 -0.21875q0 -0.828125 0.3125 -1.46875q0.328125 -0.640625 0.890625 -1.0q0.5625 -0.375 1.28125 -0.375q0.765625 0 1.28125 0.3125q0.515625 0.296875 0.78125 0.875q0.265625 0.5625 0.265625 1.34375l0 0.75l-3.453125 0l0 0.03125q0.015625 0.4375 0.171875 0.78125q0.171875 0.34375 0.46875 0.546875q0.3125 0.1875 0.75 0.1875q0.453125 0 0.828125 -0.125q0.375 -0.125 0.6875 -0.34375l0.421875 0.8125q-0.34375 0.28125 -0.859375 0.484375q-0.515625 0.1875 -1.203125 0.1875zm-1.234375 -3.484375l2.171875 0l0 -0.125q0 -0.375 -0.109375 -0.65625q-0.109375 -0.28125 -0.359375 -0.4375q-0.234375 -0.15625 -0.59375 -0.15625q-0.3125 0 -0.5625 0.1875q-0.234375 0.171875 -0.375 0.484375q-0.140625 0.296875 -0.1875 0.6875l0.015625 0.015625zm4.2237244 3.375l0 -0.796875l0.78125 -0.15625l0 -3.71875l-0.8125 -0.15625l0 -0.796875l2.03125 0l0.0625 0.703125l0.015625 0.109375q0.21875 -0.4375 0.53125 -0.671875q0.328125 -0.25 0.7656174 -0.25q0.15625 0 0.3125 0.03125q0.171875 0.015625 0.265625 0.046875l-0.140625 1.21875l-0.7343674 -0.046875q-0.359375 -0.015625 -0.59375 0.15625q-0.234375 0.15625 -0.390625 0.4375l0 2.9375l0.78125 0.15625l0 0.796875l-2.875 0z" fill-rule="nonzero"/><path fill="#000000" d="m104.220924 105.02063l0 -0.796875l0.828125 -0.15625l0 -5.65625l-0.828125 -0.15625l0 -0.8125l0.828125 0l2.5 0q1.265625 0 1.984375 0.515625q0.71875 0.515625 0.71875 1.546875q0 0.515625 -0.296875 0.9375q-0.296875 0.40625 -0.828125 0.59375q0.46875 0.109375 0.78125 0.375q0.3125 0.25 0.46875 0.625q0.171875 0.359375 0.171875 0.8125q0 1.0625 -0.703125 1.625q-0.703125 0.546875 -1.953125 0.546875l-3.671875 0zm2.140625 -1.015625l1.53125 0q0.640625 0 0.984375 -0.296875q0.359375 -0.296875 0.359375 -0.859375q0 -0.40625 -0.140625 -0.6875q-0.125 -0.28125 -0.390625 -0.421875q-0.265625 -0.15625 -0.6875 -0.15625l-1.65625 0l0 2.421875zm0 -3.359375l1.328125 0q0.578125 0 0.90625 -0.28125q0.34375 -0.28125 0.34375 -0.796875q0 -0.5625 -0.359375 -0.828125q-0.34375 -0.28125 -1.03125 -0.28125l-1.1875 0l0 2.1875zm4.77446 4.375l0 -0.796875l0.78125 -0.15625l0 -3.71875l-0.828125 -0.15625l0 -0.796875l2.140625 0l0 4.671875l0.765625 0.15625l0 0.796875l-2.859375 0zm0.71875 -6.90625l0 -1.203125l1.375 0l0 1.203125l-1.375 0zm4.8560333 7.0q-0.71875 0 -1.125 -0.390625q-0.390625 -0.40625 -0.390625 -1.296875l0 -3.09375l-0.828125 0l0 -0.9375l0.828125 0l0 -1.375l1.3125 0l0 1.375l1.109375 0l0 0.9375l-1.109375 0l0 3.09375q0 0.359375 0.140625 0.53125q0.15625 0.15625 0.40625 0.15625q0.140625 0 0.3125 -0.015625q0.1875 -0.03125 0.296875 -0.0625l0.140625 0.921875q-0.234375 0.0625 -0.53125 0.109375q-0.296875 0.046875 -0.5625 0.046875zm4.2098083 0.015625q-0.78125 0 -1.375 -0.359375q-0.59375 -0.359375 -0.921875 -0.984375q-0.328125 -0.625 -0.328125 -1.4375l0 -0.21875q0 -0.828125 0.3125 -1.46875q0.328125 -0.640625 0.890625 -1.0q0.5625 -0.375 1.28125 -0.375q0.765625 0 1.28125 0.3125q0.515625 0.296875 0.78125 0.875q0.265625 0.5625 0.265625 1.34375l0 0.75l-3.453125 0l0 0.03125q0.015625 0.4375 0.171875 0.78125q0.171875 0.34375 0.46875 0.546875q0.3125 0.1875 0.75 0.1875q0.453125 0 0.828125 -0.125q0.375 -0.125 0.6875 -0.34375l0.421875 0.8125q-0.34375 0.28125 -0.859375 0.484375q-0.515625 0.1875 -1.203125 0.1875zm-1.234375 -3.484375l2.171875 0l0 -0.125q0 -0.375 -0.109375 -0.65625q-0.109375 -0.28125 -0.359375 -0.4375q-0.234375 -0.15625 -0.59375 -0.15625q-0.3125 0 -0.5625 0.1875q-0.234375 0.171875 -0.375 0.484375q-0.140625 0.296875 -0.1875 0.6875l0.015625 0.015625zm6.531021 3.484375q-0.59375 0 -1.125 -0.109375q-0.515625 -0.125 -1.046875 -0.359375l-0.015625 -1.484375l0.953125 0l0.1875 0.8125q0.234375 0.09375 0.46875 0.15625q0.234375 0.046875 0.53125 0.046875q0.546875 0 0.78125 -0.1875q0.234375 -0.203125 0.234375 -0.5q0 -0.28125 -0.25 -0.46875q-0.234375 -0.203125 -0.90625 -0.359375q-1.015625 -0.21875 -1.5 -0.625q-0.46875 -0.421875 -0.46875 -1.09375q0 -0.46875 0.25 -0.84375q0.25 -0.375 0.71875 -0.59375q0.484375 -0.234375 1.1875 -0.234375q0.640625 0 1.140625 0.140625q0.5 0.125 0.8437424 0.34375l0.03125 1.4375l-0.9374924 0l-0.15625 -0.75q-0.15625 -0.109375 -0.375 -0.171875q-0.21875 -0.0625 -0.484375 -0.0625q-0.4375 0 -0.6875 0.1875q-0.25 0.1875 -0.25 0.484375q0 0.15625 0.078125 0.296875q0.09375 0.140625 0.3125 0.25q0.234375 0.109375 0.6875 0.21875q1.09375 0.25 1.5625 0.65625q0.48436737 0.40625 0.48436737 1.09375q0 0.75 -0.5624924 1.234375q-0.546875 0.484375 -1.6875 0.484375z" fill-rule="nonzero"/><path fill="#ffffff" d="m130.43106 62.274292c0.3937378 0.97371674 2.215042 3.7236633 2.3624573 5.842308c0.14741516 2.1186447 -0.34805298 4.9941025 -1.477951 6.8695526c-1.1298981 1.8754501 -4.298004 3.4638824 -5.3014603 4.3831406c-1.0034485 0.9192581 -0.61878204 0.9436722 -0.71925354 1.1324081c-0.1004715 0.18873596 -0.34679413 -0.46886444 0.11643219 0c0.46322632 0.46886444 2.1211472 1.3214493 2.6629333 2.8131714c0.5417938 1.4917221 0.68577576 4.262642 0.5877991 6.1371536c-0.097961426 1.8745041 -0.29170227 3.673584 -1.1755905 5.109909c-0.8838959 1.4363174 -2.5796814 2.6554184 -4.1277466 3.5080109c-1.5480576 0.85259247 -3.6128616 1.3643341 -5.160614 1.6075287c-1.5477448 0.24319458 -3.3026886 -0.12582397 -4.125862 -0.1483612c-0.8231659 -0.022529602 -0.7596283 0.012832642 -0.8131485 0.013145447c-0.053520203 3.2043457E-4 0.4303589 -0.13114166 0.49201965 -0.011260986c0.061660767 0.11987305 -0.2976532 -0.024414062 -0.12206268 0.73052216c0.17558289 0.7549362 1.1017303 2.411293 1.1755981 3.7990952c0.07386017 1.3878098 0.028793335 3.2616959 -0.7324066 4.527748c-0.7611923 1.2660522 -2.4341354 2.0945435 -3.8347778 3.068573c-1.4006424 0.97402954 -3.0704498 2.2400818 -4.5690613 2.7756119c-1.4986038 0.5355301 -3.0954895 0.7048569 -4.422577 0.43756866c-1.3270874 -0.26729584 -2.4835892 -1.2626114 -3.5399399 -2.041336c-1.0563507 -0.7787247 -2.379364 -2.2260056 -2.798149 -2.631012c-0.4187851 -0.40501404 0.14084625 0.08544159 0.28544617 0.20093536c0.14460754 0.115493774 0.5374069 0.44726562 0.5821686 0.49202728c0.04475403 0.04475403 -0.31643677 -0.2541504 -0.31362152 -0.22348022c0.002822876 0.030677795 0.88952637 -0.14678955 0.33052063 0.40751648c-0.55900574 0.55431366 -2.480774 2.090477 -3.6845398 2.9183426c-1.2037659 0.8278656 -2.3092575 1.6103439 -3.538063 2.0488434c-1.2288055 0.43850708 -2.336174 0.46103668 -3.8347778 0.5821686c-1.4986115 0.12112427 -3.6826706 0.5098648 -5.1568604 0.14459991c-1.4741974 -0.36525726 -3.0735855 -1.9468079 -3.688301 -2.336174" fill-rule="evenodd"/><path stroke="#000000" stroke-width="1.0" stroke-linejoin="round" stroke-linecap="butt" d="m130.43106 62.274292c0.3937378 0.97371674 2.215042 3.7236633 2.3624573 5.842308c0.14741516 2.1186447 -0.34805298 4.9941025 -1.477951 6.8695526c-1.1298981 1.8754501 -4.298004 3.4638824 -5.3014603 4.3831406c-1.0034485 0.9192581 -0.61878204 0.9436722 -0.71925354 1.1324081c-0.1004715 0.18873596 -0.34679413 -0.46886444 0.11643219 0c0.46322632 0.46886444 2.1211472 1.3214493 2.6629333 2.8131714c0.5417938 1.4917221 0.68577576 4.262642 0.5877991 6.1371536c-0.097961426 1.8745041 -0.29170227 3.673584 -1.1755905 5.109909c-0.8838959 1.4363174 -2.5796814 2.6554184 -4.1277466 3.5080109c-1.5480576 0.85259247 -3.6128616 1.3643341 -5.160614 1.6075287c-1.5477448 0.24319458 -3.3026886 -0.12582397 -4.125862 -0.1483612c-0.8231659 -0.022529602 -0.7596283 0.012832642 -0.8131485 0.013145447c-0.053520203 3.2043457E-4 0.4303589 -0.13114166 0.49201965 -0.011260986c0.061660767 0.11987305 -0.2976532 -0.024414062 -0.12206268 0.73052216c0.17558289 0.7549362 1.1017303 2.411293 1.1755981 3.7990952c0.07386017 1.3878098 0.028793335 3.2616959 -0.7324066 4.527748c-0.7611923 1.2660522 -2.4341354 2.0945435 -3.8347778 3.068573c-1.4006424 0.97402954 -3.0704498 2.2400818 -4.5690613 2.7756119c-1.4986038 0.5355301 -3.0954895 0.7048569 -4.422577 0.43756866c-1.3270874 -0.26729584 -2.4835892 -1.2626114 -3.5399399 -2.041336c-1.0563507 -0.7787247 -2.379364 -2.2260056 -2.798149 -2.631012c-0.4187851 -0.40501404 0.14084625 0.08544159 0.28544617 0.20093536c0.14460754 0.115493774 0.5374069 0.44726562 0.5821686 0.49202728c0.04475403 0.04475403 -0.31643677 -0.2541504 -0.31362152 -0.22348022c0.002822876 0.030677795 0.88952637 -0.14678955 0.33052063 0.40751648c-0.55900574 0.55431366 -2.480774 2.090477 -3.6845398 2.9183426c-1.2037659 0.8278656 -2.3092575 1.6103439 -3.538063 2.0488434c-1.2288055 0.43850708 -2.336174 0.46103668 -3.8347778 0.5821686c-1.4986115 0.12112427 -3.6826706 0.5098648 -5.1568604 0.14459991c-1.4741974 -0.36525726 -3.0735855 -1.9468079 -3.688301 -2.336174" fill-rule="evenodd"/><path fill="#ffffff" d="m106.57077 86.610245l25.509186 -25.999996l-14.71653 -9.650921l-27.40158 -0.7480316l-23.580048 23.165352l-0.9973755 29.808403l8.93438 11.133858l1.8608932 1.4041977z" fill-rule="evenodd"/><path fill="#ffffff" d="m12.380541 129.87268l0 0c0 -16.26413 13.184685 -29.448822 29.44882 -29.448822l0 0c7.8103104 0 15.300735 3.1026382 20.82346 8.625366c5.522724 5.5227203 8.625355 13.013145 8.625355 20.823456l0 0c0 16.26413 -13.184681 29.448822 -29.448814 29.448822l0 0c-16.264135 0 -29.44882 -13.184692 -29.44882 -29.448822z" fill-rule="evenodd"/><path stroke="#000000" stroke-width="1.0" stroke-linejoin="round" stroke-linecap="butt" d="m12.380541 129.87268l0 0c0 -16.26413 13.184685 -29.448822 29.44882 -29.448822l0 0c7.8103104 0 15.300735 3.1026382 20.82346 8.625366c5.522724 5.5227203 8.625355 13.013145 8.625355 20.823456l0 0c0 16.26413 -13.184681 29.448822 -29.448814 29.448822l0 0c-16.264135 0 -29.44882 -13.184692 -29.44882 -29.448822z" fill-rule="evenodd"/><path fill="#000000" d="m28.105145 134.05539q-0.765625 0 -1.4375 -0.1875q-0.671875 -0.203125 -1.296875 -0.640625l0 -1.75l1.015625 0l0.171875 1.125q0.265625 0.203125 0.671875 0.328125q0.40625 0.109375 0.875 0.109375q0.46875 0 0.78125 -0.125q0.3125 -0.140625 0.46875 -0.375q0.171875 -0.234375 0.171875 -0.5625q0 -0.3125 -0.140625 -0.53125q-0.140625 -0.234375 -0.484375 -0.421875q-0.34375 -0.1875 -0.921875 -0.34375q-0.84375 -0.234375 -1.421875 -0.546875q-0.5625 -0.3125 -0.859375 -0.75q-0.28125 -0.4375 -0.28125 -1.03125q0 -0.609375 0.328125 -1.078125q0.34375 -0.46875 0.921875 -0.734375q0.59375 -0.265625 1.359375 -0.28125q0.84375 0 1.484375 0.234375q0.65625 0.21875 1.109375 0.59375l0 1.625l-1.0 0l-0.1875 -1.0625q-0.21875 -0.15625 -0.5625 -0.25q-0.328125 -0.109375 -0.796875 -0.109375q-0.390625 0 -0.703125 0.125q-0.296875 0.125 -0.46875 0.375q-0.171875 0.234375 -0.171875 0.5625q0 0.28125 0.15625 0.5q0.15625 0.203125 0.5 0.390625q0.359375 0.171875 0.953125 0.34375q1.234375 0.328125 1.875 0.90625q0.640625 0.578125 0.640625 1.46875q0 0.625 -0.34375 1.109375q-0.34375 0.46875 -0.96875 0.734375q-0.609375 0.25 -1.4375 0.25zm3.431244 -0.109375l0 -0.796875l0.796875 -0.15625l0 -3.71875l-0.828125 -0.15625l0 -0.796875l2.03125 0l0.0625 0.734375q0.265625 -0.40625 0.671875 -0.625q0.421875 -0.21875 0.96875 -0.21875q0.546875 0 0.9375 0.25q0.40625 0.25 0.609375 0.75q0.25 -0.46875 0.671875 -0.734375q0.4375 -0.265625 1.0 -0.265625q0.84375 0 1.328125 0.578125q0.5 0.578125 0.5 1.75l0 2.453125l0.78125 0.15625l0 0.796875l-2.828125 0l0 -0.796875l0.734375 -0.15625l0 -2.453125q0 -0.71875 -0.25 -1.0q-0.234375 -0.296875 -0.6875 -0.296875q-0.4375 0 -0.71875 0.28125q-0.28125 0.28125 -0.359375 0.703125l0 2.765625l0.71875 0.15625l0 0.796875l-2.734375 0l0 -0.796875l0.703125 -0.15625l0 -2.453125q0 -0.6875 -0.25 -0.984375q-0.234375 -0.3125 -0.703125 -0.3125q-0.375 0 -0.640625 0.15625q-0.265625 0.15625 -0.421875 0.453125l0 3.140625l0.734375 0.15625l0 0.796875l-2.828125 0zm12.010956 0.109375q-0.859375 0 -1.34375 -0.4375q-0.484375 -0.453125 -0.484375 -1.21875q0 -0.53125 0.296875 -0.921875q0.296875 -0.40625 0.859375 -0.625q0.5625 -0.234375 1.359375 -0.234375l0.859375 0l0 -0.484375q0 -0.4375 -0.28125 -0.703125q-0.265625 -0.265625 -0.765625 -0.265625q-0.296875 0 -0.515625 0.078125q-0.21875 0.0625 -0.40625 0.1875l-0.109375 0.765625l-0.96875 0l-0.015625 -1.390625q0.421875 -0.28125 0.921875 -0.4375q0.515625 -0.15625 1.140625 -0.15625q1.078125 0 1.6875 0.5q0.625 0.5 0.625 1.4375l0 2.484375q0 0.109375 0 0.21875q0 0.109375 0.015625 0.21875l0.5625 0.078125l0 0.796875l-1.703125 0q-0.0625 -0.1875 -0.109375 -0.359375q-0.03125 -0.171875 -0.0625 -0.34375q-0.28125 0.359375 -0.6875 0.59375q-0.390625 0.21875 -0.875 0.21875zm0.296875 -1.015625q0.390625 0 0.734375 -0.1875q0.34375 -0.1875 0.515625 -0.46875l0 -0.9375l-0.875 0q-0.59375 0 -0.890625 0.28125q-0.296875 0.265625 -0.296875 0.625q0 0.328125 0.203125 0.515625q0.21875 0.171875 0.609375 0.171875zm3.7181396 0.90625l0 -0.796875l0.78125 -0.15625l0 -6.203125l-0.828125 -0.15625l0 -0.796875l2.140625 0l0 7.15625l0.78125 0.15625l0 0.796875l-2.875 0zm3.3977203 0l0 -0.796875l0.78125 -0.15625l0 -6.203125l-0.828125 -0.15625l0 -0.796875l2.140625 0l0 7.15625l0.78125 0.15625l0 0.796875l-2.875 0zm5.9966736 0.109375q-0.78125 0 -1.375 -0.359375q-0.59375 -0.359375 -0.921875 -0.984375q-0.328125 -0.625 -0.328125 -1.4375l0 -0.21875q0 -0.828125 0.3125 -1.46875q0.328125 -0.640625 0.890625 -1.0q0.5625 -0.375 1.28125 -0.375q0.765625 0 1.28125 0.3125q0.515625 0.296875 0.78125 0.875q0.265625 0.5625 0.265625 1.34375l0 0.75l-3.453125 0l0 0.03125q0.015625 0.4375 0.171875 0.78125q0.171875 0.34375 0.46875 0.546875q0.3125 0.1875 0.75 0.1875q0.453125 0 0.828125 -0.125q0.375 -0.125 0.6875 -0.34375l0.421875 0.8125q-0.34375 0.28125 -0.859375 0.484375q-0.515625 0.1875 -1.203125 0.1875zm-1.234375 -3.484375l2.171875 0l0 -0.125q0 -0.375 -0.109375 -0.65625q-0.109375 -0.28125 -0.359375 -0.4375q-0.234375 -0.15625 -0.59375 -0.15625q-0.3125 0 -0.5625 0.1875q-0.234375 0.171875 -0.375 0.484375q-0.140625 0.296875 -0.1875 0.6875l0.015625 0.015625zm4.2237244 3.375l0 -0.796875l0.78125 -0.15625l0 -3.71875l-0.8125 -0.15625l0 -0.796875l2.03125 0l0.0625 0.703125l0.015625 0.109375q0.21875 -0.4375 0.53125 -0.671875q0.328125 -0.25 0.765625 -0.25q0.15625 0 0.3125 0.03125q0.171875 0.015625 0.265625 0.046875l-0.140625 1.21875l-0.734375 -0.046875q-0.359375 -0.015625 -0.59375 0.15625q-0.234375 0.15625 -0.390625 0.4375l0 2.9375l0.78125 0.15625l0 0.796875l-2.875 0z" fill-rule="nonzero"/><path fill="#000000" d="m39.434948 146.61269l0 -0.796875l0.828125 -0.15625l0 -5.65625l-0.828125 -0.15625l0 -0.8125l0.828125 0l2.5 0q1.265625 0 1.984375 0.515625q0.71875 0.515625 0.71875 1.546875q0 0.515625 -0.296875 0.9375q-0.296875 0.40625 -0.828125 0.59375q0.46875 0.109375 0.78125 0.375q0.3125 0.25 0.46875 0.625q0.171875 0.359375 0.171875 0.8125q0 1.0625 -0.703125 1.625q-0.703125 0.546875 -1.953125 0.546875l-3.671875 0zm2.140625 -1.015625l1.53125 0q0.640625 0 0.984375 -0.296875q0.359375 -0.296875 0.359375 -0.859375q0 -0.40625 -0.140625 -0.6875q-0.125 -0.28125 -0.390625 -0.421875q-0.265625 -0.15625 -0.6875 -0.15625l-1.65625 0l0 2.421875zm0 -3.359375l1.328125 0q0.578125 0 0.90625 -0.28125q0.34375 -0.28125 0.34375 -0.796875q0 -0.5625 -0.359375 -0.828125q-0.34375 -0.28125 -1.03125 -0.28125l-1.1875 0l0 2.1875zm4.77446 4.375l0 -0.796875l0.78125 -0.15625l0 -3.71875l-0.828125 -0.15625l0 -0.796875l2.140625 0l0 4.671875l0.765625 0.15625l0 0.796875l-2.859375 0zm0.71875 -6.90625l0 -1.203125l1.375 0l0 1.203125l-1.375 0zm4.8560333 7.0q-0.71875 0 -1.125 -0.390625q-0.390625 -0.40625 -0.390625 -1.296875l0 -3.09375l-0.828125 0l0 -0.9375l0.828125 0l0 -1.375l1.3125 0l0 1.375l1.109375 0l0 0.9375l-1.109375 0l0 3.09375q0 0.359375 0.140625 0.53125q0.15625 0.15625 0.40625 0.15625q0.140625 0 0.3125 -0.015625q0.1875 -0.03125 0.296875 -0.0625l0.140625 0.921875q-0.234375 0.0625 -0.53125 0.109375q-0.296875 0.046875 -0.5625 0.046875zm4.2098083 0.015625q-0.78125 0 -1.375 -0.359375q-0.59375 -0.359375 -0.921875 -0.984375q-0.328125 -0.625 -0.328125 -1.4375l0 -0.21875q0 -0.828125 0.3125 -1.46875q0.328125 -0.640625 0.890625 -1.0q0.5625 -0.375 1.28125 -0.375q0.765625 0 1.28125 0.3125q0.515625 0.296875 0.78125 0.875q0.265625 0.5625 0.265625 1.34375l0 0.75l-3.453125 0l0 0.03125q0.015625 0.4375 0.171875 0.78125q0.171875 0.34375 0.46875 0.546875q0.3125 0.1875 0.75 0.1875q0.453125 0 0.828125 -0.125q0.375 -0.125 0.6875 -0.34375l0.421875 0.8125q-0.34375 0.28125 -0.859375 0.484375q-0.515625 0.1875 -1.203125 0.1875zm-1.234375 -3.484375l2.171875 0l0 -0.125q0 -0.375 -0.109375 -0.65625q-0.109375 -0.28125 -0.359375 -0.4375q-0.234375 -0.15625 -0.59375 -0.15625q-0.3125 0 -0.5625 0.1875q-0.234375 0.171875 -0.375 0.484375q-0.140625 0.296875 -0.1875 0.6875l0.015625 0.015625zm6.531021 3.484375q-0.59375 0 -1.125 -0.109375q-0.515625 -0.125 -1.046875 -0.359375l-0.015625 -1.484375l0.953125 0l0.1875 0.8125q0.234375 0.09375 0.46875 0.15625q0.234375 0.046875 0.53125 0.046875q0.546875 0 0.78125 -0.1875q0.234375 -0.203125 0.234375 -0.5q0 -0.28125 -0.25 -0.46875q-0.234375 -0.203125 -0.90625 -0.359375q-1.015625 -0.21875 -1.5 -0.625q-0.46875 -0.421875 -0.46875 -1.09375q0 -0.46875 0.25 -0.84375q0.25 -0.375 0.71875 -0.59375q0.484375 -0.234375 1.1875 -0.234375q0.640625 0 1.140625 0.140625q0.5 0.125 0.84375 0.34375l0.03125 1.4375l-0.9375 0l-0.15625 -0.75q-0.15625 -0.109375 -0.375 -0.171875q-0.21875 -0.0625 -0.484375 -0.0625q-0.4375 0 -0.6875 0.1875q-0.25 0.1875 -0.25 0.484375q0 0.15625 0.078125 0.296875q0.09375 0.140625 0.3125 0.25q0.234375 0.109375 0.6875 0.21875q1.09375 0.25 1.5625 0.65625q0.484375 0.40625 0.484375 1.09375q0 0.75 -0.5625 1.234375q-0.546875 0.484375 -1.6875 0.484375z" fill-rule="nonzero"/><path fill="#ffffff" d="m67.32483 102.69161c0.39374542 0.97371674 2.215042 3.723671 2.362465 5.8423157c0.14741516 2.118637 -0.34804535 4.9941025 -1.477951 6.869545c-1.1298981 1.8754501 -4.298008 3.46389 -5.3014603 4.383148c-1.0034523 0.9192505 -0.61878586 0.94366455 -0.71925354 1.1324005c-0.1004715 0.18873596 -0.34679794 -0.46886444 0.11643219 0c0.46322632 0.46886444 2.1211472 1.3214569 2.6629333 2.8131714c0.5417938 1.4917221 0.6857681 4.262642 0.5877991 6.137146c-0.097961426 1.8745117 -0.29170227 3.6735992 -1.1755981 5.109909c-0.88388824 1.4363251 -2.5796776 2.655426 -4.127739 3.5080261c-1.5480576 0.85258484 -3.6128654 1.3643341 -5.160614 1.6075287c-1.5477448 0.24319458 -3.3026924 -0.12582397 -4.125862 -0.1483612c-0.8231697 -0.022537231 -0.7596321 0.012832642 -0.8131523 0.013137817c-0.053520203 3.2043457E-4 0.4303627 -0.13113403 0.49202347 -0.011260986c0.061660767 0.11987305 -0.297657 -0.024414062 -0.1220665 0.7305298c0.1755867 0.7549286 1.1017303 2.4112854 1.1755981 3.7990875c0.0738678 1.3878174 0.028793335 3.2616882 -0.7324028 4.5277557c-0.76119614 1.2660522 -2.4341393 2.0945435 -3.8347778 3.068573c-1.4006386 0.97402954 -3.0704536 2.2400818 -4.5690613 2.7756042c-1.4986038 0.5355377 -3.0954895 0.7048645 -4.422577 0.43756104c-1.3270874 -0.2672882 -2.483593 -1.2626038 -3.5399399 -2.0413208c-1.0563507 -0.7787323 -2.3793678 -2.2260132 -2.798151 -2.631012c-0.4187832 -0.40501404 0.14084625 0.08543396 0.28544807 0.20092773c0.14460373 0.115493774 0.5374069 0.44726562 0.58216476 0.4920349c0.044757843 0.04475403 -0.31643295 -0.2541504 -0.3136177 -0.22348022c0.0028190613 0.030670166 0.88952637 -0.14678955 0.33052063 0.40751648c-0.5590019 0.55430603 -2.4807758 2.0904694 -3.6845436 2.918335c-1.2037678 0.8278656 -2.3092556 1.6103516 -3.538063 2.0488434c-1.2288074 0.43850708 -2.336172 0.4610443 -3.8347797 0.5821686c-1.4986057 0.12112427 -3.6826649 0.50987244 -5.1568584 0.14460754c-1.4741917 -0.3652649 -3.0735817 -1.9468079 -3.6882982 -2.3361816" fill-rule="evenodd"/><path stroke="#000000" stroke-width="1.0" stroke-linejoin="round" stroke-linecap="butt" d="m67.32483 102.69161c0.39374542 0.97371674 2.215042 3.723671 2.362465 5.8423157c0.14741516 2.118637 -0.34804535 4.9941025 -1.477951 6.869545c-1.1298981 1.8754501 -4.298008 3.46389 -5.3014603 4.383148c-1.0034523 0.9192505 -0.61878586 0.94366455 -0.71925354 1.1324005c-0.1004715 0.18873596 -0.34679794 -0.46886444 0.11643219 0c0.46322632 0.46886444 2.1211472 1.3214569 2.6629333 2.8131714c0.5417938 1.4917221 0.6857681 4.262642 0.5877991 6.137146c-0.097961426 1.8745117 -0.29170227 3.6735992 -1.1755981 5.109909c-0.88388824 1.4363251 -2.5796776 2.655426 -4.127739 3.5080261c-1.5480576 0.85258484 -3.6128654 1.3643341 -5.160614 1.6075287c-1.5477448 0.24319458 -3.3026924 -0.12582397 -4.125862 -0.1483612c-0.8231697 -0.022537231 -0.7596321 0.012832642 -0.8131523 0.013137817c-0.053520203 3.2043457E-4 0.4303627 -0.13113403 0.49202347 -0.011260986c0.061660767 0.11987305 -0.297657 -0.024414062 -0.1220665 0.7305298c0.1755867 0.7549286 1.1017303 2.4112854 1.1755981 3.7990875c0.0738678 1.3878174 0.028793335 3.2616882 -0.7324028 4.5277557c-0.76119614 1.2660522 -2.4341393 2.0945435 -3.8347778 3.068573c-1.4006386 0.97402954 -3.0704536 2.2400818 -4.5690613 2.7756042c-1.4986038 0.5355377 -3.0954895 0.7048645 -4.422577 0.43756104c-1.3270874 -0.2672882 -2.483593 -1.2626038 -3.5399399 -2.0413208c-1.0563507 -0.7787323 -2.3793678 -2.2260132 -2.798151 -2.631012c-0.4187832 -0.40501404 0.14084625 0.08543396 0.28544807 0.20092773c0.14460373 0.115493774 0.5374069 0.44726562 0.58216476 0.4920349c0.044757843 0.04475403 -0.31643295 -0.2541504 -0.3136177 -0.22348022c0.0028190613 0.030670166 0.88952637 -0.14678955 0.33052063 0.40751648c-0.5590019 0.55430603 -2.4807758 2.0904694 -3.6845436 2.918335c-1.2037678 0.8278656 -2.3092556 1.6103516 -3.538063 2.0488434c-1.2288074 0.43850708 -2.336172 0.4610443 -3.8347797 0.5821686c-1.4986057 0.12112427 -3.6826649 0.50987244 -5.1568584 0.14460754c-1.4741917 -0.3652649 -3.0735817 -1.9468079 -3.6882982 -2.3361816" fill-rule="evenodd"/><path fill="#ffffff" d="m43.463245 127.02887l25.509182 -26.0l-14.716534 -9.650917l-27.401573 -0.7480316l-20.585302 25.149605l0 28.83989l4.942258 10.118118l1.8608923 1.4042053z" fill-rule="evenodd"/><path fill="#ffffff" d="m7.3057194 66.73921l0 0c0 -20.699802 16.780508 -37.480312 37.480316 -37.480312l0 0c9.940399 0 19.473663 3.9488068 26.502586 10.97773c7.028923 7.028923 10.97773 16.562187 10.97773 26.502583l0 0c0 20.699806 -16.78051 37.480316 -37.480316 37.480316l0 0c-20.699806 0 -37.480316 -16.78051 -37.480316 -37.480316z" fill-rule="evenodd"/><path stroke="#000000" stroke-width="1.0" stroke-linejoin="round" stroke-linecap="butt" d="m7.3057194 66.73921l0 0c0 -20.699802 16.780508 -37.480312 37.480316 -37.480312l0 0c9.940399 0 19.473663 3.9488068 26.502586 10.97773c7.028923 7.028923 10.97773 16.562187 10.97773 26.502583l0 0c0 20.699806 -16.78051 37.480316 -37.480316 37.480316l0 0c-20.699806 0 -37.480316 -16.78051 -37.480316 -37.480316z" fill-rule="evenodd"/><path fill="#000000" d="m23.953653 69.8088q-1.0625 0 -1.984375 -0.265625q-0.90625 -0.265625 -1.78125 -0.890625l0 -2.390625l1.390625 0l0.234375 1.546875q0.375 0.28125 0.921875 0.453125q0.5625 0.15625 1.21875 0.15625q0.640625 0 1.0625 -0.1875q0.4375 -0.1875 0.65625 -0.515625q0.234375 -0.328125 0.234375 -0.78125q0 -0.40625 -0.203125 -0.71875q-0.1875 -0.328125 -0.65625 -0.578125q-0.46875 -0.265625 -1.265625 -0.484375q-1.15625 -0.3125 -1.9375 -0.734375q-0.78125 -0.4375 -1.1875 -1.03125q-0.390625 -0.609375 -0.390625 -1.421875q0 -0.828125 0.453125 -1.46875q0.453125 -0.65625 1.25 -1.03125q0.8125 -0.375 1.875 -0.375q1.15625 -0.015625 2.046875 0.296875q0.890625 0.3125 1.515625 0.828125l0 2.234375l-1.375 0l-0.25 -1.453125q-0.296875 -0.203125 -0.765625 -0.34375q-0.46875 -0.15625 -1.109375 -0.15625q-0.546875 0 -0.96875 0.1875q-0.40625 0.171875 -0.640625 0.5q-0.234375 0.3125 -0.234375 0.765625q0 0.390625 0.203125 0.6875q0.21875 0.296875 0.703125 0.546875q0.484375 0.234375 1.3125 0.46875q1.703125 0.453125 2.5625 1.25q0.875 0.796875 0.875 2.015625q0 0.875 -0.46875 1.53125q-0.46875 0.640625 -1.3125 1.0q-0.84375 0.359375 -1.984375 0.359375zm4.7242126 -0.15625l0 -1.109375l1.078125 -0.203125l0 -5.109375l-1.140625 -0.21875l0 -1.109375l2.796875 0l0.078125 1.015625q0.390625 -0.546875 0.9531269 -0.84375q0.5625 -0.3125 1.328125 -0.3125q0.75 0 1.28125 0.34375q0.546875 0.34375 0.828125 1.03125q0.359375 -0.640625 0.9375 -1.0q0.59375 -0.375 1.375 -0.375q1.171875 0 1.828125 0.796875q0.671875 0.796875 0.671875 2.40625l0 3.375l1.09375 0.203125l0 1.109375l-3.90625 0l0 -1.109375l1.015625 -0.203125l0 -3.375q0 -0.984375 -0.328125 -1.375q-0.328125 -0.40625 -0.96875 -0.40625q-0.59375 0 -0.984375 0.390625q-0.375 0.375 -0.484375 0.96875l0 3.796875l0.96875 0.203125l0 1.109375l-3.75 0l0 -1.109375l0.984375 -0.203125l0 -3.375q0 -0.953125 -0.34375 -1.359375q-0.328125 -0.421875 -0.96875 -0.421875q-0.53125 0 -0.890625 0.21875q-0.3593769 0.21875 -0.5781269 0.609375l0 4.328125l1.0156269 0.203125l0 1.109375l-3.890627 0zm16.507051 0.15625q-1.1875 0 -1.84375 -0.609375q-0.65625 -0.609375 -0.65625 -1.671875q0 -0.734375 0.390625 -1.28125q0.40625 -0.5625 1.171875 -0.875q0.78125 -0.3125 1.890625 -0.3125l1.171875 0l0 -0.640625q0 -0.625 -0.375 -0.984375q-0.359375 -0.359375 -1.0625 -0.359375q-0.40625 0 -0.71875 0.09375q-0.296875 0.09375 -0.546875 0.265625l-0.15625 1.046875l-1.328125 0l-0.015625 -1.90625q0.578125 -0.375 1.28125 -0.59375q0.703125 -0.21875 1.5625 -0.21875q1.46875 0 2.3125 0.703125q0.859375 0.6875 0.859375 1.96875l0 3.421875q0 0.15625 0 0.3125q0 0.140625 0.015625 0.28125l0.78125 0.09375l0 1.109375l-2.34375 0q-0.078125 -0.25 -0.140625 -0.484375q-0.0625 -0.234375 -0.09375 -0.46875q-0.375 0.484375 -0.921875 0.796875q-0.546875 0.3125 -1.234375 0.3125zm0.40625 -1.40625q0.546875 0 1.015625 -0.25q0.46875 -0.25 0.703125 -0.640625l0 -1.296875l-1.203125 0q-0.8125 0 -1.21875 0.375q-0.40625 0.375 -0.40625 0.875q0 0.453125 0.28125 0.703125q0.28125 0.234375 0.828125 0.234375zm5.1243896 1.25l0 -1.109375l1.078125 -0.203125l0 -8.53125l-1.140625 -0.21875l0 -1.09375l2.9375 0l0 9.84375l1.078125 0.203125l0 1.109375l-3.953125 0zm4.673111 0l0 -1.109375l1.078125 -0.203125l0 -8.53125l-1.140625 -0.21875l0 -1.09375l2.9375 0l0 9.84375l1.078125 0.203125l0 1.109375l-3.953125 0zm8.248627 0.15625q-1.09375 0 -1.90625 -0.484375q-0.8125 -0.5 -1.265625 -1.359375q-0.4375 -0.875 -0.4375 -1.984375l0 -0.3125q0 -1.125 0.4375 -2.0q0.4375 -0.890625 1.203125 -1.390625q0.78125 -0.515625 1.78125 -0.515625q1.0468712 0 1.7499962 0.421875q0.71875 0.421875 1.078125 1.203125q0.375 0.78125 0.375 1.859375l0 1.03125l-4.749996 0l-0.015625 0.046875q0.03125 0.59375 0.25 1.078125q0.21875 0.46875 0.640625 0.75q0.421875 0.265625 1.015625 0.265625q0.6406212 0 1.1562462 -0.171875q0.515625 -0.171875 0.953125 -0.484375l0.5625 1.125q-0.46875 0.390625 -1.171875 0.65625q-0.703125 0.265625 -1.6562462 0.265625zm-1.71875 -4.796875l2.9999962 0l0 -0.1875q0 -0.5 -0.15625 -0.875q-0.140625 -0.390625 -0.46875 -0.609375q-0.3281212 -0.21875 -0.8281212 -0.21875q-0.4375 0 -0.765625 0.25q-0.328125 0.234375 -0.53125 0.65625q-0.1875 0.421875 -0.265625 0.953125l0.015625 0.03125zm5.8291893 4.640625l0 -1.109375l1.078125 -0.203125l0 -5.109375l-1.125 -0.21875l0 -1.109375l2.78125 0l0.09375 0.984375l0.015625 0.15625q0.3125 -0.625 0.75 -0.953125q0.453125 -0.328125 1.046875 -0.328125q0.203125 0 0.421875 0.046875q0.234375 0.03125 0.375 0.078125l-0.203125 1.65625l-1.015625 -0.046875q-0.484375 -0.03125 -0.8125 0.1875q-0.3125 0.21875 -0.53125 0.609375l0 4.046875l1.078125 0.203125l0 1.109375l-3.953125 0z" fill-rule="nonzero"/><path fill="#000000" d="m39.529552 87.31922l0 -1.109375l1.140625 -0.203125l0 -7.78125l-1.140625 -0.21875l0 -1.109375l1.140625 0l3.4375 0q1.75 0 2.734375 0.71875q0.984375 0.703125 0.984375 2.125q0 0.703125 -0.40625 1.265625q-0.40625 0.5625 -1.125 0.84375q0.625 0.125 1.046875 0.484375q0.4375 0.359375 0.65625 0.875q0.234375 0.515625 0.234375 1.125q0 1.453125 -0.96875 2.21875q-0.953125 0.765625 -2.671875 0.765625l-5.0625 0zm2.9375 -1.390625l2.125 0q0.875 0 1.34375 -0.40625q0.484375 -0.421875 0.484375 -1.1875q0 -0.5625 -0.1875 -0.9375q-0.171875 -0.390625 -0.53125 -0.59375q-0.359375 -0.21875 -0.9375 -0.21875l-2.296875 0l0 3.34375zm0 -4.640625l1.84375 0q0.796875 0 1.25 -0.375q0.46875 -0.390625 0.46875 -1.09375q0 -0.765625 -0.5 -1.140625q-0.484375 -0.390625 -1.421875 -0.390625l-1.640625 0l0 3.0zm6.5693817 6.03125l0 -1.109375l1.078125 -0.203125l0 -5.109375l-1.140625 -0.21875l0 -1.109375l2.953125 0l0 6.4375l1.0625 0.203125l0 1.109375l-3.953125 0zm1.0 -9.5l0 -1.65625l1.875 0l0 1.65625l-1.875 0zm6.6861115 9.640625q-1.0 0 -1.546875 -0.546875q-0.546875 -0.5625 -0.546875 -1.78125l0 -4.265625l-1.140625 0l0 -1.296875l1.140625 0l0 -1.875l1.796875 0l0 1.875l1.53125 0l0 1.296875l-1.53125 0l0 4.265625q0 0.484375 0.203125 0.71875q0.203125 0.21875 0.546875 0.21875q0.203125 0 0.453125 -0.03125q0.25 -0.03125 0.390625 -0.078125l0.1875 1.28125q-0.3125 0.078125 -0.71875 0.140625q-0.40625 0.078125 -0.765625 0.078125zm5.784027 0.015625q-1.09375 0 -1.90625 -0.484375q-0.8125 -0.5 -1.265625 -1.359375q-0.4375 -0.875 -0.4375 -1.984375l0 -0.3125q0 -1.125 0.4375 -2.0q0.4375 -0.890625 1.203125 -1.390625q0.78125 -0.515625 1.78125 -0.515625q1.046875 0 1.7499962 0.421875q0.71875 0.421875 1.078125 1.203125q0.375 0.78125 0.375 1.859375l0 1.03125l-4.749996 0l-0.015625 0.046875q0.03125 0.59375 0.25 1.078125q0.21875 0.46875 0.640625 0.75q0.421875 0.265625 1.015625 0.265625q0.640625 0 1.15625 -0.171875q0.5156212 -0.171875 0.9531212 -0.484375l0.5625 1.125q-0.46875 0.390625 -1.171875 0.65625q-0.7031212 0.265625 -1.6562462 0.265625zm-1.71875 -4.796875l3.0 0l0 -0.1875q0 -0.5 -0.15625 -0.875q-0.140625 -0.390625 -0.46875 -0.609375q-0.328125 -0.21875 -0.828125 -0.21875q-0.4375 0 -0.765625 0.25q-0.328125 0.234375 -0.53125 0.65625q-0.1875 0.421875 -0.265625 0.953125l0.015625 0.03125zm9.015392 4.796875q-0.84375 0 -1.5625 -0.15625q-0.71875 -0.171875 -1.4375 -0.484375l-0.015625 -2.046875l1.296875 0l0.265625 1.109375q0.3125 0.140625 0.625 0.21875q0.328125 0.078125 0.734375 0.078125q0.78125 0 1.09375 -0.265625q0.3125 -0.28125 0.3125 -0.6875q0 -0.390625 -0.328125 -0.65625q-0.328125 -0.28125 -1.265625 -0.484375q-1.390625 -0.296875 -2.046875 -0.875q-0.65625 -0.578125 -0.65625 -1.5q0 -0.625 0.34375 -1.140625q0.34375 -0.515625 1.0 -0.828125q0.65625 -0.3125 1.625 -0.3125q0.875 0 1.5625 0.1875q0.6875 0.171875 1.171875 0.46875l0.03125 1.96875l-1.28125 0l-0.21875 -1.015625q-0.21875 -0.15625 -0.515625 -0.234375q-0.296875 -0.09375 -0.671875 -0.09375q-0.59375 0 -0.9375 0.265625q-0.34375 0.25 -0.34375 0.640625q0 0.234375 0.109375 0.421875q0.109375 0.1875 0.421875 0.34375q0.328125 0.15625 0.953125 0.296875q1.5 0.34375 2.15625 0.90625q0.65625 0.5625 0.65625 1.5q0 1.03125 -0.765625 1.703125q-0.765625 0.671875 -2.3125 0.671875z" fill-rule="nonzero"/><path fill="#ffffff" d="m70.66862 39.945534c0.39374542 0.97372055 2.2150497 3.7236671 2.362465 5.842312c0.14742279 2.1186447 -0.34804535 4.9941025 -1.477951 6.8695526c-1.1298981 1.8754463 -4.298004 3.4638824 -5.3014603 4.3831406c-1.0034485 0.9192581 -0.61878204 0.9436722 -0.71925354 1.1324043c-0.1004715 0.18873596 -0.34679413 -0.46886063 0.11643219 0c0.46322632 0.46886444 2.1211472 1.3214531 2.662941 2.8131752c0.5417862 1.4917183 0.6857605 4.262638 0.5877991 6.13715c-0.097969055 1.8745117 -0.2917099 3.673584 -1.1755981 5.109909c-0.8838959 1.4363174 -2.5796814 2.655426 -4.127743 3.5080185c-1.5480614 0.85258484 -3.6128693 1.3643265 -5.160614 1.607521c-1.5477486 0.24319458 -3.3026924 -0.12581635 -4.125862 -0.14835358c-0.8231697 -0.022537231 -0.7596321 0.012832642 -0.8131561 0.013145447c-0.053520203 3.1280518E-4 0.43036652 -0.13114166 0.49202347 -0.011268616c0.061660767 0.11987305 -0.2976532 -0.024414062 -0.1220665 0.73052216c0.17559052 0.7549362 1.1017342 2.411293 1.1755981 3.7991028c0.0738678 1.3878021 0.02879715 3.2616882 -0.732399 4.5277405c-0.76119614 1.2660522 -2.4341393 2.0945435 -3.8347816 3.068573c-1.4006386 0.9740372 -3.0704498 2.2400894 -4.5690575 2.7756195c-1.4986076 0.53552246 -3.0954933 0.7048569 -4.4225807 0.43756104c-1.3270836 -0.26729584 -2.4835892 -1.2626114 -3.5399399 -2.041336c-1.0563469 -0.7787247 -2.379364 -2.225998 -2.798149 -2.631012c-0.4187851 -0.40501404 0.14084625 0.08544922 0.28544998 0.200943c0.14459991 0.115493774 0.5374069 0.44726562 0.58216476 0.49201965c0.044757843 0.044761658 -0.31643677 -0.2541504 -0.3136177 -0.2234726c0.0028152466 0.030670166 0.88952255 -0.14679718 0.33052063 0.40751648c-0.55900574 0.55430603 -2.4807777 2.0904694 -3.6845436 2.918335c-1.2037697 0.8278656 -2.3092575 1.6103439 -3.538065 2.048851c-1.2288074 0.43849945 -2.336172 0.46103668 -3.8347797 0.58216095c-1.4986057 0.1211319 -3.6826649 0.5098648 -5.1568584 0.14459991c-1.4741917 -0.36525726 -3.0735817 -1.9468079 -3.6882992 -2.3361664" fill-rule="evenodd"/><path stroke="#000000" stroke-width="1.0" stroke-linejoin="round" stroke-linecap="butt" d="m70.66862 39.945534c0.39374542 0.97372055 2.2150497 3.7236671 2.362465 5.842312c0.14742279 2.1186447 -0.34804535 4.9941025 -1.477951 6.8695526c-1.1298981 1.8754463 -4.298004 3.4638824 -5.3014603 4.3831406c-1.0034485 0.9192581 -0.61878204 0.9436722 -0.71925354 1.1324043c-0.1004715 0.18873596 -0.34679413 -0.46886063 0.11643219 0c0.46322632 0.46886444 2.1211472 1.3214531 2.662941 2.8131752c0.5417862 1.4917183 0.6857605 4.262638 0.5877991 6.13715c-0.097969055 1.8745117 -0.2917099 3.673584 -1.1755981 5.109909c-0.8838959 1.4363174 -2.5796814 2.655426 -4.127743 3.5080185c-1.5480614 0.85258484 -3.6128693 1.3643265 -5.160614 1.607521c-1.5477486 0.24319458 -3.3026924 -0.12581635 -4.125862 -0.14835358c-0.8231697 -0.022537231 -0.7596321 0.012832642 -0.8131561 0.013145447c-0.053520203 3.1280518E-4 0.43036652 -0.13114166 0.49202347 -0.011268616c0.061660767 0.11987305 -0.2976532 -0.024414062 -0.1220665 0.73052216c0.17559052 0.7549362 1.1017342 2.411293 1.1755981 3.7991028c0.0738678 1.3878021 0.02879715 3.2616882 -0.732399 4.5277405c-0.76119614 1.2660522 -2.4341393 2.0945435 -3.8347816 3.068573c-1.4006386 0.9740372 -3.0704498 2.2400894 -4.5690575 2.7756195c-1.4986076 0.53552246 -3.0954933 0.7048569 -4.4225807 0.43756104c-1.3270836 -0.26729584 -2.4835892 -1.2626114 -3.5399399 -2.041336c-1.0563469 -0.7787247 -2.379364 -2.225998 -2.798149 -2.631012c-0.4187851 -0.40501404 0.14084625 0.08544922 0.28544998 0.200943c0.14459991 0.115493774 0.5374069 0.44726562 0.58216476 0.49201965c0.044757843 0.044761658 -0.31643677 -0.2541504 -0.3136177 -0.2234726c0.0028152466 0.030670166 0.88952255 -0.14679718 0.33052063 0.40751648c-0.55900574 0.55430603 -2.4807777 2.0904694 -3.6845436 2.918335c-1.2037697 0.8278656 -2.3092575 1.6103439 -3.538065 2.048851c-1.2288074 0.43849945 -2.336172 0.46103668 -3.8347797 0.58216095c-1.4986057 0.1211319 -3.6826649 0.5098648 -5.1568584 0.14459991c-1.4741917 -0.36525726 -3.0735817 -1.9468079 -3.6882992 -2.3361664" fill-rule="evenodd"/><path fill="#ffffff" d="m45.97239 64.281494l25.509186 -26.000004l-14.716537 -9.650919l-27.401573 -0.7480316l-23.580051 23.165354l-0.997375 29.8084l8.934383 11.133858l1.8608923 1.4041977z" fill-rule="evenodd"/><path fill="#000000" fill-opacity="0.0" d="m-45.002625 -1.7028005l233.6063 0l0 40.40945l-233.6063 0z" fill-rule="evenodd"/><path fill="#000000" d="m18.77008 24.109074q-1.8125 0 -3.109375 -0.765625q-1.28125 -0.78125 -1.96875 -2.171875q-0.671875 -1.390625 -0.671875 -3.234375l0 -0.3125q0 -1.796875 0.671875 -3.1875q0.671875 -1.390625 1.9375 -2.1875q1.265625 -0.8125 3.015625 -0.8125q1.21875 0 2.265625 0.375q1.0625 0.359375 1.828125 1.015625l0 2.84375l-1.625 0l-0.21875 -1.90625q-0.28125 -0.203125 -0.625 -0.34375q-0.328125 -0.140625 -0.734375 -0.21875q-0.390625 -0.078125 -0.875 -0.078125q-1.109375 0 -1.90625 0.5625q-0.78125 0.546875 -1.203125 1.5625q-0.40625 1.0 -0.40625 2.359375l0 0.328125q0 1.40625 0.4375 2.421875q0.4375 1.0 1.265625 1.546875q0.828125 0.546875 1.984375 0.546875q0.546875 0 1.09375 -0.125q0.546875 -0.140625 0.96875 -0.359375l0.21875 -1.71875l1.609375 0l0 2.828125q-0.703125 0.46875 -1.734375 0.75q-1.03125 0.28125 -2.21875 0.28125zm9.613861 0q-1.328125 0 -2.28125 -0.578125q-0.9375 -0.59375 -1.453125 -1.640625q-0.5 -1.0625 -0.5 -2.4375l0 -0.171875q0 -1.375 0.5 -2.421875q0.515625 -1.046875 1.453125 -1.640625q0.953125 -0.609375 2.265625 -0.609375q1.3125 0 2.25 0.609375q0.953125 0.59375 1.453125 1.640625q0.515625 1.046875 0.515625 2.421875l0 0.171875q0 1.375 -0.515625 2.4375q-0.5 1.046875 -1.4375 1.640625q-0.9375 0.578125 -2.25 0.578125zm0 -1.640625q0.703125 0 1.15625 -0.375q0.46875 -0.390625 0.6875 -1.0625q0.234375 -0.6875 0.234375 -1.578125l0 -0.171875q0 -0.890625 -0.234375 -1.5625q-0.21875 -0.671875 -0.6875 -1.0625q-0.453125 -0.390625 -1.171875 -0.390625q-0.703125 0 -1.171875 0.390625q-0.46875 0.390625 -0.703125 1.0625q-0.21875 0.671875 -0.21875 1.5625l0 0.171875q0 0.890625 0.21875 1.578125q0.234375 0.671875 0.703125 1.0625q0.46875 0.375 1.1875 0.375zm6.0062103 -2.953125l0 -1.640625l4.5 0l0 1.640625l-4.5 0zm11.593658 4.59375q-1.234375 0 -2.234375 -0.453125q-0.984375 -0.46875 -1.6875 -1.296875q-0.703125 -0.84375 -1.09375 -1.984375q-0.375 -1.140625 -0.375 -2.5l0 -0.1875q0 -1.359375 0.375 -2.5q0.390625 -1.140625 1.09375 -1.984375q0.703125 -0.84375 1.6875 -1.296875q1.0 -0.46875 2.21875 -0.46875q1.265625 0 2.265625 0.46875q1.0 0.453125 1.703125 1.296875q0.703125 0.84375 1.0625 1.984375q0.375 1.140625 0.375 2.5l0 0.1875q0 1.359375 -0.375 2.5q-0.359375 1.140625 -1.0625 1.984375q-0.703125 0.828125 -1.703125 1.296875q-1.0 0.453125 -2.25 0.453125zm0 -1.6875q1.109375 0 1.828125 -0.5625q0.734375 -0.578125 1.078125 -1.59375q0.359375 -1.03125 0.359375 -2.390625l0 -0.203125q0 -1.34375 -0.359375 -2.359375q-0.359375 -1.015625 -1.078125 -1.59375q-0.71875 -0.578125 -1.84375 -0.578125q-1.0625 0 -1.78125 0.578125q-0.71875 0.578125 -1.09375 1.59375q-0.359375 1.015625 -0.359375 2.359375l0 0.203125q0 1.34375 0.359375 2.375q0.375 1.03125 1.09375 1.609375q0.71875 0.5625 1.796875 0.5625zm9.614914 1.515625l-2.25 -7.671875l-1.078125 -0.171875l0 -1.3125l4.15625 0l0 1.3125l-1.03125 0.1875l1.03125 3.96875l0.203125 0.875l0.046875 0l0.296875 -0.875l1.921875 -5.46875l1.546875 0l1.859375 5.515625l0.3125 0.96875l0.046875 0l0.296875 -0.96875l1.109375 -4.015625l-1.09375 -0.1875l0 -1.3125l4.0625 0l0 1.3125l-1.046875 0.171875l-2.34375 7.671875l-1.875 0l-1.75 -4.9375l-0.359375 -1.203125l-0.046875 0l-0.359375 1.203125l-1.78125 4.9375l-1.875 0zm12.259689 0l0 -1.296875l1.265625 -0.265625l0 -6.03125l-1.328125 -0.25l0 -1.3125l3.296875 0l0.109375 1.328125q0.453125 -0.703125 1.125 -1.09375q0.6875 -0.40625 1.5625 -0.40625q1.40625 0 2.1875 0.875q0.796875 0.859375 0.796875 2.703125l0 4.1875l1.265625 0.265625l0 1.296875l-4.59375 0l0 -1.296875l1.1875 -0.265625l0 -4.171875q0 -1.03125 -0.421875 -1.46875q-0.40625 -0.4375 -1.21875 -0.4375q-0.625 0 -1.09375 0.28125q-0.453125 0.265625 -0.734375 0.765625l0 5.03125l1.15625 0.265625l0 1.296875l-4.5625 0zm15.427628 0.171875q-1.28125 0 -2.25 -0.578125q-0.953125 -0.578125 -1.484375 -1.59375q-0.53125 -1.03125 -0.53125 -2.34375l0 -0.359375q0 -1.34375 0.515625 -2.375q0.53125 -1.046875 1.4375 -1.640625q0.90625 -0.609375 2.078125 -0.609375q1.25 0 2.09375 0.5q0.84375 0.5 1.265625 1.421875q0.4375 0.921875 0.4375 2.203125l0 1.21875l-5.625 0l-0.015625 0.046875q0.03125 0.71875 0.296875 1.28125q0.265625 0.546875 0.765625 0.875q0.5 0.3125 1.203125 0.3125q0.75 0 1.359375 -0.203125q0.609375 -0.203125 1.125 -0.5625l0.671875 1.328125q-0.546875 0.453125 -1.390625 0.765625q-0.828125 0.3125 -1.953125 0.3125zm-2.03125 -5.65625l3.546875 0l0 -0.21875q0 -0.59375 -0.1875 -1.046875q-0.171875 -0.453125 -0.5625 -0.703125q-0.375 -0.265625 -0.96875 -0.265625q-0.515625 0 -0.90625 0.296875q-0.390625 0.28125 -0.625 0.78125q-0.234375 0.484375 -0.3125 1.109375l0.015625 0.046875zm6.8970184 5.484375l0 -1.296875l1.265625 -0.265625l0 -6.03125l-1.34375 -0.25l0 -1.3125l3.3125 0l0.109375 1.15625l0.015625 0.1875q0.359375 -0.734375 0.890625 -1.125q0.53125 -0.390625 1.234375 -0.390625q0.234375 0 0.5 0.046875q0.265625 0.046875 0.4375 0.09375l-0.234375 1.96875l-1.203125 -0.0625q-0.578125 -0.03125 -0.953125 0.234375q-0.375 0.25 -0.640625 0.71875l0 4.765625l1.28125 0.265625l0 1.296875l-4.671875 0zm11.120834 0.171875q-0.984375 0 -1.84375 -0.1875q-0.84375 -0.1875 -1.6875 -0.5625l-0.03125 -2.421875l1.53125 0l0.328125 1.328125q0.359375 0.15625 0.734375 0.25q0.390625 0.078125 0.875 0.078125q0.90625 0 1.28125 -0.3125q0.375 -0.328125 0.375 -0.796875q0 -0.453125 -0.390625 -0.78125q-0.390625 -0.328125 -1.5 -0.5625q-1.640625 -0.359375 -2.421875 -1.03125q-0.765625 -0.6875 -0.765625 -1.78125q0 -0.75 0.390625 -1.359375q0.40625 -0.609375 1.1875 -0.96875q0.78125 -0.375 1.9375 -0.375q1.03125 0 1.84375 0.21875q0.8125 0.203125 1.375 0.5625l0.046875 2.328125l-1.515625 0l-0.265625 -1.203125q-0.25 -0.1875 -0.609375 -0.28125q-0.34375 -0.109375 -0.78125 -0.109375q-0.703125 0 -1.109375 0.3125q-0.40625 0.296875 -0.40625 0.765625q0 0.265625 0.125 0.5q0.125 0.21875 0.5 0.40625q0.390625 0.171875 1.109375 0.34375q1.78125 0.40625 2.546875 1.078125q0.78125 0.671875 0.78125 1.765625q0 1.234375 -0.90625 2.015625q-0.890625 0.78125 -2.734375 0.78125zm4.706375 -0.171875l0 -1.296875l1.265625 -0.265625l0 -10.078125l-1.34375 -0.25l0 -1.3125l3.46875 0l0 5.234375q0.453125 -0.640625 1.109375 -1.0q0.65625 -0.359375 1.484375 -0.359375q1.421875 0 2.21875 0.90625q0.8125 0.90625 0.8125 2.78125l0 4.078125l1.265625 0.265625l0 1.296875l-4.59375 0l0 -1.296875l1.203125 -0.265625l0 -4.09375q0 -1.046875 -0.421875 -1.515625q-0.421875 -0.46875 -1.234375 -0.46875q-0.59375 0 -1.0625 0.265625q-0.46875 0.25 -0.78125 0.71875l0 5.09375l1.203125 0.265625l0 1.296875l-4.59375 0zm11.160736 0l0 -1.296875l1.28125 -0.265625l0 -6.03125l-1.34375 -0.25l0 -1.3125l3.46875 0l0 7.59375l1.265625 0.265625l0 1.296875l-4.671875 0zm1.203125 -11.234375l0 -1.96875l2.21875 0l0 1.96875l-2.21875 0zm4.2932587 14.75l0 -1.3125l1.234375 -0.25l0 -9.546875l-1.34375 -0.25l0 -1.3125l3.25 0l0.140625 1.078125q0.421875 -0.59375 1.03125 -0.921875q0.609375 -0.328125 1.4375 -0.328125q1.109375 0 1.90625 0.609375q0.796875 0.609375 1.21875 1.703125q0.421875 1.09375 0.421875 2.5625l0 0.171875q0 1.34375 -0.421875 2.34375q-0.421875 1.0 -1.21875 1.5625q-0.796875 0.546875 -1.90625 0.546875q-0.796875 0 -1.390625 -0.265625q-0.578125 -0.28125 -1.0 -0.8125l0 2.859375l1.296875 0.25l0 1.3125l-4.65625 0zm5.109375 -4.984375q1.046875 0 1.546875 -0.765625q0.5 -0.78125 0.5 -2.046875l0 -0.171875q0 -0.953125 -0.21875 -1.671875q-0.21875 -0.71875 -0.6875 -1.109375q-0.453125 -0.40625 -1.15625 -0.40625q-0.59375 0 -1.03125 0.265625q-0.4375 0.265625 -0.703125 0.75l0 4.203125q0.265625 0.453125 0.6875 0.703125q0.4375 0.25 1.0625 0.25z" fill-rule="nonzero"/><path fill="#000000" fill-opacity="0.0" d="m-6.5947227 65.05833l77.33667 5.0136642l-1.8424072 27.716675l-77.33666 -5.0136642z" fill-rule="evenodd"/><path fill="#999999" d="m29.296923 82.952286l0.6933136 -0.06465912q0.035425186 0.40940094 0.28494835 0.66044617q0.25055885 0.23545074 0.73391914 0.26678467q0.4833603 0.031341553 0.729681 -0.14058685q0.24735641 -0.18751526 0.2649727 -0.4525528q0.016582489 -0.24945068 -0.17782593 -0.38732147q-0.1341114 -0.102638245 -0.7006626 -0.2959442q-0.7671776 -0.23763275 -1.054102 -0.39714813q-0.28692627 -0.15952301 -0.42626762 -0.41908264q-0.13830566 -0.27514648 -0.1186142 -0.571373q0.01865387 -0.28063202 0.15893745 -0.50640106q0.15587616 -0.22476196 0.38453102 -0.3665161q0.16421318 -0.114616394 0.45005608 -0.17437744q0.2868786 -0.0753479 0.61431694 -0.054115295q0.4833603 0.031333923 0.8482475 0.1959076q0.36488914 0.16457367 0.51981926 0.425148q0.15597153 0.24497223 0.1913948 0.65437317l-0.692276 0.049064636q-0.025014877 -0.33042908 -0.23190689 -0.51608276q-0.20585632 -0.20123291 -0.6268463 -0.22853088q-0.4833603 -0.031333923 -0.6974602 0.12702179q-0.21306229 0.14276886 -0.22757149 0.36103058q-0.0082912445 0.12472534 0.062416077 0.23891449q0.0852623 0.13079071 0.26822472 0.20528412q0.090444565 0.052841187 0.59566116 0.2265091q0.73495674 0.25119781 1.0229187 0.39512634q0.28796387 0.14393616 0.4273033 0.4034958q0.15597153 0.24497223 0.13213348 0.6035614q-0.022800446 0.3429947 -0.24622726 0.6416626q-0.22342682 0.29867554 -0.6246319 0.4449005q-0.3856144 0.14723206 -0.88456726 0.11489105q-0.79520607 -0.05155945 -1.2100258 -0.4072647q-0.39819145 -0.37028503 -0.46380997 -1.0321655z" fill-rule="nonzero"/><path fill="#000000" fill-opacity="0.0" d="m-4.411208 78.724106l73.9144 -23.362598l8.353867 26.494099l-73.91439 23.362602z" fill-rule="evenodd"/><path fill="#999999" d="m34.918434 83.88065l-1.2498512 -3.9638748l0.59593964 -0.18836212l0.17855072 0.5662689q0.09970474 -0.35925293 0.34129333 -0.63225555q0.25648117 -0.27770996 0.658741 -0.40486145q0.43205643 -0.13655853 0.7762108 -0.032310486q0.33945847 0.08934784 0.56201553 0.3795166q0.24101639 -0.8463669 1.0008392 -1.086525q0.58104324 -0.18365479 0.9972801 0.045295715q0.4311409 0.22423553 0.64727783 0.9097214l0.8551636 2.71212l-0.67043304 0.21191406l-0.7846794 -2.4886017q-0.12686539 -0.40234375 -0.25774384 -0.5576248q-0.11597824 -0.15998077 -0.32765198 -0.20778656q-0.20146942 -0.06741333 -0.42494965 0.0032196045q-0.41715622 0.1318512 -0.6109543 0.5044632q-0.17889786 0.36789703 0.013748169 0.9788666l0.7235985 2.294876l-0.67043304 0.21190643l-0.81287384 -2.5780106q-0.1409607 -0.447052 -0.37532425 -0.6187744q-0.23436356 -0.17173004 -0.6068268 -0.054000854q-0.2830696 0.08946991 -0.489357 0.31854248q-0.19139099 0.22436523 -0.20170593 0.5553589q-0.015014648 0.31610107 0.15414047 0.85256195l0.6484184 2.05645l-0.67043304 0.21190643z" fill-rule="nonzero"/><path fill="#000000" fill-opacity="0.0" d="m1.1440418 81.60386l70.344986 -32.52743l11.638222 25.249264l-70.344986 32.527428z" fill-rule="evenodd"/><path fill="#999999" d="m44.041912 79.688225q-0.21719742 0.46193695 -0.48452377 0.7404785q-0.26732635 0.27854156 -0.65024567 0.45560455q-0.60983276 0.28199005 -1.0875626 0.14138794q-0.47008514 -0.16135406 -0.68592834 -0.62963104q-0.13081741 -0.28380585 -0.12200928 -0.5633087q0.022987366 -0.28606415 0.16267395 -0.5055847q0.14732361 -0.2402649 0.36990356 -0.42926025q0.15820312 -0.14201355 0.52150345 -0.36164093q0.7342377 -0.46001434 1.0299263 -0.75167084q-0.044685364 -0.13426971 -0.05776596 -0.16265106q-0.1831398 -0.3973236 -0.43945694 -0.46816254q-0.3392105 -0.101371765 -0.8214035 0.12159729q-0.45383072 0.20985413 -0.59461594 0.4643097q-0.14078522 0.25445557 -0.07110596 0.7042465l-0.6632614 0.20340729q-0.09804535 -0.43667603 -0.010688782 -0.76971436q0.08082199 -0.34723663 0.39068985 -0.6454468q0.30333328 -0.31240845 0.7855263 -0.5353775q0.4821968 -0.22296143 0.83234787 -0.24715424q0.3643341 -0.03075409 0.5911865 0.088142395q0.22031021 0.10469818 0.39477158 0.33389282q0.106853485 0.15716553 0.30307388 0.5828705l0.3924446 0.8514099q0.4055252 0.87978363 0.5592613 1.1013412q0.15373993 0.22156525 0.36530685 0.38195038l-0.66656494 0.3082199q-0.19084549 -0.15275574 -0.34348297 -0.40925598zm-0.71079636 -1.3927841q-0.2749672 0.29929352 -0.9241104 0.71995544q-0.37094116 0.24037933 -0.50842285 0.3900299q-0.12330246 0.14308167 -0.1429863 0.3243332q-0.026229858 0.16706085 0.052261353 0.3373413q0.11772919 0.25541687 0.38058853 0.34044647q0.27703857 0.07847595 0.64577866 -0.09202576q0.36873627 -0.17050934 0.5804329 -0.45775604q0.21933746 -0.30799866 0.21616364 -0.6508179q0.0011634827 -0.25875854 -0.19505692 -0.6844635l-0.10464859 -0.22704315z" fill-rule="nonzero"/><path fill="#000000" fill-opacity="0.0" d="m6.7871914 91.29767l58.247986 -51.1463l18.30793 20.89772l-58.247986 51.1463z" fill-rule="evenodd"/><path fill="#999999" d="m46.68264 78.58579l-3.778736 -4.313263l0.52835083 -0.46393585l3.778736 4.313263l-0.52835083 0.46393585z" fill-rule="nonzero"/><path fill="#000000" fill-opacity="0.0" d="m8.48978 89.63464l58.24799 -51.146305l18.30793 20.897724l-58.24799 51.1463z" fill-rule="evenodd"/><path fill="#999999" d="m48.38523 76.92277l-3.778736 -4.3132706l0.528347 -0.46392822l3.778736 4.313263l-0.528347 0.46393585z" fill-rule="nonzero"/><path fill="#000000" fill-opacity="0.0" d="m14.462904 87.44885l54.41401 -55.207172l19.764961 19.525215l-54.414005 55.20718z" fill-rule="evenodd"/><path fill="#999999" d="m52.86226 72.381645l-0.4496994 0.45625305l-4.079487 -4.029999l0.49357605 -0.50077057l1.4561653 1.4384995q-0.093055725 -0.70690155 0.38954926 -1.1965408q0.27420807 -0.27820587 0.626667 -0.41321564q0.35246277 -0.13500977 0.70610046 -0.09314728q0.3536415 0.041862488 0.71928406 0.22735596q0.36563873 0.1855011 0.6879959 0.5039444q0.7558708 0.7467041 0.80534744 1.5423355q0.038360596 0.7846527 -0.47714996 1.3076782q-0.51551056 0.5230255 -1.2451706 0.39523315l0.3668213 0.36237335zm-1.5006294 -1.4824295q0.5335579 0.52708435 0.9095764 0.61302185q0.6193886 0.15063477 1.0142479 -0.24997711q0.32904816 -0.33384705 0.2814865 -0.8420639q-0.047706604 -0.5303192 -0.61460876 -1.0903473q-0.5780182 -0.5710068 -1.0862503 -0.6118393q-0.49725723 -0.051963806 -0.8263092 0.28188324q-0.3180809 0.32271576 -0.2703743 0.8530426q0.058677673 0.51919556 0.59223175 1.0462799z" fill-rule="nonzero"/><path fill="#000000" fill-opacity="0.0" d="m21.917208 92.82623l39.451233 -66.70531l23.886276 14.22245l-39.451233 66.70531z" fill-rule="evenodd"/><path fill="#999999" d="m51.649582 65.84782l-0.69812393 -0.4156723l0.35793304 -0.6052017l0.6981201 0.4156723l-0.35792923 0.6052017zm4.229004 2.5180511l-3.5711594 -2.1263504l0.35793304 -0.6052017l3.5711594 2.1263504l-0.35793304 0.6052017z" fill-rule="nonzero"/><path fill="#000000" fill-opacity="0.0" d="m40.92156 92.76817l6.777981 -77.203255l27.702774 2.4919577l-6.777977 77.203255z" fill-rule="evenodd"/><path fill="#999999" d="m59.6479 57.303257l-0.04880905 -0.694664q0.41008377 -0.025867462 0.66674805 -0.26947403q0.24110031 -0.24501038 0.28346252 -0.7275276q0.042362213 -0.48252106 -0.12388611 -0.7327957q-0.18181229 -0.25167465 -0.44636917 -0.27547455q-0.24899292 -0.022396088 -0.39125824 0.16875076q-0.10567093 0.13168716 -0.31185532 0.6935997q-0.25506973 0.76145554 -0.4210968 1.0445938q-0.16602325 0.2831421 -0.42868423 0.41639328q-0.27822113 0.13185501 -0.57390213 0.10525513q-0.28012085 -0.025196075 -0.5026207 -0.17071533q-0.22113419 -0.16108322 -0.35762405 -0.39299393q-0.110832214 -0.16685104 -0.16404724 -0.45402145q-0.06877518 -0.28857422 -0.04007721 -0.61544037q0.042362213 -0.48252106 0.21521759 -0.843483q0.17285538 -0.36096573 0.43688202 -0.5097847q0.24846649 -0.15021896 0.65855026 -0.17608261l0.033245087 0.6932678q-0.3309059 0.017295837 -0.52122116 0.21981049q-0.20587921 0.20111465 -0.24277496 0.6213722q-0.042362213 0.48251724 0.11105728 0.700264q0.13785934 0.21634293 0.35572815 0.23594284q0.12449646 0.011199951 0.2402649 -0.056827545q0.13269806 -0.08219147 0.21134567 -0.26337433q0.054885864 -0.08919144 0.24003983 -0.5902405q0.26790237 -0.7289276 0.41836166 -1.0134659q0.1504631 -0.28453827 0.41312408 -0.41779327q0.24846649 -0.15021896 0.6063957 -0.118019104q0.34236908 0.030796051 0.635849 0.26113892q0.2934761 0.23034668 0.43050003 0.63487244q0.13838577 0.3889618 0.0946579 0.8870468q-0.06969452 0.7938194 -0.43476105 1.2002449q-0.37926483 0.38946152 -1.0424423 0.4396248z" fill-rule="nonzero"/><path fill="#000000" fill-opacity="0.0" d="m25.463673 92.20469l34.63648 -69.331726l24.867844 12.460808l-34.63648 69.331726z" fill-rule="evenodd"/><path fill="#999999" d="m57.656982 63.928543l0.59368896 0.17514801q-0.06283188 0.30057526 -0.16757584 0.5102463q-0.1745758 0.34944153 -0.38409042 0.48913574q-0.20253372 0.12570953 -0.4120636 0.12557983q-0.2165184 -0.021110535 -0.7892647 -0.30809784l-2.1373138 -1.0709724l-0.23043823 0.46126938l-0.48892975 -0.24499512l0.23043823 -0.46126556l-0.9080086 -0.45498657l-0.062942505 -0.817997l1.2851868 0.64398193l0.31423187 -0.6290016l0.48892975 0.24499512l-0.3142357 0.6290016l2.179226 1.0919685q0.265419 0.1329956 0.36320114 0.14704132q0.09079361 -0.0069351196 0.1676178 -0.05582428q0.07682419 -0.04888916 0.14665222 -0.1886673q0.05586624 -0.111824036 0.12569046 -0.28656006z" fill-rule="nonzero"/><path fill="#000000" fill-opacity="0.0" d="m34.207012 94.47473l18.38375 -75.27495l27.039074 6.648058l-18.38375 75.27495z" fill-rule="evenodd"/><path fill="#999999" d="m58.683174 59.410534l0.26156235 -0.6758461q0.5813217 0.3199234 0.8190918 0.8610954q0.22630692 0.52225876 0.052078247 1.2356682q-0.21500778 0.8803749 -0.8872795 1.2621536q-0.6722679 0.38178253 -1.6585236 0.13929367q-1.0165977 -0.24995041 -1.4519653 -0.9040642q-0.4316635 -0.66929245 -0.22777557 -1.5041313q0.19647217 -0.8044815 0.88391495 -1.1825333q0.6722717 -0.38177872 1.6736984 -0.13555908q0.060691833 0.014919281 0.17836761 0.059944153l-0.7339859 3.0054207q0.6635666 0.11487961 1.1092758 -0.12952423q0.43053436 -0.2481308 0.55657196 -0.76421356q0.088970184 -0.36429214 -0.045261383 -0.6708298q-0.13052368 -0.32172012 -0.5297699 -0.59687424zm-1.6411018 1.9778748l0.5486374 -2.246479q-0.52700806 -0.08130264 -0.8368492 0.067783356q-0.47234726 0.2217598 -0.60209274 0.75302124q-0.114917755 0.47054672 0.12586975 0.86764526q0.24079132 0.39709854 0.7644348 0.5580292z" fill-rule="nonzero"/><path fill="#000000" fill-opacity="0.0" d="m52.76781 88.47864l77.33667 5.013672l-1.8424072 27.716675l-77.33667 -5.013672z" fill-rule="evenodd"/><path fill="#999999" d="m88.659454 106.372604l0.6933136 -0.06465912q0.03542328 0.40940094 0.28495026 0.66043854q0.25055695 0.23545837 0.73391724 0.2667923q0.4833603 0.031333923 0.7296829 -0.14058685q0.2473526 -0.18751526 0.2649765 -0.45256042q0.016578674 -0.24945068 -0.17783356 -0.38731384q-0.1341095 -0.102638245 -0.7006607 -0.2959442q-0.76717377 -0.23763275 -1.0541 -0.39715576q-0.28692627 -0.15952301 -0.42626953 -0.419075q-0.13830566 -0.2751541 -0.1186142 -0.571373q0.01865387 -0.28063202 0.15893555 -0.50640106q0.15587616 -0.22476196 0.38453674 -0.3665161q0.16420746 -0.114616394 0.45005035 -0.17437744q0.2868805 -0.0753479 0.61431885 -0.054122925q0.4833603 0.031333923 0.84825134 0.19591522q0.36488342 0.16457367 0.51982117 0.42514038q0.15596771 0.24497986 0.19139099 0.6543808l-0.692276 0.049064636q-0.025016785 -0.3304367 -0.2319107 -0.51608276q-0.20585632 -0.20124054 -0.6268463 -0.22853088q-0.4833603 -0.031333923 -0.69745636 0.12702179q-0.2130661 0.14276123 -0.22756958 0.36103058q-0.008293152 0.12472534 0.062416077 0.23891449q0.085258484 0.13079071 0.268219 0.20528412q0.09044647 0.052833557 0.595665 0.2265091q0.73495483 0.25119781 1.0229187 0.39512634q0.28796387 0.14393616 0.4272995 0.40348816q0.15597534 0.24497986 0.13213348 0.6035614q-0.02279663 0.3429947 -0.24622345 0.6416702q-0.22342682 0.2986679 -0.6246338 0.44489288q-0.3856125 0.14723969 -0.88456726 0.11489105q-0.79520416 -0.05155182 -1.210022 -0.40725708q-0.39819336 -0.37028503 -0.46381378 -1.0321655z" fill-rule="nonzero"/><path fill="#000000" fill-opacity="0.0" d="m54.951324 102.144424l73.9144 -23.362602l8.353867 26.494102l-73.9144 23.362595z" fill-rule="evenodd"/><path fill="#999999" d="m94.28097 107.30097l-1.249855 -3.9638748l0.59593964 -0.18836212l0.17855072 0.5662689q0.09970856 -0.35926056 0.34129333 -0.6322632q0.256485 -0.27770996 0.6587448 -0.40485382q0.43206024 -0.13655853 0.7762146 -0.032310486q0.33945465 0.08934784 0.5620117 0.3795166q0.24101257 -0.8463669 1.0008392 -1.086525q0.5810394 -0.18365479 0.99728394 0.045288086q0.43113708 0.22424316 0.64727783 0.909729l0.85515594 2.71212l-0.67043304 0.21190643l-0.7846756 -2.488594q-0.1268692 -0.40235138 -0.25774384 -0.5576248q-0.115982056 -0.1599884 -0.32765198 -0.20778656q-0.20146942 -0.06742096 -0.42494965 0.0032196045q-0.41716003 0.1318512 -0.6109543 0.50445557q-0.17890167 0.36789703 0.013748169 0.9788742l0.72359467 2.294876l-0.67043304 0.21190643l-0.8128662 -2.5780106q-0.1409607 -0.447052 -0.37532806 -0.61878204q-0.23436737 -0.17172241 -0.6068268 -0.054000854q-0.28307343 0.08947754 -0.489357 0.3185501q-0.19139099 0.2243576 -0.20170593 0.5553589q-0.015014648 0.31610107 0.15413666 0.85256195l0.64842224 2.0564423l-0.67043304 0.21191406z" fill-rule="nonzero"/><path fill="#000000" fill-opacity="0.0" d="m60.506573 105.02418l70.344986 -32.527435l11.638229 25.24926l-70.34499 32.527435z" fill-rule="evenodd"/><path fill="#999999" d="m103.40445 103.10854q-0.21720123 0.46193695 -0.4845276 0.7404785q-0.26732635 0.27854156 -0.65024567 0.45560455q-0.60983276 0.28199005 -1.0875626 0.14138031q-0.47008514 -0.16135406 -0.68592834 -0.6296234q-0.1308136 -0.28380585 -0.12200928 -0.5633087q0.022987366 -0.28606415 0.16267395 -0.5055847q0.14732361 -0.24027252 0.36990356 -0.42926025q0.15820312 -0.14201355 0.52149963 -0.36164856q0.7342377 -0.4600067 1.0299301 -0.7516632q-0.044685364 -0.13426971 -0.057769775 -0.16265106q-0.18313599 -0.3973236 -0.43945312 -0.46816254q-0.3392105 -0.101371765 -0.8214035 0.12159729q-0.45383453 0.2098465 -0.59461975 0.4643097q-0.14078522 0.25445557 -0.07110596 0.7042465l-0.6632614 0.20339966q-0.09804535 -0.4366684 -0.010681152 -0.76971436q0.080818176 -0.347229 0.39068604 -0.6454468q0.30332947 -0.31240082 0.7855301 -0.5353699q0.482193 -0.22296906 0.83234406 -0.24716187q0.3643341 -0.03074646 0.5911865 0.088142395q0.22031403 0.10470581 0.3947754 0.33389282q0.10684967 0.15717316 0.30307007 0.5828705l0.3924408 0.8514099q0.4055252 0.87979126 0.55926514 1.1013489q0.15373993 0.22155762 0.36530304 0.38195038l-0.6665573 0.3082199q-0.1908493 -0.15276337 -0.34348297 -0.40925598zm-0.7108002 -1.3927841q-0.274971 0.29929352 -0.9241104 0.71995544q-0.37094116 0.24037933 -0.50842285 0.39002228q-0.123306274 0.1430893 -0.14299011 0.32434082q-0.026229858 0.16705322 0.052261353 0.33733368q0.11773682 0.2554245 0.38059235 0.3404541q0.27703857 0.07847595 0.64577484 -0.092033386q0.36873627 -0.17050171 0.5804367 -0.4577484q0.21933746 -0.30799866 0.21616364 -0.6508179q0.0011672974 -0.25875854 -0.19506073 -0.6844635l-0.104644775 -0.22704315z" fill-rule="nonzero"/><path fill="#000000" fill-opacity="0.0" d="m66.14973 114.71799l58.247986 -51.146305l18.30793 20.897724l-58.247986 51.1463z" fill-rule="evenodd"/><path fill="#999999" d="m106.04517 102.00611l-3.7787323 -4.3132706l0.5283432 -0.46392822l3.77874 4.313263l-0.52835083 0.46393585z" fill-rule="nonzero"/><path fill="#000000" fill-opacity="0.0" d="m67.85231 113.054955l58.247993 -51.1463l18.30793 20.897728l-58.247993 51.1463z" fill-rule="evenodd"/><path fill="#999999" d="m107.747765 100.34308l-3.77874 -4.313263l0.52835083 -0.46392822l3.7787323 4.313263l-0.5283432 0.46392822z" fill-rule="nonzero"/><path fill="#000000" fill-opacity="0.0" d="m73.82544 110.86917l54.414 -55.207176l19.764969 19.525215l-54.41401 55.207184z" fill-rule="evenodd"/><path fill="#999999" d="m112.22479 95.801956l-0.4496994 0.45626068l-4.0794907 -4.0300064l0.49357605 -0.50076294l1.4561691 1.4384995q-0.093055725 -0.70690155 0.38954926 -1.1965408q0.27420807 -0.27820587 0.62667084 -0.41321564q0.35245514 -0.1350174 0.70610046 -0.09315491q0.3536377 0.041862488 0.7192764 0.22736359q0.36563873 0.18549347 0.6879959 0.5039444q0.75587463 0.7467041 0.80535126 1.5423355q0.038360596 0.7846527 -0.47714996 1.3076782q-0.51551056 0.5230255 -1.2451706 0.39523315l0.3668213 0.36236572zm-1.5006256 -1.4824219q0.5335541 0.52708435 0.9095688 0.6130142q0.6193924 0.1506424 1.0142517 -0.24996948q0.32904816 -0.33384705 0.2814865 -0.8420639q-0.047706604 -0.53032684 -0.61460876 -1.0903549q-0.5780182 -0.5710068 -1.0862503 -0.6118393q-0.49726105 -0.051956177 -0.8263092 0.28189087q-0.31808472 0.32271576 -0.27037048 0.8530426q0.058670044 0.51919556 0.59223175 1.0462799z" fill-rule="nonzero"/><path fill="#000000" fill-opacity="0.0" d="m81.27974 116.24655l39.451233 -66.70531l23.886276 14.222454l-39.451233 66.705315z" fill-rule="evenodd"/><path fill="#999999" d="m111.012115 89.268135l-0.69812775 -0.41567993l0.35793304 -0.6052017l0.6981201 0.41567993l-0.35792542 0.6052017zm4.229004 2.5180511l-3.5711594 -2.1263504l0.35793304 -0.60520935l3.5711594 2.126358l-0.35793304 0.6052017z" fill-rule="nonzero"/><path fill="#000000" fill-opacity="0.0" d="m100.284096 116.18849l6.777977 -77.203255l27.702774 2.4919548l-6.777977 77.20326z" fill-rule="evenodd"/><path fill="#999999" d="m119.01043 80.72357l-0.048805237 -0.694664q0.41007996 -0.025863647 0.66674805 -0.2694702q0.2410965 -0.24501038 0.28346252 -0.72753143q0.0423584 -0.48252106 -0.12388611 -0.7327957q-0.1818161 -0.25167084 -0.446373 -0.27547455q-0.24899292 -0.022392273 -0.39125824 0.16875458q-0.105667114 0.13168335 -0.3118515 0.6935959q-0.25507355 0.76145935 -0.4210968 1.0445938q-0.16602325 0.2831421 -0.42868042 0.4163971q-0.27822876 0.1318512 -0.57390594 0.10525513q-0.28012085 -0.02519989 -0.5026245 -0.17071533q-0.22113037 -0.16108704 -0.35762024 -0.39299774q-0.110832214 -0.16684723 -0.16404724 -0.45401764q-0.06877899 -0.28857422 -0.04007721 -0.61544037q0.0423584 -0.48252106 0.21521759 -0.843483q0.17285156 -0.36096954 0.43688202 -0.5097885q0.24846649 -0.15021515 0.65854645 -0.1760788l0.0332489 0.6932678q-0.33090973 0.017295837 -0.521225 0.21981049q-0.20587921 0.20111084 -0.24277496 0.6213684q-0.0423584 0.48252106 0.111061096 0.700264q0.13785553 0.21634674 0.35572815 0.23594666q0.12449646 0.011199951 0.2402649 -0.05683136q0.13269806 -0.08219147 0.21134186 -0.26337433q0.054885864 -0.08918762 0.24004364 -0.5902405q0.26789856 -0.7289276 0.41836548 -1.0134659q0.15045929 -0.28453827 0.41311646 -0.41779327q0.24846649 -0.15021515 0.60639954 -0.118019104q0.34236908 0.030799866 0.635849 0.26113892q0.2934723 0.23034668 0.43049622 0.63487244q0.13838959 0.3889618 0.0946579 0.8870468q-0.06969452 0.79382324 -0.43476105 1.2002487q-0.37926483 0.3894577 -1.0424423 0.43962097z" fill-rule="nonzero"/><path fill="#000000" fill-opacity="0.0" d="m84.8262 115.62501l34.636482 -69.331726l24.867836 12.460812l-34.636475 69.331726z" fill-rule="evenodd"/><path fill="#999999" d="m117.019516 87.34886l0.59368896 0.17514801q-0.06283569 0.30057526 -0.16757965 0.5102463q-0.17456818 0.34944153 -0.3840866 0.4891281q-0.20253754 0.12571716 -0.4120636 0.12558746q-0.21652222 -0.021110535 -0.78926086 -0.30810547l-2.1373215 -1.0709686l-0.23043823 0.4612732l-0.48892975 -0.24499512l0.23043823 -0.46126556l-0.90800476 -0.45498657l-0.062942505 -0.8180008l1.2851868 0.64398193l0.31423187 -0.6289978l0.48892975 0.24499512l-0.3142395 0.6289978l2.1792297 1.0919724q0.265419 0.1329956 0.36319733 0.14703369q0.090797424 -0.0069351196 0.1676178 -0.05582428q0.076828 -0.04888916 0.14665222 -0.1886673q0.055870056 -0.111816406 0.12569427 -0.28655243z" fill-rule="nonzero"/><path fill="#000000" fill-opacity="0.0" d="m93.56955 117.89505l18.383743 -75.27495l27.039078 6.64806l-18.38375 75.27495z" fill-rule="evenodd"/><path fill="#999999" d="m118.04571 82.83085l0.26155853 -0.6758423q0.5813217 0.3199234 0.8190994 0.8610916q0.2263031 0.5222626 0.052070618 1.235672q-0.21500397 0.8803711 -0.8872757 1.2621536q-0.6722717 0.38178253 -1.6585236 0.13928986q-1.0166016 -0.2499466 -1.4519653 -0.90406036q-0.4316635 -0.66929626 -0.22777557 -1.5041351q0.19647217 -0.8044815 0.88391113 -1.1825333q0.6722717 -0.3817749 1.6736984 -0.13555908q0.060691833 0.014923096 0.17837524 0.059944153l-0.73399353 3.0054245q0.6635666 0.11487579 1.1092758 -0.12952423q0.43053436 -0.2481308 0.5565796 -0.76421356q0.08896637 -0.36429596 -0.045265198 -0.6708298q-0.13052368 -0.32172394 -0.5297699 -0.59687805zm-1.6411057 1.9778748l0.5486374 -2.2464752q-0.52700806 -0.08130646 -0.8368454 0.06777954q-0.47235107 0.22176361 -0.60209656 0.75302124q-0.11491394 0.47055054 0.12586975 0.86764526q0.24079132 0.39710236 0.7644348 0.5580292z" fill-rule="nonzero"/><path fill="#000000" fill-opacity="0.0" d="m-10.652507 127.89896l77.33666 5.013672l-1.8424072 27.716675l-77.33666 -5.013672z" fill-rule="evenodd"/><path fill="#999999" d="m25.239138 145.79292l0.6933155 -0.06466675q0.03542328 0.40940857 0.28494644 0.66044617q0.25055885 0.23545837 0.73391914 0.26678467q0.4833622 0.031341553 0.729681 -0.14057922q0.24735641 -0.18751526 0.2649746 -0.45256042q0.016582489 -0.24945068 -0.17782593 -0.38731384q-0.13411331 -0.102645874 -0.7006626 -0.2959442q-0.7671776 -0.23764038 -1.0541039 -0.39715576q-0.28692627 -0.15951538 -0.42626762 -0.41908264q-0.13830376 -0.27514648 -0.1186142 -0.57136536q0.018655777 -0.28063965 0.15893936 -0.5064087q0.15587425 -0.22476196 0.38453102 -0.3665161q0.16421318 -0.114608765 0.45005608 -0.17437744q0.2868786 -0.0753479 0.61431503 -0.054122925q0.4833603 0.031341553 0.8482475 0.19592285q0.36488914 0.16456604 0.51982117 0.42514038q0.15596962 0.24497986 0.1913948 0.65437317l-0.6922779 0.049072266q-0.025014877 -0.33042908 -0.23190689 -0.51608276q-0.20585442 -0.20124817 -0.6268463 -0.22853088q-0.4833603 -0.031341553 -0.6974602 0.12701416q-0.21306229 0.14277649 -0.22757149 0.3610382q-0.0082912445 0.12472534 0.062416077 0.23890686q0.0852623 0.13079834 0.26822472 0.20529175q0.090444565 0.052825928 0.5956631 0.22650146q0.73495483 0.25120544 1.0229187 0.39512634q0.28796196 0.14393616 0.4273033 0.40350342q0.15596962 0.2449646 0.13213348 0.6035614q-0.022800446 0.34298706 -0.24622726 0.6416626q-0.22342682 0.29866028 -0.6246338 0.4449005q-0.3856125 0.14723206 -0.88456535 0.11488342q-0.79520607 -0.05155945 -1.2100258 -0.40725708q-0.39819145 -0.37028503 -0.46381187 -1.0321655z" fill-rule="nonzero"/><path fill="#000000" fill-opacity="0.0" d="m-8.468992 141.56474l73.9144 -23.362602l8.353874 26.494102l-73.9144 23.362595z" fill-rule="evenodd"/><path fill="#999999" d="m30.86065 146.72128l-1.2498512 -3.9638672l0.59594154 -0.18836975l0.17854881 0.5662689q0.09970665 -0.35925293 0.34129333 -0.6322479q0.25648308 -0.27772522 0.6587429 -0.40486145q0.43205643 -0.13656616 0.7762127 -0.032318115q0.33945465 0.08935547 0.56201553 0.3795166q0.24101257 -0.84635925 1.0008354 -1.0865173q0.58104324 -0.18365479 0.99728394 0.045288086q0.43113708 0.22424316 0.64727783 0.909729l0.85515976 2.7121124l-0.67043304 0.21191406l-0.7846794 -2.4886017q-0.12686539 -0.40234375 -0.25774384 -0.5576172q-0.11597824 -0.1599884 -0.32764816 -0.20779419q-0.20147324 -0.06741333 -0.42495346 0.0032196045q-0.41715622 0.1318512 -0.6109543 0.5044708q-0.17889786 0.3678894 0.013748169 0.9788666l0.7235985 2.294876l-0.6704292 0.2118988l-0.81287384 -2.578003q-0.1409607 -0.447052 -0.37532425 -0.6187744q-0.23436546 -0.17173767 -0.6068287 -0.054000854q-0.28307152 0.08946228 -0.4893589 0.31854248q-0.19138908 0.22436523 -0.20170403 0.5553589q-0.015014648 0.31610107 0.15413857 0.8525543l0.6484184 2.0564575l-0.67043304 0.2118988z" fill-rule="nonzero"/><path fill="#000000" fill-opacity="0.0" d="m-2.9137425 144.44449l70.344986 -32.527428l11.638229 25.24926l-70.34499 32.527435z" fill-rule="evenodd"/><path fill="#999999" d="m39.98413 142.52885q-0.21720123 0.46194458 -0.4845276 0.7404785q-0.26732254 0.2785492 -0.65024567 0.45561218q-0.60983276 0.28198242 -1.0875626 0.14137268q-0.47008514 -0.16134644 -0.68592834 -0.6296234q-0.1308136 -0.28379822 -0.12200928 -0.5633087q0.022987366 -0.28605652 0.16267395 -0.5055847q0.14732742 -0.2402649 0.36990356 -0.42926025q0.15820694 -0.14201355 0.52150345 -0.3616333q0.7342377 -0.46002197 1.0299263 -0.75167847q-0.044685364 -0.13426208 -0.05776596 -0.16264343q-0.1831398 -0.3973236 -0.43945694 -0.46817017q-0.3392067 -0.101364136 -0.8214035 0.12159729q-0.45383072 0.20985413 -0.59461594 0.4643097q-0.14078522 0.25445557 -0.07110596 0.70425415l-0.6632614 0.20339966q-0.09804535 -0.43667603 -0.010684967 -0.76971436q0.080818176 -0.347229 0.39068985 -0.6454468q0.30332947 -0.31240845 0.7855263 -0.5353699q0.482193 -0.22296143 0.83234787 -0.24716187q0.3643341 -0.03074646 0.5911827 0.088134766q0.22031403 0.10470581 0.3947754 0.33390808q0.10684967 0.15716553 0.30307388 0.5828705l0.3924408 0.85139465q0.4055252 0.87979126 0.5592613 1.1013489q0.15373993 0.22155762 0.36531067 0.381958l-0.66656494 0.30821228q-0.19084549 -0.15275574 -0.34348297 -0.40925598zm-0.7108002 -1.3927765q-0.2749672 0.2992859 -0.9241104 0.71995544q-0.37094116 0.2403717 -0.50842285 0.3900299q-0.12330246 0.14308167 -0.1429863 0.32432556q-0.026229858 0.16705322 0.052261353 0.3373413q0.117733 0.25541687 0.38058853 0.3404541q0.27703857 0.07847595 0.64577866 -0.09202576q0.36873627 -0.17051697 0.5804329 -0.45776367q0.21933746 -0.30799866 0.21616364 -0.6508179q0.0011672974 -0.25875854 -0.19505692 -0.6844635l-0.10464859 -0.22703552z" fill-rule="nonzero"/><path fill="#000000" fill-opacity="0.0" d="m2.729407 154.1383l58.247986 -51.14631l18.30793 20.897728l-58.247986 51.1463z" fill-rule="evenodd"/><path fill="#999999" d="m42.624855 141.42642l-3.7787323 -4.313263l0.528347 -0.46392822l3.778736 4.313263l-0.52835083 0.46392822z" fill-rule="nonzero"/><path fill="#000000" fill-opacity="0.0" d="m4.431996 152.47528l58.24799 -51.14631l18.30793 20.89772l-58.247986 51.14631z" fill-rule="evenodd"/><path fill="#999999" d="m44.327446 139.7634l-3.778736 -4.313263l0.52835083 -0.46392822l3.7787323 4.313263l-0.528347 0.46392822z" fill-rule="nonzero"/><path fill="#000000" fill-opacity="0.0" d="m10.405119 150.28949l54.41401 -55.207176l19.764961 19.525215l-54.414005 55.207184z" fill-rule="evenodd"/><path fill="#999999" d="m48.804474 135.22227l-0.4496994 0.45625305l-4.079487 -4.029999l0.49357605 -0.50076294l1.4561653 1.4384918q-0.093055725 -0.7068939 0.38954926 -1.1965332q0.27420807 -0.2782135 0.62667084 -0.41322327q0.35245895 -0.13500977 0.70610046 -0.09313965q0.3536377 0.04185486 0.71928024 0.22735596q0.36563873 0.1855011 0.6879959 0.50393677q0.7558708 0.7467041 0.80534744 1.5423431q0.038360596 0.7846527 -0.47714996 1.3076782q-0.51551056 0.5230255 -1.2451706 0.39523315l0.3668213 0.36236572zm-1.5006256 -1.4824219q0.5335541 0.52708435 0.9095726 0.61302185q0.6193886 0.15063477 1.0142479 -0.24998474q0.32904816 -0.33384705 0.28149033 -0.8420563q-0.047706604 -0.5303192 -0.6146126 -1.0903473q-0.5780182 -0.5710144 -1.0862465 -0.6118469q-0.49726105 -0.051956177 -0.8263092 0.28189087q-0.31808472 0.32270813 -0.2703743 0.8530426q0.05867386 0.51919556 0.59223175 1.0462799z" fill-rule="nonzero"/><path fill="#000000" fill-opacity="0.0" d="m17.859423 155.66687l39.451233 -66.705315l23.886276 14.222458l-39.451233 66.7053z" fill-rule="evenodd"/><path fill="#999999" d="m47.591797 128.68845l-0.69812393 -0.41566467l0.35793304 -0.60520935l0.6981201 0.41567993l-0.35792923 0.6051941zm4.229004 2.5180511l-3.5711594 -2.1263428l0.35793304 -0.60520935l3.5711594 2.126358l-0.35793304 0.6051941z" fill-rule="nonzero"/><path fill="#000000" fill-opacity="0.0" d="m36.863777 155.60881l6.777977 -77.203255l27.702774 2.491951l-6.777977 77.20326z" fill-rule="evenodd"/><path fill="#999999" d="m55.590115 120.14389l-0.04880905 -0.694664q0.41008377 -0.025863647 0.66674805 -0.26947784q0.24110031 -0.24500275 0.28346252 -0.7275238q0.042362213 -0.48252106 -0.12388611 -0.7327957q-0.18180847 -0.25167847 -0.44636917 -0.27547455q-0.24899292 -0.022399902 -0.39125443 0.16875458q-0.10567474 0.13168335 -0.31185532 0.6935959q-0.25507355 0.76145935 -0.4210968 1.0445938q-0.16602707 0.2831421 -0.42868423 0.4163971q-0.27822495 0.1318512 -0.57390594 0.10525513q-0.28012085 -0.02519989 -0.5026207 -0.17072296q-0.22113419 -0.1610794 -0.35762405 -0.3929901q-0.110832214 -0.16685486 -0.16404724 -0.45402527q-0.06877518 -0.2885666 -0.04007721 -0.61544037q0.042362213 -0.48251343 0.21521759 -0.843483q0.17285538 -0.3609619 0.43688202 -0.5097809q0.24846649 -0.15021515 0.65855026 -0.1760788l0.033245087 0.6932602q-0.3309059 0.017303467 -0.52122116 0.21981049q-0.20587921 0.20111847 -0.24277496 0.62137604q-0.042362213 0.48252106 0.11105728 0.700264q0.13785934 0.21634674 0.35572815 0.23593903q0.124500275 0.011199951 0.2402649 -0.05682373q0.13269806 -0.08219147 0.21134567 -0.26337433q0.054885864 -0.08918762 0.24003983 -0.5902405q0.26790237 -0.7289276 0.41836548 -1.0134659q0.15045929 -0.28453827 0.41312027 -0.41779327q0.24846649 -0.15021515 0.6063957 -0.118019104q0.34236908 0.030792236 0.635849 0.26113892q0.29347992 0.23034668 0.43050003 0.63487244q0.13838577 0.3889618 0.0946579 0.8870468q-0.069690704 0.79382324 -0.43476105 1.2002487q-0.37926483 0.3894577 -1.0424423 0.43962097z" fill-rule="nonzero"/><path fill="#000000" fill-opacity="0.0" d="m21.405888 155.04532l34.63648 -69.331726l24.867844 12.460815l-34.63648 69.331726z" fill-rule="evenodd"/><path fill="#999999" d="m53.599197 126.76918l0.59368896 0.17514801q-0.06283188 0.30057526 -0.16757584 0.51023865q-0.17457199 0.34944916 -0.38409042 0.48913574q-0.20253372 0.12570953 -0.4120636 0.12558746q-0.2165184 -0.021118164 -0.78926086 -0.30810547l-2.1373177 -1.0709686l-0.23043823 0.46126556l-0.48892975 -0.24498749l0.23043823 -0.4612732l-0.9080086 -0.45498657l-0.06293869 -0.81799316l1.285183 0.64398193l0.31423187 -0.6289978l0.48892975 0.24498749l-0.3142357 0.62900543l2.179226 1.0919647q0.265419 0.1329956 0.36320114 0.14704132q0.090797424 -0.0069351196 0.1676178 -0.05582428q0.07682419 -0.04888916 0.14665222 -0.1886673q0.05586624 -0.111824036 0.12569046 -0.28655243z" fill-rule="nonzero"/><path fill="#000000" fill-opacity="0.0" d="m30.14923 157.31537l18.383753 -75.27495l27.03907 6.648056l-18.38375 75.27495z" fill-rule="evenodd"/><path fill="#999999" d="m54.625393 122.25117l0.26155853 -0.6758423q0.5813217 0.31991577 0.8190956 0.8610916q0.2263031 0.52225494 0.052074432 1.2356644q-0.21500778 0.8803787 -0.8872757 1.2621613q-0.6722717 0.3817749 -1.6585274 0.13928986q-1.0165977 -0.2499466 -1.4519653 -0.904068q-0.4316597 -0.66928864 -0.22777557 -1.5041275q0.19647217 -0.8044815 0.88391495 -1.1825333q0.6722717 -0.38178253 1.6736984 -0.13555908q0.060691833 0.014923096 0.17837143 0.059944153l-0.7339897 3.0054169q0.6635666 0.11488342 1.1092758 -0.1295166q0.43053436 -0.2481308 0.5565758 -0.76421356q0.08896637 -0.36429596 -0.045265198 -0.6708374q-0.13052368 -0.3217163 -0.5297661 -0.5968704zm-1.6411057 1.9778748l0.5486374 -2.2464752q-0.52700806 -0.08130646 -0.8368492 0.06777954q-0.47234726 0.22176361 -0.60209274 0.75302124q-0.114917755 0.4705429 0.12587357 0.86764526q0.2407875 0.39709473 0.764431 0.5580292z" fill-rule="nonzero"/></g></svg>