<svg version="1.1" viewBox="0.0 0.0 143.0 166.0" fill="none" stroke="none" stroke-linecap="square" stroke-miterlimit="10" xmlns:xlink="http://www.w3.org/1999/xlink" xmlns="http://www.w3.org/2000/svg"><clipPath id="p.0"><path d="m0 0l143.0 0l0 166.0l-143.0 0l0 -166.0z" clip-rule="nonzero"/></clipPath><g clip-path="url(#p.0)"><path fill="#000000" fill-opacity="0.0" d="m0 0l143.0 0l0 166.0l-143.0 0z" fill-rule="evenodd"/><g filter="url(#shadowFilter-p.1)"><use xlink:href="#p.1" transform="matrix(1.0 0.0 0.0 1.0 1.0000002624671922 0.0)"/></g><defs><filter id="shadowFilter-p.1" filterUnits="userSpaceOnUse"><feGaussianBlur in="SourceAlpha" stdDeviation="2.5" result="blur"/><feComponentTransfer in="blur" color-interpolation-filters="sRGB"><feFuncR type="linear" slope="0" intercept="0.0"/><feFuncG type="linear" slope="0" intercept="0.0"/><feFuncB type="linear" slope="0" intercept="0.0"/><feFuncA type="linear" slope="0.5" intercept="0"/></feComponentTransfer></filter></defs><g id="p.1"><path fill="#ffffff" d="m4.984252 4.7979l132.0315 0l0 156.69292l-132.0315 0z" fill-rule="evenodd"/></g><path fill="#000000" fill-opacity="0.0" d="m-45.30315 -2.4114618l233.6063 0l0 40.409447l-233.6063 0z" fill-rule="evenodd"/><path fill="#000000" d="m18.469557 23.400412q-1.8125 0 -3.109376 -0.765625q-1.28125 -0.78125 -1.96875 -2.171875q-0.671875 -1.390625 -0.671875 -3.234375l0 -0.3125q0 -1.796874 0.671875 -3.187499q0.671875 -1.390625 1.9375 -2.1875q1.265626 -0.8125 3.015626 -0.8125q1.21875 0 2.265625 0.375q1.0625 0.359375 1.828125 1.015625l0 2.84375l-1.625 0l-0.21875 -1.90625q-0.28125 -0.203125 -0.625 -0.34375q-0.328125 -0.140625 -0.734375 -0.21875q-0.390625 -0.078125 -0.875 -0.078125q-1.109375 0 -1.90625 0.5625q-0.78125095 0.546875 -1.203126 1.5625q-0.40625 1.0 -0.40625 2.359374l0 0.328125q0 1.40625 0.4375 2.421875q0.4375 1.0 1.265626 1.546875q0.828125 0.546875 1.984375 0.546875q0.546875 0 1.09375 -0.125q0.546875 -0.140625 0.96875 -0.359375l0.21875 -1.71875l1.609375 0l0 2.828125q-0.703125 0.46875 -1.734375 0.75q-1.03125 0.28125 -2.21875 0.28125zm9.613861 0q-1.328125 0 -2.28125 -0.578125q-0.9375 -0.59375 -1.453125 -1.640625q-0.5 -1.0625 -0.5 -2.4375l0 -0.171875q0 -1.375 0.5 -2.421875q0.515625 -1.046874 1.453125 -1.640624q0.953125 -0.609375 2.265625 -0.609375q1.3125 0 2.25 0.609375q0.953125 0.59375 1.453125 1.640624q0.5156231 1.046875 0.5156231 2.421875l0 0.171875q0 1.375 -0.5156231 2.4375q-0.5 1.046875 -1.4375 1.640625q-0.9375 0.578125 -2.25 0.578125zm0 -1.640625q0.703125 0 1.15625 -0.375q0.46875 -0.390625 0.6875 -1.0625q0.234375 -0.6875 0.234375 -1.578125l0 -0.171875q0 -0.890625 -0.234375 -1.5625q-0.21875 -0.671875 -0.6875 -1.062499q-0.453125 -0.390625 -1.171875 -0.390625q-0.703125 0 -1.171875 0.390625q-0.46875 0.39062405 -0.703125 1.062499q-0.21875 0.671875 -0.21875 1.5625l0 0.171875q0 0.890625 0.21875 1.578125q0.234375 0.671875 0.703125 1.0625q0.46875 0.375 1.1875 0.375zm6.0062084 -2.953125l0 -1.640625l4.5 0l0 1.640625l-4.5 0zm11.593658 4.59375q-1.234375 0 -2.234375 -0.453125q-0.984375 -0.46875 -1.6875 -1.296875q-0.703125 -0.84375 -1.09375 -1.984375q-0.375 -1.140625 -0.375 -2.5l0 -0.1875q0 -1.359374 0.375 -2.499999q0.390625 -1.140625 1.09375 -1.984375q0.703125 -0.84375 1.6875 -1.296875q1.0 -0.46875 2.21875 -0.46875q1.265625 0 2.265625 0.46875q1.0 0.453125 1.703125 1.296875q0.703125 0.84375 1.0625 1.984375q0.375 1.140625 0.375 2.499999l0 0.1875q0 1.359375 -0.375 2.5q-0.359375 1.140625 -1.0625 1.984375q-0.703125 0.828125 -1.703125 1.296875q-1.0 0.453125 -2.25 0.453125zm0 -1.6875q1.109375 0 1.828125 -0.5625q0.734375 -0.578125 1.078125 -1.59375q0.359375 -1.03125 0.359375 -2.390625l0 -0.203125q0 -1.343749 -0.359375 -2.359374q-0.359375 -1.015625 -1.078125 -1.59375q-0.71875 -0.578125 -1.84375 -0.578125q-1.0625 0 -1.78125 0.578125q-0.71875 0.578125 -1.09375 1.59375q-0.359375 1.015625 -0.359375 2.359374l0 0.203125q0 1.34375 0.359375 2.375q0.375 1.03125 1.09375 1.609375q0.71875 0.5625 1.796875 0.5625zm9.614914 1.515625l-2.25 -7.671874l-1.078125 -0.171875l0 -1.3125l4.15625 0l0 1.3125l-1.03125 0.1875l1.03125 3.968749l0.203125 0.875l0.046875 0l0.296875 -0.875l1.921875 -5.468749l1.546875 0l1.859375 5.515624l0.3125 0.96875l0.046875 0l0.296875 -0.96875l1.109375 -4.015624l-1.09375 -0.1875l0 -1.3125l4.062504 0l0 1.3125l-1.046875 0.171875l-2.3437538 7.671874l-1.875 0l-1.75 -4.9375l-0.359375 -1.203125l-0.046875 0l-0.359375 1.203125l-1.78125 4.9375l-1.875 0zm12.259693 0l0 -1.296875l1.265625 -0.265625l0 -6.031249l-1.328125 -0.25l0 -1.3125l3.296875 0l0.109375 1.328125q0.453125 -0.703125 1.125 -1.09375q0.6875 -0.40625 1.5625 -0.40625q1.40625 0 2.1875 0.875q0.796875 0.859375 0.796875 2.703124l0 4.1875l1.265625 0.265625l0 1.296875l-4.59375 0l0 -1.296875l1.1875 -0.265625l0 -4.171875q0 -1.03125 -0.421875 -1.46875q-0.40625 -0.43749905 -1.21875 -0.43749905q-0.625 0 -1.09375 0.28125q-0.453125 0.26562405 -0.734375 0.76562405l0 5.03125l1.15625 0.265625l0 1.296875l-4.5625 0zm15.427628 0.171875q-1.28125 0 -2.25 -0.578125q-0.953125 -0.578125 -1.484375 -1.59375q-0.53125 -1.03125 -0.53125 -2.34375l0 -0.359375q0 -1.34375 0.515625 -2.375q0.53125 -1.046874 1.4375 -1.640624q0.90625 -0.609375 2.078125 -0.609375q1.25 0 2.09375 0.5q0.84375 0.5 1.265625 1.421875q0.4375 0.92187405 0.4375 2.203124l0 1.21875l-5.625 0l-0.015625 0.046875q0.03125 0.71875 0.296875 1.28125q0.265625 0.546875 0.765625 0.875q0.5 0.3125 1.203125 0.3125q0.75 0 1.359375 -0.203125q0.609375 -0.203125 1.125 -0.5625l0.671875 1.328125q-0.546875 0.453125 -1.390625 0.765625q-0.828125 0.3125 -1.953125 0.3125zm-2.03125 -5.65625l3.546875 0l0 -0.21875q0 -0.59375 -0.1875 -1.046875q-0.171875 -0.453125 -0.5625 -0.70312405q-0.375 -0.265625 -0.96875 -0.265625q-0.515625 0 -0.90625 0.296875q-0.390625 0.28124905 -0.625 0.78124905q-0.234375 0.484375 -0.3125 1.109375l0.015625 0.046875zm6.8970184 5.484375l0 -1.296875l1.265625 -0.265625l0 -6.031249l-1.34375 -0.25l0 -1.3125l3.3125 0l0.109375 1.15625l0.015625 0.1875q0.359375 -0.734375 0.890625 -1.125q0.53125 -0.390625 1.234375 -0.390625q0.234375 0 0.5 0.046875q0.265625 0.046875 0.4375 0.09375l-0.234375 1.968749l-1.203125 -0.062499046q-0.578125 -0.03125 -0.953125 0.23437405q-0.375 0.25 -0.640625 0.71875l0 4.765625l1.28125 0.265625l0 1.296875l-4.671875 0zm11.120834 0.171875q-0.984375 0 -1.84375 -0.1875q-0.84375 -0.1875 -1.6875 -0.5625l-0.03125 -2.421875l1.53125 0l0.328125 1.328125q0.359375 0.15625 0.734375 0.25q0.390625 0.078125 0.875 0.078125q0.90625 0 1.28125 -0.3125q0.375 -0.328125 0.375 -0.796875q0 -0.453125 -0.390625 -0.78125q-0.390625 -0.328125 -1.5 -0.5625q-1.640625 -0.359375 -2.421875 -1.03125q-0.765625 -0.6875 -0.765625 -1.78125q0 -0.74999905 0.390625 -1.359374q0.40625 -0.609375 1.1875 -0.96875q0.78125 -0.375 1.9375 -0.375q1.03125 0 1.84375 0.21875q0.8125 0.203125 1.375 0.5625l0.046875 2.328124l-1.515625 0l-0.265625 -1.203124q-0.25 -0.1875 -0.609375 -0.28125q-0.34375 -0.109375 -0.78125 -0.109375q-0.703125 0 -1.109375 0.3125q-0.40625 0.29687405 -0.40625 0.76562405q0 0.265625 0.125 0.5q0.125 0.21875 0.5 0.40625q0.390625 0.171875 1.109375 0.34375q1.78125 0.40625 2.546875 1.078125q0.78125 0.671875 0.78125 1.765625q0 1.234375 -0.90625 2.015625q-0.890625 0.78125 -2.734375 0.78125zm4.706375 -0.171875l0 -1.296875l1.265625 -0.265625l0 -10.078124l-1.34375 -0.25l0 -1.3125l3.46875 0l0 5.234375q0.453125 -0.640625 1.109375 -1.0q0.65625 -0.359375 1.484375 -0.359375q1.421875 0 2.21875 0.90625q0.8125 0.90625 0.8125 2.781249l0 4.078125l1.265625 0.265625l0 1.296875l-4.59375 0l0 -1.296875l1.203125 -0.265625l0 -4.09375q0 -1.046875 -0.421875 -1.515625q-0.421875 -0.46874905 -1.234375 -0.46874905q-0.59375 0 -1.0625 0.265625q-0.46875 0.24999905 -0.78125 0.71874905l0 5.09375l1.203125 0.265625l0 1.296875l-4.59375 0zm11.160736 0l0 -1.296875l1.28125 -0.265625l0 -6.031249l-1.34375 -0.25l0 -1.3125l3.46875 0l0 7.593749l1.265625 0.265625l0 1.296875l-4.671875 0zm1.203125 -11.234374l0 -1.96875l2.21875 0l0 1.96875l-2.21875 0zm4.2932587 14.749999l0 -1.3125l1.234375 -0.25l0 -9.546874l-1.34375 -0.25l0 -1.3125l3.25 0l0.140625 1.078125q0.421875 -0.59375 1.03125 -0.921875q0.609375 -0.328125 1.4375 -0.328125q1.109375 0 1.90625 0.609375q0.796875 0.609375 1.21875 1.703124q0.421875 1.09375 0.421875 2.5625l0 0.171875q0 1.34375 -0.421875 2.34375q-0.421875 1.0 -1.21875 1.5625q-0.796875 0.546875 -1.90625 0.546875q-0.796875 0 -1.390625 -0.265625q-0.578125 -0.28125 -1.0 -0.8125l0 2.859375l1.296875 0.25l0 1.3125l-4.65625 0zm5.109375 -4.984375q1.046875 0 1.546875 -0.765625q0.5 -0.78125 0.5 -2.046875l0 -0.171875q0 -0.953125 -0.21875 -1.671875q-0.21875 -0.71875 -0.6875 -1.109374q-0.453125 -0.40625 -1.15625 -0.40625q-0.59375 0 -1.03125 0.265625q-0.4375 0.26562405 -0.703125 0.74999905l0 4.203125q0.265625 0.453125 0.6875 0.703125q0.4375 0.25 1.0625 0.25z" fill-rule="nonzero"/><path fill="#000000" fill-opacity="0.0" d="m9.772845 92.83554l0 0c0 -32.954437 26.714851 -59.66929 59.669292 -59.66929l0 0c15.825279 0 31.002396 6.2865677 42.19256 17.47673c11.190163 11.190163 17.476738 26.36728 17.476738 42.19256l0 0c0 32.954437 -26.714859 59.669296 -59.669296 59.669296l0 0c-32.95444 0 -59.669292 -26.714859 -59.669292 -59.669296z" fill-rule="evenodd"/><path stroke="#000000" stroke-width="1.0" stroke-linejoin="round" stroke-linecap="butt" d="m9.772845 92.83554l0 0c0 -32.954437 26.714851 -59.66929 59.669292 -59.66929l0 0c15.825279 0 31.002396 6.2865677 42.19256 17.47673c11.190163 11.190163 17.476738 26.36728 17.476738 42.19256l0 0c0 32.954437 -26.714859 59.669296 -59.669296 59.669296l0 0c-32.95444 0 -59.669292 -26.714859 -59.669292 -59.669296z" fill-rule="evenodd"/><path fill="#000000" d="m33.31951 116.088875l0 -1.40625l0.96875 -0.140625l4.390625 -11.71875l2.234375 0l4.328125 11.71875l0.96875 0.140625l0 1.40625l-4.21875 0l0 -1.40625l0.953125 -0.171875l-0.703125 -2.078125l-4.9375 0l-0.71875 2.078125l0.953125 0.171875l0 1.40625l-4.21875 0zm4.578125 -5.421875l3.75 0l-1.71875 -4.90625l-0.125 -0.359375l-0.046875 0l-0.140625 0.375l-1.71875 4.890625zm9.27742 5.421875l0 -1.40625l1.390625 -0.265625l0 -10.859375l-1.46875 -0.265625l0 -1.40625l3.75 0l0 12.53125l1.375 0.265625l0 1.40625l-5.046875 0zm5.9485016 0l0 -1.40625l1.390625 -0.265625l0 -10.859375l-1.46875 -0.265625l0 -1.40625l3.75 0l0 12.53125l1.375 0.265625l0 1.40625l-5.046875 0zm15.267548 0.1875q-1.40625 0 -2.4375 -0.625q-1.015625 -0.640625 -1.5625 -1.78125q-0.546875 -1.140625 -0.546875 -2.609375l0 -0.1875q0 -1.46875 0.546875 -2.59375q0.546875 -1.140625 1.5625 -1.78125q1.03125 -0.640625 2.421875 -0.640625q1.421875 0 2.4375 0.640625q1.03125 0.640625 1.578125 1.765625q0.546875 1.125 0.546875 2.609375l0 0.1875q0 1.46875 -0.546875 2.609375q-0.546875 1.140625 -1.5625 1.78125q-1.015625 0.625 -2.4375 0.625zm0 -1.765625q0.765625 0 1.265625 -0.40625q0.5 -0.421875 0.734375 -1.15625q0.25 -0.734375 0.25 -1.6875l0 -0.1875q0 -0.953125 -0.25 -1.671875q-0.234375 -0.734375 -0.734375 -1.15625q-0.5 -0.421875 -1.28125 -0.421875q-0.75 0 -1.25 0.421875q-0.5 0.421875 -0.75 1.15625q-0.234375 0.71875 -0.234375 1.671875l0 0.1875q0 0.953125 0.234375 1.6875q0.25 0.734375 0.75 1.15625q0.515625 0.40625 1.265625 0.40625zm5.8874207 1.578125l0 -1.40625l1.375 -0.265625l0 -6.546875l-1.5 0l0 -1.640625l1.5 0l0 -1.15625q0 -1.625 0.890625 -2.5q0.90625 -0.890625 2.515625 -0.890625q0.375 0 0.796875 0.0625q0.4375 0.0625 0.78125 0.15625l-0.21875 1.71875q-0.203125 -0.046875 -0.484375 -0.078125q-0.28125 -0.03125 -0.546875 -0.03125q-0.734375 0 -1.09375 0.40625q-0.359375 0.390625 -0.359375 1.15625l0 1.15625l2.203125 0l0 1.640625l-2.203125 0l0 6.546875l1.71875 0.265625l0 1.40625l-5.375 0zm11.50264 0l0 -1.40625l1.453125 -0.265625l0 -9.90625l-1.453125 -0.265625l0 -1.421875l5.1875 0l0 1.421875l-1.4375 0.265625l0 9.90625l1.4375 0.265625l0 1.40625l-5.1875 0zm9.551109 0l0 -1.40625l1.453125 -0.265625l0 -9.828125l-2.671875 0l-0.203125 1.6875l-1.71875 0l0 -3.453125l11.484375 0l0 3.453125l-1.734375 0l-0.1875 -1.6875l-2.671875 0l0 9.828125l1.453125 0.265625l0 1.40625l-5.203125 0z" fill-rule="nonzero"/><path fill="#ffffff" d="m38.762157 57.38845l25.440945 -23.923885l-1.6666679 -3.635168l-30.816273 8.902887l-18.46719 21.299213l-3.5170603 13.188976l-3.2257218 11.87664l3.7874017 -0.45407104z" fill-rule="evenodd"/><path fill="#ffffff" d="m64.41002 32.945744c0.39115906 0.9673233 2.2004929 3.6992073 2.3469467 5.803932c0.14644623 2.1047287 -0.34576416 4.9613 -1.4682388 6.8244286c-1.1224823 1.8631287 -4.269779 3.4411278 -5.2666397 4.354347c-0.9968605 0.91321945 -0.6147194 0.9374733 -0.71453094 1.1249695c-0.099811554 0.18749237 -0.34451675 -0.46578217 0.11566925 0c0.460186 0.46578217 2.107212 1.3127708 2.645443 2.794693c0.5382309 1.4819221 0.68126297 4.234638 0.5839386 6.096836c-0.09732437 1.8621979 -0.2897911 3.649456 -1.1678772 5.0763435c-0.8780823 1.4268875 -2.5627365 2.6379852 -4.100624 3.48497c-1.5378914 0.8469925 -3.589138 1.3553696 -5.1267166 1.5969696c-1.5375786 0.24160004 -3.2809982 -0.125 -4.0987587 -0.14738464c-0.8177643 -0.022384644 -0.7546425 0.012748718 -0.80781174 0.013061523c-0.05316925 3.1280518E-4 0.427536 -0.13028717 0.48879242 -0.011192322c0.061252594 0.11908722 -0.29570007 -0.024253845 -0.12126541 0.72572327c0.17443466 0.7499771 1.0944939 2.3954544 1.1678734 3.7741394c0.07338333 1.3786926 0.028606415 3.240265 -0.72758865 4.498001c-0.7561989 1.2577362 -2.4181519 2.0807877 -3.8095894 3.0484238c-1.3914413 0.9676285 -3.0502853 2.2253647 -4.5390472 2.7573776c-1.4887619 0.53201294 -3.0751572 0.70022583 -4.393528 0.43469238c-1.318367 -0.26554108 -2.4672775 -1.2543182 -3.5166855 -2.0279312c-1.0494099 -0.77360535 -2.363737 -2.2113724 -2.77977 -2.6137238c-0.4160328 -0.40235138 0.13992119 0.08488464 0.28357315 0.19961548c0.14365387 0.114738464 0.5338783 0.4443283 0.57834244 0.48879242c0.04446411 0.04446411 -0.31435776 -0.25247955 -0.31155777 -0.22200775c0.0027980804 0.030471802 0.88368034 -0.14582825 0.32834816 0.40483856c-0.5553322 0.5506668 -2.4644794 2.076744 -3.6603413 2.89917c-1.1958599 0.82242584 -2.2940865 1.5997696 -3.514822 2.0353851c-1.2207336 0.43562317 -2.3208275 0.45801544 -3.8095894 0.57834625c-1.4887619 0.12033081 -3.658474 0.5065155 -5.122983 0.14365387c-1.464509 -0.36286163 -3.0533934 -1.9340286 -3.664071 -2.3208313" fill-rule="evenodd"/><path stroke="#000000" stroke-width="1.0" stroke-linejoin="round" stroke-linecap="butt" d="m64.41002 32.945744c0.39115906 0.9673233 2.2004929 3.6992073 2.3469467 5.803932c0.14644623 2.1047287 -0.34576416 4.9613 -1.4682388 6.8244286c-1.1224823 1.8631287 -4.269779 3.4411278 -5.2666397 4.354347c-0.9968605 0.91321945 -0.6147194 0.9374733 -0.71453094 1.1249695c-0.099811554 0.18749237 -0.34451675 -0.46578217 0.11566925 0c0.460186 0.46578217 2.107212 1.3127708 2.645443 2.794693c0.5382309 1.4819221 0.68126297 4.234638 0.5839386 6.096836c-0.09732437 1.8621979 -0.2897911 3.649456 -1.1678772 5.0763435c-0.8780823 1.4268875 -2.5627365 2.6379852 -4.100624 3.48497c-1.5378914 0.8469925 -3.589138 1.3553696 -5.1267166 1.5969696c-1.5375786 0.24160004 -3.2809982 -0.125 -4.0987587 -0.14738464c-0.8177643 -0.022384644 -0.7546425 0.012748718 -0.80781174 0.013061523c-0.05316925 3.1280518E-4 0.427536 -0.13028717 0.48879242 -0.011192322c0.061252594 0.11908722 -0.29570007 -0.024253845 -0.12126541 0.72572327c0.17443466 0.7499771 1.0944939 2.3954544 1.1678734 3.7741394c0.07338333 1.3786926 0.028606415 3.240265 -0.72758865 4.498001c-0.7561989 1.2577362 -2.4181519 2.0807877 -3.8095894 3.0484238c-1.3914413 0.9676285 -3.0502853 2.2253647 -4.5390472 2.7573776c-1.4887619 0.53201294 -3.0751572 0.70022583 -4.393528 0.43469238c-1.318367 -0.26554108 -2.4672775 -1.2543182 -3.5166855 -2.0279312c-1.0494099 -0.77360535 -2.363737 -2.2113724 -2.77977 -2.6137238c-0.4160328 -0.40235138 0.13992119 0.08488464 0.28357315 0.19961548c0.14365387 0.114738464 0.5338783 0.4443283 0.57834244 0.48879242c0.04446411 0.04446411 -0.31435776 -0.25247955 -0.31155777 -0.22200775c0.0027980804 0.030471802 0.88368034 -0.14582825 0.32834816 0.40483856c-0.5553322 0.5506668 -2.4644794 2.076744 -3.6603413 2.89917c-1.1958599 0.82242584 -2.2940865 1.5997696 -3.514822 2.0353851c-1.2207336 0.43562317 -2.3208275 0.45801544 -3.8095894 0.57834625c-1.4887619 0.12033081 -3.658474 0.5065155 -5.122983 0.14365387c-1.464509 -0.36286163 -3.0533934 -1.9340286 -3.664071 -2.3208313" fill-rule="evenodd"/><path fill="#000000" fill-opacity="0.0" d="m-11.626294 57.819004l77.484474 1.4502525l-0.56526184 27.771744l-77.484474 -1.4502563z" fill-rule="evenodd"/><path fill="#999999" d="m25.050129 74.04254l0.6896057 -0.09648895q0.054222107 0.40733337 0.31503105 0.64662933q0.26112556 0.22367859 0.74541664 0.23274231q0.48428917 0.009063721 0.7224388 -0.17401123q0.23846817 -0.19869232 0.2438736 -0.46426392q0.005086899 -0.24995422 -0.19545746 -0.37872314q-0.13869286 -0.09636688 -0.7135372 -0.26340485q-0.777298 -0.20207977 -1.0712585 -0.34822845q-0.29396248 -0.14615631 -0.44509697 -0.39902496q-0.15081787 -0.26849365 -0.14477539 -0.5653076q0.005722046 -0.2811966 0.13547134 -0.5131836q0.14536858 -0.23168945 0.36725998 -0.38381958q0.1587677 -0.122047424 0.44155693 -0.19489288q0.28310966 -0.08847046 0.61117554 -0.0823288q0.48429108 0.009063721 0.8563633 0.15667725q0.37207222 0.14761353 0.5388298 0.40077972q0.16707611 0.2375412 0.22129822 0.6448822l-0.6892872 0.08086395q-0.040189743 -0.32893372 -0.25540352 -0.50486755q-0.21489716 -0.19155884 -0.63669777 -0.19944763q-0.48428917 -0.00907135 -0.6908779 0.1589737q-0.20626831 0.15241241 -0.21072006 0.37111664q-0.0025424957 0.12497711 0.07334137 0.23579407q0.09119034 0.12672424 0.2773857 0.1927185q0.09277916 0.04862213 0.6054535 0.1988678q0.74573517 0.21711731 1.0400143 0.34764862q0.2942791 0.13053131 0.4454136 0.38339996q0.16707611 0.2375412 0.15976334 0.59684753q-0.006996155 0.34368134 -0.21644402 0.65231323q-0.20944977 0.3086319 -0.6035042 0.4731598q-0.37843132 0.16482544 -0.8783436 0.1554718q-0.79673576 -0.014915466 -1.2274818 -0.35115814q-0.41480637 -0.35157776 -0.51080704 -1.0097351z" fill-rule="nonzero"/><path fill="#000000" fill-opacity="0.0" d="m-8.816395 71.36968l72.76036 -26.73816l9.563835 26.081375l-72.76035 26.738167z" fill-rule="evenodd"/><path fill="#999999" d="m30.708324 74.71131l-1.4308987 -3.902176l0.5866432 -0.2155838l0.20441437 0.557457q0.08307266 -0.36346436 0.31184196 -0.6472931q0.24343681 -0.2892151 0.63941956 -0.43473053q0.42531586 -0.15629578 0.7739029 -0.067993164q0.3432083 0.073638916 0.5788803 0.35325623q0.20182037 -0.8565521 0.94979095 -1.131424q0.5719757 -0.21018982 0.9983101 -6.3323975E-4q0.44099808 0.20417023 0.68844604 0.87898254l0.9790344 2.6699066l-0.65997314 0.24253082l-0.89834595 -2.4498672q-0.14524078 -0.39608002 -0.28312302 -0.54517365q-0.12321472 -0.15447998 -0.33686447 -0.19248962q-0.20436096 -0.05807495 -0.42435074 0.022766113q-0.41065216 0.15090942 -0.587101 0.5320358q-0.16178131 0.37573242 0.058769226 0.97719574l0.8284149 2.2591553l-0.65997314 0.24253082l-0.9306221 -2.53788q-0.16137695 -0.440094 -0.4033947 -0.6008606q-0.24201584 -0.16075897 -0.6086674 -0.026023865q-0.278656 0.10240173 -0.47418594 0.34072113q-0.18086433 0.23293304 -0.17593956 0.5640564q-4.5585632E-4 0.31645203 0.19319916 0.84456635l0.7423458 2.024437l-0.65997314 0.24253082z" fill-rule="nonzero"/><path fill="#000000" fill-opacity="0.0" d="m-3.1346076 73.99077l68.773125 -35.72895l12.787399 24.686764l-68.773125 35.728954z" fill-rule="evenodd"/><path fill="#999999" d="m39.629196 70.1036q-0.19572067 0.47144318 -0.44994736 0.7619934q-0.25422287 0.2905426 -0.62859344 0.48503113q-0.5962143 0.3097458 -1.0799065 0.19126892q-0.47701263 -0.13954926 -0.71417236 -0.59739685q-0.14373398 -0.2774887 -0.14779282 -0.5570984q0.009799957 -0.28681946 0.13924026 -0.5125351q0.13611603 -0.24679565 0.34975815 -0.44582367q0.15150833 -0.1491394 0.5043144 -0.3852539q0.71229553 -0.49330902 0.99425507 -0.79826355q-0.050815582 -0.13206482 -0.06518936 -0.15982056q-0.20122528 -0.3884735 -0.46052933 -0.44744873q-0.3435135 -0.08565521 -0.8149414 0.15926361q-0.44369507 0.2305069 -0.5726242 0.4911728q-0.12892914 0.2606659 -0.038627625 0.70677185l-0.65320206 0.23370361q-0.11803055 -0.43169403 -0.046089172 -0.7684021q0.0647583 -0.35058594 0.36058044 -0.6627426q0.28863907 -0.32602692 0.7600632 -0.57094574q0.47142792 -0.2449112 0.82009506 -0.2851944q0.36253357 -0.047477722 0.59461594 0.06085205q0.22489548 0.09445953 0.40971756 0.31537628q0.113967896 0.15208435 0.32956696 0.5683136l0.43120193 0.83245087q0.44556808 0.860199 0.60934067 1.0744476q0.16376877 0.21425629 0.38249207 0.36473846l-0.65168 0.338562q-0.19766998 -0.14381409 -0.3619461 -0.39302063zm-0.77412796 -1.3586044q-0.26090622 0.31162262 -0.890007 0.7617111q-0.35948563 0.2571869 -0.48994064 0.413002q-0.11658478 0.14860535 -0.12791443 0.3305664q-0.018512726 0.16809082 0.067726135 0.33457947q0.1293602 0.2497406 0.39585114 0.32258606q0.28035736 0.06564331 0.6408615 -0.121650696q0.36050034 -0.18728638 0.5587578 -0.48397064q0.20493698 -0.31775665 0.1859932 -0.6600723q-0.0107421875 -0.2585373 -0.22634125 -0.67476654l-0.11498642 -0.22198486z" fill-rule="nonzero"/><path fill="#000000" fill-opacity="0.0" d="m2.9484806 83.414566l55.83248 -53.771324l19.24976 20.033037l-55.83248 53.771324z" fill-rule="evenodd"/><path fill="#999999" d="m42.216373 68.88086l-3.9731789 -4.134842l0.50644684 -0.48775482l3.973175 4.1348495l-0.506443 0.4877472z" fill-rule="nonzero"/><path fill="#000000" fill-opacity="0.0" d="m4.572734 81.674995l55.83248 -53.77133l19.24976 20.033035l-55.83248 53.77133z" fill-rule="evenodd"/><path fill="#999999" d="m43.840626 67.14128l-3.9731789 -4.134842l0.50644684 -0.487751l3.9731789 4.1348457l-0.50644684 0.4877472z" fill-rule="nonzero"/><path fill="#000000" fill-opacity="0.0" d="m10.438896 79.21674l51.81578 -57.651463l20.64209 18.594967l-51.81578 57.65146z" fill-rule="evenodd"/><path fill="#999999" d="m48.103924 62.399063l-0.4282303 0.47646332l-4.260578 -3.838047l0.47001266 -0.5229454l1.5208054 1.3699837q-0.12548065 -0.7018738 0.33408737 -1.2131996q0.26111984 -0.29052734 0.6069946 -0.44161224q0.3458748 -0.15108109 0.7010689 -0.12553406q0.35519028 0.025547028 0.7289772 0.19402695q0.37378693 0.1684761 0.71045303 0.47175598q0.7894287 0.71113586 0.87545776 1.5036507q0.074417114 0.7820587 -0.41648483 1.3282471q-0.49089813 0.54618835 -1.225666 0.45209885l0.38310242 0.34511185zm-1.5672417 -1.4118156q0.55724335 0.5019798 0.93681717 0.5705223q0.62565994 0.121982574 1.0016708 -0.29637527q0.31334305 -0.348629 0.24245071 -0.85411835q-0.07205582 -0.5275688 -0.66412354 -1.0609207q-0.60367966 -0.5438118 -1.1132469 -0.56121826q-0.49912643 -0.029026031 -0.81246567 0.31960678q-0.3028984 0.33700943 -0.23084259 0.86457825q0.08250046 0.51594543 0.63974 1.0179253z" fill-rule="nonzero"/><path fill="#000000" fill-opacity="0.0" d="m18.13261 84.24541l36.340042 -68.44888l24.515018 13.108274l-36.340042 68.44888z" fill-rule="evenodd"/><path fill="#999999" d="m46.5919 55.927986l-0.71650696 -0.38311768l0.3297119 -0.6210289l0.71650696 0.38311768l-0.3297119 0.6210289zm4.340378 2.320816l-3.665207 -1.9598007l0.3297081 -0.6210289l3.6652107 1.9598007l-0.3297119 0.6210289z" fill-rule="nonzero"/><path fill="#000000" fill-opacity="0.0" d="m21.64668 83.461365l31.409609 -70.85097l25.41449 11.303358l-31.409615 70.85097z" fill-rule="evenodd"/><path fill="#999999" d="m52.504623 53.734394l0.6011162 0.14764786q-0.048934937 0.30315018 -0.1439209 0.5174141q-0.15831375 0.35710526 -0.36117935 0.5062866q-0.19653702 0.13489914 -0.40584946 0.14440918q-0.21725845 -0.011127472 -0.80260086 -0.2714615l-2.1843262 -0.9715042l-0.20897293 0.47138214l-0.49968338 -0.22224045l0.20897293 -0.47137833l-0.92798233 -0.41273117l-0.10050583 -0.8142319l1.3134499 0.5841713l0.2849617 -0.64279556l0.49968338 0.22224045l-0.2849617 0.64279175l2.2271538 0.990551q0.2712555 0.120643616 0.36958313 0.13017273q0.09038162 -0.011104584 0.16487122 -0.06347656q0.07449341 -0.05237198 0.13781738 -0.19521332q0.05065918 -0.11427307 0.11237335 -0.29203415z" fill-rule="nonzero"/><path fill="#000000" fill-opacity="0.0" d="m30.485092 85.32672l14.900867 -76.040085l27.31596 5.396944l-14.900867 76.04008z" fill-rule="evenodd"/><path fill="#999999" d="m53.321846 49.174l0.23019028 -0.6871643q0.59542465 0.29283905 0.8578453 0.8224983q0.25009155 0.5112953 0.10887146 1.2319641q-0.17427826 0.88933563 -0.82826996 1.3016396q-0.6539955 0.41230774 -1.6503601 0.21545029q-1.0270233 -0.20291138 -1.4920235 -0.8363037q-0.461998 -0.6487236 -0.29673767 -1.4920616q0.15925217 -0.81266785 0.82857513 -1.2219467q0.6539955 -0.41230392 1.6656876 -0.21242142q0.061317444 0.0121154785 0.18094254 0.051677704l-0.5949402 3.036007q0.66814804 0.084228516 1.1021423 -0.18041992q0.41866302 -0.2676773 0.52082443 -0.7890129q0.07211304 -0.36800003 -0.07607651 -0.6680374q-0.1451912 -0.31537247 -0.55667114 -0.5718689zm-1.5483665 2.051281l0.44470215 -2.2693367q-0.5301895 -0.056972504 -0.8328438 0.1062088q-0.46164703 0.24325943 -0.5668106 0.7799263q-0.09314728 0.47533417 0.16565323 0.8609352q0.25880432 0.38560104 0.789299 0.5222664z" fill-rule="nonzero"/></g></svg>