<svg version="1.1" viewBox="0.0 0.0 322.6692913385827 322.24146981627297" fill="none" stroke="none" stroke-linecap="square" stroke-miterlimit="10" xmlns:xlink="http://www.w3.org/1999/xlink" xmlns="http://www.w3.org/2000/svg"><clipPath id="p.0"><path d="m0 0l322.66928 0l0 322.24146l-322.66928 0l0 -322.24146z" clip-rule="nonzero"/></clipPath><g clip-path="url(#p.0)"><path fill="#000000" fill-opacity="0.0" d="m0 0l322.66928 0l0 322.24146l-322.66928 0z" fill-rule="evenodd"/><g filter="url(#shadowFilter-p.1)"><use xlink:href="#p.1" transform="matrix(1.0 0.0 0.0 1.0 0.0 2.0)"/></g><defs><filter id="shadowFilter-p.1" filterUnits="userSpaceOnUse"><feGaussianBlur in="SourceAlpha" stdDeviation="2.0" result="blur"/><feComponentTransfer in="blur" color-interpolation-filters="sRGB"><feFuncR type="linear" slope="0" intercept="0.0"/><feFuncG type="linear" slope="0" intercept="0.0"/><feFuncB type="linear" slope="0" intercept="0.0"/><feFuncA type="linear" slope="0.5" intercept="0"/></feComponentTransfer></filter></defs><g id="p.1"><path fill="#f4cccc" d="m52.252247 180.87401l-46.551178 12.472443l17.574804 65.54332l46.551178 -12.472458z" fill-rule="evenodd"/><path fill="#000000" d="m26.893578 208.94318l-0.50803185 -2.0153046q-0.12949562 -0.48294067 -0.30908012 -0.79071045l-1.9469528 0.5216522l-0.2648964 -0.86724854l1.8865833 -0.50546265l-0.8700485 -3.244751q0.016950607 -0.11778259 0.09022522 -0.2668152q0.13659859 -0.21453857 0.25733948 -0.2468872q0.12074089 -0.032348633 0.20429802 -0.022384644q0.094602585 -0.009170532 0.24071884 0.11343384q0.41877556 0.7774811 0.8679638 2.4526825q0.10926056 0.40748596 0.26380157 0.8028259q0.39131546 -0.1695404 0.78372383 -0.27467346q0 0 0.66407776 -0.17793274q0.22638893 -0.060653687 0.43363953 -0.13235474l0.19752693 0.91763306l-1.8423996 0.42893982l1.225832 4.3302765q-0.20211029 0.1512146 -0.36812973 0.19569397q-0.63389206 0.16983032 -1.0061913 -1.2186127zm9.494762 -1.4439545q-0.04899597 0.2395935 -0.53195953 0.36898804q-0.46787262 0.12535095 -0.5569 -0.20666504q-0.39657974 -1.4790039 -0.6066818 -2.021225q-0.4485283 -1.190094 -0.8350296 -1.1835938q-0.95007706 0.07661438 -1.5235977 0.23028564q-0.57352066 0.153656 -0.8577614 0.6018677q-0.26914978 0.4441681 -0.25087738 1.2966003q0.014226913 0.8373413 0.32724953 2.3063812l-0.9810238 0.2628479q-0.16001129 -0.7174072 -0.32592773 -1.3361664q-0.16591644 -0.6187744 -0.42271805 -1.4558258q-0.24171066 -0.8411102 -0.5581188 -1.8401337q-0.37197113 -1.1458893 -0.5824013 -1.9306641q-0.21447754 -0.799881 -0.2909317 -1.507309q0.060041428 -0.2587433 0.3015232 -0.32344055q0.28676033 -0.076828 0.50943375 0.08998108q0.21862793 0.15170288 0.27823448 0.31367493l0.47893906 2.087799q0.31564713 1.1771698 0.5901642 1.7183075q0.9296131 -1.0578766 2.1370258 -1.3813782q0.39241028 -0.10513306 0.84628296 -0.16203308q1.0692863 0.24731445 1.5168228 0.7097473q0.21677017 0.2654419 0.33598328 0.589386q0.13026047 0.3047943 0.25461578 0.70822144q0.45990372 1.4135132 0.74765396 2.0643463zm2.8374367 -1.5043335q1.1168594 -0.2992401 3.0643501 -1.9048309q0.13583374 -0.036392212 0.25471497 0.04498291q0.11483765 0.06628418 0.14721298 0.18702698q-0.26739502 0.99368286 -1.571701 1.8607788q-1.2932625 0.8479614 -2.60075 0.85858154q-1.50074 0.0138549805 -2.1263313 -1.1126099q-0.079841614 -0.23742676 -0.1850586 -0.6298218q-0.10926056 -0.4074707 -0.091114044 -1.1240845q0.033241272 -0.72065735 0.37347794 -1.442688q0.3553276 -0.7260742 0.9454689 -1.2400665q0.5860939 -0.52908325 1.3558197 -0.7353058q0.72444916 -0.19410706 1.7635498 0.061294556q0.48734283 0.12825012 0.8248558 0.36134338q0.33750916 0.23309326 0.42248917 0.5500183q0.024280548 0.09056091 0.033470154 0.18515015q0.17214966 0.76268005 -0.48054886 1.164032q-0.2926674 0.17546082 -0.71526337 0.2886963l-1.8313522 0.40979004q-0.90555954 0.24263 -1.2722626 0.7452698q-0.22605896 0.30322266 -0.21839905 0.75408936q0.62449646 1.0620728 1.9073715 0.7183533zm1.2087975 -4.48114q-0.3434143 -0.13444519 -0.66954803 -0.14413452q-0.32613373 -0.009674072 -0.52233887 0.042892456q-0.19620514 0.052581787 -0.6125641 0.3097229q-0.41635895 0.25712585 -0.7340698 0.5201874q-0.7550659 0.6228943 -0.6377106 1.0605621q1.0354881 -0.1803894 1.5335464 -0.3138275q1.3885231 -0.3720398 1.8218346 -0.74694824q0.26948166 -0.20161438 0.22092056 -0.3827057q-0.060703278 -0.2263794 -0.4000702 -0.3457489z" fill-rule="nonzero"/><path fill="#000000" d="m26.077763 223.29967q-0.024816513 0.99339294 0.004501343 1.8267059q0.02527237 0.8182068 -0.018251419 1.3798523q-0.07337761 0.8122864 -0.43560028 0.90934753q-0.18111229 0.04852295 -0.46710968 -0.05279541q-0.7394371 -0.46510315 -2.3624668 -2.2948914q-1.5957966 -1.7885742 -1.733387 -2.3016968q-0.06070137 -0.2263794 0.062994 -0.30804443q0.13473892 -0.10079956 0.31289864 -0.1000061q0.47006035 0.0034637451 0.70892143 0.2306366q0.12293053 0.096466064 0.32865334 0.38104248l0.5273762 0.6998596q0.88031006 1.171463 1.6888714 2.1356812q0.16940498 -0.51449585 0.22878456 -1.2583313l0.105091095 -1.1766663q0.13275719 -1.5561218 0.5170727 -1.6914368q0.26433945 -0.28111267 2.4814548 1.713028q0.94330215 0.8634186 1.1619282 1.0151215q0.12074089 -0.032348633 0.06933212 -0.8273773q-0.051410675 -0.7950287 -0.068258286 -1.3404999q-0.020895004 -0.56056213 0.038814545 -1.0618439q0.12422943 -1.1656189 0.6675663 -1.3111877q0.18111229 -0.048538208 0.27385712 0.056030273q0.10783577 0.10050964 0.12807083 0.17597961q0.020233154 0.07545471 0.028326035 0.1056366q-0.033571243 0.47810364 -0.053907394 1.0658875q-0.020336151 0.5877991 -0.04767227 1.2098083q-0.02733612 0.6220093 -0.058719635 1.2289429q-0.031381607 0.60691833 -0.091091156 1.1082001q-0.1444645 1.0901642 -0.39589882 1.2384033q-0.1980629 0.16630554 -0.8237591 -0.29692078q-0.28818512 -0.23013306 -0.6308346 -0.54273987q-0.34265137 -0.31259155 -0.704443 -0.63623047q-0.9201164 -0.8372803 -1.4431152 -1.2794952zm12.424011 0.19763184q-0.04899597 0.2395935 -0.53195953 0.3690033q-0.46787262 0.12535095 -0.55690384 -0.20666504q-0.39657974 -1.4790039 -0.606678 -2.021225q-0.4485283 -1.190094 -0.8350334 -1.1835938q-0.95007324 0.07661438 -1.5235939 0.23027039q-0.57352066 0.15367126 -0.8577614 0.6018677q-0.26914978 0.4441681 -0.25087738 1.2966156q0.014225006 0.8373413 0.32724762 2.3063812l-0.9810219 0.2628479q-0.16001129 -0.7174072 -0.32592773 -1.3361816q-0.16591644 -0.61875916 -0.42271996 -1.4558258q-0.24170876 -0.841095 -0.5581188 -1.8401184q-0.37196922 -1.1459045 -0.58239937 -1.9306793q-0.21447754 -0.7998657 -0.2909317 -1.507309q0.06003952 -0.25872803 0.3015213 -0.3234253q0.28676224 -0.076828 0.50943565 0.08996582q0.21862602 0.15171814 0.27823257 0.3136902l0.47893906 2.087799q0.31564713 1.1771698 0.5901642 1.7183075q0.929615 -1.0578766 2.1370277 -1.3813782q0.39240646 -0.10513306 0.84628296 -0.16203308q1.0692863 0.24731445 1.5168228 0.7097473q0.21677017 0.2654419 0.33598328 0.5893707q0.13025665 0.3047943 0.25461197 0.7082367q0.45990372 1.4135132 0.7476578 2.064331zm0.18395615 -2.4109955q-0.40062714 -1.4940948 0.63944626 -2.743332q0.83610535 -0.98428345 2.2294388 -1.5193634q0.07546234 -0.020217896 0.34712982 -0.09300232q0.2716713 -0.07279968 0.7840576 -0.03213501q1.1193733 0.072128296 1.7354507 0.8614502q0.24804688 0.32177734 0.31279373 0.5632477q0.06475067 0.24147034 0.0930748 0.34710693q0.4208603 1.5695496 -0.5286522 2.7945251q-0.8942871 1.1292877 -2.5544815 1.5741119q-1.1923218 0.319458 -1.9568024 -0.058059692q-0.75343704 -0.39665222 -1.1014557 -1.6945496zm0.9563103 0.06730652q0.20638275 0.76968384 0.690773 0.9472351q0.3695526 0.11128235 1.1090927 -0.086868286q0.7395401 -0.19813538 1.2696419 -0.45339966q0.54114914 -0.2743988 0.9210892 -0.66737366q0.7738724 -0.8543854 0.43394852 -2.1221008q-0.20233917 -0.7545929 -0.7393341 -1.1283569q-0.57527924 -0.3958435 -1.2846336 -0.20579529q-0.47377777 0.22399902 -0.94350815 0.463089q-0.47377777 0.22399902 -0.83457565 0.628006q-0.78492355 0.87353516 -0.62249374 2.6255646zm5.527073 -4.4734497q-0.19719696 -0.6750946 -0.36901855 -1.195221q-0.17586899 -0.5352173 -0.24466324 -0.79177856q-0.06879425 -0.25656128 -0.55122375 -1.2111053q0.08027649 -0.18327332 0.1495018 -0.3474121q0.069229126 -0.16412354 0.26543427 -0.21669006q0.43768692 -0.11727905 1.6746674 3.5306244q0.7104721 2.106659 1.289154 4.264786q0.15377808 0.5735016 -0.6612282 0.79185486l-0.09460068 0.009170532q-0.17401123 -0.64894104 -0.4904213 -1.6479645q-0.3053627 -1.0181732 -0.53788376 -1.764679q-0.21743011 -0.7505493 -0.42971802 -1.4215851zm5.43589 2.8302307q1.1168556 -0.2992401 3.0643463 -1.9048309q0.13583374 -0.036392212 0.25471497 0.04498291q0.11483765 0.06629944 0.14721298 0.18702698q-0.26739502 0.99368286 -1.571701 1.8607788q-1.2932625 0.8479614 -2.60075 0.85858154q-1.50074 0.013870239 -2.1263313 -1.1126099q-0.079841614 -0.23742676 -0.18505478 -0.6298218q-0.109264374 -0.4074707 -0.091114044 -1.1240845q0.033241272 -0.72065735 0.37347412 -1.442688q0.3553276 -0.72605896 0.9454689 -1.2400513q0.5860977 -0.52908325 1.3558235 -0.73532104q0.72444534 -0.19410706 1.7635498 0.061309814q0.48734283 0.12823486 0.824852 0.36132812q0.33750916 0.23309326 0.42248917 0.55003357q0.024280548 0.090545654 0.033470154 0.18513489q0.17214966 0.76268005 -0.48054886 1.164032q-0.2926674 0.17546082 -0.71525955 0.2886963l-1.831356 0.40979004q-0.90555954 0.24263 -1.2722626 0.74528503q-0.22605896 0.3032074 -0.21839905 0.75408936q0.62449646 1.0620575 1.9073753 0.718338zm1.2087936 -4.48114q-0.3434143 -0.13444519 -0.66954803 -0.14411926q-0.32613373 -0.009674072 -0.52233887 0.042892456q-0.19620514 0.05256653 -0.6125641 0.30970764q-0.41635895 0.2571411 -0.7340698 0.52020264q-0.7550659 0.622879 -0.6377106 1.0605469q1.0354881 -0.1803894 1.5335464 -0.3138275q1.3885269 -0.37202454 1.8218346 -0.74694824q0.26948166 -0.20159912 0.22092056 -0.3827057q-0.060703278 -0.2263794 -0.4000702 -0.3457489z" fill-rule="nonzero"/><path fill="#000000" d="m31.151875 240.93092l-0.50803185 -2.0153046q-0.12949562 -0.48294067 -0.30908012 -0.7906952l-1.9469528 0.52163696l-0.2648964 -0.8672333l1.8865833 -0.5054779l-0.8700485 -3.244751q0.016950607 -0.117767334 0.09022522 -0.2668152q0.13659668 -0.21453857 0.25733948 -0.2468872q0.12074089 -0.032348633 0.20429802 -0.022384644q0.094602585 -0.009170532 0.24071884 0.1134491q0.41877365 0.7774811 0.8679619 2.4526825q0.10926247 0.4074707 0.26380157 0.8028259q0.39131546 -0.16955566 0.78372574 -0.27468872q0 0 0.66407776 -0.17793274q0.22638702 -0.060653687 0.43363953 -0.13235474l0.19752502 0.9176483l-1.8423977 0.42892456l1.225832 4.3302765q-0.20211029 0.1512146 -0.36812973 0.19569397q-0.63389206 0.16984558 -1.0061913 -1.2186127zm9.494762 -1.4439545q-0.04899597 0.2395935 -0.53195953 0.36898804q-0.46787262 0.12536621 -0.5569 -0.20666504q-0.39658356 -1.4789886 -0.6066818 -2.021225q-0.4485283 -1.190094 -0.8350334 -1.1835938q-0.95007324 0.07662964 -1.5235939 0.23028564q-0.57352066 0.153656 -0.8577614 0.6018677q-0.26914978 0.4441681 -0.25087738 1.2966003q0.014225006 0.83735657 0.32724762 2.3063965l-0.9810219 0.26283264q-0.16001129 -0.7174072 -0.32592773 -1.3361664q-0.16591644 -0.6187744 -0.42271805 -1.4558258q-0.24171066 -0.841095 -0.5581207 -1.8401184q-0.37196732 -1.1459045 -0.5824013 -1.9306793q-0.21447372 -0.7998657 -0.2909317 -1.507309q0.060043335 -0.25872803 0.30152512 -0.3234253q0.28675842 -0.07684326 0.50943375 0.08996582q0.21862793 0.15171814 0.27823257 0.31367493l0.47894287 2.0878143q0.3156433 1.1771698 0.59016037 1.7183075q0.929615 -1.0578766 2.1370277 -1.3813782q0.39241028 -0.105148315 0.84628296 -0.16204834q1.0692863 0.24731445 1.5168228 0.7097473q0.21677017 0.26545715 0.33598328 0.589386q0.13026047 0.3047943 0.25461197 0.7082367q0.45990372 1.4134979 0.7476578 2.064331zm0.05202484 -6.160858q0.7973099 2.309845 1.7476311 5.371338q0.029754639 0.41259766 -0.49848938 0.5541382q-0.13583374 0.036392212 -0.2989006 0.031555176q-0.16711426 -0.019927979 -0.2256279 -0.117492676l-1.5094337 -5.629257l0.78482056 -0.21028137zm-1.6194191 -1.3940125q-0.11735535 -0.43766785 0.39579773 -0.57514954q0.34712982 -0.09301758 0.598896 0.0012969971q0.066604614 0.12773132 0.103027344 0.26356506q0.036418915 0.13583374 -0.021762848 0.28082275q-0.07327652 0.14904785 -0.2845726 0.20565796q-0.19620514 0.05256653 -0.41669083 0.014587402q-0.22048569 -0.037979126 -0.37469482 -0.19078064zm8.191109 3.030243q-0.40467453 -1.5091858 -0.7417526 -2.1629791q0.03794861 -0.22045898 -0.35446167 -0.11531067q-0.43768692 0.117263794 -1.0561562 0.5256195q-0.6225128 0.3932495 -0.9884529 0.7177582q-0.8968086 0.7579193 -0.87700653 1.2540741l0.9186096 3.4258575l-0.84518814 0.22645569q-0.2833748 -0.39318848 -0.80945206 -2.355133q-0.47346878 -1.7657471 -0.6356697 -2.6119843q-0.14710617 -0.8502655 -0.13420105 -0.9831238q0.275383 -0.30026245 0.47158813 -0.35282898q0.31694412 -0.08491516 0.5152359 0.6545868q0.08093643 0.3018341 0.12359238 0.5815735q0.03860855 0.26464844 0.06693649 0.3703003q1.6368828 -2.0400085 2.7537384 -2.3392487q1.2677841 -0.3396759 1.9992523 1.6642914q0.26565933 0.6891022 0.605587 1.9568176l0.25199127 1.0001068q0.14973068 0.5583954 0.30241013 1.0674744q-0.10050583 0.1078186 -0.17597198 0.1280365q-0.03422928 -0.007003784 -0.1781578 -7.9345703E-4q-0.12478638 0.01725769 -0.3250389 0.054733276q-0.26937866 -0.4616394 -0.4220581 -0.9707184q-0.1416359 -0.5282135 -0.26303864 -0.9809723l-0.20233536 -0.7545929zm7.3504295 6.749527l-0.17006683 0.029388428q-0.37731552 0.10108948 -0.8028641 0.26364136l-0.46787262 0.12535095q-0.75463486 0.20219421 -1.269207 0.032714844q-0.26685715 -0.09025574 -0.34779358 -0.39208984l2.86137 -0.91223145q1.3160133 -0.4011383 0.94371414 -1.7895813q-0.01618576 -0.06037903 -0.048561096 -0.18110657q-0.028324127 -0.1056366 -0.1375885 -0.51312256l-1.0241547 -4.060791q-0.056655884 -0.21128845 -0.09712219 -0.36221313q-1.5276184 2.4474792 -3.4142036 2.9529572q-0.16601944 0.04447937 -0.33608627 0.0738678q-0.84518814 0.22645569 -1.0434799 -0.51304626q-0.12358856 -0.5815735 -0.007884979 -1.3566742q0.12674713 -0.7942505 0.4548416 -1.561554q0.3240509 -0.7823944 0.81630707 -1.4804382q0.7555008 -1.0435791 1.6610603 -1.2862091q1.0564842 -0.2830658 2.0351143 0.6517639q0.9974594 2.9356232 1.3373833 4.2033386q0.33588028 1.2526245 0.5050812 2.064621q0.18833542 0.8230591 0.2305603 1.5234833q0.057315826 0.6963959 -0.04876709 1.145401q-0.106082916 0.44900513 -0.3634224 0.69589233q-0.39098358 0.41209412 -1.2663574 0.64663696zm-1.8959808 -10.087357q-0.16711426 -0.019943237 -0.43878174 0.052856445q-0.27166748 0.072784424 -0.633564 0.41238403q-0.3618927 0.3395996 -0.6571808 0.8069458q-0.2952881 0.4673462 -0.5099678 0.9939728q-0.53873444 1.309021 -0.3687706 1.9428864q0.056655884 0.2112732 0.18658447 0.27352905q0.10674286 0.036102295 0.22748566 0.003753662q0.13583374 -0.036392212 0.3802681 -0.15042114q0.24443436 -0.11401367 0.61846924 -0.40834045q0.38912582 -0.29837036 0.7801094 -0.71047974q0.38694 -0.42718506 0.6711807 -0.8753967q0.6608963 -1.0344086 0.45451355 -1.8040924q-0.12545013 -0.46784973 -0.7103462 -0.53759766z" fill-rule="nonzero"/></g><path fill="#000000" fill-opacity="0.0" d="m177.98163 4.9934607l140.8819 0l0 58.17323l-140.8819 0z" fill-rule="evenodd"/><path fill="#000000" d="m199.76555 27.225958l1.765625 0.453125q-0.5625 2.171875 -2.0 3.328125q-1.4375 1.1406269 -3.53125 1.1406269q-2.15625 0 -3.515625 -0.8750019q-1.34375 -0.890625 -2.0625 -2.546875q-0.703125 -1.671875 -0.703125 -3.59375q0 -2.078125 0.796875 -3.625q0.796875 -1.5625 2.265625 -2.359375q1.484375 -0.8125 3.25 -0.8125q2.0 0 3.359375 1.015625q1.375 1.015625 1.90625 2.875l-1.734375 0.40625q-0.46875 -1.453125 -1.359375 -2.109375q-0.875 -0.671875 -2.203125 -0.671875q-1.546875 0 -2.578125 0.734375q-1.03125 0.734375 -1.453125 1.984375q-0.421875 1.234375 -0.421875 2.5625q0 1.703125 0.5 2.96875q0.5 1.265625 1.546875 1.90625q1.046875 0.625 2.265625 0.625q1.484375 0 2.515625 -0.859375q1.03125 -0.859375 1.390625 -2.546875zm3.1291962 -0.15625q0 -2.6875 1.484375 -3.96875q1.25 -1.078125 3.046875 -1.078125q2.0 0 3.265625 1.3125q1.265625 1.296875 1.265625 3.609375q0 1.859375 -0.5625 2.9375q-0.5625 1.0625 -1.640625 1.65625q-1.0625 0.5937519 -2.328125 0.5937519q-2.03125 0 -3.28125 -1.2968769q-1.25 -1.3125 -1.25 -3.765625zm1.6875 0q0 1.859375 0.796875 2.796875q0.8125 0.921875 2.046875 0.921875q1.21875 0 2.03125 -0.921875q0.8125 -0.9375 0.8125 -2.84375q0 -1.796875 -0.8125 -2.71875q-0.8125 -0.921875 -2.03125 -0.921875q-1.234375 0 -2.046875 0.921875q-0.796875 0.90625 -0.796875 2.765625zm8.656967 0.828125l0 -1.640625l5.03125 0l0 1.640625l-5.03125 0zm6.525177 -2.484375q0 -3.328125 1.78125 -5.203125q1.78125 -1.890625 4.609375 -1.890625q1.84375 0 3.328125 0.890625q1.484375 0.875 2.265625 2.46875q0.78125 1.578125 0.78125 3.578125q0 2.03125 -0.828125 3.640625q-0.8125 1.59375 -2.3125 2.421875q-1.5 0.8281269 -3.25 0.8281269q-1.875 0 -3.359375 -0.9062519q-1.484375 -0.921875 -2.25 -2.5q-0.765625 -1.578125 -0.765625 -3.328125zm1.8125 0.015625q0 2.421875 1.296875 3.8125q1.296875 1.390625 3.265625 1.390625q2.0 0 3.28125 -1.40625q1.28125 -1.40625 1.28125 -3.984375q0 -1.625 -0.546875 -2.84375q-0.546875 -1.21875 -1.609375 -1.875q-1.0625 -0.671875 -2.375 -0.671875q-1.890625 0 -3.25 1.296875q-1.34375 1.28125 -1.34375 4.28125zm14.808304 6.484375l-2.96875 -9.671875l1.703125 0l1.53125 5.578125l0.578125 2.078125q0.046875 -0.15625 0.5 -2.0l1.546875 -5.65625l1.6875 0l1.4375 5.609375l0.484375 1.84375l0.5625 -1.859375l1.65625 -5.59375l1.59375 0l-3.03125 9.671875l-1.703125 0l-1.53125 -5.796875l-0.375 -1.640625l-1.953125 7.4375l-1.71875 0zm11.691696 0l0 -9.671875l1.46875 0l0 1.375q1.0625 -1.59375 3.078125 -1.59375q0.875 0 1.609375 0.3125q0.734375 0.3125 1.09375 0.828125q0.375 0.5 0.515625 1.203125q0.09375 0.453125 0.09375 1.59375l0 5.953125l-1.640625 0l0 -5.890625q0 -1.0 -0.203125 -1.484375q-0.1875 -0.5 -0.671875 -0.796875q-0.484375 -0.296875 -1.140625 -0.296875q-1.046875 0 -1.8125 0.671875q-0.75 0.65625 -0.75 2.515625l0 5.28125l-1.640625 0zm17.000717 -3.109375l1.6875 0.203125q-0.40625 1.484375 -1.484375 2.3125q-1.078125 0.8125019 -2.765625 0.8125019q-2.125 0 -3.375 -1.2968769q-1.234375 -1.3125 -1.234375 -3.671875q0 -2.453125 1.25 -3.796875q1.265625 -1.34375 3.265625 -1.34375q1.9375 0 3.15625 1.328125q1.234375 1.3125 1.234375 3.703125q0 0.15625 0 0.4375l-7.21875 0q0.09375 1.59375 0.90625 2.453125q0.8125 0.84375 2.015625 0.84375q0.90625 0 1.546875 -0.46875q0.640625 -0.484375 1.015625 -1.515625zm-5.390625 -2.65625l5.40625 0q-0.109375 -1.21875 -0.625 -1.828125q-0.78125 -0.953125 -2.03125 -0.953125q-1.125 0 -1.90625 0.765625q-0.765625 0.75 -0.84375 2.015625zm9.125702 5.765625l0 -9.671875l1.46875 0l0 1.46875q0.5625 -1.03125 1.03125 -1.359375q0.484375 -0.328125 1.0625 -0.328125q0.828125 0 1.6875 0.53125l-0.5625 1.515625q-0.609375 -0.359375 -1.203125 -0.359375q-0.546875 0 -0.96875 0.328125q-0.421875 0.328125 -0.609375 0.890625q-0.28125 0.875 -0.28125 1.921875l0 5.0625l-1.625 0zm5.572052 -2.890625l1.625 -0.25q0.125 0.96875 0.75 1.5q0.625 0.515625 1.75 0.515625q1.125 0 1.671875 -0.453125q0.546875 -0.46875 0.546875 -1.09375q0 -0.546875 -0.484375 -0.875q-0.328125 -0.21875 -1.671875 -0.546875q-1.8125 -0.46875 -2.515625 -0.796875q-0.6875 -0.328125 -1.046875 -0.90625q-0.359375 -0.59375 -0.359375 -1.3125q0 -0.640625 0.296875 -1.1875q0.296875 -0.5625 0.8125 -0.921875q0.375 -0.28125 1.03125 -0.46875q0.671875 -0.203125 1.421875 -0.203125q1.140625 0 2.0 0.328125q0.859375 0.328125 1.265625 0.890625q0.421875 0.5625 0.578125 1.5l-1.609375 0.21875q-0.109375 -0.75 -0.640625 -1.171875q-0.515625 -0.421875 -1.46875 -0.421875q-1.140625 0 -1.625 0.375q-0.46875 0.375 -0.46875 0.875q0 0.3125 0.1875 0.578125q0.203125 0.265625 0.640625 0.4375q0.234375 0.09375 1.4375 0.421875q1.75 0.453125 2.4375 0.75q0.6875 0.296875 1.078125 0.859375q0.390625 0.5625 0.390625 1.40625q0 0.828125 -0.484375 1.546875q-0.46875 0.71875 -1.375 1.125q-0.90625 0.3906269 -2.046875 0.3906269q-1.875 0 -2.875 -0.7812519q-0.984375 -0.78125 -1.25 -2.328125zm9.984375 2.890625l0 -13.359375l1.640625 0l0 4.796875q1.140625 -1.328125 2.890625 -1.328125q1.078125 0 1.859375 0.421875q0.796875 0.421875 1.140625 1.171875q0.34375 0.75 0.34375 2.171875l0 6.125l-1.640625 0l0 -6.125q0 -1.234375 -0.53125 -1.796875q-0.53125 -0.5625 -1.515625 -0.5625q-0.71875 0 -1.359375 0.390625q-0.640625 0.375 -0.921875 1.015625q-0.265625 0.640625 -0.265625 1.78125l0 5.296875l-1.640625 0zm10.375732 -11.46875l0 -1.890625l1.640625 0l0 1.890625l-1.640625 0zm0 11.46875l0 -9.671875l1.640625 0l0 9.671875l-1.640625 0zm4.144806 3.703127l0 -13.375002l1.484375 0l0 1.25q0.53125 -0.734375 1.1875 -1.09375q0.671875 -0.375 1.625 -0.375q1.234375 0 2.171875 0.640625q0.953125 0.625 1.4375 1.796875q0.484375 1.15625 0.484375 2.546875q0 1.484375 -0.53125 2.671875q-0.53125 1.1875 -1.546875 1.828125q-1.015625 0.6250019 -2.140625 0.6250019q-0.8125 0 -1.46875 -0.3437519q-0.65625 -0.34375 -1.0625 -0.875l0 4.703127l-1.640625 0zm1.484375 -8.484377q0 1.859375 0.75 2.765625q0.765625 0.890625 1.828125 0.890625q1.09375 0 1.875 -0.921875q0.78125 -0.9375 0.78125 -2.875q0 -1.84375 -0.765625 -2.765625q-0.75 -0.921875 -1.8125 -0.921875q-1.046875 0 -1.859375 0.984375q-0.796875 0.96875 -0.796875 2.84375z" fill-rule="nonzero"/><path fill="#000000" d="m208.58365 52.00596q-0.984375 -1.234375 -1.65625 -2.875q-0.65625 -1.640625 -0.65625 -3.390625q0 -1.546875 0.5 -2.96875q0.578125 -1.640625 1.8125 -3.28125l0.828125 0q-0.78125 1.359375 -1.03125 1.9375q-0.40625 0.890625 -0.625 1.875q-0.28125 1.21875 -0.28125 2.4375q0 3.140625 1.9375 6.265625l-0.828125 0zm2.2039948 -11.0l0 -1.359375l1.171875 0l0 1.359375l-1.171875 0zm0 8.1875l0 -6.90625l1.171875 0l0 6.90625l-1.171875 0zm2.945465 0l0 -6.90625l1.0625 0l0 0.984375q0.75 -1.140625 2.1875 -1.140625q0.625 0 1.15625 0.21875q0.53125 0.21875 0.78125 0.59375q0.265625 0.359375 0.375 0.859375q0.0625 0.328125 0.0625 1.140625l0 4.25l-1.171875 0l0 -4.203125q0 -0.71875 -0.140625 -1.0625q-0.140625 -0.359375 -0.484375 -0.5625q-0.34375 -0.21875 -0.8125 -0.21875q-0.75 0 -1.296875 0.46875q-0.546875 0.46875 -0.546875 1.796875l0 3.78125l-1.171875 0zm10.646713 -2.0625l1.15625 -0.1875q0.109375 0.703125 0.546875 1.078125q0.453125 0.359375 1.25 0.359375q0.8125 0 1.203125 -0.328125q0.390625 -0.328125 0.390625 -0.765625q0 -0.390625 -0.359375 -0.625q-0.234375 -0.15625 -1.1875 -0.390625q-1.296875 -0.328125 -1.796875 -0.5625q-0.484375 -0.25 -0.75 -0.65625q-0.25 -0.421875 -0.25 -0.9375q0 -0.453125 0.203125 -0.84375q0.21875 -0.40625 0.578125 -0.671875q0.28125 -0.1875 0.75 -0.328125q0.46875 -0.140625 1.015625 -0.140625q0.8125 0 1.421875 0.234375q0.609375 0.234375 0.90625 0.640625q0.296875 0.390625 0.40625 1.0625l-1.140625 0.15625q-0.078125 -0.53125 -0.453125 -0.828125q-0.375 -0.3125 -1.0625 -0.3125q-0.8125 0 -1.15625 0.265625q-0.34375 0.265625 -0.34375 0.625q0 0.234375 0.140625 0.421875q0.15625 0.1875 0.453125 0.3125q0.171875 0.0625 1.03125 0.296875q1.25 0.328125 1.734375 0.546875q0.5 0.203125 0.78125 0.609375q0.28125 0.40625 0.28125 1.0q0 0.59375 -0.34375 1.109375q-0.34375 0.515625 -1.0 0.796875q-0.640625 0.28125 -1.453125 0.28125q-1.34375 0 -2.046875 -0.5625q-0.703125 -0.5625 -0.90625 -1.65625zm7.1328125 2.0625l0 -6.90625l1.046875 0l0 0.96875q0.328125 -0.515625 0.859375 -0.8125q0.546875 -0.3125 1.234375 -0.3125q0.78125 0 1.265625 0.3125q0.484375 0.3125 0.6875 0.890625q0.828125 -1.203125 2.140625 -1.203125q1.03125 0 1.578125 0.578125q0.5625 0.5625 0.5625 1.734375l0 4.75l-1.171875 0l0 -4.359375q0 -0.703125 -0.125 -1.0q-0.109375 -0.3125 -0.40625 -0.5q-0.296875 -0.1875 -0.703125 -0.1875q-0.71875 0 -1.203125 0.484375q-0.484375 0.484375 -0.484375 1.546875l0 4.015625l-1.171875 0l0 -4.484375q0 -0.78125 -0.296875 -1.171875q-0.28125 -0.390625 -0.921875 -0.390625q-0.5 0 -0.921875 0.265625q-0.421875 0.25 -0.609375 0.75q-0.1875 0.5 -0.1875 1.453125l0 3.578125l-1.171875 0zm15.618057 -0.859375q-0.65625 0.5625 -1.265625 0.796875q-0.59375 0.21875 -1.28125 0.21875q-1.140625 0 -1.75 -0.546875q-0.609375 -0.5625 -0.609375 -1.4375q0 -0.5 0.21875 -0.921875q0.234375 -0.421875 0.609375 -0.671875q0.375 -0.25 0.84375 -0.390625q0.34375 -0.078125 1.046875 -0.171875q1.421875 -0.171875 2.09375 -0.40625q0 -0.234375 0 -0.296875q0 -0.71875 -0.328125 -1.015625q-0.453125 -0.390625 -1.34375 -0.390625q-0.8125 0 -1.21875 0.296875q-0.390625 0.28125 -0.578125 1.015625l-1.140625 -0.15625q0.15625 -0.734375 0.515625 -1.1875q0.359375 -0.453125 1.03125 -0.6875q0.671875 -0.25 1.5625 -0.25q0.890625 0 1.4375 0.203125q0.5625 0.203125 0.8125 0.53125q0.265625 0.3125 0.375 0.796875q0.046875 0.296875 0.046875 1.078125l0 1.5625q0 1.625 0.078125 2.0625q0.078125 0.4375 0.296875 0.828125l-1.21875 0q-0.1875 -0.359375 -0.234375 -0.859375zm-0.09375 -2.609375q-0.640625 0.265625 -1.921875 0.4375q-0.71875 0.109375 -1.015625 0.25q-0.296875 0.125 -0.46875 0.375q-0.15625 0.25 -0.15625 0.546875q0 0.46875 0.34375 0.78125q0.359375 0.3125 1.046875 0.3125q0.671875 0 1.203125 -0.296875q0.53125 -0.296875 0.78125 -0.8125q0.1875 -0.390625 0.1875 -1.171875l0 -0.421875zm2.9749756 3.46875l0 -9.546875l1.171875 0l0 9.546875l-1.171875 0zm2.96109 0l0 -9.546875l1.171875 0l0 9.546875l-1.171875 0zm7.7578278 0l-1.078125 0l0 -9.546875l1.171875 0l0 3.40625q0.734375 -0.921875 1.890625 -0.921875q0.640625 0 1.203125 0.265625q0.578125 0.25 0.9375 0.71875q0.375 0.453125 0.578125 1.109375q0.203125 0.65625 0.203125 1.40625q0 1.78125 -0.875 2.75q-0.875 0.96875 -2.109375 0.96875q-1.21875 0 -1.921875 -1.015625l0 0.859375zm0 -3.5q0 1.234375 0.328125 1.78125q0.5625 0.90625 1.5 0.90625q0.765625 0 1.328125 -0.65625q0.5625 -0.671875 0.5625 -2.0q0 -1.34375 -0.546875 -1.984375q-0.53125 -0.65625 -1.296875 -0.65625q-0.765625 0 -1.328125 0.671875q-0.546875 0.671875 -0.546875 1.9375zm6.3499756 -4.6875l0 -1.359375l1.171875 0l0 1.359375l-1.171875 0zm0 8.1875l0 -6.90625l1.171875 0l0 6.90625l-1.171875 0zm5.507965 -1.046875l0.171875 1.03125q-0.5 0.109375 -0.890625 0.109375q-0.640625 0 -1.0 -0.203125q-0.34375 -0.203125 -0.484375 -0.53125q-0.140625 -0.328125 -0.140625 -1.390625l0 -3.96875l-0.859375 0l0 -0.90625l0.859375 0l0 -1.71875l1.171875 -0.703125l0 2.421875l1.171875 0l0 0.90625l-1.171875 0l0 4.046875q0 0.5 0.046875 0.640625q0.0625 0.140625 0.203125 0.234375q0.140625 0.078125 0.40625 0.078125q0.203125 0 0.515625 -0.046875zm5.8748474 -1.171875l1.203125 0.140625q-0.28125 1.0625 -1.0625 1.65625q-0.765625 0.578125 -1.96875 0.578125q-1.515625 0 -2.40625 -0.9375q-0.890625 -0.9375 -0.890625 -2.609375q0 -1.75 0.890625 -2.703125q0.90625 -0.96875 2.34375 -0.96875q1.390625 0 2.265625 0.9375q0.875 0.9375 0.875 2.65625q0 0.109375 0 0.3125l-5.15625 0q0.0625 1.140625 0.640625 1.75q0.578125 0.59375 1.4375 0.59375q0.65625 0 1.109375 -0.328125q0.453125 -0.34375 0.71875 -1.078125zm-3.84375 -1.90625l3.859375 0q-0.078125 -0.859375 -0.4375 -1.296875q-0.5625 -0.6875 -1.453125 -0.6875q-0.8125 0 -1.359375 0.546875q-0.546875 0.53125 -0.609375 1.4375zm6.0531006 2.0625l1.15625 -0.1875q0.109375 0.703125 0.546875 1.078125q0.453125 0.359375 1.25 0.359375q0.8125 0 1.203125 -0.328125q0.390625 -0.328125 0.390625 -0.765625q0 -0.390625 -0.359375 -0.625q-0.234375 -0.15625 -1.1875 -0.390625q-1.296875 -0.328125 -1.796875 -0.5625q-0.484375 -0.25 -0.75 -0.65625q-0.25 -0.421875 -0.25 -0.9375q0 -0.453125 0.203125 -0.84375q0.21875 -0.40625 0.578125 -0.671875q0.28125 -0.1875 0.75 -0.328125q0.46875 -0.140625 1.015625 -0.140625q0.8125 0 1.421875 0.234375q0.609375 0.234375 0.90625 0.640625q0.296875 0.390625 0.40625 1.0625l-1.140625 0.15625q-0.078125 -0.53125 -0.453125 -0.828125q-0.375 -0.3125 -1.0625 -0.3125q-0.8125 0 -1.15625 0.265625q-0.34375 0.265625 -0.34375 0.625q0 0.234375 0.140625 0.421875q0.15625 0.1875 0.453125 0.3125q0.171875 0.0625 1.03125 0.296875q1.25 0.328125 1.734375 0.546875q0.5 0.203125 0.78125 0.609375q0.28125 0.40625 0.28125 1.0q0 0.59375 -0.34375 1.109375q-0.34375 0.515625 -1.0 0.796875q-0.640625 0.28125 -1.453125 0.28125q-1.34375 0 -2.046875 -0.5625q-0.703125 -0.5625 -0.90625 -1.65625zm7.8984375 4.875l-0.828125 0q1.9375 -3.125 1.9375 -6.265625q0 -1.21875 -0.28125 -2.421875q-0.21875 -0.984375 -0.609375 -1.875q-0.265625 -0.59375 -1.046875 -1.953125l0.828125 0q1.234375 1.640625 1.8125 3.28125q0.5 1.421875 0.5 2.96875q0 1.75 -0.671875 3.390625q-0.671875 1.640625 -1.640625 2.875z" fill-rule="nonzero"/><path fill="#ffffff" d="m5.7454066 131.41866l0 0c0 -39.13829 31.537483 -70.86614 70.44094 -70.86614l0 0c18.682106 0 36.599037 7.4662323 49.809273 20.75621c13.210236 13.289986 20.631683 31.315063 20.631683 50.109932l0 0c0 39.13829 -31.53749 70.866135 -70.440956 70.866135l0 0c-38.903458 0 -70.44094 -31.727844 -70.44094 -70.866135z" fill-rule="evenodd"/><path stroke="#000000" stroke-width="1.0" stroke-linejoin="round" stroke-linecap="butt" d="m5.7454066 131.41866l0 0c0 -39.13829 31.537483 -70.86614 70.44094 -70.86614l0 0c18.682106 0 36.599037 7.4662323 49.809273 20.75621c13.210236 13.289986 20.631683 31.315063 20.631683 50.109932l0 0c0 39.13829 -31.53749 70.866135 -70.440956 70.866135l0 0c-38.903458 0 -70.44094 -31.727844 -70.44094 -70.866135z" fill-rule="evenodd"/><path fill="#000000" fill-opacity="0.0" d="m5.7454066 4.9934607l140.8819 0l0 58.17323l-140.8819 0z" fill-rule="evenodd"/><path fill="#000000" d="m27.739136 27.225958l1.765625 0.453125q-0.5625 2.171875 -2.0 3.328125q-1.4375 1.1406269 -3.53125 1.1406269q-2.15625 0 -3.515625 -0.8750019q-1.34375 -0.890625 -2.0625 -2.546875q-0.703125 -1.671875 -0.703125 -3.59375q0 -2.078125 0.796875 -3.625q0.796875 -1.5625 2.265625 -2.359375q1.484375 -0.8125 3.25 -0.8125q2.0 0 3.359375 1.015625q1.375 1.015625 1.90625 2.875l-1.734375 0.40625q-0.46875 -1.453125 -1.359375 -2.109375q-0.875 -0.671875 -2.203125 -0.671875q-1.546875 0 -2.578125 0.734375q-1.03125 0.734375 -1.453125 1.984375q-0.421875 1.234375 -0.421875 2.5625q0 1.703125 0.5 2.96875q0.5 1.265625 1.546875 1.90625q1.046875 0.625 2.265625 0.625q1.484375 0 2.515625 -0.859375q1.03125 -0.859375 1.390625 -2.546875zm3.1291962 -0.15625q0 -2.6875 1.484375 -3.96875q1.25 -1.078125 3.046875 -1.078125q2.0 0 3.265625 1.3125q1.265625 1.296875 1.265625 3.609375q0 1.859375 -0.5625 2.9375q-0.5625 1.0625 -1.640625 1.65625q-1.0625 0.5937519 -2.328125 0.5937519q-2.03125 0 -3.28125 -1.2968769q-1.25 -1.3125 -1.25 -3.765625zm1.6875 0q0 1.859375 0.796875 2.796875q0.8125 0.921875 2.046875 0.921875q1.21875 0 2.03125 -0.921875q0.8125 -0.9375 0.8125 -2.84375q0 -1.796875 -0.8125 -2.71875q-0.8125 -0.921875 -2.03125 -0.921875q-1.234375 0 -2.046875 0.921875q-0.796875 0.90625 -0.796875 2.765625zm8.656967 0.828125l0 -1.640625l5.03125 0l0 1.640625l-5.03125 0zm6.525177 -2.484375q0 -3.328125 1.78125 -5.203125q1.78125 -1.890625 4.609375 -1.890625q1.84375 0 3.328125 0.890625q1.484375 0.875 2.265625 2.46875q0.78125 1.578125 0.78125 3.578125q0 2.03125 -0.828125 3.640625q-0.8125 1.59375 -2.3125 2.421875q-1.5 0.8281269 -3.25 0.8281269q-1.875 0 -3.359375 -0.9062519q-1.484375 -0.921875 -2.25 -2.5q-0.765625 -1.578125 -0.765625 -3.328125zm1.8125 0.015625q0 2.421875 1.296875 3.8125q1.296875 1.390625 3.265625 1.390625q2.0 0 3.28125 -1.40625q1.28125 -1.40625 1.28125 -3.984375q0 -1.625 -0.546875 -2.84375q-0.546875 -1.21875 -1.609375 -1.875q-1.0625 -0.671875 -2.375 -0.671875q-1.890625 0 -3.25 1.296875q-1.34375 1.28125 -1.34375 4.28125zm14.808304 6.484375l-2.96875 -9.671875l1.703125 0l1.53125 5.578125l0.578125 2.078125q0.046875 -0.15625 0.5 -2.0l1.546875 -5.65625l1.6875 0l1.4375 5.609375l0.484375 1.84375l0.5625 -1.859375l1.65625 -5.59375l1.59375 0l-3.03125 9.671875l-1.703125 0l-1.53125 -5.796875l-0.375 -1.640625l-1.953125 7.4375l-1.71875 0zm11.691696 0l0 -9.671875l1.46875 0l0 1.375q1.0625 -1.59375 3.078125 -1.59375q0.875 0 1.609375 0.3125q0.734375 0.3125 1.09375 0.828125q0.375 0.5 0.515625 1.203125q0.09375 0.453125 0.09375 1.59375l0 5.953125l-1.640625 0l0 -5.890625q0 -1.0 -0.203125 -1.484375q-0.1875 -0.5 -0.671875 -0.796875q-0.484375 -0.296875 -1.140625 -0.296875q-1.046875 0 -1.8125 0.671875q-0.75 0.65625 -0.75 2.515625l0 5.28125l-1.640625 0zm17.000717 -3.109375l1.6875 0.203125q-0.40625 1.484375 -1.484375 2.3125q-1.078125 0.8125019 -2.765625 0.8125019q-2.125 0 -3.375 -1.2968769q-1.234375 -1.3125 -1.234375 -3.671875q0 -2.453125 1.25 -3.796875q1.265625 -1.34375 3.265625 -1.34375q1.9375 0 3.15625 1.328125q1.234375 1.3125 1.234375 3.703125q0 0.15625 0 0.4375l-7.21875 0q0.09375 1.59375 0.90625 2.453125q0.8125 0.84375 2.015625 0.84375q0.90625 0 1.546875 -0.46875q0.640625 -0.484375 1.015625 -1.515625zm-5.390625 -2.65625l5.40625 0q-0.109375 -1.21875 -0.625 -1.828125q-0.78125 -0.953125 -2.03125 -0.953125q-1.125 0 -1.90625 0.765625q-0.765625 0.75 -0.84375 2.015625zm9.125717 5.765625l0 -9.671875l1.46875 0l0 1.46875q0.5625 -1.03125 1.03125 -1.359375q0.484375 -0.328125 1.0625 -0.328125q0.828125 0 1.6875 0.53125l-0.5625 1.515625q-0.609375 -0.359375 -1.203125 -0.359375q-0.546875 0 -0.96875 0.328125q-0.421875 0.328125 -0.609375 0.890625q-0.28125 0.875 -0.28125 1.921875l0 5.0625l-1.625 0zm5.572052 -2.890625l1.625 -0.25q0.125 0.96875 0.75 1.5q0.625 0.515625 1.75 0.515625q1.125 0 1.671875 -0.453125q0.546875 -0.46875 0.546875 -1.09375q0 -0.546875 -0.484375 -0.875q-0.328125 -0.21875 -1.671875 -0.546875q-1.8125 -0.46875 -2.515625 -0.796875q-0.6875 -0.328125 -1.046875 -0.90625q-0.359375 -0.59375 -0.359375 -1.3125q0 -0.640625 0.296875 -1.1875q0.296875 -0.5625 0.8125 -0.921875q0.375 -0.28125 1.03125 -0.46875q0.671875 -0.203125 1.421875 -0.203125q1.140625 0 2.0 0.328125q0.859375 0.328125 1.265625 0.890625q0.421875 0.5625 0.578125 1.5l-1.609375 0.21875q-0.109375 -0.75 -0.640625 -1.171875q-0.515625 -0.421875 -1.46875 -0.421875q-1.140625 0 -1.625 0.375q-0.46875 0.375 -0.46875 0.875q0 0.3125 0.1875 0.578125q0.203125 0.265625 0.640625 0.4375q0.234375 0.09375 1.4375 0.421875q1.75 0.453125 2.4375 0.75q0.6875 0.296875 1.078125 0.859375q0.390625 0.5625 0.390625 1.40625q0 0.828125 -0.484375 1.546875q-0.46875 0.71875 -1.375 1.125q-0.90625 0.3906269 -2.046875 0.3906269q-1.875 0 -2.875 -0.7812519q-0.984375 -0.78125 -1.25 -2.328125zm9.984375 2.890625l0 -13.359375l1.640625 0l0 4.796875q1.140625 -1.328125 2.890625 -1.328125q1.078125 0 1.859375 0.421875q0.796875 0.421875 1.140625 1.171875q0.34375 0.75 0.34375 2.171875l0 6.125l-1.640625 0l0 -6.125q0 -1.234375 -0.53125 -1.796875q-0.53125 -0.5625 -1.515625 -0.5625q-0.71875 0 -1.359375 0.390625q-0.640625 0.375 -0.921875 1.015625q-0.265625 0.640625 -0.265625 1.78125l0 5.296875l-1.640625 0zm10.375717 -11.46875l0 -1.890625l1.640625 0l0 1.890625l-1.640625 0zm0 11.46875l0 -9.671875l1.640625 0l0 9.671875l-1.640625 0zm4.144821 3.703127l0 -13.375002l1.484375 0l0 1.25q0.53125 -0.734375 1.1875 -1.09375q0.671875 -0.375 1.625 -0.375q1.234375 0 2.171875 0.640625q0.953125 0.625 1.4375 1.796875q0.484375 1.15625 0.484375 2.546875q0 1.484375 -0.53125 2.671875q-0.53125 1.1875 -1.546875 1.828125q-1.015625 0.6250019 -2.140625 0.6250019q-0.8125 0 -1.46875 -0.3437519q-0.65625 -0.34375 -1.0625 -0.875l0 4.703127l-1.640625 0zm1.484375 -8.484377q0 1.859375 0.75 2.765625q0.765625 0.890625 1.828125 0.890625q1.09375 0 1.875 -0.921875q0.78125 -0.9375 0.78125 -2.875q0 -1.84375 -0.765625 -2.765625q-0.75 -0.921875 -1.8125 -0.921875q-1.046875 0 -1.859375 0.984375q-0.796875 0.96875 -0.796875 2.84375z" fill-rule="nonzero"/><path fill="#000000" d="m30.244576 52.00596q-0.984375 -1.234375 -1.65625 -2.875q-0.65625 -1.640625 -0.65625 -3.390625q0 -1.546875 0.5 -2.96875q0.578125 -1.640625 1.8125 -3.28125l0.828125 0q-0.78125 1.359375 -1.03125 1.9375q-0.40625 0.890625 -0.625 1.875q-0.28125 1.21875 -0.28125 2.4375q0 3.140625 1.9375 6.265625l-0.828125 0zm4.7508698 -3.859375l0.171875 1.03125q-0.5 0.109375 -0.890625 0.109375q-0.640625 0 -1.0 -0.203125q-0.34375 -0.203125 -0.484375 -0.53125q-0.140625 -0.328125 -0.140625 -1.390625l0 -3.96875l-0.859375 0l0 -0.90625l0.859375 0l0 -1.71875l1.171875 -0.703125l0 2.421875l1.171875 0l0 0.90625l-1.171875 0l0 4.046875q0 0.5 0.046875 0.640625q0.0625 0.140625 0.203125 0.234375q0.140625 0.078125 0.40625 0.078125q0.203125 0 0.515625 -0.046875zm1.1404877 1.046875l0 -9.546875l1.171875 0l0 3.421875q0.828125 -0.9375 2.078125 -0.9375q0.765625 0 1.328125 0.296875q0.5625 0.296875 0.8125 0.84375q0.25 0.53125 0.25 1.546875l0 4.375l-1.171875 0l0 -4.375q0 -0.890625 -0.390625 -1.28125q-0.375 -0.40625 -1.078125 -0.40625q-0.515625 0 -0.984375 0.28125q-0.453125 0.265625 -0.65625 0.734375q-0.1875 0.453125 -0.1875 1.265625l0 3.78125l-1.171875 0zm12.146851 -2.21875l1.203125 0.140625q-0.28125 1.0625 -1.0625 1.65625q-0.765625 0.578125 -1.96875 0.578125q-1.515625 0 -2.40625 -0.9375q-0.890625 -0.9375 -0.890625 -2.609375q0 -1.75 0.890625 -2.703125q0.90625 -0.96875 2.34375 -0.96875q1.390625 0 2.265625 0.9375q0.875 0.9375 0.875 2.65625q0 0.109375 0 0.3125l-5.15625 0q0.0625 1.140625 0.640625 1.75q0.578125 0.59375 1.4375 0.59375q0.65625 0 1.109375 -0.328125q0.453125 -0.34375 0.71875 -1.078125zm-3.84375 -1.90625l3.859375 0q-0.078125 -0.859375 -0.4375 -1.296875q-0.5625 -0.6875 -1.453125 -0.6875q-0.8125 0 -1.359375 0.546875q-0.546875 0.53125 -0.609375 1.4375zm11.506088 4.125l-2.125 -6.90625l1.21875 0l1.09375 3.984375l0.421875 1.484375q0.015625 -0.109375 0.359375 -1.421875l1.09375 -4.046875l1.203125 0l1.03125 4.0l0.34375 1.328125l0.40625 -1.34375l1.171875 -3.984375l1.140625 0l-2.15625 6.90625l-1.21875 0l-1.09375 -4.140625l-0.265625 -1.171875l-1.40625 5.3125l-1.21875 0zm8.343903 0l0 -9.546875l1.171875 0l0 3.421875q0.828125 -0.9375 2.078125 -0.9375q0.765625 0 1.328125 0.296875q0.5625 0.296875 0.8125 0.84375q0.25 0.53125 0.25 1.546875l0 4.375l-1.171875 0l0 -4.375q0 -0.890625 -0.390625 -1.28125q-0.375 -0.40625 -1.078125 -0.40625q-0.515625 0 -0.984375 0.28125q-0.453125 0.265625 -0.65625 0.734375q-0.1875 0.453125 -0.1875 1.265625l0 3.78125l-1.171875 0zm6.9749756 -3.453125q0 -1.921875 1.078125 -2.84375q0.890625 -0.765625 2.171875 -0.765625q1.421875 0 2.328125 0.9375q0.90625 0.921875 0.90625 2.578125q0 1.328125 -0.40625 2.09375q-0.390625 0.765625 -1.15625 1.1875q-0.765625 0.421875 -1.671875 0.421875q-1.453125 0 -2.359375 -0.921875q-0.890625 -0.9375 -0.890625 -2.6875zm1.203125 0q0 1.328125 0.578125 1.984375q0.59375 0.65625 1.46875 0.65625q0.875 0 1.453125 -0.65625q0.578125 -0.671875 0.578125 -2.03125q0 -1.28125 -0.59375 -1.9375q-0.578125 -0.65625 -1.4375 -0.65625q-0.875 0 -1.46875 0.65625q-0.578125 0.65625 -0.578125 1.984375zm6.6312256 3.453125l0 -9.546875l1.171875 0l0 9.546875l-1.171875 0zm7.71109 -2.21875l1.203125 0.140625q-0.28125 1.0625 -1.0625 1.65625q-0.765625 0.578125 -1.96875 0.578125q-1.515625 0 -2.40625 -0.9375q-0.890625 -0.9375 -0.890625 -2.609375q0 -1.75 0.890625 -2.703125q0.90625 -0.96875 2.34375 -0.96875q1.390625 0 2.265625 0.9375q0.875 0.9375 0.875 2.65625q0 0.109375 0 0.3125l-5.15625 0q0.0625 1.140625 0.640625 1.75q0.578125 0.59375 1.4375 0.59375q0.65625 0 1.109375 -0.328125q0.453125 -0.34375 0.71875 -1.078125zm-3.84375 -1.90625l3.859375 0q-0.078125 -0.859375 -0.4375 -1.296875q-0.5625 -0.6875 -1.453125 -0.6875q-0.8125 0 -1.359375 0.546875q-0.546875 0.53125 -0.609375 1.4375zm12.787338 3.078125l0.171875 1.03125q-0.5 0.109375 -0.890625 0.109375q-0.640625 0 -1.0 -0.203125q-0.34375 -0.203125 -0.484375 -0.53125q-0.140625 -0.328125 -0.140625 -1.390625l0 -3.96875l-0.859375 0l0 -0.90625l0.859375 0l0 -1.71875l1.171875 -0.703125l0 2.421875l1.171875 0l0 0.90625l-1.171875 0l0 4.046875q0 0.5 0.046875 0.640625q0.0625 0.140625 0.203125 0.234375q0.140625 0.078125 0.40625 0.078125q0.203125 0 0.515625 -0.046875zm1.1404877 1.046875l0 -9.546875l1.171875 0l0 3.421875q0.828125 -0.9375 2.078125 -0.9375q0.765625 0 1.328125 0.296875q0.5625 0.296875 0.8125 0.84375q0.25 0.53125 0.25 1.546875l0 4.375l-1.171875 0l0 -4.375q0 -0.890625 -0.390625 -1.28125q-0.375 -0.40625 -1.078125 -0.40625q-0.515625 0 -0.984375 0.28125q-0.453125 0.265625 -0.65625 0.734375q-0.1875 0.453125 -0.1875 1.265625l0 3.78125l-1.171875 0zm7.4281006 -8.1875l0 -1.359375l1.171875 0l0 1.359375l-1.171875 0zm0 8.1875l0 -6.90625l1.171875 0l0 6.90625l-1.171875 0zm2.945465 0l0 -6.90625l1.0625 0l0 0.984375q0.75 -1.140625 2.1875 -1.140625q0.625 0 1.15625 0.21875q0.53125 0.21875 0.78125 0.59375q0.265625 0.359375 0.375 0.859375q0.0625 0.328125 0.0625 1.140625l0 4.25l-1.171875 0l0 -4.203125q0 -0.71875 -0.140625 -1.0625q-0.140625 -0.359375 -0.484375 -0.5625q-0.34375 -0.21875 -0.8125 -0.21875q-0.75 0 -1.296875 0.46875q-0.546875 0.46875 -0.546875 1.796875l0 3.78125l-1.171875 0zm7.1937256 0.578125l1.140625 0.15625q0.078125 0.53125 0.40625 0.78125q0.4375 0.3125 1.1875 0.3125q0.8125 0 1.25 -0.328125q0.453125 -0.3125 0.609375 -0.90625q0.09375 -0.359375 0.078125 -1.5q-0.765625 0.90625 -1.90625 0.90625q-1.4375 0 -2.21875 -1.03125q-0.78125 -1.03125 -0.78125 -2.46875q0 -0.984375 0.359375 -1.8125q0.359375 -0.84375 1.03125 -1.296875q0.6875 -0.453125 1.609375 -0.453125q1.21875 0 2.015625 0.984375l0 -0.828125l1.078125 0l0 5.96875q0 1.609375 -0.328125 2.28125q-0.328125 0.6875 -1.046875 1.078125q-0.703125 0.390625 -1.75 0.390625q-1.234375 0 -2.0 -0.5625q-0.75 -0.5625 -0.734375 -1.671875zm0.984375 -4.15625q0 1.359375 0.53125 1.984375q0.546875 0.625 1.359375 0.625q0.796875 0 1.34375 -0.625q0.546875 -0.625 0.546875 -1.953125q0 -1.265625 -0.5625 -1.90625q-0.5625 -0.640625 -1.359375 -0.640625q-0.765625 0 -1.3125 0.640625q-0.546875 0.625 -0.546875 1.875zm7.4124756 6.390625l-0.828125 0q1.9375 -3.125 1.9375 -6.265625q0 -1.21875 -0.28125 -2.421875q-0.21875 -0.984375 -0.609375 -1.875q-0.265625 -0.59375 -1.046875 -1.953125l0.828125 0q1.234375 1.640625 1.8125 3.28125q0.5 1.421875 0.5 2.96875q0 1.75 -0.671875 3.390625q-0.671875 1.640625 -1.640625 2.875z" fill-rule="nonzero"/><path fill="#000000" fill-opacity="0.0" d="m10.178477 106.136055c0.09755039 -0.29221344 0.18197727 -0.8495178 0.58530235 -1.7532806c0.40332413 -0.9037628 1.0004377 -2.069992 1.8346453 -3.6692886c0.8342085 -1.5993042 2.0301838 -4.048996 3.1706038 -5.9265137c1.14042 -1.8775101 2.322835 -3.6006088 3.671916 -5.3385773c1.349081 -1.7379761 2.8092747 -3.3228378 4.422573 -5.089241c1.6132984 -1.7664032 3.3936996 -3.826332 5.2572174 -5.509186c1.8635159 -1.6828537 4.2830276 -3.3503952 5.9238853 -4.587929c1.6408577 -1.2375336 2.3499565 -1.8775177 3.921257 -2.8372726c1.5713043 -0.95975494 3.6986008 -1.989502 5.506565 -2.921257c1.8079605 -0.93175507 3.8390198 -2.015747 5.3412056 -2.6692886c1.5021858 -0.6535492 2.8792648 -0.9877548 3.671917 -1.2519684c0.7926483 -0.2642212 0.9033241 -0.27777863 1.0839882 -0.33333588" fill-rule="evenodd"/><path stroke="#ffffff" stroke-width="2.0" stroke-linejoin="round" stroke-linecap="butt" d="m10.178477 106.136055c0.09755039 -0.29221344 0.18197727 -0.8495178 0.58530235 -1.7532806c0.40332413 -0.9037628 1.0004377 -2.069992 1.8346453 -3.6692886c0.8342085 -1.5993042 2.0301838 -4.048996 3.1706038 -5.9265137c1.14042 -1.8775101 2.322835 -3.6006088 3.671916 -5.3385773c1.349081 -1.7379761 2.8092747 -3.3228378 4.422573 -5.089241c1.6132984 -1.7664032 3.3936996 -3.826332 5.2572174 -5.509186c1.8635159 -1.6828537 4.2830276 -3.3503952 5.9238853 -4.587929c1.6408577 -1.2375336 2.3499565 -1.8775177 3.921257 -2.8372726c1.5713043 -0.95975494 3.6986008 -1.989502 5.506565 -2.921257c1.8079605 -0.93175507 3.8390198 -2.015747 5.3412056 -2.6692886c1.5021858 -0.6535492 2.8792648 -0.9877548 3.671917 -1.2519684c0.7926483 -0.2642212 0.9033241 -0.27777863 1.0839882 -0.33333588" fill-rule="evenodd"/><path fill="#ffffff" d="m10.616392 106.852554c1.1396637 0.15892029 4.9941864 1.2047043 6.837984 0.953537c1.8437977 -0.25117493 3.2142239 -1.3243103 4.224802 -2.4605865c1.0105782 -1.1362686 1.3560543 -4.028923 1.8386669 -4.3570557c0.4826107 -0.32813263 0.2429161 1.6364441 1.0570049 2.3882751c0.8140907 0.7518234 2.271162 2.0066376 3.8275318 2.1226807c1.5563698 0.11604309 4.2142677 -0.84874725 5.5106926 -1.4264221c1.2964249 -0.5776825 1.434555 -1.4466324 2.2678642 -2.0396576c0.83330536 -0.5930252 2.1080856 -0.43919373 2.7319794 -1.518486c0.62389755 -1.0792847 1.1351013 -3.3636246 1.0113945 -4.9572372c-0.12370682 -1.5936203 -1.7489128 -3.962532 -1.7536316 -4.604454c-0.004714966 -0.641922 1.0210648 0.67030334 1.7253265 0.7529144c0.7042618 0.082603455 1.009098 0.28129578 2.5002403 -0.25727844c1.4911385 -0.53858185 5.018856 -1.8255615 6.4466095 -2.9741974c1.4277534 -1.1486435 1.7918396 -2.4439774 2.1199112 -3.917633c0.32806778 -1.4736481 0.011756897 -3.4958038 -0.15148926 -4.9242783c-0.16324615 -1.428482 -0.33688354 -2.721367 -0.8279915 -3.6465836c-0.49110794 -0.92520905 -1.8888702 -1.7177887 -2.1186638 -1.9047089c-0.22979355 -0.18691254 0.14258194 0.77201843 0.7399063 0.78323364c0.59732056 0.01121521 2.0056953 -0.30171967 2.8440323 -0.7159424c0.83833694 -0.41422272 1.5801849 -1.0640869 2.185997 -1.7694092c0.60580826 -0.7053299 1.2052383 -1.6485901 1.448864 -2.4625473c0.24362183 -0.8139572 0.045459747 -1.3620911 0.012878418 -2.4211884c-0.03258133 -1.0590897 -0.1736412 -3.2778015 -0.20837021 -3.933361" fill-rule="evenodd"/><path stroke="#000000" stroke-width="1.0" stroke-linejoin="round" stroke-linecap="butt" d="m10.616392 106.852554c1.1396637 0.15892029 4.9941864 1.2047043 6.837984 0.953537c1.8437977 -0.25117493 3.2142239 -1.3243103 4.224802 -2.4605865c1.0105782 -1.1362686 1.3560543 -4.028923 1.8386669 -4.3570557c0.4826107 -0.32813263 0.2429161 1.6364441 1.0570049 2.3882751c0.8140907 0.7518234 2.271162 2.0066376 3.8275318 2.1226807c1.5563698 0.11604309 4.2142677 -0.84874725 5.5106926 -1.4264221c1.2964249 -0.5776825 1.434555 -1.4466324 2.2678642 -2.0396576c0.83330536 -0.5930252 2.1080856 -0.43919373 2.7319794 -1.518486c0.62389755 -1.0792847 1.1351013 -3.3636246 1.0113945 -4.9572372c-0.12370682 -1.5936203 -1.7489128 -3.962532 -1.7536316 -4.604454c-0.004714966 -0.641922 1.0210648 0.67030334 1.7253265 0.7529144c0.7042618 0.082603455 1.009098 0.28129578 2.5002403 -0.25727844c1.4911385 -0.53858185 5.018856 -1.8255615 6.4466095 -2.9741974c1.4277534 -1.1486435 1.7918396 -2.4439774 2.1199112 -3.917633c0.32806778 -1.4736481 0.011756897 -3.4958038 -0.15148926 -4.9242783c-0.16324615 -1.428482 -0.33688354 -2.721367 -0.8279915 -3.6465836c-0.49110794 -0.92520905 -1.8888702 -1.7177887 -2.1186638 -1.9047089c-0.22979355 -0.18691254 0.14258194 0.77201843 0.7399063 0.78323364c0.59732056 0.01121521 2.0056953 -0.30171967 2.8440323 -0.7159424c0.83833694 -0.41422272 1.5801849 -1.0640869 2.185997 -1.7694092c0.60580826 -0.7053299 1.2052383 -1.6485901 1.448864 -2.4625473c0.24362183 -0.8139572 0.045459747 -1.3620911 0.012878418 -2.4211884c-0.03258133 -1.0590897 -0.1736412 -3.2778015 -0.20837021 -3.933361" fill-rule="evenodd"/><path fill="#6aa84f" d="m228.21777 164.9777l0 0c0 -20.847656 16.900375 -37.748024 37.748047 -37.748024l0 0c10.011383 0 19.612762 3.9770126 26.691895 11.056145c7.0791016 7.079117 11.056122 16.680481 11.056122 26.69188l0 0c0 20.847672 -16.90036 37.74803 -37.748016 37.74803l0 0c-20.847672 0 -37.748047 -16.90036 -37.748047 -37.74803z" fill-rule="evenodd"/><path stroke="#000000" stroke-width="1.0" stroke-linejoin="round" stroke-linecap="butt" d="m228.21777 164.9777l0 0c0 -20.847656 16.900375 -37.748024 37.748047 -37.748024l0 0c10.011383 0 19.612762 3.9770126 26.691895 11.056145c7.0791016 7.079117 11.056122 16.680481 11.056122 26.69188l0 0c0 20.847672 -16.90036 37.74803 -37.748016 37.74803l0 0c-20.847672 0 -37.748047 -16.90036 -37.748047 -37.74803z" fill-rule="evenodd"/><path fill="#ffffff" d="m234.5993 169.77771l0 -9.546875l1.25 0l0 9.546875l-1.25 0zm3.3279877 0l0 -6.90625l1.0625 0l0 0.984375q0.75 -1.140625 2.1875 -1.140625q0.625 0 1.15625 0.21875q0.53125 0.21875 0.78125 0.59375q0.265625 0.359375 0.375 0.859375q0.0625 0.328125 0.0625 1.140625l0 4.25l-1.171875 0l0 -4.203125q0 -0.71875 -0.140625 -1.0625q-0.140625 -0.359375 -0.484375 -0.5625q-0.34375 -0.21875 -0.8125 -0.21875q-0.75 0 -1.296875 0.46875q-0.546875 0.46875 -0.546875 1.796875l0 3.78125l-1.171875 0zm9.334351 0l-2.625 -6.90625l1.234375 0l1.484375 4.140625q0.234375 0.65625 0.4375 1.390625q0.15625 -0.546875 0.4375 -1.3125l1.53125 -4.21875l1.21875 0l-2.625 6.90625l-1.09375 0zm9.476547 -2.21875l1.203125 0.140625q-0.28125 1.0625 -1.0625 1.65625q-0.765625 0.578125 -1.9687347 0.578125q-1.515625 0 -2.40625 -0.9375q-0.890625 -0.9375 -0.890625 -2.609375q0 -1.75 0.890625 -2.703125q0.90625 -0.96875 2.34375 -0.96875q1.3906097 0 2.2656097 0.9375q0.875 0.9375 0.875 2.65625q0 0.109375 0 0.3125l-5.1562347 0q0.0625 1.140625 0.640625 1.75q0.578125 0.59375 1.4375 0.59375q0.65625 0 1.1093597 -0.328125q0.453125 -0.34375 0.71875 -1.078125zm-3.8437347 -1.90625l3.8593597 0q-0.078125 -0.859375 -0.4375 -1.296875q-0.56248474 -0.6875 -1.4531097 -0.6875q-0.8125 0 -1.359375 0.546875q-0.546875 0.53125 -0.609375 1.4375zm6.0530853 2.0625l1.15625 -0.1875q0.109375 0.703125 0.546875 1.078125q0.453125 0.359375 1.25 0.359375q0.8125 0 1.203125 -0.328125q0.390625 -0.328125 0.390625 -0.765625q0 -0.390625 -0.359375 -0.625q-0.234375 -0.15625 -1.1875 -0.390625q-1.296875 -0.328125 -1.796875 -0.5625q-0.484375 -0.25 -0.75 -0.65625q-0.25 -0.421875 -0.25 -0.9375q0 -0.453125 0.203125 -0.84375q0.21875 -0.40625 0.578125 -0.671875q0.28125 -0.1875 0.75 -0.328125q0.46875 -0.140625 1.015625 -0.140625q0.8125 0 1.421875 0.234375q0.609375 0.234375 0.90625 0.640625q0.296875 0.390625 0.40625 1.0625l-1.140625 0.15625q-0.078125 -0.53125 -0.453125 -0.828125q-0.375 -0.3125 -1.0625 -0.3125q-0.8125 0 -1.15625 0.265625q-0.34375 0.265625 -0.34375 0.625q0 0.234375 0.140625 0.421875q0.15625 0.1875 0.453125 0.3125q0.171875 0.0625 1.03125 0.296875q1.25 0.328125 1.734375 0.546875q0.5 0.203125 0.78125 0.609375q0.28125 0.40625 0.28125 1.0q0 0.59375 -0.34375 1.109375q-0.34375 0.515625 -1.0 0.796875q-0.640625 0.28125 -1.453125 0.28125q-1.34375 0 -2.046875 -0.5625q-0.703125 -0.5625 -0.90625 -1.65625zm9.6953125 1.015625l0.171875 1.03125q-0.5 0.109375 -0.890625 0.109375q-0.640625 0 -1.0 -0.203125q-0.34375 -0.203125 -0.484375 -0.53125q-0.140625 -0.328125 -0.140625 -1.390625l0 -3.96875l-0.859375 0l0 -0.90625l0.859375 0l0 -1.71875l1.171875 -0.703125l0 2.421875l1.171875 0l0 0.90625l-1.171875 0l0 4.046875q0 0.5 0.046875 0.640625q0.0625 0.140625 0.203125 0.234375q0.140625 0.078125 0.40625 0.078125q0.203125 0 0.515625 -0.046875zm1.1405029 1.046875l0 -6.90625l1.046875 0l0 0.96875q0.328125 -0.515625 0.859375 -0.8125q0.546875 -0.3125 1.234375 -0.3125q0.78125 0 1.265625 0.3125q0.484375 0.3125 0.6875 0.890625q0.828125 -1.203125 2.140625 -1.203125q1.03125 0 1.578125 0.578125q0.5625 0.5625 0.5625 1.734375l0 4.75l-1.171875 0l0 -4.359375q0 -0.703125 -0.125 -1.0q-0.109375 -0.3125 -0.40625 -0.5q-0.296875 -0.1875 -0.703125 -0.1875q-0.71875 0 -1.203125 0.484375q-0.484375 0.484375 -0.484375 1.546875l0 4.015625l-1.171875 0l0 -4.484375q0 -0.78125 -0.296875 -1.171875q-0.28125 -0.390625 -0.921875 -0.390625q-0.5 0 -0.921875 0.265625q-0.421875 0.25 -0.609375 0.75q-0.1875 0.5 -0.1875 1.453125l0 3.578125l-1.171875 0zm15.836792 -2.21875l1.203125 0.140625q-0.28125 1.0625 -1.0625 1.65625q-0.765625 0.578125 -1.96875 0.578125q-1.515625 0 -2.40625 -0.9375q-0.890625 -0.9375 -0.890625 -2.609375q0 -1.75 0.890625 -2.703125q0.90625 -0.96875 2.34375 -0.96875q1.390625 0 2.265625 0.9375q0.875 0.9375 0.875 2.65625q0 0.109375 0 0.3125l-5.15625 0q0.0625 1.140625 0.640625 1.75q0.578125 0.59375 1.4375 0.59375q0.65625 0 1.109375 -0.328125q0.453125 -0.34375 0.71875 -1.078125zm-3.84375 -1.90625l3.859375 0q-0.078125 -0.859375 -0.4375 -1.296875q-0.5625 -0.6875 -1.453125 -0.6875q-0.8125 0 -1.359375 0.546875q-0.546875 0.53125 -0.609375 1.4375zm6.5218506 4.125l0 -6.90625l1.0625 0l0 0.984375q0.75 -1.140625 2.1875 -1.140625q0.625 0 1.15625 0.21875q0.53125 0.21875 0.78125 0.59375q0.265625 0.359375 0.375 0.859375q0.0625 0.328125 0.0625 1.140625l0 4.25l-1.171875 0l0 -4.203125q0 -0.71875 -0.140625 -1.0625q-0.140625 -0.359375 -0.484375 -0.5625q-0.34375 -0.21875 -0.8125 -0.21875q-0.75 0 -1.296875 0.46875q-0.546875 0.46875 -0.546875 1.796875l0 3.78125l-1.171875 0zm9.974976 -1.046875l0.171875 1.03125q-0.5 0.109375 -0.890625 0.109375q-0.640625 0 -1.0 -0.203125q-0.34375 -0.203125 -0.484375 -0.53125q-0.140625 -0.328125 -0.140625 -1.390625l0 -3.96875l-0.859375 0l0 -0.90625l0.859375 0l0 -1.71875l1.171875 -0.703125l0 2.421875l1.171875 0l0 0.90625l-1.171875 0l0 4.046875q0 0.5 0.046875 0.640625q0.0625 0.140625 0.203125 0.234375q0.140625 0.078125 0.40625 0.078125q0.203125 0 0.515625 -0.046875z" fill-rule="nonzero"/><path fill="#ffffff" d="m222.85112 163.28072c0.09754944 -0.2922058 0.18197632 -0.8495178 0.5853119 -1.7532806c0.4033203 -0.9037628 1.0004272 -2.069992 1.8346405 -3.6692963c0.83421326 -1.599289 2.030182 -4.0489807 3.1706085 -5.9264984c1.1404114 -1.8775177 2.3228302 -3.6006165 3.6719055 -5.3385925c1.3490906 -1.7379608 2.8092804 -3.3228302 4.422577 -5.0892334c1.6132965 -1.7664032 3.3937073 -3.8263397 5.2572174 -5.509186c1.8635254 -1.6828461 4.2830353 -3.3503876 5.923889 -4.587921c1.6408539 -1.2375336 2.3499603 -1.8775177 3.9212646 -2.8372803c1.5713043 -0.9597473 3.6985931 -1.9894943 5.506546 -2.921257c1.8079834 -0.93175507 3.8390198 -2.015747 5.341217 -2.6692886c1.5021973 -0.65354156 2.8792725 -0.9877548 3.6719055 -1.2519684c0.7926636 -0.2642212 0.9033203 -0.27777863 1.0839844 -0.33333588" fill-rule="evenodd"/><path stroke="#ffffff" stroke-width="2.0" stroke-linejoin="round" stroke-linecap="butt" d="m222.85112 163.28072c0.09754944 -0.2922058 0.18197632 -0.8495178 0.5853119 -1.7532806c0.4033203 -0.9037628 1.0004272 -2.069992 1.8346405 -3.6692963c0.83421326 -1.599289 2.030182 -4.0489807 3.1706085 -5.9264984c1.1404114 -1.8775177 2.3228302 -3.6006165 3.6719055 -5.3385925c1.3490906 -1.7379608 2.8092804 -3.3228302 4.422577 -5.0892334c1.6132965 -1.7664032 3.3937073 -3.8263397 5.2572174 -5.509186c1.8635254 -1.6828461 4.2830353 -3.3503876 5.923889 -4.587921c1.6408539 -1.2375336 2.3499603 -1.8775177 3.9212646 -2.8372803c1.5713043 -0.9597473 3.6985931 -1.9894943 5.506546 -2.921257c1.8079834 -0.93175507 3.8390198 -2.015747 5.341217 -2.6692886c1.5021973 -0.65354156 2.8792725 -0.9877548 3.6719055 -1.2519684c0.7926636 -0.2642212 0.9033203 -0.27777863 1.0839844 -0.33333588" fill-rule="evenodd"/><path fill="#ffffff" d="m222.28777 163.99721c1.1396637 0.15893555 4.9941864 1.2047119 6.837982 0.953537c1.8437958 -0.25117493 3.2142181 -1.324295 4.2247925 -2.4605713c1.0105896 -1.1362762 1.3560638 -4.0289307 1.8386688 -4.357071c0.48262024 -0.328125 0.24291992 1.6364594 1.0570068 2.3882751c0.8140869 0.75183105 2.271164 2.0066376 3.82753 2.1226807c1.5563812 0.11604309 4.214264 -0.8487396 5.5106964 -1.4264221c1.2964172 -0.57766724 1.434555 -1.4466248 2.267868 -2.0396423c0.8332977 -0.59303284 2.108078 -0.43920898 2.7319794 -1.5184937c0.6238861 -1.0792847 1.1351013 -3.363617 1.0113983 -4.957245c-0.12371826 -1.5936127 -1.7489166 -3.9625244 -1.7536316 -4.6044464c-0.0047302246 -0.641922 1.0210571 0.67030334 1.7253113 0.7529144c0.7042694 0.082611084 1.0091095 0.28129578 2.5002441 -0.25727844c1.4911499 -0.5385742 5.0188446 -1.8255615 6.4466095 -2.9741974c1.4277649 -1.1486359 1.7918396 -2.4439697 2.1199036 -3.917633c0.32809448 -1.4736481 0.011779785 -3.4958038 -0.15148926 -4.924286c-0.16323853 -1.4284668 -0.33688354 -2.7213593 -0.8279724 -3.646576c-0.49111938 -0.9252167 -1.8888855 -1.7177887 -2.1186829 -1.9047089c-0.22979736 -0.1869049 0.14257812 0.77201843 0.7399292 0.78323364c0.59732056 0.01121521 2.0056763 -0.30171204 2.8440247 -0.7159424c0.8383484 -0.41423035 1.5801697 -1.0640869 2.1860046 -1.7694092c0.60580444 -0.70532227 1.2052307 -1.6485901 1.4488525 -2.4625473c0.24362183 -0.8139572 0.04547119 -1.3620911 0.012878418 -2.4211884c-0.032592773 -1.0590897 -0.17364502 -3.2778015 -0.20837402 -3.9333572" fill-rule="evenodd"/><path stroke="#000000" stroke-width="1.0" stroke-linejoin="round" stroke-linecap="butt" d="m222.28777 163.99721c1.1396637 0.15893555 4.9941864 1.2047119 6.837982 0.953537c1.8437958 -0.25117493 3.2142181 -1.324295 4.2247925 -2.4605713c1.0105896 -1.1362762 1.3560638 -4.0289307 1.8386688 -4.357071c0.48262024 -0.328125 0.24291992 1.6364594 1.0570068 2.3882751c0.8140869 0.75183105 2.271164 2.0066376 3.82753 2.1226807c1.5563812 0.11604309 4.214264 -0.8487396 5.5106964 -1.4264221c1.2964172 -0.57766724 1.434555 -1.4466248 2.267868 -2.0396423c0.8332977 -0.59303284 2.108078 -0.43920898 2.7319794 -1.5184937c0.6238861 -1.0792847 1.1351013 -3.363617 1.0113983 -4.957245c-0.12371826 -1.5936127 -1.7489166 -3.9625244 -1.7536316 -4.6044464c-0.0047302246 -0.641922 1.0210571 0.67030334 1.7253113 0.7529144c0.7042694 0.082611084 1.0091095 0.28129578 2.5002441 -0.25727844c1.4911499 -0.5385742 5.0188446 -1.8255615 6.4466095 -2.9741974c1.4277649 -1.1486359 1.7918396 -2.4439697 2.1199036 -3.917633c0.32809448 -1.4736481 0.011779785 -3.4958038 -0.15148926 -4.924286c-0.16323853 -1.4284668 -0.33688354 -2.7213593 -0.8279724 -3.646576c-0.49111938 -0.9252167 -1.8888855 -1.7177887 -2.1186829 -1.9047089c-0.22979736 -0.1869049 0.14257812 0.77201843 0.7399292 0.78323364c0.59732056 0.01121521 2.0056763 -0.30171204 2.8440247 -0.7159424c0.8383484 -0.41423035 1.5801697 -1.0640869 2.1860046 -1.7694092c0.60580444 -0.70532227 1.2052307 -1.6485901 1.4488525 -2.4625473c0.24362183 -0.8139572 0.04547119 -1.3620911 0.012878418 -2.4211884c-0.032592773 -1.0590897 -0.17364502 -3.2778015 -0.20837402 -3.9333572" fill-rule="evenodd"/><path fill="#6aa84f" d="m185.11131 103.562l0 0c0 -20.847656 16.900375 -37.74803 37.74803 -37.74803l0 0c10.011398 0 19.612762 3.9770203 26.691895 11.056145c7.079132 7.079132 11.056152 16.680489 11.056152 26.691887l0 0c0 20.847664 -16.900375 37.74803 -37.748047 37.74803l0 0c-20.847656 0 -37.74803 -16.900368 -37.74803 -37.74803z" fill-rule="evenodd"/><path stroke="#000000" stroke-width="1.0" stroke-linejoin="round" stroke-linecap="butt" d="m185.11131 103.562l0 0c0 -20.847656 16.900375 -37.74803 37.74803 -37.74803l0 0c10.011398 0 19.612762 3.9770203 26.691895 11.056145c7.079132 7.079132 11.056152 16.680489 11.056152 26.691887l0 0c0 20.847664 -16.900375 37.74803 -37.748047 37.74803l0 0c-20.847656 0 -37.74803 -16.900368 -37.74803 -37.74803z" fill-rule="evenodd"/><path fill="#ffffff" d="m204.43248 108.362l0 -9.546875l3.59375 0q1.09375 0 1.75 0.296875q0.65625 0.28125 1.03125 0.890625q0.375 0.609375 0.375 1.265625q0 0.609375 -0.34375 1.15625q-0.328125 0.53125 -0.984375 0.859375q0.859375 0.25 1.328125 0.875q0.46875 0.609375 0.46875 1.4375q0 0.671875 -0.296875 1.25q-0.28125 0.578125 -0.703125 0.890625q-0.40625 0.3125 -1.03125 0.46875q-0.625 0.15625 -1.546875 0.15625l-3.640625 0zm1.265625 -5.53125l2.0625 0q0.84375 0 1.203125 -0.109375q0.484375 -0.140625 0.71875 -0.46875q0.25 -0.34375 0.25 -0.84375q0 -0.46875 -0.234375 -0.828125q-0.21875 -0.359375 -0.640625 -0.5q-0.421875 -0.140625 -1.453125 -0.140625l-1.90625 0l0 2.890625zm0 4.40625l2.375 0q0.609375 0 0.859375 -0.046875q0.4375 -0.078125 0.734375 -0.25q0.296875 -0.1875 0.484375 -0.53125q0.1875 -0.359375 0.1875 -0.8125q0 -0.53125 -0.28125 -0.921875q-0.265625 -0.40625 -0.75 -0.5625q-0.484375 -0.15625 -1.40625 -0.15625l-2.203125 0l0 3.28125zm7.0928802 -2.328125q0 -1.921875 1.078125 -2.84375q0.890625 -0.765625 2.171875 -0.765625q1.421875 0 2.328125 0.9375q0.90625 0.921875 0.90625 2.578125q0 1.328125 -0.40625 2.09375q-0.390625 0.765625 -1.15625 1.1875q-0.765625 0.421875 -1.671875 0.421875q-1.453125 0 -2.359375 -0.921875q-0.890625 -0.9375 -0.890625 -2.6875zm1.203125 0q0 1.328125 0.578125 1.984375q0.59375 0.65625 1.46875 0.65625q0.875 0 1.453125 -0.65625q0.578125 -0.671875 0.578125 -2.03125q0 -1.28125 -0.59375 -1.9375q-0.578125 -0.65625 -1.4375 -0.65625q-0.875 0 -1.46875 0.65625q-0.578125 0.65625 -0.578125 1.984375zm6.6468506 3.453125l0 -6.90625l1.0625 0l0 0.984375q0.75 -1.140625 2.1875 -1.140625q0.625 0 1.15625 0.21875q0.53125 0.21875 0.78125 0.59375q0.265625 0.359375 0.375 0.859375q0.0625 0.328125 0.0625 1.140625l0 4.25l-1.171875 0l0 -4.203125q0 -0.71875 -0.140625 -1.0625q-0.140625 -0.359375 -0.484375 -0.5625q-0.34375 -0.21875 -0.8125 -0.21875q-0.75 0 -1.296875 0.46875q-0.546875 0.46875 -0.546875 1.796875l0 3.78125l-1.171875 0zm11.943726 0l0 -1.015625q-0.8125 1.171875 -2.1875 1.171875q-0.609375 0 -1.140625 -0.234375q-0.53125 -0.234375 -0.796875 -0.578125q-0.25 -0.359375 -0.359375 -0.875q-0.0625 -0.34375 -0.0625 -1.09375l0 -4.28125l1.171875 0l0 3.828125q0 0.921875 0.0625 1.234375q0.109375 0.46875 0.46875 0.734375q0.359375 0.25 0.890625 0.25q0.515625 0 0.984375 -0.265625q0.46875 -0.265625 0.65625 -0.734375q0.1875 -0.46875 0.1875 -1.34375l0 -3.703125l1.171875 0l0 6.90625l-1.046875 0zm2.4124756 -2.0625l1.15625 -0.1875q0.109375 0.703125 0.546875 1.078125q0.453125 0.359375 1.25 0.359375q0.8125 0 1.203125 -0.328125q0.390625 -0.328125 0.390625 -0.765625q0 -0.390625 -0.359375 -0.625q-0.234375 -0.15625 -1.1875 -0.390625q-1.296875 -0.328125 -1.796875 -0.5625q-0.484375 -0.25 -0.75 -0.65625q-0.25 -0.421875 -0.25 -0.9375q0 -0.453125 0.203125 -0.84375q0.21875 -0.40625 0.578125 -0.671875q0.28125 -0.1875 0.75 -0.328125q0.46875 -0.140625 1.015625 -0.140625q0.8125 0 1.421875 0.234375q0.609375 0.234375 0.90625 0.640625q0.296875 0.390625 0.40625 1.0625l-1.140625 0.15625q-0.078125 -0.53125 -0.453125 -0.828125q-0.375 -0.3125 -1.0625 -0.3125q-0.8125 0 -1.15625 0.265625q-0.34375 0.265625 -0.34375 0.625q0 0.234375 0.140625 0.421875q0.15625 0.1875 0.453125 0.3125q0.171875 0.0625 1.03125 0.296875q1.25 0.328125 1.734375 0.546875q0.5 0.203125 0.78125 0.609375q0.28125 0.40625 0.28125 1.0q0 0.59375 -0.34375 1.109375q-0.34375 0.515625 -1.0 0.796875q-0.640625 0.28125 -1.453125 0.28125q-1.34375 0 -2.046875 -0.5625q-0.703125 -0.5625 -0.90625 -1.65625z" fill-rule="nonzero"/><path fill="#ffffff" d="m179.51352 102.13093c0.09754944 -0.29221344 0.18197632 -0.8495178 0.58529663 -1.7532806c0.40333557 -0.9037628 1.0004425 -2.069992 1.8346558 -3.6692886c0.834198 -1.5993042 2.030182 -4.048996 3.1705933 -5.9265137c1.1404266 -1.8775101 2.3228455 -3.6006088 3.6719208 -5.3385773c1.3490906 -1.7379761 2.8092804 -3.3228378 4.422577 -5.089241c1.6132965 -1.7664032 3.393692 -3.826332 5.2572174 -5.509186c1.8635101 -1.6828537 4.28302 -3.3503952 5.923889 -4.587929c1.6408539 -1.2375336 2.349945 -1.8775177 3.9212494 -2.8372726c1.5713043 -0.95975494 3.6986084 -1.989502 5.5065613 -2.921257c1.8079681 -0.9317589 3.8390198 -2.015747 5.341217 -2.6692924c1.502182 -0.65354156 2.8792572 -0.987751 3.6719055 -1.2519684c0.7926483 -0.26421738 0.9033356 -0.27777863 1.0839996 -0.33333206" fill-rule="evenodd"/><path stroke="#ffffff" stroke-width="2.0" stroke-linejoin="round" stroke-linecap="butt" d="m179.51352 102.13093c0.09754944 -0.29221344 0.18197632 -0.8495178 0.58529663 -1.7532806c0.40333557 -0.9037628 1.0004425 -2.069992 1.8346558 -3.6692886c0.834198 -1.5993042 2.030182 -4.048996 3.1705933 -5.9265137c1.1404266 -1.8775101 2.3228455 -3.6006088 3.6719208 -5.3385773c1.3490906 -1.7379761 2.8092804 -3.3228378 4.422577 -5.089241c1.6132965 -1.7664032 3.393692 -3.826332 5.2572174 -5.509186c1.8635101 -1.6828537 4.28302 -3.3503952 5.923889 -4.587929c1.6408539 -1.2375336 2.349945 -1.8775177 3.9212494 -2.8372726c1.5713043 -0.95975494 3.6986084 -1.989502 5.5065613 -2.921257c1.8079681 -0.9317589 3.8390198 -2.015747 5.341217 -2.6692924c1.502182 -0.65354156 2.8792572 -0.987751 3.6719055 -1.2519684c0.7926483 -0.26421738 0.9033356 -0.27777863 1.0839996 -0.33333206" fill-rule="evenodd"/><path fill="#ffffff" d="m177.94887 103.514946c1.1396637 0.15892029 4.9941864 1.2047119 6.837982 0.953537c1.8437958 -0.25117493 3.2142334 -1.3243103 4.2248077 -2.460579c1.0105743 -1.1362762 1.3560486 -4.0289307 1.8386688 -4.3570633c0.48260498 -0.32813263 0.24291992 1.6364517 1.0570068 2.3882751c0.8140869 0.7518234 2.271164 2.0066376 3.82753 2.1226807c1.556366 0.11604309 4.214264 -0.84874725 5.5106964 -1.4264221c1.2964172 -0.5776825 1.434555 -1.4466324 2.2678528 -2.0396576c0.833313 -0.5930252 2.1080933 -0.43919373 2.7319794 -1.518486c0.62390137 -1.0792847 1.1351013 -3.3636246 1.0113983 -4.9572372c-0.123703 -1.5936127 -1.7489166 -3.962532 -1.7536316 -4.604454c-0.004714966 -0.641922 1.0210724 0.670311 1.7253265 0.7529144c0.70425415 0.082603455 1.0090942 0.2813034 2.5002441 -0.25727844c1.4911346 -0.53858185 5.01886 -1.8255615 6.4466095 -2.9741974c1.4277496 -1.1486359 1.7918396 -2.4439774 2.1199036 -3.9176254c0.32807922 -1.4736557 0.011764526 -3.4958115 -0.15148926 -4.924286c-0.16323853 -1.4284744 -0.33688354 -2.721367 -0.8279877 -3.646576c-0.49110413 -0.9252167 -1.8888702 -1.7177963 -2.1186676 -1.9047089c-0.2297821 -0.18691254 0.14259338 0.7720108 0.73991394 0.783226c0.59732056 0.01121521 2.0056915 -0.30171204 2.8440247 -0.7159424c0.8383484 -0.41422272 1.5801849 -1.0640793 2.1860046 -1.7694092c0.60580444 -0.70532227 1.2052307 -1.6485901 1.4488525 -2.4625473c0.24363708 -0.8139496 0.04547119 -1.3620911 0.012878418 -2.4211807c-0.032577515 -1.0590935 -0.17362976 -3.2778053 -0.20835876 -3.9333687" fill-rule="evenodd"/><path stroke="#000000" stroke-width="1.0" stroke-linejoin="round" stroke-linecap="butt" d="m177.94887 103.514946c1.1396637 0.15892029 4.9941864 1.2047119 6.837982 0.953537c1.8437958 -0.25117493 3.2142334 -1.3243103 4.2248077 -2.460579c1.0105743 -1.1362762 1.3560486 -4.0289307 1.8386688 -4.3570633c0.48260498 -0.32813263 0.24291992 1.6364517 1.0570068 2.3882751c0.8140869 0.7518234 2.271164 2.0066376 3.82753 2.1226807c1.556366 0.11604309 4.214264 -0.84874725 5.5106964 -1.4264221c1.2964172 -0.5776825 1.434555 -1.4466324 2.2678528 -2.0396576c0.833313 -0.5930252 2.1080933 -0.43919373 2.7319794 -1.518486c0.62390137 -1.0792847 1.1351013 -3.3636246 1.0113983 -4.9572372c-0.123703 -1.5936127 -1.7489166 -3.962532 -1.7536316 -4.604454c-0.004714966 -0.641922 1.0210724 0.670311 1.7253265 0.7529144c0.70425415 0.082603455 1.0090942 0.2813034 2.5002441 -0.25727844c1.4911346 -0.53858185 5.01886 -1.8255615 6.4466095 -2.9741974c1.4277496 -1.1486359 1.7918396 -2.4439774 2.1199036 -3.9176254c0.32807922 -1.4736557 0.011764526 -3.4958115 -0.15148926 -4.924286c-0.16323853 -1.4284744 -0.33688354 -2.721367 -0.8279877 -3.646576c-0.49110413 -0.9252167 -1.8888702 -1.7177963 -2.1186676 -1.9047089c-0.2297821 -0.18691254 0.14259338 0.7720108 0.73991394 0.783226c0.59732056 0.01121521 2.0056915 -0.30171204 2.8440247 -0.7159424c0.8383484 -0.41422272 1.5801849 -1.0640793 2.1860046 -1.7694092c0.60580444 -0.70532227 1.2052307 -1.6485901 1.4488525 -2.4625473c0.24363708 -0.8139496 0.04547119 -1.3620911 0.012878418 -2.4211807c-0.032577515 -1.0590935 -0.17362976 -3.2778053 -0.20835876 -3.9333687" fill-rule="evenodd"/><g filter="url(#shadowFilter-p.2)"><use xlink:href="#p.2" transform="matrix(1.0 0.0 0.0 1.0 0.0 2.0)"/></g><defs><filter id="shadowFilter-p.2" filterUnits="userSpaceOnUse"><feGaussianBlur in="SourceAlpha" stdDeviation="2.0" result="blur"/><feComponentTransfer in="blur" color-interpolation-filters="sRGB"><feFuncR type="linear" slope="0" intercept="0.0"/><feFuncG type="linear" slope="0" intercept="0.0"/><feFuncB type="linear" slope="0" intercept="0.0"/><feFuncA type="linear" slope="0.5" intercept="0"/></feComponentTransfer></filter></defs><g id="p.2"><path fill="#d9ead3" d="m198.8084 176.23622l-54.771652 0l0 51.716537l54.771652 0z" fill-rule="evenodd"/><path fill="#000000" d="m154.53925 194.67685q1.4375 0 1.4375 0.734375q0 0.546875 -0.796875 1.265625q-1.1875 1.09375 -3.1875 1.734375q-0.09375 0 -0.203125 -0.1875q-0.109375 -0.171875 -0.171875 -0.265625q-0.046875 -0.109375 -0.078125 -0.125q1.5 -0.5 2.453125 -1.203125q0.65625 -0.46875 0.65625 -0.765625q0 -0.296875 -0.765625 -0.296875q-0.765625 0 -2.25 0.359375q-0.6875 -0.03125 -1.171875 -0.484375q-0.4375 -0.40625 -0.4375 -0.8125q0 -0.40625 0.234375 -0.75q0.234375 -0.34375 0.625 -0.640625q0.390625 -0.3125 0.921875 -0.546875q1.265625 -0.625 2.640625 -0.625q0.40625 0 0.78125 0.078125q0.3125 0 0.359375 0.28125q0.046875 0.265625 0.046875 0.890625q-0.765625 -0.34375 -1.71875 -0.34375q-1.203125 0 -1.984375 0.484375q-0.8125 0.46875 -0.828125 1.21875q0 0.359375 0.53125 0.359375l0.953125 -0.09375q1.21875 -0.265625 1.953125 -0.265625zm3.330719 3.15625q-0.546875 0.21875 -0.71875 0.21875q-0.171875 0 -0.234375 -0.03125q-0.0625 -0.046875 -0.140625 -0.1875q0 -0.4375 0.03125 -1.078125q0.03125 -0.65625 0.046875 -1.390625q0.03125 -0.75 0.03125 -1.5q0 -0.765625 -0.078125 -1.390625q0 -0.40625 0.5625 -0.40625q0.125 0 0.1875 0.46875q0.078125 0.46875 0.109375 0.734375q0.046875 0.25 0.0625 0.359375q0.34375 -0.609375 1.34375 -0.953125q0.53125 -0.171875 1.0 -0.171875q0.46875 0 0.828125 0.109375q0.359375 0.109375 0.609375 0.40625q0.265625 0.296875 0.265625 0.765625q0.328125 -0.625 1.515625 -1.140625q1.078125 -0.484375 1.9375 -0.484375q1.234375 0 1.21875 0.9375l0.265625 4.84375q0 0.0625 -0.375 0.09375q-0.734375 0.046875 -0.734375 -0.125q-0.015625 -0.265625 -0.015625 -0.53125l0.078125 -2.09375q0 -1.46875 -0.296875 -2.328125q-0.859375 0.0625 -1.328125 0.28125q-0.453125 0.21875 -0.8125 0.546875q-0.34375 0.3125 -0.609375 0.84375q-0.609375 1.1875 -0.609375 3.171875q-0.078125 0.265625 -0.515625 0.265625q-0.28125 0 -0.46875 -0.09375q-0.1875 -0.09375 -0.140625 -0.171875q0.25 -1.375 0.25 -2.140625q0 -0.625 -0.125 -1.171875q-0.125 -0.546875 -0.3125 -1.265625q-1.875 0 -2.515625 1.5q-0.296875 0.65625 -0.328125 1.234375q-0.03125 0.578125 -0.03125 1.0q0 0.40625 0.046875 0.875zm14.4048 -1.953125q-0.984375 1.53125 -2.609375 1.890625q-0.375 0.078125 -0.6875 0.078125q-0.296875 0 -0.5 0q-0.203125 0 -0.453125 -0.046875q-0.25 -0.0625 -0.453125 -0.1875q-0.484375 -0.265625 -0.484375 -0.765625q-0.046875 -0.234375 -0.046875 -0.515625q0 -0.296875 0.125 -0.78125q0.140625 -0.484375 0.484375 -1.046875q0.34375 -0.5625 0.828125 -1.03125q1.03125 -0.984375 2.234375 -1.265625q0.34375 -0.078125 0.640625 -0.078125q0.296875 0 0.53125 0.03125q0.75 0 1.015625 1.03125q0.171875 0.65625 0.203125 1.828125q0.03125 1.15625 0.0625 1.796875q0.03125 0.625 0.15625 1.140625l-0.765625 0q-0.046875 -0.34375 -0.078125 -0.609375q-0.015625 -0.28125 -0.046875 -0.515625q-0.0625 -0.546875 -0.15625 -0.953125zm-0.046875 -2.015625q0 -0.765625 -0.75 -0.765625q-0.09375 -0.015625 -0.1875 -0.015625q-0.9375 0 -2.0 0.921875q-0.5 0.40625 -0.84375 0.9375q-0.515625 0.734375 -0.515625 1.328125q0 0.765625 0.875 0.90625q1.171875 -0.03125 2.25 -1.0625q0.453125 -0.453125 0.75 -1.0q0.421875 -0.703125 0.421875 -1.25zm1.9374542 -0.875q-0.015625 -0.703125 -0.046875 -1.25q-0.03125 -0.5625 -0.03125 -0.828125q0 -0.265625 -0.21875 -1.3125q0.125 -0.15625 0.234375 -0.296875q0.109375 -0.140625 0.3125 -0.140625q0.453125 0 0.703125 3.84375q0.140625 2.21875 0.140625 4.453125q0 0.59375 -0.84375 0.59375l-0.09375 -0.015625q0 -0.671875 -0.046875 -1.71875q-0.03125 -1.0625 -0.0625 -1.84375q-0.015625 -0.78125 -0.046875 -1.484375zm2.0955353 0q-0.015625 -0.703125 -0.046875 -1.25q-0.03125 -0.5625 -0.03125 -0.828125q0 -0.265625 -0.21875 -1.3125q0.125 -0.15625 0.234375 -0.296875q0.109375 -0.140625 0.3125 -0.140625q0.453125 0 0.703125 3.84375q0.140625 2.21875 0.140625 4.453125q0 0.59375 -0.84375 0.59375l-0.09375 -0.015625q0 -0.671875 -0.046875 -1.71875q-0.03125 -1.0625 -0.0625 -1.84375q-0.015625 -0.78125 -0.046875 -1.484375zm4.5174103 4.140625q1.15625 0 3.453125 -1.046875q0.140625 0 0.234375 0.109375q0.09375 0.09375 0.09375 0.21875q-0.515625 0.890625 -2.0 1.390625q-1.46875 0.484375 -2.734375 0.15625q-1.453125 -0.375 -1.765625 -1.625q-0.015625 -0.25 -0.015625 -0.65625q0 -0.421875 0.203125 -1.109375q0.21875 -0.6875 0.734375 -1.296875q0.53125 -0.609375 1.234375 -0.953125q0.703125 -0.359375 1.5 -0.359375q0.75 0 1.6875 0.515625q0.4375 0.25 0.703125 0.5625q0.265625 0.3125 0.265625 0.640625q0 0.09375 -0.015625 0.1875q-0.03125 0.78125 -0.765625 1.0q-0.328125 0.09375 -0.765625 0.09375l-1.875 -0.078125q-0.9375 0 -1.421875 0.390625q-0.296875 0.234375 -0.40625 0.671875q0.328125 1.1875 1.65625 1.1875zm2.328125 -4.015625q-0.296875 -0.21875 -0.609375 -0.3125q-0.3125 -0.09375 -0.515625 -0.09375q-0.203125 0 -0.671875 0.140625q-0.46875 0.140625 -0.84375 0.3125q-0.890625 0.40625 -0.890625 0.859375q1.046875 0.09375 1.5625 0.09375q1.4375 0 1.953125 -0.25q0.3125 -0.125 0.3125 -0.3125q0 -0.234375 -0.296875 -0.4375zm8.616974 0.171875q-0.53125 -0.390625 -1.390625 -0.390625q-0.8125 0 -1.5 0.296875q-1.3125 0.546875 -1.78125 1.40625q-0.21875 0.390625 -0.21875 0.828125q0 0.078125 0 0.4375q0 0.359375 0.125 0.96875q0.140625 0.609375 0.140625 1.234375q-0.28125 0 -0.453125 0.046875q-0.15625 0.0625 -0.28125 0.0625q-0.109375 0 -0.203125 -0.109375q-0.078125 -0.09375 -0.1875 -0.390625q-0.015625 -0.078125 -0.0625 -0.4375q-0.03125 -0.375 -0.09375 -0.890625q-0.046875 -0.53125 -0.125 -1.140625q-0.0625 -0.625 -0.125 -1.21875q-0.15625 -1.296875 -0.234375 -1.921875q0 -0.3125 0.46875 -0.3125q0.265625 0 0.421875 0.234375q0.15625 0.234375 0.25 0.53125q0.09375 0.28125 0.125 0.578125q0.03125 0.28125 0.0625 0.390625q1.71875 -1.53125 4.265625 -1.53125q0.28125 0 0.59375 0.015625q0.078125 -0.015625 0.1875 -0.015625q0.125 0 0.25 0.15625q0.140625 0.1875 0.140625 0.4375q0 0.65625 -0.375 0.734375z" fill-rule="nonzero"/><path fill="#000000" d="m157.06909 206.48935l-0.03125 -1.6875q0 -0.203125 0.140625 -0.3125q0.140625 -0.125 0.34375 -0.125q0.21875 0 0.390625 0.109375q0.171875 0.109375 0.125 0.3125l0.09375 5.625q0.8125 -1.09375 2.21875 -1.84375q1.15625 -0.625 2.03125 -0.625q0.765625 0 1.171875 0.5q0.3125 0.390625 0.3125 1.03125q0 0.640625 -0.25 1.125q-0.234375 0.46875 -0.625 0.90625q-0.375 0.4375 -0.890625 0.8125q-0.5 0.375 -1.03125 0.671875q-0.984375 0.578125 -1.953125 0.953125q-0.078125 -0.015625 -0.265625 0q-0.171875 0 -0.4375 0q-0.703125 0 -1.234375 -0.171875q-0.125 -1.234375 -0.125 -3.75l0.015625 -3.53125zm1.09375 6.390625q0 0.140625 0.265625 0.140625q0.28125 0 0.671875 -0.09375q0.390625 -0.109375 0.9375 -0.359375q0.546875 -0.265625 1.109375 -0.671875q1.3125 -0.921875 1.96875 -2.171875q-0.171875 -0.734375 -1.015625 -0.734375q-0.765625 0 -1.734375 0.5625q-1.359375 0.828125 -1.953125 2.03125q-0.25 0.484375 -0.25 0.984375q0 0.125 0 0.203125q0 0.078125 0 0.109375zm7.4840546 -4.96875q0.171875 2.4375 0.296875 5.640625q-0.078125 0.40625 -0.625 0.40625q-0.140625 0 -0.296875 -0.046875q-0.15625 -0.0625 -0.1875 -0.171875l0 -5.828125l0.8125 0zm-1.203125 -1.765625q0 -0.453125 0.53125 -0.453125q0.359375 0 0.578125 0.15625q0.03125 0.140625 0.03125 0.28125q0 0.140625 -0.09375 0.265625q-0.109375 0.125 -0.328125 0.125q-0.203125 0 -0.40625 -0.09375q-0.203125 -0.09375 -0.3125 -0.28125zm4.017441 6.640625l0.03125 -2.078125q0 -0.5 -0.09375 -0.84375l-2.015625 0l-0.03125 -0.90625l1.953125 0l0 -3.359375q0.046875 -0.109375 0.15625 -0.234375q0.1875 -0.171875 0.3125 -0.171875q0.125 0 0.203125 0.03125q0.09375 0.015625 0.203125 0.171875q0.203125 0.859375 0.203125 2.59375q0 0.421875 0.046875 0.84375q0.421875 -0.0625 0.828125 -0.0625q0 0 0.6875 0q0.234375 0 0.453125 -0.015625l-0.046875 0.9375l-1.890625 -0.0625l0.0625 4.5q-0.234375 0.09375 -0.40625 0.09375q-0.65625 0 -0.65625 -1.4375zm6.0760193 0.34375q1.15625 0 3.453125 -1.046875q0.140625 0 0.234375 0.109375q0.09375 0.09375 0.09375 0.21875q-0.515625 0.890625 -2.0 1.390625q-1.46875 0.484375 -2.734375 0.15625q-1.453125 -0.375 -1.765625 -1.625q-0.015625 -0.25 -0.015625 -0.65625q0 -0.421875 0.203125 -1.109375q0.21875 -0.6875 0.734375 -1.296875q0.53125 -0.609375 1.234375 -0.953125q0.703125 -0.359375 1.5 -0.359375q0.75 0 1.6875 0.515625q0.4375 0.25 0.703125 0.5625q0.265625 0.3125 0.265625 0.640625q0 0.09375 -0.015625 0.1875q-0.03125 0.78125 -0.765625 1.0q-0.328125 0.09375 -0.765625 0.09375l-1.875 -0.078125q-0.9375 0 -1.421875 0.390625q-0.296875 0.234375 -0.40625 0.671875q0.328125 1.1875 1.65625 1.1875zm2.328125 -4.015625q-0.296875 -0.21875 -0.609375 -0.3125q-0.3125 -0.09375 -0.515625 -0.09375q-0.203125 0 -0.671875 0.140625q-0.46875 0.140625 -0.84375 0.3125q-0.890625 0.40625 -0.890625 0.859375q1.046875 0.09375 1.5625 0.09375q1.4375 0 1.953125 -0.25q0.3125 -0.125 0.3125 -0.3125q0 -0.234375 -0.296875 -0.4375zm6.679474 1.5625q1.4375 0 1.4375 0.734375q0 0.546875 -0.796875 1.265625q-1.1875 1.09375 -3.1875 1.734375q-0.09375 0 -0.203125 -0.1875q-0.109375 -0.171875 -0.171875 -0.265625q-0.046875 -0.109375 -0.078125 -0.125q1.5 -0.5 2.453125 -1.203125q0.65625 -0.46875 0.65625 -0.765625q0 -0.296875 -0.765625 -0.296875q-0.765625 0 -2.25 0.359375q-0.6875 -0.03125 -1.171875 -0.484375q-0.4375 -0.40625 -0.4375 -0.8125q0 -0.40625 0.234375 -0.75q0.234375 -0.34375 0.625 -0.640625q0.390625 -0.3125 0.921875 -0.546875q1.265625 -0.625 2.640625 -0.625q0.40625 0 0.78125 0.078125q0.3125 0 0.359375 0.28125q0.046875 0.265625 0.046875 0.890625q-0.765625 -0.34375 -1.71875 -0.34375q-1.203125 0 -1.984375 0.484375q-0.8125 0.46875 -0.828125 1.21875q0 0.359375 0.53125 0.359375l0.953125 -0.09375q1.21875 -0.265625 1.953125 -0.265625z" fill-rule="nonzero"/></g><path fill="#000000" fill-opacity="0.0" d="m171.42258 176.23622c0 -9.015747 7.9606323 -13.523621 15.921249 -18.031494c7.9606323 -4.5078735 15.921265 -9.015747 15.921265 -18.031494" fill-rule="evenodd"/><path stroke="#000000" stroke-width="1.0" stroke-linejoin="round" stroke-linecap="butt" d="m171.42258 176.23622c0 -9.015747 7.9606323 -13.523621 15.921249 -18.031494c3.9803162 -2.2539368 7.9606323 -4.5078735 10.945877 -7.325302c1.4926147 -1.4087067 2.7364655 -2.9582825 3.6071625 -4.7191772l0.062469482 -0.13082886" fill-rule="evenodd"/><path fill="#000000" stroke="#000000" stroke-width="1.0" stroke-linecap="butt" d="m203.57147 146.38889l-0.624527 -4.788788l-2.599762 4.0698547z" fill-rule="evenodd"/><path fill="#000000" fill-opacity="0.0" d="m198.8084 202.09448c7.1181183 0 10.67717 -4.6299133 14.236221 -9.259842c3.5590515 -4.6299133 7.1181183 -9.259842 14.236221 -9.259842" fill-rule="evenodd"/><path stroke="#000000" stroke-width="1.0" stroke-linejoin="round" stroke-linecap="butt" d="m198.8084 202.09448c7.1181183 0 10.67717 -4.6299133 14.236221 -9.259842c1.7795258 -2.3149567 3.5590515 -4.6299133 5.7834625 -6.3661346c0.55610657 -0.4340515 1.1400146 -0.8319397 1.7586823 -1.1846161c0.15466309 -0.08816528 0.31149292 -0.17350769 0.47061157 -0.25587463c0.079559326 -0.04119873 0.15969849 -0.08163452 0.24040222 -0.12130737l0.11997986 -0.05744934" fill-rule="evenodd"/><path fill="#000000" stroke="#000000" stroke-width="1.0" stroke-linecap="butt" d="m221.7686 186.4633l4.0836945 -2.5779724l-4.785385 -0.65011597z" fill-rule="evenodd"/><path fill="#000000" fill-opacity="0.0" d="m61.03965 213.64566c7.574806 0 15.149605 -5.6850433 15.149605 -11.370071" fill-rule="evenodd"/><path stroke="#000000" stroke-width="1.0" stroke-linejoin="round" stroke-linecap="butt" d="m61.039654 213.64568c3.787403 0 7.5748024 -1.4212646 10.415356 -3.5531616c0.7101364 -0.53297424 1.3610916 -1.1103516 1.9380798 -1.7210388c0.14424896 -0.15267944 0.2838745 -0.30743408 0.41864014 -0.46411133l0.07614136 -0.09068298" fill-rule="evenodd"/><path fill="#000000" stroke="#000000" stroke-width="1.0" stroke-linecap="butt" d="m75.41327 208.45023l0.21525574 -4.8245544l-3.2660522 3.5574646z" fill-rule="evenodd"/></g></svg>