<svg version="1.1" viewBox="0.0 0.0 394.6771653543307 396.9737532808399" fill="none" stroke="none" stroke-linecap="square" stroke-miterlimit="10" xmlns:xlink="http://www.w3.org/1999/xlink" xmlns="http://www.w3.org/2000/svg"><clipPath id="p.0"><path d="m0 0l394.67715 0l0 396.97375l-394.67715 0l0 -396.97375z" clip-rule="nonzero"/></clipPath><g clip-path="url(#p.0)"><path fill="#000000" fill-opacity="0.0" d="m0 0l394.67715 0l0 396.97375l-394.67715 0z" fill-rule="evenodd"/><g filter="url(#shadowFilter-p.1)"><use xlink:href="#p.1" transform=""/></g><defs><filter id="shadowFilter-p.1" filterUnits="userSpaceOnUse"><feGaussianBlur in="SourceAlpha" stdDeviation="5.0" result="blur"/><feComponentTransfer in="blur" color-interpolation-filters="sRGB"><feFuncR type="linear" slope="0" intercept="0.0"/><feFuncG type="linear" slope="0" intercept="0.0"/><feFuncB type="linear" slope="0" intercept="0.0"/><feFuncA type="linear" slope="0.5" intercept="0"/></feComponentTransfer></filter></defs><g id="p.1"><path fill="#d9ead3" d="m10.860892 198.48557l0 0c0 -104.31659 84.5653 -188.8819 188.8819 -188.8819l0 0c50.09459 0 98.137436 19.899998 133.55968 55.32222c35.42221 35.422226 55.322205 83.46508 55.322205 133.55966l0 0c0 104.31659 -84.56531 188.8819 -188.88188 188.8819l0 0c-104.31659 0 -188.8819 -84.56531 -188.8819 -188.8819z" fill-rule="evenodd"/><path stroke="#000000" stroke-width="1.0" stroke-linejoin="round" stroke-linecap="butt" d="m10.860892 198.48557l0 0c0 -104.31659 84.5653 -188.8819 188.8819 -188.8819l0 0c50.09459 0 98.137436 19.899998 133.55968 55.32222c35.42221 35.422226 55.322205 83.46508 55.322205 133.55966l0 0c0 104.31659 -84.56531 188.8819 -188.88188 188.8819l0 0c-104.31659 0 -188.8819 -84.56531 -188.8819 -188.8819z" fill-rule="evenodd"/><path fill="#000000" d="m122.24877 94.726524l2.78125 0.703125q-0.875 3.421875 -3.140625 5.21875q-2.265625 1.796875 -5.546875 1.796875q-3.390625 0 -5.515625 -1.375q-2.125 -1.390625 -3.25 -4.0q-1.109375 -2.625 -1.109375 -5.640625q0 -3.28125 1.25 -5.71875q1.265625 -2.4375 3.578125 -3.703125q2.3125 -1.28125 5.09375 -1.28125q3.140625 0 5.28125 1.609375q2.15625 1.609375 3.0 4.515625l-2.734375 0.640625q-0.71875 -2.296875 -2.109375 -3.328125q-1.390625 -1.046875 -3.5 -1.046875q-2.421875 0 -4.046875 1.15625q-1.625 1.15625 -2.28125 3.109375q-0.65625 1.953125 -0.65625 4.03125q0 2.6875 0.78125 4.6875q0.78125 1.984375 2.421875 2.984375q1.640625 0.984375 3.5625 0.984375q2.34375 0 3.953125 -1.34375q1.625 -1.359375 2.1875 -4.0zm4.914215 -0.25q0 -4.21875 2.3593674 -6.25q1.953125 -1.6875 4.78125 -1.6875q3.125 0 5.109375 2.0625q2.0 2.046875 2.0 5.671875q0 2.921875 -0.875 4.609375q-0.875 1.6875 -2.5625 2.625q-1.6875 0.921875 -3.671875 0.921875q-3.203125 0 -5.171875 -2.046875q-1.9687424 -2.046875 -1.9687424 -5.90625zm2.6562424 0q0 2.921875 1.265625 4.375q1.28125 1.453125 3.21875 1.453125q1.921875 0 3.1875 -1.453125q1.28125 -1.46875 1.28125 -4.453125q0 -2.828125 -1.28125 -4.28125q-1.28125 -1.453125 -3.1875 -1.453125q-1.9375 0 -3.21875 1.453125q-1.265625 1.4375 -1.265625 4.359375zm13.623413 1.3125l0 -2.59375l7.90625 0l0 2.59375l-7.90625 0zm10.25087 -3.921875q0 -5.234375 2.796875 -8.1875q2.8125 -2.953125 7.25 -2.953125q2.90625 0 5.234375 1.390625q2.34375 1.375 3.5625 3.859375q1.234375 2.484375 1.234375 5.640625q0 3.1875 -1.296875 5.71875q-1.28125 2.515625 -3.65625 3.8125q-2.359375 1.296875 -5.09375 1.296875q-2.96875 0 -5.296875 -1.421875q-2.328125 -1.4375 -3.53125 -3.90625q-1.203125 -2.484375 -1.203125 -5.25zm2.859375 0.03125q0 3.796875 2.03125 5.984375q2.046875 2.1875 5.125 2.1875q3.140625 0 5.15625 -2.203125q2.03125 -2.21875 2.03125 -6.265625q0 -2.5625 -0.875 -4.46875q-0.859375 -1.921875 -2.53125 -2.96875q-1.65625 -1.046875 -3.734375 -1.046875q-2.953125 0 -5.078125 2.03125q-2.125 2.015625 -2.125 6.75zm23.265488 10.1875l-4.65625 -15.203125l2.671875 0l2.421875 8.765625l0.90625 3.265625q0.046875 -0.234375 0.78125 -3.125l2.421875 -8.90625l2.640625 0l2.28125 8.8125l0.765625 2.90625l0.875 -2.9375l2.59375 -8.78125l2.515625 0l-4.75 15.203125l-2.6875 0l-2.421875 -9.109375l-0.578125 -2.59375l-3.078125 11.703125l-2.703125 0zm18.382965 0l0 -15.203125l2.3125 0l0 2.15625q1.671875 -2.5 4.84375 -2.5q1.375 0 2.53125 0.5q1.15625 0.484375 1.71875 1.296875q0.578125 0.796875 0.8125 1.890625q0.140625 0.71875 0.140625 2.515625l0 9.34375l-2.578125 0l0 -9.25q0 -1.578125 -0.3125 -2.359375q-0.296875 -0.78125 -1.0625 -1.234375q-0.765625 -0.46875 -1.796875 -0.46875q-1.640625 0 -2.84375 1.046875q-1.1875 1.03125 -1.1875 3.953125l0 8.3125l-2.578125 0zm26.717163 -4.890625l2.65625 0.328125q-0.625 2.328125 -2.328125 3.625q-1.703125 1.28125 -4.359375 1.28125q-3.328125 0 -5.28125 -2.046875q-1.953125 -2.0625 -1.953125 -5.765625q0 -3.84375 1.96875 -5.953125q1.984375 -2.125 5.125 -2.125q3.0625 0 4.984375 2.078125q1.9375 2.0625 1.9375 5.84375q0 0.21875 -0.015625 0.671875l-11.34375 0q0.140625 2.515625 1.421875 3.84375q1.28125 1.328125 3.171875 1.328125q1.421875 0 2.421875 -0.734375q1.0 -0.75 1.59375 -2.375zm-8.46875 -4.171875l8.5 0q-0.171875 -1.921875 -0.96875 -2.875q-1.234375 -1.5 -3.203125 -1.5q-1.765625 0 -2.984375 1.1875q-1.203125 1.1875 -1.34375 3.1875zm14.342163 9.0625l0 -15.203125l2.3125 0l0 2.296875q0.890625 -1.609375 1.640625 -2.125q0.75 -0.515625 1.65625 -0.515625q1.3125 0 2.65625 0.828125l-0.890625 2.390625q-0.953125 -0.5625 -1.890625 -0.5625q-0.84375 0 -1.515625 0.515625q-0.671875 0.5 -0.96875 1.40625q-0.421875 1.375 -0.421875 3.0l0 7.96875l-2.578125 0zm8.76651 -4.546875l2.546875 -0.390625q0.21875 1.53125 1.1875 2.34375q0.984375 0.8125 2.75 0.8125q1.78125 0 2.640625 -0.71875q0.859375 -0.71875 0.859375 -1.703125q0 -0.859375 -0.765625 -1.375q-0.53125 -0.34375 -2.640625 -0.859375q-2.828125 -0.71875 -3.921875 -1.234375q-1.09375 -0.53125 -1.671875 -1.453125q-0.5625 -0.921875 -0.5625 -2.046875q0 -1.015625 0.46875 -1.875q0.46875 -0.875 1.265625 -1.453125q0.609375 -0.4375 1.640625 -0.734375q1.046875 -0.3125 2.234375 -0.3125q1.78125 0 3.125 0.515625q1.359375 0.515625 2.0 1.390625q0.65625 0.875 0.890625 2.359375l-2.515625 0.34375q-0.171875 -1.171875 -1.0 -1.828125q-0.8125 -0.671875 -2.3125 -0.671875q-1.78125 0 -2.546875 0.59375q-0.75 0.578125 -0.75 1.375q0 0.5 0.3125 0.90625q0.3125 0.40625 0.984375 0.6875q0.390625 0.140625 2.28125 0.65625q2.734375 0.734375 3.8125 1.203125q1.078125 0.453125 1.6875 1.34375q0.625 0.890625 0.625 2.203125q0 1.296875 -0.75 2.4375q-0.75 1.125 -2.171875 1.75q-1.421875 0.625 -3.203125 0.625q-2.96875 0 -4.53125 -1.234375q-1.546875 -1.234375 -1.96875 -3.65625zm15.6953125 4.546875l0 -21.0l2.5781097 0l0 7.53125q1.796875 -2.078125 4.546875 -2.078125q1.6875 0 2.9375 0.671875q1.25 0.65625 1.78125 1.828125q0.546875 1.171875 0.546875 3.40625l0 9.640625l-2.578125 0l0 -9.640625q0 -1.9375 -0.84375 -2.8125q-0.84375 -0.875 -2.375 -0.875q-1.140625 0 -2.15625 0.59375q-1.0 0.59375 -1.4375 1.609375q-0.421875 1.015625 -0.421875 2.8125l0 8.3125l-2.5781097 0zm16.326523 -18.03125l0 -2.96875l2.578125 0l0 2.96875l-2.578125 0zm0 18.03125l0 -15.203125l2.578125 0l0 15.203125l-2.578125 0zm6.5001526 5.828125l0 -21.03125l2.34375 0l0 1.96875q0.828125 -1.15625 1.875 -1.734375q1.046875 -0.578125 2.53125 -0.578125q1.953125 0 3.4375 1.0q1.5 1.0 2.25 2.828125q0.765625 1.828125 0.765625 4.0q0 2.328125 -0.84375 4.203125q-0.828125 1.875 -2.4375 2.875q-1.59375 0.984375 -3.359375 0.984375q-1.28125 0 -2.3125 -0.546875q-1.015625 -0.546875 -1.671875 -1.375l0 7.40625l-2.578125 0zm2.328125 -13.34375q0 2.9375 1.1875 4.34375q1.1875 1.390625 2.875 1.390625q1.71875 0 2.9375 -1.453125q1.234375 -1.453125 1.234375 -4.5q0 -2.90625 -1.203125 -4.34375q-1.1875 -1.453125 -2.84375 -1.453125q-1.65625 0 -2.921875 1.546875q-1.265625 1.53125 -1.265625 4.46875z" fill-rule="nonzero"/></g><path fill="#d9ead3" d="m233.83209 253.7448c0.21258545 0.5306244 1.1959686 2.0293121 1.275589 3.183731c0.0796051 1.154419 -0.18766785 2.7209167 -0.79789734 3.7427673c-0.61024475 1.0218811 -2.3215332 1.8876038 -2.8635254 2.3884583c-0.5419922 0.500885 -0.33421326 0.51400757 -0.388443 0.6167908c-0.054244995 0.10281372 -0.1872406 -0.25546265 0.06298828 0c0.25021362 0.25549316 1.1456604 0.72006226 1.438324 1.5328369c0.29264832 0.81274414 0.37051392 2.3223877 0.31758118 3.343811c-0.05293274 1.0214539 -0.15791321 2.0021973 -0.6351776 2.78479c-0.47724915 0.7825928 -1.3923798 1.4461975 -2.2283478 1.9107666c-0.83595276 0.4645691 -1.9514313 0.7440796 -2.7873993 0.87661743c-0.83595276 0.13256836 -1.783905 -0.0690918 -2.2283478 -0.08135986c-0.44444275 -0.012237549 -0.39631653 0.03805542 -0.43830872 0.007873535c-0.042007446 -0.030181885 0.15309143 -0.2541504 0.18634033 -0.18896484c0.0332489 0.06518555 -0.09492493 0.13821411 0.013122559 0.5800476c0.108047485 0.4418335 0.59536743 1.3145142 0.6351776 2.0708618c0.03981018 0.75634766 0.014877319 1.7773438 -0.3963318 2.4671936c-0.41119385 0.68984985 -1.3145142 1.1412964 -2.0708618 1.6719055c-0.75634766 0.53063965 -1.6579132 1.2200623 -2.4671936 1.5118103c-0.80926514 0.29177856 -1.6719208 0.38452148 -2.388443 0.23886108c-0.7165375 -0.1456604 -1.340332 -0.6885376 -1.9107666 -1.112854c-0.5704346 -0.4243164 -1.3175812 -1.1950989 -1.5118103 -1.433075c-0.19422913 -0.23797607 0.19465637 0.024932861 0.3464508 0.0052490234c0.15179443 -0.019683838 0.5328064 -0.15484619 0.5643158 -0.12335205c0.03149414 0.03149414 -0.30316162 0.2130127 -0.3753357 0.3123169c-0.07217407 0.0993042 0.28346252 -0.028869629 -0.057739258 0.28347778c-0.34121704 0.3123169 -1.3394623 1.1395264 -1.989502 1.5905457c-0.6500397 0.4510193 -1.2471619 0.87664795 -1.9107666 1.1154785c-0.66360474 0.23886108 -1.2615814 0.25152588 -2.0708618 0.31759644c-0.8092804 0.06604004 -1.9886322 0.277771 -2.7847748 0.07873535c-0.79615784 -0.19903564 -1.6601105 -1.060791 -1.9921265 -1.2729797" fill-rule="evenodd"/><path fill="#6aa84f" d="m100.9475 169.7559l0 0c0 -20.847656 16.900368 -37.74803 37.74804 -37.74803l0 0c10.011398 0 19.612747 3.9770203 26.69188 11.056152c7.079132 7.079132 11.056152 16.680481 11.056152 26.69188l0 0c0 20.847672 -16.900375 37.74803 -37.74803 37.74803l0 0c-20.847672 0 -37.74804 -16.90036 -37.74804 -37.74803z" fill-rule="evenodd"/><path stroke="#000000" stroke-width="1.0" stroke-linejoin="round" stroke-linecap="butt" d="m100.9475 169.7559l0 0c0 -20.847656 16.900368 -37.74803 37.74804 -37.74803l0 0c10.011398 0 19.612747 3.9770203 26.69188 11.056152c7.079132 7.079132 11.056152 16.680481 11.056152 26.69188l0 0c0 20.847672 -16.900375 37.74803 -37.74803 37.74803l0 0c-20.847672 0 -37.74804 -16.90036 -37.74804 -37.74803z" fill-rule="evenodd"/><path fill="#ffffff" d="m118.179535 166.55591l3.65625 -9.546875l1.359375 0l3.90625 9.546875l-1.4375 0l-1.109375 -2.890625l-3.984375 0l-1.046875 2.890625l-1.34375 0zm2.75 -3.921875l3.234375 0l-1.0 -2.640625q-0.453125 -1.203125 -0.671875 -1.96875q-0.1875 0.90625 -0.515625 1.8125l-1.046875 2.796875zm7.0303802 3.921875l0 -6.90625l1.0625 0l0 0.984375q0.75 -1.140625 2.1875 -1.140625q0.625 0 1.15625 0.21875q0.53125 0.21875 0.78125 0.59375q0.265625 0.359375 0.375 0.859375q0.0625 0.328125 0.0625 1.140625l0 4.25l-1.171875 0l0 -4.203125q0 -0.71875 -0.140625 -1.0625q-0.140625 -0.359375 -0.484375 -0.5625q-0.34375 -0.21875 -0.8125 -0.21875q-0.75 0 -1.296875 0.46875q-0.546875 0.46875 -0.546875 1.796875l0 3.78125l-1.171875 0zm7.4124756 0l0 -6.90625l1.0625 0l0 0.984375q0.75 -1.140625 2.1875 -1.140625q0.625 0 1.15625 0.21875q0.53125 0.21875 0.78125 0.59375q0.265625 0.359375 0.375 0.859375q0.0625 0.328125 0.0625 1.140625l0 4.25l-1.171875 0l0 -4.203125q0 -0.71875 -0.140625 -1.0625q-0.140625 -0.359375 -0.484375 -0.5625q-0.34375 -0.21875 -0.8125 -0.21875q-0.75 0 -1.296875 0.46875q-0.546875 0.46875 -0.546875 1.796875l0 3.78125l-1.171875 0zm11.943726 0l0 -1.015625q-0.8125 1.171875 -2.1875 1.171875q-0.609375 0 -1.140625 -0.234375q-0.53125 -0.234375 -0.796875 -0.578125q-0.25 -0.359375 -0.359375 -0.875q-0.0625 -0.34375 -0.0625 -1.09375l0 -4.28125l1.171875 0l0 3.828125q0 0.921875 0.0625 1.234375q0.109375 0.46875 0.46875 0.734375q0.359375 0.25 0.890625 0.25q0.515625 0 0.984375 -0.265625q0.46875 -0.265625 0.65625 -0.734375q0.1875 -0.46875 0.1875 -1.34375l0 -3.703125l1.171875 0l0 6.90625l-1.046875 0zm7.3968506 -0.859375q-0.65625 0.5625 -1.265625 0.796875q-0.59375 0.21875 -1.28125 0.21875q-1.140625 0 -1.75 -0.546875q-0.609375 -0.5625 -0.609375 -1.4375q0 -0.5 0.21875 -0.921875q0.234375 -0.421875 0.609375 -0.671875q0.375 -0.25 0.84375 -0.390625q0.34375 -0.078125 1.046875 -0.171875q1.421875 -0.171875 2.09375 -0.40625q0 -0.234375 0 -0.296875q0 -0.71875 -0.328125 -1.015625q-0.453125 -0.390625 -1.34375 -0.390625q-0.8125 0 -1.21875 0.296875q-0.390625 0.28125 -0.578125 1.015625l-1.140625 -0.15625q0.15625 -0.734375 0.515625 -1.1875q0.359375 -0.453125 1.03125 -0.6875q0.671875 -0.25 1.5625 -0.25q0.890625 0 1.4375 0.203125q0.5625 0.203125 0.8125 0.53125q0.265625 0.3125 0.375 0.796875q0.046875 0.296875 0.046875 1.078125l0 1.5625q0 1.625 0.078125 2.0625q0.078125 0.4375 0.296875 0.828125l-1.21875 0q-0.1875 -0.359375 -0.234375 -0.859375zm-0.09375 -2.609375q-0.640625 0.265625 -1.921875 0.4375q-0.71875 0.109375 -1.015625 0.25q-0.296875 0.125 -0.46875 0.375q-0.15625 0.25 -0.15625 0.546875q0 0.46875 0.34375 0.78125q0.359375 0.3125 1.046875 0.3125q0.671875 0 1.203125 -0.296875q0.53125 -0.296875 0.78125 -0.8125q0.1875 -0.390625 0.1875 -1.171875l0 -0.421875zm2.9749756 3.46875l0 -9.546875l1.171875 0l0 9.546875l-1.171875 0z" fill-rule="nonzero"/><path fill="#ffffff" d="m121.01866 182.55591l0 -9.546875l3.59375 0q1.09375 0 1.75 0.296875q0.65625 0.28125 1.03125 0.890625q0.375 0.609375 0.375 1.265625q0 0.609375 -0.34375 1.15625q-0.328125 0.53125 -0.984375 0.859375q0.859375 0.25 1.328125 0.875q0.46875 0.609375 0.46875 1.4375q0 0.671875 -0.296875 1.25q-0.28125 0.578125 -0.703125 0.890625q-0.40625 0.3125 -1.03125 0.46875q-0.625 0.15625 -1.546875 0.15625l-3.640625 0zm1.265625 -5.53125l2.0625 0q0.84375 0 1.203125 -0.109375q0.484375 -0.140625 0.71875 -0.46875q0.25 -0.34375 0.25 -0.84375q0 -0.46875 -0.234375 -0.828125q-0.21875 -0.359375 -0.640625 -0.5q-0.421875 -0.140625 -1.453125 -0.140625l-1.90625 0l0 2.890625zm0 4.40625l2.375 0q0.609375 0 0.859375 -0.046875q0.4375 -0.078125 0.734375 -0.25q0.296875 -0.1875 0.484375 -0.53125q0.1875 -0.359375 0.1875 -0.8125q0 -0.53125 -0.28125 -0.921875q-0.265625 -0.40625 -0.75 -0.5625q-0.484375 -0.15625 -1.40625 -0.15625l-2.203125 0l0 3.28125zm7.0928802 -2.328125q0 -1.921875 1.078125 -2.84375q0.890625 -0.765625 2.171875 -0.765625q1.421875 0 2.328125 0.9375q0.90625 0.921875 0.90625 2.578125q0 1.328125 -0.40625 2.09375q-0.390625 0.765625 -1.15625 1.1875q-0.765625 0.421875 -1.671875 0.421875q-1.453125 0 -2.359375 -0.921875q-0.890625 -0.9375 -0.890625 -2.6875zm1.203125 0q0 1.328125 0.578125 1.984375q0.59375 0.65625 1.46875 0.65625q0.875 0 1.453125 -0.65625q0.578125 -0.671875 0.578125 -2.03125q0 -1.28125 -0.59375 -1.9375q-0.578125 -0.65625 -1.4375 -0.65625q-0.875 0 -1.46875 0.65625q-0.578125 0.65625 -0.578125 1.984375zm6.6468506 3.453125l0 -6.90625l1.0625 0l0 0.984375q0.75 -1.140625 2.1875 -1.140625q0.625 0 1.15625 0.21875q0.53125 0.21875 0.78125 0.59375q0.265625 0.359375 0.375 0.859375q0.0625 0.328125 0.0625 1.140625l0 4.25l-1.171875 0l0 -4.203125q0 -0.71875 -0.140625 -1.0625q-0.140625 -0.359375 -0.484375 -0.5625q-0.34375 -0.21875 -0.8125 -0.21875q-0.75 0 -1.296875 0.46875q-0.546875 0.46875 -0.546875 1.796875l0 3.78125l-1.171875 0zm11.943726 0l0 -1.015625q-0.8125 1.171875 -2.1875 1.171875q-0.609375 0 -1.140625 -0.234375q-0.53125 -0.234375 -0.796875 -0.578125q-0.25 -0.359375 -0.359375 -0.875q-0.0625 -0.34375 -0.0625 -1.09375l0 -4.28125l1.171875 0l0 3.828125q0 0.921875 0.0625 1.234375q0.109375 0.46875 0.46875 0.734375q0.359375 0.25 0.890625 0.25q0.515625 0 0.984375 -0.265625q0.46875 -0.265625 0.65625 -0.734375q0.1875 -0.46875 0.1875 -1.34375l0 -3.703125l1.171875 0l0 6.90625l-1.046875 0zm2.4124756 -2.0625l1.15625 -0.1875q0.109375 0.703125 0.546875 1.078125q0.453125 0.359375 1.25 0.359375q0.8125 0 1.203125 -0.328125q0.390625 -0.328125 0.390625 -0.765625q0 -0.390625 -0.359375 -0.625q-0.234375 -0.15625 -1.1875 -0.390625q-1.296875 -0.328125 -1.796875 -0.5625q-0.484375 -0.25 -0.75 -0.65625q-0.25 -0.421875 -0.25 -0.9375q0 -0.453125 0.203125 -0.84375q0.21875 -0.40625 0.578125 -0.671875q0.28125 -0.1875 0.75 -0.328125q0.46875 -0.140625 1.015625 -0.140625q0.8125 0 1.421875 0.234375q0.609375 0.234375 0.90625 0.640625q0.296875 0.390625 0.40625 1.0625l-1.140625 0.15625q-0.078125 -0.53125 -0.453125 -0.828125q-0.375 -0.3125 -1.0625 -0.3125q-0.8125 0 -1.15625 0.265625q-0.34375 0.265625 -0.34375 0.625q0 0.234375 0.140625 0.421875q0.15625 0.1875 0.453125 0.3125q0.171875 0.0625 1.03125 0.296875q1.25 0.328125 1.734375 0.546875q0.5 0.203125 0.78125 0.609375q0.28125 0.40625 0.28125 1.0q0 0.59375 -0.34375 1.109375q-0.34375 0.515625 -1.0 0.796875q-0.640625 0.28125 -1.453125 0.28125q-1.34375 0 -2.046875 -0.5625q-0.703125 -0.5625 -0.90625 -1.65625z" fill-rule="nonzero"/><path fill="#d9ead3" d="m114.0 130.50131c4.2497787 0.25021362 21.168411 0.06298828 25.498688 1.5013123c4.3302765 1.438324 1.0997314 5.3587036 0.48294067 7.1286163c-0.61680603 1.7698975 -3.39151 2.758957 -4.183731 3.490799c-0.7922058 0.7318573 -0.4899292 0.7502289 -0.56954956 0.90026855c-0.07962036 0.15003967 -0.2738495 -0.37358093 0.09185791 0c0.3657074 0.37358093 1.6745453 1.0533752 2.1023712 2.2414703c0.42781067 1.1880951 0.5419922 3.394577 0.4645691 4.887146c-0.077438354 1.4925537 -0.2318573 2.924759 -0.9291382 4.0682373c-0.69729614 1.1434784 -2.0328064 2.113739 -3.254593 2.7926483c-1.2217865 0.6789093 -2.8543396 1.0870514 -4.076111 1.280838c-1.2217865 0.19378662 -2.6054306 -0.100616455 -3.2546005 -0.11810303c-0.6491699 -0.017501831 -0.578743 0.057296753 -0.640419 0.013122559c-0.061683655 -0.044189453 0.2217865 -0.37313843 0.27033997 -0.2782135c0.048553467 0.09492493 -0.13691711 0.2020874 0.020996094 0.84776306c0.15792084 0.64567566 0.8683319 1.9208221 0.9265137 3.026245c0.058174133 1.105423 0.0231781 2.597992 -0.5774307 3.606308c-0.6006088 1.0083008 -1.9208221 1.6679688 -3.026245 2.4435577c-1.105423 0.775589 -2.4234467 1.7834625 -3.6063004 2.2099762c-1.1828537 0.42651367 -2.443573 0.56211853 -3.4908142 0.34909058c-1.0472412 -0.21304321 -1.9588776 -1.0070038 -2.7926483 -1.6273041c-0.83377075 -0.6203003 -1.9260712 -1.7467194 -2.2099762 -2.0944824c-0.28390503 -0.34777832 0.28477478 0.03630066 0.5065613 0.007873535c0.2217865 -0.028442383 0.7782135 -0.22485352 0.8241501 -0.17848206c0.045928955 0.04637146 -0.44313812 0.3119049 -0.5485611 0.45669556c-0.10542297 0.14479065 0.41470337 -0.044189453 -0.083984375 0.4120636c-0.49868774 0.4562683 -1.9580078 1.6662292 -2.908142 2.32547c-0.95012665 0.65922546 -1.8228302 1.280838 -2.7926483 1.6299133c-0.9698181 0.34909058 -1.9855652 0.76815796 -3.026245 0.4645691c-1.0406876 -0.30358887 -2.264656 2.678482 -3.2178497 -2.286087c-0.95319366 -4.964569 -2.0844269 -22.917755 -2.5013123 -27.501312" fill-rule="evenodd"/><path fill="#6aa84f" d="m226.63406 167.25246l0 0c0 -20.847656 16.900375 -37.74803 37.748047 -37.74803l0 0c10.011383 0 19.612762 3.9770203 26.691895 11.056152c7.0791016 7.079117 11.056122 16.680481 11.056122 26.69188l0 0c0 20.847672 -16.90036 37.74803 -37.748016 37.74803l0 0c-20.847672 0 -37.748047 -16.90036 -37.748047 -37.74803z" fill-rule="evenodd"/><path stroke="#000000" stroke-width="1.0" stroke-linejoin="round" stroke-linecap="butt" d="m226.63406 167.25246l0 0c0 -20.847656 16.900375 -37.74803 37.748047 -37.74803l0 0c10.011383 0 19.612762 3.9770203 26.691895 11.056152c7.0791016 7.079117 11.056122 16.680481 11.056122 26.69188l0 0c0 20.847672 -16.90036 37.74803 -37.748016 37.74803l0 0c-20.847672 0 -37.748047 -16.90036 -37.748047 -37.74803z" fill-rule="evenodd"/><path fill="#ffffff" d="m230.85046 164.05246l0 -9.546875l4.234375 0q1.265625 0 1.921875 0.265625q0.671875 0.25 1.0625 0.90625q0.40625 0.65625 0.40625 1.4375q0 1.015625 -0.65625 1.71875q-0.65625 0.6875 -2.03125 0.875q0.5 0.25 0.765625 0.484375q0.546875 0.5 1.046875 1.265625l1.65625 2.59375l-1.578125 0l-1.265625 -1.984375q-0.5625 -0.859375 -0.921875 -1.3125q-0.34375 -0.453125 -0.640625 -0.640625q-0.28125 -0.1875 -0.5625 -0.25q-0.21875 -0.046875 -0.703125 -0.046875l-1.46875 0l0 4.234375l-1.265625 0zm1.265625 -5.328125l2.71875 0q0.859375 0 1.34375 -0.171875q0.484375 -0.1875 0.734375 -0.578125q0.265625 -0.390625 0.265625 -0.859375q0 -0.671875 -0.5 -1.109375q-0.484375 -0.4375 -1.546875 -0.4375l-3.015625 0l0 3.15625zm12.922028 3.109375l1.203125 0.140625q-0.28125 1.0625 -1.0625 1.65625q-0.765625 0.578125 -1.96875 0.578125q-1.515625 0 -2.40625 -0.9375q-0.890625 -0.9375 -0.890625 -2.609375q0 -1.75 0.890625 -2.703125q0.90625 -0.96875 2.34375 -0.96875q1.390625 0 2.265625 0.9375q0.875 0.9375 0.875 2.65625q0 0.109375 0 0.3125l-5.15625 0q0.0625 1.140625 0.640625 1.75q0.578125 0.59375 1.4375 0.59375q0.65625 0 1.109375 -0.328125q0.453125 -0.34375 0.71875 -1.078125zm-3.84375 -1.90625l3.859375 0q-0.078125 -0.859375 -0.4375 -1.296875q-0.5625 -0.6875 -1.453125 -0.6875q-0.8125 0 -1.359375 0.546875q-0.546875 0.53125 -0.609375 1.4375zm6.5218506 6.78125l0 -9.5625l1.078125 0l0 0.890625q0.375 -0.53125 0.84375 -0.78125q0.484375 -0.265625 1.15625 -0.265625q0.875 0 1.546875 0.453125q0.6875 0.453125 1.03125 1.28125q0.34375 0.828125 0.34375 1.828125q0 1.046875 -0.375 1.90625q-0.375 0.84375 -1.109375 1.296875q-0.71875 0.453125 -1.53125 0.453125q-0.578125 0 -1.046875 -0.25q-0.46875 -0.25 -0.765625 -0.625l0 3.375l-1.171875 0zm1.0625 -6.078125q0 1.34375 0.53125 1.984375q0.546875 0.625 1.3125 0.625q0.78125 0 1.34375 -0.65625q0.5625 -0.65625 0.5625 -2.046875q0 -1.3125 -0.546875 -1.96875q-0.546875 -0.671875 -1.296875 -0.671875q-0.75 0 -1.328125 0.703125q-0.578125 0.703125 -0.578125 2.03125zm10.865601 2.5625q-0.65625 0.5625 -1.265625 0.796875q-0.59375 0.21875 -1.28125 0.21875q-1.140625 0 -1.75 -0.546875q-0.609375 -0.5625 -0.609375 -1.4375q0 -0.5 0.21875 -0.921875q0.234375 -0.421875 0.609375 -0.671875q0.375 -0.25 0.84375 -0.390625q0.34375 -0.078125 1.046875 -0.171875q1.421875 -0.171875 2.09375 -0.40625q0 -0.234375 0 -0.296875q0 -0.71875 -0.328125 -1.015625q-0.453125 -0.390625 -1.34375 -0.390625q-0.8125 0 -1.21875 0.296875q-0.390625 0.28125 -0.578125 1.015625l-1.140625 -0.15625q0.15625 -0.734375 0.515625 -1.1875q0.359375 -0.453125 1.03125 -0.6875q0.671875 -0.25 1.5625 -0.25q0.890625 0 1.4375 0.203125q0.5625 0.203125 0.8125 0.53125q0.265625 0.3125 0.375 0.796875q0.046875 0.296875 0.046875 1.078125l0 1.5625q0 1.625 0.078125 2.0625q0.078125 0.4375 0.296875 0.828125l-1.21875 0q-0.1875 -0.359375 -0.234375 -0.859375zm-0.09375 -2.609375q-0.640625 0.265625 -1.921875 0.4375q-0.71875 0.109375 -1.015625 0.25q-0.296875 0.125 -0.46875 0.375q-0.15625 0.25 -0.15625 0.546875q0 0.46875 0.34375 0.78125q0.359375 0.3125 1.046875 0.3125q0.671875 0 1.203125 -0.296875q0.53125 -0.296875 0.78125 -0.8125q0.1875 -0.390625 0.1875 -1.171875l0 -0.421875zm2.9437256 6.125l-0.125 -1.09375q0.375 0.109375 0.65625 0.109375q0.390625 0 0.625 -0.140625q0.234375 -0.125 0.390625 -0.359375q0.109375 -0.171875 0.359375 -0.875q0.03125 -0.09375 0.109375 -0.28125l-2.625 -6.921875l1.265625 0l1.4375 4.0q0.28125 0.765625 0.5 1.59375q0.203125 -0.796875 0.46875 -1.578125l1.484375 -4.015625l1.171875 0l-2.625 7.015625q-0.421875 1.140625 -0.65625 1.578125q-0.3125 0.578125 -0.71875 0.84375q-0.40625 0.28125 -0.96875 0.28125q-0.328125 0 -0.75 -0.15625zm6.7109375 -2.65625l0 -6.90625l1.046875 0l0 0.96875q0.328125 -0.515625 0.859375 -0.8125q0.546875 -0.3125 1.234375 -0.3125q0.78125 0 1.265625 0.3125q0.484375 0.3125 0.6875 0.890625q0.828125 -1.203125 2.140625 -1.203125q1.03125 0 1.578125 0.578125q0.5625 0.5625 0.5625 1.734375l0 4.75l-1.171875 0l0 -4.359375q0 -0.703125 -0.125 -1.0q-0.109375 -0.3125 -0.40625 -0.5q-0.296875 -0.1875 -0.703125 -0.1875q-0.71875 0 -1.203125 0.484375q-0.484375 0.484375 -0.484375 1.546875l0 4.015625l-1.171875 0l0 -4.484375q0 -0.78125 -0.296875 -1.171875q-0.28125 -0.390625 -0.921875 -0.390625q-0.5 0 -0.921875 0.265625q-0.421875 0.25 -0.609375 0.75q-0.1875 0.5 -0.1875 1.453125l0 3.578125l-1.171875 0zm15.8368225 -2.21875l1.203125 0.140625q-0.28125 1.0625 -1.0625 1.65625q-0.765625 0.578125 -1.96875 0.578125q-1.515625 0 -2.40625 -0.9375q-0.890625 -0.9375 -0.890625 -2.609375q0 -1.75 0.890625 -2.703125q0.90625 -0.96875 2.34375 -0.96875q1.390625 0 2.265625 0.9375q0.875 0.9375 0.875 2.65625q0 0.109375 0 0.3125l-5.15625 0q0.0625 1.140625 0.640625 1.75q0.578125 0.59375 1.4375 0.59375q0.65625 0 1.109375 -0.328125q0.453125 -0.34375 0.71875 -1.078125zm-3.84375 -1.90625l3.859375 0q-0.078125 -0.859375 -0.4375 -1.296875q-0.5625 -0.6875 -1.453125 -0.6875q-0.8125 0 -1.359375 0.546875q-0.546875 0.53125 -0.609375 1.4375zm6.5218506 4.125l0 -6.90625l1.0625 0l0 0.984375q0.75 -1.140625 2.1875 -1.140625q0.625 0 1.15625 0.21875q0.53125 0.21875 0.78125 0.59375q0.265625 0.359375 0.375 0.859375q0.0625 0.328125 0.0625 1.140625l0 4.25l-1.171875 0l0 -4.203125q0 -0.71875 -0.140625 -1.0625q-0.140625 -0.359375 -0.484375 -0.5625q-0.34375 -0.21875 -0.8125 -0.21875q-0.75 0 -1.296875 0.46875q-0.546875 0.46875 -0.546875 1.796875l0 3.78125l-1.171875 0zm9.974976 -1.046875l0.171875 1.03125q-0.5 0.109375 -0.890625 0.109375q-0.640625 0 -1.0 -0.203125q-0.34375 -0.203125 -0.484375 -0.53125q-0.140625 -0.328125 -0.140625 -1.390625l0 -3.96875l-0.859375 0l0 -0.90625l0.859375 0l0 -1.71875l1.171875 -0.703125l0 2.421875l1.171875 0l0 0.90625l-1.171875 0l0 4.046875q0 0.5 0.046875 0.640625q0.0625 0.140625 0.203125 0.234375q0.140625 0.078125 0.40625 0.078125q0.203125 0 0.515625 -0.046875z" fill-rule="nonzero"/><path fill="#ffffff" d="m249.78645 180.05246l0 -9.546875l6.4375153 0l0 1.125l-5.1718903 0l0 2.96875l4.46875 0l0 1.125l-4.46875 0l0 4.328125l-1.265625 0zm12.453873 0l0 -1.015625q-0.8125 1.171875 -2.1875 1.171875q-0.609375 0 -1.140625 -0.234375q-0.53125 -0.234375 -0.796875 -0.578125q-0.25 -0.359375 -0.359375 -0.875q-0.0625 -0.34375 -0.0625 -1.09375l0 -4.28125l1.171875 0l0 3.828125q0 0.921875 0.0625 1.234375q0.109375 0.46875 0.46875 0.734375q0.359375 0.25 0.890625 0.25q0.515625 0 0.984375 -0.265625q0.46875 -0.265625 0.65625 -0.734375q0.1875 -0.46875 0.1875 -1.34375l0 -3.703125l1.171875 0l0 6.90625l-1.046875 0zm2.8812256 0l0 -6.90625l1.0625 0l0 0.984375q0.75 -1.140625 2.1875 -1.140625q0.625 0 1.15625 0.21875q0.53125 0.21875 0.78125 0.59375q0.265625 0.359375 0.375 0.859375q0.0625 0.328125 0.0625 1.140625l0 4.25l-1.171875 0l0 -4.203125q0 -0.71875 -0.140625 -1.0625q-0.140625 -0.359375 -0.484375 -0.5625q-0.34375 -0.21875 -0.8125 -0.21875q-0.75 0 -1.296875 0.46875q-0.546875 0.46875 -0.546875 1.796875l0 3.78125l-1.171875 0zm11.896851 0l0 -0.875q-0.65625 1.03125 -1.9375 1.03125q-0.8125 0 -1.515625 -0.453125q-0.6875 -0.453125 -1.078125 -1.265625q-0.375 -0.828125 -0.375 -1.890625q0 -1.03125 0.34375 -1.875q0.34375 -0.84375 1.03125 -1.28125q0.703125 -0.453125 1.546875 -0.453125q0.625 0 1.109375 0.265625q0.5 0.25 0.796875 0.671875l0 -3.421875l1.171875 0l0 9.546875l-1.09375 0zm-3.703125 -3.453125q0 1.328125 0.5625 1.984375q0.5625 0.65625 1.328125 0.65625q0.765625 0 1.296875 -0.625q0.53125 -0.625 0.53125 -1.90625q0 -1.421875 -0.546875 -2.078125q-0.546875 -0.671875 -1.34375 -0.671875q-0.78125 0 -1.3125 0.640625q-0.515625 0.625 -0.515625 2.0z" fill-rule="nonzero"/><path fill="#d9ead3" d="m239.99869 127.0c4.2497864 0.25022125 21.168427 0.06299591 25.498688 1.5013123c4.330261 1.438324 1.0997314 5.3587036 0.48294067 7.1286163c-0.6167908 1.7698975 -3.39151 2.758957 -4.183716 3.490799c-0.7922363 0.7318573 -0.48995972 0.7502289 -0.5695801 0.90026855c-0.079589844 0.15003967 -0.27383423 -0.37358093 0.09188843 0c0.36569214 0.37358093 1.67453 1.0533752 2.102356 2.2414703c0.42782593 1.1880951 0.5419922 3.394577 0.4645691 4.887146c-0.077423096 1.4925537 -0.23184204 2.924759 -0.9291382 4.0682373c-0.69729614 1.1434784 -2.0328064 2.113739 -3.2546082 2.7926483c-1.2217712 0.6789093 -2.854309 1.0870514 -4.0760956 1.280838c-1.2217865 0.19378662 -2.6054382 -0.100616455 -3.2546082 -0.11810303c-0.64915466 -0.017501831 -0.57873535 0.057296753 -0.6404114 0.013122559c-0.061676025 -0.044189453 0.2217865 -0.37313843 0.27033997 -0.2782135c0.048553467 0.09492493 -0.13691711 0.2020874 0.020996094 0.84776306c0.15791321 0.64567566 0.8683319 1.9208221 0.9265137 3.026245c0.058181763 1.105423 0.0231781 2.597992 -0.57743835 3.606308c-0.6006012 1.0083008 -1.9208221 1.6679688 -3.026245 2.4435577c-1.105423 0.775589 -2.4234467 1.7834625 -3.6062927 2.2099762c-1.1828461 0.42651367 -2.443573 0.56211853 -3.4908142 0.34909058c-1.0472412 -0.21304321 -1.9588776 -1.0070038 -2.7926483 -1.6273041c-0.83377075 -0.6203003 -1.9260712 -1.7467194 -2.2099762 -2.0944824c-0.28390503 -0.34777832 0.28477478 0.03630066 0.5065613 0.007873535c0.2217865 -0.028442383 0.7782135 -0.22485352 0.82414246 -0.17848206c0.045928955 0.04637146 -0.4431305 0.3119049 -0.54855347 0.45669556c-0.10542297 0.14479065 0.41470337 -0.044189453 -0.083984375 0.4120636c-0.49868774 0.4562683 -1.9580078 1.6662292 -2.908142 2.32547c-0.9501343 0.65922546 -1.8228302 1.280838 -2.7926483 1.6299133c-0.9698181 0.34909058 -1.9855652 0.76815796 -3.026245 0.4645691c-1.0406799 -0.30358887 -2.2646637 2.678482 -3.2178497 -2.286087c-0.95318604 -4.964569 -2.0844269 -22.917755 -2.5013123 -27.501312" fill-rule="evenodd"/><path fill="#6aa84f" d="m242.5735 303.504l0 0c0 -20.847656 16.900375 -37.748047 37.74803 -37.748047l0 0c10.011414 0 19.612762 3.9770203 26.691895 11.056152c7.079132 7.079132 11.056152 16.680481 11.056152 26.691895l0 0c0 20.847656 -16.90039 37.748016 -37.748047 37.748016l0 0c-20.847656 0 -37.74803 -16.90036 -37.74803 -37.748016z" fill-rule="evenodd"/><path stroke="#000000" stroke-width="1.0" stroke-linejoin="round" stroke-linecap="butt" d="m242.5735 303.504l0 0c0 -20.847656 16.900375 -37.748047 37.74803 -37.748047l0 0c10.011414 0 19.612762 3.9770203 26.691895 11.056152c7.079132 7.079132 11.056152 16.680481 11.056152 26.691895l0 0c0 20.847656 -16.90039 37.748016 -37.748047 37.748016l0 0c-20.847656 0 -37.74803 -16.90036 -37.74803 -37.748016z" fill-rule="evenodd"/><path fill="#ffffff" d="m280.87543 306.53586q0 -0.28125 0 -0.421875q0 -0.828125 0.234375 -1.421875q0.171875 -0.453125 0.546875 -0.921875q0.28125 -0.328125 1.015625 -0.96875q0.734375 -0.65625 0.953125 -1.03125q0.21875 -0.390625 0.21875 -0.84375q0 -0.8125 -0.640625 -1.4375q-0.640625 -0.625 -1.578125 -0.625q-0.890625 0 -1.5 0.5625q-0.59375 0.5625 -0.78125 1.765625l-1.453125 -0.171875q0.203125 -1.609375 1.15625 -2.453125q0.96875 -0.859375 2.5625 -0.859375q1.671875 0 2.671875 0.921875q1.0 0.90625 1.0 2.203125q0 0.75 -0.359375 1.390625q-0.34375 0.625 -1.359375 1.53125q-0.6875 0.609375 -0.90625 0.90625q-0.203125 0.28125 -0.3125 0.65625q-0.09375 0.375 -0.109375 1.21875l-1.359375 0zm-0.078125 2.828125l0 -1.609375l1.59375 0l0 1.609375l-1.59375 0z" fill-rule="nonzero"/><path fill="#d9ead3" d="m255.38977 264.06693c4.2497864 0.25021362 21.168396 0.06298828 25.498688 1.5013123c4.330261 1.438324 1.0997314 5.3587036 0.48294067 7.128601c-0.6167908 1.769928 -3.39151 2.7589722 -4.1837463 3.4908142c-0.7922058 0.73187256 -0.4899292 0.75024414 -0.56954956 0.90026855c-0.07962036 0.15005493 -0.27383423 -0.37356567 0.09185791 0c0.36572266 0.3735962 1.6745605 1.0533752 2.1023865 2.2414856c0.4277954 1.1880798 0.5419922 3.3945618 0.4645691 4.8871155c-0.07745361 1.4925842 -0.23187256 2.9247742 -0.9291382 4.068268c-0.69729614 1.1434631 -2.0328064 2.1137085 -3.2546082 2.792633c-1.2217712 0.67892456 -2.8543396 1.0870667 -4.076111 1.2808533c-1.2217712 0.19378662 -2.6054382 -0.100616455 -3.2545776 -0.118133545c-0.6491699 -0.017486572 -0.57876587 0.05731201 -0.6404419 0.013153076c-0.061676025 -0.044189453 0.22180176 -0.37316895 0.27035522 -0.27822876c0.048553467 0.09490967 -0.13693237 0.2020874 0.020996094 0.8477783c0.15789795 0.6456604 0.86831665 1.9208069 0.9265137 3.026245c0.058166504 1.1054077 0.023162842 2.597992 -0.5774231 3.6062927c-0.60061646 1.0083008 -1.9208374 1.6679688 -3.0262756 2.443573c-1.1054077 0.77557373 -2.4234314 1.7834473 -3.6062927 2.209961c-1.1828308 0.42651367 -2.443573 0.5621338 -3.4908142 0.34909058c-1.0472412 -0.21304321 -1.9588776 -1.0069885 -2.7926483 -1.6272888c-0.83377075 -0.6203003 -1.9260712 -1.7467346 -2.209961 -2.094513c-0.28390503 -0.3477478 0.28477478 0.036315918 0.5065613 0.007873535c0.22177124 -0.028411865 0.7782135 -0.224823 0.82414246 -0.1784668c0.045928955 0.04638672 -0.4431305 0.31188965 -0.54855347 0.45669556c-0.10542297 0.14480591 0.4146881 -0.044189453 -0.083999634 0.41207886c-0.49868774 0.4562378 -1.9579926 1.6662292 -2.9081268 2.32547c-0.9501343 0.6592102 -1.8228455 1.2808228 -2.7926483 1.6299133c-0.9698181 0.34906006 -1.9855652 0.76815796 -3.0262604 0.4645691c-1.0406799 -0.30358887 -2.2646484 2.6784668 -3.2178345 -2.2861023c-0.9532013 -4.964569 -2.0844269 -22.917755 -2.5013123 -27.501312" fill-rule="evenodd"/><path fill="#6aa84f" d="m163.39372 261.93707l0 0c0 -20.847672 16.90036 -37.74803 37.74803 -37.74803l0 0c10.011398 0 19.612762 3.977005 26.69188 11.056137c7.079132 7.079132 11.056152 16.680481 11.056152 26.691895l0 0c0 20.847656 -16.900375 37.748016 -37.74803 37.748016l0 0c-20.847672 0 -37.74803 -16.90036 -37.74803 -37.748016z" fill-rule="evenodd"/><path stroke="#000000" stroke-width="1.0" stroke-linejoin="round" stroke-linecap="butt" d="m163.39372 261.93707l0 0c0 -20.847672 16.90036 -37.74803 37.74803 -37.74803l0 0c10.011398 0 19.612762 3.977005 26.69188 11.056137c7.079132 7.079132 11.056152 16.680481 11.056152 26.691895l0 0c0 20.847656 -16.900375 37.748016 -37.74803 37.748016l0 0c-20.847672 0 -37.74803 -16.90036 -37.74803 -37.748016z" fill-rule="evenodd"/><path fill="#ffffff" d="m201.69563 264.96893q0 -0.28125 0 -0.421875q0 -0.828125 0.234375 -1.421875q0.171875 -0.453125 0.546875 -0.921875q0.28125 -0.328125 1.015625 -0.96875q0.734375 -0.65625 0.953125 -1.03125q0.21875 -0.390625 0.21875 -0.84375q0 -0.8125 -0.640625 -1.4375q-0.640625 -0.625 -1.578125 -0.625q-0.890625 0 -1.5 0.5625q-0.59375 0.5625 -0.78125 1.765625l-1.453125 -0.171875q0.203125 -1.609375 1.15625 -2.453125q0.96875 -0.859375 2.5625 -0.859375q1.671875 0 2.671875 0.921875q1.0 0.90625 1.0 2.203125q0 0.75 -0.359375 1.390625q-0.34375 0.625 -1.359375 1.53125q-0.6875 0.609375 -0.90625 0.90625q-0.203125 0.28125 -0.3125 0.65625q-0.09375 0.375 -0.109375 1.21875l-1.359375 0zm-0.078125 2.828125l0 -1.609375l1.59375 0l0 1.609375l-1.59375 0z" fill-rule="nonzero"/><path fill="#d9ead3" d="m177.0958 222.5c4.2497864 0.25021362 21.168427 0.06298828 25.498688 1.5013123c4.3302765 1.438324 1.0997467 5.3587036 0.48294067 7.1286163c-0.6167908 1.7698975 -3.39151 2.758957 -4.183716 3.490799c-0.79222107 0.7318573 -0.48994446 0.7502289 -0.5695648 0.90026855c-0.0796051 0.15003967 -0.27383423 -0.37358093 0.09187317 0c0.36569214 0.37358093 1.67453 1.0533752 2.102356 2.2414703c0.42782593 1.1880951 0.5419922 3.394577 0.4645691 4.887146c-0.077423096 1.4925537 -0.23184204 2.924759 -0.9291382 4.0682373c-0.6972809 1.1434784 -2.0328064 2.113739 -3.254593 2.7926483c-1.2217865 0.6789093 -2.8543243 1.0870514 -4.076111 1.280838c-1.2217865 0.19378662 -2.605423 -0.100616455 -3.254593 -0.11810303c-0.6491699 -0.017501831 -0.57873535 0.057296753 -0.64042664 0.013122559c-0.061676025 -0.044189453 0.2217865 -0.37313843 0.27033997 -0.2782135c0.048568726 0.09492493 -0.13691711 0.2020874 0.020996094 0.84776306c0.15792847 0.64567566 0.8683319 1.9208221 0.9265137 3.026245c0.058181763 1.105423 0.02319336 2.5979767 -0.5774231 3.606308c-0.60061646 1.0083008 -1.9208221 1.6679688 -3.026245 2.443573c-1.105423 0.77557373 -2.4234467 1.7834473 -3.606308 2.209961c-1.1828461 0.42651367 -2.4435577 0.5621338 -3.4908142 0.34909058c-1.0472412 -0.21304321 -1.9588776 -1.007019 -2.7926483 -1.6272888c-0.83377075 -0.6203003 -1.9260712 -1.7467346 -2.2099762 -2.094513c-0.28388977 -0.3477478 0.28479004 0.036315918 0.5065613 0.007873535c0.2217865 -0.028411865 0.77822876 -0.224823 0.8241577 -0.1784668c0.045928955 0.0463562 -0.4431305 0.31188965 -0.5485687 0.45669556c-0.10542297 0.14480591 0.41470337 -0.044189453 -0.083984375 0.41207886c-0.49868774 0.4562378 -1.9580078 1.6662292 -2.9081268 2.3254395c-0.9501343 0.6592407 -1.8228455 1.2808533 -2.7926636 1.6299438c-0.9698181 0.34906006 -1.9855652 0.76815796 -3.026245 0.4645691c-1.0406799 -0.30358887 -2.2646484 2.6784668 -3.2178497 -2.2861023c-0.95318604 -4.964569 -2.0844269 -22.917755 -2.5013123 -27.501312" fill-rule="evenodd"/><path fill="#6aa84f" d="m71.16931 274.52872l0 0c0 -20.847641 16.900368 -37.748016 37.74803 -37.748016l0 0c10.011398 0 19.612762 3.977005 26.691895 11.056137c7.079117 7.079132 11.056137 16.680496 11.056137 26.69188l0 0c0 20.847687 -16.900375 37.748047 -37.74803 37.748047l0 0c-20.847664 0 -37.74803 -16.90036 -37.74803 -37.748047z" fill-rule="evenodd"/><path stroke="#000000" stroke-width="1.0" stroke-linejoin="round" stroke-linecap="butt" d="m71.16931 274.52872l0 0c0 -20.847641 16.900368 -37.748016 37.74803 -37.748016l0 0c10.011398 0 19.612762 3.977005 26.691895 11.056137c7.079117 7.079132 11.056137 16.680496 11.056137 26.69188l0 0c0 20.847687 -16.900375 37.748047 -37.74803 37.748047l0 0c-20.847664 0 -37.74803 -16.90036 -37.74803 -37.748047z" fill-rule="evenodd"/><path fill="#ffffff" d="m109.47122 277.5606q0 -0.28125 0 -0.421875q0 -0.828125 0.234375 -1.421875q0.171875 -0.453125 0.546875 -0.921875q0.28125 -0.328125 1.015625 -0.96875q0.734375 -0.65625 0.953125 -1.03125q0.21875 -0.390625 0.21875 -0.84375q0 -0.8125 -0.640625 -1.4375q-0.640625 -0.625 -1.578125 -0.625q-0.890625 0 -1.5 0.5625q-0.59375 0.5625 -0.78125 1.765625l-1.453125 -0.171875q0.203125 -1.609375 1.15625 -2.453125q0.96875 -0.859375 2.5625 -0.859375q1.671875 0 2.671875 0.921875q1.0 0.90625 1.0 2.203125q0 0.75 -0.359375 1.390625q-0.34375 0.625 -1.359375 1.53125q-0.6875 0.609375 -0.90625 0.90625q-0.203125 0.28125 -0.3125 0.65625q-0.09375 0.375 -0.109375 1.21875l-1.359375 0zm-0.078125 2.828125l0 -1.609375l1.59375 0l0 1.609375l-1.59375 0z" fill-rule="nonzero"/><path fill="#d9ead3" d="m84.5 235.00131c4.2497787 0.25021362 21.168419 0.06298828 25.498688 1.5013123c4.330269 1.438324 1.0997391 5.3587036 0.48294067 7.1286163c-0.6167984 1.7698975 -3.3915176 2.758957 -4.183731 3.490799c-0.79221344 0.7318573 -0.48993683 0.7502289 -0.56954956 0.90026855c-0.07961273 0.15003967 -0.27384186 -0.37358093 0.09186554 0c0.36569977 0.37358093 1.6745377 1.0533752 2.102356 2.2414703c0.42782593 1.1880951 0.5419998 3.394577 0.4645691 4.887146c-0.077430725 1.492569 -0.23184204 2.924759 -0.92913055 4.068222c-0.6972885 1.1434937 -2.032814 2.113739 -3.254593 2.7926636c-1.2217865 0.67892456 -2.854332 1.0870667 -4.0761185 1.2808533c-1.2217865 0.19378662 -2.605423 -0.100616455 -3.254593 -0.118133545c-0.6491699 -0.017486572 -0.578743 0.05731201 -0.640419 0.013122559c-0.061683655 -0.044158936 0.2217865 -0.37313843 0.27033997 -0.27819824c0.048553467 0.09490967 -0.13691711 0.2020874 0.020996094 0.8477783c0.15792084 0.6456604 0.8683319 1.9208069 0.9265137 3.026245c0.058174133 1.1054077 0.0231781 2.5979614 -0.5774307 3.6062927c-0.6006088 1.0083008 -1.9208221 1.6679688 -3.026245 2.443573c-1.105423 0.77557373 -2.4234467 1.7834473 -3.6063004 2.209961c-1.1828537 0.42651367 -2.443573 0.5621338 -3.4908142 0.34909058c-1.0472412 -0.21304321 -1.9588776 -1.007019 -2.7926483 -1.6272888c-0.83377075 -0.6203003 -1.9260712 -1.7467346 -2.2099762 -2.094513c-0.28390503 -0.3477478 0.28477478 0.036315918 0.5065613 0.007873535c0.2217865 -0.028411865 0.7782135 -0.224823 0.8241501 -0.1784668c0.045928955 0.0463562 -0.44313812 0.31188965 -0.5485611 0.45669556c-0.10542297 0.14480591 0.41470337 -0.044189453 -0.083984375 0.41207886c-0.49868774 0.4562378 -1.9580078 1.6662292 -2.908142 2.3254395c-0.95012665 0.6592407 -1.8228302 1.2808533 -2.7926483 1.6299438c-0.9698181 0.34906006 -1.9855652 0.76815796 -3.026245 0.4645691c-1.0406876 -0.30358887 -2.264656 2.6784668 -3.2178497 -2.2861023c-0.95319366 -4.964569 -2.0844269 -22.917755 -2.5013123 -27.501312" fill-rule="evenodd"/></g></svg>