<svg version="1.1" viewBox="0.0 0.0 341.9790026246719 343.59055118110234" fill="none" stroke="none" stroke-linecap="square" stroke-miterlimit="10" xmlns:xlink="http://www.w3.org/1999/xlink" xmlns="http://www.w3.org/2000/svg"><clipPath id="p.0"><path d="m0 0l341.979 0l0 343.59055l-341.979 0l0 -343.59055z" clip-rule="nonzero"/></clipPath><g clip-path="url(#p.0)"><path fill="#000000" fill-opacity="0.0" d="m0 0l341.979 0l0 343.59055l-341.979 0z" fill-rule="evenodd"/><path fill="#6aa84f" d="m379.28903 195.36684l0 0c0 -20.847656 16.90039 -37.74803 37.748047 -37.74803l0 0c10.011383 0 19.612762 3.9770203 26.691895 11.056152c7.079132 7.079117 11.056122 16.680481 11.056122 26.69188l0 0c0 20.847672 -16.90036 37.74803 -37.748016 37.74803l0 0c-20.847656 0 -37.748047 -16.90036 -37.748047 -37.74803z" fill-rule="evenodd"/><path stroke="#000000" stroke-width="1.0" stroke-linejoin="round" stroke-linecap="butt" d="m379.28903 195.36684l0 0c0 -20.847656 16.90039 -37.74803 37.748047 -37.74803l0 0c10.011383 0 19.612762 3.9770203 26.691895 11.056152c7.079132 7.079117 11.056122 16.680481 11.056122 26.69188l0 0c0 20.847672 -16.90036 37.74803 -37.748016 37.74803l0 0c-20.847656 0 -37.748047 -16.90036 -37.748047 -37.74803z" fill-rule="evenodd"/><path fill="#ffffff" d="m413.45746 157.84567c1.2082214 0.010498047 5.9890747 -0.69729614 7.249359 0.06298828c1.2602844 0.76026917 0.7292175 3.1237946 0.3123169 4.4986877c-0.41687012 1.3748932 -1.7073364 2.7961426 -2.8136292 3.7506561c-1.1062927 0.9544983 -3.202118 1.6469727 -3.8241577 1.9763794c-0.6220398 0.32939148 -0.27383423 -0.37358093 0.09185791 0c0.36572266 0.37358093 1.6745605 1.05336 2.102356 2.2414703c0.42782593 1.1880951 0.5420227 3.394577 0.4645691 4.8871307c-0.077423096 1.492569 -0.23184204 2.924759 -0.92910767 4.0682373c-0.69729614 1.1434937 -2.032837 2.113739 -3.2546082 2.7926636c-1.2217712 0.6789093 -2.8543396 1.0870514 -4.076111 1.280838c-1.2218018 0.19378662 -2.6054382 -0.100616455 -3.2546082 -0.118118286c-0.6491699 -0.017486572 -0.57873535 0.05731201 -0.6404114 0.013122559c-0.061676025 -0.044174194 0.22180176 -0.37313843 0.27035522 -0.2782135c0.048553467 0.09492493 -0.13693237 0.20210266 0.020996094 0.8477783c0.15789795 0.6456604 0.86831665 1.9208221 0.9265137 3.026245c0.058166504 1.105423 0.023162842 2.5979767 -0.5774536 3.6062927c-0.60061646 1.008316 -1.9208069 1.667984 -3.026245 2.443573c-1.1054077 0.775589 -2.4234314 1.7834625 -3.6062927 2.2099762c-1.1828613 0.4264984 -2.443573 0.56211853 -3.4908142 0.34907532c-1.0472412 -0.21302795 -2.0411072 -1.0695496 -2.792633 -1.6272888c-0.7515564 -0.5577545 -1.4326477 -1.3713989 -1.7165527 -1.719162c-0.28390503 -0.34777832 -0.028442383 -0.32589722 0.013122559 -0.36746216c0.04156494 -0.041549683 0.19030762 0.071746826 0.23623657 0.118118286c0.045928955 0.04637146 0.046783447 0.06474304 0.039367676 0.16009521c-0.007446289 0.09536743 0.41470337 -0.044174194 -0.083984375 0.41207886c-0.49868774 0.45625305 -1.9580078 1.6662292 -2.908142 2.3254547c-0.9501343 0.6592407 -1.8228455 1.280838 -2.7926636 1.6299286c-0.9698181 0.34907532 -1.9855652 0.76815796 -3.026245 0.4645691c-1.0406799 -0.30358887 -2.9186401 2.5284271 -3.2178345 -2.286087c-0.29922485 -4.8145294 1.1854553 -22.167542 1.4225464 -26.601059" fill-rule="evenodd"/><path stroke="#000000" stroke-width="1.0" stroke-linejoin="round" stroke-linecap="butt" d="m413.45746 157.84567c1.2082214 0.010498047 5.9890747 -0.69729614 7.249359 0.06298828c1.2602844 0.76026917 0.7292175 3.1237946 0.3123169 4.4986877c-0.41687012 1.3748932 -1.7073364 2.7961426 -2.8136292 3.7506561c-1.1062927 0.9544983 -3.202118 1.6469727 -3.8241577 1.9763794c-0.6220398 0.32939148 -0.27383423 -0.37358093 0.09185791 0c0.36572266 0.37358093 1.6745605 1.05336 2.102356 2.2414703c0.42782593 1.1880951 0.5420227 3.394577 0.4645691 4.8871307c-0.077423096 1.492569 -0.23184204 2.924759 -0.92910767 4.0682373c-0.69729614 1.1434937 -2.032837 2.113739 -3.2546082 2.7926636c-1.2217712 0.6789093 -2.8543396 1.0870514 -4.076111 1.280838c-1.2218018 0.19378662 -2.6054382 -0.100616455 -3.2546082 -0.118118286c-0.6491699 -0.017486572 -0.57873535 0.05731201 -0.6404114 0.013122559c-0.061676025 -0.044174194 0.22180176 -0.37313843 0.27035522 -0.2782135c0.048553467 0.09492493 -0.13693237 0.20210266 0.020996094 0.8477783c0.15789795 0.6456604 0.86831665 1.9208221 0.9265137 3.026245c0.058166504 1.105423 0.023162842 2.5979767 -0.5774536 3.6062927c-0.60061646 1.008316 -1.9208069 1.667984 -3.026245 2.443573c-1.1054077 0.775589 -2.4234314 1.7834625 -3.6062927 2.2099762c-1.1828613 0.4264984 -2.443573 0.56211853 -3.4908142 0.34907532c-1.0472412 -0.21302795 -2.0411072 -1.0695496 -2.792633 -1.6272888c-0.7515564 -0.5577545 -1.4326477 -1.3713989 -1.7165527 -1.719162c-0.28390503 -0.34777832 -0.028442383 -0.32589722 0.013122559 -0.36746216c0.04156494 -0.041549683 0.19030762 0.071746826 0.23623657 0.118118286c0.045928955 0.04637146 0.046783447 0.06474304 0.039367676 0.16009521c-0.007446289 0.09536743 0.41470337 -0.044174194 -0.083984375 0.41207886c-0.49868774 0.45625305 -1.9580078 1.6662292 -2.908142 2.3254547c-0.9501343 0.6592407 -1.8228455 1.280838 -2.7926636 1.6299286c-0.9698181 0.34907532 -1.9855652 0.76815796 -3.026245 0.4645691c-1.0406799 -0.30358887 -2.9186401 2.5284271 -3.2178345 -2.286087c-0.29922485 -4.8145294 1.1854553 -22.167542 1.4225464 -26.601059" fill-rule="evenodd"/><path fill="#ffffff" d="m377.42624 156.97525l0 41.34407l42.801727 -41.623077" fill-rule="evenodd"/><path fill="#6aa84f" d="m131.39372 222.36313l0 0c0 -20.847656 16.90036 -37.74803 37.74803 -37.74803l0 0c10.011398 0 19.612762 3.9770203 26.69188 11.056137c7.079132 7.079132 11.056152 16.680496 11.056152 26.691895l0 0c0 20.847656 -16.900375 37.748047 -37.74803 37.748047l0 0c-20.847672 0 -37.74803 -16.90039 -37.74803 -37.748047z" fill-rule="evenodd"/><path stroke="#000000" stroke-width="1.0" stroke-linejoin="round" stroke-linecap="butt" d="m131.39372 222.36313l0 0c0 -20.847656 16.90036 -37.74803 37.74803 -37.74803l0 0c10.011398 0 19.612762 3.9770203 26.69188 11.056137c7.079132 7.079132 11.056152 16.680496 11.056152 26.691895l0 0c0 20.847656 -16.900375 37.748047 -37.74803 37.748047l0 0c-20.847672 0 -37.74803 -16.90039 -37.74803 -37.748047z" fill-rule="evenodd"/><path fill="#ffffff" d="m145.22443 251.60434c-0.84690857 -0.8617554 -4.7279205 -3.741806 -5.0814667 -5.1705475c-0.35354614 -1.4287415 1.6932068 -2.724472 2.9601746 -3.4018707c1.2669678 -0.67741394 3.1844177 -0.76989746 4.641617 -0.66256714c1.4571991 0.10733032 3.4287872 1.0996246 4.1015472 1.3065643c0.67277527 0.20692444 -0.07052612 0.45777893 -0.064956665 -0.064956665c0.005569458 -0.52275085 -0.43922424 -1.9289093 0.09837341 -3.0715332c0.5375824 -1.1426086 2.0170593 -2.7835388 3.1271973 -3.784195c1.1101379 -1.0006409 2.2320404 -1.9041443 3.5336456 -2.2196503c1.3016052 -0.31550598 2.932022 -0.057235718 4.276001 0.32662964c1.3439941 0.38386536 2.7869568 1.249649 3.7879028 1.9765472c1.000946 0.7268982 1.7711487 1.9134369 2.217804 2.384842c0.44665527 0.47138977 0.4497528 0.36869812 0.4621277 0.44355774c0.012374878 0.07484436 -0.42066956 0.10702515 -0.38789368 0.005569458c0.032791138 -0.10145569 0.23973083 -0.0460968 0.58461 -0.6143036c0.3448944 -0.56822205 0.7442322 -1.9722137 1.484726 -2.7949982c0.74050903 -0.8227844 1.8206482 -1.8534393 2.958313 -2.1417236c1.13768 -0.2882843 2.5376434 0.17878723 3.8677063 0.41201782c1.3300781 0.23323059 2.9747162 0.4525299 4.1127014 0.9873352c1.13797 0.53482056 2.1253204 1.3303833 2.7151794 2.221527c0.58987427 0.8911438 0.68699646 2.1995544 0.8240204 3.125351c0.13703918 0.92578125 0.043304443 1.9827118 -0.0018463135 2.429367c-0.045166016 0.44665527 -0.2103424 0.25054932 -0.269104 0.25054932c-0.058776855 0 -0.08383179 -0.18527222 -0.08352661 -0.25054932c3.0517578E-4 -0.06526184 0.012680054 -0.07887268 0.085372925 -0.14103699c0.07269287 -0.062179565 -0.32447815 -0.2619934 0.35076904 -0.23199463c0.67523193 0.02999878 2.5626984 0.20631409 3.7006683 0.41201782c1.1379852 0.20568848 2.1946106 0.38323975 3.1272125 0.8221588c0.93258667 0.43891907 1.9471436 0.8608246 2.4683533 1.8113708c0.52119446 0.950531 3.8516235 0.27590942 0.658844 3.8918304c-3.1927795 3.615921 -16.512924 14.8364105 -19.815506 17.803696" fill-rule="evenodd"/><path stroke="#000000" stroke-width="1.0" stroke-linejoin="round" stroke-linecap="butt" d="m145.22443 251.60434c-0.84690857 -0.8617554 -4.7279205 -3.741806 -5.0814667 -5.1705475c-0.35354614 -1.4287415 1.6932068 -2.724472 2.9601746 -3.4018707c1.2669678 -0.67741394 3.1844177 -0.76989746 4.641617 -0.66256714c1.4571991 0.10733032 3.4287872 1.0996246 4.1015472 1.3065643c0.67277527 0.20692444 -0.07052612 0.45777893 -0.064956665 -0.064956665c0.005569458 -0.52275085 -0.43922424 -1.9289093 0.09837341 -3.0715332c0.5375824 -1.1426086 2.0170593 -2.7835388 3.1271973 -3.784195c1.1101379 -1.0006409 2.2320404 -1.9041443 3.5336456 -2.2196503c1.3016052 -0.31550598 2.932022 -0.057235718 4.276001 0.32662964c1.3439941 0.38386536 2.7869568 1.249649 3.7879028 1.9765472c1.000946 0.7268982 1.7711487 1.9134369 2.217804 2.384842c0.44665527 0.47138977 0.4497528 0.36869812 0.4621277 0.44355774c0.012374878 0.07484436 -0.42066956 0.10702515 -0.38789368 0.005569458c0.032791138 -0.10145569 0.23973083 -0.0460968 0.58461 -0.6143036c0.3448944 -0.56822205 0.7442322 -1.9722137 1.484726 -2.7949982c0.74050903 -0.8227844 1.8206482 -1.8534393 2.958313 -2.1417236c1.13768 -0.2882843 2.5376434 0.17878723 3.8677063 0.41201782c1.3300781 0.23323059 2.9747162 0.4525299 4.1127014 0.9873352c1.13797 0.53482056 2.1253204 1.3303833 2.7151794 2.221527c0.58987427 0.8911438 0.68699646 2.1995544 0.8240204 3.125351c0.13703918 0.92578125 0.043304443 1.9827118 -0.0018463135 2.429367c-0.045166016 0.44665527 -0.2103424 0.25054932 -0.269104 0.25054932c-0.058776855 0 -0.08383179 -0.18527222 -0.08352661 -0.25054932c3.0517578E-4 -0.06526184 0.012680054 -0.07887268 0.085372925 -0.14103699c0.07269287 -0.062179565 -0.32447815 -0.2619934 0.35076904 -0.23199463c0.67523193 0.02999878 2.5626984 0.20631409 3.7006683 0.41201782c1.1379852 0.20568848 2.1946106 0.38323975 3.1272125 0.8221588c0.93258667 0.43891907 1.9471436 0.8608246 2.4683533 1.8113708c0.52119446 0.950531 3.8516235 0.27590942 0.658844 3.8918304c-3.1927795 3.615921 -16.512924 14.8364105 -19.815506 17.803696" fill-rule="evenodd"/><path fill="#ffffff" d="m170.08664 277.69748l29.23439 -29.23439l-59.696777 -0.83340454" fill-rule="evenodd"/><g filter="url(#shadowFilter-p.1)"><use xlink:href="#p.1" transform=""/></g><defs><filter id="shadowFilter-p.1" filterUnits="userSpaceOnUse"><feGaussianBlur in="SourceAlpha" stdDeviation="5.0" result="blur"/><feComponentTransfer in="blur" color-interpolation-filters="sRGB"><feFuncR type="linear" slope="0" intercept="0.0"/><feFuncG type="linear" slope="0" intercept="0.0"/><feFuncB type="linear" slope="0" intercept="0.0"/><feFuncA type="linear" slope="0.5" intercept="0"/></feComponentTransfer></filter></defs><g id="p.1"><path fill="#ffffff" d="m5.7454066 171.79529l0 0c0 -91.80103 73.9823 -166.22047 165.2441 -166.22047l0 0c43.825455 0 85.85593 17.512465 116.845215 48.684853c30.989288 31.172382 48.398865 73.45122 48.398865 117.53563l0 0c0 91.801025 -73.9823 166.22046 -165.24408 166.22046l0 0c-91.261795 0 -165.2441 -74.41943 -165.2441 -166.22046z" fill-rule="evenodd"/><path fill="#000000" d="m93.49549 84.06029l2.78125 0.703125q-0.875 3.421875 -3.140625 5.21875q-2.265625 1.796875 -5.546875 1.796875q-3.390625 0 -5.515625 -1.375q-2.125 -1.390625 -3.25 -4.0q-1.109375 -2.625 -1.109375 -5.640625q0 -3.28125 1.25 -5.71875q1.265625 -2.4375 3.578125 -3.703125q2.3125 -1.28125 5.09375 -1.28125q3.140625 0 5.28125 1.609375q2.15625 1.609375 3.0 4.515625l-2.734375 0.640625q-0.71875 -2.296875 -2.109375 -3.328125q-1.390625 -1.046875 -3.5 -1.046875q-2.421875 0 -4.046875 1.15625q-1.625 1.15625 -2.28125 3.109375q-0.65625 1.953125 -0.65625 4.03125q0 2.6875 0.78125 4.6875q0.78125 1.984375 2.421875 2.984375q1.640625 0.984375 3.5625 0.984375q2.34375 0 3.953125 -1.34375q1.625 -1.359375 2.1875 -4.0zm4.914215 -0.25q0 -4.21875 2.359375 -6.25q1.953125 -1.6875 4.78125 -1.6875q3.125 0 5.109375 2.0625q2.0 2.046875 2.0 5.671875q0 2.921875 -0.875 4.609375q-0.875 1.6875 -2.5625 2.625q-1.6875 0.921875 -3.671875 0.921875q-3.203125 0 -5.171875 -2.046875q-1.96875 -2.046875 -1.96875 -5.90625zm2.65625 0q0 2.921875 1.265625 4.375q1.28125 1.453125 3.21875 1.453125q1.921875 0 3.1875 -1.453125q1.28125 -1.46875 1.28125 -4.453125q0 -2.828125 -1.28125 -4.28125q-1.28125 -1.453125 -3.1875 -1.453125q-1.9375 0 -3.21875 1.453125q-1.265625 1.4375 -1.265625 4.359375zm13.623413 1.3125l0 -2.59375l7.90625 0l0 2.59375l-7.90625 0zm10.25087 -3.921875q0 -5.234375 2.796875 -8.1875q2.8125076 -2.953125 7.2500076 -2.953125q2.90625 0 5.234375 1.390625q2.34375 1.375 3.5625 3.859375q1.234375 2.484375 1.234375 5.640625q0 3.1875 -1.296875 5.71875q-1.28125 2.515625 -3.65625 3.8125q-2.359375 1.296875 -5.09375 1.296875q-2.96875 0 -5.296875 -1.421875q-2.3281326 -1.4375 -3.5312576 -3.90625q-1.203125 -2.484375 -1.203125 -5.25zm2.859375 0.03125q0 3.796875 2.0312576 5.984375q2.046875 2.1875 5.125 2.1875q3.140625 0 5.15625 -2.203125q2.03125 -2.21875 2.03125 -6.265625q0 -2.5625 -0.875 -4.46875q-0.859375 -1.921875 -2.53125 -2.96875q-1.65625 -1.046875 -3.734375 -1.046875q-2.953125 0 -5.078125 2.03125q-2.1250076 2.015625 -2.1250076 6.75zm23.265495 10.1875l-4.65625 -15.203125l2.671875 0l2.421875 8.765625l0.90625 3.265625q0.046875 -0.234375 0.78125 -3.125l2.421875 -8.90625l2.640625 0l2.28125 8.8125l0.765625 2.90625l0.875 -2.9375l2.59375 -8.78125l2.515625 0l-4.75 15.203125l-2.6875 0l-2.421875 -9.109375l-0.578125 -2.59375l-3.078125 11.703125l-2.703125 0zm18.382965 0l0 -15.203125l2.3125 0l0 2.15625q1.671875 -2.5 4.84375 -2.5q1.375 0 2.53125 0.5q1.15625 0.484375 1.71875 1.296875q0.578125 0.796875 0.8125 1.890625q0.140625 0.71875 0.140625 2.515625l0 9.34375l-2.578125 0l0 -9.25q0 -1.578125 -0.3125 -2.359375q-0.296875 -0.78125 -1.0625 -1.234375q-0.765625 -0.46875 -1.796875 -0.46875q-1.640625 0 -2.84375 1.046875q-1.1875 1.03125 -1.1875 3.953125l0 8.3125l-2.578125 0zm26.717163 -4.890625l2.65625 0.328125q-0.625 2.328125 -2.328125 3.625q-1.703125 1.28125 -4.359375 1.28125q-3.328125 0 -5.28125 -2.046875q-1.953125 -2.0625 -1.953125 -5.765625q0 -3.84375 1.96875 -5.953125q1.984375 -2.125 5.125 -2.125q3.0625 0 4.984375 2.078125q1.9375 2.0625 1.9375 5.84375q0 0.21875 -0.015625 0.671875l-11.34375 0q0.140625 2.515625 1.421875 3.84375q1.28125 1.328125 3.171875 1.328125q1.421875 0 2.421875 -0.734375q1.0 -0.75 1.59375 -2.375zm-8.46875 -4.171875l8.5 0q-0.171875 -1.921875 -0.96875 -2.875q-1.234375 -1.5 -3.203125 -1.5q-1.765625 0 -2.984375 1.1875q-1.203125 1.1875 -1.34375 3.1875zm14.342163 9.0625l0 -15.203125l2.3125 0l0 2.296875q0.890625 -1.609375 1.640625 -2.125q0.75 -0.515625 1.65625 -0.515625q1.3125 0 2.65625 0.828125l-0.890625 2.390625q-0.953125 -0.5625 -1.890625 -0.5625q-0.84375 0 -1.515625 0.515625q-0.671875 0.5 -0.96875 1.40625q-0.421875 1.375 -0.421875 3.0l0 7.96875l-2.578125 0zm8.766495 -4.546875l2.546875 -0.390625q0.21875 1.53125 1.1875 2.34375q0.984375 0.8125 2.75 0.8125q1.78125 0 2.640625 -0.71875q0.859375 -0.71875 0.859375 -1.703125q0 -0.859375 -0.765625 -1.375q-0.53125 -0.34375 -2.640625 -0.859375q-2.828125 -0.71875 -3.921875 -1.234375q-1.09375 -0.53125 -1.671875 -1.453125q-0.5625 -0.921875 -0.5625 -2.046875q0 -1.015625 0.46875 -1.875q0.46875 -0.875 1.265625 -1.453125q0.609375 -0.4375 1.640625 -0.734375q1.046875 -0.3125 2.234375 -0.3125q1.78125 0 3.125 0.515625q1.359375 0.515625 2.0 1.390625q0.65625 0.875 0.890625 2.359375l-2.515625 0.34375q-0.171875 -1.171875 -1.0 -1.828125q-0.8125 -0.671875 -2.3125 -0.671875q-1.78125 0 -2.546875 0.59375q-0.75 0.578125 -0.75 1.375q0 0.5 0.3125 0.90625q0.3125 0.40625 0.984375 0.6875q0.390625 0.140625 2.28125 0.65625q2.734375 0.734375 3.8125 1.203125q1.078125 0.453125 1.6875 1.34375q0.625 0.890625 0.625 2.203125q0 1.296875 -0.75 2.4375q-0.75 1.125 -2.171875 1.75q-1.421875 0.625 -3.203125 0.625q-2.96875 0 -4.53125 -1.234375q-1.546875 -1.234375 -1.96875 -3.65625zm15.6953125 4.546875l0 -21.0l2.578125 0l0 7.53125q1.796875 -2.078125 4.546875 -2.078125q1.6875 0 2.9375 0.671875q1.25 0.65625 1.78125 1.828125q0.546875 1.171875 0.546875 3.40625l0 9.640625l-2.578125 0l0 -9.640625q0 -1.9375 -0.84375 -2.8125q-0.84375 -0.875 -2.375 -0.875q-1.140625 0 -2.15625 0.59375q-1.0 0.59375 -1.4375 1.609375q-0.421875 1.015625 -0.421875 2.8125l0 8.3125l-2.578125 0zm16.326538 -18.03125l0 -2.96875l2.578125 0l0 2.96875l-2.578125 0zm0 18.03125l0 -15.203125l2.578125 0l0 15.203125l-2.578125 0zm6.5001526 5.828125l0 -21.03125l2.34375 0l0 1.96875q0.828125 -1.15625 1.875 -1.734375q1.046875 -0.578125 2.53125 -0.578125q1.953125 0 3.4375 1.0q1.5 1.0 2.25 2.828125q0.765625 1.828125 0.765625 4.0q0 2.328125 -0.84375 4.203125q-0.828125 1.875 -2.4375 2.875q-1.59375 0.984375 -3.359375 0.984375q-1.28125 0 -2.3125 -0.546875q-1.015625 -0.546875 -1.671875 -1.375l0 7.40625l-2.578125 0zm2.328125 -13.34375q0 2.9375 1.1875 4.34375q1.1875 1.390625 2.875 1.390625q1.71875 0 2.9375 -1.453125q1.234375 -1.453125 1.234375 -4.5q0 -2.90625 -1.203125 -4.34375q-1.1875 -1.453125 -2.84375 -1.453125q-1.65625 0 -2.921875 1.546875q-1.265625 1.53125 -1.265625 4.46875z" fill-rule="nonzero"/></g><path fill="#6aa84f" d="m79.637566 257.58072l0 0c0 -20.847656 16.900368 -37.748016 37.74803 -37.748016l0 0c10.011398 0 19.612755 3.977005 26.691887 11.056137c7.079132 7.079132 11.056137 16.680496 11.056137 26.69188l0 0c0 20.847687 -16.90036 37.748047 -37.748024 37.748047l0 0c-20.847664 0 -37.74803 -16.90036 -37.74803 -37.748047z" fill-rule="evenodd"/><path stroke="#000000" stroke-width="1.0" stroke-linejoin="round" stroke-linecap="butt" d="m79.637566 257.58072l0 0c0 -20.847656 16.900368 -37.748016 37.74803 -37.748016l0 0c10.011398 0 19.612755 3.977005 26.691887 11.056137c7.079132 7.079132 11.056137 16.680496 11.056137 26.69188l0 0c0 20.847687 -16.90036 37.748047 -37.748024 37.748047l0 0c-20.847664 0 -37.74803 -16.90036 -37.74803 -37.748047z" fill-rule="evenodd"/><path fill="#ffffff" d="m80.108826 261.3357c0.010498047 -1.2082214 -0.6972885 -5.9890594 0.06299591 -7.249344c0.7602768 -1.2602844 3.1237946 -0.7292175 4.4986877 -0.31233215c1.3748856 0.41688538 2.7961502 1.7073517 3.7506561 2.8136292c0.9545059 1.1063232 1.6469803 3.202118 1.9763718 3.8241577c0.3293991 0.6220398 -0.3735733 0.27383423 0 -0.09185791c0.37358093 -0.36569214 1.0533752 -1.67453 2.2414703 -2.102356c1.1881027 -0.42782593 3.394577 -0.5419922 4.8871384 -0.4645691c1.492569 0.077423096 2.9247665 0.23184204 4.068245 0.9291382c1.143486 0.6972656 2.113739 2.0328064 2.7926483 3.2545776c0.67891693 1.2218018 1.0870514 2.8543396 1.2808456 4.076111c0.19378662 1.2218018 -0.100616455 2.6054382 -0.11811066 3.2546082c-0.017501831 0.6491699 0.057304382 0.57873535 0.013122559 0.6404114c-0.044181824 0.061676025 -0.37314606 -0.22177124 -0.2782135 -0.2703247c0.09492493 -0.048583984 0.20209503 0.13690186 0.84776306 -0.020996094c0.645668 -0.15792847 1.9208221 -0.86834717 3.0262527 -0.9265137c1.105423 -0.05819702 2.5979843 -0.02319336 3.6062927 0.5774231c1.008316 0.60061646 1.667984 1.9208069 2.443573 3.026245c0.775589 1.1054077 1.7834625 2.4234314 2.2099762 3.6062927c0.42650604 1.1828613 0.5621109 2.443573 0.34907532 3.4908142c-0.21303558 1.0472412 -1.0695496 2.0411377 -1.6272964 2.7926636c-0.55773926 0.7515259 -1.3713913 1.4326172 -1.7191544 1.7165222c-0.3477707 0.28390503 -0.32589722 0.028442383 -0.36745453 -0.013122559c-0.041557312 -0.04156494 0.0717392 -0.1902771 0.11811066 -0.23620605c0.04636383 -0.045928955 0.06473541 -0.046813965 0.16010284 -0.039367676c0.0953598 0.0074157715 -0.044181824 -0.41470337 0.41207123 0.083984375c0.45626068 0.49868774 1.6662292 1.9580078 2.3254623 2.908142c0.65922546 0.95010376 1.280838 1.822815 1.629921 2.792633c0.34908295 0.9698181 0.7681503 1.9855652 0.4645691 3.026245c-0.30358887 1.0406799 2.5284271 2.9186401 -2.2860947 3.217865c-4.814522 0.29919434 -22.167542 -1.1854858 -26.601051 -1.4225769" fill-rule="evenodd"/><path stroke="#000000" stroke-width="1.0" stroke-linejoin="round" stroke-linecap="butt" d="m80.108826 261.3357c0.010498047 -1.2082214 -0.6972885 -5.9890594 0.06299591 -7.249344c0.7602768 -1.2602844 3.1237946 -0.7292175 4.4986877 -0.31233215c1.3748856 0.41688538 2.7961502 1.7073517 3.7506561 2.8136292c0.9545059 1.1063232 1.6469803 3.202118 1.9763718 3.8241577c0.3293991 0.6220398 -0.3735733 0.27383423 0 -0.09185791c0.37358093 -0.36569214 1.0533752 -1.67453 2.2414703 -2.102356c1.1881027 -0.42782593 3.394577 -0.5419922 4.8871384 -0.4645691c1.492569 0.077423096 2.9247665 0.23184204 4.068245 0.9291382c1.143486 0.6972656 2.113739 2.0328064 2.7926483 3.2545776c0.67891693 1.2218018 1.0870514 2.8543396 1.2808456 4.076111c0.19378662 1.2218018 -0.100616455 2.6054382 -0.11811066 3.2546082c-0.017501831 0.6491699 0.057304382 0.57873535 0.013122559 0.6404114c-0.044181824 0.061676025 -0.37314606 -0.22177124 -0.2782135 -0.2703247c0.09492493 -0.048583984 0.20209503 0.13690186 0.84776306 -0.020996094c0.645668 -0.15792847 1.9208221 -0.86834717 3.0262527 -0.9265137c1.105423 -0.05819702 2.5979843 -0.02319336 3.6062927 0.5774231c1.008316 0.60061646 1.667984 1.9208069 2.443573 3.026245c0.775589 1.1054077 1.7834625 2.4234314 2.2099762 3.6062927c0.42650604 1.1828613 0.5621109 2.443573 0.34907532 3.4908142c-0.21303558 1.0472412 -1.0695496 2.0411377 -1.6272964 2.7926636c-0.55773926 0.7515259 -1.3713913 1.4326172 -1.7191544 1.7165222c-0.3477707 0.28390503 -0.32589722 0.028442383 -0.36745453 -0.013122559c-0.041557312 -0.04156494 0.0717392 -0.1902771 0.11811066 -0.23620605c0.04636383 -0.045928955 0.06473541 -0.046813965 0.16010284 -0.039367676c0.0953598 0.0074157715 -0.044181824 -0.41470337 0.41207123 0.083984375c0.45626068 0.49868774 1.6662292 1.9580078 2.3254623 2.908142c0.65922546 0.95010376 1.280838 1.822815 1.629921 2.792633c0.34908295 0.9698181 0.7681503 1.9855652 0.4645691 3.026245c-0.30358887 1.0406799 2.5284271 2.9186401 -2.2860947 3.217865c-4.814522 0.29919434 -22.167542 -1.1854858 -26.601051 -1.4225769" fill-rule="evenodd"/><path fill="#ffffff" d="m79.23841 297.3669l41.344078 0l-41.623093 -42.801727" fill-rule="evenodd"/><path fill="#6aa84f" d="m186.74492 257.82745l0 0c0 -20.847672 16.90036 -37.74803 37.74803 -37.74803l0 0c10.011398 0 19.612762 3.977005 26.69188 11.056137c7.0791473 7.079132 11.056137 16.680496 11.056137 26.691895l0 0c0 20.847656 -16.90036 37.748016 -37.748016 37.748016l0 0c-20.847672 0 -37.74803 -16.90036 -37.74803 -37.748016z" fill-rule="evenodd"/><path stroke="#000000" stroke-width="1.0" stroke-linejoin="round" stroke-linecap="butt" d="m186.74492 257.82745l0 0c0 -20.847672 16.90036 -37.74803 37.74803 -37.74803l0 0c10.011398 0 19.612762 3.977005 26.69188 11.056137c7.0791473 7.079132 11.056137 16.680496 11.056137 26.691895l0 0c0 20.847656 -16.90036 37.748016 -37.748016 37.748016l0 0c-20.847672 0 -37.74803 -16.90036 -37.74803 -37.748016z" fill-rule="evenodd"/><path fill="#ffffff" d="m227.78036 294.935c-1.2082214 -0.010528564 -5.9890594 0.6972656 -7.249344 -0.0630188c-1.2602692 -0.7602539 -0.7292175 -3.1237793 -0.31233215 -4.4986877c0.41688538 -1.3748779 1.7073517 -2.7961426 2.8136444 -3.7506409c1.106308 -0.9544983 3.2021027 -1.6469727 3.8241577 -1.9763794c0.6220398 -0.32940674 0.27383423 0.37356567 -0.09187317 0c-0.3657074 -0.37356567 -1.67453 -1.0533752 -2.102356 -2.2414856c-0.42782593 -1.1880798 -0.5419922 -3.3945618 -0.4645691 -4.8871155c0.077423096 -1.4925842 0.23184204 -2.9247742 0.9291382 -4.0682373c0.6972809 -1.1434937 2.0328064 -2.113739 3.254593 -2.7926636c1.2217865 -0.67892456 2.8543243 -1.0870667 4.076111 -1.2808533c1.2217865 -0.19378662 2.605423 0.100616455 3.254593 0.118133545c0.6491699 0.017486572 0.57873535 -0.05731201 0.64042664 -0.013122559c0.061676025 0.044158936 -0.2217865 0.37313843 -0.27033997 0.27819824c-0.048568726 -0.09490967 0.13691711 -0.2020874 -0.021011353 -0.8477783c-0.15791321 -0.6456604 -0.86831665 -1.9208069 -0.9264984 -3.026245c-0.058181763 -1.1054077 -0.02319336 -2.5979614 0.5774231 -3.6062927c0.60061646 -1.0083008 1.9208221 -1.6679688 3.026245 -2.443573c1.105423 -0.77557373 2.4234467 -1.7834473 3.606308 -2.209961c1.1828461 -0.42651367 2.4435577 -0.5621338 3.4908142 -0.34909058c1.0472412 0.21304321 2.0411072 1.0695496 2.7926483 1.6272888c0.7515259 0.5577698 1.4326324 1.3713989 1.7165375 1.7191772c0.28388977 0.34777832 0.028427124 0.32589722 -0.013122559 0.36746216c-0.04156494 0.041534424 -0.19029236 -0.071746826 -0.23622131 -0.118133545c-0.045944214 -0.0463562 -0.046813965 -0.06472778 -0.039382935 -0.16009521c0.007446289 -0.09536743 -0.4146881 0.044189453 0.083999634 -0.41207886c0.49868774 -0.4562378 1.9580078 -1.6662292 2.9081268 -2.3254395c0.9501343 -0.6592407 1.8228455 -1.2808533 2.7926636 -1.6299438c0.96980286 -0.34907532 1.9855499 -0.7681427 3.0262299 -0.46455383c1.0406799 0.3035736 2.9186401 -2.5284424 3.217865 2.286087c0.29919434 4.814514 -1.1854858 22.167542 -1.4225769 26.601044" fill-rule="evenodd"/><path stroke="#000000" stroke-width="1.0" stroke-linejoin="round" stroke-linecap="butt" d="m227.78036 294.935c-1.2082214 -0.010528564 -5.9890594 0.6972656 -7.249344 -0.0630188c-1.2602692 -0.7602539 -0.7292175 -3.1237793 -0.31233215 -4.4986877c0.41688538 -1.3748779 1.7073517 -2.7961426 2.8136444 -3.7506409c1.106308 -0.9544983 3.2021027 -1.6469727 3.8241577 -1.9763794c0.6220398 -0.32940674 0.27383423 0.37356567 -0.09187317 0c-0.3657074 -0.37356567 -1.67453 -1.0533752 -2.102356 -2.2414856c-0.42782593 -1.1880798 -0.5419922 -3.3945618 -0.4645691 -4.8871155c0.077423096 -1.4925842 0.23184204 -2.9247742 0.9291382 -4.0682373c0.6972809 -1.1434937 2.0328064 -2.113739 3.254593 -2.7926636c1.2217865 -0.67892456 2.8543243 -1.0870667 4.076111 -1.2808533c1.2217865 -0.19378662 2.605423 0.100616455 3.254593 0.118133545c0.6491699 0.017486572 0.57873535 -0.05731201 0.64042664 -0.013122559c0.061676025 0.044158936 -0.2217865 0.37313843 -0.27033997 0.27819824c-0.048568726 -0.09490967 0.13691711 -0.2020874 -0.021011353 -0.8477783c-0.15791321 -0.6456604 -0.86831665 -1.9208069 -0.9264984 -3.026245c-0.058181763 -1.1054077 -0.02319336 -2.5979614 0.5774231 -3.6062927c0.60061646 -1.0083008 1.9208221 -1.6679688 3.026245 -2.443573c1.105423 -0.77557373 2.4234467 -1.7834473 3.606308 -2.209961c1.1828461 -0.42651367 2.4435577 -0.5621338 3.4908142 -0.34909058c1.0472412 0.21304321 2.0411072 1.0695496 2.7926483 1.6272888c0.7515259 0.5577698 1.4326324 1.3713989 1.7165375 1.7191772c0.28388977 0.34777832 0.028427124 0.32589722 -0.013122559 0.36746216c-0.04156494 0.041534424 -0.19029236 -0.071746826 -0.23622131 -0.118133545c-0.045944214 -0.0463562 -0.046813965 -0.06472778 -0.039382935 -0.16009521c0.007446289 -0.09536743 -0.4146881 0.044189453 0.083999634 -0.41207886c0.49868774 -0.4562378 1.9580078 -1.6662292 2.9081268 -2.3254395c0.9501343 -0.6592407 1.8228455 -1.2808533 2.7926636 -1.6299438c0.96980286 -0.34907532 1.9855499 -0.7681427 3.0262299 -0.46455383c1.0406799 0.3035736 2.9186401 -2.5284424 3.217865 2.286087c0.29919434 4.814514 -1.1854858 22.167542 -1.4225769 26.601044" fill-rule="evenodd"/><path fill="#ffffff" d="m263.81158 295.8054l0 -41.34407l-42.801712 41.623093" fill-rule="evenodd"/><path fill="#6aa84f" d="m79.637566 150.08467l0 0c0 -20.847672 16.900368 -37.74804 37.74803 -37.74804l0 0c10.011398 0 19.612755 3.9770203 26.691887 11.056145c7.079132 7.079132 11.056137 16.680496 11.056137 26.691895l0 0c0 20.847656 -16.90036 37.74803 -37.748024 37.74803l0 0c-20.847664 0 -37.74803 -16.900375 -37.74803 -37.74803z" fill-rule="evenodd"/><path stroke="#000000" stroke-width="1.0" stroke-linejoin="round" stroke-linecap="butt" d="m79.637566 150.08467l0 0c0 -20.847672 16.900368 -37.74804 37.74803 -37.74804l0 0c10.011398 0 19.612755 3.9770203 26.691887 11.056145c7.079132 7.079132 11.056137 16.680496 11.056137 26.691895l0 0c0 20.847656 -16.90036 37.74803 -37.748024 37.74803l0 0c-20.847664 0 -37.74803 -16.900375 -37.74803 -37.74803z" fill-rule="evenodd"/><path fill="#ffffff" d="m96.11959 146.88466l3.65625 -9.546875l1.359375 0l3.90625 9.546875l-1.4375 0l-1.109375 -2.890625l-3.984375 0l-1.046875 2.890625l-1.34375 0zm2.75 -3.921875l3.234375 0l-1.0 -2.640625q-0.453125 -1.203125 -0.671875 -1.96875q-0.1875 0.90625 -0.515625 1.8125l-1.046875 2.796875zm7.0303802 3.921875l0 -6.90625l1.0625 0l0 0.984375q0.75 -1.140625 2.1875 -1.140625q0.625 0 1.15625 0.21875q0.53125 0.21875 0.78125 0.59375q0.265625 0.359375 0.375 0.859375q0.0625 0.328125 0.0625 1.140625l0 4.25l-1.171875 0l0 -4.203125q0 -0.71875 -0.140625 -1.0625q-0.140625 -0.359375 -0.484375 -0.5625q-0.34375 -0.21875 -0.8125 -0.21875q-0.75 0 -1.296875 0.46875q-0.546875 0.46875 -0.546875 1.796875l0 3.78125l-1.171875 0zm7.4124756 0l0 -6.90625l1.0625 0l0 0.984375q0.75 -1.140625 2.1875 -1.140625q0.625 0 1.15625 0.21875q0.53125 0.21875 0.78125 0.59375q0.265625 0.359375 0.375 0.859375q0.0625 0.328125 0.0625 1.140625l0 4.25l-1.171875 0l0 -4.203125q0 -0.71875 -0.140625 -1.0625q-0.140625 -0.359375 -0.484375 -0.5625q-0.34375 -0.21875 -0.8125 -0.21875q-0.75 0 -1.296875 0.46875q-0.546875 0.46875 -0.546875 1.796875l0 3.78125l-1.171875 0zm11.943726 0l0 -1.015625q-0.8125 1.171875 -2.1875 1.171875q-0.609375 0 -1.140625 -0.234375q-0.53125 -0.234375 -0.796875 -0.578125q-0.25 -0.359375 -0.359375 -0.875q-0.0625 -0.34375 -0.0625 -1.09375l0 -4.28125l1.171875 0l0 3.828125q0 0.921875 0.0625 1.234375q0.109375 0.46875 0.46875 0.734375q0.359375 0.25 0.890625 0.25q0.515625 0 0.984375 -0.265625q0.46875 -0.265625 0.65625 -0.734375q0.1875 -0.46875 0.1875 -1.34375l0 -3.703125l1.171875 0l0 6.90625l-1.046875 0zm7.396858 -0.859375q-0.65625 0.5625 -1.265625 0.796875q-0.59375 0.21875 -1.28125 0.21875q-1.140625 0 -1.75 -0.546875q-0.6093826 -0.5625 -0.6093826 -1.4375q0 -0.5 0.21875 -0.921875q0.23438263 -0.421875 0.6093826 -0.671875q0.375 -0.25 0.84375 -0.390625q0.34375 -0.078125 1.046875 -0.171875q1.421875 -0.171875 2.09375 -0.40625q0 -0.234375 0 -0.296875q0 -0.71875 -0.328125 -1.015625q-0.453125 -0.390625 -1.34375 -0.390625q-0.8125 0 -1.21875 0.296875q-0.390625 0.28125 -0.578125 1.015625l-1.1406326 -0.15625q0.15625763 -0.734375 0.5156326 -1.1875q0.359375 -0.453125 1.03125 -0.6875q0.671875 -0.25 1.5625 -0.25q0.890625 0 1.4375 0.203125q0.5625 0.203125 0.8125 0.53125q0.265625 0.3125 0.375 0.796875q0.046875 0.296875 0.046875 1.078125l0 1.5625q0 1.625 0.078125 2.0625q0.078125 0.4375 0.296875 0.828125l-1.21875 0q-0.1875 -0.359375 -0.234375 -0.859375zm-0.09375 -2.609375q-0.640625 0.265625 -1.921875 0.4375q-0.71875 0.109375 -1.015625 0.25q-0.296875 0.125 -0.46875 0.375q-0.15625 0.25 -0.15625 0.546875q0 0.46875 0.34375 0.78125q0.359375 0.3125 1.046875 0.3125q0.671875 0 1.203125 -0.296875q0.53125 -0.296875 0.78125 -0.8125q0.1875 -0.390625 0.1875 -1.171875l0 -0.421875zm2.9749756 3.46875l0 -9.546875l1.171875 0l0 9.546875l-1.171875 0z" fill-rule="nonzero"/><path fill="#ffffff" d="m98.95872 162.88467l0 -9.546875l3.59375 0q1.09375 0 1.75 0.296875q0.65625 0.28125 1.03125 0.890625q0.375 0.609375 0.375 1.265625q0 0.609375 -0.34375 1.15625q-0.328125 0.53125 -0.984375 0.859375q0.859375 0.25 1.328125 0.875q0.46875 0.609375 0.46875 1.4375q0 0.671875 -0.296875 1.25q-0.28125 0.578125 -0.703125 0.890625q-0.40625 0.3125 -1.03125 0.46875q-0.625 0.15625 -1.546875 0.15625l-3.640625 0zm1.265625 -5.53125l2.0625 0q0.84375 0 1.203125 -0.109375q0.484375 -0.140625 0.71875 -0.46875q0.25 -0.34375 0.25 -0.84375q0 -0.46875 -0.234375 -0.828125q-0.21875 -0.359375 -0.640625 -0.5q-0.421875 -0.140625 -1.453125 -0.140625l-1.90625 0l0 2.890625zm0 4.40625l2.375 0q0.609375 0 0.859375 -0.046875q0.4375 -0.078125 0.734375 -0.25q0.296875 -0.1875 0.484375 -0.53125q0.1875 -0.359375 0.1875 -0.8125q0 -0.53125 -0.28125 -0.921875q-0.265625 -0.40625 -0.75 -0.5625q-0.484375 -0.15625 -1.40625 -0.15625l-2.203125 0l0 3.28125zm7.0928802 -2.328125q0 -1.921875 1.078125 -2.84375q0.890625 -0.765625 2.171875 -0.765625q1.421875 0 2.328125 0.9375q0.90625 0.921875 0.90625 2.578125q0 1.328125 -0.40625 2.09375q-0.390625 0.765625 -1.15625 1.1875q-0.765625 0.421875 -1.671875 0.421875q-1.453125 0 -2.359375 -0.921875q-0.890625 -0.9375 -0.890625 -2.6875zm1.203125 0q0 1.328125 0.578125 1.984375q0.59375 0.65625 1.46875 0.65625q0.875 0 1.453125 -0.65625q0.578125 -0.671875 0.578125 -2.03125q0 -1.28125 -0.59375 -1.9375q-0.578125 -0.65625 -1.4375 -0.65625q-0.875 0 -1.46875 0.65625q-0.578125 0.65625 -0.578125 1.984375zm6.6468506 3.453125l0 -6.90625l1.0625 0l0 0.984375q0.75 -1.140625 2.1875 -1.140625q0.625 0 1.15625 0.21875q0.53125 0.21875 0.78125 0.59375q0.265625 0.359375 0.375 0.859375q0.0625 0.328125 0.0625 1.140625l0 4.25l-1.171875 0l0 -4.203125q0 -0.71875 -0.140625 -1.0625q-0.140625 -0.359375 -0.484375 -0.5625q-0.34375 -0.21875 -0.8125 -0.21875q-0.75 0 -1.296875 0.46875q-0.546875 0.46875 -0.546875 1.796875l0 3.78125l-1.171875 0zm11.943726 0l0 -1.015625q-0.8125 1.171875 -2.1875 1.171875q-0.609375 0 -1.140625 -0.234375q-0.53125 -0.234375 -0.796875 -0.578125q-0.25 -0.359375 -0.359375 -0.875q-0.0625 -0.34375 -0.0625 -1.09375l0 -4.28125l1.171875 0l0 3.828125q0 0.921875 0.0625 1.234375q0.109375 0.46875 0.46875 0.734375q0.359375 0.25 0.890625 0.25q0.515625 0 0.984375 -0.265625q0.46875 -0.265625 0.65625 -0.734375q0.1875 -0.46875 0.1875 -1.34375l0 -3.703125l1.1718826 0l0 6.90625l-1.0468826 0zm2.4124832 -2.0625l1.15625 -0.1875q0.109375 0.703125 0.546875 1.078125q0.453125 0.359375 1.25 0.359375q0.8125 0 1.203125 -0.328125q0.390625 -0.328125 0.390625 -0.765625q0 -0.390625 -0.359375 -0.625q-0.234375 -0.15625 -1.1875 -0.390625q-1.296875 -0.328125 -1.796875 -0.5625q-0.484375 -0.25 -0.75 -0.65625q-0.25 -0.421875 -0.25 -0.9375q0 -0.453125 0.203125 -0.84375q0.21875 -0.40625 0.578125 -0.671875q0.28125 -0.1875 0.75 -0.328125q0.46875 -0.140625 1.015625 -0.140625q0.8125 0 1.421875 0.234375q0.609375 0.234375 0.90625 0.640625q0.296875 0.390625 0.40625 1.0625l-1.140625 0.15625q-0.078125 -0.53125 -0.453125 -0.828125q-0.375 -0.3125 -1.0625 -0.3125q-0.8125 0 -1.15625 0.265625q-0.34375 0.265625 -0.34375 0.625q0 0.234375 0.140625 0.421875q0.15625 0.1875 0.453125 0.3125q0.171875 0.0625 1.03125 0.296875q1.25 0.328125 1.734375 0.546875q0.5 0.203125 0.78125 0.609375q0.28125 0.40625 0.28125 1.0q0 0.59375 -0.34375 1.109375q-0.34375 0.515625 -1.0 0.796875q-0.640625 0.28125 -1.453125 0.28125q-1.34375 0 -2.046875 -0.5625q-0.703125 -0.5625 -0.90625 -1.65625z" fill-rule="nonzero"/><path fill="#ffffff" d="m113.805984 112.56349c1.2082291 0.010498047 5.989067 -0.6972885 7.249344 0.06298828c1.2602844 0.7602844 0.72922516 3.1238022 0.31233978 4.4986877c-0.41688538 1.3748932 -1.7073517 2.7961502 -2.813652 3.7506561c-1.1063004 0.9545059 -3.202095 1.6469879 -3.8241425 1.9763794c-0.6220474 0.3293991 -0.27384186 -0.3735733 0.09185791 0c0.3657074 0.37358093 1.6745453 1.0533676 2.1023636 2.2414703c0.42782593 1.1881027 0.5419922 3.394577 0.4645691 4.887146c-0.077430725 1.4925537 -0.23184967 2.924759 -0.9291382 4.0682373c-0.6972809 1.1434784 -2.0328064 2.113739 -3.254593 2.7926483c-1.2217789 0.6789093 -2.8543243 1.0870514 -4.076111 1.280838c-1.2217865 0.19378662 -2.605423 -0.100616455 -3.254593 -0.11810303c-0.6491699 -0.017501831 -0.578743 0.057296753 -0.640419 0.013122559c-0.061683655 -0.044189453 0.22177887 -0.37313843 0.27033997 -0.2782135c0.048553467 0.09492493 -0.13692474 0.2020874 0.020996094 0.84776306c0.15792084 0.64567566 0.8683319 1.9208221 0.92650604 3.026245c0.058181763 1.105423 0.02318573 2.597992 -0.5774231 3.606308c-0.60061646 1.0083008 -1.9208221 1.6679688 -3.026245 2.4435577c-1.1054306 0.775589 -2.4234543 1.7834625 -3.6063004 2.2099762c-1.1828537 0.42651367 -2.443573 0.56211853 -3.4908142 0.34909058c-1.0472488 -0.21304321 -2.0411224 -1.0695648 -2.792656 -1.6273041c-0.7515259 -0.55773926 -1.4326324 -1.3713837 -1.7165298 -1.719162c-0.28390503 -0.34776306 -0.028434753 -0.32589722 0.013122559 -0.3674469c0.041557312 -0.04156494 0.19028473 0.07173157 0.23622131 0.11810303c0.045928955 0.04637146 0.046806335 0.06474304 0.039367676 0.16011047c-0.0074386597 0.09536743 0.41469574 -0.044189453 -0.083992004 0.4120636c-0.49868774 0.4562683 -1.9580002 1.6662292 -2.9081345 2.32547c-0.9501343 0.65922546 -1.8228378 1.280838 -2.7926483 1.6299133c-0.9698181 0.34909058 -1.9855652 0.76815796 -3.026245 0.4645691c-1.0406876 -0.30358887 -2.9186401 2.5284424 -3.2178497 -2.286087c-0.29921722 -4.8145294 1.1854782 -22.167542 1.4225693 -26.601051" fill-rule="evenodd"/><path stroke="#000000" stroke-width="1.0" stroke-linejoin="round" stroke-linecap="butt" d="m113.805984 112.56349c1.2082291 0.010498047 5.989067 -0.6972885 7.249344 0.06298828c1.2602844 0.7602844 0.72922516 3.1238022 0.31233978 4.4986877c-0.41688538 1.3748932 -1.7073517 2.7961502 -2.813652 3.7506561c-1.1063004 0.9545059 -3.202095 1.6469879 -3.8241425 1.9763794c-0.6220474 0.3293991 -0.27384186 -0.3735733 0.09185791 0c0.3657074 0.37358093 1.6745453 1.0533676 2.1023636 2.2414703c0.42782593 1.1881027 0.5419922 3.394577 0.4645691 4.887146c-0.077430725 1.4925537 -0.23184967 2.924759 -0.9291382 4.0682373c-0.6972809 1.1434784 -2.0328064 2.113739 -3.254593 2.7926483c-1.2217789 0.6789093 -2.8543243 1.0870514 -4.076111 1.280838c-1.2217865 0.19378662 -2.605423 -0.100616455 -3.254593 -0.11810303c-0.6491699 -0.017501831 -0.578743 0.057296753 -0.640419 0.013122559c-0.061683655 -0.044189453 0.22177887 -0.37313843 0.27033997 -0.2782135c0.048553467 0.09492493 -0.13692474 0.2020874 0.020996094 0.84776306c0.15792084 0.64567566 0.8683319 1.9208221 0.92650604 3.026245c0.058181763 1.105423 0.02318573 2.597992 -0.5774231 3.606308c-0.60061646 1.0083008 -1.9208221 1.6679688 -3.026245 2.4435577c-1.1054306 0.775589 -2.4234543 1.7834625 -3.6063004 2.2099762c-1.1828537 0.42651367 -2.443573 0.56211853 -3.4908142 0.34909058c-1.0472488 -0.21304321 -2.0411224 -1.0695648 -2.792656 -1.6273041c-0.7515259 -0.55773926 -1.4326324 -1.3713837 -1.7165298 -1.719162c-0.28390503 -0.34776306 -0.028434753 -0.32589722 0.013122559 -0.3674469c0.041557312 -0.04156494 0.19028473 0.07173157 0.23622131 0.11810303c0.045928955 0.04637146 0.046806335 0.06474304 0.039367676 0.16011047c-0.0074386597 0.09536743 0.41469574 -0.044189453 -0.083992004 0.4120636c-0.49868774 0.4562683 -1.9580002 1.6662292 -2.9081345 2.32547c-0.9501343 0.65922546 -1.8228378 1.280838 -2.7926483 1.6299133c-0.9698181 0.34909058 -1.9855652 0.76815796 -3.026245 0.4645691c-1.0406876 -0.30358887 -2.9186401 2.5284424 -3.2178497 -2.286087c-0.29921722 -4.8145294 1.1854782 -22.167542 1.4225693 -26.601051" fill-rule="evenodd"/><path fill="#ffffff" d="m77.77477 111.69308l0 41.344078l42.80172 -41.623093" fill-rule="evenodd"/><path fill="#6aa84f" d="m186.74492 150.49149l0 0c0 -20.847656 16.90036 -37.748024 37.74803 -37.748024l0 0c10.011398 0 19.612762 3.9770126 26.69188 11.056137c7.0791473 7.0791397 11.056137 16.680489 11.056137 26.691887l0 0c0 20.847672 -16.90036 37.74803 -37.748016 37.74803l0 0c-20.847672 0 -37.74803 -16.90036 -37.74803 -37.74803z" fill-rule="evenodd"/><path stroke="#000000" stroke-width="1.0" stroke-linejoin="round" stroke-linecap="butt" d="m186.74492 150.49149l0 0c0 -20.847656 16.90036 -37.748024 37.74803 -37.748024l0 0c10.011398 0 19.612762 3.9770126 26.69188 11.056137c7.0791473 7.0791397 11.056137 16.680489 11.056137 26.691887l0 0c0 20.847672 -16.90036 37.74803 -37.748016 37.74803l0 0c-20.847672 0 -37.74803 -16.90036 -37.74803 -37.74803z" fill-rule="evenodd"/><path fill="#ffffff" d="m194.72491 147.29149l0 -9.546875l4.234375 0q1.265625 0 1.921875 0.265625q0.671875 0.25 1.0625 0.90625q0.40625 0.65625 0.40625 1.4375q0 1.015625 -0.65625 1.71875q-0.65625 0.6875 -2.03125 0.875q0.5 0.25 0.765625 0.484375q0.546875 0.5 1.046875 1.265625l1.65625 2.59375l-1.578125 0l-1.265625 -1.984375q-0.5625 -0.859375 -0.921875 -1.3125q-0.34375 -0.453125 -0.640625 -0.640625q-0.28125 -0.1875 -0.5625 -0.25q-0.21875 -0.046875 -0.703125 -0.046875l-1.46875 0l0 4.234375l-1.265625 0zm1.265625 -5.328125l2.71875 0q0.859375 0 1.34375 -0.171875q0.484375 -0.1875 0.734375 -0.578125q0.265625 -0.390625 0.265625 -0.859375q0 -0.671875 -0.5 -1.109375q-0.484375 -0.4375 -1.546875 -0.4375l-3.015625 0l0 3.15625zm12.922028 3.109375l1.203125 0.140625q-0.28125 1.0625 -1.0625 1.65625q-0.765625 0.578125 -1.96875 0.578125q-1.515625 0 -2.40625 -0.9375q-0.890625 -0.9375 -0.890625 -2.609375q0 -1.75 0.890625 -2.703125q0.90625 -0.96875 2.34375 -0.96875q1.390625 0 2.265625 0.9375q0.875 0.9375 0.875 2.65625q0 0.109375 0 0.3125l-5.15625 0q0.0625 1.140625 0.640625 1.75q0.578125 0.59375 1.4375 0.59375q0.65625 0 1.109375 -0.328125q0.453125 -0.34375 0.71875 -1.078125zm-3.84375 -1.90625l3.859375 0q-0.078125 -0.859375 -0.4375 -1.296875q-0.5625 -0.6875 -1.453125 -0.6875q-0.8125 0 -1.359375 0.546875q-0.546875 0.53125 -0.609375 1.4375zm6.5218506 6.78125l0 -9.5625l1.078125 0l0 0.890625q0.375 -0.53125 0.84375 -0.78125q0.484375 -0.265625 1.15625 -0.265625q0.875 0 1.546875 0.453125q0.6875 0.453125 1.03125 1.28125q0.34375 0.828125 0.34375 1.828125q0 1.046875 -0.375 1.90625q-0.375 0.84375 -1.109375 1.296875q-0.71875 0.453125 -1.53125 0.453125q-0.578125 0 -1.046875 -0.25q-0.46875 -0.25 -0.765625 -0.625l0 3.375l-1.171875 0zm1.0625 -6.078125q0 1.34375 0.53125 1.984375q0.546875 0.625 1.3125 0.625q0.78125 0 1.34375 -0.65625q0.5625 -0.65625 0.5625 -2.046875q0 -1.3125 -0.546875 -1.96875q-0.546875 -0.671875 -1.296875 -0.671875q-0.75 0 -1.328125 0.703125q-0.578125 0.703125 -0.578125 2.03125zm10.865601 2.5625q-0.65625 0.5625 -1.265625 0.796875q-0.59375 0.21875 -1.28125 0.21875q-1.140625 0 -1.75 -0.546875q-0.609375 -0.5625 -0.609375 -1.4375q0 -0.5 0.21875 -0.921875q0.234375 -0.421875 0.609375 -0.671875q0.375 -0.25 0.84375 -0.390625q0.34375 -0.078125 1.046875 -0.171875q1.421875 -0.171875 2.09375 -0.40625q0 -0.234375 0 -0.296875q0 -0.71875 -0.328125 -1.015625q-0.453125 -0.390625 -1.34375 -0.390625q-0.8125 0 -1.21875 0.296875q-0.390625 0.28125 -0.578125 1.015625l-1.140625 -0.15625q0.15625 -0.734375 0.515625 -1.1875q0.359375 -0.453125 1.03125 -0.6875q0.671875 -0.25 1.5625 -0.25q0.890625 0 1.4375 0.203125q0.5625 0.203125 0.8125 0.53125q0.265625 0.3125 0.375 0.796875q0.046875 0.296875 0.046875 1.078125l0 1.5625q0 1.625 0.078125 2.0625q0.078125 0.4375 0.296875 0.828125l-1.21875 0q-0.1875 -0.359375 -0.234375 -0.859375zm-0.09375 -2.609375q-0.640625 0.265625 -1.921875 0.4375q-0.71875 0.109375 -1.015625 0.25q-0.296875 0.125 -0.46875 0.375q-0.15625 0.25 -0.15625 0.546875q0 0.46875 0.34375 0.78125q0.359375 0.3125 1.046875 0.3125q0.671875 0 1.203125 -0.296875q0.53125 -0.296875 0.78125 -0.8125q0.1875 -0.390625 0.1875 -1.171875l0 -0.421875zm2.9437256 6.125l-0.125 -1.09375q0.375 0.109375 0.65625 0.109375q0.390625 0 0.625 -0.140625q0.234375 -0.125 0.390625 -0.359375q0.109375 -0.171875 0.359375 -0.875q0.03125 -0.09375 0.109375 -0.28125l-2.625 -6.921875l1.265625 0l1.4375 4.0q0.28125 0.765625 0.5 1.59375q0.203125 -0.796875 0.46875 -1.578125l1.484375 -4.015625l1.171875 0l-2.625 7.015625q-0.421875 1.140625 -0.65625 1.578125q-0.3125 0.578125 -0.71875 0.84375q-0.40625 0.28125 -0.96875 0.28125q-0.328125 0 -0.75 -0.15625zm6.7109375 -2.65625l0 -6.90625l1.046875 0l0 0.96875q0.328125 -0.515625 0.859375 -0.8125q0.546875 -0.3125 1.234375 -0.3125q0.78125 0 1.265625 0.3125q0.484375 0.3125 0.6875 0.890625q0.828125 -1.203125 2.140625 -1.203125q1.03125 0 1.578125 0.578125q0.5625 0.5625 0.5625 1.734375l0 4.75l-1.171875 0l0 -4.359375q0 -0.703125 -0.125 -1.0q-0.109375 -0.3125 -0.40625 -0.5q-0.296875 -0.1875 -0.703125 -0.1875q-0.71875 0 -1.203125 0.484375q-0.484375 0.484375 -0.484375 1.546875l0 4.015625l-1.171875 0l0 -4.484375q0 -0.78125 -0.296875 -1.171875q-0.28125 -0.390625 -0.921875 -0.390625q-0.5 0 -0.921875 0.265625q-0.421875 0.25 -0.609375 0.75q-0.1875 0.5 -0.1875 1.453125l0 3.578125l-1.171875 0zm15.836807 -2.21875l1.203125 0.140625q-0.28125 1.0625 -1.0625 1.65625q-0.765625 0.578125 -1.96875 0.578125q-1.515625 0 -2.40625 -0.9375q-0.890625 -0.9375 -0.890625 -2.609375q0 -1.75 0.890625 -2.703125q0.90625 -0.96875 2.34375 -0.96875q1.390625 0 2.265625 0.9375q0.875 0.9375 0.875 2.65625q0 0.109375 0 0.3125l-5.15625 0q0.0625 1.140625 0.640625 1.75q0.578125 0.59375 1.4375 0.59375q0.65625 0 1.109375 -0.328125q0.453125 -0.34375 0.71875 -1.078125zm-3.84375 -1.90625l3.859375 0q-0.078125 -0.859375 -0.4375 -1.296875q-0.5625 -0.6875 -1.453125 -0.6875q-0.8125 0 -1.359375 0.546875q-0.546875 0.53125 -0.609375 1.4375zm6.5218506 4.125l0 -6.90625l1.0625 0l0 0.984375q0.75 -1.140625 2.1875 -1.140625q0.625 0 1.1562653 0.21875q0.53125 0.21875 0.78125 0.59375q0.265625 0.359375 0.375 0.859375q0.0625 0.328125 0.0625 1.140625l0 4.25l-1.171875 0l0 -4.203125q0 -0.71875 -0.14064026 -1.0625q-0.140625 -0.359375 -0.484375 -0.5625q-0.34375 -0.21875 -0.8125 -0.21875q-0.75 0 -1.296875 0.46875q-0.546875 0.46875 -0.546875 1.796875l0 3.78125l-1.171875 0zm9.974991 -1.046875l0.171875 1.03125q-0.5 0.109375 -0.890625 0.109375q-0.640625 0 -1.0 -0.203125q-0.34375 -0.203125 -0.484375 -0.53125q-0.140625 -0.328125 -0.140625 -1.390625l0 -3.96875l-0.859375 0l0 -0.90625l0.859375 0l0 -1.71875l1.171875 -0.703125l0 2.421875l1.171875 0l0 0.90625l-1.171875 0l0 4.046875q0 0.5 0.046875 0.640625q0.0625 0.140625 0.203125 0.234375q0.140625 0.078125 0.40625 0.078125q0.203125 0 0.515625 -0.046875z" fill-rule="nonzero"/><path fill="#ffffff" d="m211.39731 163.29149l0 -9.546875l6.4375 0l0 1.125l-5.171875 0l0 2.96875l4.46875 0l0 1.125l-4.46875 0l0 4.328125l-1.265625 0zm12.453857 0l0 -1.015625q-0.8125 1.171875 -2.1875 1.171875q-0.609375 0 -1.140625 -0.234375q-0.53125 -0.234375 -0.796875 -0.578125q-0.25 -0.359375 -0.359375 -0.875q-0.0625 -0.34375 -0.0625 -1.09375l0 -4.28125l1.171875 0l0 3.828125q0 0.921875 0.0625 1.234375q0.109375 0.46875 0.46875 0.734375q0.359375 0.25 0.890625 0.25q0.515625 0 0.984375 -0.265625q0.46875 -0.265625 0.65625 -0.734375q0.1875 -0.46875 0.1875 -1.34375l0 -3.703125l1.171875 0l0 6.90625l-1.046875 0zm2.8812256 0l0 -6.90625l1.0625 0l0 0.984375q0.75 -1.140625 2.1875 -1.140625q0.625 0 1.15625 0.21875q0.53125 0.21875 0.78125 0.59375q0.265625 0.359375 0.375 0.859375q0.0625 0.328125 0.0625 1.140625l0 4.25l-1.171875 0l0 -4.203125q0 -0.71875 -0.140625 -1.0625q-0.140625 -0.359375 -0.484375 -0.5625q-0.34375 -0.21875 -0.8125 -0.21875q-0.75 0 -1.296875 0.46875q-0.546875 0.46875 -0.546875 1.796875l0 3.78125l-1.171875 0zm11.896851 0l0 -0.875q-0.65625 1.03125 -1.9375 1.03125q-0.8125 0 -1.515625 -0.453125q-0.6875 -0.453125 -1.078125 -1.265625q-0.375 -0.828125 -0.375 -1.890625q0 -1.03125 0.34375 -1.875q0.34375 -0.84375 1.03125 -1.28125q0.703125 -0.453125 1.546875 -0.453125q0.625 0 1.109375 0.265625q0.5 0.25 0.796875 0.671875l0 -3.421875l1.171875 0l0 9.546875l-1.09375 0zm-3.703125 -3.453125q0 1.328125 0.5625 1.984375q0.5625 0.65625 1.328125 0.65625q0.765625 0 1.296875 -0.625q0.53125 -0.625 0.53125 -1.90625q0 -1.421875 -0.546875 -2.078125q-0.546875 -0.671875 -1.34375 -0.671875q-0.78125 0 -1.3125 0.640625q-0.515625 0.625 -0.515625 2.0z" fill-rule="nonzero"/><path fill="#ffffff" d="m261.81842 147.0386c-0.010498047 1.2082214 0.69729614 5.9890594 -0.06298828 7.249344c-0.7602844 1.2602692 -3.1238098 0.7292175 -4.4986877 0.31233215c-1.3748932 -0.41688538 -2.7961578 -1.7073517 -3.7506561 -2.8136444c-0.95451355 -1.106308 -1.6469879 -3.2021027 -1.9763794 -3.8241577c-0.32940674 -0.6220398 0.37356567 -0.27383423 0 0.09187317c-0.37358093 0.3657074 -1.0533752 1.67453 -2.2414703 2.102356c-1.1881104 0.42782593 -3.394577 0.5419922 -4.887146 0.4645691c-1.492569 -0.077423096 -2.924759 -0.23184204 -4.0682373 -0.9291382c-1.1434784 -0.6972809 -2.113739 -2.0328064 -2.7926483 -3.254593c-0.67892456 -1.2217865 -1.0870514 -2.8543243 -1.280838 -4.076111c-0.19380188 -1.2217865 0.1006012 -2.605423 0.11810303 -3.254593c0.017501831 -0.6491699 -0.05731201 -0.57873535 -0.013122559 -0.64042664c0.044174194 -0.061676025 0.37313843 0.2217865 0.2782135 0.27033997c-0.09492493 0.048568726 -0.20210266 -0.13691711 -0.84776306 0.021011353c-0.64567566 0.15791321 -1.9208221 0.86831665 -3.026245 0.9264984c-1.105423 0.058181763 -2.597992 0.02319336 -3.606308 -0.5774231c-1.008316 -0.60061646 -1.6679688 -1.9208221 -2.443573 -3.026245c-0.775589 -1.105423 -1.7834625 -2.4234467 -2.209961 -3.606308c-0.42651367 -1.1828461 -0.56211853 -2.4435577 -0.34909058 -3.4908142c0.21304321 -1.0472336 1.0695496 -2.0411148 1.6273041 -2.7926407c0.55773926 -0.7515335 1.3713837 -1.4326324 1.719162 -1.7165375c0.34776306 -0.28390503 0.32589722 -0.028434753 0.3674469 0.013122559c0.04156494 0.041557312 -0.071746826 0.19029236 -0.11810303 0.23622131c-0.04637146 0.045928955 -0.06474304 0.046806335 -0.16011047 0.039367676c-0.09536743 -0.0074386597 0.044174194 0.41470337 -0.41207886 -0.083984375c-0.45625305 -0.49868774 -1.6662292 -1.9580078 -2.3254547 -2.908142c-0.65922546 -0.95012665 -1.280838 -1.8228302 -1.6299286 -2.7926483c-0.34907532 -0.9698181 -0.7681427 -1.9855652 -0.46455383 -3.026245c0.3035736 -1.0406876 -2.5284424 -2.9186401 2.286087 -3.2178497c4.814514 -0.2992096 22.167542 1.1854782 26.601044 1.4225693" fill-rule="evenodd"/><path stroke="#000000" stroke-width="1.0" stroke-linejoin="round" stroke-linecap="butt" d="m261.81842 147.0386c-0.010498047 1.2082214 0.69729614 5.9890594 -0.06298828 7.249344c-0.7602844 1.2602692 -3.1238098 0.7292175 -4.4986877 0.31233215c-1.3748932 -0.41688538 -2.7961578 -1.7073517 -3.7506561 -2.8136444c-0.95451355 -1.106308 -1.6469879 -3.2021027 -1.9763794 -3.8241577c-0.32940674 -0.6220398 0.37356567 -0.27383423 0 0.09187317c-0.37358093 0.3657074 -1.0533752 1.67453 -2.2414703 2.102356c-1.1881104 0.42782593 -3.394577 0.5419922 -4.887146 0.4645691c-1.492569 -0.077423096 -2.924759 -0.23184204 -4.0682373 -0.9291382c-1.1434784 -0.6972809 -2.113739 -2.0328064 -2.7926483 -3.254593c-0.67892456 -1.2217865 -1.0870514 -2.8543243 -1.280838 -4.076111c-0.19380188 -1.2217865 0.1006012 -2.605423 0.11810303 -3.254593c0.017501831 -0.6491699 -0.05731201 -0.57873535 -0.013122559 -0.64042664c0.044174194 -0.061676025 0.37313843 0.2217865 0.2782135 0.27033997c-0.09492493 0.048568726 -0.20210266 -0.13691711 -0.84776306 0.021011353c-0.64567566 0.15791321 -1.9208221 0.86831665 -3.026245 0.9264984c-1.105423 0.058181763 -2.597992 0.02319336 -3.606308 -0.5774231c-1.008316 -0.60061646 -1.6679688 -1.9208221 -2.443573 -3.026245c-0.775589 -1.105423 -1.7834625 -2.4234467 -2.209961 -3.606308c-0.42651367 -1.1828461 -0.56211853 -2.4435577 -0.34909058 -3.4908142c0.21304321 -1.0472336 1.0695496 -2.0411148 1.6273041 -2.7926407c0.55773926 -0.7515335 1.3713837 -1.4326324 1.719162 -1.7165375c0.34776306 -0.28390503 0.32589722 -0.028434753 0.3674469 0.013122559c0.04156494 0.041557312 -0.071746826 0.19029236 -0.11810303 0.23622131c-0.04637146 0.045928955 -0.06474304 0.046806335 -0.16011047 0.039367676c-0.09536743 -0.0074386597 0.044174194 0.41470337 -0.41207886 -0.083984375c-0.45625305 -0.49868774 -1.6662292 -1.9580078 -2.3254547 -2.908142c-0.65922546 -0.95012665 -1.280838 -1.8228302 -1.6299286 -2.7926483c-0.34907532 -0.9698181 -0.7681427 -1.9855652 -0.46455383 -3.026245c0.3035736 -1.0406876 -2.5284424 -2.9186401 2.286087 -3.2178497c4.814514 -0.2992096 22.167542 1.1854782 26.601044 1.4225693" fill-rule="evenodd"/><path fill="#ffffff" d="m262.68884 111.007385l-41.344086 0l41.623077 42.801712" fill-rule="evenodd"/><path fill="#ffffff" d="m379.15027 241.04674c0.010498047 -1.2082214 -0.69729614 -5.9890747 0.06298828 -7.249344c0.7602844 -1.2602844 3.1237793 -0.7292328 4.4986877 -0.3123474c1.3748779 0.41688538 2.7961426 1.7073517 3.7506409 2.8136597c0.9544983 1.1062927 1.6469727 3.2020874 1.9763794 3.8241425c0.32940674 0.6220398 -0.37356567 0.27383423 0 -0.09185791c0.3735962 -0.3657074 1.0533752 -1.6745453 2.2414856 -2.1023712c1.1880798 -0.42782593 3.3945618 -0.5419922 4.8871155 -0.4645691c1.4925842 0.077438354 2.9247742 0.2318573 4.068268 0.9291382c1.1434631 0.69729614 2.1137085 2.0328064 2.792633 3.254593c0.67892456 1.2217865 1.0870667 2.8543396 1.2808533 4.076111c0.19378662 1.2217865 -0.100616455 2.605423 -0.118133545 3.254593c-0.017486572 0.6491699 0.05731201 0.5787506 0.013122559 0.64042664c-0.044158936 0.061676025 -0.37313843 -0.2217865 -0.27819824 -0.27033997c0.09490967 -0.048553467 0.2020874 0.13691711 0.8477783 -0.020996094c0.6456604 -0.15791321 1.9208069 -0.8683319 3.026245 -0.9265137c1.1054077 -0.058181763 2.597992 -0.0231781 3.6062927 0.5774231c1.0083008 0.60061646 1.6679688 1.9208221 2.443573 3.0262604c0.77557373 1.105423 1.7834473 2.4234467 2.209961 3.6062927c0.42651367 1.1828461 0.5621338 2.4435577 0.34909058 3.490799c-0.21304321 1.0472717 -1.0695496 2.0411377 -1.6272888 2.7926636c-0.5577698 0.7515259 -1.3713989 1.4326477 -1.7191772 1.7165222c-0.34777832 0.28390503 -0.32589722 0.028442383 -0.36746216 -0.013122559c-0.041534424 -0.041534424 0.071746826 -0.1902771 0.118133545 -0.23620605c0.0463562 -0.045928955 0.06472778 -0.046813965 0.16009521 -0.039367676c0.09536743 0.007446289 -0.044189453 -0.41470337 0.41207886 0.083984375c0.4562378 0.49868774 1.6662292 1.9580078 2.3254395 2.908142c0.6592407 0.9501343 1.2808533 1.8228455 1.6299438 2.792633c0.34906006 0.9698181 0.76815796 1.9855652 0.4645691 3.0262756c-0.30358887 1.0406799 2.5284119 2.9186096 -2.2861023 3.2178345c-4.814514 0.29922485 -22.167542 -1.1854858 -26.601044 -1.4225769" fill-rule="evenodd"/><path stroke="#000000" stroke-width="1.0" stroke-linejoin="round" stroke-linecap="butt" d="m379.15027 241.04674c0.010498047 -1.2082214 -0.69729614 -5.9890747 0.06298828 -7.249344c0.7602844 -1.2602844 3.1237793 -0.7292328 4.4986877 -0.3123474c1.3748779 0.41688538 2.7961426 1.7073517 3.7506409 2.8136597c0.9544983 1.1062927 1.6469727 3.2020874 1.9763794 3.8241425c0.32940674 0.6220398 -0.37356567 0.27383423 0 -0.09185791c0.3735962 -0.3657074 1.0533752 -1.6745453 2.2414856 -2.1023712c1.1880798 -0.42782593 3.3945618 -0.5419922 4.8871155 -0.4645691c1.4925842 0.077438354 2.9247742 0.2318573 4.068268 0.9291382c1.1434631 0.69729614 2.1137085 2.0328064 2.792633 3.254593c0.67892456 1.2217865 1.0870667 2.8543396 1.2808533 4.076111c0.19378662 1.2217865 -0.100616455 2.605423 -0.118133545 3.254593c-0.017486572 0.6491699 0.05731201 0.5787506 0.013122559 0.64042664c-0.044158936 0.061676025 -0.37313843 -0.2217865 -0.27819824 -0.27033997c0.09490967 -0.048553467 0.2020874 0.13691711 0.8477783 -0.020996094c0.6456604 -0.15791321 1.9208069 -0.8683319 3.026245 -0.9265137c1.1054077 -0.058181763 2.597992 -0.0231781 3.6062927 0.5774231c1.0083008 0.60061646 1.6679688 1.9208221 2.443573 3.0262604c0.77557373 1.105423 1.7834473 2.4234467 2.209961 3.6062927c0.42651367 1.1828461 0.5621338 2.4435577 0.34909058 3.490799c-0.21304321 1.0472717 -1.0695496 2.0411377 -1.6272888 2.7926636c-0.5577698 0.7515259 -1.3713989 1.4326477 -1.7191772 1.7165222c-0.34777832 0.28390503 -0.32589722 0.028442383 -0.36746216 -0.013122559c-0.041534424 -0.041534424 0.071746826 -0.1902771 0.118133545 -0.23620605c0.0463562 -0.045928955 0.06472778 -0.046813965 0.16009521 -0.039367676c0.09536743 0.007446289 -0.044189453 -0.41470337 0.41207886 0.083984375c0.4562378 0.49868774 1.6662292 1.9580078 2.3254395 2.908142c0.6592407 0.9501343 1.2808533 1.8228455 1.6299438 2.792633c0.34906006 0.9698181 0.76815796 1.9855652 0.4645691 3.0262756c-0.30358887 1.0406799 2.5284119 2.9186096 -2.2861023 3.2178345c-4.814514 0.29922485 -22.167542 -1.1854858 -26.601044 -1.4225769" fill-rule="evenodd"/><path fill="#ffffff" d="m378.27985 277.07794l41.344055 0l-41.623077 -42.801712" fill-rule="evenodd"/><path fill="#ffffff" d="m500.1883 192.34926c-0.010498047 1.2082367 0.6972656 5.9890747 -0.06298828 7.249344c-0.7602844 1.2602844 -3.1238098 0.7292328 -4.4986877 0.3123474c-1.3749084 -0.41688538 -2.796173 -1.7073517 -3.7506714 -2.8136597c-0.9544983 -1.1062927 -1.6469727 -3.2020874 -1.9763794 -3.8241425c-0.32940674 -0.6220398 0.37356567 -0.27383423 0 0.09185791c-0.37356567 0.3657074 -1.0533752 1.6745453 -2.241455 2.1023712c-1.1881104 0.42782593 -3.3945923 0.5419922 -4.887146 0.4645691c-1.4925842 -0.077438354 -2.9247742 -0.2318573 -4.0682373 -0.9291382c-1.1434937 -0.6972809 -2.113739 -2.0328064 -2.7926636 -3.254593c-0.67892456 -1.2217865 -1.0870361 -2.8543243 -1.2808228 -4.076111c-0.19381714 -1.2217865 0.10058594 -2.605423 0.11810303 -3.254593c0.017486572 -0.6491699 -0.05731201 -0.5787506 -0.013122559 -0.64042664c0.044158936 -0.061676025 0.37313843 0.2217865 0.27819824 0.27033997c-0.09490967 0.048553467 -0.2020874 -0.13691711 -0.8477478 0.020996094c-0.6456909 0.15792847 -1.9208374 0.8683319 -3.026245 0.9265137c-1.1054382 0.058181763 -2.597992 0.0231781 -3.6063232 -0.5774231c-1.0083008 -0.60061646 -1.6679688 -1.9208221 -2.443573 -3.026245c-0.77557373 -1.1054382 -1.7834473 -2.4234467 -2.209961 -3.606308c-0.42651367 -1.1828461 -0.5621033 -2.443573 -0.34909058 -3.4908142c0.21304321 -1.0472412 1.0695496 -2.0411224 1.6273193 -2.7926483c0.55773926 -0.7515259 1.3713684 -1.4326324 1.7191467 -1.7165375c0.34777832 -0.28390503 0.32589722 -0.028427124 0.36746216 0.013122559c0.04156494 0.04156494 -0.071746826 0.19029236 -0.11810303 0.23622131c-0.04638672 0.045928955 -0.0647583 0.046813965 -0.16012573 0.039367676c-0.09536743 -0.0074310303 0.044189453 0.41470337 -0.41207886 -0.083984375c-0.4562378 -0.49868774 -1.6662292 -1.9580078 -2.3254395 -2.908142c-0.6592407 -0.950119 -1.2808533 -1.8228302 -1.6299438 -2.7926483c-0.34906006 -0.9698181 -0.76812744 -1.9855652 -0.46453857 -3.026245c0.30355835 -1.0406799 -2.5284424 -2.9186401 2.2860718 -3.2178497c4.814514 -0.2992096 22.167542 1.1854858 26.601044 1.4225769" fill-rule="evenodd"/><path stroke="#000000" stroke-width="1.0" stroke-linejoin="round" stroke-linecap="butt" d="m500.1883 192.34926c-0.010498047 1.2082367 0.6972656 5.9890747 -0.06298828 7.249344c-0.7602844 1.2602844 -3.1238098 0.7292328 -4.4986877 0.3123474c-1.3749084 -0.41688538 -2.796173 -1.7073517 -3.7506714 -2.8136597c-0.9544983 -1.1062927 -1.6469727 -3.2020874 -1.9763794 -3.8241425c-0.32940674 -0.6220398 0.37356567 -0.27383423 0 0.09185791c-0.37356567 0.3657074 -1.0533752 1.6745453 -2.241455 2.1023712c-1.1881104 0.42782593 -3.3945923 0.5419922 -4.887146 0.4645691c-1.4925842 -0.077438354 -2.9247742 -0.2318573 -4.0682373 -0.9291382c-1.1434937 -0.6972809 -2.113739 -2.0328064 -2.7926636 -3.254593c-0.67892456 -1.2217865 -1.0870361 -2.8543243 -1.2808228 -4.076111c-0.19381714 -1.2217865 0.10058594 -2.605423 0.11810303 -3.254593c0.017486572 -0.6491699 -0.05731201 -0.5787506 -0.013122559 -0.64042664c0.044158936 -0.061676025 0.37313843 0.2217865 0.27819824 0.27033997c-0.09490967 0.048553467 -0.2020874 -0.13691711 -0.8477478 0.020996094c-0.6456909 0.15792847 -1.9208374 0.8683319 -3.026245 0.9265137c-1.1054382 0.058181763 -2.597992 0.0231781 -3.6063232 -0.5774231c-1.0083008 -0.60061646 -1.6679688 -1.9208221 -2.443573 -3.026245c-0.77557373 -1.1054382 -1.7834473 -2.4234467 -2.209961 -3.606308c-0.42651367 -1.1828461 -0.5621033 -2.443573 -0.34909058 -3.4908142c0.21304321 -1.0472412 1.0695496 -2.0411224 1.6273193 -2.7926483c0.55773926 -0.7515259 1.3713684 -1.4326324 1.7191467 -1.7165375c0.34777832 -0.28390503 0.32589722 -0.028427124 0.36746216 0.013122559c0.04156494 0.04156494 -0.071746826 0.19029236 -0.11810303 0.23622131c-0.04638672 0.045928955 -0.0647583 0.046813965 -0.16012573 0.039367676c-0.09536743 -0.0074310303 0.044189453 0.41470337 -0.41207886 -0.083984375c-0.4562378 -0.49868774 -1.6662292 -1.9580078 -2.3254395 -2.908142c-0.6592407 -0.950119 -1.2808533 -1.8228302 -1.6299438 -2.7926483c-0.34906006 -0.9698181 -0.76812744 -1.9855652 -0.46453857 -3.026245c0.30355835 -1.0406799 -2.5284424 -2.9186401 2.2860718 -3.2178497c4.814514 -0.2992096 22.167542 1.1854858 26.601044 1.4225769" fill-rule="evenodd"/><path fill="#ffffff" d="m501.0587 156.31805l-41.344055 0l41.623077 42.801712" fill-rule="evenodd"/><path fill="#ffffff" d="m464.8911 275.28418c-1.208252 -0.010498047 -5.9890747 0.69729614 -7.249359 -0.06298828c-1.2602844 -0.7602844 -0.7292175 -3.1238098 -0.3123474 -4.4986877c0.41690063 -1.3749084 1.707367 -2.796173 2.8136597 -3.7506714c1.1062927 -0.9544983 3.2020874 -1.6469727 3.8241577 -1.9763794c0.6220398 -0.32937622 0.27383423 0.3735962 -0.09188843 0c-0.36569214 -0.37356567 -1.67453 -1.0533752 -2.102356 -2.241455c-0.42782593 -1.1881104 -0.5419922 -3.3945923 -0.4645691 -4.887146c0.07745361 -1.4925537 0.23184204 -2.924759 0.9291382 -4.0682373c0.69729614 -1.1434937 2.0328064 -2.113739 3.2546082 -2.7926636c1.2217712 -0.6789093 2.854309 -1.0870514 4.076111 -1.280838c1.2217712 -0.19378662 2.6054077 0.100616455 3.2545776 0.118118286c0.6491699 0.017501831 0.57876587 -0.05731201 0.6404419 -0.013122559c0.061676025 0.044174194 -0.22180176 0.37313843 -0.27035522 0.2782135c-0.048553467 -0.09492493 0.13693237 -0.20210266 -0.020996094 -0.8477783c-0.15792847 -0.6456604 -0.86831665 -1.9208221 -0.9265137 -3.026245c-0.058166504 -1.105423 -0.023162842 -2.5979767 0.5774231 -3.6062927c0.60061646 -1.008316 1.9208374 -1.667984 3.026245 -2.443573c1.1054382 -0.775589 2.423462 -1.7834625 3.6063232 -2.2099762c1.1828308 -0.4264984 2.443573 -0.56211853 3.4908142 -0.34907532c1.0472412 0.21302795 2.0411072 1.0695496 2.792633 1.6272888c0.7515259 0.5577545 1.4326477 1.3713989 1.7165527 1.719162c0.28390503 0.34777832 0.028411865 0.32589722 -0.013122559 0.36746216c-0.04156494 0.041549683 -0.19030762 -0.071746826 -0.23623657 -0.118118286c-0.045928955 -0.04637146 -0.046813965 -0.06474304 -0.039367676 -0.16009521c0.007446289 -0.09536743 -0.41470337 0.044174194 0.083984375 -0.41207886c0.49868774 -0.45625305 1.9580078 -1.6662292 2.908142 -2.3254547c0.9501343 -0.6592407 1.8228455 -1.280838 2.7926636 -1.6299286c0.9698181 -0.34907532 1.9855652 -0.76815796 3.026245 -0.4645691c1.0406799 0.30358887 2.9186401 -2.5284271 3.2178345 2.2861023c0.29922485 4.814514 -1.1854858 22.167526 -1.4225769 26.601028" fill-rule="evenodd"/><path stroke="#000000" stroke-width="1.0" stroke-linejoin="round" stroke-linecap="butt" d="m464.8911 275.28418c-1.208252 -0.010498047 -5.9890747 0.69729614 -7.249359 -0.06298828c-1.2602844 -0.7602844 -0.7292175 -3.1238098 -0.3123474 -4.4986877c0.41690063 -1.3749084 1.707367 -2.796173 2.8136597 -3.7506714c1.1062927 -0.9544983 3.2020874 -1.6469727 3.8241577 -1.9763794c0.6220398 -0.32937622 0.27383423 0.3735962 -0.09188843 0c-0.36569214 -0.37356567 -1.67453 -1.0533752 -2.102356 -2.241455c-0.42782593 -1.1881104 -0.5419922 -3.3945923 -0.4645691 -4.887146c0.07745361 -1.4925537 0.23184204 -2.924759 0.9291382 -4.0682373c0.69729614 -1.1434937 2.0328064 -2.113739 3.2546082 -2.7926636c1.2217712 -0.6789093 2.854309 -1.0870514 4.076111 -1.280838c1.2217712 -0.19378662 2.6054077 0.100616455 3.2545776 0.118118286c0.6491699 0.017501831 0.57876587 -0.05731201 0.6404419 -0.013122559c0.061676025 0.044174194 -0.22180176 0.37313843 -0.27035522 0.2782135c-0.048553467 -0.09492493 0.13693237 -0.20210266 -0.020996094 -0.8477783c-0.15792847 -0.6456604 -0.86831665 -1.9208221 -0.9265137 -3.026245c-0.058166504 -1.105423 -0.023162842 -2.5979767 0.5774231 -3.6062927c0.60061646 -1.008316 1.9208374 -1.667984 3.026245 -2.443573c1.1054382 -0.775589 2.423462 -1.7834625 3.6063232 -2.2099762c1.1828308 -0.4264984 2.443573 -0.56211853 3.4908142 -0.34907532c1.0472412 0.21302795 2.0411072 1.0695496 2.792633 1.6272888c0.7515259 0.5577545 1.4326477 1.3713989 1.7165527 1.719162c0.28390503 0.34777832 0.028411865 0.32589722 -0.013122559 0.36746216c-0.04156494 0.041549683 -0.19030762 -0.071746826 -0.23623657 -0.118118286c-0.045928955 -0.04637146 -0.046813965 -0.06474304 -0.039367676 -0.16009521c0.007446289 -0.09536743 -0.41470337 0.044174194 0.083984375 -0.41207886c0.49868774 -0.45625305 1.9580078 -1.6662292 2.908142 -2.3254547c0.9501343 -0.6592407 1.8228455 -1.280838 2.7926636 -1.6299286c0.9698181 -0.34907532 1.9855652 -0.76815796 3.026245 -0.4645691c1.0406799 0.30358887 2.9186401 -2.5284271 3.2178345 2.2861023c0.29922485 4.814514 -1.1854858 22.167526 -1.4225769 26.601028" fill-rule="evenodd"/><path fill="#ffffff" d="m500.9223 276.1546l0 -41.344086l-42.801697 41.623077" fill-rule="evenodd"/></g></svg>