<svg version="1.1" viewBox="0.0 0.0 112.69553805774278 116.71916010498688" fill="none" stroke="none" stroke-linecap="square" stroke-miterlimit="10" xmlns:xlink="http://www.w3.org/1999/xlink" xmlns="http://www.w3.org/2000/svg"><clipPath id="p.0"><path d="m0 0l112.69554 0l0 116.71916l-112.69554 0l0 -116.71916z" clip-rule="nonzero"/></clipPath><g clip-path="url(#p.0)"><path fill="#000000" fill-opacity="0.0" d="m0 0l112.69554 0l0 116.71916l-112.69554 0z" fill-rule="evenodd"/><g filter="url(#shadowFilter-p.1)"><use xlink:href="#p.1" transform="matrix(1.0 0.0 0.0 1.0 1.0000002624671922 0.0)"/></g><defs><filter id="shadowFilter-p.1" filterUnits="userSpaceOnUse"><feGaussianBlur in="SourceAlpha" stdDeviation="2.5" result="blur"/><feComponentTransfer in="blur" color-interpolation-filters="sRGB"><feFuncR type="linear" slope="0" intercept="0.0"/><feFuncG type="linear" slope="0" intercept="0.0"/><feFuncB type="linear" slope="0" intercept="0.0"/><feFuncA type="linear" slope="0.5" intercept="0"/></feComponentTransfer></filter></defs><g id="p.1"><path fill="#ffffff" d="m8.085301 8.000131l97.22835 0l0 101.35433l-97.22835 0z" fill-rule="evenodd"/></g><path fill="#000000" fill-opacity="0.0" d="m7.9986877 0l97.22835 0l0 33.92126l-97.22835 0z" fill-rule="evenodd"/><path fill="#000000" d="m19.796444 20.645q-1.25 0 -2.15625 -0.53125q-0.890625 -0.546875 -1.359375 -1.5q-0.46875 -0.96875 -0.46875 -2.25l0 -0.21875q0 -1.25 0.46875 -2.203125q0.46875 -0.96875 1.34375 -1.515625q0.875 -0.5625 2.078125 -0.5625q0.859375 0 1.578125 0.25q0.734375 0.25 1.265625 0.71875l0 1.96875l-1.125 0l-0.140625 -1.328125q-0.203125 -0.140625 -0.4375 -0.234375q-0.234375 -0.109375 -0.515625 -0.15625q-0.265625 -0.046875 -0.59375 -0.046875q-0.78125 0 -1.328125 0.390625q-0.546875 0.375 -0.828125 1.078125q-0.28125 0.6875 -0.28125 1.625l0 0.234375q0 0.96875 0.296875 1.671875q0.3125 0.703125 0.875 1.078125q0.578125 0.375 1.375 0.375q0.375 0 0.75 -0.09375q0.390625 -0.09375 0.671875 -0.234375l0.15625 -1.203125l1.125 0l0 1.96875q-0.5 0.3125 -1.21875 0.515625q-0.703125 0.203125 -1.53125 0.203125zm6.6640625 0q-0.921875 0 -1.578125 -0.40625q-0.65625 -0.421875 -1.015625 -1.140625q-0.34375 -0.734375 -0.34375 -1.6875l0 -0.125q0 -0.9375 0.34375 -1.65625q0.359375 -0.734375 1.015625 -1.140625q0.65625 -0.421875 1.5625 -0.421875q0.90625 0 1.5625 0.421875q0.65625 0.40625 1.0 1.140625q0.359375 0.71875 0.359375 1.65625l0 0.125q0 0.953125 -0.359375 1.6875q-0.34375 0.71875 -1.0 1.140625q-0.640625 0.40625 -1.546875 0.40625zm0 -1.140625q0.484375 0 0.796875 -0.265625q0.328125 -0.265625 0.484375 -0.734375q0.15625 -0.46875 0.15625 -1.09375l0 -0.125q0 -0.609375 -0.15625 -1.078125q-0.15625 -0.46875 -0.484375 -0.734375q-0.3125 -0.265625 -0.8125 -0.265625q-0.484375 0 -0.8125 0.265625q-0.328125 0.265625 -0.484375 0.734375q-0.140625 0.46875 -0.140625 1.078125l0 0.125q0 0.625 0.140625 1.09375q0.15625 0.46875 0.484375 0.734375q0.328125 0.265625 0.828125 0.265625zm4.1601562 -2.046875l0 -1.140625l3.109375 0l0 1.140625l-3.109375 0zm8.025391 3.1875q-0.859375 0 -1.546875 -0.3125q-0.671875 -0.328125 -1.171875 -0.90625q-0.484375 -0.578125 -0.75 -1.375q-0.265625 -0.796875 -0.265625 -1.734375l0 -0.125q0 -0.9375 0.265625 -1.71875q0.265625 -0.796875 0.75 -1.375q0.5 -0.59375 1.171875 -0.90625q0.6875 -0.328125 1.53125 -0.328125q0.875 0 1.5625 0.328125q0.703125 0.3125 1.1875 0.90625q0.484375 0.578125 0.734375 1.375q0.265625 0.78125 0.265625 1.71875l0 0.125q0 0.9375 -0.265625 1.734375q-0.25 0.796875 -0.734375 1.375q-0.484375 0.578125 -1.1875 0.90625q-0.6875 0.3125 -1.546875 0.3125zm0 -1.171875q0.765625 0 1.265625 -0.390625q0.5 -0.40625 0.734375 -1.109375q0.25 -0.71875 0.25 -1.65625l0 -0.140625q0 -0.9375 -0.25 -1.640625q-0.234375 -0.703125 -0.734375 -1.09375q-0.5 -0.40625 -1.28125 -0.40625q-0.734375 0 -1.234375 0.40625q-0.5 0.390625 -0.75 1.09375q-0.25 0.703125 -0.25 1.640625l0 0.140625q0 0.9375 0.25 1.65625q0.25 0.703125 0.75 1.109375q0.5 0.390625 1.25 0.390625zm6.6601562 1.046875l-1.5625 -5.3125l-0.75 -0.125l0 -0.90625l2.890625 0l0 0.90625l-0.71875 0.140625l0.703125 2.75l0.15625 0.59375l0.03125 0l0.203125 -0.59375l1.328125 -3.796875l1.078125 0l1.28125 3.8125l0.21875 0.671875l0.03125 0l0.203125 -0.671875l0.765625 -2.765625l-0.765625 -0.140625l0 -0.90625l2.828125 0l0 0.90625l-0.734375 0.125l-1.625 5.3125l-1.28125 0l-1.21875 -3.421875l-0.25 -0.828125l-0.03125 0l-0.25 0.828125l-1.234375 3.421875l-1.296875 0zm8.488281 0l0 -0.90625l0.875 -0.171875l0 -4.171875l-0.921875 -0.1875l0 -0.90625l2.28125 0l0.078125 0.921875q0.3125 -0.484375 0.78125 -0.75q0.484375 -0.28125 1.078125 -0.28125q0.984375 0 1.515625 0.609375q0.546875 0.59375 0.546875 1.859375l0 2.90625l0.890625 0.171875l0 0.90625l-3.1875 0l0 -0.90625l0.828125 -0.171875l0 -2.890625q0 -0.71875 -0.296875 -1.015625q-0.28125 -0.3125 -0.84375 -0.3125q-0.4375 0 -0.765625 0.203125q-0.3125 0.1875 -0.5 0.515625l0 3.5l0.796875 0.171875l0 0.90625l-3.15625 0zm10.691402 0.125q-0.9062462 0 -1.5781212 -0.40625q-0.65625 -0.40625 -1.03125 -1.109375q-0.359375 -0.703125 -0.359375 -1.625l0 -0.25q0 -0.921875 0.359375 -1.640625q0.359375 -0.71875 0.984375 -1.125q0.640625 -0.421875 1.4531212 -0.421875q0.859375 0 1.4375 0.34375q0.59375 0.34375 0.890625 0.984375q0.296875 0.625 0.296875 1.515625l0 0.84375l-3.8906212 0l-0.015625 0.03125q0.03125 0.5 0.21875 0.890625q0.1875 0.390625 0.515625 0.609375q0.3437462 0.21875 0.8437462 0.21875q0.515625 0 0.9375 -0.140625q0.421875 -0.140625 0.78125 -0.390625l0.453125 0.921875q-0.375 0.3125 -0.953125 0.53125q-0.578125 0.21875 -1.34375 0.21875zm-1.4062462 -3.921875l2.4531212 0l0 -0.15625q0 -0.40625 -0.125 -0.71875q-0.125 -0.328125 -0.390625 -0.5q-0.265625 -0.171875 -0.6875 -0.171875q-0.3593712 0 -0.6249962 0.203125q-0.265625 0.1875 -0.4375 0.53125q-0.15625 0.34375 -0.203125 0.78125l0.015625 0.03125zm4.7695274 3.796875l0 -0.90625l0.875 -0.171875l0 -4.171875l-0.921875 -0.1875l0 -0.90625l2.28125 0l0.078125 0.796875l0.015625 0.125q0.25 -0.5 0.609375 -0.765625q0.375 -0.265625 0.859375 -0.265625q0.171875 0 0.34375 0.03125q0.18750763 0.015625 0.31250763 0.0625l-0.171875 1.359375l-0.8281326 -0.046875q-0.40625 -0.015625 -0.671875 0.171875q-0.25 0.171875 -0.4375 0.484375l0 3.3125l0.890625 0.171875l0 0.90625l-3.234375 0zm7.693367 0.125q-0.671875 0 -1.265625 -0.125q-0.578125 -0.140625 -1.171875 -0.40625l-0.015625 -1.671875l1.046875 0l0.234375 0.921875q0.25 0.109375 0.515625 0.171875q0.265625 0.0625 0.59375 0.0625q0.625 0 0.890625 -0.21875q0.265625 -0.234375 0.265625 -0.5625q0 -0.3125 -0.28125 -0.53125q-0.265625 -0.234375 -1.03125 -0.390625q-1.140625 -0.25 -1.6875 -0.71875q-0.53125 -0.484375 -0.53125 -1.234375q0 -0.515625 0.28125 -0.9375q0.28125 -0.421875 0.8125 -0.671875q0.546875 -0.265625 1.34375 -0.265625q0.71875 0 1.28125 0.15625q0.5625 0.140625 0.953125 0.390625l0.03125 1.609375l-1.046875 0l-0.1875 -0.84375q-0.171875 -0.125 -0.421875 -0.1875q-0.234375 -0.078125 -0.546875 -0.078125q-0.484375 0 -0.765625 0.21875q-0.28125 0.21875 -0.28125 0.53125q0 0.1875 0.09375 0.34375q0.09375 0.15625 0.34375 0.28125q0.265625 0.125 0.765625 0.234375q1.234375 0.296875 1.765625 0.765625q0.546875 0.453125 0.546875 1.21875q0 0.84375 -0.625 1.390625q-0.625 0.546875 -1.90625 0.546875zm3.2636719 -0.125l0 -0.90625l0.875 -0.171875l0 -6.984375l-0.921875 -0.171875l0 -0.90625l2.390625 0l0 3.625q0.3125 -0.453125 0.765625 -0.6875q0.46875 -0.25 1.046875 -0.25q0.96875 0 1.53125 0.625q0.5625 0.625 0.5625 1.921875l0 2.828125l0.875 0.171875l0 0.90625l-3.1875 0l0 -0.90625l0.84375 -0.171875l0 -2.84375q0 -0.71875 -0.296875 -1.046875q-0.296875 -0.328125 -0.859375 -0.328125q-0.40625 0 -0.734375 0.1875q-0.328125 0.171875 -0.546875 0.5l0 3.53125l0.84375 0.171875l0 0.90625l-3.1875 0zm7.7421875 0l0 -0.90625l0.875 -0.171875l0 -4.171875l-0.9375 -0.1875l0 -0.90625l2.40625 0l0 5.265625l0.875 0.171875l0 0.90625l-3.21875 0zm0.8125 -7.78125l0 -1.359375l1.53125 0l0 1.359375l-1.53125 0zm2.9746094 10.21875l0 -0.90625l0.859375 -0.171875l0 -6.609375l-0.9375 -0.1875l0 -0.90625l2.265625 0l0.09375 0.75q0.28125 -0.40625 0.703125 -0.625q0.421875 -0.234375 1.0 -0.234375q0.78125 0 1.328125 0.421875q0.546875 0.421875 0.828125 1.171875q0.296875 0.75 0.296875 1.765625l0 0.125q0 0.921875 -0.296875 1.625q-0.28125 0.6875 -0.828125 1.078125q-0.546875 0.390625 -1.328125 0.390625q-0.546875 0 -0.953125 -0.1875q-0.40625 -0.203125 -0.703125 -0.5625l0 1.984375l0.90625 0.171875l0 0.90625l-3.234375 0zm3.546875 -3.453125q0.71875 0 1.0625 -0.53125q0.359375 -0.546875 0.359375 -1.421875l0 -0.125q0 -0.65625 -0.15625 -1.140625q-0.15625 -0.5 -0.484375 -0.78125q-0.3125 -0.28125 -0.796875 -0.28125q-0.40625 0 -0.71875 0.1875q-0.296875 0.1875 -0.484375 0.515625l0 2.90625q0.1875 0.328125 0.484375 0.5q0.296875 0.171875 0.734375 0.171875z" fill-rule="nonzero"/><path fill="#000000" fill-opacity="0.0" d="m19.125982 66.32124l0 0c0 -20.69981 16.780508 -37.480316 37.480316 -37.480316l0 0c9.940395 0 19.47366 3.9488068 26.502583 10.97773c7.028923 7.028923 10.97773 16.562187 10.97773 26.502586l0 0c0 20.699806 -16.780502 37.480316 -37.480312 37.480316l0 0c-20.699806 0 -37.480316 -16.78051 -37.480316 -37.480316z" fill-rule="evenodd"/><path stroke="#000000" stroke-width="1.0" stroke-linejoin="round" stroke-linecap="butt" d="m19.125982 66.32124l0 0c0 -20.69981 16.780508 -37.480316 37.480316 -37.480316l0 0c9.940395 0 19.47366 3.9488068 26.502583 10.97773c7.028923 7.028923 10.97773 16.562187 10.97773 26.502586l0 0c0 20.699806 -16.780502 37.480316 -37.480312 37.480316l0 0c-20.699806 0 -37.480316 -16.78051 -37.480316 -37.480316z" fill-rule="evenodd"/><path fill="#000000" d="m39.89165 69.39082q-1.0625 0 -1.984375 -0.265625q-0.90625 -0.265625 -1.78125 -0.890625l0 -2.390625l1.390625 0l0.234375 1.546875q0.375 0.28125 0.921875 0.453125q0.5625 0.15625 1.21875 0.15625q0.640625 0 1.0625 -0.1875q0.4375 -0.1875 0.65625 -0.515625q0.234375 -0.328125 0.234375 -0.78125q0 -0.40625 -0.203125 -0.71875q-0.1875 -0.328125 -0.65625 -0.578125q-0.46875 -0.265625 -1.265625 -0.484375q-1.15625 -0.3125 -1.9375 -0.734375q-0.78125 -0.4375 -1.1875 -1.03125q-0.390625 -0.609375 -0.390625 -1.421875q0 -0.828125 0.453125 -1.46875q0.453125 -0.65625 1.25 -1.03125q0.8125 -0.375 1.875 -0.375q1.15625 -0.015625 2.046875 0.296875q0.890625 0.3125 1.515625 0.828125l0 2.234375l-1.375 0l-0.25 -1.453125q-0.296875 -0.203125 -0.765625 -0.34375q-0.46875 -0.15625 -1.109375 -0.15625q-0.546875 0 -0.96875 0.1875q-0.40625 0.171875 -0.640625 0.5q-0.234375 0.3125 -0.234375 0.765625q0 0.390625 0.203125 0.6875q0.21875 0.296875 0.703125 0.546875q0.484375 0.234375 1.3125 0.46875q1.703125 0.453125 2.5625 1.25q0.875 0.796875 0.875 2.015625q0 0.875 -0.46875 1.53125q-0.46875 0.640625 -1.3125 1.0q-0.84375 0.359375 -1.984375 0.359375zm4.7242126 -0.15625l0 -1.109375l1.078125 -0.203125l0 -5.109375l-1.140625 -0.21875l0 -1.109375l2.796875 0l0.078125 1.015625q0.390625 -0.546875 0.953125 -0.84375q0.5625 -0.3125 1.328125 -0.3125q0.75 0 1.28125 0.34375q0.546875 0.34375 0.828125 1.03125q0.359375 -0.640625 0.9375 -1.0q0.59375 -0.375 1.375 -0.375q1.171875 0 1.828125 0.796875q0.671875 0.796875 0.671875 2.40625l0 3.375l1.09375 0.203125l0 1.109375l-3.90625 0l0 -1.109375l1.015625 -0.203125l0 -3.375q0 -0.984375 -0.328125 -1.375q-0.328125 -0.40625 -0.96875 -0.40625q-0.59375 0 -0.984375 0.390625q-0.375 0.375 -0.484375 0.96875l0 3.796875l0.96875 0.203125l0 1.109375l-3.75 0l0 -1.109375l0.984375 -0.203125l0 -3.375q0 -0.953125 -0.34375 -1.359375q-0.328125 -0.421875 -0.96875 -0.421875q-0.53125 0 -0.890625 0.21875q-0.359375 0.21875 -0.578125 0.609375l0 4.328125l1.015625 0.203125l0 1.109375l-3.890625 0zm16.50705 0.15625q-1.1875 0 -1.84375 -0.609375q-0.65625 -0.609375 -0.65625 -1.671875q0 -0.734375 0.390625 -1.28125q0.40625 -0.5625 1.171875 -0.875q0.78125 -0.3125 1.890625 -0.3125l1.171875 0l0 -0.640625q0 -0.625 -0.375 -0.984375q-0.359375 -0.359375 -1.0625 -0.359375q-0.40625 0 -0.71875 0.09375q-0.296875 0.09375 -0.546875 0.265625l-0.15625 1.046875l-1.328125 0l-0.015625 -1.90625q0.578125 -0.375 1.28125 -0.59375q0.703125 -0.21875 1.5625 -0.21875q1.46875 0 2.3125038 0.703125q0.859375 0.6875 0.859375 1.96875l0 3.421875q0 0.15625 0 0.3125q0 0.140625 0.015625 0.28125l0.78125 0.09375l0 1.109375l-2.3437538 0q-0.078125 -0.25 -0.140625 -0.484375q-0.0625 -0.234375 -0.09375 -0.46875q-0.375 0.484375 -0.921875 0.796875q-0.546875 0.3125 -1.234375 0.3125zm0.40625 -1.40625q0.546875 0 1.015625 -0.25q0.46875 -0.25 0.703125 -0.640625l0 -1.296875l-1.203125 0q-0.8125 0 -1.21875 0.375q-0.40625 0.375 -0.40625 0.875q0 0.453125 0.28125 0.703125q0.28125 0.234375 0.828125 0.234375zm5.1243935 1.25l0 -1.109375l1.078125 -0.203125l0 -8.53125l-1.140625 -0.21875l0 -1.09375l2.9375 0l0 9.84375l1.078125 0.203125l0 1.109375l-3.953125 0zm4.673111 0l0 -1.109375l1.078125 -0.203125l0 -8.53125l-1.140625 -0.21875l0 -1.09375l2.9375 0l0 9.84375l1.078125 0.203125l0 1.109375l-3.953125 0zm8.248627 0.15625q-1.09375 0 -1.90625 -0.484375q-0.8125 -0.5 -1.265625 -1.359375q-0.4375 -0.875 -0.4375 -1.984375l0 -0.3125q0 -1.125 0.4375 -2.0q0.4375 -0.890625 1.203125 -1.390625q0.78125 -0.515625 1.78125 -0.515625q1.046875 0 1.75 0.421875q0.71875 0.421875 1.078125 1.203125q0.375 0.78125 0.375 1.859375l0 1.03125l-4.75 0l-0.015625 0.046875q0.03125 0.59375 0.25 1.078125q0.21875 0.46875 0.640625 0.75q0.421875 0.265625 1.015625 0.265625q0.640625 0 1.15625 -0.171875q0.515625 -0.171875 0.953125 -0.484375l0.5625 1.125q-0.46875 0.390625 -1.171875 0.65625q-0.703125 0.265625 -1.65625 0.265625zm-1.71875 -4.796875l3.0 0l0 -0.1875q0 -0.5 -0.15625 -0.875q-0.140625 -0.390625 -0.46875 -0.609375q-0.328125 -0.21875 -0.828125 -0.21875q-0.4375 0 -0.765625 0.25q-0.328125 0.234375 -0.53125 0.65625q-0.1875 0.421875 -0.265625 0.953125l0.015625 0.03125zm5.829193 4.640625l0 -1.109375l1.078125 -0.203125l0 -5.109375l-1.125 -0.21875l0 -1.109375l2.78125 0l0.09375 0.984375l0.015625 0.15625q0.3125 -0.625 0.75 -0.953125q0.453125 -0.328125 1.046875 -0.328125q0.203125 0 0.421875 0.046875q0.234375 0.03125 0.375 0.078125l-0.203125 1.65625l-1.015625 -0.046875q-0.484375 -0.03125 -0.8125 0.1875q-0.3125 0.21875 -0.53125 0.609375l0 4.046875l1.078125 0.203125l0 1.109375l-3.953125 0z" fill-rule="nonzero"/><path fill="#000000" d="m62.845783 86.901245l0 -1.109375l1.140625 -0.203125l0 -7.78125l-1.140625 -0.21875l0 -1.109375l1.140625 0l3.4375038 0q1.75 0 2.734375 0.71875q0.984375 0.703125 0.984375 2.125q0 0.703125 -0.40625 1.265625q-0.40625 0.5625 -1.125 0.84375q0.625 0.125 1.046875 0.484375q0.4375 0.359375 0.65625 0.875q0.234375 0.515625 0.234375 1.125q0 1.453125 -0.96875 2.21875q-0.953125 0.765625 -2.671875 0.765625l-5.062504 0zm2.9375038 -1.390625l2.125 0q0.875 0 1.34375 -0.40625q0.484375 -0.421875 0.484375 -1.1875q0 -0.5625 -0.1875 -0.9375q-0.171875 -0.390625 -0.53125 -0.59375q-0.359375 -0.21875 -0.9375 -0.21875l-2.296875 0l0 3.34375zm0 -4.640625l1.84375 0q0.796875 0 1.25 -0.375q0.46875 -0.390625 0.46875 -1.09375q0 -0.765625 -0.5 -1.140625q-0.484375 -0.390625 -1.421875 -0.390625l-1.640625 0l0 3.0zm6.5693817 6.03125l0 -1.109375l1.078125 -0.203125l0 -5.109375l-1.140625 -0.21875l0 -1.109375l2.953125 0l0 6.4375l1.0625 0.203125l0 1.109375l-3.953125 0zm1.0 -9.5l0 -1.65625l1.875 0l0 1.65625l-1.875 0zm6.6861115 9.640625q-1.0 0 -1.546875 -0.546875q-0.546875 -0.5625 -0.546875 -1.78125l0 -4.265625l-1.140625 0l0 -1.296875l1.140625 0l0 -1.875l1.796875 0l0 1.875l1.53125 0l0 1.296875l-1.53125 0l0 4.265625q0 0.484375 0.203125 0.71875q0.203125 0.21875 0.546875 0.21875q0.203125 0 0.453125 -0.03125q0.25 -0.03125 0.390625 -0.078125l0.1875 1.28125q-0.3125 0.078125 -0.71875 0.140625q-0.40625 0.078125 -0.765625 0.078125zm5.784027 0.015625q-1.09375 0 -1.90625 -0.484375q-0.8125 -0.5 -1.265625 -1.359375q-0.4375 -0.875 -0.4375 -1.984375l0 -0.3125q0 -1.125 0.4375 -2.0q0.4375 -0.890625 1.203125 -1.390625q0.78125 -0.515625 1.78125 -0.515625q1.046875 0 1.75 0.421875q0.71875 0.421875 1.078125 1.203125q0.375 0.78125 0.375 1.859375l0 1.03125l-4.75 0l-0.015625 0.046875q0.03125 0.59375 0.25 1.078125q0.21875 0.46875 0.640625 0.75q0.421875 0.265625 1.015625 0.265625q0.640625 0 1.15625 -0.171875q0.515625 -0.171875 0.953125 -0.484375l0.5625 1.125q-0.46875 0.390625 -1.171875 0.65625q-0.703125 0.265625 -1.65625 0.265625zm-1.71875 -4.796875l3.0 0l0 -0.1875q0 -0.5 -0.15625 -0.875q-0.140625 -0.390625 -0.46875 -0.609375q-0.328125 -0.21875 -0.828125 -0.21875q-0.4375 0 -0.765625 0.25q-0.328125 0.234375 -0.53125 0.65625q-0.1875 0.421875 -0.265625 0.953125l0.015625 0.03125z" fill-rule="nonzero"/><path fill="#ffffff" d="m82.488884 39.52756c0.3937378 0.97371674 2.215042 3.7236671 2.362465 5.842312c0.14741516 2.118641 -0.34805298 4.9941025 -1.477951 6.869549c-1.1299057 1.8754501 -4.298012 3.4638863 -5.3014603 4.3831444c-1.0034561 0.9192581 -0.6187897 0.94366837 -0.71926117 1.1324043c-0.10046387 0.18873215 -0.34679413 -0.46886063 0.11643982 0c0.46322632 0.46886063 2.1211472 1.3214531 2.6629333 2.8131714c0.5417862 1.4917221 0.6857681 4.262638 0.5877991 6.13715c-0.097969055 1.8745117 -0.2917099 3.6735916 -1.1755981 5.109909c-0.88388824 1.4363251 -2.5796814 2.655426 -4.127739 3.5080185c-1.5480576 0.85259247 -3.6128693 1.3643341 -5.160614 1.6075287c-1.5477448 0.24319458 -3.3026962 -0.12582397 -4.125862 -0.1483612c-0.8231735 -0.022537231 -0.7596359 0.012832642 -0.8131561 0.013145447c-0.053520203 3.1280518E-4 0.43036652 -0.13114166 0.49202728 -0.011268616c0.061660767 0.119880676 -0.29766083 -0.024414062 -0.12207031 0.73052216c0.17559052 0.75494385 1.1017303 2.411293 1.1755981 3.7991028c0.0738678 1.3878098 0.028793335 3.2616882 -0.732399 4.5277405c-0.76119995 1.2660522 -2.4341393 2.0945435 -3.8347816 3.0685806c-1.4006386 0.97402954 -3.0704536 2.2400818 -4.5690575 2.7756119c-1.4986076 0.5355301 -3.0954933 0.7048569 -4.4225807 0.43756104c-1.3270836 -0.26729584 -2.483593 -1.2626114 -3.5399399 -2.041336c-1.0563469 -0.7787247 -2.3793678 -2.225998 -2.798149 -2.631012c-0.4187851 -0.4050064 0.14084625 0.08544922 0.28544998 0.200943c0.14459991 0.115493774 0.5374069 0.44726562 0.58216476 0.49202728c0.044757843 0.04475403 -0.31643677 -0.2541504 -0.3136177 -0.22348022c0.0028152466 0.030677795 0.88952255 -0.14678955 0.33051682 0.40751648c-0.5590019 0.55430603 -2.480774 2.090477 -3.6845436 2.918335c-1.2037659 0.8278656 -2.3092537 1.6103516 -3.5380592 2.048851c-1.2288094 0.43849945 -2.336174 0.46103668 -3.8347816 0.58216095c-1.4986076 0.1211319 -3.6826668 0.5098648 -5.1568584 0.14460754c-1.4741917 -0.3652649 -3.0735817 -1.9468155 -3.6882992 -2.336174" fill-rule="evenodd"/><path stroke="#000000" stroke-width="1.0" stroke-linejoin="round" stroke-linecap="butt" d="m82.488884 39.52756c0.3937378 0.97371674 2.215042 3.7236671 2.362465 5.842312c0.14741516 2.118641 -0.34805298 4.9941025 -1.477951 6.869549c-1.1299057 1.8754501 -4.298012 3.4638863 -5.3014603 4.3831444c-1.0034561 0.9192581 -0.6187897 0.94366837 -0.71926117 1.1324043c-0.10046387 0.18873215 -0.34679413 -0.46886063 0.11643982 0c0.46322632 0.46886063 2.1211472 1.3214531 2.6629333 2.8131714c0.5417862 1.4917221 0.6857681 4.262638 0.5877991 6.13715c-0.097969055 1.8745117 -0.2917099 3.6735916 -1.1755981 5.109909c-0.88388824 1.4363251 -2.5796814 2.655426 -4.127739 3.5080185c-1.5480576 0.85259247 -3.6128693 1.3643341 -5.160614 1.6075287c-1.5477448 0.24319458 -3.3026962 -0.12582397 -4.125862 -0.1483612c-0.8231735 -0.022537231 -0.7596359 0.012832642 -0.8131561 0.013145447c-0.053520203 3.1280518E-4 0.43036652 -0.13114166 0.49202728 -0.011268616c0.061660767 0.119880676 -0.29766083 -0.024414062 -0.12207031 0.73052216c0.17559052 0.75494385 1.1017303 2.411293 1.1755981 3.7991028c0.0738678 1.3878098 0.028793335 3.2616882 -0.732399 4.5277405c-0.76119995 1.2660522 -2.4341393 2.0945435 -3.8347816 3.0685806c-1.4006386 0.97402954 -3.0704536 2.2400818 -4.5690575 2.7756119c-1.4986076 0.5355301 -3.0954933 0.7048569 -4.4225807 0.43756104c-1.3270836 -0.26729584 -2.483593 -1.2626114 -3.5399399 -2.041336c-1.0563469 -0.7787247 -2.3793678 -2.225998 -2.798149 -2.631012c-0.4187851 -0.4050064 0.14084625 0.08544922 0.28544998 0.200943c0.14459991 0.115493774 0.5374069 0.44726562 0.58216476 0.49202728c0.044757843 0.04475403 -0.31643677 -0.2541504 -0.3136177 -0.22348022c0.0028152466 0.030677795 0.88952255 -0.14678955 0.33051682 0.40751648c-0.5590019 0.55430603 -2.480774 2.090477 -3.6845436 2.918335c-1.2037659 0.8278656 -2.3092537 1.6103516 -3.5380592 2.048851c-1.2288094 0.43849945 -2.336174 0.46103668 -3.8347816 0.58216095c-1.4986076 0.1211319 -3.6826668 0.5098648 -5.1568584 0.14460754c-1.4741917 -0.3652649 -3.0735817 -1.9468155 -3.6882992 -2.336174" fill-rule="evenodd"/><path fill="#ffffff" d="m57.792652 63.863518l25.509182 -26.0l-14.71653 -9.650919l-27.401577 -0.7480316l-23.580053 23.165354l-0.9973755 29.808403l8.934383 11.133858l1.8608932 1.4041977z" fill-rule="evenodd"/></g></svg>