<svg version="1.1" viewBox="0.0 0.0 233.59317585301838 206.2729658792651" fill="none" stroke="none" stroke-linecap="square" stroke-miterlimit="10" xmlns:xlink="http://www.w3.org/1999/xlink" xmlns="http://www.w3.org/2000/svg"><clipPath id="p.0"><path d="m0 0l233.59317 0l0 206.27296l-233.59317 0l0 -206.27296z" clip-rule="nonzero"/></clipPath><g clip-path="url(#p.0)"><path fill="#000000" fill-opacity="0.0" d="m0 0l233.59317 0l0 206.27296l-233.59317 0z" fill-rule="evenodd"/><g filter="url(#shadowFilter-p.1)"><use xlink:href="#p.1" transform="matrix(1.0 0.0 0.0 1.0 1.0000002624671922 0.0)"/></g><defs><filter id="shadowFilter-p.1" filterUnits="userSpaceOnUse"><feGaussianBlur in="SourceAlpha" stdDeviation="2.5" result="blur"/><feComponentTransfer in="blur" color-interpolation-filters="sRGB"><feFuncR type="linear" slope="0" intercept="0.0"/><feFuncG type="linear" slope="0" intercept="0.0"/><feFuncB type="linear" slope="0" intercept="0.0"/><feFuncA type="linear" slope="0.5" intercept="0"/></feComponentTransfer></filter></defs><g id="p.1"><path fill="#ffffff" d="m4.984252 5.141732l221.95276 0l0 196.0l-221.95276 0z" fill-rule="evenodd"/></g><path fill="#000000" fill-opacity="0.0" d="m-0.0026241469 4.6850395l233.6063 0l0 58.17323l-233.6063 0z" fill-rule="evenodd"/><path fill="#000000" d="m19.130592 44.733166q-3.359375 0 -5.75 -1.421875q-2.375 -1.4375 -3.640625 -4.0q-1.25 -2.578125 -1.25 -5.984375l0 -0.578125q0 -3.328125 1.25 -5.890625q1.25 -2.578125 3.578125 -4.046875q2.328125 -1.484375 5.5625 -1.484375q2.265625 0 4.203125 0.671875q1.9375 0.671875 3.375 1.890625l0 5.25l-3.0 0l-0.40625 -3.515625q-0.515625 -0.375 -1.140625 -0.640625q-0.625 -0.265625 -1.375 -0.40625q-0.734375 -0.140625 -1.609375 -0.140625q-2.046875 0 -3.515625 1.03125q-1.453125 1.03125 -2.21875 2.890625q-0.765625 1.859375 -0.765625 4.359375l0 0.609375q0 2.59375 0.8125 4.46875q0.8125 1.859375 2.328125 2.859375q1.53125 1.0 3.65625 1.0q1.03125 0 2.03125 -0.234375q1.015625 -0.25 1.78125 -0.640625l0.421875 -3.1875l2.96875 0l0 5.21875q-1.3125 0.859375 -3.21875 1.390625q-1.890625 0.53125 -4.078125 0.53125zm17.734375 0q-2.4375 0 -4.1875 -1.09375q-1.75 -1.09375 -2.6875 -3.03125q-0.9375 -1.953125 -0.9375 -4.484375l0 -0.328125q0 -2.515625 0.9375 -4.453125q0.9375 -1.9375 2.6875 -3.046875q1.75 -1.109375 4.15625 -1.109375q2.4375 0 4.1875 1.109375q1.75 1.09375 2.6875 3.03125q0.9375 1.9375 0.9375 4.46875l0 0.328125q0 2.53125 -0.9375 4.484375q-0.9375 1.9375 -2.6875 3.03125q-1.734375 1.09375 -4.15625 1.09375zm0 -3.03125q1.3125 0 2.15625 -0.703125q0.859375 -0.71875 1.28125 -1.96875q0.421875 -1.265625 0.421875 -2.90625l0 -0.328125q0 -1.625 -0.421875 -2.875q-0.421875 -1.25 -1.28125 -1.96875q-0.859375 -0.71875 -2.1875 -0.71875q-1.296875 0 -2.15625 0.71875q-0.859375 0.71875 -1.28125 1.96875q-0.40625 1.25 -0.40625 2.875l0 0.328125q0 1.640625 0.40625 2.90625q0.421875 1.25 1.28125 1.96875q0.875 0.703125 2.1875 0.703125zm11.109375 -5.453125l0 -3.046875l8.3125 0l0 3.046875l-8.3125 0zm21.390625 8.484375q-2.265625 0 -4.09375 -0.84375q-1.828125 -0.859375 -3.140625 -2.40625q-1.296875 -1.546875 -2.0 -3.65625q-0.703125 -2.109375 -0.703125 -4.625l0 -0.34375q0 -2.5 0.703125 -4.609375q0.703125 -2.109375 2.0 -3.65625q1.3125 -1.5625 3.140625 -2.40625q1.828125 -0.859375 4.078125 -0.859375q2.328125 0 4.171875 0.859375q1.84375 0.84375 3.140625 2.40625q1.296875 1.546875 1.984375 3.65625q0.6875 2.109375 0.6875 4.609375l0 0.34375q0 2.515625 -0.6875 4.625q-0.6875 2.109375 -1.984375 3.65625q-1.296875 1.546875 -3.140625 2.40625q-1.84375 0.84375 -4.15625 0.84375zm0 -3.125q2.0625 0 3.390625 -1.046875q1.34375 -1.0625 1.984375 -2.953125q0.65625 -1.890625 0.65625 -4.40625l0 -0.375q0 -2.484375 -0.65625 -4.359375q-0.65625 -1.875 -2.0 -2.9375q-1.328125 -1.0625 -3.390625 -1.0625q-1.96875 0 -3.296875 1.0625q-1.328125 1.0625 -2.0 2.9375q-0.671875 1.875 -0.671875 4.359375l0 0.375q0 2.5 0.671875 4.40625q0.671875 1.890625 2.0 2.953125q1.34375 1.046875 3.3125 1.046875zm17.765625 2.796875l-4.15625 -14.171875l-1.984375 -0.3125l0 -2.421875l7.671875 0l0 2.421875l-1.90625 0.34375l1.890625 7.34375l0.390625 1.59375l0.09375 0l0.546875 -1.59375l3.546875 -10.109375l2.859375 0l3.421875 10.171875l0.578125 1.796875l0.09375 0l0.546875 -1.796875l2.046875 -7.40625l-2.03125 -0.34375l0 -2.421875l7.515625 0l0 2.421875l-1.9375 0.328125l-4.328125 14.15625l-3.453125 0l-3.234375 -9.125l-0.65625 -2.21875l-0.09375 0l-0.65625 2.21875l-3.3125 9.125l-3.453125 0zm22.640625 0l0 -2.40625l2.34375 -0.46875l0 -11.140625l-2.46875 -0.46875l0 -2.421875l6.09375 0l0.203125 2.453125q0.84375 -1.3125 2.09375 -2.03125q1.265625 -0.734375 2.859375 -0.734375q2.609375 0 4.0625 1.609375q1.453125 1.59375 1.453125 5.0l0 7.734375l2.3437424 0.46875l0 2.40625l-8.484367 0l0 -2.40625l2.203125 -0.46875l0 -7.703125q0 -1.921875 -0.765625 -2.71875q-0.765625 -0.8125 -2.28125 -0.8125q-1.140625 0 -2.0 0.515625q-0.84375 0.5 -1.375 1.40625l0 9.3125l2.140625 0.46875l0 2.40625l-8.421875 0zm28.499992 0.328125q-2.390625 0 -4.171875 -1.0625q-1.765625 -1.078125 -2.75 -2.96875q-0.96875 -1.890625 -0.96875 -4.328125l0 -0.65625q0 -2.46875 0.953125 -4.390625q0.96875 -1.9375 2.65625 -3.03125q1.6875 -1.109375 3.84375 -1.109375q2.296875 0 3.84375 0.921875q1.5625 0.921875 2.359375 2.625q0.796875 1.6875 0.796875 4.0625l0 2.25l-10.375 0l-0.03125 0.078125q0.0625 1.328125 0.546875 2.359375q0.5 1.03125 1.40625 1.625q0.921875 0.59375 2.234375 0.59375q1.375 0 2.5 -0.375q1.125 -0.375 2.078125 -1.0625l1.234375 2.46875q-1.0 0.84375 -2.546875 1.421875q-1.546875 0.578125 -3.609375 0.578125zm-3.75 -10.453125l6.546875 0l0 -0.40625q0 -1.109375 -0.34375 -1.9375q-0.328125 -0.84375 -1.046875 -1.3125q-0.703125 -0.46875 -1.796875 -0.46875q-0.953125 0 -1.671875 0.53125q-0.71875 0.53125 -1.15625 1.453125q-0.421875 0.90625 -0.578125 2.0625l0.046875 0.078125zm12.71875 10.125l0 -2.40625l2.34375 -0.46875l0 -11.140625l-2.46875 -0.46875l0 -2.421875l6.09375 0l0.203125 2.125l0.03125 0.34375q0.671875 -1.34375 1.640625 -2.0625q0.984375 -0.71875 2.296875 -0.71875q0.4375 0 0.921875 0.078125q0.5 0.078125 0.8125 0.171875l-0.453125 3.640625l-2.203125 -0.125q-1.078125 -0.0625 -1.78125 0.421875q-0.6875 0.484375 -1.15625 1.34375l0 8.8125l2.34375 0.46875l0 2.40625l-8.625 0zm20.546875 0.328125q-1.8125 0 -3.390625 -0.34375q-1.5625 -0.359375 -3.140625 -1.046875l-0.046875 -4.46875l2.828125 0l0.59375 2.4375q0.671875 0.296875 1.375 0.46875q0.71875 0.15625 1.59375 0.15625q1.6875 0 2.375 -0.59375q0.703125 -0.59375 0.703125 -1.46875q0 -0.84375 -0.734375 -1.4375q-0.71875 -0.609375 -2.765625 -1.046875q-3.03125 -0.65625 -4.46875 -1.90625q-1.421875 -1.265625 -1.421875 -3.28125q0 -1.390625 0.734375 -2.515625q0.75 -1.125 2.1875 -1.796875q1.453125 -0.6875 3.5625 -0.6875q1.921875 0 3.40625 0.40625q1.5 0.390625 2.546875 1.046875l0.09375 4.296875l-2.796875 0l-0.484375 -2.234375q-0.484375 -0.34375 -1.125 -0.53125q-0.640625 -0.1875 -1.46875 -0.1875q-1.296875 0 -2.046875 0.578125q-0.75 0.5625 -0.75 1.421875q0 0.5 0.234375 0.90625q0.25 0.40625 0.9375 0.75q0.703125 0.328125 2.046875 0.640625q3.296875 0.765625 4.71875 2.0q1.421875 1.234375 1.421875 3.265625q0 2.265625 -1.65625 3.71875q-1.65625 1.453125 -5.0625 1.453125zm8.6875 -0.328125l0 -2.40625l2.34375 -0.46875l0 -18.609375l-2.484375 -0.46875l0 -2.421875l6.40625 0l0 9.65625q0.828125 -1.1875 2.046875 -1.84375q1.21875 -0.65625 2.75 -0.65625q2.609375 0 4.09375 1.671875q1.5 1.65625 1.5 5.125l0 7.546875l2.34375 0.46875l0 2.40625l-8.484375 0l0 -2.40625l2.21875 -0.46875l0 -7.578125q0 -1.9375 -0.78125 -2.796875q-0.78125 -0.859375 -2.296875 -0.859375q-1.078125 0 -1.953125 0.484375q-0.859375 0.46875 -1.4375 1.328125l0 9.421875l2.21875 0.46875l0 2.40625l-8.484375 0zm20.625 0l0 -2.40625l2.34375 -0.46875l0 -11.140625l-2.484375 -0.46875l0 -2.421875l6.421875 0l0 14.03125l2.328125 0.46875l0 2.40625l-8.609375 0zm2.1875 -20.734375l0 -3.640625l4.09375 0l0 3.640625l-4.09375 0zm7.9375 27.234375l0 -2.421875l2.28125 -0.46875l0 -17.625l-2.484375 -0.46875l0 -2.421875l6.015625 0l0.25 2.0q0.78125 -1.109375 1.90625 -1.703125q1.125 -0.609375 2.65625 -0.609375q2.0625 0 3.53125 1.125q1.46875 1.125 2.234375 3.140625q0.78125 2.015625 0.78125 4.71875l0 0.328125q0 2.46875 -0.78125 4.328125q-0.78125 1.84375 -2.25 2.875q-1.453125 1.03125 -3.515625 1.03125q-1.453125 0 -2.546875 -0.5q-1.09375 -0.515625 -1.875 -1.5l0 5.28125l2.40625 0.46875l0 2.421875l-8.609375 0zm9.4375 -9.203125q1.9375 0 2.859375 -1.421875q0.9375 -1.4375 0.9375 -3.78125l0 -0.328125q0 -1.75 -0.421875 -3.0625q-0.40625 -1.328125 -1.265625 -2.0625q-0.84375 -0.75 -2.140625 -0.75q-1.09375 0 -1.90625 0.5q-0.796875 0.484375 -1.296875 1.375l0 7.75q0.5 0.859375 1.296875 1.328125q0.796875 0.453125 1.9375 0.453125z" fill-rule="nonzero"/><path fill="#000000" fill-opacity="0.0" d="m10.4513235 132.17957l0 0c0 -32.954155 26.714626 -59.668785 59.668785 -59.668785l0 0c15.82515 0 31.002136 6.2865143 42.192207 17.476585c11.190063 11.190071 17.476578 26.367058 17.476578 42.1922l0 0c0 32.954163 -26.714622 59.668793 -59.668785 59.668793l0 0c-32.95416 0 -59.668785 -26.71463 -59.668785 -59.668793z" fill-rule="evenodd"/><path stroke="#000000" stroke-width="1.0" stroke-linejoin="round" stroke-linecap="butt" d="m10.4513235 132.17957l0 0c0 -32.954155 26.714626 -59.668785 59.668785 -59.668785l0 0c15.82515 0 31.002136 6.2865143 42.192207 17.476585c11.190063 11.190071 17.476578 26.367058 17.476578 42.1922l0 0c0 32.954163 -26.714622 59.668793 -59.668785 59.668793l0 0c-32.95416 0 -59.668785 -26.71463 -59.668785 -59.668793z" fill-rule="evenodd"/><path fill="#000000" d="m33.997482 155.4329l0 -1.40625l0.96875 -0.140625l4.390625 -11.71875l2.234375 0l4.328125 11.71875l0.96875 0.140625l0 1.40625l-4.21875 0l0 -1.40625l0.953125 -0.171875l-0.703125 -2.078125l-4.9375 0l-0.71875 2.078125l0.953125 0.171875l0 1.40625l-4.21875 0zm4.578125 -5.421875l3.75 0l-1.71875 -4.90625l-0.125 -0.359375l-0.046875 0l-0.140625 0.375l-1.71875 4.890625zm9.27742 5.421875l0 -1.40625l1.390625 -0.265625l0 -10.859375l-1.46875 -0.265625l0 -1.40625l3.75 0l0 12.53125l1.375 0.265625l0 1.40625l-5.046875 0zm5.9485016 0l0 -1.40625l1.390625 -0.265625l0 -10.859375l-1.46875 -0.265625l0 -1.40625l3.75 0l0 12.53125l1.375 0.265625l0 1.40625l-5.046875 0zm15.267548 0.1875q-1.40625 0 -2.4375 -0.625q-1.015625 -0.640625 -1.5625 -1.78125q-0.546875 -1.140625 -0.546875 -2.609375l0 -0.1875q0 -1.46875 0.546875 -2.59375q0.546875 -1.140625 1.5625 -1.78125q1.03125 -0.640625 2.421875 -0.640625q1.421875 0 2.4375 0.640625q1.03125 0.640625 1.578125 1.765625q0.546875 1.125 0.546875 2.609375l0 0.1875q0 1.46875 -0.546875 2.609375q-0.546875 1.140625 -1.5625 1.78125q-1.015625 0.625 -2.4375 0.625zm0 -1.765625q0.765625 0 1.265625 -0.40625q0.5 -0.421875 0.734375 -1.15625q0.25 -0.734375 0.25 -1.6875l0 -0.1875q0 -0.953125 -0.25 -1.671875q-0.234375 -0.734375 -0.734375 -1.15625q-0.5 -0.421875 -1.28125 -0.421875q-0.75 0 -1.25 0.421875q-0.5 0.421875 -0.75 1.15625q-0.234375 0.71875 -0.234375 1.671875l0 0.1875q0 0.953125 0.234375 1.6875q0.25 0.734375 0.75 1.15625q0.515625 0.40625 1.265625 0.40625zm5.8874207 1.578125l0 -1.40625l1.375 -0.265625l0 -6.546875l-1.5 0l0 -1.640625l1.5 0l0 -1.15625q0 -1.625 0.890625 -2.5q0.90625 -0.890625 2.515625 -0.890625q0.375 0 0.796875 0.0625q0.4375 0.0625 0.78125 0.15625l-0.21875 1.71875q-0.203125 -0.046875 -0.484375 -0.078125q-0.28125 -0.03125 -0.546875 -0.03125q-0.734375 0 -1.09375 0.40625q-0.359375 0.390625 -0.359375 1.15625l0 1.15625l2.203125 0l0 1.640625l-2.203125 0l0 6.546875l1.71875 0.265625l0 1.40625l-5.375 0zm11.50264 0l0 -1.40625l1.453125 -0.265625l0 -9.90625l-1.453125 -0.265625l0 -1.421875l5.1875 0l0 1.421875l-1.4375 0.265625l0 9.90625l1.4375 0.265625l0 1.40625l-5.1875 0zm9.551125 0l0 -1.40625l1.453125 -0.265625l0 -9.828125l-2.671875 0l-0.203125 1.6875l-1.71875 0l0 -3.453125l11.484375 0l0 3.453125l-1.734375 0l-0.1875 -1.6875l-2.671875 0l0 9.828125l1.453125 0.265625l0 1.40625l-5.203125 0z" fill-rule="nonzero"/><path fill="#ffffff" d="m83.704994 73.71318c0.5252075 1.2988358 2.954628 4.9669647 3.151268 7.7930145c0.19664001 2.8260422 -0.4642563 6.6615906 -1.9714203 9.163239c-1.5071716 2.501648 -5.7330856 4.6204453 -7.071579 5.8466415c-1.338501 1.2261887 -0.8253937 1.2587509 -0.9594116 1.5105057c-0.13401794 0.25174713 -0.46258545 -0.625412 0.15531158 0c0.61789703 0.625412 2.8293839 1.7626724 3.5520706 3.752472c0.72268677 1.9897919 0.9147339 5.685898 0.7840576 8.186295c-0.13067627 2.5003967 -0.38910675 4.9001694 -1.5681229 6.8160706c-1.1790085 1.9158936 -3.4410172 3.5420532 -5.5059586 4.6793137c-2.0649414 1.1372681 -4.8191757 1.81987 -6.883705 2.1442719c-2.0645218 0.32439423 -4.4054337 -0.16783905 -5.503456 -0.19789886c-1.0980186 -0.030059814 -1.0132637 0.017120361 -1.0846558 0.017539978c-0.07139206 4.119873E-4 0.57405853 -0.17493439 0.6563034 -0.015029907c0.08224869 0.15989685 -0.3970375 -0.032569885 -0.16282272 0.9744339c0.23421478 1.0070114 1.469593 3.2164078 1.5681229 5.0675964c0.098529816 1.851181 0.038410187 4.3507385 -0.9769478 6.0395203c-1.0153542 1.6887817 -3.2468796 2.7938995 -5.115181 4.0931396c-1.8683014 1.2992554 -4.0956535 2.988037 -6.094635 3.7023773c-1.9989777 0.7143402 -4.129051 0.9402008 -5.8992424 0.58366394c-1.7701912 -0.35655212 -3.3128471 -1.6841888 -4.721901 -2.7229156c-1.4090538 -1.0387421 -3.1738167 -2.9692535 -3.7324295 -3.509491c-0.5586128 -0.5402374 0.18787384 0.113967896 0.38075638 0.2680359c0.19288635 0.15405273 0.71684647 0.5966034 0.7765465 0.6562958c0.059703827 0.05970764 -0.42208862 -0.33900452 -0.41833115 -0.29808044c0.0037574768 0.040908813 1.1865273 -0.19581604 0.440876 0.5435791c-0.74565125 0.7393799 -3.3090858 2.7884674 -4.9147835 3.892746c-1.6056957 1.1042786 -3.0802994 2.1480255 -4.7193947 2.7329407c-1.6390972 0.58491516 -3.1162052 0.614975 -5.115185 0.7765503c-1.9989777 0.16156006 -4.912279 0.6800995 -6.8786926 0.19288635c-1.9664154 -0.4872284 -4.0998287 -2.5968475 -4.919795 -3.116211" fill-rule="evenodd"/><path stroke="#000000" stroke-width="1.0" stroke-linejoin="round" stroke-linecap="butt" d="m83.704994 73.71318c0.5252075 1.2988358 2.954628 4.9669647 3.151268 7.7930145c0.19664001 2.8260422 -0.4642563 6.6615906 -1.9714203 9.163239c-1.5071716 2.501648 -5.7330856 4.6204453 -7.071579 5.8466415c-1.338501 1.2261887 -0.8253937 1.2587509 -0.9594116 1.5105057c-0.13401794 0.25174713 -0.46258545 -0.625412 0.15531158 0c0.61789703 0.625412 2.8293839 1.7626724 3.5520706 3.752472c0.72268677 1.9897919 0.9147339 5.685898 0.7840576 8.186295c-0.13067627 2.5003967 -0.38910675 4.9001694 -1.5681229 6.8160706c-1.1790085 1.9158936 -3.4410172 3.5420532 -5.5059586 4.6793137c-2.0649414 1.1372681 -4.8191757 1.81987 -6.883705 2.1442719c-2.0645218 0.32439423 -4.4054337 -0.16783905 -5.503456 -0.19789886c-1.0980186 -0.030059814 -1.0132637 0.017120361 -1.0846558 0.017539978c-0.07139206 4.119873E-4 0.57405853 -0.17493439 0.6563034 -0.015029907c0.08224869 0.15989685 -0.3970375 -0.032569885 -0.16282272 0.9744339c0.23421478 1.0070114 1.469593 3.2164078 1.5681229 5.0675964c0.098529816 1.851181 0.038410187 4.3507385 -0.9769478 6.0395203c-1.0153542 1.6887817 -3.2468796 2.7938995 -5.115181 4.0931396c-1.8683014 1.2992554 -4.0956535 2.988037 -6.094635 3.7023773c-1.9989777 0.7143402 -4.129051 0.9402008 -5.8992424 0.58366394c-1.7701912 -0.35655212 -3.3128471 -1.6841888 -4.721901 -2.7229156c-1.4090538 -1.0387421 -3.1738167 -2.9692535 -3.7324295 -3.509491c-0.5586128 -0.5402374 0.18787384 0.113967896 0.38075638 0.2680359c0.19288635 0.15405273 0.71684647 0.5966034 0.7765465 0.6562958c0.059703827 0.05970764 -0.42208862 -0.33900452 -0.41833115 -0.29808044c0.0037574768 0.040908813 1.1865273 -0.19581604 0.440876 0.5435791c-0.74565125 0.7393799 -3.3090858 2.7884674 -4.9147835 3.892746c-1.6056957 1.1042786 -3.0802994 2.1480255 -4.7193947 2.7329407c-1.6390972 0.58491516 -3.1162052 0.614975 -5.115185 0.7765503c-1.9989777 0.16156006 -4.912279 0.6800995 -6.8786926 0.19288635c-1.9664154 -0.4872284 -4.0998287 -2.5968475 -4.919795 -3.116211" fill-rule="evenodd"/><path fill="#ffffff" d="m59.356182 103.9133l24.343464 -30.059845l-15.034935 -4.225914l-37.419495 8.792503l-18.466763 21.299904l-3.5170012 13.188759l-0.33817387 24.265808l1.6783419 6.735916z" fill-rule="evenodd"/><path fill="#000000" fill-opacity="0.0" d="m146.90096 164.24294l0 0c0 -20.12944 16.318115 -36.447563 36.447556 -36.447563l0 0c9.666489 0 18.937073 3.840004 25.772308 10.67524c6.835251 6.835251 10.675247 16.105835 10.675247 25.772324l0 0c0 20.129425 -16.31813 36.447556 -36.447556 36.447556l0 0c-20.12944 0 -36.447556 -16.31813 -36.447556 -36.447556z" fill-rule="evenodd"/><path stroke="#000000" stroke-width="1.0" stroke-linejoin="round" stroke-linecap="butt" d="m146.90096 164.24294l0 0c0 -20.12944 16.318115 -36.447563 36.447556 -36.447563l0 0c9.666489 0 18.937073 3.840004 25.772308 10.67524c6.835251 6.835251 10.675247 16.105835 10.675247 25.772324l0 0c0 20.129425 -16.31813 36.447556 -36.447556 36.447556l0 0c-20.12944 0 -36.447556 -16.31813 -36.447556 -36.447556z" fill-rule="evenodd"/><path fill="#000000" d="m162.18237 160.47919q-1.0625 0 -1.984375 -0.265625q-0.90625 -0.265625 -1.78125 -0.890625l0 -2.390625l1.390625 0l0.234375 1.546875q0.375 0.28125 0.921875 0.453125q0.5625 0.15625 1.21875 0.15625q0.640625 0 1.0625 -0.1875q0.4375 -0.1875 0.65625 -0.515625q0.234375 -0.328125 0.234375 -0.78125q0 -0.40625 -0.203125 -0.71875q-0.1875 -0.328125 -0.65625 -0.578125q-0.46875 -0.265625 -1.265625 -0.484375q-1.15625 -0.3125 -1.9375 -0.734375q-0.78125 -0.4375 -1.1875 -1.03125q-0.390625 -0.609375 -0.390625 -1.421875q0 -0.828125 0.453125 -1.46875q0.453125 -0.65625 1.25 -1.03125q0.8125 -0.375 1.875 -0.375q1.15625 -0.015625 2.046875 0.296875q0.890625 0.3125 1.515625 0.828125l0 2.234375l-1.375 0l-0.25 -1.453125q-0.296875 -0.203125 -0.765625 -0.34375q-0.46875 -0.15625 -1.109375 -0.15625q-0.546875 0 -0.96875 0.1875q-0.40625 0.171875 -0.640625 0.5q-0.234375 0.3125 -0.234375 0.765625q0 0.390625 0.203125 0.6875q0.21875 0.296875 0.703125 0.546875q0.484375 0.234375 1.3125 0.46875q1.703125 0.453125 2.5625 1.25q0.875 0.796875 0.875 2.015625q0 0.875 -0.46875 1.53125q-0.46875 0.640625 -1.3125 1.0q-0.84375 0.359375 -1.984375 0.359375zm4.7242126 -0.15625l0 -1.109375l1.078125 -0.203125l0 -5.109375l-1.140625 -0.21875l0 -1.109375l2.796875 0l0.078125 1.015625q0.390625 -0.546875 0.953125 -0.84375q0.5625 -0.3125 1.328125 -0.3125q0.75 0 1.28125 0.34375q0.546875 0.34375 0.828125 1.03125q0.359375 -0.640625 0.9375 -1.0q0.59375 -0.375 1.375 -0.375q1.171875 0 1.828125 0.796875q0.671875 0.796875 0.671875 2.40625l0 3.375l1.09375 0.203125l0 1.109375l-3.90625 0l0 -1.109375l1.015625 -0.203125l0 -3.375q0 -0.984375 -0.328125 -1.375q-0.328125 -0.40625 -0.96875 -0.40625q-0.59375 0 -0.984375 0.390625q-0.375 0.375 -0.484375 0.96875l0 3.796875l0.96875 0.203125l0 1.109375l-3.75 0l0 -1.109375l0.984375 -0.203125l0 -3.375q0 -0.953125 -0.34375 -1.359375q-0.328125 -0.421875 -0.96875 -0.421875q-0.53125 0 -0.890625 0.21875q-0.359375 0.21875 -0.578125 0.609375l0 4.328125l1.015625 0.203125l0 1.109375l-3.890625 0zm16.50705 0.15625q-1.1875 0 -1.84375 -0.609375q-0.65625 -0.609375 -0.65625 -1.671875q0 -0.734375 0.390625 -1.28125q0.40625 -0.5625 1.171875 -0.875q0.78125 -0.3125 1.890625 -0.3125l1.171875 0l0 -0.640625q0 -0.625 -0.375 -0.984375q-0.359375 -0.359375 -1.0625 -0.359375q-0.40625 0 -0.71875 0.09375q-0.296875 0.09375 -0.546875 0.265625l-0.15625 1.046875l-1.328125 0l-0.015625 -1.90625q0.578125 -0.375 1.28125 -0.59375q0.703125 -0.21875 1.5625 -0.21875q1.46875 0 2.3125 0.703125q0.859375 0.6875 0.859375 1.96875l0 3.421875q0 0.15625 0 0.3125q0 0.140625 0.015625 0.28125l0.78125 0.09375l0 1.109375l-2.34375 0q-0.078125 -0.25 -0.140625 -0.484375q-0.0625 -0.234375 -0.09375 -0.46875q-0.375 0.484375 -0.921875 0.796875q-0.546875 0.3125 -1.234375 0.3125zm0.40625 -1.40625q0.546875 0 1.015625 -0.25q0.46875 -0.25 0.703125 -0.640625l0 -1.296875l-1.203125 0q-0.8125 0 -1.21875 0.375q-0.40625 0.375 -0.40625 0.875q0 0.453125 0.28125 0.703125q0.28125 0.234375 0.828125 0.234375zm5.1243896 1.25l0 -1.109375l1.078125 -0.203125l0 -8.53125l-1.140625 -0.21875l0 -1.09375l2.9375 0l0 9.84375l1.078125 0.203125l0 1.109375l-3.953125 0zm4.673111 0l0 -1.109375l1.078125 -0.203125l0 -8.53125l-1.140625 -0.21875l0 -1.09375l2.9375 0l0 9.84375l1.078125 0.203125l0 1.109375l-3.953125 0zm8.248627 0.15625q-1.09375 0 -1.90625 -0.484375q-0.8125 -0.5 -1.265625 -1.359375q-0.4375 -0.875 -0.4375 -1.984375l0 -0.3125q0 -1.125 0.4375 -2.0q0.4375 -0.890625 1.203125 -1.390625q0.78125 -0.515625 1.78125 -0.515625q1.046875 0 1.75 0.421875q0.71875 0.421875 1.078125 1.203125q0.375 0.78125 0.375 1.859375l0 1.03125l-4.75 0l-0.015625 0.046875q0.03125 0.59375 0.25 1.078125q0.21875 0.46875 0.640625 0.75q0.421875 0.265625 1.015625 0.265625q0.640625 0 1.15625 -0.171875q0.515625 -0.171875 0.953125 -0.484375l0.5625 1.125q-0.46875 0.390625 -1.171875 0.65625q-0.703125 0.265625 -1.65625 0.265625zm-1.71875 -4.796875l3.0 0l0 -0.1875q0 -0.5 -0.15625 -0.875q-0.140625 -0.390625 -0.46875 -0.609375q-0.328125 -0.21875 -0.828125 -0.21875q-0.4375 0 -0.765625 0.25q-0.328125 0.234375 -0.53125 0.65625q-0.1875 0.421875 -0.265625 0.953125l0.015625 0.03125zm5.829193 4.640625l0 -1.109375l1.078125 -0.203125l0 -5.109375l-1.125 -0.21875l0 -1.109375l2.78125 0l0.09375 0.984375l0.015625 0.15625q0.3125 -0.625 0.75 -0.953125q0.453125 -0.328125 1.046875 -0.328125q0.203125 0 0.421875 0.046875q0.234375 0.03125 0.375 0.078125l-0.203125 1.65625l-1.015625 -0.046875q-0.484375 -0.03125 -0.8125 0.1875q-0.3125 0.21875 -0.53125 0.609375l0 4.046875l1.078125 0.203125l0 1.109375l-3.953125 0z" fill-rule="nonzero"/><path fill="#000000" d="m171.636 178.32294l0 -1.109375l1.140625 -0.203125l0 -7.78125l-1.140625 -0.21875l0 -1.109375l1.140625 0l3.4375 0q1.75 0 2.734375 0.71875q0.984375 0.703125 0.984375 2.125q0 0.703125 -0.40625 1.265625q-0.40625 0.5625 -1.125 0.84375q0.625 0.125 1.046875 0.484375q0.4375 0.359375 0.65625 0.875q0.234375 0.515625 0.234375 1.125q0 1.453125 -0.96875 2.21875q-0.953125 0.765625 -2.671875 0.765625l-5.0625 0zm2.9375 -1.390625l2.125 0q0.875 0 1.34375 -0.40625q0.484375 -0.421875 0.484375 -1.1875q0 -0.5625 -0.1875 -0.9375q-0.171875 -0.390625 -0.53125 -0.59375q-0.359375 -0.21875 -0.9375 -0.21875l-2.296875 0l0 3.34375zm0 -4.640625l1.84375 0q0.796875 0 1.25 -0.375q0.46875 -0.390625 0.46875 -1.09375q0 -0.765625 -0.5 -1.140625q-0.484375 -0.390625 -1.421875 -0.390625l-1.640625 0l0 3.0zm6.5693817 6.03125l0 -1.109375l1.078125 -0.203125l0 -5.109375l-1.140625 -0.21875l0 -1.109375l2.953125 0l0 6.4375l1.0625 0.203125l0 1.109375l-3.953125 0zm1.0 -9.5l0 -1.65625l1.875 0l0 1.65625l-1.875 0zm6.6861115 9.640625q-1.0 0 -1.546875 -0.546875q-0.546875 -0.5625 -0.546875 -1.78125l0 -4.265625l-1.140625 0l0 -1.296875l1.140625 0l0 -1.875l1.796875 0l0 1.875l1.53125 0l0 1.296875l-1.53125 0l0 4.265625q0 0.484375 0.203125 0.71875q0.203125 0.21875 0.546875 0.21875q0.203125 0 0.453125 -0.03125q0.25 -0.03125 0.390625 -0.078125l0.1875 1.28125q-0.3125 0.078125 -0.71875 0.140625q-0.40625 0.078125 -0.765625 0.078125zm5.784027 0.015625q-1.09375 0 -1.90625 -0.484375q-0.8125 -0.5 -1.265625 -1.359375q-0.4375 -0.875 -0.4375 -1.984375l0 -0.3125q0 -1.125 0.4375 -2.0q0.4375 -0.890625 1.203125 -1.390625q0.78125 -0.515625 1.78125 -0.515625q1.046875 0 1.75 0.421875q0.71875 0.421875 1.078125 1.203125q0.375 0.78125 0.375 1.859375l0 1.03125l-4.75 0l-0.015625 0.046875q0.03125 0.59375 0.25 1.078125q0.21875 0.46875 0.640625 0.75q0.421875 0.265625 1.015625 0.265625q0.640625 0 1.15625 -0.171875q0.515625 -0.171875 0.953125 -0.484375l0.5625 1.125q-0.46875 0.390625 -1.171875 0.65625q-0.703125 0.265625 -1.65625 0.265625zm-1.71875 -4.796875l3.0 0l0 -0.1875q0 -0.5 -0.15625 -0.875q-0.140625 -0.390625 -0.46875 -0.609375q-0.328125 -0.21875 -0.828125 -0.21875q-0.4375 0 -0.765625 0.25q-0.328125 0.234375 -0.53125 0.65625q-0.1875 0.421875 -0.265625 0.953125l0.015625 0.03125z" fill-rule="nonzero"/><path fill="#ffffff" d="m170.9323 129.99092c0.1648407 0.4114685 0.9273071 1.5736237 0.9890442 2.4688263c0.0617218 0.8951874 -0.14550781 2.1099243 -0.61865234 2.9023438c-0.4731598 0.7924042 -1.800003 1.4637146 -2.2202454 1.8521271c-0.4202423 0.38839722 -0.25912476 0.39857483 -0.30119324 0.47828674c-0.042053223 0.079711914 -0.14515686 -0.19810486 0.048843384 0c0.1940155 0.19810486 0.88830566 0.5583496 1.1152039 1.1886139c0.22691345 0.6302643 0.28729248 1.8009033 0.24624634 2.5929718c-0.041046143 0.79208374 -0.12243652 1.552597 -0.49247742 2.1594696c-0.3700409 0.6068573 -1.0796051 1.1214447 -1.727768 1.4816895c-0.64816284 0.36024475 -1.5130615 0.5770111 -2.1612244 0.6797943c-0.64816284 0.1027832 -1.3831482 -0.053604126 -1.7277527 -0.06309509c-0.3446045 -0.009490967 -0.30729675 0.029510498 -0.339859 0.0061035156c-0.032562256 -0.023406982 0.11871338 -0.19708252 0.14448547 -0.14654541c0.025787354 0.05055237 -0.07359314 0.10719299 0.010177612 0.44981384c0.08378601 0.3426056 0.46162415 1.0193481 0.49249268 1.6058502c0.030853271 0.5865021 0.011520386 1.3782349 -0.30729675 1.9131775c-0.3188324 0.5349426 -1.0192261 0.885025 -1.6056519 1.2964935c-0.58644104 0.4114685 -1.2854767 0.94607544 -1.9129486 1.1723328c-0.6274719 0.22625732 -1.2963257 0.298172 -1.8518982 0.18521118c-0.5555725 -0.112960815 -1.0392303 -0.53393555 -1.4815216 -0.8629761c-0.442276 -0.32904053 -1.0215912 -0.9267273 -1.1721954 -1.1112671c-0.15058899 -0.1845398 0.15093994 0.019332886 0.26863098 0.0040740967c0.11769104 -0.015274048 0.41311646 -0.12008667 0.43754578 -0.09565735c0.024414062 0.024414062 -0.23506165 0.16519165 -0.29101562 0.24220276c-0.05596924 0.07699585 0.2197876 -0.022399902 -0.044769287 0.21980286c-0.26455688 0.24220276 -1.038559 0.883667 -1.542572 1.2333984c-0.50401306 0.34973145 -0.96699524 0.6797943 -1.4815216 0.8650055c-0.51452637 0.18521118 -0.97817993 0.19503784 -1.6056519 0.2462616c-0.6274719 0.051223755 -1.5418854 0.21540833 -2.159195 0.061065674c-0.6172943 -0.15434265 -1.2871704 -0.8226013 -1.5446014 -0.9871216" fill-rule="evenodd"/><path stroke="#000000" stroke-width="1.0" stroke-linejoin="round" stroke-linecap="butt" d="m170.9323 129.99092c0.1648407 0.4114685 0.9273071 1.5736237 0.9890442 2.4688263c0.0617218 0.8951874 -0.14550781 2.1099243 -0.61865234 2.9023438c-0.4731598 0.7924042 -1.800003 1.4637146 -2.2202454 1.8521271c-0.4202423 0.38839722 -0.25912476 0.39857483 -0.30119324 0.47828674c-0.042053223 0.079711914 -0.14515686 -0.19810486 0.048843384 0c0.1940155 0.19810486 0.88830566 0.5583496 1.1152039 1.1886139c0.22691345 0.6302643 0.28729248 1.8009033 0.24624634 2.5929718c-0.041046143 0.79208374 -0.12243652 1.552597 -0.49247742 2.1594696c-0.3700409 0.6068573 -1.0796051 1.1214447 -1.727768 1.4816895c-0.64816284 0.36024475 -1.5130615 0.5770111 -2.1612244 0.6797943c-0.64816284 0.1027832 -1.3831482 -0.053604126 -1.7277527 -0.06309509c-0.3446045 -0.009490967 -0.30729675 0.029510498 -0.339859 0.0061035156c-0.032562256 -0.023406982 0.11871338 -0.19708252 0.14448547 -0.14654541c0.025787354 0.05055237 -0.07359314 0.10719299 0.010177612 0.44981384c0.08378601 0.3426056 0.46162415 1.0193481 0.49249268 1.6058502c0.030853271 0.5865021 0.011520386 1.3782349 -0.30729675 1.9131775c-0.3188324 0.5349426 -1.0192261 0.885025 -1.6056519 1.2964935c-0.58644104 0.4114685 -1.2854767 0.94607544 -1.9129486 1.1723328c-0.6274719 0.22625732 -1.2963257 0.298172 -1.8518982 0.18521118c-0.5555725 -0.112960815 -1.0392303 -0.53393555 -1.4815216 -0.8629761c-0.442276 -0.32904053 -1.0215912 -0.9267273 -1.1721954 -1.1112671c-0.15058899 -0.1845398 0.15093994 0.019332886 0.26863098 0.0040740967c0.11769104 -0.015274048 0.41311646 -0.12008667 0.43754578 -0.09565735c0.024414062 0.024414062 -0.23506165 0.16519165 -0.29101562 0.24220276c-0.05596924 0.07699585 0.2197876 -0.022399902 -0.044769287 0.21980286c-0.26455688 0.24220276 -1.038559 0.883667 -1.542572 1.2333984c-0.50401306 0.34973145 -0.96699524 0.6797943 -1.4815216 0.8650055c-0.51452637 0.18521118 -0.97817993 0.19503784 -1.6056519 0.2462616c-0.6274719 0.051223755 -1.5418854 0.21540833 -2.159195 0.061065674c-0.6172943 -0.15434265 -1.2871704 -0.8226013 -1.5446014 -0.9871216" fill-rule="evenodd"/><path fill="#ffffff" d="m166.5988 136.0461l9.131241 -12.501884l-12.414276 -4.5527725l-5.6273804 0.93556213l-9.941193 10.39949l-3.9398346 9.671249l-0.28094482 12.790466l4.784546 -0.107299805z" fill-rule="evenodd"/></g></svg>