<svg version="1.1" viewBox="0.0 0.0 341.9790026246719 343.59055118110234" fill="none" stroke="none" stroke-linecap="square" stroke-miterlimit="10" xmlns:xlink="http://www.w3.org/1999/xlink" xmlns="http://www.w3.org/2000/svg"><clipPath id="p.0"><path d="m0 0l341.979 0l0 343.59055l-341.979 0l0 -343.59055z" clip-rule="nonzero"/></clipPath><g clip-path="url(#p.0)"><path fill="#000000" fill-opacity="0.0" d="m0 0l341.979 0l0 343.59055l-341.979 0z" fill-rule="evenodd"/><g filter="url(#shadowFilter-p.1)"><use xlink:href="#p.1" transform=""/></g><defs><filter id="shadowFilter-p.1" filterUnits="userSpaceOnUse"><feGaussianBlur in="SourceAlpha" stdDeviation="5.0" result="blur"/><feComponentTransfer in="blur" color-interpolation-filters="sRGB"><feFuncR type="linear" slope="0" intercept="0.0"/><feFuncG type="linear" slope="0" intercept="0.0"/><feFuncB type="linear" slope="0" intercept="0.0"/><feFuncA type="linear" slope="0.5" intercept="0"/></feComponentTransfer></filter></defs><g id="p.1"><path fill="#ffffff" d="m5.695538 171.5512l0 0c0 -91.80103 73.9823 -166.22047 165.2441 -166.22047l0 0c43.825455 0 85.85593 17.512465 116.845215 48.684853c30.989288 31.172382 48.398865 73.45122 48.398865 117.53563l0 0c0 91.80104 -73.9823 166.22047 -165.24408 166.22047l0 0c-91.261795 0 -165.2441 -74.41943 -165.2441 -166.22047z" fill-rule="evenodd"/><path stroke="#000000" stroke-width="1.0" stroke-linejoin="round" stroke-linecap="butt" d="m5.695538 171.5512l0 0c0 -91.80103 73.9823 -166.22047 165.2441 -166.22047l0 0c43.825455 0 85.85593 17.512465 116.845215 48.684853c30.989288 31.172382 48.398865 73.45122 48.398865 117.53563l0 0c0 91.80104 -73.9823 166.22047 -165.24408 166.22047l0 0c-91.261795 0 -165.2441 -74.41943 -165.2441 -166.22047z" fill-rule="evenodd"/><path fill="#000000" d="m93.445625 83.81619l2.78125 0.703125q-0.875 3.421875 -3.140625 5.21875q-2.265625 1.796875 -5.546875 1.796875q-3.390625 0 -5.515625 -1.375q-2.125 -1.390625 -3.25 -4.0q-1.109375 -2.625 -1.109375 -5.640625q0 -3.28125 1.25 -5.71875q1.265625 -2.4375 3.578125 -3.703125q2.3125 -1.28125 5.09375 -1.28125q3.140625 0 5.28125 1.609375q2.15625 1.609375 3.0 4.515625l-2.734375 0.640625q-0.71875 -2.296875 -2.109375 -3.328125q-1.390625 -1.046875 -3.5 -1.046875q-2.421875 0 -4.046875 1.15625q-1.625 1.15625 -2.28125 3.109375q-0.65625 1.953125 -0.65625 4.03125q0 2.6875 0.78125 4.6875q0.78125 1.984375 2.421875 2.984375q1.640625 0.984375 3.5625 0.984375q2.34375 0 3.953125 -1.34375q1.625 -1.359375 2.1875 -4.0zm4.914215 -0.25q0 -4.21875 2.359375 -6.25q1.953125 -1.6875 4.78125 -1.6875q3.125 0 5.109375 2.0625q2.0 2.046875 2.0 5.671875q0 2.921875 -0.875 4.609375q-0.875 1.6875 -2.5625 2.625q-1.6875 0.921875 -3.671875 0.921875q-3.203125 0 -5.171875 -2.046875q-1.96875 -2.046875 -1.96875 -5.90625zm2.65625 0q0 2.921875 1.265625 4.375q1.28125 1.453125 3.21875 1.453125q1.921875 0 3.1875 -1.453125q1.28125 -1.46875 1.28125 -4.453125q0 -2.828125 -1.28125 -4.28125q-1.28125 -1.453125 -3.1875 -1.453125q-1.9375 0 -3.21875 1.453125q-1.265625 1.4375 -1.265625 4.359375zm13.623413 1.3125l0 -2.59375l7.90625 0l0 2.59375l-7.90625 0zm10.25087 -3.921875q0 -5.234375 2.796875 -8.1875q2.8124924 -2.953125 7.2499924 -2.953125q2.90625 0 5.234375 1.390625q2.34375 1.375 3.5625 3.859375q1.234375 2.484375 1.234375 5.640625q0 3.1875 -1.296875 5.71875q-1.28125 2.515625 -3.65625 3.8125q-2.359375 1.296875 -5.09375 1.296875q-2.96875 0 -5.296875 -1.421875q-2.3281174 -1.4375 -3.5312424 -3.90625q-1.203125 -2.484375 -1.203125 -5.25zm2.859375 0.03125q0 3.796875 2.0312424 5.984375q2.046875 2.1875 5.125 2.1875q3.140625 0 5.15625 -2.203125q2.03125 -2.21875 2.03125 -6.265625q0 -2.5625 -0.875 -4.46875q-0.859375 -1.921875 -2.53125 -2.96875q-1.65625 -1.046875 -3.734375 -1.046875q-2.953125 0 -5.078125 2.03125q-2.1249924 2.015625 -2.1249924 6.75zm23.26548 10.1875l-4.65625 -15.203125l2.671875 0l2.421875 8.765625l0.90625 3.265625q0.046875 -0.234375 0.78125 -3.125l2.421875 -8.90625l2.640625 0l2.28125 8.8125l0.765625 2.90625l0.875 -2.9375l2.59375 -8.78125l2.515625 0l-4.75 15.203125l-2.6875 0l-2.421875 -9.109375l-0.578125 -2.59375l-3.078125 11.703125l-2.703125 0zm18.382965 0l0 -15.203125l2.3125 0l0 2.15625q1.671875 -2.5 4.84375 -2.5q1.375 0 2.53125 0.5q1.15625 0.484375 1.71875 1.296875q0.578125 0.796875 0.8125 1.890625q0.140625 0.71875 0.140625 2.515625l0 9.34375l-2.578125 0l0 -9.25q0 -1.578125 -0.3125 -2.359375q-0.296875 -0.78125 -1.0625 -1.234375q-0.765625 -0.46875 -1.796875 -0.46875q-1.640625 0 -2.84375 1.046875q-1.1875 1.03125 -1.1875 3.953125l0 8.3125l-2.578125 0zm26.717163 -4.890625l2.65625 0.328125q-0.625 2.328125 -2.328125 3.625q-1.703125 1.28125 -4.359375 1.28125q-3.328125 0 -5.28125 -2.046875q-1.953125 -2.0625 -1.953125 -5.765625q0 -3.84375 1.96875 -5.953125q1.984375 -2.125 5.125 -2.125q3.0625 0 4.984375 2.078125q1.9375 2.0625 1.9375 5.84375q0 0.21875 -0.015625 0.671875l-11.34375 0q0.140625 2.515625 1.421875 3.84375q1.28125 1.328125 3.171875 1.328125q1.421875 0 2.421875 -0.734375q1.0 -0.75 1.59375 -2.375zm-8.46875 -4.171875l8.5 0q-0.171875 -1.921875 -0.96875 -2.875q-1.234375 -1.5 -3.203125 -1.5q-1.765625 0 -2.984375 1.1875q-1.203125 1.1875 -1.34375 3.1875zm14.342163 9.0625l0 -15.203125l2.3125 0l0 2.296875q0.890625 -1.609375 1.640625 -2.125q0.75 -0.515625 1.65625 -0.515625q1.3125 0 2.65625 0.828125l-0.890625 2.390625q-0.953125 -0.5625 -1.890625 -0.5625q-0.84375 0 -1.515625 0.515625q-0.671875 0.5 -0.96875 1.40625q-0.421875 1.375 -0.421875 3.0l0 7.96875l-2.578125 0zm8.766495 -4.546875l2.546875 -0.390625q0.21875 1.53125 1.1875 2.34375q0.984375 0.8125 2.75 0.8125q1.78125 0 2.640625 -0.71875q0.859375 -0.71875 0.859375 -1.703125q0 -0.859375 -0.765625 -1.375q-0.53125 -0.34375 -2.640625 -0.859375q-2.828125 -0.71875 -3.921875 -1.234375q-1.09375 -0.53125 -1.671875 -1.453125q-0.5625 -0.921875 -0.5625 -2.046875q0 -1.015625 0.46875 -1.875q0.46875 -0.875 1.265625 -1.453125q0.609375 -0.4375 1.640625 -0.734375q1.046875 -0.3125 2.234375 -0.3125q1.78125 0 3.125 0.515625q1.359375 0.515625 2.0 1.390625q0.65625 0.875 0.890625 2.359375l-2.515625 0.34375q-0.171875 -1.171875 -1.0 -1.828125q-0.8125 -0.671875 -2.3125 -0.671875q-1.78125 0 -2.546875 0.59375q-0.75 0.578125 -0.75 1.375q0 0.5 0.3125 0.90625q0.3125 0.40625 0.984375 0.6875q0.390625 0.140625 2.28125 0.65625q2.734375 0.734375 3.8125 1.203125q1.078125 0.453125 1.6875 1.34375q0.625 0.890625 0.625 2.203125q0 1.296875 -0.75 2.4375q-0.75 1.125 -2.171875 1.75q-1.421875 0.625 -3.203125 0.625q-2.96875 0 -4.53125 -1.234375q-1.546875 -1.234375 -1.96875 -3.65625zm15.6953125 4.546875l0 -21.0l2.578125 0l0 7.53125q1.796875 -2.078125 4.546875 -2.078125q1.6875 0 2.9375 0.671875q1.25 0.65625 1.78125 1.828125q0.546875 1.171875 0.546875 3.40625l0 9.640625l-2.578125 0l0 -9.640625q0 -1.9375 -0.84375 -2.8125q-0.84375 -0.875 -2.375 -0.875q-1.140625 0 -2.15625 0.59375q-1.0 0.59375 -1.4375 1.609375q-0.421875 1.015625 -0.421875 2.8125l0 8.3125l-2.578125 0zm16.326538 -18.03125l0 -2.96875l2.578125 0l0 2.96875l-2.578125 0zm0 18.03125l0 -15.203125l2.578125 0l0 15.203125l-2.578125 0zm6.5001526 5.828125l0 -21.03125l2.34375 0l0 1.96875q0.828125 -1.15625 1.875 -1.734375q1.046875 -0.578125 2.5312653 -0.578125q1.953125 0 3.4375 1.0q1.5 1.0 2.25 2.828125q0.765625 1.828125 0.765625 4.0q0 2.328125 -0.84375 4.203125q-0.828125 1.875 -2.4375 2.875q-1.59375 0.984375 -3.3593903 0.984375q-1.28125 0 -2.3125 -0.546875q-1.015625 -0.546875 -1.671875 -1.375l0 7.40625l-2.578125 0zm2.328125 -13.34375q0 2.9375 1.1875 4.34375q1.1875 1.390625 2.875 1.390625q1.7187653 0 2.9375153 -1.453125q1.234375 -1.453125 1.234375 -4.5q0 -2.90625 -1.203125 -4.34375q-1.1875 -1.453125 -2.8437653 -1.453125q-1.65625 0 -2.921875 1.546875q-1.265625 1.53125 -1.265625 4.46875z" fill-rule="nonzero"/></g><path fill="#6aa84f" d="m72.14604 151.0868l0 0c0 -20.847656 16.900368 -37.74803 37.74803 -37.74803l0 0c10.011398 0 19.612762 3.9770126 26.69188 11.056145c7.079132 7.0791245 11.056152 16.680489 11.056152 26.691887l0 0c0 20.847656 -16.900375 37.74803 -37.74803 37.74803l0 0c-20.847664 0 -37.74803 -16.900375 -37.74803 -37.74803z" fill-rule="evenodd"/><path stroke="#000000" stroke-width="1.0" stroke-linejoin="round" stroke-linecap="butt" d="m72.14604 151.0868l0 0c0 -20.847656 16.900368 -37.74803 37.74803 -37.74803l0 0c10.011398 0 19.612762 3.9770126 26.69188 11.056145c7.079132 7.0791245 11.056152 16.680489 11.056152 26.691887l0 0c0 20.847656 -16.900375 37.74803 -37.74803 37.74803l0 0c-20.847664 0 -37.74803 -16.900375 -37.74803 -37.74803z" fill-rule="evenodd"/><path fill="#ffffff" d="m89.37807 147.88681l3.65625 -9.546875l1.359375 0l3.90625 9.546875l-1.4375 0l-1.109375 -2.890625l-3.984375 0l-1.046875 2.890625l-1.34375 0zm2.75 -3.921875l3.234375 0l-1.0 -2.640625q-0.453125 -1.203125 -0.671875 -1.96875q-0.1875 0.90625 -0.515625 1.8125l-1.046875 2.796875zm7.0303802 3.921875l0 -6.90625l1.0625 0l0 0.984375q0.75 -1.140625 2.1875 -1.140625q0.625 0 1.15625 0.21875q0.53125 0.21875 0.78125 0.59375q0.265625 0.359375 0.375 0.859375q0.0625 0.328125 0.0625 1.140625l0 4.25l-1.171875 0l0 -4.203125q0 -0.71875 -0.140625 -1.0625q-0.140625 -0.359375 -0.484375 -0.5625q-0.34375 -0.21875 -0.8125 -0.21875q-0.75 0 -1.296875 0.46875q-0.546875 0.46875 -0.546875 1.796875l0 3.78125l-1.171875 0zm7.4124756 0l0 -6.90625l1.0625 0l0 0.984375q0.75 -1.140625 2.1875 -1.140625q0.625 0 1.15625 0.21875q0.53125 0.21875 0.78125 0.59375q0.265625 0.359375 0.375 0.859375q0.0625 0.328125 0.0625 1.140625l0 4.25l-1.171875 0l0 -4.203125q0 -0.71875 -0.140625 -1.0625q-0.140625 -0.359375 -0.484375 -0.5625q-0.34375 -0.21875 -0.8125 -0.21875q-0.75 0 -1.296875 0.46875q-0.546875 0.46875 -0.546875 1.796875l0 3.78125l-1.171875 0zm11.943726 0l0 -1.015625q-0.8125 1.171875 -2.1875 1.171875q-0.609375 0 -1.140625 -0.234375q-0.53125 -0.234375 -0.796875 -0.578125q-0.25 -0.359375 -0.359375 -0.875q-0.0625 -0.34375 -0.0625 -1.09375l0 -4.28125l1.171875 0l0 3.828125q0 0.921875 0.0625 1.234375q0.109375 0.46875 0.46875 0.734375q0.359375 0.25 0.890625 0.25q0.515625 0 0.984375 -0.265625q0.46875 -0.265625 0.65625 -0.734375q0.1875 -0.46875 0.1875 -1.34375l0 -3.703125l1.171875 0l0 6.90625l-1.046875 0zm7.3968506 -0.859375q-0.65625 0.5625 -1.265625 0.796875q-0.59375 0.21875 -1.28125 0.21875q-1.140625 0 -1.75 -0.546875q-0.609375 -0.5625 -0.609375 -1.4375q0 -0.5 0.21875 -0.921875q0.234375 -0.421875 0.609375 -0.671875q0.375 -0.25 0.84375 -0.390625q0.34375 -0.078125 1.046875 -0.171875q1.421875 -0.171875 2.09375 -0.40625q0 -0.234375 0 -0.296875q0 -0.71875 -0.328125 -1.015625q-0.453125 -0.390625 -1.34375 -0.390625q-0.8125 0 -1.21875 0.296875q-0.390625 0.28125 -0.578125 1.015625l-1.140625 -0.15625q0.15625 -0.734375 0.515625 -1.1875q0.359375 -0.453125 1.03125 -0.6875q0.671875 -0.25 1.5625 -0.25q0.890625 0 1.4375 0.203125q0.5625 0.203125 0.8125 0.53125q0.265625 0.3125 0.375 0.796875q0.046875 0.296875 0.046875 1.078125l0 1.5625q0 1.625 0.078125 2.0625q0.078125 0.4375 0.296875 0.828125l-1.21875 0q-0.1875 -0.359375 -0.234375 -0.859375zm-0.09375 -2.609375q-0.640625 0.265625 -1.921875 0.4375q-0.71875 0.109375 -1.015625 0.25q-0.296875 0.125 -0.46875 0.375q-0.15625 0.25 -0.15625 0.546875q0 0.46875 0.34375 0.78125q0.359375 0.3125 1.046875 0.3125q0.671875 0 1.203125 -0.296875q0.53125 -0.296875 0.78125 -0.8125q0.1875 -0.390625 0.1875 -1.171875l0 -0.421875zm2.9749756 3.46875l0 -9.546875l1.171875 0l0 9.546875l-1.171875 0z" fill-rule="nonzero"/><path fill="#ffffff" d="m92.21719 163.88681l0 -9.546875l3.59375 0q1.09375 0 1.75 0.296875q0.65625 0.28125 1.03125 0.890625q0.375 0.609375 0.375 1.265625q0 0.609375 -0.34375 1.15625q-0.328125 0.53125 -0.984375 0.859375q0.859375 0.25 1.328125 0.875q0.46875 0.609375 0.46875 1.4375q0 0.671875 -0.296875 1.25q-0.28125 0.578125 -0.703125 0.890625q-0.40625 0.3125 -1.03125 0.46875q-0.625 0.15625 -1.546875 0.15625l-3.640625 0zm1.265625 -5.53125l2.0625 0q0.84375 0 1.203125 -0.109375q0.484375 -0.140625 0.71875 -0.46875q0.25 -0.34375 0.25 -0.84375q0 -0.46875 -0.234375 -0.828125q-0.21875 -0.359375 -0.640625 -0.5q-0.421875 -0.140625 -1.453125 -0.140625l-1.90625 0l0 2.890625zm0 4.40625l2.375 0q0.609375 0 0.859375 -0.046875q0.4375 -0.078125 0.734375 -0.25q0.296875 -0.1875 0.484375 -0.53125q0.1875 -0.359375 0.1875 -0.8125q0 -0.53125 -0.28125 -0.921875q-0.265625 -0.40625 -0.75 -0.5625q-0.484375 -0.15625 -1.40625 -0.15625l-2.203125 0l0 3.28125zm7.0928802 -2.328125q0 -1.921875 1.078125 -2.84375q0.890625 -0.765625 2.171875 -0.765625q1.421875 0 2.328125 0.9375q0.90625 0.921875 0.90625 2.578125q0 1.328125 -0.40625 2.09375q-0.390625 0.765625 -1.15625 1.1875q-0.765625 0.421875 -1.671875 0.421875q-1.453125 0 -2.359375 -0.921875q-0.890625 -0.9375 -0.890625 -2.6875zm1.203125 0q0 1.328125 0.578125 1.984375q0.59375 0.65625 1.46875 0.65625q0.875 0 1.453125 -0.65625q0.578125 -0.671875 0.578125 -2.03125q0 -1.28125 -0.59375 -1.9375q-0.578125 -0.65625 -1.4375 -0.65625q-0.875 0 -1.46875 0.65625q-0.578125 0.65625 -0.578125 1.984375zm6.6468506 3.453125l0 -6.90625l1.0625 0l0 0.984375q0.75 -1.140625 2.1875 -1.140625q0.625 0 1.15625 0.21875q0.53125 0.21875 0.78125 0.59375q0.265625 0.359375 0.375 0.859375q0.0625 0.328125 0.0625 1.140625l0 4.25l-1.171875 0l0 -4.203125q0 -0.71875 -0.140625 -1.0625q-0.140625 -0.359375 -0.484375 -0.5625q-0.34375 -0.21875 -0.8125 -0.21875q-0.75 0 -1.296875 0.46875q-0.546875 0.46875 -0.546875 1.796875l0 3.78125l-1.171875 0zm11.943726 0l0 -1.015625q-0.8125 1.171875 -2.1875 1.171875q-0.609375 0 -1.140625 -0.234375q-0.53125 -0.234375 -0.796875 -0.578125q-0.25 -0.359375 -0.359375 -0.875q-0.0625 -0.34375 -0.0625 -1.09375l0 -4.28125l1.171875 0l0 3.828125q0 0.921875 0.0625 1.234375q0.109375 0.46875 0.46875 0.734375q0.359375 0.25 0.890625 0.25q0.515625 0 0.984375 -0.265625q0.46875 -0.265625 0.65625 -0.734375q0.1875 -0.46875 0.1875 -1.34375l0 -3.703125l1.171875 0l0 6.90625l-1.046875 0zm2.4124756 -2.0625l1.15625 -0.1875q0.109375 0.703125 0.546875 1.078125q0.453125 0.359375 1.25 0.359375q0.8125 0 1.203125 -0.328125q0.390625 -0.328125 0.390625 -0.765625q0 -0.390625 -0.359375 -0.625q-0.234375 -0.15625 -1.1875 -0.390625q-1.296875 -0.328125 -1.796875 -0.5625q-0.484375 -0.25 -0.75 -0.65625q-0.25 -0.421875 -0.25 -0.9375q0 -0.453125 0.203125 -0.84375q0.21875 -0.40625 0.578125 -0.671875q0.28125 -0.1875 0.75 -0.328125q0.46875 -0.140625 1.015625 -0.140625q0.8125 0 1.421875 0.234375q0.609375 0.234375 0.90625 0.640625q0.296875 0.390625 0.40625 1.0625l-1.140625 0.15625q-0.078125 -0.53125 -0.453125 -0.828125q-0.375 -0.3125 -1.0625 -0.3125q-0.8125 0 -1.15625 0.265625q-0.34375 0.265625 -0.34375 0.625q0 0.234375 0.140625 0.421875q0.15625 0.1875 0.453125 0.3125q0.171875 0.0625 1.03125 0.296875q1.25 0.328125 1.734375 0.546875q0.5 0.203125 0.78125 0.609375q0.28125 0.40625 0.28125 1.0q0 0.59375 -0.34375 1.109375q-0.34375 0.515625 -1.0 0.796875q-0.640625 0.28125 -1.453125 0.28125q-1.34375 0 -2.046875 -0.5625q-0.703125 -0.5625 -0.90625 -1.65625z" fill-rule="nonzero"/><path fill="#ffffff" d="m85.19854 111.83221c4.2497787 0.25022125 21.168411 0.06298828 25.498688 1.5013123c4.330269 1.4383163 1.0997314 5.3587036 0.48293304 7.1286087c-0.6167984 1.7699051 -3.39151 2.7589645 -4.1837234 3.4908142c-0.79221344 0.73184204 -0.48993683 0.75022125 -0.5695572 0.9002609c-0.07961273 0.1500473 -0.27383423 -0.37358093 0.09186554 0c0.3657074 0.37358093 1.6745377 1.0533676 2.1023636 2.2414703c0.4278183 1.1881027 0.5419922 3.3945694 0.4645691 4.8871384c-0.077430725 1.492569 -0.23184967 2.924759 -0.9291382 4.0682373c-0.6972885 1.1434937 -2.0328064 2.113739 -3.254593 2.7926483c-1.2217865 0.67892456 -2.854332 1.0870667 -4.076111 1.2808533c-1.2217865 0.19378662 -2.6054306 -0.100616455 -3.254593 -0.118118286c-0.6491699 -0.017501831 -0.578743 0.05731201 -0.64042664 0.013122559c-0.061676025 -0.044174194 0.2217865 -0.37313843 0.2703476 -0.2782135c0.048553467 0.09492493 -0.13692474 0.20210266 0.020996094 0.84776306c0.15791321 0.64567566 0.8683243 1.9208221 0.92650604 3.0262604c0.058181763 1.105423 0.02318573 2.5979767 -0.5774231 3.6062927c-0.60061646 1.008316 -1.9208298 1.667984 -3.0262527 2.443573c-1.105423 0.775589 -2.4234467 1.7834625 -3.6063004 2.2099762c-1.1828461 0.4264984 -2.4435654 0.56211853 -3.4908066 0.34907532c-1.0472488 -0.21302795 -1.9588852 -1.0070038 -2.792656 -1.6272888c-0.83377075 -0.6203003 -1.9260712 -1.7467194 -2.2099686 -2.0944977c-0.28390503 -0.34776306 0.28477478 0.036315918 0.5065613 0.007873535c0.22177887 -0.028427124 0.7782135 -0.22483826 0.82414246 -0.17848206c0.045936584 0.04637146 -0.4431305 0.3119049 -0.54855347 0.45669556c-0.10542297 0.14480591 0.41469574 -0.044174194 -0.083992004 0.41207886c-0.49868774 0.45625305 -1.9580078 1.6662292 -2.9081345 2.3254547c-0.9501343 0.6592407 -1.8228378 1.280838 -2.792656 1.6299286c-0.9698105 0.34907532 -1.9855576 0.7681427 -3.026245 0.4645691c-1.0406799 -0.30358887 -2.264656 2.6784668 -3.217842 -2.2861023c-0.95319366 -4.964554 -2.0844269 -22.917755 -2.5013123 -27.501305" fill-rule="evenodd"/><path fill="#6aa84f" d="m197.83261 148.58336l0 0c0 -20.847664 16.90036 -37.74804 37.74803 -37.74804l0 0c10.011398 0 19.612762 3.9770203 26.69188 11.056145c7.079132 7.079132 11.056152 16.680496 11.056152 26.691895l0 0c0 20.847656 -16.90036 37.74803 -37.74803 37.74803l0 0c-20.847672 0 -37.74803 -16.900375 -37.74803 -37.74803z" fill-rule="evenodd"/><path stroke="#000000" stroke-width="1.0" stroke-linejoin="round" stroke-linecap="butt" d="m197.83261 148.58336l0 0c0 -20.847664 16.90036 -37.74804 37.74803 -37.74804l0 0c10.011398 0 19.612762 3.9770203 26.69188 11.056145c7.079132 7.079132 11.056152 16.680496 11.056152 26.691895l0 0c0 20.847656 -16.90036 37.74803 -37.74803 37.74803l0 0c-20.847672 0 -37.74803 -16.900375 -37.74803 -37.74803z" fill-rule="evenodd"/><path fill="#ffffff" d="m202.04901 145.38335l0 -9.546875l4.234375 0q1.265625 0 1.921875 0.265625q0.671875 0.25 1.0625 0.90625q0.40625 0.65625 0.40625 1.4375q0 1.015625 -0.65625 1.71875q-0.65625 0.6875 -2.03125 0.875q0.5 0.25 0.765625 0.484375q0.546875 0.5 1.046875 1.265625l1.65625 2.59375l-1.578125 0l-1.265625 -1.984375q-0.5625 -0.859375 -0.921875 -1.3125q-0.34375 -0.453125 -0.640625 -0.640625q-0.28125 -0.1875 -0.5625 -0.25q-0.21875 -0.046875 -0.703125 -0.046875l-1.46875 0l0 4.234375l-1.265625 0zm1.265625 -5.328125l2.71875 0q0.859375 0 1.34375 -0.171875q0.484375 -0.1875 0.734375 -0.578125q0.265625 -0.390625 0.265625 -0.859375q0 -0.671875 -0.5 -1.109375q-0.484375 -0.4375 -1.546875 -0.4375l-3.015625 0l0 3.15625zm12.922028 3.109375l1.203125 0.140625q-0.28125 1.0625 -1.0625 1.65625q-0.765625 0.578125 -1.96875 0.578125q-1.515625 0 -2.40625 -0.9375q-0.890625 -0.9375 -0.890625 -2.609375q0 -1.75 0.890625 -2.703125q0.90625 -0.96875 2.34375 -0.96875q1.390625 0 2.265625 0.9375q0.875 0.9375 0.875 2.65625q0 0.109375 0 0.3125l-5.15625 0q0.0625 1.140625 0.640625 1.75q0.578125 0.59375 1.4375 0.59375q0.65625 0 1.109375 -0.328125q0.453125 -0.34375 0.71875 -1.078125zm-3.84375 -1.90625l3.859375 0q-0.078125 -0.859375 -0.4375 -1.296875q-0.5625 -0.6875 -1.453125 -0.6875q-0.8125 0 -1.359375 0.546875q-0.546875 0.53125 -0.609375 1.4375zm6.5218506 6.78125l0 -9.5625l1.078125 0l0 0.890625q0.375 -0.53125 0.84375 -0.78125q0.484375 -0.265625 1.15625 -0.265625q0.875 0 1.546875 0.453125q0.6875 0.453125 1.03125 1.28125q0.34375 0.828125 0.34375 1.828125q0 1.046875 -0.375 1.90625q-0.375 0.84375 -1.109375 1.296875q-0.71875 0.453125 -1.53125 0.453125q-0.578125 0 -1.046875 -0.25q-0.46875 -0.25 -0.765625 -0.625l0 3.375l-1.171875 0zm1.0625 -6.078125q0 1.34375 0.53125 1.984375q0.546875 0.625 1.3125 0.625q0.78125 0 1.34375 -0.65625q0.5625 -0.65625 0.5625 -2.046875q0 -1.3125 -0.546875 -1.96875q-0.546875 -0.671875 -1.296875 -0.671875q-0.75 0 -1.328125 0.703125q-0.578125 0.703125 -0.578125 2.03125zm10.865601 2.5625q-0.65625 0.5625 -1.265625 0.796875q-0.59375 0.21875 -1.28125 0.21875q-1.140625 0 -1.75 -0.546875q-0.609375 -0.5625 -0.609375 -1.4375q0 -0.5 0.21875 -0.921875q0.234375 -0.421875 0.609375 -0.671875q0.375 -0.25 0.84375 -0.390625q0.34375 -0.078125 1.046875 -0.171875q1.421875 -0.171875 2.09375 -0.40625q0 -0.234375 0 -0.296875q0 -0.71875 -0.328125 -1.015625q-0.453125 -0.390625 -1.34375 -0.390625q-0.8125 0 -1.21875 0.296875q-0.390625 0.28125 -0.578125 1.015625l-1.140625 -0.15625q0.15625 -0.734375 0.515625 -1.1875q0.359375 -0.453125 1.03125 -0.6875q0.671875 -0.25 1.5625 -0.25q0.890625 0 1.4375 0.203125q0.5625 0.203125 0.8125 0.53125q0.265625 0.3125 0.375 0.796875q0.046875 0.296875 0.046875 1.078125l0 1.5625q0 1.625 0.078125 2.0625q0.078125 0.4375 0.296875 0.828125l-1.21875 0q-0.1875 -0.359375 -0.234375 -0.859375zm-0.09375 -2.609375q-0.640625 0.265625 -1.921875 0.4375q-0.71875 0.109375 -1.015625 0.25q-0.296875 0.125 -0.46875 0.375q-0.15625 0.25 -0.15625 0.546875q0 0.46875 0.34375 0.78125q0.359375 0.3125 1.046875 0.3125q0.671875 0 1.203125 -0.296875q0.53125 -0.296875 0.78125 -0.8125q0.1875 -0.390625 0.1875 -1.171875l0 -0.421875zm2.9437256 6.125l-0.125 -1.09375q0.375 0.109375 0.65625 0.109375q0.390625 0 0.625 -0.140625q0.234375 -0.125 0.390625 -0.359375q0.109375 -0.171875 0.359375 -0.875q0.03125 -0.09375 0.109375 -0.28125l-2.625 -6.921875l1.265625 0l1.4375 4.0q0.28125 0.765625 0.5 1.59375q0.203125 -0.796875 0.46875 -1.578125l1.484375 -4.015625l1.171875 0l-2.625 7.015625q-0.421875 1.140625 -0.65625 1.578125q-0.3125 0.578125 -0.71875 0.84375q-0.40625 0.28125 -0.96875 0.28125q-0.328125 0 -0.75 -0.15625zm6.7109375 -2.65625l0 -6.90625l1.046875 0l0 0.96875q0.328125 -0.515625 0.859375 -0.8125q0.546875 -0.3125 1.234375 -0.3125q0.78125 0 1.265625 0.3125q0.484375 0.3125 0.6875 0.890625q0.828125 -1.203125 2.140625 -1.203125q1.03125 0 1.578125 0.578125q0.5625 0.5625 0.5625 1.734375l0 4.75l-1.171875 0l0 -4.359375q0 -0.703125 -0.125 -1.0q-0.109375 -0.3125 -0.40625 -0.5q-0.296875 -0.1875 -0.703125 -0.1875q-0.71875 0 -1.203125 0.484375q-0.484375 0.484375 -0.484375 1.546875l0 4.015625l-1.171875 0l0 -4.484375q0 -0.78125 -0.296875 -1.171875q-0.28125 -0.390625 -0.921875 -0.390625q-0.5 0 -0.921875 0.265625q-0.421875 0.25 -0.609375 0.75q-0.1875 0.5 -0.1875 1.453125l0 3.578125l-1.171875 0zm15.836792 -2.21875l1.203125 0.140625q-0.28125 1.0625 -1.0625 1.65625q-0.76560974 0.578125 -1.9687347 0.578125q-1.515625 0 -2.40625 -0.9375q-0.890625 -0.9375 -0.890625 -2.609375q0 -1.75 0.890625 -2.703125q0.90625 -0.96875 2.34375 -0.96875q1.390625 0 2.2656097 0.9375q0.875 0.9375 0.875 2.65625q0 0.109375 0 0.3125l-5.1562347 0q0.0625 1.140625 0.640625 1.75q0.578125 0.59375 1.4375 0.59375q0.65625 0 1.109375 -0.328125q0.453125 -0.34375 0.71873474 -1.078125zm-3.8437347 -1.90625l3.8593597 0q-0.078125 -0.859375 -0.43748474 -1.296875q-0.5625 -0.6875 -1.453125 -0.6875q-0.8125 0 -1.359375 0.546875q-0.546875 0.53125 -0.609375 1.4375zm6.5218353 4.125l0 -6.90625l1.0625 0l0 0.984375q0.75 -1.140625 2.1875 -1.140625q0.625 0 1.15625 0.21875q0.53125 0.21875 0.78125 0.59375q0.265625 0.359375 0.375 0.859375q0.0625 0.328125 0.0625 1.140625l0 4.25l-1.171875 0l0 -4.203125q0 -0.71875 -0.140625 -1.0625q-0.140625 -0.359375 -0.484375 -0.5625q-0.34375 -0.21875 -0.8125 -0.21875q-0.75 0 -1.296875 0.46875q-0.546875 0.46875 -0.546875 1.796875l0 3.78125l-1.171875 0zm9.974976 -1.046875l0.171875 1.03125q-0.5 0.109375 -0.890625 0.109375q-0.640625 0 -1.0 -0.203125q-0.34375 -0.203125 -0.484375 -0.53125q-0.140625 -0.328125 -0.140625 -1.390625l0 -3.96875l-0.859375 0l0 -0.90625l0.859375 0l0 -1.71875l1.171875 -0.703125l0 2.421875l1.171875 0l0 0.90625l-1.171875 0l0 4.046875q0 0.5 0.046875 0.640625q0.0625 0.140625 0.203125 0.234375q0.140625 0.078125 0.40625 0.078125q0.203125 0 0.515625 -0.046875z" fill-rule="nonzero"/><path fill="#ffffff" d="m220.985 161.38336l0 -9.546875l6.4375 0l0 1.125l-5.171875 0l0 2.96875l4.46875 0l0 1.125l-4.46875 0l0 4.328125l-1.265625 0zm12.453857 0l0 -1.015625q-0.8125 1.171875 -2.1875 1.171875q-0.609375 0 -1.140625 -0.234375q-0.53125 -0.234375 -0.796875 -0.578125q-0.25 -0.359375 -0.359375 -0.875q-0.0625 -0.34375 -0.0625 -1.09375l0 -4.28125l1.171875 0l0 3.828125q0 0.921875 0.0625 1.234375q0.109375 0.46875 0.46875 0.734375q0.359375 0.25 0.890625 0.25q0.515625 0 0.984375 -0.265625q0.46875 -0.265625 0.65625 -0.734375q0.1875 -0.46875 0.1875 -1.34375l0 -3.703125l1.171875 0l0 6.90625l-1.046875 0zm2.8812256 0l0 -6.90625l1.0625 0l0 0.984375q0.75 -1.140625 2.1875 -1.140625q0.625 0 1.15625 0.21875q0.53125 0.21875 0.78125 0.59375q0.265625 0.359375 0.375 0.859375q0.0625 0.328125 0.0625 1.140625l0 4.25l-1.171875 0l0 -4.203125q0 -0.71875 -0.140625 -1.0625q-0.140625 -0.359375 -0.484375 -0.5625q-0.34375 -0.21875 -0.8125 -0.21875q-0.75 0 -1.296875 0.46875q-0.546875 0.46875 -0.546875 1.796875l0 3.78125l-1.171875 0zm11.896851 0l0 -0.875q-0.65625 1.03125 -1.9375 1.03125q-0.8125 0 -1.515625 -0.453125q-0.6875 -0.453125 -1.078125 -1.265625q-0.375 -0.828125 -0.375 -1.890625q0 -1.03125 0.34375 -1.875q0.34375 -0.84375 1.03125 -1.28125q0.703125 -0.453125 1.546875 -0.453125q0.625 0 1.109375 0.265625q0.5 0.25 0.796875 0.671875l0 -3.421875l1.171875 0l0 9.546875l-1.09375 0zm-3.703125 -3.453125q0 1.328125 0.5625 1.984375q0.5625 0.65625 1.328125 0.65625q0.765625 0 1.296875 -0.625q0.53125 -0.625 0.53125 -1.90625q0 -1.421875 -0.546875 -2.078125q-0.546875 -0.671875 -1.34375 -0.671875q-0.78125 0 -1.3125 0.640625q-0.515625 0.625 -0.515625 2.0z" fill-rule="nonzero"/><path fill="#ffffff" d="m211.19722 108.330894c4.2497864 0.25022125 21.168427 0.06298828 25.498688 1.5013123c4.3302765 1.4383163 1.0997467 5.3587036 0.48294067 7.1286087c-0.6167908 1.7699051 -3.39151 2.7589645 -4.183731 3.4908142c-0.7922058 0.73184204 -0.4899292 0.75022125 -0.56954956 0.9002609c-0.0796051 0.1500473 -0.27383423 -0.37358093 0.09187317 0c0.36569214 0.37358093 1.67453 1.0533676 2.102356 2.2414703c0.42782593 1.1881027 0.5419922 3.394577 0.4645691 4.8871384c-0.077423096 1.492569 -0.23184204 2.924759 -0.9291382 4.0682373c-0.6972809 1.1434937 -2.0328064 2.113739 -3.254593 2.7926483c-1.2217865 0.67892456 -2.8543243 1.0870667 -4.076111 1.2808533c-1.2217865 0.19378662 -2.605423 -0.100616455 -3.254593 -0.118118286c-0.6491699 -0.017501831 -0.5787506 0.05731201 -0.64042664 0.013122559c-0.061676025 -0.044174194 0.2217865 -0.37313843 0.27033997 -0.2782135c0.048553467 0.09492493 -0.13691711 0.20210266 0.020996094 0.84776306c0.15792847 0.64567566 0.8683319 1.9208221 0.9265137 3.0262604c0.058181763 1.105423 0.0231781 2.5979767 -0.5774231 3.6062927c-0.60061646 1.008316 -1.9208221 1.667984 -3.026245 2.443573c-1.105423 0.775589 -2.4234467 1.7834625 -3.606308 2.2099762c-1.1828461 0.4264984 -2.443573 0.56211853 -3.4908142 0.34907532c-1.0472412 -0.21304321 -1.9588776 -1.0070038 -2.7926483 -1.6272888c-0.83377075 -0.6203003 -1.9260712 -1.7467194 -2.2099762 -2.0944977c-0.28390503 -0.34776306 0.28477478 0.036315918 0.5065613 0.007873535c0.2217865 -0.028427124 0.7782135 -0.22483826 0.8241577 -0.17848206c0.045928955 0.04637146 -0.44314575 0.3119049 -0.5485687 0.45669556c-0.10542297 0.14480591 0.41470337 -0.044174194 -0.083984375 0.41207886c-0.49868774 0.45625305 -1.9580078 1.6662292 -2.908142 2.3254547c-0.950119 0.6592407 -1.8228302 1.280838 -2.7926483 1.6299286c-0.9698181 0.34907532 -1.9855652 0.7681427 -3.026245 0.4645691c-1.0406799 -0.30358887 -2.2646484 2.6784668 -3.2178497 -2.2861023c-0.95318604 -4.964554 -2.0844269 -22.917755 -2.5013123 -27.501305" fill-rule="evenodd"/><path fill="#6aa84f" d="m202.5735 252.83488l0 0c0 -20.847656 16.900375 -37.74803 37.74803 -37.74803l0 0c10.011414 0 19.612762 3.9770203 26.691895 11.056152c7.079132 7.079117 11.056152 16.680481 11.056152 26.69188l0 0c0 20.847672 -16.90039 37.74803 -37.748047 37.74803l0 0c-20.847656 0 -37.74803 -16.90036 -37.74803 -37.74803z" fill-rule="evenodd"/><path stroke="#000000" stroke-width="1.0" stroke-linejoin="round" stroke-linecap="butt" d="m202.5735 252.83488l0 0c0 -20.847656 16.900375 -37.74803 37.74803 -37.74803l0 0c10.011414 0 19.612762 3.9770203 26.691895 11.056152c7.079132 7.079117 11.056152 16.680481 11.056152 26.69188l0 0c0 20.847672 -16.90039 37.74803 -37.748047 37.74803l0 0c-20.847656 0 -37.74803 -16.90036 -37.74803 -37.74803z" fill-rule="evenodd"/><path fill="#ffffff" d="m240.87543 255.86676q0 -0.28125 0 -0.421875q0 -0.828125 0.234375 -1.421875q0.171875 -0.453125 0.546875 -0.921875q0.28125 -0.328125 1.015625 -0.96875q0.734375 -0.65625 0.953125 -1.03125q0.21875 -0.390625 0.21875 -0.84375q0 -0.8125 -0.640625 -1.4375q-0.640625 -0.625 -1.578125 -0.625q-0.890625 0 -1.5 0.5625q-0.59375 0.5625 -0.78125 1.765625l-1.453125 -0.171875q0.203125 -1.609375 1.15625 -2.453125q0.96875 -0.859375 2.5625 -0.859375q1.671875 0 2.671875 0.921875q1.0 0.90625 1.0 2.203125q0 0.75 -0.359375 1.390625q-0.34375 0.625 -1.359375 1.53125q-0.6875 0.609375 -0.90625 0.90625q-0.203125 0.28125 -0.3125 0.65625q-0.09375 0.375 -0.109375 1.21875l-1.359375 0zm-0.078125 2.828125l0 -1.609375l1.59375 0l0 1.609375l-1.59375 0z" fill-rule="nonzero"/><path fill="#ffffff" d="m215.38977 213.39783c4.249771 0.25021362 21.168411 0.06298828 25.498688 1.5013123c4.330261 1.4383087 1.0997314 5.3587036 0.48292542 7.128601c-0.6167908 1.7699127 -3.39151 2.7589722 -4.183716 3.4908142c-0.79222107 0.73184204 -0.48994446 0.7502289 -0.5695648 0.90026855c-0.0796051 0.15003967 -0.27383423 -0.37358093 0.09187317 0c0.3657074 0.37358093 1.6745453 1.05336 2.102356 2.2414703c0.42782593 1.1880951 0.5419922 3.394577 0.4645691 4.8871307c-0.077423096 1.492569 -0.23184204 2.924759 -0.9291382 4.0682526c-0.6972809 1.1434784 -2.0328064 2.1137238 -3.254593 2.7926483c-1.2217865 0.6789093 -2.8543243 1.0870514 -4.076111 1.280838c-1.2217865 0.19378662 -2.605423 -0.100616455 -3.254593 -0.118118286c-0.6491699 -0.017486572 -0.57873535 0.05731201 -0.64042664 0.013122559c-0.061676025 -0.044174194 0.2217865 -0.37313843 0.27035522 -0.2782135c0.048553467 0.09492493 -0.13693237 0.20210266 0.020996094 0.8477783c0.15791321 0.6456604 0.86831665 1.9208221 0.9264984 3.026245c0.058181763 1.105423 0.02319336 2.597992 -0.5774231 3.6062927c-0.60061646 1.008316 -1.9208221 1.667984 -3.026245 2.443573c-1.105423 0.775589 -2.4234467 1.7834625 -3.6062927 2.2099762c-1.1828613 0.42651367 -2.443573 0.56211853 -3.4908142 0.34907532c-1.0472565 -0.21302795 -1.9588928 -1.0069885 -2.7926636 -1.6272888c-0.83377075 -0.6203003 -1.9260712 -1.7467194 -2.209961 -2.0944977c-0.28390503 -0.34776306 0.28477478 0.036315918 0.5065613 0.007873535c0.22177124 -0.028427124 0.7782135 -0.22483826 0.82414246 -0.1784668c0.045928955 0.04637146 -0.4431305 0.31188965 -0.54855347 0.45669556c-0.10542297 0.14479065 0.4146881 -0.044189453 -0.083999634 0.4120636c-0.49868774 0.45625305 -1.9579926 1.6662292 -2.9081268 2.3254547c-0.9501343 0.6592407 -1.8228455 1.2808533 -2.7926483 1.6299286c-0.9698181 0.34907532 -1.9855652 0.76815796 -3.0262604 0.4645691c-1.0406799 -0.30358887 -2.2646484 2.678482 -3.2178345 -2.286087c-0.9532013 -4.964569 -2.0844269 -22.91777 -2.5013123 -27.501312" fill-rule="evenodd"/><path fill="#6aa84f" d="m63.16931 247.85962l0 0c0 -20.847656 16.900368 -37.74803 37.74803 -37.74803l0 0c10.011398 0 19.612762 3.9770203 26.691887 11.056152c7.0791245 7.079132 11.056145 16.680481 11.056145 26.69188l0 0c0 20.847656 -16.900368 37.748047 -37.74803 37.748047l0 0c-20.847664 0 -37.74803 -16.90039 -37.74803 -37.748047z" fill-rule="evenodd"/><path stroke="#000000" stroke-width="1.0" stroke-linejoin="round" stroke-linecap="butt" d="m63.16931 247.85962l0 0c0 -20.847656 16.900368 -37.74803 37.74803 -37.74803l0 0c10.011398 0 19.612762 3.9770203 26.691887 11.056152c7.0791245 7.079132 11.056145 16.680481 11.056145 26.69188l0 0c0 20.847656 -16.900368 37.748047 -37.74803 37.748047l0 0c-20.847664 0 -37.74803 -16.90039 -37.74803 -37.748047z" fill-rule="evenodd"/><path fill="#ffffff" d="m101.47122 250.8915q0 -0.28125 0 -0.421875q0 -0.828125 0.234375 -1.421875q0.171875 -0.453125 0.546875 -0.921875q0.28125 -0.328125 1.015625 -0.96875q0.734375 -0.65625 0.953125 -1.03125q0.21875 -0.390625 0.21875 -0.84375q0 -0.8125 -0.640625 -1.4375q-0.640625 -0.625 -1.578125 -0.625q-0.890625 0 -1.5 0.5625q-0.59375 0.5625 -0.78125 1.765625l-1.453125 -0.171875q0.203125 -1.609375 1.15625 -2.453125q0.96875 -0.859375 2.5625 -0.859375q1.671875 0 2.671875 0.921875q1.0 0.90625 1.0 2.203125q0 0.75 -0.359375 1.390625q-0.34375 0.625 -1.359375 1.53125q-0.6875 0.609375 -0.90625 0.90625q-0.203125 0.28125 -0.3125 0.65625q-0.09375 0.375 -0.109375 1.21875l-1.359375 0zm-0.078125 2.828125l0 -1.609375l1.59375 0l0 1.609375l-1.59375 0z" fill-rule="nonzero"/><path fill="#ffffff" d="m76.5 208.3322c4.2497787 0.25022888 21.168419 0.06300354 25.498688 1.5013123c4.330269 1.438324 1.0997391 5.358719 0.48294067 7.1286163c-0.6167984 1.7698975 -3.3915176 2.7589722 -4.183731 3.4908142c-0.79221344 0.73184204 -0.48993683 0.7502136 -0.56954956 0.90026855c-0.07961273 0.15003967 -0.27384186 -0.37358093 0.09186554 0c0.36569977 0.37356567 1.6745377 1.05336 2.102356 2.2414703c0.42782593 1.1880951 0.5419998 3.3945618 0.4645691 4.8871307c-0.077430725 1.492569 -0.23184204 2.924759 -0.92913055 4.0682373c-0.6972885 1.1434937 -2.032814 2.113739 -3.254593 2.7926483c-1.2217865 0.67892456 -2.854332 1.0870667 -4.0761185 1.2808533c-1.2217865 0.19378662 -2.605423 -0.100616455 -3.254593 -0.118118286c-0.6491699 -0.017501831 -0.578743 0.05731201 -0.640419 0.013122559c-0.061683655 -0.044174194 0.2217865 -0.37313843 0.27033997 -0.2782135c0.048553467 0.09492493 -0.13691711 0.20210266 0.020996094 0.84776306c0.15792084 0.64567566 0.8683319 1.9208221 0.9265137 3.0262604c0.058174133 1.105423 0.0231781 2.5979767 -0.5774307 3.6062927c-0.6006088 1.008316 -1.9208221 1.667984 -3.026245 2.443573c-1.105423 0.775589 -2.4234467 1.7834625 -3.6063004 2.2099762c-1.1828537 0.4264984 -2.443573 0.56211853 -3.4908142 0.34907532c-1.0472412 -0.21302795 -1.9588776 -1.0070038 -2.7926483 -1.6272888c-0.83377075 -0.6203003 -1.9260712 -1.7467194 -2.2099762 -2.0944977c-0.28390503 -0.34776306 0.28477478 0.036315918 0.5065613 0.007873535c0.2217865 -0.028427124 0.7782135 -0.22483826 0.8241501 -0.17848206c0.045928955 0.04637146 -0.44313812 0.3119049 -0.5485611 0.45669556c-0.10542297 0.14480591 0.41470337 -0.044174194 -0.083984375 0.41207886c-0.49868774 0.45625305 -1.9580078 1.6662292 -2.908142 2.3254547c-0.95012665 0.6592407 -1.8228302 1.280838 -2.7926483 1.6299286c-0.9698181 0.34907532 -1.9855652 0.7681427 -3.026245 0.4645691c-1.0406876 -0.30358887 -2.264656 2.6784668 -3.2178497 -2.2861023c-0.95319366 -4.964554 -2.0844269 -22.917755 -2.5013123 -27.501312" fill-rule="evenodd"/><path fill="#6aa84f" d="m131.39372 222.36313l0 0c0 -20.847656 16.90036 -37.74803 37.74803 -37.74803l0 0c10.011398 0 19.612762 3.9770203 26.69188 11.056137c7.079132 7.079132 11.056152 16.680496 11.056152 26.691895l0 0c0 20.847656 -16.900375 37.748047 -37.74803 37.748047l0 0c-20.847672 0 -37.74803 -16.90039 -37.74803 -37.748047z" fill-rule="evenodd"/><path stroke="#000000" stroke-width="1.0" stroke-linejoin="round" stroke-linecap="butt" d="m131.39372 222.36313l0 0c0 -20.847656 16.90036 -37.74803 37.74803 -37.74803l0 0c10.011398 0 19.612762 3.9770203 26.69188 11.056137c7.079132 7.079132 11.056152 16.680496 11.056152 26.691895l0 0c0 20.847656 -16.900375 37.748047 -37.74803 37.748047l0 0c-20.847672 0 -37.74803 -16.90039 -37.74803 -37.748047z" fill-rule="evenodd"/><path fill="#ffffff" d="m169.69563 225.395q0 -0.28125 0 -0.421875q0 -0.828125 0.234375 -1.421875q0.171875 -0.453125 0.546875 -0.921875q0.28125 -0.328125 1.015625 -0.96875q0.734375 -0.65625 0.953125 -1.03125q0.21875 -0.390625 0.21875 -0.84375q0 -0.8125 -0.640625 -1.4375q-0.640625 -0.625 -1.578125 -0.625q-0.890625 0 -1.5 0.5625q-0.59375 0.5625 -0.78125 1.765625l-1.453125 -0.171875q0.203125 -1.609375 1.15625 -2.453125q0.96875 -0.859375 2.5625 -0.859375q1.671875 0 2.671875 0.921875q1.0 0.90625 1.0 2.203125q0 0.75 -0.359375 1.390625q-0.34375 0.625 -1.359375 1.53125q-0.6875 0.609375 -0.90625 0.90625q-0.203125 0.28125 -0.3125 0.65625q-0.09375 0.375 -0.109375 1.21875l-1.359375 0zm-0.078125 2.828125l0 -1.609375l1.59375 0l0 1.609375l-1.59375 0z" fill-rule="nonzero"/><path fill="#ffffff" d="m144.77318 182.92607c4.2497864 0.25021362 21.168411 0.06298828 25.498688 1.5013123c4.3302765 1.4383087 1.0997467 5.3587036 0.48294067 7.128601c-0.6167908 1.7698975 -3.39151 2.7589722 -4.183731 3.4908142c-0.7922058 0.73184204 -0.4899292 0.7502136 -0.56954956 0.90026855c-0.07962036 0.15003967 -0.27383423 -0.37358093 0.09185791 0c0.3657074 0.37356567 1.6745453 1.05336 2.1023712 2.2414703c0.42782593 1.1880951 0.5419922 3.394577 0.4645691 4.8871307c-0.077438354 1.492569 -0.2318573 2.924759 -0.9291382 4.0682373c-0.69729614 1.1434937 -2.0328064 2.113739 -3.254593 2.7926636c-1.2217865 0.6789093 -2.8543243 1.0870514 -4.076111 1.280838c-1.2217865 0.19378662 -2.605423 -0.100616455 -3.254593 -0.118118286c-0.6491699 -0.017486572 -0.5787506 0.05731201 -0.64042664 0.013122559c-0.061676025 -0.044174194 0.2217865 -0.37313843 0.27033997 -0.2782135c0.048553467 0.09492493 -0.13691711 0.20210266 0.020996094 0.8477783c0.15792847 0.6456604 0.8683319 1.9208221 0.9265137 3.026245c0.058181763 1.105423 0.0231781 2.5979767 -0.5774231 3.6062927c-0.60061646 1.008316 -1.9208221 1.667984 -3.0262604 2.443573c-1.105423 0.775589 -2.4234467 1.7834625 -3.6062927 2.2099762c-1.1828461 0.4264984 -2.443573 0.56211853 -3.4908142 0.34907532c-1.0472412 -0.21302795 -1.9588776 -1.0070038 -2.7926483 -1.6272888c-0.83377075 -0.6203003 -1.9260712 -1.7467194 -2.2099762 -2.0944977c-0.28390503 -0.34776306 0.28477478 0.036315918 0.5065613 0.007873535c0.2217865 -0.028427124 0.7782135 -0.22483826 0.82414246 -0.1784668c0.045944214 0.0463562 -0.4431305 0.31188965 -0.54855347 0.4566803c-0.10542297 0.14480591 0.41470337 -0.044174194 -0.083984375 0.41207886c-0.49868774 0.45625305 -1.9580078 1.6662292 -2.908142 2.3254547c-0.9501343 0.6592407 -1.8228302 1.280838 -2.7926483 1.6299286c-0.9698181 0.34907532 -1.9855652 0.76815796 -3.026245 0.4645691c-1.0406799 -0.30358887 -2.2646484 2.6784668 -3.2178497 -2.286087c-0.95318604 -4.964569 -2.0844269 -22.91777 -2.5013123 -27.501312" fill-rule="evenodd"/></g></svg>