<svg version="1.1" viewBox="0.0 0.0 141.69291338582678 165.93438320209972" fill="none" stroke="none" stroke-linecap="square" stroke-miterlimit="10" xmlns:xlink="http://www.w3.org/1999/xlink" xmlns="http://www.w3.org/2000/svg"><clipPath id="p.0"><path d="m0 0l141.69292 0l0 165.93439l-141.69292 0l0 -165.93439z" clip-rule="nonzero"/></clipPath><g clip-path="url(#p.0)"><path fill="#000000" fill-opacity="0.0" d="m0 0l141.69292 0l0 165.93439l-141.69292 0z" fill-rule="evenodd"/><g filter="url(#shadowFilter-p.1)"><use xlink:href="#p.1" transform="matrix(1.0 0.0 0.0 1.0 1.0000002624671922 0.0)"/></g><defs><filter id="shadowFilter-p.1" filterUnits="userSpaceOnUse"><feGaussianBlur in="SourceAlpha" stdDeviation="2.5" result="blur"/><feComponentTransfer in="blur" color-interpolation-filters="sRGB"><feFuncR type="linear" slope="0" intercept="0.0"/><feFuncG type="linear" slope="0" intercept="0.0"/><feFuncB type="linear" slope="0" intercept="0.0"/><feFuncA type="linear" slope="0.5" intercept="0"/></feComponentTransfer></filter></defs><g id="p.1"><path fill="#ffffff" d="m4.984252 4.7979l132.0315 0l0 156.69292l-132.0315 0z" fill-rule="evenodd"/></g><path fill="#ffffff" d="m70.41195 88.28063l0 0c0 -17.725296 14.369186 -32.094486 32.094482 -32.094486l0 0c8.511993 0 16.675346 3.3813744 22.694237 9.400257c6.018875 6.0188828 9.400253 14.182243 9.400253 22.69423l0 0c0 17.725296 -14.369186 32.09449 -32.09449 32.09449l0 0c-17.725296 0 -32.094482 -14.369194 -32.094482 -32.09449z" fill-rule="evenodd"/><path stroke="#000000" stroke-width="1.0" stroke-linejoin="round" stroke-linecap="butt" d="m70.41195 88.28063l0 0c0 -17.725296 14.369186 -32.094486 32.094482 -32.094486l0 0c8.511993 0 16.675346 3.3813744 22.694237 9.400257c6.018875 6.0188828 9.400253 14.182243 9.400253 22.69423l0 0c0 17.725296 -14.369186 32.09449 -32.09449 32.09449l0 0c-17.725296 0 -32.094482 -14.369194 -32.094482 -32.09449z" fill-rule="evenodd"/><path fill="#000000" d="m92.89112 92.46334q-0.765625 0 -1.4375 -0.1875q-0.671875 -0.203125 -1.296875 -0.640625l0 -1.75l1.015625 0l0.171875 1.125q0.265625 0.203125 0.671875 0.328125q0.40625 0.109375 0.875 0.109375q0.46875 0 0.78125 -0.125q0.3125 -0.140625 0.46875 -0.375q0.171875 -0.234375 0.171875 -0.5625q0 -0.3125 -0.140625 -0.53125q-0.140625 -0.234375 -0.484375 -0.421875q-0.34375 -0.1875 -0.921875 -0.34375q-0.84375 -0.234375 -1.421875 -0.546875q-0.5625 -0.3125 -0.859375 -0.75q-0.28125 -0.4375 -0.28125 -1.03125q0 -0.609375 0.328125 -1.078125q0.34375 -0.46875 0.921875 -0.734375q0.59375 -0.265625 1.359375 -0.28125q0.84375 0 1.484375 0.234375q0.65625 0.21875 1.109375 0.59375l0 1.625l-1.0 0l-0.1875 -1.0625q-0.21875 -0.15625 -0.5625 -0.25q-0.328125 -0.109375 -0.796875 -0.109375q-0.390625 0 -0.703125 0.125q-0.296875 0.125 -0.46875 0.375q-0.171875 0.234375 -0.171875 0.5625q0 0.28125 0.15625 0.5q0.15625 0.203125 0.5 0.390625q0.359375 0.171875 0.953125 0.34375q1.234375 0.328125 1.875 0.90625q0.640625 0.578125 0.640625 1.46875q0 0.625 -0.34375 1.109375q-0.34375 0.46875 -0.96875 0.734375q-0.609375 0.25 -1.4375 0.25zm3.431244 -0.109375l0 -0.796875l0.796875 -0.15625l0 -3.71875l-0.828125 -0.15625l0 -0.796875l2.03125 0l0.0625 0.734375q0.265625 -0.40625 0.671875 -0.625q0.421875 -0.21875 0.96875 -0.21875q0.546875 0 0.9375 0.25q0.40625 0.25 0.609375 0.75q0.25 -0.46875 0.671875 -0.734375q0.4375 -0.265625 1.0 -0.265625q0.84375 0 1.328125 0.578125q0.5 0.578125 0.5 1.75l0 2.453125l0.78125 0.15625l0 0.796875l-2.828125 0l0 -0.796875l0.734375 -0.15625l0 -2.453125q0 -0.71875 -0.25 -1.0q-0.234375 -0.296875 -0.6875 -0.296875q-0.4375 0 -0.71875 0.28125q-0.28125 0.28125 -0.359375 0.703125l0 2.765625l0.71875 0.15625l0 0.796875l-2.734375 0l0 -0.796875l0.703125 -0.15625l0 -2.453125q0 -0.6875 -0.25 -0.984375q-0.234375 -0.3125 -0.703125 -0.3125q-0.375 0 -0.640625 0.15625q-0.265625 0.15625 -0.421875 0.453125l0 3.140625l0.734375 0.15625l0 0.796875l-2.828125 0zm12.010956 0.109375q-0.859375 0 -1.34375 -0.4375q-0.484375 -0.453125 -0.484375 -1.21875q0 -0.53125 0.296875 -0.921875q0.296875 -0.40625 0.859375 -0.625q0.5625 -0.234375 1.359375 -0.234375l0.859375 0l0 -0.484375q0 -0.4375 -0.28125 -0.703125q-0.265625 -0.265625 -0.765625 -0.265625q-0.296875 0 -0.515625 0.078125q-0.21875 0.0625 -0.40625 0.1875l-0.109375 0.765625l-0.96875 0l-0.015625 -1.390625q0.421875 -0.28125 0.921875 -0.4375q0.515625 -0.15625 1.140625 -0.15625q1.078125 0 1.6875 0.5q0.625 0.5 0.625 1.4375l0 2.484375q0 0.109375 0 0.21875q0 0.109375 0.015625 0.21875l0.5625 0.078125l0 0.796875l-1.703125 0q-0.0625 -0.1875 -0.109375 -0.359375q-0.03125 -0.171875 -0.0625 -0.34375q-0.28125 0.359375 -0.6875 0.59375q-0.390625 0.21875 -0.875 0.21875zm0.296875 -1.015625q0.390625 0 0.734375 -0.1875q0.34375 -0.1875 0.515625 -0.46875l0 -0.9375l-0.875 0q-0.59375 0 -0.890625 0.28125q-0.296875 0.265625 -0.296875 0.625q0 0.328125 0.203125 0.515625q0.21875 0.171875 0.609375 0.171875zm3.7181396 0.90625l0 -0.796875l0.78125 -0.15625l0 -6.203125l-0.828125 -0.15625l0 -0.796875l2.140625 0l0 7.15625l0.78125 0.15625l0 0.796875l-2.875 0zm3.3977203 0l0 -0.796875l0.78125 -0.15625l0 -6.203125l-0.828125 -0.15625l0 -0.796875l2.140625 0l0 7.15625l0.78125 0.15625l0 0.796875l-2.875 0zm5.9966736 0.109375q-0.78125 0 -1.375 -0.359375q-0.59375 -0.359375 -0.921875 -0.984375q-0.328125 -0.625 -0.328125 -1.4375l0 -0.21875q0 -0.828125 0.3125 -1.46875q0.328125 -0.640625 0.890625 -1.0q0.5625 -0.375 1.28125 -0.375q0.765625 0 1.28125 0.3125q0.515625 0.296875 0.78125 0.875q0.265625 0.5625 0.265625 1.34375l0 0.75l-3.453125 0l0 0.03125q0.015625 0.4375 0.171875 0.78125q0.171875 0.34375 0.46875 0.546875q0.3125 0.1875 0.75 0.1875q0.453125 0 0.828125 -0.125q0.375 -0.125 0.6875 -0.34375l0.421875 0.8125q-0.34375 0.28125 -0.859375 0.484375q-0.515625 0.1875 -1.203125 0.1875zm-1.234375 -3.484375l2.171875 0l0 -0.125q0 -0.375 -0.109375 -0.65625q-0.109375 -0.28125 -0.359375 -0.4375q-0.234375 -0.15625 -0.59375 -0.15625q-0.3125 0 -0.5625 0.1875q-0.234375 0.171875 -0.375 0.484375q-0.140625 0.296875 -0.1875 0.6875l0.015625 0.015625zm4.2237244 3.375l0 -0.796875l0.78125 -0.15625l0 -3.71875l-0.8125 -0.15625l0 -0.796875l2.03125 0l0.0625 0.703125l0.015625 0.109375q0.21875 -0.4375 0.53125 -0.671875q0.328125 -0.25 0.7656174 -0.25q0.15625 0 0.3125 0.03125q0.171875 0.015625 0.265625 0.046875l-0.140625 1.21875l-0.7343674 -0.046875q-0.359375 -0.015625 -0.59375 0.15625q-0.234375 0.15625 -0.390625 0.4375l0 2.9375l0.78125 0.15625l0 0.796875l-2.875 0z" fill-rule="nonzero"/><path fill="#000000" d="m109.58549 105.02063l0 -0.796875l0.828125 -0.15625l0 -5.65625l-0.828125 -0.15625l0 -0.8125l0.828125 0l2.5 0q1.265625 0 1.984375 0.515625q0.71875 0.515625 0.71875 1.546875q0 0.515625 -0.296875 0.9375q-0.296875 0.40625 -0.828125 0.59375q0.46875 0.109375 0.78125 0.375q0.3125 0.25 0.46875 0.625q0.171875 0.359375 0.171875 0.8125q0 1.0625 -0.703125 1.625q-0.703125 0.546875 -1.953125 0.546875l-3.671875 0zm2.140625 -1.015625l1.53125 0q0.640625 0 0.984375 -0.296875q0.359375 -0.296875 0.359375 -0.859375q0 -0.40625 -0.140625 -0.6875q-0.125 -0.28125 -0.390625 -0.421875q-0.265625 -0.15625 -0.6875 -0.15625l-1.65625 0l0 2.421875zm0 -3.359375l1.328125 0q0.578125 0 0.90625 -0.28125q0.34375 -0.28125 0.34375 -0.796875q0 -0.5625 -0.359375 -0.828125q-0.34375 -0.28125 -1.03125 -0.28125l-1.1875 0l0 2.1875zm4.77446 4.375l0 -0.796875l0.78125 -0.15625l0 -3.71875l-0.828125 -0.15625l0 -0.796875l2.140625 0l0 4.671875l0.765625 0.15625l0 0.796875l-2.859375 0zm0.71875 -6.90625l0 -1.203125l1.375 0l0 1.203125l-1.375 0zm4.8560333 7.0q-0.71875 0 -1.125 -0.390625q-0.390625 -0.40625 -0.390625 -1.296875l0 -3.09375l-0.828125 0l0 -0.9375l0.828125 0l0 -1.375l1.3125 0l0 1.375l1.109375 0l0 0.9375l-1.109375 0l0 3.09375q0 0.359375 0.140625 0.53125q0.15625 0.15625 0.40625 0.15625q0.140625 0 0.3125 -0.015625q0.1875 -0.03125 0.296875 -0.0625l0.140625 0.921875q-0.234375 0.0625 -0.53125 0.109375q-0.296875 0.046875 -0.5625 0.046875zm4.2098083 0.015625q-0.78125 0 -1.375 -0.359375q-0.59375 -0.359375 -0.921875 -0.984375q-0.328125 -0.625 -0.328125 -1.4375l0 -0.21875q0 -0.828125 0.3125 -1.46875q0.328125 -0.640625 0.890625 -1.0q0.5625 -0.375 1.28125 -0.375q0.765625 0 1.28125 0.3125q0.515625 0.296875 0.7812424 0.875q0.265625 0.5625 0.265625 1.34375l0 0.75l-3.4531174 0l0 0.03125q0.015625 0.4375 0.171875 0.78125q0.171875 0.34375 0.46875 0.546875q0.3125 0.1875 0.75 0.1875q0.453125 0 0.828125 -0.125q0.375 -0.125 0.6875 -0.34375l0.42186737 0.8125q-0.34375 0.28125 -0.8593674 0.484375q-0.515625 0.1875 -1.203125 0.1875zm-1.234375 -3.484375l2.171875 0l0 -0.125q0 -0.375 -0.109375 -0.65625q-0.109375 -0.28125 -0.359375 -0.4375q-0.234375 -0.15625 -0.59375 -0.15625q-0.3125 0 -0.5625 0.1875q-0.234375 0.171875 -0.375 0.484375q-0.140625 0.296875 -0.1875 0.6875l0.015625 0.015625z" fill-rule="nonzero"/><path fill="#ffffff" d="m130.43106 62.274292c0.3937378 0.97371674 2.215042 3.7236633 2.3624573 5.842308c0.14741516 2.1186447 -0.34805298 4.9941025 -1.477951 6.8695526c-1.1298981 1.8754501 -4.298004 3.4638824 -5.3014603 4.3831406c-1.0034485 0.9192581 -0.61878204 0.9436722 -0.71925354 1.1324081c-0.1004715 0.18873596 -0.34679413 -0.46886444 0.11643219 0c0.46322632 0.46886444 2.1211472 1.3214493 2.6629333 2.8131714c0.5417938 1.4917221 0.68577576 4.262642 0.5877991 6.1371536c-0.097961426 1.8745041 -0.29170227 3.673584 -1.1755905 5.109909c-0.8838959 1.4363174 -2.5796814 2.6554184 -4.1277466 3.5080109c-1.5480576 0.85259247 -3.6128616 1.3643341 -5.160614 1.6075287c-1.5477448 0.24319458 -3.3026886 -0.12582397 -4.125862 -0.1483612c-0.8231659 -0.022529602 -0.7596283 0.012832642 -0.8131485 0.013145447c-0.053520203 3.2043457E-4 0.4303589 -0.13114166 0.49201965 -0.011260986c0.061660767 0.11987305 -0.2976532 -0.024414062 -0.12206268 0.73052216c0.17558289 0.7549362 1.1017303 2.411293 1.1755981 3.7990952c0.07386017 1.3878098 0.028793335 3.2616959 -0.7324066 4.527748c-0.7611923 1.2660522 -2.4341354 2.0945435 -3.8347778 3.068573c-1.4006424 0.97402954 -3.0704498 2.2400818 -4.5690613 2.7756119c-1.4986038 0.5355301 -3.0954895 0.7048569 -4.422577 0.43756866c-1.3270874 -0.26729584 -2.4835892 -1.2626114 -3.5399399 -2.041336c-1.0563507 -0.7787247 -2.379364 -2.2260056 -2.798149 -2.631012c-0.4187851 -0.40501404 0.14084625 0.08544159 0.28544617 0.20093536c0.14460754 0.115493774 0.5374069 0.44726562 0.5821686 0.49202728c0.04475403 0.04475403 -0.31643677 -0.2541504 -0.31362152 -0.22348022c0.002822876 0.030677795 0.88952637 -0.14678955 0.33052063 0.40751648c-0.55900574 0.55431366 -2.480774 2.090477 -3.6845398 2.9183426c-1.2037659 0.8278656 -2.3092575 1.6103439 -3.538063 2.0488434c-1.2288055 0.43850708 -2.336174 0.46103668 -3.8347778 0.5821686c-1.4986115 0.12112427 -3.6826706 0.5098648 -5.1568604 0.14459991c-1.4741974 -0.36525726 -3.0735855 -1.9468079 -3.688301 -2.336174" fill-rule="evenodd"/><path stroke="#000000" stroke-width="1.0" stroke-linejoin="round" stroke-linecap="butt" d="m130.43106 62.274292c0.3937378 0.97371674 2.215042 3.7236633 2.3624573 5.842308c0.14741516 2.1186447 -0.34805298 4.9941025 -1.477951 6.8695526c-1.1298981 1.8754501 -4.298004 3.4638824 -5.3014603 4.3831406c-1.0034485 0.9192581 -0.61878204 0.9436722 -0.71925354 1.1324081c-0.1004715 0.18873596 -0.34679413 -0.46886444 0.11643219 0c0.46322632 0.46886444 2.1211472 1.3214493 2.6629333 2.8131714c0.5417938 1.4917221 0.68577576 4.262642 0.5877991 6.1371536c-0.097961426 1.8745041 -0.29170227 3.673584 -1.1755905 5.109909c-0.8838959 1.4363174 -2.5796814 2.6554184 -4.1277466 3.5080109c-1.5480576 0.85259247 -3.6128616 1.3643341 -5.160614 1.6075287c-1.5477448 0.24319458 -3.3026886 -0.12582397 -4.125862 -0.1483612c-0.8231659 -0.022529602 -0.7596283 0.012832642 -0.8131485 0.013145447c-0.053520203 3.2043457E-4 0.4303589 -0.13114166 0.49201965 -0.011260986c0.061660767 0.11987305 -0.2976532 -0.024414062 -0.12206268 0.73052216c0.17558289 0.7549362 1.1017303 2.411293 1.1755981 3.7990952c0.07386017 1.3878098 0.028793335 3.2616959 -0.7324066 4.527748c-0.7611923 1.2660522 -2.4341354 2.0945435 -3.8347778 3.068573c-1.4006424 0.97402954 -3.0704498 2.2400818 -4.5690613 2.7756119c-1.4986038 0.5355301 -3.0954895 0.7048569 -4.422577 0.43756866c-1.3270874 -0.26729584 -2.4835892 -1.2626114 -3.5399399 -2.041336c-1.0563507 -0.7787247 -2.379364 -2.2260056 -2.798149 -2.631012c-0.4187851 -0.40501404 0.14084625 0.08544159 0.28544617 0.20093536c0.14460754 0.115493774 0.5374069 0.44726562 0.5821686 0.49202728c0.04475403 0.04475403 -0.31643677 -0.2541504 -0.31362152 -0.22348022c0.002822876 0.030677795 0.88952637 -0.14678955 0.33052063 0.40751648c-0.55900574 0.55431366 -2.480774 2.090477 -3.6845398 2.9183426c-1.2037659 0.8278656 -2.3092575 1.6103439 -3.538063 2.0488434c-1.2288055 0.43850708 -2.336174 0.46103668 -3.8347778 0.5821686c-1.4986115 0.12112427 -3.6826706 0.5098648 -5.1568604 0.14459991c-1.4741974 -0.36525726 -3.0735855 -1.9468079 -3.688301 -2.336174" fill-rule="evenodd"/><path fill="#ffffff" d="m106.57077 86.610245l25.509186 -25.999996l-14.71653 -9.650921l-27.40158 -0.7480316l-23.580048 23.165352l-0.9973755 29.808403l8.93438 11.133858l1.8608932 1.4041977z" fill-rule="evenodd"/><path fill="#ffffff" d="m12.380541 129.87268l0 0c0 -16.26413 13.184685 -29.448822 29.44882 -29.448822l0 0c7.8103104 0 15.300735 3.1026382 20.82346 8.625366c5.522724 5.5227203 8.625355 13.013145 8.625355 20.823456l0 0c0 16.26413 -13.184681 29.448822 -29.448814 29.448822l0 0c-16.264135 0 -29.44882 -13.184692 -29.44882 -29.448822z" fill-rule="evenodd"/><path stroke="#000000" stroke-width="1.0" stroke-linejoin="round" stroke-linecap="butt" d="m12.380541 129.87268l0 0c0 -16.26413 13.184685 -29.448822 29.44882 -29.448822l0 0c7.8103104 0 15.300735 3.1026382 20.82346 8.625366c5.522724 5.5227203 8.625355 13.013145 8.625355 20.823456l0 0c0 16.26413 -13.184681 29.448822 -29.448814 29.448822l0 0c-16.264135 0 -29.44882 -13.184692 -29.44882 -29.448822z" fill-rule="evenodd"/><path fill="#000000" d="m28.105145 134.05539q-0.765625 0 -1.4375 -0.1875q-0.671875 -0.203125 -1.296875 -0.640625l0 -1.75l1.015625 0l0.171875 1.125q0.265625 0.203125 0.671875 0.328125q0.40625 0.109375 0.875 0.109375q0.46875 0 0.78125 -0.125q0.3125 -0.140625 0.46875 -0.375q0.171875 -0.234375 0.171875 -0.5625q0 -0.3125 -0.140625 -0.53125q-0.140625 -0.234375 -0.484375 -0.421875q-0.34375 -0.1875 -0.921875 -0.34375q-0.84375 -0.234375 -1.421875 -0.546875q-0.5625 -0.3125 -0.859375 -0.75q-0.28125 -0.4375 -0.28125 -1.03125q0 -0.609375 0.328125 -1.078125q0.34375 -0.46875 0.921875 -0.734375q0.59375 -0.265625 1.359375 -0.28125q0.84375 0 1.484375 0.234375q0.65625 0.21875 1.109375 0.59375l0 1.625l-1.0 0l-0.1875 -1.0625q-0.21875 -0.15625 -0.5625 -0.25q-0.328125 -0.109375 -0.796875 -0.109375q-0.390625 0 -0.703125 0.125q-0.296875 0.125 -0.46875 0.375q-0.171875 0.234375 -0.171875 0.5625q0 0.28125 0.15625 0.5q0.15625 0.203125 0.5 0.390625q0.359375 0.171875 0.953125 0.34375q1.234375 0.328125 1.875 0.90625q0.640625 0.578125 0.640625 1.46875q0 0.625 -0.34375 1.109375q-0.34375 0.46875 -0.96875 0.734375q-0.609375 0.25 -1.4375 0.25zm3.431244 -0.109375l0 -0.796875l0.796875 -0.15625l0 -3.71875l-0.828125 -0.15625l0 -0.796875l2.03125 0l0.0625 0.734375q0.265625 -0.40625 0.671875 -0.625q0.421875 -0.21875 0.96875 -0.21875q0.546875 0 0.9375 0.25q0.40625 0.25 0.609375 0.75q0.25 -0.46875 0.671875 -0.734375q0.4375 -0.265625 1.0 -0.265625q0.84375 0 1.328125 0.578125q0.5 0.578125 0.5 1.75l0 2.453125l0.78125 0.15625l0 0.796875l-2.828125 0l0 -0.796875l0.734375 -0.15625l0 -2.453125q0 -0.71875 -0.25 -1.0q-0.234375 -0.296875 -0.6875 -0.296875q-0.4375 0 -0.71875 0.28125q-0.28125 0.28125 -0.359375 0.703125l0 2.765625l0.71875 0.15625l0 0.796875l-2.734375 0l0 -0.796875l0.703125 -0.15625l0 -2.453125q0 -0.6875 -0.25 -0.984375q-0.234375 -0.3125 -0.703125 -0.3125q-0.375 0 -0.640625 0.15625q-0.265625 0.15625 -0.421875 0.453125l0 3.140625l0.734375 0.15625l0 0.796875l-2.828125 0zm12.010956 0.109375q-0.859375 0 -1.34375 -0.4375q-0.484375 -0.453125 -0.484375 -1.21875q0 -0.53125 0.296875 -0.921875q0.296875 -0.40625 0.859375 -0.625q0.5625 -0.234375 1.359375 -0.234375l0.859375 0l0 -0.484375q0 -0.4375 -0.28125 -0.703125q-0.265625 -0.265625 -0.765625 -0.265625q-0.296875 0 -0.515625 0.078125q-0.21875 0.0625 -0.40625 0.1875l-0.109375 0.765625l-0.96875 0l-0.015625 -1.390625q0.421875 -0.28125 0.921875 -0.4375q0.515625 -0.15625 1.140625 -0.15625q1.078125 0 1.6875 0.5q0.625 0.5 0.625 1.4375l0 2.484375q0 0.109375 0 0.21875q0 0.109375 0.015625 0.21875l0.5625 0.078125l0 0.796875l-1.703125 0q-0.0625 -0.1875 -0.109375 -0.359375q-0.03125 -0.171875 -0.0625 -0.34375q-0.28125 0.359375 -0.6875 0.59375q-0.390625 0.21875 -0.875 0.21875zm0.296875 -1.015625q0.390625 0 0.734375 -0.1875q0.34375 -0.1875 0.515625 -0.46875l0 -0.9375l-0.875 0q-0.59375 0 -0.890625 0.28125q-0.296875 0.265625 -0.296875 0.625q0 0.328125 0.203125 0.515625q0.21875 0.171875 0.609375 0.171875zm3.7181396 0.90625l0 -0.796875l0.78125 -0.15625l0 -6.203125l-0.828125 -0.15625l0 -0.796875l2.140625 0l0 7.15625l0.78125 0.15625l0 0.796875l-2.875 0zm3.3977203 0l0 -0.796875l0.78125 -0.15625l0 -6.203125l-0.828125 -0.15625l0 -0.796875l2.140625 0l0 7.15625l0.78125 0.15625l0 0.796875l-2.875 0zm5.9966736 0.109375q-0.78125 0 -1.375 -0.359375q-0.59375 -0.359375 -0.921875 -0.984375q-0.328125 -0.625 -0.328125 -1.4375l0 -0.21875q0 -0.828125 0.3125 -1.46875q0.328125 -0.640625 0.890625 -1.0q0.5625 -0.375 1.28125 -0.375q0.765625 0 1.28125 0.3125q0.515625 0.296875 0.78125 0.875q0.265625 0.5625 0.265625 1.34375l0 0.75l-3.453125 0l0 0.03125q0.015625 0.4375 0.171875 0.78125q0.171875 0.34375 0.46875 0.546875q0.3125 0.1875 0.75 0.1875q0.453125 0 0.828125 -0.125q0.375 -0.125 0.6875 -0.34375l0.421875 0.8125q-0.34375 0.28125 -0.859375 0.484375q-0.515625 0.1875 -1.203125 0.1875zm-1.234375 -3.484375l2.171875 0l0 -0.125q0 -0.375 -0.109375 -0.65625q-0.109375 -0.28125 -0.359375 -0.4375q-0.234375 -0.15625 -0.59375 -0.15625q-0.3125 0 -0.5625 0.1875q-0.234375 0.171875 -0.375 0.484375q-0.140625 0.296875 -0.1875 0.6875l0.015625 0.015625zm4.2237244 3.375l0 -0.796875l0.78125 -0.15625l0 -3.71875l-0.8125 -0.15625l0 -0.796875l2.03125 0l0.0625 0.703125l0.015625 0.109375q0.21875 -0.4375 0.53125 -0.671875q0.328125 -0.25 0.765625 -0.25q0.15625 0 0.3125 0.03125q0.171875 0.015625 0.265625 0.046875l-0.140625 1.21875l-0.734375 -0.046875q-0.359375 -0.015625 -0.59375 0.15625q-0.234375 0.15625 -0.390625 0.4375l0 2.9375l0.78125 0.15625l0 0.796875l-2.875 0z" fill-rule="nonzero"/><path fill="#000000" d="m44.79951 146.61269l0 -0.796875l0.828125 -0.15625l0 -5.65625l-0.828125 -0.15625l0 -0.8125l0.828125 0l2.5 0q1.265625 0 1.984375 0.515625q0.71875 0.515625 0.71875 1.546875q0 0.515625 -0.296875 0.9375q-0.296875 0.40625 -0.828125 0.59375q0.46875 0.109375 0.78125 0.375q0.3125 0.25 0.46875 0.625q0.171875 0.359375 0.171875 0.8125q0 1.0625 -0.703125 1.625q-0.703125 0.546875 -1.953125 0.546875l-3.671875 0zm2.140625 -1.015625l1.53125 0q0.640625 0 0.984375 -0.296875q0.359375 -0.296875 0.359375 -0.859375q0 -0.40625 -0.140625 -0.6875q-0.125 -0.28125 -0.390625 -0.421875q-0.265625 -0.15625 -0.6875 -0.15625l-1.65625 0l0 2.421875zm0 -3.359375l1.328125 0q0.578125 0 0.90625 -0.28125q0.34375 -0.28125 0.34375 -0.796875q0 -0.5625 -0.359375 -0.828125q-0.34375 -0.28125 -1.03125 -0.28125l-1.1875 0l0 2.1875zm4.77446 4.375l0 -0.796875l0.78125 -0.15625l0 -3.71875l-0.828125 -0.15625l0 -0.796875l2.140625 0l0 4.671875l0.765625 0.15625l0 0.796875l-2.859375 0zm0.71875 -6.90625l0 -1.203125l1.375 0l0 1.203125l-1.375 0zm4.8560333 7.0q-0.71875 0 -1.125 -0.390625q-0.390625 -0.40625 -0.390625 -1.296875l0 -3.09375l-0.828125 0l0 -0.9375l0.828125 0l0 -1.375l1.3125 0l0 1.375l1.109375 0l0 0.9375l-1.109375 0l0 3.09375q0 0.359375 0.140625 0.53125q0.15625 0.15625 0.40625 0.15625q0.140625 0 0.3125 -0.015625q0.1875 -0.03125 0.296875 -0.0625l0.140625 0.921875q-0.234375 0.0625 -0.53125 0.109375q-0.296875 0.046875 -0.5625 0.046875zm4.2098083 0.015625q-0.78125 0 -1.375 -0.359375q-0.59375 -0.359375 -0.921875 -0.984375q-0.328125 -0.625 -0.328125 -1.4375l0 -0.21875q0 -0.828125 0.3125 -1.46875q0.328125 -0.640625 0.890625 -1.0q0.5625 -0.375 1.28125 -0.375q0.765625 0 1.28125 0.3125q0.515625 0.296875 0.78125 0.875q0.265625 0.5625 0.265625 1.34375l0 0.75l-3.453125 0l0 0.03125q0.015625 0.4375 0.171875 0.78125q0.171875 0.34375 0.46875 0.546875q0.3125 0.1875 0.75 0.1875q0.453125 0 0.828125 -0.125q0.375 -0.125 0.6875 -0.34375l0.421875 0.8125q-0.34375 0.28125 -0.859375 0.484375q-0.515625 0.1875 -1.203125 0.1875zm-1.234375 -3.484375l2.171875 0l0 -0.125q0 -0.375 -0.109375 -0.65625q-0.109375 -0.28125 -0.359375 -0.4375q-0.234375 -0.15625 -0.59375 -0.15625q-0.3125 0 -0.5625 0.1875q-0.234375 0.171875 -0.375 0.484375q-0.140625 0.296875 -0.1875 0.6875l0.015625 0.015625z" fill-rule="nonzero"/><path fill="#ffffff" d="m67.32483 102.69161c0.39374542 0.97371674 2.215042 3.723671 2.362465 5.8423157c0.14741516 2.118637 -0.34804535 4.9941025 -1.477951 6.869545c-1.1298981 1.8754501 -4.298008 3.46389 -5.3014603 4.383148c-1.0034523 0.9192505 -0.61878586 0.94366455 -0.71925354 1.1324005c-0.1004715 0.18873596 -0.34679794 -0.46886444 0.11643219 0c0.46322632 0.46886444 2.1211472 1.3214569 2.6629333 2.8131714c0.5417938 1.4917221 0.6857681 4.262642 0.5877991 6.137146c-0.097961426 1.8745117 -0.29170227 3.6735992 -1.1755981 5.109909c-0.88388824 1.4363251 -2.5796776 2.655426 -4.127739 3.5080261c-1.5480576 0.85258484 -3.6128654 1.3643341 -5.160614 1.6075287c-1.5477448 0.24319458 -3.3026924 -0.12582397 -4.125862 -0.1483612c-0.8231697 -0.022537231 -0.7596321 0.012832642 -0.8131523 0.013137817c-0.053520203 3.2043457E-4 0.4303627 -0.13113403 0.49202347 -0.011260986c0.061660767 0.11987305 -0.297657 -0.024414062 -0.1220665 0.7305298c0.1755867 0.7549286 1.1017303 2.4112854 1.1755981 3.7990875c0.0738678 1.3878174 0.028793335 3.2616882 -0.7324028 4.5277557c-0.76119614 1.2660522 -2.4341393 2.0945435 -3.8347778 3.068573c-1.4006386 0.97402954 -3.0704536 2.2400818 -4.5690613 2.7756042c-1.4986038 0.5355377 -3.0954895 0.7048645 -4.422577 0.43756104c-1.3270874 -0.2672882 -2.483593 -1.2626038 -3.5399399 -2.0413208c-1.0563507 -0.7787323 -2.3793678 -2.2260132 -2.798151 -2.631012c-0.4187832 -0.40501404 0.14084625 0.08543396 0.28544807 0.20092773c0.14460373 0.115493774 0.5374069 0.44726562 0.58216476 0.4920349c0.044757843 0.04475403 -0.31643295 -0.2541504 -0.3136177 -0.22348022c0.0028190613 0.030670166 0.88952637 -0.14678955 0.33052063 0.40751648c-0.5590019 0.55430603 -2.4807758 2.0904694 -3.6845436 2.918335c-1.2037678 0.8278656 -2.3092556 1.6103516 -3.538063 2.0488434c-1.2288074 0.43850708 -2.336172 0.4610443 -3.8347797 0.5821686c-1.4986057 0.12112427 -3.6826649 0.50987244 -5.1568584 0.14460754c-1.4741917 -0.3652649 -3.0735817 -1.9468079 -3.6882982 -2.3361816" fill-rule="evenodd"/><path stroke="#000000" stroke-width="1.0" stroke-linejoin="round" stroke-linecap="butt" d="m67.32483 102.69161c0.39374542 0.97371674 2.215042 3.723671 2.362465 5.8423157c0.14741516 2.118637 -0.34804535 4.9941025 -1.477951 6.869545c-1.1298981 1.8754501 -4.298008 3.46389 -5.3014603 4.383148c-1.0034523 0.9192505 -0.61878586 0.94366455 -0.71925354 1.1324005c-0.1004715 0.18873596 -0.34679794 -0.46886444 0.11643219 0c0.46322632 0.46886444 2.1211472 1.3214569 2.6629333 2.8131714c0.5417938 1.4917221 0.6857681 4.262642 0.5877991 6.137146c-0.097961426 1.8745117 -0.29170227 3.6735992 -1.1755981 5.109909c-0.88388824 1.4363251 -2.5796776 2.655426 -4.127739 3.5080261c-1.5480576 0.85258484 -3.6128654 1.3643341 -5.160614 1.6075287c-1.5477448 0.24319458 -3.3026924 -0.12582397 -4.125862 -0.1483612c-0.8231697 -0.022537231 -0.7596321 0.012832642 -0.8131523 0.013137817c-0.053520203 3.2043457E-4 0.4303627 -0.13113403 0.49202347 -0.011260986c0.061660767 0.11987305 -0.297657 -0.024414062 -0.1220665 0.7305298c0.1755867 0.7549286 1.1017303 2.4112854 1.1755981 3.7990875c0.0738678 1.3878174 0.028793335 3.2616882 -0.7324028 4.5277557c-0.76119614 1.2660522 -2.4341393 2.0945435 -3.8347778 3.068573c-1.4006386 0.97402954 -3.0704536 2.2400818 -4.5690613 2.7756042c-1.4986038 0.5355377 -3.0954895 0.7048645 -4.422577 0.43756104c-1.3270874 -0.2672882 -2.483593 -1.2626038 -3.5399399 -2.0413208c-1.0563507 -0.7787323 -2.3793678 -2.2260132 -2.798151 -2.631012c-0.4187832 -0.40501404 0.14084625 0.08543396 0.28544807 0.20092773c0.14460373 0.115493774 0.5374069 0.44726562 0.58216476 0.4920349c0.044757843 0.04475403 -0.31643295 -0.2541504 -0.3136177 -0.22348022c0.0028190613 0.030670166 0.88952637 -0.14678955 0.33052063 0.40751648c-0.5590019 0.55430603 -2.4807758 2.0904694 -3.6845436 2.918335c-1.2037678 0.8278656 -2.3092556 1.6103516 -3.538063 2.0488434c-1.2288074 0.43850708 -2.336172 0.4610443 -3.8347797 0.5821686c-1.4986057 0.12112427 -3.6826649 0.50987244 -5.1568584 0.14460754c-1.4741917 -0.3652649 -3.0735817 -1.9468079 -3.6882982 -2.3361816" fill-rule="evenodd"/><path fill="#ffffff" d="m43.463245 127.02887l25.509182 -26.0l-14.716534 -9.650917l-27.401573 -0.7480316l-20.585302 25.149605l0 28.83989l4.942258 10.118118l1.8608923 1.4042053z" fill-rule="evenodd"/><path fill="#000000" fill-opacity="0.0" d="m-45.002625 -1.7028005l233.6063 0l0 40.40945l-233.6063 0z" fill-rule="evenodd"/><path fill="#000000" d="m18.77008 24.109074q-1.8125 0 -3.109375 -0.765625q-1.28125 -0.78125 -1.96875 -2.171875q-0.671875 -1.390625 -0.671875 -3.234375l0 -0.3125q0 -1.796875 0.671875 -3.1875q0.671875 -1.390625 1.9375 -2.1875q1.265625 -0.8125 3.015625 -0.8125q1.21875 0 2.265625 0.375q1.0625 0.359375 1.828125 1.015625l0 2.84375l-1.625 0l-0.21875 -1.90625q-0.28125 -0.203125 -0.625 -0.34375q-0.328125 -0.140625 -0.734375 -0.21875q-0.390625 -0.078125 -0.875 -0.078125q-1.109375 0 -1.90625 0.5625q-0.78125 0.546875 -1.203125 1.5625q-0.40625 1.0 -0.40625 2.359375l0 0.328125q0 1.40625 0.4375 2.421875q0.4375 1.0 1.265625 1.546875q0.828125 0.546875 1.984375 0.546875q0.546875 0 1.09375 -0.125q0.546875 -0.140625 0.96875 -0.359375l0.21875 -1.71875l1.609375 0l0 2.828125q-0.703125 0.46875 -1.734375 0.75q-1.03125 0.28125 -2.21875 0.28125zm9.613861 0q-1.328125 0 -2.28125 -0.578125q-0.9375 -0.59375 -1.453125 -1.640625q-0.5 -1.0625 -0.5 -2.4375l0 -0.171875q0 -1.375 0.5 -2.421875q0.515625 -1.046875 1.453125 -1.640625q0.953125 -0.609375 2.265625 -0.609375q1.3125 0 2.25 0.609375q0.953125 0.59375 1.453125 1.640625q0.515625 1.046875 0.515625 2.421875l0 0.171875q0 1.375 -0.515625 2.4375q-0.5 1.046875 -1.4375 1.640625q-0.9375 0.578125 -2.25 0.578125zm0 -1.640625q0.703125 0 1.15625 -0.375q0.46875 -0.390625 0.6875 -1.0625q0.234375 -0.6875 0.234375 -1.578125l0 -0.171875q0 -0.890625 -0.234375 -1.5625q-0.21875 -0.671875 -0.6875 -1.0625q-0.453125 -0.390625 -1.171875 -0.390625q-0.703125 0 -1.171875 0.390625q-0.46875 0.390625 -0.703125 1.0625q-0.21875 0.671875 -0.21875 1.5625l0 0.171875q0 0.890625 0.21875 1.578125q0.234375 0.671875 0.703125 1.0625q0.46875 0.375 1.1875 0.375zm6.0062103 -2.953125l0 -1.640625l4.5 0l0 1.640625l-4.5 0zm11.593658 4.59375q-1.234375 0 -2.234375 -0.453125q-0.984375 -0.46875 -1.6875 -1.296875q-0.703125 -0.84375 -1.09375 -1.984375q-0.375 -1.140625 -0.375 -2.5l0 -0.1875q0 -1.359375 0.375 -2.5q0.390625 -1.140625 1.09375 -1.984375q0.703125 -0.84375 1.6875 -1.296875q1.0 -0.46875 2.21875 -0.46875q1.265625 0 2.265625 0.46875q1.0 0.453125 1.703125 1.296875q0.703125 0.84375 1.0625 1.984375q0.375 1.140625 0.375 2.5l0 0.1875q0 1.359375 -0.375 2.5q-0.359375 1.140625 -1.0625 1.984375q-0.703125 0.828125 -1.703125 1.296875q-1.0 0.453125 -2.25 0.453125zm0 -1.6875q1.109375 0 1.828125 -0.5625q0.734375 -0.578125 1.078125 -1.59375q0.359375 -1.03125 0.359375 -2.390625l0 -0.203125q0 -1.34375 -0.359375 -2.359375q-0.359375 -1.015625 -1.078125 -1.59375q-0.71875 -0.578125 -1.84375 -0.578125q-1.0625 0 -1.78125 0.578125q-0.71875 0.578125 -1.09375 1.59375q-0.359375 1.015625 -0.359375 2.359375l0 0.203125q0 1.34375 0.359375 2.375q0.375 1.03125 1.09375 1.609375q0.71875 0.5625 1.796875 0.5625zm9.614914 1.515625l-2.25 -7.671875l-1.078125 -0.171875l0 -1.3125l4.15625 0l0 1.3125l-1.03125 0.1875l1.03125 3.96875l0.203125 0.875l0.046875 0l0.296875 -0.875l1.921875 -5.46875l1.546875 0l1.859375 5.515625l0.3125 0.96875l0.046875 0l0.296875 -0.96875l1.109375 -4.015625l-1.09375 -0.1875l0 -1.3125l4.0625 0l0 1.3125l-1.046875 0.171875l-2.34375 7.671875l-1.875 0l-1.75 -4.9375l-0.359375 -1.203125l-0.046875 0l-0.359375 1.203125l-1.78125 4.9375l-1.875 0zm12.259689 0l0 -1.296875l1.265625 -0.265625l0 -6.03125l-1.328125 -0.25l0 -1.3125l3.296875 0l0.109375 1.328125q0.453125 -0.703125 1.125 -1.09375q0.6875 -0.40625 1.5625 -0.40625q1.40625 0 2.1875 0.875q0.796875 0.859375 0.796875 2.703125l0 4.1875l1.265625 0.265625l0 1.296875l-4.59375 0l0 -1.296875l1.1875 -0.265625l0 -4.171875q0 -1.03125 -0.421875 -1.46875q-0.40625 -0.4375 -1.21875 -0.4375q-0.625 0 -1.09375 0.28125q-0.453125 0.265625 -0.734375 0.765625l0 5.03125l1.15625 0.265625l0 1.296875l-4.5625 0zm15.427628 0.171875q-1.28125 0 -2.25 -0.578125q-0.953125 -0.578125 -1.484375 -1.59375q-0.53125 -1.03125 -0.53125 -2.34375l0 -0.359375q0 -1.34375 0.515625 -2.375q0.53125 -1.046875 1.4375 -1.640625q0.90625 -0.609375 2.078125 -0.609375q1.25 0 2.09375 0.5q0.84375 0.5 1.265625 1.421875q0.4375 0.921875 0.4375 2.203125l0 1.21875l-5.625 0l-0.015625 0.046875q0.03125 0.71875 0.296875 1.28125q0.265625 0.546875 0.765625 0.875q0.5 0.3125 1.203125 0.3125q0.75 0 1.359375 -0.203125q0.609375 -0.203125 1.125 -0.5625l0.671875 1.328125q-0.546875 0.453125 -1.390625 0.765625q-0.828125 0.3125 -1.953125 0.3125zm-2.03125 -5.65625l3.546875 0l0 -0.21875q0 -0.59375 -0.1875 -1.046875q-0.171875 -0.453125 -0.5625 -0.703125q-0.375 -0.265625 -0.96875 -0.265625q-0.515625 0 -0.90625 0.296875q-0.390625 0.28125 -0.625 0.78125q-0.234375 0.484375 -0.3125 1.109375l0.015625 0.046875zm6.8970184 5.484375l0 -1.296875l1.265625 -0.265625l0 -6.03125l-1.34375 -0.25l0 -1.3125l3.3125 0l0.109375 1.15625l0.015625 0.1875q0.359375 -0.734375 0.890625 -1.125q0.53125 -0.390625 1.234375 -0.390625q0.234375 0 0.5 0.046875q0.265625 0.046875 0.4375 0.09375l-0.234375 1.96875l-1.203125 -0.0625q-0.578125 -0.03125 -0.953125 0.234375q-0.375 0.25 -0.640625 0.71875l0 4.765625l1.28125 0.265625l0 1.296875l-4.671875 0zm11.120834 0.171875q-0.984375 0 -1.84375 -0.1875q-0.84375 -0.1875 -1.6875 -0.5625l-0.03125 -2.421875l1.53125 0l0.328125 1.328125q0.359375 0.15625 0.734375 0.25q0.390625 0.078125 0.875 0.078125q0.90625 0 1.28125 -0.3125q0.375 -0.328125 0.375 -0.796875q0 -0.453125 -0.390625 -0.78125q-0.390625 -0.328125 -1.5 -0.5625q-1.640625 -0.359375 -2.421875 -1.03125q-0.765625 -0.6875 -0.765625 -1.78125q0 -0.75 0.390625 -1.359375q0.40625 -0.609375 1.1875 -0.96875q0.78125 -0.375 1.9375 -0.375q1.03125 0 1.84375 0.21875q0.8125 0.203125 1.375 0.5625l0.046875 2.328125l-1.515625 0l-0.265625 -1.203125q-0.25 -0.1875 -0.609375 -0.28125q-0.34375 -0.109375 -0.78125 -0.109375q-0.703125 0 -1.109375 0.3125q-0.40625 0.296875 -0.40625 0.765625q0 0.265625 0.125 0.5q0.125 0.21875 0.5 0.40625q0.390625 0.171875 1.109375 0.34375q1.78125 0.40625 2.546875 1.078125q0.78125 0.671875 0.78125 1.765625q0 1.234375 -0.90625 2.015625q-0.890625 0.78125 -2.734375 0.78125zm4.706375 -0.171875l0 -1.296875l1.265625 -0.265625l0 -10.078125l-1.34375 -0.25l0 -1.3125l3.46875 0l0 5.234375q0.453125 -0.640625 1.109375 -1.0q0.65625 -0.359375 1.484375 -0.359375q1.421875 0 2.21875 0.90625q0.8125 0.90625 0.8125 2.78125l0 4.078125l1.265625 0.265625l0 1.296875l-4.59375 0l0 -1.296875l1.203125 -0.265625l0 -4.09375q0 -1.046875 -0.421875 -1.515625q-0.421875 -0.46875 -1.234375 -0.46875q-0.59375 0 -1.0625 0.265625q-0.46875 0.25 -0.78125 0.71875l0 5.09375l1.203125 0.265625l0 1.296875l-4.59375 0zm11.160736 0l0 -1.296875l1.28125 -0.265625l0 -6.03125l-1.34375 -0.25l0 -1.3125l3.46875 0l0 7.59375l1.265625 0.265625l0 1.296875l-4.671875 0zm1.203125 -11.234375l0 -1.96875l2.21875 0l0 1.96875l-2.21875 0zm4.2932587 14.75l0 -1.3125l1.234375 -0.25l0 -9.546875l-1.34375 -0.25l0 -1.3125l3.25 0l0.140625 1.078125q0.421875 -0.59375 1.03125 -0.921875q0.609375 -0.328125 1.4375 -0.328125q1.109375 0 1.90625 0.609375q0.796875 0.609375 1.21875 1.703125q0.421875 1.09375 0.421875 2.5625l0 0.171875q0 1.34375 -0.421875 2.34375q-0.421875 1.0 -1.21875 1.5625q-0.796875 0.546875 -1.90625 0.546875q-0.796875 0 -1.390625 -0.265625q-0.578125 -0.28125 -1.0 -0.8125l0 2.859375l1.296875 0.25l0 1.3125l-4.65625 0zm5.109375 -4.984375q1.046875 0 1.546875 -0.765625q0.5 -0.78125 0.5 -2.046875l0 -0.171875q0 -0.953125 -0.21875 -1.671875q-0.21875 -0.71875 -0.6875 -1.109375q-0.453125 -0.40625 -1.15625 -0.40625q-0.59375 0 -1.03125 0.265625q-0.4375 0.265625 -0.703125 0.75l0 4.203125q0.265625 0.453125 0.6875 0.703125q0.4375 0.25 1.0625 0.25z" fill-rule="nonzero"/><g filter="url(#shadowFilter-p.2)"><use xlink:href="#p.2" transform="matrix(1.0 0.0 0.0 1.0 1.0000002624671849 0.0)"/></g><defs><filter id="shadowFilter-p.2" filterUnits="userSpaceOnUse"><feGaussianBlur in="SourceAlpha" stdDeviation="2.5" result="blur"/><feComponentTransfer in="blur" color-interpolation-filters="sRGB"><feFuncR type="linear" slope="0" intercept="0.0"/><feFuncG type="linear" slope="0" intercept="0.0"/><feFuncB type="linear" slope="0" intercept="0.0"/><feFuncA type="linear" slope="0.5" intercept="0"/></feComponentTransfer></filter></defs><g id="p.2"><path fill="#ffffff" d="m-119.914696 8.000131l97.22835 0l0 101.35433l-97.22835 0z" fill-rule="evenodd"/></g><path fill="#000000" fill-opacity="0.0" d="m-120.00131 0l97.22835 0l0 33.92126l-97.22835 0z" fill-rule="evenodd"/><path fill="#000000" d="m-108.20356 20.645q-1.25 0 -2.15625 -0.53125q-0.890625 -0.546875 -1.359375 -1.5q-0.46875 -0.96875 -0.46875 -2.25l0 -0.21875q0 -1.25 0.46875 -2.203125q0.46875 -0.96875 1.34375 -1.515625q0.875 -0.5625 2.078125 -0.5625q0.859375 0 1.578125 0.25q0.734375 0.25 1.265625 0.71875l0 1.96875l-1.125 0l-0.140625 -1.328125q-0.203125 -0.140625 -0.4375 -0.234375q-0.234375 -0.109375 -0.515625 -0.15625q-0.265625 -0.046875 -0.59375 -0.046875q-0.78125 0 -1.328125 0.390625q-0.546875 0.375 -0.828125 1.078125q-0.28125 0.6875 -0.28125 1.625l0 0.234375q0 0.96875 0.296875 1.671875q0.3125 0.703125 0.875 1.078125q0.578125 0.375 1.375 0.375q0.375 0 0.75 -0.09375q0.390625 -0.09375 0.671875 -0.234375l0.15625 -1.203125l1.125 0l0 1.96875q-0.5 0.3125 -1.21875 0.515625q-0.703125 0.203125 -1.53125 0.203125zm6.6640625 0q-0.921875 0 -1.578125 -0.40625q-0.65625 -0.421875 -1.015625 -1.140625q-0.34375 -0.734375 -0.34375 -1.6875l0 -0.125q0 -0.9375 0.34375 -1.65625q0.359375 -0.734375 1.015625 -1.140625q0.65625 -0.421875 1.5625 -0.421875q0.90625 0 1.5625 0.421875q0.65625 0.40625 1.0 1.140625q0.359375 0.71875 0.359375 1.65625l0 0.125q0 0.953125 -0.359375 1.6875q-0.34375 0.71875 -1.0 1.140625q-0.640625 0.40625 -1.546875 0.40625zm0 -1.140625q0.484375 0 0.796875 -0.265625q0.328125 -0.265625 0.484375 -0.734375q0.15625 -0.46875 0.15625 -1.09375l0 -0.125q0 -0.609375 -0.15625 -1.078125q-0.15625 -0.46875 -0.484375 -0.734375q-0.3125 -0.265625 -0.8125 -0.265625q-0.484375 0 -0.8125 0.265625q-0.328125 0.265625 -0.484375 0.734375q-0.140625 0.46875 -0.140625 1.078125l0 0.125q0 0.625 0.140625 1.09375q0.15625 0.46875 0.484375 0.734375q0.328125 0.265625 0.828125 0.265625zm4.1601562 -2.046875l0 -1.140625l3.109375 0l0 1.140625l-3.109375 0zm8.025391 3.1875q-0.859375 0 -1.546875 -0.3125q-0.671875 -0.328125 -1.171875 -0.90625q-0.484375 -0.578125 -0.75 -1.375q-0.265625 -0.796875 -0.265625 -1.734375l0 -0.125q0 -0.9375 0.265625 -1.71875q0.265625 -0.796875 0.75 -1.375q0.5 -0.59375 1.171875 -0.90625q0.6875 -0.328125 1.53125 -0.328125q0.875 0 1.5625 0.328125q0.703125 0.3125 1.1875 0.90625q0.484375 0.578125 0.734375 1.375q0.265625 0.78125 0.265625 1.71875l0 0.125q0 0.9375 -0.265625 1.734375q-0.25 0.796875 -0.734375 1.375q-0.484375 0.578125 -1.1875 0.90625q-0.6875 0.3125 -1.546875 0.3125zm0 -1.171875q0.765625 0 1.265625 -0.390625q0.5 -0.40625 0.734375 -1.109375q0.25 -0.71875 0.25 -1.65625l0 -0.140625q0 -0.9375 -0.25 -1.640625q-0.234375 -0.703125 -0.734375 -1.09375q-0.5 -0.40625 -1.28125 -0.40625q-0.734375 0 -1.234375 0.40625q-0.5 0.390625 -0.75 1.09375q-0.25 0.703125 -0.25 1.640625l0 0.140625q0 0.9375 0.25 1.65625q0.25 0.703125 0.75 1.109375q0.5 0.390625 1.25 0.390625zm6.6601562 1.046875l-1.5625 -5.3125l-0.75 -0.125l0 -0.90625l2.890625 0l0 0.90625l-0.71875 0.140625l0.703125 2.75l0.15625 0.59375l0.03125 0l0.203125 -0.59375l1.328125 -3.796875l1.078125 0l1.28125 3.8125l0.21875 0.671875l0.03125 0l0.203125 -0.671875l0.765625 -2.765625l-0.765625 -0.140625l0 -0.90625l2.828125 0l0 0.90625l-0.734375 0.125l-1.625 5.3125l-1.28125 0l-1.21875 -3.421875l-0.25 -0.828125l-0.03125 0l-0.25 0.828125l-1.234375 3.421875l-1.296875 0zm8.488281 0l0 -0.90625l0.875 -0.171875l0 -4.171875l-0.921875 -0.1875l0 -0.90625l2.28125 0l0.078125 0.921875q0.3125 -0.484375 0.78125 -0.75q0.484375 -0.28125 1.078125 -0.28125q0.984375 0 1.515625 0.609375q0.546875 0.59375 0.546875 1.859375l0 2.90625l0.890625 0.171875l0 0.90625l-3.1875 0l0 -0.90625l0.828125 -0.171875l0 -2.890625q0 -0.71875 -0.296875 -1.015625q-0.28125 -0.3125 -0.84375 -0.3125q-0.4375 0 -0.765625 0.203125q-0.3125 0.1875 -0.5 0.515625l0 3.5l0.796875 0.171875l0 0.90625l-3.15625 0zm10.69141 0.125q-0.9062538 0 -1.5781288 -0.40625q-0.65625 -0.40625 -1.03125 -1.109375q-0.359375 -0.703125 -0.359375 -1.625l0 -0.25q0 -0.921875 0.359375 -1.640625q0.359375 -0.71875 0.984375 -1.125q0.640625 -0.421875 1.4531288 -0.421875q0.859375 0 1.4375 0.34375q0.59375 0.34375 0.890625 0.984375q0.296875 0.625 0.296875 1.515625l0 0.84375l-3.8906288 0l-0.015625 0.03125q0.03125 0.5 0.21875 0.890625q0.1875 0.390625 0.515625 0.609375q0.3437538 0.21875 0.8437538 0.21875q0.515625 0 0.9375 -0.140625q0.421875 -0.140625 0.78125 -0.390625l0.453125 0.921875q-0.375 0.3125 -0.953125 0.53125q-0.578125 0.21875 -1.34375 0.21875zm-1.4062538 -3.921875l2.4531288 0l0 -0.15625q0 -0.40625 -0.125 -0.71875q-0.125 -0.328125 -0.390625 -0.5q-0.265625 -0.171875 -0.6875 -0.171875q-0.3593788 0 -0.6250038 0.203125q-0.265625 0.1875 -0.4375 0.53125q-0.15625 0.34375 -0.203125 0.78125l0.015625 0.03125zm4.769535 3.796875l0 -0.90625l0.875 -0.171875l0 -4.171875l-0.921875 -0.1875l0 -0.90625l2.28125 0l0.078125 0.796875l0.015625 0.125q0.25 -0.5 0.609375 -0.765625q0.375 -0.265625 0.859375 -0.265625q0.171875 0 0.34375 0.03125q0.18750381 0.015625 0.3125038 0.0625l-0.171875 1.359375l-0.8281288 -0.046875q-0.40625 -0.015625 -0.671875 0.171875q-0.25 0.171875 -0.4375 0.484375l0 3.3125l0.890625 0.171875l0 0.90625l-3.234375 0zm7.693363 0.125q-0.671875 0 -1.265625 -0.125q-0.578125 -0.140625 -1.171875 -0.40625l-0.015625 -1.671875l1.046875 0l0.234375 0.921875q0.25 0.109375 0.515625 0.171875q0.265625 0.0625 0.59375 0.0625q0.625 0 0.890625 -0.21875q0.265625 -0.234375 0.265625 -0.5625q0 -0.3125 -0.28125 -0.53125q-0.265625 -0.234375 -1.03125 -0.390625q-1.140625 -0.25 -1.6875 -0.71875q-0.53125 -0.484375 -0.53125 -1.234375q0 -0.515625 0.28125 -0.9375q0.28125 -0.421875 0.8125 -0.671875q0.546875 -0.265625 1.34375 -0.265625q0.71875 0 1.28125 0.15625q0.5625 0.140625 0.953125 0.390625l0.03125 1.609375l-1.046875 0l-0.1875 -0.84375q-0.171875 -0.125 -0.421875 -0.1875q-0.234375 -0.078125 -0.546875 -0.078125q-0.484375 0 -0.765625 0.21875q-0.28125 0.21875 -0.28125 0.53125q0 0.1875 0.09375 0.34375q0.09375 0.15625 0.34375 0.28125q0.265625 0.125 0.765625 0.234375q1.234375 0.296875 1.765625 0.765625q0.546875 0.453125 0.546875 1.21875q0 0.84375 -0.625 1.390625q-0.625 0.546875 -1.90625 0.546875zm3.2636719 -0.125l0 -0.90625l0.875 -0.171875l0 -6.984375l-0.921875 -0.171875l0 -0.90625l2.390625 0l0 3.625q0.3125 -0.453125 0.765625 -0.6875q0.46875 -0.25 1.046875 -0.25q0.96875 0 1.53125 0.625q0.5625 0.625 0.5625 1.921875l0 2.828125l0.875 0.171875l0 0.90625l-3.1875 0l0 -0.90625l0.84375 -0.171875l0 -2.84375q0 -0.71875 -0.296875 -1.046875q-0.296875 -0.328125 -0.859375 -0.328125q-0.40625 0 -0.734375 0.1875q-0.328125 0.171875 -0.546875 0.5l0 3.53125l0.84375 0.171875l0 0.90625l-3.1875 0zm7.7421875 0l0 -0.90625l0.875 -0.171875l0 -4.171875l-0.9375 -0.1875l0 -0.90625l2.40625 0l0 5.265625l0.875 0.171875l0 0.90625l-3.21875 0zm0.8125 -7.78125l0 -1.359375l1.53125 0l0 1.359375l-1.53125 0zm2.9746094 10.21875l0 -0.90625l0.859375 -0.171875l0 -6.609375l-0.9375 -0.1875l0 -0.90625l2.265625 0l0.09375 0.75q0.28125 -0.40625 0.703125 -0.625q0.421875 -0.234375 1.0 -0.234375q0.78125 0 1.328125 0.421875q0.546875 0.421875 0.828125 1.171875q0.296875 0.75 0.296875 1.765625l0 0.125q0 0.921875 -0.296875 1.625q-0.28125 0.6875 -0.828125 1.078125q-0.546875 0.390625 -1.328125 0.390625q-0.546875 0 -0.953125 -0.1875q-0.40625 -0.203125 -0.703125 -0.5625l0 1.984375l0.90625 0.171875l0 0.90625l-3.234375 0zm3.546875 -3.453125q0.71875 0 1.0625 -0.53125q0.359375 -0.546875 0.359375 -1.421875l0 -0.125q0 -0.65625 -0.15625 -1.140625q-0.15625 -0.5 -0.484375 -0.78125q-0.3125 -0.28125 -0.796875 -0.28125q-0.40625 0 -0.71875 0.1875q-0.296875 0.1875 -0.484375 0.515625l0 2.90625q0.1875 0.328125 0.484375 0.5q0.296875 0.171875 0.734375 0.171875z" fill-rule="nonzero"/><path fill="#ffffff" d="m7.3057194 66.73921l0 0c0 -20.699802 16.780508 -37.480312 37.480316 -37.480312l0 0c9.940399 0 19.473663 3.9488068 26.502586 10.97773c7.028923 7.028923 10.97773 16.562187 10.97773 26.502583l0 0c0 20.699806 -16.78051 37.480316 -37.480316 37.480316l0 0c-20.699806 0 -37.480316 -16.78051 -37.480316 -37.480316z" fill-rule="evenodd"/><path stroke="#000000" stroke-width="1.0" stroke-linejoin="round" stroke-linecap="butt" d="m7.3057194 66.73921l0 0c0 -20.699802 16.780508 -37.480312 37.480316 -37.480312l0 0c9.940399 0 19.473663 3.9488068 26.502586 10.97773c7.028923 7.028923 10.97773 16.562187 10.97773 26.502583l0 0c0 20.699806 -16.78051 37.480316 -37.480316 37.480316l0 0c-20.699806 0 -37.480316 -16.78051 -37.480316 -37.480316z" fill-rule="evenodd"/><path fill="#000000" d="m23.953653 69.8088q-1.0625 0 -1.984375 -0.265625q-0.90625 -0.265625 -1.78125 -0.890625l0 -2.390625l1.390625 0l0.234375 1.546875q0.375 0.28125 0.921875 0.453125q0.5625 0.15625 1.21875 0.15625q0.640625 0 1.0625 -0.1875q0.4375 -0.1875 0.65625 -0.515625q0.234375 -0.328125 0.234375 -0.78125q0 -0.40625 -0.203125 -0.71875q-0.1875 -0.328125 -0.65625 -0.578125q-0.46875 -0.265625 -1.265625 -0.484375q-1.15625 -0.3125 -1.9375 -0.734375q-0.78125 -0.4375 -1.1875 -1.03125q-0.390625 -0.609375 -0.390625 -1.421875q0 -0.828125 0.453125 -1.46875q0.453125 -0.65625 1.25 -1.03125q0.8125 -0.375 1.875 -0.375q1.15625 -0.015625 2.046875 0.296875q0.890625 0.3125 1.515625 0.828125l0 2.234375l-1.375 0l-0.25 -1.453125q-0.296875 -0.203125 -0.765625 -0.34375q-0.46875 -0.15625 -1.109375 -0.15625q-0.546875 0 -0.96875 0.1875q-0.40625 0.171875 -0.640625 0.5q-0.234375 0.3125 -0.234375 0.765625q0 0.390625 0.203125 0.6875q0.21875 0.296875 0.703125 0.546875q0.484375 0.234375 1.3125 0.46875q1.703125 0.453125 2.5625 1.25q0.875 0.796875 0.875 2.015625q0 0.875 -0.46875 1.53125q-0.46875 0.640625 -1.3125 1.0q-0.84375 0.359375 -1.984375 0.359375zm4.7242126 -0.15625l0 -1.109375l1.078125 -0.203125l0 -5.109375l-1.140625 -0.21875l0 -1.109375l2.796875 0l0.078125 1.015625q0.390625 -0.546875 0.9531269 -0.84375q0.5625 -0.3125 1.328125 -0.3125q0.75 0 1.28125 0.34375q0.546875 0.34375 0.828125 1.03125q0.359375 -0.640625 0.9375 -1.0q0.59375 -0.375 1.375 -0.375q1.171875 0 1.828125 0.796875q0.671875 0.796875 0.671875 2.40625l0 3.375l1.09375 0.203125l0 1.109375l-3.90625 0l0 -1.109375l1.015625 -0.203125l0 -3.375q0 -0.984375 -0.328125 -1.375q-0.328125 -0.40625 -0.96875 -0.40625q-0.59375 0 -0.984375 0.390625q-0.375 0.375 -0.484375 0.96875l0 3.796875l0.96875 0.203125l0 1.109375l-3.75 0l0 -1.109375l0.984375 -0.203125l0 -3.375q0 -0.953125 -0.34375 -1.359375q-0.328125 -0.421875 -0.96875 -0.421875q-0.53125 0 -0.890625 0.21875q-0.3593769 0.21875 -0.5781269 0.609375l0 4.328125l1.0156269 0.203125l0 1.109375l-3.890627 0zm16.507051 0.15625q-1.1875 0 -1.84375 -0.609375q-0.65625 -0.609375 -0.65625 -1.671875q0 -0.734375 0.390625 -1.28125q0.40625 -0.5625 1.171875 -0.875q0.78125 -0.3125 1.890625 -0.3125l1.171875 0l0 -0.640625q0 -0.625 -0.375 -0.984375q-0.359375 -0.359375 -1.0625 -0.359375q-0.40625 0 -0.71875 0.09375q-0.296875 0.09375 -0.546875 0.265625l-0.15625 1.046875l-1.328125 0l-0.015625 -1.90625q0.578125 -0.375 1.28125 -0.59375q0.703125 -0.21875 1.5625 -0.21875q1.46875 0 2.3125 0.703125q0.859375 0.6875 0.859375 1.96875l0 3.421875q0 0.15625 0 0.3125q0 0.140625 0.015625 0.28125l0.78125 0.09375l0 1.109375l-2.34375 0q-0.078125 -0.25 -0.140625 -0.484375q-0.0625 -0.234375 -0.09375 -0.46875q-0.375 0.484375 -0.921875 0.796875q-0.546875 0.3125 -1.234375 0.3125zm0.40625 -1.40625q0.546875 0 1.015625 -0.25q0.46875 -0.25 0.703125 -0.640625l0 -1.296875l-1.203125 0q-0.8125 0 -1.21875 0.375q-0.40625 0.375 -0.40625 0.875q0 0.453125 0.28125 0.703125q0.28125 0.234375 0.828125 0.234375zm5.1243896 1.25l0 -1.109375l1.078125 -0.203125l0 -8.53125l-1.140625 -0.21875l0 -1.09375l2.9375 0l0 9.84375l1.078125 0.203125l0 1.109375l-3.953125 0zm4.673111 0l0 -1.109375l1.078125 -0.203125l0 -8.53125l-1.140625 -0.21875l0 -1.09375l2.9375 0l0 9.84375l1.078125 0.203125l0 1.109375l-3.953125 0zm8.248627 0.15625q-1.09375 0 -1.90625 -0.484375q-0.8125 -0.5 -1.265625 -1.359375q-0.4375 -0.875 -0.4375 -1.984375l0 -0.3125q0 -1.125 0.4375 -2.0q0.4375 -0.890625 1.203125 -1.390625q0.78125 -0.515625 1.78125 -0.515625q1.0468712 0 1.7499962 0.421875q0.71875 0.421875 1.078125 1.203125q0.375 0.78125 0.375 1.859375l0 1.03125l-4.749996 0l-0.015625 0.046875q0.03125 0.59375 0.25 1.078125q0.21875 0.46875 0.640625 0.75q0.421875 0.265625 1.015625 0.265625q0.6406212 0 1.1562462 -0.171875q0.515625 -0.171875 0.953125 -0.484375l0.5625 1.125q-0.46875 0.390625 -1.171875 0.65625q-0.703125 0.265625 -1.6562462 0.265625zm-1.71875 -4.796875l2.9999962 0l0 -0.1875q0 -0.5 -0.15625 -0.875q-0.140625 -0.390625 -0.46875 -0.609375q-0.3281212 -0.21875 -0.8281212 -0.21875q-0.4375 0 -0.765625 0.25q-0.328125 0.234375 -0.53125 0.65625q-0.1875 0.421875 -0.265625 0.953125l0.015625 0.03125zm5.8291893 4.640625l0 -1.109375l1.078125 -0.203125l0 -5.109375l-1.125 -0.21875l0 -1.109375l2.78125 0l0.09375 0.984375l0.015625 0.15625q0.3125 -0.625 0.75 -0.953125q0.453125 -0.328125 1.046875 -0.328125q0.203125 0 0.421875 0.046875q0.234375 0.03125 0.375 0.078125l-0.203125 1.65625l-1.015625 -0.046875q-0.484375 -0.03125 -0.8125 0.1875q-0.3125 0.21875 -0.53125 0.609375l0 4.046875l1.078125 0.203125l0 1.109375l-3.953125 0z" fill-rule="nonzero"/><path fill="#000000" d="m46.907787 87.31922l0 -1.109375l1.140625 -0.203125l0 -7.78125l-1.140625 -0.21875l0 -1.109375l1.140625 0l3.4375 0q1.75 0 2.734375 0.71875q0.984375 0.703125 0.984375 2.125q0 0.703125 -0.40625 1.265625q-0.40625 0.5625 -1.125 0.84375q0.625 0.125 1.046875 0.484375q0.4375 0.359375 0.65625 0.875q0.234375 0.515625 0.234375 1.125q0 1.453125 -0.96875 2.21875q-0.953125 0.765625 -2.671875 0.765625l-5.0625 0zm2.9375 -1.390625l2.125 0q0.875 0 1.34375 -0.40625q0.484375 -0.421875 0.484375 -1.1875q0 -0.5625 -0.1875 -0.9375q-0.171875 -0.390625 -0.53125 -0.59375q-0.359375 -0.21875 -0.9375 -0.21875l-2.296875 0l0 3.34375zm0 -4.640625l1.84375 0q0.796875 0 1.25 -0.375q0.46875 -0.390625 0.46875 -1.09375q0 -0.765625 -0.5 -1.140625q-0.484375 -0.390625 -1.421875 -0.390625l-1.640625 0l0 3.0zm6.5693817 6.03125l0 -1.109375l1.078125 -0.203125l0 -5.109375l-1.140625 -0.21875l0 -1.109375l2.953125 0l0 6.4375l1.0625 0.203125l0 1.109375l-3.953125 0zm1.0 -9.5l0 -1.65625l1.875 0l0 1.65625l-1.875 0zm6.6861076 9.640625q-0.9999962 0 -1.5468712 -0.546875q-0.546875 -0.5625 -0.546875 -1.78125l0 -4.265625l-1.140625 0l0 -1.296875l1.140625 0l0 -1.875l1.796875 0l0 1.875l1.5312462 0l0 1.296875l-1.5312462 0l0 4.265625q0 0.484375 0.20312119 0.71875q0.203125 0.21875 0.546875 0.21875q0.203125 0 0.453125 -0.03125q0.25 -0.03125 0.390625 -0.078125l0.1875 1.28125q-0.3125 0.078125 -0.71875 0.140625q-0.40625 0.078125 -0.765625 0.078125zm5.784027 0.015625q-1.09375 0 -1.90625 -0.484375q-0.8125 -0.5 -1.265625 -1.359375q-0.4375 -0.875 -0.4375 -1.984375l0 -0.3125q0 -1.125 0.4375 -2.0q0.4375 -0.890625 1.203125 -1.390625q0.78125 -0.515625 1.78125 -0.515625q1.046875 0 1.75 0.421875q0.71875 0.421875 1.078125 1.203125q0.375 0.78125 0.375 1.859375l0 1.03125l-4.75 0l-0.015625 0.046875q0.03125 0.59375 0.25 1.078125q0.21875 0.46875 0.640625 0.75q0.421875 0.265625 1.015625 0.265625q0.640625 0 1.15625 -0.171875q0.515625 -0.171875 0.953125 -0.484375l0.5625 1.125q-0.46875 0.390625 -1.171875 0.65625q-0.703125 0.265625 -1.65625 0.265625zm-1.71875 -4.796875l3.0 0l0 -0.1875q0 -0.5 -0.15625 -0.875q-0.140625 -0.390625 -0.46875 -0.609375q-0.328125 -0.21875 -0.828125 -0.21875q-0.4375 0 -0.765625 0.25q-0.328125 0.234375 -0.53125 0.65625q-0.1875 0.421875 -0.265625 0.953125l0.015625 0.03125z" fill-rule="nonzero"/><path fill="#ffffff" d="m70.66862 39.945534c0.39374542 0.97372055 2.2150497 3.7236671 2.362465 5.842312c0.14742279 2.1186447 -0.34804535 4.9941025 -1.477951 6.8695526c-1.1298981 1.8754463 -4.298004 3.4638824 -5.3014603 4.3831406c-1.0034485 0.9192581 -0.61878204 0.9436722 -0.71925354 1.1324043c-0.1004715 0.18873596 -0.34679413 -0.46886063 0.11643219 0c0.46322632 0.46886444 2.1211472 1.3214531 2.662941 2.8131752c0.5417862 1.4917183 0.6857605 4.262638 0.5877991 6.13715c-0.097969055 1.8745117 -0.2917099 3.673584 -1.1755981 5.109909c-0.8838959 1.4363174 -2.5796814 2.655426 -4.127743 3.5080185c-1.5480614 0.85258484 -3.6128693 1.3643265 -5.160614 1.607521c-1.5477486 0.24319458 -3.3026924 -0.12581635 -4.125862 -0.14835358c-0.8231697 -0.022537231 -0.7596321 0.012832642 -0.8131561 0.013145447c-0.053520203 3.1280518E-4 0.43036652 -0.13114166 0.49202347 -0.011268616c0.061660767 0.11987305 -0.2976532 -0.024414062 -0.1220665 0.73052216c0.17559052 0.7549362 1.1017342 2.411293 1.1755981 3.7991028c0.0738678 1.3878021 0.02879715 3.2616882 -0.732399 4.5277405c-0.76119614 1.2660522 -2.4341393 2.0945435 -3.8347816 3.068573c-1.4006386 0.9740372 -3.0704498 2.2400894 -4.5690575 2.7756195c-1.4986076 0.53552246 -3.0954933 0.7048569 -4.4225807 0.43756104c-1.3270836 -0.26729584 -2.4835892 -1.2626114 -3.5399399 -2.041336c-1.0563469 -0.7787247 -2.379364 -2.225998 -2.798149 -2.631012c-0.4187851 -0.40501404 0.14084625 0.08544922 0.28544998 0.200943c0.14459991 0.115493774 0.5374069 0.44726562 0.58216476 0.49201965c0.044757843 0.044761658 -0.31643677 -0.2541504 -0.3136177 -0.2234726c0.0028152466 0.030670166 0.88952255 -0.14679718 0.33052063 0.40751648c-0.55900574 0.55430603 -2.4807777 2.0904694 -3.6845436 2.918335c-1.2037697 0.8278656 -2.3092575 1.6103439 -3.538065 2.048851c-1.2288074 0.43849945 -2.336172 0.46103668 -3.8347797 0.58216095c-1.4986057 0.1211319 -3.6826649 0.5098648 -5.1568584 0.14459991c-1.4741917 -0.36525726 -3.0735817 -1.9468079 -3.6882992 -2.3361664" fill-rule="evenodd"/><path stroke="#000000" stroke-width="1.0" stroke-linejoin="round" stroke-linecap="butt" d="m70.66862 39.945534c0.39374542 0.97372055 2.2150497 3.7236671 2.362465 5.842312c0.14742279 2.1186447 -0.34804535 4.9941025 -1.477951 6.8695526c-1.1298981 1.8754463 -4.298004 3.4638824 -5.3014603 4.3831406c-1.0034485 0.9192581 -0.61878204 0.9436722 -0.71925354 1.1324043c-0.1004715 0.18873596 -0.34679413 -0.46886063 0.11643219 0c0.46322632 0.46886444 2.1211472 1.3214531 2.662941 2.8131752c0.5417862 1.4917183 0.6857605 4.262638 0.5877991 6.13715c-0.097969055 1.8745117 -0.2917099 3.673584 -1.1755981 5.109909c-0.8838959 1.4363174 -2.5796814 2.655426 -4.127743 3.5080185c-1.5480614 0.85258484 -3.6128693 1.3643265 -5.160614 1.607521c-1.5477486 0.24319458 -3.3026924 -0.12581635 -4.125862 -0.14835358c-0.8231697 -0.022537231 -0.7596321 0.012832642 -0.8131561 0.013145447c-0.053520203 3.1280518E-4 0.43036652 -0.13114166 0.49202347 -0.011268616c0.061660767 0.11987305 -0.2976532 -0.024414062 -0.1220665 0.73052216c0.17559052 0.7549362 1.1017342 2.411293 1.1755981 3.7991028c0.0738678 1.3878021 0.02879715 3.2616882 -0.732399 4.5277405c-0.76119614 1.2660522 -2.4341393 2.0945435 -3.8347816 3.068573c-1.4006386 0.9740372 -3.0704498 2.2400894 -4.5690575 2.7756195c-1.4986076 0.53552246 -3.0954933 0.7048569 -4.4225807 0.43756104c-1.3270836 -0.26729584 -2.4835892 -1.2626114 -3.5399399 -2.041336c-1.0563469 -0.7787247 -2.379364 -2.225998 -2.798149 -2.631012c-0.4187851 -0.40501404 0.14084625 0.08544922 0.28544998 0.200943c0.14459991 0.115493774 0.5374069 0.44726562 0.58216476 0.49201965c0.044757843 0.044761658 -0.31643677 -0.2541504 -0.3136177 -0.2234726c0.0028152466 0.030670166 0.88952255 -0.14679718 0.33052063 0.40751648c-0.55900574 0.55430603 -2.4807777 2.0904694 -3.6845436 2.918335c-1.2037697 0.8278656 -2.3092575 1.6103439 -3.538065 2.048851c-1.2288074 0.43849945 -2.336172 0.46103668 -3.8347797 0.58216095c-1.4986057 0.1211319 -3.6826649 0.5098648 -5.1568584 0.14459991c-1.4741917 -0.36525726 -3.0735817 -1.9468079 -3.6882992 -2.3361664" fill-rule="evenodd"/><path fill="#ffffff" d="m45.97239 64.281494l25.509186 -26.000004l-14.716537 -9.650919l-27.401573 -0.7480316l-23.580051 23.165354l-0.997375 29.8084l8.934383 11.133858l1.8608923 1.4041977z" fill-rule="evenodd"/></g></svg>