<svg version="1.1" viewBox="0.0 0.0 394.6771653543307 396.9737532808399" fill="none" stroke="none" stroke-linecap="square" stroke-miterlimit="10" xmlns:xlink="http://www.w3.org/1999/xlink" xmlns="http://www.w3.org/2000/svg"><clipPath id="p.0"><path d="m0 0l394.67715 0l0 396.97375l-394.67715 0l0 -396.97375z" clip-rule="nonzero"/></clipPath><g clip-path="url(#p.0)"><path fill="#000000" fill-opacity="0.0" d="m0 0l394.67715 0l0 396.97375l-394.67715 0z" fill-rule="evenodd"/><g filter="url(#shadowFilter-p.1)"><use xlink:href="#p.1" transform=""/></g><defs><filter id="shadowFilter-p.1" filterUnits="userSpaceOnUse"><feGaussianBlur in="SourceAlpha" stdDeviation="5.0" result="blur"/><feComponentTransfer in="blur" color-interpolation-filters="sRGB"><feFuncR type="linear" slope="0" intercept="0.0"/><feFuncG type="linear" slope="0" intercept="0.0"/><feFuncB type="linear" slope="0" intercept="0.0"/><feFuncA type="linear" slope="0.5" intercept="0"/></feComponentTransfer></filter></defs><g id="p.1"><path fill="#d9ead3" d="m10.35958 198.48557l0 0c0 -104.31659 84.5653 -188.8819 188.8819 -188.8819l0 0c50.09459 0 98.137436 19.899998 133.55968 55.32222c35.42221 35.422226 55.322205 83.46508 55.322205 133.55966l0 0c0 104.31659 -84.56531 188.8819 -188.88188 188.8819l0 0c-104.31659 0 -188.8819 -84.56531 -188.8819 -188.8819z" fill-rule="evenodd"/><path stroke="#000000" stroke-width="1.0" stroke-linejoin="round" stroke-linecap="butt" d="m10.35958 198.48557l0 0c0 -104.31659 84.5653 -188.8819 188.8819 -188.8819l0 0c50.09459 0 98.137436 19.899998 133.55968 55.32222c35.42221 35.422226 55.322205 83.46508 55.322205 133.55966l0 0c0 104.31659 -84.56531 188.8819 -188.88188 188.8819l0 0c-104.31659 0 -188.8819 -84.56531 -188.8819 -188.8819z" fill-rule="evenodd"/><path fill="#000000" d="m121.74746 94.726524l2.78125 0.703125q-0.875 3.421875 -3.140625 5.21875q-2.265625 1.796875 -5.546875 1.796875q-3.390625 0 -5.515625 -1.375q-2.125 -1.390625 -3.25 -4.0q-1.109375 -2.625 -1.109375 -5.640625q0 -3.28125 1.25 -5.71875q1.265625 -2.4375 3.578125 -3.703125q2.3125 -1.28125 5.09375 -1.28125q3.140625 0 5.28125 1.609375q2.15625 1.609375 3.0 4.515625l-2.734375 0.640625q-0.71875 -2.296875 -2.109375 -3.328125q-1.390625 -1.046875 -3.5 -1.046875q-2.421875 0 -4.046875 1.15625q-1.625 1.15625 -2.28125 3.109375q-0.65625 1.953125 -0.65625 4.03125q0 2.6875 0.78125 4.6875q0.78125 1.984375 2.421875 2.984375q1.640625 0.984375 3.5625 0.984375q2.34375 0 3.953125 -1.34375q1.625 -1.359375 2.1875 -4.0zm4.914215 -0.25q0 -4.21875 2.3593674 -6.25q1.953125 -1.6875 4.78125 -1.6875q3.125 0 5.109375 2.0625q2.0 2.046875 2.0 5.671875q0 2.921875 -0.875 4.609375q-0.875 1.6875 -2.5625 2.625q-1.6875 0.921875 -3.671875 0.921875q-3.203125 0 -5.171875 -2.046875q-1.9687424 -2.046875 -1.9687424 -5.90625zm2.6562424 0q0 2.921875 1.265625 4.375q1.28125 1.453125 3.21875 1.453125q1.921875 0 3.1875 -1.453125q1.28125 -1.46875 1.28125 -4.453125q0 -2.828125 -1.28125 -4.28125q-1.28125 -1.453125 -3.1875 -1.453125q-1.9375 0 -3.21875 1.453125q-1.265625 1.4375 -1.265625 4.359375zm13.623413 1.3125l0 -2.59375l7.90625 0l0 2.59375l-7.90625 0zm10.25087 -3.921875q0 -5.234375 2.796875 -8.1875q2.8125 -2.953125 7.25 -2.953125q2.90625 0 5.234375 1.390625q2.34375 1.375 3.5625 3.859375q1.234375 2.484375 1.234375 5.640625q0 3.1875 -1.296875 5.71875q-1.28125 2.515625 -3.65625 3.8125q-2.359375 1.296875 -5.09375 1.296875q-2.96875 0 -5.296875 -1.421875q-2.328125 -1.4375 -3.53125 -3.90625q-1.203125 -2.484375 -1.203125 -5.25zm2.859375 0.03125q0 3.796875 2.03125 5.984375q2.046875 2.1875 5.125 2.1875q3.140625 0 5.15625 -2.203125q2.03125 -2.21875 2.03125 -6.265625q0 -2.5625 -0.875 -4.46875q-0.859375 -1.921875 -2.53125 -2.96875q-1.65625 -1.046875 -3.734375 -1.046875q-2.953125 0 -5.078125 2.03125q-2.125 2.015625 -2.125 6.75zm23.265488 10.1875l-4.65625 -15.203125l2.671875 0l2.421875 8.765625l0.90625 3.265625q0.046875 -0.234375 0.78125 -3.125l2.421875 -8.90625l2.640625 0l2.28125 8.8125l0.765625 2.90625l0.875 -2.9375l2.59375 -8.78125l2.515625 0l-4.75 15.203125l-2.6875 0l-2.421875 -9.109375l-0.578125 -2.59375l-3.078125 11.703125l-2.703125 0zm18.382965 0l0 -15.203125l2.3125 0l0 2.15625q1.671875 -2.5 4.84375 -2.5q1.375 0 2.53125 0.5q1.15625 0.484375 1.71875 1.296875q0.578125 0.796875 0.8125 1.890625q0.140625 0.71875 0.140625 2.515625l0 9.34375l-2.578125 0l0 -9.25q0 -1.578125 -0.3125 -2.359375q-0.296875 -0.78125 -1.0625 -1.234375q-0.765625 -0.46875 -1.796875 -0.46875q-1.640625 0 -2.84375 1.046875q-1.1875 1.03125 -1.1875 3.953125l0 8.3125l-2.578125 0zm26.717163 -4.890625l2.65625 0.328125q-0.625 2.328125 -2.328125 3.625q-1.703125 1.28125 -4.359375 1.28125q-3.328125 0 -5.28125 -2.046875q-1.953125 -2.0625 -1.953125 -5.765625q0 -3.84375 1.96875 -5.953125q1.984375 -2.125 5.125 -2.125q3.0625 0 4.984375 2.078125q1.9375 2.0625 1.9375 5.84375q0 0.21875 -0.015625 0.671875l-11.34375 0q0.140625 2.515625 1.421875 3.84375q1.28125 1.328125 3.171875 1.328125q1.421875 0 2.421875 -0.734375q1.0 -0.75 1.59375 -2.375zm-8.46875 -4.171875l8.5 0q-0.171875 -1.921875 -0.96875 -2.875q-1.234375 -1.5 -3.203125 -1.5q-1.765625 0 -2.984375 1.1875q-1.203125 1.1875 -1.34375 3.1875zm14.342163 9.0625l0 -15.203125l2.3125 0l0 2.296875q0.890625 -1.609375 1.640625 -2.125q0.75 -0.515625 1.65625 -0.515625q1.3125 0 2.65625 0.828125l-0.890625 2.390625q-0.953125 -0.5625 -1.890625 -0.5625q-0.84375 0 -1.515625 0.515625q-0.671875 0.5 -0.96875 1.40625q-0.421875 1.375 -0.421875 3.0l0 7.96875l-2.578125 0zm8.76651 -4.546875l2.546875 -0.390625q0.21875 1.53125 1.1875 2.34375q0.984375 0.8125 2.75 0.8125q1.78125 0 2.640625 -0.71875q0.859375 -0.71875 0.859375 -1.703125q0 -0.859375 -0.765625 -1.375q-0.53125 -0.34375 -2.640625 -0.859375q-2.828125 -0.71875 -3.921875 -1.234375q-1.09375 -0.53125 -1.671875 -1.453125q-0.5625 -0.921875 -0.5625 -2.046875q0 -1.015625 0.46875 -1.875q0.46875 -0.875 1.265625 -1.453125q0.609375 -0.4375 1.640625 -0.734375q1.046875 -0.3125 2.234375 -0.3125q1.78125 0 3.125 0.515625q1.359375 0.515625 2.0 1.390625q0.65625 0.875 0.890625 2.359375l-2.515625 0.34375q-0.171875 -1.171875 -1.0 -1.828125q-0.8125 -0.671875 -2.3125 -0.671875q-1.78125 0 -2.546875 0.59375q-0.75 0.578125 -0.75 1.375q0 0.5 0.3125 0.90625q0.3125 0.40625 0.984375 0.6875q0.390625 0.140625 2.28125 0.65625q2.734375 0.734375 3.8125 1.203125q1.078125 0.453125 1.6875 1.34375q0.625 0.890625 0.625 2.203125q0 1.296875 -0.75 2.4375q-0.75 1.125 -2.171875 1.75q-1.421875 0.625 -3.203125 0.625q-2.96875 0 -4.53125 -1.234375q-1.546875 -1.234375 -1.96875 -3.65625zm15.6953125 4.546875l0 -21.0l2.5781097 0l0 7.53125q1.796875 -2.078125 4.546875 -2.078125q1.6875 0 2.9375 0.671875q1.25 0.65625 1.78125 1.828125q0.546875 1.171875 0.546875 3.40625l0 9.640625l-2.578125 0l0 -9.640625q0 -1.9375 -0.84375 -2.8125q-0.84375 -0.875 -2.375 -0.875q-1.140625 0 -2.15625 0.59375q-1.0 0.59375 -1.4375 1.609375q-0.421875 1.015625 -0.421875 2.8125l0 8.3125l-2.5781097 0zm16.326523 -18.03125l0 -2.96875l2.578125 0l0 2.96875l-2.578125 0zm0 18.03125l0 -15.203125l2.578125 0l0 15.203125l-2.578125 0zm6.5001526 5.828125l0 -21.03125l2.34375 0l0 1.96875q0.828125 -1.15625 1.875 -1.734375q1.046875 -0.578125 2.53125 -0.578125q1.953125 0 3.4375 1.0q1.5 1.0 2.25 2.828125q0.765625 1.828125 0.765625 4.0q0 2.328125 -0.84375 4.203125q-0.828125 1.875 -2.4375 2.875q-1.59375 0.984375 -3.359375 0.984375q-1.28125 0 -2.3125 -0.546875q-1.015625 -0.546875 -1.671875 -1.375l0 7.40625l-2.578125 0zm2.328125 -13.34375q0 2.9375 1.1875 4.34375q1.1875 1.390625 2.875 1.390625q1.71875 0 2.9375 -1.453125q1.234375 -1.453125 1.234375 -4.5q0 -2.90625 -1.203125 -4.34375q-1.1875 -1.453125 -2.84375 -1.453125q-1.65625 0 -2.921875 1.546875q-1.265625 1.53125 -1.265625 4.46875z" fill-rule="nonzero"/></g><path fill="#b6d7a8" d="m73.73741 280.66705l0 0c0 -17.86444 14.482002 -32.34645 32.34646 -32.34645l0 0c8.578812 0 16.80626 3.4079285 22.872398 9.474075c6.0661316 6.0661316 9.47406 14.293579 9.47406 22.872375l0 0c0 17.864471 -14.48201 32.346466 -32.34646 32.346466l0 0c-17.864456 0 -32.34646 -14.481995 -32.34646 -32.346466z" fill-rule="evenodd"/><path stroke="#000000" stroke-width="1.0" stroke-linejoin="round" stroke-linecap="butt" d="m73.73741 280.66705l0 0c0 -17.86444 14.482002 -32.34645 32.34646 -32.34645l0 0c8.578812 0 16.80626 3.4079285 22.872398 9.474075c6.0661316 6.0661316 9.47406 14.293579 9.47406 22.872375l0 0c0 17.864471 -14.48201 32.346466 -32.34646 32.346466l0 0c-17.864456 0 -32.34646 -14.481995 -32.34646 -32.346466z" fill-rule="evenodd"/><path fill="#ffffff" d="m106.508484 284.30582q0 -0.328125 0 -0.5q0 -0.96875 0.265625 -1.671875q0.203125 -0.515625 0.640625 -1.0625q0.328125 -0.390625 1.171875 -1.140625q0.859375 -0.75 1.109375 -1.1875q0.265625 -0.453125 0.265625 -0.984375q0 -0.953125 -0.75 -1.671875q-0.734375 -0.734375 -1.828125 -0.734375q-1.046875 0 -1.75 0.65625q-0.703125 0.65625 -0.921875 2.046875l-1.6875 -0.203125q0.234375 -1.859375 1.359375 -2.84375q1.125 -1.0 2.96875 -1.0q1.96875 0 3.125 1.0625q1.171875 1.0625 1.171875 2.578125q0 0.875 -0.40625 1.609375q-0.40625 0.734375 -1.609375 1.796875q-0.796875 0.703125 -1.046875 1.046875q-0.25 0.34375 -0.375 0.78125q-0.109375 0.4375 -0.125 1.421875l-1.578125 0zm-0.09375 3.28125l0 -1.875l1.859375 0l0 1.875l-1.859375 0z" fill-rule="nonzero"/><defs><linearGradient id="p.2" gradientUnits="userSpaceOnUse" gradientTransform="matrix(9.696189270466983 0.0 0.0 9.696189270466983 0.0 0.0)" spreadMethod="pad" x1="6.62489341746804" y1="14.765215935513334" x2="6.624858523696401" y2="24.46140520591753"><stop offset="0.0" stop-color="#51ab2a"/><stop offset="1.0" stop-color="#203e13"/></linearGradient></defs><path fill="url(#p.2)" d="m64.23622 190.17455l0 0c0 -25.961731 21.046143 -47.007874 47.007874 -47.007874l0 0c12.467262 0 24.423904 4.952591 33.239594 13.76828c8.815674 8.815689 13.76828 20.772324 13.76828 33.239594l0 0c0 25.961731 -21.046143 47.007874 -47.007874 47.007874l0 0c-25.961731 0 -47.007874 -21.046143 -47.007874 -47.007874z" fill-rule="evenodd"/><path stroke="#000000" stroke-width="1.0" stroke-linejoin="round" stroke-linecap="butt" d="m64.23622 190.17455l0 0c0 -25.961731 21.046143 -47.007874 47.007874 -47.007874l0 0c12.467262 0 24.423904 4.952591 33.239594 13.76828c8.815674 8.815689 13.76828 20.772324 13.76828 33.239594l0 0c0 25.961731 -21.046143 47.007874 -47.007874 47.007874l0 0c-25.961731 0 -47.007874 -21.046143 -47.007874 -47.007874z" fill-rule="evenodd"/><path fill="#ffffff" d="m83.48281 186.09454l5.125 -13.359375l1.90625 0l5.46875 13.359375l-2.015625 0l-1.546875 -4.046875l-5.59375 0l-1.46875 4.046875l-1.875 0zm3.859375 -5.484375l4.53125 0l-1.40625 -3.703125q-0.625 -1.6875 -0.9375 -2.765625q-0.265625 1.28125 -0.71875 2.546875l-1.46875 3.921875zm9.849823 5.484375l0 -9.671875l1.46875 0l0 1.375q1.0625 -1.59375 3.078125 -1.59375q0.875 0 1.609375 0.3125q0.734375 0.3125 1.09375 0.828125q0.375 0.5 0.515625 1.203125q0.09375 0.453125 0.09375 1.59375l0 5.953125l-1.640625 0l0 -5.890625q0 -1.0 -0.203125 -1.484375q-0.1875 -0.5 -0.671875 -0.796875q-0.484375 -0.296875 -1.140625 -0.296875q-1.046875 0 -1.8125 0.671875q-0.75 0.65625 -0.75 2.515625l0 5.28125l-1.640625 0zm10.375717 0l0 -9.671875l1.46875 0l0 1.375q1.0625 -1.59375 3.078125 -1.59375q0.875 0 1.609375 0.3125q0.734375 0.3125 1.09375 0.828125q0.375 0.5 0.515625 1.203125q0.09375 0.453125 0.09375 1.59375l0 5.953125l-1.640625 0l0 -5.890625q0 -1.0 -0.203125 -1.484375q-0.1875 -0.5 -0.671875 -0.796875q-0.484375 -0.296875 -1.140625 -0.296875q-1.046875 0 -1.8125 0.671875q-0.75 0.65625 -0.75 2.515625l0 5.28125l-1.640625 0zm16.703842 0l0 -1.421875q-1.125 1.640625 -3.0625 1.640625q-0.859375 0 -1.609375 -0.328125q-0.734375 -0.328125 -1.09375 -0.828125q-0.359375 -0.5 -0.5 -1.21875q-0.109375 -0.46875 -0.109375 -1.53125l0 -5.984375l1.640625 0l0 5.359375q0 1.28125 0.109375 1.734375q0.15625 0.640625 0.65625 1.015625q0.5 0.375 1.234375 0.375q0.734375 0 1.375 -0.375q0.65625 -0.390625 0.921875 -1.03125q0.265625 -0.65625 0.265625 -1.890625l0 -5.1875l1.640625 0l0 9.671875l-1.46875 0zm10.3601 -1.1875q-0.921875 0.765625 -1.765625 1.09375q-0.828125 0.3125 -1.796875 0.3125q-1.59375 0 -2.453125 -0.78125q-0.8593826 -0.78125 -0.8593826 -1.984375q0 -0.71875 0.32813263 -1.296875q0.328125 -0.59375 0.84375 -0.9375q0.53125 -0.359375 1.1875 -0.546875q0.46875 -0.125 1.453125 -0.25q1.984375 -0.234375 2.921875 -0.5625q0.015625 -0.34375 0.015625 -0.421875q0 -1.0 -0.46875 -1.421875q-0.625 -0.546875 -1.875 -0.546875q-1.15625 0 -1.703125 0.40625q-0.546875 0.40625 -0.8125 1.421875l-1.609375 -0.21875q0.21875 -1.015625 0.71875 -1.640625q0.5 -0.640625 1.453125 -0.984375q0.953125 -0.34375 2.1875 -0.34375q1.25 0 2.015625 0.296875q0.78125 0.28125 1.140625 0.734375q0.375 0.4375 0.515625 1.109375q0.078125 0.421875 0.078125 1.515625l0 2.1875q0 2.28125 0.109375 2.890625q0.109375 0.59375 0.40625 1.15625l-1.703125 0q-0.265625 -0.515625 -0.328125 -1.1875zm-0.140625 -3.671875q-0.890625 0.375 -2.671875 0.625q-1.015625 0.140625 -1.4375 0.328125q-0.421875 0.1875 -0.65625 0.53125q-0.21875 0.34375 -0.21875 0.78125q0 0.65625 0.5 1.09375q0.5 0.4375 1.453125 0.4375q0.9375 0 1.671875 -0.40625q0.75 -0.421875 1.09375 -1.140625q0.265625 -0.5625 0.265625 -1.640625l0 -0.609375zm4.156967 4.859375l0 -13.359375l1.640625 0l0 13.359375l-1.640625 0z" fill-rule="nonzero"/><path fill="#ffffff" d="m87.46964 208.09454l0 -13.359375l5.015625 0q1.53125 0 2.453125 0.40625q0.921875 0.40625 1.4375 1.25q0.53125 0.84375 0.53125 1.765625q0 0.859375 -0.46875 1.625q-0.453125 0.75 -1.390625 1.203125q1.203125 0.359375 1.859375 1.21875q0.65625 0.859375 0.65625 2.015625q0 0.9375 -0.40625 1.75q-0.390625 0.796875 -0.984375 1.234375q-0.578125 0.4375 -1.453125 0.671875q-0.875 0.21875 -2.15625 0.21875l-5.09375 0zm1.78125 -7.75l2.875 0q1.1875 0 1.6875 -0.140625q0.671875 -0.203125 1.015625 -0.671875q0.34375 -0.46875 0.34375 -1.171875q0 -0.65625 -0.328125 -1.15625q-0.3125 -0.515625 -0.90625 -0.703125q-0.59375 -0.1875 -2.03125 -0.1875l-2.65625 0l0 4.03125zm0 6.171875l3.3125 0q0.859375 0 1.203125 -0.0625q0.609375 -0.109375 1.015625 -0.359375q0.421875 -0.265625 0.6875 -0.75q0.265625 -0.484375 0.265625 -1.125q0 -0.75 -0.390625 -1.296875q-0.375 -0.546875 -1.0625 -0.765625q-0.671875 -0.234375 -1.953125 -0.234375l-3.078125 0l0 4.59375zm9.927948 -3.265625q0 -2.6875 1.484375 -3.96875q1.25 -1.078125 3.046875 -1.078125q2.0 0 3.265625 1.3125q1.265625 1.296875 1.265625 3.609375q0 1.859375 -0.5625 2.9375q-0.5625 1.0625 -1.640625 1.65625q-1.0625 0.59375 -2.328125 0.59375q-2.03125 0 -3.28125 -1.296875q-1.25 -1.3125 -1.25 -3.765625zm1.6875 0q0 1.859375 0.796875 2.796875q0.8125 0.921875 2.046875 0.921875q1.21875 0 2.03125 -0.921875q0.8125 -0.9375 0.8125 -2.84375q0 -1.796875 -0.8125 -2.71875q-0.8125 -0.921875 -2.03125 -0.921875q-1.234375 0 -2.046875 0.921875q-0.796875 0.90625 -0.796875 2.765625zm9.297592 4.84375l0 -9.671875l1.46875 0l0 1.375q1.0625 -1.59375 3.078125 -1.59375q0.875 0 1.609375 0.3125q0.734375 0.3125 1.09375 0.828125q0.375 0.5 0.515625 1.203125q0.09375 0.453125 0.09375 1.59375l0 5.953125l-1.640625 0l0 -5.890625q0 -1.0 -0.203125 -1.484375q-0.1875 -0.5 -0.671875 -0.796875q-0.484375 -0.296875 -1.140625 -0.296875q-1.046875 0 -1.8125 0.671875q-0.75 0.65625 -0.75 2.515625l0 5.28125l-1.640625 0zm16.703842 0l0 -1.421875q-1.125 1.640625 -3.0625 1.640625q-0.859375 0 -1.609375 -0.328125q-0.734375 -0.328125 -1.09375 -0.828125q-0.359375 -0.5 -0.5 -1.21875q-0.109375 -0.46875 -0.109375 -1.53125l0 -5.984375l1.640625 0l0 5.359375q0 1.28125 0.109375 1.734375q0.15625 0.640625 0.65625 1.015625q0.5 0.375 1.234375 0.375q0.734375 0 1.375 -0.375q0.65625 -0.390625 0.921875 -1.03125q0.265625 -0.65625 0.265625 -1.890625l0 -5.1875l1.6406326 0l0 9.671875l-1.4687576 0zm3.3913498 -2.890625l1.625 -0.25q0.125 0.96875 0.75 1.5q0.625 0.515625 1.75 0.515625q1.125 0 1.671875 -0.453125q0.546875 -0.46875 0.546875 -1.09375q0 -0.546875 -0.484375 -0.875q-0.328125 -0.21875 -1.671875 -0.546875q-1.8125 -0.46875 -2.515625 -0.796875q-0.6875 -0.328125 -1.046875 -0.90625q-0.359375 -0.59375 -0.359375 -1.3125q0 -0.640625 0.296875 -1.1875q0.296875 -0.5625 0.8125 -0.921875q0.375 -0.28125 1.03125 -0.46875q0.671875 -0.203125 1.421875 -0.203125q1.140625 0 2.0 0.328125q0.859375 0.328125 1.265625 0.890625q0.421875 0.5625 0.578125 1.5l-1.609375 0.21875q-0.109375 -0.75 -0.640625 -1.171875q-0.515625 -0.421875 -1.46875 -0.421875q-1.140625 0 -1.625 0.375q-0.46875 0.375 -0.46875 0.875q0 0.3125 0.1875 0.578125q0.203125 0.265625 0.640625 0.4375q0.234375 0.09375 1.4375 0.421875q1.75 0.453125 2.4375 0.75q0.6875 0.296875 1.078125 0.859375q0.390625 0.5625 0.390625 1.40625q0 0.828125 -0.484375 1.546875q-0.46875 0.71875 -1.375 1.125q-0.90625 0.390625 -2.046875 0.390625q-1.875 0 -2.875 -0.78125q-0.984375 -0.78125 -1.25 -2.328125z" fill-rule="nonzero"/><defs><linearGradient id="p.3" gradientUnits="userSpaceOnUse" gradientTransform="matrix(9.113474951382292 0.0 0.0 9.113474951382292 0.0 0.0)" spreadMethod="pad" x1="23.02210444759743" y1="27.842744656411238" x2="23.022072947703887" y2="36.956219607739094"><stop offset="0.0" stop-color="#51ab2a"/><stop offset="1.0" stop-color="#203e13"/></linearGradient></defs><path fill="url(#p.3)" d="m209.81139 295.27203l0 0c0 -22.935059 18.592514 -41.527573 41.527557 -41.527573l0 0c11.013779 0 21.576492 4.375229 29.364426 12.163132c7.787903 7.7879333 12.163116 18.350647 12.163116 29.36444l0 0c0 22.935028 -18.592499 41.527557 -41.527542 41.527557l0 0c-22.935043 0 -41.527557 -18.59253 -41.527557 -41.527557z" fill-rule="evenodd"/><path stroke="#000000" stroke-width="1.0" stroke-linejoin="round" stroke-linecap="butt" d="m209.81139 295.27203l0 0c0 -22.935059 18.592514 -41.527573 41.527557 -41.527573l0 0c11.013779 0 21.576492 4.375229 29.364426 12.163132c7.787903 7.7879333 12.163116 18.350647 12.163116 29.36444l0 0c0 22.935028 -18.592499 41.527557 -41.527542 41.527557l0 0c-22.935043 0 -41.527557 -18.59253 -41.527557 -41.527557z" fill-rule="evenodd"/><path fill="#ffffff" d="m251.76355 298.91077q0 -0.328125 0 -0.5q0 -0.96875 0.265625 -1.671875q0.203125 -0.515625 0.640625 -1.0625q0.328125 -0.390625 1.171875 -1.140625q0.859375 -0.75 1.109375 -1.1875q0.265625 -0.453125 0.265625 -0.984375q0 -0.953125 -0.75 -1.671875q-0.734375 -0.734375 -1.828125 -0.734375q-1.046875 0 -1.75 0.65625q-0.703125 0.65625 -0.921875 2.046875l-1.6875 -0.203125q0.234375 -1.859375 1.359375 -2.84375q1.125 -1.0 2.96875 -1.0q1.96875 0 3.125 1.0625q1.171875 1.0625 1.171875 2.578125q0 0.875 -0.40625 1.609375q-0.40625 0.734375 -1.609375 1.796875q-0.796875 0.703125 -1.046875 1.046875q-0.25 0.34375 -0.375 0.78125q-0.109375 0.4375 -0.125 1.421875l-1.578125 0zm-0.09375 3.28125l0 -1.875l1.859375 0l0 1.875l-1.859375 0z" fill-rule="nonzero"/><path fill="#d9ead3" d="m233.83209 253.7448c0.21258545 0.5306244 1.1959686 2.0293121 1.275589 3.183731c0.0796051 1.154419 -0.18766785 2.7209167 -0.79789734 3.7427673c-0.61024475 1.0218811 -2.3215332 1.8876038 -2.8635254 2.3884583c-0.5419922 0.500885 -0.33421326 0.51400757 -0.388443 0.6167908c-0.054244995 0.10281372 -0.1872406 -0.25546265 0.06298828 0c0.25021362 0.25549316 1.1456604 0.72006226 1.438324 1.5328369c0.29264832 0.81274414 0.37051392 2.3223877 0.31758118 3.343811c-0.05293274 1.0214539 -0.15791321 2.0021973 -0.6351776 2.78479c-0.47724915 0.7825928 -1.3923798 1.4461975 -2.2283478 1.9107666c-0.83595276 0.4645691 -1.9514313 0.7440796 -2.7873993 0.87661743c-0.83595276 0.13256836 -1.783905 -0.0690918 -2.2283478 -0.08135986c-0.44444275 -0.012237549 -0.39631653 0.03805542 -0.43830872 0.007873535c-0.042007446 -0.030181885 0.15309143 -0.2541504 0.18634033 -0.18896484c0.0332489 0.06518555 -0.09492493 0.13821411 0.013122559 0.5800476c0.108047485 0.4418335 0.59536743 1.3145142 0.6351776 2.0708618c0.03981018 0.75634766 0.014877319 1.7773438 -0.3963318 2.4671936c-0.41119385 0.68984985 -1.3145142 1.1412964 -2.0708618 1.6719055c-0.75634766 0.53063965 -1.6579132 1.2200623 -2.4671936 1.5118103c-0.80926514 0.29177856 -1.6719208 0.38452148 -2.388443 0.23886108c-0.7165375 -0.1456604 -1.340332 -0.6885376 -1.9107666 -1.112854c-0.5704346 -0.4243164 -1.3175812 -1.1950989 -1.5118103 -1.433075c-0.19422913 -0.23797607 0.19465637 0.024932861 0.3464508 0.0052490234c0.15179443 -0.019683838 0.5328064 -0.15484619 0.5643158 -0.12335205c0.03149414 0.03149414 -0.30316162 0.2130127 -0.3753357 0.3123169c-0.07217407 0.0993042 0.28346252 -0.028869629 -0.057739258 0.28347778c-0.34121704 0.3123169 -1.3394623 1.1395264 -1.989502 1.5905457c-0.6500397 0.4510193 -1.2471619 0.87664795 -1.9107666 1.1154785c-0.66360474 0.23886108 -1.2615814 0.25152588 -2.0708618 0.31759644c-0.8092804 0.06604004 -1.9886322 0.277771 -2.7847748 0.07873535c-0.79615784 -0.19903564 -1.6601105 -1.060791 -1.9921265 -1.2729797" fill-rule="evenodd"/><defs><linearGradient id="p.4" gradientUnits="userSpaceOnUse" gradientTransform="matrix(11.182120603670823 0.0 0.0 11.182120603670823 0.0 0.0)" spreadMethod="pad" x1="20.760315970762573" y1="13.471854863597361" x2="20.76027562819236" y2="24.65397546719541"><stop offset="0.0" stop-color="#51ab2a"/><stop offset="1.0" stop-color="#203e13"/></linearGradient></defs><path fill="url(#p.4)" d="m232.14436 213.16405l0 0c0 -34.52867 27.991013 -62.519684 62.51967 -62.519684l0 0c16.581268 0 32.4834 6.5868683 44.2081 18.311584c11.724731 11.724716 18.311584 27.626846 18.311584 44.2081l0 0c0 34.528656 -27.990997 62.51967 -62.519684 62.51967l0 0c-34.528656 0 -62.51967 -27.991013 -62.51967 -62.51967z" fill-rule="evenodd"/><path stroke="#000000" stroke-width="1.0" stroke-linejoin="round" stroke-linecap="butt" d="m232.14436 213.16405l0 0c0 -34.52867 27.991013 -62.519684 62.51967 -62.519684l0 0c16.581268 0 32.4834 6.5868683 44.2081 18.311584c11.724731 11.724716 18.311584 27.626846 18.311584 44.2081l0 0c0 34.528656 -27.990997 62.51967 -62.519684 62.51967l0 0c-34.528656 0 -62.51967 -27.991013 -62.51967 -62.51967z" fill-rule="evenodd"/><path fill="#ffffff" d="m252.0891 198.08405l0 -13.359375l1.765625 0l0 13.359375l-1.765625 0zm4.683304 0l0 -9.671875l1.46875 0l0 1.375q1.0625 -1.59375 3.078125 -1.59375q0.875 0 1.609375 0.3125q0.734375 0.3125 1.09375 0.828125q0.375 0.5 0.515625 1.203125q0.09375 0.453125 0.09375 1.59375l0 5.953125l-1.640625 0l0 -5.890625q0 -1.0 -0.203125 -1.484375q-0.1875 -0.5 -0.671875 -0.796875q-0.484375 -0.296875 -1.140625 -0.296875q-1.046875 0 -1.8125 0.671875q-0.75 0.65625 -0.75 2.515625l0 5.28125l-1.640625 0zm13.063232 0l-3.6875 -9.671875l1.734375 0l2.078125 5.796875q0.328125 0.9375 0.625 1.9375q0.203125 -0.765625 0.609375 -1.828125l2.140625 -5.90625l1.6875 0l-3.65625 9.671875l-1.53125 0zm13.265625 -3.109375l1.6875 0.203125q-0.40625 1.484375 -1.484375 2.3125q-1.078125 0.8125 -2.765625 0.8125q-2.125 0 -3.375 -1.296875q-1.234375 -1.3125 -1.234375 -3.671875q0 -2.453125 1.25 -3.796875q1.265625 -1.34375 3.265625 -1.34375q1.9375 0 3.15625 1.328125q1.234375 1.3125 1.234375 3.703125q0 0.15625 0 0.4375l-7.21875 0q0.09375 1.59375 0.90625 2.453125q0.8125 0.84375 2.015625 0.84375q0.90625 0 1.546875 -0.46875q0.640625 -0.484375 1.015625 -1.515625zm-5.390625 -2.65625l5.40625 0q-0.109375 -1.21875 -0.625 -1.828125q-0.78125 -0.953125 -2.03125 -0.953125q-1.125 0 -1.90625 0.765625q-0.765625 0.75 -0.84375 2.015625zm8.485077 2.875l1.625 -0.25q0.125 0.96875 0.75 1.5q0.625 0.515625 1.75 0.515625q1.125 0 1.671875 -0.453125q0.546875 -0.46875 0.546875 -1.09375q0 -0.546875 -0.484375 -0.875q-0.328125 -0.21875 -1.671875 -0.546875q-1.8125 -0.46875 -2.515625 -0.796875q-0.6875 -0.328125 -1.046875 -0.90625q-0.359375 -0.59375 -0.359375 -1.3125q0 -0.640625 0.296875 -1.1875q0.296875 -0.5625 0.8125 -0.921875q0.375 -0.28125 1.03125 -0.46875q0.671875 -0.203125 1.421875 -0.203125q1.140625 0 2.0 0.328125q0.859375 0.328125 1.265625 0.890625q0.421875 0.5625 0.578125 1.5l-1.609375 0.21875q-0.109375 -0.75 -0.640625 -1.171875q-0.515625 -0.421875 -1.46875 -0.421875q-1.140625 0 -1.625 0.375q-0.46875 0.375 -0.46875 0.875q0 0.3125 0.1875 0.578125q0.203125 0.265625 0.640625 0.4375q0.234375 0.09375 1.4375 0.421875q1.75 0.453125 2.4375 0.75q0.6875 0.296875 1.078125 0.859375q0.390625 0.5625 0.390625 1.40625q0 0.828125 -0.484375 1.546875q-0.46875 0.71875 -1.375 1.125q-0.90625 0.390625 -2.046875 0.390625q-1.875 0 -2.875 -0.78125q-0.984375 -0.78125 -1.25 -2.328125zm13.5625 1.421875l0.234375 1.453125q-0.6875 0.140625 -1.234375 0.140625q-0.890625 0 -1.390625 -0.28125q-0.484375 -0.28125 -0.6875 -0.734375q-0.203125 -0.46875 -0.203125 -1.9375l0 -5.578125l-1.203125 0l0 -1.265625l1.203125 0l0 -2.390625l1.625 -0.984375l0 3.375l1.65625 0l0 1.265625l-1.65625 0l0 5.671875q0 0.6875 0.078125 0.890625q0.09375 0.203125 0.28125 0.328125q0.203125 0.109375 0.578125 0.109375q0.265625 0 0.71875 -0.0625zm1.6051941 1.46875l0 -9.671875l1.46875 0l0 1.359375q0.453125 -0.71875 1.203125 -1.140625q0.765625 -0.4375 1.71875 -0.4375q1.078125 0 1.765625 0.453125q0.6875 0.4375 0.96875 1.234375q1.15625 -1.6875 2.984375 -1.6875q1.453125 0 2.21875 0.796875q0.78125 0.796875 0.78125 2.453125l0 6.640625l-1.640625 0l0 -6.09375q0 -0.984375 -0.15625 -1.40625q-0.15625 -0.4375 -0.578125 -0.703125q-0.421875 -0.265625 -0.984375 -0.265625q-1.015625 0 -1.6875 0.6875q-0.671875 0.671875 -0.671875 2.15625l0 5.625l-1.640625 0l0 -6.28125q0 -1.09375 -0.40625 -1.640625q-0.40625 -0.546875 -1.3125 -0.546875q-0.6875 0 -1.28125 0.359375q-0.59375 0.359375 -0.859375 1.0625q-0.25 0.703125 -0.25 2.03125l0 5.015625l-1.640625 0zm22.165802 -3.109375l1.6875 0.203125q-0.40625 1.484375 -1.484375 2.3125q-1.078125 0.8125 -2.765625 0.8125q-2.125 0 -3.375 -1.296875q-1.234375 -1.3125 -1.234375 -3.671875q0 -2.453125 1.25 -3.796875q1.265625 -1.34375 3.265625 -1.34375q1.9375 0 3.15625 1.328125q1.234375 1.3125 1.234375 3.703125q0 0.15625 0 0.4375l-7.21875 0q0.09375 1.59375 0.90625 2.453125q0.8125 0.84375 2.015625 0.84375q0.90625 0 1.546875 -0.46875q0.640625 -0.484375 1.015625 -1.515625zm-5.390625 -2.65625l5.40625 0q-0.109375 -1.21875 -0.625 -1.828125q-0.78125 -0.953125 -2.03125 -0.953125q-1.125 0 -1.90625 0.765625q-0.765625 0.75 -0.84375 2.015625zm9.141327 5.765625l0 -9.671875l1.46875 0l0 1.375q1.0625 -1.59375 3.078125 -1.59375q0.875 0 1.609375 0.3125q0.734375 0.3125 1.09375 0.828125q0.375 0.5 0.515625 1.203125q0.09375 0.453125 0.09375 1.59375l0 5.953125l-1.640625 0l0 -5.890625q0 -1.0 -0.203125 -1.484375q-0.1875 -0.5 -0.671875 -0.796875q-0.484375 -0.296875 -1.140625 -0.296875q-1.046875 0 -1.8125 0.671875q-0.75 0.65625 -0.75 2.515625l0 5.28125l-1.640625 0zm13.953857 -1.46875l0.234375 1.453125q-0.6875 0.140625 -1.234375 0.140625q-0.890625 0 -1.390625 -0.28125q-0.484375 -0.28125 -0.6875 -0.734375q-0.203125 -0.46875 -0.203125 -1.9375l0 -5.578125l-1.203125 0l0 -1.265625l1.203125 0l0 -2.390625l1.625 -0.984375l0 3.375l1.65625 0l0 1.265625l-1.65625 0l0 5.671875q0 0.6875 0.078125 0.890625q0.09375 0.203125 0.28125 0.328125q0.203125 0.109375 0.578125 0.109375q0.265625 0 0.71875 -0.0625z" fill-rule="nonzero"/><path fill="#ffffff" d="m249.7465 220.08405l0 -13.359375l5.921875 0q1.7812653 0 2.7031403 0.359375q0.9375 0.359375 1.484375 1.28125q0.5625 0.90625 0.5625 2.015625q0 1.40625 -0.921875 2.390625q-0.921875 0.96875 -2.84375 1.234375q0.703125 0.34375 1.078125 0.671875q0.765625 0.703125 1.453125 1.765625l2.328125 3.640625l-2.21875 0l-1.765625 -2.78125q-0.78125 -1.203125 -1.28125 -1.828125q-0.50001526 -0.640625 -0.90626526 -0.890625q-0.390625 -0.265625 -0.796875 -0.359375q-0.296875 -0.078125 -0.984375 -0.078125l-2.046875 0l0 5.9375l-1.765625 0zm1.765625 -7.453125l3.796875 0q1.2187653 0 1.8906403 -0.25q0.6875 -0.265625 1.046875 -0.8125q0.359375 -0.546875 0.359375 -1.1875q0 -0.953125 -0.6875 -1.5625q-0.6875 -0.609375 -2.1875153 -0.609375l-4.21875 0l0 4.421875zm18.097946 4.34375l1.6875 0.203125q-0.40625 1.484375 -1.484375 2.3125q-1.078125 0.8125 -2.765625 0.8125q-2.125 0 -3.375 -1.296875q-1.234375 -1.3125 -1.234375 -3.671875q0 -2.453125 1.25 -3.796875q1.265625 -1.34375 3.265625 -1.34375q1.9375 0 3.15625 1.328125q1.234375 1.3125 1.234375 3.703125q0 0.15625 0 0.4375l-7.21875 0q0.09375 1.59375 0.90625 2.453125q0.8125 0.84375 2.015625 0.84375q0.90625 0 1.546875 -0.46875q0.640625 -0.484375 1.015625 -1.515625zm-5.390625 -2.65625l5.40625 0q-0.109375 -1.21875 -0.625 -1.828125q-0.78125 -0.953125 -2.03125 -0.953125q-1.125 0 -1.90625 0.765625q-0.765625 0.75 -0.84375 2.015625zm9.141357 9.46875l0 -13.375l1.484375 0l0 1.25q0.53125 -0.734375 1.1875 -1.09375q0.671875 -0.375 1.625 -0.375q1.234375 0 2.171875 0.640625q0.953125 0.625 1.4375 1.796875q0.484375 1.15625 0.484375 2.546875q0 1.484375 -0.53125 2.671875q-0.53125 1.1875 -1.546875 1.828125q-1.015625 0.625 -2.140625 0.625q-0.8125 0 -1.46875 -0.34375q-0.65625 -0.34375 -1.0625 -0.875l0 4.703125l-1.640625 0zm1.484375 -8.484375q0 1.859375 0.75 2.765625q0.765625 0.890625 1.828125 0.890625q1.09375 0 1.875 -0.921875q0.78125 -0.9375 0.78125 -2.875q0 -1.84375 -0.765625 -2.765625q-0.75 -0.921875 -1.8125 -0.921875q-1.046875 0 -1.859375 0.984375q-0.796875 0.96875 -0.796875 2.84375zm15.203827 3.59375q-0.921875 0.765625 -1.765625 1.09375q-0.828125 0.3125 -1.796875 0.3125q-1.59375 0 -2.453125 -0.78125q-0.859375 -0.78125 -0.859375 -1.984375q0 -0.71875 0.328125 -1.296875q0.328125 -0.59375 0.84375 -0.9375q0.53125 -0.359375 1.1875 -0.546875q0.46875 -0.125 1.453125 -0.25q1.984375 -0.234375 2.921875 -0.5625q0.015625 -0.34375 0.015625 -0.421875q0 -1.0 -0.46875 -1.421875q-0.625 -0.546875 -1.875 -0.546875q-1.15625 0 -1.703125 0.40625q-0.546875 0.40625 -0.8125 1.421875l-1.609375 -0.21875q0.21875 -1.015625 0.71875 -1.640625q0.5 -0.640625 1.453125 -0.984375q0.953125 -0.34375 2.1875 -0.34375q1.25 0 2.015625 0.296875q0.78125 0.28125 1.140625 0.734375q0.375 0.4375 0.515625 1.109375q0.078125 0.421875 0.078125 1.515625l0 2.1875q0 2.28125 0.109375 2.890625q0.109375 0.59375 0.40625 1.15625l-1.703125 0q-0.265625 -0.515625 -0.328125 -1.1875zm-0.140625 -3.671875q-0.890625 0.375 -2.671875 0.625q-1.015625 0.140625 -1.4375 0.328125q-0.421875 0.1875 -0.65625 0.53125q-0.21875 0.34375 -0.21875 0.78125q0 0.65625 0.5 1.09375q0.5 0.4375 1.453125 0.4375q0.9375 0 1.671875 -0.40625q0.75 -0.421875 1.09375 -1.140625q0.265625 -0.5625 0.265625 -1.640625l0 -0.609375zm4.1257324 8.578125l-0.1875 -1.53125q0.546875 0.140625 0.9375 0.140625q0.546875 0 0.875 -0.1875q0.328125 -0.171875 0.546875 -0.5q0.15625 -0.25 0.5 -1.21875q0.046875 -0.140625 0.140625 -0.40625l-3.671875 -9.6875l1.765625 0l2.015625 5.59375q0.390625 1.078125 0.703125 2.25q0.28125 -1.125 0.671875 -2.203125l2.078125 -5.640625l1.640625 0l-3.6875 9.828125q-0.59375 1.609375 -0.921875 2.203125q-0.4375 0.8125 -1.0 1.1875q-0.5625 0.375 -1.34375 0.375q-0.484375 0 -1.0625 -0.203125zm9.40625 -3.71875l0 -9.671875l1.46875 0l0 1.359375q0.453125 -0.71875 1.203125 -1.140625q0.765625 -0.4375 1.71875 -0.4375q1.078125 0 1.765625 0.453125q0.6875 0.4375 0.96875 1.234375q1.15625 -1.6875 2.984375 -1.6875q1.453125 0 2.21875 0.796875q0.78125 0.796875 0.78125 2.453125l0 6.640625l-1.640625 0l0 -6.09375q0 -0.984375 -0.15625 -1.40625q-0.15625 -0.4375 -0.578125 -0.703125q-0.421875 -0.265625 -0.984375 -0.265625q-1.015625 0 -1.6875 0.6875q-0.671875 0.671875 -0.671875 2.15625l0 5.625l-1.640625 0l0 -6.28125q0 -1.09375 -0.40625 -1.640625q-0.40625 -0.546875 -1.3125 -0.546875q-0.6875 0 -1.28125 0.359375q-0.59375 0.359375 -0.859375 1.0625q-0.25 0.703125 -0.25 2.03125l0 5.015625l-1.640625 0zm22.165802 -3.109375l1.6875 0.203125q-0.40625 1.484375 -1.484375 2.3125q-1.078125 0.8125 -2.765625 0.8125q-2.125 0 -3.375 -1.296875q-1.234375 -1.3125 -1.234375 -3.671875q0 -2.453125 1.25 -3.796875q1.265625 -1.34375 3.265625 -1.34375q1.9375 0 3.15625 1.328125q1.234375 1.3125 1.234375 3.703125q0 0.15625 0 0.4375l-7.21875 0q0.09375 1.59375 0.90625 2.453125q0.8125 0.84375 2.015625 0.84375q0.90625 0 1.546875 -0.46875q0.640625 -0.484375 1.015625 -1.515625zm-5.390625 -2.65625l5.40625 0q-0.109375 -1.21875 -0.625 -1.828125q-0.78125 -0.953125 -2.03125 -0.953125q-1.125 0 -1.90625 0.765625q-0.765625 0.75 -0.84375 2.015625zm9.141327 5.765625l0 -9.671875l1.46875 0l0 1.375q1.0625 -1.59375 3.078125 -1.59375q0.875 0 1.609375 0.3125q0.734375 0.3125 1.09375 0.828125q0.375 0.5 0.515625 1.203125q0.09375 0.453125 0.09375 1.59375l0 5.953125l-1.640625 0l0 -5.890625q0 -1.0 -0.203125 -1.484375q-0.1875 -0.5 -0.671875 -0.796875q-0.484375 -0.296875 -1.140625 -0.296875q-1.046875 0 -1.8125 0.671875q-0.75 0.65625 -0.75 2.515625l0 5.28125l-1.640625 0zm13.953857 -1.46875l0.234375 1.453125q-0.6875 0.140625 -1.234375 0.140625q-0.890625 0 -1.390625 -0.28125q-0.484375 -0.28125 -0.6875 -0.734375q-0.203125 -0.46875 -0.203125 -1.9375l0 -5.578125l-1.203125 0l0 -1.265625l1.203125 0l0 -2.390625l1.625 -0.984375l0 3.375l1.65625 0l0 1.265625l-1.65625 0l0 5.671875q0 0.6875 0.078125 0.890625q0.09375 0.203125 0.28125 0.328125q0.203125 0.109375 0.578125 0.109375q0.265625 0 0.71875 -0.0625z" fill-rule="nonzero"/><path fill="#ffffff" d="m276.24933 242.08405l0 -13.359375l9.015625 0l0 1.578125l-7.25 0l0 4.140625l6.265625 0l0 1.578125l-6.265625 0l0 6.0625l-1.765625 0zm17.427216 0l0 -1.421875q-1.125 1.640625 -3.0625 1.640625q-0.859375 0 -1.609375 -0.328125q-0.734375 -0.328125 -1.09375 -0.828125q-0.359375 -0.5 -0.5 -1.21875q-0.109375 -0.46875 -0.109375 -1.53125l0 -5.984375l1.640625 0l0 5.359375q0 1.28125 0.109375 1.734375q0.15625 0.640625 0.65625 1.015625q0.5 0.375 1.234375 0.375q0.734375 0 1.375 -0.375q0.65625 -0.390625 0.921875 -1.03125q0.265625 -0.65625 0.265625 -1.890625l0 -5.1875l1.640625 0l0 9.671875l-1.46875 0zm4.0476074 0l0 -9.671875l1.46875 0l0 1.375q1.0625 -1.59375 3.078125 -1.59375q0.875 0 1.609375 0.3125q0.734375 0.3125 1.09375 0.828125q0.375 0.5 0.515625 1.203125q0.09375 0.453125 0.09375 1.59375l0 5.953125l-1.640625 0l0 -5.890625q0 -1.0 -0.203125 -1.484375q-0.1875 -0.5 -0.671875 -0.796875q-0.484375 -0.296875 -1.140625 -0.296875q-1.046875 0 -1.8125 0.671875q-0.75 0.65625 -0.75 2.515625l0 5.28125l-1.640625 0zm16.641327 0l0 -1.21875q-0.90625 1.4375 -2.703125 1.4375q-1.15625 0 -2.125 -0.640625q-0.96875 -0.640625 -1.5 -1.78125q-0.53125 -1.140625 -0.53125 -2.625q0 -1.453125 0.484375 -2.625q0.484375 -1.1875 1.4375 -1.8125q0.96875 -0.625 2.171875 -0.625q0.875 0 1.546875 0.375q0.6875 0.359375 1.109375 0.953125l0 -4.796875l1.6406555 0l0 13.359375l-1.5312805 0zm-5.171875 -4.828125q0 1.859375 0.78125 2.78125q0.78125 0.921875 1.84375 0.921875q1.078125 0 1.828125 -0.875q0.75 -0.890625 0.75 -2.6875q0 -1.984375 -0.765625 -2.90625q-0.765625 -0.9375 -1.890625 -0.9375q-1.078125 0 -1.8125 0.890625q-0.734375 0.890625 -0.734375 2.8125z" fill-rule="nonzero"/><defs><linearGradient id="p.5" gradientUnits="userSpaceOnUse" gradientTransform="matrix(10.819949018029632 0.0 0.0 10.819949018029632 0.0 0.0)" spreadMethod="pad" x1="10.91038290002075" y1="22.326635717125008" x2="10.910343102214355" y2="33.14658473508145"><stop offset="0.0" stop-color="#51ab2a"/><stop offset="1.0" stop-color="#203e13"/></linearGradient></defs><path fill="url(#p.5)" d="m118.04978 300.10892l0 0c0 -32.328217 26.207207 -58.53543 58.53544 -58.53543l0 0c15.524567 0 30.413269 6.1671143 41.390793 17.144623c10.977524 10.977539 17.144638 25.866241 17.144638 41.39081l0 0c0 32.328247 -26.2072 58.53543 -58.53543 58.53543l0 0c-32.32823 0 -58.53544 -26.207184 -58.53544 -58.53543z" fill-rule="evenodd"/><path stroke="#000000" stroke-width="1.0" stroke-linejoin="round" stroke-linecap="butt" d="m118.04978 300.10892l0 0c0 -32.328217 26.207207 -58.53543 58.53544 -58.53543l0 0c15.524567 0 30.413269 6.1671143 41.390793 17.144623c10.977524 10.977539 17.144638 25.866241 17.144638 41.39081l0 0c0 32.328247 -26.2072 58.53543 -58.53543 58.53543l0 0c-32.32823 0 -58.53544 -26.207184 -58.53544 -58.53543z" fill-rule="evenodd"/><path fill="#ffffff" d="m177.00984 303.74768q0 -0.328125 0 -0.5q0 -0.96875 0.265625 -1.671875q0.203125 -0.515625 0.640625 -1.0625q0.328125 -0.390625 1.171875 -1.140625q0.859375 -0.75 1.109375 -1.1875q0.265625 -0.453125 0.265625 -0.984375q0 -0.953125 -0.75 -1.671875q-0.734375 -0.734375 -1.828125 -0.734375q-1.046875 0 -1.75 0.65625q-0.703125 0.65625 -0.921875 2.046875l-1.6875 -0.203125q0.234375 -1.859375 1.359375 -2.84375q1.125 -1.0 2.96875 -1.0q1.96875 0 3.125 1.0625q1.171875 1.0625 1.171875 2.578125q0 0.875 -0.40625 1.609375q-0.40625 0.734375 -1.609375 1.796875q-0.796875 0.703125 -1.046875 1.046875q-0.25 0.34375 -0.375 0.78125q-0.109375 0.4375 -0.125 1.421875l-1.578125 0zm-0.09375 3.28125l0 -1.875l1.859375 0l0 1.875l-1.859375 0z" fill-rule="nonzero"/><path fill="#d9ead3" d="m93.69078 140.50705c0.21260071 0.5306244 1.1959763 2.0293121 1.275589 3.183731c0.07962036 1.154419 -0.18766022 2.7209167 -0.79789734 3.7427826c-0.6102371 1.0218658 -2.3215256 1.8875732 -2.8635178 2.3884583c-0.5419922 0.50086975 -0.33420563 0.5139923 -0.38845062 0.6167908c-0.054244995 0.10279846 -0.18722534 -0.25546265 0.06298828 0c0.25022125 0.25546265 1.1456757 0.72003174 1.438324 1.5328064c0.29264832 0.81277466 0.37051392 2.322403 0.31758118 3.3438416c-0.05292511 1.0214233 -0.15791321 2.002182 -0.63517 2.7847748c-0.47724915 0.7825775 -1.3923874 1.4461823 -2.2283478 1.9107513c-0.83595276 0.4645691 -1.9514389 0.74409485 -2.7873993 0.87664795c-0.8359604 0.13253784 -1.7838974 -0.069122314 -2.2283478 -0.08137512c-0.44444275 -0.012237549 -0.39632416 0.03807068 -0.43831635 0.007888794c-0.041992188 -0.030197144 0.15310669 -0.25416565 0.18634796 -0.1889801c0.0332489 0.06517029 -0.09492493 0.13822937 0.013122559 0.5800476c0.108055115 0.44181824 0.59536743 1.3145294 0.6351776 2.0708618c0.03980255 0.75634766 0.01486969 1.7773438 -0.3963318 2.4671936c-0.41119385 0.68984985 -1.3145218 1.1412964 -2.0708618 1.6719208c-0.75634766 0.5306244 -1.6579208 1.2200317 -2.4671936 1.5118103c-0.80927277 0.29177856 -1.6719131 0.38450623 -2.3884506 0.23884583c-0.7165375 -0.14567566 -1.340332 -0.6885376 -1.910759 -1.1128693c-0.5704346 -0.4243164 -1.3175888 -1.1950989 -1.5118103 -1.4330597c-0.19422913 -0.23797607 0.19465637 0.024932861 0.3464508 0.0052490234c0.15179443 -0.019683838 0.532814 -0.15486145 0.56430817 -0.12336731c0.03149414 0.03149414 -0.303154 0.21304321 -0.37532806 0.3123474c-0.0721817 0.09928894 0.28346252 -0.028884888 -0.057746887 0.28346252c-0.34120178 0.31233215 -1.3394547 1.1395416 -1.989502 1.5905457c-0.6500397 0.45100403 -1.2471542 0.87664795 -1.910759 1.1154785c-0.66360474 0.23884583 -1.261589 0.25154114 -2.0708618 0.31759644c-0.8092804 0.0660553 -1.9886322 0.277771 -2.7847824 0.07873535c-0.7961502 -0.19903564 -1.6601028 -1.0608063 -1.9921265 -1.2729645" fill-rule="evenodd"/><path fill="#d9ead3" d="m271.7496 147.19423c0.26367188 0.65812683 1.4833679 2.5169525 1.5820923 3.9487762c0.09875488 1.4318237 -0.23275757 3.3747406 -0.989624 4.6421814c-0.75686646 1.2674255 -2.8793945 2.341156 -3.5516052 2.962387c-0.6722412 0.6212311 -0.41452026 0.6375122 -0.48181152 0.76501465c-0.06726074 0.12750244 -0.23220825 -0.31684875 0.078125 0c0.31036377 0.316864 1.42099 0.8930664 1.7839661 1.9011383c0.36297607 1.0080872 0.4595337 2.880478 0.39389038 4.1473694c-0.06564331 1.2668762 -0.19586182 2.483307 -0.7878113 3.453949c-0.59191895 0.9706421 -1.7269592 1.7937164 -2.763794 2.3699188c-1.0368652 0.5762024 -2.4203796 0.92289734 -3.4572144 1.0872955c-1.0368652 0.1643982 -2.2125854 -0.08572388 -2.7638245 -0.10092163c-0.551239 -0.015182495 -0.49157715 0.047210693 -0.54367065 0.009765625c-0.05206299 -0.03742981 0.18991089 -0.31521606 0.23114014 -0.234375c0.041229248 0.080841064 -0.11773682 0.17144775 0.016296387 0.71943665c0.13400269 0.5479889 0.7384033 1.6304016 0.78778076 2.5684967c0.04937744 0.9380951 0.018463135 2.2044373 -0.49154663 3.0600586c-0.51000977 0.85562134 -1.6304016 1.4155426 -2.568512 2.0736694c-0.93807983 0.65812683 -2.056305 1.5132141 -3.0600433 1.8751068c-1.0037537 0.3618927 -2.0736847 0.47691345 -2.9624023 0.29623413c-0.88871765 -0.18067932 -1.6624146 -0.85398865 -2.3699188 -1.3802795c-0.7075043 -0.5262909 -1.634201 -1.4822845 -1.8750916 -1.7774353c-0.24090576 -0.29515076 0.24143982 0.030929565 0.42970276 0.006500244c0.1882782 -0.024414062 0.6608429 -0.19206238 0.6999054 -0.15299988c0.0390625 0.0390625 -0.37599182 0.26423645 -0.46551514 0.38739014c-0.089523315 0.123168945 0.35157776 -0.03579712 -0.071624756 0.35159302c-0.42318726 0.38739014 -1.6613312 1.4133759 -2.467575 1.9727478c-0.8062439 0.5593872 -1.5468445 1.0872955 -2.3699188 1.3835449c-0.8230591 0.29623413 -1.564743 0.31196594 -2.5684967 0.39390564c-1.0037384 0.08192444 -2.4664917 0.34451294 -3.453949 0.09765625c-0.98747253 -0.24687195 -2.0590363 -1.3157196 -2.4708405 -1.5788574" fill-rule="evenodd"/><path fill="#d9ead3" d="m96.97529 243.5217c0.21259308 0.5306244 1.1959686 2.0293121 1.275589 3.183731c0.07961273 1.154419 -0.18766785 2.7209167 -0.79790497 3.7427826c-0.6102371 1.0218658 -2.321518 1.8875732 -2.8635178 2.3884583c-0.5419922 0.50086975 -0.33420563 0.5139923 -0.38845062 0.6167908c-0.054237366 0.10279846 -0.18722534 -0.25546265 0.06299591 0c0.25022125 0.25546265 1.145668 0.72003174 1.4383163 1.5328064c0.29265594 0.81277466 0.37052155 2.3223877 0.3175888 3.3438416c-0.05293274 1.0214233 -0.15792084 2.0021667 -0.63517 2.7847595c-0.47725677 0.7825928 -1.3923874 1.4461975 -2.2283478 1.9107666c-0.8359604 0.4645691 -1.9514465 0.7441101 -2.7873993 0.87664795c-0.8359604 0.13253784 -1.783905 -0.069122314 -2.2283478 -0.08135986c-0.44444275 -0.012268066 -0.39632416 0.03805542 -0.43832397 0.007873535c-0.041992188 -0.030181885 0.15310669 -0.2541504 0.18635559 -0.18899536c0.033241272 0.06518555 -0.09492493 0.13824463 0.013122559 0.5800781c0.108047485 0.44180298 0.5953598 1.3145142 0.63517 2.0708618c0.03981018 0.75634766 0.01486969 1.7773438 -0.39632416 2.4671936c-0.41120148 0.68984985 -1.3145218 1.1412964 -2.0708694 1.6719055c-0.75634 0.53060913 -1.6579132 1.2200317 -2.467186 1.5118103c-0.8092804 0.29177856 -1.6719208 0.38452148 -2.3884583 0.23883057c-0.71652985 -0.1456604 -1.340332 -0.6885376 -1.910759 -1.112854c-0.57042694 -0.4243164 -1.3175812 -1.1950989 -1.5118103 -1.433075c-0.1942215 -0.23794556 0.194664 0.024932861 0.34645844 0.0052490234c0.15179443 -0.019683838 0.5328064 -0.15484619 0.56430054 -0.12335205c0.03150177 0.03149414 -0.30314636 0.21304321 -0.37532806 0.3123474c-0.07217407 0.0993042 0.28347015 -0.028869629 -0.057739258 0.28344727c-0.3412094 0.3123474 -1.3394623 1.1395569 -1.989502 1.5905762c-0.6500473 0.45098877 -1.2471542 0.87661743 -1.910759 1.1154785c-0.66360474 0.23883057 -1.2615967 0.25152588 -2.0708694 0.31756592c-0.80927277 0.06607056 -1.9886246 0.2778015 -2.7847748 0.07876587c-0.7961502 -0.19906616 -1.6601028 -1.0608215 -1.9921265 -1.2729797" fill-rule="evenodd"/><path fill="#d9ead3" d="m128.43307 264.81793c2.0144348 -1.9776917 8.143921 -8.807953 12.086609 -11.866135c3.9427032 -3.0581665 9.8324585 -6.4033203 11.56955 -6.4829407c1.7371063 -0.0796051 -0.8630676 4.8574066 -1.1469727 6.0052643c-0.28390503 1.1478424 -0.4790039 0.7348938 -0.556427 0.8818817c-0.077438354 0.14698792 -0.26597595 -0.3652649 0.09185791 0c0.35783386 0.3652649 1.6369171 1.0293121 2.0551147 2.1916046c0.41819763 1.1622925 0.52975464 3.3215332 0.45407104 4.782135c-0.075683594 1.4606323 -0.22572327 2.862671 -0.9081421 3.9816284c-0.68240356 1.118988 -1.9912415 2.06781 -3.1863403 2.7322998c-1.1951141 0.66448975 -2.789154 1.0651855 -3.984253 1.2545776c-1.1950989 0.1894226 -2.5507507 -0.10058594 -3.1863556 -0.11810303c-0.63560486 -0.017486572 -0.56692505 0.055999756 -0.6273041 0.013122559c-0.06036377 -0.042877197 0.21784973 -0.3635254 0.26509094 -0.2703247c0.04725647 0.093170166 -0.1360321 0.19772339 0.01838684 0.8293762c0.15440369 0.63168335 0.8508301 1.8792725 0.90812683 2.9606323c0.05731201 1.0813599 0.023620605 2.5411377 -0.56430054 3.5275574c-0.58792114 0.9864502 -1.8814545 1.6321106 -2.9632568 2.3910828c-1.0818024 0.75897217 -2.370514 1.7454224 -3.5275574 2.1627197c-1.1570435 0.41732788 -2.3901978 0.5494385 -3.4147034 0.34121704c-1.0244904 -0.20822144 -1.9164429 -0.9838257 -2.7322845 -1.5905457c-0.8158264 -0.6067505 -1.8849487 -1.7095337 -2.1627274 -2.0498657c-0.27777863 -0.34033203 0.27909088 0.036315918 0.49606323 0.007873535c0.21697235 -0.028442383 0.7607193 -0.22354126 0.8057785 -0.17849731c0.045059204 0.045074463 -0.43219757 0.30667114 -0.5354309 0.44882202c-0.10324097 0.1421814 0.221344 -0.06036377 -0.083992004 0.40420532c-0.305336 0.4645691 -1.075676 1.6793518 -1.7480316 2.3832092c-0.67235565 0.7038574 -1.413826 1.4969482 -2.286087 1.8399048c-0.8722687 0.34295654 -2.9475098 1.5940247 -2.9475098 0.21783447c0 -1.3761902 1.645668 -5.7239685 2.9475098 -8.475067c1.3018341 -2.7510986 4.052925 -6.6929016 4.8635178 -8.031494" fill-rule="evenodd"/><path fill="#b6d7a8" d="m115.91338 278.2126c0.8858261 0.6251221 3.9291382 3.3132324 5.3149643 3.7506714c1.3858261 0.43743896 2.1146088 -0.5949402 3.0 -1.1259766c0.88539124 -0.5310669 1.7397156 -1.4562683 2.3123322 -2.0603638c0.5726166 -0.604126 0.8420868 -1.0122681 1.1233597 -1.564331c0.28128052 -0.5520325 0.7935257 -1.5918579 0.56430817 -1.7480164c-0.22922516 -0.15615845 -2.1583557 0.25897217 -1.9396362 0.81103516c0.21872711 0.5520325 2.2830353 1.8451233 3.2519684 2.5013123c0.96894836 0.65615845 1.5516205 1.3005066 2.561676 1.435669c1.0100708 0.13519287 2.5402527 -0.3123169 3.4986877 -0.6246643c0.9584503 -0.3123169 1.897644 -0.7703247 2.2519684 -1.2493286c0.3543396 -0.4790039 -0.083984375 -0.71829224 -0.12597656 -1.6246948c-0.041992188 -0.9063721 0.14479065 -2.2095337 -0.12599182 -3.8136292c-0.2707672 -1.604126 -0.86351013 -4.3320312 -1.4986877 -5.811035c-0.63516235 -1.4790039 -1.6141663 -2.0734863 -2.3123322 -3.0629883c-0.6981659 -0.98950195 -1.563858 -2.3950195 -1.8766327 -2.8740234" fill-rule="evenodd"/><path fill="#000000" fill-opacity="0.0" d="m131.75066 260.9895c0.5 0.74453735 2.1434784 2.85083 3.0 4.4671936c0.8565216 1.6163635 1.6356049 3.6714783 2.1391144 5.230957c0.50349426 1.5595093 0.6364746 2.9715881 0.8818817 4.126007c0.2454071 1.154419 0.49212646 2.3337708 0.59054565 2.8005066" fill-rule="evenodd"/><path stroke="#000000" stroke-width="1.0" stroke-linejoin="round" stroke-linecap="butt" d="m131.75066 260.9895c0.5 0.74453735 2.1434784 2.85083 3.0 4.4671936c0.8565216 1.6163635 1.6356049 3.6714783 2.1391144 5.230957c0.50349426 1.5595093 0.6364746 2.9715881 0.8818817 4.126007c0.2454071 1.154419 0.49212646 2.3337708 0.59054565 2.8005066" fill-rule="evenodd"/></g></svg>