<svg version="1.1" viewBox="0.0 0.0 143.0 166.0" fill="none" stroke="none" stroke-linecap="square" stroke-miterlimit="10" xmlns:xlink="http://www.w3.org/1999/xlink" xmlns="http://www.w3.org/2000/svg"><clipPath id="p.0"><path d="m0 0l143.0 0l0 166.0l-143.0 0l0 -166.0z" clip-rule="nonzero"/></clipPath><g clip-path="url(#p.0)"><path fill="#000000" fill-opacity="0.0" d="m0 0l143.0 0l0 166.0l-143.0 0z" fill-rule="evenodd"/><g filter="url(#shadowFilter-p.1)"><use xlink:href="#p.1" transform="matrix(1.0 0.0 0.0 1.0 1.0000002624671922 0.0)"/></g><defs><filter id="shadowFilter-p.1" filterUnits="userSpaceOnUse"><feGaussianBlur in="SourceAlpha" stdDeviation="2.5" result="blur"/><feComponentTransfer in="blur" color-interpolation-filters="sRGB"><feFuncR type="linear" slope="0" intercept="0.0"/><feFuncG type="linear" slope="0" intercept="0.0"/><feFuncB type="linear" slope="0" intercept="0.0"/><feFuncA type="linear" slope="0.5" intercept="0"/></feComponentTransfer></filter></defs><g id="p.1"><path fill="#ffffff" d="m4.984252 4.7979l132.0315 0l0 156.69292l-132.0315 0z" fill-rule="evenodd"/></g><path fill="#000000" fill-opacity="0.0" d="m-45.30315 -2.4114618l233.6063 0l0 40.409447l-233.6063 0z" fill-rule="evenodd"/><path fill="#000000" d="m18.469557 23.400412q-1.8125 0 -3.109376 -0.765625q-1.28125 -0.78125 -1.96875 -2.171875q-0.671875 -1.390625 -0.671875 -3.234375l0 -0.3125q0 -1.796874 0.671875 -3.187499q0.671875 -1.390625 1.9375 -2.1875q1.265626 -0.8125 3.015626 -0.8125q1.21875 0 2.265625 0.375q1.0625 0.359375 1.828125 1.015625l0 2.84375l-1.625 0l-0.21875 -1.90625q-0.28125 -0.203125 -0.625 -0.34375q-0.328125 -0.140625 -0.734375 -0.21875q-0.390625 -0.078125 -0.875 -0.078125q-1.109375 0 -1.90625 0.5625q-0.78125095 0.546875 -1.203126 1.5625q-0.40625 1.0 -0.40625 2.359374l0 0.328125q0 1.40625 0.4375 2.421875q0.4375 1.0 1.265626 1.546875q0.828125 0.546875 1.984375 0.546875q0.546875 0 1.09375 -0.125q0.546875 -0.140625 0.96875 -0.359375l0.21875 -1.71875l1.609375 0l0 2.828125q-0.703125 0.46875 -1.734375 0.75q-1.03125 0.28125 -2.21875 0.28125zm9.613861 0q-1.328125 0 -2.28125 -0.578125q-0.9375 -0.59375 -1.453125 -1.640625q-0.5 -1.0625 -0.5 -2.4375l0 -0.171875q0 -1.375 0.5 -2.421875q0.515625 -1.046874 1.453125 -1.640624q0.953125 -0.609375 2.265625 -0.609375q1.3125 0 2.25 0.609375q0.953125 0.59375 1.453125 1.640624q0.5156231 1.046875 0.5156231 2.421875l0 0.171875q0 1.375 -0.5156231 2.4375q-0.5 1.046875 -1.4375 1.640625q-0.9375 0.578125 -2.25 0.578125zm0 -1.640625q0.703125 0 1.15625 -0.375q0.46875 -0.390625 0.6875 -1.0625q0.234375 -0.6875 0.234375 -1.578125l0 -0.171875q0 -0.890625 -0.234375 -1.5625q-0.21875 -0.671875 -0.6875 -1.062499q-0.453125 -0.390625 -1.171875 -0.390625q-0.703125 0 -1.171875 0.390625q-0.46875 0.39062405 -0.703125 1.062499q-0.21875 0.671875 -0.21875 1.5625l0 0.171875q0 0.890625 0.21875 1.578125q0.234375 0.671875 0.703125 1.0625q0.46875 0.375 1.1875 0.375zm6.0062084 -2.953125l0 -1.640625l4.5 0l0 1.640625l-4.5 0zm11.593658 4.59375q-1.234375 0 -2.234375 -0.453125q-0.984375 -0.46875 -1.6875 -1.296875q-0.703125 -0.84375 -1.09375 -1.984375q-0.375 -1.140625 -0.375 -2.5l0 -0.1875q0 -1.359374 0.375 -2.499999q0.390625 -1.140625 1.09375 -1.984375q0.703125 -0.84375 1.6875 -1.296875q1.0 -0.46875 2.21875 -0.46875q1.265625 0 2.265625 0.46875q1.0 0.453125 1.703125 1.296875q0.703125 0.84375 1.0625 1.984375q0.375 1.140625 0.375 2.499999l0 0.1875q0 1.359375 -0.375 2.5q-0.359375 1.140625 -1.0625 1.984375q-0.703125 0.828125 -1.703125 1.296875q-1.0 0.453125 -2.25 0.453125zm0 -1.6875q1.109375 0 1.828125 -0.5625q0.734375 -0.578125 1.078125 -1.59375q0.359375 -1.03125 0.359375 -2.390625l0 -0.203125q0 -1.343749 -0.359375 -2.359374q-0.359375 -1.015625 -1.078125 -1.59375q-0.71875 -0.578125 -1.84375 -0.578125q-1.0625 0 -1.78125 0.578125q-0.71875 0.578125 -1.09375 1.59375q-0.359375 1.015625 -0.359375 2.359374l0 0.203125q0 1.34375 0.359375 2.375q0.375 1.03125 1.09375 1.609375q0.71875 0.5625 1.796875 0.5625zm9.614914 1.515625l-2.25 -7.671874l-1.078125 -0.171875l0 -1.3125l4.15625 0l0 1.3125l-1.03125 0.1875l1.03125 3.968749l0.203125 0.875l0.046875 0l0.296875 -0.875l1.921875 -5.468749l1.546875 0l1.859375 5.515624l0.3125 0.96875l0.046875 0l0.296875 -0.96875l1.109375 -4.015624l-1.09375 -0.1875l0 -1.3125l4.062504 0l0 1.3125l-1.046875 0.171875l-2.3437538 7.671874l-1.875 0l-1.75 -4.9375l-0.359375 -1.203125l-0.046875 0l-0.359375 1.203125l-1.78125 4.9375l-1.875 0zm12.259693 0l0 -1.296875l1.265625 -0.265625l0 -6.031249l-1.328125 -0.25l0 -1.3125l3.296875 0l0.109375 1.328125q0.453125 -0.703125 1.125 -1.09375q0.6875 -0.40625 1.5625 -0.40625q1.40625 0 2.1875 0.875q0.796875 0.859375 0.796875 2.703124l0 4.1875l1.265625 0.265625l0 1.296875l-4.59375 0l0 -1.296875l1.1875 -0.265625l0 -4.171875q0 -1.03125 -0.421875 -1.46875q-0.40625 -0.43749905 -1.21875 -0.43749905q-0.625 0 -1.09375 0.28125q-0.453125 0.26562405 -0.734375 0.76562405l0 5.03125l1.15625 0.265625l0 1.296875l-4.5625 0zm15.427628 0.171875q-1.28125 0 -2.25 -0.578125q-0.953125 -0.578125 -1.484375 -1.59375q-0.53125 -1.03125 -0.53125 -2.34375l0 -0.359375q0 -1.34375 0.515625 -2.375q0.53125 -1.046874 1.4375 -1.640624q0.90625 -0.609375 2.078125 -0.609375q1.25 0 2.09375 0.5q0.84375 0.5 1.265625 1.421875q0.4375 0.92187405 0.4375 2.203124l0 1.21875l-5.625 0l-0.015625 0.046875q0.03125 0.71875 0.296875 1.28125q0.265625 0.546875 0.765625 0.875q0.5 0.3125 1.203125 0.3125q0.75 0 1.359375 -0.203125q0.609375 -0.203125 1.125 -0.5625l0.671875 1.328125q-0.546875 0.453125 -1.390625 0.765625q-0.828125 0.3125 -1.953125 0.3125zm-2.03125 -5.65625l3.546875 0l0 -0.21875q0 -0.59375 -0.1875 -1.046875q-0.171875 -0.453125 -0.5625 -0.70312405q-0.375 -0.265625 -0.96875 -0.265625q-0.515625 0 -0.90625 0.296875q-0.390625 0.28124905 -0.625 0.78124905q-0.234375 0.484375 -0.3125 1.109375l0.015625 0.046875zm6.8970184 5.484375l0 -1.296875l1.265625 -0.265625l0 -6.031249l-1.34375 -0.25l0 -1.3125l3.3125 0l0.109375 1.15625l0.015625 0.1875q0.359375 -0.734375 0.890625 -1.125q0.53125 -0.390625 1.234375 -0.390625q0.234375 0 0.5 0.046875q0.265625 0.046875 0.4375 0.09375l-0.234375 1.968749l-1.203125 -0.062499046q-0.578125 -0.03125 -0.953125 0.23437405q-0.375 0.25 -0.640625 0.71875l0 4.765625l1.28125 0.265625l0 1.296875l-4.671875 0zm11.120834 0.171875q-0.984375 0 -1.84375 -0.1875q-0.84375 -0.1875 -1.6875 -0.5625l-0.03125 -2.421875l1.53125 0l0.328125 1.328125q0.359375 0.15625 0.734375 0.25q0.390625 0.078125 0.875 0.078125q0.90625 0 1.28125 -0.3125q0.375 -0.328125 0.375 -0.796875q0 -0.453125 -0.390625 -0.78125q-0.390625 -0.328125 -1.5 -0.5625q-1.640625 -0.359375 -2.421875 -1.03125q-0.765625 -0.6875 -0.765625 -1.78125q0 -0.74999905 0.390625 -1.359374q0.40625 -0.609375 1.1875 -0.96875q0.78125 -0.375 1.9375 -0.375q1.03125 0 1.84375 0.21875q0.8125 0.203125 1.375 0.5625l0.046875 2.328124l-1.515625 0l-0.265625 -1.203124q-0.25 -0.1875 -0.609375 -0.28125q-0.34375 -0.109375 -0.78125 -0.109375q-0.703125 0 -1.109375 0.3125q-0.40625 0.29687405 -0.40625 0.76562405q0 0.265625 0.125 0.5q0.125 0.21875 0.5 0.40625q0.390625 0.171875 1.109375 0.34375q1.78125 0.40625 2.546875 1.078125q0.78125 0.671875 0.78125 1.765625q0 1.234375 -0.90625 2.015625q-0.890625 0.78125 -2.734375 0.78125zm4.706375 -0.171875l0 -1.296875l1.265625 -0.265625l0 -10.078124l-1.34375 -0.25l0 -1.3125l3.46875 0l0 5.234375q0.453125 -0.640625 1.109375 -1.0q0.65625 -0.359375 1.484375 -0.359375q1.421875 0 2.21875 0.90625q0.8125 0.90625 0.8125 2.781249l0 4.078125l1.265625 0.265625l0 1.296875l-4.59375 0l0 -1.296875l1.203125 -0.265625l0 -4.09375q0 -1.046875 -0.421875 -1.515625q-0.421875 -0.46874905 -1.234375 -0.46874905q-0.59375 0 -1.0625 0.265625q-0.46875 0.24999905 -0.78125 0.71874905l0 5.09375l1.203125 0.265625l0 1.296875l-4.59375 0zm11.160736 0l0 -1.296875l1.28125 -0.265625l0 -6.031249l-1.34375 -0.25l0 -1.3125l3.46875 0l0 7.593749l1.265625 0.265625l0 1.296875l-4.671875 0zm1.203125 -11.234374l0 -1.96875l2.21875 0l0 1.96875l-2.21875 0zm4.2932587 14.749999l0 -1.3125l1.234375 -0.25l0 -9.546874l-1.34375 -0.25l0 -1.3125l3.25 0l0.140625 1.078125q0.421875 -0.59375 1.03125 -0.921875q0.609375 -0.328125 1.4375 -0.328125q1.109375 0 1.90625 0.609375q0.796875 0.609375 1.21875 1.703124q0.421875 1.09375 0.421875 2.5625l0 0.171875q0 1.34375 -0.421875 2.34375q-0.421875 1.0 -1.21875 1.5625q-0.796875 0.546875 -1.90625 0.546875q-0.796875 0 -1.390625 -0.265625q-0.578125 -0.28125 -1.0 -0.8125l0 2.859375l1.296875 0.25l0 1.3125l-4.65625 0zm5.109375 -4.984375q1.046875 0 1.546875 -0.765625q0.5 -0.78125 0.5 -2.046875l0 -0.171875q0 -0.953125 -0.21875 -1.671875q-0.21875 -0.71875 -0.6875 -1.109374q-0.453125 -0.40625 -1.15625 -0.40625q-0.59375 0 -1.03125 0.265625q-0.4375 0.26562405 -0.703125 0.74999905l0 4.203125q0.265625 0.453125 0.6875 0.703125q0.4375 0.25 1.0625 0.25z" fill-rule="nonzero"/><path fill="#000000" fill-opacity="0.0" d="m9.772845 92.83554l0 0c0 -32.954437 26.714851 -59.66929 59.669292 -59.66929l0 0c15.825279 0 31.002396 6.2865677 42.19256 17.47673c11.190163 11.190163 17.476738 26.36728 17.476738 42.19256l0 0c0 32.954437 -26.714859 59.669296 -59.669296 59.669296l0 0c-32.95444 0 -59.669292 -26.714859 -59.669292 -59.669296z" fill-rule="evenodd"/><path stroke="#000000" stroke-width="1.0" stroke-linejoin="round" stroke-linecap="butt" d="m9.772845 92.83554l0 0c0 -32.954437 26.714851 -59.66929 59.669292 -59.66929l0 0c15.825279 0 31.002396 6.2865677 42.19256 17.47673c11.190163 11.190163 17.476738 26.36728 17.476738 42.19256l0 0c0 32.954437 -26.714859 59.669296 -59.669296 59.669296l0 0c-32.95444 0 -59.669292 -26.714859 -59.669292 -59.669296z" fill-rule="evenodd"/><path fill="#000000" d="m33.31951 116.088875l0 -1.40625l0.96875 -0.140625l4.390625 -11.71875l2.234375 0l4.328125 11.71875l0.96875 0.140625l0 1.40625l-4.21875 0l0 -1.40625l0.953125 -0.171875l-0.703125 -2.078125l-4.9375 0l-0.71875 2.078125l0.953125 0.171875l0 1.40625l-4.21875 0zm4.578125 -5.421875l3.75 0l-1.71875 -4.90625l-0.125 -0.359375l-0.046875 0l-0.140625 0.375l-1.71875 4.890625zm9.27742 5.421875l0 -1.40625l1.390625 -0.265625l0 -10.859375l-1.46875 -0.265625l0 -1.40625l3.75 0l0 12.53125l1.375 0.265625l0 1.40625l-5.046875 0zm5.9485016 0l0 -1.40625l1.390625 -0.265625l0 -10.859375l-1.46875 -0.265625l0 -1.40625l3.75 0l0 12.53125l1.375 0.265625l0 1.40625l-5.046875 0zm15.267548 0.1875q-1.40625 0 -2.4375 -0.625q-1.015625 -0.640625 -1.5625 -1.78125q-0.546875 -1.140625 -0.546875 -2.609375l0 -0.1875q0 -1.46875 0.546875 -2.59375q0.546875 -1.140625 1.5625 -1.78125q1.03125 -0.640625 2.421875 -0.640625q1.421875 0 2.4375 0.640625q1.03125 0.640625 1.578125 1.765625q0.546875 1.125 0.546875 2.609375l0 0.1875q0 1.46875 -0.546875 2.609375q-0.546875 1.140625 -1.5625 1.78125q-1.015625 0.625 -2.4375 0.625zm0 -1.765625q0.765625 0 1.265625 -0.40625q0.5 -0.421875 0.734375 -1.15625q0.25 -0.734375 0.25 -1.6875l0 -0.1875q0 -0.953125 -0.25 -1.671875q-0.234375 -0.734375 -0.734375 -1.15625q-0.5 -0.421875 -1.28125 -0.421875q-0.75 0 -1.25 0.421875q-0.5 0.421875 -0.75 1.15625q-0.234375 0.71875 -0.234375 1.671875l0 0.1875q0 0.953125 0.234375 1.6875q0.25 0.734375 0.75 1.15625q0.515625 0.40625 1.265625 0.40625zm5.8874207 1.578125l0 -1.40625l1.375 -0.265625l0 -6.546875l-1.5 0l0 -1.640625l1.5 0l0 -1.15625q0 -1.625 0.890625 -2.5q0.90625 -0.890625 2.515625 -0.890625q0.375 0 0.796875 0.0625q0.4375 0.0625 0.78125 0.15625l-0.21875 1.71875q-0.203125 -0.046875 -0.484375 -0.078125q-0.28125 -0.03125 -0.546875 -0.03125q-0.734375 0 -1.09375 0.40625q-0.359375 0.390625 -0.359375 1.15625l0 1.15625l2.203125 0l0 1.640625l-2.203125 0l0 6.546875l1.71875 0.265625l0 1.40625l-5.375 0zm11.50264 0l0 -1.40625l1.453125 -0.265625l0 -9.90625l-1.453125 -0.265625l0 -1.421875l5.1875 0l0 1.421875l-1.4375 0.265625l0 9.90625l1.4375 0.265625l0 1.40625l-5.1875 0zm9.551109 0l0 -1.40625l1.453125 -0.265625l0 -9.828125l-2.671875 0l-0.203125 1.6875l-1.71875 0l0 -3.453125l11.484375 0l0 3.453125l-1.734375 0l-0.1875 -1.6875l-2.671875 0l0 9.828125l1.453125 0.265625l0 1.40625l-5.203125 0z" fill-rule="nonzero"/><path fill="#ffffff" d="m38.762157 57.38845l25.440945 -23.923885l-1.6666679 -3.635168l-30.816273 8.902887l-18.46719 21.299213l-3.5170603 13.188976l-3.2257218 11.87664l3.7874017 -0.45407104z" fill-rule="evenodd"/><path fill="#ffffff" d="m64.41002 32.945744c0.39115906 0.9673233 2.2004929 3.6992073 2.3469467 5.803932c0.14644623 2.1047287 -0.34576416 4.9613 -1.4682388 6.8244286c-1.1224823 1.8631287 -4.269779 3.4411278 -5.2666397 4.354347c-0.9968605 0.91321945 -0.6147194 0.9374733 -0.71453094 1.1249695c-0.099811554 0.18749237 -0.34451675 -0.46578217 0.11566925 0c0.460186 0.46578217 2.107212 1.3127708 2.645443 2.794693c0.5382309 1.4819221 0.68126297 4.234638 0.5839386 6.096836c-0.09732437 1.8621979 -0.2897911 3.649456 -1.1678772 5.0763435c-0.8780823 1.4268875 -2.5627365 2.6379852 -4.100624 3.48497c-1.5378914 0.8469925 -3.589138 1.3553696 -5.1267166 1.5969696c-1.5375786 0.24160004 -3.2809982 -0.125 -4.0987587 -0.14738464c-0.8177643 -0.022384644 -0.7546425 0.012748718 -0.80781174 0.013061523c-0.05316925 3.1280518E-4 0.427536 -0.13028717 0.48879242 -0.011192322c0.061252594 0.11908722 -0.29570007 -0.024253845 -0.12126541 0.72572327c0.17443466 0.7499771 1.0944939 2.3954544 1.1678734 3.7741394c0.07338333 1.3786926 0.028606415 3.240265 -0.72758865 4.498001c-0.7561989 1.2577362 -2.4181519 2.0807877 -3.8095894 3.0484238c-1.3914413 0.9676285 -3.0502853 2.2253647 -4.5390472 2.7573776c-1.4887619 0.53201294 -3.0751572 0.70022583 -4.393528 0.43469238c-1.318367 -0.26554108 -2.4672775 -1.2543182 -3.5166855 -2.0279312c-1.0494099 -0.77360535 -2.363737 -2.2113724 -2.77977 -2.6137238c-0.4160328 -0.40235138 0.13992119 0.08488464 0.28357315 0.19961548c0.14365387 0.114738464 0.5338783 0.4443283 0.57834244 0.48879242c0.04446411 0.04446411 -0.31435776 -0.25247955 -0.31155777 -0.22200775c0.0027980804 0.030471802 0.88368034 -0.14582825 0.32834816 0.40483856c-0.5553322 0.5506668 -2.4644794 2.076744 -3.6603413 2.89917c-1.1958599 0.82242584 -2.2940865 1.5997696 -3.514822 2.0353851c-1.2207336 0.43562317 -2.3208275 0.45801544 -3.8095894 0.57834625c-1.4887619 0.12033081 -3.658474 0.5065155 -5.122983 0.14365387c-1.464509 -0.36286163 -3.0533934 -1.9340286 -3.664071 -2.3208313" fill-rule="evenodd"/><path stroke="#000000" stroke-width="1.0" stroke-linejoin="round" stroke-linecap="butt" d="m64.41002 32.945744c0.39115906 0.9673233 2.2004929 3.6992073 2.3469467 5.803932c0.14644623 2.1047287 -0.34576416 4.9613 -1.4682388 6.8244286c-1.1224823 1.8631287 -4.269779 3.4411278 -5.2666397 4.354347c-0.9968605 0.91321945 -0.6147194 0.9374733 -0.71453094 1.1249695c-0.099811554 0.18749237 -0.34451675 -0.46578217 0.11566925 0c0.460186 0.46578217 2.107212 1.3127708 2.645443 2.794693c0.5382309 1.4819221 0.68126297 4.234638 0.5839386 6.096836c-0.09732437 1.8621979 -0.2897911 3.649456 -1.1678772 5.0763435c-0.8780823 1.4268875 -2.5627365 2.6379852 -4.100624 3.48497c-1.5378914 0.8469925 -3.589138 1.3553696 -5.1267166 1.5969696c-1.5375786 0.24160004 -3.2809982 -0.125 -4.0987587 -0.14738464c-0.8177643 -0.022384644 -0.7546425 0.012748718 -0.80781174 0.013061523c-0.05316925 3.1280518E-4 0.427536 -0.13028717 0.48879242 -0.011192322c0.061252594 0.11908722 -0.29570007 -0.024253845 -0.12126541 0.72572327c0.17443466 0.7499771 1.0944939 2.3954544 1.1678734 3.7741394c0.07338333 1.3786926 0.028606415 3.240265 -0.72758865 4.498001c-0.7561989 1.2577362 -2.4181519 2.0807877 -3.8095894 3.0484238c-1.3914413 0.9676285 -3.0502853 2.2253647 -4.5390472 2.7573776c-1.4887619 0.53201294 -3.0751572 0.70022583 -4.393528 0.43469238c-1.318367 -0.26554108 -2.4672775 -1.2543182 -3.5166855 -2.0279312c-1.0494099 -0.77360535 -2.363737 -2.2113724 -2.77977 -2.6137238c-0.4160328 -0.40235138 0.13992119 0.08488464 0.28357315 0.19961548c0.14365387 0.114738464 0.5338783 0.4443283 0.57834244 0.48879242c0.04446411 0.04446411 -0.31435776 -0.25247955 -0.31155777 -0.22200775c0.0027980804 0.030471802 0.88368034 -0.14582825 0.32834816 0.40483856c-0.5553322 0.5506668 -2.4644794 2.076744 -3.6603413 2.89917c-1.1958599 0.82242584 -2.2940865 1.5997696 -3.514822 2.0353851c-1.2207336 0.43562317 -2.3208275 0.45801544 -3.8095894 0.57834625c-1.4887619 0.12033081 -3.658474 0.5065155 -5.122983 0.14365387c-1.464509 -0.36286163 -3.0533934 -1.9340286 -3.664071 -2.3208313" fill-rule="evenodd"/><path fill="#000000" fill-opacity="0.0" d="m-14.594723 57.058323l77.33667 5.013672l-1.8424034 27.716671l-77.33667 -5.0136642z" fill-rule="evenodd"/><path fill="#999999" d="m21.296923 74.952286l0.6933136 -0.06465912q0.035425186 0.40940094 0.28494835 0.66044617q0.25055885 0.23545074 0.73391914 0.26678467q0.4833603 0.031341553 0.729681 -0.14058685q0.24735641 -0.18751526 0.2649746 -0.4525528q0.016580582 -0.24945068 -0.17782784 -0.38732147q-0.1341114 -0.102638245 -0.7006626 -0.2959442q-0.7671776 -0.23763275 -1.054102 -0.39714813q-0.28692627 -0.15952301 -0.42626762 -0.41908264q-0.13830566 -0.27514648 -0.1186142 -0.571373q0.01865387 -0.28063202 0.15893745 -0.50640106q0.15587616 -0.22476196 0.38453102 -0.3665161q0.16421318 -0.114616394 0.45005608 -0.17437744q0.2868786 -0.0753479 0.61431694 -0.054115295q0.4833603 0.031333923 0.8482475 0.1959076q0.36488724 0.16457367 0.51982117 0.425148q0.15596962 0.24497223 0.1913929 0.65437317l-0.6922779 0.049064636q-0.02501297 -0.33042908 -0.23190498 -0.51608276q-0.20585632 -0.20123291 -0.6268463 -0.22853088q-0.4833603 -0.031333923 -0.6974602 0.12702179q-0.21306229 0.14276886 -0.22757149 0.36103058q-0.0082912445 0.12472534 0.062416077 0.23891449q0.0852623 0.13079071 0.26822472 0.20528412q0.090444565 0.052841187 0.59566116 0.2265091q0.73495674 0.25119781 1.0229187 0.39512634q0.28796196 0.14393616 0.4273033 0.4034958q0.15596962 0.24497223 0.13213348 0.6035614q-0.022798538 0.3429947 -0.24622536 0.6416626q-0.22342682 0.29867554 -0.6246338 0.4449005q-0.3856144 0.14723206 -0.88456726 0.11489105q-0.79520607 -0.05155945 -1.2100258 -0.4072647q-0.39819145 -0.37028503 -0.46380997 -1.0321655z" fill-rule="nonzero"/><path fill="#000000" fill-opacity="0.0" d="m-12.411208 70.724106l73.9144 -23.362598l8.353867 26.494099l-73.91439 23.362602z" fill-rule="evenodd"/><path fill="#999999" d="m26.918434 75.88065l-1.2498512 -3.9638748l0.59593964 -0.18836212l0.17855072 0.5662689q0.09970665 -0.35925293 0.34129143 -0.63225555q0.256485 -0.27770996 0.6587448 -0.40486145q0.43205643 -0.13655853 0.7762108 -0.032310486q0.33945656 0.08934784 0.56201553 0.3795166q0.24101448 -0.8463669 1.0008373 -1.086525q0.58104134 -0.18365479 0.997282 0.045295715q0.431139 0.22423553 0.64727783 0.9097214l0.85516167 2.71212l-0.67043304 0.21191406l-0.7846813 -2.4886017q-0.12686348 -0.40234375 -0.25774002 -0.5576248q-0.11598015 -0.15998077 -0.32765198 -0.20778656q-0.20147324 -0.06741333 -0.42495155 0.0032196045q-0.41715622 0.1318512 -0.6109543 0.5044632q-0.17889786 0.36789703 0.013750076 0.9788666l0.7235966 2.294876l-0.67043114 0.21190643l-0.81287384 -2.5780106q-0.1409607 -0.447052 -0.37532425 -0.6187744q-0.23436356 -0.17173004 -0.6068268 -0.054000854q-0.28307152 0.08946991 -0.4893589 0.31854248q-0.19138908 0.22436523 -0.20170593 0.5553589q-0.015012741 0.31610107 0.15413857 0.85256195l0.64842033 2.05645l-0.67043304 0.21190643z" fill-rule="nonzero"/><path fill="#000000" fill-opacity="0.0" d="m-6.855958 73.60386l70.344986 -32.52743l11.638222 25.249264l-70.344986 32.527428z" fill-rule="evenodd"/><path fill="#999999" d="m36.041912 71.688225q-0.21719742 0.46193695 -0.48452377 0.7404785q-0.26732635 0.27854156 -0.65024567 0.45560455q-0.60983276 0.28199005 -1.0875626 0.14138794q-0.47008514 -0.16135406 -0.68592834 -0.62963104q-0.13081741 -0.28380585 -0.12200928 -0.5633087q0.022987366 -0.28606415 0.16267395 -0.5055847q0.14732361 -0.2402649 0.36990356 -0.42926025q0.15820312 -0.14201355 0.52150345 -0.36164093q0.7342377 -0.46001434 1.0299263 -0.75167084q-0.044685364 -0.13426971 -0.05776596 -0.16265106q-0.1831398 -0.3973236 -0.43945694 -0.46816254q-0.3392105 -0.101371765 -0.8214035 0.12159729q-0.45383072 0.20985413 -0.59461594 0.4643097q-0.14078522 0.25445557 -0.07110596 0.7042465l-0.6632614 0.20340729q-0.09804535 -0.43667603 -0.010688782 -0.76971436q0.08082199 -0.34723663 0.39068985 -0.6454468q0.30333328 -0.31240845 0.7855263 -0.5353775q0.4821968 -0.22296143 0.83234787 -0.24715424q0.3643341 -0.03075409 0.5911865 0.088142395q0.22031021 0.10469818 0.39477158 0.33389282q0.106853485 0.15716553 0.30307388 0.5828705l0.3924446 0.8514099q0.4055252 0.87978363 0.5592613 1.1013412q0.15373993 0.22156525 0.36530685 0.38195038l-0.66656494 0.3082199q-0.19084549 -0.15275574 -0.34348297 -0.40925598zm-0.71079636 -1.3927841q-0.2749672 0.29929352 -0.9241104 0.71995544q-0.37094116 0.24037933 -0.50842285 0.3900299q-0.12330246 0.14308167 -0.1429863 0.3243332q-0.026229858 0.16706085 0.052261353 0.3373413q0.11772919 0.25541687 0.38058853 0.34044647q0.27703857 0.07847595 0.64577866 -0.09202576q0.36873627 -0.17050934 0.5804329 -0.45775604q0.21933746 -0.30799866 0.21616364 -0.6508179q0.0011634827 -0.25875854 -0.19505692 -0.6844635l-0.10464859 -0.22704315z" fill-rule="nonzero"/><path fill="#000000" fill-opacity="0.0" d="m-1.2128086 83.29767l58.247986 -51.1463l18.30793 20.89772l-58.247986 51.1463z" fill-rule="evenodd"/><path fill="#999999" d="m38.68264 70.58579l-3.778736 -4.313263l0.52835083 -0.46393585l3.778736 4.313263l-0.52835083 0.46393585z" fill-rule="nonzero"/><path fill="#000000" fill-opacity="0.0" d="m0.48978025 81.63464l58.247986 -51.146305l18.307934 20.897724l-58.24799 51.1463z" fill-rule="evenodd"/><path fill="#999999" d="m40.38523 68.92277l-3.778736 -4.3132706l0.528347 -0.46392822l3.778736 4.313263l-0.528347 0.46393585z" fill-rule="nonzero"/><path fill="#000000" fill-opacity="0.0" d="m6.4629035 79.44885l54.41401 -55.207176l19.764965 19.525217l-54.41401 55.20718z" fill-rule="evenodd"/><path fill="#999999" d="m44.86226 64.381645l-0.4496994 0.45625305l-4.079487 -4.029999l0.49357605 -0.50077057l1.4561653 1.4385033q-0.093055725 -0.70690536 0.38954926 -1.1965446q0.27420807 -0.27820587 0.626667 -0.41321564q0.35246277 -0.13500977 0.70610046 -0.09315109q0.3536415 0.041862488 0.71928406 0.22735977q0.36563873 0.18549728 0.6879959 0.5039444q0.7558708 0.7467041 0.80534744 1.5423393q0.038360596 0.7846527 -0.47714996 1.3076782q-0.51551056 0.5230217 -1.2451706 0.39522934l0.3668213 0.36237335zm-1.5006294 -1.4824295q0.5335579 0.52708435 0.9095764 0.61301804q0.6193886 0.1506424 1.0142479 -0.2499733q0.32904816 -0.33384705 0.2814865 -0.8420601q-0.047706604 -0.53032684 -0.61460876 -1.0903549q-0.5780182 -0.5710068 -1.0862503 -0.6118393q-0.49725723 -0.051956177 -0.8263092 0.28188705q-0.3180809 0.32271957 -0.2703743 0.8530426q0.058677673 0.51919556 0.59223175 1.0462799z" fill-rule="nonzero"/><path fill="#000000" fill-opacity="0.0" d="m13.917208 84.82623l39.451233 -66.70531l23.886276 14.22245l-39.451233 66.70531z" fill-rule="evenodd"/><path fill="#999999" d="m43.649582 57.84782l-0.69812393 -0.41567993l0.35793304 -0.6052017l0.6981201 0.41567993l-0.35792923 0.6052017zm4.229004 2.5180473l-3.5711594 -2.1263504l0.35793304 -0.6052017l3.5711594 2.1263504l-0.35793304 0.6052017z" fill-rule="nonzero"/><path fill="#000000" fill-opacity="0.0" d="m32.92156 84.76817l6.777981 -77.203255l27.702774 2.4919577l-6.777977 77.203255z" fill-rule="evenodd"/><path fill="#999999" d="m51.6479 49.303257l-0.04880905 -0.694664q0.41008377 -0.025867462 0.66674805 -0.26947403q0.24110031 -0.24501038 0.28346252 -0.7275276q0.042362213 -0.48252106 -0.12388611 -0.7327957q-0.18181229 -0.25167465 -0.44636917 -0.27547455q-0.24899292 -0.022396088 -0.39125824 0.16875076q-0.10567093 0.13168716 -0.31185532 0.6935997q-0.25506973 0.76145554 -0.4210968 1.0445938q-0.16602325 0.2831421 -0.42868423 0.41639328q-0.27822113 0.13185501 -0.57390213 0.10525513q-0.28012085 -0.025196075 -0.5026207 -0.17071533q-0.22113419 -0.16108322 -0.35762405 -0.39299393q-0.110832214 -0.16685104 -0.16404724 -0.45402145q-0.06877518 -0.28857422 -0.04007721 -0.61544037q0.042362213 -0.48252106 0.21521759 -0.843483q0.17285538 -0.36096573 0.43688202 -0.5097847q0.24846649 -0.15021896 0.65855026 -0.17608261l0.033245087 0.6932678q-0.3309059 0.017295837 -0.52122116 0.21981049q-0.20587921 0.20111465 -0.24277496 0.6213722q-0.042362213 0.48251724 0.11105728 0.700264q0.13785934 0.21634293 0.35572815 0.23594284q0.12449646 0.011199951 0.2402649 -0.056827545q0.13269806 -0.08219147 0.21134567 -0.26337433q0.054885864 -0.08919144 0.24003983 -0.5902405q0.26790237 -0.7289276 0.41836166 -1.0134659q0.1504631 -0.28453827 0.41312408 -0.41779327q0.24846649 -0.15021896 0.6063957 -0.118019104q0.34236908 0.030796051 0.635849 0.26113892q0.2934761 0.23034668 0.43050003 0.63487244q0.13838577 0.3889618 0.0946579 0.8870468q-0.06969452 0.7938194 -0.43476105 1.2002449q-0.37926483 0.38946152 -1.0424423 0.4396248z" fill-rule="nonzero"/><path fill="#000000" fill-opacity="0.0" d="m17.463673 84.20469l34.63648 -69.331726l24.867844 12.460808l-34.63648 69.331726z" fill-rule="evenodd"/><path fill="#999999" d="m49.656982 55.928543l0.59368896 0.17514801q-0.06283188 0.30057907 -0.16757584 0.5102463q-0.1745758 0.34944153 -0.38409042 0.48913574q-0.20253372 0.12570953 -0.4120636 0.12557983q-0.2165184 -0.02110672 -0.7892647 -0.30809784l-2.1373138 -1.0709724l-0.23043823 0.46126938l-0.48892975 -0.24499512l0.23043823 -0.46126556l-0.9080086 -0.45498657l-0.062942505 -0.817997l1.2851868 0.64398193l0.31423187 -0.6290016l0.48892975 0.24499512l-0.3142357 0.6290016l2.179226 1.0919685q0.265419 0.1329956 0.36320114 0.1470375q0.09079361 -0.0069351196 0.1676178 -0.05582428q0.07682419 -0.04888916 0.14665222 -0.1886673q0.05586624 -0.11182022 0.12569046 -0.28655624z" fill-rule="nonzero"/><path fill="#000000" fill-opacity="0.0" d="m26.207014 86.47473l18.383749 -75.27495l27.039074 6.648058l-18.38375 75.27495z" fill-rule="evenodd"/><path fill="#999999" d="m50.683174 51.410534l0.26156235 -0.6758461q0.5813217 0.3199234 0.8190918 0.8610954q0.22630692 0.52225876 0.052078247 1.2356682q-0.21500778 0.8803749 -0.8872795 1.2621536q-0.6722679 0.38178253 -1.6585236 0.13929367q-1.0165977 -0.24995041 -1.4519653 -0.9040642q-0.4316635 -0.66929245 -0.22777557 -1.5041313q0.19647217 -0.8044815 0.88391495 -1.1825333q0.6722717 -0.38177872 1.6736984 -0.13555908q0.060691833 0.014919281 0.17836761 0.059944153l-0.7339859 3.0054207q0.6635666 0.11487961 1.1092758 -0.12952423q0.43053436 -0.2481308 0.55657196 -0.76421356q0.088970184 -0.36429214 -0.045261383 -0.6708298q-0.13052368 -0.32172012 -0.5297699 -0.59687424zm-1.6411018 1.9778748l0.5486374 -2.246479q-0.52700806 -0.08130264 -0.8368492 0.067783356q-0.47234726 0.2217598 -0.60209274 0.75302124q-0.114917755 0.47054672 0.12586975 0.86764526q0.24079132 0.39709854 0.7644348 0.5580292z" fill-rule="nonzero"/></g></svg>