<svg version="1.1" viewBox="0.0 0.0 217.00787401574803 264.501312335958" fill="none" stroke="none" stroke-linecap="square" stroke-miterlimit="10" xmlns:xlink="http://www.w3.org/1999/xlink" xmlns="http://www.w3.org/2000/svg"><clipPath id="p.0"><path d="m0 0l217.00787 0l0 264.5013l-217.00787 0l0 -264.5013z" clip-rule="nonzero"/></clipPath><g clip-path="url(#p.0)"><path fill="#000000" fill-opacity="0.0" d="m0 0l217.00787 0l0 264.5013l-217.00787 0z" fill-rule="evenodd"/><g filter="url(#shadowFilter-p.1)"><use xlink:href="#p.1" transform="matrix(1.0 0.0 0.0 1.0 1.0000002624671922 0.0)"/></g><defs><filter id="shadowFilter-p.1" filterUnits="userSpaceOnUse"><feGaussianBlur in="SourceAlpha" stdDeviation="2.5" result="blur"/><feComponentTransfer in="blur" color-interpolation-filters="sRGB"><feFuncR type="linear" slope="0" intercept="0.0"/><feFuncG type="linear" slope="0" intercept="0.0"/><feFuncB type="linear" slope="0" intercept="0.0"/><feFuncA type="linear" slope="0.5" intercept="0"/></feComponentTransfer></filter></defs><g id="p.1"><path fill="#ffffff" d="m4.984252 4.7979l132.0315 0l0 156.69292l-132.0315 0z" fill-rule="evenodd"/></g><path fill="#000000" fill-opacity="0.0" d="m-45.002625 -1.7028005l233.6063 0l0 40.40945l-233.6063 0z" fill-rule="evenodd"/><path fill="#000000" d="m18.77008 24.109074q-1.8125 0 -3.109375 -0.765625q-1.28125 -0.78125 -1.96875 -2.171875q-0.671875 -1.390625 -0.671875 -3.234375l0 -0.3125q0 -1.796875 0.671875 -3.1875q0.671875 -1.390625 1.9375 -2.1875q1.265625 -0.8125 3.015625 -0.8125q1.21875 0 2.265625 0.375q1.0625 0.359375 1.828125 1.015625l0 2.84375l-1.625 0l-0.21875 -1.90625q-0.28125 -0.203125 -0.625 -0.34375q-0.328125 -0.140625 -0.734375 -0.21875q-0.390625 -0.078125 -0.875 -0.078125q-1.109375 0 -1.90625 0.5625q-0.78125 0.546875 -1.203125 1.5625q-0.40625 1.0 -0.40625 2.359375l0 0.328125q0 1.40625 0.4375 2.421875q0.4375 1.0 1.265625 1.546875q0.828125 0.546875 1.984375 0.546875q0.546875 0 1.09375 -0.125q0.546875 -0.140625 0.96875 -0.359375l0.21875 -1.71875l1.609375 0l0 2.828125q-0.703125 0.46875 -1.734375 0.75q-1.03125 0.28125 -2.21875 0.28125zm9.613861 0q-1.328125 0 -2.28125 -0.578125q-0.9375 -0.59375 -1.453125 -1.640625q-0.5 -1.0625 -0.5 -2.4375l0 -0.171875q0 -1.375 0.5 -2.421875q0.515625 -1.046875 1.453125 -1.640625q0.953125 -0.609375 2.265625 -0.609375q1.3125 0 2.25 0.609375q0.953125 0.59375 1.453125 1.640625q0.515625 1.046875 0.515625 2.421875l0 0.171875q0 1.375 -0.515625 2.4375q-0.5 1.046875 -1.4375 1.640625q-0.9375 0.578125 -2.25 0.578125zm0 -1.640625q0.703125 0 1.15625 -0.375q0.46875 -0.390625 0.6875 -1.0625q0.234375 -0.6875 0.234375 -1.578125l0 -0.171875q0 -0.890625 -0.234375 -1.5625q-0.21875 -0.671875 -0.6875 -1.0625q-0.453125 -0.390625 -1.171875 -0.390625q-0.703125 0 -1.171875 0.390625q-0.46875 0.390625 -0.703125 1.0625q-0.21875 0.671875 -0.21875 1.5625l0 0.171875q0 0.890625 0.21875 1.578125q0.234375 0.671875 0.703125 1.0625q0.46875 0.375 1.1875 0.375zm6.0062103 -2.953125l0 -1.640625l4.5 0l0 1.640625l-4.5 0zm11.593658 4.59375q-1.234375 0 -2.234375 -0.453125q-0.984375 -0.46875 -1.6875 -1.296875q-0.703125 -0.84375 -1.09375 -1.984375q-0.375 -1.140625 -0.375 -2.5l0 -0.1875q0 -1.359375 0.375 -2.5q0.390625 -1.140625 1.09375 -1.984375q0.703125 -0.84375 1.6875 -1.296875q1.0 -0.46875 2.21875 -0.46875q1.265625 0 2.265625 0.46875q1.0 0.453125 1.703125 1.296875q0.703125 0.84375 1.0625 1.984375q0.375 1.140625 0.375 2.5l0 0.1875q0 1.359375 -0.375 2.5q-0.359375 1.140625 -1.0625 1.984375q-0.703125 0.828125 -1.703125 1.296875q-1.0 0.453125 -2.25 0.453125zm0 -1.6875q1.109375 0 1.828125 -0.5625q0.734375 -0.578125 1.078125 -1.59375q0.359375 -1.03125 0.359375 -2.390625l0 -0.203125q0 -1.34375 -0.359375 -2.359375q-0.359375 -1.015625 -1.078125 -1.59375q-0.71875 -0.578125 -1.84375 -0.578125q-1.0625 0 -1.78125 0.578125q-0.71875 0.578125 -1.09375 1.59375q-0.359375 1.015625 -0.359375 2.359375l0 0.203125q0 1.34375 0.359375 2.375q0.375 1.03125 1.09375 1.609375q0.71875 0.5625 1.796875 0.5625zm9.614914 1.515625l-2.25 -7.671875l-1.078125 -0.171875l0 -1.3125l4.15625 0l0 1.3125l-1.03125 0.1875l1.03125 3.96875l0.203125 0.875l0.046875 0l0.296875 -0.875l1.921875 -5.46875l1.546875 0l1.859375 5.515625l0.3125 0.96875l0.046875 0l0.296875 -0.96875l1.109375 -4.015625l-1.09375 -0.1875l0 -1.3125l4.0625 0l0 1.3125l-1.046875 0.171875l-2.34375 7.671875l-1.875 0l-1.75 -4.9375l-0.359375 -1.203125l-0.046875 0l-0.359375 1.203125l-1.78125 4.9375l-1.875 0zm12.259689 0l0 -1.296875l1.265625 -0.265625l0 -6.03125l-1.328125 -0.25l0 -1.3125l3.296875 0l0.109375 1.328125q0.453125 -0.703125 1.125 -1.09375q0.6875 -0.40625 1.5625 -0.40625q1.40625 0 2.1875 0.875q0.796875 0.859375 0.796875 2.703125l0 4.1875l1.265625 0.265625l0 1.296875l-4.59375 0l0 -1.296875l1.1875 -0.265625l0 -4.171875q0 -1.03125 -0.421875 -1.46875q-0.40625 -0.4375 -1.21875 -0.4375q-0.625 0 -1.09375 0.28125q-0.453125 0.265625 -0.734375 0.765625l0 5.03125l1.15625 0.265625l0 1.296875l-4.5625 0zm15.427628 0.171875q-1.28125 0 -2.25 -0.578125q-0.953125 -0.578125 -1.484375 -1.59375q-0.53125 -1.03125 -0.53125 -2.34375l0 -0.359375q0 -1.34375 0.515625 -2.375q0.53125 -1.046875 1.4375 -1.640625q0.90625 -0.609375 2.078125 -0.609375q1.25 0 2.09375 0.5q0.84375 0.5 1.265625 1.421875q0.4375 0.921875 0.4375 2.203125l0 1.21875l-5.625 0l-0.015625 0.046875q0.03125 0.71875 0.296875 1.28125q0.265625 0.546875 0.765625 0.875q0.5 0.3125 1.203125 0.3125q0.75 0 1.359375 -0.203125q0.609375 -0.203125 1.125 -0.5625l0.671875 1.328125q-0.546875 0.453125 -1.390625 0.765625q-0.828125 0.3125 -1.953125 0.3125zm-2.03125 -5.65625l3.546875 0l0 -0.21875q0 -0.59375 -0.1875 -1.046875q-0.171875 -0.453125 -0.5625 -0.703125q-0.375 -0.265625 -0.96875 -0.265625q-0.515625 0 -0.90625 0.296875q-0.390625 0.28125 -0.625 0.78125q-0.234375 0.484375 -0.3125 1.109375l0.015625 0.046875zm6.8970184 5.484375l0 -1.296875l1.265625 -0.265625l0 -6.03125l-1.34375 -0.25l0 -1.3125l3.3125 0l0.109375 1.15625l0.015625 0.1875q0.359375 -0.734375 0.890625 -1.125q0.53125 -0.390625 1.234375 -0.390625q0.234375 0 0.5 0.046875q0.265625 0.046875 0.4375 0.09375l-0.234375 1.96875l-1.203125 -0.0625q-0.578125 -0.03125 -0.953125 0.234375q-0.375 0.25 -0.640625 0.71875l0 4.765625l1.28125 0.265625l0 1.296875l-4.671875 0zm11.120834 0.171875q-0.984375 0 -1.84375 -0.1875q-0.84375 -0.1875 -1.6875 -0.5625l-0.03125 -2.421875l1.53125 0l0.328125 1.328125q0.359375 0.15625 0.734375 0.25q0.390625 0.078125 0.875 0.078125q0.90625 0 1.28125 -0.3125q0.375 -0.328125 0.375 -0.796875q0 -0.453125 -0.390625 -0.78125q-0.390625 -0.328125 -1.5 -0.5625q-1.640625 -0.359375 -2.421875 -1.03125q-0.765625 -0.6875 -0.765625 -1.78125q0 -0.75 0.390625 -1.359375q0.40625 -0.609375 1.1875 -0.96875q0.78125 -0.375 1.9375 -0.375q1.03125 0 1.84375 0.21875q0.8125 0.203125 1.375 0.5625l0.046875 2.328125l-1.515625 0l-0.265625 -1.203125q-0.25 -0.1875 -0.609375 -0.28125q-0.34375 -0.109375 -0.78125 -0.109375q-0.703125 0 -1.109375 0.3125q-0.40625 0.296875 -0.40625 0.765625q0 0.265625 0.125 0.5q0.125 0.21875 0.5 0.40625q0.390625 0.171875 1.109375 0.34375q1.78125 0.40625 2.546875 1.078125q0.78125 0.671875 0.78125 1.765625q0 1.234375 -0.90625 2.015625q-0.890625 0.78125 -2.734375 0.78125zm4.706375 -0.171875l0 -1.296875l1.265625 -0.265625l0 -10.078125l-1.34375 -0.25l0 -1.3125l3.46875 0l0 5.234375q0.453125 -0.640625 1.109375 -1.0q0.65625 -0.359375 1.484375 -0.359375q1.421875 0 2.21875 0.90625q0.8125 0.90625 0.8125 2.78125l0 4.078125l1.265625 0.265625l0 1.296875l-4.59375 0l0 -1.296875l1.203125 -0.265625l0 -4.09375q0 -1.046875 -0.421875 -1.515625q-0.421875 -0.46875 -1.234375 -0.46875q-0.59375 0 -1.0625 0.265625q-0.46875 0.25 -0.78125 0.71875l0 5.09375l1.203125 0.265625l0 1.296875l-4.59375 0zm11.160736 0l0 -1.296875l1.28125 -0.265625l0 -6.03125l-1.34375 -0.25l0 -1.3125l3.46875 0l0 7.59375l1.265625 0.265625l0 1.296875l-4.671875 0zm1.203125 -11.234375l0 -1.96875l2.21875 0l0 1.96875l-2.21875 0zm4.2932587 14.75l0 -1.3125l1.234375 -0.25l0 -9.546875l-1.34375 -0.25l0 -1.3125l3.25 0l0.140625 1.078125q0.421875 -0.59375 1.03125 -0.921875q0.609375 -0.328125 1.4375 -0.328125q1.109375 0 1.90625 0.609375q0.796875 0.609375 1.21875 1.703125q0.421875 1.09375 0.421875 2.5625l0 0.171875q0 1.34375 -0.421875 2.34375q-0.421875 1.0 -1.21875 1.5625q-0.796875 0.546875 -1.90625 0.546875q-0.796875 0 -1.390625 -0.265625q-0.578125 -0.28125 -1.0 -0.8125l0 2.859375l1.296875 0.25l0 1.3125l-4.65625 0zm5.109375 -4.984375q1.046875 0 1.546875 -0.765625q0.5 -0.78125 0.5 -2.046875l0 -0.171875q0 -0.953125 -0.21875 -1.671875q-0.21875 -0.71875 -0.6875 -1.109375q-0.453125 -0.40625 -1.15625 -0.40625q-0.59375 0 -1.03125 0.265625q-0.4375 0.265625 -0.703125 0.75l0 4.203125q0.265625 0.453125 0.6875 0.703125q0.4375 0.25 1.0625 0.25z" fill-rule="nonzero"/><path fill="#000000" fill-opacity="0.0" d="m9.772845 92.83504l0 0c0 -32.95416 26.714626 -59.668785 59.66879 -59.668785l0 0c15.825142 0 31.002136 6.2865143 42.1922 17.476582c11.190071 11.190067 17.476578 26.367062 17.476578 42.192204l0 0c0 32.954163 -26.714615 59.668793 -59.668777 59.668793l0 0c-32.954163 0 -59.66879 -26.71463 -59.66879 -59.668793z" fill-rule="evenodd"/><path stroke="#000000" stroke-width="1.0" stroke-linejoin="round" stroke-linecap="butt" d="m9.772845 92.83504l0 0c0 -32.95416 26.714626 -59.668785 59.66879 -59.668785l0 0c15.825142 0 31.002136 6.2865143 42.1922 17.476582c11.190071 11.190067 17.476578 26.367062 17.476578 42.192204l0 0c0 32.954163 -26.714615 59.668793 -59.668777 59.668793l0 0c-32.954163 0 -59.66879 -26.71463 -59.66879 -59.668793z" fill-rule="evenodd"/><path fill="#000000" d="m33.319004 116.08837l0 -1.40625l0.96875 -0.140625l4.390625 -11.71875l2.234375 0l4.328125 11.71875l0.96875 0.140625l0 1.40625l-4.21875 0l0 -1.40625l0.953125 -0.171875l-0.703125 -2.078125l-4.9375 0l-0.71875 2.078125l0.953125 0.171875l0 1.40625l-4.21875 0zm4.578125 -5.421875l3.75 0l-1.71875 -4.90625l-0.125 -0.359375l-0.046875 0l-0.140625 0.375l-1.71875 4.890625zm9.27742 5.421875l0 -1.40625l1.390625 -0.265625l0 -10.859375l-1.46875 -0.265625l0 -1.40625l3.75 0l0 12.53125l1.375 0.265625l0 1.40625l-5.046875 0zm5.9485016 0l0 -1.40625l1.390625 -0.265625l0 -10.859375l-1.46875 -0.265625l0 -1.40625l3.75 0l0 12.53125l1.375 0.265625l0 1.40625l-5.046875 0zm15.267551 0.1875q-1.40625 0 -2.4375 -0.625q-1.015625 -0.640625 -1.5625 -1.78125q-0.5468788 -1.140625 -0.5468788 -2.609375l0 -0.1875q0 -1.46875 0.5468788 -2.59375q0.546875 -1.140625 1.5625 -1.78125q1.03125 -0.640625 2.421875 -0.640625q1.421875 0 2.4375 0.640625q1.03125 0.640625 1.578125 1.765625q0.546875 1.125 0.546875 2.609375l0 0.1875q0 1.46875 -0.546875 2.609375q-0.546875 1.140625 -1.5625 1.78125q-1.015625 0.625 -2.4375 0.625zm0 -1.765625q0.765625 0 1.265625 -0.40625q0.5 -0.421875 0.734375 -1.15625q0.25 -0.734375 0.25 -1.6875l0 -0.1875q0 -0.953125 -0.25 -1.671875q-0.234375 -0.734375 -0.734375 -1.15625q-0.5 -0.421875 -1.28125 -0.421875q-0.75 0 -1.25 0.421875q-0.5 0.421875 -0.75 1.15625q-0.234375 0.71875 -0.234375 1.671875l0 0.1875q0 0.953125 0.234375 1.6875q0.25 0.734375 0.75 1.15625q0.515625 0.40625 1.265625 0.40625zm5.8874207 1.578125l0 -1.40625l1.375 -0.265625l0 -6.546875l-1.5 0l0 -1.640625l1.5 0l0 -1.15625q0 -1.625 0.890625 -2.5q0.90625 -0.890625 2.515625 -0.890625q0.375 0 0.796875 0.0625q0.4375 0.0625 0.78125 0.15625l-0.21875 1.71875q-0.203125 -0.046875 -0.484375 -0.078125q-0.28125 -0.03125 -0.546875 -0.03125q-0.734375 0 -1.09375 0.40625q-0.359375 0.390625 -0.359375 1.15625l0 1.15625l2.203125 0l0 1.640625l-2.203125 0l0 6.546875l1.71875 0.265625l0 1.40625l-5.375 0zm11.50264 0l0 -1.40625l1.453125 -0.265625l0 -9.90625l-1.453125 -0.265625l0 -1.421875l5.1875 0l0 1.421875l-1.4375 0.265625l0 9.90625l1.4375 0.265625l0 1.40625l-5.1875 0zm9.551117 0l0 -1.40625l1.453125 -0.265625l0 -9.828125l-2.671875 0l-0.203125 1.6875l-1.71875 0l0 -3.453125l11.484375 0l0 3.453125l-1.734375 0l-0.1875 -1.6875l-2.671875 0l0 9.828125l1.453125 0.265625l0 1.40625l-5.203125 0z" fill-rule="nonzero"/><g filter="url(#shadowFilter-p.2)"><use xlink:href="#p.2" transform="matrix(1.0 0.0 0.0 1.0 0.0 2.0)"/></g><defs><filter id="shadowFilter-p.2" filterUnits="userSpaceOnUse"><feGaussianBlur in="SourceAlpha" stdDeviation="2.0" result="blur"/><feComponentTransfer in="blur" color-interpolation-filters="sRGB"><feFuncR type="linear" slope="0" intercept="0.0"/><feFuncG type="linear" slope="0" intercept="0.0"/><feFuncB type="linear" slope="0" intercept="0.0"/><feFuncA type="linear" slope="0.5" intercept="0"/></feComponentTransfer></filter></defs><g id="p.2"><path fill="#ffffff" d="m84.392654 34.368645c0.52521515 1.2988358 2.9546356 4.9669724 3.1512756 7.7930145c0.19664001 2.8260422 -0.4642563 6.6615944 -1.9714279 9.163242c-1.507164 2.5016441 -5.733078 4.620449 -7.071579 5.8466377c-1.3384933 1.2261925 -0.8253937 1.2587547 -0.959404 1.5105095c-0.13401794 0.25175095 -0.46259308 -0.625412 0.15530396 0c0.61789703 0.6254082 2.8293839 1.7626724 3.5520706 3.752468c0.7226944 1.9897919 0.9147415 5.6859055 0.78406525 8.186295c-0.13067627 2.5003967 -0.38910675 4.900177 -1.5681229 6.8160706c-1.1790161 1.9159012 -3.4410172 3.5420532 -5.5059586 4.6793137c-2.064949 1.1372681 -4.8191833 1.8198776 -6.883705 2.1442719c-2.0645294 0.32439423 -4.4054375 -0.16783142 -5.50346 -0.19789124c-1.0980186 -0.030059814 -1.0132637 0.017112732 -1.0846558 0.017532349c-0.07139206 4.196167E-4 0.57405853 -0.17493439 0.6563034 -0.015029907c0.08224869 0.15990448 -0.3970375 -0.032562256 -0.16282272 0.9744415c0.23421478 1.0070038 1.469593 3.2164001 1.5681229 5.067589c0.098529816 1.851181 0.038410187 4.350746 -0.9769478 6.0395203c-1.0153542 1.6887817 -3.2468796 2.7938995 -5.115181 4.0931473c-1.8683014 1.2992554 -4.0956535 2.988037 -6.094635 3.7023697c-1.9989777 0.7143402 -4.129051 0.94020844 -5.8992424 0.58366394c-1.7701912 -0.3565445 -3.3128471 -1.6841812 -4.721901 -2.7229156c-1.4090538 -1.0387344 -3.1738167 -2.969246 -3.7324295 -3.509491c-0.5586128 -0.54024506 0.18787384 0.113975525 0.38075638 0.2680359c0.19288635 0.15405273 0.71684647 0.5966034 0.7765465 0.6563034c0.059703827 0.05970764 -0.42208862 -0.33900452 -0.41833115 -0.29808807c0.0037574768 0.040908813 1.1865273 -0.19580841 0.440876 0.5435791c-0.74565125 0.7393875 -3.3090858 2.7884674 -4.9147835 3.892746c-1.6056976 1.1042862 -3.0802994 2.1480255 -4.7193947 2.7329407c-1.6390972 0.58491516 -3.1162052 0.614975 -5.115185 0.7765503c-1.9989796 0.16156769 -4.912279 0.6800995 -6.8786926 0.19288635c-1.9664154 -0.48722076 -4.0998287 -2.59684 -4.919795 -3.116211" fill-rule="evenodd"/><path stroke="#000000" stroke-width="1.0" stroke-linejoin="round" stroke-linecap="butt" d="m84.392654 34.368645c0.52521515 1.2988358 2.9546356 4.9669724 3.1512756 7.7930145c0.19664001 2.8260422 -0.4642563 6.6615944 -1.9714279 9.163242c-1.507164 2.5016441 -5.733078 4.620449 -7.071579 5.8466377c-1.3384933 1.2261925 -0.8253937 1.2587547 -0.959404 1.5105095c-0.13401794 0.25175095 -0.46259308 -0.625412 0.15530396 0c0.61789703 0.6254082 2.8293839 1.7626724 3.5520706 3.752468c0.7226944 1.9897919 0.9147415 5.6859055 0.78406525 8.186295c-0.13067627 2.5003967 -0.38910675 4.900177 -1.5681229 6.8160706c-1.1790161 1.9159012 -3.4410172 3.5420532 -5.5059586 4.6793137c-2.064949 1.1372681 -4.8191833 1.8198776 -6.883705 2.1442719c-2.0645294 0.32439423 -4.4054375 -0.16783142 -5.50346 -0.19789124c-1.0980186 -0.030059814 -1.0132637 0.017112732 -1.0846558 0.017532349c-0.07139206 4.196167E-4 0.57405853 -0.17493439 0.6563034 -0.015029907c0.08224869 0.15990448 -0.3970375 -0.032562256 -0.16282272 0.9744415c0.23421478 1.0070038 1.469593 3.2164001 1.5681229 5.067589c0.098529816 1.851181 0.038410187 4.350746 -0.9769478 6.0395203c-1.0153542 1.6887817 -3.2468796 2.7938995 -5.115181 4.0931473c-1.8683014 1.2992554 -4.0956535 2.988037 -6.094635 3.7023697c-1.9989777 0.7143402 -4.129051 0.94020844 -5.8992424 0.58366394c-1.7701912 -0.3565445 -3.3128471 -1.6841812 -4.721901 -2.7229156c-1.4090538 -1.0387344 -3.1738167 -2.969246 -3.7324295 -3.509491c-0.5586128 -0.54024506 0.18787384 0.113975525 0.38075638 0.2680359c0.19288635 0.15405273 0.71684647 0.5966034 0.7765465 0.6563034c0.059703827 0.05970764 -0.42208862 -0.33900452 -0.41833115 -0.29808807c0.0037574768 0.040908813 1.1865273 -0.19580841 0.440876 0.5435791c-0.74565125 0.7393875 -3.3090858 2.7884674 -4.9147835 3.892746c-1.6056976 1.1042862 -3.0802994 2.1480255 -4.7193947 2.7329407c-1.6390972 0.58491516 -3.1162052 0.614975 -5.115185 0.7765503c-1.9989796 0.16156769 -4.912279 0.6800995 -6.8786926 0.19288635c-1.9664154 -0.48722076 -4.0998287 -2.59684 -4.919795 -3.116211" fill-rule="evenodd"/></g><path fill="#ffffff" d="m59.52845 64.224236l24.34346 -30.059845l-15.034927 -4.225912l-37.419495 8.792501l-18.466763 21.299904l-3.517002 13.188759l-0.3381729 24.265808l1.6783409 6.7359085z" fill-rule="evenodd"/><g filter="url(#shadowFilter-p.3)"><use xlink:href="#p.3" transform="matrix(1.0 0.0 0.0 1.0 1.0000002624671849 0.0)"/></g><defs><filter id="shadowFilter-p.3" filterUnits="userSpaceOnUse"><feGaussianBlur in="SourceAlpha" stdDeviation="2.5" result="blur"/><feComponentTransfer in="blur" color-interpolation-filters="sRGB"><feFuncR type="linear" slope="0" intercept="0.0"/><feFuncG type="linear" slope="0" intercept="0.0"/><feFuncB type="linear" slope="0" intercept="0.0"/><feFuncA type="linear" slope="0.5" intercept="0"/></feComponentTransfer></filter></defs><g id="p.3"><path fill="#ffffff" d="m112.29002 157.06313l97.22835 0l0 101.354324l-97.22835 0z" fill-rule="evenodd"/></g><path fill="#000000" fill-opacity="0.0" d="m129.5873 212.98817l0 0c0 -20.129425 16.31813 -36.447556 36.44757 -36.447556l0 0c9.666489 0 18.937073 3.8399963 25.772308 10.675247c6.835251 6.8352356 10.675247 16.10582 10.675247 25.772308l0 0c0 20.12944 -16.31813 36.447556 -36.447556 36.447556l0 0c-20.12944 0 -36.44757 -16.318115 -36.44757 -36.447556z" fill-rule="evenodd"/><path stroke="#000000" stroke-width="1.0" stroke-linejoin="round" stroke-linecap="butt" d="m129.5873 212.98817l0 0c0 -20.129425 16.31813 -36.447556 36.44757 -36.447556l0 0c9.666489 0 18.937073 3.8399963 25.772308 10.675247c6.835251 6.8352356 10.675247 16.10582 10.675247 25.772308l0 0c0 20.12944 -16.31813 36.447556 -36.447556 36.447556l0 0c-20.12944 0 -36.44757 -16.318115 -36.44757 -36.447556z" fill-rule="evenodd"/><path fill="#000000" d="m144.86873 209.22443q-1.0625 0 -1.984375 -0.265625q-0.90625 -0.265625 -1.78125 -0.890625l0 -2.390625l1.390625 0l0.234375 1.546875q0.375 0.28125 0.921875 0.453125q0.5625 0.15625 1.21875 0.15625q0.640625 0 1.0625 -0.1875q0.4375 -0.1875 0.65625 -0.515625q0.234375 -0.328125 0.234375 -0.78125q0 -0.40625 -0.203125 -0.71875q-0.1875 -0.328125 -0.65625 -0.578125q-0.46875 -0.265625 -1.265625 -0.484375q-1.15625 -0.3125 -1.9375 -0.734375q-0.78125 -0.4375 -1.1875 -1.03125q-0.390625 -0.609375 -0.390625 -1.421875q0 -0.828125 0.453125 -1.46875q0.453125 -0.65625 1.25 -1.03125q0.8125 -0.375 1.875 -0.375q1.15625 -0.015625 2.046875 0.296875q0.890625 0.3125 1.515625 0.828125l0 2.234375l-1.375 0l-0.25 -1.453125q-0.296875 -0.203125 -0.765625 -0.34375q-0.46875 -0.15625 -1.109375 -0.15625q-0.546875 0 -0.96875 0.1875q-0.40625 0.171875 -0.640625 0.5q-0.234375 0.3125 -0.234375 0.765625q0 0.390625 0.203125 0.6875q0.21875 0.296875 0.703125 0.546875q0.484375 0.234375 1.3125 0.46875q1.703125 0.453125 2.5625 1.25q0.875 0.796875 0.875 2.015625q0 0.875 -0.46875 1.53125q-0.46875 0.640625 -1.3125 1.0q-0.84375 0.359375 -1.984375 0.359375zm4.7242126 -0.15625l0 -1.109375l1.078125 -0.203125l0 -5.109375l-1.140625 -0.21875l0 -1.109375l2.796875 0l0.078125 1.015625q0.390625 -0.546875 0.953125 -0.84375q0.5625 -0.3125 1.328125 -0.3125q0.75 0 1.28125 0.34375q0.546875 0.34375 0.828125 1.03125q0.359375 -0.640625 0.9375 -1.0q0.59375 -0.375 1.375 -0.375q1.171875 0 1.828125 0.796875q0.671875 0.796875 0.671875 2.40625l0 3.375l1.09375 0.203125l0 1.109375l-3.90625 0l0 -1.109375l1.015625 -0.203125l0 -3.375q0 -0.984375 -0.328125 -1.375q-0.328125 -0.40625 -0.96875 -0.40625q-0.59375 0 -0.984375 0.390625q-0.375 0.375 -0.484375 0.96875l0 3.796875l0.96875 0.203125l0 1.109375l-3.75 0l0 -1.109375l0.984375 -0.203125l0 -3.375q0 -0.953125 -0.34375 -1.359375q-0.328125 -0.421875 -0.96875 -0.421875q-0.53125 0 -0.890625 0.21875q-0.359375 0.21875 -0.578125 0.609375l0 4.328125l1.015625 0.203125l0 1.109375l-3.890625 0zm16.50705 0.15625q-1.1875 0 -1.84375 -0.609375q-0.65625 -0.609375 -0.65625 -1.671875q0 -0.734375 0.390625 -1.28125q0.40625 -0.5625 1.171875 -0.875q0.78125 -0.3125 1.890625 -0.3125l1.171875 0l0 -0.640625q0 -0.625 -0.375 -0.984375q-0.359375 -0.359375 -1.0625 -0.359375q-0.40625 0 -0.71875 0.09375q-0.296875 0.09375 -0.546875 0.265625l-0.15625 1.046875l-1.328125 0l-0.015625 -1.90625q0.578125 -0.375 1.28125 -0.59375q0.703125 -0.21875 1.5625 -0.21875q1.46875 0 2.3125 0.703125q0.859375 0.6875 0.859375 1.96875l0 3.421875q0 0.15625 0 0.3125q0 0.140625 0.015625 0.28125l0.78125 0.09375l0 1.109375l-2.34375 0q-0.078125 -0.25 -0.140625 -0.484375q-0.0625 -0.234375 -0.09375 -0.46875q-0.375 0.484375 -0.921875 0.796875q-0.546875 0.3125 -1.234375 0.3125zm0.40625 -1.40625q0.546875 0 1.015625 -0.25q0.46875 -0.25 0.703125 -0.640625l0 -1.296875l-1.203125 0q-0.8125 0 -1.21875 0.375q-0.40625 0.375 -0.40625 0.875q0 0.453125 0.28125 0.703125q0.28125 0.234375 0.828125 0.234375zm5.1243896 1.25l0 -1.109375l1.078125 -0.203125l0 -8.53125l-1.140625 -0.21875l0 -1.09375l2.9375 0l0 9.84375l1.078125 0.203125l0 1.109375l-3.953125 0zm4.673111 0l0 -1.109375l1.078125 -0.203125l0 -8.53125l-1.140625 -0.21875l0 -1.09375l2.9375 0l0 9.84375l1.078125 0.203125l0 1.109375l-3.953125 0zm8.248627 0.15625q-1.09375 0 -1.90625 -0.484375q-0.8125 -0.5 -1.265625 -1.359375q-0.4375 -0.875 -0.4375 -1.984375l0 -0.3125q0 -1.125 0.4375 -2.0q0.4375 -0.890625 1.203125 -1.390625q0.78125 -0.515625 1.78125 -0.515625q1.046875 0 1.75 0.421875q0.71875 0.421875 1.078125 1.203125q0.375 0.78125 0.375 1.859375l0 1.03125l-4.75 0l-0.015625 0.046875q0.03125 0.59375 0.25 1.078125q0.21875 0.46875 0.640625 0.75q0.421875 0.265625 1.015625 0.265625q0.640625 0 1.15625 -0.171875q0.515625 -0.171875 0.953125 -0.484375l0.5625 1.125q-0.46875 0.390625 -1.171875 0.65625q-0.703125 0.265625 -1.65625 0.265625zm-1.71875 -4.796875l3.0 0l0 -0.1875q0 -0.5 -0.15625 -0.875q-0.140625 -0.390625 -0.46875 -0.609375q-0.328125 -0.21875 -0.828125 -0.21875q-0.4375 0 -0.765625 0.25q-0.328125 0.234375 -0.53125 0.65625q-0.1875 0.421875 -0.265625 0.953125l0.015625 0.03125zm5.829193 4.640625l0 -1.109375l1.078125 -0.203125l0 -5.109375l-1.125 -0.21875l0 -1.109375l2.78125 0l0.09375 0.984375l0.015625 0.15625q0.3125 -0.625 0.75 -0.953125q0.453125 -0.328125 1.046875 -0.328125q0.203125 0 0.421875 0.046875q0.234375 0.03125 0.375 0.078125l-0.203125 1.65625l-1.015625 -0.046875q-0.484375 -0.03125 -0.8125 0.1875q-0.3125 0.21875 -0.53125 0.609375l0 4.046875l1.078125 0.203125l0 1.109375l-3.953125 0z" fill-rule="nonzero"/><path fill="#000000" d="m154.32236 227.06818l0 -1.109375l1.140625 -0.203125l0 -7.78125l-1.140625 -0.21875l0 -1.109375l1.140625 0l3.4375 0q1.75 0 2.734375 0.71875q0.984375 0.703125 0.984375 2.125q0 0.703125 -0.40625 1.265625q-0.40625 0.5625 -1.125 0.84375q0.625 0.125 1.046875 0.484375q0.4375 0.359375 0.65625 0.875q0.234375 0.515625 0.234375 1.125q0 1.453125 -0.96875 2.21875q-0.953125 0.765625 -2.671875 0.765625l-5.0625 0zm2.9375 -1.390625l2.125 0q0.875 0 1.34375 -0.40625q0.484375 -0.421875 0.484375 -1.1875q0 -0.5625 -0.1875 -0.9375q-0.171875 -0.390625 -0.53125 -0.59375q-0.359375 -0.21875 -0.9375 -0.21875l-2.296875 0l0 3.34375zm0 -4.640625l1.84375 0q0.796875 0 1.25 -0.375q0.46875 -0.390625 0.46875 -1.09375q0 -0.765625 -0.5 -1.140625q-0.484375 -0.390625 -1.421875 -0.390625l-1.640625 0l0 3.0zm6.5693817 6.03125l0 -1.109375l1.078125 -0.203125l0 -5.109375l-1.140625 -0.21875l0 -1.109375l2.953125 0l0 6.4375l1.0625 0.203125l0 1.109375l-3.953125 0zm1.0 -9.5l0 -1.65625l1.875 0l0 1.65625l-1.875 0zm6.6861115 9.640625q-1.0 0 -1.546875 -0.546875q-0.546875 -0.5625 -0.546875 -1.78125l0 -4.265625l-1.140625 0l0 -1.296875l1.140625 0l0 -1.875l1.796875 0l0 1.875l1.53125 0l0 1.296875l-1.53125 0l0 4.265625q0 0.484375 0.203125 0.71875q0.203125 0.21875 0.546875 0.21875q0.203125 0 0.453125 -0.03125q0.25 -0.03125 0.390625 -0.078125l0.1875 1.28125q-0.3125 0.078125 -0.71875 0.140625q-0.40625 0.078125 -0.765625 0.078125zm5.784027 0.015625q-1.09375 0 -1.90625 -0.484375q-0.8125 -0.5 -1.265625 -1.359375q-0.4375 -0.875 -0.4375 -1.984375l0 -0.3125q0 -1.125 0.4375 -2.0q0.4375 -0.890625 1.203125 -1.390625q0.78125 -0.515625 1.78125 -0.515625q1.046875 0 1.75 0.421875q0.71875 0.421875 1.078125 1.203125q0.375 0.78125 0.375 1.859375l0 1.03125l-4.75 0l-0.015625 0.046875q0.03125 0.59375 0.25 1.078125q0.21875 0.46875 0.640625 0.75q0.421875 0.265625 1.015625 0.265625q0.640625 0 1.15625 -0.171875q0.515625 -0.171875 0.953125 -0.484375l0.5625 1.125q-0.46875 0.390625 -1.171875 0.65625q-0.703125 0.265625 -1.65625 0.265625zm-1.71875 -4.796875l3.0 0l0 -0.1875q0 -0.5 -0.15625 -0.875q-0.140625 -0.390625 -0.46875 -0.609375q-0.328125 -0.21875 -0.828125 -0.21875q-0.4375 0 -0.765625 0.25q-0.328125 0.234375 -0.53125 0.65625q-0.1875 0.421875 -0.265625 0.953125l0.015625 0.03125z" fill-rule="nonzero"/><g filter="url(#shadowFilter-p.4)"><use xlink:href="#p.4" transform="matrix(1.0 0.0 0.0 1.0 0.0 2.0)"/></g><defs><filter id="shadowFilter-p.4" filterUnits="userSpaceOnUse"><feGaussianBlur in="SourceAlpha" stdDeviation="2.0" result="blur"/><feComponentTransfer in="blur" color-interpolation-filters="sRGB"><feFuncR type="linear" slope="0" intercept="0.0"/><feFuncG type="linear" slope="0" intercept="0.0"/><feFuncB type="linear" slope="0" intercept="0.0"/><feFuncA type="linear" slope="0.5" intercept="0"/></feComponentTransfer></filter></defs><g id="p.4"><path fill="#ffffff" d="m153.61865 178.73616c0.1648407 0.41148376 0.9273071 1.5736389 0.9890442 2.4688263c0.0617218 0.89520264 -0.14550781 2.1099243 -0.6186676 2.9023438c-0.47314453 0.7924042 -1.800003 1.4637146 -2.22023 1.8521271c-0.4202423 0.38839722 -0.25914 0.39857483 -0.30119324 0.47828674c-0.042053223 0.07972717 -0.14517212 -0.19810486 0.048843384 0c0.19400024 0.19810486 0.8882904 0.5583496 1.1152039 1.1886292c0.22691345 0.6302643 0.28727722 1.8008881 0.24624634 2.5929718c-0.041046143 0.7920685 -0.12245178 1.552597 -0.49249268 2.1594543c-0.3700409 0.6068573 -1.0795898 1.1214447 -1.7277527 1.4816895c-0.64816284 0.36026 -1.5130615 0.5770111 -2.1612244 0.6797943c-0.64816284 0.1027832 -1.3831482 -0.053588867 -1.7277527 -0.06309509c-0.3446045 -0.009490967 -0.30729675 0.029510498 -0.339859 0.0061035156c-0.032562256 -0.023406982 0.11871338 -0.19708252 0.14448547 -0.14653015c0.025787354 0.05053711 -0.07359314 0.10719299 0.010177612 0.44979858c0.08377075 0.3426056 0.46162415 1.0193481 0.49247742 1.6058502c0.03086853 0.5865021 0.0115356445 1.3782349 -0.3072815 1.9131775c-0.3188324 0.5349579 -1.0192261 0.885025 -1.6056671 1.2964935c-0.5864258 0.4114685 -1.2854614 0.94607544 -1.9129486 1.1723328c-0.6274719 0.22625732 -1.2963257 0.298172 -1.8518829 0.18521118c-0.5555725 -0.112960815 -1.0392456 -0.5339203 -1.4815216 -0.8629608c-0.44229126 -0.32904053 -1.0215912 -0.92674255 -1.1721954 -1.1112823c-0.15058899 -0.18452454 0.15093994 0.019332886 0.26863098 0.0040740967c0.11769104 -0.015258789 0.41311646 -0.12008667 0.43753052 -0.09565735c0.024429321 0.024414062 -0.23504639 0.16519165 -0.29100037 0.24220276c-0.05596924 0.07699585 0.21977234 -0.022399902 -0.044784546 0.21980286c-0.26455688 0.24220276 -1.0385437 0.883667 -1.5425568 1.2333984c-0.50401306 0.34973145 -0.96699524 0.6797943 -1.4815216 0.8650055c-0.51452637 0.18521118 -0.97817993 0.1950531 -1.6056519 0.24627686c-0.6274872 0.051208496 -1.5419006 0.21539307 -2.159195 0.061050415c-0.6172943 -0.15434265 -1.2871704 -0.8226013 -1.5446014 -0.9871216" fill-rule="evenodd"/><path stroke="#000000" stroke-width="1.0" stroke-linejoin="round" stroke-linecap="butt" d="m153.61865 178.73616c0.1648407 0.41148376 0.9273071 1.5736389 0.9890442 2.4688263c0.0617218 0.89520264 -0.14550781 2.1099243 -0.6186676 2.9023438c-0.47314453 0.7924042 -1.800003 1.4637146 -2.22023 1.8521271c-0.4202423 0.38839722 -0.25914 0.39857483 -0.30119324 0.47828674c-0.042053223 0.07972717 -0.14517212 -0.19810486 0.048843384 0c0.19400024 0.19810486 0.8882904 0.5583496 1.1152039 1.1886292c0.22691345 0.6302643 0.28727722 1.8008881 0.24624634 2.5929718c-0.041046143 0.7920685 -0.12245178 1.552597 -0.49249268 2.1594543c-0.3700409 0.6068573 -1.0795898 1.1214447 -1.7277527 1.4816895c-0.64816284 0.36026 -1.5130615 0.5770111 -2.1612244 0.6797943c-0.64816284 0.1027832 -1.3831482 -0.053588867 -1.7277527 -0.06309509c-0.3446045 -0.009490967 -0.30729675 0.029510498 -0.339859 0.0061035156c-0.032562256 -0.023406982 0.11871338 -0.19708252 0.14448547 -0.14653015c0.025787354 0.05053711 -0.07359314 0.10719299 0.010177612 0.44979858c0.08377075 0.3426056 0.46162415 1.0193481 0.49247742 1.6058502c0.03086853 0.5865021 0.0115356445 1.3782349 -0.3072815 1.9131775c-0.3188324 0.5349579 -1.0192261 0.885025 -1.6056671 1.2964935c-0.5864258 0.4114685 -1.2854614 0.94607544 -1.9129486 1.1723328c-0.6274719 0.22625732 -1.2963257 0.298172 -1.8518829 0.18521118c-0.5555725 -0.112960815 -1.0392456 -0.5339203 -1.4815216 -0.8629608c-0.44229126 -0.32904053 -1.0215912 -0.92674255 -1.1721954 -1.1112823c-0.15058899 -0.18452454 0.15093994 0.019332886 0.26863098 0.0040740967c0.11769104 -0.015258789 0.41311646 -0.12008667 0.43753052 -0.09565735c0.024429321 0.024414062 -0.23504639 0.16519165 -0.29100037 0.24220276c-0.05596924 0.07699585 0.21977234 -0.022399902 -0.044784546 0.21980286c-0.26455688 0.24220276 -1.0385437 0.883667 -1.5425568 1.2333984c-0.50401306 0.34973145 -0.96699524 0.6797943 -1.4815216 0.8650055c-0.51452637 0.18521118 -0.97817993 0.1950531 -1.6056519 0.24627686c-0.6274872 0.051208496 -1.5419006 0.21539307 -2.159195 0.061050415c-0.6172943 -0.15434265 -1.2871704 -0.8226013 -1.5446014 -0.9871216" fill-rule="evenodd"/></g><path fill="#ffffff" d="m149.28516 184.79134l9.131226 -12.501877l-12.414261 -4.55278l-5.6273956 0.93556213l-9.941177 10.39949l-3.9398346 9.671249l-0.28094482 12.790482l4.784546 -0.10731506z" fill-rule="evenodd"/><path fill="#000000" fill-opacity="0.0" d="m112.203415 149.06299l97.22835 0l0 33.921265l-97.22835 0z" fill-rule="evenodd"/><path fill="#000000" d="m124.00117 169.708q-1.25 0 -2.15625 -0.53125q-0.890625 -0.546875 -1.359375 -1.5q-0.46875 -0.96875 -0.46875 -2.25l0 -0.21875q0 -1.25 0.46875 -2.203125q0.46875 -0.96875 1.34375 -1.515625q0.875 -0.5625 2.078125 -0.5625q0.859375 0 1.578125 0.25q0.734375 0.25 1.265625 0.71875l0 1.96875l-1.125 0l-0.140625 -1.328125q-0.203125 -0.140625 -0.4375 -0.234375q-0.234375 -0.109375 -0.515625 -0.15625q-0.265625 -0.046875 -0.59375 -0.046875q-0.78125 0 -1.328125 0.390625q-0.546875 0.375 -0.828125 1.078125q-0.28125 0.6875 -0.28125 1.625l0 0.234375q0 0.96875 0.296875 1.671875q0.3125 0.703125 0.875 1.078125q0.578125 0.375 1.375 0.375q0.375 0 0.75 -0.09375q0.390625 -0.09375 0.671875 -0.234375l0.15625 -1.203125l1.125 0l0 1.96875q-0.5 0.3125 -1.21875 0.515625q-0.703125 0.203125 -1.53125 0.203125zm6.66407 0q-0.921875 0 -1.578125 -0.40625q-0.65625 -0.421875 -1.015625 -1.140625q-0.34375763 -0.734375 -0.34375763 -1.6875l0 -0.125q0 -0.9375 0.34375763 -1.65625q0.359375 -0.734375 1.015625 -1.140625q0.65625 -0.421875 1.5625 -0.421875q0.90625 0 1.5625 0.421875q0.65625 0.40625 1.0 1.140625q0.359375 0.71875 0.359375 1.65625l0 0.125q0 0.953125 -0.359375 1.6875q-0.34375 0.71875 -1.0 1.140625q-0.640625 0.40625 -1.546875 0.40625zm0 -1.140625q0.484375 0 0.796875 -0.265625q0.328125 -0.265625 0.484375 -0.734375q0.15625 -0.46875 0.15625 -1.09375l0 -0.125q0 -0.609375 -0.15625 -1.078125q-0.15625 -0.46875 -0.484375 -0.734375q-0.3125 -0.265625 -0.8125 -0.265625q-0.484375 0 -0.8125 0.265625q-0.328125 0.265625 -0.484375 0.734375q-0.140625 0.46875 -0.140625 1.078125l0 0.125q0 0.625 0.140625 1.09375q0.15625 0.46875 0.484375 0.734375q0.328125 0.265625 0.828125 0.265625zm4.1601562 -2.046875l0 -1.140625l3.109375 0l0 1.140625l-3.109375 0zm8.025391 3.1875q-0.859375 0 -1.546875 -0.3125q-0.671875 -0.328125 -1.171875 -0.90625q-0.484375 -0.578125 -0.75 -1.375q-0.265625 -0.796875 -0.265625 -1.734375l0 -0.125q0 -0.9375 0.265625 -1.71875q0.265625 -0.796875 0.75 -1.375q0.5 -0.59375 1.171875 -0.90625q0.6875 -0.328125 1.53125 -0.328125q0.875 0 1.5625 0.328125q0.703125 0.3125 1.1875 0.90625q0.484375 0.578125 0.734375 1.375q0.265625 0.78125 0.265625 1.71875l0 0.125q0 0.9375 -0.265625 1.734375q-0.25 0.796875 -0.734375 1.375q-0.484375 0.578125 -1.1875 0.90625q-0.6875 0.3125 -1.546875 0.3125zm0 -1.171875q0.765625 0 1.265625 -0.390625q0.5 -0.40625 0.734375 -1.109375q0.25 -0.71875 0.25 -1.65625l0 -0.140625q0 -0.9375 -0.25 -1.640625q-0.234375 -0.703125 -0.734375 -1.09375q-0.5 -0.40625 -1.28125 -0.40625q-0.734375 0 -1.234375 0.40625q-0.5 0.390625 -0.75 1.09375q-0.25 0.703125 -0.25 1.640625l0 0.140625q0 0.9375 0.25 1.65625q0.25 0.703125 0.75 1.109375q0.5 0.390625 1.25 0.390625zm6.6601562 1.046875l-1.5625 -5.3125l-0.75 -0.125l0 -0.90625l2.890625 0l0 0.90625l-0.71875 0.140625l0.703125 2.75l0.15625 0.59375l0.03125 0l0.203125 -0.59375l1.328125 -3.796875l1.078125 0l1.28125 3.8125l0.21875 0.671875l0.03125 0l0.203125 -0.671875l0.765625 -2.765625l-0.765625 -0.140625l0 -0.90625l2.828125 0l0 0.90625l-0.734375 0.125l-1.625 5.3125l-1.28125 0l-1.21875 -3.421875l-0.25 -0.828125l-0.03125 0l-0.25 0.828125l-1.234375 3.421875l-1.296875 0zm8.488281 0l0 -0.90625l0.875 -0.171875l0 -4.171875l-0.921875 -0.1875l0 -0.90625l2.28125 0l0.078125 0.921875q0.3125 -0.484375 0.78125 -0.75q0.484375 -0.28125 1.078125 -0.28125q0.984375 0 1.515625 0.609375q0.546875 0.59375 0.546875 1.859375l0 2.90625l0.890625 0.171875l0 0.90625l-3.1875 0l0 -0.90625l0.828125 -0.171875l0 -2.890625q0 -0.71875 -0.296875 -1.015625q-0.28125 -0.3125 -0.84375 -0.3125q-0.4375 0 -0.765625 0.203125q-0.3125 0.1875 -0.5 0.515625l0 3.5l0.796875 0.171875l0 0.90625l-3.15625 0zm10.691406 0.125q-0.90625 0 -1.578125 -0.40625q-0.65625 -0.40625 -1.03125 -1.109375q-0.359375 -0.703125 -0.359375 -1.625l0 -0.25q0 -0.921875 0.359375 -1.640625q0.359375 -0.71875 0.984375 -1.125q0.640625 -0.421875 1.453125 -0.421875q0.859375 0 1.4375 0.34375q0.59375 0.34375 0.890625 0.984375q0.296875 0.625 0.296875 1.515625l0 0.84375l-3.890625 0l-0.015625 0.03125q0.03125 0.5 0.21875 0.890625q0.1875 0.390625 0.515625 0.609375q0.34375 0.21875 0.84375 0.21875q0.515625 0 0.9375 -0.140625q0.421875 -0.140625 0.78125 -0.390625l0.453125 0.921875q-0.375 0.3125 -0.953125 0.53125q-0.578125 0.21875 -1.34375 0.21875zm-1.40625 -3.921875l2.453125 0l0 -0.15625q0 -0.40625 -0.125 -0.71875q-0.125 -0.328125 -0.390625 -0.5q-0.265625 -0.171875 -0.6875 -0.171875q-0.359375 0 -0.625 0.203125q-0.265625 0.1875 -0.4375 0.53125q-0.15625 0.34375 -0.203125 0.78125l0.015625 0.03125zm4.7695312 3.796875l0 -0.90625l0.875 -0.171875l0 -4.171875l-0.921875 -0.1875l0 -0.90625l2.28125 0l0.078125 0.796875l0.015625 0.125q0.25 -0.5 0.609375 -0.765625q0.375 -0.265625 0.859375 -0.265625q0.171875 0 0.34375 0.03125q0.1875 0.015625 0.3125 0.0625l-0.171875 1.359375l-0.828125 -0.046875q-0.40625 -0.015625 -0.671875 0.171875q-0.25 0.171875 -0.4375 0.484375l0 3.3125l0.890625 0.171875l0 0.90625l-3.234375 0zm7.6933594 0.125q-0.671875 0 -1.265625 -0.125q-0.578125 -0.140625 -1.171875 -0.40625l-0.015625 -1.671875l1.046875 0l0.234375 0.921875q0.25 0.109375 0.515625 0.171875q0.265625 0.0625 0.59375 0.0625q0.625 0 0.890625 -0.21875q0.265625 -0.234375 0.265625 -0.5625q0 -0.3125 -0.28125 -0.53125q-0.265625 -0.234375 -1.03125 -0.390625q-1.140625 -0.25 -1.6875 -0.71875q-0.53125 -0.484375 -0.53125 -1.234375q0 -0.515625 0.28125 -0.9375q0.28125 -0.421875 0.8125 -0.671875q0.546875 -0.265625 1.34375 -0.265625q0.71875 0 1.28125 0.15625q0.5625 0.140625 0.953125 0.390625l0.03125 1.609375l-1.046875 0l-0.1875 -0.84375q-0.171875 -0.125 -0.421875 -0.1875q-0.234375 -0.078125 -0.546875 -0.078125q-0.484375 0 -0.765625 0.21875q-0.28125 0.21875 -0.28125 0.53125q0 0.1875 0.09375 0.34375q0.09375 0.15625 0.34375 0.28125q0.265625 0.125 0.765625 0.234375q1.234375 0.296875 1.765625 0.765625q0.546875 0.453125 0.546875 1.21875q0 0.84375 -0.625 1.390625q-0.625 0.546875 -1.90625 0.546875zm3.2636719 -0.125l0 -0.90625l0.875 -0.171875l0 -6.984375l-0.921875 -0.171875l0 -0.90625l2.390625 0l0 3.625q0.3125 -0.453125 0.765625 -0.6875q0.46875 -0.25 1.046875 -0.25q0.96875 0 1.53125 0.625q0.5625 0.625 0.5625 1.921875l0 2.828125l0.875 0.171875l0 0.90625l-3.1875 0l0 -0.90625l0.84375 -0.171875l0 -2.84375q0 -0.71875 -0.296875 -1.046875q-0.296875 -0.328125 -0.859375 -0.328125q-0.40625 0 -0.734375 0.1875q-0.328125 0.171875 -0.546875 0.5l0 3.53125l0.84375 0.171875l0 0.90625l-3.1875 0zm7.7421875 0l0 -0.90625l0.875 -0.171875l0 -4.171875l-0.9375 -0.1875l0 -0.90625l2.40625 0l0 5.265625l0.875 0.171875l0 0.90625l-3.21875 0zm0.8125 -7.78125l0 -1.359375l1.53125 0l0 1.359375l-1.53125 0zm2.9746094 10.21875l0 -0.90625l0.859375 -0.171875l0 -6.609375l-0.9375 -0.1875l0 -0.90625l2.265625 0l0.09375 0.75q0.28125 -0.40625 0.703125 -0.625q0.421875 -0.234375 1.0 -0.234375q0.78125 0 1.328125 0.421875q0.546875 0.421875 0.828125 1.171875q0.296875 0.75 0.296875 1.765625l0 0.125q0 0.921875 -0.296875 1.625q-0.28125 0.6875 -0.828125 1.078125q-0.546875 0.390625 -1.328125 0.390625q-0.546875 0 -0.953125 -0.1875q-0.40625 -0.203125 -0.703125 -0.5625l0 1.984375l0.90625 0.171875l0 0.90625l-3.234375 0zm3.546875 -3.453125q0.71875 0 1.0625 -0.53125q0.359375 -0.546875 0.359375 -1.421875l0 -0.125q0 -0.65625 -0.15625 -1.140625q-0.15625 -0.5 -0.484375 -0.78125q-0.3125 -0.28125 -0.796875 -0.28125q-0.40625 0 -0.71875 0.1875q-0.296875 0.1875 -0.484375 0.515625l0 2.90625q0.1875 0.328125 0.484375 0.5q0.296875 0.171875 0.734375 0.171875z" fill-rule="nonzero"/></g></svg>