<svg version="1.1" viewBox="0.0 0.0 142.81627296587928 280.98162729658793" fill="none" stroke="none" stroke-linecap="square" stroke-miterlimit="10" xmlns:xlink="http://www.w3.org/1999/xlink" xmlns="http://www.w3.org/2000/svg"><clipPath id="p.0"><path d="m0 0l142.81627 0l0 280.98163l-142.81627 0l0 -280.98163z" clip-rule="nonzero"/></clipPath><g clip-path="url(#p.0)"><path fill="#000000" fill-opacity="0.0" d="m0 0l142.81627 0l0 280.98163l-142.81627 0z" fill-rule="evenodd"/><g filter="url(#shadowFilter-p.1)"><use xlink:href="#p.1" transform="matrix(1.0 0.0 0.0 1.0 1.0000002624671922 0.0)"/></g><defs><filter id="shadowFilter-p.1" filterUnits="userSpaceOnUse"><feGaussianBlur in="SourceAlpha" stdDeviation="2.5" result="blur"/><feComponentTransfer in="blur" color-interpolation-filters="sRGB"><feFuncR type="linear" slope="0" intercept="0.0"/><feFuncG type="linear" slope="0" intercept="0.0"/><feFuncB type="linear" slope="0" intercept="0.0"/><feFuncA type="linear" slope="0.5" intercept="0"/></feComponentTransfer></filter></defs><g id="p.1"><path fill="#ffffff" d="m4.984252 4.7979l132.0315 0l0 156.69292l-132.0315 0z" fill-rule="evenodd"/></g><path fill="#000000" fill-opacity="0.0" d="m-45.002625 -1.7028005l233.6063 0l0 40.40945l-233.6063 0z" fill-rule="evenodd"/><path fill="#000000" d="m18.77008 24.109074q-1.8125 0 -3.109375 -0.765625q-1.28125 -0.78125 -1.96875 -2.171875q-0.671875 -1.390625 -0.671875 -3.234375l0 -0.3125q0 -1.796875 0.671875 -3.1875q0.671875 -1.390625 1.9375 -2.1875q1.265625 -0.8125 3.015625 -0.8125q1.21875 0 2.265625 0.375q1.0625 0.359375 1.828125 1.015625l0 2.84375l-1.625 0l-0.21875 -1.90625q-0.28125 -0.203125 -0.625 -0.34375q-0.328125 -0.140625 -0.734375 -0.21875q-0.390625 -0.078125 -0.875 -0.078125q-1.109375 0 -1.90625 0.5625q-0.78125 0.546875 -1.203125 1.5625q-0.40625 1.0 -0.40625 2.359375l0 0.328125q0 1.40625 0.4375 2.421875q0.4375 1.0 1.265625 1.546875q0.828125 0.546875 1.984375 0.546875q0.546875 0 1.09375 -0.125q0.546875 -0.140625 0.96875 -0.359375l0.21875 -1.71875l1.609375 0l0 2.828125q-0.703125 0.46875 -1.734375 0.75q-1.03125 0.28125 -2.21875 0.28125zm9.613861 0q-1.328125 0 -2.28125 -0.578125q-0.9375 -0.59375 -1.453125 -1.640625q-0.5 -1.0625 -0.5 -2.4375l0 -0.171875q0 -1.375 0.5 -2.421875q0.515625 -1.046875 1.453125 -1.640625q0.953125 -0.609375 2.265625 -0.609375q1.3125 0 2.25 0.609375q0.953125 0.59375 1.453125 1.640625q0.515625 1.046875 0.515625 2.421875l0 0.171875q0 1.375 -0.515625 2.4375q-0.5 1.046875 -1.4375 1.640625q-0.9375 0.578125 -2.25 0.578125zm0 -1.640625q0.703125 0 1.15625 -0.375q0.46875 -0.390625 0.6875 -1.0625q0.234375 -0.6875 0.234375 -1.578125l0 -0.171875q0 -0.890625 -0.234375 -1.5625q-0.21875 -0.671875 -0.6875 -1.0625q-0.453125 -0.390625 -1.171875 -0.390625q-0.703125 0 -1.171875 0.390625q-0.46875 0.390625 -0.703125 1.0625q-0.21875 0.671875 -0.21875 1.5625l0 0.171875q0 0.890625 0.21875 1.578125q0.234375 0.671875 0.703125 1.0625q0.46875 0.375 1.1875 0.375zm6.0062103 -2.953125l0 -1.640625l4.5 0l0 1.640625l-4.5 0zm11.593658 4.59375q-1.234375 0 -2.234375 -0.453125q-0.984375 -0.46875 -1.6875 -1.296875q-0.703125 -0.84375 -1.09375 -1.984375q-0.375 -1.140625 -0.375 -2.5l0 -0.1875q0 -1.359375 0.375 -2.5q0.390625 -1.140625 1.09375 -1.984375q0.703125 -0.84375 1.6875 -1.296875q1.0 -0.46875 2.21875 -0.46875q1.265625 0 2.265625 0.46875q1.0 0.453125 1.703125 1.296875q0.703125 0.84375 1.0625 1.984375q0.375 1.140625 0.375 2.5l0 0.1875q0 1.359375 -0.375 2.5q-0.359375 1.140625 -1.0625 1.984375q-0.703125 0.828125 -1.703125 1.296875q-1.0 0.453125 -2.25 0.453125zm0 -1.6875q1.109375 0 1.828125 -0.5625q0.734375 -0.578125 1.078125 -1.59375q0.359375 -1.03125 0.359375 -2.390625l0 -0.203125q0 -1.34375 -0.359375 -2.359375q-0.359375 -1.015625 -1.078125 -1.59375q-0.71875 -0.578125 -1.84375 -0.578125q-1.0625 0 -1.78125 0.578125q-0.71875 0.578125 -1.09375 1.59375q-0.359375 1.015625 -0.359375 2.359375l0 0.203125q0 1.34375 0.359375 2.375q0.375 1.03125 1.09375 1.609375q0.71875 0.5625 1.796875 0.5625zm9.614914 1.515625l-2.25 -7.671875l-1.078125 -0.171875l0 -1.3125l4.15625 0l0 1.3125l-1.03125 0.1875l1.03125 3.96875l0.203125 0.875l0.046875 0l0.296875 -0.875l1.921875 -5.46875l1.546875 0l1.859375 5.515625l0.3125 0.96875l0.046875 0l0.296875 -0.96875l1.109375 -4.015625l-1.09375 -0.1875l0 -1.3125l4.0625 0l0 1.3125l-1.046875 0.171875l-2.34375 7.671875l-1.875 0l-1.75 -4.9375l-0.359375 -1.203125l-0.046875 0l-0.359375 1.203125l-1.78125 4.9375l-1.875 0zm12.259689 0l0 -1.296875l1.265625 -0.265625l0 -6.03125l-1.328125 -0.25l0 -1.3125l3.296875 0l0.109375 1.328125q0.453125 -0.703125 1.125 -1.09375q0.6875 -0.40625 1.5625 -0.40625q1.40625 0 2.1875 0.875q0.796875 0.859375 0.796875 2.703125l0 4.1875l1.265625 0.265625l0 1.296875l-4.59375 0l0 -1.296875l1.1875 -0.265625l0 -4.171875q0 -1.03125 -0.421875 -1.46875q-0.40625 -0.4375 -1.21875 -0.4375q-0.625 0 -1.09375 0.28125q-0.453125 0.265625 -0.734375 0.765625l0 5.03125l1.15625 0.265625l0 1.296875l-4.5625 0zm15.427628 0.171875q-1.28125 0 -2.25 -0.578125q-0.953125 -0.578125 -1.484375 -1.59375q-0.53125 -1.03125 -0.53125 -2.34375l0 -0.359375q0 -1.34375 0.515625 -2.375q0.53125 -1.046875 1.4375 -1.640625q0.90625 -0.609375 2.078125 -0.609375q1.25 0 2.09375 0.5q0.84375 0.5 1.265625 1.421875q0.4375 0.921875 0.4375 2.203125l0 1.21875l-5.625 0l-0.015625 0.046875q0.03125 0.71875 0.296875 1.28125q0.265625 0.546875 0.765625 0.875q0.5 0.3125 1.203125 0.3125q0.75 0 1.359375 -0.203125q0.609375 -0.203125 1.125 -0.5625l0.671875 1.328125q-0.546875 0.453125 -1.390625 0.765625q-0.828125 0.3125 -1.953125 0.3125zm-2.03125 -5.65625l3.546875 0l0 -0.21875q0 -0.59375 -0.1875 -1.046875q-0.171875 -0.453125 -0.5625 -0.703125q-0.375 -0.265625 -0.96875 -0.265625q-0.515625 0 -0.90625 0.296875q-0.390625 0.28125 -0.625 0.78125q-0.234375 0.484375 -0.3125 1.109375l0.015625 0.046875zm6.8970184 5.484375l0 -1.296875l1.265625 -0.265625l0 -6.03125l-1.34375 -0.25l0 -1.3125l3.3125 0l0.109375 1.15625l0.015625 0.1875q0.359375 -0.734375 0.890625 -1.125q0.53125 -0.390625 1.234375 -0.390625q0.234375 0 0.5 0.046875q0.265625 0.046875 0.4375 0.09375l-0.234375 1.96875l-1.203125 -0.0625q-0.578125 -0.03125 -0.953125 0.234375q-0.375 0.25 -0.640625 0.71875l0 4.765625l1.28125 0.265625l0 1.296875l-4.671875 0zm11.120834 0.171875q-0.984375 0 -1.84375 -0.1875q-0.84375 -0.1875 -1.6875 -0.5625l-0.03125 -2.421875l1.53125 0l0.328125 1.328125q0.359375 0.15625 0.734375 0.25q0.390625 0.078125 0.875 0.078125q0.90625 0 1.28125 -0.3125q0.375 -0.328125 0.375 -0.796875q0 -0.453125 -0.390625 -0.78125q-0.390625 -0.328125 -1.5 -0.5625q-1.640625 -0.359375 -2.421875 -1.03125q-0.765625 -0.6875 -0.765625 -1.78125q0 -0.75 0.390625 -1.359375q0.40625 -0.609375 1.1875 -0.96875q0.78125 -0.375 1.9375 -0.375q1.03125 0 1.84375 0.21875q0.8125 0.203125 1.375 0.5625l0.046875 2.328125l-1.515625 0l-0.265625 -1.203125q-0.25 -0.1875 -0.609375 -0.28125q-0.34375 -0.109375 -0.78125 -0.109375q-0.703125 0 -1.109375 0.3125q-0.40625 0.296875 -0.40625 0.765625q0 0.265625 0.125 0.5q0.125 0.21875 0.5 0.40625q0.390625 0.171875 1.109375 0.34375q1.78125 0.40625 2.546875 1.078125q0.78125 0.671875 0.78125 1.765625q0 1.234375 -0.90625 2.015625q-0.890625 0.78125 -2.734375 0.78125zm4.706375 -0.171875l0 -1.296875l1.265625 -0.265625l0 -10.078125l-1.34375 -0.25l0 -1.3125l3.46875 0l0 5.234375q0.453125 -0.640625 1.109375 -1.0q0.65625 -0.359375 1.484375 -0.359375q1.421875 0 2.21875 0.90625q0.8125 0.90625 0.8125 2.78125l0 4.078125l1.265625 0.265625l0 1.296875l-4.59375 0l0 -1.296875l1.203125 -0.265625l0 -4.09375q0 -1.046875 -0.421875 -1.515625q-0.421875 -0.46875 -1.234375 -0.46875q-0.59375 0 -1.0625 0.265625q-0.46875 0.25 -0.78125 0.71875l0 5.09375l1.203125 0.265625l0 1.296875l-4.59375 0zm11.160736 0l0 -1.296875l1.28125 -0.265625l0 -6.03125l-1.34375 -0.25l0 -1.3125l3.46875 0l0 7.59375l1.265625 0.265625l0 1.296875l-4.671875 0zm1.203125 -11.234375l0 -1.96875l2.21875 0l0 1.96875l-2.21875 0zm4.2932587 14.75l0 -1.3125l1.234375 -0.25l0 -9.546875l-1.34375 -0.25l0 -1.3125l3.25 0l0.140625 1.078125q0.421875 -0.59375 1.03125 -0.921875q0.609375 -0.328125 1.4375 -0.328125q1.109375 0 1.90625 0.609375q0.796875 0.609375 1.21875 1.703125q0.421875 1.09375 0.421875 2.5625l0 0.171875q0 1.34375 -0.421875 2.34375q-0.421875 1.0 -1.21875 1.5625q-0.796875 0.546875 -1.90625 0.546875q-0.796875 0 -1.390625 -0.265625q-0.578125 -0.28125 -1.0 -0.8125l0 2.859375l1.296875 0.25l0 1.3125l-4.65625 0zm5.109375 -4.984375q1.046875 0 1.546875 -0.765625q0.5 -0.78125 0.5 -2.046875l0 -0.171875q0 -0.953125 -0.21875 -1.671875q-0.21875 -0.71875 -0.6875 -1.109375q-0.453125 -0.40625 -1.15625 -0.40625q-0.59375 0 -1.03125 0.265625q-0.4375 0.265625 -0.703125 0.75l0 4.203125q0.265625 0.453125 0.6875 0.703125q0.4375 0.25 1.0625 0.25z" fill-rule="nonzero"/><path fill="#000000" fill-opacity="0.0" d="m9.772845 92.83504l0 0c0 -32.95416 26.714626 -59.668785 59.66879 -59.668785l0 0c15.825142 0 31.002136 6.2865143 42.1922 17.476582c11.190071 11.190067 17.476578 26.367062 17.476578 42.192204l0 0c0 32.954163 -26.714615 59.668793 -59.668777 59.668793l0 0c-32.954163 0 -59.66879 -26.71463 -59.66879 -59.668793z" fill-rule="evenodd"/><path stroke="#000000" stroke-width="1.0" stroke-linejoin="round" stroke-linecap="butt" d="m9.772845 92.83504l0 0c0 -32.95416 26.714626 -59.668785 59.66879 -59.668785l0 0c15.825142 0 31.002136 6.2865143 42.1922 17.476582c11.190071 11.190067 17.476578 26.367062 17.476578 42.192204l0 0c0 32.954163 -26.714615 59.668793 -59.668777 59.668793l0 0c-32.954163 0 -59.66879 -26.71463 -59.66879 -59.668793z" fill-rule="evenodd"/><path fill="#000000" d="m33.319004 116.08837l0 -1.40625l0.96875 -0.140625l4.390625 -11.71875l2.234375 0l4.328125 11.71875l0.96875 0.140625l0 1.40625l-4.21875 0l0 -1.40625l0.953125 -0.171875l-0.703125 -2.078125l-4.9375 0l-0.71875 2.078125l0.953125 0.171875l0 1.40625l-4.21875 0zm4.578125 -5.421875l3.75 0l-1.71875 -4.90625l-0.125 -0.359375l-0.046875 0l-0.140625 0.375l-1.71875 4.890625zm9.27742 5.421875l0 -1.40625l1.390625 -0.265625l0 -10.859375l-1.46875 -0.265625l0 -1.40625l3.75 0l0 12.53125l1.375 0.265625l0 1.40625l-5.046875 0zm5.9485016 0l0 -1.40625l1.390625 -0.265625l0 -10.859375l-1.46875 -0.265625l0 -1.40625l3.75 0l0 12.53125l1.375 0.265625l0 1.40625l-5.046875 0zm15.267551 0.1875q-1.40625 0 -2.4375 -0.625q-1.015625 -0.640625 -1.5625 -1.78125q-0.5468788 -1.140625 -0.5468788 -2.609375l0 -0.1875q0 -1.46875 0.5468788 -2.59375q0.546875 -1.140625 1.5625 -1.78125q1.03125 -0.640625 2.421875 -0.640625q1.421875 0 2.4375 0.640625q1.03125 0.640625 1.578125 1.765625q0.546875 1.125 0.546875 2.609375l0 0.1875q0 1.46875 -0.546875 2.609375q-0.546875 1.140625 -1.5625 1.78125q-1.015625 0.625 -2.4375 0.625zm0 -1.765625q0.765625 0 1.265625 -0.40625q0.5 -0.421875 0.734375 -1.15625q0.25 -0.734375 0.25 -1.6875l0 -0.1875q0 -0.953125 -0.25 -1.671875q-0.234375 -0.734375 -0.734375 -1.15625q-0.5 -0.421875 -1.28125 -0.421875q-0.75 0 -1.25 0.421875q-0.5 0.421875 -0.75 1.15625q-0.234375 0.71875 -0.234375 1.671875l0 0.1875q0 0.953125 0.234375 1.6875q0.25 0.734375 0.75 1.15625q0.515625 0.40625 1.265625 0.40625zm5.8874207 1.578125l0 -1.40625l1.375 -0.265625l0 -6.546875l-1.5 0l0 -1.640625l1.5 0l0 -1.15625q0 -1.625 0.890625 -2.5q0.90625 -0.890625 2.515625 -0.890625q0.375 0 0.796875 0.0625q0.4375 0.0625 0.78125 0.15625l-0.21875 1.71875q-0.203125 -0.046875 -0.484375 -0.078125q-0.28125 -0.03125 -0.546875 -0.03125q-0.734375 0 -1.09375 0.40625q-0.359375 0.390625 -0.359375 1.15625l0 1.15625l2.203125 0l0 1.640625l-2.203125 0l0 6.546875l1.71875 0.265625l0 1.40625l-5.375 0zm11.50264 0l0 -1.40625l1.453125 -0.265625l0 -9.90625l-1.453125 -0.265625l0 -1.421875l5.1875 0l0 1.421875l-1.4375 0.265625l0 9.90625l1.4375 0.265625l0 1.40625l-5.1875 0zm9.551117 0l0 -1.40625l1.453125 -0.265625l0 -9.828125l-2.671875 0l-0.203125 1.6875l-1.71875 0l0 -3.453125l11.484375 0l0 3.453125l-1.734375 0l-0.1875 -1.6875l-2.671875 0l0 9.828125l1.453125 0.265625l0 1.40625l-5.203125 0z" fill-rule="nonzero"/><g filter="url(#shadowFilter-p.2)"><use xlink:href="#p.2" transform="matrix(1.0 0.0 0.0 1.0 1.0000002624671898 0.0)"/></g><defs><filter id="shadowFilter-p.2" filterUnits="userSpaceOnUse"><feGaussianBlur in="SourceAlpha" stdDeviation="2.5" result="blur"/><feComponentTransfer in="blur" color-interpolation-filters="sRGB"><feFuncR type="linear" slope="0" intercept="0.0"/><feFuncG type="linear" slope="0" intercept="0.0"/><feFuncB type="linear" slope="0" intercept="0.0"/><feFuncA type="linear" slope="0.5" intercept="0"/></feComponentTransfer></filter></defs><g id="p.2"><path fill="#ffffff" d="m40.290028 173.06313l97.22835 0l0 101.354324l-97.22835 0z" fill-rule="evenodd"/></g><path fill="#000000" fill-opacity="0.0" d="m40.20341 165.06299l97.22835 0l0 33.921265l-97.22835 0z" fill-rule="evenodd"/><path fill="#000000" d="m52.001167 185.708q-1.25 0 -2.15625 -0.53125q-0.890625 -0.546875 -1.359375 -1.5q-0.46875 -0.96875 -0.46875 -2.25l0 -0.21875q0 -1.25 0.46875 -2.203125q0.46875 -0.96875 1.34375 -1.515625q0.875 -0.5625 2.078125 -0.5625q0.859375 0 1.578125 0.25q0.734375 0.25 1.265625 0.71875l0 1.96875l-1.125 0l-0.140625 -1.328125q-0.203125 -0.140625 -0.4375 -0.234375q-0.234375 -0.109375 -0.515625 -0.15625q-0.265625 -0.046875 -0.59375 -0.046875q-0.78125 0 -1.328125 0.390625q-0.546875 0.375 -0.828125 1.078125q-0.28125 0.6875 -0.28125 1.625l0 0.234375q0 0.96875 0.296875 1.671875q0.3125 0.703125 0.875 1.078125q0.578125 0.375 1.375 0.375q0.375 0 0.75 -0.09375q0.390625 -0.09375 0.671875 -0.234375l0.15625 -1.203125l1.125 0l0 1.96875q-0.5 0.3125 -1.21875 0.515625q-0.703125 0.203125 -1.53125 0.203125zm6.6640625 0q-0.921875 0 -1.578125 -0.40625q-0.65625 -0.421875 -1.015625 -1.140625q-0.34375 -0.734375 -0.34375 -1.6875l0 -0.125q0 -0.9375 0.34375 -1.65625q0.359375 -0.734375 1.015625 -1.140625q0.65625 -0.421875 1.5625 -0.421875q0.90625 0 1.5625 0.421875q0.65625 0.40625 1.0 1.140625q0.359375 0.71875 0.359375 1.65625l0 0.125q0 0.953125 -0.359375 1.6875q-0.34375 0.71875 -1.0 1.140625q-0.640625 0.40625 -1.546875 0.40625zm0 -1.140625q0.484375 0 0.796875 -0.265625q0.328125 -0.265625 0.484375 -0.734375q0.15625 -0.46875 0.15625 -1.09375l0 -0.125q0 -0.609375 -0.15625 -1.078125q-0.15625 -0.46875 -0.484375 -0.734375q-0.3125 -0.265625 -0.8125 -0.265625q-0.484375 0 -0.8125 0.265625q-0.328125 0.265625 -0.484375 0.734375q-0.140625 0.46875 -0.140625 1.078125l0 0.125q0 0.625 0.140625 1.09375q0.15625 0.46875 0.484375 0.734375q0.328125 0.265625 0.828125 0.265625zm4.1601562 -2.046875l0 -1.140625l3.109375 0l0 1.140625l-3.109375 0zm8.025391 3.1875q-0.859375 0 -1.546875 -0.3125q-0.671875 -0.328125 -1.171875 -0.90625q-0.484375 -0.578125 -0.75 -1.375q-0.265625 -0.796875 -0.265625 -1.734375l0 -0.125q0 -0.9375 0.265625 -1.71875q0.265625 -0.796875 0.75 -1.375q0.5 -0.59375 1.171875 -0.90625q0.6875 -0.328125 1.53125 -0.328125q0.875 0 1.5625 0.328125q0.703125 0.3125 1.1875 0.90625q0.484375 0.578125 0.734375 1.375q0.265625 0.78125 0.265625 1.71875l0 0.125q0 0.9375 -0.265625 1.734375q-0.25 0.796875 -0.734375 1.375q-0.484375 0.578125 -1.1875 0.90625q-0.6875 0.3125 -1.546875 0.3125zm0 -1.171875q0.765625 0 1.265625 -0.390625q0.5 -0.40625 0.734375 -1.109375q0.25 -0.71875 0.25 -1.65625l0 -0.140625q0 -0.9375 -0.25 -1.640625q-0.234375 -0.703125 -0.734375 -1.09375q-0.5 -0.40625 -1.28125 -0.40625q-0.734375 0 -1.234375 0.40625q-0.5 0.390625 -0.75 1.09375q-0.25 0.703125 -0.25 1.640625l0 0.140625q0 0.9375 0.25 1.65625q0.25 0.703125 0.75 1.109375q0.5 0.390625 1.25 0.390625zm6.6601562 1.046875l-1.5625 -5.3125l-0.75 -0.125l0 -0.90625l2.890625 0l0 0.90625l-0.71875 0.140625l0.703125 2.75l0.15625 0.59375l0.03125 0l0.203125 -0.59375l1.328125 -3.796875l1.078125 0l1.28125 3.8125l0.21875 0.671875l0.03125 0l0.203125 -0.671875l0.765625 -2.765625l-0.765625 -0.140625l0 -0.90625l2.828125 0l0 0.90625l-0.734375 0.125l-1.625 5.3125l-1.28125 0l-1.21875 -3.421875l-0.25 -0.828125l-0.03125 0l-0.25 0.828125l-1.234375 3.421875l-1.296875 0zm8.488281 0l0 -0.90625l0.875 -0.171875l0 -4.171875l-0.921875 -0.1875l0 -0.90625l2.28125 0l0.078125 0.921875q0.3125 -0.484375 0.78125 -0.75q0.484375 -0.28125 1.078125 -0.28125q0.984375 0 1.515625 0.609375q0.546875 0.59375 0.546875 1.859375l0 2.90625l0.890625 0.171875l0 0.90625l-3.1875 0l0 -0.90625l0.828125 -0.171875l0 -2.890625q0 -0.71875 -0.296875 -1.015625q-0.28125 -0.3125 -0.84375 -0.3125q-0.4375 0 -0.765625 0.203125q-0.3125 0.1875 -0.5 0.515625l0 3.5l0.796875 0.171875l0 0.90625l-3.15625 0zm10.691406 0.125q-0.90625 0 -1.578125 -0.40625q-0.65625 -0.40625 -1.03125 -1.109375q-0.359375 -0.703125 -0.359375 -1.625l0 -0.25q0 -0.921875 0.359375 -1.640625q0.359375 -0.71875 0.984375 -1.125q0.640625 -0.421875 1.453125 -0.421875q0.859375 0 1.4375 0.34375q0.59375 0.34375 0.890625 0.984375q0.296875 0.625 0.296875 1.515625l0 0.84375l-3.890625 0l-0.015625 0.03125q0.03125 0.5 0.21875 0.890625q0.1875 0.390625 0.515625 0.609375q0.34375 0.21875 0.84375 0.21875q0.515625 0 0.9375 -0.140625q0.421875 -0.140625 0.78125 -0.390625l0.453125 0.921875q-0.375 0.3125 -0.953125 0.53125q-0.578125 0.21875 -1.34375 0.21875zm-1.40625 -3.921875l2.453125 0l0 -0.15625q0 -0.40625 -0.125 -0.71875q-0.125 -0.328125 -0.390625 -0.5q-0.265625 -0.171875 -0.6875 -0.171875q-0.359375 0 -0.625 0.203125q-0.265625 0.1875 -0.4375 0.53125q-0.15625 0.34375 -0.203125 0.78125l0.015625 0.03125zm4.7695312 3.796875l0 -0.90625l0.875 -0.171875l0 -4.171875l-0.921875 -0.1875l0 -0.90625l2.28125 0l0.078125 0.796875l0.015625 0.125q0.25 -0.5 0.609375 -0.765625q0.375 -0.265625 0.859375 -0.265625q0.171875 0 0.34375 0.03125q0.18750763 0.015625 0.31250763 0.0625l-0.171875 1.359375l-0.8281326 -0.046875q-0.40625 -0.015625 -0.671875 0.171875q-0.25 0.171875 -0.4375 0.484375l0 3.3125l0.890625 0.171875l0 0.90625l-3.234375 0zm7.693367 0.125q-0.671875 0 -1.265625 -0.125q-0.578125 -0.140625 -1.171875 -0.40625l-0.015625 -1.671875l1.046875 0l0.234375 0.921875q0.25 0.109375 0.515625 0.171875q0.265625 0.0625 0.59375 0.0625q0.625 0 0.890625 -0.21875q0.265625 -0.234375 0.265625 -0.5625q0 -0.3125 -0.28125 -0.53125q-0.265625 -0.234375 -1.03125 -0.390625q-1.140625 -0.25 -1.6875 -0.71875q-0.53125 -0.484375 -0.53125 -1.234375q0 -0.515625 0.28125 -0.9375q0.28125 -0.421875 0.8125 -0.671875q0.546875 -0.265625 1.34375 -0.265625q0.71875 0 1.28125 0.15625q0.5625 0.140625 0.953125 0.390625l0.03125 1.609375l-1.046875 0l-0.1875 -0.84375q-0.171875 -0.125 -0.421875 -0.1875q-0.234375 -0.078125 -0.546875 -0.078125q-0.484375 0 -0.765625 0.21875q-0.28125 0.21875 -0.28125 0.53125q0 0.1875 0.09375 0.34375q0.09375 0.15625 0.34375 0.28125q0.265625 0.125 0.765625 0.234375q1.234375 0.296875 1.765625 0.765625q0.546875 0.453125 0.546875 1.21875q0 0.84375 -0.625 1.390625q-0.625 0.546875 -1.90625 0.546875zm3.2636719 -0.125l0 -0.90625l0.875 -0.171875l0 -6.984375l-0.921875 -0.171875l0 -0.90625l2.390625 0l0 3.625q0.3125 -0.453125 0.765625 -0.6875q0.46875 -0.25 1.046875 -0.25q0.96875 0 1.53125 0.625q0.5625 0.625 0.5625 1.921875l0 2.828125l0.875 0.171875l0 0.90625l-3.1875 0l0 -0.90625l0.84375 -0.171875l0 -2.84375q0 -0.71875 -0.296875 -1.046875q-0.296875 -0.328125 -0.859375 -0.328125q-0.40625 0 -0.734375 0.1875q-0.328125 0.171875 -0.546875 0.5l0 3.53125l0.84375 0.171875l0 0.90625l-3.1875 0zm7.7421875 0l0 -0.90625l0.875 -0.171875l0 -4.171875l-0.9375 -0.1875l0 -0.90625l2.40625 0l0 5.265625l0.875 0.171875l0 0.90625l-3.21875 0zm0.8125 -7.78125l0 -1.359375l1.53125 0l0 1.359375l-1.53125 0zm2.9746094 10.21875l0 -0.90625l0.859375 -0.171875l0 -6.609375l-0.9375 -0.1875l0 -0.90625l2.265625 0l0.09375 0.75q0.28125 -0.40625 0.703125 -0.625q0.421875 -0.234375 1.0 -0.234375q0.78125 0 1.328125 0.421875q0.546875 0.421875 0.828125 1.171875q0.296875 0.75 0.296875 1.765625l0 0.125q0 0.921875 -0.296875 1.625q-0.28125 0.6875 -0.828125 1.078125q-0.546875 0.390625 -1.328125 0.390625q-0.546875 0 -0.953125 -0.1875q-0.40625 -0.203125 -0.703125 -0.5625l0 1.984375l0.90625 0.171875l0 0.90625l-3.234375 0zm3.546875 -3.453125q0.71875 0 1.0625 -0.53125q0.359375 -0.546875 0.359375 -1.421875l0 -0.125q0 -0.65625 -0.15625 -1.140625q-0.15625 -0.5 -0.484375 -0.78125q-0.3125 -0.28125 -0.796875 -0.28125q-0.40625 0 -0.71875 0.1875q-0.296875 0.1875 -0.484375 0.515625l0 2.90625q0.1875 0.328125 0.484375 0.5q0.296875 0.171875 0.734375 0.171875z" fill-rule="nonzero"/><path fill="#000000" fill-opacity="0.0" d="m51.330708 231.38423l0 0c0 -20.699799 16.780506 -37.480316 37.480312 -37.480316l0 0c9.940399 0 19.473663 3.9488068 26.502586 10.977737c7.028923 7.0289154 10.97773 16.56218 10.97773 26.502579l0 0c0 20.699814 -16.78051 37.48033 -37.480316 37.48033l0 0c-20.699806 0 -37.480312 -16.780518 -37.480312 -37.48033z" fill-rule="evenodd"/><path stroke="#000000" stroke-width="1.0" stroke-linejoin="round" stroke-linecap="butt" d="m51.330708 231.38423l0 0c0 -20.699799 16.780506 -37.480316 37.480312 -37.480316l0 0c9.940399 0 19.473663 3.9488068 26.502586 10.977737c7.028923 7.0289154 10.97773 16.56218 10.97773 26.502579l0 0c0 20.699814 -16.78051 37.48033 -37.480316 37.48033l0 0c-20.699806 0 -37.480312 -16.780518 -37.480312 -37.48033z" fill-rule="evenodd"/><path fill="#000000" d="m72.096375 234.45381q-1.0625 0 -1.984375 -0.265625q-0.90625 -0.265625 -1.78125 -0.890625l0 -2.390625l1.390625 0l0.234375 1.546875q0.375 0.28125 0.921875 0.453125q0.5625 0.15625 1.21875 0.15625q0.640625 0 1.0625 -0.1875q0.4375 -0.1875 0.65625 -0.515625q0.234375 -0.328125 0.234375 -0.78125q0 -0.40625 -0.203125 -0.71875q-0.1875 -0.328125 -0.65625 -0.578125q-0.46875 -0.265625 -1.265625 -0.484375q-1.15625 -0.3125 -1.9375 -0.734375q-0.78125 -0.4375 -1.1875 -1.03125q-0.390625 -0.609375 -0.390625 -1.421875q0 -0.828125 0.453125 -1.46875q0.453125 -0.65625 1.25 -1.03125q0.8125 -0.375 1.875 -0.375q1.15625 -0.015625 2.046875 0.296875q0.890625 0.3125 1.515625 0.828125l0 2.234375l-1.375 0l-0.25 -1.453125q-0.296875 -0.203125 -0.765625 -0.34375q-0.46875 -0.15625 -1.109375 -0.15625q-0.546875 0 -0.96875 0.1875q-0.40625 0.171875 -0.640625 0.5q-0.234375 0.3125 -0.234375 0.765625q0 0.390625 0.203125 0.6875q0.21875 0.296875 0.703125 0.546875q0.484375 0.234375 1.3125 0.46875q1.703125 0.453125 2.5625 1.25q0.875 0.796875 0.875 2.015625q0 0.875 -0.46875 1.53125q-0.46875 0.640625 -1.3125 1.0q-0.84375 0.359375 -1.984375 0.359375zm4.7242126 -0.15625l0 -1.109375l1.078125 -0.203125l0 -5.109375l-1.140625 -0.21875l0 -1.109375l2.796875 0l0.078125 1.015625q0.390625 -0.546875 0.953125 -0.84375q0.5625 -0.3125 1.328125 -0.3125q0.75 0 1.28125 0.34375q0.546875 0.34375 0.828125 1.03125q0.359375 -0.640625 0.9375 -1.0q0.59375 -0.375 1.375 -0.375q1.171875 0 1.828125 0.796875q0.671875 0.796875 0.671875 2.40625l0 3.375l1.09375 0.203125l0 1.109375l-3.90625 0l0 -1.109375l1.015625 -0.203125l0 -3.375q0 -0.984375 -0.328125 -1.375q-0.328125 -0.40625 -0.96875 -0.40625q-0.59375 0 -0.984375 0.390625q-0.375 0.375 -0.484375 0.96875l0 3.796875l0.96875 0.203125l0 1.109375l-3.75 0l0 -1.109375l0.984375 -0.203125l0 -3.375q0 -0.953125 -0.34375 -1.359375q-0.328125 -0.421875 -0.96875 -0.421875q-0.53125 0 -0.890625 0.21875q-0.359375 0.21875 -0.578125 0.609375l0 4.328125l1.015625 0.203125l0 1.109375l-3.890625 0zm16.50705 0.15625q-1.1875 0 -1.84375 -0.609375q-0.65625 -0.609375 -0.65625 -1.671875q0 -0.734375 0.390625 -1.28125q0.40625 -0.5625 1.171875 -0.875q0.78125 -0.3125 1.890625 -0.3125l1.171875 0l0 -0.640625q0 -0.625 -0.375 -0.984375q-0.359375 -0.359375 -1.0625 -0.359375q-0.40625 0 -0.71875 0.09375q-0.296875 0.09375 -0.546875 0.265625l-0.15625 1.046875l-1.328125 0l-0.015625 -1.90625q0.578125 -0.375 1.28125 -0.59375q0.703125 -0.21875 1.5625 -0.21875q1.46875 0 2.3125 0.703125q0.859375 0.6875 0.859375 1.96875l0 3.421875q0 0.15625 0 0.3125q0 0.140625 0.015625 0.28125l0.78125 0.09375l0 1.109375l-2.34375 0q-0.078125 -0.25 -0.140625 -0.484375q-0.0625 -0.234375 -0.09375 -0.46875q-0.375 0.484375 -0.921875 0.796875q-0.546875 0.3125 -1.234375 0.3125zm0.40625 -1.40625q0.546875 0 1.015625 -0.25q0.46875 -0.25 0.703125 -0.640625l0 -1.296875l-1.203125 0q-0.8125 0 -1.21875 0.375q-0.40625 0.375 -0.40625 0.875q0 0.453125 0.28125 0.703125q0.28125 0.234375 0.828125 0.234375zm5.1243896 1.25l0 -1.109375l1.078125 -0.203125l0 -8.53125l-1.140625 -0.21875l0 -1.09375l2.9375 0l0 9.84375l1.078125 0.203125l0 1.109375l-3.953125 0zm4.673111 0l0 -1.109375l1.078125 -0.203125l0 -8.53125l-1.140625 -0.21875l0 -1.09375l2.9375 0l0 9.84375l1.078125 0.203125l0 1.109375l-3.953125 0zm8.248627 0.15625q-1.09375 0 -1.90625 -0.484375q-0.8125 -0.5 -1.265625 -1.359375q-0.4375 -0.875 -0.4375 -1.984375l0 -0.3125q0 -1.125 0.4375 -2.0q0.4375 -0.890625 1.203125 -1.390625q0.78125 -0.515625 1.78125 -0.515625q1.046875 0 1.75 0.421875q0.71875 0.421875 1.078125 1.203125q0.375 0.78125 0.375 1.859375l0 1.03125l-4.75 0l-0.015625 0.046875q0.03125 0.59375 0.25 1.078125q0.21875 0.46875 0.640625 0.75q0.421875 0.265625 1.015625 0.265625q0.640625 0 1.15625 -0.171875q0.515625 -0.171875 0.953125 -0.484375l0.5625 1.125q-0.46875 0.390625 -1.171875 0.65625q-0.703125 0.265625 -1.65625 0.265625zm-1.71875 -4.796875l3.0 0l0 -0.1875q0 -0.5 -0.15625 -0.875q-0.140625 -0.390625 -0.46875 -0.609375q-0.328125 -0.21875 -0.828125 -0.21875q-0.4375 0 -0.765625 0.25q-0.328125 0.234375 -0.53125 0.65625q-0.1875 0.421875 -0.265625 0.953125l0.015625 0.03125zm5.829193 4.640625l0 -1.109375l1.078125 -0.203125l0 -5.109375l-1.125 -0.21875l0 -1.109375l2.78125 0l0.09375 0.984375l0.015625 0.15625q0.3125 -0.625 0.75 -0.953125q0.453125 -0.328125 1.046875 -0.328125q0.203125 0 0.421875 0.046875q0.234375 0.03125 0.375 0.078125l-0.203125 1.65625l-1.015625 -0.046875q-0.484375 -0.03125 -0.8125 0.1875q-0.3125 0.21875 -0.53125 0.609375l0 4.046875l1.078125 0.203125l0 1.109375l-3.953125 0z" fill-rule="nonzero"/><path fill="#000000" d="m95.05051 251.96423l0 -1.109375l1.140625 -0.203125l0 -7.78125l-1.140625 -0.21875l0 -1.109375l1.140625 0l3.4375 0q1.75 0 2.734375 0.71875q0.984375 0.703125 0.984375 2.125q0 0.703125 -0.40625 1.265625q-0.40625 0.5625 -1.125 0.84375q0.625 0.125 1.046875 0.484375q0.4375 0.359375 0.65625 0.875q0.234375 0.515625 0.234375 1.125q0 1.453125 -0.96875 2.21875q-0.953125 0.765625 -2.671875 0.765625l-5.0625 0zm2.9375 -1.390625l2.125 0q0.875 0 1.34375 -0.40625q0.484375 -0.421875 0.484375 -1.1875q0 -0.5625 -0.1875 -0.9375q-0.171875 -0.390625 -0.53125 -0.59375q-0.359375 -0.21875 -0.9375 -0.21875l-2.296875 0l0 3.34375zm0 -4.640625l1.84375 0q0.796875 0 1.25 -0.375q0.46875 -0.390625 0.46875 -1.09375q0 -0.765625 -0.5 -1.140625q-0.484375 -0.390625 -1.421875 -0.390625l-1.640625 0l0 3.0zm6.5693817 6.03125l0 -1.109375l1.078125 -0.203125l0 -5.109375l-1.140625 -0.21875l0 -1.109375l2.953125 0l0 6.4375l1.0625 0.203125l0 1.109375l-3.953125 0zm1.0 -9.5l0 -1.65625l1.875 0l0 1.65625l-1.875 0zm6.6861115 9.640625q-1.0 0 -1.546875 -0.546875q-0.546875 -0.5625 -0.546875 -1.78125l0 -4.265625l-1.140625 0l0 -1.296875l1.140625 0l0 -1.875l1.796875 0l0 1.875l1.53125 0l0 1.296875l-1.53125 0l0 4.265625q0 0.484375 0.203125 0.71875q0.203125 0.21875 0.546875 0.21875q0.203125 0 0.453125 -0.03125q0.25 -0.03125 0.390625 -0.078125l0.1875 1.28125q-0.3125 0.078125 -0.71875 0.140625q-0.40625 0.078125 -0.765625 0.078125zm5.784027 0.015625q-1.09375 0 -1.90625 -0.484375q-0.8125 -0.5 -1.265625 -1.359375q-0.4375 -0.875 -0.4375 -1.984375l0 -0.3125q0 -1.125 0.4375 -2.0q0.4375 -0.890625 1.203125 -1.390625q0.78125 -0.515625 1.78125 -0.515625q1.046875 0 1.75 0.421875q0.71875 0.421875 1.078125 1.203125q0.375 0.78125 0.375 1.859375l0 1.03125l-4.75 0l-0.015625 0.046875q0.03125 0.59375 0.25 1.078125q0.21875 0.46875 0.640625 0.75q0.421875 0.265625 1.015625 0.265625q0.640625 0 1.15625 -0.171875q0.515625 -0.171875 0.953125 -0.484375l0.5625 1.125q-0.46875 0.390625 -1.171875 0.65625q-0.703125 0.265625 -1.65625 0.265625zm-1.71875 -4.796875l3.0 0l0 -0.1875q0 -0.5 -0.15625 -0.875q-0.140625 -0.390625 -0.46875 -0.609375q-0.328125 -0.21875 -0.828125 -0.21875q-0.4375 0 -0.765625 0.25q-0.328125 0.234375 -0.53125 0.65625q-0.1875 0.421875 -0.265625 0.953125l0.015625 0.03125z" fill-rule="nonzero"/><path fill="#ffffff" d="m114.6936 204.59055c0.39374542 0.97372437 2.2150497 3.7236786 2.362465 5.8423157c0.14742279 2.1186523 -0.34804535 4.99411 -1.477951 6.8695526c-1.1298981 1.8754425 -4.298004 3.4638824 -5.3014603 4.383148c-1.0034485 0.9192505 -0.61878204 0.94366455 -0.71925354 1.1324005c-0.1004715 0.18873596 -0.34679413 -0.4688568 0.11643219 0c0.46322632 0.4688568 2.1211472 1.3214569 2.662941 2.8131714c0.5417862 1.4917297 0.6857605 4.2626343 0.5877991 6.137146c-0.097969055 1.8745117 -0.2917099 3.6735992 -1.1755981 5.109909c-0.8838959 1.4363251 -2.5796814 2.655426 -4.127739 3.5080261c-1.5480652 0.85258484 -3.6128693 1.3643341 -5.1606216 1.6075287c-1.5477448 0.24319458 -3.3026886 -0.12582397 -4.125862 -0.1483612c-0.8231659 -0.022537231 -0.7596283 0.012832642 -0.8131485 0.013137817c-0.053520203 3.2043457E-4 0.43036652 -0.13113403 0.49201965 -0.011260986c0.061660767 0.11987305 -0.2976532 -0.024414062 -0.12206268 0.7305145c0.17559052 0.75494385 1.1017303 2.4113007 1.1755981 3.7991028c0.0738678 1.3878174 0.028793335 3.2616882 -0.7324066 4.5277405c-0.7611923 1.2660522 -2.4341354 2.0945435 -3.8347778 3.0685883c-1.4006348 0.97402954 -3.0704498 2.2400818 -4.5690536 2.7756042c-1.4986115 0.53552246 -3.0954971 0.7048645 -4.4225845 0.43756104c-1.3270874 -0.26730347 -2.4835892 -1.2626038 -3.5399399 -2.041336c-1.0563507 -0.77871704 -2.379364 -2.225998 -2.798149 -2.631012c-0.4187851 -0.40499878 0.14084625 0.08544922 0.28544617 0.200943c0.14460754 0.115493774 0.53741455 0.44726562 0.5821686 0.4920349c0.044761658 0.04475403 -0.31643677 -0.2541504 -0.31362152 -0.22348022c0.002822876 0.030670166 0.88952637 -0.14678955 0.33052063 0.40751648c-0.5589981 0.55430603 -2.480774 2.0904694 -3.6845398 2.9183197c-1.2037659 0.82788086 -2.3092575 1.6103516 -3.538063 2.0488586c-1.2288055 0.43850708 -2.336174 0.46102905 -3.8347778 0.5821533c-1.4986115 0.121154785 -3.6826706 0.5098877 -5.1568604 0.1446228c-1.4741936 -0.3652649 -3.0735817 -1.9468079 -3.688301 -2.3361816" fill-rule="evenodd"/><path stroke="#000000" stroke-width="1.0" stroke-linejoin="round" stroke-linecap="butt" d="m114.6936 204.59055c0.39374542 0.97372437 2.2150497 3.7236786 2.362465 5.8423157c0.14742279 2.1186523 -0.34804535 4.99411 -1.477951 6.8695526c-1.1298981 1.8754425 -4.298004 3.4638824 -5.3014603 4.383148c-1.0034485 0.9192505 -0.61878204 0.94366455 -0.71925354 1.1324005c-0.1004715 0.18873596 -0.34679413 -0.4688568 0.11643219 0c0.46322632 0.4688568 2.1211472 1.3214569 2.662941 2.8131714c0.5417862 1.4917297 0.6857605 4.2626343 0.5877991 6.137146c-0.097969055 1.8745117 -0.2917099 3.6735992 -1.1755981 5.109909c-0.8838959 1.4363251 -2.5796814 2.655426 -4.127739 3.5080261c-1.5480652 0.85258484 -3.6128693 1.3643341 -5.1606216 1.6075287c-1.5477448 0.24319458 -3.3026886 -0.12582397 -4.125862 -0.1483612c-0.8231659 -0.022537231 -0.7596283 0.012832642 -0.8131485 0.013137817c-0.053520203 3.2043457E-4 0.43036652 -0.13113403 0.49201965 -0.011260986c0.061660767 0.11987305 -0.2976532 -0.024414062 -0.12206268 0.7305145c0.17559052 0.75494385 1.1017303 2.4113007 1.1755981 3.7991028c0.0738678 1.3878174 0.028793335 3.2616882 -0.7324066 4.5277405c-0.7611923 1.2660522 -2.4341354 2.0945435 -3.8347778 3.0685883c-1.4006348 0.97402954 -3.0704498 2.2400818 -4.5690536 2.7756042c-1.4986115 0.53552246 -3.0954971 0.7048645 -4.4225845 0.43756104c-1.3270874 -0.26730347 -2.4835892 -1.2626038 -3.5399399 -2.041336c-1.0563507 -0.77871704 -2.379364 -2.225998 -2.798149 -2.631012c-0.4187851 -0.40499878 0.14084625 0.08544922 0.28544617 0.200943c0.14460754 0.115493774 0.53741455 0.44726562 0.5821686 0.4920349c0.044761658 0.04475403 -0.31643677 -0.2541504 -0.31362152 -0.22348022c0.002822876 0.030670166 0.88952637 -0.14678955 0.33052063 0.40751648c-0.5589981 0.55430603 -2.480774 2.0904694 -3.6845398 2.9183197c-1.2037659 0.82788086 -2.3092575 1.6103516 -3.538063 2.0488586c-1.2288055 0.43850708 -2.336174 0.46102905 -3.8347778 0.5821533c-1.4986115 0.121154785 -3.6826706 0.5098877 -5.1568604 0.1446228c-1.4741936 -0.3652649 -3.0735817 -1.9468079 -3.688301 -2.3361816" fill-rule="evenodd"/><path fill="#ffffff" d="m64.41002 32.945744c0.39115906 0.9673233 2.2004929 3.6992073 2.3469467 5.803932c0.14644623 2.1047287 -0.34576416 4.9613 -1.4682388 6.8244286c-1.1224823 1.8631287 -4.269779 3.4411278 -5.2666397 4.354347c-0.9968605 0.91321945 -0.6147194 0.9374733 -0.71453094 1.1249695c-0.099811554 0.18749237 -0.34451675 -0.46578217 0.11566925 0c0.460186 0.46578217 2.107212 1.3127708 2.645443 2.794693c0.5382309 1.4819221 0.68126297 4.234638 0.5839386 6.096836c-0.09732437 1.8621979 -0.2897911 3.649456 -1.1678772 5.0763435c-0.8780823 1.4268875 -2.5627365 2.6379852 -4.100624 3.48497c-1.5378914 0.8469925 -3.589138 1.3553696 -5.1267166 1.5969696c-1.5375786 0.24160004 -3.2809982 -0.125 -4.0987587 -0.14738464c-0.8177643 -0.022384644 -0.7546425 0.012748718 -0.80781174 0.013061523c-0.05316925 3.1280518E-4 0.427536 -0.13028717 0.48879242 -0.011192322c0.061252594 0.11908722 -0.29570007 -0.024253845 -0.12126541 0.72572327c0.17443466 0.7499771 1.0944939 2.3954544 1.1678734 3.7741394c0.07338333 1.3786926 0.028606415 3.240265 -0.72758865 4.498001c-0.7561989 1.2577362 -2.4181519 2.0807877 -3.8095894 3.0484238c-1.3914413 0.9676285 -3.0502853 2.2253647 -4.5390472 2.7573776c-1.4887619 0.53201294 -3.0751572 0.70022583 -4.393528 0.43469238c-1.318367 -0.26554108 -2.4672775 -1.2543182 -3.5166855 -2.0279312c-1.0494099 -0.77360535 -2.363737 -2.2113724 -2.77977 -2.6137238c-0.4160328 -0.40235138 0.13992119 0.08488464 0.28357315 0.19961548c0.14365387 0.114738464 0.5338783 0.4443283 0.57834244 0.48879242c0.04446411 0.04446411 -0.31435776 -0.25247955 -0.31155777 -0.22200775c0.0027980804 0.030471802 0.88368034 -0.14582825 0.32834816 0.40483856c-0.5553322 0.5506668 -2.4644794 2.076744 -3.6603413 2.89917c-1.1958599 0.82242584 -2.2940865 1.5997696 -3.514822 2.0353851c-1.2207336 0.43562317 -2.3208275 0.45801544 -3.8095894 0.57834625c-1.4887619 0.12033081 -3.658474 0.5065155 -5.122983 0.14365387c-1.464509 -0.36286163 -3.0533934 -1.9340286 -3.664071 -2.3208313" fill-rule="evenodd"/><path stroke="#000000" stroke-width="1.0" stroke-linejoin="round" stroke-linecap="butt" d="m64.41002 32.945744c0.39115906 0.9673233 2.2004929 3.6992073 2.3469467 5.803932c0.14644623 2.1047287 -0.34576416 4.9613 -1.4682388 6.8244286c-1.1224823 1.8631287 -4.269779 3.4411278 -5.2666397 4.354347c-0.9968605 0.91321945 -0.6147194 0.9374733 -0.71453094 1.1249695c-0.099811554 0.18749237 -0.34451675 -0.46578217 0.11566925 0c0.460186 0.46578217 2.107212 1.3127708 2.645443 2.794693c0.5382309 1.4819221 0.68126297 4.234638 0.5839386 6.096836c-0.09732437 1.8621979 -0.2897911 3.649456 -1.1678772 5.0763435c-0.8780823 1.4268875 -2.5627365 2.6379852 -4.100624 3.48497c-1.5378914 0.8469925 -3.589138 1.3553696 -5.1267166 1.5969696c-1.5375786 0.24160004 -3.2809982 -0.125 -4.0987587 -0.14738464c-0.8177643 -0.022384644 -0.7546425 0.012748718 -0.80781174 0.013061523c-0.05316925 3.1280518E-4 0.427536 -0.13028717 0.48879242 -0.011192322c0.061252594 0.11908722 -0.29570007 -0.024253845 -0.12126541 0.72572327c0.17443466 0.7499771 1.0944939 2.3954544 1.1678734 3.7741394c0.07338333 1.3786926 0.028606415 3.240265 -0.72758865 4.498001c-0.7561989 1.2577362 -2.4181519 2.0807877 -3.8095894 3.0484238c-1.3914413 0.9676285 -3.0502853 2.2253647 -4.5390472 2.7573776c-1.4887619 0.53201294 -3.0751572 0.70022583 -4.393528 0.43469238c-1.318367 -0.26554108 -2.4672775 -1.2543182 -3.5166855 -2.0279312c-1.0494099 -0.77360535 -2.363737 -2.2113724 -2.77977 -2.6137238c-0.4160328 -0.40235138 0.13992119 0.08488464 0.28357315 0.19961548c0.14365387 0.114738464 0.5338783 0.4443283 0.57834244 0.48879242c0.04446411 0.04446411 -0.31435776 -0.25247955 -0.31155777 -0.22200775c0.0027980804 0.030471802 0.88368034 -0.14582825 0.32834816 0.40483856c-0.5553322 0.5506668 -2.4644794 2.076744 -3.6603413 2.89917c-1.1958599 0.82242584 -2.2940865 1.5997696 -3.514822 2.0353851c-1.2207336 0.43562317 -2.3208275 0.45801544 -3.8095894 0.57834625c-1.4887619 0.12033081 -3.658474 0.5065155 -5.122983 0.14365387c-1.464509 -0.36286163 -3.0533934 -1.9340286 -3.664071 -2.3208313" fill-rule="evenodd"/><path fill="#ffffff" d="m38.762157 57.38845l25.440945 -23.923885l-1.6666679 -3.635168l-30.816273 8.902887l-18.46719 21.299213l-3.5170603 13.188976l-3.2257218 11.87664l3.7874017 -0.45407104z" fill-rule="evenodd"/><path fill="#ffffff" d="m89.997375 228.92651l25.509186 -26.0l-14.716537 -9.650925l-27.401573 -0.7480316l-23.580051 23.16536l-0.9973755 29.808395l8.934383 11.13385l1.8608932 1.4042053z" fill-rule="evenodd"/></g></svg>