<svg version="1.1" viewBox="0.0 0.0 141.69291338582678 165.93438320209972" fill="none" stroke="none" stroke-linecap="square" stroke-miterlimit="10" xmlns:xlink="http://www.w3.org/1999/xlink" xmlns="http://www.w3.org/2000/svg"><clipPath id="p.0"><path d="m0 0l141.69292 0l0 165.93439l-141.69292 0l0 -165.93439z" clip-rule="nonzero"/></clipPath><g clip-path="url(#p.0)"><path fill="#000000" fill-opacity="0.0" d="m0 0l141.69292 0l0 165.93439l-141.69292 0z" fill-rule="evenodd"/><g filter="url(#shadowFilter-p.1)"><use xlink:href="#p.1" transform="matrix(1.0 0.0 0.0 1.0 1.0000002624671922 0.0)"/></g><defs><filter id="shadowFilter-p.1" filterUnits="userSpaceOnUse"><feGaussianBlur in="SourceAlpha" stdDeviation="2.5" result="blur"/><feComponentTransfer in="blur" color-interpolation-filters="sRGB"><feFuncR type="linear" slope="0" intercept="0.0"/><feFuncG type="linear" slope="0" intercept="0.0"/><feFuncB type="linear" slope="0" intercept="0.0"/><feFuncA type="linear" slope="0.5" intercept="0"/></feComponentTransfer></filter></defs><g id="p.1"><path fill="#ffffff" d="m4.984252 4.7979l132.0315 0l0 156.69292l-132.0315 0z" fill-rule="evenodd"/></g><path fill="#ffffff" d="m70.41195 88.28063l0 0c0 -17.725296 14.369186 -32.094486 32.094482 -32.094486l0 0c8.511993 0 16.675346 3.3813744 22.694237 9.400257c6.018875 6.0188828 9.400253 14.182243 9.400253 22.69423l0 0c0 17.725296 -14.369186 32.09449 -32.09449 32.09449l0 0c-17.725296 0 -32.094482 -14.369194 -32.094482 -32.09449z" fill-rule="evenodd"/><path stroke="#000000" stroke-width="1.0" stroke-linejoin="round" stroke-linecap="butt" d="m70.41195 88.28063l0 0c0 -17.725296 14.369186 -32.094486 32.094482 -32.094486l0 0c8.511993 0 16.675346 3.3813744 22.694237 9.400257c6.018875 6.0188828 9.400253 14.182243 9.400253 22.69423l0 0c0 17.725296 -14.369186 32.09449 -32.09449 32.09449l0 0c-17.725296 0 -32.094482 -14.369194 -32.094482 -32.09449z" fill-rule="evenodd"/><path fill="#000000" d="m92.89112 92.46334q-0.765625 0 -1.4375 -0.1875q-0.671875 -0.203125 -1.296875 -0.640625l0 -1.75l1.015625 0l0.171875 1.125q0.265625 0.203125 0.671875 0.328125q0.40625 0.109375 0.875 0.109375q0.46875 0 0.78125 -0.125q0.3125 -0.140625 0.46875 -0.375q0.171875 -0.234375 0.171875 -0.5625q0 -0.3125 -0.140625 -0.53125q-0.140625 -0.234375 -0.484375 -0.421875q-0.34375 -0.1875 -0.921875 -0.34375q-0.84375 -0.234375 -1.421875 -0.546875q-0.5625 -0.3125 -0.859375 -0.75q-0.28125 -0.4375 -0.28125 -1.03125q0 -0.609375 0.328125 -1.078125q0.34375 -0.46875 0.921875 -0.734375q0.59375 -0.265625 1.359375 -0.28125q0.84375 0 1.484375 0.234375q0.65625 0.21875 1.109375 0.59375l0 1.625l-1.0 0l-0.1875 -1.0625q-0.21875 -0.15625 -0.5625 -0.25q-0.328125 -0.109375 -0.796875 -0.109375q-0.390625 0 -0.703125 0.125q-0.296875 0.125 -0.46875 0.375q-0.171875 0.234375 -0.171875 0.5625q0 0.28125 0.15625 0.5q0.15625 0.203125 0.5 0.390625q0.359375 0.171875 0.953125 0.34375q1.234375 0.328125 1.875 0.90625q0.640625 0.578125 0.640625 1.46875q0 0.625 -0.34375 1.109375q-0.34375 0.46875 -0.96875 0.734375q-0.609375 0.25 -1.4375 0.25zm3.431244 -0.109375l0 -0.796875l0.796875 -0.15625l0 -3.71875l-0.828125 -0.15625l0 -0.796875l2.03125 0l0.0625 0.734375q0.265625 -0.40625 0.671875 -0.625q0.421875 -0.21875 0.96875 -0.21875q0.546875 0 0.9375 0.25q0.40625 0.25 0.609375 0.75q0.25 -0.46875 0.671875 -0.734375q0.4375 -0.265625 1.0 -0.265625q0.84375 0 1.328125 0.578125q0.5 0.578125 0.5 1.75l0 2.453125l0.78125 0.15625l0 0.796875l-2.828125 0l0 -0.796875l0.734375 -0.15625l0 -2.453125q0 -0.71875 -0.25 -1.0q-0.234375 -0.296875 -0.6875 -0.296875q-0.4375 0 -0.71875 0.28125q-0.28125 0.28125 -0.359375 0.703125l0 2.765625l0.71875 0.15625l0 0.796875l-2.734375 0l0 -0.796875l0.703125 -0.15625l0 -2.453125q0 -0.6875 -0.25 -0.984375q-0.234375 -0.3125 -0.703125 -0.3125q-0.375 0 -0.640625 0.15625q-0.265625 0.15625 -0.421875 0.453125l0 3.140625l0.734375 0.15625l0 0.796875l-2.828125 0zm12.010956 0.109375q-0.859375 0 -1.34375 -0.4375q-0.484375 -0.453125 -0.484375 -1.21875q0 -0.53125 0.296875 -0.921875q0.296875 -0.40625 0.859375 -0.625q0.5625 -0.234375 1.359375 -0.234375l0.859375 0l0 -0.484375q0 -0.4375 -0.28125 -0.703125q-0.265625 -0.265625 -0.765625 -0.265625q-0.296875 0 -0.515625 0.078125q-0.21875 0.0625 -0.40625 0.1875l-0.109375 0.765625l-0.96875 0l-0.015625 -1.390625q0.421875 -0.28125 0.921875 -0.4375q0.515625 -0.15625 1.140625 -0.15625q1.078125 0 1.6875 0.5q0.625 0.5 0.625 1.4375l0 2.484375q0 0.109375 0 0.21875q0 0.109375 0.015625 0.21875l0.5625 0.078125l0 0.796875l-1.703125 0q-0.0625 -0.1875 -0.109375 -0.359375q-0.03125 -0.171875 -0.0625 -0.34375q-0.28125 0.359375 -0.6875 0.59375q-0.390625 0.21875 -0.875 0.21875zm0.296875 -1.015625q0.390625 0 0.734375 -0.1875q0.34375 -0.1875 0.515625 -0.46875l0 -0.9375l-0.875 0q-0.59375 0 -0.890625 0.28125q-0.296875 0.265625 -0.296875 0.625q0 0.328125 0.203125 0.515625q0.21875 0.171875 0.609375 0.171875zm3.7181396 0.90625l0 -0.796875l0.78125 -0.15625l0 -6.203125l-0.828125 -0.15625l0 -0.796875l2.140625 0l0 7.15625l0.78125 0.15625l0 0.796875l-2.875 0zm3.3977203 0l0 -0.796875l0.78125 -0.15625l0 -6.203125l-0.828125 -0.15625l0 -0.796875l2.140625 0l0 7.15625l0.78125 0.15625l0 0.796875l-2.875 0zm5.9966736 0.109375q-0.78125 0 -1.375 -0.359375q-0.59375 -0.359375 -0.921875 -0.984375q-0.328125 -0.625 -0.328125 -1.4375l0 -0.21875q0 -0.828125 0.3125 -1.46875q0.328125 -0.640625 0.890625 -1.0q0.5625 -0.375 1.28125 -0.375q0.765625 0 1.28125 0.3125q0.515625 0.296875 0.78125 0.875q0.265625 0.5625 0.265625 1.34375l0 0.75l-3.453125 0l0 0.03125q0.015625 0.4375 0.171875 0.78125q0.171875 0.34375 0.46875 0.546875q0.3125 0.1875 0.75 0.1875q0.453125 0 0.828125 -0.125q0.375 -0.125 0.6875 -0.34375l0.421875 0.8125q-0.34375 0.28125 -0.859375 0.484375q-0.515625 0.1875 -1.203125 0.1875zm-1.234375 -3.484375l2.171875 0l0 -0.125q0 -0.375 -0.109375 -0.65625q-0.109375 -0.28125 -0.359375 -0.4375q-0.234375 -0.15625 -0.59375 -0.15625q-0.3125 0 -0.5625 0.1875q-0.234375 0.171875 -0.375 0.484375q-0.140625 0.296875 -0.1875 0.6875l0.015625 0.015625zm4.2237244 3.375l0 -0.796875l0.78125 -0.15625l0 -3.71875l-0.8125 -0.15625l0 -0.796875l2.03125 0l0.0625 0.703125l0.015625 0.109375q0.21875 -0.4375 0.53125 -0.671875q0.328125 -0.25 0.7656174 -0.25q0.15625 0 0.3125 0.03125q0.171875 0.015625 0.265625 0.046875l-0.140625 1.21875l-0.7343674 -0.046875q-0.359375 -0.015625 -0.59375 0.15625q-0.234375 0.15625 -0.390625 0.4375l0 2.9375l0.78125 0.15625l0 0.796875l-2.875 0z" fill-rule="nonzero"/><path fill="#000000" d="m104.220924 105.02063l0 -0.796875l0.828125 -0.15625l0 -5.65625l-0.828125 -0.15625l0 -0.8125l0.828125 0l2.5 0q1.265625 0 1.984375 0.515625q0.71875 0.515625 0.71875 1.546875q0 0.515625 -0.296875 0.9375q-0.296875 0.40625 -0.828125 0.59375q0.46875 0.109375 0.78125 0.375q0.3125 0.25 0.46875 0.625q0.171875 0.359375 0.171875 0.8125q0 1.0625 -0.703125 1.625q-0.703125 0.546875 -1.953125 0.546875l-3.671875 0zm2.140625 -1.015625l1.53125 0q0.640625 0 0.984375 -0.296875q0.359375 -0.296875 0.359375 -0.859375q0 -0.40625 -0.140625 -0.6875q-0.125 -0.28125 -0.390625 -0.421875q-0.265625 -0.15625 -0.6875 -0.15625l-1.65625 0l0 2.421875zm0 -3.359375l1.328125 0q0.578125 0 0.90625 -0.28125q0.34375 -0.28125 0.34375 -0.796875q0 -0.5625 -0.359375 -0.828125q-0.34375 -0.28125 -1.03125 -0.28125l-1.1875 0l0 2.1875zm4.77446 4.375l0 -0.796875l0.78125 -0.15625l0 -3.71875l-0.828125 -0.15625l0 -0.796875l2.140625 0l0 4.671875l0.765625 0.15625l0 0.796875l-2.859375 0zm0.71875 -6.90625l0 -1.203125l1.375 0l0 1.203125l-1.375 0zm4.8560333 7.0q-0.71875 0 -1.125 -0.390625q-0.390625 -0.40625 -0.390625 -1.296875l0 -3.09375l-0.828125 0l0 -0.9375l0.828125 0l0 -1.375l1.3125 0l0 1.375l1.109375 0l0 0.9375l-1.109375 0l0 3.09375q0 0.359375 0.140625 0.53125q0.15625 0.15625 0.40625 0.15625q0.140625 0 0.3125 -0.015625q0.1875 -0.03125 0.296875 -0.0625l0.140625 0.921875q-0.234375 0.0625 -0.53125 0.109375q-0.296875 0.046875 -0.5625 0.046875zm4.2098083 0.015625q-0.78125 0 -1.375 -0.359375q-0.59375 -0.359375 -0.921875 -0.984375q-0.328125 -0.625 -0.328125 -1.4375l0 -0.21875q0 -0.828125 0.3125 -1.46875q0.328125 -0.640625 0.890625 -1.0q0.5625 -0.375 1.28125 -0.375q0.765625 0 1.28125 0.3125q0.515625 0.296875 0.78125 0.875q0.265625 0.5625 0.265625 1.34375l0 0.75l-3.453125 0l0 0.03125q0.015625 0.4375 0.171875 0.78125q0.171875 0.34375 0.46875 0.546875q0.3125 0.1875 0.75 0.1875q0.453125 0 0.828125 -0.125q0.375 -0.125 0.6875 -0.34375l0.421875 0.8125q-0.34375 0.28125 -0.859375 0.484375q-0.515625 0.1875 -1.203125 0.1875zm-1.234375 -3.484375l2.171875 0l0 -0.125q0 -0.375 -0.109375 -0.65625q-0.109375 -0.28125 -0.359375 -0.4375q-0.234375 -0.15625 -0.59375 -0.15625q-0.3125 0 -0.5625 0.1875q-0.234375 0.171875 -0.375 0.484375q-0.140625 0.296875 -0.1875 0.6875l0.015625 0.015625zm6.531021 3.484375q-0.59375 0 -1.125 -0.109375q-0.515625 -0.125 -1.046875 -0.359375l-0.015625 -1.484375l0.953125 0l0.1875 0.8125q0.234375 0.09375 0.46875 0.15625q0.234375 0.046875 0.53125 0.046875q0.546875 0 0.78125 -0.1875q0.234375 -0.203125 0.234375 -0.5q0 -0.28125 -0.25 -0.46875q-0.234375 -0.203125 -0.90625 -0.359375q-1.015625 -0.21875 -1.5 -0.625q-0.46875 -0.421875 -0.46875 -1.09375q0 -0.46875 0.25 -0.84375q0.25 -0.375 0.71875 -0.59375q0.484375 -0.234375 1.1875 -0.234375q0.640625 0 1.140625 0.140625q0.5 0.125 0.8437424 0.34375l0.03125 1.4375l-0.9374924 0l-0.15625 -0.75q-0.15625 -0.109375 -0.375 -0.171875q-0.21875 -0.0625 -0.484375 -0.0625q-0.4375 0 -0.6875 0.1875q-0.25 0.1875 -0.25 0.484375q0 0.15625 0.078125 0.296875q0.09375 0.140625 0.3125 0.25q0.234375 0.109375 0.6875 0.21875q1.09375 0.25 1.5625 0.65625q0.48436737 0.40625 0.48436737 1.09375q0 0.75 -0.5624924 1.234375q-0.546875 0.484375 -1.6875 0.484375z" fill-rule="nonzero"/><path fill="#ffffff" d="m130.43106 62.274292c0.3937378 0.97371674 2.215042 3.7236633 2.3624573 5.842308c0.14741516 2.1186447 -0.34805298 4.9941025 -1.477951 6.8695526c-1.1298981 1.8754501 -4.298004 3.4638824 -5.3014603 4.3831406c-1.0034485 0.9192581 -0.61878204 0.9436722 -0.71925354 1.1324081c-0.1004715 0.18873596 -0.34679413 -0.46886444 0.11643219 0c0.46322632 0.46886444 2.1211472 1.3214493 2.6629333 2.8131714c0.5417938 1.4917221 0.68577576 4.262642 0.5877991 6.1371536c-0.097961426 1.8745041 -0.29170227 3.673584 -1.1755905 5.109909c-0.8838959 1.4363174 -2.5796814 2.6554184 -4.1277466 3.5080109c-1.5480576 0.85259247 -3.6128616 1.3643341 -5.160614 1.6075287c-1.5477448 0.24319458 -3.3026886 -0.12582397 -4.125862 -0.1483612c-0.8231659 -0.022529602 -0.7596283 0.012832642 -0.8131485 0.013145447c-0.053520203 3.2043457E-4 0.4303589 -0.13114166 0.49201965 -0.011260986c0.061660767 0.11987305 -0.2976532 -0.024414062 -0.12206268 0.73052216c0.17558289 0.7549362 1.1017303 2.411293 1.1755981 3.7990952c0.07386017 1.3878098 0.028793335 3.2616959 -0.7324066 4.527748c-0.7611923 1.2660522 -2.4341354 2.0945435 -3.8347778 3.068573c-1.4006424 0.97402954 -3.0704498 2.2400818 -4.5690613 2.7756119c-1.4986038 0.5355301 -3.0954895 0.7048569 -4.422577 0.43756866c-1.3270874 -0.26729584 -2.4835892 -1.2626114 -3.5399399 -2.041336c-1.0563507 -0.7787247 -2.379364 -2.2260056 -2.798149 -2.631012c-0.4187851 -0.40501404 0.14084625 0.08544159 0.28544617 0.20093536c0.14460754 0.115493774 0.5374069 0.44726562 0.5821686 0.49202728c0.04475403 0.04475403 -0.31643677 -0.2541504 -0.31362152 -0.22348022c0.002822876 0.030677795 0.88952637 -0.14678955 0.33052063 0.40751648c-0.55900574 0.55431366 -2.480774 2.090477 -3.6845398 2.9183426c-1.2037659 0.8278656 -2.3092575 1.6103439 -3.538063 2.0488434c-1.2288055 0.43850708 -2.336174 0.46103668 -3.8347778 0.5821686c-1.4986115 0.12112427 -3.6826706 0.5098648 -5.1568604 0.14459991c-1.4741974 -0.36525726 -3.0735855 -1.9468079 -3.688301 -2.336174" fill-rule="evenodd"/><path stroke="#000000" stroke-width="1.0" stroke-linejoin="round" stroke-linecap="butt" d="m130.43106 62.274292c0.3937378 0.97371674 2.215042 3.7236633 2.3624573 5.842308c0.14741516 2.1186447 -0.34805298 4.9941025 -1.477951 6.8695526c-1.1298981 1.8754501 -4.298004 3.4638824 -5.3014603 4.3831406c-1.0034485 0.9192581 -0.61878204 0.9436722 -0.71925354 1.1324081c-0.1004715 0.18873596 -0.34679413 -0.46886444 0.11643219 0c0.46322632 0.46886444 2.1211472 1.3214493 2.6629333 2.8131714c0.5417938 1.4917221 0.68577576 4.262642 0.5877991 6.1371536c-0.097961426 1.8745041 -0.29170227 3.673584 -1.1755905 5.109909c-0.8838959 1.4363174 -2.5796814 2.6554184 -4.1277466 3.5080109c-1.5480576 0.85259247 -3.6128616 1.3643341 -5.160614 1.6075287c-1.5477448 0.24319458 -3.3026886 -0.12582397 -4.125862 -0.1483612c-0.8231659 -0.022529602 -0.7596283 0.012832642 -0.8131485 0.013145447c-0.053520203 3.2043457E-4 0.4303589 -0.13114166 0.49201965 -0.011260986c0.061660767 0.11987305 -0.2976532 -0.024414062 -0.12206268 0.73052216c0.17558289 0.7549362 1.1017303 2.411293 1.1755981 3.7990952c0.07386017 1.3878098 0.028793335 3.2616959 -0.7324066 4.527748c-0.7611923 1.2660522 -2.4341354 2.0945435 -3.8347778 3.068573c-1.4006424 0.97402954 -3.0704498 2.2400818 -4.5690613 2.7756119c-1.4986038 0.5355301 -3.0954895 0.7048569 -4.422577 0.43756866c-1.3270874 -0.26729584 -2.4835892 -1.2626114 -3.5399399 -2.041336c-1.0563507 -0.7787247 -2.379364 -2.2260056 -2.798149 -2.631012c-0.4187851 -0.40501404 0.14084625 0.08544159 0.28544617 0.20093536c0.14460754 0.115493774 0.5374069 0.44726562 0.5821686 0.49202728c0.04475403 0.04475403 -0.31643677 -0.2541504 -0.31362152 -0.22348022c0.002822876 0.030677795 0.88952637 -0.14678955 0.33052063 0.40751648c-0.55900574 0.55431366 -2.480774 2.090477 -3.6845398 2.9183426c-1.2037659 0.8278656 -2.3092575 1.6103439 -3.538063 2.0488434c-1.2288055 0.43850708 -2.336174 0.46103668 -3.8347778 0.5821686c-1.4986115 0.12112427 -3.6826706 0.5098648 -5.1568604 0.14459991c-1.4741974 -0.36525726 -3.0735855 -1.9468079 -3.688301 -2.336174" fill-rule="evenodd"/><path fill="#ffffff" d="m106.57077 86.610245l25.509186 -25.999996l-14.71653 -9.650921l-27.40158 -0.7480316l-23.580048 23.165352l-0.9973755 29.808403l8.93438 11.133858l1.8608932 1.4041977z" fill-rule="evenodd"/><path fill="#000000" fill-opacity="0.0" d="m-45.002625 -1.7028005l233.6063 0l0 40.40945l-233.6063 0z" fill-rule="evenodd"/><path fill="#000000" d="m18.77008 24.109074q-1.8125 0 -3.109375 -0.765625q-1.28125 -0.78125 -1.96875 -2.171875q-0.671875 -1.390625 -0.671875 -3.234375l0 -0.3125q0 -1.796875 0.671875 -3.1875q0.671875 -1.390625 1.9375 -2.1875q1.265625 -0.8125 3.015625 -0.8125q1.21875 0 2.265625 0.375q1.0625 0.359375 1.828125 1.015625l0 2.84375l-1.625 0l-0.21875 -1.90625q-0.28125 -0.203125 -0.625 -0.34375q-0.328125 -0.140625 -0.734375 -0.21875q-0.390625 -0.078125 -0.875 -0.078125q-1.109375 0 -1.90625 0.5625q-0.78125 0.546875 -1.203125 1.5625q-0.40625 1.0 -0.40625 2.359375l0 0.328125q0 1.40625 0.4375 2.421875q0.4375 1.0 1.265625 1.546875q0.828125 0.546875 1.984375 0.546875q0.546875 0 1.09375 -0.125q0.546875 -0.140625 0.96875 -0.359375l0.21875 -1.71875l1.609375 0l0 2.828125q-0.703125 0.46875 -1.734375 0.75q-1.03125 0.28125 -2.21875 0.28125zm9.613861 0q-1.328125 0 -2.28125 -0.578125q-0.9375 -0.59375 -1.453125 -1.640625q-0.5 -1.0625 -0.5 -2.4375l0 -0.171875q0 -1.375 0.5 -2.421875q0.515625 -1.046875 1.453125 -1.640625q0.953125 -0.609375 2.265625 -0.609375q1.3125 0 2.25 0.609375q0.953125 0.59375 1.453125 1.640625q0.515625 1.046875 0.515625 2.421875l0 0.171875q0 1.375 -0.515625 2.4375q-0.5 1.046875 -1.4375 1.640625q-0.9375 0.578125 -2.25 0.578125zm0 -1.640625q0.703125 0 1.15625 -0.375q0.46875 -0.390625 0.6875 -1.0625q0.234375 -0.6875 0.234375 -1.578125l0 -0.171875q0 -0.890625 -0.234375 -1.5625q-0.21875 -0.671875 -0.6875 -1.0625q-0.453125 -0.390625 -1.171875 -0.390625q-0.703125 0 -1.171875 0.390625q-0.46875 0.390625 -0.703125 1.0625q-0.21875 0.671875 -0.21875 1.5625l0 0.171875q0 0.890625 0.21875 1.578125q0.234375 0.671875 0.703125 1.0625q0.46875 0.375 1.1875 0.375zm6.0062103 -2.953125l0 -1.640625l4.5 0l0 1.640625l-4.5 0zm11.593658 4.59375q-1.234375 0 -2.234375 -0.453125q-0.984375 -0.46875 -1.6875 -1.296875q-0.703125 -0.84375 -1.09375 -1.984375q-0.375 -1.140625 -0.375 -2.5l0 -0.1875q0 -1.359375 0.375 -2.5q0.390625 -1.140625 1.09375 -1.984375q0.703125 -0.84375 1.6875 -1.296875q1.0 -0.46875 2.21875 -0.46875q1.265625 0 2.265625 0.46875q1.0 0.453125 1.703125 1.296875q0.703125 0.84375 1.0625 1.984375q0.375 1.140625 0.375 2.5l0 0.1875q0 1.359375 -0.375 2.5q-0.359375 1.140625 -1.0625 1.984375q-0.703125 0.828125 -1.703125 1.296875q-1.0 0.453125 -2.25 0.453125zm0 -1.6875q1.109375 0 1.828125 -0.5625q0.734375 -0.578125 1.078125 -1.59375q0.359375 -1.03125 0.359375 -2.390625l0 -0.203125q0 -1.34375 -0.359375 -2.359375q-0.359375 -1.015625 -1.078125 -1.59375q-0.71875 -0.578125 -1.84375 -0.578125q-1.0625 0 -1.78125 0.578125q-0.71875 0.578125 -1.09375 1.59375q-0.359375 1.015625 -0.359375 2.359375l0 0.203125q0 1.34375 0.359375 2.375q0.375 1.03125 1.09375 1.609375q0.71875 0.5625 1.796875 0.5625zm9.614914 1.515625l-2.25 -7.671875l-1.078125 -0.171875l0 -1.3125l4.15625 0l0 1.3125l-1.03125 0.1875l1.03125 3.96875l0.203125 0.875l0.046875 0l0.296875 -0.875l1.921875 -5.46875l1.546875 0l1.859375 5.515625l0.3125 0.96875l0.046875 0l0.296875 -0.96875l1.109375 -4.015625l-1.09375 -0.1875l0 -1.3125l4.0625 0l0 1.3125l-1.046875 0.171875l-2.34375 7.671875l-1.875 0l-1.75 -4.9375l-0.359375 -1.203125l-0.046875 0l-0.359375 1.203125l-1.78125 4.9375l-1.875 0zm12.259689 0l0 -1.296875l1.265625 -0.265625l0 -6.03125l-1.328125 -0.25l0 -1.3125l3.296875 0l0.109375 1.328125q0.453125 -0.703125 1.125 -1.09375q0.6875 -0.40625 1.5625 -0.40625q1.40625 0 2.1875 0.875q0.796875 0.859375 0.796875 2.703125l0 4.1875l1.265625 0.265625l0 1.296875l-4.59375 0l0 -1.296875l1.1875 -0.265625l0 -4.171875q0 -1.03125 -0.421875 -1.46875q-0.40625 -0.4375 -1.21875 -0.4375q-0.625 0 -1.09375 0.28125q-0.453125 0.265625 -0.734375 0.765625l0 5.03125l1.15625 0.265625l0 1.296875l-4.5625 0zm15.427628 0.171875q-1.28125 0 -2.25 -0.578125q-0.953125 -0.578125 -1.484375 -1.59375q-0.53125 -1.03125 -0.53125 -2.34375l0 -0.359375q0 -1.34375 0.515625 -2.375q0.53125 -1.046875 1.4375 -1.640625q0.90625 -0.609375 2.078125 -0.609375q1.25 0 2.09375 0.5q0.84375 0.5 1.265625 1.421875q0.4375 0.921875 0.4375 2.203125l0 1.21875l-5.625 0l-0.015625 0.046875q0.03125 0.71875 0.296875 1.28125q0.265625 0.546875 0.765625 0.875q0.5 0.3125 1.203125 0.3125q0.75 0 1.359375 -0.203125q0.609375 -0.203125 1.125 -0.5625l0.671875 1.328125q-0.546875 0.453125 -1.390625 0.765625q-0.828125 0.3125 -1.953125 0.3125zm-2.03125 -5.65625l3.546875 0l0 -0.21875q0 -0.59375 -0.1875 -1.046875q-0.171875 -0.453125 -0.5625 -0.703125q-0.375 -0.265625 -0.96875 -0.265625q-0.515625 0 -0.90625 0.296875q-0.390625 0.28125 -0.625 0.78125q-0.234375 0.484375 -0.3125 1.109375l0.015625 0.046875zm6.8970184 5.484375l0 -1.296875l1.265625 -0.265625l0 -6.03125l-1.34375 -0.25l0 -1.3125l3.3125 0l0.109375 1.15625l0.015625 0.1875q0.359375 -0.734375 0.890625 -1.125q0.53125 -0.390625 1.234375 -0.390625q0.234375 0 0.5 0.046875q0.265625 0.046875 0.4375 0.09375l-0.234375 1.96875l-1.203125 -0.0625q-0.578125 -0.03125 -0.953125 0.234375q-0.375 0.25 -0.640625 0.71875l0 4.765625l1.28125 0.265625l0 1.296875l-4.671875 0zm11.120834 0.171875q-0.984375 0 -1.84375 -0.1875q-0.84375 -0.1875 -1.6875 -0.5625l-0.03125 -2.421875l1.53125 0l0.328125 1.328125q0.359375 0.15625 0.734375 0.25q0.390625 0.078125 0.875 0.078125q0.90625 0 1.28125 -0.3125q0.375 -0.328125 0.375 -0.796875q0 -0.453125 -0.390625 -0.78125q-0.390625 -0.328125 -1.5 -0.5625q-1.640625 -0.359375 -2.421875 -1.03125q-0.765625 -0.6875 -0.765625 -1.78125q0 -0.75 0.390625 -1.359375q0.40625 -0.609375 1.1875 -0.96875q0.78125 -0.375 1.9375 -0.375q1.03125 0 1.84375 0.21875q0.8125 0.203125 1.375 0.5625l0.046875 2.328125l-1.515625 0l-0.265625 -1.203125q-0.25 -0.1875 -0.609375 -0.28125q-0.34375 -0.109375 -0.78125 -0.109375q-0.703125 0 -1.109375 0.3125q-0.40625 0.296875 -0.40625 0.765625q0 0.265625 0.125 0.5q0.125 0.21875 0.5 0.40625q0.390625 0.171875 1.109375 0.34375q1.78125 0.40625 2.546875 1.078125q0.78125 0.671875 0.78125 1.765625q0 1.234375 -0.90625 2.015625q-0.890625 0.78125 -2.734375 0.78125zm4.706375 -0.171875l0 -1.296875l1.265625 -0.265625l0 -10.078125l-1.34375 -0.25l0 -1.3125l3.46875 0l0 5.234375q0.453125 -0.640625 1.109375 -1.0q0.65625 -0.359375 1.484375 -0.359375q1.421875 0 2.21875 0.90625q0.8125 0.90625 0.8125 2.78125l0 4.078125l1.265625 0.265625l0 1.296875l-4.59375 0l0 -1.296875l1.203125 -0.265625l0 -4.09375q0 -1.046875 -0.421875 -1.515625q-0.421875 -0.46875 -1.234375 -0.46875q-0.59375 0 -1.0625 0.265625q-0.46875 0.25 -0.78125 0.71875l0 5.09375l1.203125 0.265625l0 1.296875l-4.59375 0zm11.160736 0l0 -1.296875l1.28125 -0.265625l0 -6.03125l-1.34375 -0.25l0 -1.3125l3.46875 0l0 7.59375l1.265625 0.265625l0 1.296875l-4.671875 0zm1.203125 -11.234375l0 -1.96875l2.21875 0l0 1.96875l-2.21875 0zm4.2932587 14.75l0 -1.3125l1.234375 -0.25l0 -9.546875l-1.34375 -0.25l0 -1.3125l3.25 0l0.140625 1.078125q0.421875 -0.59375 1.03125 -0.921875q0.609375 -0.328125 1.4375 -0.328125q1.109375 0 1.90625 0.609375q0.796875 0.609375 1.21875 1.703125q0.421875 1.09375 0.421875 2.5625l0 0.171875q0 1.34375 -0.421875 2.34375q-0.421875 1.0 -1.21875 1.5625q-0.796875 0.546875 -1.90625 0.546875q-0.796875 0 -1.390625 -0.265625q-0.578125 -0.28125 -1.0 -0.8125l0 2.859375l1.296875 0.25l0 1.3125l-4.65625 0zm5.109375 -4.984375q1.046875 0 1.546875 -0.765625q0.5 -0.78125 0.5 -2.046875l0 -0.171875q0 -0.953125 -0.21875 -1.671875q-0.21875 -0.71875 -0.6875 -1.109375q-0.453125 -0.40625 -1.15625 -0.40625q-0.59375 0 -1.03125 0.265625q-0.4375 0.265625 -0.703125 0.75l0 4.203125q0.265625 0.453125 0.6875 0.703125q0.4375 0.25 1.0625 0.25z" fill-rule="nonzero"/><path fill="#000000" fill-opacity="0.0" d="m56.049076 92.19165l77.29797 -5.61895l1.9686432 27.709038l-77.29797 5.61895z" fill-rule="evenodd"/><path fill="#999999" d="m94.053604 105.005066l0.67794037 -0.1589508q0.09112549 0.40070343 0.3726654 0.61522675q0.28042603 0.19894409 0.7635269 0.16382599q0.4831009 -0.035118103 0.7035675 -0.23913574q0.21936798 -0.21961212 0.20053864 -0.48456573q-0.017715454 -0.24937439 -0.22916412 -0.35932922q-0.14689636 -0.08332062 -0.73457336 -0.19726562q-0.79248047 -0.13038635 -1.0985413 -0.24913788q-0.3060608 -0.1187439 -0.47961426 -0.35678864q-0.17466736 -0.2536316 -0.1957016 -0.5497589q-0.019935608 -0.28054047 0.088127136 -0.5233917q0.12364197 -0.24398041 0.3307495 -0.4156952q0.14698029 -0.13601685 0.4219513 -0.23433685q0.27386475 -0.11390686 0.6011276 -0.13769531q0.4831009 -0.035118103 0.8670807 0.07797241q0.3839798 0.113082886 0.5731125 0.34999084q0.18803406 0.2213211 0.27915955 0.62202454l-0.67904663 0.14335632q-0.069999695 -0.32389832 -0.30036163 -0.47948456q-0.23146057 -0.1711731 -0.6522217 -0.14058685q-0.4831009 0.035118103 -0.6735153 0.22129059q-0.19151306 0.17058563 -0.17601013 0.38878632q0.008857727 0.124687195 0.0945282 0.2281189q0.10236359 0.117889404 0.29380035 0.16664124q0.096824646 0.03995514 0.6210556 0.14284515q0.76242065 0.14823914 1.0673752 0.2514038q0.30495453 0.10316467 0.478508 0.34120178q0.18803406 0.22132874 0.21350098 0.57980347q0.024360657 0.34288025 -0.15608215 0.6693268q-0.18044281 0.3264389 -0.5578613 0.52619934q-0.36183167 0.19863129 -0.8605194 0.23488617q-0.7947769 0.057769775 -1.2543793 -0.23780823q-0.44512177 -0.31230164 -0.60072327 -0.9589691z" fill-rule="nonzero"/><path fill="#000000" fill-opacity="0.0" d="m60.082653 105.43046l70.02371 -33.260788l11.901993 25.102287l-70.02371 33.260788z" fill-rule="evenodd"/><path fill="#999999" d="m99.74948 105.15519l-1.780632 -3.7554932l0.5645447 -0.26815796l0.25437927 0.536499q0.049598694 -0.3695221 0.25154114 -0.6730194q0.21605682 -0.31020355 0.5971298 -0.49121094q0.40930176 -0.19441223 0.7644806 -0.13825226q0.34849548 0.042053223 0.6086731 0.2990265q0.12290192 -0.8713913 0.8427048 -1.213295q0.5504379 -0.26145172 0.99409485 -0.09162903q0.4577713 0.16312408 0.7657013 0.81256866l1.2183304 2.5695496l-0.6351242 0.30168152l-1.1179123 -2.3577805q-0.18074036 -0.38119507 -0.33163452 -0.5170975q-0.13678741 -0.14260101 -0.35301208 -0.16098785q-0.20880127 -0.03919983 -0.42050934 0.06135559q-0.39518738 0.18771362 -0.5361557 0.5833359q-0.12686157 0.38892365 0.14759827 0.96777344l1.0308914 2.17424l-0.6351242 0.3016739l-1.1580734 -2.442482q-0.20082855 -0.42355347 -0.45648956 -0.5615845q-0.255661 -0.13803864 -0.60850525 0.029563904q-0.2681656 0.12737274 -0.44115448 0.38252258q-0.15888214 0.24845123 -0.123794556 0.57774353q0.028396606 0.31517792 0.26937866 0.82344055l0.92379 1.9483414l-0.6351166 0.3016739z" fill-rule="nonzero"/><path fill="#000000" fill-opacity="0.0" d="m65.98 107.52283l65.233315 -41.851135l14.985168 23.419563l-65.233315 41.851143z" fill-rule="evenodd"/><path fill="#999999" d="m108.21346 99.75336q-0.15193176 0.48731995 -0.37861633 0.7998352q-0.22668457 0.31250763 -0.5817642 0.5403137q-0.56549835 0.3628006 -1.0579758 0.2889099q-0.4877472 -0.09549713 -0.7656555 -0.5298233q-0.16842651 -0.26322174 -0.1979599 -0.54130554q-0.01638031 -0.28651428 0.09194183 -0.52308655q0.11305237 -0.2581787 0.3076706 -0.47585297q0.1372757 -0.16233063 0.46709442 -0.42961884q0.6643677 -0.55618286 0.91735077 -0.8855667q-0.06263733 -0.12688446 -0.07948303 -0.1532135q-0.2358017 -0.368515 -0.49939728 -0.4036026q-0.34989166 -0.053985596 -0.7970352 0.23287964q-0.4208374 0.269989 -0.5254669 0.54132843q-0.10462952 0.2713318 0.0259552 0.70734406l-0.6291809 0.29227448q-0.15689087 -0.41914368 -0.11593628 -0.7610092q0.03253174 -0.35502625 0.2986679 -0.6928482q0.25772095 -0.35098267 0.7048569 -0.6378479q0.44714355 -0.28686523 0.79068756 -0.35875702q0.35669708 -0.080329895 0.59768677 0.0063934326q0.23256683 0.07356262 0.43675232 0.27671814q0.12736511 0.1410675 0.38000488 0.53590393l0.50527954 0.7896805q0.52212524 0.8160095 0.70474243 1.0144348q0.18261719 0.19843292 0.41414642 0.32835388l-0.618103 0.39655304q-0.20995331 -0.12519836 -0.39626312 -0.3583908zm-0.8947449 -1.2823868q-0.2314148 0.33411407 -0.81687164 0.8396683q-0.33454895 0.28888702 -0.45025635 0.45594025q-0.10255432 0.15861511 -0.09724426 0.34085846q-0.003112793 0.16907501 0.09793854 0.3270111q0.15158844 0.23690033 0.42360687 0.28515625q0.2851715 0.03981018 0.6271057 -0.1795578q0.34192657 -0.21936798 0.5123215 -0.5328903q0.1751175 -0.33512115 0.12504578 -0.67427826q-0.03426361 -0.256485 -0.28690338 -0.6513214l-0.13474274 -0.21058655z" fill-rule="nonzero"/><path fill="#000000" fill-opacity="0.0" d="m72.89711 116.35335l50.70121 -58.63967l20.996727 18.195892l-50.701202 58.63967z" fill-rule="evenodd"/><path fill="#999999" d="m110.67854 98.299774l-4.333542 -3.7554703l0.459877 -0.53188324l4.333542 3.7554703l-0.459877 0.53188324z" fill-rule="nonzero"/><path fill="#000000" fill-opacity="0.0" d="m74.35611 114.47286l50.70121 -58.639668l20.996727 18.195889l-50.701202 58.639664z" fill-rule="evenodd"/><path fill="#999999" d="m112.13754 96.41929l-4.333542 -3.7554626l0.459877 -0.53188324l4.333542 3.7554703l-0.459877 0.5318756z" fill-rule="nonzero"/><path fill="#000000" fill-opacity="0.0" d="m79.97406 111.48998l46.34733 -62.13769l22.252235 16.636814l-46.34732 62.137695z" fill-rule="evenodd"/><path fill="#999999" d="m115.951035 91.30792l-0.3830185 0.5135193l-4.5926895 -3.4337082l0.42038727 -0.5636139l1.6393509 1.2256546q-0.18893433 -0.68751526 0.22211456 -1.2386017q0.23355103 -0.31311798 0.5642166 -0.49510193q0.33065796 -0.18197632 0.68670654 -0.18891144q0.35604095 -0.0069351196 0.74362946 0.12677002q0.3875885 0.13370514 0.7504959 0.4050293q0.8509598 0.63622284 1.008873 1.4175949q0.14539337 0.77201843 -0.29367828 1.3606796q-0.43907166 0.5886612 -1.1793518 0.56194305l0.41296387 0.30874634zm-1.6894073 -1.2630768q0.6006775 0.44909668 0.9849167 0.48274994q0.63417816 0.064445496 0.9704895 -0.3864441q0.28025818 -0.37574005 0.16358948 -0.8726578q-0.11985016 -0.51880646 -0.7580719 -0.9959717q-0.65073395 -0.48651886 -1.1597672 -0.4574051q-0.4996872 0.016593933 -0.7799454 0.39233398q-0.2709198 0.3632202 -0.15107727 0.88201904q0.12918854 0.506279 0.729866 0.9553757z" fill-rule="nonzero"/><path fill="#000000" fill-opacity="0.0" d="m88.09452 115.79663l29.950989 -71.47998l25.609093 10.819649l-29.950989 71.47998z" fill-rule="evenodd"/><path fill="#999999" d="m113.85553 85.00145l-0.7484436 -0.3162079l0.27172852 -0.64849854l0.7484436 0.3162079l-0.27172852 0.64849854zm4.5338593 1.9155197l-3.8285904 -1.6175461l0.27172852 -0.64849854l3.8285904 1.6175461l-0.27172852 0.64849854z" fill-rule="nonzero"/><path fill="#000000" fill-opacity="0.0" d="m91.52267 114.69549l24.821869 -73.42275l26.340324 8.940163l-24.821861 73.42275z" fill-rule="evenodd"/><path fill="#999999" d="m119.54375 82.27788l0.6120758 0.09223938q-0.021095276 0.3063507 -0.09616089 0.52838135q-0.12509918 0.37004852 -0.31352234 0.53710175q-0.1834259 0.1522522 -0.39099884 0.18080139q-0.21736908 0.008720398 -0.8240051 -0.19717407l-2.2637863 -0.7683487l-0.16513824 0.48846436l-0.5178604 -0.17576599l0.16513824 -0.48846436l-0.9617386 -0.32642365l-0.17430878 -0.80168915l1.361229 0.46202087l0.22518158 -0.6660919l0.5178604 0.17576599l-0.22518158 0.6660919l2.3081741 0.78341675q0.28112793 0.09541321 0.37991333 0.095939636q0.08898926 -0.019294739 0.15839386 -0.07823944q0.06941223 -0.058944702 0.11945343 -0.20696259q0.040031433 -0.11841583 0.08528137 -0.30106354z" fill-rule="nonzero"/><path fill="#000000" fill-opacity="0.0" d="m100.49477 115.74748l7.9080048 -77.08563l27.695572 2.8847084l-7.9080048 77.08563z" fill-rule="evenodd"/><path fill="#999999" d="m119.94194 77.66179l0.16659546 -0.7052841q0.61963654 0.23734283 0.929245 0.7408829q0.29566193 0.48636627 0.22071075 1.2169113q-0.09248352 0.90151215 -0.7061691 1.3717194q-0.61369324 0.47019958 -1.623848 0.3649826q-1.0412445 -0.10845184 -1.5620499 -0.6968231q-0.5192032 -0.6039047 -0.4315033 -1.4587936q0.0845108 -0.82380676 0.7137451 -1.2923889q0.6136856 -0.47019958 1.639389 -0.36336517q0.062164307 0.0064697266 0.18489838 0.034965515l-0.31572723 3.0775986q0.6730499 0.022972107 1.0811081 -0.2801361q0.39252472 -0.30471802 0.4467392 -0.83319855q0.038269043 -0.37303925 -0.13665771 -0.6583252q-0.17332458 -0.3008194 -0.60647583 -0.5187454zm-1.3549423 2.1838837l0.23599243 -2.3004303q-0.5331726 -0.008407593 -0.8196945 0.1816864q-0.43754578 0.28432465 -0.4933548 0.82834625q-0.049430847 0.48184204 0.24343872 0.842247q0.2928772 0.36040497 0.83361816 0.44815063z" fill-rule="nonzero"/><path fill="#ffffff" d="m12.380541 129.87268l0 0c0 -16.26413 13.184685 -29.448822 29.44882 -29.448822l0 0c7.8103104 0 15.300735 3.1026382 20.82346 8.625366c5.522724 5.5227203 8.625355 13.013145 8.625355 20.823456l0 0c0 16.26413 -13.184681 29.448822 -29.448814 29.448822l0 0c-16.264135 0 -29.44882 -13.184692 -29.44882 -29.448822z" fill-rule="evenodd"/><path stroke="#000000" stroke-width="1.0" stroke-linejoin="round" stroke-linecap="butt" d="m12.380541 129.87268l0 0c0 -16.26413 13.184685 -29.448822 29.44882 -29.448822l0 0c7.8103104 0 15.300735 3.1026382 20.82346 8.625366c5.522724 5.5227203 8.625355 13.013145 8.625355 20.823456l0 0c0 16.26413 -13.184681 29.448822 -29.448814 29.448822l0 0c-16.264135 0 -29.44882 -13.184692 -29.44882 -29.448822z" fill-rule="evenodd"/><path fill="#000000" d="m28.105145 134.05539q-0.765625 0 -1.4375 -0.1875q-0.671875 -0.203125 -1.296875 -0.640625l0 -1.75l1.015625 0l0.171875 1.125q0.265625 0.203125 0.671875 0.328125q0.40625 0.109375 0.875 0.109375q0.46875 0 0.78125 -0.125q0.3125 -0.140625 0.46875 -0.375q0.171875 -0.234375 0.171875 -0.5625q0 -0.3125 -0.140625 -0.53125q-0.140625 -0.234375 -0.484375 -0.421875q-0.34375 -0.1875 -0.921875 -0.34375q-0.84375 -0.234375 -1.421875 -0.546875q-0.5625 -0.3125 -0.859375 -0.75q-0.28125 -0.4375 -0.28125 -1.03125q0 -0.609375 0.328125 -1.078125q0.34375 -0.46875 0.921875 -0.734375q0.59375 -0.265625 1.359375 -0.28125q0.84375 0 1.484375 0.234375q0.65625 0.21875 1.109375 0.59375l0 1.625l-1.0 0l-0.1875 -1.0625q-0.21875 -0.15625 -0.5625 -0.25q-0.328125 -0.109375 -0.796875 -0.109375q-0.390625 0 -0.703125 0.125q-0.296875 0.125 -0.46875 0.375q-0.171875 0.234375 -0.171875 0.5625q0 0.28125 0.15625 0.5q0.15625 0.203125 0.5 0.390625q0.359375 0.171875 0.953125 0.34375q1.234375 0.328125 1.875 0.90625q0.640625 0.578125 0.640625 1.46875q0 0.625 -0.34375 1.109375q-0.34375 0.46875 -0.96875 0.734375q-0.609375 0.25 -1.4375 0.25zm3.431244 -0.109375l0 -0.796875l0.796875 -0.15625l0 -3.71875l-0.828125 -0.15625l0 -0.796875l2.03125 0l0.0625 0.734375q0.265625 -0.40625 0.671875 -0.625q0.421875 -0.21875 0.96875 -0.21875q0.546875 0 0.9375 0.25q0.40625 0.25 0.609375 0.75q0.25 -0.46875 0.671875 -0.734375q0.4375 -0.265625 1.0 -0.265625q0.84375 0 1.328125 0.578125q0.5 0.578125 0.5 1.75l0 2.453125l0.78125 0.15625l0 0.796875l-2.828125 0l0 -0.796875l0.734375 -0.15625l0 -2.453125q0 -0.71875 -0.25 -1.0q-0.234375 -0.296875 -0.6875 -0.296875q-0.4375 0 -0.71875 0.28125q-0.28125 0.28125 -0.359375 0.703125l0 2.765625l0.71875 0.15625l0 0.796875l-2.734375 0l0 -0.796875l0.703125 -0.15625l0 -2.453125q0 -0.6875 -0.25 -0.984375q-0.234375 -0.3125 -0.703125 -0.3125q-0.375 0 -0.640625 0.15625q-0.265625 0.15625 -0.421875 0.453125l0 3.140625l0.734375 0.15625l0 0.796875l-2.828125 0zm12.010956 0.109375q-0.859375 0 -1.34375 -0.4375q-0.484375 -0.453125 -0.484375 -1.21875q0 -0.53125 0.296875 -0.921875q0.296875 -0.40625 0.859375 -0.625q0.5625 -0.234375 1.359375 -0.234375l0.859375 0l0 -0.484375q0 -0.4375 -0.28125 -0.703125q-0.265625 -0.265625 -0.765625 -0.265625q-0.296875 0 -0.515625 0.078125q-0.21875 0.0625 -0.40625 0.1875l-0.109375 0.765625l-0.96875 0l-0.015625 -1.390625q0.421875 -0.28125 0.921875 -0.4375q0.515625 -0.15625 1.140625 -0.15625q1.078125 0 1.6875 0.5q0.625 0.5 0.625 1.4375l0 2.484375q0 0.109375 0 0.21875q0 0.109375 0.015625 0.21875l0.5625 0.078125l0 0.796875l-1.703125 0q-0.0625 -0.1875 -0.109375 -0.359375q-0.03125 -0.171875 -0.0625 -0.34375q-0.28125 0.359375 -0.6875 0.59375q-0.390625 0.21875 -0.875 0.21875zm0.296875 -1.015625q0.390625 0 0.734375 -0.1875q0.34375 -0.1875 0.515625 -0.46875l0 -0.9375l-0.875 0q-0.59375 0 -0.890625 0.28125q-0.296875 0.265625 -0.296875 0.625q0 0.328125 0.203125 0.515625q0.21875 0.171875 0.609375 0.171875zm3.7181396 0.90625l0 -0.796875l0.78125 -0.15625l0 -6.203125l-0.828125 -0.15625l0 -0.796875l2.140625 0l0 7.15625l0.78125 0.15625l0 0.796875l-2.875 0zm3.3977203 0l0 -0.796875l0.78125 -0.15625l0 -6.203125l-0.828125 -0.15625l0 -0.796875l2.140625 0l0 7.15625l0.78125 0.15625l0 0.796875l-2.875 0zm5.9966736 0.109375q-0.78125 0 -1.375 -0.359375q-0.59375 -0.359375 -0.921875 -0.984375q-0.328125 -0.625 -0.328125 -1.4375l0 -0.21875q0 -0.828125 0.3125 -1.46875q0.328125 -0.640625 0.890625 -1.0q0.5625 -0.375 1.28125 -0.375q0.765625 0 1.28125 0.3125q0.515625 0.296875 0.78125 0.875q0.265625 0.5625 0.265625 1.34375l0 0.75l-3.453125 0l0 0.03125q0.015625 0.4375 0.171875 0.78125q0.171875 0.34375 0.46875 0.546875q0.3125 0.1875 0.75 0.1875q0.453125 0 0.828125 -0.125q0.375 -0.125 0.6875 -0.34375l0.421875 0.8125q-0.34375 0.28125 -0.859375 0.484375q-0.515625 0.1875 -1.203125 0.1875zm-1.234375 -3.484375l2.171875 0l0 -0.125q0 -0.375 -0.109375 -0.65625q-0.109375 -0.28125 -0.359375 -0.4375q-0.234375 -0.15625 -0.59375 -0.15625q-0.3125 0 -0.5625 0.1875q-0.234375 0.171875 -0.375 0.484375q-0.140625 0.296875 -0.1875 0.6875l0.015625 0.015625zm4.2237244 3.375l0 -0.796875l0.78125 -0.15625l0 -3.71875l-0.8125 -0.15625l0 -0.796875l2.03125 0l0.0625 0.703125l0.015625 0.109375q0.21875 -0.4375 0.53125 -0.671875q0.328125 -0.25 0.765625 -0.25q0.15625 0 0.3125 0.03125q0.171875 0.015625 0.265625 0.046875l-0.140625 1.21875l-0.734375 -0.046875q-0.359375 -0.015625 -0.59375 0.15625q-0.234375 0.15625 -0.390625 0.4375l0 2.9375l0.78125 0.15625l0 0.796875l-2.875 0z" fill-rule="nonzero"/><path fill="#000000" d="m39.434948 146.61269l0 -0.796875l0.828125 -0.15625l0 -5.65625l-0.828125 -0.15625l0 -0.8125l0.828125 0l2.5 0q1.265625 0 1.984375 0.515625q0.71875 0.515625 0.71875 1.546875q0 0.515625 -0.296875 0.9375q-0.296875 0.40625 -0.828125 0.59375q0.46875 0.109375 0.78125 0.375q0.3125 0.25 0.46875 0.625q0.171875 0.359375 0.171875 0.8125q0 1.0625 -0.703125 1.625q-0.703125 0.546875 -1.953125 0.546875l-3.671875 0zm2.140625 -1.015625l1.53125 0q0.640625 0 0.984375 -0.296875q0.359375 -0.296875 0.359375 -0.859375q0 -0.40625 -0.140625 -0.6875q-0.125 -0.28125 -0.390625 -0.421875q-0.265625 -0.15625 -0.6875 -0.15625l-1.65625 0l0 2.421875zm0 -3.359375l1.328125 0q0.578125 0 0.90625 -0.28125q0.34375 -0.28125 0.34375 -0.796875q0 -0.5625 -0.359375 -0.828125q-0.34375 -0.28125 -1.03125 -0.28125l-1.1875 0l0 2.1875zm4.77446 4.375l0 -0.796875l0.78125 -0.15625l0 -3.71875l-0.828125 -0.15625l0 -0.796875l2.140625 0l0 4.671875l0.765625 0.15625l0 0.796875l-2.859375 0zm0.71875 -6.90625l0 -1.203125l1.375 0l0 1.203125l-1.375 0zm4.8560333 7.0q-0.71875 0 -1.125 -0.390625q-0.390625 -0.40625 -0.390625 -1.296875l0 -3.09375l-0.828125 0l0 -0.9375l0.828125 0l0 -1.375l1.3125 0l0 1.375l1.109375 0l0 0.9375l-1.109375 0l0 3.09375q0 0.359375 0.140625 0.53125q0.15625 0.15625 0.40625 0.15625q0.140625 0 0.3125 -0.015625q0.1875 -0.03125 0.296875 -0.0625l0.140625 0.921875q-0.234375 0.0625 -0.53125 0.109375q-0.296875 0.046875 -0.5625 0.046875zm4.2098083 0.015625q-0.78125 0 -1.375 -0.359375q-0.59375 -0.359375 -0.921875 -0.984375q-0.328125 -0.625 -0.328125 -1.4375l0 -0.21875q0 -0.828125 0.3125 -1.46875q0.328125 -0.640625 0.890625 -1.0q0.5625 -0.375 1.28125 -0.375q0.765625 0 1.28125 0.3125q0.515625 0.296875 0.78125 0.875q0.265625 0.5625 0.265625 1.34375l0 0.75l-3.453125 0l0 0.03125q0.015625 0.4375 0.171875 0.78125q0.171875 0.34375 0.46875 0.546875q0.3125 0.1875 0.75 0.1875q0.453125 0 0.828125 -0.125q0.375 -0.125 0.6875 -0.34375l0.421875 0.8125q-0.34375 0.28125 -0.859375 0.484375q-0.515625 0.1875 -1.203125 0.1875zm-1.234375 -3.484375l2.171875 0l0 -0.125q0 -0.375 -0.109375 -0.65625q-0.109375 -0.28125 -0.359375 -0.4375q-0.234375 -0.15625 -0.59375 -0.15625q-0.3125 0 -0.5625 0.1875q-0.234375 0.171875 -0.375 0.484375q-0.140625 0.296875 -0.1875 0.6875l0.015625 0.015625zm6.531021 3.484375q-0.59375 0 -1.125 -0.109375q-0.515625 -0.125 -1.046875 -0.359375l-0.015625 -1.484375l0.953125 0l0.1875 0.8125q0.234375 0.09375 0.46875 0.15625q0.234375 0.046875 0.53125 0.046875q0.546875 0 0.78125 -0.1875q0.234375 -0.203125 0.234375 -0.5q0 -0.28125 -0.25 -0.46875q-0.234375 -0.203125 -0.90625 -0.359375q-1.015625 -0.21875 -1.5 -0.625q-0.46875 -0.421875 -0.46875 -1.09375q0 -0.46875 0.25 -0.84375q0.25 -0.375 0.71875 -0.59375q0.484375 -0.234375 1.1875 -0.234375q0.640625 0 1.140625 0.140625q0.5 0.125 0.84375 0.34375l0.03125 1.4375l-0.9375 0l-0.15625 -0.75q-0.15625 -0.109375 -0.375 -0.171875q-0.21875 -0.0625 -0.484375 -0.0625q-0.4375 0 -0.6875 0.1875q-0.25 0.1875 -0.25 0.484375q0 0.15625 0.078125 0.296875q0.09375 0.140625 0.3125 0.25q0.234375 0.109375 0.6875 0.21875q1.09375 0.25 1.5625 0.65625q0.484375 0.40625 0.484375 1.09375q0 0.75 -0.5625 1.234375q-0.546875 0.484375 -1.6875 0.484375z" fill-rule="nonzero"/><path fill="#ffffff" d="m67.32483 102.69161c0.39374542 0.97371674 2.215042 3.723671 2.362465 5.8423157c0.14741516 2.118637 -0.34804535 4.9941025 -1.477951 6.869545c-1.1298981 1.8754501 -4.298008 3.46389 -5.3014603 4.383148c-1.0034523 0.9192505 -0.61878586 0.94366455 -0.71925354 1.1324005c-0.1004715 0.18873596 -0.34679794 -0.46886444 0.11643219 0c0.46322632 0.46886444 2.1211472 1.3214569 2.6629333 2.8131714c0.5417938 1.4917221 0.6857681 4.262642 0.5877991 6.137146c-0.097961426 1.8745117 -0.29170227 3.6735992 -1.1755981 5.109909c-0.88388824 1.4363251 -2.5796776 2.655426 -4.127739 3.5080261c-1.5480576 0.85258484 -3.6128654 1.3643341 -5.160614 1.6075287c-1.5477448 0.24319458 -3.3026924 -0.12582397 -4.125862 -0.1483612c-0.8231697 -0.022537231 -0.7596321 0.012832642 -0.8131523 0.013137817c-0.053520203 3.2043457E-4 0.4303627 -0.13113403 0.49202347 -0.011260986c0.061660767 0.11987305 -0.297657 -0.024414062 -0.1220665 0.7305298c0.1755867 0.7549286 1.1017303 2.4112854 1.1755981 3.7990875c0.0738678 1.3878174 0.028793335 3.2616882 -0.7324028 4.5277557c-0.76119614 1.2660522 -2.4341393 2.0945435 -3.8347778 3.068573c-1.4006386 0.97402954 -3.0704536 2.2400818 -4.5690613 2.7756042c-1.4986038 0.5355377 -3.0954895 0.7048645 -4.422577 0.43756104c-1.3270874 -0.2672882 -2.483593 -1.2626038 -3.5399399 -2.0413208c-1.0563507 -0.7787323 -2.3793678 -2.2260132 -2.798151 -2.631012c-0.4187832 -0.40501404 0.14084625 0.08543396 0.28544807 0.20092773c0.14460373 0.115493774 0.5374069 0.44726562 0.58216476 0.4920349c0.044757843 0.04475403 -0.31643295 -0.2541504 -0.3136177 -0.22348022c0.0028190613 0.030670166 0.88952637 -0.14678955 0.33052063 0.40751648c-0.5590019 0.55430603 -2.4807758 2.0904694 -3.6845436 2.918335c-1.2037678 0.8278656 -2.3092556 1.6103516 -3.538063 2.0488434c-1.2288074 0.43850708 -2.336172 0.4610443 -3.8347797 0.5821686c-1.4986057 0.12112427 -3.6826649 0.50987244 -5.1568584 0.14460754c-1.4741917 -0.3652649 -3.0735817 -1.9468079 -3.6882982 -2.3361816" fill-rule="evenodd"/><path stroke="#000000" stroke-width="1.0" stroke-linejoin="round" stroke-linecap="butt" d="m67.32483 102.69161c0.39374542 0.97371674 2.215042 3.723671 2.362465 5.8423157c0.14741516 2.118637 -0.34804535 4.9941025 -1.477951 6.869545c-1.1298981 1.8754501 -4.298008 3.46389 -5.3014603 4.383148c-1.0034523 0.9192505 -0.61878586 0.94366455 -0.71925354 1.1324005c-0.1004715 0.18873596 -0.34679794 -0.46886444 0.11643219 0c0.46322632 0.46886444 2.1211472 1.3214569 2.6629333 2.8131714c0.5417938 1.4917221 0.6857681 4.262642 0.5877991 6.137146c-0.097961426 1.8745117 -0.29170227 3.6735992 -1.1755981 5.109909c-0.88388824 1.4363251 -2.5796776 2.655426 -4.127739 3.5080261c-1.5480576 0.85258484 -3.6128654 1.3643341 -5.160614 1.6075287c-1.5477448 0.24319458 -3.3026924 -0.12582397 -4.125862 -0.1483612c-0.8231697 -0.022537231 -0.7596321 0.012832642 -0.8131523 0.013137817c-0.053520203 3.2043457E-4 0.4303627 -0.13113403 0.49202347 -0.011260986c0.061660767 0.11987305 -0.297657 -0.024414062 -0.1220665 0.7305298c0.1755867 0.7549286 1.1017303 2.4112854 1.1755981 3.7990875c0.0738678 1.3878174 0.028793335 3.2616882 -0.7324028 4.5277557c-0.76119614 1.2660522 -2.4341393 2.0945435 -3.8347778 3.068573c-1.4006386 0.97402954 -3.0704536 2.2400818 -4.5690613 2.7756042c-1.4986038 0.5355377 -3.0954895 0.7048645 -4.422577 0.43756104c-1.3270874 -0.2672882 -2.483593 -1.2626038 -3.5399399 -2.0413208c-1.0563507 -0.7787323 -2.3793678 -2.2260132 -2.798151 -2.631012c-0.4187832 -0.40501404 0.14084625 0.08543396 0.28544807 0.20092773c0.14460373 0.115493774 0.5374069 0.44726562 0.58216476 0.4920349c0.044757843 0.04475403 -0.31643295 -0.2541504 -0.3136177 -0.22348022c0.0028190613 0.030670166 0.88952637 -0.14678955 0.33052063 0.40751648c-0.5590019 0.55430603 -2.4807758 2.0904694 -3.6845436 2.918335c-1.2037678 0.8278656 -2.3092556 1.6103516 -3.538063 2.0488434c-1.2288074 0.43850708 -2.336172 0.4610443 -3.8347797 0.5821686c-1.4986057 0.12112427 -3.6826649 0.50987244 -5.1568584 0.14460754c-1.4741917 -0.3652649 -3.0735817 -1.9468079 -3.6882982 -2.3361816" fill-rule="evenodd"/><path fill="#ffffff" d="m43.463245 127.02887l25.509182 -26.0l-14.716534 -9.650917l-27.401573 -0.7480316l-20.585302 25.149605l0 28.83989l4.942258 10.118118l1.8608923 1.4042053z" fill-rule="evenodd"/><path fill="#000000" fill-opacity="0.0" d="m-6.700925 132.94165l77.297966 -5.61895l1.9686432 27.709038l-77.297966 5.6189575z" fill-rule="evenodd"/><path fill="#999999" d="m31.303608 145.75507l0.67793846 -0.1589508q0.091127396 0.4006958 0.3726635 0.6152344q0.28042603 0.19894409 0.7635269 0.16381836q0.4831009 -0.035110474 0.7035713 -0.23913574q0.21936417 -0.21960449 0.20053864 -0.48457336q-0.017715454 -0.24935913 -0.22916794 -0.35932922q-0.14689636 -0.08331299 -0.73457336 -0.19725037q-0.7924843 -0.13038635 -1.0985413 -0.24914551q-0.3060608 -0.1187439 -0.47961617 -0.356781q-0.17466354 -0.2536316 -0.1957016 -0.5497589q-0.019931793 -0.2805481 0.08812904 -0.5233917q0.123643875 -0.24398804 0.3307457 -0.41571045q0.14698029 -0.13600159 0.4219551 -0.23432922q0.27386475 -0.11390686 0.6011276 -0.13769531q0.48309708 -0.035110474 0.8670769 0.07797241q0.3839798 0.113082886 0.5731201 0.34999084q0.18803024 0.22132874 0.27915955 0.62202454l-0.67904663 0.14335632q-0.070007324 -0.32389832 -0.30036163 -0.4794922q-0.23146439 -0.17115784 -0.6522255 -0.14057922q-0.4831009 0.035125732 -0.6735115 0.22129822q-0.19151878 0.170578 -0.17601585 0.3887787q0.008859634 0.124679565 0.094530106 0.2281189q0.10235977 0.117889404 0.29379654 0.16664124q0.096824646 0.03996277 0.6210594 0.14285278q0.76242065 0.14823914 1.0673752 0.25138855q0.3049507 0.10316467 0.478508 0.34121704q0.18803024 0.22131348 0.21350098 0.5797882q0.024360657 0.3428955 -0.15608597 0.6693268q-0.18044281 0.32644653 -0.5578575 0.5262146q-0.36183548 0.19862366 -0.8605194 0.23487854q-0.7947769 0.057769775 -1.2543793 -0.23780823q-0.44512558 -0.31230164 -0.60071945 -0.9589691z" fill-rule="nonzero"/><path fill="#000000" fill-opacity="0.0" d="m-2.6673458 146.18045l70.02371 -33.26078l11.901993 25.102287l-70.02371 33.260788z" fill-rule="evenodd"/><path fill="#999999" d="m36.999477 145.9052l-1.780632 -3.7555084l0.5645523 -0.26815796l0.25437546 0.536499q0.04959488 -0.36950684 0.25154114 -0.6730194q0.21606064 -0.31019592 0.5971298 -0.49119568q0.40929794 -0.19442749 0.7644844 -0.13825989q0.34849167 0.042053223 0.6086693 0.2990265q0.12290573 -0.87138367 0.8427048 -1.2132874q0.5504379 -0.26145935 0.99409485 -0.09162903q0.45777512 0.16311646 0.7657013 0.81256104l1.2183304 2.5695496l-0.6351204 0.30168152l-1.1179161 -2.3577728q-0.18074036 -0.38121033 -0.33163834 -0.5171051q-0.1367836 -0.14260864 -0.35300827 -0.16098022q-0.20880508 -0.039215088 -0.42050934 0.06135559q-0.39518738 0.18769836 -0.5361595 0.58332825q-0.12685776 0.38891602 0.14759827 0.96777344l1.0308952 2.17424l-0.6351204 0.30168152l-1.158081 -2.4424896q-0.20082092 -0.42355347 -0.45648575 -0.5615845q-0.255661 -0.138031 -0.60850525 0.029556274q-0.26816177 0.12738037 -0.44115448 0.38253784q-0.15887833 0.2484436 -0.123794556 0.57774353q0.028392792 0.3151703 0.26938248 0.82344055l0.92378616 1.9483337l-0.6351204 0.30168152z" fill-rule="nonzero"/><path fill="#000000" fill-opacity="0.0" d="m3.2300012 148.27283l65.23331 -41.851135l14.985176 23.41957l-65.233315 41.851135z" fill-rule="evenodd"/><path fill="#999999" d="m45.463463 140.50336q-0.15193176 0.48731995 -0.37861633 0.7998352q-0.22668457 0.3125 -0.5817642 0.5403137q-0.56550217 0.36280823 -1.0579758 0.2889099q-0.4877472 -0.0954895 -0.7656555 -0.5298157q-0.16842651 -0.26322937 -0.1979599 -0.54130554q-0.01638031 -0.28652954 0.09194183 -0.5231018q0.11305618 -0.25816345 0.30766678 -0.47584534q0.13727951 -0.162323 0.46709824 -0.42962646q0.66436386 -0.5561676 0.91735077 -0.8855591q-0.062641144 -0.12689209 -0.07948303 -0.1532135q-0.23579788 -0.368515 -0.4994011 -0.40361023q-0.34988785 -0.053985596 -0.7970276 0.23287964q-0.4208374 0.27000427 -0.52547073 0.54133606q-0.10463333 0.2713318 0.025959015 0.7073517l-0.6291809 0.29226685q-0.15689087 -0.41914368 -0.115940094 -0.7610016q0.03253174 -0.35502625 0.29867172 -0.69285583q0.25771332 -0.35098267 0.70485306 -0.6378479q0.44713974 -0.28686523 0.79068756 -0.35876465q0.35669708 -0.080322266 0.59768295 0.0064086914q0.23257065 0.07356262 0.43675995 0.27671814q0.12735748 0.14105225 0.38000107 0.53590393l0.50528336 0.78967285q0.52212524 0.8160095 0.70474243 1.0144348q0.18261719 0.19844055 0.41414642 0.32835388l-0.618103 0.39656067q-0.20996094 -0.12519836 -0.39626694 -0.35839844zm-0.8947449 -1.2823792q-0.2314148 0.33410645 -0.81687164 0.83966064q-0.33454514 0.28889465 -0.45025253 0.45594788q-0.10255432 0.15861511 -0.09724808 0.34085083q-0.0031166077 0.16906738 0.09794235 0.3270111q0.15158463 0.23690796 0.42360687 0.28515625q0.2851715 0.03981018 0.6271019 -0.17955017q0.3419304 -0.21937561 0.51231766 -0.53289795q0.1751175 -0.33511353 0.12504959 -0.6742859q-0.034259796 -0.25646973 -0.28690338 -0.6513214l-0.13474274 -0.21057129z" fill-rule="nonzero"/><path fill="#000000" fill-opacity="0.0" d="m10.147112 157.10335l50.70121 -58.63967l20.996735 18.195892l-50.70121 58.63967z" fill-rule="evenodd"/><path fill="#999999" d="m47.928543 139.04977l-4.333538 -3.7554626l0.459877 -0.53189087l4.333538 3.755478l-0.459877 0.5318756z" fill-rule="nonzero"/><path fill="#000000" fill-opacity="0.0" d="m11.606111 155.22287l50.70121 -58.63968l20.996735 18.195892l-50.701214 58.639664z" fill-rule="evenodd"/><path fill="#999999" d="m49.387543 137.1693l-4.333538 -3.755478l0.459877 -0.5318756l4.333538 3.7554626l-0.459877 0.53189087z" fill-rule="nonzero"/><path fill="#000000" fill-opacity="0.0" d="m17.224058 152.23999l46.34733 -62.137695l22.252243 16.63681l-46.347332 62.137695z" fill-rule="evenodd"/><path fill="#999999" d="m53.201035 132.05792l-0.3830185 0.5135193l-4.5926857 -3.4337158l0.42038727 -0.56359863l1.6393509 1.225647q-0.18893433 -0.68751526 0.22211075 -1.2386017q0.23355103 -0.31311035 0.5642128 -0.49510193q0.3306656 -0.18197632 0.68670654 -0.18891144q0.35604095 -0.0069351196 0.74362946 0.12676239q0.3875885 0.13371277 0.7504997 0.40504456q0.8509598 0.6362152 1.008873 1.4175873q0.14539337 0.77201843 -0.29367828 1.360672q-0.43907166 0.5886688 -1.1793556 0.5619507l0.41296768 0.30874634zm-1.6894073 -1.2630768q0.6006775 0.44909668 0.9849205 0.48275757q0.63417435 0.064437866 0.9704857 -0.3864441q0.28025818 -0.37574768 0.16358566 -0.8726654q-0.11984253 -0.5188141 -0.75806427 -0.9959717q-0.65073395 -0.4865265 -1.159771 -0.45739746q-0.499691 0.016586304 -0.7799492 0.39231873q-0.270916 0.3632202 -0.15107346 0.8820343q0.12918854 0.50627136 0.729866 0.95536804z" fill-rule="nonzero"/><path fill="#000000" fill-opacity="0.0" d="m25.344524 156.54663l29.950985 -71.47998l25.609093 10.819649l-29.950985 71.47997z" fill-rule="evenodd"/><path fill="#999999" d="m51.10553 125.75145l-0.7484436 -0.3162079l0.27172852 -0.64849854l0.7484436 0.3162079l-0.27172852 0.64849854zm4.5338554 1.9155197l-3.8285866 -1.6175461l0.27172852 -0.64849854l3.8285866 1.6175461l-0.27172852 0.64849854z" fill-rule="nonzero"/><path fill="#000000" fill-opacity="0.0" d="m28.772669 155.44548l24.821867 -73.422745l26.340332 8.940163l-24.821869 73.42275z" fill-rule="evenodd"/><path fill="#999999" d="m56.79375 123.02788l0.612072 0.09223938q-0.02109909 0.3063507 -0.09616089 0.52838135q-0.12509918 0.37004852 -0.31352615 0.53710175q-0.18342209 0.1522522 -0.39099884 0.18080139q-0.21736526 0.008720398 -0.8240013 -0.19717407l-2.2637863 -0.7683487l-0.16513824 0.48846436l-0.5178566 -0.17576599l0.16513443 -0.48846436l-0.9617424 -0.32642365l-0.17430496 -0.80168915l1.361229 0.46202087l0.2251854 -0.6660919l0.5178604 0.17576599l-0.2251854 0.6660919l2.3081741 0.78341675q0.28112411 0.09541321 0.37990952 0.095939636q0.08899307 -0.019294739 0.15840149 -0.07823944q0.06940842 -0.058944702 0.119449615 -0.20696259q0.040031433 -0.11841583 0.08528519 -0.30106354z" fill-rule="nonzero"/><path fill="#000000" fill-opacity="0.0" d="m37.744766 156.49748l7.9080048 -77.085625l27.695572 2.8847046l-7.9080048 77.085625z" fill-rule="evenodd"/><path fill="#999999" d="m57.19194 118.41179l0.16659546 -0.7052841q0.61964035 0.23734283 0.929245 0.7408829q0.2956581 0.48636627 0.22071457 1.2169113q-0.09248352 0.90151215 -0.70617294 1.3717194q-0.6136894 0.47019958 -1.6238518 0.3649826q-1.0412445 -0.10845184 -1.5620422 -0.6968231q-0.519207 -0.6039047 -0.4315071 -1.4587936q0.08451462 -0.82380676 0.7137413 -1.2923889q0.6136894 -0.47019958 1.6393929 -0.36336517q0.062164307 0.0064697266 0.18489838 0.034965515l-0.31572342 3.0775986q0.6730423 0.022972107 1.0811081 -0.2801361q0.3925209 -0.30471802 0.44673538 -0.83319855q0.038269043 -0.37303925 -0.1366539 -0.6583252q-0.17333221 -0.3008194 -0.60647964 -0.5187454zm-1.3549423 2.1838837l0.23599625 -2.3004303q-0.5331764 -0.008407593 -0.81969833 0.1816864q-0.4375496 0.28432465 -0.4933586 0.82834625q-0.049430847 0.48184204 0.24344254 0.842247q0.29287338 0.36040497 0.83361816 0.44815063z" fill-rule="nonzero"/><path fill="#ffffff" d="m7.3057194 66.463524l0 0c0 -20.69981 16.780508 -37.480316 37.480316 -37.480316l0 0c9.940399 0 19.473663 3.9488087 26.502586 10.977732c7.028923 7.028919 10.97773 16.562187 10.97773 26.502586l0 0c0 20.699806 -16.78051 37.48031 -37.480316 37.48031l0 0c-20.699806 0 -37.480316 -16.780502 -37.480316 -37.48031z" fill-rule="evenodd"/><path stroke="#000000" stroke-width="1.0" stroke-linejoin="round" stroke-linecap="butt" d="m7.3057194 66.463524l0 0c0 -20.69981 16.780508 -37.480316 37.480316 -37.480316l0 0c9.940399 0 19.473663 3.9488087 26.502586 10.977732c7.028923 7.028919 10.97773 16.562187 10.97773 26.502586l0 0c0 20.699806 -16.78051 37.48031 -37.480316 37.48031l0 0c-20.699806 0 -37.480316 -16.780502 -37.480316 -37.48031z" fill-rule="evenodd"/><path fill="#000000" d="m23.953653 69.533104q-1.0625 0 -1.984375 -0.265625q-0.90625 -0.265625 -1.78125 -0.890625l0 -2.390625l1.390625 0l0.234375 1.546875q0.375 0.28125 0.921875 0.453125q0.5625 0.15625 1.21875 0.15625q0.640625 0 1.0625 -0.1875q0.4375 -0.1875 0.65625 -0.515625q0.234375 -0.328125 0.234375 -0.78125q0 -0.40625 -0.203125 -0.71875q-0.1875 -0.328125 -0.65625 -0.578125q-0.46875 -0.265625 -1.265625 -0.484375q-1.15625 -0.3125 -1.9375 -0.734375q-0.78125 -0.4375 -1.1875 -1.03125q-0.390625 -0.609375 -0.390625 -1.421875q0 -0.828125 0.453125 -1.46875q0.453125 -0.65625 1.25 -1.03125q0.8125 -0.375 1.875 -0.375q1.15625 -0.015625 2.046875 0.296875q0.890625 0.3125 1.515625 0.828125l0 2.234375l-1.375 0l-0.25 -1.453125q-0.296875 -0.203125 -0.765625 -0.34375q-0.46875 -0.15625 -1.109375 -0.15625q-0.546875 0 -0.96875 0.1875q-0.40625 0.171875 -0.640625 0.5q-0.234375 0.3125 -0.234375 0.765625q0 0.390625 0.203125 0.6875q0.21875 0.296875 0.703125 0.546875q0.484375 0.234375 1.3125 0.46875q1.703125 0.453125 2.5625 1.25q0.875 0.796875 0.875 2.015625q0 0.875 -0.46875 1.53125q-0.46875 0.640625 -1.3125 1.0q-0.84375 0.359375 -1.984375 0.359375zm4.7242126 -0.15625l0 -1.109375l1.078125 -0.203125l0 -5.109375l-1.140625 -0.21875l0 -1.109375l2.796875 0l0.078125 1.015625q0.390625 -0.546875 0.9531269 -0.84375q0.5625 -0.3125 1.328125 -0.3125q0.75 0 1.28125 0.34375q0.546875 0.34375 0.828125 1.03125q0.359375 -0.640625 0.9375 -1.0q0.59375 -0.375 1.375 -0.375q1.171875 0 1.828125 0.796875q0.671875 0.796875 0.671875 2.40625l0 3.375l1.09375 0.203125l0 1.109375l-3.90625 0l0 -1.109375l1.015625 -0.203125l0 -3.375q0 -0.984375 -0.328125 -1.375q-0.328125 -0.40625 -0.96875 -0.40625q-0.59375 0 -0.984375 0.390625q-0.375 0.375 -0.484375 0.96875l0 3.796875l0.96875 0.203125l0 1.109375l-3.75 0l0 -1.109375l0.984375 -0.203125l0 -3.375q0 -0.953125 -0.34375 -1.359375q-0.328125 -0.421875 -0.96875 -0.421875q-0.53125 0 -0.890625 0.21875q-0.3593769 0.21875 -0.5781269 0.609375l0 4.328125l1.0156269 0.203125l0 1.109375l-3.890627 0zm16.507051 0.15625q-1.1875 0 -1.84375 -0.609375q-0.65625 -0.609375 -0.65625 -1.671875q0 -0.734375 0.390625 -1.28125q0.40625 -0.5625 1.171875 -0.875q0.78125 -0.3125 1.890625 -0.3125l1.171875 0l0 -0.640625q0 -0.625 -0.375 -0.984375q-0.359375 -0.359375 -1.0625 -0.359375q-0.40625 0 -0.71875 0.09375q-0.296875 0.09375 -0.546875 0.265625l-0.15625 1.046875l-1.328125 0l-0.015625 -1.90625q0.578125 -0.375 1.28125 -0.59375q0.703125 -0.21875 1.5625 -0.21875q1.46875 0 2.3125 0.703125q0.859375 0.6875 0.859375 1.96875l0 3.421875q0 0.15625 0 0.3125q0 0.140625 0.015625 0.28125l0.78125 0.09375l0 1.109375l-2.34375 0q-0.078125 -0.25 -0.140625 -0.484375q-0.0625 -0.234375 -0.09375 -0.46875q-0.375 0.484375 -0.921875 0.796875q-0.546875 0.3125 -1.234375 0.3125zm0.40625 -1.40625q0.546875 0 1.015625 -0.25q0.46875 -0.25 0.703125 -0.640625l0 -1.296875l-1.203125 0q-0.8125 0 -1.21875 0.375q-0.40625 0.375 -0.40625 0.875q0 0.453125 0.28125 0.703125q0.28125 0.234375 0.828125 0.234375zm5.1243896 1.25l0 -1.109375l1.078125 -0.203125l0 -8.53125l-1.140625 -0.21875l0 -1.09375l2.9375 0l0 9.84375l1.078125 0.203125l0 1.109375l-3.953125 0zm4.673111 0l0 -1.109375l1.078125 -0.203125l0 -8.53125l-1.140625 -0.21875l0 -1.09375l2.9375 0l0 9.84375l1.078125 0.203125l0 1.109375l-3.953125 0zm8.248627 0.15625q-1.09375 0 -1.90625 -0.484375q-0.8125 -0.5 -1.265625 -1.359375q-0.4375 -0.875 -0.4375 -1.984375l0 -0.3125q0 -1.125 0.4375 -2.0q0.4375 -0.890625 1.203125 -1.390625q0.78125 -0.515625 1.78125 -0.515625q1.0468712 0 1.7499962 0.421875q0.71875 0.421875 1.078125 1.203125q0.375 0.78125 0.375 1.859375l0 1.03125l-4.749996 0l-0.015625 0.046875q0.03125 0.59375 0.25 1.078125q0.21875 0.46875 0.640625 0.75q0.421875 0.265625 1.015625 0.265625q0.6406212 0 1.1562462 -0.171875q0.515625 -0.171875 0.953125 -0.484375l0.5625 1.125q-0.46875 0.390625 -1.171875 0.65625q-0.703125 0.265625 -1.6562462 0.265625zm-1.71875 -4.796875l2.9999962 0l0 -0.1875q0 -0.5 -0.15625 -0.875q-0.140625 -0.390625 -0.46875 -0.609375q-0.3281212 -0.21875 -0.8281212 -0.21875q-0.4375 0 -0.765625 0.25q-0.328125 0.234375 -0.53125 0.65625q-0.1875 0.421875 -0.265625 0.953125l0.015625 0.03125zm5.8291893 4.640625l0 -1.109375l1.078125 -0.203125l0 -5.109375l-1.125 -0.21875l0 -1.109375l2.78125 0l0.09375 0.984375l0.015625 0.15625q0.3125 -0.625 0.75 -0.953125q0.453125 -0.328125 1.046875 -0.328125q0.203125 0 0.421875 0.046875q0.234375 0.03125 0.375 0.078125l-0.203125 1.65625l-1.015625 -0.046875q-0.484375 -0.03125 -0.8125 0.1875q-0.3125 0.21875 -0.53125 0.609375l0 4.046875l1.078125 0.203125l0 1.109375l-3.953125 0z" fill-rule="nonzero"/><path fill="#000000" d="m39.529552 87.043526l0 -1.109375l1.140625 -0.203125l0 -7.78125l-1.140625 -0.21875l0 -1.109375l1.140625 0l3.4375 0q1.75 0 2.734375 0.71875q0.984375 0.703125 0.984375 2.125q0 0.703125 -0.40625 1.265625q-0.40625 0.5625 -1.125 0.84375q0.625 0.125 1.046875 0.484375q0.4375 0.359375 0.65625 0.875q0.234375 0.515625 0.234375 1.125q0 1.453125 -0.96875 2.21875q-0.953125 0.765625 -2.671875 0.765625l-5.0625 0zm2.9375 -1.390625l2.125 0q0.875 0 1.34375 -0.40625q0.484375 -0.421875 0.484375 -1.1875q0 -0.5625 -0.1875 -0.9375q-0.171875 -0.390625 -0.53125 -0.59375q-0.359375 -0.21875 -0.9375 -0.21875l-2.296875 0l0 3.34375zm0 -4.640625l1.84375 0q0.796875 0 1.25 -0.375q0.46875 -0.390625 0.46875 -1.09375q0 -0.765625 -0.5 -1.140625q-0.484375 -0.390625 -1.421875 -0.390625l-1.640625 0l0 3.0zm6.5693817 6.03125l0 -1.109375l1.078125 -0.203125l0 -5.109375l-1.140625 -0.21875l0 -1.109375l2.953125 0l0 6.4375l1.0625 0.203125l0 1.109375l-3.953125 0zm1.0 -9.5l0 -1.65625l1.875 0l0 1.65625l-1.875 0zm6.6861115 9.640625q-1.0 0 -1.546875 -0.546875q-0.546875 -0.5625 -0.546875 -1.78125l0 -4.265625l-1.140625 0l0 -1.296875l1.140625 0l0 -1.875l1.796875 0l0 1.875l1.53125 0l0 1.296875l-1.53125 0l0 4.265625q0 0.484375 0.203125 0.71875q0.203125 0.21875 0.546875 0.21875q0.203125 0 0.453125 -0.03125q0.25 -0.03125 0.390625 -0.078125l0.1875 1.28125q-0.3125 0.078125 -0.71875 0.140625q-0.40625 0.078125 -0.765625 0.078125zm5.784027 0.015625q-1.09375 0 -1.90625 -0.484375q-0.8125 -0.5 -1.265625 -1.359375q-0.4375 -0.875 -0.4375 -1.984375l0 -0.3125q0 -1.125 0.4375 -2.0q0.4375 -0.890625 1.203125 -1.390625q0.78125 -0.515625 1.78125 -0.515625q1.046875 0 1.7499962 0.421875q0.71875 0.421875 1.078125 1.203125q0.375 0.78125 0.375 1.859375l0 1.03125l-4.749996 0l-0.015625 0.046875q0.03125 0.59375 0.25 1.078125q0.21875 0.46875 0.640625 0.75q0.421875 0.265625 1.015625 0.265625q0.640625 0 1.15625 -0.171875q0.5156212 -0.171875 0.9531212 -0.484375l0.5625 1.125q-0.46875 0.390625 -1.171875 0.65625q-0.7031212 0.265625 -1.6562462 0.265625zm-1.71875 -4.796875l3.0 0l0 -0.1875q0 -0.5 -0.15625 -0.875q-0.140625 -0.390625 -0.46875 -0.609375q-0.328125 -0.21875 -0.828125 -0.21875q-0.4375 0 -0.765625 0.25q-0.328125 0.234375 -0.53125 0.65625q-0.1875 0.421875 -0.265625 0.953125l0.015625 0.03125zm9.015392 4.796875q-0.84375 0 -1.5625 -0.15625q-0.71875 -0.171875 -1.4375 -0.484375l-0.015625 -2.046875l1.296875 0l0.265625 1.109375q0.3125 0.140625 0.625 0.21875q0.328125 0.078125 0.734375 0.078125q0.78125 0 1.09375 -0.265625q0.3125 -0.28125 0.3125 -0.6875q0 -0.390625 -0.328125 -0.65625q-0.328125 -0.28125 -1.265625 -0.484375q-1.390625 -0.296875 -2.046875 -0.875q-0.65625 -0.578125 -0.65625 -1.5q0 -0.625 0.34375 -1.140625q0.34375 -0.515625 1.0 -0.828125q0.65625 -0.3125 1.625 -0.3125q0.875 0 1.5625 0.1875q0.6875 0.171875 1.171875 0.46875l0.03125 1.96875l-1.28125 0l-0.21875 -1.015625q-0.21875 -0.15625 -0.515625 -0.234375q-0.296875 -0.09375 -0.671875 -0.09375q-0.59375 0 -0.9375 0.265625q-0.34375 0.25 -0.34375 0.640625q0 0.234375 0.109375 0.421875q0.109375 0.1875 0.421875 0.34375q0.328125 0.15625 0.953125 0.296875q1.5 0.34375 2.15625 0.90625q0.65625 0.5625 0.65625 1.5q0 1.03125 -0.765625 1.703125q-0.765625 0.671875 -2.3125 0.671875z" fill-rule="nonzero"/><path fill="#ffffff" d="m70.66862 39.66984c0.39374542 0.97371674 2.2150497 3.7236671 2.362465 5.842308c0.14742279 2.1186447 -0.34804535 4.9941025 -1.477951 6.8695526c-1.1298981 1.8754501 -4.298004 3.4638824 -5.3014603 4.3831406c-1.0034485 0.9192581 -0.61878204 0.9436722 -0.71925354 1.1324081c-0.1004715 0.18873215 -0.34679413 -0.46886444 0.11643219 0c0.46322632 0.46886063 2.1211472 1.3214531 2.662941 2.8131714c0.5417862 1.4917221 0.6857605 4.262638 0.5877991 6.13715c-0.097969055 1.8745117 -0.2917099 3.6735916 -1.1755981 5.109909c-0.8838959 1.4363251 -2.5796814 2.655426 -4.127743 3.5080185c-1.5480614 0.85258484 -3.6128693 1.3643341 -5.160614 1.6075287c-1.5477486 0.24319458 -3.3026924 -0.12582397 -4.125862 -0.1483612c-0.8231697 -0.022537231 -0.7596321 0.012832642 -0.8131561 0.013145447c-0.053520203 3.1280518E-4 0.43036652 -0.13114166 0.49202347 -0.011268616c0.061660767 0.11987305 -0.2976532 -0.024414062 -0.1220665 0.73052216c0.17559052 0.7549362 1.1017342 2.411293 1.1755981 3.7991028c0.0738678 1.3878021 0.02879715 3.2616882 -0.732399 4.5277405c-0.76119614 1.2660522 -2.4341393 2.0945435 -3.8347816 3.068573c-1.4006386 0.9740372 -3.0704498 2.2400894 -4.5690575 2.7756195c-1.4986076 0.5355301 -3.0954933 0.7048569 -4.4225807 0.43756104c-1.3270836 -0.26729584 -2.4835892 -1.2626114 -3.5399399 -2.041336c-1.0563469 -0.7787247 -2.379364 -2.225998 -2.798149 -2.631012c-0.4187851 -0.40501404 0.14084625 0.08544922 0.28544998 0.200943c0.14459991 0.115493774 0.5374069 0.44726562 0.58216476 0.49201965c0.044757843 0.044761658 -0.31643677 -0.25414276 -0.3136177 -0.2234726c0.0028152466 0.030670166 0.88952255 -0.14679718 0.33052063 0.40751648c-0.55900574 0.55430603 -2.4807777 2.090477 -3.6845436 2.918335c-1.2037697 0.8278656 -2.3092575 1.6103439 -3.538065 2.048851c-1.2288074 0.43849945 -2.336172 0.46103668 -3.8347797 0.58216095c-1.4986057 0.1211319 -3.6826649 0.5098648 -5.1568584 0.14460754c-1.4741917 -0.3652649 -3.0735817 -1.9468155 -3.6882992 -2.336174" fill-rule="evenodd"/><path stroke="#000000" stroke-width="1.0" stroke-linejoin="round" stroke-linecap="butt" d="m70.66862 39.66984c0.39374542 0.97371674 2.2150497 3.7236671 2.362465 5.842308c0.14742279 2.1186447 -0.34804535 4.9941025 -1.477951 6.8695526c-1.1298981 1.8754501 -4.298004 3.4638824 -5.3014603 4.3831406c-1.0034485 0.9192581 -0.61878204 0.9436722 -0.71925354 1.1324081c-0.1004715 0.18873215 -0.34679413 -0.46886444 0.11643219 0c0.46322632 0.46886063 2.1211472 1.3214531 2.662941 2.8131714c0.5417862 1.4917221 0.6857605 4.262638 0.5877991 6.13715c-0.097969055 1.8745117 -0.2917099 3.6735916 -1.1755981 5.109909c-0.8838959 1.4363251 -2.5796814 2.655426 -4.127743 3.5080185c-1.5480614 0.85258484 -3.6128693 1.3643341 -5.160614 1.6075287c-1.5477486 0.24319458 -3.3026924 -0.12582397 -4.125862 -0.1483612c-0.8231697 -0.022537231 -0.7596321 0.012832642 -0.8131561 0.013145447c-0.053520203 3.1280518E-4 0.43036652 -0.13114166 0.49202347 -0.011268616c0.061660767 0.11987305 -0.2976532 -0.024414062 -0.1220665 0.73052216c0.17559052 0.7549362 1.1017342 2.411293 1.1755981 3.7991028c0.0738678 1.3878021 0.02879715 3.2616882 -0.732399 4.5277405c-0.76119614 1.2660522 -2.4341393 2.0945435 -3.8347816 3.068573c-1.4006386 0.9740372 -3.0704498 2.2400894 -4.5690575 2.7756195c-1.4986076 0.5355301 -3.0954933 0.7048569 -4.4225807 0.43756104c-1.3270836 -0.26729584 -2.4835892 -1.2626114 -3.5399399 -2.041336c-1.0563469 -0.7787247 -2.379364 -2.225998 -2.798149 -2.631012c-0.4187851 -0.40501404 0.14084625 0.08544922 0.28544998 0.200943c0.14459991 0.115493774 0.5374069 0.44726562 0.58216476 0.49201965c0.044757843 0.044761658 -0.31643677 -0.25414276 -0.3136177 -0.2234726c0.0028152466 0.030670166 0.88952255 -0.14679718 0.33052063 0.40751648c-0.55900574 0.55430603 -2.4807777 2.090477 -3.6845436 2.918335c-1.2037697 0.8278656 -2.3092575 1.6103439 -3.538065 2.048851c-1.2288074 0.43849945 -2.336172 0.46103668 -3.8347797 0.58216095c-1.4986057 0.1211319 -3.6826649 0.5098648 -5.1568584 0.14460754c-1.4741917 -0.3652649 -3.0735817 -1.9468155 -3.6882992 -2.336174" fill-rule="evenodd"/><path fill="#ffffff" d="m45.97239 64.0058l25.509186 -26.000004l-14.716537 -9.650917l-27.401573 -0.7480316l-23.580051 23.165356l-0.997375 29.808395l8.934383 11.133858l1.8608923 1.4042053z" fill-rule="evenodd"/><path fill="#000000" fill-opacity="0.0" d="m-3.4509246 69.665955l77.297966 -5.61895l1.9686432 27.709045l-77.297966 5.6189423z" fill-rule="evenodd"/><path fill="#999999" d="m34.553608 82.47937l0.67794037 -0.15894318q0.09112549 0.4006958 0.3726616 0.6152191q0.28042603 0.19894409 0.7635269 0.16382599q0.4831009 -0.035118103 0.7035713 -0.23913574q0.21936417 -0.21960449 0.20053864 -0.48456573q-0.017715454 -0.24937439 -0.22916794 -0.35932922q-0.14689636 -0.08332062 -0.73457336 -0.19726562q-0.7924843 -0.13038635 -1.0985413 -0.24913025q-0.3060608 -0.118751526 -0.47961807 -0.35679626q-0.17465973 -0.25362396 -0.1957016 -0.5497589q-0.019931793 -0.28054047 0.08813095 -0.5233917q0.12364578 -0.24398041 0.3307457 -0.4156952q0.14698029 -0.13601685 0.4219551 -0.23433685q0.27386475 -0.11389923 0.6011276 -0.13769531q0.48309708 -0.035110474 0.8670769 0.07797241q0.3839798 0.113082886 0.5731201 0.34999084q0.18803024 0.22132874 0.27915955 0.62202454l-0.67904663 0.14335632q-0.070007324 -0.32389832 -0.30036163 -0.47948456q-0.23146439 -0.17116547 -0.6522255 -0.14057922q-0.4831009 0.035118103 -0.6735115 0.22128296q-0.19151688 0.17058563 -0.17601395 0.38878632q0.008857727 0.124687195 0.0945282 0.2281189q0.10235977 0.117889404 0.29379654 0.16664124q0.096824646 0.03996277 0.6210594 0.14284515q0.76242065 0.14823914 1.0673752 0.2514038q0.3049507 0.10316467 0.478508 0.3412094q0.18803024 0.2213211 0.21350098 0.57979584q0.024360657 0.34288025 -0.15608597 0.6693268q-0.18044281 0.3264389 -0.5578575 0.526207q-0.36183548 0.19862366 -0.8605194 0.23487854q-0.7947769 0.057769775 -1.2543793 -0.23780823q-0.44512558 -0.31230164 -0.60071945 -0.9589691z" fill-rule="nonzero"/><path fill="#000000" fill-opacity="0.0" d="m0.5826542 82.90476l70.02371 -33.260788l11.901993 25.102287l-70.02371 33.260788z" fill-rule="evenodd"/><path fill="#999999" d="m40.249477 82.6295l-1.780632 -3.7555008l0.5645523 -0.26815796l0.25437546 0.536499q0.04959488 -0.3695221 0.25154114 -0.6730194q0.21606064 -0.31020355 0.5971298 -0.49121094q0.40929794 -0.19441223 0.7644844 -0.13824463q0.34849167 0.042045593 0.6086693 0.29901886q0.12290573 -0.8713913 0.8427048 -1.2132874q0.5504379 -0.26145935 0.99409485 -0.09163666q0.45777512 0.16312408 0.7657013 0.81256866l1.2183304 2.5695496l-0.6351204 0.30168152l-1.1179161 -2.3577805q-0.18074036 -0.38119507 -0.33163834 -0.5170975q-0.1367836 -0.14260101 -0.35300827 -0.16098785q-0.20880508 -0.03919983 -0.42050934 0.06135559q-0.39518738 0.18771362 -0.5361595 0.5833359q-0.12685776 0.38892365 0.14759827 0.96777344l1.0308952 2.17424l-0.6351204 0.3016739l-1.158081 -2.442482q-0.20082092 -0.42355347 -0.45648575 -0.5615845q-0.255661 -0.13803864 -0.60850525 0.029563904q-0.26816177 0.12737274 -0.44115448 0.38252258q-0.15887833 0.24845123 -0.123794556 0.57774353q0.028392792 0.31517792 0.26938248 0.82344055l0.92378616 1.9483414l-0.6351204 0.30168152z" fill-rule="nonzero"/><path fill="#000000" fill-opacity="0.0" d="m6.4800014 84.99713l65.23331 -41.85113l14.985176 23.419567l-65.233315 41.851128z" fill-rule="evenodd"/><path fill="#999999" d="m48.713463 77.22766q-0.15193176 0.48731995 -0.37861633 0.7998352q-0.22668457 0.31250763 -0.5817642 0.5403137q-0.56550217 0.3628006 -1.0579758 0.2889099q-0.4877472 -0.09549713 -0.7656555 -0.5298157q-0.16842651 -0.26322937 -0.1979599 -0.5413132q-0.01638031 -0.28651428 0.09194183 -0.52308655q0.11305618 -0.25817108 0.30766678 -0.47585297q0.13727951 -0.16233063 0.46709824 -0.42961884q0.66436386 -0.55618286 0.91735077 -0.8855667q-0.062641144 -0.12688446 -0.07948303 -0.15320587q-0.23579788 -0.36852264 -0.4994011 -0.40361023q-0.34988785 -0.053985596 -0.7970276 0.23287964q-0.4208374 0.269989 -0.52547073 0.54132843q-0.10463333 0.2713318 0.025959015 0.7073517l-0.6291809 0.29226685q-0.15689087 -0.41914368 -0.115940094 -0.7610016q0.03253174 -0.35502625 0.29867172 -0.6928482q0.25771332 -0.35098267 0.70485306 -0.6378555q0.44713974 -0.28686523 0.79068756 -0.35875702q0.35669708 -0.080329895 0.59768295 0.0063934326q0.23257065 0.07357025 0.43675995 0.27672577q0.12735748 0.14105988 0.38000107 0.5358963l0.50528336 0.7896805q0.52212524 0.8160095 0.70474243 1.0144424q0.18261719 0.1984253 0.41414642 0.32834625l-0.618103 0.39655304q-0.20996094 -0.12519836 -0.39626694 -0.3583908zm-0.8947449 -1.2823792q-0.2314148 0.33410645 -0.81687164 0.83966064q-0.33454514 0.28888702 -0.45025253 0.45594025q-0.10255432 0.15862274 -0.09724808 0.34085846q-0.0031166077 0.16907501 0.09794235 0.3270111q0.15158463 0.23690033 0.42360687 0.28515625q0.2851715 0.03981018 0.6271019 -0.1795578q0.3419304 -0.21936798 0.51231766 -0.5328903q0.1751175 -0.33511353 0.12504959 -0.67427826q-0.034259796 -0.256485 -0.28690338 -0.6513214l-0.13474274 -0.21057892z" fill-rule="nonzero"/><path fill="#000000" fill-opacity="0.0" d="m13.397112 93.82765l50.70121 -58.639668l20.996735 18.195889l-50.70121 58.63967z" fill-rule="evenodd"/><path fill="#999999" d="m51.178543 75.77408l-4.333538 -3.7554703l0.459877 -0.5318756l4.333538 3.7554703l-0.459877 0.5318756z" fill-rule="nonzero"/><path fill="#000000" fill-opacity="0.0" d="m14.856111 91.94717l50.70121 -58.639668l20.996735 18.195892l-50.701214 58.639668z" fill-rule="evenodd"/><path fill="#999999" d="m52.637543 73.8936l-4.333538 -3.7554703l0.459877 -0.53188324l4.333538 3.7554703l-0.459877 0.53188324z" fill-rule="nonzero"/><path fill="#000000" fill-opacity="0.0" d="m20.474058 88.96429l46.34733 -62.137688l22.252243 16.636816l-46.347332 62.13769z" fill-rule="evenodd"/><path fill="#999999" d="m56.451035 68.782234l-0.3830185 0.51351166l-4.5926857 -3.4337082l0.42038727 -0.5636139l1.6393509 1.2256546q-0.18893433 -0.6875076 0.22211075 -1.2386017q0.23355103 -0.31311798 0.5642128 -0.4950943q0.3306656 -0.18198395 0.68670654 -0.18891907q0.35604095 -0.0069351196 0.74362946 0.12677002q0.3875885 0.13370514 0.7504997 0.40503693q0.8509598 0.6362152 1.008873 1.4175873q0.14539337 0.77201843 -0.29367828 1.3606796q-0.43907166 0.5886612 -1.1793556 0.56194305l0.41296768 0.30875397zm-1.6894073 -1.2630844q0.6006775 0.44909668 0.9849205 0.48275757q0.63417435 0.064445496 0.9704857 -0.3864441q0.28025818 -0.37574768 0.16358566 -0.8726654q-0.11984253 -0.51880646 -0.75806427 -0.9959717q-0.65073395 -0.48651886 -1.159771 -0.4574051q-0.499691 0.016593933 -0.7799492 0.39233398q-0.270916 0.3632202 -0.15107346 0.88201904q0.12918854 0.506279 0.729866 0.9553757z" fill-rule="nonzero"/><path fill="#000000" fill-opacity="0.0" d="m28.594524 93.270935l29.950985 -71.47998l25.609093 10.819645l-29.950985 71.47998z" fill-rule="evenodd"/><path fill="#999999" d="m54.35553 62.475758l-0.7484436 -0.31621552l0.27172852 -0.6484947l0.7484436 0.3162117l-0.27172852 0.64849854zm4.5338554 1.9155159l-3.8285866 -1.6175461l0.27172852 -0.64849854l3.8285866 1.6175499l-0.27172852 0.6484947z" fill-rule="nonzero"/><path fill="#000000" fill-opacity="0.0" d="m32.022667 92.16979l24.821869 -73.42275l26.340332 8.940163l-24.821869 73.42275z" fill-rule="evenodd"/><path fill="#999999" d="m60.04375 59.752182l0.612072 0.092243195q-0.02109909 0.3063469 -0.09616089 0.52837753q-0.12509918 0.37004852 -0.31352615 0.53710175q-0.18342209 0.1522522 -0.39099884 0.18080139q-0.21736526 0.008724213 -0.8240013 -0.19717407l-2.2637863 -0.7683487l-0.16513824 0.48846436l-0.5178566 -0.17576599l0.16513443 -0.48846817l-0.9617424 -0.32642365l-0.17430496 -0.8016815l1.361229 0.46201706l0.2251854 -0.6660919l0.5178604 0.17576599l-0.2251854 0.6660919l2.3081741 0.78341675q0.28112411 0.09541702 0.37990952 0.09594345q0.08899307 -0.019298553 0.15840149 -0.07823944q0.06940842 -0.058944702 0.119449615 -0.2069664q0.040031433 -0.11841583 0.08528519 -0.30106354z" fill-rule="nonzero"/><path fill="#000000" fill-opacity="0.0" d="m40.994766 93.22179l7.9080048 -77.085625l27.695572 2.8847084l-7.9080048 77.08563z" fill-rule="evenodd"/><path fill="#999999" d="m60.44194 55.136097l0.16659546 -0.7052841q0.61964035 0.23734283 0.929245 0.74087524q0.2956581 0.4863739 0.22071457 1.2169151q-0.09248352 0.90151596 -0.70617294 1.3717194q-0.6136894 0.4702034 -1.6238518 0.36498642q-1.0412445 -0.10845184 -1.5620422 -0.6968231q-0.519207 -0.60391235 -0.4315071 -1.4587975q0.08451462 -0.82380295 0.7137413 -1.2923889q0.6136894 -0.47019958 1.6393929 -0.36336517q0.062164307 0.0064735413 0.18489838 0.034965515l-0.31572342 3.0775986q0.6730423 0.022975922 1.0811081 -0.2801323q0.3925209 -0.30472565 0.44673538 -0.83320236q0.038269043 -0.37303925 -0.1366539 -0.6583214q-0.17333221 -0.30082703 -0.60647964 -0.5187454zm-1.3549423 2.1838799l0.23599625 -2.3004265q-0.5331764 -0.008407593 -0.81969833 0.18168259q-0.4375496 0.28432465 -0.4933586 0.82834625q-0.049430847 0.48184586 0.24344254 0.8422508q0.29287338 0.36040497 0.83361816 0.44814682z" fill-rule="nonzero"/></g></svg>