<svg version="1.1" viewBox="0.0 0.0 1191.4435695538057 1291.2204724409448" fill="none" stroke="none" stroke-linecap="square" stroke-miterlimit="10" xmlns:xlink="http://www.w3.org/1999/xlink" xmlns="http://www.w3.org/2000/svg"><clipPath id="p.0"><path d="m0 0l1191.4436 0l0 1291.2205l-1191.4436 0l0 -1291.2205z" clip-rule="nonzero"/></clipPath><g clip-path="url(#p.0)"><path fill="#000000" fill-opacity="0.0" d="m0 0l1191.4436 0l0 1291.2205l-1191.4436 0z" fill-rule="evenodd"/><path fill="#dd7e6b" d="m453.2397 273.01083l0 0c0 -138.40169 112.19672 -250.59842 250.59845 -250.59842l0 0c66.46283 0 130.20349 26.402258 177.19983 73.39858c46.996338 46.996323 73.39856 110.737015 73.39856 177.19984l0 0c0 138.4017 -112.19672 250.59842 -250.59839 250.59842l0 0c-138.40173 0 -250.59845 -112.19672 -250.59845 -250.59842z" fill-rule="evenodd"/><path stroke="#999999" stroke-width="1.0" stroke-linejoin="round" stroke-linecap="butt" d="m453.2397 273.01083l0 0c0 -138.40169 112.19672 -250.59842 250.59845 -250.59842l0 0c66.46283 0 130.20349 26.402258 177.19983 73.39858c46.996338 46.996323 73.39856 110.737015 73.39856 177.19984l0 0c0 138.4017 -112.19672 250.59842 -250.59839 250.59842l0 0c-138.40173 0 -250.59845 -112.19672 -250.59845 -250.59842z" fill-rule="evenodd"/><path fill="#f4cccc" d="m463.0596 273.01773l0 0c0 -132.9745 107.81125 -240.77165 240.80313 -240.77165l0 0c63.86499 0 125.1142 25.366943 170.27356 70.520386c45.159363 45.153435 70.5296 106.394646 70.5296 170.25125l0 0c0 132.97452 -107.81122 240.77164 -240.80316 240.77164l0 0c-132.99188 0 -240.80313 -107.79712 -240.80313 -240.77164z" fill-rule="evenodd"/><path stroke="#999999" stroke-width="1.0" stroke-linejoin="round" stroke-linecap="butt" d="m463.0596 273.01773l0 0c0 -132.9745 107.81125 -240.77165 240.80313 -240.77165l0 0c63.86499 0 125.1142 25.366943 170.27356 70.520386c45.159363 45.153435 70.5296 106.394646 70.5296 170.25125l0 0c0 132.97452 -107.81122 240.77164 -240.80316 240.77164l0 0c-132.99188 0 -240.80313 -107.79712 -240.80313 -240.77164z" fill-rule="evenodd"/><path fill="#fce5cd" d="m483.77252 273.26547l0 0c0 -121.54614 98.53259 -220.07875 220.07874 -220.07875l0 0c58.36853 0 114.346436 23.186806 155.6192 64.45957c41.272766 41.272774 64.45953 97.25066 64.45953 155.61917l0 0c0 121.54611 -98.53259 220.07874 -220.07874 220.07874l0 0c-121.54614 0 -220.07874 -98.53262 -220.07874 -220.07874z" fill-rule="evenodd"/><path stroke="#999999" stroke-width="1.0" stroke-linejoin="round" stroke-linecap="butt" d="m483.77252 273.26547l0 0c0 -121.54614 98.53259 -220.07875 220.07874 -220.07875l0 0c58.36853 0 114.346436 23.186806 155.6192 64.45957c41.272766 41.272774 64.45953 97.25066 64.45953 155.61917l0 0c0 121.54611 -98.53259 220.07874 -220.07874 220.07874l0 0c-121.54614 0 -220.07874 -98.53262 -220.07874 -220.07874z" fill-rule="evenodd"/><path fill="#dd7e6b" d="m186.5205 257.01083l0 0c0 -138.40169 112.19673 -250.59842 250.59843 -250.59842l0 0c66.46283 0 130.20352 26.402258 177.19986 73.39858c46.996277 46.996323 73.39856 110.737015 73.39856 177.19984l0 0c0 138.4017 -112.19672 250.59842 -250.59842 250.59842l0 0c-138.4017 0 -250.59843 -112.19672 -250.59843 -250.59842z" fill-rule="evenodd"/><path stroke="#999999" stroke-width="1.0" stroke-linejoin="round" stroke-linecap="butt" d="m186.5205 257.01083l0 0c0 -138.40169 112.19673 -250.59842 250.59843 -250.59842l0 0c66.46283 0 130.20352 26.402258 177.19986 73.39858c46.996277 46.996323 73.39856 110.737015 73.39856 177.19984l0 0c0 138.4017 -112.19672 250.59842 -250.59842 250.59842l0 0c-138.4017 0 -250.59843 -112.19672 -250.59843 -250.59842z" fill-rule="evenodd"/><path fill="#f4cccc" d="m196.34041 257.00986l0 0c0 -132.97452 107.81123 -240.77165 240.80315 -240.77165l0 0c63.86496 0 125.1142 25.36694 170.27356 70.520386c45.1593 45.153442 70.5296 106.39465 70.5296 170.25127l0 0c0 132.97452 -107.81128 240.77167 -240.80316 240.77167l0 0c-132.99191 0 -240.80315 -107.79715 -240.80315 -240.77167z" fill-rule="evenodd"/><path stroke="#999999" stroke-width="1.0" stroke-linejoin="round" stroke-linecap="butt" d="m196.34041 257.00986l0 0c0 -132.97452 107.81123 -240.77165 240.80315 -240.77165l0 0c63.86496 0 125.1142 25.36694 170.27356 70.520386c45.1593 45.153442 70.5296 106.39465 70.5296 170.25127l0 0c0 132.97452 -107.81128 240.77167 -240.80316 240.77167l0 0c-132.99191 0 -240.80315 -107.79715 -240.80315 -240.77167z" fill-rule="evenodd"/><path fill="#dd7e6b" d="m186.5205 1034.6329l0 0c0 -138.40173 112.19673 -250.59845 250.59843 -250.59845l0 0c66.46283 0 130.20352 26.402222 177.19986 73.39856c46.996277 46.996338 73.39856 110.737 73.39856 177.19989l0 0c0 138.40161 -112.19672 250.59839 -250.59842 250.59839l0 0c-138.4017 0 -250.59843 -112.19678 -250.59843 -250.59839z" fill-rule="evenodd"/><path stroke="#999999" stroke-width="1.0" stroke-linejoin="round" stroke-linecap="butt" d="m186.5205 1034.6329l0 0c0 -138.40173 112.19673 -250.59845 250.59843 -250.59845l0 0c66.46283 0 130.20352 26.402222 177.19986 73.39856c46.996277 46.996338 73.39856 110.737 73.39856 177.19989l0 0c0 138.40161 -112.19672 250.59839 -250.59842 250.59839l0 0c-138.4017 0 -250.59843 -112.19678 -250.59843 -250.59839z" fill-rule="evenodd"/><path fill="#dd7e6b" d="m2.5204923 610.0491l0 0c0 -138.40475 112.19923 -250.60397 250.60397 -250.60397l0 0c66.46431 0 130.2064 26.402832 177.20378 73.40021c46.997375 46.997345 73.40021 110.73947 73.40021 177.20377l0 0c0 138.40472 -112.19922 250.604 -250.60399 250.604l0 0c-138.40475 0 -250.60397 -112.19928 -250.60397 -250.604z" fill-rule="evenodd"/><path stroke="#999999" stroke-width="1.0" stroke-linejoin="round" stroke-linecap="butt" d="m2.5204923 610.0491l0 0c0 -138.40475 112.19923 -250.60397 250.60397 -250.60397l0 0c66.46431 0 130.2064 26.402832 177.20378 73.40021c46.997375 46.997345 73.40021 110.73947 73.40021 177.20377l0 0c0 138.40472 -112.19922 250.604 -250.60399 250.604l0 0c-138.40475 0 -250.60397 -112.19928 -250.60397 -250.604z" fill-rule="evenodd"/><path fill="#f4cccc" d="m12.340404 610.0543l0 0c0 -132.97665 107.80792 -240.77554 240.79572 -240.77554l0 0c63.86299 0 125.11034 25.36734 170.2683 70.521515c45.15796 45.154175 70.527435 106.39642 70.527435 170.25403l0 0c0 132.97668 -107.80792 240.77563 -240.79573 240.77563l0 0c-132.9878 0 -240.79572 -107.79895 -240.79572 -240.77563z" fill-rule="evenodd"/><path stroke="#999999" stroke-width="1.0" stroke-linejoin="round" stroke-linecap="butt" d="m12.340404 610.0543l0 0c0 -132.97665 107.80792 -240.77554 240.79572 -240.77554l0 0c63.86299 0 125.11034 25.36734 170.2683 70.521515c45.15796 45.154175 70.527435 106.39642 70.527435 170.25403l0 0c0 132.97668 -107.80792 240.77563 -240.79573 240.77563l0 0c-132.9878 0 -240.79572 -107.79895 -240.79572 -240.77563z" fill-rule="evenodd"/><path fill="#f4cccc" d="m196.31416 1034.645l0 0c0 -132.97449 107.81123 -240.7716 240.80315 -240.7716l0 0c63.86496 0 125.1142 25.366943 170.27356 70.520386c45.1593 45.153442 70.5296 106.39465 70.5296 170.25122l0 0c0 132.97449 -107.81128 240.77173 -240.80316 240.77173l0 0c-132.99191 0 -240.80315 -107.79724 -240.80315 -240.77173z" fill-rule="evenodd"/><path stroke="#999999" stroke-width="1.0" stroke-linejoin="round" stroke-linecap="butt" d="m196.31416 1034.645l0 0c0 -132.97449 107.81123 -240.7716 240.80315 -240.7716l0 0c63.86496 0 125.1142 25.366943 170.27356 70.520386c45.1593 45.153442 70.5296 106.39465 70.5296 170.25122l0 0c0 132.97449 -107.81128 240.77173 -240.80316 240.77173l0 0c-132.99191 0 -240.80315 -107.79724 -240.80315 -240.77173z" fill-rule="evenodd"/><path fill="#fce5cd" d="m217.05334 1034.646l0 0c0 -121.54608 98.53259 -220.07867 220.07874 -220.07867l0 0c58.3685 0 114.346375 23.186768 155.61914 64.45953c41.272827 41.272766 64.459595 97.25067 64.459595 155.61914l0 0c0 121.54614 -98.53259 220.07874 -220.07874 220.07874l0 0c-121.54614 0 -220.07874 -98.53259 -220.07874 -220.07874z" fill-rule="evenodd"/><path stroke="#999999" stroke-width="1.0" stroke-linejoin="round" stroke-linecap="butt" d="m217.05334 1034.646l0 0c0 -121.54608 98.53259 -220.07867 220.07874 -220.07867l0 0c58.3685 0 114.346375 23.186768 155.61914 64.45953c41.272827 41.272766 64.459595 97.25067 64.459595 155.61914l0 0c0 121.54614 -98.53259 220.07874 -220.07874 220.07874l0 0c-121.54614 0 -220.07874 -98.53259 -220.07874 -220.07874z" fill-rule="evenodd"/><path fill="#fff2cc" d="m264.58987 1034.6719l0 0c0 -95.30603 77.26083 -172.5669 172.56693 -172.5669l0 0c45.76761 0 89.660645 18.181091 122.023254 50.5437c32.36255 32.36255 50.5437 76.255615 50.5437 122.02319l0 0c0 95.30615 -77.260864 172.5669 -172.56696 172.5669l0 0c-95.30609 0 -172.56693 -77.26074 -172.56693 -172.5669z" fill-rule="evenodd"/><path stroke="#999999" stroke-width="1.0" stroke-linejoin="round" stroke-linecap="butt" d="m264.58987 1034.6719l0 0c0 -95.30603 77.26083 -172.5669 172.56693 -172.5669l0 0c45.76761 0 89.660645 18.181091 122.023254 50.5437c32.36255 32.36255 50.5437 76.255615 50.5437 122.02319l0 0c0 95.30615 -77.260864 172.5669 -172.56696 172.5669l0 0c-95.30609 0 -172.56693 -77.26074 -172.56693 -172.5669z" fill-rule="evenodd"/><path fill="#ffffff" d="m351.8716 1034.653l0 0c0 -45.974426 38.17212 -83.24408 85.25983 -83.24408l0 0c22.612305 0 44.298492 8.770325 60.28781 24.381653c15.989319 15.611267 24.972046 36.78473 24.972046 58.862427l0 0c0 45.974487 -38.17215 83.24414 -85.25986 83.24414l0 0c-47.087708 0 -85.25983 -37.269653 -85.25983 -83.24414z" fill-rule="evenodd"/><path stroke="#999999" stroke-width="1.0" stroke-linejoin="round" stroke-linecap="butt" d="m351.8716 1034.653l0 0c0 -45.974426 38.17212 -83.24408 85.25983 -83.24408l0 0c22.612305 0 44.298492 8.770325 60.28781 24.381653c15.989319 15.611267 24.972046 36.78473 24.972046 58.862427l0 0c0 45.974487 -38.17215 83.24414 -85.25986 83.24414l0 0c-47.087708 0 -85.25983 -37.269653 -85.25983 -83.24414z" fill-rule="evenodd"/><path fill="#fce5cd" d="m33.053337 610.04944l0 0c0 -121.542145 98.529366 -220.0715 220.0715 -220.0715l0 0c58.366592 0 114.342636 23.186035 155.61406 64.45746c41.271423 41.271393 64.45746 97.24747 64.45746 155.61404l0 0c0 121.542114 -98.52939 220.07147 -220.07152 220.07147l0 0c-121.54213 0 -220.0715 -98.52936 -220.0715 -220.07147z" fill-rule="evenodd"/><path stroke="#999999" stroke-width="1.0" stroke-linejoin="round" stroke-linecap="butt" d="m33.053337 610.04944l0 0c0 -121.542145 98.529366 -220.0715 220.0715 -220.0715l0 0c58.366592 0 114.342636 23.186035 155.61406 64.45746c41.271423 41.271393 64.45746 97.24747 64.45746 155.61404l0 0c0 121.542114 -98.52939 220.07147 -220.07152 220.07147l0 0c-121.54213 0 -220.0715 -98.52936 -220.0715 -220.07147z" fill-rule="evenodd"/><path fill="#fff2cc" d="m80.589874 610.0765l0 0c0 -95.302734 77.25813 -172.56088 172.56087 -172.56088l0 0c45.765976 0 89.65752 18.18045 122.01897 50.5419c32.36145 32.36145 50.5419 76.25299 50.5419 122.01898l0 0c0 95.302734 -77.25812 172.56085 -172.56087 172.56085l0 0c-95.302734 0 -172.56087 -77.25812 -172.56087 -172.56085z" fill-rule="evenodd"/><path stroke="#999999" stroke-width="1.0" stroke-linejoin="round" stroke-linecap="butt" d="m80.589874 610.0765l0 0c0 -95.302734 77.25813 -172.56088 172.56087 -172.56088l0 0c45.765976 0 89.65752 18.18045 122.01897 50.5419c32.36145 32.36145 50.5419 76.25299 50.5419 122.01898l0 0c0 95.302734 -77.25812 172.56085 -172.56087 172.56085l0 0c-95.302734 0 -172.56087 -77.25812 -172.56087 -172.56085z" fill-rule="evenodd"/><path fill="#ffffff" d="m167.8716 610.0588l0 0c0 -45.9718 38.169205 -83.23926 85.253296 -83.23926l0 0c22.61058 0 44.29509 8.769775 60.283157 24.380188c15.988098 15.610413 24.970123 36.782654 24.970123 58.85907l0 0c0 45.97174 -38.16919 83.23926 -85.25328 83.23926l0 0c-47.08409 0 -85.253296 -37.267517 -85.253296 -83.23926z" fill-rule="evenodd"/><path stroke="#999999" stroke-width="1.0" stroke-linejoin="round" stroke-linecap="butt" d="m167.8716 610.0588l0 0c0 -45.9718 38.169205 -83.23926 85.253296 -83.23926l0 0c22.61058 0 44.29509 8.769775 60.283157 24.380188c15.988098 15.610413 24.970123 36.782654 24.970123 58.85907l0 0c0 45.97174 -38.16919 83.23926 -85.25328 83.23926l0 0c-47.08409 0 -85.253296 -37.267517 -85.253296 -83.23926z" fill-rule="evenodd"/><path fill="#fce5cd" d="m217.05334 257.26547l0 0c0 -121.54614 98.53259 -220.07875 220.07874 -220.07875l0 0c58.3685 0 114.346375 23.186802 155.61914 64.45957c41.272827 41.272774 64.459595 97.25066 64.459595 155.61917l0 0c0 121.54611 -98.53259 220.07874 -220.07874 220.07874l0 0c-121.54614 0 -220.07874 -98.53262 -220.07874 -220.07874z" fill-rule="evenodd"/><path stroke="#999999" stroke-width="1.0" stroke-linejoin="round" stroke-linecap="butt" d="m217.05334 257.26547l0 0c0 -121.54614 98.53259 -220.07875 220.07874 -220.07875l0 0c58.3685 0 114.346375 23.186802 155.61914 64.45957c41.272827 41.272774 64.459595 97.25066 64.459595 155.61917l0 0c0 121.54611 -98.53259 220.07874 -220.07874 220.07874l0 0c-121.54614 0 -220.07874 -98.53262 -220.07874 -220.07874z" fill-rule="evenodd"/><path fill="#fff2cc" d="m264.58987 257.29132l0 0c0 -95.30609 77.26083 -172.56694 172.56693 -172.56694l0 0c45.76761 0 89.660645 18.181107 122.023254 50.543686c32.36255 32.36258 50.5437 76.255646 50.5437 122.023254l0 0c0 95.30606 -77.260864 172.56693 -172.56696 172.56693l0 0c-95.30609 0 -172.56693 -77.260864 -172.56693 -172.56693z" fill-rule="evenodd"/><path stroke="#999999" stroke-width="1.0" stroke-linejoin="round" stroke-linecap="butt" d="m264.58987 257.29132l0 0c0 -95.30609 77.26083 -172.56694 172.56693 -172.56694l0 0c45.76761 0 89.660645 18.181107 122.023254 50.543686c32.36255 32.36258 50.5437 76.255646 50.5437 122.023254l0 0c0 95.30606 -77.260864 172.56693 -172.56696 172.56693l0 0c-95.30609 0 -172.56693 -77.260864 -172.56693 -172.56693z" fill-rule="evenodd"/><path fill="#ffffff" d="m351.8716 257.29614l0 0c0 -45.974457 38.17212 -83.24411 85.25983 -83.24411l0 0c22.612305 0 44.298492 8.77034 60.28781 24.381638c15.989319 15.611298 24.972046 36.78476 24.972046 58.862473l0 0c0 45.974426 -38.17215 83.24408 -85.25986 83.24408l0 0c-47.087708 0 -85.25983 -37.269653 -85.25983 -83.24408z" fill-rule="evenodd"/><path stroke="#999999" stroke-width="1.0" stroke-linejoin="round" stroke-linecap="butt" d="m351.8716 257.29614l0 0c0 -45.974457 38.17212 -83.24411 85.25983 -83.24411l0 0c22.612305 0 44.298492 8.77034 60.28781 24.381638c15.989319 15.611298 24.972046 36.78476 24.972046 58.862473l0 0c0 45.974426 -38.17215 83.24408 -85.25986 83.24408l0 0c-47.087708 0 -85.25983 -37.269653 -85.25983 -83.24408z" fill-rule="evenodd"/><path fill="#fce5cd" d="m265.02887 388.37534l-8.031494 6.5433044l44.02362 45.212585l75.25461 34.80316l53.54068 6.246704l-4.4619446 -9.816254l-64.54593 -17.551178l-77.03937 -51.160126z" fill-rule="evenodd"/><path fill="#f4cccc" d="m405.75793 793.3937l0.57891846 11.48822l-77.3031 24.700806l-44.755554 25.275574l0 -12.062988l37.104645 -21.532837l57.383118 -23.753235z" fill-rule="evenodd"/><path fill="#dd7e6b" d="m678.99097 1031.7662l0 0c0 -138.40479 112.19928 -250.60406 250.604 -250.60406l0 0c66.464294 0 130.20642 26.402893 177.20374 73.40021c46.997437 46.997375 73.40027 110.7395 73.40027 177.20386l0 0c0 138.40466 -112.19922 250.60388 -250.604 250.60388l0 0c-138.40472 0 -250.604 -112.19922 -250.604 -250.60388z" fill-rule="evenodd"/><path stroke="#999999" stroke-width="1.0" stroke-linejoin="round" stroke-linecap="butt" d="m678.99097 1031.7662l0 0c0 -138.40479 112.19928 -250.60406 250.604 -250.60406l0 0c66.464294 0 130.20642 26.402893 177.20374 73.40021c46.997437 46.997375 73.40027 110.7395 73.40027 177.20386l0 0c0 138.40466 -112.19922 250.60388 -250.604 250.60388l0 0c-138.40472 0 -250.604 -112.19922 -250.604 -250.60388z" fill-rule="evenodd"/><path fill="#f4cccc" d="m688.8109 1031.7715l0 0c0 -132.97668 107.80792 -240.77563 240.79572 -240.77563l0 0c63.862976 0 125.11029 25.36737 170.26825 70.521545c45.15796 45.154175 70.527466 106.39642 70.527466 170.25409l0 0c0 132.97668 -107.80786 240.77551 -240.79572 240.77551l0 0c-132.9878 0 -240.79572 -107.79883 -240.79572 -240.77551z" fill-rule="evenodd"/><path stroke="#999999" stroke-width="1.0" stroke-linejoin="round" stroke-linecap="butt" d="m688.8109 1031.7715l0 0c0 -132.97668 107.80792 -240.77563 240.79572 -240.77563l0 0c63.862976 0 125.11029 25.36737 170.26825 70.521545c45.15796 45.154175 70.527466 106.39642 70.527466 170.25409l0 0c0 132.97668 -107.80786 240.77551 -240.79572 240.77551l0 0c-132.9878 0 -240.79572 -107.79883 -240.79572 -240.77551z" fill-rule="evenodd"/><path fill="#fce5cd" d="m709.52386 1031.7666l0 0c0 -121.542175 98.52936 -220.07153 220.07147 -220.07153l0 0c58.366577 0 114.34265 23.186035 155.61401 64.4574c41.271484 41.271423 64.45752 97.2475 64.45752 155.61414l0 0c0 121.542114 -98.52942 220.07141 -220.07153 220.07141l0 0c-121.542114 0 -220.07147 -98.5293 -220.07147 -220.07141z" fill-rule="evenodd"/><path stroke="#999999" stroke-width="1.0" stroke-linejoin="round" stroke-linecap="butt" d="m709.52386 1031.7666l0 0c0 -121.542175 98.52936 -220.07153 220.07147 -220.07153l0 0c58.366577 0 114.34265 23.186035 155.61401 64.4574c41.271484 41.271423 64.45752 97.2475 64.45752 155.61414l0 0c0 121.542114 -98.52942 220.07141 -220.07153 220.07141l0 0c-121.542114 0 -220.07147 -98.5293 -220.07147 -220.07141z" fill-rule="evenodd"/><path fill="#fff2cc" d="m757.06036 1031.7936l0 0c0 -95.302734 77.25812 -172.56085 172.56091 -172.56085l0 0c45.76593 0 89.65747 18.18042 122.01898 50.54187c32.36145 32.36145 50.54187 76.25299 50.54187 122.01898l0 0c0 95.302734 -77.25818 172.56091 -172.56085 172.56091l0 0c-95.302795 0 -172.56091 -77.25818 -172.56091 -172.56091z" fill-rule="evenodd"/><path stroke="#999999" stroke-width="1.0" stroke-linejoin="round" stroke-linecap="butt" d="m757.06036 1031.7936l0 0c0 -95.302734 77.25812 -172.56085 172.56091 -172.56085l0 0c45.76593 0 89.65747 18.18042 122.01898 50.54187c32.36145 32.36145 50.54187 76.25299 50.54187 122.01898l0 0c0 95.302734 -77.25818 172.56091 -172.56085 172.56091l0 0c-95.302795 0 -172.56091 -77.25818 -172.56091 -172.56091z" fill-rule="evenodd"/><path fill="#ffffff" d="m844.3421 1031.7759l0 0c0 -45.9718 38.16919 -83.23926 85.253296 -83.23926l0 0c22.610596 0 44.295105 8.769775 60.283142 24.380188c15.988098 15.610413 24.970154 36.782654 24.970154 58.85907l0 0c0 45.9718 -38.16919 83.23926 -85.253296 83.23926l0 0c-47.084106 0 -85.253296 -37.267456 -85.253296 -83.23926z" fill-rule="evenodd"/><path stroke="#999999" stroke-width="1.0" stroke-linejoin="round" stroke-linecap="butt" d="m844.3421 1031.7759l0 0c0 -45.9718 38.16919 -83.23926 85.253296 -83.23926l0 0c22.610596 0 44.295105 8.769775 60.283142 24.380188c15.988098 15.610413 24.970154 36.782654 24.970154 58.85907l0 0c0 45.9718 -38.16919 83.23926 -85.253296 83.23926l0 0c-47.084106 0 -85.253296 -37.267456 -85.253296 -83.23926z" fill-rule="evenodd"/><path fill="#dd7e6b" d="m678.8189 985.7218l8.107605 0.7838745l0 94.57306l-6.538086 -1.5678711l-2.091858 -48.592163z" fill-rule="evenodd"/><path fill="#e6b8af" d="m477.937 494.87402l-3.0 0.6876526l1.1889648 3.9396362l2.7480469 4.0l2.2519531 -0.6272888z" fill-rule="evenodd"/><path fill="#fff2cc" d="m531.29596 273.26508l0 0c0 -95.30609 77.2608 -172.56694 172.5669 -172.56694l0 0c45.76764 0 89.660706 18.181107 122.023254 50.543686c32.36261 32.36258 50.5437 76.255646 50.5437 122.023254l0 0c0 95.30606 -77.260864 172.56693 -172.56696 172.56693l0 0c-95.30609 0 -172.5669 -77.260864 -172.5669 -172.56693z" fill-rule="evenodd"/><path stroke="#999999" stroke-width="1.0" stroke-linejoin="round" stroke-linecap="butt" d="m531.29596 273.26508l0 0c0 -95.30609 77.2608 -172.56694 172.5669 -172.56694l0 0c45.76764 0 89.660706 18.181107 122.023254 50.543686c32.36261 32.36258 50.5437 76.255646 50.5437 122.023254l0 0c0 95.30606 -77.260864 172.56693 -172.56696 172.56693l0 0c-95.30609 0 -172.5669 -77.260864 -172.5669 -172.56693z" fill-rule="evenodd"/><path fill="#ffffff" d="m618.57764 273.2699l0 0c0 -45.974457 38.17218 -83.24411 85.25989 -83.24411l0 0c22.612305 0 44.298462 8.77034 60.28778 24.381638c15.989319 15.611298 24.972046 36.78476 24.972046 58.862473l0 0c0 45.974426 -38.17212 83.24408 -85.25983 83.24408l0 0c-47.087708 0 -85.25989 -37.269653 -85.25989 -83.24408z" fill-rule="evenodd"/><path stroke="#999999" stroke-width="1.0" stroke-linejoin="round" stroke-linecap="butt" d="m618.57764 273.2699l0 0c0 -45.974457 38.17218 -83.24411 85.25989 -83.24411l0 0c22.612305 0 44.298462 8.77034 60.28778 24.381638c15.989319 15.611298 24.972046 36.78476 24.972046 58.862473l0 0c0 45.974426 -38.17212 83.24408 -85.25983 83.24408l0 0c-47.087708 0 -85.25989 -37.269653 -85.25989 -83.24408z" fill-rule="evenodd"/><path fill="#fff2cc" d="m573.76117 156.09186l7.839905 1.4252014l-41.695557 79.11549l8.196838 98.71391l19.958008 39.55905l-8.553772 -1.7821655l-31.005249 -50.24933l0.3569336 -82.322845l16.748047 -61.65091z" fill-rule="evenodd"/><path fill="#000000" fill-opacity="0.0" d="m577.01575 171.89764c3.2073364 -2.97464 13.154846 -13.013565 19.24408 -17.847778c6.0892334 -4.834198 14.409485 -9.297897 17.291382 -11.157471" fill-rule="evenodd"/><path stroke="#000000" stroke-width="4.0" stroke-linejoin="round" stroke-linecap="butt" d="m577.01575 171.89764c3.2073364 -2.97464 13.154846 -13.013565 19.24408 -17.847778c6.0892334 -4.834198 14.409485 -9.297897 17.291382 -11.157471" fill-rule="evenodd"/><path fill="#000000" fill-opacity="0.0" d="m577.17584 171.89764c-2.954956 -3.2537231 -12.450562 -14.130371 -17.729675 -19.522308c-5.2790527 -5.3919525 -11.620728 -10.691177 -13.944824 -12.829407" fill-rule="evenodd"/><path stroke="#000000" stroke-width="4.0" stroke-linejoin="round" stroke-linecap="butt" d="m577.17584 171.89764c-2.954956 -3.2537231 -12.450562 -14.130371 -17.729675 -19.522308c-5.2790527 -5.3919525 -11.620728 -10.691177 -13.944824 -12.829407" fill-rule="evenodd"/><path fill="#000000" fill-opacity="0.0" d="m278.5292 396.25757c-2.110443 -2.7443542 -9.447144 -11.329346 -12.662628 -16.466187c-3.2154846 -5.1368103 -5.525177 -11.96225 -6.6302185 -14.354706" fill-rule="evenodd"/><path stroke="#000000" stroke-width="4.0" stroke-linejoin="round" stroke-linecap="butt" d="m278.5292 396.25757c-2.110443 -2.7443542 -9.447144 -11.329346 -12.662628 -16.466187c-3.2154846 -5.1368103 -5.525177 -11.96225 -6.6302185 -14.354706" fill-rule="evenodd"/><path fill="#000000" fill-opacity="0.0" d="m277.5276 397.26056c-4.0077515 0.2501526 -17.199524 0.6663208 -24.046417 1.5008545c-6.8468933 0.8345337 -14.195816 2.9219055 -17.034973 3.5063171" fill-rule="evenodd"/><path stroke="#000000" stroke-width="4.0" stroke-linejoin="round" stroke-linecap="butt" d="m277.5276 397.26056c-4.0077515 0.2501526 -17.199524 0.6663208 -24.046417 1.5008545c-6.8468933 0.8345337 -14.195816 2.9219055 -17.034973 3.5063171" fill-rule="evenodd"/><path fill="#000000" fill-opacity="0.0" d="m391.93964 803.70935c3.9864502 -0.19335938 17.176727 -0.96673584 23.91864 -1.1600952c6.741913 -0.19335938 13.777344 0 16.532806 0" fill-rule="evenodd"/><path stroke="#000000" stroke-width="4.0" stroke-linejoin="round" stroke-linecap="butt" d="m391.93964 803.70935c3.9864502 -0.19335938 17.176727 -0.96673584 23.91864 -1.1600952c6.741913 -0.19335938 13.777344 0 16.532806 0" fill-rule="evenodd"/><path fill="#000000" fill-opacity="0.0" d="m391.99738 803.8189c2.89151 -2.883667 11.785645 -11.579651 17.34909 -17.301819c5.5634155 -5.722229 13.359558 -14.192932 16.031494 -17.031555" fill-rule="evenodd"/><path stroke="#000000" stroke-width="4.0" stroke-linejoin="round" stroke-linecap="butt" d="m391.99738 803.8189c2.89151 -2.883667 11.785645 -11.579651 17.34909 -17.301819c5.5634155 -5.722229 13.359558 -14.192932 16.031494 -17.031555" fill-rule="evenodd"/><path fill="#000000" fill-opacity="0.0" d="m683.916 1011.0525c0.65704346 -3.6950684 2.3670044 -15.13562 3.9422607 -22.170593c1.5752563 -7.034973 4.5910034 -16.699463 5.5091553 -20.039368" fill-rule="evenodd"/><path stroke="#000000" stroke-width="4.0" stroke-linejoin="round" stroke-linecap="butt" d="m683.916 1011.0525c0.65704346 -3.6950684 2.3670044 -15.13562 3.9422607 -22.170593c1.5752563 -7.034973 4.5910034 -16.699463 5.5091553 -20.039368" fill-rule="evenodd"/><path fill="#000000" fill-opacity="0.0" d="m684.0399 1011.0531c-1.173645 -3.9154053 -4.630188 -15.876038 -7.041931 -23.492432c-2.4117432 -7.616394 -6.1903687 -18.504883 -7.428467 -22.205872" fill-rule="evenodd"/><path stroke="#000000" stroke-width="4.0" stroke-linejoin="round" stroke-linecap="butt" d="m684.0399 1011.0531c-1.173645 -3.9154053 -4.630188 -15.876038 -7.041931 -23.492432c-2.4117432 -7.616394 -6.1903687 -18.504883 -7.428467 -22.205872" fill-rule="evenodd"/></g></svg>