<svg version="1.1" viewBox="0.0 0.0 1176.708661417323 1372.8267716535433" fill="none" stroke="none" stroke-linecap="square" stroke-miterlimit="10" xmlns:xlink="http://www.w3.org/1999/xlink" xmlns="http://www.w3.org/2000/svg"><clipPath id="p.0"><path d="m0 0l1176.7086 0l0 1372.8268l-1176.7086 0l0 -1372.8268z" clip-rule="nonzero"/></clipPath><g clip-path="url(#p.0)"><path fill="#000000" fill-opacity="0.0" d="m0 0l1176.7086 0l0 1372.8268l-1176.7086 0z" fill-rule="evenodd"/><path fill="#dd7e6b" d="m454.35834 340.4515l0 0c0 -138.40169 112.19672 -250.59842 250.59845 -250.59842l0 0c66.46283 0 130.20349 26.40226 177.19983 73.39858c46.996338 46.996323 73.39856 110.737015 73.39856 177.19984l0 0c0 138.40167 -112.19672 250.59842 -250.59839 250.59842l0 0c-138.40173 0 -250.59845 -112.19675 -250.59845 -250.59842z" fill-rule="evenodd"/><path stroke="#999999" stroke-width="1.0" stroke-linejoin="round" stroke-linecap="butt" d="m454.35834 340.4515l0 0c0 -138.40169 112.19672 -250.59842 250.59845 -250.59842l0 0c66.46283 0 130.20349 26.40226 177.19983 73.39858c46.996338 46.996323 73.39856 110.737015 73.39856 177.19984l0 0c0 138.40167 -112.19672 250.59842 -250.59839 250.59842l0 0c-138.40173 0 -250.59845 -112.19675 -250.59845 -250.59842z" fill-rule="evenodd"/><path fill="#f4cccc" d="m464.17825 340.4584l0 0c0 -132.9745 107.81125 -240.77165 240.80313 -240.77165l0 0c63.86499 0 125.1142 25.366943 170.27356 70.520386c45.159363 45.153442 70.5296 106.39467 70.5296 170.25127l0 0c0 132.97452 -107.81122 240.77164 -240.80316 240.77164l0 0c-132.99188 0 -240.80313 -107.79712 -240.80313 -240.77164z" fill-rule="evenodd"/><path stroke="#999999" stroke-width="1.0" stroke-linejoin="round" stroke-linecap="butt" d="m464.17825 340.4584l0 0c0 -132.9745 107.81125 -240.77165 240.80313 -240.77165l0 0c63.86499 0 125.1142 25.366943 170.27356 70.520386c45.159363 45.153442 70.5296 106.39467 70.5296 170.25127l0 0c0 132.97452 -107.81122 240.77164 -240.80316 240.77164l0 0c-132.99188 0 -240.80313 -107.79712 -240.80313 -240.77164z" fill-rule="evenodd"/><path fill="#fce5cd" d="m484.89117 340.70615l0 0c0 -121.54614 98.53259 -220.07875 220.07874 -220.07875l0 0c58.36853 0 114.346436 23.186798 155.6192 64.459564c41.272766 41.27278 64.45953 97.250656 64.45953 155.61919l0 0c0 121.54611 -98.53259 220.0787 -220.07874 220.0787l0 0c-121.54614 0 -220.07874 -98.53259 -220.07874 -220.0787z" fill-rule="evenodd"/><path stroke="#999999" stroke-width="1.0" stroke-linejoin="round" stroke-linecap="butt" d="m484.89117 340.70615l0 0c0 -121.54614 98.53259 -220.07875 220.07874 -220.07875l0 0c58.36853 0 114.346436 23.186798 155.6192 64.459564c41.272766 41.27278 64.45953 97.250656 64.45953 155.61919l0 0c0 121.54611 -98.53259 220.0787 -220.07874 220.0787l0 0c-121.54614 0 -220.07874 -98.53259 -220.07874 -220.0787z" fill-rule="evenodd"/><path fill="#dd7e6b" d="m187.63652 324.7061l0 0c0 -138.40167 112.19673 -250.59842 250.59843 -250.59842l0 0c66.46283 0 130.20352 26.40226 177.19986 73.39858c46.996277 46.996323 73.39856 110.737 73.39856 177.19983l0 0c0 138.4017 -112.19672 250.59842 -250.59842 250.59842l0 0c-138.4017 0 -250.59843 -112.19672 -250.59843 -250.59842z" fill-rule="evenodd"/><path stroke="#999999" stroke-width="1.0" stroke-linejoin="round" stroke-linecap="butt" d="m187.63652 324.7061l0 0c0 -138.40167 112.19673 -250.59842 250.59843 -250.59842l0 0c66.46283 0 130.20352 26.40226 177.19986 73.39858c46.996277 46.996323 73.39856 110.737 73.39856 177.19983l0 0c0 138.4017 -112.19672 250.59842 -250.59842 250.59842l0 0c-138.4017 0 -250.59843 -112.19672 -250.59843 -250.59842z" fill-rule="evenodd"/><path fill="#f4cccc" d="m197.45906 324.45053l0 0c0 -132.9745 107.81123 -240.77165 240.80315 -240.77165l0 0c63.86496 0 125.1142 25.366943 170.27356 70.520386c45.159363 45.153442 70.5296 106.39467 70.5296 170.25127l0 0c0 132.97452 -107.81128 240.77164 -240.80316 240.77164l0 0c-132.99191 0 -240.80315 -107.79712 -240.80315 -240.77164z" fill-rule="evenodd"/><path stroke="#999999" stroke-width="1.0" stroke-linejoin="round" stroke-linecap="butt" d="m197.45906 324.45053l0 0c0 -132.9745 107.81123 -240.77165 240.80315 -240.77165l0 0c63.86496 0 125.1142 25.366943 170.27356 70.520386c45.159363 45.153442 70.5296 106.39467 70.5296 170.25127l0 0c0 132.97452 -107.81128 240.77164 -240.80316 240.77164l0 0c-132.99191 0 -240.80315 -107.79712 -240.80315 -240.77164z" fill-rule="evenodd"/><path fill="#dd7e6b" d="m187.63914 1102.0736l0 0c0 -138.40173 112.19673 -250.59845 250.59843 -250.59845l0 0c66.46283 0 130.20352 26.402222 177.19986 73.39856c46.996277 46.996338 73.39856 110.737 73.39856 177.19989l0 0c0 138.40161 -112.19672 250.59839 -250.59842 250.59839l0 0c-138.4017 0 -250.59843 -112.19678 -250.59843 -250.59839z" fill-rule="evenodd"/><path stroke="#999999" stroke-width="1.0" stroke-linejoin="round" stroke-linecap="butt" d="m187.63914 1102.0736l0 0c0 -138.40173 112.19673 -250.59845 250.59843 -250.59845l0 0c66.46283 0 130.20352 26.402222 177.19986 73.39856c46.996277 46.996338 73.39856 110.737 73.39856 177.19989l0 0c0 138.40161 -112.19672 250.59839 -250.59842 250.59839l0 0c-138.4017 0 -250.59843 -112.19678 -250.59843 -250.59839z" fill-rule="evenodd"/><path fill="#dd7e6b" d="m3.6444004 677.4907l0 0c0 -138.40167 112.19673 -250.59839 250.59843 -250.59839l0 0c66.46283 0 130.20352 26.402252 177.19983 73.39856c46.996338 46.996338 73.39859 110.737 73.39859 177.19983l0 0c0 138.40173 -112.19675 250.59845 -250.59842 250.59845l0 0c-138.4017 0 -250.59843 -112.19672 -250.59843 -250.59845z" fill-rule="evenodd"/><path stroke="#999999" stroke-width="1.0" stroke-linejoin="round" stroke-linecap="butt" d="m3.6444004 677.4907l0 0c0 -138.40167 112.19673 -250.59839 250.59843 -250.59839l0 0c66.46283 0 130.20352 26.402252 177.19983 73.39856c46.996338 46.996338 73.39859 110.737 73.39859 177.19983l0 0c0 138.40173 -112.19675 250.59845 -250.59842 250.59845l0 0c-138.4017 0 -250.59843 -112.19672 -250.59843 -250.59845z" fill-rule="evenodd"/><path fill="#f4cccc" d="m13.459063 677.4911l0 0c0 -132.97449 107.81124 -240.77167 240.80315 -240.77167l0 0c63.86496 0 125.1142 25.366943 170.27356 70.520386c45.159332 45.153442 70.5296 106.39465 70.5296 170.25128l0 0c0 132.97449 -107.81125 240.77167 -240.80316 240.77167l0 0c-132.99191 0 -240.80315 -107.79718 -240.80315 -240.77167z" fill-rule="evenodd"/><path stroke="#999999" stroke-width="1.0" stroke-linejoin="round" stroke-linecap="butt" d="m13.459063 677.4911l0 0c0 -132.97449 107.81124 -240.77167 240.80315 -240.77167l0 0c63.86496 0 125.1142 25.366943 170.27356 70.520386c45.159332 45.153442 70.5296 106.39465 70.5296 170.25128l0 0c0 132.97449 -107.81125 240.77167 -240.80316 240.77167l0 0c-132.99191 0 -240.80315 -107.79718 -240.80315 -240.77167z" fill-rule="evenodd"/><path fill="#f4cccc" d="m197.43282 1102.0857l0 0c0 -132.97449 107.81123 -240.7716 240.80315 -240.7716l0 0c63.86496 0 125.1142 25.366943 170.27356 70.520386c45.159363 45.153442 70.5296 106.39465 70.5296 170.25122l0 0c0 132.97449 -107.81128 240.77173 -240.80316 240.77173l0 0c-132.99191 0 -240.80315 -107.79724 -240.80315 -240.77173z" fill-rule="evenodd"/><path stroke="#999999" stroke-width="1.0" stroke-linejoin="round" stroke-linecap="butt" d="m197.43282 1102.0857l0 0c0 -132.97449 107.81123 -240.7716 240.80315 -240.7716l0 0c63.86496 0 125.1142 25.366943 170.27356 70.520386c45.159363 45.153442 70.5296 106.39465 70.5296 170.25122l0 0c0 132.97449 -107.81128 240.77173 -240.80316 240.77173l0 0c-132.99191 0 -240.80315 -107.79724 -240.80315 -240.77173z" fill-rule="evenodd"/><path fill="#fce5cd" d="m218.172 1102.0867l0 0c0 -121.54608 98.53259 -220.07867 220.07874 -220.07867l0 0c58.36853 0 114.346375 23.186768 155.6192 64.45953c41.272766 41.272766 64.45953 97.25073 64.45953 155.61914l0 0c0 121.54614 -98.53259 220.07874 -220.07874 220.07874l0 0c-121.54614 0 -220.07874 -98.53259 -220.07874 -220.07874z" fill-rule="evenodd"/><path stroke="#999999" stroke-width="1.0" stroke-linejoin="round" stroke-linecap="butt" d="m218.172 1102.0867l0 0c0 -121.54608 98.53259 -220.07867 220.07874 -220.07867l0 0c58.36853 0 114.346375 23.186768 155.6192 64.45953c41.272766 41.272766 64.45953 97.25073 64.45953 155.61914l0 0c0 121.54614 -98.53259 220.07874 -220.07874 220.07874l0 0c-121.54614 0 -220.07874 -98.53259 -220.07874 -220.07874z" fill-rule="evenodd"/><path fill="#fff2cc" d="m265.70853 1102.1125l0 0c0 -95.30609 77.260864 -172.5669 172.56693 -172.5669l0 0c45.76761 0 89.660706 18.181091 122.023254 50.54364c32.36261 32.36261 50.5437 76.25568 50.5437 122.023254l0 0c0 95.30615 -77.260864 172.5669 -172.56696 172.5669l0 0c-95.30606 0 -172.56693 -77.26074 -172.56693 -172.5669z" fill-rule="evenodd"/><path stroke="#999999" stroke-width="1.0" stroke-linejoin="round" stroke-linecap="butt" d="m265.70853 1102.1125l0 0c0 -95.30609 77.260864 -172.5669 172.56693 -172.5669l0 0c45.76761 0 89.660706 18.181091 122.023254 50.54364c32.36261 32.36261 50.5437 76.25568 50.5437 122.023254l0 0c0 95.30615 -77.260864 172.5669 -172.56696 172.5669l0 0c-95.30606 0 -172.56693 -77.26074 -172.56693 -172.5669z" fill-rule="evenodd"/><path fill="#ffffff" d="m352.99026 1102.0936l0 0c0 -45.974487 38.17212 -83.24408 85.25983 -83.24408l0 0c22.612335 0 44.298492 8.770325 60.28781 24.381653c15.989319 15.611206 24.972046 36.784668 24.972046 58.862427l0 0c0 45.974487 -38.17215 83.24414 -85.25986 83.24414l0 0c-47.087708 0 -85.25983 -37.269653 -85.25983 -83.24414z" fill-rule="evenodd"/><path stroke="#999999" stroke-width="1.0" stroke-linejoin="round" stroke-linecap="butt" d="m352.99026 1102.0936l0 0c0 -45.974487 38.17212 -83.24408 85.25983 -83.24408l0 0c22.612335 0 44.298492 8.770325 60.28781 24.381653c15.989319 15.611206 24.972046 36.784668 24.972046 58.862427l0 0c0 45.974487 -38.17215 83.24414 -85.25986 83.24414l0 0c-47.087708 0 -85.25983 -37.269653 -85.25983 -83.24414z" fill-rule="evenodd"/><path fill="#fce5cd" d="m34.171997 677.4901l0 0c0 -121.542114 98.52937 -220.0715 220.0715 -220.0715l0 0c58.366577 0 114.34265 23.186035 155.61404 64.45743c41.271423 41.271423 64.45746 97.2475 64.45746 155.61407l0 0c0 121.542114 -98.52936 220.07147 -220.0715 220.07147l0 0c-121.54213 0 -220.0715 -98.52936 -220.0715 -220.07147z" fill-rule="evenodd"/><path stroke="#999999" stroke-width="1.0" stroke-linejoin="round" stroke-linecap="butt" d="m34.171997 677.4901l0 0c0 -121.542114 98.52937 -220.0715 220.0715 -220.0715l0 0c58.366577 0 114.34265 23.186035 155.61404 64.45743c41.271423 41.271423 64.45746 97.2475 64.45746 155.61407l0 0c0 121.542114 -98.52936 220.07147 -220.0715 220.07147l0 0c-121.54213 0 -220.0715 -98.52936 -220.0715 -220.07147z" fill-rule="evenodd"/><path fill="#fff2cc" d="m81.708534 677.51715l0 0c0 -95.302734 77.258125 -172.56088 172.56088 -172.56088l0 0c45.76599 0 89.6575 18.18045 122.01895 50.5419c32.36145 32.36145 50.5419 76.25299 50.5419 122.01898l0 0c0 95.302734 -77.25812 172.56085 -172.56085 172.56085l0 0c-95.30275 0 -172.56088 -77.25812 -172.56088 -172.56085z" fill-rule="evenodd"/><path stroke="#999999" stroke-width="1.0" stroke-linejoin="round" stroke-linecap="butt" d="m81.708534 677.51715l0 0c0 -95.302734 77.258125 -172.56088 172.56088 -172.56088l0 0c45.76599 0 89.6575 18.18045 122.01895 50.5419c32.36145 32.36145 50.5419 76.25299 50.5419 122.01898l0 0c0 95.302734 -77.25812 172.56085 -172.56085 172.56085l0 0c-95.30275 0 -172.56088 -77.25812 -172.56088 -172.56085z" fill-rule="evenodd"/><path fill="#ffffff" d="m168.99026 677.49945l0 0c0 -45.9718 38.16919 -83.23932 85.25328 -83.23932l0 0c22.61058 0 44.29509 8.769836 60.283188 24.380249c15.988068 15.610413 24.970093 36.782593 24.970093 58.85907l0 0c0 45.97174 -38.16919 83.23926 -85.25328 83.23926l0 0c-47.08409 0 -85.25328 -37.267517 -85.25328 -83.23926z" fill-rule="evenodd"/><path stroke="#999999" stroke-width="1.0" stroke-linejoin="round" stroke-linecap="butt" d="m168.99026 677.49945l0 0c0 -45.9718 38.16919 -83.23932 85.25328 -83.23932l0 0c22.61058 0 44.29509 8.769836 60.283188 24.380249c15.988068 15.610413 24.970093 36.782593 24.970093 58.85907l0 0c0 45.97174 -38.16919 83.23926 -85.25328 83.23926l0 0c-47.08409 0 -85.25328 -37.267517 -85.25328 -83.23926z" fill-rule="evenodd"/><path fill="#fce5cd" d="m218.19562 324.70615l0 0c0 -121.54614 98.53262 -220.07875 220.07874 -220.07875l0 0c58.36853 0 114.346436 23.186798 155.6192 64.459564c41.272766 41.27278 64.45953 97.250656 64.45953 155.61919l0 0c0 121.54611 -98.53259 220.0787 -220.07874 220.0787l0 0c-121.54611 0 -220.07874 -98.53259 -220.07874 -220.0787z" fill-rule="evenodd"/><path stroke="#999999" stroke-width="1.0" stroke-linejoin="round" stroke-linecap="butt" d="m218.19562 324.70615l0 0c0 -121.54614 98.53262 -220.07875 220.07874 -220.07875l0 0c58.36853 0 114.346436 23.186798 155.6192 64.459564c41.272766 41.27278 64.45953 97.250656 64.45953 155.61919l0 0c0 121.54611 -98.53259 220.0787 -220.07874 220.0787l0 0c-121.54611 0 -220.07874 -98.53259 -220.07874 -220.0787z" fill-rule="evenodd"/><path fill="#fce5cd" d="m484.90167 340.4594l0 0c0 -121.54613 98.53259 -220.07874 220.07874 -220.07874l0 0c58.36853 0 114.346436 23.186798 155.6192 64.459564c41.272766 41.27278 64.45953 97.25067 64.45953 155.61917l0 0c0 121.54614 -98.53259 220.07874 -220.07874 220.07874l0 0c-121.54614 0 -220.07874 -98.53259 -220.07874 -220.07874z" fill-rule="evenodd"/><path stroke="#999999" stroke-width="1.0" stroke-linejoin="round" stroke-linecap="butt" d="m484.90167 340.4594l0 0c0 -121.54613 98.53259 -220.07874 220.07874 -220.07874l0 0c58.36853 0 114.346436 23.186798 155.6192 64.459564c41.272766 41.27278 64.45953 97.25067 64.45953 155.61917l0 0c0 121.54614 -98.53259 220.07874 -220.07874 220.07874l0 0c-121.54614 0 -220.07874 -98.53259 -220.07874 -220.07874z" fill-rule="evenodd"/><path fill="#fff2cc" d="m265.70853 324.732l0 0c0 -95.30609 77.260864 -172.56694 172.56693 -172.56694l0 0c45.76761 0 89.660706 18.181107 122.023254 50.543686c32.36261 32.36258 50.5437 76.255646 50.5437 122.023254l0 0c0 95.30606 -77.260864 172.56693 -172.56696 172.56693l0 0c-95.30606 0 -172.56693 -77.260864 -172.56693 -172.56693z" fill-rule="evenodd"/><path stroke="#999999" stroke-width="1.0" stroke-linejoin="round" stroke-linecap="butt" d="m265.70853 324.732l0 0c0 -95.30609 77.260864 -172.56694 172.56693 -172.56694l0 0c45.76761 0 89.660706 18.181107 122.023254 50.543686c32.36261 32.36258 50.5437 76.255646 50.5437 122.023254l0 0c0 95.30606 -77.260864 172.56693 -172.56696 172.56693l0 0c-95.30606 0 -172.56693 -77.260864 -172.56693 -172.56693z" fill-rule="evenodd"/><path fill="#ffffff" d="m352.99026 324.73682l0 0c0 -45.974457 38.17212 -83.24411 85.25983 -83.24411l0 0c22.612335 0 44.298492 8.77034 60.28781 24.381622c15.989319 15.611298 24.972046 36.78476 24.972046 58.862488l0 0c0 45.974426 -38.17215 83.24408 -85.25986 83.24408l0 0c-47.087708 0 -85.25983 -37.269653 -85.25983 -83.24408z" fill-rule="evenodd"/><path stroke="#999999" stroke-width="1.0" stroke-linejoin="round" stroke-linecap="butt" d="m352.99026 324.73682l0 0c0 -45.974457 38.17212 -83.24411 85.25983 -83.24411l0 0c22.612335 0 44.298492 8.77034 60.28781 24.381622c15.989319 15.611298 24.972046 36.78476 24.972046 58.862488l0 0c0 45.974426 -38.17215 83.24408 -85.25986 83.24408l0 0c-47.087708 0 -85.25983 -37.269653 -85.25983 -83.24408z" fill-rule="evenodd"/><path fill="#fce5cd" d="m266.14752 455.816l-8.031494 6.5433044l44.02362 45.212585l75.25461 34.80316l53.54068 6.246704l-4.4619446 -9.816284l-64.54593 -17.551147l-77.03937 -51.160126z" fill-rule="evenodd"/><path fill="#f4cccc" d="m406.8766 860.83435l0.57891846 11.48822l-77.3031 24.700806l-44.755554 25.275574l0 -12.062988l37.104645 -21.532837l57.38315 -23.753296z" fill-rule="evenodd"/><path fill="#dd7e6b" d="m680.1097 1099.2013l0 0c0 -138.40167 112.19672 -250.59845 250.59839 -250.59845l0 0c66.46283 0 130.20355 26.402283 177.19989 73.39862c46.996338 46.996277 73.39856 110.73694 73.39856 177.19983l0 0c0 138.40173 -112.19678 250.59839 -250.59845 250.59839l0 0c-138.40167 0 -250.59839 -112.196655 -250.59839 -250.59839z" fill-rule="evenodd"/><path stroke="#999999" stroke-width="1.0" stroke-linejoin="round" stroke-linecap="butt" d="m680.1097 1099.2013l0 0c0 -138.40167 112.19672 -250.59845 250.59839 -250.59845l0 0c66.46283 0 130.20355 26.402283 177.19989 73.39862c46.996338 46.996277 73.39856 110.73694 73.39856 177.19983l0 0c0 138.40173 -112.19678 250.59839 -250.59845 250.59839l0 0c-138.40167 0 -250.59839 -112.196655 -250.59839 -250.59839z" fill-rule="evenodd"/><path fill="#f4cccc" d="m689.92957 1099.2083l0 0c0 -132.97455 107.81122 -240.77173 240.80316 -240.77173l0 0c63.86493 0 125.1142 25.366943 170.2735 70.520386c45.159424 45.153442 70.52966 106.39465 70.52966 170.25134l0 0c0 132.97449 -107.81128 240.7716 -240.80316 240.7716l0 0c-132.99194 0 -240.80316 -107.79712 -240.80316 -240.7716z" fill-rule="evenodd"/><path stroke="#999999" stroke-width="1.0" stroke-linejoin="round" stroke-linecap="butt" d="m689.92957 1099.2083l0 0c0 -132.97455 107.81122 -240.77173 240.80316 -240.77173l0 0c63.86493 0 125.1142 25.366943 170.2735 70.520386c45.159424 45.153442 70.52966 106.39465 70.52966 170.25134l0 0c0 132.97449 -107.81128 240.7716 -240.80316 240.7716l0 0c-132.99194 0 -240.80316 -107.79712 -240.80316 -240.7716z" fill-rule="evenodd"/><path fill="#fce5cd" d="m710.6425 1099.2145l0 0c0 -121.54614 98.53259 -220.07874 220.07874 -220.07874l0 0c58.36847 0 114.346375 23.186768 155.6192 64.45953c41.272705 41.272766 64.45947 97.25067 64.45947 155.6192l0 0c0 121.54614 -98.53259 220.07874 -220.07867 220.07874l0 0c-121.54614 0 -220.07874 -98.53259 -220.07874 -220.07874z" fill-rule="evenodd"/><path stroke="#999999" stroke-width="1.0" stroke-linejoin="round" stroke-linecap="butt" d="m710.6425 1099.2145l0 0c0 -121.54614 98.53259 -220.07874 220.07874 -220.07874l0 0c58.36847 0 114.346375 23.186768 155.6192 64.45953c41.272705 41.272766 64.45947 97.25067 64.45947 155.6192l0 0c0 121.54614 -98.53259 220.07874 -220.07867 220.07874l0 0c-121.54614 0 -220.07874 -98.53259 -220.07874 -220.07874z" fill-rule="evenodd"/><path fill="#fff2cc" d="m758.179 1099.2404l0 0c0 -95.30615 77.260864 -172.56696 172.56696 -172.56696l0 0c45.76758 0 89.660645 18.181091 122.02319 50.54364c32.36267 32.36261 50.5437 76.255615 50.5437 122.023315l0 0c0 95.30603 -77.260864 172.5669 -172.5669 172.5669l0 0c-95.30609 0 -172.56696 -77.260864 -172.56696 -172.5669z" fill-rule="evenodd"/><path stroke="#999999" stroke-width="1.0" stroke-linejoin="round" stroke-linecap="butt" d="m758.179 1099.2404l0 0c0 -95.30615 77.260864 -172.56696 172.56696 -172.56696l0 0c45.76758 0 89.660645 18.181091 122.02319 50.54364c32.36267 32.36261 50.5437 76.255615 50.5437 122.023315l0 0c0 95.30603 -77.260864 172.5669 -172.5669 172.5669l0 0c-95.30609 0 -172.56696 -77.260864 -172.56696 -172.5669z" fill-rule="evenodd"/><path fill="#ffffff" d="m845.46075 1099.2213l0 0c0 -45.974365 38.17212 -83.24402 85.25983 -83.24402l0 0c22.612366 0 44.298523 8.770264 60.28784 24.381592c15.989319 15.611328 24.972046 36.78479 24.972046 58.862427l0 0c0 45.974487 -38.17218 83.24414 -85.25989 83.24414l0 0c-47.087708 0 -85.25983 -37.269653 -85.25983 -83.24414z" fill-rule="evenodd"/><path stroke="#999999" stroke-width="1.0" stroke-linejoin="round" stroke-linecap="butt" d="m845.46075 1099.2213l0 0c0 -45.974365 38.17212 -83.24402 85.25983 -83.24402l0 0c22.612366 0 44.298523 8.770264 60.28784 24.381592c15.989319 15.611328 24.972046 36.78479 24.972046 58.862427l0 0c0 45.974487 -38.17218 83.24414 -85.25989 83.24414l0 0c-47.087708 0 -85.25983 -37.269653 -85.25983 -83.24414z" fill-rule="evenodd"/><path fill="#dd7e6b" d="m679.93756 1053.1625l8.107605 0.78393555l0 94.573l-6.538086 -1.5678711l-2.091858 -48.592163z" fill-rule="evenodd"/><path fill="#fff2cc" d="m532.38837 327.753l0 0c0 -95.30609 77.2608 -172.56694 172.5669 -172.56694l0 0c45.76764 0 89.660706 18.181107 122.023254 50.543686c32.36261 32.36258 50.5437 76.255646 50.5437 122.023254l0 0c0 95.30606 -77.260864 172.56693 -172.56696 172.56693l0 0c-95.30609 0 -172.5669 -77.260864 -172.5669 -172.56693z" fill-rule="evenodd"/><path stroke="#999999" stroke-width="1.0" stroke-linejoin="round" stroke-linecap="butt" d="m532.38837 327.753l0 0c0 -95.30609 77.2608 -172.56694 172.5669 -172.56694l0 0c45.76764 0 89.660706 18.181107 122.023254 50.543686c32.36261 32.36258 50.5437 76.255646 50.5437 122.023254l0 0c0 95.30606 -77.260864 172.56693 -172.56696 172.56693l0 0c-95.30609 0 -172.5669 -77.260864 -172.5669 -172.56693z" fill-rule="evenodd"/><path fill="#ffffff" d="m619.69635 340.71057l0 0c0 -45.974457 38.17212 -83.24411 85.25983 -83.24411l0 0c22.612305 0 44.298462 8.770325 60.28778 24.381622c15.989319 15.611298 24.972046 36.78476 24.972046 58.862488l0 0c0 45.974426 -38.17212 83.24408 -85.25983 83.24408l0 0c-47.087708 0 -85.25983 -37.269653 -85.25983 -83.24408z" fill-rule="evenodd"/><path stroke="#999999" stroke-width="1.0" stroke-linejoin="round" stroke-linecap="butt" d="m619.69635 340.71057l0 0c0 -45.974457 38.17212 -83.24411 85.25983 -83.24411l0 0c22.612305 0 44.298462 8.770325 60.28778 24.381622c15.989319 15.611298 24.972046 36.78476 24.972046 58.862488l0 0c0 45.974426 -38.17212 83.24408 -85.25983 83.24408l0 0c-47.087708 0 -85.25983 -37.269653 -85.25983 -83.24408z" fill-rule="evenodd"/><path fill="#fff2cc" d="m569.6667 214.33595l13.05249 10.622055l-41.695557 79.11548l8.196838 98.71393l26.097107 30.687653l-14.692871 7.0892334l-31.005249 -50.24933l0.3569336 -82.322845l16.748047 -61.650925z" fill-rule="evenodd"/><path fill="#dd7e6b" d="m628.2338 863.9055l124.75592 0l0 48.472412l-124.75592 0z" fill-rule="evenodd"/><path fill="#000000" d="m636.2185 891.4455l2.21875 -0.1875q0.234375 1.609375 1.125 2.4375q0.90625 0.8125 2.171875 0.8125q1.53125 0 2.578125 -1.140625q1.0625 -1.15625 1.0625 -3.0625q0 -1.796875 -1.015625 -2.84375q-1.015625 -1.046875 -2.65625 -1.046875q-1.015625 0 -1.84375 0.46875q-0.8125 0.453125 -1.28125 1.203125l-1.984375 -0.265625l1.65625 -8.828125l8.546875 0l0 2.015625l-6.859375 0l-0.921875 4.625q1.546875 -1.078125 3.25 -1.078125q2.25 0 3.796875 1.5625q1.546875 1.546875 1.546875 4.0q0 2.328125 -1.359375 4.03125q-1.65625 2.09375 -4.515625 2.09375q-2.34375 0 -3.828125 -1.3125q-1.484375 -1.3125 -1.6875 -3.484375zm19.703125 -0.375l2.0625 -0.28125q0.078125 1.96875 0.734375 2.703125q0.65625 0.71875 1.8125 0.71875q0.859375 0 1.46875 -0.390625q0.625 -0.390625 0.859375 -1.0625q0.234375 -0.6875 0.234375 -2.15625l0 -11.84375l2.28125 0l0 11.71875q0 2.15625 -0.53125 3.34375q-0.515625 1.171875 -1.65625 1.796875q-1.125 0.625 -2.640625 0.625q-2.265625 0 -3.46875 -1.296875q-1.203125 -1.3125 -1.15625 -3.875zm12.46875 -3.5q0 -4.265625 2.296875 -6.6875q2.296875 -2.421875 5.9375 -2.421875q2.375 0 4.28125 1.140625q1.921875 1.125 2.921875 3.171875q1.0 2.03125 1.0 4.609375q0 2.609375 -1.0625 4.671875q-1.046875 2.0625 -2.984375 3.125q-1.9375 1.0625 -4.171875 1.0625q-2.421875 0 -4.34375 -1.171875q-1.90625 -1.171875 -2.890625 -3.203125q-0.984375 -2.03125 -0.984375 -4.296875zm2.34375 0.046875q0 3.09375 1.671875 4.890625q1.671875 1.78125 4.1875 1.78125q2.578125 0 4.234375 -1.796875q1.65625 -1.8125 1.65625 -5.125q0 -2.09375 -0.71875 -3.65625q-0.703125 -1.578125 -2.078125 -2.4375q-1.359375 -0.859375 -3.046875 -0.859375q-2.421875 0 -4.171875 1.65625q-1.734375 1.65625 -1.734375 5.546875zm17.402344 8.328125l0 -17.1875l2.28125 0l0 17.1875l-2.28125 0zm6.2617188 0l0 -17.1875l2.328125 0l9.03125 13.5l0 -13.5l2.171875 0l0 17.1875l-2.328125 0l-9.015625 -13.5l0 13.5l-2.1875 0zm17.410156 0l0 -17.1875l12.421875 0l0 2.03125l-10.15625 0l0 5.265625l9.5 0l0 2.015625l-9.5 0l0 5.84375l10.546875 0l0 2.03125l-12.8125 0zm15.9609375 0l0 -17.1875l5.90625 0q2.015625 0 3.0625 0.25q1.484375 0.34375 2.515625 1.234375q1.359375 1.140625 2.03125 2.9375q0.6875 1.78125 0.6875 4.078125q0 1.953125 -0.46875 3.46875q-0.453125 1.515625 -1.171875 2.515625q-0.703125 0.984375 -1.5625 1.546875q-0.84375 0.5625 -2.046875 0.859375q-1.203125 0.296875 -2.765625 0.296875l-6.1875 0zm2.265625 -2.03125l3.671875 0q1.703125 0 2.65625 -0.3125q0.96875 -0.3125 1.546875 -0.890625q0.8125 -0.8125 1.265625 -2.171875q0.453125 -1.375 0.453125 -3.3125q0 -2.703125 -0.890625 -4.140625q-0.890625 -1.453125 -2.15625 -1.9375q-0.90625 -0.359375 -2.9375 -0.359375l-3.609375 0l0 13.125z" fill-rule="nonzero"/><path fill="#000000" fill-opacity="0.0" d="m690.6118 912.3779c0 43.71045 -1.6299438 65.56653 -3.2598267 87.42084c-1.6299438 21.85431 -3.2598877 43.70697 -3.2598877 87.41388" fill-rule="evenodd"/><path stroke="#000000" stroke-width="4.0" stroke-linejoin="round" stroke-linecap="butt" d="m690.6118 912.3779c0 43.71039 -1.6299438 65.56653 -3.2598877 87.4209c-0.8149414 10.927124 -1.6298828 21.853882 -2.2410889 35.512085c-0.30566406 6.8292236 -0.56030273 14.341187 -0.7385864 22.877686c-0.022277832 1.0670166 -0.043395996 2.1501465 -0.06323242 3.2497559l-0.029541016 1.7750244" fill-rule="evenodd"/><path fill="#000000" stroke="#000000" stroke-width="4.0" stroke-linecap="butt" d="m677.6727 1063.1617l6.465027 18.20337l6.748474 -18.10022z" fill-rule="evenodd"/><path fill="#000000" fill-opacity="0.0" d="m521.93774 811.7428c-31.568756 0 -46.60211 14.440918 -63.137543 28.881897c-16.53543 14.440918 -34.572968 28.881897 -69.145905 28.881897" fill-rule="evenodd"/><path stroke="#000000" stroke-width="4.0" stroke-linejoin="round" stroke-linecap="butt" d="m521.93774 811.7428c-31.568787 0 -46.60211 14.440918 -63.137543 28.881897c-8.267731 7.220459 -16.91098 14.440918 -27.808899 19.856262c-2.7244873 1.3538818 -5.589905 2.5948486 -8.62558 3.6948853c-1.5178223 0.5499878 -3.078247 1.0646973 -4.6848755 1.5407104c-0.8033447 0.23791504 -1.6182251 0.46618652 -2.4451294 0.6843872c-0.41345215 0.109069824 -0.8298645 0.2156372 -1.2494202 0.31951904l-0.480896 0.11730957" fill-rule="evenodd"/><path fill="#000000" stroke="#000000" stroke-width="4.0" stroke-linecap="butt" d="m412.77072 860.2718l-17.305084 8.584534l18.774506 4.5473633z" fill-rule="evenodd"/><path fill="#000000" fill-opacity="0.0" d="m661.02716 1110.2894l0 0c0 -12.741699 10.329163 -23.070923 23.070862 -23.070923l0 0c6.1187744 0 11.986938 2.430664 16.313599 6.757324c4.326599 4.32666 6.757263 10.194824 6.757263 16.313599l0 0c0 12.741699 -10.329163 23.0708 -23.070862 23.0708l0 0c-12.741699 0 -23.070862 -10.329102 -23.070862 -23.0708z" fill-rule="evenodd"/><path fill="#000000" fill-opacity="0.0" d="m357.05792 867.9726l0 0c9.4279785 -8.575623 24.022797 -7.8846436 32.59842 1.543335l0 0c4.118164 4.527466 6.2691345 10.505432 5.979706 16.618835c-0.2894287 6.1134033 -2.9955444 11.861389 -7.5230103 15.979553l0 0c-9.4279785 8.575623 -24.022797 7.8847046 -32.59842 -1.5432739l0 0c-8.575653 -9.4279785 -7.884674 -24.022827 1.5433044 -32.59845z" fill-rule="evenodd"/><path fill="#f4cccc" d="m521.93774 787.5066l124.75592 0l0 48.472412l-124.75592 0z" fill-rule="evenodd"/><path fill="#000000" d="m536.68805 819.5466l0 -4.109375l-7.453125 0l0 -1.9375l7.828125 -11.140625l1.734375 0l0 11.140625l2.3125 0l0 1.9375l-2.3125 0l0 4.109375l-2.109375 0zm0 -6.046875l0 -7.75l-5.390625 7.75l5.390625 0zm12.9375 1.171875l2.0625 -0.28125q0.078125 1.96875 0.734375 2.703125q0.65625 0.71875 1.8125 0.71875q0.859375 0 1.46875 -0.390625q0.625 -0.390625 0.859375 -1.0625q0.234375 -0.6875 0.234375 -2.15625l0 -11.84375l2.28125 0l0 11.71875q0 2.15625 -0.53125 3.34375q-0.515625 1.171875 -1.65625 1.796875q-1.125 0.625 -2.640625 0.625q-2.265625 0 -3.46875 -1.296875q-1.203125 -1.3125 -1.15625 -3.875zm12.46875 -3.5q0 -4.265625 2.296875 -6.6875q2.296875 -2.421875 5.9375 -2.421875q2.375 0 4.28125 1.140625q1.921875 1.125 2.921875 3.171875q1.0 2.03125 1.0 4.609375q0 2.609375 -1.0625 4.671875q-1.046875 2.0625 -2.984375 3.125q-1.9375 1.0625 -4.171875 1.0625q-2.421875 0 -4.34375 -1.171875q-1.90625 -1.171875 -2.890625 -3.203125q-0.984375 -2.03125 -0.984375 -4.296875zm2.34375 0.046875q0 3.09375 1.671875 4.890625q1.671875 1.78125 4.1875 1.78125q2.578125 0 4.234375 -1.796875q1.65625 -1.8125 1.65625 -5.125q0 -2.09375 -0.71875 -3.65625q-0.703125 -1.578125 -2.078125 -2.4375q-1.359375 -0.859375 -3.046875 -0.859375q-2.421875 0 -4.171875 1.65625q-1.734375 1.65625 -1.734375 5.546875zm17.402344 8.328125l0 -17.1875l2.28125 0l0 17.1875l-2.28125 0zm6.2617188 0l0 -17.1875l2.328125 0l9.03125 13.5l0 -13.5l2.171875 0l0 17.1875l-2.328125 0l-9.015625 -13.5l0 13.5l-2.1875 0zm17.410156 0l0 -17.1875l12.421875 0l0 2.03125l-10.15625 0l0 5.265625l9.5 0l0 2.015625l-9.5 0l0 5.84375l10.546875 0l0 2.03125l-12.8125 0zm15.9609375 0l0 -17.1875l5.90625 0q2.015625 0 3.0625 0.25q1.484375 0.34375 2.515625 1.234375q1.359375 1.140625 2.03125 2.9375q0.6875 1.78125 0.6875 4.078125q0 1.953125 -0.46875 3.46875q-0.453125 1.515625 -1.171875 2.515625q-0.703125 0.984375 -1.5625 1.546875q-0.84375 0.5625 -2.046875 0.859375q-1.203125 0.296875 -2.765625 0.296875l-6.1875 0zm2.265625 -2.03125l3.671875 0q1.703125 0 2.65625 -0.3125q0.96875 -0.3125 1.546875 -0.890625q0.8125 -0.8125 1.265625 -2.171875q0.453125 -1.375 0.453125 -3.3125q0 -2.703125 -0.890625 -4.140625q-0.890625 -1.453125 -2.15625 -1.9375q-0.90625 -0.359375 -2.9375 -0.359375l-3.609375 0l0 13.125z" fill-rule="nonzero"/><path fill="#fce5cd" d="m29.952713 379.50656l126.4252 0l0 48.472443l-126.4252 0z" fill-rule="evenodd"/><path fill="#000000" d="m38.787613 407.01532l2.109375 -0.28125q0.359375 1.78125 1.234375 2.578125q0.875 0.796875 2.125 0.796875q1.484375 0 2.5 -1.03125q1.03125 -1.03125 1.03125 -2.5625q0 -1.453125 -0.953125 -2.390625q-0.9375 -0.953125 -2.40625 -0.953125q-0.59375 0 -1.484375 0.234375l0.234375 -1.84375q0.203125 0.015625 0.34375 0.015625q1.34375 0 2.421875 -0.703125q1.078125 -0.703125 1.078125 -2.15625q0 -1.171875 -0.796875 -1.921875q-0.78125 -0.765625 -2.015625 -0.765625q-1.234375 0 -2.0625 0.78125q-0.8125 0.765625 -1.046875 2.3125l-2.109375 -0.375q0.390625 -2.125 1.75 -3.28125q1.375 -1.171875 3.421875 -1.171875q1.40625 0 2.578125 0.609375q1.1875 0.59375 1.8125 1.640625q0.640625 1.046875 0.640625 2.21875q0 1.109375 -0.609375 2.03125q-0.59375 0.90625 -1.765625 1.4375q1.53125 0.359375 2.375 1.46875q0.84375 1.109375 0.84375 2.765625q0 2.25 -1.640625 3.828125q-1.640625 1.5625 -4.15625 1.5625q-2.265625 0 -3.765625 -1.34375q-1.484375 -1.359375 -1.6875 -3.5zm19.6875 -0.34375l2.0625 -0.28125q0.078125 1.96875 0.734375 2.703125q0.65625 0.71875 1.8125 0.71875q0.859375 0 1.46875 -0.390625q0.625 -0.390625 0.859375 -1.0625q0.234375 -0.6875 0.234375 -2.15625l0 -11.84375l2.28125 0l0 11.71875q0 2.15625 -0.53125 3.34375q-0.515625 1.171875 -1.65625 1.796875q-1.125 0.625 -2.640625 0.625q-2.265625 0 -3.46875 -1.296875q-1.203125 -1.3125 -1.15625 -3.875zm12.46875 -3.5q0 -4.265625 2.296875 -6.6875q2.296875 -2.421875 5.9375 -2.421875q2.375 0 4.28125 1.140625q1.921875 1.125 2.921875 3.171875q1.0 2.03125 1.0 4.609375q0 2.609375 -1.0625 4.671875q-1.046875 2.0625 -2.984375 3.125q-1.9375 1.0625 -4.171875 1.0625q-2.421875 0 -4.34375 -1.171875q-1.90625 -1.171875 -2.890625 -3.203125q-0.984375 -2.03125 -0.984375 -4.296875zm2.34375 0.046875q0 3.09375 1.671875 4.890625q1.671875 1.78125 4.1875 1.78125q2.578125 0 4.234375 -1.796875q1.65625 -1.8125 1.65625 -5.125q0 -2.09375 -0.71875 -3.65625q-0.703125 -1.578125 -2.078125 -2.4375q-1.359375 -0.859375 -3.046875 -0.859375q-2.421875 0 -4.171875 1.65625q-1.734375 1.65625 -1.734375 5.546875zm17.402344 8.328125l0 -17.1875l2.28125 0l0 17.1875l-2.28125 0zm6.2617188 0l0 -17.1875l2.328125 0l9.03125 13.5l0 -13.5l2.171875 0l0 17.1875l-2.328125 0l-9.015625 -13.5l0 13.5l-2.1875 0zm17.410156 0l0 -17.1875l12.421875 0l0 2.03125l-10.15625 0l0 5.265625l9.5 0l0 2.015625l-9.5 0l0 5.84375l10.546875 0l0 2.03125l-12.8125 0zm15.9609375 0l0 -17.1875l5.90625 0q2.015625 0 3.0625 0.25q1.484375 0.34375 2.515625 1.234375q1.359375 1.140625 2.03125 2.9375q0.6875 1.78125 0.6875 4.078125q0 1.953125 -0.46875 3.46875q-0.453125 1.515625 -1.171875 2.515625q-0.703125 0.984375 -1.5625 1.546875q-0.84375 0.5625 -2.046875 0.859375q-1.203125 0.296875 -2.765625 0.296875l-6.1875 0zm2.265625 -2.03125l3.671875 0q1.703125 0 2.65625 -0.3125q0.96875 -0.3125 1.546875 -0.890625q0.8125 -0.8125 1.265625 -2.171875q0.453125 -1.375 0.453125 -3.3125q0 -2.703125 -0.890625 -4.140625q-0.890625 -1.453125 -2.15625 -1.9375q-0.90625 -0.359375 -2.9375 -0.359375l-3.609375 0l0 13.125z" fill-rule="nonzero"/><path fill="#fce5cd" d="m556.12335 180.18636l-9.595764 9.532806l-1.4645996 -1.157486l14.309692 -17.125977l21.315002 -13.62468l1.6849976 1.438324l-11.5616455 8.748032z" fill-rule="evenodd"/><path fill="#f4cccc" d="m610.11285 141.10498l-10.711304 5.4252014l-12.099731 -2.086609l0.3491211 -8.207352l-4.0341187 -2.6404266l10.083984 -5.981621l6.8845215 -3.4068222z" fill-rule="evenodd"/><path fill="#000000" fill-opacity="0.0" d="m673.2623 67.979004c0 46.599358 -23.834595 69.899506 -47.66925 93.198715c-23.834656 23.29921 -47.66931 46.59749 -47.66931 93.19498" fill-rule="evenodd"/><path stroke="#000000" stroke-width="4.0" stroke-linejoin="round" stroke-linecap="butt" d="m673.2623 67.979004c0 46.599358 -23.834656 69.899506 -47.66925 93.198715c-11.917358 11.649612 -23.834656 23.29898 -32.772644 37.860626c-4.468994 7.280838 -8.193176 15.289734 -10.80011 24.390762c-0.6517334 2.2752686 -1.2336426 4.6187897 -1.7398682 7.036255l-0.004638672 0.022872925" fill-rule="evenodd"/><path fill="#000000" stroke="#000000" stroke-width="4.0" stroke-linecap="butt" d="m573.7006 229.84074l4.7962036 18.712494l8.354065 -17.417526z" fill-rule="evenodd"/><path fill="#fff2cc" d="m610.8844 19.506561l124.75592 0l0 48.472443l-124.75592 0z" fill-rule="evenodd"/><path fill="#000000" d="m629.94714 49.515312l0 2.03125l-11.34375 0q-0.03125 -0.765625 0.234375 -1.46875q0.4375 -1.15625 1.390625 -2.28125q0.953125 -1.125 2.765625 -2.609375q2.796875 -2.296875 3.78125 -3.625q0.984375 -1.34375 0.984375 -2.546875q0 -1.25 -0.90625 -2.109375q-0.890625 -0.859375 -2.328125 -0.859375q-1.515625 0 -2.4375 0.921875q-0.90625 0.90625 -0.921875 2.515625l-2.171875 -0.21875q0.21875 -2.421875 1.671875 -3.6875q1.453125 -1.28125 3.90625 -1.28125q2.46875 0 3.90625 1.375q1.453125 1.359375 1.453125 3.390625q0 1.03125 -0.421875 2.03125q-0.421875 1.0 -1.40625 2.109375q-0.96875 1.09375 -3.25 3.015625q-1.890625 1.59375 -2.4375 2.15625q-0.53125 0.5625 -0.890625 1.140625l8.421875 0zm8.625 -2.84375l2.0625 -0.28125q0.078125 1.96875 0.734375 2.703125q0.65625 0.71875 1.8125 0.71875q0.859375 0 1.46875 -0.390625q0.625 -0.390625 0.859375 -1.0625q0.234375 -0.6875 0.234375 -2.15625l0 -11.84375l2.28125 0l0 11.71875q0 2.15625 -0.53125 3.34375q-0.515625 1.171875 -1.65625 1.796875q-1.125 0.625 -2.640625 0.625q-2.265625 0 -3.46875 -1.296875q-1.203125 -1.3125 -1.15625 -3.875zm12.46875 -3.5q0 -4.265625 2.296875 -6.6875q2.296875 -2.421875 5.9375 -2.421875q2.375 0 4.28125 1.140625q1.921875 1.125 2.921875 3.171875q1.0 2.03125 1.0 4.609375q0 2.609375 -1.0625 4.671875q-1.046875 2.0625 -2.984375 3.125q-1.9375 1.0625 -4.171875 1.0625q-2.421875 0 -4.34375 -1.171875q-1.90625 -1.171875 -2.890625 -3.203125q-0.984375 -2.03125 -0.984375 -4.296875zm2.34375 0.046875q0 3.09375 1.671875 4.890625q1.671875 1.78125 4.1875 1.78125q2.578125 0 4.234375 -1.796875q1.65625 -1.8125 1.65625 -5.125q0 -2.09375 -0.71875 -3.65625q-0.703125 -1.578125 -2.078125 -2.4375q-1.359375 -0.859375 -3.046875 -0.859375q-2.421875 0 -4.171875 1.65625q-1.734375 1.65625 -1.734375 5.546875zm17.402344 8.328125l0 -17.1875l2.28125 0l0 17.1875l-2.28125 0zm6.2617188 0l0 -17.1875l2.328125 0l9.03125 13.5l0 -13.5l2.171875 0l0 17.1875l-2.328125 0l-9.015625 -13.5l0 13.5l-2.1875 0zm17.410156 0l0 -17.1875l12.421875 0l0 2.03125l-10.15625 0l0 5.265625l9.5 0l0 2.015625l-9.5 0l0 5.84375l10.546875 0l0 2.03125l-12.8125 0zm15.9609375 0l0 -17.1875l5.90625 0q2.015625 0 3.0625 0.25q1.484375 0.34375 2.515625 1.234375q1.359375 1.140625 2.03125 2.9375q0.6875 1.78125 0.6875 4.078125q0 1.953125 -0.46875 3.46875q-0.453125 1.515625 -1.171875 2.515625q-0.703125 0.984375 -1.5625 1.546875q-0.84375 0.5625 -2.046875 0.859375q-1.203125 0.296875 -2.765625 0.296875l-6.1875 0zm2.265625 -2.03125l3.671875 0q1.703125 0 2.65625 -0.3125q0.96875 -0.3125 1.546875 -0.890625q0.8125 -0.8125 1.265625 -2.171875q0.453125 -1.375 0.453125 -3.3125q0 -2.703125 -0.890625 -4.140625q-0.890625 -1.453125 -2.15625 -1.9375q-0.90625 -0.359375 -2.9375 -0.359375l-3.609375 0l0 13.125z" fill-rule="nonzero"/><path fill="#000000" fill-opacity="0.0" d="m295.07346 460.4837l0 0c6.3664856 -11.036987 20.474792 -14.816132 31.51181 -8.4409485l0 0c5.3001404 3.061493 9.168701 8.103058 10.754639 14.015625c1.5859375 5.912567 0.7593384 12.211792 -2.297943 17.511932l0 0c-6.366516 11.037018 -20.474823 14.816162 -31.51181 8.4409485l0 0c-11.037018 -6.375183 -14.823212 -20.49054 -8.456696 -31.527557z" fill-rule="evenodd"/><path fill="#000000" fill-opacity="0.0" d="m554.8635 277.43008l0 0c0 -12.741699 10.329163 -23.063828 23.070862 -23.05513l0 0c6.1187744 0.004180908 11.986938 2.438858 16.313538 6.768448c4.32666 4.3295593 6.757324 10.199402 6.757324 16.318176l0 0c0 12.741669 -10.329163 23.063812 -23.070862 23.055115l0 0c-12.741699 -0.00869751 -23.070862 -10.34494 -23.070862 -23.086609z" fill-rule="evenodd"/><path fill="#fce5cd" d="m551.2493 497.12598l10.375366 8.874023l-1.1864014 1.0629883l-18.438293 -12.750641l-13.81366 -21.624695l1.1259766 -0.6246643l9.624695 10.561676z" fill-rule="evenodd"/><path fill="#f4cccc" d="m587.063 527.0l-1.4382935 19.0l-1.1864014 1.0629883l-14.813599 -8.249329l-4.333374 -2.6981812l-4.826782 -4.8294067l17.002625 -10.916016z" fill-rule="evenodd"/><path fill="#f4cccc" d="m485.0 552.42957l-1.4986877 7.638855l-6.5013123 1.529419l-17.868774 3.2940674l-1.6299133 -5.331482l-3.5931702 -14.753784l12.782135 -1.1924438z" fill-rule="evenodd"/><path fill="#f4cccc" d="m242.43045 426.4462l6.608917 12.099731l-5.0078735 6.188965l-13.422577 -5.632538l-2.7112732 -0.34643555l-6.3989563 -10.084015l5.438324 -2.0472412z" fill-rule="evenodd"/><path fill="#dd7e6b" d="m219.13649 425.93964l3.7532806 10.083984l-8.97113 -4.4304504l-1.2992249 4.682434l-1.0629883 -5.259857l-2.2257233 -5.4252014l0.22572327 -1.0026245z" fill-rule="evenodd"/><path fill="#000000" fill-opacity="0.0" d="m220.94226 428.5328l5.858261 9.952759" fill-rule="evenodd"/><path stroke="#999999" stroke-width="1.0" stroke-linejoin="round" stroke-linecap="butt" d="m220.94226 428.5328l5.858261 9.952759" fill-rule="evenodd"/><path fill="#000000" fill-opacity="0.0" d="m592.72705 127.33596l-8.976379 5.9842453" fill-rule="evenodd"/><path stroke="#999999" stroke-width="1.0" stroke-linejoin="round" stroke-linecap="butt" d="m592.72705 127.33596l-8.976379 5.9842453" fill-rule="evenodd"/><path fill="#000000" fill-opacity="0.0" d="m560.81366 531.81366l7.748047 7.0551147" fill-rule="evenodd"/><path stroke="#999999" stroke-width="1.0" stroke-linejoin="round" stroke-linecap="butt" d="m560.81366 531.81366l7.748047 7.0551147" fill-rule="evenodd"/><path fill="#000000" fill-opacity="0.0" d="m466.69028 563.7218l10.204742 -1.6378174" fill-rule="evenodd"/><path stroke="#999999" stroke-width="1.0" stroke-linejoin="round" stroke-linecap="butt" d="m466.69028 563.7218l10.204742 -1.6378174" fill-rule="evenodd"/><path fill="#fff2cc" d="m987.44354 424.11282l155.02362 0l0 76.629944l-155.02362 0z" fill-rule="evenodd"/><path stroke="#999999" stroke-width="1.0" stroke-linejoin="round" stroke-linecap="butt" d="m987.44354 424.11282l155.02362 0l0 76.629944l-155.02362 0z" fill-rule="evenodd"/><path fill="#000000" d="m998.58417 456.0278l0 -19.078125l2.515625 0l0 7.828125l9.921875 0l0 -7.828125l2.53125 0l0 19.078125l-2.53125 0l0 -9.0l-9.921875 0l0 9.0l-2.515625 0zm18.76593 5.328125l-0.265625 -2.203125q0.765625 0.203125 1.34375 0.203125q0.78125 0 1.25 -0.265625q0.46875 -0.25 0.765625 -0.71875q0.21875 -0.359375 0.71875 -1.75q0.0625 -0.1875 0.203125 -0.5625l-5.25 -13.859375l2.53125 0l2.875 8.015625q0.5625 1.515625 1.0 3.203125q0.40625 -1.625 0.96875 -3.15625l2.953125 -8.0625l2.34375 0l-5.265625 14.0625q-0.84375 2.28125 -1.3125 3.140625q-0.625 1.15625 -1.4375 1.6875q-0.796875 0.546875 -1.921875 0.546875q-0.671875 0 -1.5 -0.28125zm13.421875 -0.03125l0 -19.125l2.140625 0l0 1.796875q0.75 -1.046875 1.703125 -1.578125q0.953125 -0.53125 2.3125 -0.53125q1.765625 0 3.109375 0.921875q1.359375 0.90625 2.046875 2.5625q0.6875 1.65625 0.6875 3.640625q0 2.125 -0.765625 3.828125q-0.75 1.6875 -2.203125 2.59375q-1.453125 0.90625 -3.046875 0.90625q-1.171875 0 -2.109375 -0.484375q-0.921875 -0.5 -1.53125 -1.265625l0 6.734375l-2.34375 0zm2.125 -12.125q0 2.65625 1.078125 3.9375q1.09375 1.28125 2.625 1.28125q1.5625 0 2.671875 -1.3125q1.109375 -1.328125 1.109375 -4.109375q0 -2.640625 -1.09375 -3.953125q-1.078125 -1.3125 -2.59375 -1.3125q-1.484375 0 -2.640625 1.40625q-1.15625 1.390625 -1.15625 4.0625zm22.168701 2.375l2.421875 0.296875q-0.578125 2.125 -2.125 3.296875q-1.546875 1.171875 -3.953125 1.171875q-3.03125 0 -4.8125 -1.859375q-1.78125 -1.875 -1.78125 -5.25q0 -3.484375 1.796875 -5.40625q1.796875 -1.9375 4.671875 -1.9375q2.765625 0 4.515625 1.890625q1.765625 1.890625 1.765625 5.3125q0 0.203125 -0.015625 0.625l-10.3125 0q0.140625 2.28125 1.296875 3.5q1.15625 1.203125 2.890625 1.203125q1.28125 0 2.1875 -0.671875q0.921875 -0.6875 1.453125 -2.171875zm-7.6875 -3.78125l7.71875 0q-0.15625 -1.75 -0.890625 -2.625q-1.125 -1.34375 -2.90625 -1.34375q-1.609375 0 -2.71875 1.078125q-1.09375 1.078125 -1.203125 2.890625zm13.028076 8.234375l0 -13.828125l2.109375 0l0 2.09375q0.796875 -1.46875 1.484375 -1.9375q0.6875 -0.46875 1.5 -0.46875q1.1875 0 2.40625 0.765625l-0.796875 2.171875q-0.859375 -0.515625 -1.71875 -0.515625q-0.765625 0 -1.390625 0.46875q-0.609375 0.453125 -0.859375 1.28125q-0.390625 1.25 -0.390625 2.734375l0 7.234375l-2.34375 0zm7.986084 -5.734375l0 -2.34375l7.203125 0l0 2.34375l-7.203125 0zm9.736084 5.734375l0 -19.078125l2.34375 0l0 19.078125l-2.34375 0zm5.109741 -6.90625q0 -3.84375 2.125 -5.6875q1.78125 -1.546875 4.34375 -1.546875q2.859375 0 4.65625 1.875q1.8125 1.859375 1.8125 5.15625q0 2.671875 -0.796875 4.203125q-0.796875 1.53125 -2.328125 2.375q-1.53125 0.84375 -3.34375 0.84375q-2.890625 0 -4.6875 -1.859375q-1.78125 -1.859375 -1.78125 -5.359375zm2.40625 0q0 2.65625 1.15625 3.984375q1.15625 1.3125 2.90625 1.3125q1.75 0 2.90625 -1.328125q1.15625 -1.328125 1.15625 -4.046875q0 -2.5625 -1.171875 -3.890625q-1.15625 -1.328125 -2.890625 -1.328125q-1.75 0 -2.90625 1.328125q-1.15625 1.3125 -1.15625 3.96875zm22.309326 1.84375l2.296875 0.296875q-0.375 2.390625 -1.9375 3.734375q-1.546875 1.34375 -3.8125 1.34375q-2.84375 0 -4.5625 -1.84375q-1.71875 -1.859375 -1.71875 -5.328125q0 -2.234375 0.734375 -3.90625q0.75 -1.6875 2.265625 -2.53125q1.515625 -0.84375 3.296875 -0.84375q2.25 0 3.671875 1.140625q1.4375 1.140625 1.84375 3.234375l-2.28125 0.359375q-0.328125 -1.390625 -1.15625 -2.09375q-0.8125 -0.703125 -1.984375 -0.703125q-1.78125 0 -2.890625 1.265625q-1.09375 1.265625 -1.09375 4.015625q0 2.78125 1.0625 4.046875q1.0625 1.265625 2.78125 1.265625q1.390625 0 2.3125 -0.84375q0.921875 -0.859375 1.171875 -2.609375zm13.328125 3.359375q-1.3125 1.109375 -2.515625 1.5625q-1.203125 0.453125 -2.578125 0.453125q-2.28125 0 -3.5 -1.109375q-1.21875 -1.109375 -1.21875 -2.84375q0 -1.015625 0.453125 -1.859375q0.46875 -0.84375 1.21875 -1.34375q0.75 -0.515625 1.6875 -0.765625q0.6875 -0.1875 2.078125 -0.359375q2.828125 -0.328125 4.171875 -0.796875q0.015625 -0.484375 0.015625 -0.625q0 -1.421875 -0.65625 -2.015625q-0.90625 -0.796875 -2.671875 -0.796875q-1.65625 0 -2.453125 0.59375q-0.78125 0.578125 -1.15625 2.046875l-2.296875 -0.3125q0.3125 -1.46875 1.03125 -2.375q0.71875 -0.90625 2.0625 -1.390625q1.359375 -0.5 3.140625 -0.5q1.78125 0 2.875 0.421875q1.109375 0.421875 1.625 1.046875q0.53125 0.625 0.734375 1.59375q0.125 0.59375 0.125 2.15625l0 3.125q0 3.265625 0.140625 4.140625q0.15625 0.859375 0.59375 1.65625l-2.4375 0q-0.375 -0.734375 -0.46875 -1.703125zm-0.203125 -5.234375q-1.265625 0.515625 -3.828125 0.890625q-1.4375 0.203125 -2.046875 0.46875q-0.59375 0.25 -0.921875 0.75q-0.3125 0.5 -0.3125 1.125q0 0.9375 0.703125 1.5625q0.703125 0.625 2.078125 0.625q1.34375 0 2.390625 -0.59375q1.0625 -0.59375 1.5625 -1.625q0.375 -0.796875 0.375 -2.34375l0 -0.859375zm5.949829 6.9375l0 -19.078125l2.34375 0l0 19.078125l-2.34375 0z" fill-rule="nonzero"/><path fill="#000000" d="m1012.1154 481.3403l2.53125 0.640625q-0.796875 3.109375 -2.859375 4.75q-2.0625 1.625 -5.046875 1.625q-3.09375 0 -5.03125 -1.25q-1.921875 -1.265625 -2.9375 -3.640625q-1.0 -2.390625 -1.0 -5.125q0 -2.984375 1.140625 -5.203125q1.140625 -2.21875 3.234375 -3.359375q2.109375 -1.15625 4.625 -1.15625q2.875 0 4.828125 1.46875q1.953125 1.453125 2.71875 4.09375l-2.484375 0.578125q-0.671875 -2.078125 -1.9375 -3.03125q-1.25 -0.953125 -3.171875 -0.953125q-2.203125 0 -3.6875 1.0625q-1.46875 1.046875 -2.0625 2.828125q-0.59375 1.78125 -0.59375 3.65625q0 2.4375 0.703125 4.265625q0.703125 1.8125 2.203125 2.71875q1.5 0.890625 3.25 0.890625q2.109375 0 3.578125 -1.21875q1.484375 -1.234375 2.0 -3.640625zm4.469055 -0.21875q0 -3.84375 2.125 -5.6875q1.78125 -1.546875 4.34375 -1.546875q2.859375 0 4.65625 1.875q1.8125 1.859375 1.8125 5.15625q0 2.671875 -0.796875 4.203125q-0.796875 1.53125 -2.328125 2.375q-1.53125 0.84375 -3.34375 0.84375q-2.890625 0 -4.6875 -1.859375q-1.78125 -1.859375 -1.78125 -5.359375zm2.40625 0q0 2.65625 1.15625 3.984375q1.15625 1.3125 2.90625 1.3125q1.75 0 2.90625 -1.328125q1.15625 -1.328125 1.15625 -4.046875q0 -2.5625 -1.171875 -3.890625q-1.15625 -1.328125 -2.890625 -1.328125q-1.75 0 -2.90625 1.328125q-1.15625 1.3125 -1.15625 3.96875zm13.278076 6.90625l0 -13.828125l2.109375 0l0 1.9375q0.640625 -1.015625 1.71875 -1.625q1.09375 -0.625 2.46875 -0.625q1.53125 0 2.515625 0.640625q0.984375 0.640625 1.390625 1.78125q1.640625 -2.421875 4.265625 -2.421875q2.0625 0 3.15625 1.140625q1.109375 1.140625 1.109375 3.515625l0 9.484375l-2.328125 0l0 -8.703125q0 -1.40625 -0.234375 -2.015625q-0.21875 -0.625 -0.828125 -1.0q-0.59375 -0.390625 -1.390625 -0.390625q-1.46875 0 -2.4375 0.96875q-0.953125 0.96875 -0.953125 3.109375l0 8.03125l-2.34375 0l0 -8.984375q0 -1.5625 -0.578125 -2.34375q-0.5625 -0.78125 -1.875 -0.78125q-0.984375 0 -1.828125 0.53125q-0.828125 0.515625 -1.21875 1.515625q-0.375 1.0 -0.375 2.890625l0 7.171875l-2.34375 0zm22.204834 0l0 -13.828125l2.109375 0l0 1.9375q0.640625 -1.015625 1.71875 -1.625q1.09375 -0.625 2.46875 -0.625q1.53125 0 2.515625 0.640625q0.984375 0.640625 1.390625 1.78125q1.640625 -2.421875 4.265625 -2.421875q2.0625 0 3.15625 1.140625q1.109375 1.140625 1.109375 3.515625l0 9.484375l-2.328125 0l0 -8.703125q0 -1.40625 -0.234375 -2.015625q-0.21875 -0.625 -0.828125 -1.0q-0.59375 -0.390625 -1.390625 -0.390625q-1.46875 0 -2.4375 0.96875q-0.953125 0.96875 -0.953125 3.109375l0 8.03125l-2.34375 0l0 -8.984375q0 -1.5625 -0.578125 -2.34375q-0.5625 -0.78125 -1.875 -0.78125q-0.984375 0 -1.828125 0.53125q-0.828125 0.515625 -1.21875 1.515625q-0.375 1.0 -0.375 2.890625l0 7.171875l-2.34375 0zm31.267334 0l0 -2.03125q-1.609375 2.34375 -4.375 2.34375q-1.234375 0 -2.296875 -0.46875q-1.0625 -0.46875 -1.578125 -1.171875q-0.5 -0.71875 -0.71875 -1.75q-0.140625 -0.6875 -0.140625 -2.1875l0 -8.5625l2.34375 0l0 7.671875q0 1.828125 0.140625 2.46875q0.21875 0.921875 0.9375 1.453125q0.71875 0.53125 1.765625 0.53125q1.0625 0 1.984375 -0.53125q0.921875 -0.546875 1.296875 -1.46875q0.390625 -0.9375 0.390625 -2.71875l0 -7.40625l2.34375 0l0 13.828125l-2.09375 0zm5.762451 0l0 -13.828125l2.109375 0l0 1.96875q1.53125 -2.28125 4.40625 -2.28125q1.25 0 2.296875 0.453125q1.046875 0.453125 1.5625 1.1875q0.53125 0.71875 0.734375 1.71875q0.125 0.65625 0.125 2.28125l0 8.5l-2.34375 0l0 -8.40625q0 -1.4375 -0.28125 -2.140625q-0.265625 -0.71875 -0.96875 -1.140625q-0.6875 -0.421875 -1.625 -0.421875q-1.484375 0 -2.578125 0.953125q-1.09375 0.953125 -1.09375 3.609375l0 7.546875l-2.34375 0zm14.840576 -16.390625l0 -2.6875l2.34375 0l0 2.6875l-2.34375 0zm0 16.390625l0 -13.828125l2.34375 0l0 13.828125l-2.34375 0zm11.031616 -2.09375l0.328125 2.0625q-0.984375 0.21875 -1.765625 0.21875q-1.265625 0 -1.96875 -0.40625q-0.703125 -0.40625 -1.0 -1.0625q-0.28125 -0.65625 -0.28125 -2.765625l0 -7.953125l-1.71875 0l0 -1.828125l1.71875 0l0 -3.421875l2.328125 -1.40625l0 4.828125l2.359375 0l0 1.828125l-2.359375 0l0 8.078125q0 1.0 0.125 1.296875q0.125 0.28125 0.40625 0.453125q0.28125 0.171875 0.796875 0.171875q0.390625 0 1.03125 -0.09375zm2.1871338 7.421875l-0.265625 -2.203125q0.765625 0.203125 1.34375 0.203125q0.78125 0 1.25 -0.265625q0.46875 -0.25 0.765625 -0.71875q0.21875 -0.359375 0.71875 -1.75q0.0625 -0.1875 0.203125 -0.5625l-5.25 -13.859375l2.53125 0l2.875 8.015625q0.5625 1.515625 1.0 3.203125q0.40625 -1.625 0.96875 -3.15625l2.953125 -8.0625l2.34375 0l-5.265625 14.0625q-0.84375 2.28125 -1.3125 3.140625q-0.625 1.15625 -1.4375 1.6875q-0.796875 0.546875 -1.921875 0.546875q-0.671875 0 -1.5 -0.28125z" fill-rule="nonzero"/><path fill="#dd7e6b" d="m987.44354 581.4199l155.02362 0l0 9.952759l-155.02362 0z" fill-rule="evenodd"/><path stroke="#999999" stroke-width="1.0" stroke-linejoin="round" stroke-linecap="butt" d="m987.44354 581.4199l155.02362 0l0 9.952759l-155.02362 0z" fill-rule="evenodd"/><path fill="#000000" d="m996.8654 587.6157l0.828125 -0.078125q0.0625 0.5 0.28125 0.828125q0.21875 0.3125 0.671875 0.515625q0.453125 0.203125 1.015625 0.203125q0.515625 0 0.890625 -0.15625q0.390625 -0.15625 0.578125 -0.40625q0.1875 -0.265625 0.1875 -0.578125q0 -0.3125 -0.1875 -0.546875q-0.171875 -0.234375 -0.59375 -0.390625q-0.265625 -0.109375 -1.1875 -0.328125q-0.921875 -0.21875 -1.28125 -0.421875q-0.484375 -0.25 -0.71875 -0.609375q-0.234375 -0.375 -0.234375 -0.84375q0 -0.5 0.28125 -0.9375q0.296875 -0.4375 0.84375 -0.671875q0.546875 -0.234375 1.234375 -0.234375q0.734375 0 1.296875 0.25q0.578125 0.234375 0.875 0.703125q0.3125 0.453125 0.328125 1.046875l-0.84375 0.0625q-0.0625 -0.625 -0.46875 -0.953125q-0.390625 -0.328125 -1.15625 -0.328125q-0.796875 0 -1.171875 0.296875q-0.359375 0.296875 -0.359375 0.703125q0 0.359375 0.25 0.59375q0.265625 0.234375 1.328125 0.484375q1.078125 0.234375 1.484375 0.421875q0.578125 0.265625 0.859375 0.6875q0.28125 0.40625 0.28125 0.9375q0 0.53125 -0.3125 1.015625q-0.296875 0.46875 -0.875 0.734375q-0.5625 0.25 -1.28125 0.25q-0.90625 0 -1.515625 -0.265625q-0.609375 -0.265625 -0.96875 -0.78125q-0.34375 -0.53125 -0.359375 -1.203125zm8.206177 1.40625l0.109375 0.71875q-0.34375 0.078125 -0.609375 0.078125q-0.453125 0 -0.703125 -0.140625q-0.234375 -0.140625 -0.34375 -0.359375q-0.09375 -0.234375 -0.09375 -0.984375l0 -2.78125l-0.609375 0l0 -0.640625l0.609375 0l0 -1.1875l0.8125 -0.5l0 1.6875l0.828125 0l0 0.640625l-0.828125 0l0 2.828125q0 0.359375 0.046875 0.46875q0.046875 0.09375 0.140625 0.15625q0.09375 0.046875 0.28125 0.046875q0.140625 0 0.359375 -0.03125zm3.9510498 0.140625q-0.453125 0.390625 -0.875 0.546875q-0.421875 0.15625 -0.90625 0.15625q-0.796875 0 -1.21875 -0.390625q-0.421875 -0.390625 -0.421875 -1.0q0 -0.34375 0.15625 -0.640625q0.15625 -0.296875 0.421875 -0.46875q0.265625 -0.1875 0.59375 -0.28125q0.234375 -0.0625 0.71875 -0.109375q1.0 -0.125 1.46875 -0.28125q0 -0.171875 0 -0.21875q0 -0.5 -0.234375 -0.703125q-0.3125 -0.28125 -0.921875 -0.28125q-0.578125 0 -0.859375 0.203125q-0.28125 0.203125 -0.40625 0.71875l-0.796875 -0.109375q0.109375 -0.515625 0.359375 -0.828125q0.25 -0.328125 0.71875 -0.5q0.46875 -0.171875 1.09375 -0.171875q0.625 0 1.0 0.15625q0.390625 0.140625 0.578125 0.359375q0.1875 0.21875 0.25 0.5625q0.046875 0.203125 0.046875 0.75l0 1.09375q0 1.140625 0.046875 1.453125q0.0625 0.296875 0.21875 0.578125l-0.859375 0q-0.125 -0.25 -0.171875 -0.59375zm-0.0625 -1.828125q-0.453125 0.171875 -1.34375 0.296875q-0.5 0.078125 -0.71875 0.171875q-0.203125 0.09375 -0.3125 0.265625q-0.109375 0.171875 -0.109375 0.390625q0 0.328125 0.234375 0.546875q0.25 0.21875 0.734375 0.21875q0.46875 0 0.828125 -0.203125q0.375 -0.21875 0.5625 -0.578125q0.125 -0.265625 0.125 -0.8125l0 -0.296875zm3.8909912 1.6875l0.109375 0.71875q-0.34375 0.078125 -0.609375 0.078125q-0.453125 0 -0.703125 -0.140625q-0.234375 -0.140625 -0.34375 -0.359375q-0.09375 -0.234375 -0.09375 -0.984375l0 -2.78125l-0.609375 0l0 -0.640625l0.609375 0l0 -1.1875l0.8125 -0.5l0 1.6875l0.828125 0l0 0.640625l-0.828125 0l0 2.828125q0 0.359375 0.046875 0.46875q0.046875 0.09375 0.140625 0.15625q0.09375 0.046875 0.28125 0.046875q0.140625 0 0.359375 -0.03125zm4.1073 -0.828125l0.84375 0.109375q-0.1875 0.75 -0.734375 1.15625q-0.546875 0.40625 -1.390625 0.40625q-1.0625 0 -1.6875 -0.65625q-0.609375 -0.65625 -0.609375 -1.828125q0 -1.21875 0.625 -1.890625q0.625 -0.6875 1.625 -0.6875q0.984375 0 1.59375 0.671875q0.609375 0.65625 0.609375 1.859375q0 0.0625 0 0.21875l-3.609375 0q0.046875 0.796875 0.453125 1.21875q0.40625 0.421875 1.015625 0.421875q0.453125 0 0.765625 -0.234375q0.3125 -0.234375 0.5 -0.765625zm-2.6875 -1.328125l2.703125 0q-0.0625 -0.609375 -0.3125 -0.90625q-0.390625 -0.46875 -1.015625 -0.46875q-0.5625 0 -0.953125 0.375q-0.375 0.375 -0.421875 1.0zm8.732605 4.859375q-0.6875 -0.859375 -1.15625 -2.0q-0.46875 -1.15625 -0.46875 -2.390625q0 -1.078125 0.359375 -2.078125q0.40625 -1.140625 1.265625 -2.296875l0.578125 0q-0.546875 0.953125 -0.71875 1.359375q-0.28125 0.625 -0.4375 1.3125q-0.203125 0.84375 -0.203125 1.71875q0 2.1875 1.359375 4.375l-0.578125 0zm3.0750732 -3.609375q-0.015625 -0.171875 -0.015625 -0.25q0 -0.484375 0.140625 -0.828125q0.09375 -0.265625 0.328125 -0.53125q0.15625 -0.203125 0.578125 -0.578125q0.4375 -0.375 0.5625 -0.59375q0.125 -0.234375 0.125 -0.5q0 -0.46875 -0.375 -0.828125q-0.375 -0.359375 -0.90625 -0.359375q-0.53125 0 -0.890625 0.328125q-0.34375 0.3125 -0.453125 1.015625l-0.84375 -0.09375q0.125 -0.9375 0.6875 -1.4375q0.5625 -0.5 1.484375 -0.5q0.96875 0 1.546875 0.546875q0.59375 0.53125 0.59375 1.28125q0 0.4375 -0.203125 0.8125q-0.203125 0.359375 -0.796875 0.890625q-0.40625 0.359375 -0.53125 0.53125q-0.125 0.15625 -0.1875 0.375q-0.046875 0.21875 -0.0625 0.71875l-0.78125 0zm-0.0625 1.640625l0 -0.9375l0.9375 0l0 0.9375l-0.9375 0zm4.250366 1.96875l-0.59375 0q1.359375 -2.1875 1.359375 -4.375q0 -0.859375 -0.1875 -1.703125q-0.15625 -0.6875 -0.4375 -1.3125q-0.171875 -0.40625 -0.734375 -1.375l0.59375 0q0.859375 1.15625 1.265625 2.296875q0.34375 1.0 0.34375 2.078125q0 1.234375 -0.46875 2.390625q-0.46875 1.140625 -1.140625 2.0z" fill-rule="nonzero"/><path fill="#fce5cd" d="m987.44354 500.3201l155.02362 0l0 60.22049l-155.02362 0z" fill-rule="evenodd"/><path stroke="#999999" stroke-width="1.0" stroke-linejoin="round" stroke-linecap="butt" d="m987.44354 500.3201l155.02362 0l0 60.22049l-155.02362 0z" fill-rule="evenodd"/><path fill="#000000" d="m997.39667 520.4041l1.90625 -0.171875q0.140625 1.15625 0.625 1.890625q0.5 0.734375 1.546875 1.1875q1.046875 0.453125 2.34375 0.453125q1.15625 0 2.03125 -0.34375q0.890625 -0.34375 1.3125 -0.9375q0.4375 -0.609375 0.4375 -1.3125q0 -0.71875 -0.421875 -1.25q-0.40625 -0.546875 -1.359375 -0.90625q-0.609375 -0.25 -2.71875 -0.75q-2.109375 -0.5 -2.953125 -0.953125q-1.09375 -0.578125 -1.625 -1.421875q-0.53125 -0.84375 -0.53125 -1.890625q0 -1.15625 0.65625 -2.1562805q0.65625 -1.015625 1.90625 -1.53125q1.265625 -0.53125 2.8125 -0.53125q1.6875 0 2.984375 0.546875q1.296875 0.546875 1.984375 1.609375q0.703125 1.0625305 0.765625 2.4062805l-1.9375 0.15625q-0.15625 -1.453125 -1.0625 -2.1875q-0.890625 -0.7500305 -2.65625 -0.7500305q-1.828125 0 -2.671875 0.6719055q-0.84375 0.671875 -0.84375 1.625q0 0.8125 0.59375 1.34375q0.59375 0.53125 3.046875 1.09375q2.46875 0.5625 3.390625 0.96875q1.328125 0.625 1.953125 1.5625q0.640625 0.9375 0.640625 2.171875q0 1.21875 -0.703125 2.296875q-0.6875 1.078125 -2.0 1.6875q-1.296875 0.59375 -2.9375 0.59375q-2.078125 0 -3.484375 -0.609375q-1.390625 -0.609375 -2.1875 -1.8125q-0.796875 -1.21875 -0.84375 -2.75zm21.928833 4.90625l0 -1.625q-1.296875 1.875 -3.515625 1.875q-0.96875 0 -1.828125 -0.375q-0.84375 -0.375 -1.265625 -0.9375q-0.40625 -0.578125 -0.5625 -1.390625q-0.125 -0.5625 -0.125 -1.75l0 -6.859375l1.875 0l0 6.140625q0 1.46875 0.125 1.96875q0.171875 0.75 0.734375 1.171875q0.578125 0.421875 1.421875 0.421875q0.84375 0 1.578125 -0.4375q0.75 -0.4375 1.046875 -1.171875q0.3125 -0.75 0.3125 -2.171875l0 -5.921875l1.875 0l0 11.0625l-1.671875 0zm4.5960693 0l0 -11.0625l1.687561 0l0 1.671875q0.640625 -1.171875 1.1875 -1.546875q0.546875 -0.375 1.203125 -0.375q0.953125 0 1.921875 0.609375l-0.640625 1.734375q-0.6875 -0.40625 -1.375 -0.40625q-0.609375 0 -1.109375 0.375q-0.484375 0.359375 -0.6875 1.015625q-0.3125 1.0 -0.3125 2.1875l0 5.796875l-1.875061 0zm7.102478 0l0 -11.0625l1.6875 0l0 1.671875q0.640625 -1.171875 1.1875 -1.546875q0.546875 -0.375 1.203125 -0.375q0.953125 0 1.921875 0.609375l-0.640625 1.734375q-0.6875 -0.40625 -1.375 -0.40625q-0.609375 0 -1.109375 0.375q-0.484375 0.359375 -0.6875 1.015625q-0.3125 1.0 -0.3125 2.1875l0 5.796875l-1.875 0zm6.414917 -5.53125q0 -3.078125 1.71875 -4.546875q1.421875 -1.234375 3.46875 -1.234375q2.28125 0 3.71875 1.5q1.453125 1.484375 1.453125 4.125q0 2.140625 -0.640625 3.359375q-0.625 1.21875 -1.859375 1.90625q-1.21875 0.671875 -2.671875 0.671875q-2.3125 0 -3.75 -1.484375q-1.4375 -1.5 -1.4375 -4.296875zm1.9375 0q0 2.125 0.921875 3.1875q0.921875 1.046875 2.328125 1.046875q1.40625 0 2.328125 -1.0625q0.921875 -1.0625 0.921875 -3.234375q0 -2.046875 -0.9375 -3.109375q-0.921875 -1.0625 -2.3125 -1.0625q-1.40625 0 -2.328125 1.0625q-0.921875 1.046875 -0.921875 3.171875zm17.87732 5.53125l0 -1.625q-1.296875 1.875 -3.515625 1.875q-0.96875 0 -1.828125 -0.375q-0.84375 -0.375 -1.265625 -0.9375q-0.40625 -0.578125 -0.5625 -1.390625q-0.125 -0.5625 -0.125 -1.75l0 -6.859375l1.875 0l0 6.140625q0 1.46875 0.125 1.96875q0.171875 0.75 0.734375 1.171875q0.578125 0.421875 1.421875 0.421875q0.84375 0 1.578125 -0.4375q0.75 -0.4375 1.046875 -1.171875q0.3125 -0.75 0.3125 -2.171875l0 -5.921875l1.875 0l0 11.0625l-1.671875 0zm4.6116943 0l0 -11.0625l1.6875 0l0 1.578125q1.21875 -1.828125 3.515625 -1.828125q1.0 0 1.84375 0.359375q0.84375 0.359375 1.25 0.953125q0.421875 0.578125 0.59375 1.375q0.09375 0.515625 0.09375 1.828125l0 6.796875l-1.875 0l0 -6.734375q0 -1.140625 -0.21875 -1.703125q-0.21875 -0.578125 -0.78125 -0.90625q-0.546875 -0.34375 -1.296875 -0.34375q-1.203125 0 -2.078125 0.765625q-0.859375 0.75 -0.859375 2.875l0 6.046875l-1.875 0zm19.03357 0l0 -1.390625q-1.046875 1.640625 -3.09375 1.640625q-1.3125 0 -2.421875 -0.71875q-1.109375 -0.734375 -1.71875 -2.046875q-0.609375 -1.3125 -0.609375 -3.0q0 -1.65625 0.546875 -3.0q0.546875 -1.359375 1.65625 -2.078125q1.109375 -0.71875 2.46875 -0.71875q1.0 0 1.78125 0.421875q0.78125 0.421875 1.265625 1.09375l0 -5.4687805l1.875 0l0 15.2656555l-1.75 0zm-5.921875 -5.515625q0 2.125 0.890625 3.171875q0.90625 1.046875 2.125 1.046875q1.21875 0 2.078125 -1.0q0.859375 -1.0 0.859375 -3.0625q0 -2.28125 -0.875 -3.34375q-0.875 -1.0625 -2.15625 -1.0625q-1.25 0 -2.09375 1.03125q-0.828125 1.015625 -0.828125 3.21875zm10.627319 -7.59375l0 -2.1562805l1.875 0l0 2.1562805l-1.875 0zm0 13.109375l0 -11.0625l1.875 0l0 11.0625l-1.875 0zm4.7227783 0l0 -11.0625l1.6875 0l0 1.578125q1.21875 -1.828125 3.515625 -1.828125q1.0 0 1.84375 0.359375q0.84375 0.359375 1.25 0.953125q0.421875 0.578125 0.59375 1.375q0.09375 0.515625 0.09375 1.828125l0 6.796875l-1.875 0l0 -6.734375q0 -1.140625 -0.21875 -1.703125q-0.21875 -0.578125 -0.78125 -0.90625q-0.546875 -0.34375 -1.296875 -0.34375q-1.203125 0 -2.078125 0.765625q-0.859375 0.75 -0.859375 2.875l0 6.046875l-1.875 0zm11.517944 0.921875l1.828125 0.265625q0.109375 0.84375 0.625 1.234375q0.703125 0.515625 1.90625 0.515625q1.3125 0 2.015625 -0.53125q0.703125 -0.515625 0.953125 -1.453125q0.15625 -0.5625 0.140625 -2.40625q-1.234375 1.453125 -3.0625 1.453125q-2.28125 0 -3.53125 -1.640625q-1.25 -1.65625 -1.25 -3.953125q0 -1.578125 0.5625 -2.921875q0.578125 -1.34375 1.671875 -2.0625q1.09375 -0.734375 2.5625 -0.734375q1.953125 0 3.21875 1.578125l0 -1.328125l1.734375 0l0 9.5625q0 2.578125 -0.53125 3.65625q-0.515625 1.078125 -1.65625 1.703125q-1.140625 0.625 -2.8125 0.625q-1.984375 0 -3.203125 -0.890625q-1.21875 -0.890625 -1.171875 -2.671875zm1.546875 -6.65625q0 2.1875 0.859375 3.1875q0.875 1.0 2.171875 1.0q1.296875 0 2.171875 -1.0q0.875 -1.0 0.875 -3.125q0 -2.03125 -0.90625 -3.0625q-0.890625 -1.03125 -2.171875 -1.03125q-1.25 0 -2.125 1.015625q-0.875 1.015625 -0.875 3.015625z" fill-rule="nonzero"/><path fill="#000000" d="m1008.9748 545.55096l2.03125 0.515625q-0.640625 2.484375 -2.296875 3.796875q-1.640625 1.3125 -4.03125 1.3125q-2.46875 0 -4.015625 -1.0q-1.546875 -1.015625 -2.359375 -2.921875q-0.796875 -1.90625 -0.796875 -4.09375q0 -2.390625 0.90625 -4.15625q0.921875 -1.78125 2.59375 -2.703125q1.6875 -0.921875 3.703125 -0.921875q2.296875 0 3.859375 1.171875q1.5625 1.171875 2.171875 3.28125l-1.984375 0.46875q-0.53125 -1.671875 -1.546875 -2.421875q-1.0 -0.765625 -2.53125 -0.765625q-1.765625 0 -2.953125 0.84375q-1.171875 0.84375 -1.65625 2.265625q-0.484375 1.421875 -0.484375 2.921875q0 1.953125 0.5625 3.40625q0.578125 1.453125 1.765625 2.171875q1.203125 0.71875 2.609375 0.71875q1.6875 0 2.859375 -0.96875q1.1875 -0.984375 1.59375 -2.921875zm3.5744019 -0.171875q0 -3.078125 1.71875 -4.546875q1.421875 -1.234375 3.46875 -1.234375q2.28125 0 3.71875 1.5q1.453125 1.484375 1.453125 4.125q0 2.140625 -0.640625 3.359375q-0.625 1.21875 -1.859375 1.90625q-1.21875 0.671875 -2.671875 0.671875q-2.3125 0 -3.75 -1.484375q-1.4375 -1.5 -1.4375 -4.296875zm1.9375 0q0 2.125 0.921875 3.1875q0.921875 1.046875 2.328125 1.046875q1.40625 0 2.328125 -1.0625q0.921875 -1.0625 0.921875 -3.234375q0 -2.046875 -0.9375 -3.109375q-0.921875 -1.0625 -2.3125 -1.0625q-1.40625 0 -2.328125 1.0625q-0.921875 1.046875 -0.921875 3.171875zm10.627319 5.53125l0 -11.0625l1.671875 0l0 1.546875q0.53125 -0.8125 1.390625 -1.296875q0.859375 -0.5 1.96875 -0.5q1.234375 0 2.015625 0.515625q0.78125 0.5 1.109375 1.421875q1.3125 -1.9375 3.40625 -1.9375q1.65625 0 2.53125 0.921875q0.890625 0.90625 0.890625 2.796875l0 7.59375l-1.859375 0l0 -6.96875q0 -1.125 -0.1875 -1.609375q-0.1875 -0.5 -0.671875 -0.796875q-0.46875 -0.3125 -1.109375 -0.3125q-1.171875 0 -1.9375 0.78125q-0.765625 0.765625 -0.765625 2.484375l0 6.421875l-1.875 0l0 -7.1875q0 -1.25 -0.46875 -1.875q-0.453125 -0.625 -1.5 -0.625q-0.78125 0 -1.453125 0.421875q-0.671875 0.40625 -0.984375 1.21875q-0.296875 0.796875 -0.296875 2.3125l0 5.734375l-1.875 0zm17.76648 0l0 -11.0625l1.671875 0l0 1.546875q0.53125 -0.8125 1.390625 -1.296875q0.859375 -0.5 1.96875 -0.5q1.234375 0 2.015625 0.515625q0.78125 0.5 1.109375 1.421875q1.3125 -1.9375 3.40625 -1.9375q1.65625 0 2.53125 0.921875q0.890625 0.90625 0.890625 2.796875l0 7.59375l-1.859375 0l0 -6.96875q0 -1.125 -0.1875 -1.609375q-0.1875 -0.5 -0.671875 -0.796875q-0.46875 -0.3125 -1.109375 -0.3125q-1.171875 0 -1.9375 0.78125q-0.765625 0.765625 -0.765625 2.484375l0 6.421875l-1.875 0l0 -7.1875q0 -1.25 -0.46875 -1.875q-0.453125 -0.625 -1.5 -0.625q-0.78125 0 -1.453125 0.421875q-0.671875 0.40625 -0.984375 1.21875q-0.296875 0.796875 -0.296875 2.3125l0 5.734375l-1.875 0zm25.01648 0l0 -1.625q-1.296875 1.875 -3.515625 1.875q-0.96875 0 -1.828125 -0.375q-0.84375 -0.375 -1.265625 -0.9375q-0.40625 -0.578125 -0.5625 -1.390625q-0.125 -0.5625 -0.125 -1.75l0 -6.859375l1.875 0l0 6.140625q0 1.46875 0.125 1.96875q0.171875 0.75 0.734375 1.171875q0.578125 0.421875 1.421875 0.421875q0.84375 0 1.578125 -0.4375q0.75 -0.4375 1.046875 -1.171875q0.3125 -0.75 0.3125 -2.171875l0 -5.921875l1.875 0l0 11.0625l-1.671875 0zm4.6116943 0l0 -11.0625l1.6875 0l0 1.578125q1.21875 -1.828125 3.515625 -1.828125q1.0 0 1.84375 0.359375q0.84375 0.359375 1.25 0.953125q0.421875 0.578125 0.59375 1.375q0.09375 0.515625 0.09375 1.828125l0 6.796875l-1.875 0l0 -6.734375q0 -1.140625 -0.21875 -1.703125q-0.21875 -0.578125 -0.78125 -0.90625q-0.546875 -0.34375 -1.296875 -0.34375q-1.203125 0 -2.078125 0.765625q-0.859375 0.75 -0.859375 2.875l0 6.046875l-1.875 0zm11.877319 -13.109375l0 -2.15625l1.875 0l0 2.15625l-1.875 0zm0 13.109375l0 -11.0625l1.875 0l0 11.0625l-1.875 0zm8.816528 -1.671875l0.265625 1.65625q-0.78125 0.15625 -1.40625 0.15625q-1.03125 0 -1.59375 -0.3125q-0.5625 -0.328125 -0.796875 -0.84375q-0.21875 -0.53125 -0.21875 -2.21875l0 -6.375l-1.375 0l0 -1.453125l1.375 0l0 -2.734375l1.859375 -1.125l0 3.859375l1.890625 0l0 1.453125l-1.890625 0l0 6.46875q0 0.8125 0.09375 1.046875q0.109375 0.21875 0.328125 0.359375q0.234375 0.125 0.640625 0.125q0.3125 0 0.828125 -0.0625zm1.7537842 5.9375l-0.21875 -1.765625q0.625 0.171875 1.078125 0.171875q0.625 0 1.0 -0.21875q0.375 -0.203125 0.609375 -0.578125q0.1875 -0.28125 0.578125 -1.390625q0.046875 -0.15625 0.171875 -0.46875l-4.203125 -11.078125l2.015625 0l2.3125 6.40625q0.4375 1.21875 0.796875 2.5625q0.328125 -1.296875 0.765625 -2.515625l2.375 -6.453125l1.875 0l-4.21875 11.25q-0.671875 1.828125 -1.046875 2.515625q-0.5 0.921875 -1.15625 1.34375q-0.640625 0.4375 -1.53125 0.4375q-0.546875 0 -1.203125 -0.21875z" fill-rule="nonzero"/><path fill="#f4cccc" d="m987.44354 560.8635l155.02362 0l0 21.29132l-155.02362 0z" fill-rule="evenodd"/><path stroke="#999999" stroke-width="1.0" stroke-linejoin="round" stroke-linecap="butt" d="m987.44354 560.8635l155.02362 0l0 21.29132l-155.02362 0z" fill-rule="evenodd"/><path fill="#000000" d="m997.70917 577.26917l0 -11.453125l5.078125 0q1.53125 0 2.328125 0.3125q0.796875 0.296875 1.265625 1.078125q0.484375 0.78125 0.484375 1.734375q0 1.21875 -0.796875 2.0625q-0.78125 0.828125 -2.4375 1.046875q0.609375 0.296875 0.921875 0.578125q0.65625 0.609375 1.25 1.515625l2.0 3.125l-1.90625 0l-1.515625 -2.390625q-0.671875 -1.03125 -1.109375 -1.578125q-0.421875 -0.546875 -0.765625 -0.765625q-0.328125 -0.21875 -0.6875 -0.296875q-0.25 -0.0625 -0.84375 -0.0625l-1.75 0l0 5.09375l-1.515625 0zm1.515625 -6.40625l3.25 0q1.046875 0 1.625 -0.203125q0.59375 -0.21875 0.890625 -0.6875q0.3125 -0.484375 0.3125 -1.03125q0 -0.8125 -0.59375 -1.328125q-0.59375 -0.53125 -1.859375 -0.53125l-3.625 0l0 3.78125zm15.5078125 3.734375l1.453125 0.171875q-0.34375 1.28125 -1.28125 1.984375q-0.921875 0.703125 -2.359375 0.703125q-1.828125 0 -2.890625 -1.125q-1.0625 -1.125 -1.0625 -3.140625q0 -2.09375 1.078125 -3.25q1.078125 -1.15625 2.796875 -1.15625q1.65625 0 2.703125 1.140625q1.0625 1.125 1.0625 3.171875q0 0.125 0 0.375l-6.1875 0q0.078125 1.375 0.765625 2.109375q0.703125 0.71875 1.734375 0.71875q0.78125 0 1.328125 -0.40625q0.546875 -0.40625 0.859375 -1.296875zm-4.609375 -2.28125l4.625 0q-0.09375 -1.046875 -0.53125 -1.5625q-0.671875 -0.8125 -1.734375 -0.8125q-0.96875 0 -1.640625 0.65625q-0.65625 0.640625 -0.71875 1.71875zm7.5703125 5.640625l1.375 0.203125q0.078125 0.640625 0.46875 0.921875q0.53125 0.390625 1.4375 0.390625q0.96875 0 1.5 -0.390625q0.53125 -0.390625 0.71875 -1.09375q0.109375 -0.421875 0.109375 -1.8125q-0.921875 1.09375 -2.296875 1.09375q-1.71875 0 -2.65625 -1.234375q-0.9375 -1.234375 -0.9375 -2.96875q0 -1.1875 0.421875 -2.1875q0.4375 -1.0 1.25 -1.546875q0.828125 -0.546875 1.921875 -0.546875q1.46875 0 2.421875 1.1875l0 -1.0l1.296936 0l0 7.171875q0 1.9375 -0.390625 2.75q-0.39068604 0.8125 -1.250061 1.28125q-0.859375 0.46875 -2.109375 0.46875q-1.484375 0 -2.40625 -0.671875q-0.90625 -0.671875 -0.875 -2.015625zm1.171875 -4.984375q0 1.625 0.640625 2.375q0.65625 0.75 1.625 0.75q0.96875 0 1.625 -0.734375q0.65625 -0.75 0.65625 -2.34375q0 -1.53125 -0.671875 -2.296875q-0.671875 -0.78125 -1.625 -0.78125q-0.9375 0 -1.59375 0.765625q-0.65625 0.765625 -0.65625 2.265625zm7.9922485 -5.546875l0 -1.609375l1.40625 0l0 1.609375l-1.40625 0zm0 9.84375l0 -8.296875l1.40625 0l0 8.296875l-1.40625 0zm3.0234375 -4.15625q0 -2.296875 1.28125 -3.40625q1.078125 -0.921875 2.609375 -0.921875q1.71875 0 2.796875 1.125q1.09375 1.109375 1.09375 3.09375q0 1.59375 -0.484375 2.515625q-0.484375 0.921875 -1.40625 1.4375q-0.90625 0.5 -2.0 0.5q-1.734375 0 -2.8125 -1.109375q-1.078125 -1.125 -1.078125 -3.234375zm1.453125 0q0 1.59375 0.6875 2.390625q0.703125 0.796875 1.75 0.796875q1.046875 0 1.734375 -0.796875q0.703125 -0.796875 0.703125 -2.4375q0 -1.53125 -0.703125 -2.328125q-0.6875 -0.796875 -1.734375 -0.796875q-1.046875 0 -1.75 0.796875q-0.6875 0.78125 -0.6875 2.375zm7.9765625 4.15625l0 -8.296875l1.265625 0l0 1.171875q0.90625 -1.359375 2.640625 -1.359375q0.75 0 1.375 0.265625q0.625 0.265625 0.9375 0.703125q0.3125 0.4375 0.4375 1.046875q0.078125 0.390625 0.078125 1.359375l0 5.109375l-1.40625 0l0 -5.046875q0 -0.859375 -0.171875 -1.28125q-0.15625 -0.4375 -0.578125 -0.6875q-0.40625 -0.25 -0.96875 -0.25q-0.90625 0 -1.5625 0.578125q-0.640625 0.5625 -0.640625 2.15625l0 4.53125l-1.40625 0zm16.03125 3.375q-1.171875 -1.46875 -1.984375 -3.4375q-0.796875 -1.984375 -0.796875 -4.09375q0 -1.859375 0.609375 -3.5625q0.703125 -1.96875 2.171875 -3.9375l1.0 0q-0.9375 1.625 -1.25 2.328125q-0.46875 1.078125 -0.75 2.25q-0.328125 1.453125 -0.328125 2.9375q0 3.75 2.328125 7.515625l-1.0 0zm5.265625 -6.203125q0 -0.28125 0 -0.421875q0 -0.828125 0.234375 -1.421875q0.171875 -0.453125 0.546875 -0.921875q0.28125 -0.328125 1.015625 -0.96875q0.734375 -0.65625 0.953125 -1.03125q0.21875 -0.390625 0.21875 -0.84375q0 -0.8125 -0.640625 -1.4375q-0.640625 -0.625 -1.578125 -0.625q-0.890625 0 -1.5 0.5625q-0.59375 0.5625 -0.78125 1.765625l-1.453125 -0.171875q0.203125 -1.609375 1.15625 -2.453125q0.96875 -0.859375 2.5625 -0.859375q1.671875 0 2.671875 0.921875q1.0 0.90625 1.0 2.203125q0 0.75 -0.359375 1.390625q-0.34375 0.625 -1.359375 1.53125q-0.6875 0.609375 -0.90625 0.90625q-0.203125 0.28125 -0.3125 0.65625q-0.09375 0.375 -0.109375 1.21875l-1.359375 0zm-0.078125 2.828125l0 -1.609375l1.59375 0l0 1.609375l-1.59375 0zm7.2734375 3.375l-1.015625 0q2.34375 -3.765625 2.34375 -7.515625q0 -1.46875 -0.34375 -2.921875q-0.265625 -1.171875 -0.734375 -2.25q-0.3125 -0.703125 -1.265625 -2.34375l1.015625 0q1.46875 1.96875 2.171875 3.9375q0.59375 1.703125 0.59375 3.5625q0 2.109375 -0.8125 4.09375q-0.796875 1.96875 -1.953125 3.4375z" fill-rule="nonzero"/><path fill="#ffffff" d="m987.44354 257.20734l155.02362 0l0 166.48819l-155.02362 0z" fill-rule="evenodd"/><path stroke="#999999" stroke-width="1.0" stroke-linejoin="round" stroke-linecap="butt" d="m987.44354 257.20734l155.02362 0l0 166.48819l-155.02362 0z" fill-rule="evenodd"/><path fill="#000000" d="m997.9904 340.8152q0 -5.703125 3.0625 -8.921875q3.0625 -3.234375 7.90625 -3.234375q3.171875 0 5.71875 1.515625q2.546875 1.515625 3.875 4.234375q1.34375 2.703125 1.34375 6.140625q0 3.484375 -1.40625 6.234375q-1.40625 2.75 -3.984375 4.171875q-2.578125 1.40625 -5.5625 1.40625q-3.234375 0 -5.78125 -1.5625q-2.546875 -1.5625 -3.859375 -4.265625q-1.3125 -2.703125 -1.3125 -5.71875zm3.125 0.046875q0 4.140625 2.21875 6.53125q2.234375 2.375 5.59375 2.375q3.421875 0 5.625 -2.40625q2.21875 -2.40625 2.21875 -6.828125q0 -2.796875 -0.953125 -4.875q-0.9375 -2.09375 -2.765625 -3.234375q-1.8125 -1.15625 -4.078125 -1.15625q-3.21875 0 -5.546875 2.21875q-2.3125 2.203125 -2.3125 7.375zm33.15631 5.03125l2.765625 0.359375q-0.453125 2.859375 -2.328125 4.484375q-1.859375 1.609375 -4.578125 1.609375q-3.40625 0 -5.484375 -2.21875q-2.062561 -2.234375 -2.062561 -6.390625q0 -2.6875 0.890625 -4.703125q0.89068604 -2.015625 2.703186 -3.015625q1.828125 -1.015625 3.96875 -1.015625q2.703125 0 4.421875 1.375q1.71875 1.359375 2.203125 3.875l-2.734375 0.421875q-0.390625 -1.671875 -1.390625 -2.515625q-0.984375 -0.84375 -2.390625 -0.84375q-2.125 0 -3.453125 1.53125q-1.328125 1.515625 -1.328125 4.8125q0 3.34375 1.28125 4.859375q1.28125 1.515625 3.34375 1.515625q1.65625 0 2.765625 -1.015625q1.109375 -1.015625 1.40625 -3.125zm16.0 0l2.765625 0.359375q-0.453125 2.859375 -2.328125 4.484375q-1.859375 1.609375 -4.578125 1.609375q-3.40625 0 -5.484375 -2.21875q-2.0625 -2.234375 -2.0625 -6.390625q0 -2.6875 0.890625 -4.703125q0.890625 -2.015625 2.703125 -3.015625q1.828125 -1.015625 3.96875 -1.015625q2.703125 0 4.421875 1.375q1.71875 1.359375 2.203125 3.875l-2.734375 0.421875q-0.390625 -1.671875 -1.390625 -2.515625q-0.984375 -0.84375 -2.390625 -0.84375q-2.125 0 -3.453125 1.53125q-1.328125 1.515625 -1.328125 4.8125q0 3.34375 1.28125 4.859375q1.28125 1.515625 3.34375 1.515625q1.65625 0 2.765625 -1.015625q1.109375 -1.015625 1.40625 -3.125zm16.046875 6.078125l0 -2.4375q-1.9375 2.8125 -5.265625 2.8125q-1.46875 0 -2.75 -0.5625q-1.265625 -0.5625 -1.890625 -1.40625q-0.609375 -0.859375 -0.859375 -2.09375q-0.171875 -0.828125 -0.171875 -2.625l0 -10.28125l2.8125 0l0 9.203125q0 2.203125 0.171875 2.96875q0.265625 1.109375 1.125 1.75q0.859375 0.625 2.125 0.625q1.265625 0 2.375 -0.640625q1.109375 -0.65625 1.5625 -1.765625q0.46875 -1.125 0.46875 -3.25l0 -8.890625l2.8125 0l0 16.59375l-2.515625 0zm6.921875 6.359375l0 -22.953125l2.5625 0l0 2.15625q0.90625 -1.265625 2.046875 -1.890625q1.140625 -0.640625 2.765625 -0.640625q2.125 0 3.75 1.09375q1.625 1.09375 2.453125 3.09375q0.828125 1.984375 0.828125 4.359375q0 2.546875 -0.921875 4.59375q-0.90625 2.03125 -2.65625 3.125q-1.734375 1.078125 -3.65625 1.078125q-1.40625 0 -2.53125 -0.59375q-1.109375 -0.59375 -1.828125 -1.5l0 8.078125l-2.8125 0zm2.546875 -14.5625q0 3.203125 1.296875 4.734375q1.296875 1.53125 3.140625 1.53125q1.875 0 3.203125 -1.578125q1.34375 -1.59375 1.34375 -4.921875q0 -3.171875 -1.3125 -4.75q-1.296875 -1.578125 -3.109375 -1.578125q-1.796875 0 -3.1875 1.6875q-1.375 1.671875 -1.375 4.875zm15.265625 -11.46875l0 -3.234375l2.8125 0l0 3.234375l-2.8125 0zm0 19.671875l0 -16.59375l2.8125 0l0 16.59375l-2.8125 0zm18.453125 -5.34375l2.90625 0.359375q-0.6875 2.546875 -2.546875 3.953125q-1.859375 1.40625 -4.75 1.40625q-3.640625 0 -5.78125 -2.234375q-2.125 -2.25 -2.125 -6.296875q0 -4.1875 2.15625 -6.5q2.15625 -2.3125 5.59375 -2.3125q3.328125 0 5.4375 2.265625q2.109375 2.265625 2.109375 6.375q0 0.25 -0.015625 0.75l-12.375 0q0.15625 2.734375 1.546875 4.1875q1.390625 1.453125 3.46875 1.453125q1.546875 0 2.640625 -0.8125q1.09375 -0.8125 1.734375 -2.59375zm-9.234375 -4.546875l9.265625 0q-0.1875 -2.09375 -1.0625 -3.140625q-1.34375 -1.625 -3.484375 -1.625q-1.9375 0 -3.265625 1.296875q-1.3125 1.296875 -1.453125 3.46875zm15.640625 9.890625l0 -16.59375l2.53125 0l0 2.515625q0.96875 -1.765625 1.78125 -2.328125q0.828125 -0.5625 1.8125 -0.5625q1.421875 0 2.890625 0.90625l-0.96875 2.609375q-1.03125 -0.609375 -2.0625 -0.609375q-0.921875 0 -1.65625 0.5625q-0.734375 0.546875 -1.046875 1.53125q-0.46875 1.5 -0.46875 3.28125l0 8.6875l-2.8125 0z" fill-rule="nonzero"/><path fill="#000000" fill-opacity="0.0" d="m987.44354 586.3963l-234.99213 0.25201416" fill-rule="evenodd"/><path stroke="#000000" stroke-width="1.0" stroke-linejoin="round" stroke-linecap="butt" d="m987.44354 586.3963l-228.99213 0.24554443" fill-rule="evenodd"/><path fill="#000000" stroke="#000000" stroke-width="1.0" stroke-linecap="butt" d="m758.44965 584.9901l-4.536316 1.6566162l4.539856 1.6468506z" fill-rule="evenodd"/><path fill="#000000" fill-opacity="0.0" d="m987.44354 571.5092l-211.27557 -0.25201416" fill-rule="evenodd"/><path stroke="#000000" stroke-width="1.0" stroke-linejoin="round" stroke-linecap="butt" d="m987.44354 571.5092l-205.27557 -0.24487305" fill-rule="evenodd"/><path fill="#000000" stroke="#000000" stroke-width="1.0" stroke-linecap="butt" d="m782.1699 569.6127l-4.540039 1.6463013l4.536133 1.6571045z" fill-rule="evenodd"/><path fill="#000000" fill-opacity="0.0" d="m987.44354 530.43036l-171.27557 0.25195312" fill-rule="evenodd"/><path stroke="#000000" stroke-width="1.0" stroke-linejoin="round" stroke-linecap="butt" d="m987.44354 530.4303l-165.27557 0.24316406" fill-rule="evenodd"/><path fill="#000000" stroke="#000000" stroke-width="1.0" stroke-linecap="butt" d="m822.1655 529.0217l-4.5356445 1.6583862l4.5405273 1.6450806z" fill-rule="evenodd"/><path fill="#000000" fill-opacity="0.0" d="m987.44354 462.4278l-173.35431 -0.40945435" fill-rule="evenodd"/><path stroke="#000000" stroke-width="1.0" stroke-linejoin="round" stroke-linecap="butt" d="m987.44354 462.4278l-167.35431 -0.39526367" fill-rule="evenodd"/><path fill="#000000" stroke="#000000" stroke-width="1.0" stroke-linecap="butt" d="m820.09314 460.38077l-4.541992 1.6410217l4.5341797 1.6624451z" fill-rule="evenodd"/><path fill="#000000" fill-opacity="0.0" d="m987.44354 340.45145l-197.22833 0.25195312" fill-rule="evenodd"/><path stroke="#000000" stroke-width="1.0" stroke-linejoin="round" stroke-linecap="butt" d="m987.44354 340.45145l-191.22833 0.24429321" fill-rule="evenodd"/><path fill="#000000" stroke="#000000" stroke-width="1.0" stroke-linecap="butt" d="m796.21313 339.044l-4.5360107 1.6575317l4.540222 1.645935z" fill-rule="evenodd"/><path fill="#000000" fill-opacity="0.0" d="m156.37791 403.74277c33.901093 0 50.463593 14.188995 67.80217 28.37796c17.338593 14.188995 35.453247 28.37796 70.906494 28.37796" fill-rule="evenodd"/><path stroke="#000000" stroke-width="4.0" stroke-linejoin="round" stroke-linecap="butt" d="m156.37791 403.74277c33.901077 0 50.463608 14.188995 67.802185 28.37796c8.669296 7.0944824 17.532608 14.188995 28.660248 19.509857c2.7819061 1.3302002 5.7053375 2.5495605 8.802628 3.630371c1.548645 0.54037476 3.1407776 1.0461731 4.7803955 1.5138245c0.8198242 0.23382568 1.6515198 0.45812988 2.4956055 0.67248535c0.4220276 0.10714722 0.84713745 0.21182251 1.2754211 0.31396484c0.21417236 0.05105591 0.42910767 0.101501465 0.6448364 0.15130615l0.3779297 0.08578491" fill-rule="evenodd"/><path fill="#000000" stroke="#000000" stroke-width="4.0" stroke-linecap="butt" d="m270.52884 464.56927l18.741943 -4.6798096l-17.365265 -8.462128z" fill-rule="evenodd"/></g></svg>