<svg version="1.1" viewBox="0.0 0.0 774.1181102362204 599.4173228346457" fill="none" stroke="none" stroke-linecap="square" stroke-miterlimit="10" xmlns:xlink="http://www.w3.org/1999/xlink" xmlns="http://www.w3.org/2000/svg"><clipPath id="p.0"><path d="m0 0l774.1181 0l0 599.4173l-774.1181 0l0 -599.4173z" clip-rule="nonzero"/></clipPath><g clip-path="url(#p.0)"><path fill="#000000" fill-opacity="0.0" d="m0 0l774.1181 0l0 599.4173l-774.1181 0z" fill-rule="evenodd"/><path fill="#dd7e6b" d="m2.8569553 297.30185l0 0c0 -161.95425 131.28986 -293.2441 293.24408 -293.2441l0 0c77.77316 0 152.36096 30.89527 207.35489 85.889206c54.993958 54.993935 85.88922 129.58173 85.88922 207.35489l0 0c0 161.95422 -131.28986 293.2441 -293.2441 293.2441l0 0c-161.95424 0 -293.24408 -131.28989 -293.24408 -293.2441z" fill-rule="evenodd"/><path stroke="#999999" stroke-width="1.0" stroke-linejoin="round" stroke-linecap="butt" d="m2.8569553 297.30185l0 0c0 -161.95425 131.28986 -293.2441 293.24408 -293.2441l0 0c77.77316 0 152.36096 30.89527 207.35489 85.889206c54.993958 54.993935 85.88922 129.58173 85.88922 207.35489l0 0c0 161.95422 -131.28986 293.2441 -293.2441 293.2441l0 0c-161.95424 0 -293.24408 -131.28989 -293.24408 -293.2441z" fill-rule="evenodd"/><path fill="#f4cccc" d="m14.347411 297.2966l0 0c0 -155.59645 126.14288 -281.7323 281.74802 -281.7323l0 0c74.72424 0 146.38794 29.682423 199.22595 82.51747c52.837982 52.835045 82.522064 124.49476 82.522064 199.21481l0 0c0 155.59644 -126.14285 281.73227 -281.74802 281.73227l0 0c-155.60513 0 -281.74802 -126.13583 -281.74802 -281.73227z" fill-rule="evenodd"/><path stroke="#999999" stroke-width="1.0" stroke-linejoin="round" stroke-linecap="butt" d="m14.347411 297.2966l0 0c0 -155.59645 126.14288 -281.7323 281.74802 -281.7323l0 0c74.72424 0 146.38794 29.682423 199.22595 82.51747c52.837982 52.835045 82.522064 124.49476 82.522064 199.21481l0 0c0 155.59644 -126.14285 281.73227 -281.74802 281.73227l0 0c-155.60513 0 -281.74802 -126.13583 -281.74802 -281.73227z" fill-rule="evenodd"/><path fill="#fce5cd" d="m38.58399 297.2966l0 0c0 -142.21986 115.29198 -257.51184 257.5118 -257.51184l0 0c68.29639 0 133.79553 27.13063 182.08835 75.42346c48.292847 48.29283 75.42346 113.79198 75.42346 182.08836l0 0c0 142.21985 -115.29196 257.5118 -257.5118 257.5118l0 0c-142.21983 0 -257.5118 -115.29196 -257.5118 -257.5118z" fill-rule="evenodd"/><path stroke="#999999" stroke-width="1.0" stroke-linejoin="round" stroke-linecap="butt" d="m38.58399 297.2966l0 0c0 -142.21986 115.29198 -257.51184 257.5118 -257.51184l0 0c68.29639 0 133.79553 27.13063 182.08835 75.42346c48.292847 48.29283 75.42346 113.79198 75.42346 182.08836l0 0c0 142.21985 -115.29196 257.5118 -257.5118 257.5118l0 0c-142.21983 0 -257.5118 -115.29196 -257.5118 -257.5118z" fill-rule="evenodd"/><path fill="#fff2cc" d="m94.20735 297.31497l0 0c0 -111.50935 90.39618 -201.90552 201.9055 -201.90552l0 0c53.548676 0 104.904144 21.272125 142.76877 59.136757c37.864624 37.864624 59.13675 89.22009 59.13675 142.76877l0 0c0 111.50934 -90.39618 201.90549 -201.90552 201.90549l0 0c-111.50932 0 -201.9055 -90.39615 -201.9055 -201.90549z" fill-rule="evenodd"/><path stroke="#999999" stroke-width="1.0" stroke-linejoin="round" stroke-linecap="butt" d="m94.20735 297.31497l0 0c0 -111.50935 90.39618 -201.90552 201.9055 -201.90552l0 0c53.548676 0 104.904144 21.272125 142.76877 59.136757c37.864624 37.864624 59.13675 89.22009 59.13675 142.76877l0 0c0 111.50934 -90.39618 201.90549 -201.90552 201.90549l0 0c-111.50932 0 -201.9055 -90.39615 -201.9055 -201.90549z" fill-rule="evenodd"/><path fill="#fff2cc" d="m608.5648 408.01263l155.02362 0l0 77.22833l-155.02362 0z" fill-rule="evenodd"/><path stroke="#999999" stroke-width="1.0" stroke-linejoin="round" stroke-linecap="butt" d="m608.5648 408.01263l155.02362 0l0 77.22833l-155.02362 0z" fill-rule="evenodd"/><path fill="#000000" d="m619.70544 440.2268l0 -19.078125l2.515625 0l0 7.828125l9.921875 0l0 -7.828125l2.53125 0l0 19.078125l-2.53125 0l0 -9.0l-9.921875 0l0 9.0l-2.515625 0zm18.76593 5.328125l-0.265625 -2.203125q0.765625 0.203125 1.34375 0.203125q0.78125 0 1.25 -0.265625q0.46875 -0.25 0.765625 -0.71875q0.21875 -0.359375 0.71875 -1.75q0.0625 -0.1875 0.203125 -0.5625l-5.25 -13.859375l2.53125 0l2.875 8.015625q0.5625 1.515625 1.0 3.203125q0.40625 -1.625 0.96875 -3.15625l2.953125 -8.0625l2.34375 0l-5.265625 14.0625q-0.84375 2.28125 -1.3125 3.140625q-0.625 1.15625 -1.4375 1.6875q-0.796875 0.546875 -1.921875 0.546875q-0.671875 0 -1.5 -0.28125zm13.421875 -0.03125l0 -19.125l2.140625 0l0 1.796875q0.75 -1.046875 1.703125 -1.578125q0.953125 -0.53125 2.3125 -0.53125q1.765625 0 3.109375 0.921875q1.359375 0.90625 2.046875 2.5625q0.6875 1.65625 0.6875 3.640625q0 2.125 -0.765625 3.828125q-0.75 1.6875 -2.203125 2.59375q-1.453125 0.90625 -3.046875 0.90625q-1.171875 0 -2.109375 -0.484375q-0.921875 -0.5 -1.53125 -1.265625l0 6.734375l-2.34375 0zm2.125 -12.125q0 2.65625 1.078125 3.9375q1.09375 1.28125 2.625 1.28125q1.5625 0 2.671875 -1.3125q1.109375 -1.328125 1.109375 -4.109375q0 -2.640625 -1.09375 -3.953125q-1.078125 -1.3125 -2.59375 -1.3125q-1.484375 0 -2.640625 1.40625q-1.15625 1.390625 -1.15625 4.0625zm22.168701 2.375l2.421875 0.296875q-0.578125 2.125 -2.125 3.296875q-1.546875 1.171875 -3.953125 1.171875q-3.03125 0 -4.8125 -1.859375q-1.78125 -1.875 -1.78125 -5.25q0 -3.484375 1.796875 -5.40625q1.796875 -1.9375 4.671875 -1.9375q2.765625 0 4.515625 1.890625q1.765625 1.890625 1.765625 5.3125q0 0.203125 -0.015625 0.625l-10.3125 0q0.140625 2.28125 1.296875 3.5q1.15625 1.203125 2.890625 1.203125q1.28125 0 2.1875 -0.671875q0.921875 -0.6875 1.453125 -2.171875zm-7.6875 -3.78125l7.71875 0q-0.15625 -1.75 -0.890625 -2.625q-1.125 -1.34375 -2.90625 -1.34375q-1.609375 0 -2.71875 1.078125q-1.09375 1.078125 -1.203125 2.890625zm13.028076 8.234375l0 -13.828125l2.109375 0l0 2.09375q0.796875 -1.46875 1.484375 -1.9375q0.6875 -0.46875 1.5 -0.46875q1.1875 0 2.40625 0.765625l-0.796875 2.171875q-0.859375 -0.515625 -1.71875 -0.515625q-0.765625 0 -1.390625 0.46875q-0.609375 0.453125 -0.859375 1.28125q-0.390625 1.25 -0.390625 2.734375l0 7.234375l-2.34375 0zm7.986084 -5.734375l0 -2.34375l7.203125 0l0 2.34375l-7.203125 0zm9.736145 5.734375l0 -19.078125l2.34375 0l0 19.078125l-2.34375 0zm5.109619 -6.90625q0 -3.84375 2.125 -5.6875q1.78125 -1.546875 4.34375 -1.546875q2.859375 0 4.65625 1.875q1.8125 1.859375 1.8125 5.15625q0 2.671875 -0.796875 4.203125q-0.796875 1.53125 -2.328125 2.375q-1.53125 0.84375 -3.34375 0.84375q-2.890625 0 -4.6875 -1.859375q-1.78125 -1.859375 -1.78125 -5.359375zm2.40625 0q0 2.65625 1.15625 3.984375q1.15625 1.3125 2.90625 1.3125q1.75 0 2.90625 -1.328125q1.15625 -1.328125 1.15625 -4.046875q0 -2.5625 -1.171875 -3.890625q-1.15625 -1.328125 -2.890625 -1.328125q-1.75 0 -2.90625 1.328125q-1.15625 1.3125 -1.15625 3.96875zm22.309326 1.84375l2.296875 0.296875q-0.375 2.390625 -1.9375 3.734375q-1.546875 1.34375 -3.8125 1.34375q-2.84375 0 -4.5625 -1.84375q-1.71875 -1.859375 -1.71875 -5.328125q0 -2.234375 0.734375 -3.90625q0.75 -1.6875 2.265625 -2.53125q1.515625 -0.84375 3.296875 -0.84375q2.25 0 3.671875 1.140625q1.4375 1.140625 1.84375 3.234375l-2.28125 0.359375q-0.328125 -1.390625 -1.15625 -2.09375q-0.8125 -0.703125 -1.984375 -0.703125q-1.78125 0 -2.890625 1.265625q-1.09375 1.265625 -1.09375 4.015625q0 2.78125 1.0625 4.046875q1.0625 1.265625 2.78125 1.265625q1.390625 0 2.3125 -0.84375q0.921875 -0.859375 1.171875 -2.609375zm13.328125 3.359375q-1.3125 1.109375 -2.515625 1.5625q-1.203125 0.453125 -2.578125 0.453125q-2.28125 0 -3.5 -1.109375q-1.21875 -1.109375 -1.21875 -2.84375q0 -1.015625 0.453125 -1.859375q0.46875 -0.84375 1.21875 -1.34375q0.75 -0.515625 1.6875 -0.765625q0.6875 -0.1875 2.078125 -0.359375q2.828125 -0.328125 4.171875 -0.796875q0.015625 -0.484375 0.015625 -0.625q0 -1.421875 -0.65625 -2.015625q-0.90625 -0.796875 -2.671875 -0.796875q-1.65625 0 -2.453125 0.59375q-0.78125 0.578125 -1.15625 2.046875l-2.296875 -0.3125q0.3125 -1.46875 1.03125 -2.375q0.71875 -0.90625 2.0625 -1.390625q1.359375 -0.5 3.140625 -0.5q1.78125 0 2.875 0.421875q1.109375 0.421875 1.625 1.046875q0.53125 0.625 0.734375 1.59375q0.125 0.59375 0.125 2.15625l0 3.125q0 3.265625 0.140625 4.140625q0.15625 0.859375 0.59375 1.65625l-2.4375 0q-0.375 -0.734375 -0.46875 -1.703125zm-0.203125 -5.234375q-1.265625 0.515625 -3.828125 0.890625q-1.4375 0.203125 -2.046875 0.46875q-0.59375 0.25 -0.921875 0.75q-0.3125 0.5 -0.3125 1.125q0 0.9375 0.703125 1.5625q0.703125 0.625 2.078125 0.625q1.34375 0 2.390625 -0.59375q1.0625 -0.59375 1.5625 -1.625q0.375 -0.796875 0.375 -2.34375l0 -0.859375zm5.949951 6.9375l0 -19.078125l2.34375 0l0 19.078125l-2.34375 0z" fill-rule="nonzero"/><path fill="#000000" d="m633.2367 465.5393l2.53125 0.640625q-0.796875 3.109375 -2.859375 4.75q-2.0625 1.625 -5.046875 1.625q-3.09375 0 -5.03125 -1.25q-1.921875 -1.265625 -2.9375 -3.640625q-1.0 -2.390625 -1.0 -5.125q0 -2.984375 1.140625 -5.203125q1.140625 -2.21875 3.234375 -3.359375q2.109375 -1.15625 4.625 -1.15625q2.875 0 4.828125 1.46875q1.953125 1.453125 2.71875 4.09375l-2.484375 0.578125q-0.671875 -2.078125 -1.9375 -3.03125q-1.25 -0.953125 -3.171875 -0.953125q-2.203125 0 -3.6875 1.0625q-1.46875 1.046875 -2.0625 2.828125q-0.59375 1.78125 -0.59375 3.65625q0 2.4375 0.703125 4.265625q0.703125 1.8125 2.203125 2.71875q1.5 0.890625 3.25 0.890625q2.109375 0 3.578125 -1.21875q1.484375 -1.234375 2.0 -3.640625zm4.469055 -0.21875q0 -3.84375 2.125 -5.6875q1.78125 -1.546875 4.34375 -1.546875q2.859375 0 4.65625 1.875q1.8125 1.859375 1.8125 5.15625q0 2.671875 -0.796875 4.203125q-0.796875 1.53125 -2.328125 2.375q-1.53125 0.84375 -3.34375 0.84375q-2.890625 0 -4.6875 -1.859375q-1.78125 -1.859375 -1.78125 -5.359375zm2.40625 0q0 2.65625 1.15625 3.984375q1.15625 1.3125 2.90625 1.3125q1.75 0 2.90625 -1.328125q1.15625 -1.328125 1.15625 -4.046875q0 -2.5625 -1.171875 -3.890625q-1.15625 -1.328125 -2.890625 -1.328125q-1.75 0 -2.90625 1.328125q-1.15625 1.3125 -1.15625 3.96875zm13.278076 6.90625l0 -13.828125l2.109375 0l0 1.9375q0.640625 -1.015625 1.71875 -1.625q1.09375 -0.625 2.46875 -0.625q1.53125 0 2.515625 0.640625q0.984375 0.640625 1.390625 1.78125q1.640625 -2.421875 4.265625 -2.421875q2.0625 0 3.15625 1.140625q1.109375 1.140625 1.109375 3.515625l0 9.484375l-2.328125 0l0 -8.703125q0 -1.40625 -0.234375 -2.015625q-0.21875 -0.625 -0.828125 -1.0q-0.59375 -0.390625 -1.390625 -0.390625q-1.46875 0 -2.4375 0.96875q-0.953125 0.96875 -0.953125 3.109375l0 8.03125l-2.34375 0l0 -8.984375q0 -1.5625 -0.578125 -2.34375q-0.5625 -0.78125 -1.875 -0.78125q-0.984375 0 -1.828125 0.53125q-0.828125 0.515625 -1.21875 1.515625q-0.375 1.0 -0.375 2.890625l0 7.171875l-2.34375 0zm22.204834 0l0 -13.828125l2.109375 0l0 1.9375q0.640625 -1.015625 1.71875 -1.625q1.09375 -0.625 2.46875 -0.625q1.53125 0 2.515625 0.640625q0.984375 0.640625 1.390625 1.78125q1.640625 -2.421875 4.265625 -2.421875q2.0625 0 3.15625 1.140625q1.109375 1.140625 1.109375 3.515625l0 9.484375l-2.328125 0l0 -8.703125q0 -1.40625 -0.234375 -2.015625q-0.21875 -0.625 -0.828125 -1.0q-0.59375 -0.390625 -1.390625 -0.390625q-1.46875 0 -2.4375 0.96875q-0.953125 0.96875 -0.953125 3.109375l0 8.03125l-2.34375 0l0 -8.984375q0 -1.5625 -0.578125 -2.34375q-0.5625 -0.78125 -1.875 -0.78125q-0.984375 0 -1.828125 0.53125q-0.828125 0.515625 -1.21875 1.515625q-0.375 1.0 -0.375 2.890625l0 7.171875l-2.34375 0zm31.267395 0l0 -2.03125q-1.609375 2.34375 -4.375 2.34375q-1.234375 0 -2.296875 -0.46875q-1.0625 -0.46875 -1.578125 -1.171875q-0.5 -0.71875 -0.71875 -1.75q-0.140625 -0.6875 -0.140625 -2.1875l0 -8.5625l2.34375 0l0 7.671875q0 1.828125 0.140625 2.46875q0.21875 0.921875 0.9375 1.453125q0.71875 0.53125 1.765625 0.53125q1.0625 0 1.984375 -0.53125q0.921875 -0.546875 1.296875 -1.46875q0.390625 -0.9375 0.390625 -2.71875l0 -7.40625l2.34375 0l0 13.828125l-2.09375 0zm5.762451 0l0 -13.828125l2.109375 0l0 1.96875q1.53125 -2.28125 4.40625 -2.28125q1.25 0 2.296875 0.453125q1.046875 0.453125 1.5625 1.1875q0.53125 0.71875 0.734375 1.71875q0.125 0.65625 0.125 2.28125l0 8.5l-2.34375 0l0 -8.40625q0 -1.4375 -0.28125 -2.140625q-0.265625 -0.71875 -0.96875 -1.140625q-0.6875 -0.421875 -1.625 -0.421875q-1.484375 0 -2.578125 0.953125q-1.09375 0.953125 -1.09375 3.609375l0 7.546875l-2.34375 0zm14.840515 -16.390625l0 -2.6875l2.34375 0l0 2.6875l-2.34375 0zm0 16.390625l0 -13.828125l2.34375 0l0 13.828125l-2.34375 0zm11.031555 -2.09375l0.328125 2.0625q-0.984375 0.21875 -1.765625 0.21875q-1.265625 0 -1.96875 -0.40625q-0.703125 -0.40625 -1.0 -1.0625q-0.28125 -0.65625 -0.28125 -2.765625l0 -7.953125l-1.71875 0l0 -1.828125l1.71875 0l0 -3.421875l2.328125 -1.40625l0 4.828125l2.359375 0l0 1.828125l-2.359375 0l0 8.078125q0 1.0 0.125 1.296875q0.125 0.28125 0.40625 0.453125q0.28125 0.171875 0.796875 0.171875q0.390625 0 1.03125 -0.09375zm2.1871948 7.421875l-0.265625 -2.203125q0.765625 0.203125 1.34375 0.203125q0.78125 0 1.25 -0.265625q0.46875 -0.25 0.765625 -0.71875q0.21875 -0.359375 0.71875 -1.75q0.0625 -0.1875 0.203125 -0.5625l-5.25 -13.859375l2.53125 0l2.875 8.015625q0.5625 1.515625 1.0 3.203125q0.40625 -1.625 0.96875 -3.15625l2.953125 -8.0625l2.34375 0l-5.265625 14.0625q-0.84375 2.28125 -1.3125 3.140625q-0.625 1.15625 -1.4375 1.6875q-0.796875 0.546875 -1.921875 0.546875q-0.671875 0 -1.5 -0.28125z" fill-rule="nonzero"/><path fill="#dd7e6b" d="m584.5596 575.7533l155.02362 0l0 18.204712l-155.02362 0z" fill-rule="evenodd"/><path stroke="#999999" stroke-width="1.0" stroke-linejoin="round" stroke-linecap="butt" d="m584.5596 575.7533l155.02362 0l0 18.204712l-155.02362 0z" fill-rule="evenodd"/><path fill="#000000" d="m594.1533 586.59314l1.203125 -0.109375q0.078125 0.71875 0.390625 1.1875q0.3125 0.453125 0.953125 0.734375q0.65625 0.28125 1.46875 0.28125q0.71875 0 1.265625 -0.21875q0.5625 -0.21875 0.828125 -0.578125q0.265625 -0.375 0.265625 -0.828125q0 -0.453125 -0.265625 -0.78125q-0.25 -0.328125 -0.84375 -0.5625q-0.390625 -0.15625 -1.703125 -0.46875q-1.3125 -0.3125 -1.84375 -0.59375q-0.671875 -0.359375 -1.015625 -0.890625q-0.328125 -0.53125 -0.328125 -1.1875q0 -0.71875 0.40625 -1.34375q0.40625 -0.625 1.1875 -0.953125q0.796875 -0.328125 1.765625 -0.328125q1.046875 0 1.859375 0.34375q0.8125 0.34375 1.25 1.015625q0.4375 0.65625 0.46875 1.484375l-1.203125 0.09375q-0.109375 -0.90625 -0.671875 -1.359375q-0.5625 -0.46875 -1.65625 -0.46875q-1.140625 0 -1.671875 0.421875q-0.515625 0.421875 -0.515625 1.015625q0 0.515625 0.359375 0.84375q0.375 0.328125 1.90625 0.6875q1.546875 0.34375 2.109375 0.59375q0.84375 0.390625 1.234375 0.984375q0.390625 0.578125 0.390625 1.359375q0 0.75 -0.4375 1.4375q-0.421875 0.671875 -1.25 1.046875q-0.8125 0.359375 -1.828125 0.359375q-1.296875 0 -2.171875 -0.375q-0.875 -0.375 -1.375 -1.125q-0.5 -0.765625 -0.53125 -1.71875zm11.7335205 2.015625l0.171875 1.03125q-0.5 0.109375 -0.890625 0.109375q-0.640625 0 -1.0 -0.203125q-0.34375 -0.203125 -0.484375 -0.53125q-0.140625 -0.328125 -0.140625 -1.390625l0 -3.96875l-0.859375 0l0 -0.90625l0.859375 0l0 -1.71875l1.171875 -0.703125l0 2.421875l1.171875 0l0 0.90625l-1.171875 0l0 4.046875q0 0.5 0.046875 0.640625q0.0625 0.140625 0.203125 0.234375q0.140625 0.078125 0.40625 0.078125q0.203125 0 0.515625 -0.046875zm5.656067 0.1875q-0.65625 0.5625 -1.265625 0.796875q-0.59375 0.21875 -1.28125 0.21875q-1.140625 0 -1.75 -0.546875q-0.609375 -0.5625 -0.609375 -1.4375q0 -0.5 0.21875 -0.921875q0.234375 -0.421875 0.609375 -0.671875q0.375 -0.25 0.84375 -0.390625q0.34375 -0.078125 1.046875 -0.171875q1.421875 -0.171875 2.09375 -0.40625q0 -0.234375 0 -0.296875q0 -0.71875 -0.328125 -1.015625q-0.453125 -0.390625 -1.34375 -0.390625q-0.8125 0 -1.21875 0.296875q-0.390625 0.28125 -0.578125 1.015625l-1.140625 -0.15625q0.15625 -0.734375 0.515625 -1.1875q0.359375 -0.453125 1.03125 -0.6875q0.671875 -0.25 1.5625 -0.25q0.890625 0 1.4375 0.203125q0.5625 0.203125 0.8125 0.53125q0.265625 0.3125 0.375 0.796875q0.046875 0.296875 0.046875 1.078125l0 1.5625q0 1.625 0.078125 2.0625q0.078125 0.4375 0.296875 0.828125l-1.21875 0q-0.1875 -0.359375 -0.234375 -0.859375zm-0.09375 -2.609375q-0.640625 0.265625 -1.921875 0.4375q-0.71875 0.109375 -1.015625 0.25q-0.296875 0.125 -0.46875 0.375q-0.15625 0.25 -0.15625 0.546875q0 0.46875 0.34375 0.78125q0.359375 0.3125 1.046875 0.3125q0.671875 0 1.203125 -0.296875q0.53125 -0.296875 0.78125 -0.8125q0.1875 -0.390625 0.1875 -1.171875l0 -0.421875zm5.5531006 2.421875l0.171875 1.03125q-0.5 0.109375 -0.890625 0.109375q-0.640625 0 -1.0 -0.203125q-0.34375 -0.203125 -0.484375 -0.53125q-0.140625 -0.328125 -0.140625 -1.390625l0 -3.96875l-0.859375 0l0 -0.90625l0.859375 0l0 -1.71875l1.171875 -0.703125l0 2.421875l1.171875 0l0 0.90625l-1.171875 0l0 4.046875q0 0.5 0.046875 0.640625q0.0625 0.140625 0.203125 0.234375q0.140625 0.078125 0.40625 0.078125q0.203125 0 0.515625 -0.046875zm5.874878 -1.171875l1.203125 0.140625q-0.28125 1.0625 -1.0625 1.65625q-0.765625 0.578125 -1.96875 0.578125q-1.515625 0 -2.40625 -0.9375q-0.890625 -0.9375 -0.890625 -2.609375q0 -1.75 0.890625 -2.703125q0.90625 -0.96875 2.34375 -0.96875q1.390625 0 2.265625 0.9375q0.875 0.9375 0.875 2.65625q0 0.109375 0 0.3125l-5.15625 0q0.0625 1.140625 0.640625 1.75q0.578125 0.59375 1.4375 0.59375q0.65625 0 1.109375 -0.328125q0.453125 -0.34375 0.71875 -1.078125zm-3.84375 -1.90625l3.859375 0q-0.078125 -0.859375 -0.4375 -1.296875q-0.5625 -0.6875 -1.453125 -0.6875q-0.8125 0 -1.359375 0.546875q-0.546875 0.53125 -0.609375 1.4375zm12.4748535 6.9375q-0.984375 -1.234375 -1.65625 -2.875q-0.65625 -1.640625 -0.65625 -3.390625q0 -1.546875 0.5 -2.96875q0.578125 -1.640625 1.8125 -3.28125l0.828125 0q-0.78125 1.359375 -1.03125 1.9375q-0.40625 0.890625 -0.625 1.875q-0.28125 1.21875 -0.28125 2.4375q0 3.140625 1.9375 6.265625l-0.828125 0zm4.3914795 -5.15625q-0.015625 -0.234375 -0.015625 -0.359375q0 -0.6875 0.203125 -1.1875q0.140625 -0.375 0.453125 -0.765625q0.234375 -0.28125 0.84375 -0.8125q0.609375 -0.53125 0.78125 -0.84375q0.1875 -0.328125 0.1875 -0.703125q0 -0.6875 -0.53125 -1.203125q-0.53125 -0.515625 -1.296875 -0.515625q-0.75 0 -1.25 0.46875q-0.5 0.46875 -0.65625 1.453125l-1.21875 -0.140625q0.171875 -1.328125 0.96875 -2.03125q0.8125 -0.71875 2.125 -0.71875q1.40625 0 2.234375 0.765625q0.828125 0.75 0.828125 1.84375q0 0.625 -0.296875 1.15625q-0.28125 0.515625 -1.140625 1.265625q-0.5625 0.515625 -0.75 0.765625q-0.171875 0.234375 -0.265625 0.546875q-0.078125 0.3125 -0.078125 1.015625l-1.125 0zm-0.078125 2.34375l0 -1.328125l1.328125 0l0 1.328125l-1.328125 0zm6.0531006 2.8125l-0.828125 0q1.9375 -3.125 1.9375 -6.265625q0 -1.21875 -0.28125 -2.421875q-0.21875 -0.984375 -0.609375 -1.875q-0.265625 -0.59375 -1.046875 -1.953125l0.828125 0q1.234375 1.640625 1.8125 3.28125q0.5 1.421875 0.5 2.96875q0 1.75 -0.671875 3.390625q-0.671875 1.640625 -1.640625 2.875z" fill-rule="nonzero"/><path fill="#fce5cd" d="m600.5648 502.06302l155.02362 0l0 49.480316l-155.02362 0z" fill-rule="evenodd"/><path stroke="#999999" stroke-width="1.0" stroke-linejoin="round" stroke-linecap="butt" d="m600.5648 502.06302l155.02362 0l0 49.480316l-155.02362 0z" fill-rule="evenodd"/><path fill="#000000" d="m610.51794 516.7769l1.90625 -0.171875q0.140625 1.15625 0.625 1.890625q0.5 0.734375 1.546875 1.1875q1.046875 0.453125 2.34375 0.453125q1.15625 0 2.03125 -0.34375q0.890625 -0.34375 1.3125 -0.9375q0.4375 -0.609375 0.4375 -1.3125q0 -0.71875 -0.421875 -1.25q-0.40625 -0.546875 -1.359375 -0.90625q-0.609375 -0.25 -2.71875 -0.75q-2.109375 -0.5 -2.953125 -0.953125q-1.09375 -0.578125 -1.625 -1.421875q-0.53125 -0.84375 -0.53125 -1.890625q0 -1.15625 0.65625 -2.15625q0.65625 -1.015625 1.90625 -1.53125q1.265625 -0.53125 2.8125 -0.53125q1.6875 0 2.984375 0.546875q1.296875 0.546875 1.984375 1.609375q0.703125 1.0625 0.765625 2.40625l-1.9375 0.15625q-0.15625 -1.453125 -1.0625 -2.1875q-0.890625 -0.75 -2.65625 -0.75q-1.828125 0 -2.671875 0.671875q-0.84375 0.671875 -0.84375 1.625q0 0.8125 0.59375 1.34375q0.59375 0.53125 3.046875 1.09375q2.46875 0.5625 3.390625 0.96875q1.328125 0.625 1.953125 1.5625q0.640625 0.9375 0.640625 2.171875q0 1.21875 -0.703125 2.296875q-0.6875 1.078125 -2.0 1.6875q-1.296875 0.59375 -2.9375 0.59375q-2.078125 0 -3.484375 -0.609375q-1.390625 -0.609375 -2.1875 -1.8125q-0.796875 -1.21875 -0.84375 -2.75zm21.928833 4.90625l0 -1.625q-1.296875 1.875 -3.515625 1.875q-0.96875 0 -1.828125 -0.375q-0.84375 -0.375 -1.265625 -0.9375q-0.40625 -0.578125 -0.5625 -1.390625q-0.125 -0.5625 -0.125 -1.75l0 -6.859375l1.875 0l0 6.140625q0 1.46875 0.125 1.96875q0.171875 0.75 0.734375 1.171875q0.578125 0.421875 1.421875 0.421875q0.84375 0 1.578125 -0.4375q0.75 -0.4375 1.046875 -1.171875q0.3125 -0.75 0.3125 -2.171875l0 -5.921875l1.875 0l0 11.0625l-1.671875 0zm4.5960693 0l0 -11.0625l1.6875 0l0 1.671875q0.640625 -1.171875 1.1875 -1.546875q0.546875 -0.375 1.203125 -0.375q0.953125 0 1.921875 0.609375l-0.640625 1.734375q-0.6875 -0.40625 -1.375 -0.40625q-0.609375 0 -1.109375 0.375q-0.484375 0.359375 -0.6875 1.015625q-0.3125 1.0 -0.3125 2.1875l0 5.796875l-1.875 0zm7.102417 0l0 -11.0625l1.6875 0l0 1.671875q0.640625 -1.171875 1.1875 -1.546875q0.546875 -0.375 1.203125 -0.375q0.953125 0 1.921875 0.609375l-0.640625 1.734375q-0.6875 -0.40625 -1.375 -0.40625q-0.609375 0 -1.109375 0.375q-0.484375 0.359375 -0.6875 1.015625q-0.3125 1.0 -0.3125 2.1875l0 5.796875l-1.875 0zm6.414917 -5.53125q0 -3.078125 1.71875 -4.546875q1.421875 -1.234375 3.46875 -1.234375q2.28125 0 3.71875 1.5q1.453125 1.484375 1.453125 4.125q0 2.140625 -0.640625 3.359375q-0.625 1.21875 -1.859375 1.90625q-1.21875 0.671875 -2.671875 0.671875q-2.3125 0 -3.75 -1.484375q-1.4375 -1.5 -1.4375 -4.296875zm1.9375 0q0 2.125 0.921875 3.1875q0.921875 1.046875 2.328125 1.046875q1.40625 0 2.328125 -1.0625q0.921875 -1.0625 0.921875 -3.234375q0 -2.046875 -0.9375 -3.109375q-0.921875 -1.0625 -2.3125 -1.0625q-1.40625 0 -2.328125 1.0625q-0.921875 1.046875 -0.921875 3.171875zm17.87732 5.53125l0 -1.625q-1.296875 1.875 -3.515625 1.875q-0.96875 0 -1.828125 -0.375q-0.84375 -0.375 -1.265625 -0.9375q-0.40625 -0.578125 -0.5625 -1.390625q-0.125 -0.5625 -0.125 -1.75l0 -6.859375l1.875 0l0 6.140625q0 1.46875 0.125 1.96875q0.171875 0.75 0.734375 1.171875q0.578125 0.421875 1.421875 0.421875q0.84375 0 1.578125 -0.4375q0.75 -0.4375 1.046875 -1.171875q0.3125 -0.75 0.3125 -2.171875l0 -5.921875l1.875 0l0 11.0625l-1.671875 0zm4.6116943 0l0 -11.0625l1.6875 0l0 1.578125q1.21875 -1.828125 3.515625 -1.828125q1.0 0 1.84375 0.359375q0.84375 0.359375 1.25 0.953125q0.421875 0.578125 0.59375 1.375q0.09375 0.515625 0.09375 1.828125l0 6.796875l-1.875 0l0 -6.734375q0 -1.140625 -0.21875 -1.703125q-0.21875 -0.578125 -0.78125 -0.90625q-0.546875 -0.34375 -1.296875 -0.34375q-1.203125 0 -2.078125 0.765625q-0.859375 0.75 -0.859375 2.875l0 6.046875l-1.875 0zm19.03357 0l0 -1.390625q-1.046875 1.640625 -3.09375 1.640625q-1.3125 0 -2.421875 -0.71875q-1.109375 -0.734375 -1.71875 -2.046875q-0.609375 -1.3125 -0.609375 -3.0q0 -1.65625 0.546875 -3.0q0.546875 -1.359375 1.65625 -2.078125q1.109375 -0.71875 2.46875 -0.71875q1.0 0 1.78125 0.421875q0.78125 0.421875 1.265625 1.09375l0 -5.46875l1.875 0l0 15.265625l-1.75 0zm-5.921875 -5.515625q0 2.125 0.890625 3.171875q0.90625 1.046875 2.125 1.046875q1.21875 0 2.078125 -1.0q0.859375 -1.0 0.859375 -3.0625q0 -2.28125 -0.875 -3.34375q-0.875 -1.0625 -2.15625 -1.0625q-1.25 0 -2.09375 1.03125q-0.828125 1.015625 -0.828125 3.21875zm10.627319 -7.59375l0 -2.15625l1.875 0l0 2.15625l-1.875 0zm0 13.109375l0 -11.0625l1.875 0l0 11.0625l-1.875 0zm4.7228394 0l0 -11.0625l1.6875 0l0 1.578125q1.21875 -1.828125 3.515625 -1.828125q1.0 0 1.84375 0.359375q0.84375 0.359375 1.25 0.953125q0.421875 0.578125 0.59375 1.375q0.09375 0.515625 0.09375 1.828125l0 6.796875l-1.875 0l0 -6.734375q0 -1.140625 -0.21875 -1.703125q-0.21875 -0.578125 -0.78125 -0.90625q-0.546875 -0.34375 -1.296875 -0.34375q-1.203125 0 -2.078125 0.765625q-0.859375 0.75 -0.859375 2.875l0 6.046875l-1.875 0zm11.517944 0.921875l1.828125 0.265625q0.109375 0.84375 0.625 1.234375q0.703125 0.515625 1.90625 0.515625q1.3125 0 2.015625 -0.53125q0.703125 -0.515625 0.953125 -1.453125q0.15625 -0.5625 0.140625 -2.40625q-1.234375 1.453125 -3.0625 1.453125q-2.28125 0 -3.53125 -1.640625q-1.25 -1.65625 -1.25 -3.953125q0 -1.578125 0.5625 -2.921875q0.578125 -1.34375 1.671875 -2.0625q1.09375 -0.734375 2.5625 -0.734375q1.953125 0 3.21875 1.578125l0 -1.328125l1.734375 0l0 9.5625q0 2.578125 -0.53125 3.65625q-0.515625 1.078125 -1.65625 1.703125q-1.140625 0.625 -2.8125 0.625q-1.984375 0 -3.203125 -0.890625q-1.21875 -0.890625 -1.171875 -2.671875zm1.546875 -6.65625q0 2.1875 0.859375 3.1875q0.875 1.0 2.171875 1.0q1.296875 0 2.171875 -1.0q0.875 -1.0 0.875 -3.125q0 -2.03125 -0.90625 -3.0625q-0.890625 -1.03125 -2.171875 -1.03125q-1.25 0 -2.125 1.015625q-0.875 1.015625 -0.875 3.015625z" fill-rule="nonzero"/><path fill="#000000" d="m622.09607 541.92377l2.03125 0.515625q-0.640625 2.484375 -2.296875 3.796875q-1.640625 1.3125 -4.03125 1.3125q-2.46875 0 -4.015625 -1.0q-1.546875 -1.015625 -2.359375 -2.921875q-0.796875 -1.90625 -0.796875 -4.09375q0 -2.390625 0.90625 -4.15625q0.921875 -1.78125 2.59375 -2.703125q1.6875 -0.921875 3.703125 -0.921875q2.296875 0 3.859375 1.171875q1.5625 1.171875 2.171875 3.28125l-1.984375 0.46875q-0.53125 -1.671875 -1.546875 -2.421875q-1.0 -0.765625 -2.53125 -0.765625q-1.765625 0 -2.953125 0.84375q-1.171875 0.84375 -1.65625 2.265625q-0.484375 1.421875 -0.484375 2.921875q0 1.953125 0.5625 3.40625q0.578125 1.453125 1.765625 2.171875q1.203125 0.71875 2.609375 0.71875q1.6875 0 2.859375 -0.96875q1.1875 -0.984375 1.59375 -2.921875zm3.5743408 -0.171875q0 -3.078125 1.71875 -4.546875q1.421875 -1.234375 3.46875 -1.234375q2.28125 0 3.71875 1.5q1.453125 1.484375 1.453125 4.125q0 2.140625 -0.640625 3.359375q-0.625 1.21875 -1.859375 1.90625q-1.21875 0.671875 -2.671875 0.671875q-2.3125 0 -3.75 -1.484375q-1.4375 -1.5 -1.4375 -4.296875zm1.9375 0q0 2.125 0.921875 3.1875q0.921875 1.046875 2.328125 1.046875q1.40625 0 2.328125 -1.0625q0.921875 -1.0625 0.921875 -3.234375q0 -2.046875 -0.9375 -3.109375q-0.921875 -1.0625 -2.3125 -1.0625q-1.40625 0 -2.328125 1.0625q-0.921875 1.046875 -0.921875 3.171875zm10.627319 5.53125l0 -11.0625l1.671875 0l0 1.546875q0.53125 -0.8125 1.390625 -1.296875q0.859375 -0.5 1.96875 -0.5q1.234375 0 2.015625 0.515625q0.78125 0.5 1.109375 1.421875q1.3125 -1.9375 3.40625 -1.9375q1.65625 0 2.53125 0.921875q0.890625 0.90625 0.890625 2.796875l0 7.59375l-1.859375 0l0 -6.96875q0 -1.125 -0.1875 -1.609375q-0.1875 -0.5 -0.671875 -0.796875q-0.46875 -0.3125 -1.109375 -0.3125q-1.171875 0 -1.9375 0.78125q-0.765625 0.765625 -0.765625 2.484375l0 6.421875l-1.875 0l0 -7.1875q0 -1.25 -0.46875 -1.875q-0.453125 -0.625 -1.5 -0.625q-0.78125 0 -1.453125 0.421875q-0.671875 0.40625 -0.984375 1.21875q-0.296875 0.796875 -0.296875 2.3125l0 5.734375l-1.875 0zm17.76654 0l0 -11.0625l1.671875 0l0 1.546875q0.53125 -0.8125 1.390625 -1.296875q0.859375 -0.5 1.96875 -0.5q1.234375 0 2.015625 0.515625q0.78125 0.5 1.109375 1.421875q1.3125 -1.9375 3.40625 -1.9375q1.65625 0 2.53125 0.921875q0.890625 0.90625 0.890625 2.796875l0 7.59375l-1.859375 0l0 -6.96875q0 -1.125 -0.1875 -1.609375q-0.1875 -0.5 -0.671875 -0.796875q-0.46875 -0.3125 -1.109375 -0.3125q-1.171875 0 -1.9375 0.78125q-0.765625 0.765625 -0.765625 2.484375l0 6.421875l-1.875 0l0 -7.1875q0 -1.25 -0.46875 -1.875q-0.453125 -0.625 -1.5 -0.625q-0.78125 0 -1.453125 0.421875q-0.671875 0.40625 -0.984375 1.21875q-0.296875 0.796875 -0.296875 2.3125l0 5.734375l-1.875 0zm25.01648 0l0 -1.625q-1.296875 1.875 -3.515625 1.875q-0.96875 0 -1.828125 -0.375q-0.84375 -0.375 -1.265625 -0.9375q-0.40625 -0.578125 -0.5625 -1.390625q-0.125 -0.5625 -0.125 -1.75l0 -6.859375l1.875 0l0 6.140625q0 1.46875 0.125 1.96875q0.171875 0.75 0.734375 1.171875q0.578125 0.421875 1.421875 0.421875q0.84375 0 1.578125 -0.4375q0.75 -0.4375 1.046875 -1.171875q0.3125 -0.75 0.3125 -2.171875l0 -5.921875l1.875 0l0 11.0625l-1.671875 0zm4.6116943 0l0 -11.0625l1.6875 0l0 1.578125q1.21875 -1.828125 3.515625 -1.828125q1.0 0 1.84375 0.359375q0.84375 0.359375 1.25 0.953125q0.421875 0.578125 0.59375 1.375q0.09375 0.515625 0.09375 1.828125l0 6.796875l-1.875 0l0 -6.734375q0 -1.140625 -0.21875 -1.703125q-0.21875 -0.578125 -0.78125 -0.90625q-0.546875 -0.34375 -1.296875 -0.34375q-1.203125 0 -2.078125 0.765625q-0.859375 0.75 -0.859375 2.875l0 6.046875l-1.875 0zm11.877319 -13.109375l0 -2.15625l1.875 0l0 2.15625l-1.875 0zm0 13.109375l0 -11.0625l1.875 0l0 11.0625l-1.875 0zm8.816528 -1.671875l0.265625 1.65625q-0.78125 0.15625 -1.40625 0.15625q-1.03125 0 -1.59375 -0.3125q-0.5625 -0.328125 -0.796875 -0.84375q-0.21875 -0.53125 -0.21875 -2.21875l0 -6.375l-1.375 0l0 -1.453125l1.375 0l0 -2.734375l1.859375 -1.125l0 3.859375l1.890625 0l0 1.453125l-1.890625 0l0 6.46875q0 0.8125 0.09375 1.046875q0.109375 0.21875 0.328125 0.359375q0.234375 0.125 0.640625 0.125q0.3125 0 0.828125 -0.0625zm1.7537842 5.9375l-0.21875 -1.765625q0.625 0.171875 1.078125 0.171875q0.625 0 1.0 -0.21875q0.375 -0.203125 0.609375 -0.578125q0.1875 -0.28125 0.578125 -1.390625q0.046875 -0.15625 0.171875 -0.46875l-4.203125 -11.078125l2.015625 0l2.3125 6.40625q0.4375 1.21875 0.796875 2.5625q0.328125 -1.296875 0.765625 -2.515625l2.375 -6.453125l1.875 0l-4.21875 11.25q-0.671875 1.828125 -1.046875 2.515625q-0.5 0.921875 -1.15625 1.34375q-0.640625 0.4375 -1.53125 0.4375q-0.546875 0 -1.203125 -0.21875z" fill-rule="nonzero"/><path fill="#ffffff" d="m616.5648 258.6929l155.02362 0l0 77.22836l-155.02362 0z" fill-rule="evenodd"/><path stroke="#999999" stroke-width="1.0" stroke-linejoin="round" stroke-linecap="butt" d="m616.5648 258.6929l155.02362 0l0 77.22836l-155.02362 0z" fill-rule="evenodd"/><path fill="#000000" d="m627.1117 297.67084q0 -5.703125 3.0625 -8.921875q3.0625 -3.234375 7.90625 -3.234375q3.171875 0 5.71875 1.515625q2.546875 1.515625 3.875 4.234375q1.34375 2.703125 1.34375 6.140625q0 3.484375 -1.40625 6.234375q-1.40625 2.75 -3.984375 4.171875q-2.578125 1.40625 -5.5625 1.40625q-3.234375 0 -5.78125 -1.5625q-2.546875 -1.5625 -3.859375 -4.265625q-1.3125 -2.703125 -1.3125 -5.71875zm3.125 0.046875q0 4.140625 2.21875 6.53125q2.234375 2.375 5.59375 2.375q3.421875 0 5.625 -2.40625q2.21875 -2.40625 2.21875 -6.828125q0 -2.796875 -0.953125 -4.875q-0.9375 -2.09375 -2.765625 -3.234375q-1.8125 -1.15625 -4.078125 -1.15625q-3.21875 0 -5.546875 2.21875q-2.3125 2.203125 -2.3125 7.375zm33.15625 5.03125l2.765625 0.359375q-0.453125 2.859375 -2.328125 4.484375q-1.859375 1.609375 -4.578125 1.609375q-3.40625 0 -5.484375 -2.21875q-2.0625 -2.234375 -2.0625 -6.390625q0 -2.6875 0.890625 -4.703125q0.890625 -2.015625 2.703125 -3.015625q1.828125 -1.015625 3.96875 -1.015625q2.703125 0 4.421875 1.375q1.71875 1.359375 2.203125 3.875l-2.734375 0.421875q-0.390625 -1.671875 -1.390625 -2.515625q-0.984375 -0.84375 -2.390625 -0.84375q-2.125 0 -3.453125 1.53125q-1.328125 1.515625 -1.328125 4.8125q0 3.34375 1.28125 4.859375q1.28125 1.515625 3.34375 1.515625q1.65625 0 2.765625 -1.015625q1.109375 -1.015625 1.40625 -3.125zm16.0 0l2.765625 0.359375q-0.453125 2.859375 -2.328125 4.484375q-1.859375 1.609375 -4.578125 1.609375q-3.40625 0 -5.484375 -2.21875q-2.0625 -2.234375 -2.0625 -6.390625q0 -2.6875 0.890625 -4.703125q0.890625 -2.015625 2.703125 -3.015625q1.828125 -1.015625 3.96875 -1.015625q2.703125 0 4.421875 1.375q1.71875 1.359375 2.203125 3.875l-2.734375 0.421875q-0.390625 -1.671875 -1.390625 -2.515625q-0.984375 -0.84375 -2.390625 -0.84375q-2.125 0 -3.453125 1.53125q-1.328125 1.515625 -1.328125 4.8125q0 3.34375 1.28125 4.859375q1.28125 1.515625 3.34375 1.515625q1.65625 0 2.765625 -1.015625q1.109375 -1.015625 1.40625 -3.125zm16.046875 6.078125l0 -2.4375q-1.9375 2.8125 -5.265625 2.8125q-1.46875 0 -2.75 -0.5625q-1.265625 -0.5625 -1.890625 -1.40625q-0.609375 -0.859375 -0.859375 -2.09375q-0.171875 -0.828125 -0.171875 -2.625l0 -10.28125l2.8125 0l0 9.203125q0 2.203125 0.171875 2.96875q0.265625 1.109375 1.125 1.75q0.859375 0.625 2.125 0.625q1.265625 0 2.375 -0.640625q1.109375 -0.65625 1.5625 -1.765625q0.46875 -1.125 0.46875 -3.25l0 -8.890625l2.8125 0l0 16.59375l-2.515625 0zm6.921875 6.359375l0 -22.953125l2.5625 0l0 2.15625q0.90625 -1.265625 2.046875 -1.890625q1.140625 -0.640625 2.765625 -0.640625q2.125 0 3.75 1.09375q1.625 1.09375 2.453125 3.09375q0.828125 1.984375 0.828125 4.359375q0 2.546875 -0.921875 4.59375q-0.90625 2.03125 -2.65625 3.125q-1.734375 1.078125 -3.65625 1.078125q-1.40625 0 -2.53125 -0.59375q-1.109375 -0.59375 -1.828125 -1.5l0 8.078125l-2.8125 0zm2.546875 -14.5625q0 3.203125 1.296875 4.734375q1.296875 1.53125 3.140625 1.53125q1.875 0 3.203125 -1.578125q1.34375 -1.59375 1.34375 -4.921875q0 -3.171875 -1.3125 -4.75q-1.296875 -1.578125 -3.109375 -1.578125q-1.796875 0 -3.1875 1.6875q-1.375 1.671875 -1.375 4.875zm15.265625 -11.46875l0 -3.234375l2.8125 0l0 3.234375l-2.8125 0zm0 19.671875l0 -16.59375l2.8125 0l0 16.59375l-2.8125 0zm18.453125 -5.34375l2.90625 0.359375q-0.6875 2.546875 -2.546875 3.953125q-1.859375 1.40625 -4.75 1.40625q-3.640625 0 -5.78125 -2.234375q-2.125 -2.25 -2.125 -6.296875q0 -4.1875 2.15625 -6.5q2.15625 -2.3125 5.59375 -2.3125q3.328125 0 5.4375 2.265625q2.109375 2.265625 2.109375 6.375q0 0.25 -0.015625 0.75l-12.375 0q0.15625 2.734375 1.546875 4.1875q1.390625 1.453125 3.46875 1.453125q1.546875 0 2.640625 -0.8125q1.09375 -0.8125 1.734375 -2.59375zm-9.234375 -4.546875l9.265625 0q-0.1875 -2.09375 -1.0625 -3.140625q-1.34375 -1.625 -3.484375 -1.625q-1.9375 0 -3.265625 1.296875q-1.3125 1.296875 -1.453125 3.46875zm15.640625 9.890625l0 -16.59375l2.53125 0l0 2.515625q0.96875 -1.765625 1.78125 -2.328125q0.828125 -0.5625 1.8125 -0.5625q1.421875 0 2.890625 0.90625l-0.96875 2.609375q-1.03125 -0.609375 -2.0625 -0.609375q-0.921875 0 -1.65625 0.5625q-0.734375 0.546875 -1.046875 1.53125q-0.46875 1.5 -0.46875 3.28125l0 8.6875l-2.8125 0z" fill-rule="nonzero"/><path fill="#000000" fill-opacity="0.0" d="m616.5648 297.3071l-220.6929 0" fill-rule="evenodd"/><path stroke="#000000" stroke-width="2.0" stroke-linejoin="round" stroke-linecap="butt" d="m616.5648 297.3071l-208.6929 0" fill-rule="evenodd"/><path fill="#000000" stroke="#000000" stroke-width="2.0" stroke-linecap="butt" d="m407.87192 294.00363l-9.076202 3.3034668l9.076202 3.3034668z" fill-rule="evenodd"/><path fill="#000000" fill-opacity="0.0" d="m608.5648 446.6268l-259.52753 0" fill-rule="evenodd"/><path stroke="#000000" stroke-width="2.0" stroke-linejoin="round" stroke-linecap="butt" d="m608.5648 446.6268l-247.52753 0" fill-rule="evenodd"/><path fill="#000000" stroke="#000000" stroke-width="2.0" stroke-linecap="butt" d="m361.0373 443.32333l-9.076202 3.3034668l9.076202 3.3034668z" fill-rule="evenodd"/><path fill="#000000" fill-opacity="0.0" d="m600.5648 526.80316l-276.063 0" fill-rule="evenodd"/><path stroke="#000000" stroke-width="2.0" stroke-linejoin="round" stroke-linecap="butt" d="m600.5648 526.80316l-264.063 0" fill-rule="evenodd"/><path fill="#000000" stroke="#000000" stroke-width="2.0" stroke-linecap="butt" d="m336.50183 523.4997l-9.076202 3.3034668l9.076202 3.3034668z" fill-rule="evenodd"/><path fill="#000000" fill-opacity="0.0" d="m592.5648 563.64307l-284.063 0" fill-rule="evenodd"/><path stroke="#000000" stroke-width="2.0" stroke-linejoin="round" stroke-linecap="butt" d="m592.5648 563.64307l-272.063 0" fill-rule="evenodd"/><path fill="#000000" stroke="#000000" stroke-width="2.0" stroke-linecap="butt" d="m320.50183 560.3396l-9.076202 3.3034668l9.076202 3.3034668z" fill-rule="evenodd"/><path fill="#000000" fill-opacity="0.0" d="m584.5596 584.85565l-282.55118 0" fill-rule="evenodd"/><path stroke="#000000" stroke-width="2.0" stroke-linejoin="round" stroke-linecap="butt" d="m584.5596 584.85565l-270.55118 0" fill-rule="evenodd"/><path fill="#000000" stroke="#000000" stroke-width="2.0" stroke-linecap="butt" d="m314.0084 581.5522l-9.076202 3.3034668l9.076202 3.3034668z" fill-rule="evenodd"/><path fill="#000000" fill-opacity="0.0" d="m-152.52493 184.98717l79.08661 0" fill-rule="evenodd"/><path stroke="#ff0000" stroke-width="1.0" stroke-linejoin="round" stroke-linecap="butt" d="m-152.52493 184.98717l79.08661 0" fill-rule="evenodd"/><path fill="#000000" fill-opacity="0.0" d="m-152.52493 169.06917l79.08661 0" fill-rule="evenodd"/><path stroke="#ff0000" stroke-width="1.0" stroke-linejoin="round" stroke-linecap="butt" d="m-152.52493 169.06917l79.08661 0" fill-rule="evenodd"/><path fill="#000000" fill-opacity="0.0" d="m-152.52493 177.02817l79.08661 0" fill-rule="evenodd"/><path stroke="#ff0000" stroke-width="1.0" stroke-linejoin="round" stroke-linecap="butt" d="m-152.52493 177.02817l79.08661 0" fill-rule="evenodd"/><path fill="#000000" fill-opacity="0.0" d="m-152.52493 153.15115l79.08661 0" fill-rule="evenodd"/><path stroke="#ff0000" stroke-width="1.0" stroke-linejoin="round" stroke-linecap="butt" d="m-152.52493 153.15115l79.08661 0" fill-rule="evenodd"/><path fill="#000000" fill-opacity="0.0" d="m-152.52493 161.11015l79.08661 0" fill-rule="evenodd"/><path stroke="#ff0000" stroke-width="1.0" stroke-linejoin="round" stroke-linecap="butt" d="m-152.52493 161.11015l79.08661 0" fill-rule="evenodd"/><path fill="#000000" fill-opacity="0.0" d="m-152.52493 192.94617l79.08661 0" fill-rule="evenodd"/><path stroke="#ff0000" stroke-width="1.0" stroke-linejoin="round" stroke-linecap="butt" d="m-152.52493 192.94617l79.08661 0" fill-rule="evenodd"/><path fill="#000000" fill-opacity="0.0" d="m-152.52493 145.19215l79.08661 0" fill-rule="evenodd"/><path stroke="#ff0000" stroke-width="1.0" stroke-linejoin="round" stroke-linecap="butt" d="m-152.52493 145.19215l79.08661 0" fill-rule="evenodd"/><path fill="#000000" fill-opacity="0.0" d="m-152.52493 129.27414l79.08661 0" fill-rule="evenodd"/><path stroke="#ff0000" stroke-width="1.0" stroke-linejoin="round" stroke-linecap="butt" d="m-152.52493 129.27414l79.08661 0" fill-rule="evenodd"/><path fill="#000000" fill-opacity="0.0" d="m-152.52493 137.23315l79.08661 0" fill-rule="evenodd"/><path stroke="#ff0000" stroke-width="1.0" stroke-linejoin="round" stroke-linecap="butt" d="m-152.52493 137.23315l79.08661 0" fill-rule="evenodd"/><path fill="#000000" fill-opacity="0.0" d="m-152.52493 121.31514l79.08661 0" fill-rule="evenodd"/><path stroke="#ff0000" stroke-width="1.0" stroke-linejoin="round" stroke-linecap="butt" d="m-152.52493 121.31514l79.08661 0" fill-rule="evenodd"/><path fill="#000000" fill-opacity="0.0" d="m-152.52493 97.43813l79.08661 0" fill-rule="evenodd"/><path stroke="#ff0000" stroke-width="1.0" stroke-linejoin="round" stroke-linecap="butt" d="m-152.52493 97.43813l79.08661 0" fill-rule="evenodd"/><path fill="#000000" fill-opacity="0.0" d="m-152.52493 57.643112l79.08661 0" fill-rule="evenodd"/><path stroke="#ff0000" stroke-width="1.0" stroke-linejoin="round" stroke-linecap="butt" d="m-152.52493 57.643112l79.08661 0" fill-rule="evenodd"/><path fill="#000000" fill-opacity="0.0" d="m-152.52493 105.39713l79.08661 0" fill-rule="evenodd"/><path stroke="#ff0000" stroke-width="1.0" stroke-linejoin="round" stroke-linecap="butt" d="m-152.52493 105.39713l79.08661 0" fill-rule="evenodd"/><path fill="#000000" fill-opacity="0.0" d="m-144.52493 113.35614l79.08661 0" fill-rule="evenodd"/><path stroke="#0000ff" stroke-width="1.0" stroke-linejoin="round" stroke-linecap="butt" d="m-144.52493 113.35614l79.08661 0" fill-rule="evenodd"/><path fill="#000000" fill-opacity="0.0" d="m-152.52493 89.479126l79.08661 0" fill-rule="evenodd"/><path stroke="#ff0000" stroke-width="1.0" stroke-linejoin="round" stroke-linecap="butt" d="m-152.52493 89.479126l79.08661 0" fill-rule="evenodd"/><path fill="#000000" fill-opacity="0.0" d="m-152.52493 73.56112l79.08661 0" fill-rule="evenodd"/><path stroke="#ff0000" stroke-width="1.0" stroke-linejoin="round" stroke-linecap="butt" d="m-152.52493 73.56112l79.08661 0" fill-rule="evenodd"/><path fill="#000000" fill-opacity="0.0" d="m-152.52493 81.52013l79.08661 0" fill-rule="evenodd"/><path stroke="#ff0000" stroke-width="1.0" stroke-linejoin="round" stroke-linecap="butt" d="m-152.52493 81.52013l79.08661 0" fill-rule="evenodd"/><path fill="#000000" fill-opacity="0.0" d="m-144.52493 65.60212l79.08661 0" fill-rule="evenodd"/><path stroke="#0000ff" stroke-width="1.0" stroke-linejoin="round" stroke-linecap="butt" d="m-144.52493 65.60212l79.08661 0" fill-rule="evenodd"/><path fill="#000000" fill-opacity="0.0" d="m-152.52493 41.725105l79.08661 0" fill-rule="evenodd"/><path stroke="#ff0000" stroke-width="1.0" stroke-linejoin="round" stroke-linecap="butt" d="m-152.52493 41.725105l79.08661 0" fill-rule="evenodd"/><path fill="#000000" fill-opacity="0.0" d="m-152.52493 49.68411l79.08661 0" fill-rule="evenodd"/><path stroke="#ff0000" stroke-width="1.0" stroke-linejoin="round" stroke-linecap="butt" d="m-152.52493 49.68411l79.08661 0" fill-rule="evenodd"/><path fill="#000000" fill-opacity="0.0" d="m-152.52493 344.16724l79.08661 0" fill-rule="evenodd"/><path stroke="#ff0000" stroke-width="1.0" stroke-linejoin="round" stroke-linecap="butt" d="m-152.52493 344.16724l79.08661 0" fill-rule="evenodd"/><path fill="#000000" fill-opacity="0.0" d="m-152.52493 328.24924l79.08661 0" fill-rule="evenodd"/><path stroke="#ff0000" stroke-width="1.0" stroke-linejoin="round" stroke-linecap="butt" d="m-152.52493 328.24924l79.08661 0" fill-rule="evenodd"/><path fill="#000000" fill-opacity="0.0" d="m-152.52493 336.20825l79.08661 0" fill-rule="evenodd"/><path stroke="#ff0000" stroke-width="1.0" stroke-linejoin="round" stroke-linecap="butt" d="m-152.52493 336.20825l79.08661 0" fill-rule="evenodd"/><path fill="#000000" fill-opacity="0.0" d="m-152.52493 312.33124l79.08661 0" fill-rule="evenodd"/><path stroke="#ff0000" stroke-width="1.0" stroke-linejoin="round" stroke-linecap="butt" d="m-152.52493 312.33124l79.08661 0" fill-rule="evenodd"/><path fill="#000000" fill-opacity="0.0" d="m-152.52493 320.29022l79.08661 0" fill-rule="evenodd"/><path stroke="#ff0000" stroke-width="1.0" stroke-linejoin="round" stroke-linecap="butt" d="m-152.52493 320.29022l79.08661 0" fill-rule="evenodd"/><path fill="#000000" fill-opacity="0.0" d="m-144.52493 352.12625l79.08661 0" fill-rule="evenodd"/><path stroke="#00ffff" stroke-width="1.0" stroke-linejoin="round" stroke-linecap="butt" d="m-144.52493 352.12625l79.08661 0" fill-rule="evenodd"/><path fill="#000000" fill-opacity="0.0" d="m-152.52493 304.37222l79.08661 0" fill-rule="evenodd"/><path stroke="#ff0000" stroke-width="1.0" stroke-linejoin="round" stroke-linecap="butt" d="m-152.52493 304.37222l79.08661 0" fill-rule="evenodd"/><path fill="#000000" fill-opacity="0.0" d="m-152.52493 288.45422l79.08661 0" fill-rule="evenodd"/><path stroke="#ff0000" stroke-width="1.0" stroke-linejoin="round" stroke-linecap="butt" d="m-152.52493 288.45422l79.08661 0" fill-rule="evenodd"/><path fill="#000000" fill-opacity="0.0" d="m-152.52493 296.4132l79.08661 0" fill-rule="evenodd"/><path stroke="#ff0000" stroke-width="1.0" stroke-linejoin="round" stroke-linecap="butt" d="m-152.52493 296.4132l79.08661 0" fill-rule="evenodd"/><path fill="#000000" fill-opacity="0.0" d="m-152.52493 280.4952l79.08661 0" fill-rule="evenodd"/><path stroke="#ff0000" stroke-width="1.0" stroke-linejoin="round" stroke-linecap="butt" d="m-152.52493 280.4952l79.08661 0" fill-rule="evenodd"/><path fill="#000000" fill-opacity="0.0" d="m-152.52493 256.6182l79.08661 0" fill-rule="evenodd"/><path stroke="#ff0000" stroke-width="1.0" stroke-linejoin="round" stroke-linecap="butt" d="m-152.52493 256.6182l79.08661 0" fill-rule="evenodd"/><path fill="#000000" fill-opacity="0.0" d="m-152.52493 216.82318l79.08661 0" fill-rule="evenodd"/><path stroke="#ff0000" stroke-width="1.0" stroke-linejoin="round" stroke-linecap="butt" d="m-152.52493 216.82318l79.08661 0" fill-rule="evenodd"/><path fill="#000000" fill-opacity="0.0" d="m-152.52493 264.5772l79.08661 0" fill-rule="evenodd"/><path stroke="#ff0000" stroke-width="1.0" stroke-linejoin="round" stroke-linecap="butt" d="m-152.52493 264.5772l79.08661 0" fill-rule="evenodd"/><path fill="#000000" fill-opacity="0.0" d="m-144.52493 272.53622l79.08661 0" fill-rule="evenodd"/><path stroke="#00ffff" stroke-width="1.0" stroke-linejoin="round" stroke-linecap="butt" d="m-144.52493 272.53622l79.08661 0" fill-rule="evenodd"/><path fill="#000000" fill-opacity="0.0" d="m-152.52493 248.6592l79.08661 0" fill-rule="evenodd"/><path stroke="#ff0000" stroke-width="1.0" stroke-linejoin="round" stroke-linecap="butt" d="m-152.52493 248.6592l79.08661 0" fill-rule="evenodd"/><path fill="#000000" fill-opacity="0.0" d="m-152.52493 232.7412l79.08661 0" fill-rule="evenodd"/><path stroke="#ff0000" stroke-width="1.0" stroke-linejoin="round" stroke-linecap="butt" d="m-152.52493 232.7412l79.08661 0" fill-rule="evenodd"/><path fill="#000000" fill-opacity="0.0" d="m-152.52493 240.7002l79.08661 0" fill-rule="evenodd"/><path stroke="#ff0000" stroke-width="1.0" stroke-linejoin="round" stroke-linecap="butt" d="m-152.52493 240.7002l79.08661 0" fill-rule="evenodd"/><path fill="#000000" fill-opacity="0.0" d="m-144.52493 224.78218l79.08661 0" fill-rule="evenodd"/><path stroke="#0000ff" stroke-width="1.0" stroke-linejoin="round" stroke-linecap="butt" d="m-144.52493 224.78218l79.08661 0" fill-rule="evenodd"/><path fill="#000000" fill-opacity="0.0" d="m-152.52493 200.90518l79.08661 0" fill-rule="evenodd"/><path stroke="#ff0000" stroke-width="1.0" stroke-linejoin="round" stroke-linecap="butt" d="m-152.52493 200.90518l79.08661 0" fill-rule="evenodd"/><path fill="#000000" fill-opacity="0.0" d="m-152.52493 208.86418l79.08661 0" fill-rule="evenodd"/><path stroke="#ff0000" stroke-width="1.0" stroke-linejoin="round" stroke-linecap="butt" d="m-152.52493 208.86418l79.08661 0" fill-rule="evenodd"/><path fill="#000000" fill-opacity="0.0" d="m-152.52493 415.79828l79.08661 0" fill-rule="evenodd"/><path stroke="#ff0000" stroke-width="1.0" stroke-linejoin="round" stroke-linecap="butt" d="m-152.52493 415.79828l79.08661 0" fill-rule="evenodd"/><path fill="#000000" fill-opacity="0.0" d="m-152.52493 376.00327l79.08661 0" fill-rule="evenodd"/><path stroke="#ff0000" stroke-width="1.0" stroke-linejoin="round" stroke-linecap="butt" d="m-152.52493 376.00327l79.08661 0" fill-rule="evenodd"/><path fill="#000000" fill-opacity="0.0" d="m-152.52493 423.75726l79.08661 0" fill-rule="evenodd"/><path stroke="#ff0000" stroke-width="1.0" stroke-linejoin="round" stroke-linecap="butt" d="m-152.52493 423.75726l79.08661 0" fill-rule="evenodd"/><path fill="#000000" fill-opacity="0.0" d="m-144.52493 431.71628l79.08661 0" fill-rule="evenodd"/><path stroke="#00ffff" stroke-width="1.0" stroke-linejoin="round" stroke-linecap="butt" d="m-144.52493 431.71628l79.08661 0" fill-rule="evenodd"/><path fill="#000000" fill-opacity="0.0" d="m-152.52493 407.83926l79.08661 0" fill-rule="evenodd"/><path stroke="#ff0000" stroke-width="1.0" stroke-linejoin="round" stroke-linecap="butt" d="m-152.52493 407.83926l79.08661 0" fill-rule="evenodd"/><path fill="#000000" fill-opacity="0.0" d="m-152.52493 391.92126l79.08661 0" fill-rule="evenodd"/><path stroke="#ff0000" stroke-width="1.0" stroke-linejoin="round" stroke-linecap="butt" d="m-152.52493 391.92126l79.08661 0" fill-rule="evenodd"/><path fill="#000000" fill-opacity="0.0" d="m-152.52493 399.88028l79.08661 0" fill-rule="evenodd"/><path stroke="#ff0000" stroke-width="1.0" stroke-linejoin="round" stroke-linecap="butt" d="m-152.52493 399.88028l79.08661 0" fill-rule="evenodd"/><path fill="#000000" fill-opacity="0.0" d="m-152.52493 383.96225l79.08661 0" fill-rule="evenodd"/><path stroke="#ff0000" stroke-width="1.0" stroke-linejoin="round" stroke-linecap="butt" d="m-152.52493 383.96225l79.08661 0" fill-rule="evenodd"/><path fill="#000000" fill-opacity="0.0" d="m-152.52493 360.08524l79.08661 0" fill-rule="evenodd"/><path stroke="#ff0000" stroke-width="1.0" stroke-linejoin="round" stroke-linecap="butt" d="m-152.52493 360.08524l79.08661 0" fill-rule="evenodd"/><path fill="#000000" fill-opacity="0.0" d="m-152.52493 368.04425l79.08661 0" fill-rule="evenodd"/><path stroke="#ff0000" stroke-width="1.0" stroke-linejoin="round" stroke-linecap="butt" d="m-152.52493 368.04425l79.08661 0" fill-rule="evenodd"/><path fill="#ffffff" d="m196.33727 297.30713l0 0c0 -53.79341 44.66577 -97.40158 99.76378 -97.40158l0 0c26.459015 0 51.83432 10.261932 70.54364 28.52826c18.70935 18.266342 29.220154 43.040802 29.220154 68.87332l0 0c0 53.793396 -44.66577 97.40158 -99.763794 97.40158l0 0c-55.098007 0 -99.76378 -43.608185 -99.76378 -97.40158z" fill-rule="evenodd"/><path stroke="#999999" stroke-width="1.0" stroke-linejoin="round" stroke-linecap="butt" d="m196.33727 297.30713l0 0c0 -53.79341 44.66577 -97.40158 99.76378 -97.40158l0 0c26.459015 0 51.83432 10.261932 70.54364 28.52826c18.70935 18.266342 29.220154 43.040802 29.220154 68.87332l0 0c0 53.793396 -44.66577 97.40158 -99.763794 97.40158l0 0c-55.098007 0 -99.76378 -43.608185 -99.76378 -97.40158z" fill-rule="evenodd"/><path fill="#000000" d="m250.03563 321.58713l0 -11.65625l-21.125 0l0 -5.484375l22.21875 -31.53125l4.8749847 0l0 31.53125l6.578125 0l0 5.484375l-6.578125 0l0 11.65625l-5.9687347 0zm0 -17.140625l0 -21.9375l-15.25 21.9375l15.25 0zm19.55272 5.890625l5.75 -0.53125q0.71875 4.046875 2.78125 5.875q2.0625 1.828125 5.28125 1.828125q2.75 0 4.828125 -1.265625q2.078125 -1.265625 3.40625 -3.375q1.328125 -2.109375 2.21875 -5.6875q0.90625 -3.59375 0.90625 -7.3125q0 -0.390625 -0.03125 -1.1875q-1.796875 2.84375 -4.90625 4.625q-3.09375 1.78125 -6.71875 1.78125q-6.046875 0 -10.234375 -4.375q-4.171875 -4.390625 -4.171875 -11.5625q0 -7.40625 4.359375 -11.921875q4.375 -4.515625 10.9375 -4.515625q4.75 0 8.6875 2.5625q3.9375 2.546875 5.96875 7.28125q2.046875 4.734375 2.046875 13.703125q0 9.328125 -2.03125 14.859375q-2.015625 5.515625 -6.015625 8.40625q-4.0 2.890625 -9.375 2.890625q-5.71875 0 -9.34375 -3.171875q-3.609375 -3.171875 -4.34375 -8.90625zm24.46875 -21.484375q0 -5.15625 -2.734375 -8.171875q-2.734375 -3.015625 -6.59375 -3.015625q-3.984375 0 -6.9375 3.25q-2.953125 3.25 -2.953125 8.4375q0 4.640625 2.796875 7.546875q2.8125 2.90625 6.921875 2.90625q4.15625 0 6.828125 -2.90625q2.671875 -2.90625 2.671875 -8.046875zm13.583984 -4.25q0 -5.21875 2.625 -8.859375q2.625 -3.65625 7.59375 -3.65625q4.59375 0 7.59375 3.265625q3.0 3.265625 3.0 9.609375q0 6.171875 -3.046875 9.515625q-3.03125 3.328125 -7.46875 3.328125q-4.421875 0 -7.359375 -3.28125q-2.9375 -3.28125 -2.9375 -9.921875zm10.390625 -8.40625q-2.21875 0 -3.703125 1.9375q-1.46875 1.921875 -1.46875 7.0625q0 4.6875 1.484375 6.59375q1.5 1.90625 3.6875 1.90625q2.265625 0 3.734375 -1.921875q1.484375 -1.9375 1.484375 -7.046875q0 -4.71875 -1.5 -6.625q-1.5 -1.90625 -3.71875 -1.90625zm0.03125 47.1875l26.625 -51.296875l4.859375 0l-26.53125 51.296875l-4.953125 0zm21.046875 -13.21875q0 -5.25 2.625 -8.875q2.625 -3.640625 7.640625 -3.640625q4.578125 0 7.578125 3.265625q3.015625 3.265625 3.015625 9.609375q0 6.1875 -3.046875 9.53125q-3.03125 3.328125 -7.515625 3.328125q-4.40625 0 -7.359375 -3.296875q-2.9375 -3.3125 -2.9375 -9.921875zm10.4375 -8.40625q-2.265625 0 -3.75 1.9375q-1.46875 1.921875 -1.46875 7.0625q0 4.65625 1.484375 6.578125q1.5 1.921875 3.703125 1.921875q2.28125 0 3.75 -1.921875q1.484375 -1.921875 1.484375 -7.046875q0 -4.703125 -1.5 -6.609375q-1.484375 -1.921875 -3.703125 -1.921875z" fill-rule="nonzero"/><path fill="#000000" fill-opacity="0.0" d="m243.15617 446.62668l0 0c0 -28.536163 23.704239 -51.66931 52.94487 -51.66931l0 0c14.04187 0 27.508606 5.4437256 37.437683 15.133606c9.929108 9.68985 15.507202 22.832153 15.507202 36.535706l0 0c0 28.536163 -23.704224 51.66928 -52.944885 51.66928l0 0c-29.240631 0 -52.94487 -23.133118 -52.94487 -51.66928z" fill-rule="evenodd"/><path fill="#000000" d="m278.87256 455.9848l0 2.921875l-16.40625 0q-0.03125 -1.09375 0.359375 -2.109375q0.625 -1.6875 2.0 -3.3125q1.375 -1.625 3.984375 -3.75q4.046875 -3.3125 5.46875 -5.25q1.421875 -1.9375 1.421875 -3.671875q0 -1.8125 -1.296875 -3.046875q-1.296875 -1.25 -3.375 -1.25q-2.203125 0 -3.53125 1.328125q-1.3125 1.3125 -1.328125 3.65625l-3.125 -0.328125q0.328125 -3.5 2.421875 -5.328125q2.09375 -1.84375 5.625 -1.84375q3.578125 0 5.65625 1.984375q2.078125 1.96875 2.078125 4.90625q0 1.484375 -0.609375 2.921875q-0.609375 1.4375 -2.015625 3.03125q-1.40625 1.59375 -4.703125 4.359375q-2.734375 2.3125 -3.515625 3.140625q-0.78125 0.8125 -1.28125 1.640625l12.171875 0zm3.4616394 -18.640625l0 -2.921875l16.0625 0l0 2.375q-2.375 2.515625 -4.703125 6.703125q-2.328125 4.171875 -3.59375 8.59375q-0.90625 3.109375 -1.171875 6.8125l-3.125 0q0.046875 -2.921875 1.140625 -7.0625q1.109375 -4.15625 3.15625 -8.0q2.0625 -3.859375 4.390625 -6.5l-12.15625 0zm19.64917 2.71875q0 -2.671875 1.328125 -4.53125q1.34375 -1.859375 3.875 -1.859375q2.34375 0 3.875 1.671875q1.53125 1.671875 1.53125 4.890625q0 3.15625 -1.546875 4.859375q-1.546875 1.703125 -3.8125 1.703125q-2.25 0 -3.75 -1.671875q-1.5 -1.6875 -1.5 -5.0625zm5.296875 -4.28125q-1.140625 0 -1.890625 0.984375q-0.75 0.96875 -0.75 3.59375q0 2.390625 0.75 3.359375q0.765625 0.96875 1.890625 0.96875q1.15625 0 1.90625 -0.96875q0.75 -0.984375 0.75 -3.59375q0 -2.40625 -0.765625 -3.375q-0.765625 -0.96875 -1.890625 -0.96875zm0.015625 24.03125l13.578125 -26.140625l2.46875 0l-13.53125 26.140625l-2.515625 0zm10.734375 -6.734375q0 -2.671875 1.328125 -4.515625q1.34375 -1.859375 3.890625 -1.859375q2.34375 0 3.875 1.671875q1.53125 1.671875 1.53125 4.890625q0 3.15625 -1.546875 4.859375q-1.546875 1.6875 -3.84375 1.6875q-2.25 0 -3.75 -1.671875q-1.484375 -1.6875 -1.484375 -5.0625zm5.3125 -4.28125q-1.15625 0 -1.90625 0.984375q-0.75 0.984375 -0.75 3.609375q0 2.375 0.75 3.359375q0.765625 0.96875 1.890625 0.96875q1.15625 0 1.90625 -0.96875q0.765625 -0.984375 0.765625 -3.59375q0 -2.40625 -0.765625 -3.375q-0.765625 -0.984375 -1.890625 -0.984375z" fill-rule="nonzero"/><path fill="#000000" fill-opacity="0.0" d="m267.6916 526.8032l0 0c0 -15.316101 12.71936 -27.73227 28.409454 -27.73227l0 0c7.534668 0 14.760712 2.921814 20.088531 8.12262c5.3277893 5.200775 8.320923 12.254608 8.320923 19.60965l0 0c0 15.316162 -12.71933 27.7323 -28.409454 27.7323l0 0c-15.690094 0 -28.409454 -12.416138 -28.409454 -27.7323z" fill-rule="evenodd"/><path fill="#000000" d="m284.38425 533.72327l-1.640625 0l0 -10.453125q-0.59375 0.5625 -1.5625 1.140625q-0.953125 0.5625 -1.71875 0.84375l0 -1.59375q1.375 -0.640625 2.40625 -1.5625q1.03125 -0.921875 1.453125 -1.78125l1.0625 0l0 13.40625zm4.2038574 -3.5l1.71875 -0.140625q0.1875 1.25 0.875 1.890625q0.703125 0.625 1.6875 0.625q1.1875 0 2.0 -0.890625q0.828125 -0.890625 0.828125 -2.359375q0 -1.40625 -0.796875 -2.21875q-0.78125 -0.8125 -2.0625 -0.8125q-0.78125 0 -1.421875 0.359375q-0.640625 0.359375 -1.0 0.9375l-1.546875 -0.203125l1.296875 -6.859375l6.640625 0l0 1.5625l-5.328125 0l-0.71875 3.59375q1.203125 -0.84375 2.515625 -0.84375q1.75 0 2.953125 1.21875q1.203125 1.203125 1.203125 3.109375q0 1.8125 -1.046875 3.140625q-1.296875 1.625 -3.515625 1.625q-1.8125 0 -2.96875 -1.015625q-1.15625 -1.03125 -1.3125 -2.71875zm10.672577 -6.640625q0 -1.4375 0.71875 -2.4375q0.71875 -1.0 2.09375 -1.0q1.25 0 2.078125 0.90625q0.828125 0.890625 0.828125 2.625q0 1.6875 -0.84375 2.609375q-0.828125 0.921875 -2.046875 0.921875q-1.203125 0 -2.015625 -0.90625q-0.8125 -0.90625 -0.8125 -2.71875zm2.859375 -2.3125q-0.609375 0 -1.015625 0.53125q-0.40625 0.53125 -0.40625 1.9375q0 1.28125 0.40625 1.8125q0.40625 0.515625 1.015625 0.515625q0.625 0 1.015625 -0.515625q0.40625 -0.53125 0.40625 -1.9375q0 -1.296875 -0.40625 -1.8125q-0.40625 -0.53125 -1.015625 -0.53125zm0 12.9375l7.3125305 -14.0625l1.328125 0l-7.2812805 14.0625l-1.359375 0zm5.78125 -3.625q0 -1.4375 0.7187805 -2.421875q0.71875 -1.0 2.09375 -1.0q1.265625 0 2.078125 0.90625q0.828125 0.890625 0.828125 2.625q0 1.6875 -0.828125 2.609375q-0.828125 0.90625 -2.0625 0.90625q-1.21875 0 -2.03125 -0.90625q-0.7969055 -0.90625 -0.7969055 -2.71875zm2.8594055 -2.296875q-0.625 0 -1.03125 0.53125q-0.390625 0.53125 -0.390625 1.9375q0 1.28125 0.40625 1.8125q0.40625 0.515625 1.015625 0.515625q0.625 0 1.03125 -0.515625q0.40625 -0.53125 0.40625 -1.9375q0 -1.296875 -0.421875 -1.8125q-0.40625 -0.53125 -1.015625 -0.53125z" fill-rule="nonzero"/><path fill="#000000" fill-opacity="0.0" d="m283.70734 563.643l0 0c0 -6.6882935 5.5488586 -12.1102295 12.393707 -12.1102295l0 0c3.2870178 0 6.439392 1.2758789 8.763672 3.546997c2.3242798 2.2711182 3.6300354 5.3513794 3.6300354 8.563232l0 0c0 6.6882935 -5.5488586 12.1102295 -12.393707 12.1102295l0 0c-6.8448486 0 -12.393707 -5.421936 -12.393707 -12.1102295z" fill-rule="evenodd"/><path fill="#000000" d="m293.39792 561.6786l-1.046875 0.078125q-0.140625 -0.625 -0.390625 -0.90625q-0.4375 -0.453125 -1.0625 -0.453125q-0.5 0 -0.890625 0.28125q-0.484375 0.375 -0.78125 1.078125q-0.28125 0.6875 -0.296875 1.96875q0.375 -0.578125 0.921875 -0.859375q0.5625 -0.28125 1.171875 -0.28125q1.046875 0 1.78125 0.78125q0.75 0.78125 0.75 2.0q0 0.8125 -0.359375 1.515625q-0.34375 0.6875 -0.953125 1.0625q-0.609375 0.359375 -1.375 0.359375q-1.328125 0 -2.15625 -0.96875q-0.828125 -0.96875 -0.828125 -3.1875q0 -2.5 0.921875 -3.625q0.796875 -0.984375 2.15625 -0.984375q1.015625 0 1.65625 0.578125q0.65625 0.5625 0.78125 1.5625zm-4.296875 3.703125q0 0.546875 0.21875 1.046875q0.234375 0.484375 0.640625 0.75q0.421875 0.265625 0.890625 0.265625q0.65625 0 1.140625 -0.53125q0.484375 -0.546875 0.484375 -1.46875q0 -0.890625 -0.484375 -1.40625q-0.46875 -0.515625 -1.1875 -0.515625q-0.71875 0 -1.21875 0.515625q-0.484375 0.515625 -0.484375 1.34375zm5.705078 -3.75q0 -0.921875 0.453125 -1.5625q0.46875 -0.640625 1.34375 -0.640625q0.8125 0 1.34375 0.578125q0.53125 0.578125 0.53125 1.6875q0 1.09375 -0.546875 1.6875q-0.53125 0.578125 -1.3125 0.578125q-0.78125 0 -1.296875 -0.578125q-0.515625 -0.578125 -0.515625 -1.75zm1.828125 -1.484375q-0.390625 0 -0.65625 0.34375q-0.25 0.34375 -0.25 1.25q0 0.828125 0.25 1.171875q0.265625 0.328125 0.65625 0.328125q0.40625 0 0.65625 -0.34375q0.265625 -0.34375 0.265625 -1.234375q0 -0.84375 -0.265625 -1.171875q-0.265625 -0.34375 -0.65625 -0.34375zm0 8.328125l4.703125 -9.046875l0.859375 0l-4.6875 9.046875l-0.875 0zm3.71875 -2.328125q0 -0.921875 0.453125 -1.5625q0.46875 -0.640625 1.359375 -0.640625q0.8125 0 1.34375 0.578125q0.53125 0.5625 0.53125 1.6875q0 1.09375 -0.546875 1.6875q-0.53125 0.578125 -1.328125 0.578125q-0.765625 0 -1.296875 -0.578125q-0.515625 -0.578125 -0.515625 -1.75zm1.84375 -1.484375q-0.40625 0 -0.671875 0.34375q-0.25 0.34375 -0.25 1.25q0 0.8125 0.265625 1.15625q0.265625 0.34375 0.65625 0.34375q0.390625 0 0.65625 -0.34375q0.265625 -0.34375 0.265625 -1.25q0 -0.828125 -0.265625 -1.15625q-0.265625 -0.34375 -0.65625 -0.34375z" fill-rule="nonzero"/><path fill="#000000" fill-opacity="0.0" d="m290.19553 584.86316l0 0c0 -3.1832886 2.6440125 -5.763794 5.9055176 -5.763794l0 0c1.5662537 0 3.0683289 0.60723877 4.1758423 1.6881714c1.1074829 1.0809326 1.7296753 2.546936 1.7296753 4.0756226l0 0c0 3.1832275 -2.643982 5.763733 -5.9055176 5.763733l0 0c-3.2615051 0 -5.9055176 -2.5805054 -5.9055176 -5.763733z" fill-rule="evenodd"/><path fill="#000000" d="m291.53278 586.0131l0.578125 -0.078125q0.109375 0.484375 0.34375 0.703125q0.25 0.21875 0.59375 0.21875q0.40625 0 0.6875 -0.28125q0.296875 -0.28125 0.296875 -0.703125q0 -0.40625 -0.265625 -0.671875q-0.265625 -0.265625 -0.671875 -0.265625q-0.15625 0 -0.40625 0.078125l0.0625 -0.515625q0.0625 0 0.09375 0q0.375 0 0.671875 -0.1875q0.296875 -0.203125 0.296875 -0.609375q0 -0.3125 -0.21875 -0.515625q-0.21875 -0.21875 -0.5625 -0.21875q-0.34375 0 -0.578125 0.21875q-0.21875 0.203125 -0.28125 0.640625l-0.578125 -0.109375q0.09375 -0.59375 0.46875 -0.90625q0.390625 -0.328125 0.953125 -0.328125q0.390625 0 0.71875 0.171875q0.328125 0.15625 0.5 0.453125q0.1875 0.28125 0.1875 0.609375q0 0.3125 -0.171875 0.5625q-0.171875 0.25 -0.484375 0.40625q0.421875 0.09375 0.65625 0.40625q0.234375 0.296875 0.234375 0.765625q0 0.625 -0.46875 1.0625q-0.453125 0.421875 -1.140625 0.421875q-0.625 0 -1.046875 -0.359375q-0.40625 -0.375 -0.46875 -0.96875zm3.8112793 -2.375q0 -0.5 0.25 -0.859375q0.265625 -0.359375 0.75 -0.359375q0.453125 0 0.734375 0.328125q0.296875 0.3125 0.296875 0.9375q0 0.59375 -0.296875 0.921875q-0.296875 0.328125 -0.734375 0.328125q-0.421875 0 -0.71875 -0.3125q-0.28125 -0.328125 -0.28125 -0.984375zm1.015625 -0.8125q-0.21875 0 -0.375 0.1875q-0.140625 0.1875 -0.140625 0.6875q0 0.453125 0.140625 0.640625q0.15625 0.1875 0.375 0.1875q0.21875 0 0.359375 -0.1875q0.15625 -0.1875 0.15625 -0.6875q0 -0.453125 -0.15625 -0.640625q-0.140625 -0.1875 -0.359375 -0.1875zm0 4.609375l2.609375 -5.015625l0.46875 0l-2.59375 5.015625l-0.484375 0zm2.0625 -1.296875q0 -0.5 0.25 -0.859375q0.265625 -0.359375 0.75 -0.359375q0.453125 0 0.75 0.328125q0.296875 0.3125 0.296875 0.9375q0 0.59375 -0.296875 0.921875q-0.296875 0.328125 -0.75 0.328125q-0.421875 0 -0.71875 -0.3125q-0.28125 -0.328125 -0.28125 -0.984375zm1.015625 -0.8125q-0.21875 0 -0.359375 0.1875q-0.140625 0.1875 -0.140625 0.6875q0 0.453125 0.140625 0.640625q0.140625 0.1875 0.359375 0.1875q0.21875 0 0.359375 -0.1875q0.15625 -0.1875 0.15625 -0.6875q0 -0.453125 -0.15625 -0.640625q-0.140625 -0.1875 -0.359375 -0.1875z" fill-rule="nonzero"/><path fill="#f4cccc" d="m592.5648 551.53284l155.02362 0l0 24.220459l-155.02362 0z" fill-rule="evenodd"/><path stroke="#999999" stroke-width="1.0" stroke-linejoin="round" stroke-linecap="butt" d="m592.5648 551.53284l155.02362 0l0 24.220459l-155.02362 0z" fill-rule="evenodd"/><path fill="#000000" d="m602.83044 569.4031l0 -11.453125l5.078125 0q1.53125 0 2.328125 0.3125q0.796875 0.296875 1.265625 1.078125q0.484375 0.78125 0.484375 1.734375q0 1.21875 -0.796875 2.0625q-0.78125 0.828125 -2.4375 1.046875q0.609375 0.296875 0.921875 0.578125q0.65625 0.609375 1.25 1.515625l2.0 3.125l-1.90625 0l-1.515625 -2.390625q-0.671875 -1.03125 -1.109375 -1.578125q-0.421875 -0.546875 -0.765625 -0.765625q-0.328125 -0.21875 -0.6875 -0.296875q-0.25 -0.0625 -0.84375 -0.0625l-1.75 0l0 5.09375l-1.515625 0zm1.515625 -6.40625l3.25 0q1.046875 0 1.625 -0.203125q0.59375 -0.21875 0.890625 -0.6875q0.3125 -0.484375 0.3125 -1.03125q0 -0.8125 -0.59375 -1.328125q-0.59375 -0.53125 -1.859375 -0.53125l-3.625 0l0 3.78125zm15.5078125 3.734375l1.453125 0.171875q-0.34375 1.28125 -1.28125 1.984375q-0.921875 0.703125 -2.359375 0.703125q-1.828125 0 -2.890625 -1.125q-1.0625 -1.125 -1.0625 -3.140625q0 -2.09375 1.078125 -3.25q1.078125 -1.15625 2.796875 -1.15625q1.65625 0 2.703125 1.140625q1.0625 1.125 1.0625 3.171875q0 0.125 0 0.375l-6.1875 0q0.078125 1.375 0.765625 2.109375q0.703125 0.71875 1.734375 0.71875q0.78125 0 1.328125 -0.40625q0.546875 -0.40625 0.859375 -1.296875zm-4.609375 -2.28125l4.625 0q-0.09375 -1.046875 -0.53125 -1.5625q-0.671875 -0.8125 -1.734375 -0.8125q-0.96875 0 -1.640625 0.65625q-0.65625 0.640625 -0.71875 1.71875zm7.5703125 5.640625l1.375 0.203125q0.078125 0.640625 0.46875 0.921875q0.53125 0.390625 1.4375 0.390625q0.96875 0 1.5 -0.390625q0.53125 -0.390625 0.71875 -1.09375q0.109375 -0.421875 0.109375 -1.8125q-0.921875 1.09375 -2.296875 1.09375q-1.71875 0 -2.65625 -1.234375q-0.9375 -1.234375 -0.9375 -2.96875q0 -1.1875 0.421875 -2.1875q0.4375 -1.0 1.25 -1.546875q0.828125 -0.546875 1.921875 -0.546875q1.46875 0 2.421875 1.1875l0 -1.0l1.296875 0l0 7.171875q0 1.9375 -0.390625 2.75q-0.390625 0.8125 -1.25 1.28125q-0.859375 0.46875 -2.109375 0.46875q-1.484375 0 -2.40625 -0.671875q-0.90625 -0.671875 -0.875 -2.015625zm1.171875 -4.984375q0 1.625 0.640625 2.375q0.65625 0.75 1.625 0.75q0.96875 0 1.625 -0.734375q0.65625 -0.75 0.65625 -2.34375q0 -1.53125 -0.671875 -2.296875q-0.671875 -0.78125 -1.625 -0.78125q-0.9375 0 -1.59375 0.765625q-0.65625 0.765625 -0.65625 2.265625zm7.9921875 -5.546875l0 -1.609375l1.40625 0l0 1.609375l-1.40625 0zm0 9.84375l0 -8.296875l1.40625 0l0 8.296875l-1.40625 0zm3.0234375 -4.15625q0 -2.296875 1.28125 -3.40625q1.078125 -0.921875 2.609375 -0.921875q1.71875 0 2.796875 1.125q1.09375 1.109375 1.09375 3.09375q0 1.59375 -0.484375 2.515625q-0.484375 0.921875 -1.40625 1.4375q-0.90625 0.5 -2.0 0.5q-1.734375 0 -2.8125 -1.109375q-1.078125 -1.125 -1.078125 -3.234375zm1.453125 0q0 1.59375 0.6875 2.390625q0.703125 0.796875 1.75 0.796875q1.046875 0 1.734375 -0.796875q0.703125 -0.796875 0.703125 -2.4375q0 -1.53125 -0.703125 -2.328125q-0.6875 -0.796875 -1.734375 -0.796875q-1.046875 0 -1.75 0.796875q-0.6875 0.78125 -0.6875 2.375zm7.9765625 4.15625l0 -8.296875l1.265625 0l0 1.171875q0.90625 -1.359375 2.640625 -1.359375q0.75 0 1.375 0.265625q0.625 0.265625 0.9375 0.703125q0.3125 0.4375 0.4375 1.046875q0.078125 0.390625 0.078125 1.359375l0 5.109375l-1.40625 0l0 -5.046875q0 -0.859375 -0.171875 -1.28125q-0.15625 -0.4375 -0.578125 -0.6875q-0.40625 -0.25 -0.96875 -0.25q-0.90625 0 -1.5625 0.578125q-0.640625 0.5625 -0.640625 2.15625l0 4.53125l-1.40625 0zm16.03125 3.375q-1.171875 -1.46875 -1.984375 -3.4375q-0.796875 -1.984375 -0.796875 -4.09375q0 -1.859375 0.609375 -3.5625q0.703125 -1.96875 2.171875 -3.9375l1.0 0q-0.9375 1.625 -1.25 2.328125q-0.46875 1.078125 -0.75 2.25q-0.328125 1.453125 -0.328125 2.9375q0 3.75 2.328125 7.515625l-1.0 0zm5.265625 -6.203125q0 -0.28125 0 -0.421875q0 -0.828125 0.234375 -1.421875q0.171875 -0.453125 0.546875 -0.921875q0.28125 -0.328125 1.015625 -0.96875q0.734375 -0.65625 0.953125 -1.03125q0.21875 -0.390625 0.21875 -0.84375q0 -0.8125 -0.640625 -1.4375q-0.640625 -0.625 -1.578125 -0.625q-0.890625 0 -1.5 0.5625q-0.59375 0.5625 -0.78125 1.765625l-1.453125 -0.171875q0.203125 -1.609375 1.15625 -2.453125q0.96875 -0.859375 2.5625 -0.859375q1.671875 0 2.671875 0.921875q1.0 0.90625 1.0 2.203125q0 0.75 -0.359375 1.390625q-0.34375 0.625 -1.359375 1.53125q-0.6875 0.609375 -0.90625 0.90625q-0.203125 0.28125 -0.3125 0.65625q-0.09375 0.375 -0.109375 1.21875l-1.359375 0zm-0.078125 2.828125l0 -1.609375l1.59375 0l0 1.609375l-1.59375 0zm7.2734375 3.375l-1.015625 0q2.34375 -3.765625 2.34375 -7.515625q0 -1.46875 -0.34375 -2.921875q-0.265625 -1.171875 -0.734375 -2.25q-0.3125 -0.703125 -1.265625 -2.34375l1.015625 0q1.46875 1.96875 2.171875 3.9375q0.59375 1.703125 0.59375 3.5625q0 2.109375 -0.8125 4.09375q-0.796875 1.96875 -1.953125 3.4375z" fill-rule="nonzero"/></g></svg>