<?xml version="1.0" encoding="utf-8"?>
<!-- Generator: Adobe Illustrator 26.2.1, SVG Export Plug-In . SVG Version: 6.00 Build 0)  -->
<svg version="1.1" id="Layer_1" xmlns="http://www.w3.org/2000/svg" xmlns:xlink="http://www.w3.org/1999/xlink" x="0px" y="0px"
	 viewBox="0 0 631.7 477.5" style="enable-background:new 0 0 631.7 477.5;" xml:space="preserve">
<style type="text/css">
	.st0{fill:none;stroke:#CCCCCC;stroke-linejoin:round;stroke-miterlimit:10;stroke-dasharray:8,3;}
	.st1{clip-path:url(#SVGID_00000004546918840212363140000013155569952498166913_);}
	.st2{fill-rule:evenodd;clip-rule:evenodd;fill:#FF0000;}
	.st3{fill-rule:evenodd;clip-rule:evenodd;fill-opacity:0;}
	.st4{fill:none;stroke:#000000;stroke-linejoin:round;stroke-miterlimit:10;}
	.st5{fill-rule:evenodd;clip-rule:evenodd;fill:#FFF2CC;}
	.st6{fill:none;stroke:#4A86E8;stroke-linejoin:round;stroke-miterlimit:10;stroke-dasharray:8,3;}
	.st7{fill:none;stroke:#00FFFF;stroke-linejoin:round;stroke-miterlimit:10;stroke-dasharray:8,3;}
	.st8{fill:#616A74;}
	.st9{fill:none;stroke:#000000;stroke-miterlimit:10;stroke-dasharray:1,3;}
	.st10{fill:none;stroke:#FFFFFF;stroke-width:2;stroke-miterlimit:10;}
	.st11{fill:#FFFFFF;}
	.st12{fill-rule:evenodd;clip-rule:evenodd;fill:url(#SVGID_00000179627139781883427080000008670399902822940579_);}
	.st13{fill-rule:evenodd;clip-rule:evenodd;fill:url(#SVGID_00000098202767912449641630000006941344148590944948_);}
</style>
<path class="st0" d="M132.6,216.6h499.1"/>
<g>
	<defs>
		<rect id="SVGID_1_" width="631.7" height="2547.9"/>
	</defs>
	<clipPath id="SVGID_00000034050976060191935710000008520772551079322248_">
		<use xlink:href="#SVGID_1_"  style="overflow:visible;"/>
	</clipPath>
	<g style="clip-path:url(#SVGID_00000034050976060191935710000008520772551079322248_);">
		<path class="st2" d="M144.5,1491l-2-12.5l2.5-17l-1.5-9l34.5,3.5l35.5,3l41-2.5l39.3,6.5l30.8-5.2l25,4.7l23-1.6l18.8,2.6
			l20.9-2.1l4.7,6.3l8.9-0.5l5.2-6.8l22.4-1l14.6-0.5l14.1,4.7l8.4-3.1l5.7,4.7l8.3-1l11-5.2l30.8-4.7l33.4,2.6l28.2-3.1l13,3.7
			l0,33.2L144.5,1491z"/>
		<path class="st3" d="M133.2,80.8h499.1"/>
		<path class="st0" d="M133.2,80.8h499.1"/>
		<path class="st3" d="M133.2,103.4h499.1"/>
		<path class="st0" d="M133.2,103.4h499.1"/>
		<path class="st3" d="M133.2,126h499.1"/>
		<path class="st0" d="M133.2,126h499.1"/>
		<path class="st3" d="M133.2,148.6h499.1"/>
		<path class="st0" d="M133.2,148.6h499.1"/>
		<path class="st3" d="M133.2,171.2h499.1"/>
		<path class="st0" d="M133.2,171.2h499.1"/>
		<path class="st3" d="M133.2,193.8h499.1"/>
		<path class="st0" d="M133.2,193.8h499.1"/>
		<path class="st3" d="M133.2,261.6h499.1"/>
		<path class="st0" d="M133.2,261.6h499.1"/>
		<path class="st3" d="M133.2,284.2h499.1"/>
		<path class="st0" d="M133.2,284.2h499.1"/>
		<path class="st3" d="M133.2,306.8h499.1"/>
		<path class="st0" d="M133.2,306.8h499.1"/>
		<path class="st3" d="M133.2,329.4h499.1"/>
		<path class="st0" d="M133.2,329.4h499.1"/>
		<path class="st3" d="M133.2,352h499.1"/>
		<path class="st0" d="M133.2,352h499.1"/>
		<path class="st3" d="M133.2,374.6h499.1"/>
		<path class="st0" d="M133.2,374.6h499.1"/>
		<path class="st3" d="M133.2,397.3h499.1"/>
		<path class="st0" d="M133.2,397.3h499.1"/>
		<path class="st3" d="M133.2,239h499.1"/>
		<path class="st0" d="M133.2,239h499.1"/>
		<path class="st2" d="M146.5,169.4h474.1v-32.5H146.5V169.4z"/>
		<path class="st3" d="M536.2,199.2L536.2,199.2c0-1.5,1.2-2.7,2.7-2.7l0,0c0.7,0,1.4,0.3,1.9,0.8c0.5,0.5,0.8,1.2,0.8,1.9l0,0
			c0,1.5-1.2,2.7-2.7,2.7l0,0C537.4,201.9,536.2,200.7,536.2,199.2z"/>
		<path class="st3" d="M389.3,172.8c21.5-0.9,43,0.4,64.5-0.5"/>
		<path class="st4" d="M389.3,172.8c21.5-0.9,43,0.4,64.5-0.5"/>
		<path class="st3" d="M454,171.9c0.5,34.3-0.9,68.7-0.4,103"/>
		<path class="st4" d="M454,171.9c0.5,34.3-0.9,68.7-0.4,103"/>
		<path class="st3" d="M389.5,172.8c0.5,33.9-0.9,67.8-0.4,101.7"/>
		<path class="st4" d="M389.5,172.8c0.5,33.9-0.9,67.8-0.4,101.7"/>
		<path class="st3" d="M389,274.7c21.4-0.9,42.8,0.4,64.3-0.5"/>
		<path class="st4" d="M389,274.7c21.4-0.9,42.8,0.4,64.3-0.5"/>
		<path class="st3" d="M1.4,125.2h134.1v49.9H1.4L1.4,125.2z"/>
		<path d="M48.4,155v-1.1l1-0.2v-6.8l-1-0.2v-1.1h1h3.5c0.7,0,1.4,0.1,1.9,0.4c0.5,0.2,0.9,0.6,1.2,1.1c0.3,0.4,0.4,1,0.4,1.6
			s-0.1,1.1-0.4,1.6c-0.3,0.4-0.7,0.8-1.2,1c-0.5,0.2-1.1,0.4-1.9,0.4h-1.6v2.1l1,0.2v1.1H48.4z M51.3,150h1.6
			c0.5,0,0.9-0.1,1.2-0.4c0.3-0.3,0.4-0.7,0.4-1.1c0-0.5-0.1-0.8-0.4-1.1c-0.3-0.3-0.7-0.5-1.2-0.5h-1.6V150z M57,155v-1.1l1-0.2
			v-6.8l-1-0.2v-1.1h4.5c0.7,0,1.4,0.1,1.9,0.3c0.5,0.2,0.9,0.5,1.2,1c0.3,0.4,0.4,0.9,0.4,1.5c0,0.6-0.1,1.1-0.4,1.5
			c-0.3,0.4-0.7,0.8-1.2,1c-0.5,0.2-1.1,0.4-1.7,0.4h-1.8v2.4l1,0.2v1.1H57z M63.1,155l-1.6-4.1l1.7-0.4l1.4,3.2l0.8,0.2v1.1H63.1z
			 M59.9,149.8h1.5c0.5,0,0.9-0.1,1.2-0.3c0.3-0.2,0.4-0.6,0.4-1s-0.1-0.8-0.4-1c-0.3-0.3-0.7-0.4-1.2-0.4h-1.6V149.8z M66.2,155
			v-1.1l1-0.2v-6.8l-1-0.2v-1.1h3.9v1.1l-1,0.2v6.8l1,0.2v1.1H66.2z"/>
		<path d="M74.1,155v-1.1l0.7-0.1l3.1-8.3h1.8l3.1,8.3l0.7,0.1v1.1h-3.1v-1.1l0.7-0.1l-0.5-1.4H77l-0.5,1.4l0.7,0.1v1.1H74.1z
			 M77.4,151H80l-1.2-3.4l-0.1-0.3h0l-0.1,0.3L77.4,151z M87.2,155.1c-0.7,0-1.2-0.2-1.7-0.5c-0.5-0.3-0.9-0.7-1.1-1.2
			c-0.3-0.5-0.4-1.2-0.4-1.8v-0.2c0-0.7,0.1-1.3,0.4-1.8c0.3-0.5,0.6-0.9,1.1-1.2c0.5-0.3,1.1-0.5,1.7-0.5c0.6,0,1.1,0.1,1.6,0.3
			c0.5,0.2,0.8,0.4,1.1,0.7v2h-1.3l-0.2-1.3c-0.1-0.1-0.3-0.2-0.4-0.3c-0.2-0.1-0.4-0.1-0.5-0.1c-0.4,0-0.7,0.1-0.9,0.3
			c-0.2,0.2-0.4,0.4-0.5,0.8c-0.1,0.3-0.2,0.7-0.2,1.2v0.2c0,0.5,0.1,0.9,0.2,1.2c0.1,0.3,0.3,0.6,0.5,0.7c0.2,0.2,0.5,0.2,0.8,0.2
			c0.4,0,0.6-0.1,0.9-0.3c0.2-0.2,0.4-0.5,0.5-0.8h1.5l0,0c-0.1,0.5-0.2,0.9-0.4,1.3c-0.2,0.4-0.5,0.6-0.9,0.8
			C88.3,155,87.8,155.1,87.2,155.1z M94.3,155.1c-0.7,0-1.2-0.2-1.7-0.5c-0.5-0.3-0.9-0.7-1.1-1.2c-0.3-0.5-0.4-1.2-0.4-1.8v-0.2
			c0-0.7,0.1-1.3,0.4-1.8c0.3-0.5,0.6-0.9,1.1-1.2c0.5-0.3,1.1-0.5,1.7-0.5c0.6,0,1.1,0.1,1.6,0.3c0.5,0.2,0.8,0.4,1.1,0.7v2h-1.3
			l-0.2-1.3c-0.1-0.1-0.3-0.2-0.4-0.3c-0.2-0.1-0.4-0.1-0.5-0.1c-0.4,0-0.7,0.1-0.9,0.3c-0.2,0.2-0.4,0.4-0.5,0.8
			c-0.1,0.3-0.2,0.7-0.2,1.2v0.2c0,0.5,0.1,0.9,0.2,1.2c0.1,0.3,0.3,0.6,0.5,0.7c0.2,0.2,0.5,0.2,0.8,0.2c0.4,0,0.6-0.1,0.9-0.3
			c0.2-0.2,0.4-0.5,0.5-0.8h1.5l0,0c-0.1,0.5-0.2,0.9-0.4,1.3c-0.2,0.4-0.5,0.6-0.9,0.8C95.4,155,94.9,155.1,94.3,155.1z
			 M101.4,155.1c-0.7,0-1.3-0.2-1.8-0.5c-0.5-0.3-0.9-0.7-1.1-1.3c-0.3-0.5-0.4-1.2-0.4-1.9v-0.1c0-0.7,0.1-1.3,0.4-1.9
			c0.3-0.5,0.7-1,1.1-1.3c0.5-0.3,1.1-0.5,1.8-0.5c0.7,0,1.3,0.2,1.8,0.5c0.5,0.3,0.9,0.7,1.1,1.3c0.3,0.5,0.4,1.2,0.4,1.9v0.1
			c0,0.7-0.1,1.3-0.4,1.9c-0.3,0.5-0.6,1-1.1,1.3C102.7,154.9,102.1,155.1,101.4,155.1z M101.4,153.7c0.3,0,0.6-0.1,0.8-0.3
			c0.2-0.2,0.4-0.4,0.5-0.8c0.1-0.3,0.2-0.7,0.2-1.2v-0.1c0-0.4-0.1-0.8-0.2-1.2c-0.1-0.3-0.3-0.6-0.5-0.8c-0.2-0.2-0.5-0.3-0.9-0.3
			s-0.6,0.1-0.9,0.3c-0.2,0.2-0.4,0.4-0.5,0.8c-0.1,0.3-0.2,0.7-0.2,1.2v0.1c0,0.4,0.1,0.8,0.2,1.2c0.1,0.3,0.3,0.6,0.5,0.8
			C100.8,153.6,101,153.7,101.4,153.7z M108.6,155.1c-0.8,0-1.3-0.2-1.8-0.7c-0.4-0.5-0.6-1.2-0.6-2.2v-3l-0.8-0.2v-1.1h0.8h1.8v4.3
			c0,0.6,0.1,0.9,0.3,1.2c0.2,0.2,0.5,0.3,0.9,0.3c0.3,0,0.6-0.1,0.8-0.2c0.2-0.1,0.4-0.3,0.6-0.5v-3.8l-0.9-0.2v-1.1h0.9h1.8v5.8
			l0.8,0.2v1.1h-2.4l-0.1-0.9c-0.2,0.3-0.5,0.6-0.8,0.8C109.4,155,109,155.1,108.6,155.1z M113.7,155v-1.1l1-0.2v-4.5l-1-0.2v-1.1
			h2.7l0.1,1c0.2-0.4,0.5-0.6,0.9-0.8c0.4-0.2,0.8-0.3,1.2-0.3c0.7,0,1.3,0.2,1.7,0.7c0.4,0.4,0.6,1.1,0.6,2.1v3.1l0.9,0.2v1.1h-3.6
			v-1.1l0.9-0.2v-3.1c0-0.5-0.1-0.9-0.3-1.1c-0.2-0.2-0.5-0.3-0.9-0.3c-0.3,0-0.5,0.1-0.8,0.2s-0.4,0.3-0.5,0.5v3.8l0.8,0.2v1.1
			H113.7z M124.8,155.1c-0.6,0-1.1-0.2-1.5-0.5c-0.3-0.4-0.5-0.9-0.5-1.7v-3.7h-1v-1.3h1v-1.7h1.8v1.7h1.3v1.3h-1.3v3.7
			c0,0.3,0.1,0.5,0.2,0.6c0.1,0.1,0.3,0.2,0.5,0.2c0.1,0,0.2,0,0.4,0c0.1,0,0.2,0,0.3-0.1l0.2,1.2c-0.2,0.1-0.4,0.1-0.7,0.1
			C125.3,155.1,125.1,155.1,124.8,155.1z"/>
		<path class="st3" d="M1.4,175.6h134.1v49.9H1.4L1.4,175.6z"/>
		<path d="M97.7,204.3v-1.1l1-0.2v-6.8l-1-0.2v-1.1h1h3.5c0.7,0,1.4,0.1,1.9,0.4c0.5,0.2,0.9,0.6,1.2,1.1c0.3,0.4,0.4,1,0.4,1.6
			c0,0.6-0.1,1.1-0.4,1.6c-0.3,0.4-0.7,0.8-1.2,1c-0.5,0.2-1.1,0.4-1.9,0.4h-1.6v2.1l1,0.2v1.1H97.7z M100.6,199.4h1.6
			c0.5,0,0.9-0.1,1.2-0.4c0.3-0.3,0.4-0.7,0.4-1.1c0-0.5-0.1-0.8-0.4-1.1c-0.3-0.3-0.7-0.5-1.2-0.5h-1.6V199.4z M106.3,204.3v-1.1
			l1-0.2v-6.8l-1-0.2v-1.1h4.5c0.7,0,1.4,0.1,1.9,0.3c0.5,0.2,0.9,0.5,1.2,1c0.3,0.4,0.4,0.9,0.4,1.5c0,0.6-0.1,1.1-0.4,1.5
			c-0.3,0.4-0.7,0.8-1.2,1c-0.5,0.2-1.1,0.4-1.7,0.4h-1.8v2.4l1,0.2v1.1H106.3z M112.4,204.3l-1.6-4.1l1.7-0.4l1.4,3.2l0.8,0.2v1.1
			H112.4z M109.2,199.1h1.5c0.5,0,0.9-0.1,1.2-0.3c0.3-0.2,0.4-0.6,0.4-1s-0.1-0.8-0.4-1c-0.3-0.3-0.7-0.4-1.2-0.4h-1.6V199.1z
			 M115.5,204.3v-1.1l1-0.2v-6.8l-1-0.2v-1.1h3.9v1.1l-1,0.2v6.8l1,0.2v1.1H115.5z M123.2,204.5c-0.5,0-1,0-1.5-0.1
			c-0.4-0.1-0.9-0.2-1.3-0.4l0-2h1.3l0.3,1c0.1,0.1,0.3,0.1,0.5,0.2c0.2,0,0.4,0.1,0.6,0.1c0.4,0,0.7-0.1,0.9-0.2
			c0.2-0.1,0.3-0.3,0.3-0.5c0-0.2-0.1-0.4-0.3-0.5c-0.2-0.2-0.5-0.3-1.1-0.4c-0.8-0.2-1.4-0.4-1.8-0.8c-0.4-0.4-0.6-0.8-0.6-1.4
			c0-0.4,0.1-0.7,0.3-1.1c0.2-0.3,0.5-0.6,0.9-0.8c0.4-0.2,0.9-0.3,1.6-0.3c0.5,0,1,0.1,1.5,0.2c0.4,0.1,0.8,0.2,1.1,0.4l0,1.9h-1.3
			l-0.2-0.9c-0.1-0.1-0.3-0.1-0.4-0.2c-0.2,0-0.3-0.1-0.5-0.1c-0.3,0-0.6,0.1-0.8,0.2c-0.2,0.1-0.3,0.3-0.3,0.5c0,0.1,0,0.2,0.1,0.3
			c0.1,0.1,0.2,0.2,0.4,0.3c0.2,0.1,0.5,0.2,0.8,0.2c0.9,0.2,1.5,0.5,1.9,0.8c0.4,0.3,0.6,0.8,0.6,1.4c0,0.7-0.2,1.2-0.7,1.6
			C124.8,204.3,124.1,204.5,123.2,204.5z"/>
		<path class="st5" d="M311.5,185.3c-0.3,3-1.7,8.4-1.6,11.9s2.1,4.7,2.1,9.1c0,4.4-1.9,11.8-1.9,17.1s2,8.7,2,14.3
			c0,5.6-2,14.3-1.9,19.2c0.1,4.9,2.3,6.2,2.4,10.1c0,3.9-2,9.2-2.2,13.6c-0.2,4.4,1,10.4,1,12.9s-1,0.5-1.1,2.1
			c-0.1,1.6,0.7,5.6,0.5,7.3c-0.2,1.7-1.6-0.4-1.6,2.8c0,3.2,1.7,11.1,1.6,16.4c0,5.3-1.8,11.3-1.8,15.7s1.8,6.2,1.9,10.5
			c0,4.3-1.8,10.2-1.7,15.3c0,5.1,1.8,10.7,1.9,15.3c0.2,4.6-1.2,9.3-0.9,12.2c0.3,2.9,1.7,4.7,2.7,5.4c1,0.7,2.4-1.7,3.5-1.4
			c1.1,0.3,2.1,3.1,3.1,3.1c1,0,2-3.3,3.1-3.2c1.2,0,3,3.1,4,3.5s1.4-0.5,1.8-0.9c0.4-0.4,0.7-1.1,0.9-1.5c0.2-0.4-0.1-1.2,0.3-0.9
			c0.3,0.2,0.6,2.4,1.7,2.3c1.1-0.1,3.3-3,5-3c1.7,0,4,3,5.1,3s0.7-3.2,1.7-2.8s3.1,5.3,4,5.3s0.7-4.9,1.2-5.4c0.5-0.6,1,1.8,1.6,2
			c0.6,0.2,1.3-1.4,1.8-0.8c0.5,0.6,0.4,4.3,1.4,4.3c1-0.1,3.2-4.6,4.6-4.7c1.5,0,3,3.9,4.1,4.4c1.1,0.5,1.9-0.7,2.5-1.1
			c0.6-0.4-0.1-1.2,1.1-1.5c1.2-0.4,5.1,2.5,6.3-0.8s0.7-13.8,1-19.2s1.4-10.4,1.1-13.3c-0.3-2.9-2.6-2.1-2.7-4.2
			c-0.1-2.1,2.1-6.2,2.4-8.4c0.3-2.2-0.9-2.2-0.8-4.9s1.4-8.7,1.2-11.2c-0.2-2.5-2.6-1.4-2.6-3.8c0-2.5,2.4-8.8,2.7-11.1
			c0.2-2.4-1.2-1.1-1.2-3.1c0-2.1,1.1-6.7,1.1-9.4s-1.3-2.3-1.1-6.6c0.2-4.3,2.6-15.4,2.6-19.2c-0.1-3.8-2.9-0.8-3-3.5
			c-0.1-2.7,2.2-7.9,2.6-12.6s0.3-12.7-0.1-15.3s-2.2,0.8-2.2-0.7c-0.1-1.6,1.5-4.4,1.9-8.7c0.4-4.3,0.8-13.4,0.4-17.1
			c-0.4-3.7-2.6-2.9-2.6-5.2s1.9-5,2.3-8.7c0.4-3.7,0.4-10.3,0.1-13.6c-0.4-3.3-1.8-4.4-2.2-6.3c-0.4-1.9,0-3.6-0.1-4.9
			c-0.1-1.3-0.7-1.3-0.7-2.9c0-1.6,1.7-5.3,0.9-6.6c-0.8-1.3-4.3-1-5.9-1.2s-2.7,0.3-3.8,0.1c-1.1-0.2-2.2-1.3-2.8-1.2
			s0.4,1.7-0.6,1.7c-1,0-4.1-1.9-5.5-1.9c-1.4,0-1.8,1.4-2.9,1.9s-2.4,1.8-3.5,1.6c-1.2-0.2-2.3-2.7-3.4-2.9s-2.3,1.8-3,1.7
			s-0.9-2.5-1.3-2.6s-0.4,1.8-0.8,2.2c-0.3,0.4-0.5,0.8-1.1,0.2s-1.7-4.2-2.6-3.7s-1.7,5.9-2.5,6.2s-1.4-4.2-2.7-4.6
			s-4.2,2.4-5.5,2.2s-1.5-3.2-2.4-3.5c-0.9-0.2-2.3,2-3,2.1s-0.9-1.7-1.3-1.6c-0.4,0.2-0.6,2.5-0.9,2.6c-0.3,0.1-0.4-1.7-1-2.1
			s-1.8-1.4-2.5-0.4c-0.7,1-1.5,4.5-1.8,6.6C311.4,181.2,311.8,182.3,311.5,185.3z"/>
		<path class="st3" d="M309.8,172.5c21.6-2.2,43.2,2.2,64.8,0.1"/>
		<path class="st4" d="M309.8,172.5c21.6-2.2,43.2,2.2,64.8,0.1"/>
		<path class="st3" d="M374.8,172.5c0.4,74.4-0.9,148.8-0.5,223.3"/>
		<path class="st4" d="M374.8,172.5c0.4,74.4-0.9,148.8-0.5,223.3"/>
		<path class="st3" d="M310.4,174.1c0.4,74.4-0.9,148.8-0.5,223.3"/>
		<path class="st4" d="M310.4,174.1c0.4,74.4-0.9,148.8-0.5,223.3"/>
		<path class="st3" d="M310.3,397.2c21.4-2.1,42.9,0.7,64.3-1.4"/>
		<path class="st4" d="M310.3,397.2c21.4-2.1,42.9,0.7,64.3-1.4"/>
		<path class="st5" d="M153.5,177.2c-0.3,1.2-1.6,3.5-1.5,4.9c0.1,1.4,2.1,1.8,2.2,3.6c0.1,1.8-1.9,4.9-1.8,7c0,2.1,2,3.4,2.1,5.7
			c0,2.3-1.9,5.9-1.8,7.9c0.1,2,2.4,2.4,2.4,4s-2,3.8-2.2,5.6c-0.2,1.8,1.1,4.2,1.1,5.2s-1,0.3-1.1,0.9s0.7,2.2,0.5,2.9
			c-0.2,0.7-1.6-0.1-1.5,1.2c0,1.3,1.7,4.4,1.7,6.6c0,2.2-1.8,4.7-1.7,6.4s1.9,2.4,1.9,4.1s-1.7,4.2-1.7,6.3s1.8,4.3,2,6.1
			c0.2,1.8-1.3,4-0.8,5c0.5,1,2.6,1.7,3.9,1.1c1.3-0.7,2.7-5,3.7-5c1.1,0,1.9,4.6,2.7,4.8c0.8,0.2,1.2-3.7,2.3-3.5
			c1,0.2,3,4.5,3.9,4.8c0.9,0.3,1.1-3,1.5-3.2c0.4-0.2,0.8,2.1,1.1,2.1c0.3,0,0.3-2.4,0.7-2.3s-0.3,2.9,1.3,2.8
			c1.6-0.2,6.5-3.7,8.2-3.8c1.7-0.1,1.3,3.4,1.9,3.3c0.6-0.1,0.9-3.9,1.8-3.8s3,4.4,3.8,4.5c0.8,0.1,0.8-3.6,1.3-3.9
			c0.5-0.3,0.9,2.4,1.5,2.3c0.6-0.1,1.4-3,2-2.8c0.5,0.2-0.2,4.1,1.3,4c1.5-0.1,6.2-4.5,7.8-4.5c1.6,0.1,1.4,4.5,2,4.8
			c0.6,0.4,0.9-2.4,1.4-2.5c0.5-0.1,0.4,2.1,1.5,1.8c1.1-0.4,4.1-2.3,5.3-3.9c1.1-1.7,1.2-4.1,1.6-6s1.3-4.3,1.1-5.4
			c-0.3-1.2-2.6-0.7-2.7-1.6c-0.1-0.8,2.1-2.6,2.3-3.5c0.2-0.9-0.9-0.8-0.8-1.9c0-1.1,1.4-3.6,1.1-4.6s-2.6-0.4-2.6-1.4
			c0-1,2.4-3.7,2.6-4.6c0.2-1-1.2-0.4-1.2-1.2s1-2.8,1-3.9s-1.3-0.9-1.1-2.6s2.6-6.4,2.5-7.9c-0.1-1.5-2.9-0.2-3-1.3
			c-0.1-1.1,2.1-3.3,2.5-5.2c0.4-1.9,0.2-5.1-0.2-6.2c-0.4-1.1-2.2,0.5-2.2-0.2c-0.1-0.6,1.5-1.9,1.9-3.6c0.4-1.8,0.7-5.4,0.4-6.9
			s-2.6-1.1-2.6-2c-0.1-0.9,1.9-2.1,2.3-3.6s0.4-4.2,0-5.5c-0.4-1.3-1.8-1.7-2.2-2.4c-0.4-0.7,0-1.7-0.1-2c-0.2-0.3-0.7,0.9-1,0.3
			s-0.3-3.7-0.9-3.8c-0.7-0.1-1.7,3.4-3,3.4s-3.7-3.1-4.8-3.4c-1-0.4-1,1.2-1.5,1.2s-0.2-1.6-1.1-0.9c-0.9,0.6-3.3,4.5-4.2,4.7
			s-0.7-3.2-1.3-3.2s-0.5,3.4-2.4,3.2c-1.9-0.2-7.1-4.1-8.8-4.2s-1.2,3-1.7,3.2s-1-1.9-1.4-1.8c-0.4,0.1-0.4,2.5-0.8,2.3
			c-0.3-0.2-0.4-3.6-1.2-3.3s-2.8,4.5-3.7,4.7c-0.8,0.2-0.9-3.3-1.4-3.5s-0.6,2.7-2,2.6s-4.7-3.1-6.3-3.2c-1.5-0.1-2,2.6-2.9,2.5
			c-0.9,0-1.9-2.8-2.5-2.8c-0.7-0.1-1.2,2.4-1.5,2.5c-0.4,0.1-0.4-1.9-0.6-1.9c-0.2,0-0.3,2-0.8,1.9c-0.6-0.1-1.9-2.7-2.7-2.7
			c-0.7,0-1.4,1.9-1.8,2.8S153.8,176,153.5,177.2z"/>
		<path class="st3" d="M152.8,173.4c21.4-1,42.8-0.1,64.3-1.1"/>
		<path class="st4" d="M152.8,173.4c21.4-1,42.8-0.1,64.3-1.1"/>
		<path class="st3" d="M217.3,171.7c0.4,30.6-1.1,61.1-0.7,91.7"/>
		<path class="st4" d="M217.3,171.7c0.4,30.6-1.1,61.1-0.7,91.7"/>
		<path class="st3" d="M153.2,173.3c0.4,30.1-1.5,60.2-1.1,90.3"/>
		<path class="st4" d="M153.2,173.3c0.4,30.1-1.5,60.2-1.1,90.3"/>
		<path class="st3" d="M152.5,263.8c21.4-1,42.8-0.1,64.3-1.1"/>
		<path class="st4" d="M152.5,263.8c21.4-1,42.8-0.1,64.3-1.1"/>
		<path class="st5" d="M549.7,174.5c-0.3,0.6-1.7,1.7-1.6,2.3c0.1,0.7,2.1,0.9,2.1,1.8c0,0.9-1.9,2.3-1.9,3.4c0,1,2,1.7,2,2.8
			c0,1.1-2,2.8-1.9,3.8s2.3,1.2,2.4,2c0,0.8-2,1.8-2.2,2.7c-0.2,0.9,1,2.1,1,2.6c0,0.5-1,0.1-1.1,0.4c-0.1,0.3,0.7,1.1,0.5,1.4
			s-1.6-0.1-1.6,0.6c0,0.6,1.7,2.2,1.6,3.2c0,1.1-1.8,2.2-1.8,3.1c0,0.9,1.8,1.2,1.9,2.1c0,0.9-1.8,2-1.7,3c0,1,1.8,2.1,1.9,3
			c0.2,0.9-1.4,1.9-0.9,2.4c0.5,0.5,2.6,0.9,3.9,0.6c1.3-0.3,2.7-2.4,3.8-2.3c1.1,0,1.8,2.3,2.6,2.4s1.3-1.8,2.3-1.7
			c1,0.1,3,2.3,3.9,2.4c0.9,0.1,1.1-1.4,1.6-1.5c0.4-0.1,0.8,1,1.1,1c0.3,0,0.4-1.1,0.7-1.1s-0.3,1.4,1.2,1.4s6.5-1.7,8.2-1.7
			s1.2,1.7,1.9,1.7c0.6,0,0.9-1.9,1.9-1.8s2.9,2.2,3.7,2.3c0.8,0.1,0.9-1.7,1.3-1.9s0.9,1.2,1.4,1.2c0.6,0,1.5-1.4,2-1.3
			s-0.3,2,1.2,2s6.2-2.1,7.9-2s1.4,2.2,1.9,2.4c0.6,0.2,0.9-1.1,1.4-1.2c0.5,0,0.4,1,1.5,0.9c1.1-0.1,4.1-1,5.3-1.8s1.2-2,1.7-2.9
			c0.5-0.9,1.4-2,1.1-2.6s-2.6-0.4-2.7-0.8s2.1-1.2,2.4-1.7c0.3-0.4-0.9-0.4-0.8-1c0.1-0.5,1.4-1.7,1.2-2.2s-2.6-0.3-2.6-0.8
			c0-0.5,2.4-1.7,2.7-2.2c0.2-0.5-1.2-0.2-1.2-0.6s1.1-1.3,1.1-1.9s-1.3-0.5-1.1-1.3c0.2-0.9,2.6-3,2.6-3.8c-0.1-0.7-2.9-0.2-3-0.7
			s2.2-1.6,2.6-2.5c0.4-0.9,0.3-2.5-0.1-3s-2.2,0.2-2.2-0.1c-0.1-0.3,1.5-0.9,1.9-1.7s0.8-2.6,0.4-3.4s-2.6-0.6-2.6-1
			c-0.1-0.5,1.9-1,2.3-1.7c0.4-0.7,0.4-2,0.1-2.7c-0.4-0.7-1.8-0.9-2.2-1.2c-0.4-0.4,0.1-0.8-0.1-1c-0.2-0.1-0.7,0.4-1,0.1
			s-0.2-1.8-0.9-1.9c-0.7,0-1.8,1.6-3.1,1.6s-3.7-1.6-4.7-1.8s-1.1,0.5-1.5,0.6c-0.4,0-0.2-0.8-1.1-0.5c-0.9,0.3-3.4,2.1-4.3,2.2
			c-0.9,0.1-0.7-1.6-1.3-1.6c-0.6,0-0.6,1.6-2.4,1.5c-1.9-0.1-7-2.1-8.8-2.3s-1.2,1.4-1.7,1.5c-0.5,0.1-1-0.9-1.4-0.9
			c-0.4,0-0.5,1.2-0.8,1.1c-0.3-0.1-0.4-1.7-1.2-1.7s-2.9,2.1-3.7,2.2s-0.8-1.6-1.4-1.7c-0.6-0.1-0.6,1.3-2,1.2
			c-1.4-0.1-4.7-1.6-6.2-1.7c-1.5-0.1-2,1.2-2.9,1.2c-0.9,0-1.8-1.4-2.5-1.4c-0.7,0-1.2,1.1-1.6,1.2c-0.4,0-0.4-1-0.6-1
			c-0.2,0-0.3,1-0.9,0.9s-1.9-1.4-2.6-1.4c-0.7,0-1.5,0.9-1.8,1.3C549.6,173.7,550,173.9,549.7,174.5z"/>
		<path class="st3" d="M546.4,173.3c22.4-1,44.8-0.4,67.2-1.5"/>
		<path class="st4" d="M546.4,173.3c22.4-1,44.8-0.4,67.2-1.5"/>
		<path class="st3" d="M613.2,172.2c0.4,14.7-0.9,29.6-0.5,44.4"/>
		<path class="st4" d="M613.2,172.2c0.4,14.7-0.9,29.6-0.5,44.4"/>
		<path class="st3" d="M546,172.8c1.6,14.6,1.7,29.6,1.9,44.4"/>
		<path class="st4" d="M546,172.8c1.6,14.6,1.7,29.6,1.9,44.4"/>
		<path class="st3" d="M613.1,215.4c-21.9,1.3-43.8-0.4-65.8,0.9"/>
		<path class="st4" d="M613.1,215.4c-21.9,1.3-43.8-0.4-65.8,0.9"/>
		<path class="st3" d="M717.1,2037.3"/>
		<path class="st6" d="M717.1,2037.3"/>
		<path class="st3" d="M717.1,2041.8"/>
		<path class="st7" d="M717.1,2041.8"/>
		<path class="st3" d="M717.1,2046.4"/>
		<path class="st7" d="M717.1,2046.4"/>
		<path class="st3" d="M717.1,2050.9"/>
		<path class="st7" d="M717.1,2050.9"/>
		<path class="st3" d="M717.1,2055.4"/>
		<path class="st7" d="M717.1,2055.4"/>
		<path class="st3" d="M717.1,1992.1"/>
		<path class="st6" d="M717.1,1992.1"/>
		<path class="st3" d="M717.1,1996.6"/>
		<path class="st7" d="M717.1,1996.6"/>
		<path class="st3" d="M717.1,2001.2"/>
		<path class="st7" d="M717.1,2001.2"/>
		<path class="st3" d="M717.1,2005.7"/>
		<path class="st7" d="M717.1,2005.7"/>
		<path class="st3" d="M717.1,2010.2"/>
		<path class="st7" d="M717.1,2010.2"/>
		<path class="st3" d="M717.1,2014.7"/>
		<path class="st6" d="M717.1,2014.7"/>
		<path class="st3" d="M717.1,2019.2"/>
		<path class="st7" d="M717.1,2019.2"/>
		<path class="st3" d="M717.1,2023.8"/>
		<path class="st7" d="M717.1,2023.8"/>
		<path class="st3" d="M717.1,2028.3"/>
		<path class="st7" d="M717.1,2028.3"/>
		<path class="st3" d="M717.1,2032.8"/>
		<path class="st7" d="M717.1,2032.8"/>
		<path class="st3" d="M717.1,2059.9"/>
		<path class="st6" d="M717.1,2059.9"/>
		<path class="st3" d="M717.1,2064.5"/>
		<path class="st7" d="M717.1,2064.5"/>
		<path class="st3" d="M717.1,2069"/>
		<path class="st7" d="M717.1,2069"/>
		<path class="st3" d="M717.1,2073.5"/>
		<path class="st7" d="M717.1,2073.5"/>
		<path class="st3" d="M717.1,2078"/>
		<path class="st7" d="M717.1,2078"/>
		<path class="st3" d="M717.1,2087.1"/>
		<path class="st7" d="M717.1,2087.1"/>
		<path class="st3" d="M717.1,2091.6"/>
		<path class="st7" d="M717.1,2091.6"/>
		<path class="st3" d="M717.1,2096.1"/>
		<path class="st7" d="M717.1,2096.1"/>
		<path class="st3" d="M717.1,2100.6"/>
		<path class="st7" d="M717.1,2100.6"/>
		<path class="st3" d="M717.1,2082.5"/>
		<path class="st6" d="M717.1,2082.5"/>
		<path class="st3" d="M717.1,2105.1"/>
		<path class="st6" d="M717.1,2105.1"/>
		<path class="st3" d="M717.1,2109.7"/>
		<path class="st7" d="M717.1,2109.7"/>
		<path class="st3" d="M717.1,2114.2"/>
		<path class="st7" d="M717.1,2114.2"/>
		<path class="st3" d="M717.1,2118.7"/>
		<path class="st7" d="M717.1,2118.7"/>
		<path class="st3" d="M717.1,2123.2"/>
		<path class="st7" d="M717.1,2123.2"/>
		<path class="st3" d="M717.1,2132.3"/>
		<path class="st7" d="M717.1,2132.3"/>
		<path class="st3" d="M717.1,2136.8"/>
		<path class="st7" d="M717.1,2136.8"/>
		<path class="st3" d="M717.1,2141.3"/>
		<path class="st7" d="M717.1,2141.3"/>
		<path class="st3" d="M717.1,2145.8"/>
		<path class="st7" d="M717.1,2145.8"/>
		<path class="st3" d="M717.1,2127.7"/>
		<path class="st6" d="M717.1,2127.7"/>
		<path class="st3" d="M717.1,2150.3"/>
		<path class="st6" d="M717.1,2150.3"/>
		<path class="st3" d="M717.1,2154.9"/>
		<path class="st7" d="M717.1,2154.9"/>
		<path class="st3" d="M717.1,2159.4"/>
		<path class="st7" d="M717.1,2159.4"/>
		<path class="st3" d="M717.1,2163.9"/>
		<path class="st7" d="M717.1,2163.9"/>
		<path class="st3" d="M717.1,2168.4"/>
		<path class="st7" d="M717.1,2168.4"/>
		<path class="st3" d="M717.1,2177.5"/>
		<path class="st7" d="M717.1,2177.5"/>
		<path class="st3" d="M717.1,2182"/>
		<path class="st7" d="M717.1,2182"/>
		<path class="st3" d="M717.1,2186.5"/>
		<path class="st7" d="M717.1,2186.5"/>
		<path class="st3" d="M717.1,2191"/>
		<path class="st7" d="M717.1,2191"/>
		<path class="st3" d="M717.1,2172.9"/>
		<path class="st6" d="M717.1,2172.9"/>
		<path class="st3" d="M717.1,2331.3"/>
		<path class="st6" d="M717.1,2331.3"/>
		<path class="st3" d="M717.1,2335.8"/>
		<path class="st7" d="M717.1,2335.8"/>
		<path class="st3" d="M717.1,2340.3"/>
		<path class="st7" d="M717.1,2340.3"/>
		<path class="st3" d="M717.1,2344.9"/>
		<path class="st7" d="M717.1,2344.9"/>
		<path class="st3" d="M717.1,2349.4"/>
		<path class="st7" d="M717.1,2349.4"/>
		<path class="st3" d="M717.1,2358.4"/>
		<path class="st7" d="M717.1,2358.4"/>
		<path class="st3" d="M717.1,2362.9"/>
		<path class="st7" d="M717.1,2362.9"/>
		<path class="st3" d="M717.1,2367.4"/>
		<path class="st7" d="M717.1,2367.4"/>
		<path class="st3" d="M717.1,2372"/>
		<path class="st7" d="M717.1,2372"/>
		<path class="st3" d="M717.1,2353.9"/>
		<path class="st6" d="M717.1,2353.9"/>
		<path class="st3" d="M717.1,2376.5"/>
		<path class="st6" d="M717.1,2376.5"/>
		<path class="st3" d="M717.1,2381"/>
		<path class="st7" d="M717.1,2381"/>
		<path class="st3" d="M717.1,2385.5"/>
		<path class="st7" d="M717.1,2385.5"/>
		<path class="st3" d="M717.1,2390"/>
		<path class="st7" d="M717.1,2390"/>
		<path class="st3" d="M717.1,2394.6"/>
		<path class="st7" d="M717.1,2394.6"/>
		<path class="st3" d="M717.1,2403.6"/>
		<path class="st7" d="M717.1,2403.6"/>
		<path class="st3" d="M717.1,2408.1"/>
		<path class="st7" d="M717.1,2408.1"/>
		<path class="st3" d="M717.1,2412.6"/>
		<path class="st7" d="M717.1,2412.6"/>
		<path class="st3" d="M717.1,2417.1"/>
		<path class="st7" d="M717.1,2417.1"/>
		<path class="st3" d="M717.1,2399.1"/>
		<path class="st6" d="M717.1,2399.1"/>
		<path class="st3" d="M717.1,2421.7"/>
		<path class="st6" d="M717.1,2421.7"/>
		<path class="st3" d="M717.1,2426.2"/>
		<path class="st7" d="M717.1,2426.2"/>
		<path class="st3" d="M717.1,2430.7"/>
		<path class="st7" d="M717.1,2430.7"/>
		<path class="st3" d="M717.1,2435.2"/>
		<path class="st7" d="M717.1,2435.2"/>
		<path class="st3" d="M717.1,2439.7"/>
		<path class="st7" d="M717.1,2439.7"/>
		<path class="st3" d="M717.1,2448.8"/>
		<path class="st7" d="M717.1,2448.8"/>
		<path class="st3" d="M717.1,2453.3"/>
		<path class="st7" d="M717.1,2453.3"/>
		<path class="st3" d="M717.1,2457.8"/>
		<path class="st7" d="M717.1,2457.8"/>
		<path class="st3" d="M717.1,2462.3"/>
		<path class="st7" d="M717.1,2462.3"/>
		<path class="st3" d="M717.1,2444.3"/>
		<path class="st6" d="M717.1,2444.3"/>
		<path class="st3" d="M717.1,2240.9"/>
		<path class="st6" d="M717.1,2240.9"/>
		<path class="st3" d="M717.1,2245.4"/>
		<path class="st7" d="M717.1,2245.4"/>
		<path class="st3" d="M717.1,2250"/>
		<path class="st7" d="M717.1,2250"/>
		<path class="st3" d="M717.1,2254.5"/>
		<path class="st7" d="M717.1,2254.5"/>
		<path class="st3" d="M717.1,2259"/>
		<path class="st7" d="M717.1,2259"/>
		<path class="st3" d="M717.1,2268"/>
		<path class="st7" d="M717.1,2268"/>
		<path class="st3" d="M717.1,2272.6"/>
		<path class="st7" d="M717.1,2272.6"/>
		<path class="st3" d="M717.1,2277.1"/>
		<path class="st7" d="M717.1,2277.1"/>
		<path class="st3" d="M717.1,2281.6"/>
		<path class="st7" d="M717.1,2281.6"/>
		<path class="st3" d="M717.1,2263.5"/>
		<path class="st6" d="M717.1,2263.5"/>
		<path class="st3" d="M717.1,2286.1"/>
		<path class="st6" d="M717.1,2286.1"/>
		<path class="st3" d="M717.1,2290.6"/>
		<path class="st7" d="M717.1,2290.6"/>
		<path class="st3" d="M717.1,2295.2"/>
		<path class="st7" d="M717.1,2295.2"/>
		<path class="st3" d="M717.1,2299.7"/>
		<path class="st7" d="M717.1,2299.7"/>
		<path class="st3" d="M717.1,2304.2"/>
		<path class="st7" d="M717.1,2304.2"/>
		<path class="st3" d="M717.1,2313.2"/>
		<path class="st7" d="M717.1,2313.2"/>
		<path class="st3" d="M717.1,2317.7"/>
		<path class="st7" d="M717.1,2317.7"/>
		<path class="st3" d="M717.1,2322.3"/>
		<path class="st7" d="M717.1,2322.3"/>
		<path class="st3" d="M717.1,2326.8"/>
		<path class="st7" d="M717.1,2326.8"/>
		<path class="st3" d="M717.1,2308.7"/>
		<path class="st6" d="M717.1,2308.7"/>
		<path class="st3" d="M650.8,216.8"/>
		<path class="st6" d="M650.8,216.8"/>
		<path class="st3" d="M650.8,221.3"/>
		<path class="st7" d="M650.8,221.3"/>
		<path class="st3" d="M650.8,225.8"/>
		<path class="st7" d="M650.8,225.8"/>
		<path class="st3" d="M650.8,230.3"/>
		<path class="st7" d="M650.8,230.3"/>
		<path class="st3" d="M650.8,234.9"/>
		<path class="st7" d="M650.8,234.9"/>
		<path class="st3" d="M650.8,239.4"/>
		<path class="st6" d="M650.8,239.4"/>
		<path class="st3" d="M650.8,243.9"/>
		<path class="st7" d="M650.8,243.9"/>
		<path class="st3" d="M650.8,248.4"/>
		<path class="st7" d="M650.8,248.4"/>
		<path class="st3" d="M650.8,252.9"/>
		<path class="st7" d="M650.8,252.9"/>
		<path class="st3" d="M650.8,257.5"/>
		<path class="st7" d="M650.8,257.5"/>
		<path class="st3" d="M650.8,266.5"/>
		<path class="st7" d="M650.8,266.5"/>
		<path class="st3" d="M650.8,271"/>
		<path class="st7" d="M650.8,271"/>
		<path class="st3" d="M650.8,275.6"/>
		<path class="st7" d="M650.8,275.6"/>
		<path class="st3" d="M650.8,280.1"/>
		<path class="st7" d="M650.8,280.1"/>
		<path class="st3" d="M650.8,262"/>
		<path class="st6" d="M650.8,262"/>
		<path class="st3" d="M650.8,375"/>
		<path class="st6" d="M650.8,375"/>
		<path class="st3" d="M650.8,379.5"/>
		<path class="st7" d="M650.8,379.5"/>
		<path class="st3" d="M650.8,384.1"/>
		<path class="st7" d="M650.8,384.1"/>
		<path class="st3" d="M650.8,388.6"/>
		<path class="st7" d="M650.8,388.6"/>
		<path class="st3" d="M650.8,393.1"/>
		<path class="st7" d="M650.8,393.1"/>
		<path class="st3" d="M650.8,284.6"/>
		<path class="st6" d="M650.8,284.6"/>
		<path class="st3" d="M650.8,289.1"/>
		<path class="st7" d="M650.8,289.1"/>
		<path class="st3" d="M650.8,293.6"/>
		<path class="st7" d="M650.8,293.6"/>
		<path class="st3" d="M650.8,298.2"/>
		<path class="st7" d="M650.8,298.2"/>
		<path class="st3" d="M650.8,302.7"/>
		<path class="st7" d="M650.8,302.7"/>
		<path class="st3" d="M650.8,311.7"/>
		<path class="st7" d="M650.8,311.7"/>
		<path class="st3" d="M650.8,316.2"/>
		<path class="st7" d="M650.8,316.2"/>
		<path class="st3" d="M650.8,320.8"/>
		<path class="st7" d="M650.8,320.8"/>
		<path class="st3" d="M650.8,325.3"/>
		<path class="st7" d="M650.8,325.3"/>
		<path class="st3" d="M650.8,307.2"/>
		<path class="st6" d="M650.8,307.2"/>
		<path class="st3" d="M650.8,329.8"/>
		<path class="st6" d="M650.8,329.8"/>
		<path class="st3" d="M650.8,334.3"/>
		<path class="st7" d="M650.8,334.3"/>
		<path class="st3" d="M650.8,338.8"/>
		<path class="st7" d="M650.8,338.8"/>
		<path class="st3" d="M650.8,343.4"/>
		<path class="st7" d="M650.8,343.4"/>
		<path class="st3" d="M650.8,347.9"/>
		<path class="st7" d="M650.8,347.9"/>
		<path class="st3" d="M650.8,356.9"/>
		<path class="st7" d="M650.8,356.9"/>
		<path class="st3" d="M650.8,361.4"/>
		<path class="st7" d="M650.8,361.4"/>
		<path class="st3" d="M650.8,366"/>
		<path class="st7" d="M650.8,366"/>
		<path class="st3" d="M650.8,370.5"/>
		<path class="st7" d="M650.8,370.5"/>
		<path class="st3" d="M650.8,352.4"/>
		<path class="st6" d="M650.8,352.4"/>
		<path class="st3" d="M650.8,198.7"/>
		<path class="st7" d="M650.8,198.7"/>
		<path class="st3" d="M650.8,203.2"/>
		<path class="st7" d="M650.8,203.2"/>
		<path class="st3" d="M650.8,207.7"/>
		<path class="st7" d="M650.8,207.7"/>
		<path class="st3" d="M650.8,212.3"/>
		<path class="st7" d="M650.8,212.3"/>
		<path class="st3" d="M650.8,194.2"/>
		<path class="st6" d="M650.8,194.2"/>
		<path class="st3" d="M650.8,176.1"/>
		<path class="st7" d="M650.8,176.1"/>
		<path class="st3" d="M650.8,180.6"/>
		<path class="st7" d="M650.8,180.6"/>
		<path class="st3" d="M650.8,185.1"/>
		<path class="st7" d="M650.8,185.1"/>
		<path class="st3" d="M650.8,189.7"/>
		<path class="st7" d="M650.8,189.7"/>
		<path class="st3" d="M650.8,171.6"/>
		<path class="st6" d="M650.8,171.6"/>
		<path class="st3" d="M650.8,108.3"/>
		<path class="st7" d="M650.8,108.3"/>
		<path class="st3" d="M650.8,112.9"/>
		<path class="st7" d="M650.8,112.9"/>
		<path class="st3" d="M650.8,117.4"/>
		<path class="st7" d="M650.8,117.4"/>
		<path class="st3" d="M650.8,121.9"/>
		<path class="st7" d="M650.8,121.9"/>
		<path class="st3" d="M650.8,103.8"/>
		<path class="st6" d="M650.8,103.8"/>
		<path class="st3" d="M650.8,85.7"/>
		<path class="st7" d="M650.8,85.7"/>
		<path class="st3" d="M650.8,90.2"/>
		<path class="st7" d="M650.8,90.2"/>
		<path class="st3" d="M650.8,94.7"/>
		<path class="st7" d="M650.8,94.7"/>
		<path class="st3" d="M650.8,99.3"/>
		<path class="st7" d="M650.8,99.3"/>
		<path class="st3" d="M650.8,81.1"/>
		<path class="st6" d="M650.8,81.1"/>
		<path class="st3" d="M652.6,397.6"/>
		<path class="st7" d="M652.6,397.6"/>
		<path shape-rendering="crispEdges" class="st8" d="M0,0.1h127v22H0C0,22.1,0,0.1,0,0.1z"/>
		<path shape-rendering="crispEdges" class="st8" d="M127,0.1h91.3v22H127C127,22.1,127,0.1,127,0.1z"/>
		<path shape-rendering="crispEdges" class="st8" d="M218.3,0.1h77.8v22h-77.8C218.3,22.1,218.3,0.1,218.3,0.1z"/>
		<path shape-rendering="crispEdges" class="st8" d="M296.1,0.1h80v22h-80C296.1,22.1,296.1,0.1,296.1,0.1z"/>
		<path shape-rendering="crispEdges" class="st8" d="M376,0.1h79.6v22H376C376,22.1,376,0.1,376,0.1z"/>
		<path shape-rendering="crispEdges" class="st8" d="M455.6,0.1h77.7v22h-77.7C455.6,22.1,455.6,0.1,455.6,0.1z"/>
		<path shape-rendering="crispEdges" class="st8" d="M533.3,0.1h81.3v22h-81.3C533.3,22.1,533.3,0.1,533.3,0.1z"/>
		<path class="st9" d="M127,21.6v45"/>
		<path class="st10" d="M218.3-0.4v23"/>
		<path class="st9" d="M218.3,22.6v44"/>
		<path class="st10" d="M296.1-0.4v23"/>
		<path class="st9" d="M296.1,22.6v44"/>
		<path class="st10" d="M376-0.4v23"/>
		<path class="st9" d="M376,22.6v44"/>
		<path class="st10" d="M455.6-0.4v23"/>
		<path class="st9" d="M455.6,22.6v44"/>
		<path class="st10" d="M533.3-0.4v23"/>
		<path class="st9" d="M533.3,22.6v44"/>
		<path class="st11" d="M158.5,15c-0.7,0-1.3-0.1-1.9-0.2c-0.6-0.2-1.1-0.4-1.7-0.8v-2.3h1.5l0.2,1.3c0.2,0.2,0.5,0.3,0.8,0.4
			c0.3,0.1,0.7,0.2,1.1,0.2c0.3,0,0.6,0,0.9-0.1c0.2-0.1,0.4-0.2,0.5-0.4c0.1-0.2,0.2-0.4,0.2-0.6c0-0.2-0.1-0.4-0.2-0.6
			c-0.1-0.2-0.3-0.3-0.5-0.5c-0.2-0.1-0.6-0.3-1-0.4c-0.8-0.2-1.4-0.5-1.9-0.7c-0.5-0.3-0.9-0.6-1.1-0.9c-0.2-0.4-0.4-0.8-0.4-1.3
			s0.1-1,0.4-1.4c0.3-0.4,0.7-0.7,1.2-0.9c0.5-0.2,1.1-0.3,1.8-0.4c0.7,0,1.4,0.1,1.9,0.3c0.6,0.2,1,0.4,1.5,0.8v2.1h-1.4l-0.2-1.3
			c-0.2-0.1-0.4-0.2-0.7-0.3c-0.3-0.1-0.6-0.1-1-0.1c-0.3,0-0.6,0-0.8,0.1c-0.2,0.1-0.4,0.2-0.5,0.4c-0.1,0.2-0.2,0.4-0.2,0.6
			c0,0.2,0.1,0.4,0.2,0.5c0.1,0.2,0.3,0.3,0.6,0.5c0.3,0.1,0.7,0.3,1.2,0.5c1,0.3,1.8,0.7,2.4,1.2c0.5,0.5,0.8,1.1,0.8,1.9
			c0,0.5-0.1,1-0.4,1.4c-0.3,0.4-0.7,0.7-1.2,0.9C159.8,14.9,159.2,15,158.5,15z M165.2,15c-0.7,0-1.3-0.2-1.7-0.6
			c-0.4-0.4-0.6-0.9-0.6-1.5c0-0.4,0.1-0.8,0.4-1.2c0.2-0.3,0.6-0.6,1.1-0.8c0.5-0.2,1.1-0.3,1.8-0.3h0.9v-0.5
			c0-0.3-0.1-0.6-0.3-0.8c-0.2-0.2-0.5-0.3-0.9-0.3c-0.2,0-0.4,0-0.5,0.1c-0.2,0.1-0.3,0.1-0.4,0.2l-0.1,0.9h-1.4l0-1.8
			c0.4-0.2,0.8-0.4,1.2-0.5c0.4-0.1,0.9-0.2,1.4-0.2c0.9,0,1.6,0.2,2.2,0.6c0.5,0.4,0.8,1,0.8,1.8v2.9c0,0.1,0,0.2,0,0.3
			s0,0.2,0,0.3l0.7,0.1v1.1h-2.4c-0.1-0.1-0.1-0.3-0.2-0.4c0-0.1-0.1-0.3-0.1-0.4c-0.2,0.3-0.5,0.5-0.8,0.7
			C166,14.9,165.6,15,165.2,15z M165.7,13.6c0.3,0,0.5-0.1,0.8-0.2c0.2-0.1,0.4-0.3,0.5-0.5v-1.1H166c-0.4,0-0.7,0.1-1,0.3
			c-0.2,0.2-0.3,0.4-0.3,0.7c0,0.3,0.1,0.5,0.2,0.6C165.2,13.5,165.4,13.6,165.7,13.6z M170.2,14.9v-1.1l0.9-0.2V6.1l-1-0.2V4.7h2.9
			v8.8l0.9,0.2v1.1C174,14.9,170.2,14.9,170.2,14.9z M174.5,14.9v-1.1l0.9-0.2V9.2l-1-0.2V7.8h2.9v5.7l0.9,0.2v1.1H174.5z
			 M175.4,6.3V4.7h2v1.6H175.4z M178.8,14.9v-1.1l0.9-0.2V9.2l-1-0.2V7.8h2.8l0.1,0.9c0.2-0.3,0.5-0.6,0.8-0.8
			c0.3-0.2,0.7-0.3,1.2-0.3c0.5,0,0.8,0.1,1.2,0.3c0.3,0.2,0.6,0.5,0.7,0.9c0.2-0.4,0.5-0.7,0.8-0.9c0.3-0.2,0.8-0.3,1.2-0.3
			c0.7,0,1.2,0.2,1.6,0.7c0.4,0.5,0.6,1.2,0.6,2.2v3l0.9,0.2v1.1h-3.6v-1.1l0.8-0.2v-3c0-0.5-0.1-0.9-0.3-1.1
			c-0.2-0.2-0.4-0.3-0.8-0.3c-0.3,0-0.5,0.1-0.8,0.2c-0.2,0.2-0.3,0.4-0.4,0.7v3.5l0.8,0.2v1.1H183v-1.1l0.8-0.2v-3
			c0-0.5-0.1-0.9-0.3-1.1c-0.2-0.2-0.4-0.3-0.8-0.3c-0.3,0-0.5,0.1-0.7,0.2c-0.2,0.1-0.3,0.3-0.5,0.5v3.7l0.8,0.2v1.1H178.8z"/>
		<path class="st11" d="M236.9,14.9v-1.1l1-0.2V6.8l-1-0.2V5.4h1h3.1c0.9,0,1.6,0.2,2.2,0.6c0.6,0.4,1.1,0.9,1.5,1.6
			c0.4,0.7,0.5,1.5,0.5,2.4v0.2c0,0.9-0.2,1.7-0.5,2.4c-0.4,0.7-0.9,1.2-1.5,1.7c-0.6,0.4-1.4,0.6-2.2,0.6H236.9z M239.8,13.4h1.2
			c0.5,0,1-0.1,1.3-0.4c0.4-0.3,0.6-0.7,0.8-1.1c0.2-0.5,0.3-1,0.3-1.6V10c0-0.6-0.1-1.2-0.3-1.7c-0.2-0.5-0.5-0.9-0.8-1.1
			c-0.4-0.3-0.8-0.4-1.3-0.4h-1.2V13.4z M248.5,15c-0.7,0-1.3-0.2-1.7-0.6c-0.4-0.4-0.6-0.9-0.6-1.5c0-0.4,0.1-0.8,0.4-1.2
			c0.2-0.3,0.6-0.6,1.1-0.8c0.5-0.2,1.1-0.3,1.8-0.3h0.9v-0.5c0-0.3-0.1-0.6-0.3-0.8c-0.2-0.2-0.5-0.3-0.9-0.3c-0.2,0-0.4,0-0.5,0.1
			c-0.2,0.1-0.3,0.1-0.4,0.2l-0.1,0.9h-1.4l0-1.8c0.4-0.2,0.8-0.4,1.2-0.5c0.4-0.1,0.9-0.2,1.4-0.2c0.9,0,1.6,0.2,2.2,0.6
			c0.5,0.4,0.8,1,0.8,1.8v2.9c0,0.1,0,0.2,0,0.3s0,0.2,0,0.3l0.7,0.1v1.1h-2.4c-0.1-0.1-0.1-0.3-0.2-0.4c0-0.1-0.1-0.3-0.1-0.4
			c-0.2,0.3-0.5,0.5-0.8,0.7C249.3,14.9,249,15,248.5,15z M249.1,13.6c0.3,0,0.5-0.1,0.8-0.2c0.2-0.1,0.4-0.3,0.5-0.5v-1.1h-0.9
			c-0.4,0-0.7,0.1-1,0.3c-0.2,0.2-0.3,0.4-0.3,0.7c0,0.3,0.1,0.5,0.2,0.6C248.5,13.5,248.8,13.6,249.1,13.6z M253.6,14.9v-1.1
			l0.9-0.2V6.1l-1-0.2V4.7h2.9v8.8l0.9,0.2v1.1C257.3,14.9,253.6,14.9,253.6,14.9z M257.9,14.9v-1.1l0.9-0.2V9.2l-1-0.2V7.8h2.9v5.7
			l0.9,0.2v1.1H257.9z M258.7,6.3V4.7h2v1.6H258.7z M264.6,15c-0.7,0-1.3-0.2-1.7-0.6c-0.4-0.4-0.6-0.9-0.6-1.5
			c0-0.4,0.1-0.8,0.4-1.2c0.2-0.3,0.6-0.6,1.1-0.8c0.5-0.2,1.1-0.3,1.8-0.3h0.9v-0.5c0-0.3-0.1-0.6-0.3-0.8
			c-0.2-0.2-0.5-0.3-0.9-0.3c-0.2,0-0.4,0-0.5,0.1c-0.2,0.1-0.3,0.1-0.4,0.2l-0.1,0.9h-1.4l0-1.8c0.4-0.2,0.8-0.4,1.2-0.5
			c0.4-0.1,0.9-0.2,1.4-0.2c0.9,0,1.6,0.2,2.2,0.6c0.5,0.4,0.8,1,0.8,1.8v2.9c0,0.1,0,0.2,0,0.3s0,0.2,0,0.3l0.7,0.1v1.1h-2.4
			c-0.1-0.1-0.1-0.3-0.2-0.4c0-0.1-0.1-0.3-0.1-0.4c-0.2,0.3-0.5,0.5-0.8,0.7C265.4,14.9,265,15,264.6,15z M265.1,13.6
			c0.3,0,0.5-0.1,0.8-0.2c0.2-0.1,0.4-0.3,0.5-0.5v-1.1h-0.9c-0.4,0-0.7,0.1-1,0.3c-0.2,0.2-0.3,0.4-0.3,0.7c0,0.3,0.1,0.5,0.2,0.6
			C264.6,13.5,264.8,13.6,265.1,13.6z M269.7,14.9v-1.1l0.9-0.2V6.1l-1-0.2V4.7h2.9v4c0.2-0.3,0.5-0.6,0.8-0.7
			c0.3-0.2,0.7-0.3,1.1-0.3c0.7,0,1.3,0.2,1.7,0.7c0.4,0.5,0.6,1.2,0.6,2.2v3l0.9,0.2v1.1H274v-1.1l0.8-0.2v-3
			c0-0.5-0.1-0.9-0.3-1.1c-0.2-0.2-0.5-0.3-0.8-0.3c-0.2,0-0.5,0.1-0.7,0.2c-0.2,0.1-0.4,0.3-0.5,0.5v3.7l0.8,0.2v1.1H269.7z"/>
		<path class="st11" d="M317.7,14.9v-1.1l0.7-0.1l3-8.2h2l3,8.2l0.7,0.1v1.1h-3.2v-1.1l0.7-0.1l-0.4-1.3h-3.3l-0.4,1.3l0.7,0.1v1.1
			H317.7z M321.1,10.9h2.4l-1.1-3.2l-0.1-0.3h0l-0.1,0.3L321.1,10.9z M327.6,14.9v-1.1l0.9-0.2V6.1l-1-0.2V4.7h2.9v8.8l0.9,0.2v1.1
			C331.3,14.9,327.6,14.9,327.6,14.9z M331.8,14.9v-1.1l0.9-0.2V9.2l-1-0.2V7.8h2.9v5.7l0.9,0.2v1.1H331.8z M332.7,6.3V4.7h2v1.6
			H332.7z M339.5,15c-0.7,0-1.3-0.2-1.8-0.5c-0.5-0.3-0.9-0.7-1.1-1.3c-0.3-0.5-0.4-1.1-0.4-1.8v-0.2c0-0.7,0.1-1.3,0.4-1.8
			s0.7-0.9,1.1-1.2c0.5-0.3,1.1-0.5,1.7-0.5c0.6,0,1.2,0.1,1.6,0.3c0.5,0.2,0.8,0.4,1.1,0.7l0,2h-1.4l-0.2-1.2
			c-0.1-0.1-0.2-0.2-0.4-0.2c-0.2-0.1-0.3-0.1-0.5-0.1c-0.3,0-0.6,0.1-0.9,0.3c-0.2,0.2-0.4,0.4-0.5,0.7c-0.1,0.3-0.2,0.7-0.2,1.2
			v0.2c0,0.5,0.1,0.9,0.2,1.2c0.1,0.3,0.3,0.5,0.5,0.7c0.2,0.1,0.4,0.2,0.7,0.2c0.3,0,0.6-0.1,0.8-0.2c0.2-0.2,0.3-0.4,0.4-0.8h1.6
			l0,0c-0.1,0.5-0.2,0.9-0.4,1.3c-0.2,0.4-0.5,0.6-0.9,0.8C340.6,14.9,340.1,15,339.5,15z M343.2,14.9v-1.1l0.9-0.2V9.2l-1-0.2V7.8
			h2.9v5.7l0.9,0.2v1.1H343.2z M344,6.3V4.7h2v1.6H344z M349.9,15c-0.7,0-1.3-0.2-1.7-0.6c-0.4-0.4-0.6-0.9-0.6-1.5
			c0-0.4,0.1-0.8,0.4-1.2c0.2-0.3,0.6-0.6,1.1-0.8c0.5-0.2,1.1-0.3,1.8-0.3h0.9v-0.5c0-0.3-0.1-0.6-0.3-0.8
			c-0.2-0.2-0.5-0.3-0.9-0.3c-0.2,0-0.4,0-0.5,0.1c-0.2,0.1-0.3,0.1-0.4,0.2l-0.1,0.9H348l0-1.8c0.4-0.2,0.8-0.4,1.2-0.5
			c0.4-0.1,0.9-0.2,1.4-0.2c0.9,0,1.6,0.2,2.2,0.6c0.5,0.4,0.8,1,0.8,1.8v2.9c0,0.1,0,0.2,0,0.3s0,0.2,0,0.3l0.7,0.1v1.1H352
			c-0.1-0.1-0.1-0.3-0.2-0.4c0-0.1-0.1-0.3-0.1-0.4c-0.2,0.3-0.5,0.5-0.8,0.7C350.7,14.9,350.3,15,349.9,15z M350.4,13.6
			c0.3,0,0.5-0.1,0.8-0.2c0.2-0.1,0.4-0.3,0.5-0.5v-1.1h-0.9c-0.4,0-0.7,0.1-1,0.3c-0.2,0.2-0.3,0.4-0.3,0.7c0,0.3,0.1,0.5,0.2,0.6
			C349.9,13.5,350.1,13.6,350.4,13.6z"/>
		<path class="st11" d="M405.2,12.5l-1-1.1l4.6-4.8l0,0L408,6.5V5.4h3.9v1.1L411,6.7L405.2,12.5z M402.7,14.9v-1.1l1-0.2V6.7l-1-0.2
			V5.4h3.9v1.1l-1,0.2v6.8l1,0.2v1.1H402.7z M408.2,14.9v-1.1l0.9-0.1l0,0l-2.4-3.3l1.3-1.3l3.4,4.5l0.9,0.2v1.1H408.2z M412.8,14.9
			v-1.1l0.9-0.2V9.2l-1-0.2V7.8h2.9v5.7l0.9,0.2v1.1H412.8z M413.6,6.3V4.7h2v1.6H413.6z M417.1,14.9v-1.1l0.9-0.2V9.2L417,9V7.8
			h2.8l0.1,0.9c0.2-0.3,0.5-0.6,0.8-0.8c0.3-0.2,0.7-0.3,1.2-0.3c0.5,0,0.8,0.1,1.2,0.3c0.3,0.2,0.6,0.5,0.7,0.9
			c0.2-0.4,0.5-0.7,0.8-0.9c0.3-0.2,0.8-0.3,1.2-0.3c0.7,0,1.2,0.2,1.6,0.7c0.4,0.5,0.6,1.2,0.6,2.2v3l0.9,0.2v1.1h-3.6v-1.1
			l0.8-0.2v-3c0-0.5-0.1-0.9-0.3-1.1c-0.2-0.2-0.4-0.3-0.8-0.3c-0.3,0-0.5,0.1-0.8,0.2c-0.2,0.2-0.3,0.4-0.4,0.7v3.5l0.8,0.2v1.1
			h-3.4v-1.1l0.8-0.2v-3c0-0.5-0.1-0.9-0.3-1.1c-0.2-0.2-0.4-0.3-0.8-0.3c-0.3,0-0.5,0.1-0.7,0.2c-0.2,0.1-0.3,0.3-0.5,0.5v3.7
			l0.8,0.2v1.1H417.1z"/>
		<path class="st11" d="M481.9,15c-0.7,0-1.2-0.1-1.7-0.3c-0.5-0.2-0.9-0.6-1.2-1c-0.3-0.5-0.4-1-0.5-1.8v0h1.8
			c0,0.6,0.2,1.1,0.4,1.3c0.3,0.2,0.6,0.4,1,0.4c0.3,0,0.5-0.1,0.7-0.2c0.2-0.1,0.4-0.3,0.5-0.5c0.1-0.2,0.2-0.5,0.2-0.8V6.7
			l-1.3-0.2V5.4h4.2v1.1l-1,0.2V12c0,0.6-0.1,1.1-0.4,1.6c-0.2,0.4-0.6,0.8-1,1C483.1,14.9,482.6,15,481.9,15z M489.5,15
			c-0.7,0-1.3-0.2-1.8-0.7c-0.4-0.5-0.6-1.2-0.6-2.2V9.2L486.4,9V7.8h0.8h1.9v4.3c0,0.5,0.1,0.9,0.2,1.1c0.2,0.2,0.4,0.3,0.8,0.3
			c0.3,0,0.5-0.1,0.8-0.2c0.2-0.1,0.4-0.3,0.5-0.5V9.2L490.6,9V7.8h0.8h1.9v5.7l0.8,0.2v1.1h-2.5l-0.1-0.9c-0.2,0.3-0.5,0.6-0.8,0.8
			C490.4,14.9,490,15,489.5,15z M494.8,14.9v-1.1l0.9-0.2V6.1l-1-0.2V4.7h2.9v8.8l0.9,0.2v1.1C498.5,14.9,494.8,14.9,494.8,14.9z
			 M499,14.9v-1.1l0.9-0.2V9.2L499,9V7.8h2.9v5.7l0.9,0.2v1.1H499z M499.9,6.3V4.7h2v1.6H499.9z M506.8,15c-0.7,0-1.3-0.2-1.8-0.5
			c-0.5-0.3-0.9-0.7-1.2-1.3c-0.3-0.5-0.4-1.2-0.4-1.9v-0.1c0-0.7,0.1-1.3,0.4-1.9c0.3-0.5,0.7-1,1.1-1.3c0.5-0.3,1.1-0.5,1.8-0.5
			c0.7,0,1.3,0.2,1.8,0.5c0.5,0.3,0.9,0.7,1.1,1.3c0.3,0.5,0.4,1.2,0.4,1.9v0.1c0,0.7-0.1,1.3-0.4,1.9c-0.3,0.5-0.6,1-1.1,1.3
			C508,14.9,507.5,15,506.8,15z M506.8,13.5c0.3,0,0.6-0.1,0.8-0.3c0.2-0.2,0.4-0.4,0.5-0.7c0.1-0.3,0.2-0.7,0.2-1.1v-0.1
			c0-0.4-0.1-0.8-0.2-1.1c-0.1-0.3-0.2-0.6-0.5-0.8c-0.2-0.2-0.5-0.3-0.8-0.3c-0.3,0-0.6,0.1-0.8,0.3c-0.2,0.2-0.4,0.4-0.5,0.8
			c-0.1,0.3-0.1,0.7-0.1,1.1v0.1c0,0.4,0,0.8,0.1,1.1c0.1,0.3,0.2,0.6,0.5,0.8C506.2,13.5,506.4,13.5,506.8,13.5z"/>
		<path class="st11" d="M556.8,14.9v-1.1l0.7-0.1l3-8.2h2l3,8.2l0.7,0.1v1.1h-3.2v-1.1l0.7-0.1l-0.4-1.3h-3.3l-0.4,1.3l0.7,0.1v1.1
			H556.8z M560.2,10.9h2.4l-1.1-3.2l-0.1-0.3h0l-0.1,0.3L560.2,10.9z M566.6,14.9v-1.1l0.9-0.2V9.2l-1-0.2V7.8h2.8l0.1,1
			c0.2-0.4,0.5-0.6,0.9-0.8c0.3-0.2,0.7-0.3,1.2-0.3c0.7,0,1.2,0.2,1.6,0.7c0.4,0.4,0.6,1.1,0.6,2.1v3.1l0.9,0.2v1.1h-3.6v-1.1
			l0.8-0.2v-3.1c0-0.5-0.1-0.8-0.3-1c-0.2-0.2-0.5-0.3-0.8-0.3c-0.3,0-0.5,0.1-0.7,0.2c-0.2,0.1-0.4,0.3-0.5,0.5v3.7l0.8,0.2v1.1
			H566.6z M575.1,14.9v-1.1l0.9-0.2V9.2L575,9V7.8h2.9v5.7l0.9,0.2v1.1H575.1z M575.9,6.3V4.7h2v1.6H575.9z M582.2,15
			c-0.7,0-1.2-0.2-1.5-0.5c-0.4-0.4-0.5-0.9-0.5-1.7V9.2h-1V7.8h1V6.1h1.9v1.7h1.3v1.3h-1.3v3.6c0,0.3,0.1,0.5,0.2,0.6
			c0.1,0.1,0.3,0.2,0.5,0.2c0.1,0,0.2,0,0.3,0c0.1,0,0.2,0,0.3-0.1l0.2,1.4c-0.2,0.1-0.4,0.1-0.6,0.1C582.6,15,582.4,15,582.2,15z
			 M586.6,15c-0.7,0-1.3-0.2-1.7-0.6c-0.4-0.4-0.6-0.9-0.6-1.5c0-0.4,0.1-0.8,0.4-1.2c0.2-0.3,0.6-0.6,1.1-0.8
			c0.5-0.2,1.1-0.3,1.8-0.3h0.9v-0.5c0-0.3-0.1-0.6-0.3-0.8c-0.2-0.2-0.5-0.3-0.9-0.3c-0.2,0-0.4,0-0.5,0.1
			c-0.2,0.1-0.3,0.1-0.4,0.2l-0.1,0.9h-1.4l0-1.8c0.4-0.2,0.8-0.4,1.2-0.5c0.4-0.1,0.9-0.2,1.4-0.2c0.9,0,1.6,0.2,2.2,0.6
			c0.5,0.4,0.8,1,0.8,1.8v2.9c0,0.1,0,0.2,0,0.3s0,0.2,0,0.3l0.7,0.1v1.1h-2.4c-0.1-0.1-0.1-0.3-0.2-0.4c0-0.1-0.1-0.3-0.1-0.4
			c-0.2,0.3-0.5,0.5-0.8,0.7C587.4,14.9,587,15,586.6,15z M587.1,13.6c0.3,0,0.5-0.1,0.8-0.2c0.2-0.1,0.4-0.3,0.5-0.5v-1.1h-0.9
			c-0.4,0-0.7,0.1-1,0.3c-0.2,0.2-0.3,0.4-0.3,0.7c0,0.3,0.1,0.5,0.2,0.6C586.6,13.5,586.8,13.6,587.1,13.6z"/>
		<path d="M89.3,36.9v-1.1l1-0.2v-6.8l-1-0.2v-1.1h4.5c0.7,0,1.4,0.1,1.9,0.3c0.5,0.2,0.9,0.5,1.2,1c0.3,0.4,0.4,0.9,0.4,1.5
			c0,0.6-0.1,1.1-0.4,1.5c-0.3,0.4-0.7,0.8-1.2,1c-0.5,0.2-1.1,0.4-1.7,0.4h-1.8v2.4l1,0.2v1.1H89.3z M95.4,36.9l-1.6-4.1l1.7-0.4
			l1.4,3.2l0.8,0.2v1.1H95.4z M92.2,31.7h1.5c0.5,0,0.9-0.1,1.2-0.3c0.3-0.2,0.4-0.6,0.4-1c0-0.4-0.1-0.8-0.4-1
			c-0.3-0.3-0.7-0.4-1.2-0.4h-1.6V31.7z M98.4,36.9v-1.1l0.7-0.1l3-8.2h2l3,8.2l0.7,0.1v1.1h-3.2v-1.1l0.7-0.1l-0.4-1.3h-3.3
			l-0.4,1.3l0.7,0.1v1.1H98.4z M101.8,32.9h2.4l-1.1-3.2l-0.1-0.3h0l-0.1,0.3L101.8,32.9z M108.3,36.9v-1.1l1-0.2v-6.8l-1-0.2v-1.1
			h1h3.1c0.9,0,1.6,0.2,2.2,0.6c0.6,0.4,1.1,0.9,1.5,1.6c0.4,0.7,0.5,1.5,0.5,2.4v0.2c0,0.9-0.2,1.7-0.5,2.4
			c-0.4,0.7-0.9,1.2-1.5,1.7c-0.6,0.4-1.4,0.6-2.2,0.6H108.3z M111.2,35.4h1.2c0.5,0,1-0.1,1.3-0.4c0.4-0.3,0.6-0.7,0.8-1.1
			c0.2-0.5,0.3-1,0.3-1.6V32c0-0.6-0.1-1.2-0.3-1.7c-0.2-0.5-0.5-0.9-0.8-1.1c-0.4-0.3-0.8-0.4-1.3-0.4h-1.2V35.4z M120.7,37
			c-0.5,0-1,0-1.5-0.1c-0.4-0.1-0.9-0.2-1.3-0.4l0-2h1.3l0.3,1c0.1,0.1,0.3,0.1,0.5,0.2c0.2,0,0.4,0.1,0.6,0.1
			c0.4,0,0.7-0.1,0.9-0.2c0.2-0.1,0.3-0.3,0.3-0.5c0-0.2-0.1-0.4-0.3-0.5c-0.2-0.2-0.5-0.3-1.1-0.4c-0.8-0.2-1.4-0.4-1.8-0.8
			c-0.4-0.4-0.6-0.8-0.6-1.4c0-0.4,0.1-0.7,0.3-1.1c0.2-0.3,0.5-0.6,0.9-0.8c0.4-0.2,0.9-0.3,1.6-0.3c0.5,0,1,0.1,1.5,0.2
			c0.4,0.1,0.8,0.2,1.1,0.4l0,1.9h-1.3l-0.2-0.9c-0.1-0.1-0.3-0.1-0.4-0.2c-0.2,0-0.3-0.1-0.5-0.1c-0.3,0-0.6,0.1-0.8,0.2
			c-0.2,0.1-0.3,0.3-0.3,0.5c0,0.1,0,0.2,0.1,0.3c0.1,0.1,0.2,0.2,0.4,0.3c0.2,0.1,0.5,0.2,0.8,0.2c0.9,0.2,1.5,0.5,1.9,0.8
			c0.4,0.3,0.6,0.8,0.6,1.4c0,0.7-0.2,1.2-0.7,1.6C122.3,36.8,121.6,37,120.7,37z"/>
		<path d="M191.8,36.9v-0.7l3.9-3.8c0.4-0.3,0.6-0.6,0.8-0.9c0.2-0.3,0.3-0.5,0.4-0.7c0.1-0.2,0.1-0.5,0.1-0.7c0-0.5-0.2-1-0.6-1.3
			c-0.4-0.3-0.9-0.5-1.6-0.5c-0.6,0-1,0.1-1.5,0.2c-0.4,0.2-0.8,0.4-1.1,0.8l-0.7-0.6c0.4-0.4,0.8-0.8,1.4-1
			c0.6-0.2,1.2-0.3,1.9-0.3c0.6,0,1.2,0.1,1.6,0.3c0.5,0.2,0.8,0.5,1.1,0.9c0.3,0.4,0.4,0.8,0.4,1.3c0,0.3,0,0.6-0.1,0.9
			c-0.1,0.3-0.2,0.6-0.5,0.9c-0.2,0.3-0.5,0.7-1,1.1l-3.6,3.5l-0.3-0.4h5.8v0.9H191.8z M202.5,37c-0.7,0-1.3-0.1-1.9-0.3
			s-1.1-0.5-1.4-0.9l0.5-0.8c0.3,0.3,0.7,0.6,1.2,0.8c0.5,0.2,1.1,0.3,1.7,0.3c0.8,0,1.4-0.2,1.8-0.5c0.4-0.4,0.6-0.8,0.6-1.4
			c0-0.4-0.1-0.8-0.3-1c-0.2-0.3-0.5-0.5-1-0.7c-0.4-0.2-1.1-0.2-1.9-0.2h-2l0.5-4.7h5.1v0.8h-4.7l0.5-0.5l-0.4,3.9l-0.5-0.5h1.7
			c0.9,0,1.7,0.1,2.3,0.3c0.6,0.2,1,0.6,1.2,1c0.3,0.4,0.4,0.9,0.4,1.4c0,0.5-0.1,1-0.4,1.4c-0.2,0.4-0.6,0.8-1.1,1
			S203.3,37,202.5,37z M210.8,37c-0.7,0-1.4-0.2-1.9-0.6c-0.6-0.4-1-0.9-1.3-1.6c-0.3-0.7-0.5-1.6-0.5-2.6c0-1,0.2-1.8,0.5-2.5
			c0.3-0.7,0.8-1.3,1.3-1.6c0.6-0.4,1.2-0.6,1.9-0.6c0.7,0,1.4,0.2,1.9,0.6c0.6,0.4,1,0.9,1.3,1.6c0.3,0.7,0.5,1.6,0.5,2.5
			c0,1-0.2,1.9-0.5,2.6c-0.3,0.7-0.8,1.2-1.3,1.6S211.6,37,210.8,37z M210.8,36.1c0.6,0,1-0.1,1.4-0.4c0.4-0.3,0.7-0.7,1-1.3
			c0.2-0.6,0.3-1.3,0.3-2.1c0-0.8-0.1-1.5-0.3-2.1c-0.2-0.6-0.6-1-1-1.3c-0.4-0.3-0.9-0.5-1.4-0.5c-0.5,0-1,0.2-1.4,0.5
			c-0.4,0.3-0.7,0.7-1,1.3c-0.2,0.6-0.3,1.3-0.3,2.1c0,0.8,0.1,1.6,0.3,2.1c0.2,0.6,0.6,1,1,1.3C209.8,35.9,210.3,36.1,210.8,36.1z"
			/>
		<path d="M268.4,34.4v-0.7l5-6.2h1.1l-4.9,6.2l-0.5-0.2h7.5v0.9H268.4z M273.7,36.9v-2.5l0-0.9v-2.2h0.9v5.5H273.7z M280.3,37
			c-0.7,0-1.3-0.1-1.9-0.3c-0.6-0.2-1.1-0.5-1.4-0.9l0.5-0.8c0.3,0.3,0.7,0.6,1.2,0.8c0.5,0.2,1.1,0.3,1.7,0.3
			c0.8,0,1.4-0.2,1.8-0.5c0.4-0.4,0.6-0.8,0.6-1.4c0-0.4-0.1-0.8-0.3-1c-0.2-0.3-0.5-0.5-1-0.7c-0.4-0.2-1.1-0.2-1.9-0.2h-2l0.5-4.7
			h5.1v0.8h-4.7l0.5-0.5l-0.4,3.9l-0.5-0.5h1.7c0.9,0,1.7,0.1,2.3,0.3c0.6,0.2,1,0.6,1.2,1c0.3,0.4,0.4,0.9,0.4,1.4
			c0,0.5-0.1,1-0.4,1.4c-0.2,0.4-0.6,0.8-1.1,1S281.1,37,280.3,37z M288.6,37c-0.7,0-1.4-0.2-1.9-0.6c-0.6-0.4-1-0.9-1.3-1.6
			c-0.3-0.7-0.5-1.6-0.5-2.6c0-1,0.2-1.8,0.5-2.5c0.3-0.7,0.8-1.3,1.3-1.6c0.6-0.4,1.2-0.6,1.9-0.6c0.7,0,1.4,0.2,1.9,0.6
			c0.6,0.4,1,0.9,1.3,1.6c0.3,0.7,0.5,1.6,0.5,2.5c0,1-0.2,1.9-0.5,2.6c-0.3,0.7-0.8,1.2-1.3,1.6S289.4,37,288.6,37z M288.6,36.1
			c0.6,0,1-0.1,1.4-0.4c0.4-0.3,0.7-0.7,1-1.3c0.2-0.6,0.3-1.3,0.3-2.1c0-0.8-0.1-1.5-0.3-2.1c-0.2-0.6-0.6-1-1-1.3
			c-0.4-0.3-0.9-0.5-1.4-0.5c-0.5,0-1,0.2-1.4,0.5c-0.4,0.3-0.7,0.7-1,1.3c-0.2,0.6-0.3,1.3-0.3,2.1c0,0.8,0.1,1.6,0.3,2.1
			c0.2,0.6,0.6,1,1,1.3C287.6,35.9,288.1,36.1,288.6,36.1z"/>
		<path d="M353.1,37c-0.8,0-1.5-0.2-2.1-0.5c-0.6-0.4-1-0.9-1.3-1.6c-0.3-0.7-0.4-1.5-0.4-2.5c0-1.1,0.2-1.9,0.5-2.7
			c0.4-0.7,0.9-1.3,1.5-1.6c0.6-0.4,1.4-0.5,2.2-0.5c0.4,0,0.8,0,1.2,0.1c0.4,0.1,0.7,0.2,1,0.4l-0.4,0.8c-0.2-0.2-0.5-0.3-0.8-0.3
			c-0.3-0.1-0.6-0.1-1-0.1c-1,0-1.8,0.3-2.4,1c-0.6,0.6-0.9,1.6-0.9,2.9c0,0.2,0,0.4,0,0.7c0,0.3,0.1,0.6,0.2,0.9l-0.3-0.2
			c0.1-0.5,0.3-0.9,0.6-1.2c0.3-0.3,0.6-0.6,1.1-0.7c0.4-0.2,0.9-0.3,1.4-0.2c0.6,0,1.2,0.1,1.6,0.3c0.5,0.2,0.8,0.6,1.1,1
			c0.3,0.4,0.4,0.9,0.4,1.5c0,0.6-0.1,1.1-0.4,1.5c-0.3,0.4-0.7,0.8-1.1,1C354.2,36.8,353.7,37,353.1,37z M353.1,36.1
			c0.4,0,0.8-0.1,1.2-0.2c0.3-0.2,0.6-0.4,0.8-0.7c0.2-0.3,0.3-0.7,0.3-1.1c0-0.6-0.2-1.1-0.6-1.5c-0.4-0.4-1-0.5-1.7-0.5
			c-0.5,0-0.9,0.1-1.2,0.3c-0.4,0.2-0.6,0.4-0.8,0.7c-0.2,0.3-0.3,0.6-0.3,1c0,0.3,0.1,0.7,0.3,1c0.2,0.3,0.5,0.6,0.8,0.8
			C352.1,36,352.5,36.1,353.1,36.1z M358.9,36.9l4-8.9l0.3,0.4h-5.8l0.5-0.5v2.2h-1v-2.6h6.9v0.7l-3.9,8.7H358.9z M368.6,37
			c-0.7,0-1.4-0.2-1.9-0.6c-0.6-0.4-1-0.9-1.3-1.6c-0.3-0.7-0.5-1.6-0.5-2.6c0-1,0.2-1.8,0.5-2.5c0.3-0.7,0.8-1.3,1.3-1.6
			c0.6-0.4,1.2-0.6,1.9-0.6c0.7,0,1.4,0.2,1.9,0.6c0.6,0.4,1,0.9,1.3,1.6c0.3,0.7,0.5,1.6,0.5,2.5c0,1-0.2,1.9-0.5,2.6
			c-0.3,0.7-0.8,1.2-1.3,1.6S369.3,37,368.6,37z M368.6,36.1c0.6,0,1-0.1,1.4-0.4c0.4-0.3,0.7-0.7,1-1.3c0.2-0.6,0.3-1.3,0.3-2.1
			c0-0.8-0.1-1.5-0.3-2.1c-0.2-0.6-0.6-1-1-1.3c-0.4-0.3-0.9-0.5-1.4-0.5c-0.5,0-1,0.2-1.4,0.5c-0.4,0.3-0.7,0.7-1,1.3
			c-0.2,0.6-0.3,1.3-0.3,2.1c0,0.8,0.1,1.6,0.3,2.1c0.2,0.6,0.6,1,1,1.3C367.6,35.9,368.1,36.1,368.6,36.1z"/>
		<path d="M427.9,36.9v-0.7l3.9-3.8c0.4-0.3,0.6-0.6,0.8-0.9c0.2-0.3,0.3-0.5,0.4-0.7c0.1-0.2,0.1-0.5,0.1-0.7c0-0.5-0.2-1-0.6-1.3
			c-0.4-0.3-0.9-0.5-1.6-0.5c-0.6,0-1,0.1-1.5,0.2c-0.4,0.2-0.8,0.4-1.1,0.8l-0.7-0.6c0.4-0.4,0.8-0.8,1.4-1
			c0.6-0.2,1.2-0.3,1.9-0.3c0.6,0,1.2,0.1,1.6,0.3c0.5,0.2,0.8,0.5,1.1,0.9c0.3,0.4,0.4,0.8,0.4,1.3c0,0.3,0,0.6-0.1,0.9
			c-0.1,0.3-0.2,0.6-0.5,0.9c-0.2,0.3-0.5,0.7-1,1.1l-3.6,3.5l-0.3-0.4h5.8v0.9H427.9z M439.3,37c-0.7,0-1.4-0.2-1.9-0.6
			c-0.6-0.4-1-0.9-1.3-1.6c-0.3-0.7-0.5-1.6-0.5-2.6c0-1,0.2-1.8,0.5-2.5c0.3-0.7,0.8-1.3,1.3-1.6c0.6-0.4,1.2-0.6,1.9-0.6
			c0.7,0,1.4,0.2,1.9,0.6c0.6,0.4,1,0.9,1.3,1.6c0.3,0.7,0.5,1.6,0.5,2.5c0,1-0.2,1.9-0.5,2.6c-0.3,0.7-0.8,1.2-1.3,1.6
			C440.7,36.8,440,37,439.3,37z M439.3,36.1c0.6,0,1-0.1,1.4-0.4c0.4-0.3,0.7-0.7,1-1.3c0.2-0.6,0.3-1.3,0.3-2.1
			c0-0.8-0.1-1.5-0.3-2.1c-0.2-0.6-0.6-1-1-1.3c-0.4-0.3-0.9-0.5-1.4-0.5c-0.5,0-1,0.2-1.4,0.5c-0.4,0.3-0.7,0.7-1,1.3
			c-0.2,0.6-0.3,1.3-0.3,2.1c0,0.8,0.1,1.6,0.3,2.1c0.2,0.6,0.6,1,1,1.3C438.3,35.9,438.8,36.1,439.3,36.1z M448.2,37
			c-0.7,0-1.4-0.2-1.9-0.6c-0.6-0.4-1-0.9-1.3-1.6c-0.3-0.7-0.5-1.6-0.5-2.6c0-1,0.2-1.8,0.5-2.5c0.3-0.7,0.8-1.3,1.3-1.6
			c0.6-0.4,1.2-0.6,1.9-0.6c0.7,0,1.4,0.2,1.9,0.6c0.6,0.4,1,0.9,1.3,1.6c0.3,0.7,0.5,1.6,0.5,2.5c0,1-0.2,1.9-0.5,2.6
			c-0.3,0.7-0.8,1.2-1.3,1.6S448.9,37,448.2,37z M448.2,36.1c0.6,0,1-0.1,1.4-0.4c0.4-0.3,0.7-0.7,1-1.3c0.2-0.6,0.3-1.3,0.3-2.1
			c0-0.8-0.1-1.5-0.3-2.1c-0.2-0.6-0.6-1-1-1.3c-0.4-0.3-0.9-0.5-1.4-0.5c-0.5,0-1,0.2-1.4,0.5c-0.4,0.3-0.7,0.7-1,1.3
			c-0.2,0.6-0.3,1.3-0.3,2.1c0,0.8,0.1,1.6,0.3,2.1c0.2,0.6,0.6,1,1,1.3C447.1,35.9,447.6,36.1,448.2,36.1z"/>
		<path d="M511.4,36.9v-8.9l0.4,0.5h-2.6v-0.8h3.2v9.3H511.4z M517.4,37c-0.7,0-1.3-0.1-1.9-0.3c-0.6-0.2-1.1-0.5-1.4-0.9l0.5-0.8
			c0.3,0.3,0.7,0.6,1.2,0.8c0.5,0.2,1.1,0.3,1.7,0.3c0.8,0,1.4-0.2,1.8-0.5c0.4-0.3,0.6-0.8,0.6-1.4c0-0.6-0.2-1-0.6-1.3
			c-0.4-0.3-1-0.5-1.9-0.5h-0.7v-0.7l2.9-3.6l0.1,0.4h-5.2v-0.8h6v0.7l-2.9,3.6l-0.5-0.3h0.4c1.1,0,2,0.2,2.5,0.8
			c0.6,0.5,0.8,1.1,0.8,1.9c0,0.5-0.1,1-0.4,1.4c-0.2,0.4-0.6,0.7-1.1,1C518.8,36.8,518.2,37,517.4,37z M525.9,37
			c-0.7,0-1.4-0.2-1.9-0.6c-0.6-0.4-1-0.9-1.3-1.6c-0.3-0.7-0.5-1.6-0.5-2.6c0-1,0.2-1.8,0.5-2.5c0.3-0.7,0.8-1.3,1.3-1.6
			c0.6-0.4,1.2-0.6,1.9-0.6c0.7,0,1.4,0.2,1.9,0.6c0.6,0.4,1,0.9,1.3,1.6c0.3,0.7,0.5,1.6,0.5,2.5c0,1-0.2,1.9-0.5,2.6
			c-0.3,0.7-0.8,1.2-1.3,1.6S526.6,37,525.9,37z M525.9,36.1c0.6,0,1-0.1,1.4-0.4c0.4-0.3,0.7-0.7,1-1.3c0.2-0.6,0.3-1.3,0.3-2.1
			c0-0.8-0.1-1.5-0.3-2.1c-0.2-0.6-0.6-1-1-1.3c-0.4-0.3-0.9-0.5-1.4-0.5c-0.5,0-1,0.2-1.4,0.5c-0.4,0.3-0.7,0.7-1,1.3
			c-0.2,0.6-0.3,1.3-0.3,2.1c0,0.8,0.1,1.6,0.3,2.1c0.2,0.6,0.6,1,1,1.3C524.9,35.9,525.3,36.1,525.9,36.1z"/>
		<path d="M589.9,37c-0.7,0-1.3-0.1-1.9-0.3c-0.6-0.2-1.1-0.5-1.4-0.9L587,35c0.3,0.3,0.7,0.6,1.2,0.8c0.5,0.2,1.1,0.3,1.7,0.3
			c0.8,0,1.4-0.2,1.8-0.5c0.4-0.3,0.6-0.8,0.6-1.4c0-0.6-0.2-1-0.6-1.3c-0.4-0.3-1-0.5-1.9-0.5h-0.7v-0.7L592,28l0.1,0.4h-5.2v-0.8
			h6v0.7l-2.9,3.6l-0.5-0.3h0.4c1.1,0,2,0.2,2.5,0.8c0.6,0.5,0.8,1.1,0.8,1.9c0,0.5-0.1,1-0.4,1.4c-0.2,0.4-0.6,0.7-1.1,1
			C591.2,36.8,590.6,37,589.9,37z M598.3,37c-0.7,0-1.4-0.2-1.9-0.6c-0.6-0.4-1-0.9-1.3-1.6c-0.3-0.7-0.5-1.6-0.5-2.6
			c0-1,0.2-1.8,0.5-2.5c0.3-0.7,0.8-1.3,1.3-1.6c0.6-0.4,1.2-0.6,1.9-0.6c0.7,0,1.4,0.2,1.9,0.6c0.6,0.4,1,0.9,1.3,1.6
			c0.3,0.7,0.5,1.6,0.5,2.5c0,1-0.2,1.9-0.5,2.6c-0.3,0.7-0.8,1.2-1.3,1.6S599,37,598.3,37z M598.3,36.1c0.6,0,1-0.1,1.4-0.4
			c0.4-0.3,0.7-0.7,1-1.3c0.2-0.6,0.3-1.3,0.3-2.1c0-0.8-0.1-1.5-0.3-2.1c-0.2-0.6-0.6-1-1-1.3c-0.4-0.3-0.9-0.5-1.4-0.5
			c-0.5,0-1,0.2-1.4,0.5c-0.4,0.3-0.7,0.7-1,1.3c-0.2,0.6-0.3,1.3-0.3,2.1c0,0.8,0.1,1.6,0.3,2.1c0.2,0.6,0.6,1,1,1.3
			C597.3,35.9,597.8,36.1,598.3,36.1z M607.1,37c-0.7,0-1.4-0.2-1.9-0.6c-0.6-0.4-1-0.9-1.3-1.6c-0.3-0.7-0.5-1.6-0.5-2.6
			c0-1,0.2-1.8,0.5-2.5c0.3-0.7,0.8-1.3,1.3-1.6c0.6-0.4,1.2-0.6,1.9-0.6c0.7,0,1.4,0.2,1.9,0.6c0.6,0.4,1,0.9,1.3,1.6
			c0.3,0.7,0.5,1.6,0.5,2.5c0,1-0.2,1.9-0.5,2.6c-0.3,0.7-0.8,1.2-1.3,1.6S607.9,37,607.1,37z M607.1,36.1c0.6,0,1-0.1,1.4-0.4
			c0.4-0.3,0.7-0.7,1-1.3c0.2-0.6,0.3-1.3,0.3-2.1c0-0.8-0.1-1.5-0.3-2.1c-0.2-0.6-0.6-1-1-1.3c-0.4-0.3-0.9-0.5-1.4-0.5
			c-0.5,0-1,0.2-1.4,0.5c-0.4,0.3-0.7,0.7-1,1.3c-0.2,0.6-0.3,1.3-0.3,2.1c0,0.8,0.1,1.6,0.3,2.1c0.2,0.6,0.6,1,1,1.3
			C606.1,35.9,606.6,36.1,607.1,36.1z"/>
		<path d="M95.2,58.9v-1.1l1-0.2v-6.8l-1-0.2v-1.1h1h3.5c0.7,0,1.4,0.1,1.9,0.4c0.5,0.2,0.9,0.6,1.2,1.1c0.3,0.4,0.4,1,0.4,1.6
			c0,0.6-0.1,1.1-0.4,1.6c-0.3,0.4-0.7,0.8-1.2,1c-0.5,0.2-1.1,0.4-1.9,0.4h-1.6v2.1l1,0.2v1.1H95.2z M98.1,54h1.6
			c0.5,0,0.9-0.1,1.2-0.4c0.3-0.3,0.4-0.7,0.4-1.1c0-0.5-0.1-0.8-0.4-1.1c-0.3-0.3-0.7-0.5-1.2-0.5h-1.6V54z M103.8,58.9v-1.1l1-0.2
			v-6.8l-1-0.2v-1.1h4.5c0.7,0,1.4,0.1,1.9,0.3c0.5,0.2,0.9,0.5,1.2,1c0.3,0.4,0.4,0.9,0.4,1.5c0,0.6-0.1,1.1-0.4,1.5
			c-0.3,0.4-0.7,0.8-1.2,1c-0.5,0.2-1.1,0.4-1.7,0.4h-1.8v2.4l1,0.2v1.1H103.8z M109.9,58.9l-1.6-4.1l1.7-0.4l1.4,3.2l0.8,0.2v1.1
			H109.9z M106.7,53.7h1.5c0.5,0,0.9-0.1,1.2-0.3c0.3-0.2,0.4-0.6,0.4-1s-0.1-0.8-0.4-1c-0.3-0.3-0.7-0.4-1.2-0.4h-1.6V53.7z
			 M113,58.9v-1.1l1-0.2v-6.8l-1-0.2v-1.1h3.9v1.1l-1,0.2v6.8l1,0.2v1.1H113z M120.7,59c-0.5,0-1,0-1.5-0.1
			c-0.4-0.1-0.9-0.2-1.3-0.4l0-2h1.3l0.3,1c0.1,0.1,0.3,0.1,0.5,0.2c0.2,0,0.4,0.1,0.6,0.1c0.4,0,0.7-0.1,0.9-0.2
			c0.2-0.1,0.3-0.3,0.3-0.5c0-0.2-0.1-0.4-0.3-0.5c-0.2-0.2-0.5-0.3-1.1-0.4c-0.8-0.2-1.4-0.4-1.8-0.8c-0.4-0.4-0.6-0.8-0.6-1.4
			c0-0.4,0.1-0.7,0.3-1.1c0.2-0.3,0.5-0.6,0.9-0.8c0.4-0.2,0.9-0.3,1.6-0.3c0.5,0,1,0.1,1.5,0.2c0.4,0.1,0.8,0.2,1.1,0.4l0,1.9h-1.3
			l-0.2-0.9c-0.1-0.1-0.3-0.1-0.4-0.2c-0.2,0-0.3-0.1-0.5-0.1c-0.3,0-0.6,0.1-0.8,0.2c-0.2,0.1-0.3,0.3-0.3,0.5c0,0.1,0,0.2,0.1,0.3
			c0.1,0.1,0.2,0.2,0.4,0.3c0.2,0.1,0.5,0.2,0.8,0.2c0.9,0.2,1.5,0.5,1.9,0.8c0.4,0.3,0.6,0.8,0.6,1.4c0,0.7-0.2,1.2-0.7,1.6
			C122.3,58.8,121.6,59,120.7,59z"/>
		<path d="M170.5,60.5V48h0.7v12.5H170.5z M170.8,59c-0.7,0-1.4-0.1-2-0.3c-0.6-0.2-1.1-0.5-1.5-0.9l0.4-0.8
			c0.3,0.3,0.8,0.6,1.3,0.8c0.6,0.2,1.2,0.3,1.8,0.3c0.6,0,1.1-0.1,1.4-0.2c0.4-0.1,0.6-0.3,0.8-0.6c0.2-0.2,0.3-0.5,0.3-0.8
			c0-0.4-0.1-0.7-0.3-0.9s-0.5-0.4-0.8-0.5c-0.3-0.1-0.7-0.2-1.1-0.3c-0.4-0.1-0.8-0.2-1.2-0.3c-0.4-0.1-0.8-0.3-1.1-0.5
			c-0.3-0.2-0.6-0.4-0.8-0.7c-0.2-0.3-0.3-0.7-0.3-1.2c0-0.5,0.1-0.9,0.4-1.3c0.2-0.4,0.6-0.7,1.1-0.9c0.5-0.2,1.2-0.4,2-0.4
			c0.5,0,1,0.1,1.5,0.2c0.5,0.1,1,0.3,1.3,0.6l-0.3,0.8c-0.4-0.3-0.8-0.5-1.3-0.6c-0.4-0.1-0.9-0.2-1.3-0.2c-0.6,0-1,0.1-1.4,0.2
			c-0.4,0.1-0.6,0.3-0.8,0.6c-0.2,0.2-0.2,0.5-0.2,0.9c0,0.4,0.1,0.7,0.3,0.9s0.5,0.4,0.8,0.5s0.7,0.2,1.1,0.3
			c0.4,0.1,0.8,0.2,1.2,0.3c0.4,0.1,0.8,0.3,1.1,0.5c0.3,0.2,0.6,0.4,0.8,0.7c0.2,0.3,0.3,0.7,0.3,1.2c0,0.5-0.1,0.9-0.4,1.3
			c-0.2,0.4-0.6,0.7-1.1,0.9C172.3,58.8,171.6,59,170.8,59z M178.9,58.9v-0.7l3.9-3.8c0.4-0.3,0.6-0.6,0.8-0.9
			c0.2-0.3,0.3-0.5,0.4-0.7c0.1-0.2,0.1-0.5,0.1-0.7c0-0.5-0.2-1-0.6-1.3c-0.4-0.3-0.9-0.5-1.6-0.5c-0.6,0-1,0.1-1.5,0.2
			c-0.4,0.2-0.8,0.4-1.1,0.8l-0.7-0.6c0.4-0.4,0.8-0.8,1.4-1c0.6-0.2,1.2-0.3,1.9-0.3c0.6,0,1.2,0.1,1.6,0.3
			c0.5,0.2,0.8,0.5,1.1,0.9c0.3,0.4,0.4,0.8,0.4,1.3c0,0.3,0,0.6-0.1,0.9c-0.1,0.3-0.2,0.6-0.5,0.9c-0.2,0.3-0.5,0.7-1,1.1l-3.6,3.5
			l-0.3-0.4h5.8v0.9H178.9z M186.9,60.8l0.6-2.5l0.1,0.6c-0.2,0-0.4-0.1-0.5-0.2c-0.1-0.1-0.2-0.3-0.2-0.5c0-0.2,0.1-0.4,0.2-0.5
			c0.1-0.1,0.3-0.2,0.5-0.2c0.2,0,0.4,0.1,0.5,0.2c0.1,0.1,0.2,0.3,0.2,0.5c0,0.1,0,0.1,0,0.2c0,0.1,0,0.2-0.1,0.2
			c0,0.1-0.1,0.2-0.1,0.3l-0.6,1.8H186.9z M193.2,59c-0.7,0-1.4-0.2-1.9-0.6c-0.6-0.4-1-0.9-1.3-1.6c-0.3-0.7-0.5-1.6-0.5-2.6
			c0-1,0.2-1.8,0.5-2.5c0.3-0.7,0.8-1.2,1.3-1.6c0.6-0.4,1.2-0.6,1.9-0.6s1.4,0.2,1.9,0.6s1,0.9,1.3,1.6c0.3,0.7,0.5,1.6,0.5,2.5
			c0,1-0.2,1.9-0.5,2.6c-0.3,0.7-0.8,1.2-1.3,1.6S193.9,59,193.2,59z M193.2,58.1c0.6,0,1-0.1,1.4-0.4c0.4-0.3,0.7-0.7,1-1.3
			c0.2-0.6,0.3-1.3,0.3-2.1c0-0.8-0.1-1.5-0.3-2.1c-0.2-0.6-0.6-1-1-1.3c-0.4-0.3-0.9-0.5-1.4-0.5c-0.5,0-1,0.2-1.4,0.5
			c-0.4,0.3-0.7,0.7-1,1.3c-0.2,0.6-0.3,1.3-0.3,2.1c0,0.8,0.1,1.6,0.3,2.1c0.2,0.6,0.6,1,1,1.3C192.2,57.9,192.7,58.1,193.2,58.1z
			 M202,59c-0.7,0-1.4-0.2-1.9-0.6c-0.6-0.4-1-0.9-1.3-1.6c-0.3-0.7-0.5-1.6-0.5-2.6c0-1,0.2-1.8,0.5-2.5c0.3-0.7,0.8-1.2,1.3-1.6
			c0.6-0.4,1.2-0.6,1.9-0.6s1.4,0.2,1.9,0.6s1,0.9,1.3,1.6c0.3,0.7,0.5,1.6,0.5,2.5c0,1-0.2,1.9-0.5,2.6c-0.3,0.7-0.8,1.2-1.3,1.6
			S202.7,59,202,59z M202,58.1c0.6,0,1-0.1,1.4-0.4c0.4-0.3,0.7-0.7,1-1.3c0.2-0.6,0.3-1.3,0.3-2.1c0-0.8-0.1-1.5-0.3-2.1
			c-0.2-0.6-0.6-1-1-1.3c-0.4-0.3-0.9-0.5-1.4-0.5c-0.5,0-1,0.2-1.4,0.5c-0.4,0.3-0.7,0.7-1,1.3c-0.2,0.6-0.3,1.3-0.3,2.1
			c0,0.8,0.1,1.6,0.3,2.1c0.2,0.6,0.6,1,1,1.3C201,57.9,201.5,58.1,202,58.1z M210.8,59c-0.7,0-1.4-0.2-1.9-0.6
			c-0.6-0.4-1-0.9-1.3-1.6c-0.3-0.7-0.5-1.6-0.5-2.6c0-1,0.2-1.8,0.5-2.5c0.3-0.7,0.8-1.2,1.3-1.6c0.6-0.4,1.2-0.6,1.9-0.6
			s1.4,0.2,1.9,0.6s1,0.9,1.3,1.6c0.3,0.7,0.5,1.6,0.5,2.5c0,1-0.2,1.9-0.5,2.6c-0.3,0.7-0.8,1.2-1.3,1.6S211.6,59,210.8,59z
			 M210.8,58.1c0.6,0,1-0.1,1.4-0.4c0.4-0.3,0.7-0.7,1-1.3c0.2-0.6,0.3-1.3,0.3-2.1c0-0.8-0.1-1.5-0.3-2.1c-0.2-0.6-0.6-1-1-1.3
			c-0.4-0.3-0.9-0.5-1.4-0.5c-0.5,0-1,0.2-1.4,0.5c-0.4,0.3-0.7,0.7-1,1.3c-0.2,0.6-0.3,1.3-0.3,2.1c0,0.8,0.1,1.6,0.3,2.1
			c0.2,0.6,0.6,1,1,1.3C209.8,57.9,210.3,58.1,210.8,58.1z"/>
		<path d="M252.3,60.5V48h0.7v12.5H252.3z M252.6,59c-0.7,0-1.4-0.1-2-0.3c-0.6-0.2-1.1-0.5-1.5-0.9l0.4-0.8
			c0.3,0.3,0.8,0.6,1.3,0.8c0.6,0.2,1.2,0.3,1.8,0.3c0.6,0,1.1-0.1,1.4-0.2c0.4-0.1,0.6-0.3,0.8-0.6c0.2-0.2,0.3-0.5,0.3-0.8
			c0-0.4-0.1-0.7-0.3-0.9c-0.2-0.2-0.5-0.4-0.8-0.5c-0.3-0.1-0.7-0.2-1.1-0.3c-0.4-0.1-0.8-0.2-1.2-0.3c-0.4-0.1-0.8-0.3-1.1-0.5
			c-0.3-0.2-0.6-0.4-0.8-0.7c-0.2-0.3-0.3-0.7-0.3-1.2c0-0.5,0.1-0.9,0.4-1.3c0.2-0.4,0.6-0.7,1.1-0.9c0.5-0.2,1.2-0.4,2-0.4
			c0.5,0,1,0.1,1.5,0.2c0.5,0.1,1,0.3,1.3,0.6l-0.3,0.8c-0.4-0.3-0.8-0.5-1.3-0.6c-0.4-0.1-0.9-0.2-1.3-0.2c-0.6,0-1,0.1-1.4,0.2
			c-0.4,0.1-0.6,0.3-0.8,0.6c-0.2,0.2-0.3,0.5-0.2,0.9c0,0.4,0.1,0.7,0.3,0.9c0.2,0.2,0.5,0.4,0.8,0.5c0.3,0.1,0.7,0.2,1.1,0.3
			c0.4,0.1,0.8,0.2,1.2,0.3c0.4,0.1,0.8,0.3,1.1,0.5c0.3,0.2,0.6,0.4,0.8,0.7c0.2,0.3,0.3,0.7,0.3,1.2c0,0.5-0.1,0.9-0.4,1.3
			c-0.3,0.4-0.6,0.7-1.1,0.9C254.1,58.8,253.4,59,252.6,59z M262.5,58.9v-8.9l0.4,0.5h-2.6v-0.8h3.2v9.3H262.5z M265.8,60.8l0.6-2.5
			l0.1,0.6c-0.2,0-0.4-0.1-0.5-0.2c-0.1-0.1-0.2-0.3-0.2-0.5c0-0.2,0.1-0.4,0.2-0.5c0.1-0.1,0.3-0.2,0.5-0.2c0.2,0,0.4,0.1,0.5,0.2
			c0.1,0.1,0.2,0.3,0.2,0.5c0,0.1,0,0.1,0,0.2c0,0.1,0,0.2-0.1,0.2c0,0.1-0.1,0.2-0.1,0.3l-0.6,1.8H265.8z M271.5,59
			c-0.7,0-1.3-0.1-1.9-0.3c-0.6-0.2-1.1-0.5-1.4-0.9l0.5-0.8c0.3,0.3,0.7,0.6,1.2,0.8c0.5,0.2,1.1,0.3,1.7,0.3
			c0.8,0,1.4-0.2,1.8-0.5c0.4-0.4,0.6-0.8,0.6-1.4c0-0.4-0.1-0.8-0.3-1c-0.2-0.3-0.5-0.5-1-0.7c-0.4-0.2-1.1-0.2-1.9-0.2h-2l0.5-4.7
			h5.1v0.8h-4.7l0.5-0.5l-0.4,3.9l-0.5-0.5h1.7c0.9,0,1.7,0.1,2.3,0.3c0.6,0.2,1,0.6,1.2,1c0.3,0.4,0.4,0.9,0.4,1.4
			c0,0.5-0.1,1-0.4,1.4c-0.2,0.4-0.6,0.8-1.1,1S272.3,59,271.5,59z M279.8,59c-0.7,0-1.4-0.2-1.9-0.6c-0.6-0.4-1-0.9-1.3-1.6
			c-0.3-0.7-0.5-1.6-0.5-2.6c0-1,0.2-1.8,0.5-2.5c0.3-0.7,0.8-1.2,1.3-1.6c0.6-0.4,1.2-0.6,1.9-0.6s1.4,0.2,1.9,0.6s1,0.9,1.3,1.6
			c0.3,0.7,0.5,1.6,0.5,2.5c0,1-0.2,1.9-0.5,2.6c-0.3,0.7-0.8,1.2-1.3,1.6S280.5,59,279.8,59z M279.8,58.1c0.6,0,1-0.1,1.4-0.4
			c0.4-0.3,0.7-0.7,1-1.3c0.2-0.6,0.3-1.3,0.3-2.1c0-0.8-0.1-1.5-0.3-2.1c-0.2-0.6-0.6-1-1-1.3c-0.4-0.3-0.9-0.5-1.4-0.5
			c-0.5,0-1,0.2-1.4,0.5c-0.4,0.3-0.7,0.7-1,1.3c-0.2,0.6-0.3,1.3-0.3,2.1c0,0.8,0.1,1.6,0.3,2.1c0.2,0.6,0.6,1,1,1.3
			C278.8,57.9,279.3,58.1,279.8,58.1z M288.6,59c-0.7,0-1.4-0.2-1.9-0.6c-0.6-0.4-1-0.9-1.3-1.6c-0.3-0.7-0.5-1.6-0.5-2.6
			c0-1,0.2-1.8,0.5-2.5c0.3-0.7,0.8-1.2,1.3-1.6c0.6-0.4,1.2-0.6,1.9-0.6s1.4,0.2,1.9,0.6s1,0.9,1.3,1.6c0.3,0.7,0.5,1.6,0.5,2.5
			c0,1-0.2,1.9-0.5,2.6c-0.3,0.7-0.8,1.2-1.3,1.6S289.4,59,288.6,59z M288.6,58.1c0.6,0,1-0.1,1.4-0.4c0.4-0.3,0.7-0.7,1-1.3
			c0.2-0.6,0.3-1.3,0.3-2.1c0-0.8-0.1-1.5-0.3-2.1c-0.2-0.6-0.6-1-1-1.3c-0.4-0.3-0.9-0.5-1.4-0.5c-0.5,0-1,0.2-1.4,0.5
			c-0.4,0.3-0.7,0.7-1,1.3c-0.2,0.6-0.3,1.3-0.3,2.1c0,0.8,0.1,1.6,0.3,2.1c0.2,0.6,0.6,1,1,1.3C287.6,57.9,288.1,58.1,288.6,58.1z"
			/>
		<path d="M328.4,60.5V48h0.7v12.5H328.4z M328.7,59c-0.7,0-1.4-0.1-2-0.3c-0.6-0.2-1.1-0.5-1.5-0.9l0.4-0.8
			c0.3,0.3,0.8,0.6,1.3,0.8c0.6,0.2,1.2,0.3,1.8,0.3c0.6,0,1.1-0.1,1.4-0.2c0.4-0.1,0.6-0.3,0.8-0.6c0.2-0.2,0.3-0.5,0.3-0.8
			c0-0.4-0.1-0.7-0.3-0.9s-0.5-0.4-0.8-0.5c-0.3-0.1-0.7-0.2-1.1-0.3c-0.4-0.1-0.8-0.2-1.2-0.3c-0.4-0.1-0.8-0.3-1.1-0.5
			c-0.3-0.2-0.6-0.4-0.8-0.7c-0.2-0.3-0.3-0.7-0.3-1.2c0-0.5,0.1-0.9,0.4-1.3c0.2-0.4,0.6-0.7,1.1-0.9c0.5-0.2,1.2-0.4,2-0.4
			c0.5,0,1,0.1,1.5,0.2c0.5,0.1,1,0.3,1.3,0.6l-0.3,0.8c-0.4-0.3-0.8-0.5-1.3-0.6c-0.4-0.1-0.9-0.2-1.3-0.2c-0.6,0-1,0.1-1.4,0.2
			c-0.4,0.1-0.6,0.3-0.8,0.6c-0.2,0.2-0.2,0.5-0.2,0.9c0,0.4,0.1,0.7,0.3,0.9s0.5,0.4,0.8,0.5s0.7,0.2,1.1,0.3
			c0.4,0.1,0.8,0.2,1.2,0.3c0.4,0.1,0.8,0.3,1.1,0.5c0.3,0.2,0.6,0.4,0.8,0.7c0.2,0.3,0.3,0.7,0.3,1.2c0,0.5-0.1,0.9-0.4,1.3
			c-0.2,0.4-0.6,0.7-1.1,0.9C330.2,58.8,329.5,59,328.7,59z M340,59c-0.7,0-1.3-0.1-1.9-0.3s-1.1-0.5-1.4-0.9l0.5-0.8
			c0.3,0.3,0.7,0.6,1.2,0.8c0.5,0.2,1.1,0.3,1.7,0.3c0.8,0,1.4-0.2,1.8-0.5c0.4-0.4,0.6-0.8,0.6-1.4c0-0.4-0.1-0.8-0.3-1
			c-0.2-0.3-0.5-0.5-1-0.7c-0.4-0.2-1.1-0.2-1.9-0.2h-2l0.5-4.7h5.1v0.8h-4.7l0.5-0.5l-0.4,3.9l-0.5-0.5h1.7c0.9,0,1.7,0.1,2.3,0.3
			c0.6,0.2,1,0.6,1.2,1c0.3,0.4,0.4,0.9,0.4,1.4c0,0.5-0.1,1-0.4,1.4c-0.3,0.4-0.6,0.8-1.1,1C341.3,58.8,340.7,59,340,59z
			 M344.6,60.8l0.6-2.5l0.1,0.6c-0.2,0-0.4-0.1-0.5-0.2c-0.1-0.1-0.2-0.3-0.2-0.5c0-0.2,0.1-0.4,0.2-0.5c0.1-0.1,0.3-0.2,0.5-0.2
			c0.2,0,0.4,0.1,0.5,0.2c0.1,0.1,0.2,0.3,0.2,0.5c0,0.1,0,0.1,0,0.2c0,0.1,0,0.2-0.1,0.2c0,0.1-0.1,0.2-0.1,0.3l-0.6,1.8H344.6z
			 M350.9,59c-0.7,0-1.4-0.2-1.9-0.6c-0.6-0.4-1-0.9-1.3-1.6c-0.3-0.7-0.5-1.6-0.5-2.6c0-1,0.2-1.8,0.5-2.5c0.3-0.7,0.8-1.2,1.3-1.6
			c0.6-0.4,1.2-0.6,1.9-0.6s1.4,0.2,1.9,0.6s1,0.9,1.3,1.6c0.3,0.7,0.5,1.6,0.5,2.5c0,1-0.2,1.9-0.5,2.6c-0.3,0.7-0.8,1.2-1.3,1.6
			S351.7,59,350.9,59z M350.9,58.1c0.6,0,1-0.1,1.4-0.4c0.4-0.3,0.7-0.7,1-1.3c0.2-0.6,0.3-1.3,0.3-2.1c0-0.8-0.1-1.5-0.3-2.1
			c-0.2-0.6-0.6-1-1-1.3c-0.4-0.3-0.9-0.5-1.4-0.5c-0.5,0-1,0.2-1.4,0.5c-0.4,0.3-0.7,0.7-1,1.3c-0.2,0.6-0.3,1.3-0.3,2.1
			c0,0.8,0.1,1.6,0.3,2.1c0.2,0.6,0.6,1,1,1.3C349.9,57.9,350.4,58.1,350.9,58.1z M359.8,59c-0.7,0-1.4-0.2-1.9-0.6
			c-0.6-0.4-1-0.9-1.3-1.6c-0.3-0.7-0.5-1.6-0.5-2.6c0-1,0.2-1.8,0.5-2.5c0.3-0.7,0.8-1.2,1.3-1.6c0.6-0.4,1.2-0.6,1.9-0.6
			s1.4,0.2,1.9,0.6s1,0.9,1.3,1.6c0.3,0.7,0.5,1.6,0.5,2.5c0,1-0.2,1.9-0.5,2.6c-0.3,0.7-0.8,1.2-1.3,1.6S360.5,59,359.8,59z
			 M359.8,58.1c0.6,0,1-0.1,1.4-0.4c0.4-0.3,0.7-0.7,1-1.3c0.2-0.6,0.3-1.3,0.3-2.1c0-0.8-0.1-1.5-0.3-2.1c-0.2-0.6-0.6-1-1-1.3
			c-0.4-0.3-0.9-0.5-1.4-0.5c-0.5,0-1,0.2-1.4,0.5c-0.4,0.3-0.7,0.7-1,1.3c-0.2,0.6-0.3,1.3-0.3,2.1c0,0.8,0.1,1.6,0.3,2.1
			c0.2,0.6,0.6,1,1,1.3C358.8,57.9,359.2,58.1,359.8,58.1z M368.6,59c-0.7,0-1.4-0.2-1.9-0.6c-0.6-0.4-1-0.9-1.3-1.6
			c-0.3-0.7-0.5-1.6-0.5-2.6c0-1,0.2-1.8,0.5-2.5c0.3-0.7,0.8-1.2,1.3-1.6c0.6-0.4,1.2-0.6,1.9-0.6s1.4,0.2,1.9,0.6s1,0.9,1.3,1.6
			c0.3,0.7,0.5,1.6,0.5,2.5c0,1-0.2,1.9-0.5,2.6c-0.3,0.7-0.8,1.2-1.3,1.6S369.3,59,368.6,59z M368.6,58.1c0.6,0,1-0.1,1.4-0.4
			c0.4-0.3,0.7-0.7,1-1.3c0.2-0.6,0.3-1.3,0.3-2.1c0-0.8-0.1-1.5-0.3-2.1c-0.2-0.6-0.6-1-1-1.3c-0.4-0.3-0.9-0.5-1.4-0.5
			c-0.5,0-1,0.2-1.4,0.5c-0.4,0.3-0.7,0.7-1,1.3c-0.2,0.6-0.3,1.3-0.3,2.1c0,0.8,0.1,1.6,0.3,2.1c0.2,0.6,0.6,1,1,1.3
			C367.6,57.9,368.1,58.1,368.6,58.1z"/>
		<path d="M409,60.5V48h0.7v12.5H409z M409.3,59c-0.7,0-1.4-0.1-2-0.3c-0.6-0.2-1.1-0.5-1.5-0.9l0.4-0.8c0.3,0.3,0.8,0.6,1.3,0.8
			c0.6,0.2,1.2,0.3,1.8,0.3c0.6,0,1.1-0.1,1.4-0.2c0.4-0.1,0.6-0.3,0.8-0.6c0.2-0.2,0.3-0.5,0.3-0.8c0-0.4-0.1-0.7-0.3-0.9
			c-0.2-0.2-0.5-0.4-0.8-0.5c-0.3-0.1-0.7-0.2-1.1-0.3c-0.4-0.1-0.8-0.2-1.2-0.3c-0.4-0.1-0.8-0.3-1.1-0.5c-0.3-0.2-0.6-0.4-0.8-0.7
			c-0.2-0.3-0.3-0.7-0.3-1.2c0-0.5,0.1-0.9,0.4-1.3c0.2-0.4,0.6-0.7,1.1-0.9c0.5-0.2,1.2-0.4,2-0.4c0.5,0,1,0.1,1.5,0.2
			c0.5,0.1,1,0.3,1.3,0.6l-0.3,0.8c-0.4-0.3-0.8-0.5-1.3-0.6c-0.4-0.1-0.9-0.2-1.3-0.2c-0.6,0-1,0.1-1.4,0.2
			c-0.4,0.1-0.6,0.3-0.8,0.6c-0.2,0.2-0.2,0.5-0.2,0.9c0,0.4,0.1,0.7,0.3,0.9c0.2,0.2,0.5,0.4,0.8,0.5s0.7,0.2,1.1,0.3
			c0.4,0.1,0.8,0.2,1.2,0.3c0.4,0.1,0.8,0.3,1.1,0.5c0.3,0.2,0.6,0.4,0.8,0.7c0.2,0.3,0.3,0.7,0.3,1.2c0,0.5-0.1,0.9-0.4,1.3
			c-0.2,0.4-0.6,0.7-1.1,0.9C410.7,58.8,410.1,59,409.3,59z M417.4,58.9v-0.7l3.9-3.8c0.4-0.3,0.6-0.6,0.8-0.9
			c0.2-0.3,0.3-0.5,0.4-0.7c0.1-0.2,0.1-0.5,0.1-0.7c0-0.5-0.2-1-0.6-1.3c-0.4-0.3-0.9-0.5-1.6-0.5c-0.6,0-1,0.1-1.5,0.2
			c-0.4,0.2-0.8,0.4-1.1,0.8l-0.7-0.6c0.4-0.4,0.8-0.8,1.4-1c0.6-0.2,1.2-0.3,1.9-0.3c0.6,0,1.2,0.1,1.6,0.3
			c0.5,0.2,0.8,0.5,1.1,0.9c0.3,0.4,0.4,0.8,0.4,1.3c0,0.3,0,0.6-0.1,0.9c-0.1,0.3-0.2,0.6-0.5,0.9c-0.2,0.3-0.5,0.7-1,1.1l-3.6,3.5
			l-0.3-0.4h5.8v0.9H417.4z M425.3,60.8l0.6-2.5l0.1,0.6c-0.2,0-0.4-0.1-0.5-0.2c-0.1-0.1-0.2-0.3-0.2-0.5c0-0.2,0.1-0.4,0.2-0.5
			c0.1-0.1,0.3-0.2,0.5-0.2c0.2,0,0.4,0.1,0.5,0.2c0.1,0.1,0.2,0.3,0.2,0.5c0,0.1,0,0.1,0,0.2c0,0.1,0,0.2-0.1,0.2
			c0,0.1-0.1,0.2-0.1,0.3l-0.6,1.8H425.3z M431,59c-0.7,0-1.3-0.1-1.9-0.3c-0.6-0.2-1.1-0.5-1.4-0.9l0.5-0.8
			c0.3,0.3,0.7,0.6,1.2,0.8c0.5,0.2,1.1,0.3,1.7,0.3c0.8,0,1.4-0.2,1.8-0.5c0.4-0.4,0.6-0.8,0.6-1.4c0-0.4-0.1-0.8-0.3-1
			c-0.2-0.3-0.5-0.5-1-0.7c-0.4-0.2-1.1-0.2-1.9-0.2h-2l0.5-4.7h5.1v0.8h-4.7l0.5-0.5l-0.4,3.9l-0.5-0.5h1.7c0.9,0,1.7,0.1,2.3,0.3
			c0.6,0.2,1,0.6,1.2,1c0.3,0.4,0.4,0.9,0.4,1.4c0,0.5-0.1,1-0.4,1.4c-0.2,0.4-0.6,0.8-1.1,1S431.8,59,431,59z M439.3,59
			c-0.7,0-1.4-0.2-1.9-0.6c-0.6-0.4-1-0.9-1.3-1.6c-0.3-0.7-0.5-1.6-0.5-2.6c0-1,0.2-1.8,0.5-2.5c0.3-0.7,0.8-1.2,1.3-1.6
			c0.6-0.4,1.2-0.6,1.9-0.6c0.7,0,1.4,0.2,1.9,0.6c0.6,0.4,1,0.9,1.3,1.6c0.3,0.7,0.5,1.6,0.5,2.5c0,1-0.2,1.9-0.5,2.6
			c-0.3,0.7-0.8,1.2-1.3,1.6C440.7,58.8,440,59,439.3,59z M439.3,58.1c0.6,0,1-0.1,1.4-0.4c0.4-0.3,0.7-0.7,1-1.3
			c0.2-0.6,0.3-1.3,0.3-2.1c0-0.8-0.1-1.5-0.3-2.1c-0.2-0.6-0.6-1-1-1.3c-0.4-0.3-0.9-0.5-1.4-0.5c-0.5,0-1,0.2-1.4,0.5
			c-0.4,0.3-0.7,0.7-1,1.3c-0.2,0.6-0.3,1.3-0.3,2.1c0,0.8,0.1,1.6,0.3,2.1c0.2,0.6,0.6,1,1,1.3C438.3,57.9,438.8,58.1,439.3,58.1z
			 M448.2,59c-0.7,0-1.4-0.2-1.9-0.6c-0.6-0.4-1-0.9-1.3-1.6c-0.3-0.7-0.5-1.6-0.5-2.6c0-1,0.2-1.8,0.5-2.5c0.3-0.7,0.8-1.2,1.3-1.6
			c0.6-0.4,1.2-0.6,1.9-0.6s1.4,0.2,1.9,0.6s1,0.9,1.3,1.6c0.3,0.7,0.5,1.6,0.5,2.5c0,1-0.2,1.9-0.5,2.6c-0.3,0.7-0.8,1.2-1.3,1.6
			S448.9,59,448.2,59z M448.2,58.1c0.6,0,1-0.1,1.4-0.4c0.4-0.3,0.7-0.7,1-1.3c0.2-0.6,0.3-1.3,0.3-2.1c0-0.8-0.1-1.5-0.3-2.1
			c-0.2-0.6-0.6-1-1-1.3c-0.4-0.3-0.9-0.5-1.4-0.5c-0.5,0-1,0.2-1.4,0.5c-0.4,0.3-0.7,0.7-1,1.3c-0.2,0.6-0.3,1.3-0.3,2.1
			c0,0.8,0.1,1.6,0.3,2.1c0.2,0.6,0.6,1,1,1.3C447.1,57.9,447.6,58.1,448.2,58.1z"/>
		<path d="M484.2,60.5V48h0.7v12.5H484.2z M484.5,59c-0.7,0-1.4-0.1-2-0.3c-0.6-0.2-1.1-0.5-1.5-0.9l0.4-0.8
			c0.3,0.3,0.8,0.6,1.3,0.8c0.6,0.2,1.2,0.3,1.8,0.3c0.6,0,1.1-0.1,1.4-0.2c0.4-0.1,0.6-0.3,0.8-0.6c0.2-0.2,0.3-0.5,0.3-0.8
			c0-0.4-0.1-0.7-0.3-0.9c-0.2-0.2-0.5-0.4-0.8-0.5c-0.3-0.1-0.7-0.2-1.1-0.3c-0.4-0.1-0.8-0.2-1.2-0.3c-0.4-0.1-0.8-0.3-1.1-0.5
			c-0.3-0.2-0.6-0.4-0.8-0.7c-0.2-0.3-0.3-0.7-0.3-1.2c0-0.5,0.1-0.9,0.4-1.3c0.3-0.4,0.6-0.7,1.1-0.9c0.5-0.2,1.2-0.4,2-0.4
			c0.5,0,1,0.1,1.5,0.2c0.5,0.1,1,0.3,1.3,0.6l-0.3,0.8c-0.4-0.3-0.8-0.5-1.3-0.6c-0.4-0.1-0.9-0.2-1.3-0.2c-0.6,0-1,0.1-1.4,0.2
			c-0.4,0.1-0.6,0.3-0.8,0.6c-0.2,0.2-0.2,0.5-0.2,0.9c0,0.4,0.1,0.7,0.3,0.9c0.2,0.2,0.5,0.4,0.8,0.5c0.3,0.1,0.7,0.2,1.1,0.3
			c0.4,0.1,0.8,0.2,1.2,0.3c0.4,0.1,0.8,0.3,1.1,0.5c0.3,0.2,0.6,0.4,0.8,0.7c0.2,0.3,0.3,0.7,0.3,1.2c0,0.5-0.1,0.9-0.4,1.3
			c-0.2,0.4-0.6,0.7-1.1,0.9C485.9,58.8,485.3,59,484.5,59z M492.6,56.4v-0.7l5-6.2h1.1l-4.9,6.2l-0.5-0.2h7.5v0.9H492.6z
			 M497.9,58.9v-2.5l0-0.9v-2.2h0.9v5.5H497.9z M501.9,60.8l0.6-2.5l0.1,0.6c-0.2,0-0.4-0.1-0.5-0.2c-0.1-0.1-0.2-0.3-0.2-0.5
			c0-0.2,0.1-0.4,0.2-0.5c0.1-0.1,0.3-0.2,0.5-0.2c0.2,0,0.4,0.1,0.5,0.2c0.1,0.1,0.2,0.3,0.2,0.5c0,0.1,0,0.1,0,0.2
			c0,0.1,0,0.2-0.1,0.2c0,0.1-0.1,0.2-0.1,0.3l-0.6,1.8H501.9z M508.2,59c-0.7,0-1.4-0.2-1.9-0.6c-0.6-0.4-1-0.9-1.3-1.6
			c-0.3-0.7-0.5-1.6-0.5-2.6c0-1,0.2-1.8,0.5-2.5c0.3-0.7,0.8-1.2,1.3-1.6c0.6-0.4,1.2-0.6,1.9-0.6s1.4,0.2,1.9,0.6s1,0.9,1.3,1.6
			c0.3,0.7,0.5,1.6,0.5,2.5c0,1-0.2,1.9-0.5,2.6c-0.3,0.7-0.8,1.2-1.3,1.6S508.9,59,508.2,59z M508.2,58.1c0.6,0,1-0.1,1.4-0.4
			c0.4-0.3,0.7-0.7,1-1.3c0.2-0.6,0.3-1.3,0.3-2.1c0-0.8-0.1-1.5-0.3-2.1c-0.2-0.6-0.6-1-1-1.3c-0.4-0.3-0.9-0.5-1.4-0.5
			c-0.5,0-1,0.2-1.4,0.5c-0.4,0.3-0.7,0.7-1,1.3c-0.2,0.6-0.3,1.3-0.3,2.1c0,0.8,0.1,1.6,0.3,2.1c0.2,0.6,0.6,1,1,1.3
			C507.2,57.9,507.7,58.1,508.2,58.1z M517,59c-0.7,0-1.4-0.2-1.9-0.6c-0.6-0.4-1-0.9-1.3-1.6c-0.3-0.7-0.5-1.6-0.5-2.6
			c0-1,0.2-1.8,0.5-2.5c0.3-0.7,0.8-1.2,1.3-1.6c0.6-0.4,1.2-0.6,1.9-0.6s1.4,0.2,1.9,0.6s1,0.9,1.3,1.6c0.3,0.7,0.5,1.6,0.5,2.5
			c0,1-0.2,1.9-0.5,2.6c-0.3,0.7-0.8,1.2-1.3,1.6S517.8,59,517,59z M517,58.1c0.6,0,1-0.1,1.4-0.4c0.4-0.3,0.7-0.7,1-1.3
			c0.2-0.6,0.3-1.3,0.3-2.1c0-0.8-0.1-1.5-0.3-2.1c-0.2-0.6-0.6-1-1-1.3c-0.4-0.3-0.9-0.5-1.4-0.5c-0.5,0-1,0.2-1.4,0.5
			c-0.4,0.3-0.7,0.7-1,1.3c-0.2,0.6-0.3,1.3-0.3,2.1c0,0.8,0.1,1.6,0.3,2.1c0.2,0.6,0.6,1,1,1.3C516,57.9,516.5,58.1,517,58.1z
			 M525.9,59c-0.7,0-1.4-0.2-1.9-0.6c-0.6-0.4-1-0.9-1.3-1.6c-0.3-0.7-0.5-1.6-0.5-2.6c0-1,0.2-1.8,0.5-2.5c0.3-0.7,0.8-1.2,1.3-1.6
			c0.6-0.4,1.2-0.6,1.9-0.6s1.4,0.2,1.9,0.6s1,0.9,1.3,1.6c0.3,0.7,0.5,1.6,0.5,2.5c0,1-0.2,1.9-0.5,2.6c-0.3,0.7-0.8,1.2-1.3,1.6
			S526.6,59,525.9,59z M525.9,58.1c0.6,0,1-0.1,1.4-0.4c0.4-0.3,0.7-0.7,1-1.3c0.2-0.6,0.3-1.3,0.3-2.1c0-0.8-0.1-1.5-0.3-2.1
			c-0.2-0.6-0.6-1-1-1.3c-0.4-0.3-0.9-0.5-1.4-0.5c-0.5,0-1,0.2-1.4,0.5c-0.4,0.3-0.7,0.7-1,1.3c-0.2,0.6-0.3,1.3-0.3,2.1
			c0,0.8,0.1,1.6,0.3,2.1c0.2,0.6,0.6,1,1,1.3C524.9,57.9,525.3,58.1,525.9,58.1z"/>
		<path d="M569.7,60.5V48h0.7v12.5H569.7z M570,59c-0.7,0-1.4-0.1-2-0.3c-0.6-0.2-1.1-0.5-1.5-0.9l0.4-0.8c0.3,0.3,0.8,0.6,1.3,0.8
			c0.6,0.2,1.2,0.3,1.8,0.3c0.6,0,1.1-0.1,1.4-0.2c0.4-0.1,0.6-0.3,0.8-0.6c0.2-0.2,0.3-0.5,0.3-0.8c0-0.4-0.1-0.7-0.3-0.9
			c-0.2-0.2-0.5-0.4-0.8-0.5c-0.3-0.1-0.7-0.2-1.1-0.3c-0.4-0.1-0.8-0.2-1.2-0.3c-0.4-0.1-0.8-0.3-1.1-0.5c-0.3-0.2-0.6-0.4-0.8-0.7
			c-0.2-0.3-0.3-0.7-0.3-1.2c0-0.5,0.1-0.9,0.4-1.3c0.2-0.4,0.6-0.7,1.1-0.9c0.5-0.2,1.2-0.4,2-0.4c0.5,0,1,0.1,1.5,0.2
			c0.5,0.1,1,0.3,1.3,0.6l-0.3,0.8c-0.4-0.3-0.8-0.5-1.3-0.6c-0.4-0.1-0.9-0.2-1.3-0.2c-0.6,0-1,0.1-1.4,0.2
			c-0.4,0.1-0.6,0.3-0.8,0.6c-0.2,0.2-0.2,0.5-0.2,0.9c0,0.4,0.1,0.7,0.3,0.9c0.2,0.2,0.5,0.4,0.8,0.5s0.7,0.2,1.1,0.3
			c0.4,0.1,0.8,0.2,1.2,0.3c0.4,0.1,0.8,0.3,1.1,0.5c0.3,0.2,0.6,0.4,0.8,0.7c0.2,0.3,0.3,0.7,0.3,1.2c0,0.5-0.1,0.9-0.4,1.3
			c-0.2,0.4-0.6,0.7-1.1,0.9C571.5,58.8,570.8,59,570,59z M579.9,58.9v-8.9l0.4,0.5h-2.6v-0.8h3.2v9.3H579.9z M583.2,60.8l0.6-2.5
			l0.1,0.6c-0.2,0-0.4-0.1-0.5-0.2c-0.1-0.1-0.2-0.3-0.2-0.5c0-0.2,0.1-0.4,0.2-0.5c0.1-0.1,0.3-0.2,0.5-0.2c0.2,0,0.4,0.1,0.5,0.2
			c0.1,0.1,0.2,0.3,0.2,0.5c0,0.1,0,0.1,0,0.2c0,0.1,0,0.2-0.1,0.2c0,0.1-0.1,0.2-0.1,0.3l-0.6,1.8H583.2z M589.5,59
			c-0.7,0-1.4-0.2-1.9-0.6c-0.6-0.4-1-0.9-1.3-1.6c-0.3-0.7-0.5-1.6-0.5-2.6c0-1,0.2-1.8,0.5-2.5c0.3-0.7,0.8-1.2,1.3-1.6
			c0.6-0.4,1.2-0.6,1.9-0.6s1.4,0.2,1.9,0.6s1,0.9,1.3,1.6c0.3,0.7,0.5,1.6,0.5,2.5c0,1-0.2,1.9-0.5,2.6c-0.3,0.7-0.8,1.2-1.3,1.6
			S590.2,59,589.5,59z M589.5,58.1c0.6,0,1-0.1,1.4-0.4c0.4-0.3,0.7-0.7,1-1.3c0.2-0.6,0.3-1.3,0.3-2.1c0-0.8-0.1-1.5-0.3-2.1
			c-0.2-0.6-0.6-1-1-1.3c-0.4-0.3-0.9-0.5-1.4-0.5c-0.5,0-1,0.2-1.4,0.5c-0.4,0.3-0.7,0.7-1,1.3c-0.2,0.6-0.3,1.3-0.3,2.1
			c0,0.8,0.1,1.6,0.3,2.1c0.2,0.6,0.6,1,1,1.3C588.5,57.9,589,58.1,589.5,58.1z M598.3,59c-0.7,0-1.4-0.2-1.9-0.6
			c-0.6-0.4-1-0.9-1.3-1.6c-0.3-0.7-0.5-1.6-0.5-2.6c0-1,0.2-1.8,0.5-2.5c0.3-0.7,0.8-1.2,1.3-1.6c0.6-0.4,1.2-0.6,1.9-0.6
			s1.4,0.2,1.9,0.6s1,0.9,1.3,1.6c0.3,0.7,0.5,1.6,0.5,2.5c0,1-0.2,1.9-0.5,2.6c-0.3,0.7-0.8,1.2-1.3,1.6S599,59,598.3,59z
			 M598.3,58.1c0.6,0,1-0.1,1.4-0.4c0.4-0.3,0.7-0.7,1-1.3c0.2-0.6,0.3-1.3,0.3-2.1c0-0.8-0.1-1.5-0.3-2.1c-0.2-0.6-0.6-1-1-1.3
			c-0.4-0.3-0.9-0.5-1.4-0.5c-0.5,0-1,0.2-1.4,0.5c-0.4,0.3-0.7,0.7-1,1.3c-0.2,0.6-0.3,1.3-0.3,2.1c0,0.8,0.1,1.6,0.3,2.1
			c0.2,0.6,0.6,1,1,1.3C597.3,57.9,597.8,58.1,598.3,58.1z M607.1,59c-0.7,0-1.4-0.2-1.9-0.6c-0.6-0.4-1-0.9-1.3-1.6
			c-0.3-0.7-0.5-1.6-0.5-2.6c0-1,0.2-1.8,0.5-2.5c0.3-0.7,0.8-1.2,1.3-1.6c0.6-0.4,1.2-0.6,1.9-0.6s1.4,0.2,1.9,0.6s1,0.9,1.3,1.6
			c0.3,0.7,0.5,1.6,0.5,2.5c0,1-0.2,1.9-0.5,2.6c-0.3,0.7-0.8,1.2-1.3,1.6S607.9,59,607.1,59z M607.1,58.1c0.6,0,1-0.1,1.4-0.4
			c0.4-0.3,0.7-0.7,1-1.3c0.2-0.6,0.3-1.3,0.3-2.1c0-0.8-0.1-1.5-0.3-2.1c-0.2-0.6-0.6-1-1-1.3c-0.4-0.3-0.9-0.5-1.4-0.5
			c-0.5,0-1,0.2-1.4,0.5c-0.4,0.3-0.7,0.7-1,1.3c-0.2,0.6-0.3,1.3-0.3,2.1c0,0.8,0.1,1.6,0.3,2.1c0.2,0.6,0.6,1,1,1.3
			C606.1,57.9,606.6,58.1,607.1,58.1z"/>
		<path class="st3" d="M467.8,172.5c21.4-1.1,42.9,0.9,64.3-0.2"/>
		<path class="st4" d="M467.8,172.5c21.4-1.1,42.9,0.9,64.3-0.2"/>
		<path class="st3" d="M467.8,172.5c0.7,60.7-0.4,121.4,0.3,182.1"/>
		<path class="st4" d="M467.8,172.5c0.7,60.7-0.4,121.4,0.3,182.1"/>
		<path class="st3" d="M531.8,171.6c0.7,61-0.4,122,0.4,183"/>
		<path class="st4" d="M531.8,171.6c0.7,61-0.4,122,0.4,183"/>
		<path class="st3" d="M468,354.7c21.4-1.1,42.9,0.4,64.3-0.6"/>
		<path class="st4" d="M468,354.7c21.4-1.1,42.9,0.4,64.3-0.6"/>
		<path class="st2" d="M144.5,169.2c-4.3-2.2-0.3-24.3,0.2-30.7c0.5-6.4-3.9-7,3.1-7.7c6.9-0.7,26.1,3.7,38.5,3.5
			c12.4-0.1,23.3-4.5,35.9-4.4c12.5,0.1,25.1,5.2,39.4,5.2c14.3,0,33.1-5.1,46.4-5.2c13.3-0.1,20.8,4.4,33.2,4.4
			c12.4,0,28.3-4.2,41.1-4.4c12.8-0.1,22.7,3.5,35.9,3.5c13.1,0,29.6-3.5,42.9-3.5c13.3,0,21.9,3.5,36.7,3.5s39.5-3.4,52.5-3.5
			s15.7,2.5,25.4,2.6c9.6,0.1,25.1-2.7,32.4-1.7c7.3,1,16.9,3.9,11.3,7.6c-5.6,3.7,21.8,12.4-45.1,14.8
			c-66.9,2.4-289.1-0.3-356.4-0.5s-35-3.6-47.2-0.9C158.4,154.5,148.8,171.4,144.5,169.2z"/>
		<path class="st3" d="M142.7,127.3c159.7-0.3,319,0.4,478.8,0.1"/>
		<path class="st4" d="M142.7,127.3c159.7-0.3,319,0.4,478.8,0.1"/>
		<path class="st3" d="M143.1,127.8c4.9,11.2-3.5,30.4,1.4,41.7"/>
		<path class="st4" d="M143.1,127.8c4.9,11.2-3.5,30.4,1.4,41.7"/>
		<path class="st3" d="M143.2,169.5c159.4-0.3,318.4,0.4,477.8,0.1"/>
		<path class="st4" d="M143.2,169.5c159.4-0.3,318.4,0.4,477.8,0.1"/>
		<path class="st3" d="M621.1,127.3c0.5,14.3-1,28.7-0.5,42.9"/>
		<path class="st4" d="M621.1,127.3c0.5,14.3-1,28.7-0.5,42.9"/>
		<path class="st5" d="M234.7,177.5c-0.3,0.9-1.5,2.4-1.4,3.4s2.1,1.3,2.1,2.5c0.1,1.2-1.8,3.4-1.8,4.9c0,1.5,2,2.4,2,4
			c0,1.6-1.8,4.1-1.7,5.5c0.1,1.4,2.3,1.7,2.4,2.8c0,1.1-1.9,2.7-2.1,3.9s1.1,2.9,1,3.7c0,0.7-1,0.2-1.1,0.6
			c-0.1,0.4,0.7,1.6,0.5,2.1c-0.2,0.5-1.5-0.1-1.5,0.8c0,0.9,1.7,3.1,1.7,4.6c0,1.5-1.7,3.3-1.6,4.5c0,1.2,1.8,1.7,1.9,2.9
			c0,1.2-1.6,3-1.6,4.4c0.1,1.5,1.8,3,2,4.3s-1.3,2.8-0.8,3.5c0.5,0.7,2.5,1.2,3.8,0.8c1.2-0.4,2.6-3.5,3.6-3.5c1,0,1.8,3.3,2.6,3.4
			c0.8,0.2,1.2-2.6,2.2-2.4c1,0.2,2.9,3.2,3.8,3.4c0.9,0.2,1-2.1,1.5-2.2c0.4-0.1,0.8,1.5,1.1,1.5c0.3,0,0.3-1.7,0.6-1.6
			c0.3,0.1-0.3,2.1,1.3,2c1.5-0.1,6.3-2.6,7.9-2.6c1.6,0,1.3,2.4,1.9,2.3s0.8-2.7,1.7-2.6c0.9,0.1,2.9,3.1,3.7,3.2s0.8-2.5,1.2-2.7
			c0.4-0.2,0.9,1.7,1.4,1.7c0.6,0,1.4-2.1,1.9-1.9c0.5,0.2-0.2,2.9,1.3,2.9s5.9-3.1,7.5-3.1c1.6,0.1,1.4,3.1,1.9,3.4
			c0.5,0.3,0.9-1.6,1.3-1.7c0.5-0.1,0.4,1.5,1.5,1.3s4-1.6,5.1-2.7s1.1-2.9,1.5-4.2c0.4-1.3,1.3-3,1-3.8c-0.3-0.8-2.6-0.5-2.6-1.1
			s2-1.8,2.2-2.4c0.2-0.6-0.9-0.6-0.8-1.4c0-0.8,1.3-2.5,1.1-3.2c-0.2-0.7-2.5-0.3-2.6-1c0-0.7,2.3-2.6,2.5-3.2s-1.1-0.3-1.2-0.9
			c0-0.6,1-1.9,1-2.7c0-0.8-1.3-0.6-1.1-1.9c0.2-1.2,2.4-4.5,2.3-5.5s-2.8-0.2-2.9-0.9c-0.1-0.8,2-2.3,2.4-3.6
			c0.4-1.3,0.2-3.6-0.2-4.4c-0.4-0.8-2.1,0.3-2.2-0.1c-0.1-0.4,1.5-1.3,1.8-2.5c0.4-1.2,0.7-3.8,0.3-4.9s-2.5-0.8-2.6-1.4
			c-0.1-0.7,1.8-1.5,2.2-2.5s0.3-2.9,0-3.9c-0.4-0.9-1.8-1.2-2.1-1.7c-0.4-0.5,0-1.2-0.2-1.4c-0.2-0.2-0.6,0.6-1,0.2
			c-0.3-0.4-0.3-2.6-0.9-2.7c-0.6,0-1.6,2.4-2.9,2.4c-1.3,0-3.6-2.2-4.6-2.5s-1,0.8-1.4,0.8c-0.4,0-0.2-1.1-1.1-0.7
			c-0.9,0.4-3.2,3.1-4.1,3.3s-0.7-2.3-1.3-2.3s-0.5,2.4-2.3,2.2c-1.8-0.1-6.9-2.9-8.6-3.1s-1.1,2.1-1.6,2.2s-1-1.3-1.4-1.3
			c-0.4,0.1-0.4,1.7-0.7,1.6c-0.3-0.1-0.4-2.5-1.2-2.4c-0.8,0.2-2.7,3.1-3.5,3.3c-0.8,0.1-0.8-2.3-1.4-2.5c-0.5-0.1-0.6,1.9-1.9,1.8
			c-1.3-0.1-4.6-2.2-6.1-2.3s-1.9,1.8-2.8,1.8s-1.8-2-2.5-2c-0.7,0-1.1,1.7-1.5,1.7c-0.4,0.1-0.4-1.4-0.6-1.4s-0.2,1.4-0.8,1.3
			s-1.9-1.9-2.6-1.9c-0.7,0-1.4,1.3-1.7,1.9S235,176.7,234.7,177.5z"/>
		<path class="st3" d="M297.6,239.1c-21.9,1.4-43.8-0.4-65.8,1"/>
		<path class="st4" d="M297.6,239.1c-21.9,1.4-43.8-0.4-65.8,1"/>
		<path class="st3" d="M230.5,172.9c22.4-1.2,44.8,0.1,67.2-1"/>
		<path class="st4" d="M230.5,172.9c22.4-1.2,44.8,0.1,67.2-1"/>
		<path class="st3" d="M297.4,172.3c0.5,21-0.9,42.3-0.4,63.3"/>
		<path class="st4" d="M297.4,172.3c0.5,21-0.9,42.3-0.4,63.3"/>
		<path class="st3" d="M230.1,172.2c1.7,22.6,1.8,45.9,2.1,68.9"/>
		<path class="st4" d="M230.1,172.2c1.7,22.6,1.8,45.9,2.1,68.9"/>
		<path class="st5" d="M391,178.5c-0.3,1.4-1.6,3.9-1.5,5.5c0.1,1.6,2.1,2.1,2.2,4.1c0.1,2-1.9,5.5-1.8,7.9c0,2.4,2,3.9,2.1,6.4
			c0,2.5-1.9,6.6-1.8,8.9c0.1,2.2,2.4,2.7,2.4,4.5s-2,4.3-2.2,6.3c-0.2,2,1.1,4.7,1.1,5.9c0,1.1-1,0.3-1.1,1
			c-0.1,0.7,0.7,2.5,0.5,3.3c-0.2,0.8-1.6-0.1-1.5,1.3c0,1.5,1.7,5,1.7,7.4c0,2.4-1.7,5.3-1.7,7.3c0,2,1.9,2.7,1.9,4.7
			c0,2-1.7,4.8-1.6,7.1c0.1,2.3,1.8,4.8,2,6.9c0.2,2.1-1.3,4.5-0.8,5.6s2.6,2,3.9,1.3c1.3-0.7,2.7-5.6,3.7-5.6
			c1.1,0,1.9,5.2,2.7,5.5c0.8,0.3,1.2-4.2,2.3-3.9c1,0.2,3,5.1,3.9,5.4s1.1-3.4,1.5-3.6c0.4-0.2,0.9,2.4,1.2,2.3
			c0.3,0,0.3-2.7,0.7-2.6c0.3,0.1-0.3,3.3,1.3,3.1c1.6-0.2,6.5-4.1,8.2-4.2s1.3,3.8,1.9,3.7c0.6-0.1,0.9-4.4,1.8-4.2s3,5,3.8,5.1
			s0.8-4.1,1.3-4.4s0.9,2.7,1.5,2.6c0.6-0.1,1.4-3.4,2-3.1s-0.2,4.6,1.3,4.6c1.5-0.1,6.2-5.1,7.8-5c1.6,0.1,1.4,5,2,5.5
			c0.6,0.5,0.9-2.6,1.4-2.8c0.5-0.1,0.4,2.4,1.5,2c1.1-0.4,4.1-2.5,5.2-4.4c1.1-1.9,1.2-4.6,1.6-6.8c0.4-2.1,1.3-4.8,1-6.1
			c-0.3-1.3-2.6-0.8-2.7-1.8c-0.1-1,2.1-2.9,2.3-3.9c0.2-1-0.9-1-0.8-2.2c0-1.2,1.4-4,1.1-5.2c-0.3-1.1-2.6-0.5-2.6-1.6
			s2.4-4.1,2.6-5.2s-1.2-0.4-1.2-1.4c0-1,1-3.1,1-4.3c0-1.2-1.3-1-1.1-3c0.2-2,2.5-7.1,2.4-8.9s-2.9-0.2-3-1.5
			c-0.1-1.2,2.1-3.7,2.5-5.8c0.4-2.1,0.2-5.8-0.2-7s-2.2,0.5-2.2-0.2s1.5-2.1,1.9-4.1c0.4-2,0.7-6.1,0.3-7.8
			c-0.4-1.7-2.6-1.2-2.6-2.3c-0.1-1.1,1.9-2.4,2.3-4.1c0.4-1.7,0.4-4.7,0-6.2c-0.4-1.5-1.8-1.9-2.2-2.8c-0.4-0.8,0-1.9-0.2-2.2
			c-0.2-0.3-0.7,1-1,0.4s-0.3-4.2-0.9-4.3c-0.7-0.1-1.7,3.8-3,3.8c-1.3,0-3.7-3.5-4.8-3.9c-1-0.4-1,1.3-1.5,1.3
			c-0.4,0-0.2-1.8-1.1-1.1s-3.3,5-4.2,5.3c-0.9,0.3-0.7-3.6-1.4-3.6c-0.6,0-0.5,3.8-2.4,3.6c-1.9-0.2-7.1-4.7-8.9-4.9
			s-1.2,3.3-1.7,3.6c-0.5,0.3-1-2.1-1.4-2s-0.4,2.8-0.8,2.6c-0.3-0.2-0.4-4-1.2-3.8c-0.8,0.2-2.8,5-3.7,5.3
			c-0.8,0.2-0.9-3.8-1.4-3.9c-0.6-0.2-0.6,3.1-2,3s-4.8-3.6-6.3-3.7c-1.5-0.1-2,2.9-2.9,2.8c-0.9-0.1-1.9-3.2-2.5-3.2
			c-0.7-0.1-1.2,2.7-1.5,2.8s-0.4-2.2-0.7-2.2c-0.2,0-0.3,2.3-0.8,2.1c-0.6-0.2-1.9-3.1-2.7-3.1s-1.4,2.1-1.8,3.1
			C390.9,176.6,391.3,177.1,391,178.5z"/>
		<path class="st3" d="M389.8,172.8c21.5-0.9,43,0.4,64.5-0.5"/>
		<path class="st4" d="M389.8,172.8c21.5-0.9,43,0.4,64.5-0.5"/>
		<path class="st3" d="M454.5,171.9c0.5,34.3-0.9,68.7-0.4,103"/>
		<path class="st4" d="M454.5,171.9c0.5,34.3-0.9,68.7-0.4,103"/>
		<path class="st3" d="M390,172.8c0.5,33.9-0.9,67.8-0.4,101.7"/>
		<path class="st4" d="M390,172.8c0.5,33.9-0.9,67.8-0.4,101.7"/>
		<path class="st3" d="M389.5,274.7c21.4-0.9,42.8,0.4,64.3-0.5"/>
		<path class="st4" d="M389.5,274.7c21.4-0.9,42.8,0.4,64.3-0.5"/>
		
			<linearGradient id="SVGID_00000060715675942136926750000015657533812757868450_" gradientUnits="userSpaceOnUse" x1="53.8152" y1="1745.0835" x2="53.8152" y2="1735.6643" gradientTransform="matrix(9.4192 0 0 -9.4192 -84.1917 16608.0059)">
			<stop  offset="0" style="stop-color:#FF0000"/>
			<stop  offset="1" style="stop-color:#FFF2CC"/>
		</linearGradient>
		<path style="fill-rule:evenodd;clip-rule:evenodd;fill:url(#SVGID_00000060715675942136926750000015657533812757868450_);" d="
			M393.2,177.7c-0.3,1.2-1.5,3.2-1.4,4.5s2,1.8,2,3.4c0.1,1.7-1.8,4.5-1.7,6.5c0,2,1.9,3.3,2,5.4c0,2.1-1.8,5.5-1.7,7.3
			c0.1,1.9,2.2,2.3,2.3,3.8c0,1.5-1.9,3.5-2,5.2c-0.2,1.7,1,3.9,1,4.9c0,1-1,0.2-1,0.8c-0.1,0.6,0.7,2.1,0.5,2.8
			c-0.2,0.6-1.5-0.1-1.4,1.1c0,1.2,1.6,4.2,1.6,6.2s-1.6,4.3-1.6,6s1.8,2.3,1.8,4c0,1.6-1.6,3.9-1.5,5.9c0.1,1.9,1.7,4.1,1.9,5.8
			c0.2,1.7-1.2,3.7-0.7,4.7c0.5,1,2.5,1.7,3.6,1.1s2.5-4.6,3.5-4.6c1,0,1.8,4.4,2.5,4.6s1.1-3.4,2.1-3.2s2.9,4.3,3.7,4.6
			s1-2.8,1.4-2.9c0.4-0.2,0.8,2,1.1,2c0.3,0,0.3-2.2,0.6-2.1s-0.3,2.7,1.2,2.6c1.5-0.1,6.1-3.3,7.7-3.3c1.6,0,1.2,3.2,1.8,3.2
			c0.6-0.1,0.8-3.6,1.7-3.5c0.9,0.1,2.8,4.2,3.6,4.3s0.7-3.4,1.2-3.6s0.8,2.3,1.4,2.2c0.5-0.1,1.3-2.8,1.8-2.6
			c0.5,0.2-0.2,3.9,1.2,3.8s5.8-4.1,7.3-4c1.5,0.1,1.4,4.2,1.9,4.6c0.5,0.4,0.9-2.2,1.3-2.3c0.5-0.1,0.4,2,1.4,1.7
			c1.1-0.3,3.9-2,4.9-3.5c1.1-1.5,1.1-3.8,1.5-5.6c0.4-1.8,1.2-4,1-5.1s-2.5-0.8-2.5-1.6c-0.1-0.8,1.9-2.4,2.2-3.2
			c0.2-0.8-0.8-0.8-0.8-1.8c0-1,1.3-3.3,1-4.3c-0.2-0.9-2.5-0.5-2.5-1.4c0-1,2.2-3.4,2.4-4.3c0.2-0.9-1.1-0.4-1.1-1.2s1-2.6,0.9-3.6
			c0-1-1.2-0.9-1-2.5s2.4-5.9,2.3-7.3c-0.1-1.4-2.7-0.3-2.8-1.3c-0.1-1,2-3,2.3-4.8c0.4-1.8,0.2-4.8-0.2-5.8c-0.4-1-2.1,0.4-2.1-0.2
			s1.4-1.7,1.8-3.3s0.7-5.1,0.3-6.5s-2.4-1.1-2.5-2s1.8-1.9,2.1-3.3c0.3-1.4,0.3-3.9,0-5.2s-1.7-1.7-2.1-2.4c-0.4-0.7,0-1.6-0.1-1.9
			c-0.2-0.3-0.6,0.8-0.9,0.3c-0.3-0.5-0.3-3.5-0.9-3.6c-0.6-0.1-1.6,3.1-2.8,3.1c-1.2,0-3.5-3-4.5-3.4c-1-0.4-1,1.1-1.4,1.1
			c-0.4,0-0.2-1.5-1.1-0.9c-0.8,0.6-3.1,4.1-4,4.3c-0.9,0.2-0.7-3-1.3-3c-0.6,0-0.8,3.2-2.2,2.9c-1.4-0.2-5.3-3.3-6.4-4.4
			c-1.1-1.1,0.4-2.3-0.4-2.1s-3.1,3.5-4.5,3.5c-1.3,0-2.9-3.5-3.6-3.7c-0.7-0.3,0,1-0.3,2.1c-0.3,1.2-1,4.6-1.4,4.9
			c-0.5,0.3-0.8-3.2-1.3-3.3c-0.5-0.1-0.5,2.6-1.8,2.4c-1.3-0.1-4.5-3.1-5.9-3.2s-1.9,2.4-2.7,2.3s-1.8-2.7-2.4-2.8
			s-1.1,2.2-1.4,2.3s-0.4-1.8-0.6-1.9c-0.2,0-0.2,1.9-0.8,1.7c-0.5-0.1-1.8-2.6-2.5-2.6c-0.7,0-1.3,1.7-1.7,2.5
			S393.5,176.5,393.2,177.7z"/>
		<path class="st5" d="M470.2,181.4c-0.3,2.4-1.7,6.7-1.6,9.5c0.1,2.8,2.1,3.8,2.1,7.3s-1.9,9.5-1.9,13.7s2,7,2,11.5
			s-2,11.5-1.9,15.4c0.1,3.9,2.3,4.9,2.4,8.1c0,3.2-2,7.4-2.2,10.9c-0.2,3.5,1,8.3,1,10.4c0,2-1,0.4-1.1,1.7
			c-0.1,1.3,0.7,4.5,0.5,5.9s-1.6-0.3-1.6,2.2s1.7,8.9,1.6,13.1c0,4.3-1.8,9.1-1.8,12.6s1.9,4.9,1.9,8.4c0,3.4-1.8,8.2-1.7,12.3
			c0,4.1,1.8,8.6,1.9,12.3s-1,6.8-0.9,9.8s0.5,7.4,1.5,8.4s3.2-2.4,4.5-2.6c1.3-0.2,2.3,1.6,3.3,1.4c1.1-0.2,1.9-2.4,3.1-2.6
			c1.2-0.2,3,2.1,4,1.3c0.9-0.8,1.1-6.4,1.6-6.1c0.5,0.3,1,7.3,1.1,7.9c0.2,0.7-0.3-3.6,0-4c0.3-0.4,0.7,0.8,1.9,1.4
			s3.8,2.4,5.5,2.4s3.5-1.8,4.6-2.4c1.1-0.6,1.1-1.3,2-0.9c0.9,0.3,2.6,2.7,3.6,2.9c1,0.2,1.4-1.5,2.1-1.5c0.8,0,1.5,1.7,2.4,1.7
			c0.9-0.1,2.1-2.2,2.9-2.1c0.8,0.1,1,2.7,1.9,2.6c0.9,0,2.5-3,3.6-2.9s1.8,3.9,2.9,3.9c1.2,0,2.6-4,4-4.1c1.4-0.1,3.6,4,4.3,3.3
			s-0.3-4.4,0-7.6c0.3-3.2,1.2-8,1.7-11.7c0.5-3.7,1.4-8.3,1.1-10.6s-2.6-1.7-2.7-3.4c-0.1-1.7,2.1-4.9,2.4-6.7
			c0.3-1.8-0.9-1.8-0.8-3.9s1.4-6.9,1.2-9c-0.2-2-2.6-1.1-2.6-3.1c0-2,2.4-7,2.7-9s-1.2-0.8-1.2-2.5s1.1-5.4,1.1-7.6
			s-1.3-1.9-1.1-5.3c0.2-3.4,2.6-12.3,2.6-15.4c-0.1-3-2.9-0.7-3-2.8c-0.1-2.1,2.2-6.3,2.6-10.1c0.4-3.7,0.3-10.2-0.1-12.3
			s-2.2,0.7-2.2-0.6s1.5-3.5,1.9-7s0.8-10.7,0.4-13.7c-0.4-3-2.6-2.3-2.6-4.2c-0.1-1.9,1.9-4,2.3-7c0.4-3,0.4-8.3,0.1-10.9
			s-1.8-3.5-2.2-5c-0.4-1.5,0.1-3.4-0.1-3.9c-0.2-0.6-0.7,1.7-1,0.6c-0.3-1.2-0.2-7.4-0.9-7.5s-1.8,6.6-3.1,6.4s-3.7-6.4-4.7-7.3
			s-1.1,2.2-1.5,2.2c-0.4,0-0.2-3.1-1.1-2c-0.9,1.2-3.4,8.5-4.3,9c-0.9,0.4-0.7-6.4-1.3-6.4s-0.6,6.7-2.4,6.1
			c-1.9-0.5-7-8.7-8.8-9.2c-1.8-0.5-1.2,5.7-1.7,6.2s-1-3.8-1.4-3.6c-0.4,0.1-0.5,4.8-0.8,4.5c-0.3-0.4-0.4-7.1-1.2-6.7
			c-0.8,0.4-2.9,8.6-3.7,9c-0.9,0.3-0.8-6.7-1.4-7c-0.6-0.3-0.6,5.4-2,5c-1.4-0.3-4.7-6.6-6.2-7s-2,4.9-2.9,4.8s-1.8-5.7-2.5-5.9
			s-1.2,4.6-1.6,4.8s-0.4-3.9-0.6-3.9c-0.2,0-0.3,4-0.9,3.6s-1.9-5.6-2.6-5.6s-1.5,3.6-1.8,5.3S470.5,178.9,470.2,181.4z"/>
		<path class="st3" d="M468.6,172.5c21.4-1.1,42.9,0.9,64.3-0.2"/>
		<path class="st4" d="M468.6,172.5c21.4-1.1,42.9,0.9,64.3-0.2"/>
		<path class="st3" d="M468.6,172.5c0.7,60.7-0.4,121.4,0.3,182.1"/>
		<path class="st4" d="M468.6,172.5c0.7,60.7-0.4,121.4,0.3,182.1"/>
		<path class="st3" d="M532.7,171.6c0.7,61-0.4,122,0.4,183"/>
		<path class="st4" d="M532.7,171.6c0.7,61-0.4,122,0.4,183"/>
		<path class="st3" d="M468.9,354.7c21.4-1.1,42.9,0.4,64.3-0.6"/>
		<path class="st4" d="M468.9,354.7c21.4-1.1,42.9,0.4,64.3-0.6"/>
		
			<linearGradient id="SVGID_00000163062051726364633810000014829741128582701465_" gradientUnits="userSpaceOnUse" x1="47.8154" y1="1724.6058" x2="47.8153" y2="1711.631" gradientTransform="matrix(12.9749 0 0 -12.9749 -119.7487 22546.0332)">
			<stop  offset="0" style="stop-color:#FF0000"/>
			<stop  offset="1" style="stop-color:#FFF2CC"/>
		</linearGradient>
		<path style="fill-rule:evenodd;clip-rule:evenodd;fill:url(#SVGID_00000163062051726364633810000014829741128582701465_);" d="
			M471.9,182.6c-0.3,2.2-1.5,6-1.5,8.5c0.1,2.5,2,3.4,2,6.5c0,3.1-1.8,8.5-1.8,12.2c0,3.7,1.9,6.2,1.9,10.2c0,4-1.9,10.2-1.8,13.7
			s2.2,4.4,2.2,7.2s-1.9,6.6-2.1,9.8s1,7.5,0.9,9.3s-1,0.4-1.1,1.5c-0.1,1.1,0.6,4,0.5,5.2c-0.2,1.2-1.5-0.3-1.5,2
			c0,2.3,1.6,7.9,1.5,11.8c0,3.8-1.7,8.1-1.7,11.2c0,3.1,1.7,4.4,1.8,7.5c0,3.1-1.7,7.3-1.6,11c0,3.7,1.6,7.7,1.8,11
			c0.2,3.3-1.2,6.2-0.8,8.8s2.1,5.9,3.1,6.6c1,0.7,1.9-2.6,2.9-2.6c1,0,1.8,2.9,2.9,2.6s2.2-4.2,3.3-4.5c1.1-0.2,2.5,3.5,3.3,3.1
			c0.8-0.4,1-5.2,1.5-5.5c0.4-0.3,0.8,3.8,1.1,3.7c0.3,0,0.3-4.2,0.6-4s-0.1,4.4,1.2,5s5.1-1.6,6.7-1.6c1.6,0,2,1.6,2.8,1.6
			c0.8,0,1.3-1.9,2.2-1.6c0.9,0.3,2.3,3.5,3.1,3.4s0.8-3.7,1.2-4.1c0.4-0.4,0.7,1.6,1.4,1.6s1.9-2.1,2.5-1.6
			c0.5,0.4-0.6,3.5,0.6,4.1c1.2,0.6,5-0.7,6.6-0.4c1.5,0.3,1.6,2.2,2.6,1.9c1.1-0.3,2.2-3.7,3.8-3.8s4.6,3.8,5.7,3
			c1.2-0.9,1.2-5.3,1.2-8.2s-1.3-5.9-1.4-9c-0.1-3.1,1.3-7.4,1.1-9.5c-0.2-2.1-2.5-1.5-2.5-3c0-1.5,2-4.4,2.2-6s-0.8-1.6-0.8-3.5
			c0.1-1.9,1.3-6.2,1.1-8c-0.2-1.8-2.5-1-2.5-2.8s2.3-6.3,2.5-8c0.2-1.7-1.1-0.8-1.1-2.2c0-1.5,1-4.8,1-6.7s-1.2-1.7-1-4.8
			c0.2-3.1,2.5-11,2.4-13.7c-0.1-2.7-2.7-0.6-2.8-2.5c-0.1-1.9,2-5.7,2.4-9c0.4-3.3,0.3-9.1-0.1-11c-0.4-1.9-2.1,0.6-2.1-0.5
			c0-1.1,1.4-3.2,1.8-6.2c0.4-3.1,0.8-9.6,0.4-12.2c-0.3-2.7-2.4-2.1-2.5-3.7c0-1.7,1.8-3.6,2.2-6.2c0.4-2.7,0.1-7.6,0.1-9.8
			c-0.1-2.2-0.5-2.1-0.4-3.3s0.7-2.6,0.7-4s-0.8-2.9-0.7-4.5s1.8-4.7,1-5c-0.8-0.3-4,2.8-6,3.1s-4.6-1.4-5.8-1.2c-1.2,0.1-1,2-1.4,2
			c-0.4,0-0.4-1.7-1.1-1.7c-0.6,0-1.9,1.5-2.7,1.4c-0.7-0.1-1-1.6-1.8-2s-2.2-0.3-3.2-0.2s-1.8,1.1-2.8,0.8
			c-0.9-0.3-2.1-1.8-2.8-2.8c-0.6-1-0.3-3.4-1-3.2c-0.7,0.1-2,3.9-3,4c-1,0.1-2-3.2-2.7-3.3s-0.6,1.9-1.5,3
			c-0.9,1.1-2.9,2.9-3.9,3.8c-1.1,0.9-1.2,1.9-2.5,1.6s-3.9-3.5-5.2-3.4s-1.9,4.4-2.8,4.2c-0.8-0.2-1.7-5.1-2.3-5.2
			c-0.6-0.2-1.1,4.1-1.5,4.2c-0.3,0.1-0.4-3.5-0.6-3.5c-0.2,0-0.3,3.5-0.8,3.2c-0.5-0.3-1.8-5-2.5-5c-0.7,0-1.4,3.2-1.7,4.8
			C471.8,179.6,472.2,180.4,471.9,182.6z"/>
		<path class="st2" d="M494.7,167.8h8.7v7.3h-8.7V167.8z"/>
		<path class="st2" d="M415.5,167.8h8.7v7.3h-8.7V167.8z"/>
	</g>
</g>
<path class="st3" d="M132.6,216.6h499.1"/>
</svg>
