<svg version="1.1" viewBox="0.0 0.0 370.62467191601047 370.68766404199476" fill="none" stroke="none" stroke-linecap="square" stroke-miterlimit="10" xmlns:xlink="http://www.w3.org/1999/xlink" xmlns="http://www.w3.org/2000/svg"><clipPath id="p.0"><path d="m0 0l370.62466 0l0 370.68765l-370.62466 0l0 -370.68765z" clip-rule="nonzero"/></clipPath><g clip-path="url(#p.0)"><path fill="#000000" fill-opacity="0.0" d="m0 0l370.62466 0l0 370.68765l-370.62466 0z" fill-rule="evenodd"/><path fill="#ff0000" d="m83.51706 185.34383l0 0c0 -56.21997 45.575302 -101.79527 101.79527 -101.79527l0 0c26.997787 0 52.889816 10.724831 71.98015 29.815147c19.090302 19.090324 29.815125 44.982338 29.815125 71.980125l0 0c0 56.219986 -45.575287 101.79527 -101.79527 101.79527l0 0c-56.21997 0 -101.79527 -45.575287 -101.79527 -101.79527zm167.16956 52.949722c27.10263 -33.46225 24.56192 -81.98804 -5.887024 -112.43697c-30.448929 -30.448936 -78.97473 -32.98967 -112.436966 -5.8870163zm-130.74855 -105.89943l0 0c-27.102654 33.462234 -24.56192 81.98804 5.8870163 112.436966c30.448936 30.448944 78.974724 32.989685 112.43697 5.887024z" fill-rule="evenodd"/><path fill="#000000" fill-opacity="0.0" d="m1.5643045 1.5958005l367.49606 0l0 367.49606l-367.49606 0z" fill-rule="evenodd"/><path stroke="#000000" stroke-width="3.0" stroke-linejoin="round" stroke-linecap="butt" d="m1.5643045 1.5958005l367.49606 0l0 367.49606l-367.49606 0z" fill-rule="evenodd"/><path fill="#000000" fill-opacity="0.0" d="m1.5538058 148.98163l367.49606 0l0 72.72441l-367.49606 0z" fill-rule="evenodd"/><path fill="#000000" d="m55.443012 200.97162q-3.578125 0 -6.484375 -1.09375q-2.890625 -1.109375 -5.046875 -3.21875q-2.15625 -2.109375 -3.3125 -5.140625q-1.140625 -3.046875 -1.140625 -6.921875q0 -3.859375 1.140625 -6.890625q1.15625 -3.046875 3.3125 -5.15625q2.15625 -2.109375 5.046875 -3.234375q2.90625 -1.125 6.484375 -1.125q3.515625 0 6.4375 1.125q2.9218712 1.125 5.031246 3.234375q2.125 2.109375 3.28125 5.15625q1.171875 3.03125 1.171875 6.890625q0 3.875 -1.171875 6.921875q-1.15625 3.03125 -3.28125 5.140625q-2.109375 2.109375 -5.031246 3.21875q-2.921875 1.09375 -6.4375 1.09375zm0 -3.4375q2.0625 0 3.6875 -0.78125q1.625 -0.796875 2.75 -2.40625q1.125 -1.609375 1.71875 -4.046875q0.5937462 -2.4375 0.5937462 -5.703125q0 -3.25 -0.5937462 -5.6875q-0.59375 -2.453125 -1.71875 -4.046875q-1.125 -1.609375 -2.75 -2.40625q-1.625 -0.796875 -3.6875 -0.796875q-2.078125 0 -3.734375 0.796875q-1.640625 0.796875 -2.765625 2.40625q-1.125 1.59375 -1.71875 4.046875q-0.59375 2.4375 -0.59375 5.6875q0 3.265625 0.59375 5.703125q0.59375 2.4375 1.71875 4.046875q1.125 1.609375 2.765625 2.40625q1.65625 0.78125 3.734375 0.78125zm17.985287 -28.546875l13.109375 0l0 3.03125l-0.65625 0q-0.609375 0 -1.28125 0.046875q-0.65625 0.046875 -1.09375 0.140625q-0.4375 0.078125 -0.4375 0.25l5.328125 23.671875l-0.53125 -0.171875l6.421875 -26.96875l6.828125 0l6.421875 26.96875l-0.625 0.171875l5.328125 -23.234375q0 -0.296875 -0.421875 -0.46875q-0.421875 -0.1875 -1.0625 -0.296875q-0.625 -0.109375 -1.28125 -0.109375l-0.625 0l0 -3.03125l9.46875 0l0 3.03125l-0.265625 0q-1.0625 0 -1.75 0.421875q-0.671875 0.40625 -0.9375 1.515625l-6.078125 26.265625l-7.078125 0l-6.296875 -26.796875l0.578125 0.046875l-6.375 26.75l-7.3125 0l-6.46875 -26.84375q-0.21875 -0.921875 -0.875 -1.140625q-0.65625 -0.21875 -1.71875 -0.21875l-0.3125 0l0 -3.03125zm47.52516 31.234375l0 -3.03125l0.4375 0q0.921875 0 1.59375 -0.15625q0.6875 -0.15625 1.078125 -0.53125q0.40625 -0.375 0.40625 -0.984375l0 -21.921875q0 -0.65625 -0.40625 -0.984375q-0.390625 -0.328125 -1.078125 -0.453125q-0.671875 -0.140625 -1.59375 -0.140625l-0.4375 0l0 -3.03125l12.359375 0l13.421875 25.46875l-0.796875 -0.125l0 -21.78125q0 -0.1875 -0.5 -0.296875q-0.5 -0.109375 -1.234375 -0.171875q-0.71875 -0.0625 -1.421875 -0.0625l-0.625 0l0 -3.03125l10.828125 0l0 3.03125l-0.484375 0q-0.875 0 -1.578125 0.140625q-0.703125 0.125 -1.078125 0.453125q-0.375 0.328125 -0.375 0.984375l0 26.625l-6.953125 0l-15.484375 -29.390625l0.953125 0.21875l0 25.609375q0 0.125 0.5 0.265625q0.515625 0.125 1.234375 0.203125q0.734375 0.0625 1.4375 0.0625l0.578125 0l0 3.03125l-10.78125 0zm61.330307 -9.90625l0 9.90625l-25.78125 0l0 -3.03125l0.484375 0q1.328125 0 2.171875 -0.3125q0.859375 -0.3125 0.859375 -1.28125l0 -22.0q0 -0.96875 -0.859375 -1.265625q-0.84375 -0.3125 -2.171875 -0.3125l-0.484375 0l0 -3.03125l24.765625 0l0 8.796875l-3.46875 0l-0.4375 -3.609375q-0.09375 -0.796875 -0.640625 -1.203125q-0.546875 -0.421875 -1.609375 -0.578125q-1.046875 -0.15625 -2.640625 -0.15625l-5.625 0l0 24.734375l6.109375 0q1.328125 0 2.296875 -0.0625q0.96875 -0.078125 1.59375 -0.296875q0.640625 -0.21875 0.953125 -0.609375q0.3125 -0.40625 0.390625 -0.96875l0.578125 -4.71875l3.515625 0zm-16.453125 -7.5625q1.890625 -0.125 3.78125 -0.21875q1.890625 -0.09375 3.765625 -0.21875q1.875 -0.140625 3.71875 -0.21875l0 4.171875q-1.84375 -0.125 -3.71875 -0.203125q-1.875 -0.09375 -3.765625 -0.203125q-1.890625 -0.109375 -3.78125 -0.203125l0 -2.90625zm35.502182 3.390625l6.953125 14.078125l8.765625 0l0 -3.03125l-0.40625 0q-0.734375 0 -1.328125 -0.125q-0.59375 -0.140625 -1.078125 -0.578125q-0.484375 -0.453125 -0.96875 -1.234375l-5.6875 -10.46875l-6.25 1.359375zm-4.390625 10.609375l0 -24.609375l4.578125 0q1.84375 0 3.0 0.6875q1.171875 0.6875 1.765625 1.96875q0.59375 1.265625 0.59375 3.109375q0 1.984375 -0.59375 3.390625q-0.59375 1.40625 -1.828125 2.1875q-1.21875 0.765625 -3.15625 0.765625l-5.28125 0l0 3.078125l6.765625 0q0.359375 -0.046875 0.640625 -0.15625q0.296875 -0.109375 0.625 -0.265625q0.328125 -0.15625 0.625 -0.328125q2.953125 -0.4375 5.015625 -1.625q2.078125 -1.1875 3.171875 -3.03125q1.109375 -1.859375 1.109375 -4.28125q0 -2.765625 -1.375 -4.703125q-1.359375 -1.9375 -3.921875 -2.9375q-2.546875 -1.015625 -6.1875 -1.015625l-15.890625 0l0 3.03125l0.484375 0q1.328125 0 2.171875 0.3125q0.859375 0.296875 0.859375 1.265625l0 22.0q0 0.96875 -0.859375 1.28125q-0.84375 0.3125 -2.171875 0.3125l-0.484375 0l0 3.03125l14.03125 0l0 -3.03125l-0.65625 0q-0.5625 0 -1.125 -0.015625q-0.546875 -0.03125 -0.96875 -0.09375q-0.40625 -0.078125 -0.671875 -0.140625q-0.265625 -0.0625 -0.265625 -0.1875zm36.731064 0.953125q1.984375 0 3.234375 -0.453125q1.265625 -0.46875 1.875 -1.5q0.609375 -1.03125 0.609375 -2.65625q0 -1.5 -0.640625 -2.4375q-0.625 -0.953125 -1.796875 -1.59375q-1.15625 -0.640625 -2.71875 -1.09375q-1.5625 -0.46875 -3.375 -0.953125q-1.9375 -0.484375 -3.703125 -1.140625q-1.75 -0.65625 -3.125 -1.734375q-1.359375 -1.078125 -2.15625 -2.75q-0.78125 -1.671875 -0.78125 -4.1875q0 -2.90625 1.296875 -4.90625q1.296875 -2.0 3.640625 -3.046875q2.359375 -1.0625 5.484375 -1.0625q2.640625 0 4.53125 0.78125q1.90625 0.765625 3.125 2.5q1.234375 1.734375 1.90625 4.59375l-1.453125 -1.3125l0.703125 -5.984375l3.203125 0l0 8.921875l-3.65625 0q-0.5625 -2.015625 -1.671875 -3.40625q-1.09375 -1.390625 -2.640625 -2.109375q-1.53125 -0.734375 -3.515625 -0.734375q-1.796875 0 -2.96875 0.515625q-1.15625 0.5 -1.6875 1.453125q-0.53125 0.9375 -0.53125 2.296875q0 1.375 0.59375 2.234375q0.59375 0.859375 1.6875 1.40625q1.109375 0.546875 2.578125 0.96875q1.46875 0.421875 3.28125 0.859375q1.984375 0.484375 3.828125 1.140625q1.84375 0.65625 3.34375 1.71875q1.5 1.046875 2.34375 2.71875q0.859375 1.671875 0.859375 4.1875q0 3.34375 -1.390625 5.5625q-1.375 2.21875 -3.90625 3.34375q-2.53125 1.125 -5.953125 1.125q-2.90625 0 -5.25 -0.828125q-2.328125 -0.84375 -3.921875 -2.828125q-1.578125 -1.984375 -2.234375 -5.359375l1.59375 1.359375l-0.703125 7.03125l-3.34375 0l0 -10.25l3.828125 0q0.734375 2.5625 2.09375 4.25q1.375 1.6875 3.28125 2.53125q1.921875 0.828125 4.203125 0.828125zm22.363937 -15.21875l18.609375 0l0 3.265625l-18.609375 0l0 -3.265625zm-7.046875 17.734375l0 -3.03125l0.484375 0q1.328125 0 2.171875 -0.3125q0.859375 -0.3125 0.859375 -1.28125l0 -22.0q0 -0.96875 -0.859375 -1.265625q-0.84375 -0.3125 -2.171875 -0.3125l-0.484375 0l0 -3.03125l13.8125 0l0 2.984375l-0.390625 0q-0.484375 0 -1.03125 0.046875q-0.546875 0.046875 -1.015625 0.09375q-0.46875 0.03125 -0.75 0.109375q-0.28125 0.0625 -0.28125 0.1875l0 24.375q0 0.140625 0.28125 0.203125q0.28125 0.0625 0.75 0.140625q0.46875 0.0625 1.015625 0.0625q0.546875 0 1.03125 0l0.390625 0l0 3.03125l-13.8125 0zm19.71875 0l0 -2.984375l0.34375 0q0.53125 0 1.078125 -0.046875q0.546875 -0.046875 0.984375 -0.09375q0.453125 -0.046875 0.734375 -0.109375q0.28125 -0.0625 0.28125 -0.203125l0 -24.375q0 -0.125 -0.28125 -0.1875q-0.28125 -0.078125 -0.734375 -0.140625q-0.4375 -0.0625 -0.984375 -0.0625q-0.546875 0 -1.078125 0l-0.34375 0l0 -3.03125l13.765625 0l0 3.03125l-0.4375 0q-1.359375 0 -2.21875 0.3125q-0.859375 0.296875 -0.859375 1.265625l0 22.0q0 0.96875 0.859375 1.28125q0.859375 0.3125 2.21875 0.3125l0.4375 0l0 3.03125l-13.765625 0zm21.28357 -4.625l0 -22.0q0 -0.96875 -0.859375 -1.265625q-0.84375 -0.3125 -2.21875 -0.3125l-0.65625 0l0 -3.03125l14.25 0l0 3.03125l-0.65625 0q-1.3125 0 -2.171875 0.3125q-0.859375 0.296875 -0.859375 1.265625l0 22.0q0 0.96875 0.859375 1.28125q0.859375 0.3125 2.171875 0.3125l0.65625 0l0 3.03125l-14.25 0l0 -3.03125l0.65625 0q1.375 0 2.21875 -0.3125q0.859375 -0.3125 0.859375 -1.28125zm24.696228 1.1875l0 -24.546875l4.390625 0q1.890625 0 3.140625 0.6875q1.265625 0.671875 1.90625 2.046875q0.640625 1.359375 0.640625 3.46875q0 2.0625 -0.640625 3.515625q-0.640625 1.453125 -1.9375 2.1875q-1.296875 0.71875 -3.234375 0.71875l-5.546875 0l0 3.21875l6.59375 0q3.53125 0 6.140625 -1.15625q2.625 -1.171875 4.046875 -3.34375q1.4375 -2.1875 1.4375 -5.265625q0 -4.53125 -3.046875 -6.921875q-3.03125 -2.40625 -8.4375 -2.40625l-15.796875 0l0 2.9375l0.484375 0q1.3125 0 2.171875 0.3125q0.859375 0.3125 0.859375 1.28125l0 22.171875q0 0.96875 -0.859375 1.28125q-0.859375 0.296875 -2.171875 0.296875l-0.484375 0l0 2.953125l14.46875 0l0 -3.03125l-1.046875 0q-0.578125 0 -1.125 -0.015625q-0.546875 -0.03125 -1.0 -0.078125q-0.4375 -0.046875 -0.703125 -0.109375q-0.25 -0.0625 -0.25 -0.203125z" fill-rule="nonzero"/><path fill="#ff0000" fill-opacity="0.5333" d="m83.51706 185.34383l0 0c0 -56.21997 45.575302 -101.79527 101.79527 -101.79527l0 0c26.997787 0 52.889816 10.724831 71.98015 29.815147c19.090302 19.090324 29.815125 44.982338 29.815125 71.980125l0 0c0 56.219986 -45.575287 101.79527 -101.79527 101.79527l0 0c-56.21997 0 -101.79527 -45.575287 -101.79527 -101.79527zm167.16956 52.949722c27.10263 -33.46225 24.56192 -81.98804 -5.887024 -112.43697c-30.448929 -30.448936 -78.97473 -32.98967 -112.436966 -5.8870163zm-130.74855 -105.89943l0 0c-27.102654 33.462234 -24.56192 81.98804 5.8870163 112.436966c30.448936 30.448944 78.974724 32.989685 112.43697 5.887024z" fill-rule="evenodd"/><path stroke="#cc0000" stroke-width="3.0" stroke-linejoin="round" stroke-linecap="butt" d="m83.51706 185.34383l0 0c0 -56.21997 45.575302 -101.79527 101.79527 -101.79527l0 0c26.997787 0 52.889816 10.724831 71.98015 29.815147c19.090302 19.090324 29.815125 44.982338 29.815125 71.980125l0 0c0 56.219986 -45.575287 101.79527 -101.79527 101.79527l0 0c-56.21997 0 -101.79527 -45.575287 -101.79527 -101.79527zm167.16956 52.949722c27.10263 -33.46225 24.56192 -81.98804 -5.887024 -112.43697c-30.448929 -30.448936 -78.97473 -32.98967 -112.436966 -5.8870163zm-130.74855 -105.89943l0 0c-27.102654 33.462234 -24.56192 81.98804 5.8870163 112.436966c30.448936 30.448944 78.974724 32.989685 112.43697 5.887024z" fill-rule="evenodd"/></g></svg>