<svg version="1.1" viewBox="0.0 0.0 440.0997375328084 439.51443569553805" fill="none" stroke="none" stroke-linecap="square" stroke-miterlimit="10" xmlns:xlink="http://www.w3.org/1999/xlink" xmlns="http://www.w3.org/2000/svg"><clipPath id="p.0"><path d="m0 0l440.09973 0l0 439.51443l-440.09973 0l0 -439.51443z" clip-rule="nonzero"/></clipPath><g clip-path="url(#p.0)"><path fill="#000000" fill-opacity="0.0" d="m0 0l440.09973 0l0 439.51443l-440.09973 0z" fill-rule="evenodd"/><path fill="#000000" fill-opacity="0.0" d="m13.445529 -4.5419946l440.09448 0l0 448.59842l-440.09448 0z" fill-rule="evenodd"/><path fill="#000000" d="m20.261703 39.322376q8.15625 -2.8125 14.078125 -2.8125q7.546875 0 10.0625 3.953125q1.140625 1.859375 1.140625 4.015625q0 2.984375 -1.890625 6.171875q-1.875 3.171875 -5.0 5.734375q-7.250002 5.9375 -17.609375 7.375q0 0.6562538 0.03125 2.1250038q0.03125 1.46875 0.0625 3.265625q0.03125 1.796875 0.0625 3.828125q0.03125 2.03125 0.09375 3.890625q0.171875 4.609375 0.265625 5.265625q0.09375 0.671875 0.09375 1.09375q0 1.484375 -0.96875 2.234375q-0.953125 0.75 -2.515625 0.75q-0.296875 0 -0.59375 0l-0.953125 -48.156254q0.53125 -0.765625 1.421875 -0.703125q0.90625 0.046875 1.4375 0.46875q0.546875 0.421875 0.78125 1.5zm17.5 2.09375q-1.984375 -1.015625 -4.234375 -1.015625q-2.234377 0 -4.453125 0.421875q-5.03125 0.953125 -7.421875 4.25q-1.078125 1.5625 -1.078125 3.828125q0 0.25 0 0.484375l0 10.359375q12.328125 -2.75 17.484375 -7.671875q3.0 -2.8125 3.0 -5.796875q0 -3.1875 -3.296875 -4.859375zm40.293976 0.0625q-2.5 -1.796875 -6.453125 -1.796875q-3.71875 0 -6.890625 1.375q-6.0 2.515625 -8.203125 6.46875q-0.96875 1.796875 -0.96875 3.828125q0 0.359375 0 2.015625q0 1.640625 0.59375 4.4375q0.609375 2.78125 0.609375 5.65625q-1.265625 0.046875 -2.046875 0.28125q-0.765625 0.25 -1.3125 0.25q-0.53125 0 -0.921875 -0.484375q-0.390625 -0.46875 -0.875 -1.84375q-0.0625 -0.359375 -0.25 -2.03125q-0.171875 -1.6875 -0.4375 -4.078125q-0.265625 -2.40625 -0.59375 -5.25q-0.328125 -2.84375 -0.625 -5.59375q-0.671875 -5.984375 -1.03125 -8.8125q0 -1.4375 2.109375 -1.4375q1.25 0 1.96875 1.0625q0.71875 1.046875 1.140625 2.390625q0.421875 1.34375 0.5625 2.671875q0.15625 1.3125 0.28125 1.84375q7.90625 -7.0625 19.640625 -7.0625q1.3125 0 2.75 0.0625q0.359375 -0.0625 0.890625 -0.0625q0.546875 0 1.09375 0.71875q0.65625 0.84375 0.65625 2.03125q0 3.0 -1.6875 3.359375zm9.822647 -6.296875q0.78125 11.203125 1.328125 25.9375q-0.359375 1.859375 -2.875 1.859375q-0.65625 0 -1.359375 -0.265625q-0.6875 -0.265625 -0.859375 -0.75l0 -26.78125l3.765625 0zm-5.5625 -8.140623q0 -2.09375 2.453125 -2.09375q1.625 0 2.640625 0.71875q0.171875 0.65625 0.171875 1.296875q0 0.625 -0.46875 1.21875q-0.484375 0.59375 -1.453125 0.59375q-0.953125 0 -1.90625 -0.4375q-0.953125 -0.453125 -1.4375 -1.296875zm32.814316 23.187498q0 -7.140625 -0.765625 -10.484375q0.46875 -0.90625 -1.4375 -0.90625q-2.046875 0 -5.28125 1.03125q-3.234375 1.015625 -5.265625 2.03125q-4.859375 2.328125 -5.390625 4.546875l0 16.296875l-4.015625 0q-0.78125 -2.046875 -0.78125 -11.4375q0 -8.390625 0.328125 -12.34375q0.328125 -3.953125 0.515625 -4.5q1.5625 -1.015625 2.515625 -1.015625q1.5 0 1.5 3.53125q0 1.390625 -0.15625 2.671875q-0.140625 1.28125 -0.140625 1.765625q9.703125 -7.125 15.03125 -7.125q6.046875 0 6.890625 9.765625q0.359375 3.40625 0.359375 9.453125l-0.0625 4.734375q0 2.640625 0.109375 5.09375q-0.59375 0.359375 -0.953125 0.359375q-0.171875 -0.0625 -0.78125 -0.1875q-0.59375 -0.109375 -1.546875 -0.171875q-0.609375 -2.390625 -0.671875 -4.875q-0.046875 -2.484375 -0.046875 -4.59375l0.046875 -3.640625zm16.351562 7.359375l0.125 -9.578125q0 -2.28125 -0.421875 -3.890625l-9.28125 0l-0.125 -4.140625l8.984375 0l0 -15.453123q0.1875 -0.53125 0.71875 -1.078125q0.84375 -0.828125 1.40625 -0.828125q0.578125 0 0.984375 0.125q0.421875 0.109375 0.90625 0.828125q0.953125 3.953125 0.953125 11.921873q0 1.96875 0.1875 3.890625q1.921875 -0.25 3.828125 -0.25q0 0 3.125 0q1.125 0 2.09375 -0.109375l-0.1875 4.3125l-8.734375 -0.25l0.296875 20.671875q-1.078125 0.4687538 -1.859375 0.4687538q-3.0 0 -3.0 -6.640629zm39.29477 -4.1875q-4.5 7.0625 -11.984375 8.734375q-1.734375 0.359375 -3.140625 0.359375q-1.40625 0 -2.34375 -0.015625q-0.921875 -0.03125 -2.0625 -0.265625q-1.140625 -0.25 -2.09375 -0.796875q-2.21875 -1.25 -2.21875 -3.53125q-0.234375 -1.078125 -0.234375 -2.421875q0 -1.34375 0.59375 -3.5625q0.609375 -2.21875 2.1875 -4.796875q1.59375 -2.578125 3.859375 -4.734375q4.734375 -4.546875 10.25 -5.859375q1.609375 -0.359375 2.953125 -0.359375q1.359375 0 2.4375 0.171875q3.46875 0 4.671875 4.734375q0.78125 3.0 0.921875 8.359375q0.15625 5.359375 0.296875 8.265625q0.15625 2.90625 0.75 5.296875l-3.53125 0q-0.234375 -1.609375 -0.359375 -2.859375q-0.109375 -1.265625 -0.234375 -2.34375q-0.296875 -2.515625 -0.71875 -4.375zm-0.234375 -9.28125q0 -3.484375 -3.421875 -3.484375q-0.421875 -0.0625 -0.84375 -0.0625q-4.359375 0 -9.21875 4.203125q-2.28125 1.90625 -3.890625 4.3125q-2.390625 3.40625 -2.390625 6.109375q0 3.53125 4.0625 4.1875q5.390625 -0.125 10.3125 -4.90625q2.09375 -2.09375 3.46875 -4.5625q1.921875 -3.28125 1.921875 -5.796875zm8.249954 -15.515623l-0.171875 -7.734375q0 -0.953125 0.65625 -1.484375q0.65625 -0.546875 1.609375 -0.546875q0.96875 0 1.75 0.515625q0.78125 0.5 0.59375 1.40625l0.421875 25.874998q3.765625 -5.03125 10.1875 -8.453125q5.328125 -2.875 9.34375 -2.875q3.53125 0 5.4375 2.28125q1.4375 1.796875 1.4375 4.765625q0 2.953125 -1.109375 5.140625q-1.109375 2.1875 -2.90625 4.203125q-1.78125 2.0 -4.125 3.734375q-2.328125 1.734375 -4.734375 3.109375q-4.546875 2.640625 -8.984375 4.375q-0.359375 -0.109375 -1.203125 -0.046875q-0.828125 0.046875 -2.03125 0.046875q-3.234375 0 -5.6875 -0.78125q-0.59375 -5.6875 -0.59375 -17.296875l0.109375 -16.234373zm5.03125 29.406248q0 0.65625 1.234375 0.65625q1.234375 0 3.03125 -0.46875q1.796875 -0.484375 4.328125 -1.65625q2.546875 -1.171875 5.125 -3.03125q6.0 -4.25 9.046875 -10.0q-0.78125 -3.40625 -4.671875 -3.40625q-3.53125 0 -7.96875 2.625q-6.28125 3.78125 -8.984375 9.34375q-1.140625 2.21875 -1.140625 4.5q0 0.59375 0 0.953125q0 0.359375 0 0.484375zm30.12468 -17.90625q-0.109375 -3.234375 -0.234375 -5.78125q-0.125 -2.546873 -0.15625 -3.765623q-0.015625 -1.234375 -0.984375 -6.03125q0.546875 -0.71875 1.046875 -1.375q0.515625 -0.65625 1.46875 -0.65625q2.09375 0 3.234375 17.671873q0.609375 10.234375 0.609375 20.484375q0 2.75 -3.84375 2.75l-0.46875 -0.0625q0 -3.109375 -0.1875 -7.953125q-0.171875 -4.859375 -0.265625 -8.453125q-0.09375 -3.59375 -0.21875 -6.828125zm20.783035 19.046875q5.28125 0 15.875 -4.796875q0.65625 0 1.078125 0.453125q0.421875 0.453125 0.421875 1.046875q-2.390625 4.078125 -9.171875 6.359375q-6.765625 2.2656288 -12.625 0.765625q-6.65625 -1.734375 -8.09375 -7.484375q-0.109375 -1.140625 -0.109375 -3.046875q0 -1.921875 0.984375 -5.0625q0.984375 -3.15625 3.375 -5.96875q2.40625 -2.8125 5.640625 -4.421875q3.234375 -1.625 6.890625 -1.625q3.46875 0 7.78125 2.390625q2.03125 1.140625 3.234375 2.578125q1.203125 1.4375 1.203125 2.9375q0 0.421875 -0.0625 0.84375q-0.125 3.640625 -3.53125 4.609375q-1.5 0.421875 -3.484375 0.421875l-8.625 -0.359375q-4.3125 0 -6.578125 1.84375q-1.328125 1.03125 -1.859375 3.0625q1.5 5.453125 7.65625 5.453125zm10.6875 -18.5q-1.34375 -0.96875 -2.78125 -1.390625q-1.4375 -0.421875 -2.390625 -0.421875q-0.953125 0 -3.109375 0.640625q-2.15625 0.625 -3.84375 1.40625q-4.125 1.90625 -4.125 4.0q4.796875 0.421875 7.1875 0.421875q6.640625 0 8.984375 -1.140625q1.4375 -0.59375 1.4375 -1.484375q0 -1.078125 -1.359375 -2.03125z" fill-rule="nonzero"/><path fill="#000000" d="m42.855453 115.88425q0 5.75 -0.34375 11.234375q-0.328125 5.484375 -0.59375 10.71875q-0.265625 5.234375 -0.265625 11.140625q0 5.890625 0.84375 12.484375q0 1.375 -0.515625 1.984375q-0.515625 0.59375 -1.703125 0.59375q-2.8125 0 -2.8125 -4.671875l0 -1.984375q-8.515625 6.359375 -14.375 6.359375q-2.34375 0 -4.765625 -1.140625q-2.421875 -1.140625 -4.578125 -4.609375q-0.3125 -1.4375 -0.3125 -2.9375q0 -1.5 0.5625 -3.625q0.578125 -2.125 2.34375 -4.390625q1.765625 -2.28125 4.28125 -4.03125q5.515625 -3.703125 11.921875 -3.703125q2.765625 0 5.28125 0.828125q0 -1.078125 0.140625 -3.765625q0.15625 -2.703125 0.328125 -5.6875q0.359375 -7.78125 0.484375 -9.1875q0.125 -1.421875 0.328125 -2.40625q0.203125 -0.984375 0.625 -1.703125q0.90625 -1.5 3.125 -1.5zm-25.046875 38.6875q0 4.734375 3.421875 4.734375q0.53125 0 1.1875 -0.125q2.46875 0 6.0625 -1.4375q6.828125 -2.6875 8.3125 -4.671875l0 -7.953125q0 -2.109375 -3.40625 -2.109375q-0.421875 -0.046875 -1.109375 -0.046875q-0.6875019 0 -2.125002 0.296875q-1.4374981 0.296875 -3.234373 1.078125q-1.796875 0.78125 -3.53125 1.90625q-3.65625 2.46875 -5.03125 5.75q-0.546875 1.265625 -0.546875 2.578125zm40.364517 5.21875q5.28125 0 15.875 -4.796875q0.65625 0 1.078125 0.453125q0.421875 0.453125 0.421875 1.046875q-2.390625 4.078125 -9.171875 6.359375q-6.765625 2.265625 -12.625 0.765625q-6.65625 -1.734375 -8.09375 -7.484375q-0.109375 -1.140625 -0.109375 -3.046875q0 -1.921875 0.984375 -5.0625q0.984375 -3.15625 3.375 -5.96875q2.40625 -2.8125 5.640625 -4.421875q3.234375 -1.625 6.890625 -1.625q3.46875 0 7.78125 2.390625q2.03125 1.140625 3.234375 2.578125q1.203125 1.4375 1.203125 2.9375q0 0.421875 -0.0625 0.84375q-0.125 3.640625 -3.53125 4.609375q-1.5 0.421875 -3.484375 0.421875l-8.625 -0.359375q-4.3125 0 -6.578125 1.84375q-1.328125 1.03125 -1.859375 3.0625q1.5 5.453125 7.65625 5.453125zm10.6875 -18.5q-1.34375 -0.96875 -2.78125 -1.390625q-1.4375 -0.421875 -2.390625 -0.421875q-0.953125 0 -3.109375 0.640625q-2.15625 0.625 -3.84375 1.40625q-4.125 1.90625 -4.125 4.0q4.796875 0.421875 7.1875 0.421875q6.640625 0 8.984375 -1.140625q1.4375 -0.59375 1.4375 -1.484375q0 -1.078125 -1.359375 -2.03125zm10.632599 -12.046875l-0.171875 -7.734375q0 -0.953125 0.65625 -1.484375q0.65625 -0.546875 1.609375 -0.546875q0.96875 0 1.75 0.515625q0.78125 0.5 0.59375 1.40625l0.421875 25.875q3.765625 -5.03125 10.1875 -8.453125q5.328125 -2.875 9.34375 -2.875q3.53125 0 5.4375 2.28125q1.4375 1.796875 1.4375 4.765625q0 2.953125 -1.109375 5.140625q-1.109375 2.1875 -2.90625 4.203125q-1.78125 2.0 -4.125 3.734375q-2.328125 1.734375 -4.734375 3.109375q-4.546875 2.640625 -8.984375 4.375q-0.359375 -0.109375 -1.203125 -0.046875q-0.828125 0.046875 -2.03125 0.046875q-3.234375 0 -5.6875 -0.78125q-0.59375 -5.6875 -0.59375 -17.296875l0.109375 -16.234375zm5.03125 29.40625q0 0.65625 1.234375 0.65625q1.234375 0 3.03125 -0.46875q1.796875 -0.484375 4.328125 -1.65625q2.546875 -1.171875 5.125 -3.03125q6.0 -4.25 9.046875 -10.0q-0.78125 -3.40625 -4.671875 -3.40625q-3.53125 0 -7.96875 2.625q-6.28125 3.78125 -8.984375 9.34375q-1.140625 2.21875 -1.140625 4.5q0 0.59375 0 0.953125q0 0.359375 0 0.484375zm28.74968 -2.640625q0 -0.953125 -0.15625 -2.65625q-0.140625 -1.71875 -0.265625 -3.75q-0.109375 -2.03125 -0.109375 -4.125q0 -2.109375 0.359375 -3.84375q0.78125 -3.890625 3.234375 -3.890625q1.671875 0.484375 2.234375 1.203125q0.578125 0.71875 0.578125 1.765625q0 1.046875 -0.546875 2.609375q-1.96875 5.203125 -1.96875 9.390625q0 1.390625 0.171875 2.9375q0.96875 4.015625 6.59375 4.015625q2.9375 0 5.578125 -1.015625q5.03125 -1.859375 6.828125 -4.375q0.53125 -2.75 0.53125 -4.8125q0 -2.078125 -0.15625 -3.6875q-0.140625 -1.625 -0.359375 -3.5625q-0.203125 -1.953125 -0.265625 -4.28125q0.78125 -0.359375 1.53125 -0.359375q0.75 0 1.546875 0.78125q0.8125 0.765625 1.375 2.921875q0.578125 2.15625 0.75 5.0625q0.1875 2.90625 0.21875 6.03125q0.03125 3.109375 0.03125 6.015625q0 2.90625 0.234375 5.0q-0.71875 0.65625 -1.375 0.65625q-2.390625 0 -3.53125 -4.796875q-0.78125 0.65625 -2.640625 1.625q-3.953125 2.15625 -9.34375 2.875q-1.015625 0.109375 -2.28125 0.109375q-1.25 0 -3.140625 -0.46875q-1.875 -0.484375 -3.5625 -2.21875q-1.671875 -1.734375 -2.09375 -5.15625zm48.752563 33.609375l-0.828125 -0.0625q-1.796875 0 -3.84375 0.234375l-2.265625 0q-3.59375 0 -5.640625 -1.375q-1.078125 -0.71875 -1.078125 -2.15625l13.78125 -0.65625q6.34375 -0.1875 6.34375 -6.828125q0 -0.25 0 -0.8125q0 -0.5625 0 -2.484375l0.296875 -19.28125q0 -1.015625 -0.046875 -1.6875q-9.703125 9.046875 -18.6875 9.046875q-0.78125 0 -1.5625 -0.0625q-4.015625 0 -4.015625 -3.53125q0.125 -2.75 1.609375 -6.078125q1.5 -3.328125 3.859375 -6.40625q2.375 -3.078125 5.375 -5.546875q4.609375 -3.765625 8.921875 -3.765625q5.03125 0 8.265625 5.328125q0.953125 14.25 0.953125 20.25q0 5.984375 -0.1875 9.8125q-0.171875 3.84375 -0.796875 7.015625q-0.625 3.171875 -1.640625 5.03125q-1.015625 1.859375 -2.40625 2.6875q-2.265625 1.328125 -6.40625 1.328125zm3.59375 -47.078125q-0.71875 -0.25 -2.015625 -0.25q-1.28125 0 -3.3125 1.078125q-2.03125 1.078125 -3.890625 2.796875q-1.859375 1.703125 -3.46875 3.796875q-3.953125 5.15625 -3.953125 8.203125q0 0.96875 0.53125 1.4375q0.421875 0.25 1.046875 0.25q0.625 0 1.828125 -0.203125q1.203125 -0.21875 3.265625 -1.078125q2.0625 -0.875 4.28125 -2.25q2.21875 -1.390625 4.015625 -3.0625q4.1875 -3.828125 4.1875 -7.484375q0 -2.21875 -2.515625 -3.234375zm28.028564 47.078125l-0.828125 -0.0625q-1.796875 0 -3.84375 0.234375l-2.265625 0q-3.59375 0 -5.640625 -1.375q-1.078125 -0.71875 -1.078125 -2.15625l13.78125 -0.65625q6.34375 -0.1875 6.34375 -6.828125q0 -0.25 0 -0.8125q0 -0.5625 0 -2.484375l0.296875 -19.28125q0 -1.015625 -0.046875 -1.6875q-9.703125 9.046875 -18.6875 9.046875q-0.78125 0 -1.5625 -0.0625q-4.015625 0 -4.015625 -3.53125q0.125 -2.75 1.609375 -6.078125q1.5 -3.328125 3.859375 -6.40625q2.375 -3.078125 5.375 -5.546875q4.609375 -3.765625 8.921875 -3.765625q5.03125 0 8.265625 5.328125q0.953125 14.25 0.953125 20.25q0 5.984375 -0.1875 9.8125q-0.171875 3.84375 -0.796875 7.015625q-0.625 3.171875 -1.640625 5.03125q-1.015625 1.859375 -2.40625 2.6875q-2.265625 1.328125 -6.40625 1.328125zm3.59375 -47.078125q-0.71875 -0.25 -2.015625 -0.25q-1.28125 0 -3.3125 1.078125q-2.03125 1.078125 -3.890625 2.796875q-1.859375 1.703125 -3.46875 3.796875q-3.953125 5.15625 -3.953125 8.203125q0 0.96875 0.53125 1.4375q0.421875 0.25 1.046875 0.25q0.625 0 1.828125 -0.203125q1.203125 -0.21875 3.265625 -1.078125q2.0625 -0.875 4.28125 -2.25q2.21875 -1.390625 4.015625 -3.0625q4.1875 -3.828125 4.1875 -7.484375q0 -2.21875 -2.515625 -3.234375zm34.26294 11.5q-4.5 7.0625 -11.984375 8.734375q-1.734375 0.359375 -3.140625 0.359375q-1.40625 0 -2.34375 -0.015625q-0.921875 -0.03125 -2.0625 -0.265625q-1.140625 -0.25 -2.09375 -0.796875q-2.21875 -1.25 -2.21875 -3.53125q-0.234375 -1.078125 -0.234375 -2.421875q0 -1.34375 0.59375 -3.5625q0.609375 -2.21875 2.1875 -4.796875q1.59375 -2.578125 3.859375 -4.734375q4.734375 -4.546875 10.25 -5.859375q1.609375 -0.359375 2.953125 -0.359375q1.359375 0 2.4375 0.171875q3.46875 0 4.671875 4.734375q0.78125 3.0 0.921875 8.359375q0.15625 5.359375 0.296875 8.265625q0.15625 2.90625 0.75 5.296875l-3.53125 0q-0.234375 -1.609375 -0.359375 -2.859375q-0.109375 -1.265625 -0.234375 -2.34375q-0.296875 -2.515625 -0.71875 -4.375zm-0.234375 -9.28125q0 -3.484375 -3.421875 -3.484375q-0.421875 -0.0625 -0.84375 -0.0625q-4.359375 0 -9.21875 4.203125q-2.28125 1.90625 -3.890625 4.3125q-2.390625 3.40625 -2.390625 6.109375q0 3.53125 4.0625 4.1875q5.390625 -0.125 10.3125 -4.90625q2.09375 -2.09375 3.46875 -4.5625q1.921875 -3.28125 1.921875 -5.796875zm8.249954 -15.515625l-0.171875 -7.734375q0 -0.953125 0.65625 -1.484375q0.65625 -0.546875 1.609375 -0.546875q0.96875 0 1.75 0.515625q0.78125 0.5 0.59375 1.40625l0.421875 25.875q3.765625 -5.03125 10.1875 -8.453125q5.328125 -2.875 9.34375 -2.875q3.53125 0 5.4375 2.28125q1.4375 1.796875 1.4375 4.765625q0 2.953125 -1.109375 5.140625q-1.109375 2.1875 -2.90625 4.203125q-1.78125 2.0 -4.125 3.734375q-2.328125 1.734375 -4.734375 3.109375q-4.546875 2.640625 -8.984375 4.375q-0.359375 -0.109375 -1.203125 -0.046875q-0.828125 0.046875 -2.03125 0.046875q-3.234375 0 -5.6875 -0.78125q-0.59375 -5.6875 -0.59375 -17.296875l0.109375 -16.234375zm5.03125 29.40625q0 0.65625 1.234375 0.65625q1.234375 0 3.03125 -0.46875q1.796875 -0.484375 4.328125 -1.65625q2.546875 -1.171875 5.125 -3.03125q6.0 -4.25 9.046875 -10.0q-0.78125 -3.40625 -4.671875 -3.40625q-3.53125 0 -7.96875 2.625q-6.28125 3.78125 -8.984375 9.34375q-1.140625 2.21875 -1.140625 4.5q0 0.59375 0 0.953125q0 0.359375 0 0.484375zm30.124664 -17.90625q-0.109375 -3.234375 -0.234375 -5.78125q-0.125 -2.546875 -0.15625 -3.765625q-0.015625 -1.234375 -0.984375 -6.03125q0.546875 -0.71875 1.046875 -1.375q0.515625 -0.65625 1.46875 -0.65625q2.09375 0 3.234375 17.671875q0.609375 10.234375 0.609375 20.484375q0 2.75 -3.84375 2.75l-0.46875 -0.0625q0 -3.109375 -0.1875 -7.953125q-0.171875 -4.859375 -0.265625 -8.453125q-0.09375 -3.59375 -0.21875 -6.828125zm20.78305 19.046875q5.28125 0 15.875 -4.796875q0.65625 0 1.078125 0.453125q0.421875 0.453125 0.421875 1.046875q-2.390625 4.078125 -9.171875 6.359375q-6.765625 2.265625 -12.625 0.765625q-6.65625 -1.734375 -8.09375 -7.484375q-0.109375 -1.140625 -0.109375 -3.046875q0 -1.921875 0.984375 -5.0625q0.984375 -3.15625 3.375 -5.96875q2.40625 -2.8125 5.640625 -4.421875q3.234375 -1.625 6.890625 -1.625q3.46875 0 7.78125 2.390625q2.03125 1.140625 3.234375 2.578125q1.203125 1.4375 1.203125 2.9375q0 0.421875 -0.0625 0.84375q-0.125 3.640625 -3.53125 4.609375q-1.5 0.421875 -3.484375 0.421875l-8.625 -0.359375q-4.3125 0 -6.578125 1.84375q-1.328125 1.03125 -1.859375 3.0625q1.5 5.453125 7.65625 5.453125zm10.6875 -18.5q-1.34375 -0.96875 -2.78125 -1.390625q-1.4375 -0.421875 -2.390625 -0.421875q-0.953125 0 -3.109375 0.640625q-2.15625 0.625 -3.84375 1.40625q-4.125 1.90625 -4.125 4.0q4.796875 0.421875 7.1875 0.421875q6.640625 0 8.984375 -1.140625q1.4375 -0.59375 1.4375 -1.484375q0 -1.078125 -1.359375 -2.03125z" fill-rule="nonzero"/><path fill="#000000" d="m14.2148285 256.64923q0 -0.953125 -0.15625 -2.65625q-0.140625 -1.71875 -0.265625 -3.75q-0.109375 -2.03125 -0.109375 -4.125q0 -2.109375 0.359375 -3.84375q0.78125 -3.890625 3.234375 -3.890625q1.671875 0.484375 2.234375 1.203125q0.578125 0.71875 0.578125 1.765625q0 1.046875 -0.546875 2.609375q-1.96875 5.203125 -1.96875 9.390625q0 1.390625 0.171875 2.9375q0.96875 4.015625 6.59375 4.015625q2.9375 0 5.578123 -1.015625q5.031252 -1.859375 6.828127 -4.375q0.53125 -2.75 0.53125 -4.8125q0 -2.078125 -0.15625 -3.6875q-0.140625 -1.625 -0.359375 -3.5625q-0.203125 -1.953125 -0.265625 -4.28125q0.78125 -0.359375 1.53125 -0.359375q0.75 0 1.546875 0.78125q0.8125 0.765625 1.375 2.921875q0.578125 2.15625 0.75 5.0625q0.1875 2.90625 0.21875 6.03125q0.03125 3.109375 0.03125 6.015625q0 2.90625 0.234375 5.0q-0.71875 0.65625 -1.375 0.65625q-2.390625 0 -3.53125 -4.796875q-0.78125 0.65625 -2.640625 1.625q-3.953127 2.15625 -9.34375 2.875q-1.015625 0.109375 -2.28125 0.109375q-1.25 0 -3.140625 -0.46875q-1.875 -0.484375 -3.5625 -2.21875q-1.671875 -1.734375 -2.09375 -5.15625zm54.79944 -5.140625q0 -7.140625 -0.765625 -10.484375q0.46875 -0.90625 -1.4375 -0.90625q-2.046875 0 -5.28125 1.03125q-3.234375 1.015625 -5.265625 2.03125q-4.859375 2.328125 -5.390625 4.546875l0 16.296875l-4.015625 0q-0.78125 -2.046875 -0.78125 -11.4375q0 -8.390625 0.328125 -12.34375q0.328125 -3.953125 0.515625 -4.5q1.5625 -1.015625 2.515625 -1.015625q1.5 0 1.5 3.53125q0 1.390625 -0.15625 2.671875q-0.140625 1.28125 -0.140625 1.765625q9.703125 -7.125 15.03125 -7.125q6.046875 0 6.890625 9.765625q0.359375 3.40625 0.359375 9.453125l-0.0625 4.734375q0 2.640625 0.109375 5.09375q-0.59375 0.359375 -0.953125 0.359375q-0.171875 -0.0625 -0.78125 -0.1875q-0.59375 -0.109375 -1.546875 -0.171875q-0.609375 -2.390625 -0.671875 -4.875q-0.046875 -2.484375 -0.046875 -4.59375l0.046875 -3.640625zm35.648438 -34.984375q0 5.75 -0.34375 11.234375q-0.328125 5.484375 -0.59375 10.71875q-0.265625 5.234375 -0.265625 11.140625q0 5.890625 0.84375 12.484375q0 1.375 -0.515625 1.984375q-0.515625 0.59375 -1.703125 0.59375q-2.8125 0 -2.8125 -4.671875l0 -1.984375q-8.515625 6.359375 -14.375 6.359375q-2.34375 0 -4.765625 -1.140625q-2.421875 -1.140625 -4.578125 -4.609375q-0.3125 -1.4375 -0.3125 -2.9375q0 -1.5 0.5625 -3.625q0.578125 -2.125 2.34375 -4.390625q1.765625 -2.28125 4.28125 -4.03125q5.515625 -3.703125 11.921875 -3.703125q2.765625 0 5.28125 0.828125q0 -1.078125 0.140625 -3.765625q0.15625 -2.703125 0.328125 -5.6875q0.359375 -7.78125 0.484375 -9.1875q0.125 -1.421875 0.328125 -2.40625q0.203125 -0.984375 0.625 -1.703125q0.90625 -1.5 3.125 -1.5zm-25.046875 38.6875q0 4.734375 3.421875 4.734375q0.53125 0 1.1875 -0.125q2.46875 0 6.0625 -1.4375q6.828125 -2.6875 8.3125 -4.671875l0 -7.953125q0 -2.109375 -3.40625 -2.109375q-0.421875 -0.046875 -1.109375 -0.046875q-0.6875 0 -2.125 0.296875q-1.4375 0.296875 -3.234375 1.078125q-1.796875 0.78125 -3.53125 1.90625q-3.65625 2.46875 -5.03125 5.75q-0.546875 1.265625 -0.546875 2.578125zm40.364517 5.21875q5.28125 0 15.875 -4.796875q0.65625 0 1.078125 0.453125q0.421875 0.453125 0.421875 1.046875q-2.390625 4.078125 -9.171875 6.359375q-6.765625 2.265625 -12.625 0.765625q-6.65625 -1.734375 -8.09375 -7.484375q-0.109375 -1.140625 -0.109375 -3.046875q0 -1.921875 0.984375 -5.0625q0.984375 -3.15625 3.375 -5.96875q2.40625 -2.8125 5.640625 -4.421875q3.234375 -1.625 6.890625 -1.625q3.46875 0 7.78125 2.390625q2.03125 1.140625 3.234375 2.578125q1.203125 1.4375 1.203125 2.9375q0 0.421875 -0.0625 0.84375q-0.125 3.640625 -3.53125 4.609375q-1.5 0.421875 -3.484375 0.421875l-8.625 -0.359375q-4.3125 0 -6.578125 1.84375q-1.328125 1.03125 -1.859375 3.0625q1.5 5.453125 7.65625 5.453125zm10.6875 -18.5q-1.34375 -0.96875 -2.78125 -1.390625q-1.4375 -0.421875 -2.390625 -0.421875q-0.953125 0 -3.109375 0.640625q-2.15625 0.625 -3.84375 1.40625q-4.125 1.90625 -4.125 4.0q4.796875 0.421875 7.1875 0.421875q6.640625 0 8.984375 -1.140625q1.4375 -0.59375 1.4375 -1.484375q0 -1.078125 -1.359375 -2.03125zm39.679474 0.828125q-2.5 -1.796875 -6.453125 -1.796875q-3.71875 0 -6.890625 1.375q-6.0 2.515625 -8.203125 6.46875q-0.96875 1.796875 -0.96875 3.828125q0 0.359375 0 2.015625q0 1.640625 0.59375 4.4375q0.609375 2.78125 0.609375 5.65625q-1.265625 0.046875 -2.046875 0.28125q-0.765625 0.25 -1.3125 0.25q-0.53125 0 -0.921875 -0.484375q-0.390625 -0.46875 -0.875 -1.84375q-0.0625 -0.359375 -0.25 -2.03125q-0.171875 -1.6875 -0.4375 -4.078125q-0.265625 -2.40625 -0.59375 -5.25q-0.328125 -2.84375 -0.625 -5.59375q-0.671875 -5.984375 -1.03125 -8.8125q0 -1.4375 2.109375 -1.4375q1.25 0 1.96875 1.0625q0.71875 1.046875 1.140625 2.390625q0.421875 1.34375 0.5625 2.671875q0.15625 1.3125 0.28125 1.84375q7.90625 -7.0625 19.640625 -7.0625q1.3125 0 2.75 0.0625q0.359375 -0.0625 0.890625 -0.0625q0.546875 0 1.09375 0.71875q0.65625 0.84375 0.65625 2.03125q0 3.0 -1.6875 3.359375zm24.916397 6.40625q6.59375 0 6.59375 3.359375q0 2.515625 -3.65625 5.859375q-5.453125 4.984375 -14.671875 7.96875q-0.421875 0 -0.9375 -0.84375q-0.5 -0.828125 -0.765625 -1.28125q-0.265625 -0.453125 -0.390625 -0.5625q6.890625 -2.28125 11.3125 -5.515625q3.0 -2.15625 3.0 -3.53125q0 -1.375 -3.53125 -1.375q-3.53125 0 -10.359375 1.671875q-3.125 -0.125 -5.390625 -2.21875q-1.984375 -1.859375 -1.984375 -3.734375q0 -1.890625 1.078125 -3.46875q1.078125 -1.59375 2.875 -2.96875q1.796875 -1.390625 4.203125 -2.515625q5.859375 -2.828125 12.15625 -2.828125q1.859375 0 3.59375 0.359375q1.4375 0 1.671875 1.265625q0.234375 1.25 0.234375 4.125q-3.53125 -1.609375 -7.953125 -1.609375q-5.515625 0 -9.109375 2.21875q-3.71875 2.15625 -3.828125 5.625q0 1.671875 2.453125 1.671875l4.375 -0.46875q5.625 -1.203125 9.03125 -1.203125zm19.346344 9.703125l0.125 -9.578125q0 -2.28125 -0.421875 -3.890625l-9.28125 0l-0.125 -4.140625l8.984375 0l0 -15.453125q0.1875 -0.53125 0.71875 -1.078125q0.84375 -0.828125 1.40625 -0.828125q0.578125 0 0.984375 0.125q0.421875 0.109375 0.90625 0.828125q0.953125 3.953125 0.953125 11.921875q0 1.96875 0.1875 3.890625q1.921875 -0.25 3.828125 -0.25q0 0 3.125 0q1.125 0 2.09375 -0.109375l-0.1875 4.3125l-8.734375 -0.25l0.296875 20.671875q-1.078125 0.46875 -1.859375 0.46875q-3.0 0 -3.0 -6.640625zm39.29477 -4.1875q-4.5 7.0625 -11.984375 8.734375q-1.734375 0.359375 -3.140625 0.359375q-1.40625 0 -2.34375 -0.015625q-0.921875 -0.03125 -2.0625 -0.265625q-1.140625 -0.25 -2.09375 -0.796875q-2.21875 -1.25 -2.21875 -3.53125q-0.234375 -1.078125 -0.234375 -2.421875q0 -1.34375 0.59375 -3.5625q0.609375 -2.21875 2.1875 -4.796875q1.59375 -2.578125 3.859375 -4.734375q4.734375 -4.546875 10.25 -5.859375q1.609375 -0.359375 2.953125 -0.359375q1.359375 0 2.4375 0.171875q3.46875 0 4.6718903 4.734375q0.78125 3.0 0.921875 8.359375q0.15625 5.359375 0.296875 8.265625q0.15625 2.90625 0.75 5.296875l-3.5312653 0q-0.234375 -1.609375 -0.359375 -2.859375q-0.109375 -1.265625 -0.234375 -2.34375q-0.296875 -2.515625 -0.71875 -4.375zm-0.234375 -9.28125q0 -3.484375 -3.421875 -3.484375q-0.421875 -0.0625 -0.84375 -0.0625q-4.359375 0 -9.21875 4.203125q-2.28125 1.90625 -3.890625 4.3125q-2.390625 3.40625 -2.390625 6.109375q0 3.53125 4.0625 4.1875q5.390625 -0.125 10.3125 -4.90625q2.09375 -2.09375 3.46875 -4.5625q1.921875 -3.28125 1.921875 -5.796875zm31.249954 6.109375q0 -7.140625 -0.765625 -10.484375q0.46875 -0.90625 -1.4375 -0.90625q-2.046875 0 -5.28125 1.03125q-3.234375 1.015625 -5.265625 2.03125q-4.859375 2.328125 -5.390625 4.546875l0 16.296875l-4.015625 0q-0.78125 -2.046875 -0.78125 -11.4375q0 -8.390625 0.328125 -12.34375q0.328125 -3.953125 0.515625 -4.5q1.5625 -1.015625 2.515625 -1.015625q1.5 0 1.5 3.53125q0 1.390625 -0.15625 2.671875q-0.140625 1.28125 -0.140625 1.765625q9.703125 -7.125 15.03125 -7.125q6.046875 0 6.890625 9.765625q0.359375 3.40625 0.359375 9.453125l-0.0625 4.734375q0 2.640625 0.109375 5.09375q-0.59375 0.359375 -0.953125 0.359375q-0.171875 -0.0625 -0.78125 -0.1875q-0.59375 -0.109375 -1.546875 -0.171875q-0.609375 -2.390625 -0.671875 -4.875q-0.046875 -2.484375 -0.046875 -4.59375l0.046875 -3.640625zm35.648407 -34.984375q0 5.75 -0.34375 11.234375q-0.328125 5.484375 -0.59375 10.71875q-0.265625 5.234375 -0.265625 11.140625q0 5.890625 0.84375 12.484375q0 1.375 -0.515625 1.984375q-0.515625 0.59375 -1.703125 0.59375q-2.8125 0 -2.8125 -4.671875l0 -1.984375q-8.515625 6.359375 -14.375 6.359375q-2.34375 0 -4.765625 -1.140625q-2.421875 -1.140625 -4.578125 -4.609375q-0.3125 -1.4375 -0.3125 -2.9375q0 -1.5 0.5625 -3.625q0.578125 -2.125 2.34375 -4.390625q1.765625 -2.28125 4.28125 -4.03125q5.515625 -3.703125 11.921875 -3.703125q2.765625 0 5.28125 0.828125q0 -1.078125 0.140625 -3.765625q0.15625 -2.703125 0.328125 -5.6875q0.359375 -7.78125 0.484375 -9.1875q0.125 -1.421875 0.328125 -2.40625q0.203125 -0.984375 0.625 -1.703125q0.90625 -1.5 3.125 -1.5zm-25.046875 38.6875q0 4.734375 3.421875 4.734375q0.53125 0 1.1875 -0.125q2.46875 0 6.0625 -1.4375q6.828125 -2.6875 8.3125 -4.671875l0 -7.953125q0 -2.109375 -3.40625 -2.109375q-0.421875 -0.046875 -1.109375 -0.046875q-0.6875 0 -2.125 0.296875q-1.4375 0.296875 -3.234375 1.078125q-1.796875 0.78125 -3.53125 1.90625q-3.65625 2.46875 -5.03125 5.75q-0.546875 1.265625 -0.546875 2.578125zm51.692627 -0.53125q-4.5 7.0625 -11.984375 8.734375q-1.734375 0.359375 -3.140625 0.359375q-1.40625 0 -2.34375 -0.015625q-0.921875 -0.03125 -2.0625 -0.265625q-1.140625 -0.25 -2.09375 -0.796875q-2.21875 -1.25 -2.21875 -3.53125q-0.234375 -1.078125 -0.234375 -2.421875q0 -1.34375 0.59375 -3.5625q0.609375 -2.21875 2.1875 -4.796875q1.59375 -2.578125 3.859375 -4.734375q4.734375 -4.546875 10.25 -5.859375q1.609375 -0.359375 2.953125 -0.359375q1.359375 0 2.4375 0.171875q3.46875 0 4.671875 4.734375q0.78125 3.0 0.921875 8.359375q0.15625 5.359375 0.296875 8.265625q0.15625 2.90625 0.75 5.296875l-3.53125 0q-0.234375 -1.609375 -0.359375 -2.859375q-0.109375 -1.265625 -0.234375 -2.34375q-0.296875 -2.515625 -0.71875 -4.375zm-0.234375 -9.28125q0 -3.484375 -3.421875 -3.484375q-0.421875 -0.0625 -0.84375 -0.0625q-4.359375 0 -9.21875 4.203125q-2.28125 1.90625 -3.890625 4.3125q-2.390625 3.40625 -2.390625 6.109375q0 3.53125 4.0625 4.1875q5.390625 -0.125 10.3125 -4.90625q2.09375 -2.09375 3.46875 -4.5625q1.921875 -3.28125 1.921875 -5.796875zm8.249939 -15.515625l-0.171875 -7.734375q0 -0.953125 0.65625 -1.484375q0.65625 -0.546875 1.609375 -0.546875q0.96875 0 1.75 0.515625q0.78125 0.5 0.59375 1.40625l0.421875 25.875q3.765625 -5.03125 10.1875 -8.453125q5.328125 -2.875 9.34375 -2.875q3.53125 0 5.4375 2.28125q1.4375 1.796875 1.4375 4.765625q0 2.953125 -1.109375 5.140625q-1.109375 2.1875 -2.90625 4.203125q-1.78125 2.0 -4.125 3.734375q-2.328125 1.734375 -4.734375 3.109375q-4.546875 2.640625 -8.984375 4.375q-0.359375 -0.109375 -1.203125 -0.046875q-0.828125 0.046875 -2.03125 0.046875q-3.234375 0 -5.6875 -0.78125q-0.59375 -5.6875 -0.59375 -17.296875l0.109375 -16.234375zm5.03125 29.40625q0 0.65625 1.234375 0.65625q1.234375 0 3.03125 -0.46875q1.796875 -0.484375 4.328125 -1.65625q2.546875 -1.171875 5.125 -3.03125q6.0 -4.25 9.046875 -10.0q-0.78125 -3.40625 -4.671875 -3.40625q-3.53125 0 -7.96875 2.625q-6.28125 3.78125 -8.984375 9.34375q-1.140625 2.21875 -1.140625 4.5q0 0.59375 0 0.953125q0 0.359375 0 0.484375zm30.124695 -17.90625q-0.109375 -3.234375 -0.234375 -5.78125q-0.125 -2.546875 -0.15625 -3.765625q-0.015625 -1.234375 -0.984375 -6.03125q0.546875 -0.71875 1.046875 -1.375q0.515625 -0.65625 1.46875 -0.65625q2.09375 0 3.234375 17.671875q0.609375 10.234375 0.609375 20.484375q0 2.75 -3.84375 2.75l-0.46875 -0.0625q0 -3.109375 -0.1875 -7.953125q-0.171875 -4.859375 -0.265625 -8.453125q-0.09375 -3.59375 -0.21875 -6.828125zm20.78302 19.046875q5.28125 0 15.875 -4.796875q0.65625 0 1.078125 0.453125q0.421875 0.453125 0.421875 1.046875q-2.390625 4.078125 -9.171875 6.359375q-6.765625 2.265625 -12.625 0.765625q-6.65625 -1.734375 -8.09375 -7.484375q-0.109375 -1.140625 -0.109375 -3.046875q0 -1.921875 0.984375 -5.0625q0.984375 -3.15625 3.375 -5.96875q2.40625 -2.8125 5.640625 -4.421875q3.234375 -1.625 6.890625 -1.625q3.46875 0 7.78125 2.390625q2.03125 1.140625 3.234375 2.578125q1.203125 1.4375 1.203125 2.9375q0 0.421875 -0.0625 0.84375q-0.125 3.640625 -3.53125 4.609375q-1.5 0.421875 -3.484375 0.421875l-8.625 -0.359375q-4.3125 0 -6.578125 1.84375q-1.328125 1.03125 -1.859375 3.0625q1.5 5.453125 7.65625 5.453125zm10.6875 -18.5q-1.34375 -0.96875 -2.78125 -1.390625q-1.4375 -0.421875 -2.390625 -0.421875q-0.953125 0 -3.109375 0.640625q-2.15625 0.625 -3.84375 1.40625q-4.125 1.90625 -4.125 4.0q4.796875 0.421875 7.1875 0.421875q6.640625 0 8.984375 -1.140625q1.4375 -0.59375 1.4375 -1.484375q0 -1.078125 -1.359375 -2.03125z" fill-rule="nonzero"/><path fill="#000000" d="m34.99608 333.80484q6.59375 0 6.59375 3.359375q0 2.515625 -3.65625 5.859375q-5.453125 4.984375 -14.671875 7.96875q-0.421875 0 -0.9375 -0.84375q-0.5 -0.828125 -0.765625 -1.28125q-0.265625 -0.453125 -0.390625 -0.5625q6.890625 -2.28125 11.3125 -5.515625q3.0 -2.15625 3.0 -3.53125q0 -1.375 -3.531252 -1.375q-3.531248 0 -10.359373 1.671875q-3.125 -0.125 -5.390625 -2.21875q-1.984375 -1.859375 -1.984375 -3.734375q0 -1.890625 1.078125 -3.46875q1.078125 -1.59375 2.875 -2.96875q1.796875 -1.390625 4.203125 -2.515625q5.859375 -2.828125 12.15625 -2.828125q1.859375 0 3.59375 0.359375q1.4375 0 1.671875 1.265625q0.234375 1.25 0.234375 4.125q-3.53125 -1.609375 -7.953125 -1.609375q-5.515625 0 -9.109375 2.21875q-3.71875 2.15625 -3.828125 5.625q0 1.671875 2.453125 1.671875l4.375 -0.46875q5.624998 -1.203125 9.03125 -1.203125zm19.346344 9.703125l0.125 -9.578125q0 -2.28125 -0.421875 -3.890625l-9.28125 0l-0.125 -4.140625l8.984375 0l0 -15.453125q0.1875 -0.53125 0.71875 -1.078125q0.84375 -0.828125 1.40625 -0.828125q0.578125 0 0.984375 0.125q0.421875 0.109375 0.90625 0.828125q0.953125 3.953125 0.953125 11.921875q0 1.96875 0.1875 3.890625q1.921875 -0.25 3.828125 -0.25q0 0 3.125 0q1.125 0 2.09375 -0.109375l-0.1875 4.3125l-8.734375 -0.25l0.296875 20.671875q-1.078125 0.46875 -1.859375 0.46875q-3.0 0 -3.0 -6.640625zm15.451019 -2.21875q0 -0.953125 -0.15625 -2.65625q-0.140625 -1.71875 -0.265625 -3.75q-0.109375 -2.03125 -0.109375 -4.125q0 -2.109375 0.359375 -3.84375q0.78125 -3.890625 3.234375 -3.890625q1.671875 0.484375 2.234375 1.203125q0.578125 0.71875 0.578125 1.765625q0 1.046875 -0.546875 2.609375q-1.96875 5.203125 -1.96875 9.390625q0 1.390625 0.171875 2.9375q0.96875 4.015625 6.59375 4.015625q2.9375 0 5.578125 -1.015625q5.03125 -1.859375 6.828125 -4.375q0.53125 -2.75 0.53125 -4.8125q0 -2.078125 -0.15625 -3.6875q-0.140625 -1.625 -0.359375 -3.5625q-0.203125 -1.953125 -0.265625 -4.28125q0.78125 -0.359375 1.53125 -0.359375q0.75 0 1.546875 0.78125q0.8125 0.765625 1.375 2.921875q0.578125 2.15625 0.75 5.0625q0.1875 2.90625 0.21875 6.03125q0.03125 3.109375 0.03125 6.015625q0 2.90625 0.234375 5.0q-0.71875 0.65625 -1.375 0.65625q-2.390625 0 -3.53125 -4.796875q-0.78125 0.65625 -2.640625 1.625q-3.953125 2.15625 -9.34375 2.875q-1.015625 0.109375 -2.28125 0.109375q-1.25 0 -3.140625 -0.46875q-1.875 -0.484375 -3.5625 -2.21875q-1.671875 -1.734375 -2.09375 -5.15625zm65.83069 -12.03125q0.296875 0 0.296875 1.625q0 1.609375 0.109375 2.203125l-20.53125 2.515625l1.078125 13.296875l-4.859375 -0.234375q0 -5.390625 -1.1875 -12.34375l-7.796875 3.0q-0.78125 0 -1.3125 -0.90625q-0.953125 -1.546875 -0.953125 -2.8125l9.09375 -3.234375q-1.1875 -10.296875 -1.1875 -16.734375q0 -6.4375 1.078125 -10.03125q1.078125 -3.59375 3.140625 -4.8125q2.0625 -1.234375 4.390625 -1.234375q2.34375 0 4.765625 1.015625q2.4375 1.015625 4.640625 2.578125q2.21875 1.546875 3.765625 3.5q1.5625 1.9375 1.5625 3.796875q0 1.4375 -0.296875 2.046875q-2.390625 -3.359375 -5.796875 -6.0q-4.078125 -3.109375 -7.671875 -3.109375q-3.421875 0 -4.546875 4.84375q-0.546875 2.515625 -0.546875 7.109375q0 4.578125 0.234375 8.390625q0.25 3.796875 1.4375 7.625q3.71875 0 8.328125 -0.65625q8.859375 -1.375 12.765625 -1.4375zm36.413574 0q0.296875 0 0.296875 1.625q0 1.609375 0.109375 2.203125l-20.53125 2.515625l1.078125 13.296875l-4.859375 -0.234375q0 -5.390625 -1.1875 -12.34375l-7.796875 3.0q-0.78125 0 -1.3125 -0.90625q-0.953125 -1.546875 -0.953125 -2.8125l9.09375 -3.234375q-1.1875 -10.296875 -1.1875 -16.734375q0 -6.4375 1.078125 -10.03125q1.078125 -3.59375 3.140625 -4.8125q2.0625 -1.234375 4.390625 -1.234375q2.34375 0 4.765625 1.015625q2.4375 1.015625 4.640625 2.578125q2.21875 1.546875 3.765625 3.5q1.5625 1.9375 1.5625 3.796875q0 1.4375 -0.296875 2.046875q-2.390625 -3.359375 -5.796875 -6.0q-4.078125 -3.109375 -7.671875 -3.109375q-3.421875 0 -4.546875 4.84375q-0.546875 2.515625 -0.546875 7.109375q0 4.578125 0.234375 8.390625q0.25 3.796875 1.4375 7.625q3.71875 0 8.328125 -0.65625q8.859375 -1.375 12.765625 -1.4375z" fill-rule="nonzero"/><path fill="#000000" d="m159.71121 413.61295q-0.09375 -0.21875 -0.109375 -0.53125q-0.015625 -0.3125 0.0625 -0.59375q0.078125 -0.28125 0.265625 -0.515625q0.1875 -0.234375 0.5 -0.328125q0.3125 -0.0625 1.28125 -0.09375q0.96875 -0.03125 2.328125 -0.03125q1.359375 0 3.015625 0.03125q1.65625 0.03125 3.328125 0.09375q1.671875 0.0625 3.28125 0.125q1.609375 0.0625 2.859375 0.140625q1.25 0.078125 2.0625 0.15625q0.8125 0.078125 0.90625 0.140625q0.5 0.3125 0.375 0.71875q-0.125 0.40625 -0.546875 0.703125q-0.421875 0.296875 -0.953125 0.421875q-0.53125 0.125 -0.84375 -0.125q-1.5625 -0.03125 -3.875 0q-2.3125 0.03125 -4.78125 0.078125q-2.46875 0.046875 -4.78125 0.03125q-2.3125 -0.015625 -3.90625 -0.171875q-0.0625 0 -0.25 -0.09375q-0.1875 -0.09375 -0.21875 -0.15625z" fill-rule="nonzero"/><path fill="#000000" d="m181.36746 421.73795l0 0z" fill-rule="nonzero"/><path fill="#000000" d="m196.86746 421.48795q-0.625 -0.15625 -1.46875 -0.6875q-0.84375 -0.53125 -1.671875 -1.28125q-0.828125 -0.75 -1.53125 -1.640625q-0.703125 -0.890625 -1.046875 -1.78125q-0.34375 -0.890625 -0.203125 -1.734375q0.140625 -0.84375 0.984375 -1.5q0.125 -0.09375 0.515625 -0.25q0.390625 -0.15625 0.78125 -0.21875q0.390625 -0.0625 0.625 0.09375q0.234375 0.15625 0.078125 0.65625q-1.09375 0.46875 -1.375 1.21875q-0.28125 0.75 0.015625 1.59375q0.296875 0.84375 1.03125 1.6875q0.734375 0.84375 1.671875 1.515625q0.9375 0.671875 1.953125 1.109375q1.015625 0.4375 1.890625 0.4375q0.875 0 1.484375 -0.484375q0.609375 -0.484375 0.703125 -1.671875q0.09375 -1.53125 -0.203125 -2.96875q-0.296875 -1.4375 -1.265625 -2.71875q-0.8125 -1.03125 -1.671875 -1.6875q-0.859375 -0.65625 -1.71875 -1.15625q-0.859375 -0.5 -1.71875 -0.9375q-0.859375 -0.4375 -1.65625 -1.015625q-0.796875 -0.578125 -1.484375 -1.375q-0.6875 -0.796875 -1.25 -2.015625q-0.71875 -1.59375 -0.421875 -2.984375q0.296875 -1.390625 1.25 -2.375q0.953125 -0.984375 2.375 -1.46875q1.421875 -0.484375 2.953125 -0.296875q0.9375 0.125 1.71875 0.71875q0.78125 0.59375 1.296875 1.390625q0.515625 0.796875 0.703125 1.671875q0.1875 0.875 -0.0625 1.546875q-0.25 0.671875 -1.015625 1.0q-0.765625 0.328125 -2.140625 0.078125q-0.15625 -0.53125 0.125 -0.8125q0.28125 -0.28125 0.65625 -0.515625q0.375 -0.234375 0.6875 -0.46875q0.3125 -0.234375 0.25 -0.671875q-0.25 -1.53125 -1.15625 -2.203125q-0.90625 -0.671875 -2.015625 -0.65625q-1.109375 0.015625 -2.171875 0.625q-1.0625 0.609375 -1.640625 1.640625q-0.578125 1.03125 -0.421875 2.390625q0.15625 1.359375 1.5 2.890625q1.0 1.15625 1.90625 1.734375q0.90625 0.578125 1.796875 1.03125q0.890625 0.453125 1.828125 1.015625q0.9375 0.5625 1.96875 1.6875q0.875 0.96875 1.46875 2.203125q0.59375 1.234375 0.796875 2.5q0.203125 1.265625 0 2.40625q-0.203125 1.140625 -0.875 1.921875q-0.671875 0.78125 -1.859375 1.046875q-1.1875 0.265625 -2.96875 -0.234375zm11.5625 0q0 -0.59375 0.046875 -1.59375q0.046875 -1.0 0.078125 -2.1875q0.03125 -1.1875 0.03125 -2.4375q0 -1.25 -0.0625 -2.34375q-0.0625 -1.09375 -0.203125 -1.90625q-0.140625 -0.8125 -0.390625 -1.09375q-1.96875 0.15625 -3.0 -0.03125q-1.03125 -0.1875 -1.046875 -0.5q-0.015625 -0.3125 1.046875 -0.671875q1.0625 -0.359375 3.28125 -0.515625q0 -0.375 0.015625 -1.328125q0.015625 -0.953125 0.015625 -2.015625q0 -1.0625 -0.015625 -2.0q-0.015625 -0.9375 -0.015625 -1.3125q-0.03125 -0.21875 -0.09375 -0.59375q-0.0625 -0.375 -0.125 -0.796875q-0.0625 -0.421875 -0.09375 -0.84375q-0.03125 -0.421875 0.03125 -0.703125q0.0625 -0.375 0.328125 -0.515625q0.265625 -0.140625 0.546875 -0.125q0.28125 0.015625 0.515625 0.1875q0.234375 0.171875 0.234375 0.453125l0 9.34375q0 0.3125 0.78125 0.296875q0.78125 -0.015625 1.90625 -0.140625q1.125 -0.125 2.359375 -0.265625q1.234375 -0.140625 2.125 -0.078125q0.890625 0.0625 1.203125 0.421875q0.3125 0.359375 -0.375 1.234375q-0.0625 0.0625 -0.25 0.15625q-0.1875 0.09375 -0.25 0.09375q-1.6875 -0.0625 -3.5625 -0.03125q-1.875 0.03125 -3.5625 0.28125q-0.5625 0.09375 -0.609375 1.046875q-0.046875 0.953125 0.15625 2.328125q0.203125 1.375 0.46875 2.921875q0.265625 1.546875 0.328125 2.828125q0.0625 1.28125 -0.265625 2.078125q-0.328125 0.796875 -1.328125 0.609375q-0.0625 0 -0.15625 -0.09375q-0.09375 -0.09375 -0.09375 -0.15625zm25.875 0q-0.75 -0.21875 -1.375 -0.796875q-0.625 -0.578125 -1.125 -1.375q-0.5 -0.796875 -0.875 -1.71875q-0.375 -0.921875 -0.671875 -1.84375q-0.296875 -0.921875 -0.515625 -1.734375q-0.21875 -0.8125 -0.375 -1.40625l-0.25 0q-0.375 0.8125 -1.140625 1.953125q-0.765625 1.140625 -1.703125 2.203125q-0.9375 1.0625 -1.984375 1.84375q-1.046875 0.78125 -1.984375 0.921875q-0.9375 0.140625 -1.6875 -0.5625q-0.75 -0.703125 -1.09375 -2.640625q-0.15625 -2.96875 -0.21875 -5.90625q-0.0625 -2.9375 0 -5.90625q0.09375 -0.125 0.328125 -0.3125q0.234375 -0.1875 0.484375 -0.25q0.25 -0.0625 0.453125 0.078125q0.203125 0.140625 0.203125 0.703125l0 10.34375q0 0.28125 0.078125 0.65625q0.078125 0.375 0.25 0.734375q0.171875 0.359375 0.390625 0.65625q0.21875 0.296875 0.5 0.421875q1.125 0.46875 2.03125 -0.015625q0.90625 -0.484375 1.640625 -1.546875q0.734375 -1.0625 1.34375 -2.515625q0.609375 -1.453125 1.109375 -2.859375q0.5 -1.40625 0.921875 -2.609375q0.421875 -1.203125 0.828125 -1.796875q0.0625 0.03125 0.140625 0.140625q0.078125 0.109375 0.109375 0.140625q0.09375 0.125 0.375 0.484375q0.28125 0.359375 0.34375 0.484375q0 0.5625 0.015625 1.546875q0.015625 0.984375 0.109375 2.15625q0.09375 1.171875 0.28125 2.4375q0.1875 1.265625 0.515625 2.421875q0.328125 1.15625 0.84375 2.078125q0.515625 0.921875 1.25 1.40625q0.734375 0.484375 1.71875 0.4375q0.984375 -0.046875 2.296875 -0.859375q0.65625 -0.40625 0.78125 -0.75q0.125 -0.34375 0.09375 -0.703125q-0.03125 -0.359375 -0.046875 -0.734375q-0.015625 -0.375 0.421875 -0.90625q0.78125 -0.25 1.1875 0.1875q0.40625 0.4375 0.453125 1.21875q0.046875 0.78125 -0.3125 1.703125q-0.359375 0.921875 -1.15625 1.609375q-0.796875 0.6875 -2.03125 0.984375q-1.234375 0.296875 -2.953125 -0.203125zm6.5625 -0.90625q-0.625 -0.625 -1.0 -1.90625q-0.375 -1.28125 -0.515625 -2.90625q-0.140625 -1.625 -0.046875 -3.453125q0.09375 -1.828125 0.421875 -3.5625q0.328125 -1.734375 0.875 -3.234375q0.546875 -1.5 1.34375 -2.484375q0.796875 -0.984375 1.8125 -1.28125q1.015625 -0.296875 2.265625 0.359375q0.4375 0.25 0.921875 0.84375q0.484375 0.59375 0.921875 1.328125q0.4375 0.734375 0.765625 1.46875q0.328125 0.734375 0.484375 1.234375q0.03125 0.15625 0.015625 0.953125q-0.015625 0.796875 -0.046875 1.921875q-0.03125 1.125 0.015625 2.484375q0.046875 1.359375 0.21875 2.65625q0.171875 1.296875 0.546875 2.40625q0.375 1.109375 1.0 1.75q0.625 0.640625 1.578125 0.6875q0.953125 0.046875 2.328125 -0.765625q0.5 -0.4375 0.59375 -0.859375q0.09375 -0.421875 0.09375 -0.71875q0 -0.296875 0.0625 -0.390625q0.0625 -0.09375 0.5625 0.15625q0.625 0.8125 0.421875 1.734375q-0.203125 0.921875 -0.90625 1.625q-0.703125 0.703125 -1.765625 1.0q-1.0625 0.296875 -2.171875 -0.140625q-1.109375 -0.4375 -2.109375 -1.78125q-1.0 -1.34375 -1.59375 -3.90625q-0.1875 0.53125 -0.578125 1.3125q-0.390625 0.78125 -0.921875 1.5625q-0.53125 0.78125 -1.203125 1.46875q-0.671875 0.6875 -1.390625 1.03125q-0.71875 0.34375 -1.484375 0.265625q-0.765625 -0.078125 -1.515625 -0.859375zm0.28125 -1.96875q0.53125 1.125 1.25 1.21875q0.71875 0.09375 1.46875 -0.5625q0.75 -0.65625 1.484375 -1.90625q0.734375 -1.25 1.25 -2.828125q0.515625 -1.578125 0.78125 -3.3125q0.265625 -1.734375 0.09375 -3.328125q-0.171875 -1.59375 -0.828125 -2.90625q-0.65625 -1.3125 -2.0 -2.0625q-0.03125 -0.03125 -0.109375 -0.03125q-0.078125 0 -0.140625 0q-0.96875 0.4375 -1.6875 1.5q-0.71875 1.0625 -1.234375 2.5q-0.515625 1.4375 -0.796875 3.09375q-0.28125 1.65625 -0.3125 3.25q-0.03125 1.59375 0.15625 3.015625q0.1875 1.421875 0.625 2.359375zm24.96875 2.28125q-1.25 -0.71875 -1.953125 -1.453125q-0.703125 -0.734375 -1.328125 -1.4375q-0.625 -0.703125 -1.4375 -1.34375q-0.8125 -0.640625 -2.25 -1.140625q-0.21875 0.625 -0.34375 1.46875q-0.125 0.84375 -0.203125 1.703125q-0.078125 0.859375 -0.125 1.625q-0.046875 0.765625 -0.109375 1.171875q-0.40625 0.5 -0.78125 0.4375q-0.375 -0.0625 -0.671875 -0.390625q-0.296875 -0.328125 -0.5 -0.78125q-0.203125 -0.453125 -0.234375 -0.703125q0.71875 -1.6875 0.984375 -3.40625q0.265625 -1.71875 0.25 -3.53125q-0.015625 -1.8125 -0.203125 -3.75q-0.1875 -1.9375 -0.3125 -4.0625q0.15625 -0.25 0.421875 -0.40625q0.265625 -0.15625 0.578125 -0.03125q0.40625 -0.46875 1.0625 -1.046875q0.65625 -0.578125 1.421875 -1.0625q0.765625 -0.484375 1.59375 -0.796875q0.828125 -0.3125 1.546875 -0.265625q0.71875 0.046875 1.265625 0.546875q0.546875 0.5 0.796875 1.625q0.25 1.625 -0.09375 3.03125q-0.34375 1.40625 -1.109375 2.671875q-0.765625 1.265625 -1.921875 2.375q-1.15625 1.109375 -2.5625 2.140625q-0.09375 0.1875 0.078125 0.359375q0.171875 0.171875 0.4375 0.3125q0.265625 0.140625 0.546875 0.234375q0.28125 0.09375 0.40625 0.125q0.625 0.4375 1.375 1.171875q0.75 0.734375 1.578125 1.5q0.828125 0.765625 1.6875 1.390625q0.859375 0.625 1.703125 0.796875q0.84375 0.171875 1.640625 -0.234375q0.796875 -0.40625 1.515625 -1.71875l0.5 0q0.125 0.9375 -0.296875 1.734375q-0.421875 0.796875 -1.1875 1.234375q-0.765625 0.4375 -1.765625 0.46875q-1.0 0.03125 -2.0 -0.5625zm-7.21875 -10.28125q0.03125 0.125 0.0625 0.453125q0.03125 0.328125 0.078125 0.6875q0.046875 0.359375 0.078125 0.671875q0.03125 0.3125 0.03125 0.4375q1.34375 -0.53125 2.34375 -1.65625q1.0 -1.125 1.625 -2.421875q0.625 -1.296875 0.828125 -2.59375q0.203125 -1.296875 -0.015625 -2.140625q-0.21875 -0.84375 -0.921875 -1.046875q-0.703125 -0.203125 -1.890625 0.640625q-1.125 0.8125 -1.640625 1.578125q-0.515625 0.765625 -0.6875 1.59375q-0.171875 0.828125 -0.078125 1.75q0.09375 0.921875 0.1875 2.046875zm15.625 10.875q0 -0.59375 0.046875 -1.59375q0.046875 -1.0 0.078125 -2.1875q0.03125 -1.1875 0.03125 -2.4375q0 -1.25 -0.0625 -2.34375q-0.0625 -1.09375 -0.203125 -1.90625q-0.140625 -0.8125 -0.390625 -1.09375q-1.96875 0.15625 -3.0 -0.03125q-1.03125 -0.1875 -1.046875 -0.5q-0.015625 -0.3125 1.046875 -0.671875q1.0625 -0.359375 3.28125 -0.515625q0 -0.375 0.015625 -1.328125q0.015625 -0.953125 0.015625 -2.015625q0 -1.0625 -0.015625 -2.0q-0.015625 -0.9375 -0.015625 -1.3125q-0.03125 -0.21875 -0.09375 -0.59375q-0.0625 -0.375 -0.125 -0.796875q-0.0625 -0.421875 -0.09375 -0.84375q-0.03125 -0.421875 0.03125 -0.703125q0.0625 -0.375 0.328125 -0.515625q0.265625 -0.140625 0.546875 -0.125q0.28125 0.015625 0.515625 0.1875q0.234375 0.171875 0.234375 0.453125l0 9.34375q0 0.3125 0.78125 0.296875q0.78125 -0.015625 1.90625 -0.140625q1.125 -0.125 2.359375 -0.265625q1.234375 -0.140625 2.125 -0.078125q0.890625 0.0625 1.203125 0.421875q0.3125 0.359375 -0.375 1.234375q-0.0625 0.0625 -0.25 0.15625q-0.1875 0.09375 -0.25 0.09375q-1.6875 -0.0625 -3.5625 -0.03125q-1.875 0.03125 -3.5625 0.28125q-0.5625 0.09375 -0.609375 1.046875q-0.046875 0.953125 0.15625 2.328125q0.203125 1.375 0.46875 2.921875q0.265625 1.546875 0.328125 2.828125q0.0625 1.28125 -0.265625 2.078125q-0.328125 0.796875 -1.328125 0.609375q-0.0625 0 -0.15625 -0.09375q-0.09375 -0.09375 -0.09375 -0.15625zm30.28125 0q-0.0625 -0.03125 -0.25 -0.21875q-0.1875 -0.1875 -0.21875 -0.28125q-0.15625 -2.09375 0.09375 -4.265625q0.25 -2.171875 0.515625 -4.359375q0.265625 -2.1875 0.328125 -4.34375q0.0625 -2.15625 -0.46875 -4.25l-0.25 -0.96875l-2.9375 0q-0.28125 0 -0.375 -0.234375q-0.09375 -0.234375 -0.09375 -0.53125q0 -0.296875 0.078125 -0.578125q0.078125 -0.28125 0.140625 -0.40625q0.0625 -0.0625 0.140625 -0.15625q0.078125 -0.09375 0.109375 -0.09375l2.9375 0l0 -1.71875q0 -0.5625 0.265625 -0.421875q0.265625 0.140625 0.578125 0.53125q0.3125 0.390625 0.59375 0.84375q0.28125 0.453125 0.28125 0.515625q1.6875 0.25 3.359375 0.265625q1.671875 0.015625 3.328125 -0.125q1.65625 -0.140625 3.3125 -0.375q1.65625 -0.234375 3.3125 -0.484375q0.1875 -0.03125 0.484375 0.125q0.296875 0.15625 0.53125 0.390625q0.234375 0.234375 0.328125 0.5q0.09375 0.265625 -0.125 0.484375q-0.5625 0.5625 -1.625 0.8125q-1.0625 0.25 -2.40625 0.3125q-1.34375 0.0625 -2.859375 0.03125q-1.515625 -0.03125 -2.9375 -0.0625q-1.421875 -0.03125 -2.65625 0.03125q-1.234375 0.0625 -2.046875 0.34375q0.0625 2.25 0.015625 4.484375q-0.046875 2.234375 -0.125 4.484375q-0.078125 2.25 -0.125 4.484375q-0.046875 2.234375 0.015625 4.484375l-0.5 1.0q-0.03125 0.0625 -0.3125 -0.046875q-0.28125 -0.109375 -0.4375 -0.203125zm2.46875 -11.34375q-0.0625 0 -0.140625 -0.09375q-0.078125 -0.09375 -0.109375 -0.125q0.125 -0.34375 0.3125 -0.75q0.1875 -0.40625 0.46875 -0.65625q0.28125 -0.25 0.640625 -0.265625q0.359375 -0.015625 0.828125 0.421875q0.40625 0.03125 1.453125 -0.09375q1.046875 -0.125 2.390625 -0.296875q1.34375 -0.171875 2.8125 -0.359375q1.46875 -0.1875 2.71875 -0.3125q1.25 -0.125 2.125 -0.109375q0.875 0.015625 1.03125 0.203125q0.25 0.34375 -0.15625 0.6875q-0.40625 0.34375 -1.25 0.65625q-0.84375 0.3125 -2.03125 0.578125q-1.1875 0.265625 -2.5 0.46875q-1.3125 0.203125 -2.671875 0.328125q-1.359375 0.125 -2.53125 0.140625q-1.171875 0.015625 -2.078125 -0.078125q-0.90625 -0.09375 -1.3125 -0.34375zm22.15625 11.34375q-1.1875 -0.5 -1.796875 -1.28125q-0.609375 -0.78125 -0.890625 -1.71875q-0.28125 -0.9375 -0.34375 -2.0q-0.0625 -1.0625 -0.15625 -2.15625q-0.71875 0.125 -1.40625 0.109375q-0.6875 -0.015625 -1.203125 -0.125q-0.515625 -0.109375 -0.734375 -0.3125q-0.21875 -0.203125 -0.046875 -0.4375q0.171875 -0.234375 0.859375 -0.484375q0.6875 -0.25 2.03125 -0.46875q0.1875 0 0.546875 -0.1875q0.359375 -0.1875 0.421875 -0.28125q0.21875 -0.3125 0.40625 -1.078125q0.1875 -0.765625 0.390625 -1.703125q0.203125 -0.9375 0.5 -1.890625q0.296875 -0.953125 0.75 -1.640625q0.453125 -0.6875 1.09375 -0.96875q0.640625 -0.28125 1.578125 0.125q0.09375 0.0625 0.265625 0.234375q0.171875 0.171875 0.359375 0.359375q0.1875 0.1875 0.359375 0.359375q0.171875 0.171875 0.234375 0.265625q0.125 1.53125 -0.1875 2.59375q-0.3125 1.0625 -0.84375 1.796875q-0.53125 0.734375 -1.1875 1.234375q-0.65625 0.5 -1.25 0.953125q-0.59375 0.453125 -1.015625 0.921875q-0.421875 0.46875 -0.453125 1.15625q-0.0625 0.8125 -0.0625 1.484375q0 0.671875 0.15625 1.265625q0.15625 0.59375 0.53125 1.125q0.375 0.53125 1.09375 1.03125q0.53125 0.375 1.3125 0.1875q0.78125 -0.1875 1.59375 -0.65625q0.8125 -0.46875 1.59375 -1.0625q0.78125 -0.59375 1.34375 -1.015625q0.5625 -0.421875 0.8125 -0.546875q0.25 -0.125 0 0.375q-0.4375 1.03125 -1.03125 2.0625q-0.59375 1.03125 -1.40625 1.75q-0.8125 0.71875 -1.859375 0.953125q-1.046875 0.234375 -2.359375 -0.328125zm-1.0 -11.34375q-0.03125 0.15625 -0.125 0.625q-0.09375 0.46875 -0.09375 0.625q0.03125 0.03125 0.109375 0.03125q0.078125 0 0.109375 -0.03125q0.09375 -0.0625 0.28125 -0.203125q0.1875 -0.140625 0.375 -0.28125q0.1875 -0.140625 0.359375 -0.28125q0.171875 -0.140625 0.234375 -0.203125q0.9375 -0.9375 1.328125 -1.734375q0.390625 -0.796875 0.390625 -1.296875q0 -0.5 -0.328125 -0.671875q-0.328125 -0.171875 -0.78125 0.109375q-0.453125 0.28125 -0.953125 1.078125q-0.5 0.796875 -0.90625 2.234375zm10.09375 11.125q-0.125 -0.5 -0.1875 -1.375q-0.0625 -0.875 -0.0625 -1.953125q0 -1.078125 0.015625 -2.265625q0.015625 -1.1875 0.046875 -2.3125q0.03125 -1.125 0.015625 -2.09375q-0.015625 -0.96875 -0.078125 -1.59375q-0.03125 -0.46875 -0.078125 -1.390625q-0.046875 -0.921875 -0.109375 -2.078125q-0.0625 -1.15625 -0.140625 -2.4375q-0.078125 -1.28125 -0.109375 -2.453125q-0.03125 -1.171875 -0.03125 -2.15625q0 -0.984375 0.0625 -1.515625q0.46875 -0.40625 0.765625 0.203125q0.296875 0.609375 0.453125 1.75q0.15625 1.140625 0.203125 2.578125q0.046875 1.4375 0.046875 2.71875q0 1.28125 -0.03125 2.15625q-0.03125 0.875 -0.03125 0.90625q0.15625 2.9375 0.203125 5.796875q0.046875 2.859375 0.296875 5.765625q0.3125 0.59375 0.328125 1.265625q0.015625 0.671875 -0.1875 1.078125q-0.203125 0.40625 -0.578125 0.34375q-0.375 -0.0625 -0.8125 -0.9375zm4.9375 -0.28125q-0.53125 -0.65625 -0.953125 -1.8125q-0.421875 -1.15625 -0.703125 -2.59375q-0.28125 -1.4375 -0.40625 -3.015625q-0.125 -1.578125 -0.03125 -3.03125q0.09375 -1.453125 0.4375 -2.65625q0.34375 -1.203125 0.984375 -1.90625q0.640625 -0.703125 1.59375 -0.765625q0.953125 -0.0625 2.265625 0.78125q1.09375 0.65625 1.984375 1.609375q0.890625 0.953125 1.484375 2.078125q0 -0.09375 0.015625 -0.34375q0.015625 -0.25 0.015625 -0.515625q0 -0.265625 -0.015625 -0.515625q-0.015625 -0.25 -0.015625 -0.34375q-0.03125 -0.21875 -0.109375 -1.09375q-0.078125 -0.875 -0.171875 -1.859375q-0.09375 -0.984375 -0.15625 -1.859375q-0.0625 -0.875 -0.0625 -1.09375q-0.03125 -0.34375 -0.046875 -0.875q-0.015625 -0.53125 -0.015625 -1.046875q0 -0.515625 0.015625 -0.890625q0.015625 -0.375 0.046875 -0.375l0.25 -0.25q0.3125 -0.34375 0.609375 -0.125q0.296875 0.21875 0.53125 0.71875q0.234375 0.5 0.421875 1.1875q0.1875 0.6875 0.328125 1.34375q0.140625 0.65625 0.203125 1.15625q0.0625 0.5 0.09375 0.625q0.03125 0.25 0.046875 1.28125q0.015625 1.03125 0.015625 2.4375q0 1.40625 0 2.984375q0 1.578125 0.015625 2.921875q0.015625 1.34375 0.046875 2.25q0.03125 0.90625 0.125 0.9375l0.53125 0.21875l0 3.46875q0 0.3125 -0.3125 0.28125q-0.3125 -0.03125 -0.6875 -0.203125q-0.375 -0.171875 -0.6875 -0.421875q-0.3125 -0.25 -0.3125 -0.40625l0 -2.46875q-0.5625 1.0 -1.234375 1.921875q-0.671875 0.921875 -1.484375 1.609375q-0.8125 0.6875 -1.84375 1.015625q-1.03125 0.328125 -2.3125 0.140625q-0.0625 -0.0625 -0.25 -0.25q-0.1875 -0.1875 -0.25 -0.25zm0.5 -1.46875q0.03125 0.03125 0.234375 0.140625q0.203125 0.109375 0.265625 0.109375q1.53125 0.1875 2.6875 -0.625q1.15625 -0.8125 1.890625 -2.125q0.734375 -1.3125 1.078125 -2.859375q0.34375 -1.546875 0.25 -2.765625q-0.75 0.5625 -1.140625 0.65625q-0.390625 0.09375 -0.5625 -0.109375q-0.171875 -0.203125 -0.21875 -0.609375q-0.046875 -0.40625 -0.078125 -0.890625q-0.03125 -0.484375 -0.109375 -0.96875q-0.078125 -0.484375 -0.359375 -0.796875q-1.1875 -1.40625 -2.09375 -1.8125q-0.90625 -0.40625 -1.53125 -0.078125q-0.625 0.328125 -1.015625 1.234375q-0.390625 0.90625 -0.5625 2.125q-0.171875 1.21875 -0.140625 2.625q0.03125 1.40625 0.203125 2.71875q0.171875 1.3125 0.484375 2.390625q0.3125 1.078125 0.71875 1.640625zm32.0 1.75q-0.0625 -0.09375 -0.15625 -0.28125q-0.09375 -0.1875 -0.15625 -0.390625q-0.0625 -0.203125 -0.125 -0.359375q-0.0625 -0.15625 -0.0625 -0.21875q0.03125 -0.375 0.109375 -1.15625q0.078125 -0.78125 0.15625 -1.75q0.078125 -0.96875 0.15625 -2.0625q0.078125 -1.09375 0.078125 -2.078125q0 -0.984375 -0.078125 -1.796875q-0.078125 -0.8125 -0.296875 -1.25q-0.34375 -0.71875 -1.015625 -1.0625q-0.671875 -0.34375 -1.453125 -0.40625q-1.78125 -0.15625 -2.953125 0.625q-1.171875 0.78125 -1.921875 2.078125q-0.75 1.296875 -1.171875 2.890625q-0.421875 1.59375 -0.71875 3.046875q-0.296875 1.453125 -0.5625 2.53125q-0.265625 1.078125 -0.671875 1.359375q-0.3125 0.21875 -0.515625 0.15625q-0.203125 -0.0625 -0.34375 -0.296875q-0.140625 -0.234375 -0.234375 -0.53125q-0.09375 -0.296875 -0.125 -0.546875q0.03125 -1.15625 0.171875 -2.8125q0.140625 -1.65625 0.203125 -3.40625q0.0625 -1.75 -0.015625 -3.359375q-0.078125 -1.609375 -0.484375 -2.703125q-0.46875 -1.3125 -1.0 -1.5625q-0.53125 -0.25 -1.09375 0.25q-0.5625 0.5 -1.109375 1.59375q-0.546875 1.09375 -1.046875 2.46875q-0.5 1.375 -0.9375 2.875q-0.4375 1.5 -0.765625 2.828125q-0.328125 1.328125 -0.546875 2.296875q-0.21875 0.96875 -0.25 1.28125q-0.09375 0.625 -0.5 0.65625q-0.40625 0.03125 -0.78125 -0.28125q-0.375 -0.3125 -0.515625 -0.84375q-0.140625 -0.53125 0.296875 -1.0q0.03125 -0.53125 0.03125 -1.625q0 -1.09375 -0.03125 -2.46875q-0.03125 -1.375 -0.046875 -2.90625q-0.015625 -1.53125 -0.015625 -2.9375q0 -1.40625 0.046875 -2.546875q0.046875 -1.140625 0.140625 -1.765625q0.0625 -0.375 0.28125 -0.421875q0.21875 -0.046875 0.46875 0.078125q0.25 0.125 0.453125 0.375q0.203125 0.25 0.265625 0.46875q0.15625 0.625 0.203125 1.234375q0.046875 0.609375 0.078125 1.21875q0.03125 0.609375 0.0625 1.21875q0.03125 0.609375 0.1875 1.234375q0.28125 -0.59375 0.75 -1.4375q0.46875 -0.84375 1.0625 -1.625q0.59375 -0.78125 1.265625 -1.375q0.671875 -0.59375 1.34375 -0.71875q0.671875 -0.125 1.296875 0.359375q0.625 0.484375 1.15625 1.828125q0.15625 0.4375 0.296875 1.109375q0.140625 0.671875 0.296875 1.390625q0.15625 0.71875 0.375 1.390625q0.21875 0.671875 0.5 1.046875q0.53125 -0.3125 0.921875 -0.84375q0.390625 -0.53125 0.78125 -1.109375q0.390625 -0.578125 0.84375 -1.109375q0.453125 -0.53125 1.140625 -0.875q2.3125 -0.78125 3.828125 -0.46875q1.515625 0.3125 2.421875 1.328125q0.90625 1.015625 1.296875 2.53125q0.390625 1.515625 0.4375 3.140625q0.046875 1.625 -0.171875 3.171875q-0.21875 1.546875 -0.53125 2.578125l0.21875 0.25q0.15625 0.15625 0.734375 -0.21875q0.578125 -0.375 1.265625 -0.84375q0.6875 -0.46875 1.3125 -0.859375q0.625 -0.390625 0.875 -0.296875l0 0.5q-0.25 0.21875 -0.609375 0.671875q-0.359375 0.453125 -0.8125 0.953125q-0.453125 0.5 -0.96875 0.984375q-0.515625 0.484375 -1.03125 0.765625q-0.515625 0.28125 -1.03125 0.28125q-0.515625 0 -0.953125 -0.4375zm7.75 -0.6875q-0.625 -0.625 -1.0 -1.90625q-0.375 -1.28125 -0.515625 -2.90625q-0.140625 -1.625 -0.046875 -3.453125q0.09375 -1.828125 0.421875 -3.5625q0.328125 -1.734375 0.875 -3.234375q0.546875 -1.5 1.34375 -2.484375q0.796875 -0.984375 1.8125 -1.28125q1.015625 -0.296875 2.265625 0.359375q0.4375 0.25 0.921875 0.84375q0.484375 0.59375 0.921875 1.328125q0.4375 0.734375 0.765625 1.46875q0.328125 0.734375 0.484375 1.234375q0.03125 0.15625 0.015625 0.953125q-0.015625 0.796875 -0.046875 1.921875q-0.03125 1.125 0.015625 2.484375q0.046875 1.359375 0.21875 2.65625q0.171875 1.296875 0.546875 2.40625q0.375 1.109375 1.0 1.75q0.625 0.640625 1.578125 0.6875q0.953125 0.046875 2.328125 -0.765625q0.5 -0.4375 0.59375 -0.859375q0.09375 -0.421875 0.09375 -0.71875q0 -0.296875 0.0625 -0.390625q0.0625 -0.09375 0.5625 0.15625q0.625 0.8125 0.421875 1.734375q-0.203125 0.921875 -0.90625 1.625q-0.703125 0.703125 -1.765625 1.0q-1.0625 0.296875 -2.171875 -0.140625q-1.109375 -0.4375 -2.109375 -1.78125q-1.0 -1.34375 -1.59375 -3.90625q-0.1875 0.53125 -0.578125 1.3125q-0.390625 0.78125 -0.921875 1.5625q-0.53125 0.78125 -1.203125 1.46875q-0.671875 0.6875 -1.390625 1.03125q-0.71875 0.34375 -1.484375 0.265625q-0.765625 -0.078125 -1.515625 -0.859375zm0.28125 -1.96875q0.53125 1.125 1.25 1.21875q0.71875 0.09375 1.46875 -0.5625q0.75 -0.65625 1.484375 -1.90625q0.734375 -1.25 1.25 -2.828125q0.515625 -1.578125 0.78125 -3.3125q0.265625 -1.734375 0.09375 -3.328125q-0.171875 -1.59375 -0.828125 -2.90625q-0.65625 -1.3125 -2.0 -2.0625q-0.03125 -0.03125 -0.109375 -0.03125q-0.078125 0 -0.140625 0q-0.96875 0.4375 -1.6875 1.5q-0.71875 1.0625 -1.234375 2.5q-0.515625 1.4375 -0.796875 3.09375q-0.28125 1.65625 -0.3125 3.25q-0.03125 1.59375 0.15625 3.015625q0.1875 1.421875 0.625 2.359375zm15.0 2.875q-0.0625 -0.0625 -0.15625 -0.25q-0.09375 -0.1875 -0.125 -0.25q0.09375 -0.40625 0.203125 -1.828125q0.109375 -1.421875 0.25 -3.296875q0.140625 -1.875 0.34375 -3.90625q0.203125 -2.03125 0.453125 -3.625q0.25 -1.59375 0.59375 -2.453125q0.34375 -0.859375 0.78125 -0.421875q0.9375 0.6875 1.75 1.734375q0.8125 1.046875 1.5625 2.265625q0.75 1.21875 1.453125 2.515625q0.703125 1.296875 1.46875 2.46875q0.765625 1.171875 1.625 2.125q0.859375 0.953125 1.859375 1.484375l0.21875 0q0.0625 -0.75 0.140625 -1.859375q0.078125 -1.109375 0.171875 -2.421875q0.09375 -1.3125 0.1875 -2.703125q0.09375 -1.390625 0.234375 -2.71875q0.140625 -1.328125 0.296875 -2.453125q0.15625 -1.125 0.34375 -1.90625q0.03125 -0.0625 0.140625 -0.265625q0.109375 -0.203125 0.25 -0.40625q0.140625 -0.203125 0.296875 -0.328125q0.15625 -0.125 0.3125 0l1.46875 1.5q0.09375 0.09375 -0.109375 0.390625q-0.203125 0.296875 -0.484375 0.65625q-0.28125 0.359375 -0.5625 0.6875q-0.28125 0.328125 -0.3125 0.484375q-0.21875 0.8125 -0.375 1.953125q-0.15625 1.140625 -0.25 2.4375q-0.09375 1.296875 -0.15625 2.671875q-0.0625 1.375 -0.109375 2.671875q-0.046875 1.296875 -0.0625 2.453125q-0.015625 1.15625 -0.046875 2.0q-1.125 -0.03125 -2.15625 -0.6875q-1.03125 -0.65625 -1.984375 -1.734375q-0.953125 -1.078125 -1.84375 -2.4375q-0.890625 -1.359375 -1.71875 -2.75q-0.828125 -1.390625 -1.609375 -2.734375q-0.78125 -1.34375 -1.5 -2.375l-0.28125 0q-0.125 0 -0.203125 0.671875q-0.078125 0.671875 -0.140625 1.734375q-0.0625 1.0625 -0.125 2.421875q-0.0625 1.359375 -0.171875 2.71875q-0.109375 1.359375 -0.265625 2.59375q-0.15625 1.234375 -0.375 2.078125q-0.21875 0.84375 -0.53125 1.1875q-0.3125 0.34375 -0.75 -0.09375z" fill-rule="nonzero"/><path fill="#000000" fill-opacity="0.0" d="m0.9895013 0.89238846l438.07874 0l0 437.6378l-438.07874 0z" fill-rule="evenodd"/><path stroke="#000000" stroke-width="2.0" stroke-linejoin="round" stroke-linecap="butt" d="m0.9895013 0.89238846l438.07874 0l0 437.6378l-438.07874 0z" fill-rule="evenodd"/></g></svg>