<svg version="1.1" viewBox="0.0 0.0 268.43832020997377 269.12598425196853" fill="none" stroke="none" stroke-linecap="square" stroke-miterlimit="10" xmlns:xlink="http://www.w3.org/1999/xlink" xmlns="http://www.w3.org/2000/svg"><clipPath id="p.0"><path d="m0 0l268.43832 0l0 269.12598l-268.43832 0l0 -269.12598z" clip-rule="nonzero"/></clipPath><g clip-path="url(#p.0)"><path fill="#000000" fill-opacity="0.0" d="m0 0l268.43832 0l0 269.12598l-268.43832 0z" fill-rule="evenodd"/><defs><radialGradient id="p.1" gradientUnits="userSpaceOnUse" gradientTransform="matrix(20.799816871543936 0.0 0.0 20.799816871543936 0.0 0.0)" spreadMethod="pad" cx="7.135919075172888" cy="11.892120032847053" fx="7.135919075172888" fy="11.892120032847053" r="20.799816131591797"><stop offset="0.0" stop-color="#dfe9fb"/><stop offset="0.5" stop-color="#6d9eeb"/><stop offset="1.0" stop-color="#434343"/></radialGradient></defs><path fill="url(#p.1)" d="m-152.80254 247.35391l0 0c0 -171.50397 134.86453 -310.53543 301.22833 -310.53543l0 0c79.89072 0 156.50934 32.717033 213.00061 90.95372c56.491272 58.236687 88.22772 137.2226 88.22772 219.5817l0 0c0 171.504 -134.8645 310.53543 -301.22833 310.53543l0 0c-166.36383 0 -301.22833 -139.03143 -301.22833 -310.53543z" fill-rule="evenodd"/><defs><radialGradient id="p.2" gradientUnits="userSpaceOnUse" gradientTransform="matrix(13.834654206187835 0.0016098037999421125 -0.0016098037999421125 13.834654206187835 0.0 0.0)" spreadMethod="pad" cx="10.783839111832027" cy="17.912770485495955" fx="10.783839111832027" fy="17.912770485495955" r="13.834653854370117"><stop offset="0.0" stop-color="#6e9be7"/><stop offset="1.0" stop-color="#6e9be7" stop-opacity="0.53333336"/></radialGradient></defs><path fill="url(#p.2)" d="m13.823266 247.8186l0 0c0.00869751 -74.74544 60.608894 -135.33154 135.35432 -135.32285l0 0c35.894028 0.004173279 70.31627 14.267021 95.694214 39.650887c25.377945 25.383865 39.632797 59.809418 39.628616 95.703445l0 0c-0.00869751 74.74542 -60.608887 135.33154 -135.35432 135.32285l0 0c-74.74544 -0.00869751 -135.33153 -60.608917 -135.32283 -135.35434z" fill-rule="evenodd"/><path fill="#000000" fill-opacity="0.0" d="m100.828 190.09363c0 -28.519684 7.5905533 -57.039368 15.181107 -57.039368" fill-rule="evenodd"/><path stroke="#000000" stroke-width="1.0" stroke-linejoin="round" stroke-linecap="butt" stroke-dasharray="1.0,3.0" d="m100.828 190.09363c0 -28.519684 7.5905533 -57.039368 15.181107 -57.039368" fill-rule="evenodd"/><path fill="#ffffff" d="m93.56221 193.11844l11.758125 20.651962l11.668182 3.8079681l2.0179062 -11.983765l-11.647079 -20.180038l-4.037842 2.1555328l-0.07105255 -6.933563l-11.41877 6.6829224l5.833626 3.3660889z" fill-rule="evenodd"/><path stroke="#000000" stroke-width="2.0" stroke-linejoin="round" stroke-linecap="butt" d="m93.56221 193.11844l11.758125 20.651962l11.668182 3.8079681l2.0179062 -11.983765l-11.647079 -20.180038l-4.037842 2.1555328l-0.07105255 -6.933563l-11.41877 6.6829224l5.833626 3.3660889z" fill-rule="evenodd"/><defs><radialGradient id="p.3" gradientUnits="userSpaceOnUse" gradientTransform="matrix(1.9479500217145915 -1.1255163808749569 -1.1255163808749569 -1.9479500217145915 0.0 0.0)" spreadMethod="pad" cx="-3.3898166970030683" cy="-105.21234344698338" fx="-3.3898166970030683" fy="-105.21234344698338" r="1.947950005531311"><stop offset="0.0" stop-color="#dfe9fb"/><stop offset="1.0" stop-color="#6e9be7"/></radialGradient></defs><path fill="url(#p.3)" d="m109.13178 210.31404l0 0c0.8559494 1.4819183 2.7511597 1.9891205 4.2330704 1.1328735l0 0c0.7116394 -0.4111786 1.2308502 -1.088211 1.4434052 -1.8821716c0.21255493 -0.7939453 0.1010437 -1.6397858 -0.30999756 -2.3514252l0 0c-0.8559494 -1.4819031 -2.7511597 -1.9891205 -4.2330704 -1.1328735l0 0c-1.4819107 0.85624695 -1.989357 2.7516937 -1.1334076 4.233597z" fill-rule="evenodd"/><path stroke="#000000" stroke-width="1.0" stroke-linejoin="round" stroke-linecap="butt" d="m109.13178 210.31404l0 0c0.8559494 1.4819183 2.7511597 1.9891205 4.2330704 1.1328735l0 0c0.7116394 -0.4111786 1.2308502 -1.088211 1.4434052 -1.8821716c0.21255493 -0.7939453 0.1010437 -1.6397858 -0.30999756 -2.3514252l0 0c-0.8559494 -1.4819031 -2.7511597 -1.9891205 -4.2330704 -1.1328735l0 0c-1.4819107 0.85624695 -1.989357 2.7516937 -1.1334076 4.233597z" fill-rule="evenodd"/><path fill="#ff0000" d="m103.90274 211.63916c-1.0507584 -0.55500793 -3.8387833 -0.9701538 -6.30455 -3.3300934c-2.465767 -2.3599243 -8.353561 -9.329071 -8.490036 -10.829514c-0.13647461 -1.5004425 6.392662 1.5223541 7.671196 1.826828" fill-rule="evenodd"/><path stroke="#000000" stroke-width="1.0" stroke-linejoin="round" stroke-linecap="butt" d="m103.90274 211.63916c-1.0507584 -0.55500793 -3.8387833 -0.9701538 -6.30455 -3.3300934c-2.465767 -2.3599243 -8.353561 -9.329071 -8.490036 -10.829514c-0.13647461 -1.5004425 6.392662 1.5223541 7.671196 1.826828" fill-rule="evenodd"/><path fill="#ff0000" d="m118.08899 203.44241c0.044189453 -1.1876678 1.0773773 -3.8106842 0.26512146 -7.126007c-0.81225586 -3.3153381 -3.9072342 -11.898148 -5.138649 -12.765945c-1.2314224 -0.86779785 -1.8748856 6.2993164 -2.2498627 7.5591736" fill-rule="evenodd"/><path stroke="#000000" stroke-width="1.0" stroke-linejoin="round" stroke-linecap="butt" d="m118.08899 203.44241c0.044189453 -1.1876678 1.0773773 -3.8106842 0.26512146 -7.126007c-0.81225586 -3.3153381 -3.9072342 -11.898148 -5.138649 -12.765945c-1.2314224 -0.86779785 -1.8748856 6.2993164 -2.2498627 7.5591736" fill-rule="evenodd"/><path fill="#000000" fill-opacity="0.0" d="m147.0403 108.24724l0 0c0 -5.3489 4.3432007 -9.677986 9.70079 -9.669289l0 0c2.572815 0.004180908 5.0402527 1.0285645 6.859497 2.8478165c1.8192444 1.819252 2.8412933 4.28434 2.8412933 6.852974l0 0c0 5.3489 -4.3431854 9.677986 -9.70079 9.669289l0 0c-5.3575897 -0.00869751 -9.70079 -4.3518906 -9.70079 -9.70079z" fill-rule="evenodd"/><path fill="#000000" fill-opacity="0.0" d="m148.21817 50.843216l0 138.64566" fill-rule="evenodd"/><path stroke="#434343" stroke-width="1.0" stroke-linejoin="round" stroke-linecap="butt" stroke-dasharray="1.0,3.0" d="m148.21817 50.843216l0 138.64566" fill-rule="evenodd"/><path fill="#ffff00" d="m156.24228 63.87595l-15.1154785 0.06554413l0.2424469 4.645443l0.8883667 -1.3221054l0.65205383 6.6304245l1.5543976 -3.155304l1.1303406 10.072899l1.9477692 -4.5158844l0.526001 10.9158325l2.0241547 -11.685097l2.0917969 1.3501434l1.760788 -5.417145l1.0110321 3.1106415z" fill-rule="evenodd"/><path fill="#ff9900" d="m153.48407 64.095665l-10.341064 -0.16347504l1.0407104 3.7026749l0.5424652 -0.7768936l0.3683319 3.5302124l0.9538727 -1.8175583l0.6424408 5.354004l1.1972351 -2.5823746l0.75704956 5.793953l0.7904968 -6.399544l1.2598267 0.57579803l1.0909119 -3.0604477l0.59739685 1.6068344z" fill-rule="evenodd"/><path fill="#ff0000" d="m151.78 63.717945l-5.7065887 -0.31001282l0.55500793 1.7235527l0.31028748 -0.42423248l0.15014648 1.8821716l0.5541992 -0.98651123l0.27383423 2.8524628l0.6999817 -1.399353l0.062301636 3.125534l0.7995758 -3.4721603l0.6871033 0.28755188l0.64753723 -1.6492233l0.30560303 0.84827423z" fill-rule="evenodd"/><path fill="#000000" fill-opacity="0.0" d="m100.57845 83.71499c11.61557 0 17.42405 6.1338577 23.231133 12.267715c5.807083 6.1338577 11.612778 12.267715 23.225555 12.267715" fill-rule="evenodd"/><path stroke="#ffffff" stroke-width="2.0" stroke-linejoin="round" stroke-linecap="butt" d="m100.57845 83.71499c11.61557 0 17.42405 6.1338577 23.231133 12.267715c2.9035492 3.066925 5.8067474 6.1338577 9.435654 8.4340515c0.45361328 0.287529 0.91856384 0.5630646 1.3962708 0.8251343c0.11943054 0.06552124 0.23965454 0.13019562 0.36068726 0.19400024l0.32809448 0.1694336" fill-rule="evenodd"/><path fill="#ffffff" stroke="#ffffff" stroke-width="2.0" stroke-linecap="butt" d="m134.60213 108.82754l9.581131 -1.2215958l-8.124802 -5.2228317z" fill-rule="evenodd"/><path fill="#000000" fill-opacity="0.0" d="m266.40558 32.32439c0.007873535 0.015750885 0.027557373 0.015750885 0.04724121 0.015750885c0.019683838 0 0.039367676 0 0.04724121 0.01574707" fill-rule="evenodd"/><path stroke="#000000" stroke-width="1.0" stroke-linejoin="round" stroke-linecap="butt" d="m266.40558 32.32439c0.007873535 0.015750885 0.027557373 0.015750885 0.04724121 0.015750885c0.019683838 0 0.039367676 0 0.04724121 0.01574707" fill-rule="evenodd"/><path fill="#ffffff" d="m98.324066 199.4322l0 0c-1.8873367 -3.270218 -0.7662811 -7.451248 2.5039368 -9.338577l0 0c1.5704193 -0.9063263 3.436554 -1.1517029 5.187874 -0.68211365c1.7513275 0.46957397 3.2443771 1.6156311 4.150711 3.1860504l0 0c1.8873367 3.270218 0.7662811 7.451248 -2.5039368 9.338577l0 0c-3.2702255 1.8873444 -7.451248 0.7662811 -9.338585 -2.5039368z" fill-rule="evenodd"/><path fill="#ffffff" d="m138.60744 55.99352l-0.18045044 -29.059376l10.026794 -11.1700325l9.466629 11.45384l0.009399414 28.491758l-5.594269 0.18795395l4.165619 7.3846626l-16.179352 -0.09021759l4.118622 -7.132805z" fill-rule="evenodd"/><path stroke="#000000" stroke-width="2.0" stroke-linejoin="round" stroke-linecap="butt" d="m138.60744 55.99352l-0.18045044 -29.059376l10.026794 -11.1700325l9.466629 11.45384l0.009399414 28.491758l-5.594269 0.18795395l4.165619 7.3846626l-16.179352 -0.09021759l4.118622 -7.132805z" fill-rule="evenodd"/><defs><radialGradient id="p.4" gradientUnits="userSpaceOnUse" gradientTransform="matrix(2.3149535093055458 0.0 0.0 2.3149535093055458 0.0 0.0)" spreadMethod="pad" cx="64.09061394980169" cy="12.20845194260283" fx="64.09061394980169" fy="12.20845194260283" r="2.314953565597534"><stop offset="0.0" stop-color="#dfe9fb"/><stop offset="1.0" stop-color="#6e9be7"/></radialGradient></defs><path fill="url(#p.4)" d="m144.57713 28.262l0 0c0 -2.092678 1.6966858 -3.7891273 3.7896576 -3.7891273l0 0c1.0050812 0 1.9689941 0.39920998 2.6796875 1.1098099c0.7107086 0.710598 1.1099701 1.6743774 1.1099701 2.6793175l0 0c0 2.0926762 -1.6966858 3.7891254 -3.7896576 3.7891254l0 0c-2.0929718 0 -3.7896576 -1.6964493 -3.7896576 -3.7891254z" fill-rule="evenodd"/><path stroke="#000000" stroke-width="1.0" stroke-linejoin="round" stroke-linecap="butt" d="m144.57713 28.262l0 0c0 -2.092678 1.6966858 -3.7891273 3.7896576 -3.7891273l0 0c1.0050812 0 1.9689941 0.39920998 2.6796875 1.1098099c0.7107086 0.710598 1.1099701 1.6743774 1.1099701 2.6793175l0 0c0 2.0926762 -1.6966858 3.7891254 -3.7896576 3.7891254l0 0c-2.0929718 0 -3.7896576 -1.6964493 -3.7896576 -3.7891254z" fill-rule="evenodd"/><path fill="#ff0000" d="m138.22939 30.057917c-0.7732239 1.2304649 -3.4716492 3.3756313 -4.6393127 7.382784c-1.1676636 4.0071526 -3.1398773 14.98798 -2.3666687 16.660133c0.7732239 1.6721535 5.838318 -5.5226784 7.0059814 -6.6272125" fill-rule="evenodd"/><path stroke="#000000" stroke-width="1.0" stroke-linejoin="round" stroke-linecap="butt" d="m138.22939 30.057917c-0.7732239 1.2304649 -3.4716492 3.3756313 -4.6393127 7.382784c-1.1676636 4.0071526 -3.1398773 14.98798 -2.3666687 16.660133c0.7732239 1.6721535 5.838318 -5.5226784 7.0059814 -6.6272125" fill-rule="evenodd"/><path fill="#ff0000" d="m158.26526 30.057917c0.7732239 1.2304649 3.4716644 3.3756313 4.639328 7.382784c1.1676636 4.0071526 3.1398773 14.98798 2.3666534 16.660133c-0.7732239 1.6721535 -5.838318 -5.5226784 -7.0059814 -6.6272125" fill-rule="evenodd"/><path stroke="#000000" stroke-width="1.0" stroke-linejoin="round" stroke-linecap="butt" d="m158.26526 30.057917c0.7732239 1.2304649 3.4716644 3.3756313 4.639328 7.382784c1.1676636 4.0071526 3.1398773 14.98798 2.3666534 16.660133c-0.7732239 1.6721535 -5.838318 -5.5226784 -7.0059814 -6.6272125" fill-rule="evenodd"/><path fill="#ffffff" d="m141.11581 43.740852l0 0c0 -3.9225273 3.17984 -7.1023636 7.102356 -7.1023636l0 0c1.883667 0 3.6901855 0.7482834 5.0221405 2.0802345c1.3319397 1.3319511 2.0802307 3.138466 2.0802307 5.022129l0 0c0 3.9225273 -3.17984 7.1023636 -7.102371 7.1023636l0 0c-3.9225159 0 -7.102356 -3.1798363 -7.102356 -7.1023636z" fill-rule="evenodd"/><path fill="#000000" fill-opacity="0.0" d="m115.99706 133.0531l0 0c0 -0.5827179 0.47238922 -1.0551147 1.0551147 -1.0551147l0 0c0.27983856 0 0.54821014 0.11117554 0.7460861 0.30903625c0.19786835 0.19787598 0.30903625 0.46624756 0.30903625 0.7460785l0 0c0 0.58273315 -0.47239685 1.05513 -1.0551224 1.05513l0 0c-0.5827255 0 -1.0551147 -0.47239685 -1.0551147 -1.05513z" fill-rule="evenodd"/><path fill="#000000" fill-opacity="0.0" d="m148.21817 189.48566c0 -28.220474 -15.055115 -56.44095 -30.11023 -56.44095" fill-rule="evenodd"/><path stroke="#000000" stroke-width="1.0" stroke-linejoin="round" stroke-linecap="butt" stroke-dasharray="1.0,3.0" d="m148.21817 189.48566c0 -28.220474 -15.055115 -56.44095 -30.11023 -56.44095" fill-rule="evenodd"/><path fill="#000000" fill-opacity="0.0" d="m163.37723 155.3558l0 0c0 -0.58273315 0.47239685 -1.05513 1.05513 -1.05513l0 0c0.27983093 0 0.5482025 0.11117554 0.7460785 0.30903625c0.19787598 0.19787598 0.30903625 0.46624756 0.30903625 0.74609375l0 0c0 0.5827179 -0.47239685 1.0551147 -1.0551147 1.0551147l0 0c-0.58273315 0 -1.05513 -0.47239685 -1.05513 -1.0551147z" fill-rule="evenodd"/><path fill="#ffffff" d="m167.92918 176.57042l-3.701065 18.299652l4.9434967 8.278885l7.3831177 -6.054489l3.5231323 -17.96286l-3.5042572 -0.8082123l3.5382385 -4.142441l-10.213028 -1.9378662l1.7164764 5.005005z" fill-rule="evenodd"/><path stroke="#000000" stroke-width="2.0" stroke-linejoin="round" stroke-linecap="butt" d="m167.92918 176.57042l-3.701065 18.299652l4.9434967 8.278885l7.3831177 -6.054489l3.5231323 -17.96286l-3.5042572 -0.8082123l3.5382385 -4.142441l-10.213028 -1.9378662l1.7164764 5.005005z" fill-rule="evenodd"/><defs><radialGradient id="p.5" gradientUnits="userSpaceOnUse" gradientTransform="matrix(1.8382248078710006 0.359422609380775 0.359422609380775 -1.8382248078710006 0.0 0.0)" spreadMethod="pad" cx="109.42503727894433" cy="-84.82558610035521" fx="109.42503727894433" fy="-84.82558610035521" r="1.8382247686386108"><stop offset="0.0" stop-color="#dfe9fb"/><stop offset="1.0" stop-color="#6e9be7"/></radialGradient></defs><path fill="url(#p.5)" d="m168.27002 194.7911l0 0c-0.2583313 1.3194275 0.6020813 2.5982208 1.921814 2.8562622l0 0c0.6337433 0.123916626 1.2908325 -0.00894165 1.8266754 -0.36935425c0.53585815 -0.3604126 0.9065857 -0.91885376 1.0306396 -1.5524597l0 0c0.2583313 -1.3194275 -0.6020813 -2.5982208 -1.921814 -2.8562622l0 0c-1.3197174 -0.25804138 -2.5989838 0.6023865 -2.857315 1.921814z" fill-rule="evenodd"/><path stroke="#000000" stroke-width="1.0" stroke-linejoin="round" stroke-linecap="butt" d="m168.27002 194.7911l0 0c-0.2583313 1.3194275 0.6020813 2.5982208 1.921814 2.8562622l0 0c0.6337433 0.123916626 1.2908325 -0.00894165 1.8266754 -0.36935425c0.53585815 -0.3604126 0.9065857 -0.91885376 1.0306396 -1.5524597l0 0c0.2583313 -1.3194275 -0.6020813 -2.5982208 -1.921814 -2.8562622l0 0c-1.3197174 -0.25804138 -2.5989838 0.6023865 -2.857315 1.921814z" fill-rule="evenodd"/><path fill="#ff0000" d="m164.48915 192.87617c-0.33566284 -0.8711395 -1.7723541 -2.5563507 -2.0139465 -5.226822c-0.24160767 -2.670456 -0.12963867 -9.837006 0.56433105 -10.795975c0.6939697 -0.95895386 2.999588 4.2018433 3.5995178 5.042221" fill-rule="evenodd"/><path stroke="#000000" stroke-width="1.0" stroke-linejoin="round" stroke-linecap="butt" d="m164.48915 192.87617c-0.33566284 -0.8711395 -1.7723541 -2.5563507 -2.0139465 -5.226822c-0.24160767 -2.670456 -0.12963867 -9.837006 0.56433105 -10.795975c0.6939697 -0.95895386 2.999588 4.2018433 3.5995178 5.042221" fill-rule="evenodd"/><path fill="#ff0000" d="m177.12277 195.34639c0.6394501 -0.68048096 2.6057587 -1.7003174 3.8367004 -4.082855c1.2309418 -2.382553 3.8300629 -9.06279 3.5489197 -10.212418c-0.28112793 -1.1496124 -4.363098 2.7622375 -5.235718 3.3146973" fill-rule="evenodd"/><path stroke="#000000" stroke-width="1.0" stroke-linejoin="round" stroke-linecap="butt" d="m177.12277 195.34639c0.6394501 -0.68048096 2.6057587 -1.7003174 3.8367004 -4.082855c1.2309418 -2.382553 3.8300629 -9.06279 3.5489197 -10.212418c-0.28112793 -1.1496124 -4.363098 2.7622375 -5.235718 3.3146973" fill-rule="evenodd"/><path fill="#93c47d" d="m89.807755 247.35303l0 0c0 -32.371704 26.242455 -58.614166 58.614166 -58.614166l0 0c15.545456 0 30.454193 6.1754 41.446487 17.167694c10.992279 10.992279 17.167694 25.901031 17.167694 41.446472l0 0c0 32.371704 -26.242462 58.614166 -58.61418 58.614166l0 0c-32.37171 0 -58.614166 -26.242462 -58.614166 -58.614166z" fill-rule="evenodd"/><path stroke="#6aa84f" stroke-width="4.0" stroke-linejoin="round" stroke-linecap="butt" d="m89.807755 247.35303l0 0c0 -32.371704 26.242455 -58.614166 58.614166 -58.614166l0 0c15.545456 0 30.454193 6.1754 41.446487 17.167694c10.992279 10.992279 17.167694 25.901031 17.167694 41.446472l0 0c0 32.371704 -26.242462 58.614166 -58.61418 58.614166l0 0c-32.37171 0 -58.614166 -26.242462 -58.614166 -58.614166z" fill-rule="evenodd"/><path fill="#000000" fill-opacity="0.0" d="m141.11581 196.58801l0 0c0 -3.9225311 3.17984 -7.102356 7.102356 -7.102356l0 0c1.883667 0 3.6901855 0.74827576 5.0221405 2.0802307c1.3319397 1.331955 2.0802307 3.1384583 2.0802307 5.0221252l0 0c0 3.9225311 -3.17984 7.102356 -7.102371 7.102356l0 0c-3.9225159 0 -7.102356 -3.1798248 -7.102356 -7.102356z" fill-rule="evenodd"/><path fill="#000000" fill-opacity="0.0" d="m21.586329 51.40003l78.99213 0l0 64.62993l-78.99213 0z" fill-rule="evenodd"/><path fill="#ffffff" d="m42.209526 66.00752q1.875 0 2.796875 0.359375l0 1.46875q-0.84375 0.125 -1.71875 0.140625q-0.859375 0 -1.828125 0.015625q-2.65625 0.046875 -3.375 0.203125q-0.25 1.1875 -0.234375 1.6875q0.03125 0.5 0.046875 0.78125q0.078125 0.71875 0.078125 1.328125q0.828125 0 2.40625 -0.21875q1.59375 -0.21875 2.484375 -0.3125q0.890625 -0.109375 2.203125 -0.109375l0 1.71875l-6.953125 0.859375l0.078125 2.296875q1.421875 0 3.296875 -0.171875q1.890625 -0.171875 2.859375 -0.25q0.984375 -0.09375 2.46875 -0.09375q0 0.84375 -0.28125 1.28125q-0.65625 0.890625 -1.1875 0.53125q-3.078125 0.328125 -5.609375 0.53125q-2.515625 0.1875 -3.796875 0.296875l0.078125 -12.53125q0.90625 0.265625 2.125 0.265625l4.0625 -0.078125zm11.32196 6.859375q2.390625 0 2.390625 1.390625q0 0.9375 -1.25 2.078125q-1.71875 1.5625 -4.640625 2.515625q-0.40625 0 -0.609375 -0.34375q-0.203125 -0.34375 -0.296875 -0.46875q-0.078125 -0.140625 -0.375 -0.59375q2.5 -0.828125 3.796875 -1.765625q0.765625 -0.546875 0.765625 -0.6875q0 -0.140625 -0.875 -0.140625q-0.859375 0 -2.9375 0.515625q-1.15625 -0.03125 -1.9375 -0.78125q-0.71875 -0.671875 -0.71875 -1.375q0 -0.71875 0.375 -1.265625q0.375 -0.5625 0.953125 -1.015625q0.59375 -0.453125 1.359375 -0.8125q1.875 -0.890625 3.859375 -0.890625q0.59375 0 1.125 0.109375q0.71875 0 0.8125 0.5625q0.109375 0.546875 0.109375 2.046875q-1.53125 -0.71875 -2.796875 -0.71875q-1.5625 0 -2.578125 0.640625q-0.953125 0.546875 -0.984375 1.390625q0 0.125 0.359375 0.125l1.28125 -0.15625q1.75 -0.359375 2.8125 -0.359375zm10.364563 2.8125q0.734375 -0.296875 1.484375 -0.5625q0.75 -0.28125 1.609375 -0.28125q0.875 0 0.875 0.78125q0 0.140625 -0.078125 0.4375q-0.0625 0.28125 -0.59375 0.59375q-0.53125 0.3125 -1.203125 0.5625q-0.671875 0.234375 -1.453125 0.4375q-0.78125 0.203125 -1.5 0.359375q-1.5625 0.3125 -2.234375 0.3125q-0.671875 0 -1.453125 -0.15625q-0.78125 -0.15625 -1.46875 -0.515625q-1.671875 -0.859375 -1.671875 -2.578125q0 -0.109375 0 -0.46875q0 -0.375 0.296875 -1.046875q0.3125 -0.671875 0.890625 -1.3125q0.578125 -0.65625 1.328125 -1.203125q1.59375 -1.140625 3.34375 -1.484375q0.640625 -0.125 1.046875 -0.125q0.40625 0 0.671875 0.015625q0.265625 0 0.578125 0.03125q0.328125 0.03125 0.59375 0.171875q0.671875 0.34375 0.671875 1.265625q0 0.640625 -0.78125 1.171875q-0.15625 0.109375 -0.78125 0.515625q-0.171875 -0.921875 -0.265625 -1.09375q-0.078125 -0.171875 -0.296875 -0.171875q-2.046875 0.453125 -3.546875 1.328125q-1.5625 0.921875 -1.5625 1.859375q0 0.109375 0.015625 0.25q0 0.96875 0.703125 1.34375q0.578125 0.328125 1.5625 0.328125q1.0 0 1.75 -0.234375q0.75 -0.25 1.46875 -0.53125zm11.634033 -0.140625q-1.03125 1.859375 -3.453125 2.40625q-0.578125 0.125 -1.03125 0.125q-0.4375 0 -0.75 0q-0.296875 -0.015625 -0.703125 -0.09375q-0.390625 -0.09375 -0.71875 -0.28125q-0.859375 -0.5 -0.859375 -1.359375q-0.078125 -0.328125 -0.078125 -0.78125q0 -0.46875 0.1875 -1.1875q0.203125 -0.734375 0.703125 -1.546875q0.515625 -0.828125 1.234375 -1.515625q1.53125 -1.46875 3.3125 -1.875q0.515625 -0.125 0.96875 -0.125q0.453125 0 0.78125 0.046875q1.3125 0 1.75 1.71875q0.25 0.96875 0.296875 2.609375q0.046875 1.640625 0.09375 2.515625q0.046875 0.859375 0.3125 2.015625l-1.875 0q-0.109375 -0.8125 -0.15625 -1.203125q-0.03125 -0.390625 -0.0625 -0.703125q-0.09375 -0.75 0.046875 -0.765625zm-0.34375 -3.4375q0 -0.6875 -0.671875 -0.6875q-0.140625 -0.015625 -0.25 -0.015625q-1.1875 0 -2.546875 1.1875q-0.671875 0.546875 -1.125 1.234375q-0.671875 0.953125 -0.671875 1.640625q0 0.765625 0.90625 0.90625q1.453125 -0.03125 2.828125 -1.390625q0.609375 -0.59375 1.0 -1.296875q0.53125 -0.90625 0.53125 -1.578125zm4.742096 -1.84375q2.203125 -0.84375 4.0625 -0.84375q2.5 0 3.375 1.375q0.40625 0.65625 0.40625 1.421875q0 1.015625 -0.609375 2.0625q-0.609375 1.03125 -1.625 1.859375q-2.28125 1.859375 -5.34375 2.140625q0.140625 0 0.140625 0.4375q0.015625 0.453125 0.015625 1.0q0.015625 0.546875 0.015625 1.15625q0.015625 0.625 0.03125 1.1875q0.0625 1.375 0.078125 1.578125q0.03125 0.21875 0.03125 0.359375q0 0.640625 -0.421875 0.953125q-0.40625 0.328125 -1.0 0.328125q-0.09375 0 -0.5625 0l-0.296875 -15.140625q0.359375 -0.5 0.796875 -0.46875q0.4375 0.015625 0.703125 0.21875q0.265625 0.203125 0.203125 0.375zm4.9375 1.34375q-0.53125 -0.265625 -1.15625 -0.265625q-0.609375 0 -1.234375 0.140625q-1.390625 0.25 -2.03125 1.125q-0.265625 0.375 -0.265625 0.953125q0 0.078125 0 0.140625l0 2.6875q3.1875 -0.71875 4.703125 -2.125q0.78125 -0.75 0.78125 -1.5q0 -0.734375 -0.796875 -1.15625zm7.1973267 4.6875q1.53125 0 4.75 -1.453125q0.453125 0 0.671875 0.265625q0.234375 0.25 0.234375 0.65625q-0.84375 1.46875 -3.03125 2.203125q-2.171875 0.71875 -4.0625 0.234375q-2.234375 -0.578125 -2.734375 -2.5625q-0.046875 -0.390625 -0.046875 -1.015625q0 -0.640625 0.328125 -1.65625q0.328125 -1.015625 1.09375 -1.921875q0.78125 -0.921875 1.828125 -1.453125q1.0625 -0.53125 2.265625 -0.53125q1.15625 0 2.5625 0.78125q0.671875 0.375 1.09375 0.890625q0.4375 0.515625 0.4375 1.109375q0 0.15625 -0.015625 0.296875q-0.046875 1.375 -1.34375 1.71875q-0.5 0.15625 -1.1875 0.15625l-2.609375 -0.109375q-1.171875 0 -1.765625 0.484375q-0.296875 0.234375 -0.40625 0.625q0.34375 1.28125 1.9375 1.28125zm2.984375 -4.984375q-0.3125 -0.21875 -0.6875 -0.328125q-0.375 -0.109375 -0.625 -0.109375q-0.234375 0 -0.859375 0.1875q-0.609375 0.1875 -1.09375 0.40625q-1.03125 0.46875 -1.03125 0.53125q1.09375 0.09375 1.8125 0.09375q1.9375 0 2.578125 -0.3125q0.21875 -0.09375 0.21875 -0.109375q0 -0.140625 -0.3125 -0.359375z" fill-rule="nonzero"/><path fill="#ffffff" d="m34.730797 100.2044q-0.484375 -1.3125 -1.8125 -3.890625q-1.3124981 -2.59375 -1.7499981 -3.453125q-1.015625 -2.0625 -1.015625 -2.5q0 -0.484375 1.46875 -1.0625q0.7968731 1.46875 1.3437481 2.65625q0.5625 1.171875 1.109375 2.203125q1.28125 2.5 1.8125 3.125q-0.046875 0.03125 0.9375 -2.078125l1.5 -3.15625q1.203125 -2.546875 1.5625 -3.390625q0.796875 -0.9375 1.40625 -0.9375q0.8125 0 0.8125 1.21875l-5.25 11.53125q-0.5 0.328125 -1.15625 0.328125q-0.640625 0 -0.96875 -0.59375zm11.493469 -1.515625q1.53125 0 4.75 -1.453125q0.453125 0 0.671875 0.265625q0.234375 0.25 0.234375 0.65625q-0.84375 1.46875 -3.03125 2.203125q-2.171875 0.71875 -4.0625 0.234375q-2.234375 -0.578125 -2.734375 -2.5625q-0.046875 -0.390625 -0.046875 -1.015625q0 -0.640625 0.328125 -1.65625q0.328125 -1.015625 1.09375 -1.921875q0.78125 -0.921875 1.828125 -1.453125q1.0625 -0.53125 2.265625 -0.53125q1.15625 0 2.5625 0.78125q0.671875 0.375 1.09375 0.890625q0.4375 0.515625 0.4375 1.109375q0 0.15625 -0.015625 0.296875q-0.046875 1.375 -1.34375 1.71875q-0.5 0.15625 -1.1875 0.15625l-2.609375 -0.109375q-1.171875 0 -1.765625 0.484375q-0.296875 0.234375 -0.40625 0.625q0.34375 1.28125 1.9375 1.28125zm2.984375 -4.984375q-0.3125 -0.21875 -0.6875 -0.328125q-0.375 -0.109375 -0.625 -0.109375q-0.234375 0 -0.859375 0.1875q-0.609375 0.1875 -1.09375 0.40625q-1.03125 0.46875 -1.03125 0.53125q1.09375 0.09375 1.8125 0.09375q1.9375 0 2.578125 -0.3125q0.21875 -0.09375 0.21875 -0.109375q0 -0.140625 -0.3125 -0.359375zm3.3433228 -0.40625q-0.03125 -0.984375 -0.078125 -1.75q-0.03125 -0.78125 -0.046875 -1.140625q0 -0.359375 -0.3125 -1.96875q0.265625 -0.34375 0.46875 -0.609375q0.21875 -0.28125 0.703125 -0.28125q0.96875 0 1.359375 5.734375q0.171875 3.109375 0.171875 6.25q0 1.203125 -1.546875 1.203125l-0.515625 -0.046875q0 -1.296875 -0.0625 -2.765625q-0.046875 -1.46875 -0.078125 -2.546875q-0.015625 -1.09375 -0.0625 -2.078125zm3.073883 3.578125q0 -2.328125 2.015625 -3.765625q1.546875 -1.09375 3.75 -1.328125q0.125 0 0.546875 0q0.4375 0 1.171875 0.265625q1.65625 0.5625 2.265625 2.015625q0.25 0.578125 0.25 0.984375q0 0.390625 -0.015625 0.546875q0 2.4375 -1.890625 3.859375q-1.703125 1.28125 -4.21875 1.28125q-1.875 0 -2.875 -0.890625q-1.0 -0.90625 -1.0 -2.96875zm2.0 0.46875q0 0.90625 0.4375 1.1875q0.359375 0.234375 1.359375 0.234375q1.0 0 1.765625 -0.15625q0.765625 -0.15625 1.34375 -0.515625q1.203125 -0.765625 1.203125 -2.390625q0 -0.953125 -0.5 -1.546875q-0.53125 -0.609375 -1.359375 -0.609375q-0.6875 0.125 -1.375 0.265625q-0.671875 0.125 -1.234375 0.5q-1.25 0.8125 -1.640625 3.03125zm15.634766 0.734375q0.734375 -0.296875 1.484375 -0.5625q0.75 -0.28125 1.609375 -0.28125q0.875 0 0.875 0.78125q0 0.140625 -0.078125 0.4375q-0.0625 0.28125 -0.59375 0.59375q-0.53125 0.3125 -1.203125 0.5625q-0.671875 0.234375 -1.453125 0.4375q-0.78125 0.203125 -1.5 0.359375q-1.5625 0.3125 -2.234375 0.3125q-0.671875 0 -1.453125 -0.15625q-0.78125 -0.15625 -1.46875 -0.515625q-1.671875 -0.859375 -1.671875 -2.578125q0 -0.109375 0 -0.46875q0 -0.375 0.296875 -1.046875q0.3125 -0.671875 0.890625 -1.3125q0.578125 -0.65625 1.328125 -1.203125q1.59375 -1.140625 3.34375 -1.484375q0.640625 -0.125 1.046875 -0.125q0.40625 0 0.671875 0.015625q0.265625 0 0.578125 0.03125q0.328125 0.03125 0.59375 0.171875q0.671875 0.34375 0.671875 1.265625q0 0.640625 -0.78125 1.171875q-0.15625 0.109375 -0.78125 0.515625q-0.171875 -0.921875 -0.265625 -1.09375q-0.078125 -0.171875 -0.296875 -0.171875q-2.046875 0.453125 -3.546875 1.328125q-1.5625 0.921875 -1.5625 1.859375q0 0.109375 0.015625 0.25q0 0.96875 0.703125 1.34375q0.578125 0.328125 1.5625 0.328125q1.0 0 1.75 -0.234375q0.75 -0.25 1.46875 -0.53125zm6.555908 -6.671875q0.28125 3.765625 0.4375 8.296875q-0.171875 0.90625 -1.25 0.90625q-0.265625 0 -0.609375 -0.125q-0.328125 -0.125 -0.4375 -0.5l0 -8.578125l1.859375 0zm-2.40625 -2.015625q0 -1.09375 1.125 -1.09375q0.609375 0 1.109375 0.359375q0.125 0.359375 0.125 0.65625q0 0.296875 -0.234375 0.578125q-0.265625 0.3125 -0.6875 0.3125q-0.40625 0 -0.796875 -0.171875q-0.390625 -0.171875 -0.640625 -0.640625zm5.636444 9.203125l0.03125 -2.921875q0 -0.640625 -0.046875 -0.796875l-2.890625 0l-0.0625 -2.015625l2.75 0l0 -4.390625q0.09375 -0.296875 0.328125 -0.53125q0.359375 -0.359375 0.640625 -0.359375q0.28125 0 0.484375 0.0625q0.21875 0.0625 0.484375 0.453125q0.3125 1.3125 0.3125 3.78125q0 0.578125 0.015625 0.765625q0.21875 -0.03125 0.828125 -0.03125q0 0 0.953125 0q0.328125 0 1.03125 -0.078125l-0.09375 2.125l-2.640625 -0.078125l0.09375 6.140625q-0.625 0.265625 -0.9375 0.265625q-1.28125 0 -1.28125 -2.390625zm9.355164 8.765625q-0.5 1.078125 -1.265625 1.078125q-0.484375 0 -0.6875 -0.40625q-0.203125 -0.390625 -0.046875 -0.84375q0.390625 -1.6875 1.140625 -3.875q0.765625 -2.171875 0.953125 -2.6875q-0.484375 -0.5 -1.890625 -2.4375q-2.859375 -4.015625 -2.859375 -4.53125q0 -0.171875 0.125 -0.296875l0.9375 -0.96875q1.734375 1.625 4.0625 4.84375q0.609375 0.796875 0.609375 0.828125q0.0625 -0.1875 0.28125 -0.734375q0.21875 -0.546875 0.359375 -0.875q0.140625 -0.34375 0.375 -0.921875q0.625 -1.515625 1.78125 -4.0q0.359375 -0.140625 0.625 -0.140625q0.625 0 0.953125 0.375q0.140625 0.21875 0.140625 0.421875q0 0.1875 -0.046875 0.375l-5.546875 14.796875z" fill-rule="nonzero"/><path fill="#ffffff" d="m167.77428 182.76l0 0c0.6001129 -2.8092651 3.363968 -4.600113 6.173218 -4.0l0 0c1.34906 0.28819275 2.5283813 1.1004791 3.2785187 2.258194c0.7501526 1.1576996 1.0096741 2.565979 0.7214813 3.915039l0 0c-0.6001129 2.8092499 -3.363968 4.600113 -6.173218 4.0l0 0c-2.8092651 -0.6001282 -4.600128 -3.363968 -4.0 -6.173233z" fill-rule="evenodd"/><path fill="#000000" fill-opacity="0.0" d="m173.9475 178.76c0 -11.70079 -4.2362213 -23.40158 -8.472443 -23.40158" fill-rule="evenodd"/><path stroke="#000000" stroke-width="1.0" stroke-linejoin="round" stroke-linecap="butt" stroke-dasharray="1.0,3.0" d="m173.9475 178.76c0 -11.70079 -4.2362213 -23.40158 -8.472443 -23.40158" fill-rule="evenodd"/><path fill="#000000" fill-opacity="0.0" d="m148.21817 189.48566c0 -17.070877 7.574814 -34.14174 15.149612 -34.14174" fill-rule="evenodd"/><path stroke="#000000" stroke-width="1.0" stroke-linejoin="round" stroke-linecap="butt" stroke-dasharray="1.0,3.0" d="m148.21817 189.48566c0 -17.070877 7.574814 -34.14174 15.149612 -34.14174" fill-rule="evenodd"/><path fill="#000000" fill-opacity="0.0" d="m2.0301838 2.0905511l264.37796 -0.031496048l0 264.97638l-264.37796 0.03149414z" fill-rule="evenodd"/><path stroke="#000000" stroke-width="2.0" stroke-linejoin="round" stroke-linecap="butt" d="m2.0301838 2.0905511l264.37796 -0.031496048l0 264.97638l-264.37796 0.03149414z" fill-rule="evenodd"/></g></svg>