<svg version="1.1" viewBox="0.0 0.0 370.62467191601047 370.68766404199476" fill="none" stroke="none" stroke-linecap="square" stroke-miterlimit="10" xmlns:xlink="http://www.w3.org/1999/xlink" xmlns="http://www.w3.org/2000/svg"><clipPath id="p.0"><path d="m0 0l370.62466 0l0 370.68765l-370.62466 0l0 -370.68765z" clip-rule="nonzero"/></clipPath><g clip-path="url(#p.0)"><path fill="#000000" fill-opacity="0.0" d="m0 0l370.62466 0l0 370.68765l-370.62466 0z" fill-rule="evenodd"/><path fill="#000000" fill-opacity="0.0" d="m38.475067 186.49542l146.83464 -113.18542" fill-rule="evenodd"/><path stroke="#999999" stroke-width="1.0" stroke-linejoin="round" stroke-linecap="butt" d="m38.475067 186.49542l146.83464 -113.18542" fill-rule="evenodd"/><path fill="#000000" fill-opacity="0.0" d="m185.30971 73.310005l149.95277 113.18542" fill-rule="evenodd"/><path stroke="#999999" stroke-width="1.0" stroke-linejoin="round" stroke-linecap="butt" d="m185.30971 73.310005l149.95277 113.18542" fill-rule="evenodd"/><defs><linearGradient id="p.1" gradientUnits="userSpaceOnUse" gradientTransform="matrix(19.170221528004888 0.0 0.0 19.170221528004888 0.0 0.0)" spreadMethod="pad" x1="0.08160075039597416" y1="0.08317431722719813" x2="0.08153135745498817" y2="19.253395845106493"><stop offset="0.0" stop-color="#b3b3b3"/><stop offset="0.47" stop-color="#ffffff"/><stop offset="0.69" stop-color="#ffffff"/><stop offset="1.0" stop-color="#b3b3b3"/></linearGradient></defs><path fill="url(#p.1)" d="m1.5643045 1.5958005l367.49606 0l0 367.49606l-367.49606 0z" fill-rule="evenodd"/><path stroke="#000000" stroke-width="3.0" stroke-linejoin="round" stroke-linecap="butt" d="m1.5643045 1.5958005l367.49606 0l0 367.49606l-367.49606 0z" fill-rule="evenodd"/><path fill="#000000" fill-opacity="0.0" d="m31.55171 127.1706l296.7874 0l0 116.34646l-296.7874 0z" fill-rule="evenodd"/><path fill="#000000" d="m42.78346 212.9706l0 -41.484375l6.328125 0l0 6.28125q2.421875 -4.40625 4.46875 -5.8125q2.046875 -1.40625 4.515625 -1.40625q3.546875 0 7.218754 2.265625l-2.4218788 6.515625q-2.578125 -1.515625 -5.15625 -1.515625q-2.296875 0 -4.140625 1.390625q-1.828125 1.375 -2.609375 3.84375q-1.171875 3.75 -1.171875 8.203125l0 21.71875l-7.03125 0z" fill-rule="nonzero"/><path fill="#4a86e8" d="m97.18971 190.50185l0 -6.71875l24.265625 -0.03125l0 21.25q-5.59375 4.453125 -11.53125 6.703125q-5.9375 2.25 -12.1875 2.25q-8.4375 0 -15.328125 -3.609375q-6.890625 -3.625 -10.40625 -10.453125q-3.515625 -6.84375 -3.515625 -15.28125q0 -8.359375 3.484375 -15.609375q3.5 -7.25 10.0625 -10.765625q6.5625 -3.515625 15.125 -3.515625q6.203125 0 11.21875 2.015625q5.03125 2.015625 7.875 5.609375q2.859375 3.59375 4.34375 9.375l-6.84375 1.875q-1.28125 -4.375 -3.203125 -6.875q-1.90625 -2.5 -5.46875 -4.0q-3.546875 -1.515625 -7.890625 -1.515625q-5.1875 0 -8.984375 1.59375q-3.78125 1.578125 -6.109375 4.15625q-2.328125 2.578125 -3.609375 5.65625q-2.1875 5.3125 -2.1875 11.53125q0 7.65625 2.625 12.8125q2.640625 5.15625 7.671875 7.65625q5.046875 2.5 10.71875 2.5q4.921875 0 9.609375 -1.890625q4.6875 -1.90625 7.109375 -4.046875l0 -10.671875l-16.84375 0z" fill-rule="nonzero"/><path fill="#ff0000" d="m129.10378 192.2206q0 -11.515625 6.40625 -17.0625q5.359375 -4.609375 13.046875 -4.609375q8.5625 0 13.984375 5.609375q5.4375 5.59375 5.4375 15.484375q0 8.0 -2.40625 12.59375q-2.40625 4.59375 -7.0 7.140625q-4.578125 2.53125 -10.015625 2.53125q-8.703125 0 -14.078125 -5.578125q-5.375 -5.59375 -5.375 -16.109375zm7.234375 0q0 7.96875 3.46875 11.9375q3.484375 3.96875 8.75 3.96875q5.234375 0 8.703125 -3.984375q3.484375 -3.984375 3.484375 -12.15625q0 -7.6875 -3.5 -11.65625q-3.484375 -3.96875 -8.6875 -3.96875q-5.265625 0 -8.75 3.953125q-3.46875 3.9375 -3.46875 11.90625z" fill-rule="nonzero"/><path fill="#f1c232" d="m173.59596 192.2206q0 -11.515625 6.40625 -17.0625q5.359375 -4.609375 13.046875 -4.609375q8.5625 0 13.984375 5.609375q5.4375 5.59375 5.4375 15.484375q0 8.0 -2.40625 12.59375q-2.40625 4.59375 -7.0 7.140625q-4.578125 2.53125 -10.015625 2.53125q-8.703125 0 -14.078125 -5.578125q-5.375 -5.59375 -5.375 -16.109375zm7.234375 0q0 7.96875 3.46875 11.9375q3.484375 3.96875 8.75 3.96875q5.234375 0 8.703125 -3.984375q3.484375 -3.984375 3.484375 -12.15625q0 -7.6875 -3.5 -11.65625q-3.484375 -3.96875 -8.6875 -3.96875q-5.265625 0 -8.75 3.953125q-3.46875 3.9375 -3.46875 11.90625z" fill-rule="nonzero"/><path fill="#4a86e8" d="m219.41628 216.4081l6.84375 1.015625q0.421875 3.171875 2.375 4.609375q2.625 1.953125 7.15625 1.953125q4.875 0 7.53125 -1.953125q2.65625 -1.953125 3.59375 -5.46875q0.546875 -2.140625 0.515625 -9.03125q-4.609375 5.4375 -11.484375 5.4375q-8.5625 0 -13.25 -6.171875q-4.6875 -6.171875 -4.6875 -14.8125q0 -5.9375 2.140625 -10.953125q2.15625 -5.015625 6.234375 -7.75q4.09375 -2.734375 9.59375 -2.734375q7.34375 0 12.109375 5.9375l0 -5.0l6.484375 0l0 35.859375q0 9.6875 -1.96875 13.734375q-1.96875 4.046875 -6.25 6.390625q-4.28125 2.34375 -10.53125 2.34375q-7.421875 0 -12.0 -3.34375q-4.5625 -3.34375 -4.40625 -10.0625zm5.828125 -24.921875q0 8.15625 3.234375 11.90625q3.25 3.75 8.125 3.75q4.84375 0 8.125 -3.71875q3.28125 -3.734375 3.28125 -11.703125q0 -7.625 -3.375 -11.484375q-3.375 -3.875 -8.140625 -3.875q-4.6875 0 -7.96875 3.8125q-3.28125 3.8125 -3.28125 11.3125z" fill-rule="nonzero"/><path fill="#6aa84f" d="m265.04907 212.9706l0 -57.265625l7.03125 0l0 57.265625l-7.03125 0z" fill-rule="nonzero"/><path fill="#ff0000" d="m311.3694 199.61122l7.265625 0.890625q-1.71875 6.375 -6.375 9.890625q-4.640625 3.515625 -11.859375 3.515625q-9.109375 0 -14.4375 -5.609375q-5.328125 -5.609375 -5.328125 -15.71875q0 -10.46875 5.390625 -16.25q5.390625 -5.78125 13.984375 -5.78125q8.3125 0 13.578125 5.671875q5.28125 5.65625 5.28125 15.921875q0 0.625 -0.03125 1.875l-30.9375 0q0.390625 6.84375 3.859375 10.484375q3.484375 3.625 8.671875 3.625q3.875 0 6.609375 -2.03125q2.734375 -2.03125 4.328125 -6.484375zm-23.078125 -11.375l23.15625 0q-0.46875 -5.234375 -2.65625 -7.84375q-3.359375 -4.0625 -8.703125 -4.0625q-4.84375 0 -8.15625 3.25q-3.296875 3.234375 -3.640625 8.65625z" fill-rule="nonzero"/><path fill="#000000" fill-opacity="0.0" d="m131.41434 96.114426l120.53543 0l0 58.173233l-120.53543 0z" fill-rule="evenodd"/><path fill="#4a86e8" d="m153.71681 126.85005l0 -2.6875l9.703125 -0.015625l0 8.5q-2.234375 1.78125 -4.609375 2.6875q-2.375 0.890625 -4.875 0.890625q-3.375 0 -6.140625 -1.4375q-2.75 -1.453125 -4.15625 -4.1875q-1.40625 -2.734375 -1.40625 -6.109375q0 -3.34375 1.390625 -6.234375q1.40625 -2.90625 4.03125 -4.3125q2.625 -1.40625 6.046875 -1.40625q2.484375 0 4.484375 0.8125q2.015625 0.796875 3.15625 2.234375q1.140625 1.4375 1.734375 3.75l-2.734375 0.75q-0.515625 -1.75 -1.28125 -2.75q-0.765625 -1.0 -2.1875 -1.59375q-1.421875 -0.609375 -3.15625 -0.609375q-2.078125 0 -3.59375 0.640625q-1.515625 0.625 -2.453125 1.65625q-0.921875 1.03125 -1.4375 2.265625q-0.875 2.125 -0.875 4.609375q0 3.0625 1.046875 5.125q1.0625 2.0625 3.078125 3.0625q2.015625 1.0 4.28125 1.0q1.96875 0 3.84375 -0.75q1.875 -0.765625 2.84375 -1.625l0 -4.265625l-6.734375 0z" fill-rule="nonzero"/><path fill="#ff0000" d="m166.48244 127.53755q0 -4.609375 2.5625 -6.828125q2.140625 -1.84375 5.21875 -1.84375q3.421875 0 5.59375 2.25q2.171875 2.234375 2.171875 6.1875q0 3.203125 -0.96875 5.046875q-0.953125 1.828125 -2.796875 2.84375q-1.828125 1.015625 -4.0 1.015625q-3.484375 0 -5.640625 -2.234375q-2.140625 -2.234375 -2.140625 -6.4375zm2.890625 0q0 3.1875 1.390625 4.78125q1.390625 1.578125 3.5 1.578125q2.09375 0 3.484375 -1.59375q1.390625 -1.59375 1.390625 -4.859375q0 -3.078125 -1.40625 -4.65625q-1.390625 -1.59375 -3.46875 -1.59375q-2.109375 0 -3.5 1.578125q-1.390625 1.578125 -1.390625 4.765625z" fill-rule="nonzero"/><path fill="#f1c232" d="m184.27931 127.53755q0 -4.609375 2.5625 -6.828125q2.140625 -1.84375 5.21875 -1.84375q3.421875 0 5.59375 2.25q2.171875 2.234375 2.171875 6.1875q0 3.203125 -0.96875 5.046875q-0.953125 1.828125 -2.796875 2.84375q-1.828125 1.015625 -4.0 1.015625q-3.484375 0 -5.640625 -2.234375q-2.140625 -2.234375 -2.140625 -6.4375zm2.890625 0q0 3.1875 1.390625 4.78125q1.390625 1.578125 3.5 1.578125q2.09375 0 3.484375 -1.59375q1.390625 -1.59375 1.390625 -4.859375q0 -3.078125 -1.40625 -4.65625q-1.390625 -1.59375 -3.46875 -1.59375q-2.109375 0 -3.5 1.578125q-1.390625 1.578125 -1.390625 4.765625z" fill-rule="nonzero"/><path fill="#4a86e8" d="m202.60744 137.20943l2.734375 0.40625q0.171875 1.265625 0.953125 1.84375q1.046875 0.78125 2.859375 0.78125q1.953125 0 3.015625 -0.78125q1.0625 -0.78125 1.4375 -2.1875q0.21875 -0.859375 0.203125 -3.609375q-1.84375 2.171875 -4.59375 2.171875q-3.421875 0 -5.296875 -2.46875q-1.875 -2.46875 -1.875 -5.921875q0 -2.375 0.859375 -4.375q0.859375 -2.015625 2.484375 -3.109375q1.640625 -1.09375 3.84375 -1.09375q2.9375 0 4.84375 2.375l0 -2.0l2.59375 0l0 14.34375q0 3.875 -0.796875 5.484375q-0.78125 1.625 -2.5 2.5625q-1.703125 0.9375 -4.203125 0.9375q-2.96875 0 -4.796875 -1.34375q-1.828125 -1.328125 -1.765625 -4.015625zm2.328125 -9.96875q0 3.265625 1.296875 4.765625q1.296875 1.5 3.25 1.5q1.9375 0 3.25 -1.484375q1.3125 -1.5 1.3125 -4.6875q0 -3.046875 -1.359375 -4.59375q-1.34375 -1.546875 -3.25 -1.546875q-1.875 0 -3.1875 1.53125q-1.3125 1.515625 -1.3125 4.515625z" fill-rule="nonzero"/><path fill="#6aa84f" d="m220.85744 135.83443l0 -22.90625l2.8125 0l0 22.90625l-2.8125 0z" fill-rule="nonzero"/><path fill="#ff0000" d="m239.38869 130.49068l2.90625 0.359375q-0.6875 2.546875 -2.546875 3.953125q-1.859375 1.40625 -4.75 1.40625q-3.640625 0 -5.78125 -2.234375q-2.125 -2.25 -2.125 -6.296875q0 -4.1875 2.15625 -6.5q2.15625 -2.3125 5.59375 -2.3125q3.328125 0 5.4375 2.265625q2.109375 2.265625 2.109375 6.375q0 0.25 -0.015625 0.75l-12.375 0q0.15625 2.734375 1.546875 4.1875q1.390625 1.453125 3.46875 1.453125q1.546875 0 2.640625 -0.8125q1.09375 -0.8125 1.734375 -2.59375zm-9.234375 -4.546875l9.265625 0q-0.1875 -2.09375 -1.0625 -3.140625q-1.34375 -1.625 -3.484375 -1.625q-1.9375 0 -3.265625 1.296875q-1.3125 1.296875 -1.453125 3.46875z" fill-rule="nonzero"/><path fill="#000000" fill-opacity="0.0" d="m182.58662 153.4078l0 0c0 -5.4358673 4.4066467 -9.842514 9.842529 -9.842514l0 0c2.6103973 0 5.1138763 1.036972 6.959717 2.8827972c1.8458252 1.8458405 2.8827972 4.3493195 2.8827972 6.959717l0 0c0 5.4358673 -4.4066467 9.842514 -9.842514 9.842514l0 0c-5.4358826 0 -9.842529 -4.4066467 -9.842529 -9.842514z" fill-rule="evenodd"/><path stroke="#000000" stroke-width="1.0" stroke-linejoin="round" stroke-linecap="butt" d="m182.58662 153.4078l0 0c0 -5.4358673 4.4066467 -9.842514 9.842529 -9.842514l0 0c2.6103973 0 5.1138763 1.036972 6.959717 2.8827972c1.8458252 1.8458405 2.8827972 4.3493195 2.8827972 6.959717l0 0c0 5.4358673 -4.4066467 9.842514 -9.842514 9.842514l0 0c-5.4358826 0 -9.842529 -4.4066467 -9.842529 -9.842514z" fill-rule="evenodd"/></g></svg>