<svg version="1.1" viewBox="0.0 0.0 341.1679790026247 185.33333333333334" fill="none" stroke="none" stroke-linecap="square" stroke-miterlimit="10" xmlns:xlink="http://www.w3.org/1999/xlink" xmlns="http://www.w3.org/2000/svg"><clipPath id="p.0"><path d="m0 0l341.16797 0l0 185.33333l-341.16797 0l0 -185.33333z" clip-rule="nonzero"/></clipPath><g clip-path="url(#p.0)"><path fill="#000000" fill-opacity="0.0" d="m0 0l341.16797 0l0 185.33333l-341.16797 0z" fill-rule="evenodd"/><path fill="#ffff00" d="m130.3418 11.879437l0 0c0 -4.76337 3.8614655 -8.624845 8.624832 -8.624845l189.24629 0c2.287445 0 4.4812317 0.9086864 6.098694 2.5261586c1.6174622 1.6174722 2.5261536 3.811235 2.5261536 6.0986857l0 34.498344c0 4.7633705 -3.8614807 8.624844 -8.624847 8.624844l-189.24629 0c-4.7633667 0 -8.624832 -3.861473 -8.624832 -8.624844z" fill-rule="evenodd"/><path stroke="#b7b7b7" stroke-width="4.0" stroke-linejoin="round" stroke-linecap="butt" d="m130.3418 11.879437l0 0c0 -4.76337 3.8614655 -8.624845 8.624832 -8.624845l189.24629 0c2.287445 0 4.4812317 0.9086864 6.098694 2.5261586c1.6174622 1.6174722 2.5261536 3.811235 2.5261536 6.0986857l0 34.498344c0 4.7633705 -3.8614807 8.624844 -8.624847 8.624844l-189.24629 0c-4.7633667 0 -8.624832 -3.861473 -8.624832 -8.624844z" fill-rule="evenodd"/><path fill="#000000" d="m195.39388 25.048607l0 -1.140625l1.484375 -0.265625l0 -10.4375l-1.484375 -0.265625l0 -1.15625l1.484375 0l2.390625 0l4.28125 10.0625l0.046875 0l4.140625 -10.0625l4.0 0l0 1.15625l-1.484375 0.265625l0 10.4375l1.484375 0.265625l0 1.140625l-4.765625 0l0 -1.140625l1.5625 -0.265625l0 -3.84375l0 -5.5625l-0.046875 -0.015625l-4.3125 10.359375l-1.1875 0l-4.453125 -10.328125l-0.046875 0l0.0625 5.546875l0 3.84375l1.609375 0.265625l0 1.140625l-4.765625 0zm22.367523 0.1875q-1.375 0 -2.390625 -0.625q-1.0 -0.625 -1.5625 -1.734375q-0.546875 -1.109375 -0.546875 -2.5625l0 -0.40625q0 -1.40625 0.578125 -2.5q0.578125 -1.109375 1.53125 -1.75q0.96875 -0.640625 2.109375 -0.640625q1.328125 0 2.21875 0.546875q0.90625 0.53125 1.359375 1.53125q0.453125 0.984375 0.453125 2.328125l0 1.109375l-6.390625 0l-0.03125 0.046875q0.015625 0.953125 0.328125 1.6875q0.328125 0.734375 0.921875 1.15625q0.59375 0.40625 1.421875 0.40625q0.90625 0 1.59375 -0.25q0.6875 -0.265625 1.1875 -0.71875l0.703125 1.171875q-0.53125 0.5 -1.40625 0.859375q-0.859375 0.34375 -2.078125 0.34375zm-2.578125 -6.09375l4.53125 0l0 -0.25q0 -0.703125 -0.25 -1.265625q-0.25 -0.5625 -0.75 -0.875q-0.484375 -0.328125 -1.234375 -0.328125q-0.59375 0 -1.09375 0.359375q-0.484375 0.34375 -0.8125 0.953125q-0.3125 0.59375 -0.421875 1.359375l0.03125 0.046875zm11.049301 6.09375q-1.53125 0 -2.34375 -0.75q-0.796875 -0.75 -0.796875 -2.109375q0 -1.40625 1.140625 -2.25q1.15625 -0.859375 3.203125 -0.859375l1.75 0l0 -0.96875q0 -0.890625 -0.546875 -1.375q-0.53125 -0.5 -1.515625 -0.5q-0.625 0 -1.078125 0.15625q-0.453125 0.140625 -0.828125 0.40625l-0.1875 1.375l-1.390625 0l0 -2.265625q0.671875 -0.53125 1.546875 -0.796875q0.890625 -0.28125 1.953125 -0.28125q1.796875 0 2.8125 0.859375q1.03125 0.84375 1.03125 2.4375l0 4.75q0 0.1875 0 0.375q0.015625 0.171875 0.03125 0.359375l0.953125 0.109375l0 1.140625l-2.578125 0q-0.078125 -0.40625 -0.125 -0.71875q-0.046875 -0.3125 -0.0625 -0.640625q-0.53125 0.671875 -1.3125 1.109375q-0.765625 0.4375 -1.65625 0.4375zm0.265625 -1.5q0.890625 0 1.625 -0.421875q0.75 -0.4375 1.0625 -1.03125l0 -1.796875l-1.828125 0q-1.234375 0 -1.859375 0.59375q-0.609375 0.59375 -0.609375 1.328125q0 0.640625 0.390625 0.984375q0.40625 0.34375 1.21875 0.34375zm6.8588257 1.3125l0 -1.140625l1.484375 -0.265625l0 -7.03125l-1.484375 -0.265625l0 -1.15625l3.09375 0l0.125 1.46875q0.484375 -0.78125 1.21875 -1.203125q0.75 -0.4375 1.703125 -0.4375q1.59375 0 2.46875 0.9375q0.875 0.921875 0.875 2.875l0 4.8125l1.484375 0.265625l0 1.140625l-4.765625 0l0 -1.140625l1.484375 -0.265625l0 -4.78125q0 -1.296875 -0.515625 -1.84375q-0.515625 -0.546875 -1.5625 -0.546875q-0.78125 0 -1.375 0.375q-0.59375 0.375 -0.953125 1.015625l0 5.78125l1.484375 0.265625l0 1.140625l-4.765625 0zm12.171555 0l0 -1.140625l1.484375 -0.265625l0 -7.03125l-1.484375 -0.265625l0 -1.15625l3.28125 0l0 8.453125l1.484375 0.265625l0 1.140625l-4.765625 0zm1.390625 -12.28125l0 -1.921875l1.890625 0l0 1.921875l-1.890625 0zm4.611267 12.28125l0 -1.140625l1.484375 -0.265625l0 -7.03125l-1.484375 -0.265625l0 -1.15625l3.09375 0l0.125 1.46875q0.484375 -0.78125 1.21875 -1.203125q0.75001526 -0.4375 1.7031403 -0.4375q1.59375 0 2.46875 0.9375q0.875 0.921875 0.875 2.875l0 4.8125l1.484375 0.265625l0 1.140625l-4.765625 0l0 -1.140625l1.484375 -0.265625l0 -4.78125q0 -1.296875 -0.515625 -1.84375q-0.515625 -0.546875 -1.5625 -0.546875q-0.78125 0 -1.3750153 0.375q-0.59375 0.375 -0.953125 1.015625l0 5.78125l1.4843903 0.265625l0 1.140625l-4.7656403 0zm16.471054 3.984375q-0.703125 0 -1.546875 -0.203125q-0.828125 -0.1875 -1.453125 -0.53125l0.46875 -1.390625q0.5 0.265625 1.1875 0.4375q0.6875 0.171875 1.328125 0.171875q1.203125 0 1.765625 -0.671875q0.5625 -0.671875 0.5625 -1.921875l0 -0.9375q-0.484375 0.609375 -1.171875 0.9375q-0.671875 0.3125 -1.546875 0.3125q-1.203125 0 -2.078125 -0.59375q-0.859375 -0.59375 -1.34375 -1.65625q-0.46875 -1.078125 -0.46875 -2.5l0 -0.1875q0 -1.578125 0.46875 -2.765625q0.484375 -1.203125 1.34375 -1.859375q0.875 -0.65625 2.109375 -0.65625q0.921875 0 1.625 0.359375q0.703125 0.359375 1.171875 1.046875l0.171875 -1.234375l1.5 0l0 9.734375q0 1.265625 -0.484375 2.1875q-0.46875 0.921875 -1.390625 1.421875q-0.90625 0.5 -2.21875 0.5zm0.046875 -5.25q0.8125 0 1.359375 -0.359375q0.546875 -0.375 0.90625 -1.046875l0 -4.546875q-0.359375 -0.625 -0.921875 -0.984375q-0.546875 -0.375 -1.328125 -0.375q-0.859375 0 -1.4375 0.5q-0.5625 0.484375 -0.84375 1.34375q-0.28125 0.859375 -0.28125 1.984375l0 0.1875q0 1.5 0.625 2.40625q0.640625 0.890625 1.921875 0.890625zm3.78125 -7.125l-0.703125 -1.46875l2.203125 0l0 1.15625l-1.5 0.3125z" fill-rule="nonzero"/><path fill="#000000" d="m190.27243 47.048607l0 -1.140625l1.484375 -0.265625l0 -10.4375l-1.484375 -0.265625l0 -1.15625l1.484375 0l4.234375 0q2.078125 0 3.25 0.90625q1.171875 0.890625 1.171875 2.6875q0 0.875 -0.5625 1.578125q-0.5625 0.703125 -1.46875 1.03125q0.796875 0.171875 1.359375 0.65625q0.578125 0.46875 0.890625 1.15625q0.328125 0.6875 0.328125 1.5q0 1.828125 -1.1875 2.796875q-1.1875 0.953125 -3.21875 0.953125l-6.28125 0zm3.28125 -1.40625l3.0 0q1.234375 0 1.90625 -0.59375q0.6875 -0.609375 0.6875 -1.71875q0 -1.171875 -0.578125 -1.828125q-0.5625 -0.671875 -1.734375 -0.671875l-3.28125 0l0 4.8125zm0 -6.21875l2.90625 0q0.96875 0 1.5625 -0.5625q0.59375 -0.5625 0.59375 -1.515625q0 -1.078125 -0.671875 -1.609375q-0.671875 -0.53125 -1.953125 -0.53125l-2.4375 0l0 4.21875zm13.199005 7.8125q-1.375 0 -2.390625 -0.625q-1.0 -0.625 -1.5625 -1.734375q-0.546875 -1.109375 -0.546875 -2.5625l0 -0.40625q0 -1.40625 0.578125 -2.5q0.578125 -1.109375 1.53125 -1.75q0.96875 -0.640625 2.109375 -0.640625q1.328125 0 2.21875 0.546875q0.90625 0.53125 1.359375 1.53125q0.453125 0.984375 0.453125 2.328125l0 1.109375l-6.390625 0l-0.03125 0.046875q0.015625 0.953125 0.328125 1.6875q0.328125 0.734375 0.921875 1.15625q0.59375 0.40625 1.421875 0.40625q0.90625 0 1.59375 -0.25q0.6875 -0.265625 1.1875 -0.71875l0.703125 1.171875q-0.53125 0.5 -1.40625 0.859375q-0.859375 0.34375 -2.078125 0.34375zm-2.578125 -6.09375l4.53125 0l0 -0.25q0 -0.703125 -0.25 -1.265625q-0.25 -0.5625 -0.75 -0.875q-0.484375 -0.328125 -1.234375 -0.328125q-0.59375 0 -1.09375 0.359375q-0.484375 0.34375 -0.8125 0.953125q-0.3125 0.59375 -0.421875 1.359375l0.03125 0.046875zm7.6313324 5.90625l0 -1.140625l1.484375 -0.265625l0 -11.390625l-1.484375 -0.25l0 -1.15625l3.28125 0l0 12.796875l1.484375 0.265625l0 1.140625l-4.765625 0zm10.31308 0.1875q-1.359375 0 -2.359375 -0.640625q-0.984375 -0.640625 -1.53125 -1.765625q-0.53125 -1.140625 -0.53125 -2.59375l0 -0.203125q0 -1.46875 0.53125 -2.59375q0.546875 -1.140625 1.53125 -1.78125q1.0 -0.640625 2.34375 -0.640625q1.375 0 2.359375 0.640625q0.984375 0.640625 1.515625 1.78125q0.546875 1.125 0.546875 2.59375l0 0.203125q0 1.453125 -0.546875 2.59375q-0.53125 1.140625 -1.515625 1.78125q-0.984375 0.625 -2.34375 0.625zm0 -1.40625q0.859375 0 1.4375 -0.46875q0.578125 -0.46875 0.875 -1.28125q0.296875 -0.8125 0.296875 -1.84375l0 -0.203125q0 -1.046875 -0.296875 -1.859375q-0.296875 -0.8125 -0.890625 -1.28125q-0.578125 -0.46875 -1.4375 -0.46875q-0.859375 0 -1.4375 0.46875q-0.578125 0.46875 -0.875 1.28125q-0.296875 0.8125 -0.296875 1.859375l0 0.203125q0 1.03125 0.296875 1.84375q0.296875 0.8125 0.875 1.28125q0.59375 0.46875 1.453125 0.46875zm5.7859497 1.21875l0 -1.140625l1.484375 -0.265625l0 -7.03125l-1.484375 -0.265625l0 -1.15625l3.09375 0l0.125 1.46875q0.484375 -0.78125 1.21875 -1.203125q0.75 -0.4375 1.703125 -0.4375q1.59375 0 2.46875 0.9375q0.875 0.921875 0.875 2.875l0 4.8125l1.484375 0.265625l0 1.140625l-4.765625 0l0 -1.140625l1.484375 -0.265625l0 -4.78125q0 -1.296875 -0.515625 -1.84375q-0.515625 -0.546875 -1.5625 -0.546875q-0.78125 0 -1.375 0.375q-0.59375 0.375 -0.953125 1.015625l0 5.78125l1.484375 0.265625l0 1.140625l-4.765625 0zm16.471039 3.984375q-0.703125 0 -1.546875 -0.203125q-0.828125 -0.1875 -1.453125 -0.53125l0.46875 -1.390625q0.5 0.265625 1.1875 0.4375q0.6875 0.171875 1.328125 0.171875q1.203125 0 1.765625 -0.671875q0.5625 -0.671875 0.5625 -1.921875l0 -0.9375q-0.484375 0.609375 -1.171875 0.9375q-0.671875 0.3125 -1.546875 0.3125q-1.203125 0 -2.078125 -0.59375q-0.859375 -0.59375 -1.34375 -1.65625q-0.46875 -1.078125 -0.46875 -2.5l0 -0.1875q0 -1.578125 0.46875 -2.765625q0.484375 -1.203125 1.34375 -1.859375q0.875 -0.65625 2.109375 -0.65625q0.921875 0 1.625 0.359375q0.703125 0.359375 1.171875 1.046875l0.171875 -1.234375l1.5 0l0 9.734375q0 1.265625 -0.484375 2.1875q-0.46875 0.921875 -1.390625 1.421875q-0.90625 0.5 -2.21875 0.5zm0.046875 -5.25q0.8125 0 1.359375 -0.359375q0.546875 -0.375 0.90625 -1.046875l0 -4.546875q-0.359375 -0.625 -0.921875 -0.984375q-0.546875 -0.375 -1.328125 -0.375q-0.859375 0 -1.4375 0.5q-0.5625 0.484375 -0.84375 1.34375q-0.28125 0.859375 -0.28125 1.984375l0 0.1875q0 1.5 0.625 2.40625q0.640625 0.890625 1.921875 0.890625zm3.78125 -7.125l-0.703125 -1.46875l2.203125 0l0 1.15625l-1.5 0.3125zm2.320938 8.390625l0 -1.140625l1.484375 -0.265625l0 -7.03125l-1.484375 -0.265625l0 -1.15625l3.28125 0l0 8.453125l1.484375 0.265625l0 1.140625l-4.765625 0zm1.390625 -12.28125l0 -1.921875l1.890625 0l0 1.921875l-1.890625 0zm4.611267 12.28125l0 -1.140625l1.484375 -0.265625l0 -7.03125l-1.484375 -0.265625l0 -1.15625l3.09375 0l0.125 1.46875q0.484375 -0.78125 1.21875 -1.203125q0.75 -0.4375 1.703125 -0.4375q1.59375 0 2.46875 0.9375q0.875 0.921875 0.875 2.875l0 4.8125l1.484375 0.265625l0 1.140625l-4.765625 0l0 -1.140625l1.484375 -0.265625l0 -4.78125q0 -1.296875 -0.515625 -1.84375q-0.515625 -0.546875 -1.5625 -0.546875q-0.78125 0 -1.375 0.375q-0.59375 0.375 -0.953125 1.015625l0 5.78125l1.484375 0.265625l0 1.140625l-4.765625 0zm16.471039 3.984375q-0.703125 0 -1.546875 -0.203125q-0.828125 -0.1875 -1.453125 -0.53125l0.46875 -1.390625q0.5 0.265625 1.1875 0.4375q0.6875 0.171875 1.328125 0.171875q1.203125 0 1.765625 -0.671875q0.5625 -0.671875 0.5625 -1.921875l0 -0.9375q-0.484375 0.609375 -1.171875 0.9375q-0.671875 0.3125 -1.546875 0.3125q-1.203125 0 -2.078125 -0.59375q-0.859375 -0.59375 -1.34375 -1.65625q-0.46875 -1.078125 -0.46875 -2.5l0 -0.1875q0 -1.578125 0.46875 -2.765625q0.484375 -1.203125 1.34375 -1.859375q0.875 -0.65625 2.109375 -0.65625q0.921875 0 1.625 0.359375q0.703125 0.359375 1.171875 1.046875l0.171875 -1.234375l1.5 0l0 9.734375q0 1.265625 -0.484375 2.1875q-0.46875 0.921875 -1.390625 1.421875q-0.90625 0.5 -2.21875 0.5zm0.046875 -5.25q0.8125 0 1.359375 -0.359375q0.546875 -0.375 0.90625 -1.046875l0 -4.546875q-0.359375 -0.625 -0.921875 -0.984375q-0.546875 -0.375 -1.328125 -0.375q-0.859375 0 -1.4375 0.5q-0.5625 0.484375 -0.84375 1.34375q-0.28125 0.859375 -0.28125 1.984375l0 0.1875q0 1.5 0.625 2.40625q0.640625 0.890625 1.921875 0.890625zm3.78125 -7.125l-0.703125 -1.46875l2.203125 0l0 1.15625l-1.5 0.3125z" fill-rule="nonzero"/><path fill="#ffff00" d="m129.98425 75.59262l0 0c0 -4.7633743 3.8614655 -8.624847 8.624847 -8.624847l189.24628 0c2.2874756 0 4.4812317 0.9086838 6.098694 2.5261612c1.6174622 1.6174698 2.5261536 3.8112335 2.5261536 6.098686l0 34.498337c0 4.7633743 -3.8614502 8.624847 -8.624847 8.624847l-189.24628 0c-4.763382 0 -8.624847 -3.861473 -8.624847 -8.624847z" fill-rule="evenodd"/><path stroke="#b7b7b7" stroke-width="4.0" stroke-linejoin="round" stroke-linecap="butt" d="m129.98425 75.59262l0 0c0 -4.7633743 3.8614655 -8.624847 8.624847 -8.624847l189.24628 0c2.2874756 0 4.4812317 0.9086838 6.098694 2.5261612c1.6174622 1.6174698 2.5261536 3.8112335 2.5261536 6.098686l0 34.498337c0 4.7633743 -3.8614502 8.624847 -8.624847 8.624847l-189.24628 0c-4.763382 0 -8.624847 -3.861473 -8.624847 -8.624847z" fill-rule="evenodd"/><path fill="#000000" d="m160.54826 88.76179l0 -1.140625l1.484375 -0.265625l0 -10.4375l-1.484375 -0.265625l0 -1.15625l1.484375 0l3.71875 0q1.75 0 3.046875 0.84375q1.3125 0.828125 2.046875 2.296875q0.734375 1.46875 0.734375 3.359375l0 0.28125q0 1.84375 -0.703125 3.3125q-0.703125 1.46875 -2.0 2.328125q-1.28125 0.84375 -3.046875 0.84375l-5.28125 0zm3.28125 -1.40625l1.921875 0q1.25 0 2.140625 -0.6875q0.90625 -0.6875 1.390625 -1.828125q0.5 -1.15625 0.5 -2.5625l0 -0.296875q0 -1.453125 -0.5 -2.59375q-0.484375 -1.140625 -1.390625 -1.796875q-0.890625 -0.671875 -2.140625 -0.671875l-1.921875 0l0 10.4375zm13.508728 1.59375q-1.375 0 -2.390625 -0.625q-1.0 -0.625 -1.5625 -1.734375q-0.546875 -1.109375 -0.546875 -2.5625l0 -0.40625q0 -1.40625 0.578125 -2.5q0.578125 -1.109375 1.53125 -1.75q0.96875 -0.640625 2.109375 -0.640625q1.328125 0 2.21875 0.546875q0.90625 0.53125 1.359375 1.53125q0.453125 0.984375 0.453125 2.328125l0 1.109375l-6.390625 0l-0.03125 0.046875q0.015625 0.953125 0.328125 1.6875q0.328125 0.734375 0.921875 1.15625q0.59375 0.40625 1.421875 0.40625q0.90625 0 1.59375 -0.25q0.6875 -0.265625 1.1875 -0.71875l0.703125 1.171875q-0.53125 0.5 -1.40625 0.859375q-0.859375 0.34375 -2.078125 0.34375zm-2.578125 -6.09375l4.53125 0l0 -0.25q0 -0.703125 -0.25 -1.265625q-0.25 -0.5625 -0.75 -0.875q-0.484375 -0.328125 -1.234375 -0.328125q-0.59375 0 -1.09375 0.359375q-0.484375 0.34375 -0.8125 0.953125q-0.3125 0.59375 -0.421875 1.359375l0.03125 0.046875zm12.542786 6.09375q-1.328125 0 -2.328125 -0.625q-1.0 -0.625 -1.546875 -1.734375q-0.546875 -1.109375 -0.546875 -2.5625l0 -0.390625q0 -1.390625 0.53125 -2.5q0.53125 -1.125 1.515625 -1.765625q1.0 -0.640625 2.375 -0.640625q1.203125 0 2.09375 0.390625q0.890625 0.390625 1.515625 1.0625l0.03125 2.375l-1.390625 0l-0.3125 -1.71875q-0.3125 -0.328125 -0.78125 -0.515625q-0.453125 -0.1875 -1.09375 -0.1875q-0.796875 0 -1.40625 0.484375q-0.609375 0.46875 -0.953125 1.265625q-0.328125 0.78125 -0.328125 1.75l0 0.390625q0 1.078125 0.3125 1.875q0.328125 0.78125 0.90625 1.21875q0.59375 0.421875 1.40625 0.421875q0.90625 0 1.5 -0.5q0.609375 -0.5 0.75 -1.375l1.609375 0l0.015625 0.0625q-0.046875 0.84375 -0.5 1.59375q-0.453125 0.734375 -1.296875 1.1875q-0.84375 0.4375 -2.078125 0.4375zm9.994568 0q-1.375 0 -2.390625 -0.625q-1.0 -0.625 -1.5625 -1.734375q-0.546875 -1.109375 -0.546875 -2.5625l0 -0.40625q0 -1.40625 0.578125 -2.5q0.578125 -1.109375 1.53125 -1.75q0.96875 -0.640625 2.109375 -0.640625q1.328125 0 2.21875 0.546875q0.90625 0.53125 1.359375 1.53125q0.453125 0.984375 0.453125 2.328125l0 1.109375l-6.390625 0l-0.03125 0.046875q0.015625 0.953125 0.328125 1.6875q0.328125 0.734375 0.921875 1.15625q0.59375 0.40625 1.421875 0.40625q0.90625 0 1.59375 -0.25q0.6875 -0.265625 1.1875 -0.71875l0.703125 1.171875q-0.53125 0.5 -1.40625 0.859375q-0.859375 0.34375 -2.078125 0.34375zm-2.578125 -6.09375l4.53125 0l0 -0.25q0 -0.703125 -0.25 -1.265625q-0.25 -0.5625 -0.75 -0.875q-0.484375 -0.328125 -1.234375 -0.328125q-0.59375 0 -1.09375 0.359375q-0.484375 0.34375 -0.8125 0.953125q-0.3125 0.59375 -0.421875 1.359375l0.03125 0.046875zm7.7250824 5.90625l0 -1.140625l1.484375 -0.265625l0 -7.03125l-1.484375 -0.265625l0 -1.15625l3.09375 0l0.125 1.46875q0.484375 -0.78125 1.21875 -1.203125q0.75 -0.4375 1.703125 -0.4375q1.59375 0 2.46875 0.9375q0.875 0.921875 0.875 2.875l0 4.8125l1.484375 0.265625l0 1.140625l-4.765625 0l0 -1.140625l1.484375 -0.265625l0 -4.78125q0 -1.296875 -0.515625 -1.84375q-0.515625 -0.546875 -1.5625 -0.546875q-0.78125 0 -1.375 0.375q-0.59375 0.375 -0.953125 1.015625l0 5.78125l1.484375 0.265625l0 1.140625l-4.765625 0zm15.353851 0.15625q-1.09375 0 -1.734375 -0.640625q-0.640625 -0.640625 -0.640625 -2.0625l0 -5.984375l-1.5625 0l0 -1.328125l1.5625 0l0 -2.375l1.796875 0l0 2.375l2.140625 0l0 1.328125l-2.140625 0l0 5.984375q0 0.71875 0.28125 1.0625q0.28125 0.328125 0.75 0.328125q0.3125 0 0.703125 -0.0625q0.40625 -0.0625 0.625 -0.109375l0.234375 1.1875q-0.390625 0.109375 -0.96875 0.203125q-0.5625 0.09375 -1.046875 0.09375zm3.1499329 -0.15625l0 -1.140625l1.484375 -0.265625l0 -7.03125l-1.484375 -0.265625l0 -1.15625l3.09375 0l0.15625 1.265625l0.015625 0.171875q0.421875 -0.765625 1.03125 -1.1875q0.609375 -0.421875 1.40625 -0.421875q0.28125 0 0.578125 0.046875q0.296875 0.046875 0.421875 0.09375l-0.234375 1.671875l-1.25 -0.078125q-0.703125 -0.046875 -1.1875 0.328125q-0.484375 0.359375 -0.75 0.984375l0 5.578125l1.484375 0.265625l0 1.140625l-4.765625 0zm10.9826355 0.1875q-1.53125 0 -2.34375 -0.75q-0.796875 -0.75 -0.796875 -2.109375q0 -1.40625 1.140625 -2.25q1.15625 -0.859375 3.203125 -0.859375l1.75 0l0 -0.96875q0 -0.890625 -0.546875 -1.375q-0.53125 -0.5 -1.515625 -0.5q-0.625 0 -1.078125 0.15625q-0.453125 0.140625 -0.828125 0.40625l-0.1875 1.375l-1.390625 0l0 -2.265625q0.671875 -0.53125 1.546875 -0.796875q0.890625 -0.28125 1.953125 -0.28125q1.796875 0 2.8125 0.859375q1.03125 0.84375 1.03125 2.4375l0 4.75q0 0.1875 0 0.375q0.015625 0.171875 0.03125 0.359375l0.953125 0.109375l0 1.140625l-2.578125 0q-0.078125 -0.40625 -0.125 -0.71875q-0.046875 -0.3125 -0.0625 -0.640625q-0.53125 0.671875 -1.3125 1.109375q-0.765625 0.4375 -1.65625 0.4375zm0.265625 -1.5q0.890625 0 1.625 -0.421875q0.75 -0.4375 1.0625 -1.03125l0 -1.796875l-1.828125 0q-1.234375 0 -1.859375 0.59375q-0.609375 0.59375 -0.609375 1.328125q0 0.640625 0.390625 0.984375q0.40625 0.34375 1.21875 0.34375zm6.7650757 1.3125l0 -1.140625l1.484375 -0.265625l0 -11.390625l-1.484375 -0.25l0 -1.15625l3.28125 0l0 12.796875l1.484375 0.265625l0 1.140625l-4.765625 0zm5.9797516 0l0 -1.140625l1.484375 -0.265625l0 -7.03125l-1.484375 -0.265625l0 -1.15625l3.28125 0l0 8.453125l1.484375 0.265625l0 1.140625l-4.765625 0zm1.390625 -12.28125l0 -1.921875l1.890625 0l0 1.921875l-1.890625 0zm4.736267 12.28125l0 -1.25l5.3750153 -7.21875l-3.6718903 0l-0.234375 1.65625l-1.34375 0l0 -3.046875l7.4687653 0l0 1.21875l-5.4218903 7.28125l4.2031403 0l0.234375 -1.671875l1.34375 0l0 3.03125l-7.9531403 0zm12.463516 0.1875q-1.53125 0 -2.34375 -0.75q-0.796875 -0.75 -0.796875 -2.109375q0 -1.40625 1.140625 -2.25q1.15625 -0.859375 3.203125 -0.859375l1.75 0l0 -0.96875q0 -0.890625 -0.546875 -1.375q-0.53125 -0.5 -1.515625 -0.5q-0.625 0 -1.078125 0.15625q-0.453125 0.140625 -0.828125 0.40625l-0.1875 1.375l-1.390625 0l0 -2.265625q0.671875 -0.53125 1.546875 -0.796875q0.890625 -0.28125 1.953125 -0.28125q1.796875 0 2.8125 0.859375q1.03125 0.84375 1.03125 2.4375l0 4.75q0 0.1875 0 0.375q0.015625 0.171875 0.03125 0.359375l0.953125 0.109375l0 1.140625l-2.578125 0q-0.078125 -0.40625 -0.125 -0.71875q-0.046875 -0.3125 -0.0625 -0.640625q-0.53125 0.671875 -1.3125 1.109375q-0.765625 0.4375 -1.65625 0.4375zm0.265625 -1.5q0.890625 0 1.625 -0.421875q0.75 -0.4375 1.0625 -1.03125l0 -1.796875l-1.828125 0q-1.234375 0 -1.859375 0.59375q-0.609375 0.59375 -0.609375 1.328125q0 0.640625 0.390625 0.984375q0.40625 0.34375 1.21875 0.34375zm10.343201 1.46875q-1.09375 0 -1.734375 -0.640625q-0.640625 -0.640625 -0.640625 -2.0625l0 -5.984375l-1.5625 0l0 -1.328125l1.5625 0l0 -2.375l1.796875 0l0 2.375l2.140625 0l0 1.328125l-2.140625 0l0 5.984375q0 0.71875 0.28125 1.0625q0.28125 0.328125 0.75 0.328125q0.3125 0 0.703125 -0.0625q0.40625 -0.0625 0.625 -0.109375l0.234375 1.1875q-0.390625 0.109375 -0.96875 0.203125q-0.5625 0.09375 -1.046875 0.09375zm3.1030579 -0.15625l0 -1.140625l1.484375 -0.265625l0 -7.03125l-1.484375 -0.265625l0 -1.15625l3.28125 0l0 8.453125l1.484375 0.265625l0 1.140625l-4.765625 0zm1.390625 -12.28125l0 -1.921875l1.890625 0l0 1.921875l-1.890625 0zm9.064392 12.46875q-1.359375 0 -2.359375 -0.640625q-0.984375 -0.640625 -1.53125 -1.765625q-0.53125 -1.140625 -0.53125 -2.59375l0 -0.203125q0 -1.46875 0.53125 -2.59375q0.546875 -1.140625 1.53125 -1.78125q1.0 -0.640625 2.34375 -0.640625q1.375 0 2.359375 0.640625q0.984375 0.640625 1.515625 1.78125q0.546875 1.125 0.546875 2.59375l0 0.203125q0 1.453125 -0.546875 2.59375q-0.53125 1.140625 -1.515625 1.78125q-0.984375 0.625 -2.34375 0.625zm0 -1.40625q0.859375 0 1.4375 -0.46875q0.578125 -0.46875 0.875 -1.28125q0.296875 -0.8125 0.296875 -1.84375l0 -0.203125q0 -1.046875 -0.296875 -1.859375q-0.296875 -0.8125 -0.890625 -1.28125q-0.578125 -0.46875 -1.4375 -0.46875q-0.859375 0 -1.4375 0.46875q-0.578125 0.46875 -0.875 1.28125q-0.296875 0.8125 -0.296875 1.859375l0 0.203125q0 1.03125 0.296875 1.84375q0.296875 0.8125 0.875 1.28125q0.59375 0.46875 1.453125 0.46875zm5.7859497 1.21875l0 -1.140625l1.484375 -0.265625l0 -7.03125l-1.484375 -0.265625l0 -1.15625l3.09375 0l0.125 1.46875q0.484375 -0.78125 1.21875 -1.203125q0.75 -0.4375 1.703125 -0.4375q1.59375 0 2.46875 0.9375q0.875 0.921875 0.875 2.875l0 4.8125l1.484375 0.265625l0 1.140625l-4.765625 0l0 -1.140625l1.484375 -0.265625l0 -4.78125q0 -1.296875 -0.515625 -1.84375q-0.515625 -0.546875 -1.5625 -0.546875q-0.78125 0 -1.375 0.375q-0.59375 0.375 -0.953125 1.015625l0 5.78125l1.484375 0.265625l0 1.140625l-4.765625 0z" fill-rule="nonzero"/><path fill="#000000" d="m174.97531 110.76179l0 -1.140625l1.484375 -0.265625l0 -10.5l-3.015625 0l-0.265625 1.84375l-1.34375 0l0 -3.203125l11.015625 0l0 3.203125l-1.328125 0l-0.265625 -1.84375l-3.015625 0l0 10.5l1.484375 0.265625l0 1.140625l-4.75 0zm8.764984 0l0 -1.140625l1.484375 -0.265625l0 -7.03125l-1.484375 -0.265625l0 -1.15625l3.09375 0l0.15625 1.265625l0.015625 0.171875q0.421875 -0.765625 1.03125 -1.1875q0.609375 -0.421875 1.40625 -0.421875q0.28125 0 0.578125 0.046875q0.296875 0.046875 0.421875 0.09375l-0.234375 1.671875l-1.25 -0.078125q-0.703125 -0.046875 -1.1875 0.328125q-0.484375 0.359375 -0.75 0.984375l0 5.578125l1.484375 0.265625l0 1.140625l-4.765625 0zm10.9826355 0.1875q-1.53125 0 -2.34375 -0.75q-0.796875 -0.75 -0.796875 -2.109375q0 -1.40625 1.140625 -2.25q1.15625 -0.859375 3.203125 -0.859375l1.75 0l0 -0.96875q0 -0.890625 -0.546875 -1.375q-0.53125 -0.5 -1.515625 -0.5q-0.625 0 -1.078125 0.15625q-0.453125 0.140625 -0.828125 0.40625l-0.1875 1.375l-1.390625 0l0 -2.265625q0.671875 -0.53125 1.546875 -0.796875q0.890625 -0.28125 1.953125 -0.28125q1.796875 0 2.8125 0.859375q1.03125 0.84375 1.03125 2.4375l0 4.75q0 0.1875 0 0.375q0.015625 0.171875 0.03125 0.359375l0.953125 0.109375l0 1.140625l-2.578125 0q-0.078125 -0.40625 -0.125 -0.71875q-0.046875 -0.3125 -0.0625 -0.640625q-0.53125 0.671875 -1.3125 1.109375q-0.765625 0.4375 -1.65625 0.4375zm0.265625 -1.5q0.890625 0 1.625 -0.421875q0.75 -0.4375 1.0625 -1.03125l0 -1.796875l-1.828125 0q-1.234375 0 -1.859375 0.59375q-0.609375 0.59375 -0.609375 1.328125q0 0.640625 0.390625 0.984375q0.40625 0.34375 1.21875 0.34375zm6.8588257 1.3125l0 -1.140625l1.484375 -0.265625l0 -7.03125l-1.484375 -0.265625l0 -1.15625l3.09375 0l0.125 1.46875q0.484375 -0.78125 1.21875 -1.203125q0.75 -0.4375 1.703125 -0.4375q1.59375 0 2.46875 0.9375q0.875 0.921875 0.875 2.875l0 4.8125l1.484375 0.265625l0 1.140625l-4.765625 0l0 -1.140625l1.484375 -0.265625l0 -4.78125q0 -1.296875 -0.515625 -1.84375q-0.515625 -0.546875 -1.5625 -0.546875q-0.78125 0 -1.375 0.375q-0.59375 0.375 -0.953125 1.015625l0 5.78125l1.484375 0.265625l0 1.140625l-4.765625 0zm16.234055 0.1875q-1.0 0 -1.875 -0.1875q-0.859375 -0.203125 -1.828125 -0.625l-0.015625 -2.34375l1.359375 0l0.328125 1.40625q0.515625 0.21875 0.984375 0.3125q0.484375 0.09375 1.046875 0.09375q1.078125 0 1.546875 -0.421875q0.484375 -0.421875 0.484375 -1.03125q0 -0.59375 -0.484375 -1.0q-0.46875 -0.40625 -1.734375 -0.6875q-1.78125 -0.40625 -2.625 -1.09375q-0.84375 -0.6875 -0.84375 -1.828125q0 -0.8125 0.46875 -1.4375q0.46875 -0.640625 1.296875 -1.0q0.828125 -0.375 1.921875 -0.375q1.125 0 1.921875 0.25q0.796875 0.25 1.390625 0.6875l0.09375 2.25l-1.34375 0l-0.296875 -1.3125q-0.3125 -0.25 -0.75 -0.375q-0.4375 -0.125 -1.015625 -0.125q-0.828125 0 -1.359375 0.390625q-0.515625 0.390625 -0.515625 0.984375q0 0.34375 0.140625 0.609375q0.15625 0.25 0.578125 0.453125q0.4375 0.203125 1.265625 0.40625q2.0625 0.484375 2.875 1.234375q0.8125 0.75 0.8125 1.84375q0 1.234375 -0.921875 2.078125q-0.921875 0.84375 -2.90625 0.84375zm5.044281 3.609375l0 -1.171875l1.390625 -0.25l0 -10.8125l-1.484375 -0.265625l0 -1.15625l3.015625 0l0.171875 1.203125q0.484375 -0.671875 1.1875 -1.015625q0.71875 -0.359375 1.640625 -0.359375q1.21875 0 2.078125 0.65625q0.875 0.65625 1.328125 1.84375q0.453125 1.1875 0.453125 2.78125l0 0.1875q0 1.421875 -0.453125 2.5q-0.453125 1.0625 -1.3125 1.65625q-0.859375 0.59375 -2.0625 0.59375q-0.90625 0 -1.59375 -0.296875q-0.6875 -0.3125 -1.171875 -0.90625l0 3.390625l1.5625 0.25l0 1.171875l-4.75 0zm5.390625 -5.015625q1.28125 0 1.9375 -0.921875q0.65625 -0.921875 0.65625 -2.421875l0 -0.1875q0 -1.125 -0.296875 -1.984375q-0.28125 -0.859375 -0.859375 -1.34375q-0.578125 -0.5 -1.453125 -0.5q-0.765625 0 -1.3125 0.34375q-0.546875 0.34375 -0.875 0.953125l0 4.796875q0.328125 0.609375 0.875 0.9375q0.546875 0.328125 1.328125 0.328125zm8.966568 1.40625q-1.53125 0 -2.34375 -0.75q-0.796875 -0.75 -0.796875 -2.109375q0 -1.40625 1.140625 -2.25q1.15625 -0.859375 3.203125 -0.859375l1.75 0l0 -0.96875q0 -0.890625 -0.546875 -1.375q-0.53125 -0.5 -1.515625 -0.5q-0.625 0 -1.078125 0.15625q-0.453125 0.140625 -0.828125 0.40625l-0.1875 1.375l-1.390625 0l0 -2.265625q0.671875 -0.53125 1.546875 -0.796875q0.890625 -0.28125 1.953125 -0.28125q1.796875 0 2.8125 0.859375q1.03125 0.84375 1.03125 2.4375l0 4.75q0 0.1875 0 0.375q0.015625 0.171875 0.03125 0.359375l0.953125 0.109375l0 1.140625l-2.578125 0q-0.078125 -0.40625 -0.125 -0.71875q-0.046875 -0.3125 -0.0625 -0.640625q-0.53125 0.671875 -1.3125 1.109375q-0.765625 0.4375 -1.65625 0.4375zm0.265625 -1.5q0.890625 0 1.625 -0.421875q0.75 -0.4375 1.0625 -1.03125l0 -1.796875l-1.828125 0q-1.234375 0 -1.859375 0.59375q-0.609375 0.59375 -0.609375 1.328125q0 0.640625 0.390625 0.984375q0.40625 0.34375 1.21875 0.34375zm6.8432007 1.3125l0 -1.140625l1.484375 -0.265625l0 -7.03125l-1.484375 -0.265625l0 -1.15625l3.09375 0l0.15625 1.265625l0.015625 0.171875q0.421875 -0.765625 1.03125 -1.1875q0.609375 -0.421875 1.40625 -0.421875q0.28125 0 0.578125 0.046875q0.296875 0.046875 0.421875 0.09375l-0.234375 1.671875l-1.25 -0.078125q-0.703125 -0.046875 -1.1875 0.328125q-0.484375 0.359375 -0.75 0.984375l0 5.578125l1.484375 0.265625l0 1.140625l-4.765625 0zm12.112854 0.1875q-1.3750153 0 -2.3906403 -0.625q-1.0 -0.625 -1.5625 -1.734375q-0.546875 -1.109375 -0.546875 -2.5625l0 -0.40625q0 -1.40625 0.578125 -2.5q0.578125 -1.109375 1.53125 -1.75q0.96875 -0.640625 2.1093903 -0.640625q1.328125 0 2.21875 0.546875q0.90625 0.53125 1.359375 1.53125q0.453125 0.984375 0.453125 2.328125l0 1.109375l-6.3906403 0l-0.03125 0.046875q0.015625 0.953125 0.328125 1.6875q0.328125 0.734375 0.921875 1.15625q0.59375 0.40625 1.4218903 0.40625q0.90625 0 1.59375 -0.25q0.6875 -0.265625 1.1875 -0.71875l0.703125 1.171875q-0.53125 0.5 -1.40625 0.859375q-0.859375 0.34375 -2.078125 0.34375zm-2.5781403 -6.09375l4.5312653 0l0 -0.25q0 -0.703125 -0.25 -1.265625q-0.25 -0.5625 -0.75 -0.875q-0.484375 -0.328125 -1.234375 -0.328125q-0.59376526 0 -1.0937653 0.359375q-0.484375 0.34375 -0.8125 0.953125q-0.3125 0.59375 -0.421875 1.359375l0.03125 0.046875zm7.7250824 5.90625l0 -1.140625l1.484375 -0.265625l0 -7.03125l-1.484375 -0.265625l0 -1.15625l3.09375 0l0.125 1.46875q0.484375 -0.78125 1.21875 -1.203125q0.75 -0.4375 1.703125 -0.4375q1.59375 0 2.46875 0.9375q0.875 0.921875 0.875 2.875l0 4.8125l1.484375 0.265625l0 1.140625l-4.765625 0l0 -1.140625l1.484375 -0.265625l0 -4.78125q0 -1.296875 -0.515625 -1.84375q-0.515625 -0.546875 -1.5625 -0.546875q-0.78125 0 -1.375 0.375q-0.59375 0.375 -0.953125 1.015625l0 5.78125l1.484375 0.265625l0 1.140625l-4.765625 0zm16.596039 0.1875q-1.328125 0 -2.328125 -0.625q-1.0 -0.625 -1.546875 -1.734375q-0.546875 -1.109375 -0.546875 -2.5625l0 -0.390625q0 -1.390625 0.53125 -2.5q0.53125 -1.125 1.515625 -1.765625q1.0 -0.640625 2.375 -0.640625q1.203125 0 2.09375 0.390625q0.890625 0.390625 1.515625 1.0625l0.03125 2.375l-1.390625 0l-0.3125 -1.71875q-0.3125 -0.328125 -0.78125 -0.515625q-0.453125 -0.1875 -1.09375 -0.1875q-0.796875 0 -1.40625 0.484375q-0.609375 0.46875 -0.953125 1.265625q-0.328125 0.78125 -0.328125 1.75l0 0.390625q0 1.078125 0.3125 1.875q0.328125 0.78125 0.90625 1.21875q0.59375 0.421875 1.40625 0.421875q0.90625 0 1.5 -0.5q0.609375 -0.5 0.75 -1.375l1.609375 0l0.015625 0.0625q-0.046875 0.84375 -0.5 1.59375q-0.453125 0.734375 -1.296875 1.1875q-0.84375 0.4375 -2.078125 0.4375zm7.4073486 3.796875q-0.203125 0 -0.546875 -0.0625q-0.328125 -0.046875 -0.515625 -0.09375l0.1875 -1.40625q0.15625 0.015625 0.421875 0.03125q0.265625 0.015625 0.375 0.015625q0.578125 0 0.9375 -0.4375q0.359375 -0.4375 0.671875 -1.1875l0.421875 -1.046875l-3.484375 -8.34375l-1.0625 -0.15625l0 -1.15625l4.140625 0l0 1.15625l-1.203125 0.1875l1.921875 4.921875l0.46875 1.28125l0.0625 0l2.265625 -6.203125l-1.25 -0.1875l0 -1.15625l4.046875 0l0 1.15625l-1.015625 0.15625l-3.875 10.0625q-0.28125 0.703125 -0.671875 1.265625q-0.375 0.5625 -0.9375 0.875q-0.5625 0.328125 -1.359375 0.328125z" fill-rule="nonzero"/><path fill="#ffff00" d="m129.98495 139.2968l0 0c0 -4.7633667 3.8614655 -8.624832 8.624832 -8.624832l189.24629 0c2.2874756 0 4.4812317 0.90867615 6.098694 2.5261536c1.6174622 1.6174774 2.5261536 3.8112335 2.5261536 6.0986786l0 34.498352c0 4.7633667 -3.8614807 8.624847 -8.624847 8.624847l-189.24629 0c-4.7633667 0 -8.624832 -3.8614807 -8.624832 -8.624847z" fill-rule="evenodd"/><path stroke="#b7b7b7" stroke-width="4.0" stroke-linejoin="round" stroke-linecap="butt" d="m129.98495 139.2968l0 0c0 -4.7633667 3.8614655 -8.624832 8.624832 -8.624832l189.24629 0c2.2874756 0 4.4812317 0.90867615 6.098694 2.5261536c1.6174622 1.6174774 2.5261536 3.8112335 2.5261536 6.0986786l0 34.498352c0 4.7633667 -3.8614807 8.624847 -8.624847 8.624847l-189.24629 0c-4.7633667 0 -8.624832 -3.8614807 -8.624832 -8.624847z" fill-rule="evenodd"/><path fill="#000000" d="m199.76123 152.65347q-2.0 0 -3.34375 -0.875q-1.328125 -0.875 -2.0 -2.390625q-0.65625 -1.515625 -0.65625 -3.453125l0 -0.1875q0 -1.953125 0.6875 -3.46875q0.703125 -1.515625 2.015625 -2.390625q1.3125 -0.875 3.140625 -0.875q1.28125 0 2.34375 0.40625q1.078125 0.390625 1.765625 1.015625l0 2.859375l-1.421875 0l-0.1875 -2.09375q-0.296875 -0.234375 -0.671875 -0.390625q-0.375 -0.15625 -0.84375 -0.234375q-0.453125 -0.078125 -1.0 -0.078125q-1.296875 0 -2.203125 0.671875q-0.890625 0.671875 -1.359375 1.84375q-0.46875 1.171875 -0.46875 2.71875l0 0.203125q0 1.671875 0.5 2.859375q0.5 1.171875 1.4375 1.796875q0.953125 0.609375 2.328125 0.609375q0.640625 0 1.25 -0.15625q0.609375 -0.15625 1.015625 -0.40625l0.1875 -1.84375l1.40625 0l0 2.875q-0.75 0.46875 -1.796875 0.734375q-1.03125 0.25 -2.125 0.25zm10.032501 0q-1.609375 0 -2.515625 -1.03125q-0.890625 -1.03125 -0.890625 -3.203125l0 -4.390625l-1.140625 -0.265625l0 -1.15625l1.140625 0l1.78125 0l0 5.828125q0 1.578125 0.46875 2.171875q0.46875 0.59375 1.453125 0.59375q0.953125 0 1.578125 -0.390625q0.625 -0.390625 0.9375 -1.09375l0 -5.6875l-1.3125 -0.265625l0 -1.15625l1.3125 0l1.796875 0l0 8.453125l1.140625 0.265625l0 1.140625l-2.75 0l-0.125 -1.453125q-0.453125 0.78125 -1.1875 1.21875q-0.734375 0.421875 -1.6875 0.421875zm6.981949 -0.1875l0 -1.140625l1.484375 -0.265625l0 -7.03125l-1.484375 -0.265625l0 -1.15625l3.09375 0l0.15625 1.265625l0.015625 0.171875q0.421875 -0.765625 1.03125 -1.1875q0.609375 -0.421875 1.40625 -0.421875q0.28125 0 0.578125 0.046875q0.296875 0.046875 0.421875 0.09375l-0.234375 1.671875l-1.25 -0.078125q-0.703125 -0.046875 -1.1875 0.328125q-0.484375 0.359375 -0.75 0.984375l0 5.578125l1.484375 0.265625l0 1.140625l-4.765625 0zm7.7326355 0l0 -1.140625l1.484375 -0.265625l0 -7.03125l-1.484375 -0.265625l0 -1.15625l3.28125 0l0 8.453125l1.484375 0.265625l0 1.140625l-4.765625 0zm1.390625 -12.28125l0 -1.921875l1.890625 0l0 1.921875l-1.890625 0zm9.064392 12.46875q-1.359375 0 -2.359375 -0.640625q-0.984375 -0.640625 -1.53125 -1.765625q-0.53125 -1.140625 -0.53125 -2.59375l0 -0.203125q0 -1.46875 0.53125 -2.59375q0.546875 -1.140625 1.53125 -1.78125q1.0 -0.640625 2.34375 -0.640625q1.375 0 2.359375 0.640625q0.984375 0.640625 1.515625 1.78125q0.546875 1.125 0.546875 2.59375l0 0.203125q0 1.453125 -0.546875 2.59375q-0.53125 1.140625 -1.515625 1.78125q-0.984375 0.625 -2.34375 0.625zm0 -1.40625q0.859375 0 1.4375 -0.46875q0.578125 -0.46875 0.875 -1.28125q0.296875 -0.8125 0.296875 -1.84375l0 -0.203125q0 -1.046875 -0.296875 -1.859375q-0.296875 -0.8125 -0.890625 -1.28125q-0.578125 -0.46875 -1.4375 -0.46875q-0.859375 0 -1.4375 0.46875q-0.578125 0.46875 -0.875 1.28125q-0.296875 0.8125 -0.296875 1.859375l0 0.203125q0 1.03125 0.296875 1.84375q0.296875 0.8125 0.875 1.28125q0.59375 0.46875 1.453125 0.46875zm9.78595 1.40625q-1.0 0 -1.875 -0.1875q-0.859375 -0.203125 -1.828125 -0.625l-0.015625 -2.34375l1.359375 0l0.328125 1.40625q0.515625 0.21875 0.984375 0.3125q0.484375 0.09375 1.046875 0.09375q1.078125 0 1.546875 -0.421875q0.484375 -0.421875 0.484375 -1.03125q0 -0.59375 -0.484375 -1.0q-0.46875 -0.40625 -1.734375 -0.6875q-1.78125 -0.40625 -2.625 -1.09375q-0.84375 -0.6875 -0.84375 -1.828125q0 -0.8125 0.46875 -1.4375q0.46875 -0.640625 1.296875 -1.0q0.828125 -0.375 1.921875 -0.375q1.125 0 1.921875 0.25q0.796875 0.25 1.390625 0.6875l0.09375 2.25l-1.34375 0l-0.296875 -1.3125q-0.3125 -0.25 -0.75 -0.375q-0.4375 -0.125 -1.015625 -0.125q-0.828125 0 -1.359375 0.390625q-0.515625 0.390625 -0.515625 0.984375q0 0.34375 0.140625 0.609375q0.15625 0.25 0.578125 0.453125q0.4375 0.203125 1.265625 0.40625q2.0625 0.484375 2.875 1.234375q0.8125 0.75 0.8125 1.84375q0 1.234375 -0.921875 2.078125q-0.921875 0.84375 -2.90625 0.84375zm5.247406 -0.1875l0 -1.140625l1.484375 -0.265625l0 -7.03125l-1.484375 -0.265625l0 -1.15625l3.28125 0l0 8.453125l1.484375 0.265625l0 1.140625l-4.765625 0zm1.390625 -12.28125l0 -1.921875l1.890625 0l0 1.921875l-1.890625 0zm8.095657 12.4375q-1.09375 0 -1.734375 -0.640625q-0.640625 -0.640625 -0.640625 -2.0625l0 -5.984375l-1.5625153 0l0 -1.328125l1.5625153 0l0 -2.375l1.796875 0l0 2.375l2.140625 0l0 1.328125l-2.140625 0l0 5.984375q0 0.71875 0.28125 1.0625q0.28125 0.328125 0.75 0.328125q0.3125 0 0.703125 -0.0625q0.40625 -0.0625 0.625 -0.109375l0.234375 1.1875q-0.390625 0.109375 -0.96875 0.203125q-0.5625 0.09375 -1.046875 0.09375zm5.306183 3.828125q-0.203125 0 -0.546875 -0.0625q-0.328125 -0.046875 -0.515625 -0.09375l0.1875 -1.40625q0.15625 0.015625 0.421875 0.03125q0.265625 0.015625 0.375 0.015625q0.578125 0 0.9375 -0.4375q0.359375 -0.4375 0.671875 -1.1875l0.421875 -1.046875l-3.484375 -8.34375l-1.0625 -0.15625l0 -1.15625l4.140625 0l0 1.15625l-1.203125 0.1875l1.921875 4.921875l0.46875 1.28125l0.0625 0l2.265625 -6.203125l-1.25 -0.1875l0 -1.15625l4.046875 0l0 1.15625l-1.015625 0.15625l-3.875 10.0625q-0.28125 0.703125 -0.671875 1.265625q-0.375 0.5625 -0.9375 0.875q-0.5625 0.328125 -1.359375 0.328125z" fill-rule="nonzero"/><path fill="#000000" d="m159.2135 174.46597l0 -1.140625l1.484375 -0.265625l0 -10.4375l-1.484375 -0.265625l0 -1.15625l9.828125 0l0 3.1875l-1.4375 0l-0.203125 -1.796875l-4.90625 0l0 4.3125l4.890625 0l0 1.40625l-4.890625 0l0 4.8125l5.1875 0l0.203125 -1.828125l1.4375 0l0 3.171875l-10.109375 0zm11.537628 0l0 -1.140625l1.09375 -0.21875l2.953125 -3.625l-2.875 -3.5l-0.984375 -0.21875l0 -1.15625l3.859375 0l0 1.15625l-0.984375 0.109375l2.03125 2.515625l1.96875 -2.515625l-1.0625 -0.109375l0 -1.15625l3.796875 0l0 1.15625l-1.0 0.21875l-2.671875 3.46875l3.078125 3.65625l1.015625 0.21875l0 1.140625l-4.1875 0l0 -1.140625l1.1875 -0.109375l-2.15625 -2.625l-2.09375 2.625l1.0625 0.109375l0 1.140625l-4.03125 0zm10.989975 3.796875l0 -1.171875l1.390625 -0.25l0 -10.8125l-1.484375 -0.265625l0 -1.15625l3.015625 0l0.171875 1.203125q0.484375 -0.671875 1.1875 -1.015625q0.71875 -0.359375 1.640625 -0.359375q1.21875 0 2.078125 0.65625q0.875 0.65625 1.328125 1.84375q0.453125 1.1875 0.453125 2.78125l0 0.1875q0 1.421875 -0.453125 2.5q-0.453125 1.0625 -1.3125 1.65625q-0.859375 0.59375 -2.0625 0.59375q-0.90625 0 -1.59375 -0.296875q-0.6875 -0.3125 -1.171875 -0.90625l0 3.390625l1.5625 0.25l0 1.171875l-4.75 0zm5.390625 -5.015625q1.28125 0 1.9375 -0.921875q0.65625 -0.921875 0.65625 -2.421875l0 -0.1875q0 -1.125 -0.296875 -1.984375q-0.28125 -0.859375 -0.859375 -1.34375q-0.578125 -0.5 -1.453125 -0.5q-0.765625 0 -1.3125 0.34375q-0.546875 0.34375 -0.875 0.953125l0 4.796875q0.328125 0.609375 0.875 0.9375q0.546875 0.328125 1.328125 0.328125zm10.643646 1.40625q-1.375 0 -2.390625 -0.625q-1.0 -0.625 -1.5625 -1.734375q-0.546875 -1.109375 -0.546875 -2.5625l0 -0.40625q0 -1.40625 0.578125 -2.5q0.578125 -1.109375 1.53125 -1.75q0.96875 -0.640625 2.109375 -0.640625q1.328125 0 2.21875 0.546875q0.90625 0.53125 1.359375 1.53125q0.453125 0.984375 0.453125 2.328125l0 1.109375l-6.390625 0l-0.03125 0.046875q0.015625 0.953125 0.328125 1.6875q0.328125 0.734375 0.921875 1.15625q0.59375 0.40625 1.421875 0.40625q0.90625 0 1.59375 -0.25q0.6875 -0.265625 1.1875 -0.71875l0.703125 1.171875q-0.53125 0.5 -1.40625 0.859375q-0.859375 0.34375 -2.078125 0.34375zm-2.578125 -6.09375l4.53125 0l0 -0.25q0 -0.703125 -0.25 -1.265625q-0.25 -0.5625 -0.75 -0.875q-0.484375 -0.328125 -1.234375 -0.328125q-0.59375 0 -1.09375 0.359375q-0.484375 0.34375 -0.8125 0.953125q-0.3125 0.59375 -0.421875 1.359375l0.03125 0.046875zm7.7094574 5.90625l0 -1.140625l1.484375 -0.265625l0 -7.03125l-1.484375 -0.265625l0 -1.15625l3.09375 0l0.15625 1.265625l0.015625 0.171875q0.421875 -0.765625 1.03125 -1.1875q0.609375 -0.421875 1.40625 -0.421875q0.28125 0 0.578125 0.046875q0.296875 0.046875 0.421875 0.09375l-0.234375 1.671875l-1.25 -0.078125q-0.703125 -0.046875 -1.1875 0.328125q-0.484375 0.359375 -0.75 0.984375l0 5.578125l1.484375 0.265625l0 1.140625l-4.765625 0zm7.7326355 0l0 -1.140625l1.484375 -0.265625l0 -7.03125l-1.484375 -0.265625l0 -1.15625l3.28125 0l0 8.453125l1.484375 0.265625l0 1.140625l-4.765625 0zm1.390625 -12.28125l0 -1.921875l1.890625 0l0 1.921875l-1.890625 0zm4.611267 12.28125l0 -1.140625l1.484375 -0.265625l0 -7.03125l-1.484375 -0.265625l0 -1.15625l3.09375 0l0.125 1.28125q0.46875 -0.703125 1.21875 -1.078125q0.75 -0.375 1.734375 -0.375q0.984375 0 1.6875 0.453125q0.703125 0.453125 1.0625 1.359375q0.46875 -0.84375 1.234375 -1.328125q0.765625 -0.484375 1.78125 -0.484375q1.515625 0 2.390625 1.03125q0.875 1.03125 0.875 3.109375l0 4.484375l1.484375 0.265625l0 1.140625l-4.78125 0l0 -1.140625l1.484375 -0.265625l0 -4.5q0 -1.46875 -0.5 -2.0625q-0.5 -0.609375 -1.484375 -0.609375q-0.9375 0 -1.515625 0.65625q-0.5625 0.65625 -0.65625 1.65625l0 4.859375l1.484375 0.265625l0 1.140625l-4.765625 0l0 -1.140625l1.484375 -0.265625l0 -4.5q0 -1.390625 -0.515625 -2.03125q-0.5 -0.640625 -1.484375 -0.640625q-0.8125 0 -1.34375 0.34375q-0.53125 0.328125 -0.8125 0.9375l0 5.890625l1.484375 0.265625l0 1.140625l-4.765625 0zm22.372757 0.1875q-1.375 0 -2.390625 -0.625q-1.0 -0.625 -1.5625 -1.734375q-0.546875 -1.109375 -0.546875 -2.5625l0 -0.40625q0 -1.40625 0.578125 -2.5q0.578125 -1.109375 1.53125 -1.75q0.96875 -0.640625 2.109375 -0.640625q1.328125 0 2.21875 0.546875q0.90625 0.53125 1.359375 1.53125q0.453125 0.984375 0.453125 2.328125l0 1.109375l-6.390625 0l-0.03125 0.046875q0.015625 0.953125 0.328125 1.6875q0.328125 0.734375 0.921875 1.15625q0.59375 0.40625 1.421875 0.40625q0.90625 0 1.59375 -0.25q0.6875 -0.265625 1.1875 -0.71875l0.703125 1.171875q-0.53125 0.5 -1.40625 0.859375q-0.859375 0.34375 -2.078125 0.34375zm-2.578125 -6.09375l4.53125 0l0 -0.25q0 -0.703125 -0.25 -1.265625q-0.25 -0.5625 -0.75 -0.875q-0.484375 -0.328125 -1.234375 -0.328125q-0.59375 0 -1.09375 0.359375q-0.484375 0.34375 -0.8125 0.953125q-0.3125 0.59375 -0.421875 1.359375l0.03125 0.046875zm7.7250824 5.90625l0 -1.140625l1.484375 -0.265625l0 -7.03125l-1.484375 -0.265625l0 -1.15625l3.09375 0l0.125 1.46875q0.484375 -0.78125 1.21875 -1.203125q0.75 -0.4375 1.703125 -0.4375q1.59375 0 2.46875 0.9375q0.875 0.921875 0.875 2.875l0 4.8125l1.484375 0.265625l0 1.140625l-4.765625 0l0 -1.140625l1.484375 -0.265625l0 -4.78125q0 -1.296875 -0.515625 -1.84375q-0.515625 -0.546875 -1.5625 -0.546875q-0.78125 0 -1.375 0.375q-0.59375 0.375 -0.953125 1.015625l0 5.78125l1.484375 0.265625l0 1.140625l-4.765625 0zm15.353851 0.15625q-1.09375 0 -1.734375 -0.640625q-0.640625 -0.640625 -0.640625 -2.0625l0 -5.984375l-1.5625 0l0 -1.328125l1.5625 0l0 -2.375l1.796875 0l0 2.375l2.140625 0l0 1.328125l-2.140625 0l0 5.984375q0 0.71875 0.28125 1.0625q0.28125 0.328125 0.75 0.328125q0.3125 0 0.703125 -0.0625q0.40625 -0.0625 0.625 -0.109375l0.234375 1.1875q-0.390625 0.109375 -0.96875 0.203125q-0.5625 0.09375 -1.046875 0.09375zm6.353058 0.03125q-1.53125 0 -2.34375 -0.75q-0.796875 -0.75 -0.796875 -2.109375q0 -1.40625 1.140625 -2.25q1.15625 -0.859375 3.203125 -0.859375l1.75 0l0 -0.96875q0 -0.890625 -0.546875 -1.375q-0.53125 -0.5 -1.515625 -0.5q-0.625 0 -1.078125 0.15625q-0.453125 0.140625 -0.828125 0.40625l-0.1875 1.375l-1.390625 0l0 -2.265625q0.671875 -0.53125 1.546875 -0.796875q0.890625 -0.28125 1.953125 -0.28125q1.796875 0 2.8125 0.859375q1.03125 0.84375 1.03125 2.4375l0 4.75q0 0.1875 0 0.375q0.015625 0.171875 0.03125 0.359375l0.953125 0.109375l0 1.140625l-2.578125 0q-0.078125 -0.40625 -0.125 -0.71875q-0.046875 -0.3125 -0.0625 -0.640625q-0.53125 0.671875 -1.3125 1.109375q-0.765625 0.4375 -1.65625 0.4375zm0.265625 -1.5q0.890625 0 1.625 -0.421875q0.75 -0.4375 1.0625 -1.03125l0 -1.796875l-1.828125 0q-1.234375 0 -1.859375 0.59375q-0.609375 0.59375 -0.609375 1.328125q0 0.640625 0.390625 0.984375q0.40625 0.34375 1.21875 0.34375zm10.343201 1.46875q-1.09375 0 -1.734375 -0.640625q-0.640625 -0.640625 -0.640625 -2.0625l0 -5.984375l-1.5625 0l0 -1.328125l1.5625 0l0 -2.375l1.796875 0l0 2.375l2.140625 0l0 1.328125l-2.140625 0l0 5.984375q0 0.71875 0.28125 1.0625q0.28125 0.328125 0.75 0.328125q0.3125 0 0.703125 -0.0625q0.40625 -0.0625 0.625 -0.109375l0.234375 1.1875q-0.390625 0.109375 -0.96875 0.203125q-0.5625 0.09375 -1.046875 0.09375zm3.1030579 -0.15625l0 -1.140625l1.484375 -0.265625l0 -7.03125l-1.484375 -0.265625l0 -1.15625l3.28125 0l0 8.453125l1.484375 0.265625l0 1.140625l-4.765625 0zm1.390625 -12.28125l0 -1.921875l1.890625 0l0 1.921875l-1.890625 0zm9.064392 12.46875q-1.359375 0 -2.359375 -0.640625q-0.984375 -0.640625 -1.53125 -1.765625q-0.53125 -1.140625 -0.53125 -2.59375l0 -0.203125q0 -1.46875 0.53125 -2.59375q0.546875 -1.140625 1.53125 -1.78125q1.0 -0.640625 2.34375 -0.640625q1.375 0 2.359375 0.640625q0.984375 0.640625 1.515625 1.78125q0.546875 1.125 0.546875 2.59375l0 0.203125q0 1.453125 -0.546875 2.59375q-0.53125 1.140625 -1.515625 1.78125q-0.984375 0.625 -2.34375 0.625zm0 -1.40625q0.859375 0 1.4375 -0.46875q0.578125 -0.46875 0.875 -1.28125q0.296875 -0.8125 0.296875 -1.84375l0 -0.203125q0 -1.046875 -0.296875 -1.859375q-0.296875 -0.8125 -0.890625 -1.28125q-0.578125 -0.46875 -1.4375 -0.46875q-0.859375 0 -1.4375 0.46875q-0.578125 0.46875 -0.875 1.28125q-0.296875 0.8125 -0.296875 1.859375l0 0.203125q0 1.03125 0.296875 1.84375q0.296875 0.8125 0.875 1.28125q0.59375 0.46875 1.453125 0.46875zm5.7859497 1.21875l0 -1.140625l1.484375 -0.265625l0 -7.03125l-1.484375 -0.265625l0 -1.15625l3.09375 0l0.125 1.46875q0.484375 -0.78125 1.21875 -1.203125q0.75 -0.4375 1.703125 -0.4375q1.59375 0 2.46875 0.9375q0.875 0.921875 0.875 2.875l0 4.8125l1.484375 0.265625l0 1.140625l-4.765625 0l0 -1.140625l1.484375 -0.265625l0 -4.78125q0 -1.296875 -0.515625 -1.84375q-0.515625 -0.546875 -1.5625 -0.546875q-0.78125 0 -1.375 0.375q-0.59375 0.375 -0.953125 1.015625l0 5.78125l1.484375 0.265625l0 1.140625l-4.765625 0z" fill-rule="nonzero"/><path fill="#000000" fill-opacity="0.0" d="m3.6597033 16.688042l124.94488 0l0 23.622047l-124.94488 0z" fill-rule="evenodd"/><path fill="#000000" d="m62.356632 39.01594l0 -1.171875l1.390625 -0.25l0 -10.812502l-1.484375 -0.265625l0 -1.15625l3.0156288 0l0.171875 1.203125q0.484375 -0.671875 1.1875 -1.015625q0.71875 -0.359375 1.640625 -0.359375q1.21875 0 2.078125 0.65625q0.875 0.65625 1.328125 1.84375q0.453125 1.1875 0.453125 2.78125l0 0.1875q0 1.4218769 -0.453125 2.500002q-0.453125 1.0625 -1.3125 1.65625q-0.859375 0.59375 -2.0625 0.59375q-0.90625 0 -1.59375 -0.296875q-0.6875 -0.3125 -1.171875 -0.90625l0 3.390625l1.5625 0.25l0 1.171875l-4.750004 0zm5.390629 -5.015625q1.28125 0 1.9375 -0.921875q0.65625 -0.921875 0.65625 -2.421877l0 -0.1875q0 -1.125 -0.296875 -1.984375q-0.28125 -0.859375 -0.859375 -1.34375q-0.578125 -0.5 -1.453125 -0.5q-0.765625 0 -1.3125 0.34375q-0.546875 0.34375 -0.875 0.953125l0 4.796877q0.328125 0.609375 0.875 0.9375q0.546875 0.328125 1.328125 0.328125zm10.643646 1.40625q-1.375 0 -2.390625 -0.625q-1.0 -0.625 -1.5625 -1.734375q-0.546875 -1.1093769 -0.546875 -2.562502l0 -0.40625q0 -1.40625 0.578125 -2.5q0.578125 -1.109375 1.53125 -1.75q0.96875 -0.640625 2.109375 -0.640625q1.328125 0 2.21875 0.546875q0.90625 0.53125 1.359375 1.53125q0.453125 0.984375 0.453125 2.328125l0 1.109375l-6.390625 0l-0.03125 0.046875q0.015625 0.953125 0.328125 1.6875019q0.328125 0.734375 0.921875 1.15625q0.59375 0.40625 1.421875 0.40625q0.90625 0 1.59375 -0.25q0.6875 -0.265625 1.1875 -0.71875l0.703125 1.171875q-0.53125 0.5 -1.40625 0.859375q-0.859375 0.34375 -2.078125 0.34375zm-2.578125 -6.093752l4.53125 0l0 -0.25q0 -0.703125 -0.25 -1.265625q-0.25 -0.5625 -0.75 -0.875q-0.484375 -0.328125 -1.234375 -0.328125q-0.59375 0 -1.09375 0.359375q-0.484375 0.34375 -0.8125 0.953125q-0.3125 0.59375 -0.421875 1.359375l0.03125 0.046875zm12.451645 6.093752q-1.359375 0 -2.359375 -0.640625q-0.984375 -0.640625 -1.53125 -1.765625q-0.53125 -1.1406269 -0.53125 -2.593752l0 -0.203125q0 -1.46875 0.53125 -2.59375q0.546875 -1.140625 1.53125 -1.78125q1.0 -0.640625 2.34375 -0.640625q1.375 0 2.359375 0.640625q0.984375 0.640625 1.515625 1.78125q0.546875 1.125 0.546875 2.59375l0 0.203125q0 1.453125 -0.546875 2.593752q-0.53125 1.140625 -1.515625 1.78125q-0.984375 0.625 -2.34375 0.625zm0 -1.40625q0.859375 0 1.4375 -0.46875q0.578125 -0.46875 0.875 -1.28125q0.296875 -0.8125019 0.296875 -1.8437519l0 -0.203125q0 -1.046875 -0.296875 -1.859375q-0.296875 -0.8125 -0.890625 -1.28125q-0.578125 -0.46875 -1.4375 -0.46875q-0.859375 0 -1.4375 0.46875q-0.578125 0.46875 -0.875 1.28125q-0.296875 0.8125 -0.296875 1.859375l0 0.203125q0 1.03125 0.296875 1.8437519q0.296875 0.8125 0.875 1.28125q0.59375 0.46875 1.453125 0.46875zm5.5203247 5.015625l0 -1.171875l1.390625 -0.25l0 -10.812502l-1.484375 -0.265625l0 -1.15625l3.015625 0l0.171875 1.203125q0.484375 -0.671875 1.1875 -1.015625q0.71875 -0.359375 1.640625 -0.359375q1.21875 0 2.078125 0.65625q0.875 0.65625 1.328125 1.84375q0.453125 1.1875 0.453125 2.78125l0 0.1875q0 1.4218769 -0.453125 2.500002q-0.453125 1.0625 -1.3125 1.65625q-0.859375 0.59375 -2.0625 0.59375q-0.90625 0 -1.59375 -0.296875q-0.6875 -0.3125 -1.171875 -0.90625l0 3.390625l1.5625 0.25l0 1.171875l-4.75 0zm5.390625 -5.015625q1.28125 0 1.9375 -0.921875q0.65625 -0.921875 0.65625 -2.421877l0 -0.1875q0 -1.125 -0.296875 -1.984375q-0.28125 -0.859375 -0.859375 -1.34375q-0.578125 -0.5 -1.453125 -0.5q-0.765625 0 -1.3125 0.34375q-0.546875 0.34375 -0.875 0.953125l0 4.796877q0.328125 0.609375 0.875 0.9375q0.546875 0.328125 1.328125 0.328125zm5.5941772 1.21875l0 -1.140625l1.484375 -0.265625l0 -11.390627l-1.484375 -0.25l0 -1.15625l3.28125 0l0 12.796877l1.484375 0.265625l0 1.140625l-4.765625 0zm10.359955 0.1875q-1.375 0 -2.390625 -0.625q-1.0 -0.625 -1.5625 -1.734375q-0.546875 -1.1093769 -0.546875 -2.562502l0 -0.40625q0 -1.40625 0.578125 -2.5q0.578125 -1.109375 1.53125 -1.75q0.96875 -0.640625 2.109375 -0.640625q1.328125 0 2.21875 0.546875q0.90625 0.53125 1.359375 1.53125q0.453125 0.984375 0.453125 2.328125l0 1.109375l-6.390625 0l-0.03125 0.046875q0.015625 0.953125 0.328125 1.6875019q0.328125 0.734375 0.921875 1.15625q0.59375 0.40625 1.421875 0.40625q0.90625 0 1.59375 -0.25q0.6875 -0.265625 1.1875 -0.71875l0.703125 1.171875q-0.53125 0.5 -1.40625 0.859375q-0.859375 0.34375 -2.078125 0.34375zm-2.578125 -6.093752l4.53125 0l0 -0.25q0 -0.703125 -0.25 -1.265625q-0.25 -0.5625 -0.75 -0.875q-0.484375 -0.328125 -1.234375 -0.328125q-0.59375 0 -1.09375 0.359375q-0.484375 0.34375 -0.8125 0.953125q-0.3125 0.59375 -0.421875 1.359375l0.03125 0.046875z" fill-rule="nonzero"/><path fill="#000000" fill-opacity="0.0" d="m4.1616096 71.82846l124.944885 0l0 42.015747l-124.944885 0z" fill-rule="evenodd"/><path fill="#000000" d="m22.36713 99.743835q-1.328125 0 -2.328125 -0.625q-1.0 -0.625 -1.546875 -1.734375q-0.546875 -1.109375 -0.546875 -2.5625l0 -0.390625q0 -1.390625 0.53125 -2.5q0.53125 -1.125 1.515625 -1.765625q1.0 -0.640625 2.375 -0.640625q1.203125 0 2.09375 0.390625q0.890625 0.390625 1.515625 1.0625l0.03125 2.375l-1.390625 0l-0.3125 -1.71875q-0.3125 -0.328125 -0.78125 -0.515625q-0.453125 -0.1875 -1.09375 -0.1875q-0.796875 0 -1.40625 0.484375q-0.609375 0.46875 -0.953125 1.265625q-0.328125 0.78125 -0.328125 1.75l0 0.390625q0 1.078125 0.3125 1.875q0.328125 0.78125 0.90625 1.21875q0.59375 0.421875 1.40625 0.421875q0.90625 0 1.5 -0.5q0.609375 -0.5 0.75 -1.375l1.609375 0l0.015625 0.0625q-0.046875 0.84375 -0.5 1.59375q-0.453125 0.734375 -1.296875 1.1875q-0.84375 0.4375 -2.078125 0.4375zm9.947693 0q-1.359375 0 -2.359375 -0.640625q-0.984375 -0.640625 -1.53125 -1.765625q-0.53125 -1.140625 -0.53125 -2.59375l0 -0.203125q0 -1.46875 0.53125 -2.59375q0.546875 -1.140625 1.53125 -1.78125q1.0 -0.640625 2.34375 -0.640625q1.375 0 2.359375 0.640625q0.984375 0.640625 1.515625 1.78125q0.546875 1.125 0.546875 2.59375l0 0.203125q0 1.453125 -0.546875 2.59375q-0.53125 1.140625 -1.515625 1.78125q-0.984375 0.625 -2.34375 0.625zm0 -1.40625q0.859375 0 1.4375 -0.46875q0.578125 -0.46875 0.875 -1.28125q0.296875 -0.8125 0.296875 -1.84375l0 -0.203125q0 -1.046875 -0.296875 -1.859375q-0.296875 -0.8125 -0.890625 -1.28125q-0.578125 -0.46875 -1.4375 -0.46875q-0.859375 0 -1.4375 0.46875q-0.578125 0.46875 -0.875 1.28125q-0.296875 0.8125 -0.296875 1.859375l0 0.203125q0 1.03125 0.296875 1.84375q0.296875 0.8125 0.875 1.28125q0.59375 0.46875 1.453125 0.46875zm5.7859497 1.21875l0 -1.140625l1.484375 -0.265625l0 -7.03125l-1.484375 -0.265625l0 -1.15625l3.09375 0l0.125 1.28125q0.46875 -0.703125 1.21875 -1.078125q0.75 -0.375 1.734375 -0.375q0.984375 0 1.6875 0.453125q0.703125 0.453125 1.0625 1.359375q0.46875 -0.84375 1.234375 -1.328125q0.765625 -0.484375 1.78125 -0.484375q1.515625 0 2.390625 1.03125q0.875 1.03125 0.875 3.109375l0 4.484375l1.484375 0.265625l0 1.140625l-4.78125 0l0 -1.140625l1.484375 -0.265625l0 -4.5q0 -1.46875 -0.5 -2.0625q-0.5 -0.609375 -1.484375 -0.609375q-0.9375 0 -1.515625 0.65625q-0.5625 0.65625 -0.65625 1.65625l0 4.859375l1.484375 0.265625l0 1.140625l-4.765625 0l0 -1.140625l1.484375 -0.265625l0 -4.5q0 -1.390625 -0.515625 -2.03125q-0.5 -0.640625 -1.484375 -0.640625q-0.8125 0 -1.34375 0.34375q-0.53125 0.328125 -0.8125 0.9375l0 5.890625l1.484375 0.265625l0 1.140625l-4.765625 0zm18.009476 0l0 -1.140625l1.484375 -0.265625l0 -7.03125l-1.484375 -0.265625l0 -1.15625l3.09375 0l0.125 1.28125q0.46875 -0.703125 1.21875 -1.078125q0.75 -0.375 1.734375 -0.375q0.984375 0 1.6875 0.453125q0.7031288 0.453125 1.0625038 1.359375q0.46875 -0.84375 1.234375 -1.328125q0.765625 -0.484375 1.78125 -0.484375q1.515625 0 2.390625 1.03125q0.875 1.03125 0.875 3.109375l0 4.484375l1.484375 0.265625l0 1.140625l-4.78125 0l0 -1.140625l1.484375 -0.265625l0 -4.5q0 -1.46875 -0.5 -2.0625q-0.5 -0.609375 -1.484375 -0.609375q-0.9375 0 -1.515625 0.65625q-0.5625 0.65625 -0.65625 1.65625l0 4.859375l1.484375 0.265625l0 1.140625l-4.765629 0l0 -1.140625l1.484375 -0.265625l0 -4.5q0 -1.390625 -0.515625 -2.03125q-0.5 -0.640625 -1.484375 -0.640625q-0.8125 0 -1.34375 0.34375q-0.53125 0.328125 -0.8125 0.9375l0 5.890625l1.484375 0.265625l0 1.140625l-4.765625 0zm21.988651 0.1875q-1.609375 0 -2.515625 -1.03125q-0.890625 -1.03125 -0.890625 -3.203125l0 -4.390625l-1.140625 -0.265625l0 -1.15625l1.140625 0l1.78125 0l0 5.828125q0 1.578125 0.46875 2.171875q0.46875 0.59375 1.453125 0.59375q0.953125 0 1.578125 -0.390625q0.625 -0.390625 0.9375 -1.09375l0 -5.6875l-1.3125 -0.265625l0 -1.15625l1.3125 0l1.796875 0l0 8.453125l1.140625 0.265625l0 1.140625l-2.75 0l-0.125 -1.453125q-0.453125 0.78125 -1.1875 1.21875q-0.734375 0.421875 -1.6875 0.421875zm6.997574 -0.1875l0 -1.140625l1.484375 -0.265625l0 -7.03125l-1.484375 -0.265625l0 -1.15625l3.09375 0l0.125 1.46875q0.484375 -0.78125 1.21875 -1.203125q0.75 -0.4375 1.703125 -0.4375q1.59375 0 2.46875 0.9375q0.875 0.921875 0.875 2.875l0 4.8125l1.484375 0.265625l0 1.140625l-4.765625 0l0 -1.140625l1.484375 -0.265625l0 -4.78125q0 -1.296875 -0.515625 -1.84375q-0.515625 -0.546875 -1.5625 -0.546875q-0.78125 0 -1.375 0.375q-0.59375 0.375 -0.953125 1.015625l0 5.78125l1.484375 0.265625l0 1.140625l-4.765625 0zm12.171555 0l0 -1.140625l1.484375 -0.265625l0 -7.03125l-1.484375 -0.265625l0 -1.15625l3.28125 0l0 8.453125l1.484375 0.265625l0 1.140625l-4.765625 0zm1.390625 -12.28125l0 -1.921875l1.890625 0l0 1.921875l-1.890625 0zm8.095642 12.4375q-1.09375 0 -1.734375 -0.640625q-0.640625 -0.640625 -0.640625 -2.0625l0 -5.984375l-1.5625 0l0 -1.328125l1.5625 0l0 -2.375l1.796875 0l0 2.375l2.140625 0l0 1.328125l-2.140625 0l0 5.984375q0 0.71875 0.28125 1.0625q0.28125 0.328125 0.75 0.328125q0.3125 0 0.703125 -0.0625q0.40625 -0.0625 0.625 -0.109375l0.234375 1.1875q-0.390625 0.109375 -0.96875 0.203125q-0.5625 0.09375 -1.046875 0.09375zm5.306183 3.828125q-0.203125 0 -0.546875 -0.0625q-0.328125 -0.046875 -0.515625 -0.09375l0.1875 -1.40625q0.15625 0.015625 0.421875 0.03125q0.265625 0.015625 0.375 0.015625q0.578125 0 0.9375 -0.4375q0.359375 -0.4375 0.671875 -1.1875l0.421875 -1.046875l-3.484375 -8.34375l-1.0625 -0.15625l0 -1.15625l4.140625 0l0 1.15625l-1.203125 0.1875l1.921875 4.921875l0.46875 1.28125l0.0625 0l2.265625 -6.203125l-1.25 -0.1875l0 -1.15625l4.046875 0l0 1.15625l-1.015625 0.15625l-3.875 10.0625q-0.28125 0.703125 -0.671875 1.265625q-0.375 0.5625 -0.9375 0.875q-0.5625 0.328125 -1.359375 0.328125z" fill-rule="nonzero"/><path fill="#000000" fill-opacity="0.0" d="m4.1616096 135.02107l124.944885 0l0 42.015747l-124.944885 0z" fill-rule="evenodd"/><path fill="#000000" d="m40.257923 166.54582l0 -1.171875l1.390625 -0.25l0 -10.8125l-1.484375 -0.265625l0 -1.15625l3.015625 0l0.171875 1.203125q0.484375 -0.671875 1.1875 -1.015625q0.71875 -0.359375 1.640625 -0.359375q1.21875 0 2.078125 0.65625q0.875 0.65625 1.328125 1.84375q0.453125 1.1875 0.453125 2.78125l0 0.1875q0 1.421875 -0.453125 2.5q-0.453125 1.0625 -1.3125 1.65625q-0.859375 0.59375 -2.0625 0.59375q-0.90625 0 -1.59375 -0.296875q-0.6875 -0.3125 -1.171875 -0.90625l0 3.390625l1.5625 0.25l0 1.171875l-4.75 0zm5.390625 -5.015625q1.28125 0 1.9375 -0.921875q0.65625 -0.921875 0.65625 -2.421875l0 -0.1875q0 -1.125 -0.296875 -1.984375q-0.28125 -0.859375 -0.859375 -1.34375q-0.578125 -0.5 -1.453125 -0.5q-0.765625 0 -1.3125 0.34375q-0.546875 0.34375 -0.875 0.953125l0 4.796875q0.328125 0.609375 0.875 0.9375q0.546875 0.328125 1.328125 0.328125zm5.763443 1.21875l0 -1.140625l1.484375 -0.265625l0 -7.03125l-1.484375 -0.265625l0 -1.15625l3.09375 0l0.15625 1.265625l0.015625 0.171875q0.421875 -0.765625 1.03125 -1.1875q0.609375 -0.421875 1.40625 -0.421875q0.28125 0 0.578125 0.046875q0.296875 0.046875 0.421875 0.09375l-0.234375 1.671875l-1.25 -0.078125q-0.703125 -0.046875 -1.1875 0.328125q-0.484375 0.359375 -0.75 0.984375l0 5.578125l1.484375 0.265625l0 1.140625l-4.765625 0zm10.9826355 0.1875q-1.53125 0 -2.34375 -0.75q-0.796875 -0.75 -0.796875 -2.109375q0 -1.40625 1.140625 -2.25q1.15625 -0.859375 3.203125 -0.859375l1.7500038 0l0 -0.96875q0 -0.890625 -0.546875 -1.375q-0.53125 -0.5 -1.5156288 -0.5q-0.625 0 -1.078125 0.15625q-0.453125 0.140625 -0.828125 0.40625l-0.1875 1.375l-1.390625 0l0 -2.265625q0.671875 -0.53125 1.546875 -0.796875q0.890625 -0.28125 1.953125 -0.28125q1.7968788 0 2.8125038 0.859375q1.03125 0.84375 1.03125 2.4375l0 4.75q0 0.1875 0 0.375q0.015625 0.171875 0.03125 0.359375l0.953125 0.109375l0 1.140625l-2.578125 0q-0.078125 -0.40625 -0.125 -0.71875q-0.046875 -0.3125 -0.0625 -0.640625q-0.53125 0.671875 -1.3125 1.109375q-0.7656288 0.4375 -1.6562538 0.4375zm0.265625 -1.5q0.890625 0 1.6250038 -0.421875q0.75 -0.4375 1.0625 -1.03125l0 -1.796875l-1.8281288 0q-1.234375 0 -1.859375 0.59375q-0.609375 0.59375 -0.609375 1.328125q0 0.640625 0.390625 0.984375q0.40625 0.34375 1.21875 0.34375zm11.3119545 1.5q-1.328125 0 -2.328125 -0.625q-1.0 -0.625 -1.546875 -1.734375q-0.546875 -1.109375 -0.546875 -2.5625l0 -0.390625q0 -1.390625 0.53125 -2.5q0.53125 -1.125 1.515625 -1.765625q1.0 -0.640625 2.375 -0.640625q1.203125 0 2.09375 0.390625q0.890625 0.390625 1.515625 1.0625l0.03125 2.375l-1.390625 0l-0.3125 -1.71875q-0.3125 -0.328125 -0.78125 -0.515625q-0.453125 -0.1875 -1.09375 -0.1875q-0.796875 0 -1.40625 0.484375q-0.609375 0.46875 -0.953125 1.265625q-0.328125 0.78125 -0.328125 1.75l0 0.390625q0 1.078125 0.3125 1.875q0.328125 0.78125 0.90625 1.21875q0.59375 0.421875 1.40625 0.421875q0.90625 0 1.5 -0.5q0.609375 -0.5 0.75 -1.375l1.609375 0l0.015625 0.0625q-0.046875 0.84375 -0.5 1.59375q-0.453125 0.734375 -1.296875 1.1875q-0.84375 0.4375 -2.078125 0.4375zm8.751083 -0.03125q-1.09375 0 -1.734375 -0.640625q-0.640625 -0.640625 -0.640625 -2.0625l0 -5.984375l-1.5625 0l0 -1.328125l1.5625 0l0 -2.375l1.796875 0l0 2.375l2.140625 0l0 1.328125l-2.140625 0l0 5.984375q0 0.71875 0.28125 1.0625q0.28125 0.328125 0.75 0.328125q0.3125 0 0.703125 -0.0625q0.40625 -0.0625 0.625 -0.109375l0.234375 1.1875q-0.390625 0.109375 -0.96875 0.203125q-0.5625 0.09375 -1.046875 0.09375zm3.1030579 -0.15625l0 -1.140625l1.484375 -0.265625l0 -7.03125l-1.484375 -0.265625l0 -1.15625l3.28125 0l0 8.453125l1.484375 0.265625l0 1.140625l-4.765625 0zm1.390625 -12.28125l0 -1.921875l1.890625 0l0 1.921875l-1.890625 0zm9.064392 12.46875q-1.328125 0 -2.328125 -0.625q-1.0 -0.625 -1.546875 -1.734375q-0.546875 -1.109375 -0.546875 -2.5625l0 -0.390625q0 -1.390625 0.53125 -2.5q0.53125 -1.125 1.515625 -1.765625q1.0 -0.640625 2.375 -0.640625q1.203125 0 2.09375 0.390625q0.890625 0.390625 1.515625 1.0625l0.03125 2.375l-1.390625 0l-0.3125 -1.71875q-0.3125 -0.328125 -0.78125 -0.515625q-0.453125 -0.1875 -1.09375 -0.1875q-0.796875 0 -1.40625 0.484375q-0.609375 0.46875 -0.953125 1.265625q-0.328125 0.78125 -0.328125 1.75l0 0.390625q0 1.078125 0.3125 1.875q0.328125 0.78125 0.90625 1.21875q0.59375 0.421875 1.40625 0.421875q0.90625 0 1.5 -0.5q0.609375 -0.5 0.75 -1.375l1.609375 0l0.015625 0.0625q-0.046875 0.84375 -0.5 1.59375q-0.453125 0.734375 -1.296875 1.1875q-0.84375 0.4375 -2.078125 0.4375zm9.994568 0q-1.375 0 -2.390625 -0.625q-1.0 -0.625 -1.5625 -1.734375q-0.546875 -1.109375 -0.546875 -2.5625l0 -0.40625q0 -1.40625 0.578125 -2.5q0.578125 -1.109375 1.53125 -1.75q0.96875 -0.640625 2.109375 -0.640625q1.328125 0 2.21875 0.546875q0.90625 0.53125 1.359375 1.53125q0.453125 0.984375 0.453125 2.328125l0 1.109375l-6.390625 0l-0.03125 0.046875q0.015625 0.953125 0.328125 1.6875q0.328125 0.734375 0.921875 1.15625q0.59375 0.40625 1.421875 0.40625q0.90625 0 1.59375 -0.25q0.6875 -0.265625 1.1875 -0.71875l0.703125 1.171875q-0.53125 0.5 -1.40625 0.859375q-0.859375 0.34375 -2.078125 0.34375zm-2.578125 -6.09375l4.53125 0l0 -0.25q0 -0.703125 -0.25 -1.265625q-0.25 -0.5625 -0.75 -0.875q-0.484375 -0.328125 -1.234375 -0.328125q-0.59375 0 -1.09375 0.359375q-0.484375 0.34375 -0.8125 0.953125q-0.3125 0.59375 -0.421875 1.359375l0.03125 0.046875zm11.77066 6.09375q-1.0 0 -1.875 -0.1875q-0.859375 -0.203125 -1.828125 -0.625l-0.015625 -2.34375l1.359375 0l0.328125 1.40625q0.515625 0.21875 0.984375 0.3125q0.484375 0.09375 1.046875 0.09375q1.078125 0 1.546875 -0.421875q0.484375 -0.421875 0.484375 -1.03125q0 -0.59375 -0.484375 -1.0q-0.46875 -0.40625 -1.734375 -0.6875q-1.78125 -0.40625 -2.625 -1.09375q-0.84375 -0.6875 -0.84375 -1.828125q0 -0.8125 0.46875 -1.4375q0.46875 -0.640625 1.296875 -1.0q0.828125 -0.375 1.921875 -0.375q1.125 0 1.921875 0.25q0.796875 0.25 1.390625 0.6875l0.09375 2.25l-1.34375 0l-0.296875 -1.3125q-0.3125 -0.25 -0.75 -0.375q-0.4375 -0.125 -1.015625 -0.125q-0.828125 0 -1.359375 0.390625q-0.515625 0.390625 -0.515625 0.984375q0 0.34375 0.140625 0.609375q0.15625 0.25 0.578125 0.453125q0.4375 0.203125 1.265625 0.40625q2.0625 0.484375 2.875 1.234375q0.8125 0.75 0.8125 1.84375q0 1.234375 -0.921875 2.078125q-0.921875 0.84375 -2.90625 0.84375z" fill-rule="nonzero"/></g></svg>