<svg version="1.1" viewBox="0.0 0.0 366.750656167979 381.88188976377955" fill="none" stroke="none" stroke-linecap="square" stroke-miterlimit="10" xmlns:xlink="http://www.w3.org/1999/xlink" xmlns="http://www.w3.org/2000/svg"><clipPath id="p.0"><path d="m0 0l366.75067 0l0 381.8819l-366.75067 0l0 -381.8819z" clip-rule="nonzero"/></clipPath><g clip-path="url(#p.0)"><path fill="#000000" fill-opacity="0.0" d="m0 0l366.75067 0l0 381.8819l-366.75067 0z" fill-rule="evenodd"/><defs><radialGradient id="p.1" gradientUnits="userSpaceOnUse" gradientTransform="matrix(13.886922651721948 0.0 0.0 13.886922651721948 0.0 0.0)" spreadMethod="pad" cx="6.9163864850267585" cy="12.959774955334355" fx="6.9163864850267585" fy="12.959774955334355" r="13.886922836303711"><stop offset="0.0" stop-color="#f5d0d0"/><stop offset="1.0" stop-color="#d96868"/></radialGradient></defs><path fill="url(#p.1)" d="m8.929214 7.924148l174.23622 0l0 344.0945l-174.23622 0z" fill-rule="evenodd"/><defs><radialGradient id="p.2" gradientUnits="userSpaceOnUse" gradientTransform="matrix(13.886922651721948 0.0 0.0 13.886922651721948 0.0 0.0)" spreadMethod="pad" cx="19.493399568077148" cy="12.959527361227568" fx="19.493399568077148" fy="12.959527361227568" r="13.886922836303711"><stop offset="0.0" stop-color="#dcecd5"/><stop offset="1.0" stop-color="#93bc81"/></radialGradient></defs><path fill="url(#p.2)" d="m183.58522 7.92071l174.23622 0l0 344.09448l-174.23622 0z" fill-rule="evenodd"/><path fill="#000000" fill-opacity="0.0" d="m237.0272 347.71307c31.16536 0 62.330704 -45.795258 62.330704 -91.590546" fill-rule="evenodd"/><path stroke="#000000" stroke-width="1.0" stroke-linejoin="round" stroke-linecap="butt" d="m237.0272 347.71307c31.16536 0 62.330704 -45.795258 62.330704 -91.590546" fill-rule="evenodd"/><path fill="#000000" fill-opacity="0.0" d="m52.488228 192.1502c0 77.77954 39.039375 155.55905 78.07874 155.55905" fill-rule="evenodd"/><path stroke="#000000" stroke-width="1.0" stroke-linejoin="round" stroke-linecap="butt" d="m52.488228 192.1502c0 77.77954 39.039375 155.55905 78.07874 155.55905" fill-rule="evenodd"/><path fill="#000000" fill-opacity="0.0" d="m237.0272 347.71307c29.244095 0 58.488205 -104.55118 58.488205 -209.10236" fill-rule="evenodd"/><path stroke="#000000" stroke-width="1.0" stroke-linejoin="round" stroke-linecap="butt" d="m237.0272 347.71307c29.244095 0 58.488205 -104.55118 58.488205 -209.10236" fill-rule="evenodd"/><path fill="#000000" fill-opacity="0.0" d="m237.0272 347.71307c10.015747 0 20.03151 -65.653534 20.03151 -131.30708" fill-rule="evenodd"/><path stroke="#000000" stroke-width="1.0" stroke-linejoin="round" stroke-linecap="butt" d="m237.0272 347.71307c10.015747 0 20.03151 -65.653534 20.03151 -131.30708" fill-rule="evenodd"/><path fill="#000000" fill-opacity="0.0" d="m237.0272 347.71307c50.03151 0 100.063 -85.49606 100.063 -170.99213" fill-rule="evenodd"/><path stroke="#000000" stroke-width="1.0" stroke-linejoin="round" stroke-linecap="butt" d="m237.0272 347.71307c50.03151 0 100.063 -85.49606 100.063 -170.99213" fill-rule="evenodd"/><g filter="url(#shadowFilter-p.3)"><use xlink:href="#p.3" transform="matrix(1.0 0.0 0.0 1.0 0.0 2.0)"/></g><defs><filter id="shadowFilter-p.3" filterUnits="userSpaceOnUse"><feGaussianBlur in="SourceAlpha" stdDeviation="2.0" result="blur"/><feComponentTransfer in="blur" color-interpolation-filters="sRGB"><feFuncR type="linear" slope="0" intercept="0.0"/><feFuncG type="linear" slope="0" intercept="0.0"/><feFuncB type="linear" slope="0" intercept="0.0"/><feFuncA type="linear" slope="0.5" intercept="0"/></feComponentTransfer></filter></defs><g id="p.3"><path fill="#ffff00" d="m277.08502 138.61504l18.425201 -31.874016l18.425201 31.874016z" fill-rule="evenodd"/><path stroke="#b7b7b7" stroke-width="1.0" stroke-linejoin="round" stroke-linecap="butt" d="m277.08502 138.61504l18.425201 -31.874016l18.425201 31.874016z" fill-rule="evenodd"/></g><g filter="url(#shadowFilter-p.4)"><use xlink:href="#p.4" transform="matrix(1.0 0.0 0.0 1.0 0.0 2.0)"/></g><defs><filter id="shadowFilter-p.4" filterUnits="userSpaceOnUse"><feGaussianBlur in="SourceAlpha" stdDeviation="2.0" result="blur"/><feComponentTransfer in="blur" color-interpolation-filters="sRGB"><feFuncR type="linear" slope="0" intercept="0.0"/><feFuncG type="linear" slope="0" intercept="0.0"/><feFuncB type="linear" slope="0" intercept="0.0"/><feFuncA type="linear" slope="0.5" intercept="0"/></feComponentTransfer></filter></defs><g id="p.4"><path fill="#ffff00" d="m245.11539 192.51622l23.905518 0l0 23.905518l-23.905518 0z" fill-rule="evenodd"/><path fill="#cbcb00" d="m269.0209 192.51622l7.968506 -7.968506l0 23.905518l-7.968506 7.968506z" fill-rule="evenodd"/><path fill="#ffff33" d="m245.11539 192.51622l7.968506 -7.968506l23.905518 0l-7.968506 7.968506z" fill-rule="evenodd"/><path fill="#000000" fill-opacity="0.0" d="m245.11539 192.51622l7.968506 -7.968506l23.905518 0l0 23.905518l-7.968506 7.968506l-23.905518 0zm0 0l23.905518 0l7.968506 -7.968506m-7.968506 7.968506l0 23.905518" fill-rule="evenodd"/><path stroke="#b7b7b7" stroke-width="1.0" stroke-linejoin="round" stroke-linecap="butt" d="m245.11539 192.51622l7.968506 -7.968506l23.905518 0l0 23.905518l-7.968506 7.968506l-23.905518 0zm0 0l23.905518 0l7.968506 -7.968506m-7.968506 7.968506l0 23.905518" fill-rule="evenodd"/></g><g filter="url(#shadowFilter-p.5)"><use xlink:href="#p.5" transform="matrix(1.0 0.0 0.0 1.0 0.0 2.0)"/></g><defs><filter id="shadowFilter-p.5" filterUnits="userSpaceOnUse"><feGaussianBlur in="SourceAlpha" stdDeviation="2.0" result="blur"/><feComponentTransfer in="blur" color-interpolation-filters="sRGB"><feFuncR type="linear" slope="0" intercept="0.0"/><feFuncG type="linear" slope="0" intercept="0.0"/><feFuncB type="linear" slope="0" intercept="0.0"/><feFuncA type="linear" slope="0.5" intercept="0"/></feComponentTransfer></filter></defs><g id="p.5"><path fill="#000000" fill-opacity="0.0" d="m8.929133 7.918636l174.23622 0l0 77.57481l-174.23622 0z" fill-rule="evenodd"/><path fill="#ffffff" d="m81.82068 42.86604l0 -1.203125l1.25 -0.234375l0 -8.5l-1.25 -0.234375l0 -1.203125l8.84375 0l0 2.953125l-1.53125 0l-0.125 -1.4375l-3.96875 0l0 3.46875l4.046875 0l0 1.53125l-4.046875 0l0 3.421875l1.234375 0.234375l0 1.203125l-4.453125 0zm9.8046875 0l0 -1.203125l1.171875 -0.234375l0 -5.578125l-1.234375 -0.234375l0 -1.203125l3.203125 0l0 7.015625l1.171875 0.234375l0 1.203125l-4.3125 0zm1.09375 -10.375l0 -1.8125l2.046875 0l0 1.8125l-2.046875 0zm6.8984375 10.546875q-1.296875 0 -2.015625 -0.671875q-0.71875 -0.671875 -0.71875 -1.828125q0 -1.203125 0.96875 -1.9375q0.984375 -0.75 2.796875 -0.75l1.296875 0l0 -0.703125q0 -0.671875 -0.40625 -1.0625q-0.40625 -0.40625 -1.171875 -0.40625q-0.4375 0 -0.78125 0.109375q-0.328125 0.09375 -0.59375 0.296875l-0.171875 1.140625l-1.453125 0l-0.015625 -2.09375q0.625 -0.40625 1.390625 -0.640625q0.765625 -0.234375 1.703125 -0.234375q1.609375 0 2.53125 0.75q0.9375 0.75 0.9375 2.15625l0 3.734375q0 0.171875 0 0.34375q0 0.15625 0.015625 0.3125l0.859375 0.109375l0 1.203125l-2.5625 0q-0.078125 -0.28125 -0.15625 -0.53125q-0.0625 -0.265625 -0.09375 -0.515625q-0.421875 0.53125 -1.015625 0.875q-0.59375 0.34375 -1.34375 0.34375zm0.4375 -1.53125q0.59375 0 1.109375 -0.28125q0.515625 -0.28125 0.78125 -0.703125l0 -1.40625l-1.3125 0q-0.890625 0 -1.34375 0.40625q-0.4375 0.40625 -0.4375 0.953125q0 0.5 0.3125 0.765625q0.3125 0.265625 0.890625 0.265625zm8.7265625 1.515625q-1.078125 0 -1.6875 -0.609375q-0.59375 -0.609375 -0.59375 -1.9375l0 -4.65625l-1.234375 0l0 -1.40625l1.234375 0l0 -2.0625l1.953125 0l0 2.0625l1.671875 0l0 1.40625l-1.671875 0l0 4.65625q0 0.53125 0.21875 0.78125q0.234375 0.25 0.609375 0.25q0.21875 0 0.484375 -0.03125q0.28125 -0.046875 0.4375 -0.09375l0.203125 1.390625q-0.34375 0.109375 -0.78125 0.171875q-0.4375 0.078125 -0.84375 0.078125z" fill-rule="nonzero"/><path fill="#ffffff" d="m72.80505 62.237915q-1.171875 0 -2.171875 -0.296875q-1.0 -0.296875 -1.9375 -0.96875l0 -2.609375l1.515625 0l0.25 1.6875q0.421875 0.296875 1.015625 0.484375q0.609375 0.171875 1.328125 0.171875q0.6875 0 1.15625 -0.1875q0.484375 -0.203125 0.734375 -0.5625q0.25 -0.359375 0.25 -0.859375q0 -0.453125 -0.21875 -0.796875q-0.21875 -0.359375 -0.734375 -0.625q-0.5 -0.28125 -1.375 -0.515625q-1.265625 -0.34375 -2.125 -0.8125q-0.859375 -0.46875 -1.296875 -1.125q-0.421875 -0.65625 -0.421875 -1.546875q0 -0.921875 0.484375 -1.625q0.5 -0.703125 1.375 -1.109375q0.890625 -0.40625 2.046875 -0.40625q1.265625 -0.015625 2.234375 0.328125q0.984375 0.34375 1.65625 0.890625l0 2.453125l-1.5 0l-0.28125 -1.59375q-0.3125 -0.234375 -0.828125 -0.390625q-0.515625 -0.15625 -1.203125 -0.15625q-0.59375 0 -1.046875 0.203125q-0.453125 0.1875 -0.71875 0.546875q-0.25 0.34375 -0.25 0.84375q0 0.421875 0.21875 0.75q0.234375 0.3125 0.765625 0.578125q0.53125 0.265625 1.4375 0.53125q1.84375 0.484375 2.796875 1.359375q0.953125 0.859375 0.953125 2.203125q0 0.953125 -0.515625 1.65625q-0.5 0.703125 -1.4375 1.109375q-0.921875 0.390625 -2.15625 0.390625zm7.328125 3.25q-0.234375 0 -0.5625 -0.046875q-0.3125 -0.046875 -0.546875 -0.125l0.21875 -1.46875q0.140625 0.015625 0.34375 0.03125q0.203125 0.015625 0.3125 0.015625q0.5 0 0.828125 -0.3125q0.34375 -0.296875 0.546875 -0.84375l0.265625 -0.6875l-2.890625 -7.09375l-0.984375 -0.140625l0 -1.203125l4.09375 0l0 1.203125l-1.046875 0.15625l1.46875 3.9375l0.265625 0.734375l0.046875 0l1.734375 -4.671875l-1.046875 -0.15625l0 -1.203125l3.890625 0l0 1.203125l-0.921875 0.140625l-3.265625 8.390625q-0.234375 0.59375 -0.59375 1.078125q-0.34375 0.484375 -0.875 0.765625q-0.515625 0.296875 -1.28125 0.296875zm11.0546875 -3.25q-0.90625 0 -1.703125 -0.171875q-0.78125 -0.1875 -1.5625 -0.53125l-0.03125 -2.234375l1.421875 0l0.296875 1.21875q0.328125 0.140625 0.6875 0.234375q0.359375 0.078125 0.796875 0.078125q0.84375 0 1.1875 -0.296875q0.34375 -0.296875 0.34375 -0.734375q0 -0.421875 -0.359375 -0.71875q-0.359375 -0.3125 -1.390625 -0.53125q-1.515625 -0.328125 -2.234375 -0.953125q-0.703125 -0.625 -0.703125 -1.640625q0 -0.6875 0.359375 -1.25q0.375 -0.5625 1.09375 -0.90625q0.734375 -0.34375 1.78125 -0.34375q0.96875 0 1.703125 0.203125q0.75 0.203125 1.28125 0.53125l0.046875 2.140625l-1.40625 0l-0.234375 -1.109375q-0.25 -0.171875 -0.578125 -0.265625q-0.3125 -0.09375 -0.71875 -0.09375q-0.65625 0 -1.03125 0.28125q-0.375 0.28125 -0.375 0.71875q0 0.25 0.125 0.453125q0.125 0.203125 0.46875 0.375q0.34375 0.15625 1.015625 0.3125q1.65625 0.390625 2.359375 1.015625q0.71875 0.609375 0.71875 1.625q0 1.125 -0.828125 1.859375q-0.828125 0.734375 -2.53125 0.734375zm7.6796875 -0.015625q-1.078125 0 -1.6875 -0.609375q-0.59375 -0.609375 -0.59375 -1.9375l0 -4.65625l-1.234375 0l0 -1.40625l1.234375 0l0 -2.0625l1.953125 0l0 2.0625l1.671875 0l0 1.40625l-1.671875 0l0 4.65625q0 0.53125 0.21875 0.78125q0.234375 0.25 0.609375 0.25q0.21875 0 0.484375 -0.03125q0.28125 -0.046875 0.4375 -0.09375l0.203125 1.390625q-0.34375 0.109375 -0.78125 0.171875q-0.4375 0.078125 -0.84375 0.078125zm6.328125 0.015625q-1.203125 0 -2.09375 -0.53125q-0.875 -0.546875 -1.375 -1.484375q-0.484375 -0.953125 -0.484375 -2.171875l0 -0.328125q0 -1.234375 0.484375 -2.1875q0.484375 -0.96875 1.328125 -1.515625q0.84375 -0.5625 1.921875 -0.5625q1.140625 0 1.921875 0.46875q0.78125 0.453125 1.171875 1.296875q0.40625 0.84375 0.40625 2.03125l0 1.125l-5.1875 0l-0.015625 0.046875q0.03125 0.65625 0.265625 1.171875q0.25 0.515625 0.703125 0.8125q0.46875 0.296875 1.125 0.296875q0.6875 0 1.25 -0.1875q0.5625 -0.1875 1.03125 -0.53125l0.625 1.234375q-0.5 0.421875 -1.28125 0.71875q-0.765625 0.296875 -1.796875 0.296875zm-1.875 -5.234375l3.265625 0l0 -0.203125q0 -0.5625 -0.171875 -0.96875q-0.15625 -0.421875 -0.515625 -0.65625q-0.359375 -0.234375 -0.90625 -0.234375q-0.46875 0 -0.828125 0.265625q-0.359375 0.265625 -0.578125 0.71875q-0.21875 0.453125 -0.296875 1.03125l0.03125 0.046875zm6.21875 5.0625l0 -1.203125l1.171875 -0.234375l0 -5.578125l-1.234375 -0.234375l0 -1.203125l3.046875 0l0.09375 1.109375q0.40625 -0.609375 1.03125 -0.9375q0.625 -0.328125 1.4375 -0.328125q0.828125 0 1.421875 0.375q0.59375 0.359375 0.890625 1.109375q0.390625 -0.6875 1.03125 -1.078125q0.640625 -0.40625 1.5 -0.40625q1.265625 0 2.0 0.875q0.734375 0.859375 0.734375 2.609375l0 3.6875l1.171875 0.234375l0 1.203125l-4.25 0l0 -1.203125l1.109375 -0.234375l0 -3.6875q0 -1.078125 -0.359375 -1.5q-0.359375 -0.4375 -1.0625 -0.4375q-0.640625 0 -1.0625 0.421875q-0.421875 0.40625 -0.546875 1.046875l0 4.15625l1.078125 0.234375l0 1.203125l-4.109375 0l0 -1.203125l1.078125 -0.234375l0 -3.6875q0 -1.03125 -0.375 -1.484375q-0.359375 -0.453125 -1.0625 -0.453125q-0.578125 0 -0.96875 0.234375q-0.390625 0.234375 -0.625 0.671875l0 4.71875l1.09375 0.234375l0 1.203125l-4.234375 0z" fill-rule="nonzero"/></g><g filter="url(#shadowFilter-p.6)"><use xlink:href="#p.6" transform="matrix(1.0 0.0 0.0 1.0 0.0 2.0000000000000093)"/></g><defs><filter id="shadowFilter-p.6" filterUnits="userSpaceOnUse"><feGaussianBlur in="SourceAlpha" stdDeviation="2.0" result="blur"/><feComponentTransfer in="blur" color-interpolation-filters="sRGB"><feFuncR type="linear" slope="0" intercept="0.0"/><feFuncG type="linear" slope="0" intercept="0.0"/><feFuncB type="linear" slope="0" intercept="0.0"/><feFuncA type="linear" slope="0.5" intercept="0"/></feComponentTransfer></filter></defs><g id="p.6"><path fill="#000000" fill-opacity="0.0" d="m183.58429 7.9208064l174.2362 0l0 77.57481l-174.2362 0z" fill-rule="evenodd"/><path fill="#ffffff" d="m242.72192 32.280807l0 -1.203125l1.25 -0.234375l0 -8.5l-1.25 -0.234375l0 -1.203125l5.265625 0q1.28125 0 2.1875 0.390625q0.90625 0.390625 1.375 1.125q0.484375 0.734375 0.484375 1.78125q0 1.0 -0.484375 1.75q-0.46875 0.734375 -1.3125 1.140625q-0.84375 0.40625 -1.984375 0.421875l-2.3125 0.03125l0 3.296875l1.234375 0.234375l0 1.203125l-4.453125 0zm7.40625 0l-2.171875 -5.234375l1.84375 -0.3125l1.84375 4.140625l0.890625 0.1875l0 1.21875l-2.40625 0zm-4.1875 -6.265625l1.953125 0q1.109375 0 1.640625 -0.453125q0.53125 -0.453125 0.53125 -1.3125q0 -0.828125 -0.515625 -1.328125q-0.515625 -0.5 -1.5625 -0.5l-2.046875 0l0 3.59375zm10.515625 6.4375q-1.296875 0 -2.015625 -0.671875q-0.71875 -0.671875 -0.71875 -1.828125q0 -1.203125 0.96875 -1.9375q0.984375 -0.75 2.796875 -0.75l1.296875 0l0 -0.703125q0 -0.671875 -0.40625 -1.0625q-0.40625 -0.40625 -1.171875 -0.40625q-0.4375 0 -0.78125 0.109375q-0.328125 0.09375 -0.59375 0.296875l-0.171875 1.140625l-1.453125 0l-0.015625 -2.09375q0.625 -0.40625 1.390625 -0.640625q0.765625 -0.234375 1.703125 -0.234375q1.609375 0 2.53125 0.75q0.9375 0.75 0.9375 2.15625l0 3.734375q0 0.171875 0 0.34375q0 0.15625 0.015625 0.3125l0.859375 0.109375l0 1.203125l-2.5625 0q-0.078125 -0.28125 -0.15625 -0.53125q-0.0625 -0.265625 -0.09375 -0.515625q-0.421875 0.53125 -1.015625 0.875q-0.59375 0.34375 -1.34375 0.34375zm0.4375 -1.53125q0.59375 0 1.109375 -0.28125q0.515625 -0.28125 0.78125 -0.703125l0 -1.40625l-1.3125 0q-0.890625 0 -1.34375 0.40625q-0.4375 0.40625 -0.4375 0.953125q0 0.5 0.3125 0.765625q0.3125 0.265625 0.890625 0.265625zm8.984375 1.53125q-1.015625 0 -1.75 -0.515625q-0.71875 -0.53125 -1.109375 -1.453125q-0.390625 -0.921875 -0.390625 -2.15625l0 -0.171875q0 -1.34375 0.390625 -2.34375q0.390625 -1.015625 1.109375 -1.578125q0.734375 -0.5625 1.75 -0.5625q0.71875 0 1.265625 0.28125q0.546875 0.265625 0.9375 0.78125l0 -3.203125l-1.25 -0.234375l0 -1.203125l1.25 0l1.96875 0l0 10.75l1.171875 0.234375l0 1.203125l-2.875 0l-0.15625 -1.03125q-0.40625 0.59375 -0.984375 0.90625q-0.5625 0.296875 -1.328125 0.296875zm0.5625 -1.5625q0.5625 0 0.96875 -0.25q0.40625 -0.25 0.671875 -0.71875l0 -3.71875q-0.265625 -0.453125 -0.671875 -0.71875q-0.40625 -0.265625 -0.953125 -0.265625q-0.640625 0 -1.0625 0.375q-0.40625 0.375 -0.609375 1.03125q-0.1875 0.65625 -0.1875 1.53125l0 0.171875q0 1.171875 0.4375 1.875q0.4375 0.6875 1.40625 0.6875zm5.578125 1.390625l0 -1.203125l1.171875 -0.234375l0 -5.578125l-1.234375 -0.234375l0 -1.203125l3.203125 0l0 7.015625l1.171875 0.234375l0 1.203125l-4.3125 0zm1.09375 -10.375l0 -1.8125l2.046875 0l0 1.8125l-2.046875 0zm8.0078125 10.546875q-1.1875 0 -2.0625 -0.546875q-0.859375 -0.546875 -1.34375 -1.5q-0.46875 -0.96875 -0.46875 -2.21875l0 -0.265625q0 -1.234375 0.46875 -2.1875q0.46875 -0.96875 1.34375 -1.515625q0.875 -0.546875 2.0625 -0.546875q1.078125 0 1.875 0.34375q0.8125 0.34375 1.328125 0.859375l0.015625 2.265625l-1.5 0l-0.296875 -1.5q-0.21875 -0.21875 -0.5625 -0.359375q-0.328125 -0.140625 -0.71875 -0.140625q-0.65625 0 -1.109375 0.359375q-0.453125 0.34375 -0.703125 0.96875q-0.234375 0.625 -0.234375 1.453125l0 0.265625q0 0.890625 0.234375 1.5q0.25 0.609375 0.6875 0.921875q0.4375 0.3125 1.0 0.3125q0.671875 0 1.09375 -0.359375q0.4375 -0.375 0.5625 -1.015625l1.703125 0l0.03125 0.046875q-0.09375 0.828125 -0.5 1.46875q-0.390625 0.640625 -1.109375 1.015625q-0.703125 0.375 -1.796875 0.375zm7.3671875 0q-1.296875 0 -2.015625 -0.671875q-0.71875 -0.671875 -0.71875 -1.828125q0 -1.203125 0.96875 -1.9375q0.984375 -0.75 2.796875 -0.75l1.296875 0l0 -0.703125q0 -0.671875 -0.40625 -1.0625q-0.40625 -0.40625 -1.171875 -0.40625q-0.4375 0 -0.78125 0.109375q-0.328125 0.09375 -0.59375 0.296875l-0.171875 1.140625l-1.453125 0l-0.015625 -2.09375q0.625 -0.40625 1.390625 -0.640625q0.765625 -0.234375 1.703125 -0.234375q1.609375 0 2.53125 0.75q0.9375 0.75 0.9375 2.15625l0 3.734375q0 0.171875 0 0.34375q0 0.15625 0.015625 0.3125l0.859375 0.109375l0 1.203125l-2.5625 0q-0.078125 -0.28125 -0.15625 -0.53125q-0.0625 -0.265625 -0.09375 -0.515625q-0.421875 0.53125 -1.015625 0.875q-0.59375 0.34375 -1.34375 0.34375zm0.4375 -1.53125q0.59375 0 1.109375 -0.28125q0.515625 -0.28125 0.78125 -0.703125l0 -1.40625l-1.3125 0q-0.890625 0 -1.34375 0.40625q-0.4375 0.40625 -0.4375 0.953125q0 0.5 0.3125 0.765625q0.3125 0.265625 0.890625 0.265625zm5.59375 1.359375l0 -1.203125l1.1875 -0.234375l0 -9.3125l-1.25 -0.234375l0 -1.203125l3.203125 0l0 10.75l1.1875 0.234375l0 1.203125l-4.328125 0z" fill-rule="nonzero"/><path fill="#ffffff" d="m202.61255 51.48081l0 -1.203125l1.25 -0.234375l0 -8.5l-1.25 -0.234375l0 -1.203125l8.84375 0l0 2.953125l-1.53125 0l-0.125 -1.4375l-3.96875 0l0 3.46875l4.046875 0l0 1.53125l-4.046875 0l0 3.421875l1.234375 0.234375l0 1.203125l-4.453125 0zm13.296875 0.171875q-1.21875 0 -2.09375 -0.546875q-0.875 -0.5625 -1.34375 -1.53125q-0.46875 -0.96875 -0.46875 -2.234375l0 -0.171875q0 -1.25 0.46875 -2.21875q0.46875 -0.96875 1.34375 -1.515625q0.875 -0.5625 2.078125 -0.5625q1.21875 0 2.09375 0.546875q0.875 0.546875 1.34375 1.515625q0.46875 0.96875 0.46875 2.234375l0 0.171875q0 1.265625 -0.46875 2.234375q-0.46875 0.96875 -1.34375 1.53125q-0.859375 0.546875 -2.078125 0.546875zm0 -1.53125q0.65625 0 1.078125 -0.34375q0.4375 -0.359375 0.640625 -0.984375q0.21875 -0.640625 0.21875 -1.453125l0 -0.171875q0 -0.8125 -0.21875 -1.4375q-0.203125 -0.625 -0.640625 -0.984375q-0.421875 -0.359375 -1.09375 -0.359375q-0.640625 0 -1.078125 0.359375q-0.421875 0.359375 -0.640625 0.984375q-0.203125 0.625 -0.203125 1.4375l0 0.171875q0 0.8125 0.203125 1.453125q0.21875 0.625 0.640625 0.984375q0.4375 0.34375 1.09375 0.34375zm8.625 1.53125q-1.359375 0 -2.125 -0.859375q-0.75 -0.875 -0.75 -2.703125l0 -3.625l-0.953125 -0.234375l0 -1.203125l0.953125 0l1.96875 0l0 5.078125q0 1.09375 0.34375 1.546875q0.34375 0.4375 1.078125 0.4375q0.640625 0 1.078125 -0.25q0.453125 -0.265625 0.71875 -0.734375l0 -4.640625l-1.0625 -0.234375l0 -1.203125l1.0625 0l1.96875 0l0 7.015625l1.0 0.234375l0 1.203125l-2.734375 0l-0.140625 -1.15625q-0.390625 0.640625 -1.015625 0.984375q-0.609375 0.34375 -1.390625 0.34375zm6.171875 -0.171875l0 -1.203125l1.171875 -0.234375l0 -5.578125l-1.234375 -0.234375l0 -1.203125l3.046875 0l0.09375 1.21875q0.421875 -0.65625 1.046875 -1.015625q0.640625 -0.359375 1.4375 -0.359375q1.296875 0 2.015625 0.796875q0.734375 0.796875 0.734375 2.5l0 3.875l1.171875 0.234375l0 1.203125l-4.234375 0l0 -1.203125l1.09375 -0.234375l0 -3.859375q0 -0.953125 -0.390625 -1.359375q-0.375 -0.40625 -1.125 -0.40625q-0.578125 0 -1.0 0.265625q-0.421875 0.25 -0.6875 0.703125l0 4.65625l1.0625 0.234375l0 1.203125l-4.203125 0zm13.5703125 0.171875q-1.015625 0 -1.75 -0.515625q-0.71875 -0.53125 -1.109375 -1.453125q-0.390625 -0.921875 -0.390625 -2.15625l0 -0.171875q0 -1.34375 0.390625 -2.34375q0.390625 -1.015625 1.109375 -1.578125q0.734375 -0.5625 1.75 -0.5625q0.71875 0 1.265625 0.28125q0.546875 0.265625 0.9375 0.78125l0 -3.203125l-1.25 -0.234375l0 -1.203125l1.25 0l1.96875 0l0 10.75l1.171875 0.234375l0 1.203125l-2.875 0l-0.15625 -1.03125q-0.40625 0.59375 -0.984375 0.90625q-0.5625 0.296875 -1.328125 0.296875zm0.5625 -1.5625q0.5625 0 0.96875 -0.25q0.40625 -0.25 0.671875 -0.71875l0 -3.71875q-0.265625 -0.453125 -0.671875 -0.71875q-0.40625 -0.265625 -0.953125 -0.265625q-0.640625 0 -1.0625 0.375q-0.40625 0.375 -0.609375 1.03125q-0.1875 0.65625 -0.1875 1.53125l0 0.171875q0 1.171875 0.4375 1.875q0.4375 0.6875 1.40625 0.6875zm8.4375 1.5625q-1.296875 0 -2.015625 -0.671875q-0.71875 -0.671875 -0.71875 -1.828125q0 -1.203125 0.96875 -1.9375q0.984375 -0.75 2.796875 -0.75l1.296875 0l0 -0.703125q0 -0.671875 -0.40625 -1.0625q-0.40625 -0.40625 -1.171875 -0.40625q-0.4375 0 -0.78125 0.109375q-0.328125 0.09375 -0.59375 0.296875l-0.171875 1.140625l-1.453125 0l-0.015625 -2.09375q0.625 -0.40625 1.390625 -0.640625q0.765625 -0.234375 1.703125 -0.234375q1.609375 0 2.53125 0.75q0.9375 0.75 0.9375 2.15625l0 3.734375q0 0.171875 0 0.34375q0 0.15625 0.015625 0.3125l0.859375 0.109375l0 1.203125l-2.5625 0q-0.078125 -0.28125 -0.15625 -0.53125q-0.0625 -0.265625 -0.09375 -0.515625q-0.421875 0.53125 -1.015625 0.875q-0.59375 0.34375 -1.34375 0.34375zm0.4375 -1.53125q0.59375 0 1.109375 -0.28125q0.515625 -0.28125 0.78125 -0.703125l0 -1.40625l-1.3125 0q-0.890625 0 -1.34375 0.40625q-0.4375 0.40625 -0.4375 0.953125q0 0.5 0.3125 0.765625q0.3125 0.265625 0.890625 0.265625zm8.7265625 1.515625q-1.078125 0 -1.6875 -0.609375q-0.59375 -0.609375 -0.59375 -1.9375l0 -4.65625l-1.234375 0l0 -1.40625l1.234375 0l0 -2.0625l1.953125 0l0 2.0625l1.671875 0l0 1.40625l-1.671875 0l0 4.65625q0 0.53125 0.21875 0.78125q0.234375 0.25 0.609375 0.25q0.21875 0 0.484375 -0.03125q0.28125 -0.046875 0.4375 -0.09375l0.203125 1.390625q-0.34375 0.109375 -0.78125 0.171875q-0.4375 0.078125 -0.84375 0.078125zm2.5859375 -0.15625l0 -1.203125l1.171875 -0.234375l0 -5.578125l-1.234375 -0.234375l0 -1.203125l3.203125 0l0 7.015625l1.171875 0.234375l0 1.203125l-4.3125 0zm1.09375 -10.375l0 -1.8125l2.046875 0l0 1.8125l-2.046875 0zm8.0390625 10.546875q-1.21875 0 -2.09375 -0.546875q-0.875 -0.5625 -1.34375 -1.53125q-0.46875 -0.96875 -0.46875 -2.234375l0 -0.171875q0 -1.25 0.46875 -2.21875q0.46875 -0.96875 1.34375 -1.515625q0.875 -0.5625 2.078125 -0.5625q1.21875 0 2.09375 0.546875q0.875 0.546875 1.34375 1.515625q0.46875 0.96875 0.46875 2.234375l0 0.171875q0 1.265625 -0.46875 2.234375q-0.46875 0.96875 -1.34375 1.53125q-0.859375 0.546875 -2.078125 0.546875zm0 -1.53125q0.65625 0 1.078125 -0.34375q0.4375 -0.359375 0.640625 -0.984375q0.21875 -0.640625 0.21875 -1.453125l0 -0.171875q0 -0.8125 -0.21875 -1.4375q-0.203125 -0.625 -0.640625 -0.984375q-0.421875 -0.359375 -1.09375 -0.359375q-0.640625 0 -1.078125 0.359375q-0.421875 0.359375 -0.640625 0.984375q-0.203125 0.625 -0.203125 1.4375l0 0.171875q0 0.8125 0.203125 1.453125q0.21875 0.625 0.640625 0.984375q0.4375 0.34375 1.09375 0.34375zm4.9375 1.359375l0 -1.203125l1.171875 -0.234375l0 -5.578125l-1.234375 -0.234375l0 -1.203125l3.046875 0l0.09375 1.21875q0.421875 -0.65625 1.046875 -1.015625q0.640625 -0.359375 1.4375 -0.359375q1.296875 0 2.015625 0.796875q0.734375 0.796875 0.734375 2.5l0 3.875l1.171875 0.234375l0 1.203125l-4.234375 0l0 -1.203125l1.09375 -0.234375l0 -3.859375q0 -0.953125 -0.390625 -1.359375q-0.375 -0.40625 -1.125 -0.40625q-0.578125 0 -1.0 0.265625q-0.421875 0.25 -0.6875 0.703125l0 4.65625l1.0625 0.234375l0 1.203125l-4.203125 0zm10.953125 -4.078125l0 -1.53125l4.15625 0l0 1.53125l-4.15625 0zm10.4765625 4.25q-0.796875 0 -1.375 -0.3125q-0.578125 -0.328125 -0.96875 -0.921875l-0.15625 1.0625l-1.6875 0l0 -10.75l-1.25 -0.234375l0 -1.203125l3.203125 0l0 4.671875q0.390625 -0.53125 0.9375 -0.8125q0.5625 -0.28125 1.3125 -0.28125q1.03125 0 1.75 0.5625q0.734375 0.546875 1.109375 1.5625q0.390625 1.0 0.390625 2.359375l0 0.171875q0 1.234375 -0.390625 2.171875q-0.375 0.921875 -1.109375 1.4375q-0.71875 0.515625 -1.765625 0.515625zm-0.5625 -1.5625q0.96875 0 1.40625 -0.6875q0.453125 -0.6875 0.453125 -1.875l0 -0.171875q0 -0.890625 -0.203125 -1.546875q-0.1875 -0.65625 -0.59375 -1.015625q-0.40625 -0.375 -1.046875 -0.375q-0.59375 0 -1.015625 0.296875q-0.421875 0.28125 -0.671875 0.765625l0 3.609375q0.265625 0.46875 0.671875 0.734375q0.421875 0.265625 1.0 0.265625zm7.71875 1.5625q-1.296875 0 -2.015625 -0.671875q-0.71875 -0.671875 -0.71875 -1.828125q0 -1.203125 0.96875 -1.9375q0.984375 -0.75 2.796875 -0.75l1.296875 0l0 -0.703125q0 -0.671875 -0.40625 -1.0625q-0.40625 -0.40625 -1.171875 -0.40625q-0.4375 0 -0.78125 0.109375q-0.328125 0.09375 -0.59375 0.296875l-0.171875 1.140625l-1.453125 0l-0.015625 -2.09375q0.625 -0.40625 1.390625 -0.640625q0.765625 -0.234375 1.703125 -0.234375q1.609375 0 2.53125 0.75q0.9375 0.75 0.9375 2.15625l0 3.734375q0 0.171875 0 0.34375q0 0.15625 0.015625 0.3125l0.859375 0.109375l0 1.203125l-2.5625 0q-0.078125 -0.28125 -0.15625 -0.53125q-0.0625 -0.265625 -0.09375 -0.515625q-0.421875 0.53125 -1.015625 0.875q-0.59375 0.34375 -1.34375 0.34375zm0.4375 -1.53125q0.59375 0 1.109375 -0.28125q0.515625 -0.28125 0.78125 -0.703125l0 -1.40625l-1.3125 0q-0.890625 0 -1.34375 0.40625q-0.4375 0.40625 -0.4375 0.953125q0 0.5 0.3125 0.765625q0.3125 0.265625 0.890625 0.265625zm9.25 1.53125q-0.90625 0 -1.703125 -0.171875q-0.78125 -0.1875 -1.5625 -0.53125l-0.03125 -2.234375l1.421875 0l0.296875 1.21875q0.328125 0.140625 0.6875 0.234375q0.359375 0.078125 0.796875 0.078125q0.84375 0 1.1875 -0.296875q0.34375 -0.296875 0.34375 -0.734375q0 -0.421875 -0.359375 -0.71875q-0.359375 -0.3125 -1.390625 -0.53125q-1.515625 -0.328125 -2.234375 -0.953125q-0.703125 -0.625 -0.703125 -1.640625q0 -0.6875 0.359375 -1.25q0.375 -0.5625 1.09375 -0.90625q0.734375 -0.34375 1.78125 -0.34375q0.96875 0 1.703125 0.203125q0.75 0.203125 1.28125 0.53125l0.046875 2.140625l-1.40625 0l-0.234375 -1.109375q-0.25 -0.171875 -0.578125 -0.265625q-0.3125 -0.09375 -0.71875 -0.09375q-0.65625 0 -1.03125 0.28125q-0.375 0.28125 -0.375 0.71875q0 0.25 0.125 0.453125q0.125 0.203125 0.46875 0.375q0.34375 0.15625 1.015625 0.3125q1.65625 0.390625 2.359375 1.015625q0.71875 0.609375 0.71875 1.625q0 1.125 -0.828125 1.859375q-0.828125 0.734375 -2.53125 0.734375zm8.4609375 0q-1.203125 0 -2.09375 -0.53125q-0.875 -0.546875 -1.375 -1.484375q-0.484375 -0.953125 -0.484375 -2.171875l0 -0.328125q0 -1.234375 0.484375 -2.1875q0.484375 -0.96875 1.328125 -1.515625q0.84375 -0.5625 1.921875 -0.5625q1.140625 0 1.921875 0.46875q0.78125 0.453125 1.171875 1.296875q0.40625 0.84375 0.40625 2.03125l0 1.125l-5.1875 0l-0.015625 0.046875q0.03125 0.65625 0.265625 1.171875q0.25 0.515625 0.703125 0.8125q0.46875 0.296875 1.125 0.296875q0.6875 0 1.25 -0.1875q0.5625 -0.1875 1.03125 -0.53125l0.625 1.234375q-0.5 0.421875 -1.28125 0.71875q-0.765625 0.296875 -1.796875 0.296875zm-1.875 -5.234375l3.265625 0l0 -0.203125q0 -0.5625 -0.171875 -0.96875q-0.15625 -0.421875 -0.515625 -0.65625q-0.359375 -0.234375 -0.90625 -0.234375q-0.46875 0 -0.828125 0.265625q-0.359375 0.265625 -0.578125 0.71875q-0.21875 0.453125 -0.296875 1.03125l0.03125 0.046875zm9.6796875 5.234375q-1.015625 0 -1.75 -0.515625q-0.71875 -0.53125 -1.109375 -1.453125q-0.390625 -0.921875 -0.390625 -2.15625l0 -0.171875q0 -1.34375 0.390625 -2.34375q0.390625 -1.015625 1.109375 -1.578125q0.734375 -0.5625 1.75 -0.5625q0.71875 0 1.265625 0.28125q0.546875 0.265625 0.9375 0.78125l0 -3.203125l-1.25 -0.234375l0 -1.203125l1.25 0l1.96875 0l0 10.75l1.171875 0.234375l0 1.203125l-2.875 0l-0.15625 -1.03125q-0.40625 0.59375 -0.984375 0.90625q-0.5625 0.296875 -1.328125 0.296875zm0.5625 -1.5625q0.5625 0 0.96875 -0.25q0.40625 -0.25 0.671875 -0.71875l0 -3.71875q-0.265625 -0.453125 -0.671875 -0.71875q-0.40625 -0.265625 -0.953125 -0.265625q-0.640625 0 -1.0625 0.375q-0.40625 0.375 -0.609375 1.03125q-0.1875 0.65625 -0.1875 1.53125l0 0.171875q0 1.171875 0.4375 1.875q0.4375 0.6875 1.40625 0.6875z" fill-rule="nonzero"/><path fill="#ffffff" d="m243.44067 70.852684q-1.171875 0 -2.171875 -0.296875q-1.0 -0.296875 -1.9375 -0.96875l0 -2.609375l1.515625 0l0.25 1.6875q0.421875 0.296875 1.015625 0.484375q0.609375 0.171875 1.328125 0.171875q0.6875 0 1.15625 -0.1875q0.484375 -0.203125 0.734375 -0.5625q0.25 -0.359375 0.25 -0.859375q0 -0.453125 -0.21875 -0.796875q-0.21875 -0.359375 -0.734375 -0.625q-0.5 -0.28125 -1.375 -0.515625q-1.265625 -0.34375 -2.125 -0.8125q-0.859375 -0.46875 -1.296875 -1.125q-0.421875 -0.65625 -0.421875 -1.546875q0 -0.921875 0.484375 -1.625q0.5 -0.703125 1.375 -1.109375q0.890625 -0.40625 2.046875 -0.40625q1.265625 -0.015625 2.234375 0.328125q0.984375 0.34375 1.65625 0.890625l0 2.453125l-1.5 0l-0.28125 -1.59375q-0.3125 -0.234375 -0.828125 -0.390625q-0.515625 -0.15625 -1.203125 -0.15625q-0.59375 0 -1.046875 0.203125q-0.453125 0.1875 -0.71875 0.546875q-0.25 0.34375 -0.25 0.84375q0 0.421875 0.21875 0.75q0.234375 0.3125 0.765625 0.578125q0.53125 0.265625 1.4375 0.53125q1.84375 0.484375 2.796875 1.359375q0.953125 0.859375 0.953125 2.203125q0 0.953125 -0.515625 1.65625q-0.5 0.703125 -1.4375 1.109375q-0.921875 0.390625 -2.15625 0.390625zm7.328125 3.25q-0.234375 0 -0.5625 -0.046875q-0.3125 -0.046875 -0.546875 -0.125l0.21875 -1.46875q0.140625 0.015625 0.34375 0.03125q0.203125 0.015625 0.3125 0.015625q0.5 0 0.828125 -0.3125q0.34375 -0.296875 0.546875 -0.84375l0.265625 -0.6875l-2.890625 -7.09375l-0.984375 -0.140625l0 -1.203125l4.09375 0l0 1.203125l-1.046875 0.15625l1.46875 3.9375l0.265625 0.734375l0.046875 0l1.734375 -4.671875l-1.046875 -0.15625l0 -1.203125l3.890625 0l0 1.203125l-0.921875 0.140625l-3.265625 8.390625q-0.234375 0.59375 -0.59375 1.078125q-0.34375 0.484375 -0.875 0.765625q-0.515625 0.296875 -1.28125 0.296875zm11.0546875 -3.25q-0.90625 0 -1.703125 -0.171875q-0.78125 -0.1875 -1.5625 -0.53125l-0.03125 -2.234375l1.421875 0l0.296875 1.21875q0.328125 0.140625 0.6875 0.234375q0.359375 0.078125 0.796875 0.078125q0.84375 0 1.1875 -0.296875q0.34375 -0.296875 0.34375 -0.734375q0 -0.421875 -0.359375 -0.71875q-0.359375 -0.3125 -1.390625 -0.53125q-1.515625 -0.328125 -2.234375 -0.953125q-0.703125 -0.625 -0.703125 -1.640625q0 -0.6875 0.359375 -1.25q0.375 -0.5625 1.09375 -0.90625q0.734375 -0.34375 1.78125 -0.34375q0.96875 0 1.703125 0.203125q0.75 0.203125 1.28125 0.53125l0.046875 2.140625l-1.40625 0l-0.234375 -1.109375q-0.25 -0.171875 -0.578125 -0.265625q-0.3125 -0.09375 -0.71875 -0.09375q-0.65625 0 -1.03125 0.28125q-0.375 0.28125 -0.375 0.71875q0 0.25 0.125 0.453125q0.125 0.203125 0.46875 0.375q0.34375 0.15625 1.015625 0.3125q1.65625 0.390625 2.359375 1.015625q0.71875 0.609375 0.71875 1.625q0 1.125 -0.828125 1.859375q-0.828125 0.734375 -2.53125 0.734375zm7.6796875 -0.015625q-1.078125 0 -1.6875 -0.609375q-0.59375 -0.609375 -0.59375 -1.9375l0 -4.65625l-1.234375 0l0 -1.40625l1.234375 0l0 -2.0625l1.953125 0l0 2.0625l1.671875 0l0 1.40625l-1.671875 0l0 4.65625q0 0.53125 0.21875 0.78125q0.234375 0.25 0.609375 0.25q0.21875 0 0.484375 -0.03125q0.28125 -0.046875 0.4375 -0.09375l0.203125 1.390625q-0.34375 0.109375 -0.78125 0.171875q-0.4375 0.078125 -0.84375 0.078125zm6.328125 0.015625q-1.203125 0 -2.09375 -0.53125q-0.875 -0.546875 -1.375 -1.484375q-0.484375 -0.953125 -0.484375 -2.171875l0 -0.328125q0 -1.234375 0.484375 -2.1875q0.484375 -0.96875 1.328125 -1.515625q0.84375 -0.5625 1.921875 -0.5625q1.140625 0 1.921875 0.46875q0.78125 0.453125 1.171875 1.296875q0.40625 0.84375 0.40625 2.03125l0 1.125l-5.1875 0l-0.015625 0.046875q0.03125 0.65625 0.265625 1.171875q0.25 0.515625 0.703125 0.8125q0.46875 0.296875 1.125 0.296875q0.6875 0 1.25 -0.1875q0.5625 -0.1875 1.03125 -0.53125l0.625 1.234375q-0.5 0.421875 -1.28125 0.71875q-0.765625 0.296875 -1.796875 0.296875zm-1.875 -5.234375l3.265625 0l0 -0.203125q0 -0.5625 -0.171875 -0.96875q-0.15625 -0.421875 -0.515625 -0.65625q-0.359375 -0.234375 -0.90625 -0.234375q-0.46875 0 -0.828125 0.265625q-0.359375 0.265625 -0.578125 0.71875q-0.21875 0.453125 -0.296875 1.03125l0.03125 0.046875zm6.21875 5.0625l0 -1.203125l1.171875 -0.234375l0 -5.578125l-1.234375 -0.234375l0 -1.203125l3.046875 0l0.09375 1.109375q0.40625 -0.609375 1.03125 -0.9375q0.625 -0.328125 1.4375 -0.328125q0.828125 0 1.421875 0.375q0.59375 0.359375 0.890625 1.109375q0.390625 -0.6875 1.03125 -1.078125q0.640625 -0.40625 1.5 -0.40625q1.265625 0 2.0 0.875q0.734375 0.859375 0.734375 2.609375l0 3.6875l1.171875 0.234375l0 1.203125l-4.25 0l0 -1.203125l1.109375 -0.234375l0 -3.6875q0 -1.078125 -0.359375 -1.5q-0.359375 -0.4375 -1.0625 -0.4375q-0.640625 0 -1.0625 0.421875q-0.421875 0.40625 -0.546875 1.046875l0 4.15625l1.078125 0.234375l0 1.203125l-4.109375 0l0 -1.203125l1.078125 -0.234375l0 -3.6875q0 -1.03125 -0.375 -1.484375q-0.359375 -0.453125 -1.0625 -0.453125q-0.578125 0 -0.96875 0.234375q-0.390625 0.234375 -0.625 0.671875l0 4.71875l1.09375 0.234375l0 1.203125l-4.234375 0zm18.765625 0.171875q-0.90625 0 -1.703125 -0.171875q-0.78125 -0.1875 -1.5625 -0.53125l-0.03125 -2.234375l1.421875 0l0.296875 1.21875q0.328125 0.140625 0.6875 0.234375q0.359375 0.078125 0.796875 0.078125q0.84375 0 1.1875 -0.296875q0.34375 -0.296875 0.34375 -0.734375q0 -0.421875 -0.359375 -0.71875q-0.359375 -0.3125 -1.390625 -0.53125q-1.515625 -0.328125 -2.234375 -0.953125q-0.703125 -0.625 -0.703125 -1.640625q0 -0.6875 0.359375 -1.25q0.375 -0.5625 1.09375 -0.90625q0.734375 -0.34375 1.78125 -0.34375q0.96875 0 1.703125 0.203125q0.75 0.203125 1.28125 0.53125l0.046875 2.140625l-1.40625 0l-0.234375 -1.109375q-0.25 -0.171875 -0.578125 -0.265625q-0.3125 -0.09375 -0.71875 -0.09375q-0.65625 0 -1.03125 0.28125q-0.375 0.28125 -0.375 0.71875q0 0.25 0.125 0.453125q0.125 0.203125 0.46875 0.375q0.34375 0.15625 1.015625 0.3125q1.65625 0.390625 2.359375 1.015625q0.71875 0.609375 0.71875 1.625q0 1.125 -0.828125 1.859375q-0.828125 0.734375 -2.53125 0.734375z" fill-rule="nonzero"/></g><g filter="url(#shadowFilter-p.7)"><use xlink:href="#p.7" transform="matrix(1.0 0.0 0.0 1.0 0.0 2.0)"/></g><defs><filter id="shadowFilter-p.7" filterUnits="userSpaceOnUse"><feGaussianBlur in="SourceAlpha" stdDeviation="2.0" result="blur"/><feComponentTransfer in="blur" color-interpolation-filters="sRGB"><feFuncR type="linear" slope="0" intercept="0.0"/><feFuncG type="linear" slope="0" intercept="0.0"/><feFuncB type="linear" slope="0" intercept="0.0"/><feFuncA type="linear" slope="0.5" intercept="0"/></feComponentTransfer></filter></defs><g id="p.7"><path fill="#ffff00" d="m290.03107 233.5898l9.335571 -9.335571l13.20285 0l9.335602 9.335571l0 13.202866l-9.335602 9.335571l-13.20285 0l-9.335571 -9.335571z" fill-rule="evenodd"/><path stroke="#b7b7b7" stroke-width="1.0" stroke-linejoin="round" stroke-linecap="butt" d="m290.03107 233.5898l9.335571 -9.335571l13.20285 0l9.335602 9.335571l0 13.202866l-9.335602 9.335571l-13.20285 0l-9.335571 -9.335571z" fill-rule="evenodd"/></g><g filter="url(#shadowFilter-p.8)"><use xlink:href="#p.8" transform="matrix(1.0 0.0 0.0 1.0 0.0 2.0)"/></g><defs><filter id="shadowFilter-p.8" filterUnits="userSpaceOnUse"><feGaussianBlur in="SourceAlpha" stdDeviation="2.0" result="blur"/><feComponentTransfer in="blur" color-interpolation-filters="sRGB"><feFuncR type="linear" slope="0" intercept="0.0"/><feFuncG type="linear" slope="0" intercept="0.0"/><feFuncB type="linear" slope="0" intercept="0.0"/><feFuncA type="linear" slope="0.5" intercept="0"/></feComponentTransfer></filter></defs><g id="p.8"><path fill="#ffff00" d="m322.0007 151.48174l0 0c2.7803345 0 5.0342407 -2.253891 5.0342407 -5.03421l20.136261 0l0 0c0 2.7803192 2.2539062 5.03421 5.0342407 5.03421l0 20.19928l0 0c-2.7803345 0 -5.0342407 2.253891 -5.0342407 5.0342255l-20.136261 0l0 0c0 -2.7803345 -2.2539062 -5.0342255 -5.0342407 -5.0342255z" fill-rule="evenodd"/><path stroke="#b7b7b7" stroke-width="1.0" stroke-linejoin="round" stroke-linecap="butt" d="m322.0007 151.48174l0 0c2.7803345 0 5.0342407 -2.253891 5.0342407 -5.03421l20.136261 0l0 0c0 2.7803192 2.2539062 5.03421 5.0342407 5.03421l0 20.19928l0 0c-2.7803345 0 -5.0342407 2.253891 -5.0342407 5.0342255l-20.136261 0l0 0c0 -2.7803345 -2.2539062 -5.0342255 -5.0342407 -5.0342255z" fill-rule="evenodd"/></g><path fill="#ffd966" d="m236.95787 344.1101l0.045898438 5.793976l-81.212845 -7.203186l-21.916977 16.956818l-3.176117 -4.9596252l25.315964 -15.968323z" fill-rule="evenodd"/><path stroke="#ffffff" stroke-width="1.0" stroke-linejoin="round" stroke-linecap="butt" d="m236.95787 344.1101l0.045898438 5.793976l-81.212845 -7.203186l-21.916977 16.956818l-3.176117 -4.9596252l25.315964 -15.968323z" fill-rule="evenodd"/><g filter="url(#shadowFilter-p.9)"><use xlink:href="#p.9" transform="matrix(1.0 0.0 0.0 1.0 0.0 2.0)"/></g><defs><filter id="shadowFilter-p.9" filterUnits="userSpaceOnUse"><feGaussianBlur in="SourceAlpha" stdDeviation="2.0" result="blur"/><feComponentTransfer in="blur" color-interpolation-filters="sRGB"><feFuncR type="linear" slope="0" intercept="0.0"/><feFuncG type="linear" slope="0" intercept="0.0"/><feFuncB type="linear" slope="0" intercept="0.0"/><feFuncA type="linear" slope="0.5" intercept="0"/></feComponentTransfer></filter></defs><g id="p.9"><path fill="#ffd966" d="m129.79193 344.1101l-0.045898438 5.793976l81.212845 -7.203186l21.916977 16.956818l3.176117 -4.9596252l-25.315948 -15.968323z" fill-rule="evenodd"/><path stroke="#ffffff" stroke-width="1.0" stroke-linejoin="round" stroke-linecap="butt" d="m129.79193 344.1101l-0.045898438 5.793976l81.212845 -7.203186l21.916977 16.956818l3.176117 -4.9596252l-25.315948 -15.968323z" fill-rule="evenodd"/></g><g filter="url(#shadowFilter-p.10)"><use xlink:href="#p.10" transform="matrix(1.0 0.0 0.0 1.0 0.0 2.0)"/></g><defs><filter id="shadowFilter-p.10" filterUnits="userSpaceOnUse"><feGaussianBlur in="SourceAlpha" stdDeviation="2.0" result="blur"/><feComponentTransfer in="blur" color-interpolation-filters="sRGB"><feFuncR type="linear" slope="0" intercept="0.0"/><feFuncG type="linear" slope="0" intercept="0.0"/><feFuncB type="linear" slope="0" intercept="0.0"/><feFuncA type="linear" slope="0.5" intercept="0"/></feComponentTransfer></filter></defs><g id="p.10"><path fill="#ffd966" d="m177.17043 343.24707l0 0c4.3448486 -1.9962158 9.3564 -1.9361877 13.652176 0.16357422l-1.8067627 3.69635l0 0c-3.1867676 -1.5576782 -6.9045563 -1.6022034 -10.127731 -0.12133789z" fill-rule="evenodd"/></g><g filter="url(#shadowFilter-p.11)"><use xlink:href="#p.11" transform="matrix(1.0 0.0 0.0 1.0 0.0 2.0)"/></g><defs><filter id="shadowFilter-p.11" filterUnits="userSpaceOnUse"><feGaussianBlur in="SourceAlpha" stdDeviation="2.0" result="blur"/><feComponentTransfer in="blur" color-interpolation-filters="sRGB"><feFuncR type="linear" slope="0" intercept="0.0"/><feFuncG type="linear" slope="0" intercept="0.0"/><feFuncB type="linear" slope="0" intercept="0.0"/><feFuncA type="linear" slope="0.5" intercept="0"/></feComponentTransfer></filter></defs><g id="p.11"><defs><radialGradient id="p.12" gradientUnits="userSpaceOnUse" gradientTransform="matrix(5.854501746418639 0.0 0.0 5.854501746418639 0.0 0.0)" spreadMethod="pad" cx="36.34655828850817" cy="59.39242876910262" fx="36.34655828850817" fy="59.39242876910262" r="5.854501724243164"><stop offset="0.0" stop-color="#ffffff" stop-opacity="0.0"/><stop offset="0.5" stop-color="#b3b3b3" stop-opacity="0.0"/><stop offset="1.0" stop-color="#b3b3b3"/></radialGradient></defs><path fill="url(#p.12)" d="m188.55476 347.71307l0 0c0 -13.385284 10.850937 -24.236206 24.236221 -24.236206l0 0c6.4278564 0 12.5924225 2.5534363 17.137604 7.0986023c4.545166 4.5451965 7.0986176 10.709778 7.0986176 17.137604l0 0c0 13.385284 -10.850922 24.236237 -24.236221 24.236237l0 0c-13.385284 0 -24.236221 -10.850952 -24.236221 -24.236237z" fill-rule="evenodd"/><path stroke="#ffd966" stroke-width="4.0" stroke-linejoin="round" stroke-linecap="butt" d="m188.55476 347.71307l0 0c0 -13.385284 10.850937 -24.236206 24.236221 -24.236206l0 0c6.4278564 0 12.5924225 2.5534363 17.137604 7.0986023c4.545166 4.5451965 7.0986176 10.709778 7.0986176 17.137604l0 0c0 13.385284 -10.850922 24.236237 -24.236221 24.236237l0 0c-13.385284 0 -24.236221 -10.850952 -24.236221 -24.236237z" fill-rule="evenodd"/></g><g filter="url(#shadowFilter-p.13)"><use xlink:href="#p.13" transform="matrix(1.0 0.0 0.0 1.0 0.0 2.0)"/></g><defs><filter id="shadowFilter-p.13" filterUnits="userSpaceOnUse"><feGaussianBlur in="SourceAlpha" stdDeviation="2.0" result="blur"/><feComponentTransfer in="blur" color-interpolation-filters="sRGB"><feFuncR type="linear" slope="0" intercept="0.0"/><feFuncG type="linear" slope="0" intercept="0.0"/><feFuncB type="linear" slope="0" intercept="0.0"/><feFuncA type="linear" slope="0.5" intercept="0"/></feComponentTransfer></filter></defs><g id="p.13"><path fill="#ffd966" d="m214.14606 319.4288l0 0c0 -0.3652954 0.29612732 -0.661438 0.6614075 -0.661438l2.6456757 0l0 0c0.17541504 0 0.34365845 0.06970215 0.46769714 0.19372559c0.1240387 0.124053955 0.19372559 0.29229736 0.19372559 0.4677124l0 6.2991943c0 0.3652954 -0.29612732 0.661438 -0.6614227 0.661438l-2.6456757 0c-0.36528015 0 -0.6614075 -0.29614258 -0.6614075 -0.661438z" fill-rule="evenodd"/><path stroke="#ffd966" stroke-width="1.0" stroke-linejoin="round" stroke-linecap="butt" d="m214.14606 319.4288l0 0c0 -0.3652954 0.29612732 -0.661438 0.6614075 -0.661438l2.6456757 0l0 0c0.17541504 0 0.34365845 0.06970215 0.46769714 0.19372559c0.1240387 0.124053955 0.19372559 0.29229736 0.19372559 0.4677124l0 6.2991943c0 0.3652954 -0.29612732 0.661438 -0.6614227 0.661438l-2.6456757 0c-0.36528015 0 -0.6614075 -0.29614258 -0.6614075 -0.661438z" fill-rule="evenodd"/></g><g filter="url(#shadowFilter-p.14)"><use xlink:href="#p.14" transform="matrix(1.0 0.0 0.0 1.0 0.0 2.0)"/></g><defs><filter id="shadowFilter-p.14" filterUnits="userSpaceOnUse"><feGaussianBlur in="SourceAlpha" stdDeviation="2.0" result="blur"/><feComponentTransfer in="blur" color-interpolation-filters="sRGB"><feFuncR type="linear" slope="0" intercept="0.0"/><feFuncG type="linear" slope="0" intercept="0.0"/><feFuncB type="linear" slope="0" intercept="0.0"/><feFuncA type="linear" slope="0.5" intercept="0"/></feComponentTransfer></filter></defs><g id="p.14"><path fill="#ffd966" d="m207.14722 319.4288l0 0c0 -0.3652954 0.29612732 -0.661438 0.6614075 -0.661438l2.6456757 0l0 0c0.17541504 0 0.34365845 0.06970215 0.46769714 0.19372559c0.1240387 0.124053955 0.19372559 0.29229736 0.19372559 0.4677124l0 6.2991943c0 0.3652954 -0.29612732 0.661438 -0.6614227 0.661438l-2.6456757 0c-0.36528015 0 -0.6614075 -0.29614258 -0.6614075 -0.661438z" fill-rule="evenodd"/><path stroke="#ffd966" stroke-width="1.0" stroke-linejoin="round" stroke-linecap="butt" d="m207.14722 319.4288l0 0c0 -0.3652954 0.29612732 -0.661438 0.6614075 -0.661438l2.6456757 0l0 0c0.17541504 0 0.34365845 0.06970215 0.46769714 0.19372559c0.1240387 0.124053955 0.19372559 0.29229736 0.19372559 0.4677124l0 6.2991943c0 0.3652954 -0.29612732 0.661438 -0.6614227 0.661438l-2.6456757 0c-0.36528015 0 -0.6614075 -0.29614258 -0.6614075 -0.661438z" fill-rule="evenodd"/></g><g filter="url(#shadowFilter-p.15)"><use xlink:href="#p.15" transform="matrix(1.0 0.0 0.0 1.0 0.0 2.0)"/></g><defs><filter id="shadowFilter-p.15" filterUnits="userSpaceOnUse"><feGaussianBlur in="SourceAlpha" stdDeviation="2.0" result="blur"/><feComponentTransfer in="blur" color-interpolation-filters="sRGB"><feFuncR type="linear" slope="0" intercept="0.0"/><feFuncG type="linear" slope="0" intercept="0.0"/><feFuncB type="linear" slope="0" intercept="0.0"/><feFuncA type="linear" slope="0.5" intercept="0"/></feComponentTransfer></filter></defs><g id="p.15"><path fill="#ffffff" d="m210.37892 318.2413l4.503937 0l0 8.472443l-4.503937 0z" fill-rule="evenodd"/></g><g filter="url(#shadowFilter-p.16)"><use xlink:href="#p.16" transform="matrix(1.0 0.0 0.0 1.0 0.0 2.0)"/></g><defs><filter id="shadowFilter-p.16" filterUnits="userSpaceOnUse"><feGaussianBlur in="SourceAlpha" stdDeviation="2.0" result="blur"/><feComponentTransfer in="blur" color-interpolation-filters="sRGB"><feFuncR type="linear" slope="0" intercept="0.0"/><feFuncG type="linear" slope="0" intercept="0.0"/><feFuncB type="linear" slope="0" intercept="0.0"/><feFuncA type="linear" slope="0.5" intercept="0"/></feComponentTransfer></filter></defs><g id="p.16"><path fill="#ffd966" d="m156.3097 319.4288l0 0c0 -0.3652954 0.29612732 -0.661438 0.6614075 -0.661438l2.6456757 0l0 0c0.17541504 0 0.3436432 0.06970215 0.46769714 0.19372559c0.1240387 0.124053955 0.19371033 0.29229736 0.19371033 0.4677124l0 6.2991943c0 0.3652954 -0.29611206 0.661438 -0.6614075 0.661438l-2.6456757 0c-0.36528015 0 -0.6614075 -0.29614258 -0.6614075 -0.661438z" fill-rule="evenodd"/><path stroke="#ffd966" stroke-width="1.0" stroke-linejoin="round" stroke-linecap="butt" d="m156.3097 319.4288l0 0c0 -0.3652954 0.29612732 -0.661438 0.6614075 -0.661438l2.6456757 0l0 0c0.17541504 0 0.3436432 0.06970215 0.46769714 0.19372559c0.1240387 0.124053955 0.19371033 0.29229736 0.19371033 0.4677124l0 6.2991943c0 0.3652954 -0.29611206 0.661438 -0.6614075 0.661438l-2.6456757 0c-0.36528015 0 -0.6614075 -0.29614258 -0.6614075 -0.661438z" fill-rule="evenodd"/></g><g filter="url(#shadowFilter-p.17)"><use xlink:href="#p.17" transform="matrix(1.0 0.0 0.0 1.0 0.0 2.0)"/></g><defs><filter id="shadowFilter-p.17" filterUnits="userSpaceOnUse"><feGaussianBlur in="SourceAlpha" stdDeviation="2.0" result="blur"/><feComponentTransfer in="blur" color-interpolation-filters="sRGB"><feFuncR type="linear" slope="0" intercept="0.0"/><feFuncG type="linear" slope="0" intercept="0.0"/><feFuncB type="linear" slope="0" intercept="0.0"/><feFuncA type="linear" slope="0.5" intercept="0"/></feComponentTransfer></filter></defs><g id="p.17"><path fill="#ffd966" d="m149.31085 319.4288l0 0c0 -0.3652954 0.29612732 -0.661438 0.6614075 -0.661438l2.6456757 0l0 0c0.17541504 0 0.3436432 0.06970215 0.46769714 0.19372559c0.1240387 0.124053955 0.19371033 0.29229736 0.19371033 0.4677124l0 6.2991943c0 0.3652954 -0.29611206 0.661438 -0.6614075 0.661438l-2.6456757 0c-0.36528015 0 -0.6614075 -0.29614258 -0.6614075 -0.661438z" fill-rule="evenodd"/><path stroke="#ffd966" stroke-width="1.0" stroke-linejoin="round" stroke-linecap="butt" d="m149.31085 319.4288l0 0c0 -0.3652954 0.29612732 -0.661438 0.6614075 -0.661438l2.6456757 0l0 0c0.17541504 0 0.3436432 0.06970215 0.46769714 0.19372559c0.1240387 0.124053955 0.19371033 0.29229736 0.19371033 0.4677124l0 6.2991943c0 0.3652954 -0.29611206 0.661438 -0.6614075 0.661438l-2.6456757 0c-0.36528015 0 -0.6614075 -0.29614258 -0.6614075 -0.661438z" fill-rule="evenodd"/></g><g filter="url(#shadowFilter-p.18)"><use xlink:href="#p.18" transform="matrix(1.0 0.0 0.0 1.0 0.0 2.0)"/></g><defs><filter id="shadowFilter-p.18" filterUnits="userSpaceOnUse"><feGaussianBlur in="SourceAlpha" stdDeviation="2.0" result="blur"/><feComponentTransfer in="blur" color-interpolation-filters="sRGB"><feFuncR type="linear" slope="0" intercept="0.0"/><feFuncG type="linear" slope="0" intercept="0.0"/><feFuncB type="linear" slope="0" intercept="0.0"/><feFuncA type="linear" slope="0.5" intercept="0"/></feComponentTransfer></filter></defs><g id="p.18"><path fill="#ffffff" d="m152.54256 318.2413l4.503937 0l0 8.472443l-4.503937 0z" fill-rule="evenodd"/></g><g filter="url(#shadowFilter-p.19)"><use xlink:href="#p.19" transform="matrix(1.0 0.0 0.0 1.0 0.0 2.0)"/></g><defs><filter id="shadowFilter-p.19" filterUnits="userSpaceOnUse"><feGaussianBlur in="SourceAlpha" stdDeviation="2.0" result="blur"/><feComponentTransfer in="blur" color-interpolation-filters="sRGB"><feFuncR type="linear" slope="0" intercept="0.0"/><feFuncG type="linear" slope="0" intercept="0.0"/><feFuncB type="linear" slope="0" intercept="0.0"/><feFuncA type="linear" slope="0.5" intercept="0"/></feComponentTransfer></filter></defs><g id="p.19"><path fill="#000000" fill-opacity="0.0" d="m130.5583 347.71307l0 0c0 -13.385284 10.850922 -24.236206 24.236221 -24.236206l0 0c6.427841 0 12.5924225 2.5534363 17.137589 7.0986023c4.545166 4.5451965 7.098633 10.709778 7.098633 17.137604l0 0c0 13.385284 -10.850937 24.236237 -24.236221 24.236237l0 0c-13.3853 0 -24.236221 -10.850952 -24.236221 -24.236237z" fill-rule="evenodd"/><path stroke="#ffd966" stroke-width="4.0" stroke-linejoin="round" stroke-linecap="butt" d="m130.5583 347.71307l0 0c0 -13.385284 10.850922 -24.236206 24.236221 -24.236206l0 0c6.427841 0 12.5924225 2.5534363 17.137589 7.0986023c4.545166 4.5451965 7.098633 10.709778 7.098633 17.137604l0 0c0 13.385284 -10.850937 24.236237 -24.236221 24.236237l0 0c-13.3853 0 -24.236221 -10.850952 -24.236221 -24.236237z" fill-rule="evenodd"/></g><defs><linearGradient id="p.20" gradientUnits="userSpaceOnUse" gradientTransform="matrix(6.962228486083989 0.0 0.0 6.962228486083989 0.0 0.0)" spreadMethod="pad" x1="18.750863749610875" y1="46.46165896135943" x2="18.750838715296105" y2="53.423887447398414"><stop offset="0.0" stop-color="#8c8c8c"/><stop offset="1.0" stop-color="#404040"/></linearGradient></defs><path fill="url(#p.20)" d="m130.5478 347.71307l0 0c0 -13.385284 10.850922 -24.236206 24.236221 -24.236206l0 0c6.427841 0 12.5924225 2.5534363 17.137589 7.0986023c4.545166 4.5451965 7.0986176 10.709778 7.0986176 17.137604l0 0c0 13.385284 -10.850922 24.236237 -24.236206 24.236237l0 0c-13.3853 0 -24.236221 -10.850952 -24.236221 -24.236237z" fill-rule="evenodd"/><path stroke="#ffffff" stroke-width="2.0" stroke-linejoin="round" stroke-linecap="butt" d="m130.5478 347.71307l0 0c0 -13.385284 10.850922 -24.236206 24.236221 -24.236206l0 0c6.427841 0 12.5924225 2.5534363 17.137589 7.0986023c4.545166 4.5451965 7.0986176 10.709778 7.0986176 17.137604l0 0c0 13.385284 -10.850922 24.236237 -24.236206 24.236237l0 0c-13.3853 0 -24.236221 -10.850952 -24.236221 -24.236237z" fill-rule="evenodd"/><g filter="url(#shadowFilter-p.21)"><use xlink:href="#p.21" transform="matrix(1.0 0.0 0.0 1.0 0.0 2.0)"/></g><defs><filter id="shadowFilter-p.21" filterUnits="userSpaceOnUse"><feGaussianBlur in="SourceAlpha" stdDeviation="2.0" result="blur"/><feComponentTransfer in="blur" color-interpolation-filters="sRGB"><feFuncR type="linear" slope="0" intercept="0.0"/><feFuncG type="linear" slope="0" intercept="0.0"/><feFuncB type="linear" slope="0" intercept="0.0"/><feFuncA type="linear" slope="0.5" intercept="0"/></feComponentTransfer></filter></defs><g id="p.21"><path fill="#000000" fill-opacity="0.0" d="m188.55725 333.8609l0 0c0 -5.818573 10.850922 -10.535431 24.236221 -10.535431l0 0c13.3853 0 24.236221 4.716858 24.236221 10.535431l0 0c0 5.8185425 -10.850922 10.535431 -24.236221 10.535431l0 0c-13.3853 0 -24.236221 -4.7168884 -24.236221 -10.535431z" fill-rule="evenodd"/><path stroke="#ffffff" stroke-width="4.0" stroke-linejoin="round" stroke-linecap="butt" d="m188.55725 333.8609l0 0c0 -5.818573 10.850922 -10.535431 24.236221 -10.535431l0 0c13.3853 0 24.236221 4.716858 24.236221 10.535431l0 0c0 5.8185425 -10.850922 10.535431 -24.236221 10.535431l0 0c-13.3853 0 -24.236221 -4.7168884 -24.236221 -10.535431z" fill-rule="evenodd"/></g><defs><linearGradient id="p.22" gradientUnits="userSpaceOnUse" gradientTransform="matrix(4.590319181046855 0.0 0.0 4.590319181046855 0.0 0.0)" spreadMethod="pad" x1="41.07715459846654" y1="70.20656147076402" x2="41.07713673021073" y2="74.7968806517761"><stop offset="0.0" stop-color="#8c8c8c"/><stop offset="1.0" stop-color="#404040"/></linearGradient></defs><path fill="url(#p.22)" d="m188.55725 332.80615l0 0c0 -5.818573 10.850922 -10.535461 24.236221 -10.535461l0 0c13.3853 0 24.236221 4.7168884 24.236221 10.535461l0 0c0 5.8185425 -10.850922 10.535431 -24.236221 10.535431l0 0c-13.3853 0 -24.236221 -4.7168884 -24.236221 -10.535431z" fill-rule="evenodd"/><g filter="url(#shadowFilter-p.23)"><use xlink:href="#p.23" transform="matrix(1.0 0.0 0.0 1.0 0.0 2.0)"/></g><defs><filter id="shadowFilter-p.23" filterUnits="userSpaceOnUse"><feGaussianBlur in="SourceAlpha" stdDeviation="2.0" result="blur"/><feComponentTransfer in="blur" color-interpolation-filters="sRGB"><feFuncR type="linear" slope="0" intercept="0.0"/><feFuncG type="linear" slope="0" intercept="0.0"/><feFuncB type="linear" slope="0" intercept="0.0"/><feFuncA type="linear" slope="0.5" intercept="0"/></feComponentTransfer></filter></defs><g id="p.23"><path fill="#6d9eeb" d="m36.55122 160.2762l31.87402 0l0 31.874008l-31.87402 0z" fill-rule="evenodd"/><path stroke="#000000" stroke-width="1.0" stroke-linejoin="round" stroke-linecap="butt" d="m36.55122 160.2762l31.87402 0l0 31.874008l-31.87402 0z" fill-rule="evenodd"/></g></g></svg>