<svg version="1.1" viewBox="0.0 0.0 314.00787401574803 246.08136482939634" fill="none" stroke="none" stroke-linecap="square" stroke-miterlimit="10" xmlns:xlink="http://www.w3.org/1999/xlink" xmlns="http://www.w3.org/2000/svg"><clipPath id="p.0"><path d="m0 0l314.00787 0l0 246.08136l-314.00787 0l0 -246.08136z" clip-rule="nonzero"/></clipPath><g clip-path="url(#p.0)"><path fill="#000000" fill-opacity="0.0" d="m0 0l314.00787 0l0 246.08136l-314.00787 0z" fill-rule="evenodd"/><path shape-rendering="crispEdges" fill="#000000" d="m53.526245 1.1901921l72.86614 0l0 67.98688l-72.86614 0l0 -67.98688z" fill-rule="nonzero"/><path shape-rendering="crispEdges" fill="#000000" d="m126.39239 1.1901921l72.86614 0l0 67.98688l-72.86614 0l0 -67.98688z" fill-rule="nonzero"/><path shape-rendering="crispEdges" fill="#000000" d="m199.25853 1.1901921l72.866135 0l0 67.98688l-72.866135 0l0 -67.98688z" fill-rule="nonzero"/><path shape-rendering="crispEdges" fill="#efefef" d="m0.26115486 69.17707l53.26509 0l0 41.83464l-53.26509 0l0 -41.83464z" fill-rule="nonzero"/><path shape-rendering="crispEdges" fill="#efefef" d="m53.526245 69.17707l72.86614 0l0 41.83464l-72.86614 0l0 -41.83464z" fill-rule="nonzero"/><path shape-rendering="crispEdges" fill="#efefef" d="m126.39239 69.17707l72.86614 0l0 41.83464l-72.86614 0l0 -41.83464z" fill-rule="nonzero"/><path shape-rendering="crispEdges" fill="#efefef" d="m199.25853 69.17707l72.866135 0l0 41.83464l-72.866135 0l0 -41.83464z" fill-rule="nonzero"/><path stroke="#9e9e9e" stroke-width="1.0" stroke-linecap="butt" d="m126.39239 0.6915045l0 67.98688" fill-rule="nonzero"/><path stroke="#9e9e9e" stroke-width="1.0" stroke-linecap="butt" stroke-dasharray="1.0,3.0" d="m126.39239 68.67838l0 177.21783" fill-rule="nonzero"/><path stroke="#9e9e9e" stroke-width="1.0" stroke-linecap="butt" d="m199.25853 0.6915045l0 67.98688" fill-rule="nonzero"/><path stroke="#9e9e9e" stroke-width="1.0" stroke-linecap="butt" stroke-dasharray="1.0,3.0" d="m199.25853 68.67838l0 177.21783" fill-rule="nonzero"/><path stroke="#9e9e9e" stroke-width="1.0" stroke-linecap="butt" d="m53.027557 1.1901921l218.59842 0" fill-rule="nonzero"/><path stroke="#9e9e9e" stroke-width="1.0" stroke-linecap="butt" stroke-dasharray="1.0,3.0" d="m53.027557 155.80699l218.59842 0" fill-rule="nonzero"/><path stroke="#9e9e9e" stroke-width="1.0" stroke-linecap="butt" stroke-dasharray="1.0,3.0" d="m53.027557 200.60226l218.59842 0" fill-rule="nonzero"/><path fill="#ffffff" d="m75.51734 28.11019l0 -1.28125l0.171875 0q0.40625 0 0.6875 -0.0625q0.296875 -0.0625 0.453125 -0.203125q0.171875 -0.15625 0.171875 -0.40625l0 -9.328125q0 -0.28125 -0.171875 -0.421875q-0.15625 -0.140625 -0.453125 -0.1875q-0.28125 -0.0625 -0.6875 -0.0625l-0.171875 0l0 -1.296874l5.640625 0l3.125 10.359374l-0.546875 -0.609375l3.09375 -9.749999l5.53125 0l0 1.296874l-0.203125 0q-0.5625 0 -0.9375 0.125q-0.359375 0.125 -0.359375 0.546875l0 9.328125q0 0.40625 0.359375 0.546875q0.375 0.125 0.9375 0.125l0.203125 0l0 1.28125l-5.75 0l0 -1.28125l0.15625 0q0.25 0 0.53125 -0.015625q0.28125 -0.03125 0.46875 -0.0625q0.203125 -0.046875 0.203125 -0.09375l0 -11.359374l0.203125 -0.0625l-4.15625 12.937499l-1.5625 0l-4.1875 -12.937499l0.234375 -0.03125l0 11.453124q0 0.046875 0.203125 0.09375q0.203125 0.03125 0.484375 0.0625q0.28125 0.015625 0.484375 0.015625l0.109375 0l0 1.28125l-4.265625 0zm24.670166 -1.546875l-0.625 1.234375l-1.03125 1.09375l-3.828125 -8.890625q-0.109375 -0.28125 -0.28125 -0.421875q-0.15625 -0.15625 -0.390625 -0.21875q-0.234375 -0.078125 -0.59375 -0.078125l-0.109375 0l0 -1.234375l5.375 0l0 1.21875l-0.09375 0q-0.3125 0 -0.625 0.015625q-0.3125 0.015625 -0.515625 0.046875q-0.1875 0.03125 -0.1875 0.09375l2.90625 7.140625zm0.09375 1.234375q-0.5625 1.28125 -1.078125 2.1875q-0.5 0.921875 -1.0625 1.46875q-0.546875 0.5625019 -1.1875 0.8125019q-0.640625 0.265625 -1.46875 0.265625q-0.59375 0 -1.046875 -0.125q-0.453125 -0.125 -0.6875 -0.25l0 -2.015627q0.078125 0.015625 0.34375 0.109375q0.28125 0.109375 0.671875 0.1875q0.40625 0.09375 0.875 0.09375q0.5 0 0.921875 -0.125q0.4375 -0.125 0.8125 -0.484375q0.390625 -0.34375 0.765625 -0.984375q0.375 -0.640625 0.75 -1.65625l0.390625 -0.609375l2.90625 -7.015625q0 -0.109375 -0.1875 -0.1875q-0.171875 -0.09375 -0.46875 -0.140625q-0.296875 -0.0625 -0.625 -0.0625l-0.078125 0l0 -1.21875l4.125 0l0 1.234375l-0.109375 0q-0.296875 0 -0.53125 0.09375q-0.234375 0.078125 -0.4375 0.28125q-0.1875 0.1875 -0.34375 0.546875l-3.25 7.59375z" fill-rule="nonzero"/><path fill="#ffffff" d="m71.38515 44.963314l2.734375 5.546875l3.453125 0l0 -1.203125l-0.15625 0q-0.296875 0 -0.53125 -0.046875q-0.234375 -0.046875 -0.421875 -0.21875q-0.1875 -0.171875 -0.375 -0.484375l-2.234375 -4.125l-2.46875 0.53125zm-1.734375 4.171875l0 -9.6875l1.8125 0q0.71875 0 1.171875 0.28125q0.46875 0.265625 0.703125 0.765625q0.234375 0.5 0.234375 1.234375q0 0.78125 -0.234375 1.34375q-0.234375 0.546875 -0.71875 0.84375q-0.484375 0.296875 -1.25 0.296875l-2.078125 0l0 1.21875l2.671875 0q0.140625 -0.015625 0.25 -0.0625q0.109375 -0.046875 0.234375 -0.09375q0.140625 -0.0625 0.25 -0.140625q1.171875 -0.171875 1.984375 -0.640625q0.8125 -0.46875 1.234375 -1.1875q0.4375 -0.734375 0.4375 -1.6875q0 -1.09375 -0.53125 -1.84375q-0.53125 -0.765625 -1.546875 -1.15625q-1.0 -0.40625 -2.4375 -0.40625l-6.25 0l0 1.1875l0.1875 0q0.515625 0 0.84375 0.125q0.34375 0.125 0.34375 0.5l0 8.671875q0 0.375 -0.34375 0.5q-0.328125 0.109375 -0.84375 0.109375l-0.1875 0l0 1.203125l5.515625 0l0 -1.203125l-0.25 0q-0.234375 0 -0.453125 0q-0.203125 -0.015625 -0.375 -0.03125q-0.15625 -0.03125 -0.265625 -0.046875q-0.109375 -0.03125 -0.109375 -0.09375zm11.826981 -3.78125l4.8125 0l0.140625 1.1875l-5.109375 0l0.15625 -1.1875zm2.15625 -6.296875l0.390625 0.390625l-3.078125 9.515625q0 0.09375 0.171875 0.1875q0.1875 0.078125 0.46875 0.125q0.28125 0.03125 0.65625 0.03125l0.1875 0l0 1.203125l-3.96875 0l0 -1.203125l0.09375 0q0.4375 0 0.71875 -0.171875q0.296875 -0.171875 0.46875 -0.734375l3.328125 -10.28125l2.921875 0l3.421875 10.390625q0.15625 0.515625 0.4375 0.65625q0.28125 0.140625 0.71875 0.140625l0.078125 0l0 1.203125l-5.296875 0l0 -1.203125l0.234375 0q0.359375 0 0.640625 -0.015625q0.28125 -0.015625 0.453125 -0.046875q0.1875 -0.046875 0.1875 -0.109375l-3.234375 -10.078125zm8.050308 0.34375l0 -1.1875l5.921875 0q1.484375 0 2.6875 0.390625q1.203125 0.390625 2.078125 1.15625q0.875 0.75 1.34375 1.890625q0.46875 1.140625 0.46875 2.65625q0 1.484375 -0.46875 2.65625q-0.46875 1.15625 -1.34375 1.953125q-0.875 0.78125 -2.078125 1.1875q-1.203125 0.40625 -2.6875 0.40625l-5.921875 0l0 -1.203125l0.203125 0q0.5 0 0.84375 -0.109375q0.359375 -0.125 0.359375 -0.5l0 -8.671875q0 -0.359375 -0.359375 -0.484375q-0.34375 -0.140625 -0.84375 -0.140625l-0.203125 0zm5.75 0.09375l-1.6875 0l0 9.734375l1.6875 0q0.953125 0 1.671875 -0.3125q0.734375 -0.3125 1.234375 -0.921875q0.5 -0.625 0.765625 -1.546875q0.265625 -0.921875 0.265625 -2.140625q0 -1.21875 -0.265625 -2.125q-0.265625 -0.90625 -0.765625 -1.5q-0.5 -0.609375 -1.234375 -0.890625q-0.71875 -0.296875 -1.671875 -0.296875z" fill-rule="nonzero"/><path fill="#ffffff" d="m111.893585 47.97894q0 -0.421875 -0.203125 -0.671875q-0.203125 -0.25 -0.5625 -0.40625q-0.359375 -0.171875 -0.796875 -0.28125q-0.4375 -0.125 -0.9375 -0.234375q-0.625 -0.125 -1.234375 -0.3125q-0.59375 -0.203125 -1.109375 -0.53125q-0.5 -0.328125 -0.796875 -0.859375q-0.296875 -0.53125 -0.296875 -1.359375q0 -1.0 0.515625 -1.6875q0.515625 -0.703125 1.453125 -1.046875q0.9375 -0.34375 2.234375 -0.34375q1.015625 0 1.765625 0.125q0.765625 0.125 1.25 0.296875q0.484375 0.15625 0.671875 0.265625l0 2.296875l-2.109375 0l0 -1.84375q0.25 -0.015625 0.390625 0.046875q0.15625 0.0625 0.21875 0.1875q0.0625 0.125 0.0625 0.28125q0.015625 0.140625 -0.015625 0.3125q-0.21875 -0.203125 -0.5625 -0.34375q-0.328125 -0.140625 -0.75 -0.21875q-0.40625 -0.078125 -0.921875 -0.078125q-0.9375 0 -1.375 0.328125q-0.4375 0.3125 -0.4375 0.90625q0 0.390625 0.1875 0.640625q0.203125 0.25 0.546875 0.40625q0.359375 0.15625 0.828125 0.28125q0.46875 0.125 0.984375 0.234375q0.625 0.15625 1.25 0.359375q0.625 0.203125 1.140625 0.53125q0.515625 0.328125 0.8125 0.859375q0.3125 0.53125 0.3125 1.3125q0 1.046875 -0.515625 1.78125q-0.5 0.734375 -1.515625 1.125q-1.015625 0.390625 -2.515625 0.390625q-1.015625 0 -1.828125 -0.140625q-0.8125 -0.140625 -1.390625 -0.34375q-0.578125 -0.203125 -0.921875 -0.40625l0 -2.46875l2.15625 0l0 2.453125q-0.3125 -0.140625 -0.5 -0.296875q-0.1875 -0.171875 -0.25 -0.34375q-0.0625 -0.171875 -0.046875 -0.296875q0.03125 -0.140625 0.140625 -0.203125q0.265625 0.203125 0.65625 0.359375q0.390625 0.15625 0.890625 0.265625q0.515625 0.109375 1.109375 0.109375q0.671875 0 1.109375 -0.15625q0.453125 -0.171875 0.671875 -0.484375q0.234375 -0.3125 0.234375 -0.796875z" fill-rule="nonzero"/><path fill="#ffffff" d="m142.63234 26.157064l0 -9.90625l-0.734375 0q-0.78125 0 -1.25 0.078125q-0.46875 0.0625 -0.6875 0.265625q-0.21875 0.203125 -0.265625 0.546875l-0.1875 2.25l-1.5 0l0 -4.531249l12.15625 0l0 4.531249l-1.5 0l-0.1875 -2.25q-0.046875 -0.34375 -0.265625 -0.546875q-0.21875 -0.203125 -0.703125 -0.265625q-0.46875 -0.078125 -1.234375 -0.078125l-0.75 0l0 9.90625q0 0.40625 0.390625 0.546875q0.390625 0.125 0.953125 0.125l0.3125 0l0 1.28125l-6.1875 0l0 -1.28125l0.3125 0q0.5625 0 0.9375 -0.125q0.390625 -0.140625 0.390625 -0.546875zm18.938324 -3.0625q0 1.59375 -0.65625 2.78125q-0.65625 1.171875 -1.859375 1.8125q-1.203125 0.640625 -2.859375 0.640625q-1.65625 0 -2.875 -0.640625q-1.21875 -0.640625 -1.859375 -1.8125q-0.640625 -1.1875 -0.640625 -2.78125q0 -1.203125 0.359375 -2.171875q0.375 -0.96875 1.0625 -1.640625q0.703125 -0.6875 1.703125 -1.046875q1.0 -0.375 2.25 -0.375q1.25 0 2.234375 0.375q0.984375 0.359375 1.6875 1.046875q0.71875 0.671875 1.078125 1.640625q0.375 0.96875 0.375 2.171875zm-7.921875 0q0 1.328125 0.265625 2.171875q0.28125 0.84375 0.84375 1.265625q0.578125 0.40625 1.4375 0.40625q0.875 0 1.4375 -0.40625q0.5625 -0.421875 0.828125 -1.265625q0.265625 -0.84375 0.265625 -2.171875q0 -1.296875 -0.265625 -2.140625q-0.265625 -0.84375 -0.828125 -1.265625q-0.5625 -0.421875 -1.4375 -0.421875q-0.859375 0 -1.4375 0.421875q-0.5625 0.421875 -0.84375 1.265625q-0.265625 0.84375 -0.265625 2.140625zm8.900818 -3.671875l0 -1.28125l0.171875 0q0.546875 0 0.90625 -0.0625q0.375 -0.078125 0.578125 -0.3125q0.203125 -0.25 0.203125 -0.734375l1.6875 1.015625l3.921875 0l0 1.375l-7.46875 0zm4.46875 5.53125q0 0.71875 0.1875 1.109375q0.203125 0.390625 0.578125 0.546875q0.375 0.15625 0.90625 0.15625q0.453125 0 0.828125 -0.0625q0.390625 -0.0625 0.53125 -0.09375l0 1.421875q-0.203125 0.0625 -0.53125 0.125q-0.328125 0.0625 -0.71875 0.109375q-0.375 0.046875 -0.8125 0.046875q-1.03125 0 -1.890625 -0.265625q-0.84375 -0.265625 -1.34375 -0.96875q-0.484375 -0.71875 -0.484375 -2.015625l0 -6.6875l0.140625 -0.15625l0 -3.015624l2.609375 0l0 9.749999zm10.883606 -2.9375l0 1.15625q-0.921875 0.125 -1.59375 0.3125q-0.671875 0.171875 -1.125 0.390625q-0.453125 0.203125 -0.703125 0.453125q-0.234375 0.25 -0.34375 0.5625q-0.09375 0.3125 -0.09375 0.65625q0 0.515625 0.171875 0.828125q0.171875 0.296875 0.484375 0.453125q0.3125 0.140625 0.765625 0.140625q0.46875 0 0.859375 -0.21875q0.40625 -0.21875 0.78125 -0.671875q0.390625 -0.46875 0.78125 -1.171875l0.09375 1.015625q-0.375 0.78125 -0.859375 1.328125q-0.484375 0.53125 -1.109375 0.796875q-0.625 0.265625 -1.421875 0.265625q-0.984375 0 -1.703125 -0.28125q-0.703125 -0.296875 -1.078125 -0.890625q-0.375 -0.59375 -0.375 -1.46875q0 -0.796875 0.34375 -1.375q0.359375 -0.578125 1.140625 -1.0q0.78125 -0.4375 2.0 -0.734375q1.234375 -0.3125 2.984375 -0.546875zm0.046875 6.09375l-0.234375 -2.09375l-0.109375 -0.015625l0 -5.234375q0 -0.546875 -0.15625 -0.875q-0.140625 -0.328125 -0.5 -0.484375q-0.359375 -0.15625 -1.015625 -0.15625q-0.953125 0 -1.578125 0.265625q-0.609375 0.25 -0.875 0.546875q-0.09375 -0.109375 -0.078125 -0.265625q0.03125 -0.15625 0.140625 -0.296875q0.109375 -0.140625 0.3125 -0.234375q0.203125 -0.109375 0.484375 -0.125l0 2.15625l-2.3125 0l0 -2.328125q0.28125 -0.203125 0.828125 -0.453125q0.5625 -0.25 1.390625 -0.453125q0.828125 -0.203125 1.90625 -0.203125q0.9375 0 1.703125 0.171875q0.765625 0.171875 1.296875 0.546875q0.546875 0.375 0.84375 0.953125q0.296875 0.578125 0.296875 1.375l0 5.3125q0 0.21875 0.140625 0.34375q0.140625 0.109375 0.40625 0.171875q0.265625 0.0625 0.625 0.125l0.125 0.03125l0 1.21875l-3.640625 0zm8.708435 -14.140624l0 12.109374q0 0.53125 0.328125 0.71875q0.34375 0.1875 0.921875 0.1875l0.0625 0l0 1.125l-5.328125 0l0 -1.125l0.046875 0q0.578125 0 0.90625 -0.1875q0.34375 -0.1875 0.34375 -0.71875l0 -10.124999q0 -0.25 -0.125 -0.375q-0.125 -0.125 -0.375 -0.1875q-0.25 -0.078125 -0.625 -0.15625l-0.1875 -0.03125l0 -1.234375l4.03125 0z" fill-rule="nonzero"/><path fill="#ffffff" d="m144.25128 44.963314l2.734375 5.546875l3.453125 0l0 -1.203125l-0.15625 0q-0.296875 0 -0.53125 -0.046875q-0.234375 -0.046875 -0.421875 -0.21875q-0.1875 -0.171875 -0.375 -0.484375l-2.234375 -4.125l-2.46875 0.53125zm-1.734375 4.171875l0 -9.6875l1.8125 0q0.71875 0 1.171875 0.28125q0.46875 0.265625 0.703125 0.765625q0.234375 0.5 0.234375 1.234375q0 0.78125 -0.234375 1.34375q-0.234375 0.546875 -0.71875 0.84375q-0.484375 0.296875 -1.25 0.296875l-2.078125 0l0 1.21875l2.671875 0q0.140625 -0.015625 0.25 -0.0625q0.109375 -0.046875 0.234375 -0.09375q0.140625 -0.0625 0.25 -0.140625q1.171875 -0.171875 1.984375 -0.640625q0.8125 -0.46875 1.234375 -1.1875q0.4375 -0.734375 0.4375 -1.6875q0 -1.09375 -0.53125 -1.84375q-0.53125 -0.765625 -1.546875 -1.15625q-1.0 -0.40625 -2.4375 -0.40625l-6.25 0l0 1.1875l0.1875 0q0.515625 0 0.84375 0.125q0.34375 0.125 0.34375 0.5l0 8.671875q0 0.375 -0.34375 0.5q-0.328125 0.109375 -0.84375 0.109375l-0.1875 0l0 1.203125l5.515625 0l0 -1.203125l-0.25 0q-0.234375 0 -0.453125 0q-0.203125 -0.015625 -0.375 -0.03125q-0.15625 -0.03125 -0.265625 -0.046875q-0.109375 -0.03125 -0.109375 -0.09375zm11.826981 -3.78125l4.8125 0l0.140625 1.1875l-5.109375 0l0.15625 -1.1875zm2.15625 -6.296875l0.390625 0.390625l-3.078125 9.515625q0 0.09375 0.171875 0.1875q0.1875 0.078125 0.46875 0.125q0.28125 0.03125 0.65625 0.03125l0.1875 0l0 1.203125l-3.96875 0l0 -1.203125l0.09375 0q0.4375 0 0.71875 -0.171875q0.296875 -0.171875 0.46875 -0.734375l3.328125 -10.28125l2.921875 0l3.421875 10.390625q0.15625 0.515625 0.4375 0.65625q0.28125 0.140625 0.71875 0.140625l0.078125 0l0 1.203125l-5.296875 0l0 -1.203125l0.234375 0q0.359375 0 0.640625 -0.015625q0.28125 -0.015625 0.453125 -0.046875q0.1875 -0.046875 0.1875 -0.109375l-3.234375 -10.078125zm8.050308 0.34375l0 -1.1875l5.921875 0q1.484375 0 2.6875 0.390625q1.203125 0.390625 2.078125 1.15625q0.875 0.75 1.34375 1.890625q0.46875 1.140625 0.46875 2.65625q0 1.484375 -0.46875 2.65625q-0.46875 1.15625 -1.34375 1.953125q-0.875 0.78125 -2.078125 1.1875q-1.203125 0.40625 -2.6875 0.40625l-5.921875 0l0 -1.203125l0.203125 0q0.5 0 0.84375 -0.109375q0.359375 -0.125 0.359375 -0.5l0 -8.671875q0 -0.359375 -0.359375 -0.484375q-0.34375 -0.140625 -0.84375 -0.140625l-0.203125 0zm5.75 0.09375l-1.6875 0l0 9.734375l1.6875 0q0.953125 0 1.671875 -0.3125q0.734375 -0.3125 1.234375 -0.921875q0.5 -0.625 0.765625 -1.546875q0.265625 -0.921875 0.265625 -2.140625q0 -1.21875 -0.265625 -2.125q-0.265625 -0.90625 -0.765625 -1.5q-0.5 -0.609375 -1.234375 -0.890625q-0.71875 -0.296875 -1.671875 -0.296875z" fill-rule="nonzero"/><path fill="#ffffff" d="m184.75972 47.97894q0 -0.421875 -0.203125 -0.671875q-0.203125 -0.25 -0.5625 -0.40625q-0.359375 -0.171875 -0.796875 -0.28125q-0.4375 -0.125 -0.9375 -0.234375q-0.625 -0.125 -1.234375 -0.3125q-0.59375 -0.203125 -1.109375 -0.53125q-0.5 -0.328125 -0.796875 -0.859375q-0.296875 -0.53125 -0.296875 -1.359375q0 -1.0 0.515625 -1.6875q0.515625 -0.703125 1.453125 -1.046875q0.9375 -0.34375 2.234375 -0.34375q1.015625 0 1.765625 0.125q0.765625 0.125 1.25 0.296875q0.484375 0.15625 0.671875 0.265625l0 2.296875l-2.109375 0l0 -1.84375q0.25 -0.015625 0.390625 0.046875q0.15625 0.0625 0.21875 0.1875q0.0625 0.125 0.0625 0.28125q0.015625 0.140625 -0.015625 0.3125q-0.21875 -0.203125 -0.5625 -0.34375q-0.328125 -0.140625 -0.75 -0.21875q-0.40625 -0.078125 -0.921875 -0.078125q-0.9375 0 -1.375 0.328125q-0.4375 0.3125 -0.4375 0.90625q0 0.390625 0.1875 0.640625q0.203125 0.25 0.546875 0.40625q0.359375 0.15625 0.828125 0.28125q0.46875 0.125 0.984375 0.234375q0.625 0.15625 1.25 0.359375q0.625 0.203125 1.140625 0.53125q0.515625 0.328125 0.8125 0.859375q0.3125 0.53125 0.3125 1.3125q0 1.046875 -0.515625 1.78125q-0.5 0.734375 -1.515625 1.125q-1.015625 0.390625 -2.515625 0.390625q-1.015625 0 -1.828125 -0.140625q-0.8125 -0.140625 -1.390625 -0.34375q-0.578125 -0.203125 -0.921875 -0.40625l0 -2.46875l2.15625 0l0 2.453125q-0.3125 -0.140625 -0.5 -0.296875q-0.1875 -0.171875 -0.25 -0.34375q-0.0625 -0.171875 -0.046875 -0.296875q0.03125 -0.140625 0.140625 -0.203125q0.265625 0.203125 0.65625 0.359375q0.390625 0.15625 0.890625 0.265625q0.515625 0.109375 1.109375 0.109375q0.671875 0 1.109375 -0.15625q0.453125 -0.171875 0.671875 -0.484375q0.234375 -0.3125 0.234375 -0.796875z" fill-rule="nonzero"/><path fill="#ffffff" d="m221.24962 28.11019l0 -1.28125l0.171875 0q0.40625 0 0.6875 -0.0625q0.296875 -0.0625 0.453125 -0.203125q0.171875 -0.15625 0.171875 -0.40625l0 -9.328125q0 -0.28125 -0.171875 -0.421875q-0.15625 -0.140625 -0.453125 -0.1875q-0.28125 -0.0625 -0.6875 -0.0625l-0.171875 0l0 -1.296874l5.640625 0l3.125 10.359374l-0.546875 -0.609375l3.09375 -9.749999l5.53125 0l0 1.296874l-0.203125 0q-0.5625 0 -0.9375 0.125q-0.359375 0.125 -0.359375 0.546875l0 9.328125q0 0.40625 0.359375 0.546875q0.375 0.125 0.9375 0.125l0.203125 0l0 1.28125l-5.75 0l0 -1.28125l0.15625 0q0.25 0 0.53125 -0.015625q0.28125 -0.03125 0.46875 -0.0625q0.203125 -0.046875 0.203125 -0.09375l0 -11.359374l0.203125 -0.0625l-4.15625 12.937499l-1.5625 0l-4.1875 -12.937499l0.234375 -0.03125l0 11.453124q0 0.046875 0.203125 0.09375q0.203125 0.03125 0.484375 0.0625q0.28125 0.015625 0.484375 0.015625l0.109375 0l0 1.28125l-4.265625 0zm24.670166 -1.546875l-0.625 1.234375l-1.03125 1.09375l-3.828125 -8.890625q-0.109375 -0.28125 -0.28125 -0.421875q-0.15625 -0.15625 -0.390625 -0.21875q-0.234375 -0.078125 -0.59375 -0.078125l-0.109375 0l0 -1.234375l5.375 0l0 1.21875l-0.09375 0q-0.3125 0 -0.625 0.015625q-0.3125 0.015625 -0.515625 0.046875q-0.1875 0.03125 -0.1875 0.09375l2.90625 7.140625zm0.09375 1.234375q-0.5625 1.28125 -1.078125 2.1875q-0.5 0.921875 -1.0625 1.46875q-0.546875 0.5625019 -1.1875 0.8125019q-0.640625 0.265625 -1.46875 0.265625q-0.59375 0 -1.046875 -0.125q-0.453125 -0.125 -0.6875 -0.25l0 -2.015627q0.078125 0.015625 0.34375 0.109375q0.28125 0.109375 0.671875 0.1875q0.40625 0.09375 0.875 0.09375q0.5 0 0.921875 -0.125q0.4375 -0.125 0.8125 -0.484375q0.390625 -0.34375 0.765625 -0.984375q0.375 -0.640625 0.75 -1.65625l0.390625 -0.609375l2.90625 -7.015625q0 -0.109375 -0.1875 -0.1875q-0.171875 -0.09375 -0.46875 -0.140625q-0.296875 -0.0625 -0.625 -0.0625l-0.078125 0l0 -1.21875l4.125 0l0 1.234375l-0.109375 0q-0.296875 0 -0.53125 0.09375q-0.234375 0.078125 -0.4375 0.28125q-0.1875 0.1875 -0.34375 0.546875l-3.25 7.59375z" fill-rule="nonzero"/><path fill="#ffffff" d="m232.04999 43.650814q-0.921875 0 -1.625 -0.40625q-0.6875 -0.421875 -1.078125 -1.1875q-0.375 -0.78125 -0.375 -1.828125q0 -1.078125 0.375 -1.84375q0.390625 -0.765625 1.078125 -1.1875q0.703125 -0.421875 1.625 -0.421875q0.921875 0 1.625 0.421875q0.703125 0.421875 1.09375 1.1875q0.390625 0.765625 0.390625 1.84375q0 1.046875 -0.390625 1.828125q-0.390625 0.765625 -1.09375 1.1875q-0.703125 0.40625 -1.625 0.40625zm0 -1.109375q0.390625 0 0.625 -0.234375q0.25 -0.234375 0.359375 -0.734375q0.125 -0.515625 0.125 -1.34375q0 -0.84375 -0.125 -1.34375q-0.109375 -0.515625 -0.359375 -0.75q-0.234375 -0.234375 -0.625 -0.234375q-0.359375 0 -0.609375 0.234375q-0.25 0.234375 -0.375 0.75q-0.125 0.5 -0.125 1.34375q0 0.828125 0.125 1.34375q0.125 0.5 0.375 0.734375q0.25 0.234375 0.609375 0.234375zm7.265625 8.25q-0.90625 0 -1.609375 -0.40625q-0.703125 -0.421875 -1.09375 -1.1875q-0.390625 -0.78125 -0.390625 -1.84375q0 -1.0625 0.390625 -1.828125q0.390625 -0.765625 1.09375 -1.171875q0.703125 -0.421875 1.609375 -0.421875q0.921875 0 1.609375 0.421875q0.703125 0.40625 1.09375 1.171875q0.40625 0.765625 0.40625 1.828125q0 1.0625 -0.40625 1.84375q-0.390625 0.765625 -1.09375 1.1875q-0.6875 0.40625 -1.609375 0.40625zm-9.921875 -0.28125l10.84375 -13.25l1.6875 0l-10.8125 13.25l-1.71875 0zm9.921875 -0.84375q0.375 0 0.609375 -0.234375q0.25 -0.234375 0.375 -0.734375q0.125 -0.5 0.125 -1.34375q0 -0.8125 -0.125 -1.328125q-0.125 -0.515625 -0.375 -0.75q-0.234375 -0.234375 -0.609375 -0.234375q-0.375 0 -0.625 0.234375q-0.234375 0.234375 -0.359375 0.75q-0.109375 0.515625 -0.109375 1.328125q0 0.84375 0.109375 1.34375q0.125 0.5 0.359375 0.734375q0.25 0.234375 0.625 0.234375z" fill-rule="nonzero"/><path fill="#000000" d="m21.610153 93.934395l0 -0.515625l0.03125 0q0.265625 0 0.46875 -0.046875q0.203125 -0.046875 0.3125 -0.171875q0.109375 -0.140625 0.109375 -0.375l0 -3.5625q0 -0.15625 -0.09375 -0.234375q-0.09375 -0.078125 -0.28125 -0.125q-0.171875 -0.0625 -0.453125 -0.109375l-0.09375 -0.03125l0 -0.546875l1.703125 0l0.125 1.21875l0.046875 0.046875l0 3.828125q0 0.03125 0.125 0.0625q0.125 0.03125 0.296875 0.046875q0.1875 0 0.34375 0l0.046875 0l0 0.515625l-2.6875 0zm6.453125 0l-2.6875 0l0 -0.515625l0.03125 0q0.15625 0 0.328125 0q0.1875 -0.015625 0.3125 -0.046875q0.140625 -0.03125 0.140625 -0.0625l0 -3.484375q0 -0.34375 -0.09375 -0.5625q-0.09375 -0.234375 -0.296875 -0.34375q-0.203125 -0.109375 -0.53125 -0.109375q-0.359375 0 -0.703125 0.140625q-0.328125 0.140625 -0.640625 0.421875q-0.3125 0.265625 -0.640625 0.703125l0 -0.578125q0.3125 -0.453125 0.65625 -0.765625q0.34375 -0.3125 0.734375 -0.46875q0.390625 -0.15625 0.828125 -0.15625q0.53125 0 0.875 0.171875q0.359375 0.171875 0.5625 0.53125q0.203125 0.359375 0.203125 0.90625l0 3.109375q0 0.234375 0.09375 0.375q0.109375 0.125 0.3125 0.171875q0.203125 0.046875 0.484375 0.046875l0.03125 0l0 0.515625zm6.536789 -2.859375q0 0.90625 -0.359375 1.578125q-0.34375 0.671875 -1.0 1.046875q-0.640625 0.359375 -1.5 0.359375q-0.875 0 -1.53125 -0.359375q-0.640625 -0.375 -1.0 -1.046875q-0.34375 -0.671875 -0.34375 -1.578125q0 -0.671875 0.203125 -1.21875q0.203125 -0.5625 0.578125 -0.9375q0.390625 -0.390625 0.90625 -0.59375q0.53125 -0.21875 1.1875 -0.21875q0.640625 0 1.15625 0.21875q0.53125 0.203125 0.90625 0.59375q0.390625 0.375 0.59375 0.9375q0.203125 0.546875 0.203125 1.21875zm-4.734375 0q0 0.765625 0.203125 1.296875q0.21875 0.515625 0.625 0.78125q0.421875 0.265625 1.046875 0.265625q0.609375 0 1.03125 -0.265625q0.421875 -0.265625 0.625 -0.78125q0.203125 -0.53125 0.203125 -1.296875q0 -0.75 -0.203125 -1.265625q-0.203125 -0.515625 -0.625 -0.78125q-0.421875 -0.265625 -1.03125 -0.265625q-0.625 0 -1.046875 0.265625q-0.40625 0.265625 -0.625 0.78125q-0.203125 0.515625 -0.203125 1.265625zm9.976074 -2.15625l-0.21875 0.078125l1.46875 5.0l1.03125 0l1.375 -4.6875q0.0625 -0.21875 0.171875 -0.328125q0.125 -0.109375 0.296875 -0.15625q0.1875 -0.046875 0.390625 -0.046875l0.046875 0l0 -0.5625l-2.453125 0l0 0.5625l0.046875 0q0.234375 0 0.421875 0.03125q0.203125 0.015625 0.3125 0.078125q0.125 0.046875 0.125 0.125l-1.203125 4.375l0.140625 0.109375l-1.5 -5.28125l-0.921875 0l-1.5 5.171875l0.140625 0.125l-1.25 -4.65625q0 -0.03125 0.125 -0.046875q0.140625 -0.015625 0.34375 -0.015625q0.203125 -0.015625 0.453125 -0.015625l0.046875 0l0 -0.5625l-2.65625 0l0 0.5625l0.046875 0q0.203125 0 0.359375 0.046875q0.171875 0.03125 0.28125 0.125q0.125 0.09375 0.1875 0.28125l1.34375 4.765625l1.03125 0l1.515625 -5.078125z" fill-rule="nonzero"/><path fill="#000000" d="m92.59673 94.45644q0 0.265625 0.265625 0.421875q0.265625 0.140625 0.75 0.203125q0.484375 0.046875 1.125 0.046875l0.765625 0l0 0.96875l-7.609375 0l0 -0.96875l1.03125 0q0.609375 0 1.046875 -0.046875q0.4375 -0.0625 0.671875 -0.203125q0.234375 -0.15625 0.234375 -0.421875l0 -8.953125l0.296875 -0.234375q-0.125 0.4375 -0.453125 0.765625q-0.328125 0.3125 -0.828125 0.53125q-0.484375 0.21875 -1.078125 0.328125q-0.59375 0.09375 -1.25 0.09375l0 -1.203125q0.703125 -0.015625 1.3125 -0.109375q0.609375 -0.09375 1.09375 -0.28125q0.484375 -0.1875 0.859375 -0.484375q0.375 -0.3125 0.609375 -0.71875l1.15625 0l0 10.265625zm9.119385 1.84375q-1.0 0 -1.8125 -0.40625q-0.8125 -0.40625 -1.40625 -1.203125q-0.578125 -0.796875 -0.90625 -1.953125q-0.3125 -1.15625 -0.3125 -2.609375q0 -1.46875 0.3125 -2.609375q0.328125 -1.15625 0.90625 -1.953125q0.59375 -0.8125 1.40625 -1.203125q0.8125 -0.40625 1.8125 -0.40625q1.015625 0 1.828125 0.40625q0.828125 0.390625 1.40625 1.203125q0.59375 0.796875 0.890625 1.953125q0.3125 1.140625 0.3125 2.609375q0 1.453125 -0.3125 2.609375q-0.296875 1.15625 -0.890625 1.953125q-0.578125 0.796875 -1.40625 1.203125q-0.8125 0.40625 -1.828125 0.40625zm0 -1.09375q0.6875 0 1.1875 -0.3125q0.5 -0.328125 0.828125 -0.96875q0.328125 -0.640625 0.484375 -1.59375q0.15625 -0.953125 0.15625 -2.203125q0 -1.265625 -0.15625 -2.21875q-0.15625 -0.953125 -0.484375 -1.59375q-0.328125 -0.640625 -0.828125 -0.953125q-0.5 -0.328125 -1.1875 -0.328125q-0.6875 0 -1.1875 0.328125q-0.484375 0.3125 -0.8125 0.953125q-0.328125 0.640625 -0.484375 1.59375q-0.15625 0.953125 -0.15625 2.21875q0 1.25 0.15625 2.203125q0.15625 0.953125 0.484375 1.59375q0.328125 0.640625 0.8125 0.96875q0.5 0.3125 1.1875 0.3125zm10.44751 1.09375q-1.0 0 -1.8125 -0.40625q-0.8125 -0.40625 -1.40625 -1.203125q-0.578125 -0.796875 -0.90625 -1.953125q-0.3125 -1.15625 -0.3125 -2.609375q0 -1.46875 0.3125 -2.609375q0.328125 -1.15625 0.90625 -1.953125q0.59375 -0.8125 1.40625 -1.203125q0.8125 -0.40625 1.8125 -0.40625q1.015625 0 1.828125 0.40625q0.828125 0.390625 1.40625 1.203125q0.59375 0.796875 0.890625 1.953125q0.3125 1.140625 0.3125 2.609375q0 1.453125 -0.3125 2.609375q-0.296875 1.15625 -0.890625 1.953125q-0.578125 0.796875 -1.40625 1.203125q-0.8125 0.40625 -1.828125 0.40625zm0 -1.09375q0.6875 0 1.1875 -0.3125q0.5 -0.328125 0.828125 -0.96875q0.328125 -0.640625 0.484375 -1.59375q0.15625 -0.953125 0.15625 -2.203125q0 -1.265625 -0.15625 -2.21875q-0.15625 -0.953125 -0.484375 -1.59375q-0.328125 -0.640625 -0.828125 -0.953125q-0.5 -0.328125 -1.1875 -0.328125q-0.6875 0 -1.1875 0.328125q-0.484375 0.3125 -0.8125 0.953125q-0.328125 0.640625 -0.484375 1.59375q-0.15625 0.953125 -0.15625 2.21875q0 1.25 0.15625 2.203125q0.15625 0.953125 0.484375 1.59375q0.328125 0.640625 0.8125 0.96875q0.5 0.3125 1.1875 0.3125z" fill-rule="nonzero"/><path fill="#000000" d="m149.26924 94.45644q0 0.265625 0.265625 0.421875q0.265625 0.140625 0.75 0.203125q0.484375 0.046875 1.125 0.046875l0.765625 0l0 0.96875l-7.609375 0l0 -0.96875l1.03125 0q0.609375 0 1.046875 -0.046875q0.4375 -0.0625 0.671875 -0.203125q0.234375 -0.15625 0.234375 -0.421875l0 -8.953125l0.296875 -0.234375q-0.125 0.4375 -0.453125 0.765625q-0.328125 0.3125 -0.828125 0.53125q-0.484375 0.21875 -1.078125 0.328125q-0.59375 0.09375 -1.25 0.09375l0 -1.203125q0.703125 -0.015625 1.3125 -0.109375q0.609375 -0.09375 1.09375 -0.28125q0.484375 -0.1875 0.859375 -0.484375q0.375 -0.3125 0.609375 -0.71875l1.15625 0l0 10.265625zm6.04126 4.875l-1.25 -0.828125q0.84375 -0.375 1.40625 -0.78125q0.578125 -0.390625 0.859375 -0.890625q0.296875 -0.484375 0.3125 -1.09375q0.015625 -0.046875 0.046875 -0.09375q0.03125 -0.0625 0.078125 -0.09375q0.046875 -0.03125 0.09375 -0.03125q0.046875 0 0.078125 0.03125q-0.046875 0.21875 -0.1875 0.34375q-0.125 0.109375 -0.3125 0.171875q-0.171875 0.046875 -0.390625 0.046875q-0.625 0 -1.03125 -0.328125q-0.390625 -0.34375 -0.390625 -0.921875q0 -0.578125 0.40625 -0.953125q0.421875 -0.375 1.0625 -0.375q0.46875 0 0.828125 0.203125q0.375 0.1875 0.578125 0.59375q0.203125 0.40625 0.203125 1.03125q0 0.84375 -0.25 1.546875q-0.234375 0.71875 -0.765625 1.296875q-0.53125 0.59375 -1.375 1.125zm8.824249 -3.03125q-1.0 0 -1.8125 -0.40625q-0.8125 -0.40625 -1.40625 -1.203125q-0.578125 -0.796875 -0.90625 -1.953125q-0.3125 -1.15625 -0.3125 -2.609375q0 -1.46875 0.3125 -2.609375q0.328125 -1.15625 0.90625 -1.953125q0.59375 -0.8125 1.40625 -1.203125q0.8125 -0.40625 1.8125 -0.40625q1.015625 0 1.828125 0.40625q0.828125 0.390625 1.40625 1.203125q0.59375 0.796875 0.890625 1.953125q0.3125 1.140625 0.3125 2.609375q0 1.453125 -0.3125 2.609375q-0.296875 1.15625 -0.890625 1.953125q-0.578125 0.796875 -1.40625 1.203125q-0.8125 0.40625 -1.828125 0.40625zm0 -1.09375q0.6875 0 1.1875 -0.3125q0.5 -0.328125 0.828125 -0.96875q0.328125 -0.640625 0.484375 -1.59375q0.15625 -0.953125 0.15625 -2.203125q0 -1.265625 -0.15625 -2.21875q-0.15625 -0.953125 -0.484375 -1.59375q-0.328125 -0.640625 -0.828125 -0.953125q-0.5 -0.328125 -1.1875 -0.328125q-0.6875 0 -1.1875 0.328125q-0.484375 0.3125 -0.8125 0.953125q-0.328125 0.640625 -0.484375 1.59375q-0.15625 0.953125 -0.15625 2.21875q0 1.25 0.15625 2.203125q0.15625 0.953125 0.484375 1.59375q0.328125 0.640625 0.8125 0.96875q0.5 0.3125 1.1875 0.3125zm10.44751 1.09375q-1.0 0 -1.8125 -0.40625q-0.8125 -0.40625 -1.40625 -1.203125q-0.578125 -0.796875 -0.90625 -1.953125q-0.3125 -1.15625 -0.3125 -2.609375q0 -1.46875 0.3125 -2.609375q0.328125 -1.15625 0.90625 -1.953125q0.59375 -0.8125 1.40625 -1.203125q0.8125 -0.40625 1.8125 -0.40625q1.015625 0 1.828125 0.40625q0.828125 0.390625 1.40625 1.203125q0.59375 0.796875 0.890625 1.953125q0.3125 1.140625 0.3125 2.609375q0 1.453125 -0.3125 2.609375q-0.296875 1.15625 -0.890625 1.953125q-0.578125 0.796875 -1.40625 1.203125q-0.8125 0.40625 -1.828125 0.40625zm0 -1.09375q0.6875 0 1.1875 -0.3125q0.5 -0.328125 0.828125 -0.96875q0.328125 -0.640625 0.484375 -1.59375q0.15625 -0.953125 0.15625 -2.203125q0 -1.265625 -0.15625 -2.21875q-0.15625 -0.953125 -0.484375 -1.59375q-0.328125 -0.640625 -0.828125 -0.953125q-0.5 -0.328125 -1.1875 -0.328125q-0.6875 0 -1.1875 0.328125q-0.484375 0.3125 -0.8125 0.953125q-0.328125 0.640625 -0.484375 1.59375q-0.15625 0.953125 -0.15625 2.21875q0 1.25 0.15625 2.203125q0.15625 0.953125 0.484375 1.59375q0.328125 0.640625 0.8125 0.96875q0.5 0.3125 1.1875 0.3125zm10.44751 1.09375q-1.0 0 -1.8125 -0.40625q-0.8125 -0.40625 -1.40625 -1.203125q-0.578125 -0.796875 -0.90625 -1.953125q-0.3125 -1.15625 -0.3125 -2.609375q0 -1.46875 0.3125 -2.609375q0.328125 -1.15625 0.90625 -1.953125q0.59375 -0.8125 1.40625 -1.203125q0.8125 -0.40625 1.8125 -0.40625q1.015625 0 1.828125 0.40625q0.828125 0.390625 1.40625 1.203125q0.59375 0.796875 0.890625 1.953125q0.3125 1.140625 0.3125 2.609375q0 1.453125 -0.3125 2.609375q-0.296875 1.15625 -0.890625 1.953125q-0.578125 0.796875 -1.40625 1.203125q-0.8125 0.40625 -1.828125 0.40625zm0 -1.09375q0.6875 0 1.1875 -0.3125q0.5 -0.328125 0.828125 -0.96875q0.328125 -0.640625 0.484375 -1.59375q0.15625 -0.953125 0.15625 -2.203125q0 -1.265625 -0.15625 -2.21875q-0.15625 -0.953125 -0.484375 -1.59375q-0.328125 -0.640625 -0.828125 -0.953125q-0.5 -0.328125 -1.1875 -0.328125q-0.6875 0 -1.1875 0.328125q-0.484375 0.3125 -0.8125 0.953125q-0.328125 0.640625 -0.484375 1.59375q-0.15625 0.953125 -0.15625 2.21875q0 1.25 0.15625 2.203125q0.15625 0.953125 0.484375 1.59375q0.328125 0.640625 0.8125 0.96875q0.5 0.3125 1.1875 0.3125z" fill-rule="nonzero"/><path fill="#000000" d="m234.24332 94.45644q0 0.265625 0.265625 0.421875q0.265625 0.140625 0.75 0.203125q0.484375 0.046875 1.125 0.046875l0.765625 0l0 0.96875l-7.609375 0l0 -0.96875l1.03125 0q0.609375 0 1.046875 -0.046875q0.4375 -0.0625 0.671875 -0.203125q0.234375 -0.15625 0.234375 -0.421875l0 -8.953125l0.296875 -0.234375q-0.125 0.4375 -0.453125 0.765625q-0.328125 0.3125 -0.828125 0.53125q-0.484375 0.21875 -1.078125 0.328125q-0.59375 0.09375 -1.25 0.09375l0 -1.203125q0.703125 -0.015625 1.3125 -0.109375q0.609375 -0.09375 1.09375 -0.28125q0.484375 -0.1875 0.859375 -0.484375q0.375 -0.3125 0.609375 -0.71875l1.15625 0l0 10.265625zm9.119385 1.84375q-1.0 0 -1.8125 -0.40625q-0.8125 -0.40625 -1.40625 -1.203125q-0.578125 -0.796875 -0.90625 -1.953125q-0.3125 -1.15625 -0.3125 -2.609375q0 -1.46875 0.3125 -2.609375q0.328125 -1.15625 0.90625 -1.953125q0.59375 -0.8125 1.40625 -1.203125q0.8125 -0.40625 1.8125 -0.40625q1.015625 0 1.828125 0.40625q0.828125 0.390625 1.40625 1.203125q0.59375 0.796875 0.890625 1.953125q0.3125 1.140625 0.3125 2.609375q0 1.453125 -0.3125 2.609375q-0.296875 1.15625 -0.890625 1.953125q-0.578125 0.796875 -1.40625 1.203125q-0.8125 0.40625 -1.828125 0.40625zm0 -1.09375q0.6875 0 1.1875 -0.3125q0.5 -0.328125 0.828125 -0.96875q0.328125 -0.640625 0.484375 -1.59375q0.15625 -0.953125 0.15625 -2.203125q0 -1.265625 -0.15625 -2.21875q-0.15625 -0.953125 -0.484375 -1.59375q-0.328125 -0.640625 -0.828125 -0.953125q-0.5 -0.328125 -1.1875 -0.328125q-0.6875 0 -1.1875 0.328125q-0.484375 0.3125 -0.8125 0.953125q-0.328125 0.640625 -0.484375 1.59375q-0.15625 0.953125 -0.15625 2.21875q0 1.25 0.15625 2.203125q0.15625 0.953125 0.484375 1.59375q0.328125 0.640625 0.8125 0.96875q0.5 0.3125 1.1875 0.3125zm8.91626 -6.0625q-0.859375 0 -1.515625 -0.40625q-0.65625 -0.40625 -1.03125 -1.15625q-0.359375 -0.75 -0.359375 -1.8125q0 -1.078125 0.359375 -1.828125q0.375 -0.75 1.03125 -1.15625q0.65625 -0.40625 1.515625 -0.40625q0.859375 0 1.515625 0.40625q0.671875 0.40625 1.03125 1.15625q0.375 0.75 0.375 1.828125q0 1.0625 -0.375 1.8125q-0.359375 0.75 -1.03125 1.15625q-0.65625 0.40625 -1.515625 0.40625zm0 -0.90625q0.484375 0 0.796875 -0.265625q0.3125 -0.265625 0.453125 -0.8125q0.15625 -0.5625 0.15625 -1.390625q0 -0.828125 -0.15625 -1.375q-0.140625 -0.546875 -0.453125 -0.828125q-0.3125 -0.28125 -0.796875 -0.28125q-0.484375 0 -0.796875 0.28125q-0.296875 0.28125 -0.453125 0.828125q-0.140625 0.546875 -0.140625 1.375q0 0.828125 0.140625 1.390625q0.15625 0.546875 0.453125 0.8125q0.3125 0.265625 0.796875 0.265625zm7.15625 8.109375q-0.859375 0 -1.53125 -0.40625q-0.65625 -0.421875 -1.03125 -1.171875q-0.359375 -0.765625 -0.359375 -1.8125q0 -1.0625 0.359375 -1.8125q0.375 -0.75 1.03125 -1.15625q0.671875 -0.421875 1.53125 -0.421875q0.859375 0 1.515625 0.421875q0.65625 0.40625 1.015625 1.15625q0.375 0.75 0.375 1.8125q0 1.046875 -0.375 1.8125q-0.359375 0.75 -1.015625 1.171875q-0.65625 0.40625 -1.515625 0.40625zm-9.765625 -0.25l11.03125 -13.25l1.359375 0l-11.03125 13.25l-1.359375 0zm9.765625 -0.671875q0.484375 0 0.78125 -0.265625q0.3125 -0.28125 0.453125 -0.828125q0.15625 -0.546875 0.15625 -1.375q0 -0.828125 -0.15625 -1.375q-0.140625 -0.5625 -0.453125 -0.828125q-0.296875 -0.265625 -0.78125 -0.265625q-0.484375 0 -0.796875 0.265625q-0.3125 0.265625 -0.46875 0.828125q-0.140625 0.546875 -0.140625 1.375q0 0.828125 0.140625 1.375q0.15625 0.546875 0.46875 0.828125q0.3125 0.265625 0.796875 0.265625z" fill-rule="nonzero"/><path fill="#000000" d="m20.24582 130.25171l0 -0.515625l0.03125 0q0.265625 0 0.46875 -0.046875q0.203125 -0.046875 0.3125 -0.171875q0.109375 -0.140625 0.109375 -0.375l0 -3.5624924q0 -0.15625 -0.09375 -0.234375q-0.09375 -0.078125 -0.28125 -0.125q-0.171875 -0.0625 -0.453125 -0.109375l-0.09375 -0.03125l0 -0.546875l1.703125 0l0.125 1.21875l0.046875 0.046875l0 3.8281174q0 0.03125 0.125 0.0625q0.125 0.03125 0.296875 0.046875q0.1875 0 0.34375 0l0.046875 0l0 0.515625l-2.6875 0zm6.453125 0l-2.6875 0l0 -0.515625l0.03125 0q0.15625 0 0.328125 0q0.1875 -0.015625 0.3125 -0.046875q0.140625 -0.03125 0.140625 -0.0625l0 -3.4843674q0 -0.34375 -0.09375 -0.5625q-0.09375 -0.234375 -0.296875 -0.34375q-0.203125 -0.109375 -0.53125 -0.109375q-0.359375 0 -0.703125 0.140625q-0.328125 0.140625 -0.640625 0.421875q-0.3125 0.265625 -0.640625 0.703125l0 -0.578125q0.3125 -0.453125 0.65625 -0.765625q0.34375 -0.3125 0.734375 -0.46875q0.390625 -0.15625 0.828125 -0.15625q0.53125 0 0.875 0.171875q0.359375 0.171875 0.5625 0.53125q0.203125 0.359375 0.203125 0.90625l0 3.1093674q0 0.234375 0.09375 0.375q0.109375 0.125 0.3125 0.171875q0.203125 0.046875 0.484375 0.046875l0.03125 0l0 0.515625zm1.771164 -2.7968674q0 0.6093674 0.140625 1.0468674q0.140625 0.4375 0.40625 0.703125q0.265625 0.265625 0.609375 0.40625q0.359375 0.125 0.765625 0.125q0.4375 0 0.765625 -0.15625q0.328125 -0.171875 0.5625 -0.40625q0.25 -0.25 0.421875 -0.53125l0.515625 0.421875q-0.203125 0.359375 -0.53125 0.671875q-0.328125 0.296875 -0.78125 0.46875q-0.4375 0.171875 -0.984375 0.171875q-0.8125 0 -1.46875 -0.34375q-0.640625 -0.34375 -1.015625 -1.0q-0.375 -0.671875 -0.375 -1.5937424q0 -0.90625 0.34375 -1.578125q0.34375 -0.6875 0.9375 -1.0625q0.609375 -0.375 1.390625 -0.375q0.625 0 1.078125 0.203125q0.46875 0.203125 0.765625 0.609375q0.3125 0.40625 0.46875 1.015625q0.171875 0.59375 0.171875 1.40625l-4.421875 0l0 -0.609375l3.71875 0l-0.28125 0.234375q-0.015625 -0.609375 -0.109375 -1.03125q-0.09375 -0.421875 -0.265625 -0.671875q-0.171875 -0.265625 -0.453125 -0.375q-0.28125 -0.125 -0.671875 -0.125q-0.375 0 -0.6875 0.140625q-0.3125 0.140625 -0.546875 0.4375q-0.234375 0.296875 -0.359375 0.75q-0.109375 0.4375 -0.109375 1.046875zm11.031387 2.7968674l-2.640625 0l0 -0.5625l0.015625 0q0.21875 0 0.421875 0q0.203125 -0.015625 0.328125 -0.03125q0.140625 -0.03125 0.140625 -0.0625l-1.6875 -1.9999924l-0.0625 -0.015625l-1.8125 -2.171875q-0.09375 -0.109375 -0.203125 -0.171875q-0.09375 -0.078125 -0.234375 -0.109375q-0.140625 -0.03125 -0.359375 -0.03125l-0.03125 0l0 -0.5625l2.609375 0l0 0.5625l-0.015625 0q-0.203125 0 -0.40625 0.015625q-0.203125 0 -0.34375 0.015625q-0.125 0.015625 -0.125 0.046875l1.59375 1.921875l0.078125 0.03125l1.859375 2.2031174q0.109375 0.125 0.21875 0.203125q0.109375 0.078125 0.25 0.125q0.140625 0.03125 0.375 0.03125l0.03125 0l0 0.5625zm-6.265625 0l0 -0.5625l0.03125 0q0.296875 0 0.484375 -0.09375q0.203125 -0.09375 0.390625 -0.328125l1.71875 -2.0312424l0.484375 0.359375l-1.546875 1.8593674q0 0.0625 0.125 0.125q0.140625 0.046875 0.34375 0.078125q0.203125 0.03125 0.421875 0.03125l0.03125 0l0 0.5625l-2.484375 0zm3.578125 -2.8281174l-0.46875 -0.390625l1.484375 -1.71875q0 -0.0625 -0.125 -0.109375q-0.125 -0.0625 -0.328125 -0.078125q-0.1875 -0.03125 -0.40625 -0.03125l-0.046875 0l0 -0.5625l2.4375 0l0 0.5625l-0.03125 0q-0.171875 0 -0.3125 0.03125q-0.140625 0.03125 -0.265625 0.125q-0.125 0.09375 -0.265625 0.25l-1.671875 1.921875zm3.328888 -2.25l0 -0.59375l0.109375 0q0.359375 0 0.609375 -0.046875q0.25 -0.046875 0.359375 -0.1875q0.125 -0.15625 0.125 -0.453125l0.703125 0.640625l2.03125 0l0 0.640625l-3.9375 0zm2.078125 3.3437424q0 0.4375 0.125 0.703125q0.140625 0.25 0.375 0.359375q0.25 0.109375 0.59375 0.109375q0.28125 0 0.515625 -0.03125q0.234375 -0.046875 0.3125 -0.0625l0 0.640625q-0.109375 0.03125 -0.265625 0.0625q-0.15625 0.03125 -0.328125 0.046875q-0.171875 0.03125 -0.359375 0.03125q-0.5 0 -0.9375 -0.15625q-0.4375 -0.15625 -0.703125 -0.546875q-0.265625 -0.40625 -0.265625 -1.140625l0 -3.8437424l0.0625 -0.078125l0 -1.71875l0.875 0l0 5.6249924z" fill-rule="nonzero"/><path fill="#000000" d="m19.33522 142.53609q0.46875 0 0.796875 -0.15625q0.34375 -0.171875 0.578125 -0.421875q0.25 -0.25 0.421875 -0.53125l0.5 0.421875q-0.203125 0.375 -0.546875 0.6875q-0.328125 0.296875 -0.78125 0.46875q-0.4375 0.171875 -0.984375 0.171875q-0.90625 0 -1.5625 -0.375q-0.65625 -0.375 -1.015625 -1.03125q-0.34375 -0.671875 -0.34375 -1.578125q0 -0.90625 0.359375 -1.578125q0.359375 -0.671875 1.015625 -1.03125q0.671875 -0.359375 1.59375 -0.359375q0.546875 0 0.96875 0.09375q0.4375 0.09375 0.71875 0.21875q0.296875 0.125 0.421875 0.21875l0 1.625l-0.953125 0l0 -1.375q0.09375 0 0.1875 0.046875q0.109375 0.03125 0.171875 0.09375q0.0625 0.0625 0.09375 0.140625q0.03125 0.078125 0.03125 0.15625q-0.234375 -0.234375 -0.671875 -0.390625q-0.4375 -0.171875 -0.96875 -0.171875q-0.671875 0 -1.109375 0.265625q-0.4375 0.265625 -0.65625 0.796875q-0.203125 0.515625 -0.203125 1.25q0 0.5625 0.109375 1.0q0.125 0.4375 0.359375 0.734375q0.25 0.296875 0.609375 0.453125q0.359375 0.15625 0.859375 0.15625zm6.488266 0.046875l-0.109375 0.390625l-0.53125 0.328125l-2.0625 -5.0625q-0.0625 -0.140625 -0.1875 -0.21875q-0.109375 -0.078125 -0.28125 -0.09375q-0.15625 -0.03125 -0.375 -0.03125l-0.0625 0l0 -0.5625l2.71875 0l0 0.5625l-0.046875 0q-0.21875 0 -0.421875 0.015625q-0.203125 0 -0.34375 0.015625q-0.125 0.015625 -0.125 0.046875l1.828125 4.609375zm0.15625 0.28125q-0.296875 0.734375 -0.59375 1.234375q-0.28125 0.515625 -0.59375 0.828125q-0.296875 0.3125 -0.65625 0.453125q-0.34375 0.140625 -0.796875 0.140625q-0.28125 0 -0.515625 -0.0625q-0.21875 -0.046875 -0.328125 -0.125l0 -0.859375q0.03125 0.015625 0.140625 0.0625q0.125 0.046875 0.3125 0.09375q0.1875 0.046875 0.421875 0.046875q0.265625 0 0.515625 -0.078125q0.25 -0.078125 0.5 -0.3125q0.25 -0.21875 0.5 -0.65625q0.25 -0.4375 0.515625 -1.15625l0.09375 -0.171875l1.671875 -4.1875q0 -0.078125 -0.125 -0.125q-0.125 -0.046875 -0.328125 -0.0625q-0.203125 -0.03125 -0.421875 -0.03125l-0.046875 0l0 -0.5625l2.5 0l0 0.5625l-0.0625 0q-0.1875 0 -0.359375 0.046875q-0.15625 0.03125 -0.296875 0.140625q-0.125 0.09375 -0.203125 0.3125l-1.84375 4.46875zm6.1642914 -0.328125q0.46875 0 0.796875 -0.15625q0.34375 -0.171875 0.578125 -0.421875q0.25 -0.25 0.421875 -0.53125l0.5 0.421875q-0.203125 0.375 -0.546875 0.6875q-0.328125 0.296875 -0.78125 0.46875q-0.4375 0.171875 -0.984375 0.171875q-0.90625 0 -1.5625 -0.375q-0.65625 -0.375 -1.015625 -1.03125q-0.34375 -0.671875 -0.34375 -1.578125q0 -0.90625 0.359375 -1.578125q0.359375 -0.671875 1.015625 -1.03125q0.671875 -0.359375 1.59375 -0.359375q0.546875 0 0.96875 0.09375q0.4375 0.09375 0.71875 0.21875q0.296875 0.125 0.421875 0.21875l0 1.625l-0.953125 0l0 -1.375q0.09375 0 0.1875 0.046875q0.109375 0.03125 0.171875 0.09375q0.0625 0.0625 0.09375 0.140625q0.03125 0.078125 0.03125 0.15625q-0.234375 -0.234375 -0.671875 -0.390625q-0.4375 -0.171875 -0.96875 -0.171875q-0.671875 0 -1.109375 0.265625q-0.4375 0.265625 -0.65625 0.796875q-0.203125 0.515625 -0.203125 1.25q0 0.5625 0.109375 1.0q0.125 0.4375 0.359375 0.734375q0.25 0.296875 0.609375 0.453125q0.359375 0.15625 0.859375 0.15625zm5.0286865 -7.5625l0 7.015625q0 0.34375 0.234375 0.453125q0.25 0.09375 0.671875 0.09375l0.03125 0l0 0.515625l-2.8125 0l0 -0.515625l0.046875 0q0.40625 0 0.640625 -0.09375q0.25 -0.109375 0.25 -0.453125l0 -5.953125q0 -0.171875 -0.09375 -0.25q-0.09375 -0.078125 -0.28125 -0.125q-0.171875 -0.0625 -0.453125 -0.109375l-0.109375 -0.015625l0 -0.5625l1.875 0zm2.6998444 5.28125q0 0.609375 0.140625 1.046875q0.140625 0.4375 0.40625 0.703125q0.265625 0.265625 0.609375 0.40625q0.359375 0.125 0.765625 0.125q0.4375 0 0.765625 -0.15625q0.328125 -0.171875 0.5625 -0.40625q0.25 -0.25 0.421875 -0.53125l0.515625 0.421875q-0.203125 0.359375 -0.53125 0.671875q-0.328125 0.296875 -0.78125 0.46875q-0.4375 0.171875 -0.984375 0.171875q-0.8125 0 -1.46875 -0.34375q-0.640625 -0.34375 -1.015625 -1.0q-0.375 -0.671875 -0.375 -1.59375q0 -0.90625 0.34375 -1.578125q0.34375 -0.6875 0.9375 -1.0625q0.609375 -0.375 1.390625 -0.375q0.625 0 1.078125 0.203125q0.46875 0.203125 0.765625 0.609375q0.3125 0.40625 0.46875 1.015625q0.171875 0.59375 0.171875 1.40625l-4.421875 0l0 -0.609375l3.71875 0l-0.28125 0.234375q-0.015625 -0.609375 -0.109375 -1.03125q-0.09375 -0.421875 -0.265625 -0.671875q-0.171875 -0.265625 -0.453125 -0.375q-0.28125 -0.125 -0.671875 -0.125q-0.375 0 -0.6875 0.140625q-0.3125 0.140625 -0.546875 0.4375q-0.234375 0.296875 -0.359375 0.75q-0.109375 0.4375 -0.109375 1.046875z" fill-rule="nonzero"/><path fill="#000000" d="m92.59673 136.29109q0 0.265625 0.265625 0.421875q0.265625 0.140625 0.75 0.203125q0.484375 0.046875 1.125 0.046875l0.765625 0l0 0.96875l-7.609375 0l0 -0.96875l1.03125 0q0.609375 0 1.046875 -0.046875q0.4375 -0.0625 0.671875 -0.203125q0.234375 -0.15625 0.234375 -0.421875l0 -8.953133l0.296875 -0.234375q-0.125 0.4375 -0.453125 0.765625q-0.328125 0.31250763 -0.828125 0.5312576q-0.484375 0.21875 -1.078125 0.328125q-0.59375 0.09375 -1.25 0.09375l0 -1.2031326q0.703125 -0.015625 1.3125 -0.109375q0.609375 -0.09375 1.09375 -0.28125q0.484375 -0.1875 0.859375 -0.484375q0.375 -0.3125 0.609375 -0.71875l1.15625 0l0 10.265633zm8.82251 3.015625q1.40625 0 2.4375 -0.546875q1.046875 -0.53125 1.640625 -1.546875q0.59375 -1.03125 0.59375 -2.484375q0 -1.234375 -0.46875 -2.171875q-0.46875 -0.9375 -1.375 -1.46875q-0.890625 -0.546875 -2.109375 -0.546875q-0.734375 0 -1.328125 0.21875q-0.59375 0.21875 -1.078125 0.65625q-0.46875 0.4375 -0.8125 1.0625q0.015625 0.15625 0.109375 0.171875q0.09375 0 0.1875 -0.0625q0.09375 -0.0625 0.109375 -0.140625l0 -6.0468826l-0.484375 1.0625l6.0 0l0.46875 -1.4375l-7.171875 0l0 7.0937576l1.0625 0q0.34375 -0.515625 0.734375 -0.828125q0.390625 -0.328125 0.84375 -0.46875q0.46875 -0.15625 1.046875 -0.15625q0.734375 0 1.296875 0.3125q0.578125 0.3125 0.890625 0.984375q0.3125 0.671875 0.3125 1.765625q0 1.1875 -0.359375 1.953125q-0.34375 0.765625 -1.0 1.140625q-0.640625 0.375 -1.53125 0.375q-1.03125 0 -1.6875 -0.359375q-0.65625 -0.359375 -1.046875 -0.890625q-0.390625 -0.546875 -0.65625 -1.09375l-1.03125 0.71875q0.359375 0.765625 0.921875 1.390625q0.5625 0.625 1.40625 0.984375q0.84375 0.359375 2.078125 0.359375zm10.744385 -1.171875q-1.0 0 -1.8125 -0.40625q-0.8125 -0.40625 -1.40625 -1.203125q-0.578125 -0.796875 -0.90625 -1.953125q-0.3125 -1.15625 -0.3125 -2.609375q0 -1.46875 0.3125 -2.609375q0.328125 -1.15625 0.90625 -1.9531326q0.59375 -0.8125 1.40625 -1.203125q0.8125 -0.40625 1.8125 -0.40625q1.015625 0 1.828125 0.40625q0.828125 0.390625 1.40625 1.203125q0.59375 0.7968826 0.890625 1.9531326q0.3125 1.140625 0.3125 2.609375q0 1.453125 -0.3125 2.609375q-0.296875 1.15625 -0.890625 1.953125q-0.578125 0.796875 -1.40625 1.203125q-0.8125 0.40625 -1.828125 0.40625zm0 -1.09375q0.6875 0 1.1875 -0.3125q0.5 -0.328125 0.828125 -0.96875q0.328125 -0.640625 0.484375 -1.59375q0.15625 -0.953125 0.15625 -2.203125q0 -1.265625 -0.15625 -2.21875q-0.15625 -0.953125 -0.484375 -1.59375q-0.328125 -0.6406326 -0.828125 -0.9531326q-0.5 -0.328125 -1.1875 -0.328125q-0.6875 0 -1.1875 0.328125q-0.484375 0.3125 -0.8125 0.9531326q-0.328125 0.640625 -0.484375 1.59375q-0.15625 0.953125 -0.15625 2.21875q0 1.25 0.15625 2.203125q0.15625 0.953125 0.484375 1.59375q0.328125 0.640625 0.8125 0.96875q0.5 0.3125 1.1875 0.3125z" fill-rule="nonzero"/><path fill="#000000" d="m149.26924 136.29109q0 0.265625 0.265625 0.421875q0.265625 0.140625 0.75 0.203125q0.484375 0.046875 1.125 0.046875l0.765625 0l0 0.96875l-7.609375 0l0 -0.96875l1.03125 0q0.609375 0 1.046875 -0.046875q0.4375 -0.0625 0.671875 -0.203125q0.234375 -0.15625 0.234375 -0.421875l0 -8.953133l0.296875 -0.234375q-0.125 0.4375 -0.453125 0.765625q-0.328125 0.31250763 -0.828125 0.5312576q-0.484375 0.21875 -1.078125 0.328125q-0.59375 0.09375 -1.25 0.09375l0 -1.2031326q0.703125 -0.015625 1.3125 -0.109375q0.609375 -0.09375 1.09375 -0.28125q0.484375 -0.1875 0.859375 -0.484375q0.375 -0.3125 0.609375 -0.71875l1.15625 0l0 10.265633zm6.04126 4.875l-1.25 -0.828125q0.84375 -0.375 1.40625 -0.78125q0.578125 -0.390625 0.859375 -0.890625q0.296875 -0.484375 0.3125 -1.09375q0.015625 -0.046875 0.046875 -0.09375q0.03125 -0.0625 0.078125 -0.09375q0.046875 -0.03125 0.09375 -0.03125q0.046875 0 0.078125 0.03125q-0.046875 0.21875 -0.1875 0.34375q-0.125 0.109375 -0.3125 0.171875q-0.171875 0.046875 -0.390625 0.046875q-0.625 0 -1.03125 -0.328125q-0.390625 -0.34375 -0.390625 -0.921875q0 -0.578125 0.40625 -0.953125q0.421875 -0.375 1.0625 -0.375q0.46875 0 0.828125 0.203125q0.375 0.1875 0.578125 0.59375q0.203125 0.40625 0.203125 1.03125q0 0.84375 -0.25 1.546875q-0.234375 0.71875 -0.765625 1.296875q-0.53125 0.59375 -1.375 1.125zm8.527374 -1.859375q1.40625 0 2.4375 -0.546875q1.046875 -0.53125 1.640625 -1.546875q0.59375 -1.03125 0.59375 -2.484375q0 -1.234375 -0.46875 -2.171875q-0.46875 -0.9375 -1.375 -1.46875q-0.890625 -0.546875 -2.109375 -0.546875q-0.734375 0 -1.328125 0.21875q-0.59375 0.21875 -1.078125 0.65625q-0.46875 0.4375 -0.8125 1.0625q0.015625 0.15625 0.109375 0.171875q0.09375 0 0.1875 -0.0625q0.09375 -0.0625 0.109375 -0.140625l0 -6.0468826l-0.484375 1.0625l6.0 0l0.46875 -1.4375l-7.171875 0l0 7.0937576l1.0625 0q0.34375 -0.515625 0.734375 -0.828125q0.390625 -0.328125 0.84375 -0.46875q0.46875 -0.15625 1.046875 -0.15625q0.734375 0 1.296875 0.3125q0.578125 0.3125 0.890625 0.984375q0.3125 0.671875 0.3125 1.765625q0 1.1875 -0.359375 1.953125q-0.34375 0.765625 -1.0 1.140625q-0.640625 0.375 -1.53125 0.375q-1.03125 0 -1.6875 -0.359375q-0.65625 -0.359375 -1.046875 -0.890625q-0.390625 -0.546875 -0.65625 -1.09375l-1.03125 0.71875q0.359375 0.765625 0.921875 1.390625q0.5625 0.625 1.40625 0.984375q0.84375 0.359375 2.078125 0.359375zm10.744385 -1.171875q-1.0 0 -1.8125 -0.40625q-0.8125 -0.40625 -1.40625 -1.203125q-0.578125 -0.796875 -0.90625 -1.953125q-0.3125 -1.15625 -0.3125 -2.609375q0 -1.46875 0.3125 -2.609375q0.328125 -1.15625 0.90625 -1.9531326q0.59375 -0.8125 1.40625 -1.203125q0.8125 -0.40625 1.8125 -0.40625q1.015625 0 1.828125 0.40625q0.828125 0.390625 1.40625 1.203125q0.59375 0.7968826 0.890625 1.9531326q0.3125 1.140625 0.3125 2.609375q0 1.453125 -0.3125 2.609375q-0.296875 1.15625 -0.890625 1.953125q-0.578125 0.796875 -1.40625 1.203125q-0.8125 0.40625 -1.828125 0.40625zm0 -1.09375q0.6875 0 1.1875 -0.3125q0.5 -0.328125 0.828125 -0.96875q0.328125 -0.640625 0.484375 -1.59375q0.15625 -0.953125 0.15625 -2.203125q0 -1.265625 -0.15625 -2.21875q-0.15625 -0.953125 -0.484375 -1.59375q-0.328125 -0.6406326 -0.828125 -0.9531326q-0.5 -0.328125 -1.1875 -0.328125q-0.6875 0 -1.1875 0.328125q-0.484375 0.3125 -0.8125 0.9531326q-0.328125 0.640625 -0.484375 1.59375q-0.15625 0.953125 -0.15625 2.21875q0 1.25 0.15625 2.203125q0.15625 0.953125 0.484375 1.59375q0.328125 0.640625 0.8125 0.96875q0.5 0.3125 1.1875 0.3125zm10.44751 1.09375q-1.0 0 -1.8125 -0.40625q-0.8125 -0.40625 -1.40625 -1.203125q-0.578125 -0.796875 -0.90625 -1.953125q-0.3125 -1.15625 -0.3125 -2.609375q0 -1.46875 0.3125 -2.609375q0.328125 -1.15625 0.90625 -1.9531326q0.59375 -0.8125 1.40625 -1.203125q0.8125 -0.40625 1.8125 -0.40625q1.015625 0 1.828125 0.40625q0.828125 0.390625 1.40625 1.203125q0.59375 0.7968826 0.890625 1.9531326q0.3125 1.140625 0.3125 2.609375q0 1.453125 -0.3125 2.609375q-0.296875 1.15625 -0.890625 1.953125q-0.578125 0.796875 -1.40625 1.203125q-0.8125 0.40625 -1.828125 0.40625zm0 -1.09375q0.6875 0 1.1875 -0.3125q0.5 -0.328125 0.828125 -0.96875q0.328125 -0.640625 0.484375 -1.59375q0.15625 -0.953125 0.15625 -2.203125q0 -1.265625 -0.15625 -2.21875q-0.15625 -0.953125 -0.484375 -1.59375q-0.328125 -0.6406326 -0.828125 -0.9531326q-0.5 -0.328125 -1.1875 -0.328125q-0.6875 0 -1.1875 0.328125q-0.484375 0.3125 -0.8125 0.9531326q-0.328125 0.640625 -0.484375 1.59375q-0.15625 0.953125 -0.15625 2.21875q0 1.25 0.15625 2.203125q0.15625 0.953125 0.484375 1.59375q0.328125 0.640625 0.8125 0.96875q0.5 0.3125 1.1875 0.3125z" fill-rule="nonzero"/><path fill="#000000" d="m234.24332 136.29109q0 0.265625 0.265625 0.421875q0.265625 0.140625 0.75 0.203125q0.484375 0.046875 1.125 0.046875l0.765625 0l0 0.96875l-7.609375 0l0 -0.96875l1.03125 0q0.609375 0 1.046875 -0.046875q0.4375 -0.0625 0.671875 -0.203125q0.234375 -0.15625 0.234375 -0.421875l0 -8.953133l0.296875 -0.234375q-0.125 0.4375 -0.453125 0.765625q-0.328125 0.31250763 -0.828125 0.5312576q-0.484375 0.21875 -1.078125 0.328125q-0.59375 0.09375 -1.25 0.09375l0 -1.2031326q0.703125 -0.015625 1.3125 -0.109375q0.609375 -0.09375 1.09375 -0.28125q0.484375 -0.1875 0.859375 -0.484375q0.375 -0.3125 0.609375 -0.71875l1.15625 0l0 10.265633zm9.119385 1.84375q-1.0 0 -1.8125 -0.40625q-0.8125 -0.40625 -1.40625 -1.203125q-0.578125 -0.796875 -0.90625 -1.953125q-0.3125 -1.15625 -0.3125 -2.609375q0 -1.46875 0.3125 -2.609375q0.328125 -1.15625 0.90625 -1.9531326q0.59375 -0.8125 1.40625 -1.203125q0.8125 -0.40625 1.8125 -0.40625q1.015625 0 1.828125 0.40625q0.828125 0.390625 1.40625 1.203125q0.59375 0.7968826 0.890625 1.9531326q0.3125 1.140625 0.3125 2.609375q0 1.453125 -0.3125 2.609375q-0.296875 1.15625 -0.890625 1.953125q-0.578125 0.796875 -1.40625 1.203125q-0.8125 0.40625 -1.828125 0.40625zm0 -1.09375q0.6875 0 1.1875 -0.3125q0.5 -0.328125 0.828125 -0.96875q0.328125 -0.640625 0.484375 -1.59375q0.15625 -0.953125 0.15625 -2.203125q0 -1.265625 -0.15625 -2.21875q-0.15625 -0.953125 -0.484375 -1.59375q-0.328125 -0.6406326 -0.828125 -0.9531326q-0.5 -0.328125 -1.1875 -0.328125q-0.6875 0 -1.1875 0.328125q-0.484375 0.3125 -0.8125 0.9531326q-0.328125 0.640625 -0.484375 1.59375q-0.15625 0.953125 -0.15625 2.21875q0 1.25 0.15625 2.203125q0.15625 0.953125 0.484375 1.59375q0.328125 0.640625 0.8125 0.96875q0.5 0.3125 1.1875 0.3125zm8.91626 -6.0625q-0.859375 0 -1.515625 -0.40625q-0.65625 -0.40625 -1.03125 -1.15625q-0.359375 -0.75 -0.359375 -1.8125076q0 -1.078125 0.359375 -1.828125q0.375 -0.75 1.03125 -1.15625q0.65625 -0.40625 1.515625 -0.40625q0.859375 0 1.515625 0.40625q0.671875 0.40625 1.03125 1.15625q0.375 0.75 0.375 1.828125q0 1.0625076 -0.375 1.8125076q-0.359375 0.75 -1.03125 1.15625q-0.65625 0.40625 -1.515625 0.40625zm0 -0.90625q0.484375 0 0.796875 -0.265625q0.3125 -0.265625 0.453125 -0.8125q0.15625 -0.5625 0.15625 -1.3906326q0 -0.828125 -0.15625 -1.375q-0.140625 -0.546875 -0.453125 -0.828125q-0.3125 -0.28125 -0.796875 -0.28125q-0.484375 0 -0.796875 0.28125q-0.296875 0.28125 -0.453125 0.828125q-0.140625 0.546875 -0.140625 1.375q0 0.8281326 0.140625 1.3906326q0.15625 0.546875 0.453125 0.8125q0.3125 0.265625 0.796875 0.265625zm7.15625 8.109375q-0.859375 0 -1.53125 -0.40625q-0.65625 -0.421875 -1.03125 -1.171875q-0.359375 -0.765625 -0.359375 -1.8125q0 -1.0625 0.359375 -1.8125q0.375 -0.75 1.03125 -1.15625q0.671875 -0.421875 1.53125 -0.421875q0.859375 0 1.515625 0.421875q0.65625 0.40625 1.015625 1.15625q0.375 0.75 0.375 1.8125q0 1.046875 -0.375 1.8125q-0.359375 0.75 -1.015625 1.171875q-0.65625 0.40625 -1.515625 0.40625zm-9.765625 -0.25l11.03125 -13.250008l1.359375 0l-11.03125 13.250008l-1.359375 0zm9.765625 -0.671875q0.484375 0 0.78125 -0.265625q0.3125 -0.28125 0.453125 -0.828125q0.15625 -0.546875 0.15625 -1.375q0 -0.828125 -0.15625 -1.375q-0.140625 -0.5625 -0.453125 -0.828125q-0.296875 -0.265625 -0.78125 -0.265625q-0.484375 0 -0.796875 0.265625q-0.3125 0.265625 -0.46875 0.828125q-0.140625 0.546875 -0.140625 1.375q0 0.828125 0.140625 1.375q0.15625 0.546875 0.46875 0.828125q0.3125 0.265625 0.796875 0.265625z" fill-rule="nonzero"/><path fill="#000000" d="m285.87802 130.71297l7.515625 0l0 1.09375l-7.515625 0l0 -1.09375zm0 2.703125l7.515625 0l0 1.09375l-7.515625 0l0 -1.09375z" fill-rule="nonzero"/><path fill="#000000" d="m20.24582 175.047l0 -0.515625l0.03125 0q0.265625 0 0.46875 -0.046875q0.203125 -0.046875 0.3125 -0.171875q0.109375 -0.140625 0.109375 -0.375l0 -3.5625q0 -0.15625 -0.09375 -0.234375q-0.09375 -0.078125 -0.28125 -0.125q-0.171875 -0.0625 -0.453125 -0.109375l-0.09375 -0.03125l0 -0.546875l1.703125 0l0.125 1.21875l0.046875 0.046875l0 3.828125q0 0.03125 0.125 0.0625q0.125 0.03125 0.296875 0.046875q0.1875 0 0.34375 0l0.046875 0l0 0.515625l-2.6875 0zm6.453125 0l-2.6875 0l0 -0.515625l0.03125 0q0.15625 0 0.328125 0q0.1875 -0.015625 0.3125 -0.046875q0.140625 -0.03125 0.140625 -0.0625l0 -3.484375q0 -0.34375 -0.09375 -0.5625q-0.09375 -0.234375 -0.296875 -0.34375q-0.203125 -0.109375 -0.53125 -0.109375q-0.359375 0 -0.703125 0.140625q-0.328125 0.140625 -0.640625 0.421875q-0.3125 0.265625 -0.640625 0.703125l0 -0.578125q0.3125 -0.453125 0.65625 -0.765625q0.34375 -0.3125 0.734375 -0.46875q0.390625 -0.15625 0.828125 -0.15625q0.53125 0 0.875 0.171875q0.359375 0.171875 0.5625 0.53125q0.203125 0.359375 0.203125 0.90625l0 3.109375q0 0.234375 0.09375 0.375q0.109375 0.125 0.3125 0.171875q0.203125 0.046875 0.484375 0.046875l0.03125 0l0 0.515625zm1.771164 -2.796875q0 0.609375 0.140625 1.046875q0.140625 0.4375 0.40625 0.703125q0.265625 0.265625 0.609375 0.40625q0.359375 0.125 0.765625 0.125q0.4375 0 0.765625 -0.15625q0.328125 -0.171875 0.5625 -0.40625q0.25 -0.25 0.421875 -0.53125l0.515625 0.421875q-0.203125 0.359375 -0.53125 0.671875q-0.328125 0.296875 -0.78125 0.46875q-0.4375 0.171875 -0.984375 0.171875q-0.8125 0 -1.46875 -0.34375q-0.640625 -0.34375 -1.015625 -1.0q-0.375 -0.671875 -0.375 -1.59375q0 -0.90625 0.34375 -1.578125q0.34375 -0.6875 0.9375 -1.0625q0.609375 -0.375 1.390625 -0.375q0.625 0 1.078125 0.203125q0.46875 0.203125 0.765625 0.609375q0.3125 0.40625 0.46875 1.015625q0.171875 0.59375 0.171875 1.40625l-4.421875 0l0 -0.609375l3.71875 0l-0.28125 0.234375q-0.015625 -0.609375 -0.109375 -1.03125q-0.09375 -0.421875 -0.265625 -0.671875q-0.171875 -0.265625 -0.453125 -0.375q-0.28125 -0.125 -0.671875 -0.125q-0.375 0 -0.6875 0.140625q-0.3125 0.140625 -0.546875 0.4375q-0.234375 0.296875 -0.359375 0.75q-0.109375 0.4375 -0.109375 1.046875zm11.031387 2.796875l-2.640625 0l0 -0.5625l0.015625 0q0.21875 0 0.421875 0q0.203125 -0.015625 0.328125 -0.03125q0.140625 -0.03125 0.140625 -0.0625l-1.6875 -2.0l-0.0625 -0.015625l-1.8125 -2.171875q-0.09375 -0.109375 -0.203125 -0.171875q-0.09375 -0.078125 -0.234375 -0.109375q-0.140625 -0.03125 -0.359375 -0.03125l-0.03125 0l0 -0.5625l2.609375 0l0 0.5625l-0.015625 0q-0.203125 0 -0.40625 0.015625q-0.203125 0 -0.34375 0.015625q-0.125 0.015625 -0.125 0.046875l1.59375 1.921875l0.078125 0.03125l1.859375 2.203125q0.109375 0.125 0.21875 0.203125q0.109375 0.078125 0.25 0.125q0.140625 0.03125 0.375 0.03125l0.03125 0l0 0.5625zm-6.265625 0l0 -0.5625l0.03125 0q0.296875 0 0.484375 -0.09375q0.203125 -0.09375 0.390625 -0.328125l1.71875 -2.03125l0.484375 0.359375l-1.546875 1.859375q0 0.0625 0.125 0.125q0.140625 0.046875 0.34375 0.078125q0.203125 0.03125 0.421875 0.03125l0.03125 0l0 0.5625l-2.484375 0zm3.578125 -2.828125l-0.46875 -0.390625l1.484375 -1.71875q0 -0.0625 -0.125 -0.109375q-0.125 -0.0625 -0.328125 -0.078125q-0.1875 -0.03125 -0.40625 -0.03125l-0.046875 0l0 -0.5625l2.4375 0l0 0.5625l-0.03125 0q-0.171875 0 -0.3125 0.03125q-0.140625 0.03125 -0.265625 0.125q-0.125 0.09375 -0.265625 0.25l-1.671875 1.921875zm3.328888 -2.25l0 -0.59375l0.109375 0q0.359375 0 0.609375 -0.046875q0.25 -0.046875 0.359375 -0.1875q0.125 -0.15625 0.125 -0.453125l0.703125 0.640625l2.03125 0l0 0.640625l-3.9375 0zm2.078125 3.34375q0 0.4375 0.125 0.703125q0.140625 0.25 0.375 0.359375q0.25 0.109375 0.59375 0.109375q0.28125 0 0.515625 -0.03125q0.234375 -0.046875 0.3125 -0.0625l0 0.640625q-0.109375 0.03125 -0.265625 0.0625q-0.15625 0.03125 -0.328125 0.046875q-0.171875 0.03125 -0.359375 0.03125q-0.5 0 -0.9375 -0.15625q-0.4375 -0.15625 -0.703125 -0.546875q-0.265625 -0.40625 -0.265625 -1.140625l0 -3.84375l0.0625 -0.078125l0 -1.71875l0.875 0l0 5.625z" fill-rule="nonzero"/><path fill="#000000" d="m19.33522 187.33136q0.46875 0 0.796875 -0.15625q0.34375 -0.171875 0.578125 -0.421875q0.25 -0.25 0.421875 -0.53125l0.5 0.421875q-0.203125 0.375 -0.546875 0.6875q-0.328125 0.296875 -0.78125 0.46875q-0.4375 0.171875 -0.984375 0.171875q-0.90625 0 -1.5625 -0.375q-0.65625 -0.375 -1.015625 -1.03125q-0.34375 -0.671875 -0.34375 -1.578125q0 -0.90625 0.359375 -1.578125q0.359375 -0.671875 1.015625 -1.03125q0.671875 -0.359375 1.59375 -0.359375q0.546875 0 0.96875 0.09375q0.4375 0.09375 0.71875 0.21875q0.296875 0.125 0.421875 0.21875l0 1.625l-0.953125 0l0 -1.375q0.09375 0 0.1875 0.046875q0.109375 0.03125 0.171875 0.09375q0.0625 0.0625 0.09375 0.140625q0.03125 0.078125 0.03125 0.15625q-0.234375 -0.234375 -0.671875 -0.390625q-0.4375 -0.171875 -0.96875 -0.171875q-0.671875 0 -1.109375 0.265625q-0.4375 0.265625 -0.65625 0.796875q-0.203125 0.515625 -0.203125 1.25q0 0.5625 0.109375 1.0q0.125 0.4375 0.359375 0.734375q0.25 0.296875 0.609375 0.453125q0.359375 0.15625 0.859375 0.15625zm6.488266 0.046875l-0.109375 0.390625l-0.53125 0.328125l-2.0625 -5.0625q-0.0625 -0.140625 -0.1875 -0.21875q-0.109375 -0.078125 -0.28125 -0.09375q-0.15625 -0.03125 -0.375 -0.03125l-0.0625 0l0 -0.5625l2.71875 0l0 0.5625l-0.046875 0q-0.21875 0 -0.421875 0.015625q-0.203125 0 -0.34375 0.015625q-0.125 0.015625 -0.125 0.046875l1.828125 4.609375zm0.15625 0.28125q-0.296875 0.734375 -0.59375 1.234375q-0.28125 0.515625 -0.59375 0.828125q-0.296875 0.3125 -0.65625 0.453125q-0.34375 0.140625 -0.796875 0.140625q-0.28125 0 -0.515625 -0.0625q-0.21875 -0.046875 -0.328125 -0.125l0 -0.859375q0.03125 0.015625 0.140625 0.0625q0.125 0.046875 0.3125 0.09375q0.1875 0.046875 0.421875 0.046875q0.265625 0 0.515625 -0.078125q0.25 -0.078125 0.5 -0.3125q0.25 -0.21875 0.5 -0.65625q0.25 -0.4375 0.515625 -1.15625l0.09375 -0.171875l1.671875 -4.1875q0 -0.078125 -0.125 -0.125q-0.125 -0.046875 -0.328125 -0.0625q-0.203125 -0.03125 -0.421875 -0.03125l-0.046875 0l0 -0.5625l2.5 0l0 0.5625l-0.0625 0q-0.1875 0 -0.359375 0.046875q-0.15625 0.03125 -0.296875 0.140625q-0.125 0.09375 -0.203125 0.3125l-1.84375 4.46875zm6.1642914 -0.328125q0.46875 0 0.796875 -0.15625q0.34375 -0.171875 0.578125 -0.421875q0.25 -0.25 0.421875 -0.53125l0.5 0.421875q-0.203125 0.375 -0.546875 0.6875q-0.328125 0.296875 -0.78125 0.46875q-0.4375 0.171875 -0.984375 0.171875q-0.90625 0 -1.5625 -0.375q-0.65625 -0.375 -1.015625 -1.03125q-0.34375 -0.671875 -0.34375 -1.578125q0 -0.90625 0.359375 -1.578125q0.359375 -0.671875 1.015625 -1.03125q0.671875 -0.359375 1.59375 -0.359375q0.546875 0 0.96875 0.09375q0.4375 0.09375 0.71875 0.21875q0.296875 0.125 0.421875 0.21875l0 1.625l-0.953125 0l0 -1.375q0.09375 0 0.1875 0.046875q0.109375 0.03125 0.171875 0.09375q0.0625 0.0625 0.09375 0.140625q0.03125 0.078125 0.03125 0.15625q-0.234375 -0.234375 -0.671875 -0.390625q-0.4375 -0.171875 -0.96875 -0.171875q-0.671875 0 -1.109375 0.265625q-0.4375 0.265625 -0.65625 0.796875q-0.203125 0.515625 -0.203125 1.25q0 0.5625 0.109375 1.0q0.125 0.4375 0.359375 0.734375q0.25 0.296875 0.609375 0.453125q0.359375 0.15625 0.859375 0.15625zm5.0286865 -7.5625l0 7.015625q0 0.34375 0.234375 0.453125q0.25 0.09375 0.671875 0.09375l0.03125 0l0 0.515625l-2.8125 0l0 -0.515625l0.046875 0q0.40625 0 0.640625 -0.09375q0.25 -0.109375 0.25 -0.453125l0 -5.953125q0 -0.171875 -0.09375 -0.25q-0.09375 -0.078125 -0.28125 -0.125q-0.171875 -0.0625 -0.453125 -0.109375l-0.109375 -0.015625l0 -0.5625l1.875 0zm2.6998444 5.28125q0 0.609375 0.140625 1.046875q0.140625 0.4375 0.40625 0.703125q0.265625 0.265625 0.609375 0.40625q0.359375 0.125 0.765625 0.125q0.4375 0 0.765625 -0.15625q0.328125 -0.171875 0.5625 -0.40625q0.25 -0.25 0.421875 -0.53125l0.515625 0.421875q-0.203125 0.359375 -0.53125 0.671875q-0.328125 0.296875 -0.78125 0.46875q-0.4375 0.171875 -0.984375 0.171875q-0.8125 0 -1.46875 -0.34375q-0.640625 -0.34375 -1.015625 -1.0q-0.375 -0.671875 -0.375 -1.59375q0 -0.90625 0.34375 -1.578125q0.34375 -0.6875 0.9375 -1.0625q0.609375 -0.375 1.390625 -0.375q0.625 0 1.078125 0.203125q0.46875 0.203125 0.765625 0.609375q0.3125 0.40625 0.46875 1.015625q0.171875 0.59375 0.171875 1.40625l-4.421875 0l0 -0.609375l3.71875 0l-0.28125 0.234375q-0.015625 -0.609375 -0.109375 -1.03125q-0.09375 -0.421875 -0.265625 -0.671875q-0.171875 -0.265625 -0.453125 -0.375q-0.28125 -0.125 -0.671875 -0.125q-0.375 0 -0.6875 0.140625q-0.3125 0.140625 -0.546875 0.4375q-0.234375 0.296875 -0.359375 0.75q-0.109375 0.4375 -0.109375 1.046875z" fill-rule="nonzero"/><path fill="#000000" d="m91.94048 181.38324l-4.4375 0q-0.078125 0.0625 -0.078125 0.15625q0 0.09375 0.03125 0.171875q0.046875 0.078125 0.125 0.078125q1.0625 -0.71875 2.125 -1.453125q1.0625 -0.75 2.015625 -1.5q0.96875 -0.75 1.703125 -1.546875q0.734375 -0.8125 1.171875 -1.640625q0.453125 -0.828125 0.453125 -1.703125q0 -1.140625 -0.46875 -1.875q-0.46875 -0.75 -1.34375 -1.109375q-0.875 -0.375 -2.15625 -0.375q-0.90625 0 -1.6875 0.265625q-0.765625 0.25 -1.328125 0.625q-0.5625 0.375 -0.84375 0.734375l0 2.21875l1.6875 0l0 -2.359375q-0.09375 -0.046875 -0.234375 0.015625q-0.125 0.0625 -0.25 0.21875q-0.125 0.140625 -0.234375 0.34375q-0.09375 0.1875 -0.109375 0.421875q0.296875 -0.40625 0.71875 -0.703125q0.4375 -0.3125 1.0 -0.5q0.578125 -0.1875 1.234375 -0.1875q0.703125 0 1.203125 0.203125q0.515625 0.203125 0.78125 0.6875q0.265625 0.46875 0.265625 1.328125q0 0.8125 -0.3125 1.515625q-0.296875 0.703125 -0.875 1.359375q-0.5625 0.65625 -1.34375 1.3125q-0.78125 0.640625 -1.734375 1.34375q-0.953125 0.703125 -2.03125 1.53125l0 1.765625l8.46875 0l0 -3.78125l-1.140625 0l-0.171875 1.671875q-0.03125 0.3125 -0.265625 0.484375q-0.21875 0.171875 -0.703125 0.234375q-0.46875 0.046875 -1.234375 0.046875zm9.47876 2.71875q1.40625 0 2.4375 -0.546875q1.046875 -0.53125 1.640625 -1.546875q0.59375 -1.03125 0.59375 -2.484375q0 -1.234375 -0.46875 -2.171875q-0.46875 -0.9375 -1.375 -1.46875q-0.890625 -0.546875 -2.109375 -0.546875q-0.734375 0 -1.328125 0.21875q-0.59375 0.21875 -1.078125 0.65625q-0.46875 0.4375 -0.8125 1.0625q0.015625 0.15625 0.109375 0.171875q0.09375 0 0.1875 -0.0625q0.09375 -0.0625 0.109375 -0.140625l0 -6.046875l-0.484375 1.0625l6.0 0l0.46875 -1.4375l-7.171875 0l0 7.09375l1.0625 0q0.34375 -0.515625 0.734375 -0.828125q0.390625 -0.328125 0.84375 -0.46875q0.46875 -0.15625 1.046875 -0.15625q0.734375 0 1.296875 0.3125q0.578125 0.3125 0.890625 0.984375q0.3125 0.671875 0.3125 1.765625q0 1.1875 -0.359375 1.953125q-0.34375 0.765625 -1.0 1.140625q-0.640625 0.375 -1.53125 0.375q-1.03125 0 -1.6875 -0.359375q-0.65625 -0.359375 -1.046875 -0.890625q-0.390625 -0.546875 -0.65625 -1.09375l-1.03125 0.71875q0.359375 0.765625 0.921875 1.390625q0.5625 0.625 1.40625 0.984375q0.84375 0.359375 2.078125 0.359375zm10.744385 -1.171875q-1.0 0 -1.8125 -0.40625q-0.8125 -0.40625 -1.40625 -1.203125q-0.578125 -0.796875 -0.90625 -1.953125q-0.3125 -1.15625 -0.3125 -2.609375q0 -1.46875 0.3125 -2.609375q0.328125 -1.15625 0.90625 -1.953125q0.59375 -0.8125 1.40625 -1.203125q0.8125 -0.40625 1.8125 -0.40625q1.015625 0 1.828125 0.40625q0.828125 0.390625 1.40625 1.203125q0.59375 0.796875 0.890625 1.953125q0.3125 1.140625 0.3125 2.609375q0 1.453125 -0.3125 2.609375q-0.296875 1.15625 -0.890625 1.953125q-0.578125 0.796875 -1.40625 1.203125q-0.8125 0.40625 -1.828125 0.40625zm0 -1.09375q0.6875 0 1.1875 -0.3125q0.5 -0.328125 0.828125 -0.96875q0.328125 -0.640625 0.484375 -1.59375q0.15625 -0.953125 0.15625 -2.203125q0 -1.265625 -0.15625 -2.21875q-0.15625 -0.953125 -0.484375 -1.59375q-0.328125 -0.640625 -0.828125 -0.953125q-0.5 -0.328125 -1.1875 -0.328125q-0.6875 0 -1.1875 0.328125q-0.484375 0.3125 -0.8125 0.953125q-0.328125 0.640625 -0.484375 1.59375q-0.15625 0.953125 -0.15625 2.21875q0 1.25 0.15625 2.203125q0.15625 0.953125 0.484375 1.59375q0.328125 0.640625 0.8125 0.96875q0.5 0.3125 1.1875 0.3125z" fill-rule="nonzero"/><path fill="#000000" d="m148.61299 181.38324l-4.4375 0q-0.078125 0.0625 -0.078125 0.15625q0 0.09375 0.03125 0.171875q0.046875 0.078125 0.125 0.078125q1.0625 -0.71875 2.125 -1.453125q1.0625 -0.75 2.015625 -1.5q0.96875 -0.75 1.703125 -1.546875q0.734375 -0.8125 1.171875 -1.640625q0.453125 -0.828125 0.453125 -1.703125q0 -1.140625 -0.46875 -1.875q-0.46875 -0.75 -1.34375 -1.109375q-0.875 -0.375 -2.15625 -0.375q-0.90625 0 -1.6875 0.265625q-0.765625 0.25 -1.328125 0.625q-0.5625 0.375 -0.84375 0.734375l0 2.21875l1.6875 0l0 -2.359375q-0.09375 -0.046875 -0.234375 0.015625q-0.125 0.0625 -0.25 0.21875q-0.125 0.140625 -0.234375 0.34375q-0.09375 0.1875 -0.109375 0.421875q0.296875 -0.40625 0.71875 -0.703125q0.4375 -0.3125 1.0 -0.5q0.578125 -0.1875 1.234375 -0.1875q0.703125 0 1.203125 0.203125q0.515625 0.203125 0.78125 0.6875q0.265625 0.46875 0.265625 1.328125q0 0.8125 -0.3125 1.515625q-0.296875 0.703125 -0.875 1.359375q-0.5625 0.65625 -1.34375 1.3125q-0.78125 0.640625 -1.734375 1.34375q-0.953125 0.703125 -2.03125 1.53125l0 1.765625l8.46875 0l0 -3.78125l-1.140625 0l-0.171875 1.671875q-0.03125 0.3125 -0.265625 0.484375q-0.21875 0.171875 -0.703125 0.234375q-0.46875 0.046875 -1.234375 0.046875zm6.69751 4.578125l-1.25 -0.828125q0.84375 -0.375 1.40625 -0.78125q0.578125 -0.390625 0.859375 -0.890625q0.296875 -0.484375 0.3125 -1.09375q0.015625 -0.046875 0.046875 -0.09375q0.03125 -0.0625 0.078125 -0.09375q0.046875 -0.03125 0.09375 -0.03125q0.046875 0 0.078125 0.03125q-0.046875 0.21875 -0.1875 0.34375q-0.125 0.109375 -0.3125 0.171875q-0.171875 0.046875 -0.390625 0.046875q-0.625 0 -1.03125 -0.328125q-0.390625 -0.34375 -0.390625 -0.921875q0 -0.578125 0.40625 -0.953125q0.421875 -0.375 1.0625 -0.375q0.46875 0 0.828125 0.203125q0.375 0.1875 0.578125 0.59375q0.203125 0.40625 0.203125 1.03125q0 0.84375 -0.25 1.546875q-0.234375 0.71875 -0.765625 1.296875q-0.53125 0.59375 -1.375 1.125zm8.824249 -3.03125q-1.0 0 -1.8125 -0.40625q-0.8125 -0.40625 -1.40625 -1.203125q-0.578125 -0.796875 -0.90625 -1.953125q-0.3125 -1.15625 -0.3125 -2.609375q0 -1.46875 0.3125 -2.609375q0.328125 -1.15625 0.90625 -1.953125q0.59375 -0.8125 1.40625 -1.203125q0.8125 -0.40625 1.8125 -0.40625q1.015625 0 1.828125 0.40625q0.828125 0.390625 1.40625 1.203125q0.59375 0.796875 0.890625 1.953125q0.3125 1.140625 0.3125 2.609375q0 1.453125 -0.3125 2.609375q-0.296875 1.15625 -0.890625 1.953125q-0.578125 0.796875 -1.40625 1.203125q-0.8125 0.40625 -1.828125 0.40625zm0 -1.09375q0.6875 0 1.1875 -0.3125q0.5 -0.328125 0.828125 -0.96875q0.328125 -0.640625 0.484375 -1.59375q0.15625 -0.953125 0.15625 -2.203125q0 -1.265625 -0.15625 -2.21875q-0.15625 -0.953125 -0.484375 -1.59375q-0.328125 -0.640625 -0.828125 -0.953125q-0.5 -0.328125 -1.1875 -0.328125q-0.6875 0 -1.1875 0.328125q-0.484375 0.3125 -0.8125 0.953125q-0.328125 0.640625 -0.484375 1.59375q-0.15625 0.953125 -0.15625 2.21875q0 1.25 0.15625 2.203125q0.15625 0.953125 0.484375 1.59375q0.328125 0.640625 0.8125 0.96875q0.5 0.3125 1.1875 0.3125zm10.44751 1.09375q-1.0 0 -1.8125 -0.40625q-0.8125 -0.40625 -1.40625 -1.203125q-0.578125 -0.796875 -0.90625 -1.953125q-0.3125 -1.15625 -0.3125 -2.609375q0 -1.46875 0.3125 -2.609375q0.328125 -1.15625 0.90625 -1.953125q0.59375 -0.8125 1.40625 -1.203125q0.8125 -0.40625 1.8125 -0.40625q1.015625 0 1.828125 0.40625q0.828125 0.390625 1.40625 1.203125q0.59375 0.796875 0.890625 1.953125q0.3125 1.140625 0.3125 2.609375q0 1.453125 -0.3125 2.609375q-0.296875 1.15625 -0.890625 1.953125q-0.578125 0.796875 -1.40625 1.203125q-0.8125 0.40625 -1.828125 0.40625zm0 -1.09375q0.6875 0 1.1875 -0.3125q0.5 -0.328125 0.828125 -0.96875q0.328125 -0.640625 0.484375 -1.59375q0.15625 -0.953125 0.15625 -2.203125q0 -1.265625 -0.15625 -2.21875q-0.15625 -0.953125 -0.484375 -1.59375q-0.328125 -0.640625 -0.828125 -0.953125q-0.5 -0.328125 -1.1875 -0.328125q-0.6875 0 -1.1875 0.328125q-0.484375 0.3125 -0.8125 0.953125q-0.328125 0.640625 -0.484375 1.59375q-0.15625 0.953125 -0.15625 2.21875q0 1.25 0.15625 2.203125q0.15625 0.953125 0.484375 1.59375q0.328125 0.640625 0.8125 0.96875q0.5 0.3125 1.1875 0.3125zm10.44751 1.09375q-1.0 0 -1.8125 -0.40625q-0.8125 -0.40625 -1.40625 -1.203125q-0.578125 -0.796875 -0.90625 -1.953125q-0.3125 -1.15625 -0.3125 -2.609375q0 -1.46875 0.3125 -2.609375q0.328125 -1.15625 0.90625 -1.953125q0.59375 -0.8125 1.40625 -1.203125q0.8125 -0.40625 1.8125 -0.40625q1.015625 0 1.828125 0.40625q0.828125 0.390625 1.40625 1.203125q0.59375 0.796875 0.890625 1.953125q0.3125 1.140625 0.3125 2.609375q0 1.453125 -0.3125 2.609375q-0.296875 1.15625 -0.890625 1.953125q-0.578125 0.796875 -1.40625 1.203125q-0.8125 0.40625 -1.828125 0.40625zm0 -1.09375q0.6875 0 1.1875 -0.3125q0.5 -0.328125 0.828125 -0.96875q0.328125 -0.640625 0.484375 -1.59375q0.15625 -0.953125 0.15625 -2.203125q0 -1.265625 -0.15625 -2.21875q-0.15625 -0.953125 -0.484375 -1.59375q-0.328125 -0.640625 -0.828125 -0.953125q-0.5 -0.328125 -1.1875 -0.328125q-0.6875 0 -1.1875 0.328125q-0.484375 0.3125 -0.8125 0.953125q-0.328125 0.640625 -0.484375 1.59375q-0.15625 0.953125 -0.15625 2.21875q0 1.25 0.15625 2.203125q0.15625 0.953125 0.484375 1.59375q0.328125 0.640625 0.8125 0.96875q0.5 0.3125 1.1875 0.3125z" fill-rule="nonzero"/><path fill="#000000" d="m234.24332 181.08636q0 0.265625 0.265625 0.421875q0.265625 0.140625 0.75 0.203125q0.484375 0.046875 1.125 0.046875l0.765625 0l0 0.96875l-7.609375 0l0 -0.96875l1.03125 0q0.609375 0 1.046875 -0.046875q0.4375 -0.0625 0.671875 -0.203125q0.234375 -0.15625 0.234375 -0.421875l0 -8.953125l0.296875 -0.234375q-0.125 0.4375 -0.453125 0.765625q-0.328125 0.3125 -0.828125 0.53125q-0.484375 0.21875 -1.078125 0.328125q-0.59375 0.09375 -1.25 0.09375l0 -1.203125q0.703125 -0.015625 1.3125 -0.109375q0.609375 -0.09375 1.09375 -0.28125q0.484375 -0.1875 0.859375 -0.484375q0.375 -0.3125 0.609375 -0.71875l1.15625 0l0 10.265625zm8.650635 -4.1875l0.8125 0.328125l0 -0.484375l-1.140625 0.34375q1.3125 0 2.375 -0.40625q1.078125 -0.40625 1.71875 -1.171875q0.640625 -0.765625 0.640625 -1.8125q0 -0.96875 -0.5 -1.671875q-0.484375 -0.703125 -1.390625 -1.0625q-0.890625 -0.375 -2.109375 -0.375q-0.953125 0 -1.71875 0.25q-0.75 0.25 -1.28125 0.625q-0.515625 0.359375 -0.796875 0.703125l0 2.03125l1.640625 0l0 -2.125q-0.1875 0.015625 -0.328125 0.109375q-0.140625 0.078125 -0.234375 0.1875q-0.09375 0.109375 -0.15625 0.28125q-0.0625 0.171875 -0.0625 0.359375q0.390625 -0.53125 1.0625 -0.921875q0.6875 -0.40625 1.828125 -0.40625q0.6875 0 1.21875 0.21875q0.53125 0.21875 0.828125 0.703125q0.3125 0.46875 0.3125 1.296875q0 0.90625 -0.375 1.46875q-0.359375 0.5625 -1.03125 0.84375q-0.65625 0.265625 -1.578125 0.265625l-1.3125 0l0 1.125l1.53125 0q1.15625 0 1.84375 0.3125q0.6875 0.296875 1.0 0.890625q0.328125 0.59375 0.328125 1.484375q0 0.96875 -0.34375 1.5625q-0.328125 0.59375 -0.953125 0.875q-0.625 0.265625 -1.5 0.265625q-0.78125 0 -1.375 -0.234375q-0.59375 -0.21875 -1.0 -0.578125q-0.390625 -0.375 -0.65625 -0.828125q-0.25 -0.453125 -0.46875 -0.90625l-1.03125 0.671875q0.34375 0.875 0.9375 1.546875q0.59375 0.671875 1.46875 1.046875q0.890625 0.390625 2.140625 0.390625q1.34375 0 2.359375 -0.453125q1.03125 -0.453125 1.59375 -1.3125q0.578125 -0.859375 0.578125 -2.078125q0 -0.71875 -0.265625 -1.328125q-0.25 -0.625 -0.828125 -1.0625q-0.578125 -0.453125 -1.515625 -0.703125q-0.921875 -0.265625 -2.265625 -0.265625zm9.38501 -1.125q-0.859375 0 -1.515625 -0.40625q-0.65625 -0.40625 -1.03125 -1.15625q-0.359375 -0.75 -0.359375 -1.8125q0 -1.078125 0.359375 -1.828125q0.375 -0.75 1.03125 -1.15625q0.65625 -0.40625 1.515625 -0.40625q0.859375 0 1.515625 0.40625q0.671875 0.40625 1.03125 1.15625q0.375 0.75 0.375 1.828125q0 1.0625 -0.375 1.8125q-0.359375 0.75 -1.03125 1.15625q-0.65625 0.40625 -1.515625 0.40625zm0 -0.90625q0.484375 0 0.796875 -0.265625q0.3125 -0.265625 0.453125 -0.8125q0.15625 -0.5625 0.15625 -1.390625q0 -0.828125 -0.15625 -1.375q-0.140625 -0.546875 -0.453125 -0.828125q-0.3125 -0.28125 -0.796875 -0.28125q-0.484375 0 -0.796875 0.28125q-0.296875 0.28125 -0.453125 0.828125q-0.140625 0.546875 -0.140625 1.375q0 0.828125 0.140625 1.390625q0.15625 0.546875 0.453125 0.8125q0.3125 0.265625 0.796875 0.265625zm7.15625 8.109375q-0.859375 0 -1.53125 -0.40625q-0.65625 -0.421875 -1.03125 -1.171875q-0.359375 -0.765625 -0.359375 -1.8125q0 -1.0625 0.359375 -1.8125q0.375 -0.75 1.03125 -1.15625q0.671875 -0.421875 1.53125 -0.421875q0.859375 0 1.515625 0.421875q0.65625 0.40625 1.015625 1.15625q0.375 0.75 0.375 1.8125q0 1.046875 -0.375 1.8125q-0.359375 0.75 -1.015625 1.171875q-0.65625 0.40625 -1.515625 0.40625zm-9.765625 -0.25l11.03125 -13.25l1.359375 0l-11.03125 13.25l-1.359375 0zm9.765625 -0.671875q0.484375 0 0.78125 -0.265625q0.3125 -0.28125 0.453125 -0.828125q0.15625 -0.546875 0.15625 -1.375q0 -0.828125 -0.15625 -1.375q-0.140625 -0.5625 -0.453125 -0.828125q-0.296875 -0.265625 -0.78125 -0.265625q-0.484375 0 -0.796875 0.265625q-0.3125 0.265625 -0.46875 0.828125q-0.140625 0.546875 -0.140625 1.375q0 0.828125 0.140625 1.375q0.15625 0.546875 0.46875 0.828125q0.3125 0.265625 0.796875 0.265625z" fill-rule="nonzero"/><path fill="#000000" d="m300.2374 182.05511l-16.109375 0l8.09375 -13.578125l8.015625 13.578125zm-8.015625 -10.6875l-5.484375 9.28125l10.90625 0l-5.421875 -9.28125z" fill-rule="nonzero"/><path fill="#000000" d="m20.24582 219.84227l0 -0.515625l0.03125 0q0.265625 0 0.46875 -0.046875q0.203125 -0.046875 0.3125 -0.171875q0.109375 -0.140625 0.109375 -0.375l0 -3.5625q0 -0.15625 -0.09375 -0.234375q-0.09375 -0.078125 -0.28125 -0.125q-0.171875 -0.0625 -0.453125 -0.109375l-0.09375 -0.03125l0 -0.546875l1.703125 0l0.125 1.21875l0.046875 0.046875l0 3.828125q0 0.03125 0.125 0.0625q0.125 0.03125 0.296875 0.046875q0.1875 0 0.34375 0l0.046875 0l0 0.515625l-2.6875 0zm6.453125 0l-2.6875 0l0 -0.515625l0.03125 0q0.15625 0 0.328125 0q0.1875 -0.015625 0.3125 -0.046875q0.140625 -0.03125 0.140625 -0.0625l0 -3.484375q0 -0.34375 -0.09375 -0.5625q-0.09375 -0.234375 -0.296875 -0.34375q-0.203125 -0.109375 -0.53125 -0.109375q-0.359375 0 -0.703125 0.140625q-0.328125 0.140625 -0.640625 0.421875q-0.3125 0.265625 -0.640625 0.703125l0 -0.578125q0.3125 -0.453125 0.65625 -0.765625q0.34375 -0.3125 0.734375 -0.46875q0.390625 -0.15625 0.828125 -0.15625q0.53125 0 0.875 0.171875q0.359375 0.171875 0.5625 0.53125q0.203125 0.359375 0.203125 0.90625l0 3.109375q0 0.234375 0.09375 0.375q0.109375 0.125 0.3125 0.171875q0.203125 0.046875 0.484375 0.046875l0.03125 0l0 0.515625zm1.771164 -2.796875q0 0.609375 0.140625 1.046875q0.140625 0.4375 0.40625 0.703125q0.265625 0.265625 0.609375 0.40625q0.359375 0.125 0.765625 0.125q0.4375 0 0.765625 -0.15625q0.328125 -0.171875 0.5625 -0.40625q0.25 -0.25 0.421875 -0.53125l0.515625 0.421875q-0.203125 0.359375 -0.53125 0.671875q-0.328125 0.296875 -0.78125 0.46875q-0.4375 0.171875 -0.984375 0.171875q-0.8125 0 -1.46875 -0.34375q-0.640625 -0.34375 -1.015625 -1.0q-0.375 -0.671875 -0.375 -1.59375q0 -0.90625 0.34375 -1.578125q0.34375 -0.6875 0.9375 -1.0625q0.609375 -0.375 1.390625 -0.375q0.625 0 1.078125 0.203125q0.46875 0.203125 0.765625 0.609375q0.3125 0.40625 0.46875 1.015625q0.171875 0.59375 0.171875 1.40625l-4.421875 0l0 -0.609375l3.71875 0l-0.28125 0.234375q-0.015625 -0.609375 -0.109375 -1.03125q-0.09375 -0.421875 -0.265625 -0.671875q-0.171875 -0.265625 -0.453125 -0.375q-0.28125 -0.125 -0.671875 -0.125q-0.375 0 -0.6875 0.140625q-0.3125 0.140625 -0.546875 0.4375q-0.234375 0.296875 -0.359375 0.75q-0.109375 0.4375 -0.109375 1.046875zm11.031387 2.796875l-2.640625 0l0 -0.5625l0.015625 0q0.21875 0 0.421875 0q0.203125 -0.015625 0.328125 -0.03125q0.140625 -0.03125 0.140625 -0.0625l-1.6875 -2.0l-0.0625 -0.015625l-1.8125 -2.171875q-0.09375 -0.109375 -0.203125 -0.171875q-0.09375 -0.078125 -0.234375 -0.109375q-0.140625 -0.03125 -0.359375 -0.03125l-0.03125 0l0 -0.5625l2.609375 0l0 0.5625l-0.015625 0q-0.203125 0 -0.40625 0.015625q-0.203125 0 -0.34375 0.015625q-0.125 0.015625 -0.125 0.046875l1.59375 1.921875l0.078125 0.03125l1.859375 2.203125q0.109375 0.125 0.21875 0.203125q0.109375 0.078125 0.25 0.125q0.140625 0.03125 0.375 0.03125l0.03125 0l0 0.5625zm-6.265625 0l0 -0.5625l0.03125 0q0.296875 0 0.484375 -0.09375q0.203125 -0.09375 0.390625 -0.328125l1.71875 -2.03125l0.484375 0.359375l-1.546875 1.859375q0 0.0625 0.125 0.125q0.140625 0.046875 0.34375 0.078125q0.203125 0.03125 0.421875 0.03125l0.03125 0l0 0.5625l-2.484375 0zm3.578125 -2.828125l-0.46875 -0.390625l1.484375 -1.71875q0 -0.0625 -0.125 -0.109375q-0.125 -0.0625 -0.328125 -0.078125q-0.1875 -0.03125 -0.40625 -0.03125l-0.046875 0l0 -0.5625l2.4375 0l0 0.5625l-0.03125 0q-0.171875 0 -0.3125 0.03125q-0.140625 0.03125 -0.265625 0.125q-0.125 0.09375 -0.265625 0.25l-1.671875 1.921875zm3.328888 -2.25l0 -0.59375l0.109375 0q0.359375 0 0.609375 -0.046875q0.25 -0.046875 0.359375 -0.1875q0.125 -0.15625 0.125 -0.453125l0.703125 0.640625l2.03125 0l0 0.640625l-3.9375 0zm2.078125 3.34375q0 0.4375 0.125 0.703125q0.140625 0.25 0.375 0.359375q0.25 0.109375 0.59375 0.109375q0.28125 0 0.515625 -0.03125q0.234375 -0.046875 0.3125 -0.0625l0 0.640625q-0.109375 0.03125 -0.265625 0.0625q-0.15625 0.03125 -0.328125 0.046875q-0.171875 0.03125 -0.359375 0.03125q-0.5 0 -0.9375 -0.15625q-0.4375 -0.15625 -0.703125 -0.546875q-0.265625 -0.40625 -0.265625 -1.140625l0 -3.84375l0.0625 -0.078125l0 -1.71875l0.875 0l0 5.625z" fill-rule="nonzero"/><path fill="#000000" d="m19.33522 232.12665q0.46875 0 0.796875 -0.15625q0.34375 -0.171875 0.578125 -0.421875q0.25 -0.25 0.421875 -0.53125l0.5 0.421875q-0.203125 0.375 -0.546875 0.6875q-0.328125 0.296875 -0.78125 0.46875q-0.4375 0.171875 -0.984375 0.171875q-0.90625 0 -1.5625 -0.375q-0.65625 -0.375 -1.015625 -1.03125q-0.34375 -0.671875 -0.34375 -1.578125q0 -0.90625 0.359375 -1.578125q0.359375 -0.671875 1.015625 -1.03125q0.671875 -0.359375 1.59375 -0.359375q0.546875 0 0.96875 0.09375q0.4375 0.09375 0.71875 0.21875q0.296875 0.125 0.421875 0.21875l0 1.625l-0.953125 0l0 -1.375q0.09375 0 0.1875 0.046875q0.109375 0.03125 0.171875 0.09375q0.0625 0.0625 0.09375 0.140625q0.03125 0.078125 0.03125 0.15625q-0.234375 -0.234375 -0.671875 -0.390625q-0.4375 -0.171875 -0.96875 -0.171875q-0.671875 0 -1.109375 0.265625q-0.4375 0.265625 -0.65625 0.796875q-0.203125 0.515625 -0.203125 1.25q0 0.5625 0.109375 1.0q0.125 0.4375 0.359375 0.734375q0.25 0.296875 0.609375 0.453125q0.359375 0.15625 0.859375 0.15625zm6.488266 0.046875l-0.109375 0.390625l-0.53125 0.328125l-2.0625 -5.0625q-0.0625 -0.140625 -0.1875 -0.21875q-0.109375 -0.078125 -0.28125 -0.09375q-0.15625 -0.03125 -0.375 -0.03125l-0.0625 0l0 -0.5625l2.71875 0l0 0.5625l-0.046875 0q-0.21875 0 -0.421875 0.015625q-0.203125 0 -0.34375 0.015625q-0.125 0.015625 -0.125 0.046875l1.828125 4.609375zm0.15625 0.28125q-0.296875 0.734375 -0.59375 1.234375q-0.28125 0.515625 -0.59375 0.828125q-0.296875 0.3125 -0.65625 0.453125q-0.34375 0.140625 -0.796875 0.140625q-0.28125 0 -0.515625 -0.0625q-0.21875 -0.046875 -0.328125 -0.125l0 -0.859375q0.03125 0.015625 0.140625 0.0625q0.125 0.046875 0.3125 0.09375q0.1875 0.046875 0.421875 0.046875q0.265625 0 0.515625 -0.078125q0.25 -0.078125 0.5 -0.3125q0.25 -0.21875 0.5 -0.65625q0.25 -0.4375 0.515625 -1.15625l0.09375 -0.171875l1.671875 -4.1875q0 -0.078125 -0.125 -0.125q-0.125 -0.046875 -0.328125 -0.0625q-0.203125 -0.03125 -0.421875 -0.03125l-0.046875 0l0 -0.5625l2.5 0l0 0.5625l-0.0625 0q-0.1875 0 -0.359375 0.046875q-0.15625 0.03125 -0.296875 0.140625q-0.125 0.09375 -0.203125 0.3125l-1.84375 4.46875zm6.1642914 -0.328125q0.46875 0 0.796875 -0.15625q0.34375 -0.171875 0.578125 -0.421875q0.25 -0.25 0.421875 -0.53125l0.5 0.421875q-0.203125 0.375 -0.546875 0.6875q-0.328125 0.296875 -0.78125 0.46875q-0.4375 0.171875 -0.984375 0.171875q-0.90625 0 -1.5625 -0.375q-0.65625 -0.375 -1.015625 -1.03125q-0.34375 -0.671875 -0.34375 -1.578125q0 -0.90625 0.359375 -1.578125q0.359375 -0.671875 1.015625 -1.03125q0.671875 -0.359375 1.59375 -0.359375q0.546875 0 0.96875 0.09375q0.4375 0.09375 0.71875 0.21875q0.296875 0.125 0.421875 0.21875l0 1.625l-0.953125 0l0 -1.375q0.09375 0 0.1875 0.046875q0.109375 0.03125 0.171875 0.09375q0.0625 0.0625 0.09375 0.140625q0.03125 0.078125 0.03125 0.15625q-0.234375 -0.234375 -0.671875 -0.390625q-0.4375 -0.171875 -0.96875 -0.171875q-0.671875 0 -1.109375 0.265625q-0.4375 0.265625 -0.65625 0.796875q-0.203125 0.515625 -0.203125 1.25q0 0.5625 0.109375 1.0q0.125 0.4375 0.359375 0.734375q0.25 0.296875 0.609375 0.453125q0.359375 0.15625 0.859375 0.15625zm5.0286865 -7.5625l0 7.015625q0 0.34375 0.234375 0.453125q0.25 0.09375 0.671875 0.09375l0.03125 0l0 0.515625l-2.8125 0l0 -0.515625l0.046875 0q0.40625 0 0.640625 -0.09375q0.25 -0.109375 0.25 -0.453125l0 -5.953125q0 -0.171875 -0.09375 -0.25q-0.09375 -0.078125 -0.28125 -0.125q-0.171875 -0.0625 -0.453125 -0.109375l-0.109375 -0.015625l0 -0.5625l1.875 0zm2.6998444 5.28125q0 0.609375 0.140625 1.046875q0.140625 0.4375 0.40625 0.703125q0.265625 0.265625 0.609375 0.40625q0.359375 0.125 0.765625 0.125q0.4375 0 0.765625 -0.15625q0.328125 -0.171875 0.5625 -0.40625q0.25 -0.25 0.421875 -0.53125l0.515625 0.421875q-0.203125 0.359375 -0.53125 0.671875q-0.328125 0.296875 -0.78125 0.46875q-0.4375 0.171875 -0.984375 0.171875q-0.8125 0 -1.46875 -0.34375q-0.640625 -0.34375 -1.015625 -1.0q-0.375 -0.671875 -0.375 -1.59375q0 -0.90625 0.34375 -1.578125q0.34375 -0.6875 0.9375 -1.0625q0.609375 -0.375 1.390625 -0.375q0.625 0 1.078125 0.203125q0.46875 0.203125 0.765625 0.609375q0.3125 0.40625 0.46875 1.015625q0.171875 0.59375 0.171875 1.40625l-4.421875 0l0 -0.609375l3.71875 0l-0.28125 0.234375q-0.015625 -0.609375 -0.109375 -1.03125q-0.09375 -0.421875 -0.265625 -0.671875q-0.171875 -0.265625 -0.453125 -0.375q-0.28125 -0.125 -0.671875 -0.125q-0.375 0 -0.6875 0.140625q-0.3125 0.140625 -0.546875 0.4375q-0.234375 0.296875 -0.359375 0.75q-0.109375 0.4375 -0.109375 1.046875z" fill-rule="nonzero"/><path fill="#000000" d="m90.79986 221.69414l0.8125 0.328125l0 -0.484375l-1.140625 0.34375q1.3125 0 2.375 -0.40625q1.078125 -0.40625 1.71875 -1.171875q0.640625 -0.765625 0.640625 -1.8125q0 -0.96875 -0.5 -1.671875q-0.484375 -0.703125 -1.390625 -1.0625q-0.890625 -0.375 -2.109375 -0.375q-0.953125 0 -1.71875 0.25q-0.75 0.25 -1.28125 0.625q-0.515625 0.359375 -0.796875 0.703125l0 2.03125l1.640625 0l0 -2.125q-0.1875 0.015625 -0.328125 0.109375q-0.140625 0.078125 -0.234375 0.1875q-0.09375 0.109375 -0.15625 0.28125q-0.0625 0.171875 -0.0625 0.359375q0.390625 -0.53125 1.0625 -0.921875q0.6875 -0.40625 1.828125 -0.40625q0.6875 0 1.21875 0.21875q0.53125 0.21875 0.828125 0.703125q0.3125 0.46875 0.3125 1.296875q0 0.90625 -0.375 1.46875q-0.359375 0.5625 -1.03125 0.84375q-0.65625 0.265625 -1.578125 0.265625l-1.3125 0l0 1.125l1.53125 0q1.15625 0 1.84375 0.3125q0.6875 0.296875 1.0 0.890625q0.328125 0.59375 0.328125 1.484375q0 0.96875 -0.34375 1.5625q-0.328125 0.59375 -0.953125 0.875q-0.625 0.265625 -1.5 0.265625q-0.78125 0 -1.375 -0.234375q-0.59375 -0.21875 -1.0 -0.578125q-0.390625 -0.375 -0.65625 -0.828125q-0.25 -0.453125 -0.46875 -0.90625l-1.03125 0.671875q0.34375 0.875 0.9375 1.546875q0.59375 0.671875 1.46875 1.046875q0.890625 0.390625 2.140625 0.390625q1.34375 0 2.359375 -0.453125q1.03125 -0.453125 1.59375 -1.3125q0.578125 -0.859375 0.578125 -2.078125q0 -0.71875 -0.265625 -1.328125q-0.25 -0.625 -0.828125 -1.0625q-0.578125 -0.453125 -1.515625 -0.703125q-0.921875 -0.265625 -2.265625 -0.265625zm10.619385 7.203125q1.40625 0 2.4375 -0.546875q1.046875 -0.53125 1.640625 -1.546875q0.59375 -1.03125 0.59375 -2.484375q0 -1.234375 -0.46875 -2.171875q-0.46875 -0.9375 -1.375 -1.46875q-0.890625 -0.546875 -2.109375 -0.546875q-0.734375 0 -1.328125 0.21875q-0.59375 0.21875 -1.078125 0.65625q-0.46875 0.4375 -0.8125 1.0625q0.015625 0.15625 0.109375 0.171875q0.09375 0 0.1875 -0.0625q0.09375 -0.0625 0.109375 -0.140625l0 -6.046875l-0.484375 1.0625l6.0 0l0.46875 -1.4375l-7.171875 0l0 7.09375l1.0625 0q0.34375 -0.515625 0.734375 -0.828125q0.390625 -0.328125 0.84375 -0.46875q0.46875 -0.15625 1.046875 -0.15625q0.734375 0 1.296875 0.3125q0.578125 0.3125 0.890625 0.984375q0.3125 0.671875 0.3125 1.765625q0 1.1875 -0.359375 1.953125q-0.34375 0.765625 -1.0 1.140625q-0.640625 0.375 -1.53125 0.375q-1.03125 0 -1.6875 -0.359375q-0.65625 -0.359375 -1.046875 -0.890625q-0.390625 -0.546875 -0.65625 -1.09375l-1.03125 0.71875q0.359375 0.765625 0.921875 1.390625q0.5625 0.625 1.40625 0.984375q0.84375 0.359375 2.078125 0.359375zm10.744385 -1.171875q-1.0 0 -1.8125 -0.40625q-0.8125 -0.40625 -1.40625 -1.203125q-0.578125 -0.796875 -0.90625 -1.953125q-0.3125 -1.15625 -0.3125 -2.609375q0 -1.46875 0.3125 -2.609375q0.328125 -1.15625 0.90625 -1.953125q0.59375 -0.8125 1.40625 -1.203125q0.8125 -0.40625 1.8125 -0.40625q1.015625 0 1.828125 0.40625q0.828125 0.390625 1.40625 1.203125q0.59375 0.796875 0.890625 1.953125q0.3125 1.140625 0.3125 2.609375q0 1.453125 -0.3125 2.609375q-0.296875 1.15625 -0.890625 1.953125q-0.578125 0.796875 -1.40625 1.203125q-0.8125 0.40625 -1.828125 0.40625zm0 -1.09375q0.6875 0 1.1875 -0.3125q0.5 -0.328125 0.828125 -0.96875q0.328125 -0.640625 0.484375 -1.59375q0.15625 -0.953125 0.15625 -2.203125q0 -1.265625 -0.15625 -2.21875q-0.15625 -0.953125 -0.484375 -1.59375q-0.328125 -0.640625 -0.828125 -0.953125q-0.5 -0.328125 -1.1875 -0.328125q-0.6875 0 -1.1875 0.328125q-0.484375 0.3125 -0.8125 0.953125q-0.328125 0.640625 -0.484375 1.59375q-0.15625 0.953125 -0.15625 2.21875q0 1.25 0.15625 2.203125q0.15625 0.953125 0.484375 1.59375q0.328125 0.640625 0.8125 0.96875q0.5 0.3125 1.1875 0.3125z" fill-rule="nonzero"/><path fill="#000000" d="m143.36299 225.11601l0 -1.421875l5.046875 -8.078125l1.296875 0l-0.4375 0.65625l-5.1875 8.296875l-0.1875 -0.703125l9.078125 0l0 1.25l-9.609375 0zm7.421875 3.578125l-1.6875 0l0 -12.6875l0.078125 -0.390625l1.609375 0l0 13.078125zm4.525635 2.0625l-1.25 -0.828125q0.84375 -0.375 1.40625 -0.78125q0.578125 -0.390625 0.859375 -0.890625q0.296875 -0.484375 0.3125 -1.09375q0.015625 -0.046875 0.046875 -0.09375q0.03125 -0.0625 0.078125 -0.09375q0.046875 -0.03125 0.09375 -0.03125q0.046875 0 0.078125 0.03125q-0.046875 0.21875 -0.1875 0.34375q-0.125 0.109375 -0.3125 0.171875q-0.171875 0.046875 -0.390625 0.046875q-0.625 0 -1.03125 -0.328125q-0.390625 -0.34375 -0.390625 -0.921875q0 -0.578125 0.40625 -0.953125q0.421875 -0.375 1.0625 -0.375q0.46875 0 0.828125 0.203125q0.375 0.1875 0.578125 0.59375q0.203125 0.40625 0.203125 1.03125q0 0.84375 -0.25 1.546875q-0.234375 0.71875 -0.765625 1.296875q-0.53125 0.59375 -1.375 1.125zm8.824249 -3.03125q-1.0 0 -1.8125 -0.40625q-0.8125 -0.40625 -1.40625 -1.203125q-0.578125 -0.796875 -0.90625 -1.953125q-0.3125 -1.15625 -0.3125 -2.609375q0 -1.46875 0.3125 -2.609375q0.328125 -1.15625 0.90625 -1.953125q0.59375 -0.8125 1.40625 -1.203125q0.8125 -0.40625 1.8125 -0.40625q1.015625 0 1.828125 0.40625q0.828125 0.390625 1.40625 1.203125q0.59375 0.796875 0.890625 1.953125q0.3125 1.140625 0.3125 2.609375q0 1.453125 -0.3125 2.609375q-0.296875 1.15625 -0.890625 1.953125q-0.578125 0.796875 -1.40625 1.203125q-0.8125 0.40625 -1.828125 0.40625zm0 -1.09375q0.6875 0 1.1875 -0.3125q0.5 -0.328125 0.828125 -0.96875q0.328125 -0.640625 0.484375 -1.59375q0.15625 -0.953125 0.15625 -2.203125q0 -1.265625 -0.15625 -2.21875q-0.15625 -0.953125 -0.484375 -1.59375q-0.328125 -0.640625 -0.828125 -0.953125q-0.5 -0.328125 -1.1875 -0.328125q-0.6875 0 -1.1875 0.328125q-0.484375 0.3125 -0.8125 0.953125q-0.328125 0.640625 -0.484375 1.59375q-0.15625 0.953125 -0.15625 2.21875q0 1.25 0.15625 2.203125q0.15625 0.953125 0.484375 1.59375q0.328125 0.640625 0.8125 0.96875q0.5 0.3125 1.1875 0.3125zm10.44751 1.09375q-1.0 0 -1.8125 -0.40625q-0.8125 -0.40625 -1.40625 -1.203125q-0.578125 -0.796875 -0.90625 -1.953125q-0.3125 -1.15625 -0.3125 -2.609375q0 -1.46875 0.3125 -2.609375q0.328125 -1.15625 0.90625 -1.953125q0.59375 -0.8125 1.40625 -1.203125q0.8125 -0.40625 1.8125 -0.40625q1.015625 0 1.828125 0.40625q0.828125 0.390625 1.40625 1.203125q0.59375 0.796875 0.890625 1.953125q0.3125 1.140625 0.3125 2.609375q0 1.453125 -0.3125 2.609375q-0.296875 1.15625 -0.890625 1.953125q-0.578125 0.796875 -1.40625 1.203125q-0.8125 0.40625 -1.828125 0.40625zm0 -1.09375q0.6875 0 1.1875 -0.3125q0.5 -0.328125 0.828125 -0.96875q0.328125 -0.640625 0.484375 -1.59375q0.15625 -0.953125 0.15625 -2.203125q0 -1.265625 -0.15625 -2.21875q-0.15625 -0.953125 -0.484375 -1.59375q-0.328125 -0.640625 -0.828125 -0.953125q-0.5 -0.328125 -1.1875 -0.328125q-0.6875 0 -1.1875 0.328125q-0.484375 0.3125 -0.8125 0.953125q-0.328125 0.640625 -0.484375 1.59375q-0.15625 0.953125 -0.15625 2.21875q0 1.25 0.15625 2.203125q0.15625 0.953125 0.484375 1.59375q0.328125 0.640625 0.8125 0.96875q0.5 0.3125 1.1875 0.3125zm10.44751 1.09375q-1.0 0 -1.8125 -0.40625q-0.8125 -0.40625 -1.40625 -1.203125q-0.578125 -0.796875 -0.90625 -1.953125q-0.3125 -1.15625 -0.3125 -2.609375q0 -1.46875 0.3125 -2.609375q0.328125 -1.15625 0.90625 -1.953125q0.59375 -0.8125 1.40625 -1.203125q0.8125 -0.40625 1.8125 -0.40625q1.015625 0 1.828125 0.40625q0.828125 0.390625 1.40625 1.203125q0.59375 0.796875 0.890625 1.953125q0.3125 1.140625 0.3125 2.609375q0 1.453125 -0.3125 2.609375q-0.296875 1.15625 -0.890625 1.953125q-0.578125 0.796875 -1.40625 1.203125q-0.8125 0.40625 -1.828125 0.40625zm0 -1.09375q0.6875 0 1.1875 -0.3125q0.5 -0.328125 0.828125 -0.96875q0.328125 -0.640625 0.484375 -1.59375q0.15625 -0.953125 0.15625 -2.203125q0 -1.265625 -0.15625 -2.21875q-0.15625 -0.953125 -0.484375 -1.59375q-0.328125 -0.640625 -0.828125 -0.953125q-0.5 -0.328125 -1.1875 -0.328125q-0.6875 0 -1.1875 0.328125q-0.484375 0.3125 -0.8125 0.953125q-0.328125 0.640625 -0.484375 1.59375q-0.15625 0.953125 -0.15625 2.21875q0 1.25 0.15625 2.203125q0.15625 0.953125 0.484375 1.59375q0.328125 0.640625 0.8125 0.96875q0.5 0.3125 1.1875 0.3125z" fill-rule="nonzero"/><path fill="#000000" d="m239.94083 227.89726l0.15625 1.125q1.875 -0.171875 3.3125 -0.75q1.453125 -0.5625 2.453125 -1.53125q1.0 -0.984375 1.5 -2.390625q0.515625 -1.421875 0.515625 -3.265625q0 -2.015625 -0.578125 -3.265625q-0.578125 -1.265625 -1.609375 -1.84375q-1.03125 -0.59375 -2.421875 -0.59375q-1.296875 0 -2.265625 0.546875q-0.96875 0.546875 -1.5 1.53125q-0.53125 0.984375 -0.53125 2.265625q0 1.25 0.46875 2.1875q0.46875 0.921875 1.328125 1.4375q0.875 0.5 2.015625 0.5q0.96875 0 1.703125 -0.40625q0.734375 -0.421875 1.25 -1.125q0.515625 -0.703125 0.859375 -1.609375l-0.15625 -0.90625q-0.421875 0.96875 -0.90625 1.625q-0.46875 0.640625 -1.078125 0.96875q-0.609375 0.328125 -1.40625 0.328125q-0.859375 0 -1.359375 -0.375q-0.5 -0.390625 -0.71875 -1.0625q-0.21875 -0.6875 -0.21875 -1.5625q0 -0.75 0.15625 -1.34375q0.15625 -0.59375 0.46875 -1.015625q0.328125 -0.421875 0.796875 -0.640625q0.484375 -0.234375 1.125 -0.234375q0.671875 0 1.203125 0.234375q0.53125 0.234375 0.890625 0.765625q0.359375 0.515625 0.546875 1.40625q0.1875 0.875 0.1875 2.1875q0 1.75 -0.390625 2.984375q-0.390625 1.234375 -1.1875 2.046875q-0.796875 0.796875 -1.953125 1.234375q-1.15625 0.421875 -2.65625 0.546875zm12.338135 -7.328125q-0.859375 0 -1.515625 -0.40625q-0.65625 -0.40625 -1.03125 -1.15625q-0.359375 -0.75 -0.359375 -1.8125q0 -1.078125 0.359375 -1.828125q0.375 -0.75 1.03125 -1.15625q0.65625 -0.40625 1.515625 -0.40625q0.859375 0 1.515625 0.40625q0.671875 0.40625 1.03125 1.15625q0.375 0.75 0.375 1.828125q0 1.0625 -0.375 1.8125q-0.359375 0.75 -1.03125 1.15625q-0.65625 0.40625 -1.515625 0.40625zm0 -0.90625q0.484375 0 0.796875 -0.265625q0.3125 -0.265625 0.453125 -0.8125q0.15625 -0.5625 0.15625 -1.390625q0 -0.828125 -0.15625 -1.375q-0.140625 -0.546875 -0.453125 -0.828125q-0.3125 -0.28125 -0.796875 -0.28125q-0.484375 0 -0.796875 0.28125q-0.296875 0.28125 -0.453125 0.828125q-0.140625 0.546875 -0.140625 1.375q0 0.828125 0.140625 1.390625q0.15625 0.546875 0.453125 0.8125q0.3125 0.265625 0.796875 0.265625zm7.15625 8.109375q-0.859375 0 -1.53125 -0.40625q-0.65625 -0.421875 -1.03125 -1.171875q-0.359375 -0.765625 -0.359375 -1.8125q0 -1.0625 0.359375 -1.8125q0.375 -0.75 1.03125 -1.15625q0.671875 -0.421875 1.53125 -0.421875q0.859375 0 1.515625 0.421875q0.65625 0.40625 1.015625 1.15625q0.375 0.75 0.375 1.8125q0 1.046875 -0.375 1.8125q-0.359375 0.75 -1.015625 1.171875q-0.65625 0.40625 -1.515625 0.40625zm-9.765625 -0.25l11.03125 -13.25l1.359375 0l-11.03125 13.25l-1.359375 0zm9.765625 -0.671875q0.484375 0 0.78125 -0.265625q0.3125 -0.28125 0.453125 -0.828125q0.15625 -0.546875 0.15625 -1.375q0 -0.828125 -0.15625 -1.375q-0.140625 -0.5625 -0.453125 -0.828125q-0.296875 -0.265625 -0.78125 -0.265625q-0.484375 0 -0.796875 0.265625q-0.3125 0.265625 -0.46875 0.828125q-0.140625 0.546875 -0.140625 1.375q0 0.828125 0.140625 1.375q0.15625 0.546875 0.46875 0.828125q0.3125 0.265625 0.796875 0.265625z" fill-rule="nonzero"/><path fill="#000000" d="m292.14365 224.77226l5.5 -9.34375l-10.90625 0l5.40625 9.34375zm8.09375 -10.765625l-8.09375 13.671875l-8.015625 -13.671875l16.109375 0z" fill-rule="nonzero"/></g></svg>