<svg version="1.1" viewBox="0.0 0.0 568.1312335958005 379.12073490813646" fill="none" stroke="none" stroke-linecap="square" stroke-miterlimit="10" xmlns:xlink="http://www.w3.org/1999/xlink" xmlns="http://www.w3.org/2000/svg"><clipPath id="p.0"><path d="m0 0l568.1312 0l0 379.12073l-568.1312 0l0 -379.12073z" clip-rule="nonzero"/></clipPath><g clip-path="url(#p.0)"><path fill="#000000" fill-opacity="0.0" d="m0 0l568.1312 0l0 379.12073l-568.1312 0z" fill-rule="evenodd"/><path fill="#000000" fill-opacity="0.0" d="m0 0l567.0236 0l0 58.17323l-567.0236 0z" fill-rule="evenodd"/><path fill="#000000" d="m252.57698 19.141876l0 17.859375q0 0.25 0.25 0.40625q0.265625 0.140625 0.65625 0.21875q0.40625 0.078125 0.90625 0.09375q0.5 0.015625 1.015625 0.015625l0.60935974 0l0 1.984375l-10.187485 0l0 -1.984375l0.359375 0q1.046875 0 1.75 -0.21875q0.71875 -0.234375 0.71875 -0.9375l0 -16.4375q0 -0.703125 -0.71875 -0.921875q-0.703125 -0.234375 -1.75 -0.234375l-0.359375 0l0 -1.984375l17.67186 0l0 6.40625l-2.25 0l-0.3125 -2.859375q-0.0625 -0.578125 -0.484375 -0.875q-0.40625 -0.3125 -1.234375 -0.421875q-0.8125 -0.109375 -2.0625 -0.109375l-4.5781097 0zm-0.734375 8.265625q1.484375 -0.109375 2.921875 -0.171875q1.4374847 -0.0625 2.8749847 -0.140625q1.4375 -0.078125 2.875 -0.109375l0 2.78125q-1.4375 -0.09375 -2.875 -0.15625q-1.4375 -0.0625 -2.8749847 -0.140625q-1.4375 -0.09375 -2.921875 -0.125l0 -1.9375zm17.737534 9.171875l0 -16.4375q0 -0.703125 -0.6875 -0.921875q-0.6875 -0.234375 -1.78125 -0.234375l-0.484375 0l0 -1.984375l9.890625 0l0 1.984375l-0.484375 0q-1.078125 0 -1.78125 0.234375q-0.703125 0.21875 -0.703125 0.921875l0 16.4375q0 0.703125 0.703125 0.9375q0.703125 0.21875 1.78125 0.21875l0.484375 0l0 1.984375l-9.890625 0l0 -1.984375l0.484375 0q1.09375 0 1.78125 -0.21875q0.6875 -0.234375 0.6875 -0.9375zm14.741272 -6.359375l9.03125 0l0.28125 2.015625l-9.65625 0l0.34375 -2.015625zm4.109375 -11.90625l0.59375 0.703125l-5.90625 18.078125q0 0.15625 0.328125 0.328125q0.34375 0.15625 0.921875 0.234375q0.59375 0.078125 1.296875 0.078125l0.390625 0l0 1.984375l-7.515625 0l0 -1.984375l0.1875 0q0.859375 0 1.421875 -0.3125q0.5625 -0.328125 0.921875 -1.390625l6.328125 -19.1875l4.421875 0l6.484375 19.421875q0.328125 0.921875 0.890625 1.203125q0.5625 0.265625 1.421875 0.265625l0.15625 0l0 1.984375l-9.125 0l0 -1.984375l0.421875 0q0.703125 0 1.296875 -0.03125q0.59375 -0.03125 0.9375 -0.109375q0.359375 -0.078125 0.359375 -0.171875l-6.234375 -19.109375zm20.821045 18.265625l0 -17.46875l-1.53125 0q-1.40625 0 -2.265625 0.15625q-0.84375 0.140625 -1.25 0.484375q-0.390625 0.328125 -0.453125 0.890625l-0.359375 3.75l-2.234375 0l0 -7.390625l20.15625 0l0 7.390625l-2.234375 0l-0.359375 -3.75q-0.03125 -0.5625 -0.453125 -0.890625q-0.40625 -0.34375 -1.25 -0.484375q-0.84375 -0.15625 -2.25 -0.15625l-1.546875 0l0 17.46875q0 0.703125 0.734375 0.9375q0.734375 0.21875 1.796875 0.21875l0.578125 0l0 1.984375l-10.171875 0l0 -1.984375l0.53125 0q1.09375 0 1.828125 -0.21875q0.734375 -0.234375 0.734375 -0.9375z" fill-rule="nonzero"/><path fill="#000000" fill-opacity="0.0" d="m46.153904 73.42257l252.6614 0l0 42.015755l-252.6614 0z" fill-rule="evenodd"/><path fill="#000000" d="m60.70078 98.51444l0 -10.1875l-0.90625 0q-0.8125 0 -1.3125 0.09375q-0.5 0.078125 -0.734375 0.28125q-0.21875 0.1875 -0.265625 0.515625l-0.203125 2.1875l-1.296875 0l0 -4.3125l11.749996 0l0 4.3125l-1.3125 0l-0.203125 -2.1875q-0.015625 -0.328125 -0.265625 -0.515625q-0.234375 -0.203125 -0.734375 -0.28125q-0.484375 -0.09375 -1.3124962 -0.09375l-0.890625 0l0 10.1875q0 0.40625 0.421875 0.546875q0.4375 0.125 1.0468712 0.125l0.328125 0l0 1.15625l-5.921871 0l0 -1.15625l0.3125 0q0.640625 0 1.0625 -0.125q0.4375 -0.140625 0.4375 -0.546875zm12.276272 -12.3125l0 12.96875q0 0.046875 0.203125 0.09375q0.203125 0.03125 0.484375 0.0625q0.28125 0.015625 0.5 0.015625l0.078125 0l0 1.0l-4.921875 0l0 -1.0l0.046875 0q0.4375 0 0.75 -0.078125q0.3125 -0.09375 0.484375 -0.3125q0.171875 -0.234375 0.171875 -0.625l0 -10.203125q0 -0.265625 -0.140625 -0.390625q-0.140625 -0.140625 -0.421875 -0.21875q-0.28125 -0.09375 -0.703125 -0.171875l-0.1875 -0.046875l0 -1.09375l3.65625 0zm7.921875 14.140625l-4.921875 0l0 -1.0l0.046875 0q0.25 0 0.53125 -0.015625q0.28125 -0.03125 0.484375 -0.0625q0.203125 -0.046875 0.203125 -0.09375l0 -5.984375q0 -0.546875 -0.140625 -0.890625q-0.140625 -0.359375 -0.453125 -0.53125q-0.3125 -0.1875 -0.859375 -0.1875q-0.5625 0 -1.109375 0.25q-0.53125 0.234375 -1.046875 0.734375q-0.515625 0.484375 -1.03125 1.234375l0.015625 -1.15625q0.5 -0.796875 1.09375 -1.359375q0.609375 -0.5625 1.296875 -0.859375q0.703125 -0.296875 1.5 -0.296875q0.9375 0 1.59375 0.3125q0.65625 0.3125 1.0 0.96875q0.34375 0.640625 0.34375 1.609375l0 5.3125q0 0.390625 0.15625 0.625q0.171875 0.21875 0.484375 0.3125q0.328125 0.078125 0.75 0.078125l0.0625 0l0 1.0zm8.560791 -10.15625l0 2.203125q-0.125 -0.03125 -0.328125 -0.0625q-0.203125 -0.03125 -0.4375 -0.03125q-0.234375 -0.015625 -0.4375 -0.015625q-0.484375 0 -0.890625 0.09375q-0.390625 0.078125 -0.734375 0.265625q-0.328125 0.171875 -0.625 0.46875q-0.296875 0.28125 -0.609375 0.703125l-0.015625 -0.796875q0.46875 -0.9375 0.9375 -1.578125q0.46875 -0.640625 1.0625 -0.96875q0.59375 -0.34375 1.375 -0.34375q0.21875 0 0.421875 0.015625q0.203125 0.015625 0.28125 0.046875zm-7.359375 10.15625l0 -1.0l0.046875 0q0.640625 0 1.015625 -0.203125q0.390625 -0.21875 0.390625 -0.8125l0 -6.09375q0 -0.265625 -0.140625 -0.390625q-0.140625 -0.140625 -0.4375 -0.21875q-0.28125 -0.09375 -0.71875 -0.15625l-0.15625 -0.046875l0 -1.109375l3.3125 0l0.25 2.640625l0.09375 -0.078125l0 6.109375q0 0.140625 0.234375 0.234375q0.25 0.078125 0.5625 0.109375q0.328125 0.015625 0.609375 0.015625l0.359375 0l0 1.0l-5.421875 0zm10.782318 -4.921875q0 1.046875 0.21875 1.78125q0.21875 0.734375 0.640625 1.1875q0.4375 0.453125 1.015625 0.671875q0.578125 0.21875 1.296875 0.21875q0.734375 0 1.296875 -0.25q0.5625 -0.265625 0.96875 -0.671875q0.421875 -0.421875 0.6875 -0.90625l1.03125 0.78125q-0.375 0.6875 -0.96875 1.21875q-0.578125 0.53125 -1.390625 0.828125q-0.796875 0.28125 -1.796875 0.28125q-1.515625 0 -2.703125 -0.59375q-1.171875 -0.609375 -1.84375 -1.765625q-0.671875 -1.15625 -0.671875 -2.796875q0 -1.59375 0.625 -2.78125q0.625 -1.1875 1.71875 -1.84375q1.09375 -0.65625 2.53125 -0.65625q1.140625 0 1.984375 0.359375q0.859375 0.34375 1.40625 1.0625q0.546875 0.71875 0.828125 1.796875q0.296875 1.0625 0.328125 2.5l-7.734375 0l0 -1.171875l6.03125 0l-0.46875 0.453125q-0.03125 -1.046875 -0.171875 -1.765625q-0.140625 -0.734375 -0.421875 -1.15625q-0.28125 -0.4375 -0.71875 -0.625q-0.421875 -0.203125 -1.03125 -0.203125q-0.625 0 -1.125 0.234375q-0.484375 0.234375 -0.84375 0.734375q-0.34375 0.484375 -0.53125 1.25q-0.1875 0.765625 -0.1875 1.828125zm15.335724 -1.171875l0 1.078125q-1.03125 0.125 -1.78125 0.3125q-0.75 0.1875 -1.25 0.40625q-0.484375 0.21875 -0.765625 0.484375q-0.28125 0.265625 -0.40625 0.59375q-0.109375 0.328125 -0.109375 0.71875q0 0.5 0.1875 0.828125q0.203125 0.328125 0.546875 0.5q0.359375 0.171875 0.84375 0.171875q0.53125 0 0.984375 -0.25q0.453125 -0.265625 0.875 -0.765625q0.421875 -0.5 0.84375 -1.28125l0.0625 1.0625q-0.375 0.78125 -0.875 1.328125q-0.484375 0.53125 -1.109375 0.828125q-0.625 0.28125 -1.40625 0.28125q-0.953125 0 -1.65625 -0.296875q-0.703125 -0.296875 -1.078125 -0.890625q-0.375 -0.59375 -0.375 -1.453125q0 -0.796875 0.359375 -1.375q0.359375 -0.578125 1.125 -1.0q0.765625 -0.4375 1.984375 -0.734375q1.234375 -0.3125 3.0 -0.546875zm0.015625 6.09375l-0.234375 -2.125l-0.109375 -0.0625l0 -5.0625q0 -0.625 -0.171875 -1.0q-0.15625 -0.375 -0.5625 -0.546875q-0.40625 -0.171875 -1.109375 -0.171875q-1.03125 0 -1.6875 0.296875q-0.65625 0.28125 -0.984375 0.609375q-0.03125 -0.140625 0.015625 -0.28125q0.046875 -0.15625 0.15625 -0.296875q0.125 -0.140625 0.3125 -0.25q0.1875 -0.109375 0.453125 -0.125l0 2.171875l-1.984375 0l0 -2.3125q0.265625 -0.203125 0.796875 -0.4375q0.53125 -0.25 1.296875 -0.4375q0.78125 -0.1875 1.78125 -0.1875q0.859375 0 1.546875 0.15625q0.703125 0.15625 1.21875 0.515625q0.53125 0.34375 0.8125 0.90625q0.28125 0.5625 0.28125 1.359375l0 5.46875q0 0.25 0.15625 0.375q0.171875 0.125 0.46875 0.203125q0.3125 0.0625 0.734375 0.109375l0.09375 0.046875l0 1.078125l-3.28125 0zm3.6420898 -8.78125l0 -1.15625l0.171875 0q0.578125 0 0.984375 -0.078125q0.40625 -0.078125 0.609375 -0.328125q0.203125 -0.265625 0.203125 -0.75l1.46875 1.0625l3.734375 0l0 1.25l-7.171875 0zm4.0625 5.6875q0 0.75 0.203125 1.171875q0.203125 0.40625 0.59375 0.59375q0.40625 0.171875 0.96875 0.171875q0.46875 0 0.859375 -0.0625q0.40625 -0.0625 0.5625 -0.109375l0 1.265625q-0.203125 0.0625 -0.5 0.125q-0.296875 0.0625 -0.65625 0.09375q-0.34375 0.046875 -0.703125 0.046875q-0.953125 0 -1.765625 -0.265625q-0.8125 -0.265625 -1.296875 -0.96875q-0.46875 -0.703125 -0.46875 -1.984375l0 -6.71875l0.109375 -0.15625l0 -3.0l2.09375 0l0 9.796875zm19.906631 -1.90625q0 1.578125 -0.640625 2.765625q-0.625 1.171875 -1.8125 1.8125q-1.171875 0.640625 -2.75 0.640625q-1.59375 0 -2.765625 -0.640625q-1.15625 -0.640625 -1.796875 -1.8125q-0.640625 -1.1875 -0.640625 -2.765625q0 -1.1875 0.359375 -2.15625q0.359375 -0.984375 1.03125 -1.65625q0.6875 -0.6875 1.640625 -1.046875q0.96875 -0.359375 2.171875 -0.359375q1.1875 0 2.140625 0.359375q0.96875 0.359375 1.640625 1.046875q0.6875 0.671875 1.046875 1.65625q0.375 0.96875 0.375 2.15625zm-8.125 0q0 1.328125 0.328125 2.203125q0.328125 0.875 0.96875 1.3125q0.65625 0.4375 1.625 0.4375q0.984375 0 1.625 -0.421875q0.640625 -0.4375 0.953125 -1.3125q0.328125 -0.890625 0.328125 -2.21875q0 -1.3125 -0.328125 -2.1875q-0.3125 -0.875 -0.953125 -1.3125q-0.640625 -0.453125 -1.625 -0.453125q-0.96875 0 -1.625 0.453125q-0.640625 0.4375 -0.96875 1.3125q-0.328125 0.875 -0.328125 2.1875zm9.480728 -5.03125l7.0 0l0 1.21875l-7.0 0l0 -1.21875zm7.8125 -4.125l0 1.34375q-0.234375 -0.078125 -0.71875 -0.171875q-0.46875 -0.09375 -1.0625 -0.09375q-0.59375 0 -1.03125 0.1875q-0.421875 0.171875 -0.65625 0.609375q-0.21875 0.4375 -0.21875 1.21875l0 9.890625q0 0.046875 0.25 0.09375q0.265625 0.03125 0.640625 0.0625q0.375 0.015625 0.75 0.015625l0.40625 0l0 1.0l-6.09375 0l0 -1.0l0.328125 0q0.734375 0 1.125 -0.203125q0.40625 -0.21875 0.40625 -0.828125l0 -9.03125q0 -1.28125 0.546875 -2.0q0.546875 -0.71875 1.4375 -1.0q0.90625 -0.296875 1.953125 -0.296875q0.640625 0 1.1875 0.0625q0.546875 0.0625 0.75 0.140625zm9.312881 2.15625l0 10.421875q0 0.140625 0.140625 0.234375q0.15625 0.078125 0.390625 0.125q0.234375 0.046875 0.515625 0.0625q0.296875 0 0.59375 0l0.359375 0l0 1.15625l-5.9375 0l0 -1.15625l0.203125 0q0.625 0 1.03125 -0.125q0.40625 -0.140625 0.40625 -0.546875l0 -9.59375q0 -0.40625 -0.40625 -0.53125q-0.40625 -0.140625 -1.03125 -0.140625l-0.203125 0l0 -1.15625l10.296875 0l0 3.734375l-1.296875 0l-0.1875 -1.65625q-0.046875 -0.34375 -0.296875 -0.515625q-0.234375 -0.171875 -0.703125 -0.234375q-0.46875 -0.078125 -1.203125 -0.078125l-2.671875 0zm-0.421875 4.8125q0.859375 -0.046875 1.6875 -0.078125q0.84375 -0.046875 1.6875 -0.09375q0.84375 -0.046875 1.671875 -0.0625l0 1.625q-0.828125 -0.0625 -1.671875 -0.09375q-0.84375 -0.046875 -1.6875 -0.09375q-0.828125 -0.046875 -1.6875 -0.0625l0 -1.140625zm18.133362 2.1875q0 1.578125 -0.640625 2.765625q-0.625 1.171875 -1.8125 1.8125q-1.171875 0.640625 -2.75 0.640625q-1.59375 0 -2.765625 -0.640625q-1.15625 -0.640625 -1.796875 -1.8125q-0.640625 -1.1875 -0.640625 -2.765625q0 -1.1875 0.359375 -2.15625q0.359375 -0.984375 1.03125 -1.65625q0.6875 -0.6875 1.640625 -1.046875q0.96875 -0.359375 2.171875 -0.359375q1.1875 0 2.140625 0.359375q0.96875 0.359375 1.640625 1.046875q0.6875 0.671875 1.046875 1.65625q0.375 0.96875 0.375 2.15625zm-8.125 0q0 1.328125 0.328125 2.203125q0.328125 0.875 0.96875 1.3125q0.65625 0.4375 1.625 0.4375q0.984375 0 1.625 -0.421875q0.640625 -0.4375 0.953125 -1.3125q0.328125 -0.890625 0.328125 -2.21875q0 -1.3125 -0.328125 -2.1875q-0.3125 -0.875 -0.953125 -1.3125q-0.640625 -0.453125 -1.625 -0.453125q-0.96875 0 -1.625 0.453125q-0.640625 0.4375 -0.96875 1.3125q-0.328125 0.875 -0.328125 2.1875zm17.036316 -5.15625l0 2.203125q-0.125 -0.03125 -0.328125 -0.0625q-0.203125 -0.03125 -0.4375 -0.03125q-0.234375 -0.015625 -0.4375 -0.015625q-0.484375 0 -0.890625 0.09375q-0.390625 0.078125 -0.734375 0.265625q-0.328125 0.171875 -0.625 0.46875q-0.296875 0.28125 -0.609375 0.703125l-0.015625 -0.796875q0.46875 -0.9375 0.9375 -1.578125q0.46875 -0.640625 1.0625 -0.96875q0.59375 -0.34375 1.375 -0.34375q0.21875 0 0.421875 0.015625q0.203125 0.015625 0.28125 0.046875zm-7.359375 10.15625l0 -1.0l0.046875 0q0.640625 0 1.015625 -0.203125q0.390625 -0.21875 0.390625 -0.8125l0 -6.09375q0 -0.265625 -0.140625 -0.390625q-0.140625 -0.140625 -0.4375 -0.21875q-0.28125 -0.09375 -0.71875 -0.15625l-0.15625 -0.046875l0 -1.109375l3.3125 0l0.25 2.640625l0.09375 -0.078125l0 6.109375q0 0.140625 0.234375 0.234375q0.25 0.078125 0.5625 0.109375q0.328125 0.015625 0.609375 0.015625l0.359375 0l0 1.0l-5.421875 0zm14.016693 -1.0625q0.765625 0 1.3125 -0.265625q0.5625 -0.28125 0.96875 -0.71875q0.40625 -0.4375 0.6875 -0.921875l1.0 0.765625q-0.375 0.703125 -0.96875 1.265625q-0.59375 0.546875 -1.390625 0.84375q-0.78125 0.296875 -1.8125 0.296875q-1.59375 0 -2.78125 -0.625q-1.1875 -0.625 -1.828125 -1.796875q-0.640625 -1.171875 -0.640625 -2.796875q0 -1.625 0.640625 -2.78125q0.65625 -1.171875 1.859375 -1.796875q1.203125 -0.625 2.84375 -0.625q1.015625 0 1.78125 0.15625q0.765625 0.15625 1.265625 0.375q0.515625 0.203125 0.75 0.375l0 2.90625l-1.984375 0l0 -2.515625q0.203125 0.015625 0.359375 0.109375q0.15625 0.078125 0.265625 0.21875q0.109375 0.125 0.140625 0.28125q0.03125 0.140625 0.015625 0.25q-0.375 -0.375 -1.03125 -0.625q-0.65625 -0.265625 -1.5 -0.265625q-1.0625 0 -1.765625 0.453125q-0.6875 0.453125 -1.03125 1.34375q-0.328125 0.890625 -0.328125 2.140625q0 0.984375 0.1875 1.71875q0.203125 0.734375 0.578125 1.234375q0.390625 0.5 0.984375 0.75q0.609375 0.25 1.421875 0.25zm7.6235657 -3.859375q0 1.046875 0.21875 1.78125q0.21875 0.734375 0.640625 1.1875q0.4375 0.453125 1.015625 0.671875q0.578125 0.21875 1.296875 0.21875q0.734375 0 1.296875 -0.25q0.5625 -0.265625 0.96875 -0.671875q0.421875 -0.421875 0.6875 -0.90625l1.03125 0.78125q-0.375 0.6875 -0.96875 1.21875q-0.578125 0.53125 -1.390625 0.828125q-0.796875 0.28125 -1.796875 0.28125q-1.515625 0 -2.703125 -0.59375q-1.171875 -0.609375 -1.84375 -1.765625q-0.671875 -1.15625 -0.671875 -2.796875q0 -1.59375 0.625 -2.78125q0.625 -1.1875 1.71875 -1.84375q1.09375 -0.65625 2.53125 -0.65625q1.140625 0 1.984375 0.359375q0.859375 0.34375 1.40625 1.0625q0.546875 0.71875 0.828125 1.796875q0.296875 1.0625 0.328125 2.5l-7.734375 0l0 -1.171875l6.03125 0l-0.46875 0.453125q-0.03125 -1.046875 -0.171875 -1.765625q-0.140625 -0.734375 -0.421875 -1.15625q-0.28125 -0.4375 -0.71875 -0.625q-0.421875 -0.203125 -1.03125 -0.203125q-0.625 0 -1.125 0.234375q-0.484375 0.234375 -0.84375 0.734375q-0.34375 0.484375 -0.53125 1.25q-0.1875 0.765625 -0.1875 1.828125z" fill-rule="nonzero"/><path fill="#000000" fill-opacity="0.0" d="m93.514435 214.80052l204.6614 0l0 42.015762l-204.6614 0z" fill-rule="evenodd"/><path fill="#000000" d="m107.34256 229.72052l0 10.421875q0 0.140625 0.140625 0.234375q0.15625 0.078125 0.390625 0.125q0.234375 0.046875 0.515625 0.0625q0.296875 0 0.59375 0l0.359375 0l0 1.15625l-5.9375 0l0 -1.15625l0.203125 0q0.625 0 1.03125 -0.125q0.40625 -0.140625 0.40625 -0.546875l0 -9.59375q0 -0.40625 -0.40625 -0.53125q-0.40625 -0.140625 -1.03125 -0.140625l-0.203125 0l0 -1.15625l10.296875 0l0 3.734375l-1.296875 0l-0.1875 -1.65625q-0.046875 -0.34375 -0.296875 -0.515625q-0.234375 -0.171875 -0.703125 -0.234375q-0.46875 -0.078125 -1.203125 -0.078125l-2.671875 0zm-0.421875 4.8125q0.859375 -0.046875 1.6875 -0.078125q0.84375 -0.046875 1.6875 -0.09375q0.84375 -0.046875 1.671875 -0.0625l0 1.625q-0.828125 -0.0625 -1.671875 -0.09375q-0.84375 -0.046875 -1.6875 -0.09375q-0.828125 -0.046875 -1.6875 -0.0625l0 -1.140625zm18.133362 2.1875q0 1.578125 -0.640625 2.765625q-0.625 1.171875 -1.8125 1.8125q-1.171875 0.640625 -2.75 0.640625q-1.59375 0 -2.765625 -0.640625q-1.15625 -0.640625 -1.796875 -1.8125q-0.640625 -1.1875 -0.640625 -2.765625q0 -1.1875 0.359375 -2.15625q0.359375 -0.984375 1.03125 -1.65625q0.6875 -0.6875 1.640625 -1.046875q0.96875 -0.359375 2.171875 -0.359375q1.1875 0 2.140625 0.359375q0.96875 0.359375 1.640625 1.046875q0.6875 0.671875 1.046875 1.65625q0.375 0.96875 0.375 2.15625zm-8.125 0q0 1.328125 0.328125 2.203125q0.328125 0.875 0.96875 1.3125q0.65625 0.4375 1.625 0.4375q0.984375 0 1.625 -0.421875q0.640625 -0.4375 0.953125 -1.3125q0.328125 -0.890625 0.328125 -2.21875q0 -1.3125 -0.328125 -2.1875q-0.3125 -0.875 -0.953125 -1.3125q-0.640625 -0.453125 -1.625 -0.453125q-0.96875 0 -1.625 0.453125q-0.640625 0.4375 -0.96875 1.3125q-0.328125 0.875 -0.328125 2.1875zm17.036316 -5.15625l0 2.203125q-0.125 -0.03125 -0.328125 -0.0625q-0.203125 -0.03125 -0.4375 -0.03125q-0.234375 -0.015625 -0.4375 -0.015625q-0.484375 0 -0.890625 0.09375q-0.390625 0.078125 -0.734375 0.265625q-0.328125 0.171875 -0.625 0.46875q-0.296875 0.28125 -0.609375 0.703125l-0.015625 -0.796875q0.46875 -0.9375 0.9375 -1.578125q0.46875 -0.640625 1.0625 -0.96875q0.59375 -0.34375 1.375 -0.34375q0.21875 0 0.421875 0.015625q0.203125 0.015625 0.28125 0.046875zm-7.359375 10.15625l0 -1.0l0.046875 0q0.640625 0 1.015625 -0.203125q0.390625 -0.21875 0.390625 -0.8125l0 -6.09375q0 -0.265625 -0.140625 -0.390625q-0.140625 -0.140625 -0.4375 -0.21875q-0.28125 -0.09375 -0.71875 -0.15625l-0.15625 -0.046875l0 -1.109375l3.3125 0l0.25 2.640625l0.09375 -0.078125l0 6.109375q0 0.140625 0.234375 0.234375q0.25 0.078125 0.5625 0.109375q0.328125 0.015625 0.609375 0.015625l0.359375 0l0 1.0l-5.421875 0zm14.016693 -1.0625q0.765625 0 1.3125 -0.265625q0.5625 -0.28125 0.96875 -0.71875q0.40625 -0.4375 0.6875 -0.921875l1.0 0.765625q-0.375 0.703125 -0.96875 1.265625q-0.59375 0.546875 -1.390625 0.84375q-0.78125 0.296875 -1.8125 0.296875q-1.59375 0 -2.78125 -0.625q-1.1875 -0.625 -1.828125 -1.796875q-0.640625 -1.171875 -0.640625 -2.796875q0 -1.625 0.640625 -2.78125q0.65625 -1.171875 1.859375 -1.796875q1.203125 -0.625 2.84375 -0.625q1.015625 0 1.78125 0.15625q0.765625 0.15625 1.265625 0.375q0.515625 0.203125 0.75 0.375l0 2.90625l-1.984375 0l0 -2.515625q0.203125 0.015625 0.359375 0.109375q0.15625 0.078125 0.265625 0.21875q0.109375 0.125 0.140625 0.28125q0.03125 0.140625 0.015625 0.25q-0.375 -0.375 -1.03125 -0.625q-0.65625 -0.265625 -1.5 -0.265625q-1.0625 0 -1.765625 0.453125q-0.6875 0.453125 -1.03125 1.34375q-0.328125 0.890625 -0.328125 2.140625q0 0.984375 0.1875 1.71875q0.203125 0.734375 0.578125 1.234375q0.390625 0.5 0.984375 0.75q0.609375 0.25 1.421875 0.25zm7.6235657 -3.859375q0 1.046875 0.21875 1.78125q0.21875 0.734375 0.640625 1.1875q0.4375 0.453125 1.015625 0.671875q0.578125 0.21875 1.296875 0.21875q0.734375 0 1.296875 -0.25q0.5625 -0.265625 0.96875 -0.671875q0.421875 -0.421875 0.6875 -0.90625l1.03125 0.78125q-0.375 0.6875 -0.96875 1.21875q-0.578125 0.53125 -1.390625 0.828125q-0.796875 0.28125 -1.796875 0.28125q-1.515625 0 -2.703125 -0.59375q-1.171875 -0.609375 -1.84375 -1.765625q-0.671875 -1.15625 -0.671875 -2.796875q0 -1.59375 0.625 -2.78125q0.625 -1.1875 1.71875 -1.84375q1.09375 -0.65625 2.53125 -0.65625q1.140625 0 1.984375 0.359375q0.859375 0.34375 1.40625 1.0625q0.546875 0.71875 0.828125 1.796875q0.296875 1.0625 0.328125 2.5l-7.734375 0l0 -1.171875l6.03125 0l-0.46875 0.453125q-0.03125 -1.046875 -0.171875 -1.765625q-0.140625 -0.734375 -0.421875 -1.15625q-0.28125 -0.4375 -0.71875 -0.625q-0.421875 -0.203125 -1.03125 -0.203125q-0.625 0 -1.125 0.234375q-0.484375 0.234375 -0.84375 0.734375q-0.34375 0.484375 -0.53125 1.25q-0.1875 0.765625 -0.1875 1.828125z" fill-rule="nonzero"/><path fill="#000000" fill-opacity="0.0" d="m109.514435 261.9265l158.36221 0l0 42.015747l-158.36221 0z" fill-rule="evenodd"/><path fill="#000000" d="m123.389435 287.51837l0 -10.671875l2.125 0q0.875 0 1.46875 0.3125q0.59375 0.3125 0.875 0.90625q0.296875 0.59375 0.296875 1.515625q0 0.90625 -0.296875 1.53125q-0.296875 0.625 -0.890625 0.953125q-0.59375 0.328125 -1.515625 0.328125l-2.609375 0l0 1.25l2.828125 0q1.484375 0 2.578125 -0.484375q1.09375 -0.5 1.6875 -1.40625q0.609375 -0.921875 0.609375 -2.21875q0 -1.90625 -1.265625 -2.921875q-1.265625 -1.015625 -3.546875 -1.015625l-6.296875 0l0 1.140625l0.203125 0q0.609375 0 1.015625 0.140625q0.421875 0.125 0.421875 0.53125l0 9.625q0 0.40625 -0.421875 0.546875q-0.40625 0.125 -1.015625 0.125l-0.203125 0l0 1.140625l5.828125 0l0 -1.15625l-0.421875 0q-0.28125 0 -0.53125 0q-0.25 -0.015625 -0.46875 -0.03125q-0.21875 -0.03125 -0.34375 -0.046875q-0.109375 -0.03125 -0.109375 -0.09375zm14.962601 -4.765625l0 1.078125q-1.03125 0.125 -1.78125 0.3125q-0.75 0.1875 -1.25 0.40625q-0.484375 0.21875 -0.765625 0.484375q-0.28125 0.265625 -0.40625 0.59375q-0.109375 0.328125 -0.109375 0.71875q0 0.5 0.1875 0.828125q0.203125 0.328125 0.546875 0.5q0.359375 0.171875 0.84375 0.171875q0.53125 0 0.984375 -0.25q0.453125 -0.265625 0.875 -0.765625q0.421875 -0.5 0.84375 -1.28125l0.0625 1.0625q-0.375 0.78125 -0.875 1.328125q-0.484375 0.53125 -1.109375 0.828125q-0.625 0.28125 -1.40625 0.28125q-0.953125 0 -1.65625 -0.296875q-0.703125 -0.296875 -1.078125 -0.890625q-0.375 -0.59375 -0.375 -1.453125q0 -0.796875 0.359375 -1.375q0.359375 -0.578125 1.125 -1.0q0.765625 -0.4375 1.984375 -0.734375q1.234375 -0.3125 3.0 -0.546875zm0.015625 6.09375l-0.234375 -2.125l-0.109375 -0.0625l0 -5.0625q0 -0.625 -0.171875 -1.0q-0.15625 -0.375 -0.5625 -0.546875q-0.40625 -0.171875 -1.109375 -0.171875q-1.03125 0 -1.6875 0.296875q-0.65625 0.28125 -0.984375 0.609375q-0.03125 -0.140625 0.015625 -0.28125q0.046875 -0.15625 0.15625 -0.296875q0.125 -0.140625 0.3125 -0.25q0.1875 -0.109375 0.453125 -0.125l0 2.171875l-1.984375 0l0 -2.3125q0.265625 -0.203125 0.796875 -0.4375q0.53125 -0.25 1.296875 -0.4375q0.78125 -0.1875 1.78125 -0.1875q0.859375 0 1.546875 0.15625q0.703125 0.15625 1.21875 0.515625q0.53125 0.34375 0.8125 0.90625q0.28125 0.5625 0.28125 1.359375l0 5.46875q0 0.25 0.15625 0.375q0.171875 0.125 0.46875 0.203125q0.3125 0.0625 0.734375 0.109375l0.09375 0.046875l0 1.078125l-3.28125 0zm6.8066254 -11.828125q-0.65625 0 -1.046875 -0.328125q-0.390625 -0.34375 -0.390625 -1.015625q0 -0.640625 0.390625 -0.96875q0.390625 -0.34375 1.046875 -0.34375q0.640625 0 1.03125 0.34375q0.390625 0.328125 0.390625 0.96875q0 0.65625 -0.390625 1.0q-0.390625 0.34375 -1.03125 0.34375zm1.21875 1.796875l0 8.09375q0 0.5625 0.375 0.75q0.390625 0.1875 1.03125 0.1875l0.0625 0l0 1.0l-5.125 0l0 -1.0l0.046875 0q0.65625 0 1.03125 -0.1875q0.390625 -0.1875 0.390625 -0.75l0 -6.171875q0 -0.375 -0.328125 -0.5q-0.3125 -0.140625 -0.953125 -0.265625l-0.1875 -0.046875l0 -1.109375l3.65625 0zm2.705536 10.03125l0 -1.0l0.046875 0q0.4375 0 0.75 -0.078125q0.3125 -0.09375 0.484375 -0.3125q0.171875 -0.234375 0.171875 -0.625l0 -6.09375q0 -0.265625 -0.140625 -0.390625q-0.140625 -0.140625 -0.4375 -0.21875q-0.28125 -0.09375 -0.71875 -0.15625l-0.15625 -0.046875l0 -1.109375l3.328125 0l0.234375 2.171875l0.09375 0.078125l0 6.609375q0 0.046875 0.1875 0.09375q0.203125 0.03125 0.46875 0.0625q0.28125 0.015625 0.53125 0.015625l0.078125 0l0 1.0l-4.921875 0zm11.578125 0l-4.921875 0l0 -1.0l0.046875 0q0.25 0 0.53125 -0.015625q0.28125 -0.03125 0.46875 -0.0625q0.203125 -0.046875 0.203125 -0.09375l0 -5.984375q0 -0.546875 -0.140625 -0.890625q-0.125 -0.359375 -0.4375 -0.53125q-0.3125 -0.1875 -0.859375 -0.1875q-0.5625 0 -1.109375 0.25q-0.53125 0.234375 -1.046875 0.734375q-0.515625 0.484375 -1.03125 1.234375l0 -1.15625q0.5 -0.796875 1.09375 -1.359375q0.59375 -0.5625 1.296875 -0.859375q0.71875 -0.296875 1.515625 -0.296875q0.9375 0 1.578125 0.3125q0.65625 0.3125 1.0 0.96875q0.34375 0.640625 0.34375 1.609375l0 5.3125q0 0.390625 0.171875 0.625q0.171875 0.21875 0.484375 0.3125q0.3125 0.078125 0.75 0.078125l0.0625 0l0 1.0z" fill-rule="nonzero"/><path fill="#000000" fill-opacity="0.0" d="m298.17593 261.9265l194.92914 0l0 42.015747l-194.92914 0z" fill-rule="evenodd"/><path fill="#000000" d="m387.18774 275.5965l5.171875 0l0 1.15625l-0.296875 0q-0.3125 0 -0.625 0.03125q-0.296875 0.015625 -0.515625 0.046875q-0.203125 0.03125 -0.203125 0.109375l2.53125 10.578125l-0.25 -0.03125l2.90625 -11.890625l2.4375 0l2.953125 11.84375l-0.25 0.046875l2.46875 -10.359375q0 -0.109375 -0.21875 -0.1875q-0.203125 -0.09375 -0.5 -0.140625q-0.296875 -0.046875 -0.59375 -0.046875l-0.28125 0l0 -1.15625l4.140625 0l0 1.15625l-0.109375 0q-0.484375 0 -0.8125 0.1875q-0.3125 0.171875 -0.421875 0.640625l-2.703125 11.265625l-2.5 0l-2.921875 -11.75l0.21875 0.015625l-2.859375 11.734375l-2.5625 0l-2.90625 -11.46875q-0.109375 -0.4375 -0.40625 -0.53125q-0.296875 -0.09375 -0.78125 -0.09375l-0.109375 0l0 -1.15625zm21.496094 8.328125q0 1.046875 0.21875 1.78125q0.21875 0.734375 0.640625 1.1875q0.4375 0.453125 1.015625 0.671875q0.578125 0.21875 1.296875 0.21875q0.734375 0 1.296875 -0.25q0.5625 -0.265625 0.96875 -0.671875q0.421875 -0.421875 0.6875 -0.90625l1.03125 0.78125q-0.375 0.6875 -0.96875 1.21875q-0.578125 0.53125 -1.390625 0.828125q-0.796875 0.28125 -1.796875 0.28125q-1.515625 0 -2.703125 -0.59375q-1.171875 -0.609375 -1.84375 -1.765625q-0.671875 -1.15625 -0.671875 -2.796875q0 -1.59375 0.625 -2.78125q0.625 -1.1875 1.71875 -1.84375q1.09375 -0.65625 2.53125 -0.65625q1.140625 0 1.984375 0.359375q0.859375 0.34375 1.40625 1.0625q0.546875 0.71875 0.828125 1.796875q0.296875 1.0625 0.328125 2.5l-7.734375 0l0 -1.171875l6.03125 0l-0.46875 0.453125q-0.03125 -1.046875 -0.171875 -1.765625q-0.140625 -0.734375 -0.421875 -1.15625q-0.28125 -0.4375 -0.71875 -0.625q-0.421875 -0.203125 -1.03125 -0.203125q-0.625 0 -1.125 0.234375q-0.484375 0.234375 -0.84375 0.734375q-0.34375 0.484375 -0.53125 1.25q-0.1875 0.765625 -0.1875 1.828125zm12.232849 -9.21875l0 12.203125q0 0.5625 0.375 0.75q0.375 0.1875 1.03125 0.1875l0.046875 0l0 1.0l-5.109375 0l0 -1.0l0.0625 0q0.640625 0 1.015625 -0.1875q0.375 -0.1875 0.375 -0.75l0 -10.28125q0 -0.265625 -0.140625 -0.390625q-0.140625 -0.140625 -0.421875 -0.21875q-0.28125 -0.09375 -0.71875 -0.171875l-0.1875 -0.046875l0 -1.09375l3.671875 0zm6.3431396 0l0 12.203125q0 0.5625 0.375 0.75q0.375 0.1875 1.03125 0.1875l0.046875 0l0 1.0l-5.109375 0l0 -1.0l0.0625 0q0.640625 0 1.015625 -0.1875q0.375 -0.1875 0.375 -0.75l0 -10.28125q0 -0.265625 -0.140625 -0.390625q-0.140625 -0.140625 -0.421875 -0.21875q-0.28125 -0.09375 -0.71875 -0.171875l-0.1875 -0.046875l0 -1.09375l3.671875 0zm9.202484 14.34375q-0.875 0 -1.546875 -0.28125q-0.65625 -0.296875 -1.1875 -0.84375q-0.515625 -0.546875 -0.96875 -1.328125l0.078125 -1.328125q0.484375 0.796875 0.96875 1.34375q0.484375 0.53125 1.046875 0.8125q0.5625 0.265625 1.25 0.265625q0.65625 0 1.140625 -0.25q0.5 -0.25 0.828125 -0.75q0.34375 -0.515625 0.515625 -1.25q0.171875 -0.734375 0.171875 -1.671875q0 -0.921875 -0.171875 -1.625q-0.15625 -0.703125 -0.453125 -1.1875q-0.296875 -0.484375 -0.78125 -0.71875q-0.46875 -0.25 -1.140625 -0.25q-0.6875 0 -1.28125 0.265625q-0.578125 0.265625 -1.09375 0.828125q-0.5 0.546875 -1.015625 1.421875l-0.046875 -1.21875q0.515625 -0.84375 1.0625 -1.4375q0.546875 -0.609375 1.21875 -0.90625q0.6875 -0.3125 1.59375 -0.3125q1.390625 0 2.375 0.65625q0.984375 0.640625 1.5 1.796875q0.515625 1.140625 0.515625 2.6875q0 1.53125 -0.546875 2.734375q-0.546875 1.1875 -1.578125 1.875q-1.015625 0.671875 -2.453125 0.671875zm-5.421875 -12.421875q0 -0.265625 -0.140625 -0.390625q-0.140625 -0.140625 -0.421875 -0.21875q-0.265625 -0.078125 -0.71875 -0.171875l-0.1875 -0.046875l0 -1.09375l3.671875 0l0 11.859375l-0.140625 0.140625l-0.640625 2.34375l-1.421875 0l0 -12.421875zm13.873749 7.296875q0 1.046875 0.21875 1.78125q0.21875 0.734375 0.640625 1.1875q0.4375 0.453125 1.015625 0.671875q0.578125 0.21875 1.296875 0.21875q0.734375 0 1.296875 -0.25q0.5625 -0.265625 0.96875 -0.671875q0.421875 -0.421875 0.6875 -0.90625l1.03125 0.78125q-0.375 0.6875 -0.96875 1.21875q-0.578125 0.53125 -1.390625 0.828125q-0.796875 0.28125 -1.796875 0.28125q-1.515625 0 -2.703125 -0.59375q-1.171875 -0.609375 -1.84375 -1.765625q-0.671875 -1.15625 -0.671875 -2.796875q0 -1.59375 0.625 -2.78125q0.625 -1.1875 1.71875 -1.84375q1.09375 -0.65625 2.53125 -0.65625q1.140625 0 1.984375 0.359375q0.859375 0.34375 1.40625 1.0625q0.546875 0.71875 0.828125 1.796875q0.296875 1.0625 0.328125 2.5l-7.734375 0l0 -1.171875l6.03125 0l-0.46875 0.453125q-0.03125 -1.046875 -0.171875 -1.765625q-0.140625 -0.734375 -0.421875 -1.15625q-0.28125 -0.4375 -0.71875 -0.625q-0.421875 -0.203125 -1.03125 -0.203125q-0.625 0 -1.125 0.234375q-0.484375 0.234375 -0.84375 0.734375q-0.34375 0.484375 -0.53125 1.25q-0.1875 0.765625 -0.1875 1.828125zm11.132202 -6.90625q-0.65625 0 -1.046875 -0.328125q-0.390625 -0.34375 -0.390625 -1.015625q0 -0.640625 0.390625 -0.96875q0.390625 -0.34375 1.046875 -0.34375q0.640625 0 1.03125 0.34375q0.390625 0.328125 0.390625 0.96875q0 0.65625 -0.390625 1.0q-0.390625 0.34375 -1.03125 0.34375zm1.21875 1.796875l0 8.09375q0 0.5625 0.375 0.75q0.390625 0.1875 1.03125 0.1875l0.0625 0l0 1.0l-5.125 0l0 -1.0l0.046875 0q0.65625 0 1.03125 -0.1875q0.390625 -0.1875 0.390625 -0.75l0 -6.171875q0 -0.375 -0.328125 -0.5q-0.3125 -0.140625 -0.953125 -0.265625l-0.1875 -0.046875l0 -1.109375l3.65625 0zm2.705536 10.03125l0 -1.0l0.046875 0q0.4375 0 0.75 -0.078125q0.3125 -0.09375 0.484375 -0.3125q0.171875 -0.234375 0.171875 -0.625l0 -6.09375q0 -0.265625 -0.140625 -0.390625q-0.140625 -0.140625 -0.4375 -0.21875q-0.28125 -0.09375 -0.71875 -0.15625l-0.15625 -0.046875l0 -1.109375l3.328125 0l0.234375 2.171875l0.09375 0.078125l0 6.609375q0 0.046875 0.1875 0.09375q0.203125 0.03125 0.46875 0.0625q0.28125 0.015625 0.53125 0.015625l0.078125 0l0 1.0l-4.921875 0zm11.578125 0l-4.921875 0l0 -1.0l0.046875 0q0.25 0 0.53125 -0.015625q0.28125 -0.03125 0.46875 -0.0625q0.203125 -0.046875 0.203125 -0.09375l0 -5.984375q0 -0.546875 -0.140625 -0.890625q-0.125 -0.359375 -0.4375 -0.53125q-0.3125 -0.1875 -0.859375 -0.1875q-0.5625 0 -1.109375 0.25q-0.53125 0.234375 -1.046875 0.734375q-0.515625 0.484375 -1.03125 1.234375l0 -1.15625q0.5 -0.796875 1.09375 -1.359375q0.59375 -0.5625 1.296875 -0.859375q0.71875 -0.296875 1.515625 -0.296875q0.9375 0 1.578125 0.3125q0.65625 0.3125 1.0 0.96875q0.34375 0.640625 0.34375 1.609375l0 5.3125q0 0.390625 0.171875 0.625q0.171875 0.21875 0.484375 0.3125q0.3125 0.078125 0.75 0.078125l0.0625 0l0 1.0zm12.310791 -8.671875q-0.8125 -0.0625 -1.421875 -0.0625q-0.59375 -0.015625 -1.015625 0.046875q-0.40625 0.0625 -0.75 0.234375l-0.3125 -0.03125q0.25 -0.59375 0.578125 -1.046875q0.34375 -0.453125 0.765625 -0.734375q0.421875 -0.28125 0.953125 -0.375q0.53125 -0.109375 1.203125 -0.046875l0 2.015625zm-6.1875 5.578125q-1.234375 0 -2.171875 -0.4375q-0.921875 -0.4375 -1.453125 -1.234375q-0.515625 -0.796875 -0.515625 -1.875q0 -1.0625 0.515625 -1.875q0.53125 -0.8125 1.46875 -1.25q0.9375 -0.453125 2.15625 -0.453125q1.25 0 2.1875 0.453125q0.9375 0.4375 1.453125 1.25q0.53125 0.8125 0.53125 1.875q0 1.078125 -0.53125 1.875q-0.515625 0.796875 -1.453125 1.234375q-0.9375 0.4375 -2.1875 0.4375zm0 -1.171875q0.6875 0 1.140625 -0.265625q0.453125 -0.265625 0.671875 -0.78125q0.234375 -0.53125 0.234375 -1.3125q0 -0.796875 -0.234375 -1.328125q-0.21875 -0.53125 -0.671875 -0.796875q-0.453125 -0.28125 -1.140625 -0.28125q-0.65625 0 -1.125 0.28125q-0.453125 0.265625 -0.6875 0.796875q-0.21875 0.53125 -0.21875 1.328125q0 0.78125 0.21875 1.3125q0.234375 0.515625 0.6875 0.78125q0.46875 0.265625 1.125 0.265625zm-1.0625 8.8125q-1.25 0 -2.1875 -0.21875q-0.9375 -0.203125 -1.46875 -0.71875q-0.515625 -0.5 -0.515625 -1.296875q0 -0.5625 0.265625 -0.96875q0.265625 -0.390625 0.796875 -0.734375q0.546875 -0.328125 1.421875 -0.6875l0.5625 0.375q-0.453125 0.296875 -0.71875 0.578125q-0.265625 0.28125 -0.390625 0.5625q-0.109375 0.296875 -0.109375 0.609375q0 0.421875 0.25 0.703125q0.265625 0.296875 0.8125 0.453125q0.5625 0.15625 1.484375 0.15625l1.703125 0q0.9375 0 1.59375 -0.203125q0.65625 -0.203125 0.984375 -0.59375q0.34375 -0.390625 0.34375 -0.953125q0 -0.515625 -0.328125 -0.765625q-0.328125 -0.234375 -1.140625 -0.234375l-4.65625 0l0.03125 -0.09375q-0.765625 -0.140625 -1.28125 -0.40625q-0.5 -0.265625 -0.75 -0.65625q-0.234375 -0.40625 -0.234375 -0.90625q0 -0.546875 0.28125 -0.984375q0.28125 -0.453125 0.796875 -0.828125q0.53125 -0.390625 1.28125 -0.734375l0.640625 0.40625q-0.390625 0.25 -0.65625 0.5q-0.25 0.234375 -0.375 0.46875q-0.125 0.21875 -0.125 0.484375q0 0.40625 0.328125 0.59375q0.328125 0.1875 1.0 0.1875l3.8125 0q1.0625 0 1.796875 0.265625q0.734375 0.265625 1.125 0.828125q0.390625 0.5625 0.390625 1.421875q0 1.15625 -0.640625 1.90625q-0.640625 0.765625 -1.734375 1.125q-1.09375 0.359375 -2.4375 0.359375l-1.953125 0z" fill-rule="nonzero"/><path fill="#000000" fill-opacity="0.0" d="m-0.005249344 319.18896l567.0236 0l0 58.17325l-567.0236 0z" fill-rule="evenodd"/><path fill="#000000" d="m186.22723 357.31522q1.53125 0 2.515625 -0.375q1.0 -0.375 1.5 -1.203125q0.5 -0.828125 0.5 -2.140625q0 -1.21875 -0.515625 -1.984375q-0.515625 -0.765625 -1.390625 -1.265625q-0.875 -0.5 -2.03125 -0.828125q-1.15625 -0.34375 -2.40625 -0.65625q-1.40625 -0.390625 -2.703125 -0.84375q-1.296875 -0.46875 -2.3125 -1.203125q-1.0 -0.734375 -1.578125 -1.9375q-0.578125 -1.203125 -0.578125 -3.0q0 -1.984375 0.890625 -3.375q0.90625 -1.390625 2.53125 -2.140625q1.640625 -0.75 3.84375 -0.75q1.796875 0 3.15625 0.546875q1.359375 0.546875 2.28125 1.78125q0.9375 1.21875 1.421875 3.3125l-0.9375 -0.8125l0.484375 -4.40625l2.140625 0l0 6.515625l-2.390625 0q-0.453125 -1.5625 -1.28125 -2.625q-0.8125 -1.078125 -1.984375 -1.625q-1.15625 -0.546875 -2.625 -0.546875q-1.4375 0 -2.34375 0.40625q-0.890625 0.390625 -1.328125 1.171875q-0.421875 0.765625 -0.421875 1.875q0 1.09375 0.453125 1.78125q0.46875 0.6875 1.296875 1.125q0.828125 0.421875 1.953125 0.734375q1.125 0.296875 2.4375 0.65625q1.40625 0.34375 2.75 0.8125q1.34375 0.46875 2.421875 1.21875q1.09375 0.75 1.71875 1.9375q0.625 1.1875 0.625 3.0q0 2.34375 -1.0 3.90625q-0.984375 1.546875 -2.78125 2.3125q-1.78125 0.765625 -4.125 0.765625q-2.046875 0 -3.75 -0.609375q-1.6875 -0.609375 -2.84375 -2.046875q-1.140625 -1.4375 -1.625 -3.90625l1.09375 0.953125l-0.453125 5.1875l-2.28125 0l0 -7.484375l2.5 0q0.515625 1.921875 1.515625 3.203125q1.015625 1.28125 2.453125 1.921875q1.4375 0.640625 3.203125 0.640625zm16.835037 -15.625l0 12.265625q0 0.921875 0.234375 1.546875q0.234375 0.625 0.765625 0.9375q0.53125 0.296875 1.453125 0.296875q0.9375 0 1.828125 -0.421875q0.90625 -0.421875 1.78125 -1.25q0.875 -0.828125 1.78125 -2.109375l-0.046875 1.984375q-0.859375 1.375 -1.875 2.34375q-1.0 0.953125 -2.1875 1.453125q-1.171875 0.484375 -2.546875 0.484375q-1.546875 0 -2.671875 -0.53125q-1.109375 -0.546875 -1.703125 -1.671875q-0.59375 -1.125 -0.59375 -2.75l0 -9.28125q0 -0.640625 -0.53125 -0.90625q-0.515625 -0.28125 -1.671875 -0.40625l-0.421875 -0.0625l0 -1.921875l6.40625 0zm10.9375 0l0 14.109375q0 0.421875 0.28125 0.65625q0.296875 0.21875 0.828125 0.34375q0.53125 0.125 1.234375 0.1875l0.1875 0.0625l0 1.859375l-5.734375 0l-0.375 -3.8125l-0.1875 -0.1875l0 -9.921875q0 -0.640625 -0.578125 -0.90625q-0.578125 -0.28125 -1.703125 -0.40625l-0.734375 -0.0625l0 -1.921875l6.78125 0zm17.221298 -0.1875l0 3.78125q-0.234375 -0.078125 -0.59375 -0.125q-0.34375 -0.046875 -0.75 -0.0625q-0.390625 -0.015625 -0.734375 -0.015625q-0.84375 0 -1.515625 0.15625q-0.671875 0.140625 -1.25 0.453125q-0.5625 0.296875 -1.078125 0.796875q-0.515625 0.484375 -1.0625 1.21875l-0.03125 -1.375q0.8125 -1.59375 1.625 -2.703125q0.8125 -1.109375 1.8125 -1.671875q1.015625 -0.578125 2.359375 -0.578125q0.390625 0 0.734375 0.03125q0.359375 0.03125 0.484375 0.09375zm-12.640625 17.40625l0 -1.734375l0.09375 0q1.09375 0 1.75 -0.34375q0.65625 -0.359375 0.65625 -1.375l0 -10.46875q0 -0.453125 -0.25 -0.671875q-0.234375 -0.21875 -0.734375 -0.359375q-0.5 -0.15625 -1.234375 -0.28125l-0.28125 -0.0625l0 -1.921875l5.6875 0l0.421875 4.546875l0.15625 -0.125l0 10.453125q0 0.265625 0.421875 0.40625q0.421875 0.140625 0.96875 0.171875q0.5625 0.03125 1.046875 0.03125l0.609375 0l0 1.734375l-9.3125 0zm29.407654 -14.65625q0 -0.15625 -0.359375 -0.328125q-0.34375 -0.1875 -0.875 -0.265625q-0.53125 -0.078125 -1.140625 -0.078125l-0.15625 0l0 -1.890625l7.140625 0l0 1.921875l-0.15625 0q-0.578125 0 -1.03125 0.125q-0.453125 0.125 -0.796875 0.46875q-0.328125 0.328125 -0.578125 1.0l-5.1875 13.859375l-3.96875 0l-5.140625 -14.046875q-0.234375 -0.578125 -0.5625 -0.875q-0.3125 -0.3125 -0.78125 -0.421875q-0.453125 -0.109375 -1.09375 -0.109375l-0.125 0l0 -1.921875l8.609375 0l0 1.890625l-0.171875 0q-0.640625 0 -1.21875 0.015625q-0.5625 0.015625 -0.9375 0.0625q-0.359375 0.046875 -0.359375 0.171875l4.859375 13.640625l-0.546875 -0.578125l4.578125 -12.640625zm10.491913 -5.625q-1.125 0 -1.796875 -0.578125q-0.671875 -0.578125 -0.671875 -1.734375q0 -1.09375 0.671875 -1.65625q0.671875 -0.578125 1.796875 -0.578125q1.09375 0 1.765625 0.578125q0.671875 0.5625 0.671875 1.65625q0 1.125 -0.671875 1.71875q-0.671875 0.59375 -1.765625 0.59375zm2.078125 3.0625l0 13.890625q0 0.953125 0.65625 1.28125q0.65625 0.3125 1.78125 0.3125l0.09375 0l0 1.734375l-8.796875 0l0 -1.734375l0.09375 0q1.125 0 1.78125 -0.3125q0.65625 -0.328125 0.65625 -1.28125l0 -10.59375q0 -0.640625 -0.546875 -0.859375q-0.546875 -0.234375 -1.671875 -0.453125l-0.3125 -0.0625l0 -1.921875l6.265625 0zm18.630035 2.5625q0 -0.15625 -0.359375 -0.328125q-0.34375 -0.1875 -0.875 -0.265625q-0.53125 -0.078125 -1.140625 -0.078125l-0.15625 0l0 -1.890625l7.140625 0l0 1.921875l-0.15625 0q-0.578125 0 -1.03125 0.125q-0.453125 0.125 -0.796875 0.46875q-0.328125 0.328125 -0.578125 1.0l-5.1875 13.859375l-3.96875 0l-5.140625 -14.046875q-0.234375 -0.578125 -0.5625 -0.875q-0.3125 -0.3125 -0.78125 -0.421875q-0.453125 -0.109375 -1.09375 -0.109375l-0.125 0l0 -1.921875l8.609375 0l0 1.890625l-0.171875 0q-0.640625 0 -1.21875 0.015625q-0.5625 0.015625 -0.9375 0.0625q-0.359375 0.046875 -0.359375 0.171875l4.859375 13.640625l-0.546875 -0.578125l4.578125 -12.640625zm17.17926 4.1875l0 1.859375q-1.75 0.21875 -3.03125 0.546875q-1.28125 0.3125 -2.140625 0.6875q-0.84375 0.359375 -1.328125 0.828125q-0.46875 0.46875 -0.6875 1.03125q-0.203125 0.5625 -0.203125 1.234375q0 0.859375 0.328125 1.421875q0.34375 0.5625 0.953125 0.84375q0.609375 0.28125 1.4375 0.28125q0.90625 0 1.6875 -0.421875q0.78125 -0.4375 1.5 -1.296875q0.71875 -0.859375 1.453125 -2.203125l0.09375 1.8125q-0.640625 1.34375 -1.484375 2.28125q-0.84375 0.921875 -1.921875 1.421875q-1.0625 0.5 -2.40625 0.5q-1.640625 0 -2.84375 -0.515625q-1.1875 -0.515625 -1.828125 -1.53125q-0.640625 -1.03125 -0.640625 -2.5q0 -1.34375 0.59375 -2.328125q0.609375 -1.0 1.921875 -1.734375q1.3125 -0.734375 3.421875 -1.265625q2.125 -0.53125 5.125 -0.953125zm0.03125 10.46875l-0.375 -3.640625l-0.203125 -0.109375l0 -8.703125q0 -1.046875 -0.28125 -1.6875q-0.28125 -0.640625 -0.984375 -0.9375q-0.6875 -0.3125 -1.890625 -0.3125q-1.765625 0 -2.90625 0.5q-1.125 0.484375 -1.671875 1.0625q-0.0625 -0.25 0.015625 -0.5q0.078125 -0.265625 0.28125 -0.5q0.21875 -0.25 0.53125 -0.421875q0.3125 -0.171875 0.765625 -0.203125l0 3.703125l-3.390625 0l0 -3.96875q0.453125 -0.34375 1.359375 -0.75q0.90625 -0.421875 2.234375 -0.734375q1.328125 -0.328125 3.03125 -0.328125q1.46875 0 2.671875 0.28125q1.203125 0.265625 2.09375 0.875q0.90625 0.59375 1.375 1.5625q0.484375 0.953125 0.484375 2.328125l0 9.375q0 0.421875 0.28125 0.65625q0.296875 0.21875 0.796875 0.328125q0.515625 0.109375 1.25 0.203125l0.171875 0.0625l0 1.859375l-5.640625 0zm18.728302 0.359375q-1.515625 0 -2.65625 -0.5q-1.125 -0.5 -2.03125 -1.4375q-0.890625 -0.953125 -1.65625 -2.296875l0.125 -2.265625q0.84375 1.375 1.671875 2.3125q0.828125 0.921875 1.78125 1.390625q0.96875 0.453125 2.15625 0.453125q1.109375 0 1.953125 -0.421875q0.859375 -0.4375 1.4375 -1.296875q0.578125 -0.875 0.859375 -2.140625q0.296875 -1.265625 0.296875 -2.859375q0 -1.59375 -0.28125 -2.796875q-0.265625 -1.203125 -0.78125 -2.03125q-0.515625 -0.84375 -1.328125 -1.25q-0.8125 -0.421875 -1.96875 -0.421875q-1.1875 0 -2.203125 0.46875q-1.0 0.46875 -1.859375 1.40625q-0.859375 0.9375 -1.765625 2.453125l-0.0625 -2.078125q0.875 -1.484375 1.8125 -2.5q0.9375 -1.03125 2.109375 -1.546875q1.171875 -0.53125 2.703125 -0.53125q2.40625 0 4.078125 1.125q1.6875 1.109375 2.578125 3.078125q0.90625 1.96875 0.90625 4.625q0 2.625 -0.953125 4.671875q-0.9375 2.046875 -2.703125 3.21875q-1.765625 1.171875 -4.21875 1.171875zm-9.28125 -21.3125q0 -0.453125 -0.25 -0.671875q-0.234375 -0.234375 -0.71875 -0.375q-0.46875 -0.140625 -1.25 -0.296875l-0.3125 -0.078125l0 -1.875l6.296875 0l0 20.34375l-0.25 0.21875l-1.09375 4.046875l-2.421875 0l0 -21.3125zm23.994415 0.671875q-1.125 0 -1.796875 -0.578125q-0.671875 -0.578125 -0.671875 -1.734375q0 -1.09375 0.671875 -1.65625q0.671875 -0.578125 1.796875 -0.578125q1.09375 0 1.765625 0.578125q0.671875 0.5625 0.671875 1.65625q0 1.125 -0.671875 1.71875q-0.671875 0.59375 -1.765625 0.59375zm2.078125 3.0625l0 13.890625q0 0.953125 0.65625 1.28125q0.65625 0.3125 1.78125 0.3125l0.09375 0l0 1.734375l-8.796875 0l0 -1.734375l0.09375 0q1.125 0 1.78125 -0.3125q0.65625 -0.328125 0.65625 -1.28125l0 -10.59375q0 -0.640625 -0.546875 -0.859375q-0.546875 -0.234375 -1.671875 -0.453125l-0.3125 -0.0625l0 -1.921875l6.265625 0zm10.974518 -7.03125l0 20.921875q0 0.953125 0.640625 1.28125q0.640625 0.3125 1.765625 0.3125l0.09375 0l0 1.734375l-8.765625 0l0 -1.734375l0.09375 0q1.125 0 1.765625 -0.3125q0.640625 -0.328125 0.640625 -1.28125l0 -17.625q0 -0.453125 -0.25 -0.671875q-0.234375 -0.234375 -0.71875 -0.390625q-0.46875 -0.15625 -1.25 -0.28125l-0.3125 -0.078125l0 -1.875l6.296875 0zm8.73941 3.96875q-1.125 0 -1.796875 -0.578125q-0.671875 -0.578125 -0.671875 -1.734375q0 -1.09375 0.671875 -1.65625q0.671875 -0.578125 1.796875 -0.578125q1.09375 0 1.765625 0.578125q0.671875 0.5625 0.671875 1.65625q0 1.125 -0.671875 1.71875q-0.671875 0.59375 -1.765625 0.59375zm2.078125 3.0625l0 13.890625q0 0.953125 0.65625 1.28125q0.65625 0.3125 1.78125 0.3125l0.09375 0l0 1.734375l-8.796875 0l0 -1.734375l0.09375 0q1.125 0 1.78125 -0.3125q0.65625 -0.328125 0.65625 -1.28125l0 -10.59375q0 -0.640625 -0.546875 -0.859375q-0.546875 -0.234375 -1.671875 -0.453125l-0.3125 -0.0625l0 -1.921875l6.265625 0zm3.8182373 2.140625l0 -1.984375l0.3125 0q1.0 0 1.6875 -0.125q0.6875 -0.125 1.03125 -0.5625q0.359375 -0.453125 0.359375 -1.296875l2.53125 1.828125l6.390625 0l0 2.140625l-12.3125 0zm6.96875 9.765625q0 1.28125 0.34375 2.0q0.359375 0.71875 1.046875 1.03125q0.6875 0.296875 1.65625 0.296875q0.796875 0 1.484375 -0.109375q0.6875 -0.109375 0.9375 -0.171875l0 2.171875q-0.34375 0.09375 -0.859375 0.203125q-0.515625 0.109375 -1.109375 0.171875q-0.59375 0.078125 -1.234375 0.078125q-1.625 0 -3.015625 -0.46875q-1.390625 -0.46875 -2.21875 -1.65625q-0.8125 -1.203125 -0.8125 -3.421875l0 -11.515625l0.203125 -0.25l0 -5.15625l3.578125 0l0 16.796875zm18.694672 3.265625l-0.734375 1.65625l-1.671875 1.421875l-6.40625 -15.203125q-0.1875 -0.453125 -0.5 -0.6875q-0.296875 -0.25 -0.75 -0.34375q-0.4375 -0.09375 -1.078125 -0.09375l-0.1875 0l0 -1.921875l8.703125 0l0 1.890625l-0.171875 0q-0.59375 0 -1.15625 0.03125q-0.5625 0.03125 -0.953125 0.078125q-0.375 0.046875 -0.375 0.140625l5.28125 13.03125zm0.28125 1.5q-0.921875 2.203125 -1.8125 3.75q-0.875 1.5625 -1.796875 2.484375q-0.90625 0.9375 -2.0 1.359375q-1.078125 0.4375 -2.453125 0.4375q-0.921875 0 -1.671875 -0.171875q-0.734375 -0.171875 -1.109375 -0.40625l0 -3.0q0.125 0.03125 0.53125 0.171875q0.421875 0.140625 1.046875 0.28125q0.625 0.15625 1.359375 0.15625q0.828125 0 1.5625 -0.234375q0.75 -0.21875 1.453125 -0.859375q0.703125 -0.640625 1.40625 -1.84375q0.703125 -1.1875 1.4375 -3.140625l0.453125 -0.8125l5.015625 -12.28125q0 -0.1875 -0.34375 -0.328125q-0.328125 -0.15625 -0.890625 -0.25q-0.546875 -0.09375 -1.15625 -0.09375l-0.171875 0l0 -1.890625l7.296875 0l0 1.921875l-0.1875 0q-0.546875 0 -1.0 0.125q-0.4375 0.125 -0.796875 0.453125q-0.34375 0.3125 -0.609375 0.953125l-5.5625 13.21875z" fill-rule="nonzero"/><path fill="#000000" fill-opacity="0.0" d="m46.153904 94.43044c-12.5 0 -27.0 11.779533 -25.0 23.55906c2.0 11.779526 20.5 23.559052 41.0 23.559052" fill-rule="evenodd"/><path stroke="#000000" stroke-width="1.0" stroke-linejoin="round" stroke-linecap="butt" d="m46.153904 94.43044c-12.5 0 -27.0 11.779533 -25.0 23.55906c1.0 5.889763 6.125 11.779526 13.5625 16.196854c3.71875 2.208664 8.015625 4.0492096 12.6640625 5.3376007c2.3242188 0.6441803 4.736328 1.1503448 7.208008 1.4954376c0.30895996 0.043151855 0.6188507 0.08377075 0.929615 0.12182617c0.15538406 0.01902771 0.31098557 0.03741455 0.46679688 0.055160522l0.17824173 0.01953125" fill-rule="evenodd"/><path fill="#000000" stroke="#000000" stroke-width="1.0" stroke-linecap="butt" d="m56.071556 142.8651l4.622692 -1.397583l-4.4395447 -1.9007874z" fill-rule="evenodd"/><path fill="#000000" fill-opacity="0.0" d="m77.514435 188.68242c-12.5 0 -27.000004 11.779526 -25.000004 23.559052c2.0 11.779526 20.500004 23.559052 41.000004 23.559052" fill-rule="evenodd"/><path stroke="#000000" stroke-width="1.0" stroke-linejoin="round" stroke-linecap="butt" d="m77.51443 188.68242c-12.5 0 -26.999996 11.779526 -24.999996 23.559052c1.0 5.8897705 6.125 11.779526 13.562496 16.196854c3.71875 2.208664 8.015625 4.0492096 12.6640625 5.3376007c2.3242188 0.6441803 4.7363358 1.1503448 7.2080154 1.4954376c0.30895996 0.043151855 0.6188431 0.08377075 0.9296112 0.12182617c0.15538788 0.01902771 0.31098175 0.03741455 0.4668045 0.055160522l0.17824554 0.019546509" fill-rule="evenodd"/><path fill="#000000" stroke="#000000" stroke-width="1.0" stroke-linecap="butt" d="m87.43209 237.11707l4.6226883 -1.397583l-4.4395447 -1.9007874z" fill-rule="evenodd"/><path fill="#000000" fill-opacity="0.0" d="m93.514435 235.8084c-12.5 0 -27.0 11.779526 -25.0 23.559067c2.0 11.7795105 20.5 23.559052 41.0 23.559052" fill-rule="evenodd"/><path stroke="#000000" stroke-width="1.0" stroke-linejoin="round" stroke-linecap="butt" d="m93.514435 235.8084c-12.5 0 -27.0 11.779526 -25.0 23.559067c1.0 5.8897705 6.125 11.7795105 13.5625 16.196838c3.71875 2.2086792 8.015625 4.049225 12.6640625 5.337616c2.3242188 0.64416504 4.7363205 1.1503296 7.208008 1.4954224c0.30895996 0.043151855 0.6188431 0.08377075 0.9296112 0.12182617c0.15538788 0.019042969 0.310997 0.03741455 0.4668045 0.05517578l0.17824554 0.01953125" fill-rule="evenodd"/><path fill="#000000" stroke="#000000" stroke-width="1.0" stroke-linecap="butt" d="m103.43209 284.24304l4.6226883 -1.397583l-4.4395447 -1.9007874z" fill-rule="evenodd"/><path fill="#000000" fill-opacity="0.0" d="m46.154854 -358.24146l207.59055 0l0 42.015747l-207.59055 0z" fill-rule="evenodd"/><path fill="#000000" fill-opacity="0.0" d="m77.514435 167.67455l221.29132 0l0 42.015747l-221.29132 0z" fill-rule="evenodd"/><path fill="#000000" d="m91.34256 182.59454l0 10.421875q0 0.140625 0.140625 0.234375q0.15625 0.078125 0.390625 0.125q0.234375 0.046875 0.515625 0.0625q0.296875 0 0.59375 0l0.359375 0l0 1.15625l-5.9375 0l0 -1.15625l0.203125 0q0.625 0 1.03125 -0.125q0.40625 -0.140625 0.40625 -0.546875l0 -9.59375q0 -0.40625 -0.40625 -0.53125q-0.40625 -0.140625 -1.03125 -0.140625l-0.203125 0l0 -1.15625l10.296875 0l0 3.734375l-1.296875 0l-0.1875 -1.65625q-0.046875 -0.34375 -0.296875 -0.515625q-0.234375 -0.171875 -0.703125 -0.234375q-0.46875 -0.078125 -1.203125 -0.078125l-2.671875 0zm-0.421875 4.8125q0.859375 -0.046875 1.6875 -0.078125q0.84375 -0.046875 1.6875 -0.09375q0.84375 -0.046875 1.671875 -0.0625l0 1.625q-0.828125 -0.0625 -1.671875 -0.09375q-0.84375 -0.046875 -1.6875 -0.09375q-0.828125 -0.046875 -1.6875 -0.0625l0 -1.140625zm9.945862 2.265625q0 1.046875 0.21875 1.78125q0.21875 0.734375 0.640625 1.1875q0.4375 0.453125 1.015625 0.671875q0.578125 0.21875 1.296875 0.21875q0.734375 0 1.296875 -0.25q0.5625 -0.265625 0.96875 -0.671875q0.421875 -0.421875 0.6875 -0.90625l1.03125 0.78125q-0.375 0.6875 -0.96875 1.21875q-0.578125 0.53125 -1.390625 0.828125q-0.796875 0.28125 -1.796875 0.28125q-1.515625 0 -2.703125 -0.59375q-1.171875 -0.609375 -1.84375 -1.765625q-0.671875 -1.15625 -0.671875 -2.796875q0 -1.59375 0.625 -2.78125q0.625 -1.1875 1.71875 -1.84375q1.09375 -0.65625 2.53125 -0.65625q1.140625 0 1.984375 0.359375q0.859375 0.34375 1.40625 1.0625q0.546875 0.71875 0.828125 1.796875q0.296875 1.0625 0.328125 2.5l-7.734375 0l0 -1.171875l6.03125 0l-0.46875 0.453125q-0.03125 -1.046875 -0.171875 -1.765625q-0.140625 -0.734375 -0.421875 -1.15625q-0.28125 -0.4375 -0.71875 -0.625q-0.421875 -0.203125 -1.03125 -0.203125q-0.625 0 -1.125 0.234375q-0.484375 0.234375 -0.84375 0.734375q-0.34375 0.484375 -0.53125 1.25q-0.1875 0.765625 -0.1875 1.828125zm15.335724 -1.171875l0 1.078125q-1.03125 0.125 -1.78125 0.3125q-0.75 0.1875 -1.25 0.40625q-0.484375 0.21875 -0.765625 0.484375q-0.28125 0.265625 -0.40625 0.59375q-0.109375 0.328125 -0.109375 0.71875q0 0.5 0.1875 0.828125q0.203125 0.328125 0.546875 0.5q0.359375 0.171875 0.84375 0.171875q0.53125 0 0.984375 -0.25q0.453125 -0.265625 0.875 -0.765625q0.421875 -0.5 0.84375 -1.28125l0.0625 1.0625q-0.375 0.78125 -0.875 1.328125q-0.484375 0.53125 -1.109375 0.828125q-0.625 0.28125 -1.40625 0.28125q-0.953125 0 -1.65625 -0.296875q-0.703125 -0.296875 -1.078125 -0.890625q-0.375 -0.59375 -0.375 -1.453125q0 -0.796875 0.359375 -1.375q0.359375 -0.578125 1.125 -1.0q0.765625 -0.4375 1.984375 -0.734375q1.234375 -0.3125 3.0 -0.546875zm0.015625 6.09375l-0.234375 -2.125l-0.109375 -0.0625l0 -5.0625q0 -0.625 -0.171875 -1.0q-0.15625 -0.375 -0.5625 -0.546875q-0.40625 -0.171875 -1.109375 -0.171875q-1.03125 0 -1.6875 0.296875q-0.65625 0.28125 -0.984375 0.609375q-0.03125 -0.140625 0.015625 -0.28125q0.046875 -0.15625 0.15625 -0.296875q0.125 -0.140625 0.3125 -0.25q0.1875 -0.109375 0.453125 -0.125l0 2.171875l-1.984375 0l0 -2.3125q0.265625 -0.203125 0.796875 -0.4375q0.53125 -0.25 1.296875 -0.4375q0.78125 -0.1875 1.78125 -0.1875q0.859375 0 1.546875 0.15625q0.703125 0.15625 1.21875 0.515625q0.53125 0.34375 0.8125 0.90625q0.28125 0.5625 0.28125 1.359375l0 5.46875q0 0.25 0.15625 0.375q0.171875 0.125 0.46875 0.203125q0.3125 0.0625 0.734375 0.109375l0.09375 0.046875l0 1.078125l-3.28125 0zm11.7285 -10.15625l0 2.203125q-0.125 -0.03125 -0.328125 -0.0625q-0.203125 -0.03125 -0.4375 -0.03125q-0.234375 -0.015625 -0.4375 -0.015625q-0.484375 0 -0.890625 0.09375q-0.390625 0.078125 -0.734375 0.265625q-0.328125 0.171875 -0.625 0.46875q-0.296875 0.28125 -0.609375 0.703125l-0.015625 -0.796875q0.46875 -0.9375 0.9375 -1.578125q0.46875 -0.640625 1.0625 -0.96875q0.59375 -0.34375 1.375 -0.34375q0.21875 0 0.421875 0.015625q0.203125 0.015625 0.28125 0.046875zm-7.359375 10.15625l0 -1.0l0.046875 0q0.640625 0 1.015625 -0.203125q0.390625 -0.21875 0.390625 -0.8125l0 -6.09375q0 -0.265625 -0.140625 -0.390625q-0.140625 -0.140625 -0.4375 -0.21875q-0.28125 -0.09375 -0.71875 -0.15625l-0.15625 -0.046875l0 -1.109375l3.3125 0l0.25 2.640625l0.09375 -0.078125l0 6.109375q0 0.140625 0.234375 0.234375q0.25 0.078125 0.5625 0.109375q0.328125 0.015625 0.609375 0.015625l0.359375 0l0 1.0l-5.421875 0zm15.981949 -5.78125q0 -1.46875 0.296875 -2.71875q0.3125 -1.25 0.84375 -2.28125q0.53125 -1.03125 1.1875 -1.8125q0.65625 -0.796875 1.328125 -1.34375l0 -0.0625l-1.5625 0q-0.828125 0.53125 -1.59375 1.359375q-0.75 0.8125 -1.34375 1.859375q-0.578125 1.046875 -0.921875 2.3125q-0.328125 1.265625 -0.328125 2.6875q0 1.421875 0.328125 2.6875q0.34375 1.265625 0.921875 2.3125q0.59375 1.046875 1.34375 1.859375q0.765625 0.828125 1.59375 1.34375l1.5625 0l0 -0.046875q-0.671875 -0.546875 -1.328125 -1.34375q-0.65625 -0.78125 -1.1875 -1.8125q-0.53125 -1.03125 -0.84375 -2.28125q-0.296875 -1.25 -0.296875 -2.71875zm11.442215 -0.3125l0 1.078125q-1.03125 0.125 -1.78125 0.3125q-0.75 0.1875 -1.25 0.40625q-0.484375 0.21875 -0.765625 0.484375q-0.28125 0.265625 -0.40625 0.59375q-0.109375 0.328125 -0.109375 0.71875q0 0.5 0.1875 0.828125q0.203125 0.328125 0.546875 0.5q0.359375 0.171875 0.84375 0.171875q0.53125 0 0.984375 -0.25q0.453125 -0.265625 0.875 -0.765625q0.421875 -0.5 0.84375 -1.28125l0.0625 1.0625q-0.375 0.78125 -0.875 1.328125q-0.484375 0.53125 -1.109375 0.828125q-0.625 0.28125 -1.40625 0.28125q-0.953125 0 -1.65625 -0.296875q-0.703125 -0.296875 -1.078125 -0.890625q-0.375 -0.59375 -0.375 -1.453125q0 -0.796875 0.359375 -1.375q0.359375 -0.578125 1.125 -1.0q0.765625 -0.4375 1.984375 -0.734375q1.234375 -0.3125 3.0 -0.546875zm0.015625 6.09375l-0.234375 -2.125l-0.109375 -0.0625l0 -5.0625q0 -0.625 -0.171875 -1.0q-0.15625 -0.375 -0.5625 -0.546875q-0.40625 -0.171875 -1.109375 -0.171875q-1.03125 0 -1.6875 0.296875q-0.65625 0.28125 -0.984375 0.609375q-0.03125 -0.140625 0.015625 -0.28125q0.046875 -0.15625 0.15625 -0.296875q0.125 -0.140625 0.3125 -0.25q0.1875 -0.109375 0.453125 -0.125l0 2.171875l-1.984375 0l0 -2.3125q0.265625 -0.203125 0.796875 -0.4375q0.53125 -0.25 1.296875 -0.4375q0.78125 -0.1875 1.78125 -0.1875q0.859375 0 1.546875 0.15625q0.703125 0.15625 1.21875 0.515625q0.53125 0.34375 0.8125 0.90625q0.28125 0.5625 0.28125 1.359375l0 5.46875q0 0.25 0.15625 0.375q0.171875 0.125 0.46875 0.203125q0.3125 0.0625 0.734375 0.109375l0.09375 0.046875l0 1.078125l-3.28125 0zm12.074341 -8.546875q0 -0.09375 -0.21875 -0.1875q-0.203125 -0.109375 -0.515625 -0.15625q-0.296875 -0.046875 -0.65625 -0.046875l-0.09375 0l0 -1.09375l4.15625 0l0 1.109375l-0.078125 0q-0.34375 0 -0.609375 0.078125q-0.25 0.078125 -0.453125 0.28125q-0.1875 0.1875 -0.34375 0.578125l-3.015625 8.078125l-2.328125 0l-3.0 -8.1875q-0.125 -0.34375 -0.3125 -0.515625q-0.1875 -0.171875 -0.46875 -0.234375q-0.265625 -0.078125 -0.640625 -0.078125l-0.0625 0l0 -1.109375l5.015625 0l0 1.09375l-0.09375 0q-0.375 0 -0.71875 0.015625q-0.328125 0 -0.546875 0.03125q-0.203125 0.03125 -0.203125 0.109375l2.828125 7.9375l-0.3125 -0.328125l2.671875 -7.375zm13.82019 3.546875q0 1.578125 -0.640625 2.765625q-0.625 1.171875 -1.8125 1.8125q-1.171875 0.640625 -2.75 0.640625q-1.59375 0 -2.765625 -0.640625q-1.15625 -0.640625 -1.796875 -1.8125q-0.640625 -1.1875 -0.640625 -2.765625q0 -1.1875 0.359375 -2.15625q0.359375 -0.984375 1.03125 -1.65625q0.6875 -0.6875 1.640625 -1.046875q0.96875 -0.359375 2.171875 -0.359375q1.1875 0 2.140625 0.359375q0.96875 0.359375 1.640625 1.046875q0.6875 0.671875 1.046875 1.65625q0.375 0.96875 0.375 2.15625zm-8.125 0q0 1.328125 0.328125 2.203125q0.328125 0.875 0.96875 1.3125q0.65625 0.4375 1.625 0.4375q0.984375 0 1.625 -0.421875q0.640625 -0.4375 0.953125 -1.3125q0.328125 -0.890625 0.328125 -2.21875q0 -1.3125 -0.328125 -2.1875q-0.3125 -0.875 -0.953125 -1.3125q-0.640625 -0.453125 -1.625 -0.453125q-0.96875 0 -1.625 0.453125q-0.640625 0.4375 -0.96875 1.3125q-0.328125 0.875 -0.328125 2.1875zm12.114441 -6.828125q-0.65625 0 -1.046875 -0.328125q-0.390625 -0.34375 -0.390625 -1.015625q0 -0.640625 0.390625 -0.96875q0.390625 -0.34375 1.046875 -0.34375q0.640625 0 1.03125 0.34375q0.390625 0.328125 0.390625 0.96875q0 0.65625 -0.390625 1.0q-0.390625 0.34375 -1.03125 0.34375zm1.21875 1.796875l0 8.09375q0 0.5625 0.375 0.75q0.390625 0.1875 1.03125 0.1875l0.0625 0l0 1.0l-5.125 0l0 -1.0l0.046875 0q0.65625 0 1.03125 -0.1875q0.390625 -0.1875 0.390625 -0.75l0 -6.171875q0 -0.375 -0.328125 -0.5q-0.3125 -0.140625 -0.953125 -0.265625l-0.1875 -0.046875l0 -1.109375l3.65625 0zm12.799286 8.21875q0 0.375 0.359375 0.5q0.359375 0.125 0.96875 0.1875l0.125 0.046875l0 1.078125l-3.328125 0l-0.234375 -2.21875l-0.09375 0.046875l0 -10.046875q0 -0.265625 -0.140625 -0.390625q-0.140625 -0.140625 -0.4375 -0.21875q-0.296875 -0.078125 -0.734375 -0.171875l-0.1875 -0.046875l0 -1.09375l3.703125 0l0 12.328125zm-5.40625 -8.40625q0.84375 0 1.5 0.296875q0.671875 0.296875 1.203125 0.859375q0.53125 0.5625 0.953125 1.375l-0.046875 1.265625q-0.46875 -0.828125 -0.953125 -1.359375q-0.484375 -0.546875 -1.046875 -0.8125q-0.5625 -0.265625 -1.25 -0.265625q-0.65625 0 -1.15625 0.265625q-0.5 0.25 -0.84375 0.75q-0.328125 0.5 -0.5 1.234375q-0.171875 0.734375 -0.171875 1.6875q0 0.90625 0.15625 1.625q0.15625 0.703125 0.46875 1.1875q0.3125 0.46875 0.78125 0.71875q0.484375 0.234375 1.15625 0.234375q0.703125 0 1.265625 -0.25q0.578125 -0.265625 1.09375 -0.828125q0.515625 -0.5625 1.015625 -1.421875l0.03125 1.21875q-0.484375 0.828125 -1.03125 1.4375q-0.53125 0.59375 -1.21875 0.90625q-0.671875 0.296875 -1.578125 0.296875q-1.40625 0 -2.40625 -0.640625q-0.984375 -0.640625 -1.5 -1.796875q-0.515625 -1.15625 -0.515625 -2.6875q0 -1.546875 0.546875 -2.734375q0.546875 -1.1875 1.578125 -1.875q1.046875 -0.6875 2.46875 -0.6875zm17.027328 8.890625l0 -10.671875l2.125 0q0.875 0 1.46875 0.3125q0.59375 0.3125 0.875 0.90625q0.296875 0.59375 0.296875 1.515625q0 0.90625 -0.296875 1.53125q-0.296875 0.625 -0.890625 0.953125q-0.59375 0.328125 -1.515625 0.328125l-2.609375 0l0 1.25l2.828125 0q1.484375 0 2.578125 -0.484375q1.09375 -0.5 1.6875 -1.40625q0.609375 -0.921875 0.609375 -2.21875q0 -1.90625 -1.265625 -2.921875q-1.265625 -1.015625 -3.546875 -1.015625l-6.296875 0l0 1.140625l0.203125 0q0.609375 0 1.015625 0.140625q0.421875 0.125 0.421875 0.53125l0 9.625q0 0.40625 -0.421875 0.546875q-0.40625 0.125 -1.015625 0.125l-0.203125 0l0 1.140625l5.828125 0l0 -1.15625l-0.421875 0q-0.28125 0 -0.53125 0q-0.25 -0.015625 -0.46875 -0.03125q-0.21875 -0.03125 -0.34375 -0.046875q-0.109375 -0.03125 -0.109375 -0.09375zm14.962601 -4.765625l0 1.078125q-1.03125 0.125 -1.78125 0.3125q-0.75 0.1875 -1.25 0.40625q-0.484375 0.21875 -0.765625 0.484375q-0.28125 0.265625 -0.40625 0.59375q-0.109375 0.328125 -0.109375 0.71875q0 0.5 0.1875 0.828125q0.203125 0.328125 0.546875 0.5q0.359375 0.171875 0.84375 0.171875q0.53125 0 0.984375 -0.25q0.453125 -0.265625 0.875 -0.765625q0.421875 -0.5 0.84375 -1.28125l0.0625 1.0625q-0.375 0.78125 -0.875 1.328125q-0.484375 0.53125 -1.109375 0.828125q-0.625 0.28125 -1.40625 0.28125q-0.953125 0 -1.65625 -0.296875q-0.703125 -0.296875 -1.078125 -0.890625q-0.375 -0.59375 -0.375 -1.453125q0 -0.796875 0.359375 -1.375q0.359375 -0.578125 1.125 -1.0q0.765625 -0.4375 1.984375 -0.734375q1.234375 -0.3125 3.0 -0.546875zm0.015625 6.09375l-0.234375 -2.125l-0.109375 -0.0625l0 -5.0625q0 -0.625 -0.171875 -1.0q-0.15625 -0.375 -0.5625 -0.546875q-0.40625 -0.171875 -1.109375 -0.171875q-1.03125 0 -1.6875 0.296875q-0.65625 0.28125 -0.984375 0.609375q-0.03125 -0.140625 0.015625 -0.28125q0.046875 -0.15625 0.15625 -0.296875q0.125 -0.140625 0.3125 -0.25q0.1875 -0.109375 0.453125 -0.125l0 2.171875l-1.984375 0l0 -2.3125q0.265625 -0.203125 0.796875 -0.4375q0.53125 -0.25 1.296875 -0.4375q0.78125 -0.1875 1.78125 -0.1875q0.859375 0 1.546875 0.15625q0.703125 0.15625 1.21875 0.515625q0.53125 0.34375 0.8125 0.90625q0.28125 0.5625 0.28125 1.359375l0 5.46875q0 0.25 0.15625 0.375q0.171875 0.125 0.46875 0.203125q0.3125 0.0625 0.734375 0.109375l0.09375 0.046875l0 1.078125l-3.28125 0zm6.8066254 -11.828125q-0.65625 0 -1.046875 -0.328125q-0.390625 -0.34375 -0.390625 -1.015625q0 -0.640625 0.390625 -0.96875q0.390625 -0.34375 1.046875 -0.34375q0.640625 0 1.03125 0.34375q0.390625 0.328125 0.390625 0.96875q0 0.65625 -0.390625 1.0q-0.390625 0.34375 -1.03125 0.34375zm1.21875 1.796875l0 8.09375q0 0.5625 0.375 0.75q0.390625 0.1875 1.03125 0.1875l0.0625 0l0 1.0l-5.125 0l0 -1.0l0.046875 0q0.65625 0 1.03125 -0.1875q0.390625 -0.1875 0.390625 -0.75l0 -6.171875q0 -0.375 -0.328125 -0.5q-0.3125 -0.140625 -0.953125 -0.265625l-0.1875 -0.046875l0 -1.109375l3.65625 0zm2.705536 10.03125l0 -1.0l0.046875 0q0.4375 0 0.75 -0.078125q0.3125 -0.09375 0.484375 -0.3125q0.171875 -0.234375 0.171875 -0.625l0 -6.09375q0 -0.265625 -0.140625 -0.390625q-0.140625 -0.140625 -0.4375 -0.21875q-0.28125 -0.09375 -0.71875 -0.15625l-0.15625 -0.046875l0 -1.109375l3.328125 0l0.234375 2.171875l0.09375 0.078125l0 6.609375q0 0.046875 0.1875 0.09375q0.203125 0.03125 0.46875 0.0625q0.28125 0.015625 0.53125 0.015625l0.078125 0l0 1.0l-4.921875 0zm11.578125 0l-4.921875 0l0 -1.0l0.046875 0q0.25 0 0.53125 -0.015625q0.28125 -0.03125 0.46875 -0.0625q0.203125 -0.046875 0.203125 -0.09375l0 -5.984375q0 -0.546875 -0.140625 -0.890625q-0.125 -0.359375 -0.4375 -0.53125q-0.3125 -0.1875 -0.859375 -0.1875q-0.5625 0 -1.109375 0.25q-0.53125 0.234375 -1.046875 0.734375q-0.515625 0.484375 -1.03125 1.234375l0 -1.15625q0.5 -0.796875 1.09375 -1.359375q0.59375 -0.5625 1.296875 -0.859375q0.71875 -0.296875 1.515625 -0.296875q0.9375 0 1.578125 0.3125q0.65625 0.3125 1.0 0.96875q0.34375 0.640625 0.34375 1.609375l0 5.3125q0 0.390625 0.171875 0.625q0.171875 0.21875 0.484375 0.3125q0.3125 0.078125 0.75 0.078125l0.0625 0l0 1.0zm4.2491302 -5.78125q0 1.46875 -0.3125 2.71875q-0.296875 1.25 -0.828125 2.28125q-0.53125 1.03125 -1.1875 1.8125q-0.65625 0.796875 -1.34375 1.34375l0 0.046875l1.59375 0q0.8125 -0.515625 1.5625 -1.34375q0.765625 -0.8125 1.34375 -1.859375q0.578125 -1.046875 0.921875 -2.3125q0.34375 -1.265625 0.34375 -2.6875q0 -1.421875 -0.34375 -2.6875q-0.34375 -1.265625 -0.921875 -2.3125q-0.578125 -1.046875 -1.34375 -1.859375q-0.75 -0.828125 -1.5625 -1.359375l-1.59375 0l0 0.0625q0.6875 0.546875 1.34375 1.34375q0.65625 0.78125 1.1875 1.8125q0.53125 1.03125 0.828125 2.28125q0.3125 1.25 0.3125 2.71875z" fill-rule="nonzero"/><path fill="#000000" fill-opacity="0.0" d="m62.154854 141.55643c-12.500023 0 -26.921307 11.779526 -25.000046 23.559052c1.9212608 11.779541 20.185062 23.559067 40.370125 23.559067" fill-rule="evenodd"/><path stroke="#000000" stroke-width="1.0" stroke-linejoin="round" stroke-linecap="butt" d="m62.154854 141.55643c-12.500023 0 -26.921307 11.779526 -25.000046 23.559052c0.9606285 5.8897705 6.006897 11.779541 13.336132 16.196854c3.6646233 2.208664 7.8999863 4.0492096 12.4807625 5.3376007c2.29039 0.64419556 4.667137 1.1503448 7.1020584 1.4954529c0.30436707 0.043136597 0.609642 0.08375549 0.9157715 0.12181091c0.15306091 0.019042969 0.30634308 0.03742981 0.4598236 0.055160522l0.085372925 0.009506226" fill-rule="evenodd"/><path fill="#000000" stroke="#000000" stroke-width="1.0" stroke-linecap="butt" d="m71.44039 189.9809l4.6250305 -1.3898468l-4.4363556 -1.9082184z" fill-rule="evenodd"/><path fill="#000000" fill-opacity="0.0" d="m62.154854 120.54855l236.0315 0l0 42.015747l-236.0315 0z" fill-rule="evenodd"/><path fill="#000000" d="m76.70173 145.64043l0 -10.1875l-0.90625 0q-0.8125 0 -1.3125 0.09375q-0.5 0.078125 -0.734375 0.28125q-0.21875 0.1875 -0.265625 0.515625l-0.203125 2.1875l-1.296875 0l0 -4.3125l11.75 0l0 4.3125l-1.3125 0l-0.203125 -2.1875q-0.015625 -0.328125 -0.265625 -0.515625q-0.234375 -0.203125 -0.734375 -0.28125q-0.484375 -0.09375 -1.3125 -0.09375l-0.890625 0l0 10.1875q0 0.40625 0.421875 0.546875q0.4375 0.125 1.046875 0.125l0.328125 0l0 1.15625l-5.921875 0l0 -1.15625l0.3125 0q0.640625 0 1.0625 -0.125q0.4375 -0.140625 0.4375 -0.546875zm12.276276 -12.3125l0 12.96875q0 0.046875 0.203125 0.09375q0.203125 0.03125 0.484375 0.0625q0.28125 0.015625 0.5 0.015625l0.078125 0l0 1.0l-4.921875 0l0 -1.0l0.046875 0q0.4375 0 0.75 -0.078125q0.3125 -0.09375 0.484375 -0.3125q0.171875 -0.234375 0.171875 -0.625l0 -10.203125q0 -0.265625 -0.140625 -0.390625q-0.140625 -0.140625 -0.421875 -0.21875q-0.28125 -0.09375 -0.703125 -0.171875l-0.1875 -0.046875l0 -1.09375l3.65625 0zm7.921875 14.140625l-4.921875 0l0 -1.0l0.046875 0q0.25 0 0.53125 -0.015625q0.28125 -0.03125 0.484375 -0.0625q0.203125 -0.046875 0.203125 -0.09375l0 -5.984375q0 -0.546875 -0.140625 -0.890625q-0.140625 -0.359375 -0.453125 -0.53125q-0.3125 -0.1875 -0.859375 -0.1875q-0.5625 0 -1.109375 0.25q-0.53125 0.234375 -1.046875 0.734375q-0.515625 0.484375 -1.03125 1.234375l0.015625 -1.15625q0.5 -0.796875 1.09375 -1.359375q0.609375 -0.5625 1.296875 -0.859375q0.703125 -0.296875 1.5 -0.296875q0.9375 0 1.59375 0.3125q0.65625 0.3125 1.0 0.96875q0.34375 0.640625 0.34375 1.609375l0 5.3125q0 0.390625 0.15625 0.625q0.171875 0.21875 0.484375 0.3125q0.328125 0.078125 0.75 0.078125l0.0625 0l0 1.0zm8.560791 -10.15625l0 2.203125q-0.125 -0.03125 -0.328125 -0.0625q-0.203125 -0.03125 -0.4375 -0.03125q-0.234375 -0.015625 -0.4375 -0.015625q-0.484375 0 -0.890625 0.09375q-0.390625 0.078125 -0.734375 0.265625q-0.328125 0.171875 -0.625 0.46875q-0.296875 0.28125 -0.609375 0.703125l-0.015625 -0.796875q0.46875 -0.9375 0.9375 -1.578125q0.46875 -0.640625 1.0625 -0.96875q0.59375 -0.34375 1.375 -0.34375q0.21875 0 0.421875 0.015625q0.203125 0.015625 0.28125 0.046875zm-7.359375 10.15625l0 -1.0l0.046875 0q0.640625 0 1.015625 -0.203125q0.390625 -0.21875 0.390625 -0.8125l0 -6.09375q0 -0.265625 -0.140625 -0.390625q-0.140625 -0.140625 -0.4375 -0.21875q-0.28125 -0.09375 -0.71875 -0.15625l-0.15625 -0.046875l0 -1.109375l3.3125 0l0.25 2.640625l0.09375 -0.078125l0 6.109375q0 0.140625 0.234375 0.234375q0.25 0.078125 0.5625 0.109375q0.328125 0.015625 0.609375 0.015625l0.359375 0l0 1.0l-5.421875 0zm10.782318 -4.921875q0 1.046875 0.21875 1.78125q0.21875 0.734375 0.640625 1.1875q0.4375 0.453125 1.015625 0.671875q0.578125 0.21875 1.296875 0.21875q0.734375 0 1.296875 -0.25q0.5625 -0.265625 0.96875 -0.671875q0.421875 -0.421875 0.6875 -0.90625l1.03125 0.78125q-0.375 0.6875 -0.96875 1.21875q-0.578125 0.53125 -1.390625 0.828125q-0.796875 0.28125 -1.796875 0.28125q-1.515625 0 -2.703125 -0.59375q-1.171875 -0.609375 -1.84375 -1.765625q-0.671875 -1.15625 -0.671875 -2.796875q0 -1.59375 0.625 -2.78125q0.625 -1.1875 1.71875 -1.84375q1.09375 -0.65625 2.53125 -0.65625q1.140625 0 1.984375 0.359375q0.859375 0.34375 1.40625 1.0625q0.546875 0.71875 0.828125 1.796875q0.296875 1.0625 0.328125 2.5l-7.734375 0l0 -1.171875l6.03125 0l-0.46875 0.453125q-0.03125 -1.046875 -0.171875 -1.765625q-0.140625 -0.734375 -0.421875 -1.15625q-0.28125 -0.4375 -0.71875 -0.625q-0.421875 -0.203125 -1.03125 -0.203125q-0.625 0 -1.125 0.234375q-0.484375 0.234375 -0.84375 0.734375q-0.34375 0.484375 -0.53125 1.25q-0.1875 0.765625 -0.1875 1.828125zm15.335724 -1.171875l0 1.078125q-1.03125 0.125 -1.78125 0.3125q-0.75 0.1875 -1.25 0.40625q-0.484375 0.21875 -0.765625 0.484375q-0.28125 0.265625 -0.40625 0.59375q-0.109375 0.328125 -0.109375 0.71875q0 0.5 0.1875 0.828125q0.203125 0.328125 0.546875 0.5q0.359375 0.171875 0.84375 0.171875q0.53125 0 0.984375 -0.25q0.453125 -0.265625 0.875 -0.765625q0.421875 -0.5 0.84375 -1.28125l0.0625 1.0625q-0.375 0.78125 -0.875 1.328125q-0.484375 0.53125 -1.109375 0.828125q-0.625 0.28125 -1.40625 0.28125q-0.953125 0 -1.65625 -0.296875q-0.703125 -0.296875 -1.078125 -0.890625q-0.375 -0.59375 -0.375 -1.453125q0 -0.796875 0.359375 -1.375q0.359375 -0.578125 1.125 -1.0q0.765625 -0.4375 1.984375 -0.734375q1.234375 -0.3125 3.0 -0.546875zm0.015625 6.09375l-0.234375 -2.125l-0.109375 -0.0625l0 -5.0625q0 -0.625 -0.171875 -1.0q-0.15625 -0.375 -0.5625 -0.546875q-0.40625 -0.171875 -1.109375 -0.171875q-1.03125 0 -1.6875 0.296875q-0.65625 0.28125 -0.984375 0.609375q-0.03125 -0.140625 0.015625 -0.28125q0.046875 -0.15625 0.15625 -0.296875q0.125 -0.140625 0.3125 -0.25q0.1875 -0.109375 0.453125 -0.125l0 2.171875l-1.984375 0l0 -2.3125q0.265625 -0.203125 0.796875 -0.4375q0.53125 -0.25 1.296875 -0.4375q0.78125 -0.1875 1.78125 -0.1875q0.859375 0 1.546875 0.15625q0.703125 0.15625 1.21875 0.515625q0.53125 0.34375 0.8125 0.90625q0.28125 0.5625 0.28125 1.359375l0 5.46875q0 0.25 0.15625 0.375q0.171875 0.125 0.46875 0.203125q0.3125 0.0625 0.734375 0.109375l0.09375 0.046875l0 1.078125l-3.28125 0zm3.6420898 -8.78125l0 -1.15625l0.17188263 0q0.578125 0 0.984375 -0.078125q0.40625 -0.078125 0.609375 -0.328125q0.203125 -0.265625 0.203125 -0.75l1.46875 1.0625l3.734375 0l0 1.25l-7.1718826 0zm4.0625076 5.6875q0 0.75 0.203125 1.171875q0.203125 0.40625 0.59375 0.59375q0.40625 0.171875 0.96875 0.171875q0.46875 0 0.859375 -0.0625q0.40625 -0.0625 0.5625 -0.109375l0 1.265625q-0.203125 0.0625 -0.5 0.125q-0.296875 0.0625 -0.65625 0.09375q-0.34375 0.046875 -0.703125 0.046875q-0.953125 0 -1.765625 -0.265625q-0.8125 -0.265625 -1.296875 -0.96875q-0.46875 -0.703125 -0.46875 -1.984375l0 -6.71875l0.109375 -0.15625l0 -3.0l2.09375 0l0 9.796875zm19.906631 -1.90625q0 1.578125 -0.640625 2.765625q-0.625 1.171875 -1.8125 1.8125q-1.171875 0.640625 -2.75 0.640625q-1.59375 0 -2.765625 -0.640625q-1.15625 -0.640625 -1.796875 -1.8125q-0.640625 -1.1875 -0.640625 -2.765625q0 -1.1875 0.359375 -2.15625q0.359375 -0.984375 1.03125 -1.65625q0.6875 -0.6875 1.640625 -1.046875q0.96875 -0.359375 2.171875 -0.359375q1.1875 0 2.140625 0.359375q0.96875 0.359375 1.640625 1.046875q0.6875 0.671875 1.046875 1.65625q0.375 0.96875 0.375 2.15625zm-8.125 0q0 1.328125 0.328125 2.203125q0.328125 0.875 0.96875 1.3125q0.65625 0.4375 1.625 0.4375q0.984375 0 1.625 -0.421875q0.640625 -0.4375 0.953125 -1.3125q0.328125 -0.890625 0.328125 -2.21875q0 -1.3125 -0.328125 -2.1875q-0.3125 -0.875 -0.953125 -1.3125q-0.640625 -0.453125 -1.625 -0.453125q-0.96875 0 -1.625 0.453125q-0.640625 0.4375 -0.96875 1.3125q-0.328125 0.875 -0.328125 2.1875zm9.480728 -5.03125l7.0 0l0 1.21875l-7.0 0l0 -1.21875zm7.8125 -4.125l0 1.34375q-0.234375 -0.078125 -0.71875 -0.171875q-0.46875 -0.09375 -1.0625 -0.09375q-0.59375 0 -1.03125 0.1875q-0.421875 0.171875 -0.65625 0.609375q-0.21875 0.4375 -0.21875 1.21875l0 9.890625q0 0.046875 0.25 0.09375q0.265625 0.03125 0.640625 0.0625q0.375 0.015625 0.75 0.015625l0.40625 0l0 1.0l-6.09375 0l0 -1.0l0.328125 0q0.734375 0 1.125 -0.203125q0.40625 -0.21875 0.40625 -0.828125l0 -9.03125q0 -1.28125 0.546875 -2.0q0.546875 -0.71875 1.4375 -1.0q0.90625 -0.296875 1.953125 -0.296875q0.640625 0 1.1875 0.0625q0.546875 0.0625 0.75 0.140625zm9.359756 12.828125l0 -10.671875l2.125 0q0.875 0 1.46875 0.3125q0.59375 0.3125 0.875 0.90625q0.296875 0.59375 0.296875 1.515625q0 0.90625 -0.296875 1.53125q-0.296875 0.625 -0.890625 0.953125q-0.59375 0.328125 -1.515625 0.328125l-2.609375 0l0 1.25l2.828125 0q1.484375 0 2.578125 -0.484375q1.09375 -0.5 1.6875 -1.40625q0.609375 -0.921875 0.609375 -2.21875q0 -1.90625 -1.265625 -2.921875q-1.265625 -1.015625 -3.546875 -1.015625l-6.296875 0l0 1.140625l0.203125 0q0.609375 0 1.015625 0.140625q0.421875 0.125 0.421875 0.53125l0 9.625q0 0.40625 -0.421875 0.546875q-0.40625 0.125 -1.015625 0.125l-0.203125 0l0 1.140625l5.828125 0l0 -1.15625l-0.421875 0q-0.28125 0 -0.53125 0q-0.25 -0.015625 -0.46875 -0.03125q-0.21875 -0.03125 -0.34375 -0.046875q-0.109375 -0.03125 -0.109375 -0.09375zm14.962601 -4.765625l0 1.078125q-1.03125 0.125 -1.78125 0.3125q-0.75 0.1875 -1.25 0.40625q-0.484375 0.21875 -0.765625 0.484375q-0.28125 0.265625 -0.40625 0.59375q-0.109375 0.328125 -0.109375 0.71875q0 0.5 0.1875 0.828125q0.203125 0.328125 0.546875 0.5q0.359375 0.171875 0.84375 0.171875q0.53125 0 0.984375 -0.25q0.453125 -0.265625 0.875 -0.765625q0.421875 -0.5 0.84375 -1.28125l0.0625 1.0625q-0.375 0.78125 -0.875 1.328125q-0.484375 0.53125 -1.109375 0.828125q-0.625 0.28125 -1.40625 0.28125q-0.953125 0 -1.65625 -0.296875q-0.703125 -0.296875 -1.078125 -0.890625q-0.375 -0.59375 -0.375 -1.453125q0 -0.796875 0.359375 -1.375q0.359375 -0.578125 1.125 -1.0q0.765625 -0.4375 1.984375 -0.734375q1.234375 -0.3125 3.0 -0.546875zm0.015625 6.09375l-0.234375 -2.125l-0.109375 -0.0625l0 -5.0625q0 -0.625 -0.171875 -1.0q-0.15625 -0.375 -0.5625 -0.546875q-0.40625 -0.171875 -1.109375 -0.171875q-1.03125 0 -1.6875 0.296875q-0.65625 0.28125 -0.984375 0.609375q-0.03125 -0.140625 0.015625 -0.28125q0.046875 -0.15625 0.15625 -0.296875q0.125 -0.140625 0.3125 -0.25q0.1875 -0.109375 0.453125 -0.125l0 2.171875l-1.984375 0l0 -2.3125q0.265625 -0.203125 0.796875 -0.4375q0.53125 -0.25 1.296875 -0.4375q0.78125 -0.1875 1.78125 -0.1875q0.859375 0 1.546875 0.15625q0.703125 0.15625 1.21875 0.515625q0.53125 0.34375 0.8125 0.90625q0.28125 0.5625 0.28125 1.359375l0 5.46875q0 0.25 0.15625 0.375q0.171875 0.125 0.46875 0.203125q0.3125 0.0625 0.734375 0.109375l0.09375 0.046875l0 1.078125l-3.28125 0zm6.8066254 -11.828125q-0.65625 0 -1.046875 -0.328125q-0.390625 -0.34375 -0.390625 -1.015625q0 -0.640625 0.390625 -0.96875q0.390625 -0.34375 1.046875 -0.34375q0.640625 0 1.03125 0.34375q0.390625 0.328125 0.390625 0.96875q0 0.65625 -0.390625 1.0q-0.390625 0.34375 -1.03125 0.34375zm1.21875 1.796875l0 8.09375q0 0.5625 0.375 0.75q0.390625 0.1875 1.03125 0.1875l0.0625 0l0 1.0l-5.125 0l0 -1.0l0.046875 0q0.65625 0 1.03125 -0.1875q0.390625 -0.1875 0.390625 -0.75l0 -6.171875q0 -0.375 -0.328125 -0.5q-0.3125 -0.140625 -0.953125 -0.265625l-0.1875 -0.046875l0 -1.109375l3.65625 0zm2.705536 10.03125l0 -1.0l0.046875 0q0.4375 0 0.75 -0.078125q0.3125 -0.09375 0.484375 -0.3125q0.171875 -0.234375 0.171875 -0.625l0 -6.09375q0 -0.265625 -0.140625 -0.390625q-0.140625 -0.140625 -0.4375 -0.21875q-0.28125 -0.09375 -0.71875 -0.15625l-0.15625 -0.046875l0 -1.109375l3.328125 0l0.234375 2.171875l0.09375 0.078125l0 6.609375q0 0.046875 0.1875 0.09375q0.203125 0.03125 0.46875 0.0625q0.28125 0.015625 0.53125 0.015625l0.078125 0l0 1.0l-4.921875 0zm11.578125 0l-4.921875 0l0 -1.0l0.046875 0q0.25 0 0.53125 -0.015625q0.28125 -0.03125 0.46875 -0.0625q0.203125 -0.046875 0.203125 -0.09375l0 -5.984375q0 -0.546875 -0.140625 -0.890625q-0.125 -0.359375 -0.4375 -0.53125q-0.3125 -0.1875 -0.859375 -0.1875q-0.5625 0 -1.109375 0.25q-0.53125 0.234375 -1.046875 0.734375q-0.515625 0.484375 -1.03125 1.234375l0 -1.15625q0.5 -0.796875 1.09375 -1.359375q0.59375 -0.5625 1.296875 -0.859375q0.71875 -0.296875 1.515625 -0.296875q0.9375 0 1.578125 0.3125q0.65625 0.3125 1.0 0.96875q0.34375 0.640625 0.34375 1.609375l0 5.3125q0 0.390625 0.171875 0.625q0.171875 0.21875 0.484375 0.3125q0.3125 0.078125 0.75 0.078125l0.0625 0l0 1.0z" fill-rule="nonzero"/></g></svg>