<svg version="1.1" viewBox="0.0 0.0 391.6509186351706 289.18635170603676" fill="none" stroke="none" stroke-linecap="square" stroke-miterlimit="10" xmlns:xlink="http://www.w3.org/1999/xlink" xmlns="http://www.w3.org/2000/svg"><clipPath id="p.0"><path d="m0 0l391.6509 0l0 289.18634l-391.6509 0l0 -289.18634z" clip-rule="nonzero"/></clipPath><g clip-path="url(#p.0)"><path fill="#000000" fill-opacity="0.0" d="m0 0l391.6509 0l0 289.18634l-391.6509 0z" fill-rule="evenodd"/><path fill="#ffff00" d="m134.5547 17.102661l0 0c0 -8.242399 6.681793 -14.924183 14.924179 -14.924183l224.89178 0c3.9581604 0 7.754181 1.5723648 10.553009 4.371192c2.7988281 2.7988276 4.3711853 6.594852 4.3711853 10.552992l0 59.69494c0 8.242401 -6.681793 14.924187 -14.924194 14.924187l-224.89178 0c-8.242386 0 -14.924179 -6.6817856 -14.924179 -14.924187z" fill-rule="evenodd"/><path stroke="#b7b7b7" stroke-width="4.0" stroke-linejoin="round" stroke-linecap="butt" d="m134.5547 17.102661l0 0c0 -8.242399 6.681793 -14.924183 14.924179 -14.924183l224.89178 0c3.9581604 0 7.754181 1.5723648 10.553009 4.371192c2.7988281 2.7988276 4.3711853 6.594852 4.3711853 10.552992l0 59.69494c0 8.242401 -6.681793 14.924187 -14.924194 14.924187l-224.89178 0c-8.242386 0 -14.924179 -6.6817856 -14.924179 -14.924187z" fill-rule="evenodd"/><path fill="#000000" d="m194.99957 40.55013l0 -1.640625l2.125 -0.359375l0 -14.9375l-2.125 -0.359375l0 -1.65625l2.125 0l3.421875 0l6.109375 14.390625l0.078125 0l5.90625 -14.390625l5.71875 0l0 1.65625l-2.125 0.359375l0 14.9375l2.125 0.359375l0 1.640625l-6.8125 0l0 -1.640625l2.234375 -0.359375l0 -5.5l0 -7.953125l-0.0625 -0.015625l-6.15625 14.796875l-1.703125 0l-6.359375 -14.765625l-0.0625 0.015625l0.078125 7.921875l0 5.5l2.296875 0.359375l0 1.640625l-6.8125 0zm31.95346 0.265625q-1.953125 0 -3.40625 -0.890625q-1.4375 -0.890625 -2.21875 -2.46875q-0.78125 -1.59375 -0.78125 -3.671875l0 -0.578125q0 -2.0 0.8125 -3.578125q0.828125 -1.59375 2.203125 -2.5q1.375 -0.921875 3.0 -0.921875q1.90625 0 3.1875 0.78125q1.28125 0.78125 1.921875 2.203125q0.65625 1.40625 0.65625 3.3125l0 1.609375l-9.125 0l-0.046875 0.0625q0.03125 1.34375 0.46875 2.40625q0.453125 1.046875 1.296875 1.640625q0.859375 0.59375 2.03125 0.59375q1.3125 0 2.28125 -0.359375q0.984375 -0.375 1.703125 -1.03125l1.0 1.671875q-0.75 0.71875 -2.0 1.21875q-1.234375 0.5 -2.984375 0.5zm-3.671875 -8.71875l6.484375 0l0 -0.328125q0 -1.015625 -0.359375 -1.8125q-0.359375 -0.8125 -1.0625 -1.265625q-0.703125 -0.46875 -1.78125 -0.46875q-0.859375 0 -1.5625 0.5q-0.703125 0.5 -1.15625 1.359375q-0.453125 0.859375 -0.59375 1.953125l0.03125 0.0625zm15.791489 8.71875q-2.203125 0 -3.34375 -1.0625q-1.140625 -1.078125 -1.140625 -3.03125q0 -2.0 1.640625 -3.21875q1.640625 -1.21875 4.546875 -1.21875l2.515625 0l0 -1.375q0 -1.28125 -0.78125 -1.984375q-0.765625 -0.703125 -2.171875 -0.703125q-0.890625 0 -1.546875 0.21875q-0.640625 0.21875 -1.171875 0.59375l-0.28125 1.96875l-1.96875 0l0 -3.234375q0.953125 -0.765625 2.203125 -1.15625q1.265625 -0.40625 2.796875 -0.40625q2.578125 0 4.03125 1.234375q1.453125 1.21875 1.453125 3.484375l0 6.78125q0 0.28125 0 0.546875q0.015625 0.25 0.046875 0.515625l1.359375 0.140625l0 1.640625l-3.6875 0q-0.109375 -0.578125 -0.171875 -1.03125q-0.0625 -0.453125 -0.09375 -0.90625q-0.75 0.953125 -1.859375 1.578125q-1.109375 0.625 -2.375 0.625zm0.375 -2.140625q1.28125 0 2.328125 -0.609375q1.0625 -0.609375 1.515625 -1.46875l0 -2.5625l-2.609375 0q-1.765625 0 -2.65625 0.859375q-0.875 0.84375 -0.875 1.875q0 0.9375 0.5625 1.421875q0.578125 0.484375 1.734375 0.484375zm9.811951 1.875l0 -1.640625l2.109375 -0.359375l0 -10.0625l-2.109375 -0.375l0 -1.640625l4.40625 0l0.1875 2.09375q0.703125 -1.125 1.75 -1.734375q1.0624847 -0.625 2.4218597 -0.625q2.28125 0 3.53125 1.34375q1.25 1.328125 1.25 4.109375l0 6.890625l2.125 0.359375l0 1.640625l-6.8125 0l0 -1.640625l2.125 -0.359375l0 -6.84375q0 -1.859375 -0.734375 -2.640625q-0.734375 -0.78125 -2.25 -0.78125q-1.109375 0 -1.9687347 0.546875q-0.84375 0.53125 -1.34375 1.453125l0 8.265625l2.1093597 0.359375l0 1.640625l-6.7968597 0zm17.386398 0l0 -1.640625l2.125 -0.359375l0 -10.0625l-2.125 -0.375l0 -1.640625l4.6875 0l0 12.078125l2.109375 0.359375l0 1.640625l-6.796875 0zm1.984375 -17.5625l0 -2.734375l2.703125 0l0 2.734375l-2.703125 0zm6.595642 17.5625l0 -1.640625l2.109375 -0.359375l0 -10.0625l-2.109375 -0.375l0 -1.640625l4.40625 0l0.1875 2.09375q0.703125 -1.125 1.75 -1.734375q1.0625 -0.625 2.421875 -0.625q2.28125 0 3.53125 1.34375q1.25 1.328125 1.25 4.109375l0 6.890625l2.125 0.359375l0 1.640625l-6.8125 0l0 -1.640625l2.125 -0.359375l0 -6.84375q0 -1.859375 -0.734375 -2.640625q-0.734375 -0.78125 -2.25 -0.78125q-1.109375 0 -1.96875 0.546875q-0.84375 0.53125 -1.34375 1.453125l0 8.265625l2.109375 0.359375l0 1.640625l-6.796875 0zm23.52182 5.6875q-1.015625 0 -2.203125 -0.28125q-1.171875 -0.28125 -2.078125 -0.765625l0.671875 -1.984375q0.71875 0.375 1.6875 0.625q0.984375 0.25 1.90625 0.25q1.71875 0 2.515625 -0.96875q0.796875 -0.96875 0.796875 -2.75l0 -1.328125q-0.6875 0.875 -1.65625 1.328125q-0.953125 0.453125 -2.203125 0.453125q-1.71875 0 -2.96875 -0.84375q-1.25 -0.859375 -1.921875 -2.375q-0.671875 -1.53125 -0.671875 -3.5625l0 -0.265625q0 -2.265625 0.671875 -3.96875q0.671875 -1.703125 1.921875 -2.640625q1.25 -0.953125 2.984375 -0.953125q1.328125 0 2.328125 0.53125q1.015625 0.515625 1.6875 1.5l0.234375 -1.765625l2.15625 0l0 13.890625q0 1.828125 -0.6875 3.140625q-0.671875 1.3125 -1.984375 2.015625q-1.3125 0.71875 -3.1875 0.71875zm0.0625 -7.5q1.171875 0 1.953125 -0.515625q0.78125 -0.53125 1.28125 -1.5l0 -6.484375q-0.5 -0.890625 -1.296875 -1.421875q-0.78125 -0.53125 -1.90625 -0.53125q-1.21875 0 -2.03125 0.703125q-0.8125 0.703125 -1.21875 1.9375q-0.40625 1.234375 -0.40625 2.84375l0 0.265625q0 2.125 0.890625 3.421875q0.90625 1.28125 2.734375 1.28125zm5.40625 -10.171875l-1.0 -2.09375l3.140625 0l0 1.640625l-2.140625 0.453125zm16.19986 12.25q-1.859375 0 -3.25 -0.671875q-1.390625 -0.6875 -2.15625 -1.890625q-0.75 -1.21875 -0.75 -2.8125q0 -1.5625 0.875 -2.71875q0.890625 -1.171875 2.640625 -2.359375q0.046875 -0.03125 0.078125 -0.046875q0.03125 -0.015625 0.0625 -0.03125q-1.015625 -1.296875 -1.515625 -2.296875q-0.5 -1.015625 -0.5 -2.078125q0 -1.46875 0.578125 -2.484375q0.578125 -1.03125 1.640625 -1.5625q1.0625 -0.53125 2.546875 -0.53125q1.390625 0 2.421875 0.546875q1.046875 0.546875 1.625 1.453125q0.59375 0.90625 0.59375 2.03125q0 1.28125 -0.6875 2.21875q-0.6875 0.921875 -2.015625 1.890625l-1.421875 1.046875l4.421875 5.3125q0.53125 -0.84375 0.828125 -1.859375q0.296875 -1.03125 0.296875 -2.1875l2.296875 0q0 1.71875 -0.515625 3.171875q-0.5 1.453125 -1.46875 2.609375l2.421875 2.921875l-0.03125 0.0625l-2.984375 0l-1.109375 -1.328125q-1.03125 0.78125 -2.296875 1.1875q-1.265625 0.40625 -2.625 0.40625zm0 -2.0q0.9375 0 1.84375 -0.3125q0.921875 -0.328125 1.734375 -0.921875l-4.703125 -5.65625l-0.515625 0.375q-1.1875 0.890625 -1.578125 1.703125q-0.375 0.796875 -0.375 1.4375q0 1.484375 0.921875 2.4375q0.921875 0.9375 2.671875 0.9375zm-0.53125 -9.859375l1.78125 -1.234375q0.75 -0.5 1.015625 -1.078125q0.265625 -0.578125 0.265625 -1.28125q0 -0.796875 -0.640625 -1.40625q-0.625 -0.609375 -1.640625 -0.609375q-1.046875 0 -1.625 0.734375q-0.5625 0.734375 -0.5625 1.796875q0 0.6875 0.34375 1.4375q0.359375 0.75 1.0625 1.640625z" fill-rule="nonzero"/><path fill="#000000" d="m199.38983 72.550125l0 -1.640625l2.125 -0.359375l0 -14.9375l-2.125 -0.359375l0 -1.65625l2.125 0l6.0625 0q2.96875 0 4.640625 1.28125q1.671875 1.28125 1.671875 3.84375q0 1.265625 -0.8125 2.265625q-0.796875 1.0 -2.109375 1.46875q1.140625 0.234375 1.953125 0.921875q0.828125 0.6875 1.28125 1.671875q0.453125 0.984375 0.453125 2.15625q0 2.59375 -1.703125 3.96875q-1.6875 1.375 -4.578125 1.375l-8.984375 0zm4.6875 -2.0l4.296875 0q1.765625 0 2.734375 -0.859375q0.96875 -0.875 0.96875 -2.46875q0 -1.65625 -0.8125 -2.609375q-0.8125 -0.953125 -2.5 -0.953125l-4.6875 0l0 6.890625zm0 -8.890625l4.15625 0q1.375 0 2.234375 -0.796875q0.859375 -0.8125 0.859375 -2.1875q0 -1.53125 -0.96875 -2.296875q-0.96875 -0.765625 -2.78125 -0.765625l-3.5 0l0 6.046875zm18.847443 11.15625q-1.953125 0 -3.40625 -0.890625q-1.4375 -0.890625 -2.21875 -2.46875q-0.78125 -1.59375 -0.78125 -3.671875l0 -0.578125q0 -2.0 0.8125 -3.578125q0.828125 -1.59375 2.203125 -2.5q1.375 -0.921875 3.0 -0.921875q1.90625 0 3.1875 0.78125q1.28125 0.78125 1.921875 2.203125q0.65625 1.40625 0.65625 3.3125l0 1.609375l-9.125 0l-0.046875 0.0625q0.03125 1.34375 0.46875 2.40625q0.453125 1.046875 1.296875 1.640625q0.859375 0.59375 2.03125 0.59375q1.3125 0 2.28125 -0.359375q0.984375 -0.375 1.703125 -1.03125l1.0 1.671875q-0.75 0.71875 -2.0 1.21875q-1.234375 0.5 -2.984375 0.5zm-3.671875 -8.71875l6.484375 0l0 -0.328125q0 -1.015625 -0.359375 -1.8125q-0.359375 -0.8125 -1.0625 -1.265625q-0.703125 -0.46875 -1.78125 -0.46875q-0.859375 0 -1.5625 0.5q-0.703125 0.5 -1.15625 1.359375q-0.453125 0.859375 -0.59375 1.953125l0.03125 0.0625zm10.908676 8.453125l0 -1.640625l2.125 -0.359375l0 -16.28125l-2.125 -0.375l0 -1.640625l4.6875 0l0 18.296875l2.125 0.359375l0 1.640625l-6.8125 0zm14.738861 0.265625q-1.953125 0 -3.375 -0.90625q-1.40625 -0.921875 -2.171875 -2.53125q-0.765625 -1.625 -0.765625 -3.71875l0 -0.28125q0 -2.078125 0.765625 -3.703125q0.765625 -1.625 2.171875 -2.546875q1.421875 -0.921875 3.34375 -0.921875q1.953125 0 3.359375 0.921875q1.421875 0.921875 2.1875 2.546875q0.765625 1.609375 0.765625 3.703125l0 0.28125q0 2.09375 -0.765625 3.71875q-0.765625 1.625 -2.171875 2.53125q-1.40625 0.90625 -3.34375 0.90625zm0 -2.0q1.21875 0 2.046875 -0.671875q0.828125 -0.671875 1.25 -1.828125q0.421875 -1.171875 0.421875 -2.65625l0 -0.28125q0 -1.484375 -0.421875 -2.640625q-0.421875 -1.171875 -1.265625 -1.84375q-0.828125 -0.671875 -2.0625 -0.671875q-1.21875 0 -2.0625 0.671875q-0.828125 0.671875 -1.25 1.84375q-0.40625 1.15625 -0.40625 2.640625l0 0.28125q0 1.484375 0.40625 2.65625q0.421875 1.15625 1.265625 1.828125q0.84375 0.671875 2.078125 0.671875zm8.270325 1.734375l0 -1.640625l2.109375 -0.359375l0 -10.0625l-2.109375 -0.375l0 -1.640625l4.4062347 0l0.1875 2.09375q0.703125 -1.125 1.75 -1.734375q1.0625 -0.625 2.421875 -0.625q2.28125 0 3.53125 1.34375q1.25 1.328125 1.25 4.109375l0 6.890625l2.125 0.359375l0 1.640625l-6.8125 0l0 -1.640625l2.125 -0.359375l0 -6.84375q0 -1.859375 -0.734375 -2.640625q-0.734375 -0.78125 -2.25 -0.78125q-1.109375 0 -1.96875 0.546875q-0.84375 0.53125 -1.34375 1.453125l0 8.265625l2.109375 0.359375l0 1.640625l-6.7968597 0zm23.521805 5.6875q-1.015625 0 -2.203125 -0.28125q-1.171875 -0.28125 -2.078125 -0.765625l0.671875 -1.984375q0.71875 0.375 1.6875 0.625q0.984375 0.25 1.90625 0.25q1.71875 0 2.515625 -0.96875q0.796875 -0.96875 0.796875 -2.75l0 -1.328125q-0.6875 0.875 -1.65625 1.328125q-0.953125 0.453125 -2.203125 0.453125q-1.71875 0 -2.96875 -0.84375q-1.25 -0.859375 -1.921875 -2.375q-0.671875 -1.53125 -0.671875 -3.5625l0 -0.265625q0 -2.265625 0.671875 -3.96875q0.671875 -1.703125 1.921875 -2.640625q1.25 -0.953125 2.984375 -0.953125q1.328125 0 2.328125 0.53125q1.015625 0.515625 1.6875 1.5l0.234375 -1.765625l2.15625 0l0 13.890625q0 1.828125 -0.6875 3.140625q-0.671875 1.3125 -1.984375 2.015625q-1.3125 0.71875 -3.1875 0.71875zm0.0625 -7.5q1.171875 0 1.953125 -0.515625q0.78125 -0.53125 1.28125 -1.5l0 -6.484375q-0.5 -0.890625 -1.296875 -1.421875q-0.78125 -0.53125 -1.90625 -0.53125q-1.21875 0 -2.03125 0.703125q-0.8125 0.703125 -1.21875 1.9375q-0.40625 1.234375 -0.40625 2.84375l0 0.265625q0 2.125 0.890625 3.421875q0.90625 1.28125 2.734375 1.28125zm5.40625 -10.171875l-1.0 -2.09375l3.140625 0l0 1.640625l-2.140625 0.453125zm3.3248596 11.984375l0 -1.640625l2.125 -0.359375l0 -10.0625l-2.125 -0.375l0 -1.640625l4.6875 0l0 12.078125l2.109375 0.359375l0 1.640625l-6.796875 0zm1.984375 -17.5625l0 -2.734375l2.703125 0l0 2.734375l-2.703125 0zm6.595642 17.5625l0 -1.640625l2.109375 -0.359375l0 -10.0625l-2.109375 -0.375l0 -1.640625l4.40625 0l0.1875 2.09375q0.703125 -1.125 1.75 -1.734375q1.0625 -0.625 2.421875 -0.625q2.28125 0 3.53125 1.34375q1.25 1.328125 1.25 4.109375l0 6.890625l2.125 0.359375l0 1.640625l-6.8125 0l0 -1.640625l2.125 -0.359375l0 -6.84375q0 -1.859375 -0.734375 -2.640625q-0.734375 -0.78125 -2.25 -0.78125q-1.109375 0 -1.96875 0.546875q-0.84375 0.53125 -1.34375 1.453125l0 8.265625l2.109375 0.359375l0 1.640625l-6.796875 0zm23.52182 5.6875q-1.015625 0 -2.203125 -0.28125q-1.171875 -0.28125 -2.078125 -0.765625l0.671875 -1.984375q0.71875 0.375 1.6875 0.625q0.984375 0.25 1.90625 0.25q1.71875 0 2.515625 -0.96875q0.796875 -0.96875 0.796875 -2.75l0 -1.328125q-0.6875 0.875 -1.65625 1.328125q-0.953125 0.453125 -2.203125 0.453125q-1.71875 0 -2.96875 -0.84375q-1.25 -0.859375 -1.921875 -2.375q-0.671875 -1.53125 -0.671875 -3.5625l0 -0.265625q0 -2.265625 0.671875 -3.96875q0.671875 -1.703125 1.921875 -2.640625q1.25 -0.953125 2.984375 -0.953125q1.328125 0 2.328125 0.53125q1.015625 0.515625 1.6875 1.5l0.234375 -1.765625l2.15625 0l0 13.890625q0 1.828125 -0.6875 3.140625q-0.671875 1.3125 -1.984375 2.015625q-1.3125 0.71875 -3.1875 0.71875zm0.0625 -7.5q1.171875 0 1.953125 -0.515625q0.78125 -0.53125 1.28125 -1.5l0 -6.484375q-0.5 -0.890625 -1.296875 -1.421875q-0.78125 -0.53125 -1.90625 -0.53125q-1.21875 0 -2.03125 0.703125q-0.8125 0.703125 -1.21875 1.9375q-0.40625 1.234375 -0.40625 2.84375l0 0.265625q0 2.125 0.890625 3.421875q0.90625 1.28125 2.734375 1.28125zm5.40625 -10.171875l-1.0 -2.09375l3.140625 0l0 1.640625l-2.140625 0.453125z" fill-rule="nonzero"/><path fill="#ffff00" d="m134.55385 114.33626l0 0c0 -8.242401 6.681778 -14.924187 14.924179 -14.924187l224.89178 0c3.95813 0 7.754181 1.5723648 10.553009 4.371193c2.7988281 2.7988281 4.3711853 6.5948563 4.3711853 10.552994l0 59.694946c0 8.242386 -6.681793 14.924179 -14.924194 14.924179l-224.89178 0c-8.242401 0 -14.924179 -6.681793 -14.924179 -14.924179z" fill-rule="evenodd"/><path stroke="#b7b7b7" stroke-width="4.0" stroke-linejoin="round" stroke-linecap="butt" d="m134.55385 114.33626l0 0c0 -8.242401 6.681778 -14.924187 14.924179 -14.924187l224.89178 0c3.95813 0 7.754181 1.5723648 10.553009 4.371193c2.7988281 2.7988281 4.3711853 6.5948563 4.3711853 10.552994l0 59.694946c0 8.242386 -6.681793 14.924179 -14.924194 14.924179l-224.89178 0c-8.242401 0 -14.924179 -6.681793 -14.924179 -14.924179z" fill-rule="evenodd"/><path fill="#000000" d="m159.2157 137.78372l0 -1.640625l2.125 -0.359375l0 -14.9375l-2.125 -0.359375l0 -1.65625l2.125 0l5.296875 0q2.515625 0 4.375 1.203125q1.875 1.1875 2.90625 3.296875q1.046875 2.09375 1.046875 4.78125l0 0.40625q0 2.625 -1.0 4.734375q-1.0 2.09375 -2.84375 3.3125q-1.84375 1.21875 -4.34375 1.21875l-7.5625 0zm4.6875 -2.0l2.734375 0q1.796875 0 3.078125 -0.984375q1.296875 -0.984375 1.984375 -2.625q0.703125 -1.65625 0.703125 -3.65625l0 -0.4375q0 -2.0625 -0.703125 -3.6875q-0.6875 -1.640625 -1.984375 -2.59375q-1.28125 -0.953125 -3.078125 -0.953125l-2.734375 0l0 14.9375zm19.289978 2.265625q-1.953125 0 -3.40625 -0.890625q-1.4375 -0.890625 -2.21875 -2.46875q-0.78125 -1.59375 -0.78125 -3.671875l0 -0.578125q0 -2.0 0.8125 -3.578125q0.828125 -1.59375 2.203125 -2.5q1.375 -0.921875 3.0 -0.921875q1.90625 0 3.1875 0.78125q1.28125 0.78125 1.921875 2.203125q0.65625 1.40625 0.65625 3.3125l0 1.609375l-9.125 0l-0.046875 0.0625q0.03125 1.34375 0.46875 2.40625q0.453125 1.046875 1.296875 1.640625q0.859375 0.59375 2.03125 0.59375q1.3125 0 2.28125 -0.359375q0.984375 -0.375 1.703125 -1.03125l1.0 1.671875q-0.75 0.71875 -2.0 1.21875q-1.234375 0.5 -2.984375 0.5zm-3.671875 -8.71875l6.484375 0l0 -0.328125q0 -1.015625 -0.359375 -1.8125q-0.359375 -0.8125 -1.0625 -1.265625q-0.703125 -0.46875 -1.78125 -0.46875q-0.859375 0 -1.5625 0.5q-0.703125 0.5 -1.15625 1.359375q-0.453125 0.859375 -0.59375 1.953125l0.03125 0.0625zm17.929504 8.71875q-1.90625 0 -3.328125 -0.890625q-1.421875 -0.890625 -2.203125 -2.46875q-0.78125 -1.59375 -0.78125 -3.671875l0 -0.546875q0 -2.0 0.75 -3.59375q0.765625 -1.59375 2.171875 -2.515625q1.421875 -0.921875 3.390625 -0.921875q1.703125 0 2.984375 0.5625q1.28125 0.5625 2.15625 1.53125l0.0625 3.390625l-2.0 0l-0.4375 -2.46875q-0.453125 -0.453125 -1.125 -0.71875q-0.65625 -0.28125 -1.546875 -0.28125q-1.140625 0 -2.015625 0.6875q-0.859375 0.671875 -1.34375 1.8125q-0.484375 1.125 -0.484375 2.515625l0 0.546875q0 1.53125 0.453125 2.671875q0.453125 1.125 1.28125 1.75q0.84375 0.609375 2.0 0.609375q1.296875 0 2.15625 -0.703125q0.859375 -0.71875 1.0625 -1.96875l2.296875 0l0.03125 0.078125q-0.0625 1.203125 -0.71875 2.265625q-0.640625 1.046875 -1.859375 1.6875q-1.203125 0.640625 -2.953125 0.640625zm14.260193 0q-1.953125 0 -3.40625 -0.890625q-1.4375 -0.890625 -2.21875 -2.46875q-0.78125 -1.59375 -0.78125 -3.671875l0 -0.578125q0 -2.0 0.8125 -3.578125q0.828125 -1.59375 2.203125 -2.5q1.375 -0.921875 3.0 -0.921875q1.90625 0 3.1875 0.78125q1.28125 0.78125 1.921875 2.203125q0.65625 1.40625 0.65625 3.3125l0 1.609375l-9.125 0l-0.046875 0.0625q0.03125 1.34375 0.46875 2.40625q0.453125 1.046875 1.296875 1.640625q0.859375 0.59375 2.03125 0.59375q1.3125 0 2.28125 -0.359375q0.984375 -0.375 1.703125 -1.03125l1.0 1.671875q-0.75 0.71875 -2.0 1.21875q-1.234375 0.5 -2.984375 0.5zm-3.671875 -8.71875l6.484375 0l0 -0.328125q0 -1.015625 -0.359375 -1.8125q-0.359375 -0.8125 -1.0625 -1.265625q-0.703125 -0.46875 -1.78125 -0.46875q-0.859375 0 -1.5625 0.5q-0.703125 0.5 -1.15625 1.359375q-0.453125 0.859375 -0.59375 1.953125l0.03125 0.0625zm11.049301 8.453125l0 -1.640625l2.109375 -0.359375l0 -10.0625l-2.109375 -0.375l0 -1.640625l4.40625 0l0.1875 2.09375q0.703125 -1.125 1.75 -1.734375q1.0625 -0.625 2.421875 -0.625q2.28125 0 3.53125 1.34375q1.25 1.328125 1.25 4.109375l0 6.890625l2.125 0.359375l0 1.640625l-6.8125 0l0 -1.640625l2.125 -0.359375l0 -6.84375q0 -1.859375 -0.734375 -2.640625q-0.734375 -0.78125 -2.25 -0.78125q-1.109375 0 -1.96875 0.546875q-0.84375 0.53125 -1.34375 1.453125l0 8.265625l2.109375 0.359375l0 1.640625l-6.796875 0zm21.92807 0.21875q-1.5625 0 -2.484375 -0.90625q-0.921875 -0.921875 -0.921875 -2.9375l0 -8.5625l-2.21875 0l0 -1.890625l2.21875 0l0 -3.40625l2.578125 0l0 3.40625l3.046875 0l0 1.890625l-3.046875 0l0 8.5625q0 1.015625 0.390625 1.5q0.40625 0.46875 1.09375 0.46875q0.453125 0 1.0 -0.078125q0.5625 -0.09375 0.875 -0.15625l0.359375 1.6875q-0.5625 0.171875 -1.375 0.296875q-0.8125 0.125 -1.515625 0.125zm4.5014954 -0.21875l0 -1.640625l2.125 -0.359375l0 -10.0625l-2.125 -0.375l0 -1.640625l4.40625 0l0.234375 1.796875l0.015625 0.234375q0.609375 -1.078125 1.484375 -1.6875q0.875 -0.609375 2.0 -0.609375q0.40625 0 0.828125 0.078125q0.421875 0.0625 0.609375 0.125l-0.34375 2.390625l-1.78125 -0.109375q-1.015625 -0.0625 -1.703125 0.46875q-0.6875 0.515625 -1.0625 1.40625l0 7.984375l2.125 0.359375l0 1.640625l-6.8125 0zm15.693588 0.265625q-2.203125 0 -3.34375 -1.0625q-1.140625 -1.078125 -1.140625 -3.03125q0 -2.0 1.640625 -3.21875q1.640625 -1.21875 4.546875 -1.21875l2.515625 0l0 -1.375q0 -1.28125 -0.78125 -1.984375q-0.765625 -0.703125 -2.171875 -0.703125q-0.890625 0 -1.546875 0.21875q-0.640625 0.21875 -1.171875 0.59375l-0.28125 1.96875l-1.96875 0l0 -3.234375q0.953125 -0.765625 2.203125 -1.15625q1.265625 -0.40625 2.796875 -0.40625q2.578125 0 4.03125 1.234375q1.453125 1.21875 1.453125 3.484375l0 6.78125q0 0.28125 0 0.546875q0.015625 0.25 0.046875 0.515625l1.359375 0.140625l0 1.640625l-3.6875 0q-0.109375 -0.578125 -0.171875 -1.03125q-0.0625 -0.453125 -0.09375 -0.90625q-0.75 0.953125 -1.859375 1.578125q-1.109375 0.625 -2.375 0.625zm0.375 -2.140625q1.28125 0 2.328125 -0.609375q1.0625 -0.609375 1.515625 -1.46875l0 -2.5625l-2.609375 0q-1.765625 0 -2.65625 0.859375q-0.875 0.84375 -0.875 1.875q0 0.9375 0.5625 1.421875q0.578125 0.484375 1.734375 0.484375zm9.671326 1.875l0 -1.640625l2.125 -0.359375l0 -16.28125l-2.125 -0.375l0 -1.640625l4.6875 0l0 18.296875l2.125 0.359375l0 1.640625l-6.8125 0zm8.546143 0l0 -1.640625l2.125 -0.359375l0 -10.0625l-2.125 -0.375l0 -1.640625l4.6875 0l0 12.078125l2.109375 0.359375l0 1.640625l-6.796875 0zm1.984375 -17.5625l0 -2.734375l2.703125 0l0 2.734375l-2.703125 0zm6.767517 17.5625l0 -1.796875l7.671875 -10.3125l-5.25 0l-0.328125 2.375l-1.921875 0l0 -4.34375l10.671875 0l0 1.734375l-7.734375 10.390625l6.0 0l0.328125 -2.375l1.921875 0l0 4.328125l-11.359375 0zm17.807251 0.265625q-2.203125 0 -3.34375 -1.0625q-1.140625 -1.078125 -1.140625 -3.03125q0 -2.0 1.640625 -3.21875q1.640625 -1.21875 4.546875 -1.21875l2.515625 0l0 -1.375q0 -1.28125 -0.78125 -1.984375q-0.765625 -0.703125 -2.171875 -0.703125q-0.890625 0 -1.546875 0.21875q-0.640625 0.21875 -1.171875 0.59375l-0.28125 1.96875l-1.96875 0l0 -3.234375q0.953125 -0.765625 2.203125 -1.15625q1.265625 -0.40625 2.796875 -0.40625q2.578125 0 4.03125 1.234375q1.453125 1.21875 1.453125 3.484375l0 6.78125q0 0.28125 0 0.546875q0.015625 0.25 0.046875 0.515625l1.359375 0.140625l0 1.640625l-3.6875 0q-0.109375 -0.578125 -0.171875 -1.03125q-0.0625 -0.453125 -0.09375 -0.90625q-0.75 0.953125 -1.859375 1.578125q-1.109375 0.625 -2.375 0.625zm0.375 -2.140625q1.28125 0 2.328125 -0.609375q1.0625 -0.609375 1.515625 -1.46875l0 -2.5625l-2.609375 0q-1.765625 0 -2.65625 0.859375q-0.875 0.84375 -0.875 1.875q0 0.9375 0.5625 1.421875q0.578125 0.484375 1.734375 0.484375zm14.780701 2.09375q-1.5625 0 -2.484375 -0.90625q-0.921875 -0.921875 -0.921875 -2.9375l0 -8.5625l-2.21875 0l0 -1.890625l2.21875 0l0 -3.40625l2.578125 0l0 3.40625l3.046875 0l0 1.890625l-3.046875 0l0 8.5625q0 1.015625 0.390625 1.5q0.40625 0.46875 1.09375 0.46875q0.453125 0 1.0 -0.078125q0.5625 -0.09375 0.875 -0.15625l0.359375 1.6875q-0.5625 0.171875 -1.375 0.296875q-0.8125 0.125 -1.515625 0.125zm4.4389954 -0.21875l0 -1.640625l2.125 -0.359375l0 -10.0625l-2.125 -0.375l0 -1.640625l4.6875 0l0 12.078125l2.109375 0.359375l0 1.640625l-6.796875 0zm1.984375 -17.5625l0 -2.734375l2.703125 0l0 2.734375l-2.703125 0zm12.955017 17.828125q-1.953125 0 -3.375 -0.90625q-1.40625 -0.921875 -2.171875 -2.53125q-0.765625 -1.625 -0.765625 -3.71875l0 -0.28125q0 -2.078125 0.765625 -3.703125q0.765625 -1.625 2.171875 -2.546875q1.421875 -0.921875 3.34375 -0.921875q1.953125 0 3.359375 0.921875q1.421875 0.921875 2.1875 2.546875q0.765625 1.609375 0.765625 3.703125l0 0.28125q0 2.09375 -0.765625 3.71875q-0.765625 1.625 -2.171875 2.53125q-1.40625 0.90625 -3.34375 0.90625zm0 -2.0q1.21875 0 2.046875 -0.671875q0.828125 -0.671875 1.25 -1.828125q0.421875 -1.171875 0.421875 -2.65625l0 -0.28125q0 -1.484375 -0.421875 -2.640625q-0.421875 -1.171875 -1.265625 -1.84375q-0.828125 -0.671875 -2.0625 -0.671875q-1.21875 0 -2.0625 0.671875q-0.828125 0.671875 -1.25 1.84375q-0.40625 1.15625 -0.40625 2.640625l0 0.28125q0 1.484375 0.40625 2.65625q0.421875 1.15625 1.265625 1.828125q0.84375 0.671875 2.078125 0.671875zm8.270325 1.734375l0 -1.640625l2.109375 -0.359375l0 -10.0625l-2.109375 -0.375l0 -1.640625l4.40625 0l0.1875 2.09375q0.703125 -1.125 1.75 -1.734375q1.0625 -0.625 2.421875 -0.625q2.28125 0 3.53125 1.34375q1.25 1.328125 1.25 4.109375l0 6.890625l2.125 0.359375l0 1.640625l-6.8125 0l0 -1.640625l2.125 -0.359375l0 -6.84375q0 -1.859375 -0.734375 -2.640625q-0.734375 -0.78125 -2.25 -0.78125q-1.109375 0 -1.96875 0.546875q-0.84375 0.53125 -1.34375 1.453125l0 8.265625l2.109375 0.359375l0 1.640625l-6.796875 0z" fill-rule="nonzero"/><path fill="#000000" d="m169.51776 170.04935q-1.859375 0 -3.25 -0.671875q-1.390625 -0.6875 -2.15625 -1.890625q-0.75 -1.21875 -0.75 -2.8125q0 -1.5625 0.875 -2.71875q0.890625 -1.171875 2.640625 -2.359375q0.046875 -0.03125 0.078125 -0.046875q0.03125 -0.015625 0.0625 -0.03125q-1.015625 -1.296875 -1.515625 -2.296875q-0.5 -1.015625 -0.5 -2.078125q0 -1.46875 0.578125 -2.484375q0.578125 -1.03125 1.640625 -1.5625q1.0625 -0.53125 2.546875 -0.53125q1.390625 0 2.421875 0.546875q1.046875 0.546875 1.625 1.453125q0.59375 0.90625 0.59375 2.03125q0 1.28125 -0.6875 2.21875q-0.6875 0.921875 -2.015625 1.890625l-1.421875 1.046875l4.421875 5.3125q0.53125 -0.84375 0.828125 -1.859375q0.296875 -1.03125 0.296875 -2.1875l2.296875 0q0 1.71875 -0.515625 3.171875q-0.5 1.453125 -1.46875 2.609375l2.421875 2.921875l-0.03125 0.0625l-2.984375 0l-1.109375 -1.328125q-1.03125 0.78125 -2.296875 1.1875q-1.265625 0.40625 -2.625 0.40625zm0 -2.0q0.9375 0 1.84375 -0.3125q0.921875 -0.328125 1.734375 -0.921875l-4.703125 -5.65625l-0.515625 0.375q-1.1875 0.890625 -1.578125 1.703125q-0.375 0.796875 -0.375 1.4375q0 1.484375 0.921875 2.4375q0.921875 0.9375 2.671875 0.9375zm-0.53125 -9.859375l1.78125 -1.234375q0.75 -0.5 1.015625 -1.078125q0.265625 -0.578125 0.265625 -1.28125q0 -0.796875 -0.640625 -1.40625q-0.625 -0.609375 -1.640625 -0.609375q-1.046875 0 -1.625 0.734375q-0.5625 0.734375 -0.5625 1.796875q0 0.6875 0.34375 1.4375q0.359375 0.75 1.0625 1.640625zm22.542938 11.59375l0 -1.640625l2.109375 -0.359375l0 -15.015625l-4.296875 0l-0.375 2.640625l-1.921875 0l0 -4.578125l15.75 0l0 4.578125l-1.90625 0l-0.390625 -2.640625l-4.296875 0l0 15.015625l2.125 0.359375l0 1.640625l-6.796875 0zm12.526703 0l0 -1.640625l2.125 -0.359375l0 -10.0625l-2.125 -0.375l0 -1.640625l4.40625 0l0.234375 1.796875l0.015625 0.234375q0.609375 -1.078125 1.484375 -1.6875q0.875 -0.609375 2.0 -0.609375q0.40625 0 0.828125 0.078125q0.421875 0.0625 0.609375 0.125l-0.34375 2.390625l-1.78125 -0.109375q-1.015625 -0.0625 -1.703125 0.46875q-0.6875 0.515625 -1.0625 1.40625l0 7.984375l2.125 0.359375l0 1.640625l-6.8125 0zm15.693573 0.265625q-2.203125 0 -3.34375 -1.0625q-1.140625 -1.078125 -1.140625 -3.03125q0 -2.0 1.640625 -3.21875q1.640625 -1.21875 4.546875 -1.21875l2.515625 0l0 -1.375q0 -1.28125 -0.78125 -1.984375q-0.765625 -0.703125 -2.171875 -0.703125q-0.890625 0 -1.546875 0.21875q-0.640625 0.21875 -1.171875 0.59375l-0.28125 1.96875l-1.96875 0l0 -3.234375q0.953125 -0.765625 2.203125 -1.15625q1.265625 -0.40625 2.796875 -0.40625q2.578125 0 4.03125 1.234375q1.453125 1.21875 1.453125 3.484375l0 6.78125q0 0.28125 0 0.546875q0.015625 0.25 0.046875 0.515625l1.359375 0.140625l0 1.640625l-3.6875 0q-0.109375 -0.578125 -0.171875 -1.03125q-0.0625 -0.453125 -0.09375 -0.90625q-0.75 0.953125 -1.859375 1.578125q-1.109375 0.625 -2.375 0.625zm0.375 -2.140625q1.28125 0 2.328125 -0.609375q1.0625 -0.609375 1.515625 -1.46875l0 -2.5625l-2.609375 0q-1.765625 0 -2.65625 0.859375q-0.875 0.84375 -0.875 1.875q0 0.9375 0.5625 1.421875q0.578125 0.484375 1.734375 0.484375zm9.811951 1.875l0 -1.640625l2.109375 -0.359375l0 -10.0625l-2.109375 -0.375l0 -1.640625l4.40625 0l0.1875 2.09375q0.703125 -1.125 1.75 -1.734375q1.0625 -0.625 2.421875 -0.625q2.28125 0 3.53125 1.34375q1.25 1.328125 1.25 4.109375l0 6.890625l2.125 0.359375l0 1.640625l-6.8125 0l0 -1.640625l2.125 -0.359375l0 -6.84375q0 -1.859375 -0.734375 -2.640625q-0.734375 -0.78125 -2.25 -0.78125q-1.109375 0 -1.96875 0.546875q-0.84375 0.53125 -1.34375 1.453125l0 8.265625l2.109375 0.359375l0 1.640625l-6.796875 0zm23.183273 0.265625q-1.421875 0 -2.671875 -0.28125q-1.234375 -0.28125 -2.625 -0.875l-0.015625 -3.359375l1.9375 0l0.484375 2.03125q0.71875 0.296875 1.40625 0.4375q0.6875 0.125 1.484375 0.125q1.546875 0 2.21875 -0.59375q0.68751526 -0.59375 0.68751526 -1.484375q0 -0.828125 -0.68751526 -1.40625q-0.671875 -0.59375 -2.46875 -0.984375q-2.5625 -0.59375 -3.765625 -1.578125q-1.203125 -0.984375 -1.203125 -2.625q0 -1.140625 0.65625 -2.046875q0.671875 -0.90625 1.859375 -1.4375q1.1875 -0.53125 2.765625 -0.53125q1.59375 0 2.734375 0.375q1.1406403 0.359375 1.9843903 0.96875l0.125 3.21875l-1.921875 0l-0.42189026 -1.875q-0.453125 -0.34375 -1.078125 -0.515625q-0.625 -0.1875 -1.421875 -0.1875q-1.203125 0 -1.953125 0.5625q-0.75 0.546875 -0.75 1.390625q0 0.5 0.21875 0.875q0.21875 0.359375 0.828125 0.65625q0.609375 0.28125 1.796875 0.578125q2.9375153 0.6875 4.0937653 1.75q1.171875 1.0625 1.171875 2.625q0 1.78125 -1.328125 2.984375q-1.3125153 1.203125 -4.1406403 1.203125zm7.208359 5.15625l0 -1.65625l1.984375 -0.375l0 -15.453125l-2.125 -0.375l0 -1.640625l4.328125 0l0.234375 1.71875q0.703125 -0.96875 1.703125 -1.46875q1.015625 -0.515625 2.34375 -0.515625q1.75 0 2.984375 0.953125q1.234375 0.9375 1.875 2.640625q0.65625 1.6875 0.65625 3.96875l0 0.265625q0 2.03125 -0.65625 3.5625q-0.65625 1.515625 -1.890625 2.375q-1.21875 0.84375 -2.9375 0.84375q-1.296875 0 -2.28125 -0.421875q-0.984375 -0.4375 -1.671875 -1.296875l0 4.84375l2.234375 0.375l0 1.65625l-6.78125 0zm7.71875 -7.15625q1.8125 0 2.75 -1.328125q0.9375 -1.328125 0.9375 -3.453125l0 -0.265625q0 -1.609375 -0.421875 -2.84375q-0.40625 -1.234375 -1.234375 -1.9375q-0.828125 -0.703125 -2.0625 -0.703125q-1.09375 0 -1.875 0.5q-0.78125 0.5 -1.265625 1.359375l0 6.859375q0.484375 0.859375 1.25 1.34375q0.78125 0.46875 1.921875 0.46875zm12.798584 2.0q-2.203125 0 -3.34375 -1.0625q-1.140625 -1.078125 -1.140625 -3.03125q0 -2.0 1.640625 -3.21875q1.640625 -1.21875 4.546875 -1.21875l2.515625 0l0 -1.375q0 -1.28125 -0.78125 -1.984375q-0.765625 -0.703125 -2.171875 -0.703125q-0.890625 0 -1.546875 0.21875q-0.640625 0.21875 -1.171875 0.59375l-0.28125 1.96875l-1.96875 0l0 -3.234375q0.953125 -0.765625 2.203125 -1.15625q1.265625 -0.40625 2.796875 -0.40625q2.578125 0 4.03125 1.234375q1.453125 1.21875 1.453125 3.484375l0 6.78125q0 0.28125 0 0.546875q0.015625 0.25 0.046875 0.515625l1.359375 0.140625l0 1.640625l-3.6875 0q-0.109375 -0.578125 -0.171875 -1.03125q-0.0625 -0.453125 -0.09375 -0.90625q-0.75 0.953125 -1.859375 1.578125q-1.109375 0.625 -2.375 0.625zm0.375 -2.140625q1.28125 0 2.328125 -0.609375q1.0625 -0.609375 1.515625 -1.46875l0 -2.5625l-2.609375 0q-1.765625 0 -2.65625 0.859375q-0.875 0.84375 -0.875 1.875q0 0.9375 0.5625 1.421875q0.578125 0.484375 1.734375 0.484375zm9.780701 1.875l0 -1.640625l2.125 -0.359375l0 -10.0625l-2.125 -0.375l0 -1.640625l4.40625 0l0.234375 1.796875l0.015625 0.234375q0.609375 -1.078125 1.484375 -1.6875q0.875 -0.609375 2.0 -0.609375q0.40625 0 0.828125 0.078125q0.421875 0.0625 0.609375 0.125l-0.34375 2.390625l-1.78125 -0.109375q-1.015625 -0.0625 -1.703125 0.46875q-0.6875 0.515625 -1.0625 1.40625l0 7.984375l2.125 0.359375l0 1.640625l-6.8125 0zm17.292542 0.265625q-1.953125 0 -3.40625 -0.890625q-1.4375 -0.890625 -2.21875 -2.46875q-0.78125 -1.59375 -0.78125 -3.671875l0 -0.578125q0 -2.0 0.8125 -3.578125q0.828125 -1.59375 2.203125 -2.5q1.375 -0.921875 3.0 -0.921875q1.90625 0 3.1875 0.78125q1.28125 0.78125 1.921875 2.203125q0.65625 1.40625 0.65625 3.3125l0 1.609375l-9.125 0l-0.046875 0.0625q0.03125 1.34375 0.46875 2.40625q0.453125 1.046875 1.296875 1.640625q0.859375 0.59375 2.03125 0.59375q1.3125 0 2.28125 -0.359375q0.984375 -0.375 1.703125 -1.03125l1.0 1.671875q-0.75 0.71875 -2.0 1.21875q-1.234375 0.5 -2.984375 0.5zm-3.671875 -8.71875l6.484375 0l0 -0.328125q0 -1.015625 -0.359375 -1.8125q-0.359375 -0.8125 -1.0625 -1.265625q-0.703125 -0.46875 -1.78125 -0.46875q-0.859375 0 -1.5625 0.5q-0.703125 0.5 -1.15625 1.359375q-0.453125 0.859375 -0.59375 1.953125l0.03125 0.0625zm11.049286 8.453125l0 -1.640625l2.109375 -0.359375l0 -10.0625l-2.109375 -0.375l0 -1.640625l4.40625 0l0.1875 2.09375q0.703125 -1.125 1.75 -1.734375q1.0625 -0.625 2.421875 -0.625q2.28125 0 3.53125 1.34375q1.25 1.328125 1.25 4.109375l0 6.890625l2.125 0.359375l0 1.640625l-6.8125 0l0 -1.640625l2.125 -0.359375l0 -6.84375q0 -1.859375 -0.734375 -2.640625q-0.734375 -0.78125 -2.25 -0.78125q-1.109375 0 -1.96875 0.546875q-0.84375 0.53125 -1.34375 1.453125l0 8.265625l2.109375 0.359375l0 1.640625l-6.796875 0zm23.70932 0.265625q-1.90625 0 -3.328125 -0.890625q-1.421875 -0.890625 -2.203125 -2.46875q-0.78125 -1.59375 -0.78125 -3.671875l0 -0.546875q0 -2.0 0.75 -3.59375q0.765625 -1.59375 2.171875 -2.515625q1.421875 -0.921875 3.390625 -0.921875q1.703125 0 2.984375 0.5625q1.28125 0.5625 2.15625 1.53125l0.0625 3.390625l-2.0 0l-0.4375 -2.46875q-0.453125 -0.453125 -1.125 -0.71875q-0.65625 -0.28125 -1.546875 -0.28125q-1.140625 0 -2.015625 0.6875q-0.859375 0.671875 -1.34375 1.8125q-0.484375 1.125 -0.484375 2.515625l0 0.546875q0 1.53125 0.453125 2.671875q0.453125 1.125 1.28125 1.75q0.84375 0.609375 2.0 0.609375q1.296875 0 2.15625 -0.703125q0.859375 -0.71875 1.0625 -1.96875l2.296875 0l0.03125 0.078125q-0.0625 1.203125 -0.71875 2.265625q-0.640625 1.046875 -1.859375 1.6875q-1.203125 0.640625 -2.953125 0.640625zm10.575317 5.421875q-0.296875 0 -0.78125 -0.078125q-0.46875 -0.0625 -0.734375 -0.125l0.265625 -2.015625q0.21875 0.015625 0.609375 0.03125q0.390625 0.03125 0.53125 0.03125q0.8125 0 1.328125 -0.625q0.515625 -0.625 0.96875 -1.703125l0.609375 -1.484375l-4.984375 -11.9375l-1.515625 -0.21875l0 -1.640625l5.90625 0l0 1.640625l-1.703125 0.265625l2.75 7.046875l0.65625 1.828125l0.078125 0l3.265625 -8.875l-1.796875 -0.265625l0 -1.640625l5.78125 0l0 1.640625l-1.453125 0.21875l-5.546875 14.375q-0.390625 1.015625 -0.953125 1.8125q-0.546875 0.8125 -1.34375 1.265625q-0.796875 0.453125 -1.9375 0.453125z" fill-rule="nonzero"/><path fill="#ffff00" d="m134.5547 211.56985l0 0c0 -8.242401 6.681793 -14.924179 14.924179 -14.924179l224.89178 0c3.9581604 0 7.754181 1.5723572 10.553009 4.3711853c2.7988281 2.7988281 4.3711853 6.5948486 4.3711853 10.552994l0 59.694946c0 8.242401 -6.681793 14.924164 -14.924194 14.924164l-224.89178 0c-8.242386 0 -14.924179 -6.6817627 -14.924179 -14.924164z" fill-rule="evenodd"/><path stroke="#b7b7b7" stroke-width="4.0" stroke-linejoin="round" stroke-linecap="butt" d="m134.5547 211.56985l0 0c0 -8.242401 6.681793 -14.924179 14.924179 -14.924179l224.89178 0c3.9581604 0 7.754181 1.5723572 10.553009 4.3711853c2.7988281 2.7988281 4.3711853 6.5948486 4.3711853 10.552994l0 59.694946c0 8.242401 -6.681793 14.924164 -14.924194 14.924164l-224.89178 0c-8.242386 0 -14.924179 -6.6817627 -14.924179 -14.924164z" fill-rule="evenodd"/><path fill="#000000" d="m156.594 251.01732l0 -1.640625l2.125 -0.359375l0 -14.9375l-2.125 -0.359375l0 -1.65625l14.03125 0l0 4.5625l-2.046875 0l-0.28125 -2.578125l-7.015625 0l0 6.171875l7.0 0l0 2.015625l-7.0 0l0 6.859375l7.421875 0l0.28125 -2.625l2.046875 0l0 4.546875l-14.4375 0zm16.498566 0l0 -1.640625l1.5625 -0.296875l4.203125 -5.1875l-4.109375 -5.0l-1.390625 -0.3125l0 -1.640625l5.515625 0l0 1.640625l-1.40625 0.15625l2.890625 3.59375l2.8125 -3.59375l-1.515625 -0.15625l0 -1.640625l5.421875 0l0 1.640625l-1.421875 0.3125l-3.8125 4.96875l4.375 5.21875l1.46875 0.296875l0 1.640625l-5.984375 0l0 -1.640625l1.703125 -0.140625l-3.09375 -3.765625l-2.984375 3.765625l1.515625 0.140625l0 1.640625l-5.75 0zm15.689194 5.4218903l0 -1.6562653l1.984375 -0.375l0 -15.453125l-2.125 -0.375l0 -1.640625l4.328125 0l0.234375 1.71875q0.703125 -0.96875 1.703125 -1.46875q1.015625 -0.515625 2.34375 -0.515625q1.75 0 2.984375 0.953125q1.234375 0.9375 1.875 2.640625q0.65625 1.6875 0.65625 3.96875l0 0.265625q0 2.03125 -0.65625 3.5625q-0.65625 1.515625 -1.890625 2.375q-1.21875 0.84375 -2.9375 0.84375q-1.296875 0 -2.28125 -0.421875q-0.984375 -0.4375 -1.671875 -1.296875l0 4.84375l2.234375 0.375l0 1.6562653l-6.78125 0zm7.71875 -7.1562653q1.8125 0 2.75 -1.328125q0.9375 -1.328125 0.9375 -3.453125l0 -0.265625q0 -1.609375 -0.421875 -2.84375q-0.40625 -1.234375 -1.234375 -1.9375q-0.828125 -0.703125 -2.0625 -0.703125q-1.09375 0 -1.875 0.5q-0.78125 0.5 -1.265625 1.359375l0 6.859375q0.484375 0.859375 1.25 1.34375q0.78125 0.46875 1.921875 0.46875zm15.1788025 2.0q-1.953125 0 -3.40625 -0.890625q-1.4375 -0.890625 -2.21875 -2.46875q-0.78125 -1.59375 -0.78125 -3.671875l0 -0.578125q0 -2.0 0.8125 -3.578125q0.828125 -1.59375 2.203125 -2.5q1.375 -0.921875 3.0 -0.921875q1.90625 0 3.1875 0.78125q1.28125 0.78125 1.921875 2.203125q0.65625 1.40625 0.65625 3.3125l0 1.609375l-9.125 0l-0.046875 0.0625q0.03125 1.34375 0.46875 2.40625q0.453125 1.046875 1.296875 1.640625q0.859375 0.59375 2.03125 0.59375q1.3125 0 2.28125 -0.359375q0.984375 -0.375 1.703125 -1.03125l1.0 1.671875q-0.75 0.71875 -2.0 1.21875q-1.234375 0.5 -2.984375 0.5zm-3.671875 -8.71875l6.484375 0l0 -0.328125q0 -1.015625 -0.359375 -1.8125q-0.359375 -0.8125 -1.0625 -1.265625q-0.703125 -0.46875 -1.78125 -0.46875q-0.859375 0 -1.5625 0.5q-0.703125 0.5 -1.15625 1.359375q-0.453125 0.859375 -0.59375 1.953125l0.03125 0.0625zm11.018051 8.453125l0 -1.640625l2.125 -0.359375l0 -10.0625l-2.125 -0.375l0 -1.640625l4.40625 0l0.234375 1.796875l0.015625 0.234375q0.609375 -1.078125 1.484375 -1.6875q0.875 -0.609375 2.0 -0.609375q0.40625 0 0.828125 0.078125q0.421875 0.0625 0.609375 0.125l-0.34375 2.390625l-1.78125 -0.109375q-1.015625 -0.0625 -1.703125 0.46875q-0.6875 0.515625 -1.0625 1.40625l0 7.984375l2.125 0.359375l0 1.640625l-6.8125 0zm11.052948 0l0 -1.640625l2.125 -0.359375l0 -10.0625l-2.125 -0.375l0 -1.640625l4.6875 0l0 12.078125l2.109375 0.359375l0 1.640625l-6.796875 0zm1.984375 -17.5625l0 -2.734375l2.703125 0l0 2.734375l-2.703125 0zm6.595642 17.5625l0 -1.640625l2.109375 -0.359375l0 -10.0625l-2.109375 -0.375l0 -1.640625l4.421875 0l0.171875 1.828125q0.671875 -1.0 1.734375 -1.546875q1.078125 -0.546875 2.484375 -0.546875q1.40625 0 2.40625 0.65625q1.015625 0.640625 1.515625 1.953125q0.671875 -1.203125 1.765625 -1.90625q1.09375 -0.703125 2.546875 -0.703125q2.15625 0 3.40625 1.484375q1.25 1.46875 1.25 4.4375l0 6.421875l2.125 0.359375l0 1.640625l-6.828125 0l0 -1.640625l2.125 -0.359375l0 -6.453125q0 -2.078125 -0.71875 -2.9375q-0.703125 -0.875 -2.109375 -0.875q-1.34375 0 -2.15625 0.953125q-0.8125 0.9375 -0.953125 2.375l0 6.9375l2.125 0.359375l0 1.640625l-6.8125 0l0 -1.640625l2.125 -0.359375l0 -6.453125q0 -1.96875 -0.734375 -2.890625q-0.734375 -0.921875 -2.125 -0.921875q-1.171875 0 -1.9375 0.484375q-0.75 0.484375 -1.140625 1.359375l0 8.421875l2.109375 0.359375l0 1.640625l-6.796875 0zm31.943054 0.265625q-1.953125 0 -3.40625 -0.890625q-1.4375 -0.890625 -2.21875 -2.46875q-0.78125 -1.59375 -0.78125 -3.671875l0 -0.578125q0 -2.0 0.8125 -3.578125q0.828125 -1.59375 2.203125 -2.5q1.375 -0.921875 3.0 -0.921875q1.90625 0 3.1875 0.78125q1.28125 0.78125 1.921875 2.203125q0.65625 1.40625 0.65625 3.3125l0 1.609375l-9.125 0l-0.046875 0.0625q0.03125 1.34375 0.46875 2.40625q0.453125 1.046875 1.296875 1.640625q0.859375 0.59375 2.03125 0.59375q1.3125 0 2.28125 -0.359375q0.984375 -0.375 1.703125 -1.03125l1.0 1.671875q-0.75 0.71875 -2.0 1.21875q-1.234375 0.5 -2.984375 0.5zm-3.671875 -8.71875l6.484375 0l0 -0.328125q0 -1.015625 -0.359375 -1.8125q-0.359375 -0.8125 -1.0625 -1.265625q-0.703125 -0.46875 -1.78125 -0.46875q-0.859375 0 -1.5625 0.5q-0.703125 0.5 -1.15625 1.359375q-0.453125 0.859375 -0.59375 1.953125l0.03125 0.0625zm11.049316 8.453125l0 -1.640625l2.109375 -0.359375l0 -10.0625l-2.109375 -0.375l0 -1.640625l4.40625 0l0.1875 2.09375q0.703125 -1.125 1.75 -1.734375q1.0625 -0.625 2.421875 -0.625q2.28125 0 3.53125 1.34375q1.25 1.328125 1.25 4.109375l0 6.890625l2.125 0.359375l0 1.640625l-6.8125 0l0 -1.640625l2.125 -0.359375l0 -6.84375q0 -1.859375 -0.734375 -2.640625q-0.734375 -0.78125 -2.25 -0.78125q-1.109375 0 -1.96875 0.546875q-0.84375 0.53125 -1.34375 1.453125l0 8.265625l2.109375 0.359375l0 1.640625l-6.796875 0zm21.92807 0.21875q-1.5625 0 -2.484375 -0.90625q-0.921875 -0.921875 -0.921875 -2.9375l0 -8.5625l-2.21875 0l0 -1.890625l2.21875 0l0 -3.40625l2.578125 0l0 3.40625l3.046875 0l0 1.890625l-3.046875 0l0 8.5625q0 1.015625 0.390625 1.5q0.40625 0.46875 1.09375 0.46875q0.453125 0 1.0 -0.078125q0.5625 -0.09375 0.875 -0.15625l0.359375 1.6875q-0.5625 0.171875 -1.375 0.296875q-0.8125 0.125 -1.515625 0.125zm9.07962 0.046875q-2.203125 0 -3.34375 -1.0625q-1.140625 -1.078125 -1.140625 -3.03125q0 -2.0 1.640625 -3.21875q1.640625 -1.21875 4.546875 -1.21875l2.515625 0l0 -1.375q0 -1.28125 -0.78125 -1.984375q-0.765625 -0.703125 -2.171875 -0.703125q-0.890625 0 -1.546875 0.21875q-0.640625 0.21875 -1.171875 0.59375l-0.28125 1.96875l-1.96875 0l0 -3.234375q0.953125 -0.765625 2.203125 -1.15625q1.265625 -0.40625 2.796875 -0.40625q2.578125 0 4.03125 1.234375q1.453125 1.21875 1.453125 3.484375l0 6.78125q0 0.28125 0 0.546875q0.015625 0.25 0.046875 0.515625l1.359375 0.140625l0 1.640625l-3.6875 0q-0.109375 -0.578125 -0.171875 -1.03125q-0.0625 -0.453125 -0.09375 -0.90625q-0.75 0.953125 -1.859375 1.578125q-1.109375 0.625 -2.375 0.625zm0.375 -2.140625q1.28125 0 2.328125 -0.609375q1.0625 -0.609375 1.515625 -1.46875l0 -2.5625l-2.609375 0q-1.765625 0 -2.65625 0.859375q-0.875 0.84375 -0.875 1.875q0 0.9375 0.5625 1.421875q0.578125 0.484375 1.734375 0.484375zm14.780701 2.09375q-1.5625 0 -2.484375 -0.90625q-0.921875 -0.921875 -0.921875 -2.9375l0 -8.5625l-2.21875 0l0 -1.890625l2.21875 0l0 -3.40625l2.578125 0l0 3.40625l3.046875 0l0 1.890625l-3.046875 0l0 8.5625q0 1.015625 0.390625 1.5q0.40625 0.46875 1.09375 0.46875q0.453125 0 1.0 -0.078125q0.5625 -0.09375 0.875 -0.15625l0.359375 1.6875q-0.5625 0.171875 -1.375 0.296875q-0.8125 0.125 -1.515625 0.125zm4.4389954 -0.21875l0 -1.640625l2.125 -0.359375l0 -10.0625l-2.125 -0.375l0 -1.640625l4.6875 0l0 12.078125l2.109375 0.359375l0 1.640625l-6.796875 0zm1.984375 -17.5625l0 -2.734375l2.703125 0l0 2.734375l-2.703125 0zm12.955017 17.828125q-1.953125 0 -3.375 -0.90625q-1.40625 -0.921875 -2.171875 -2.53125q-0.765625 -1.625 -0.765625 -3.71875l0 -0.28125q0 -2.078125 0.765625 -3.703125q0.765625 -1.625 2.171875 -2.546875q1.421875 -0.921875 3.34375 -0.921875q1.953125 0 3.359375 0.921875q1.421875 0.921875 2.1875 2.546875q0.765625 1.609375 0.765625 3.703125l0 0.28125q0 2.09375 -0.765625 3.71875q-0.765625 1.625 -2.171875 2.53125q-1.40625 0.90625 -3.34375 0.90625zm0 -2.0q1.21875 0 2.046875 -0.671875q0.828125 -0.671875 1.25 -1.828125q0.421875 -1.171875 0.421875 -2.65625l0 -0.28125q0 -1.484375 -0.421875 -2.640625q-0.421875 -1.171875 -1.265625 -1.84375q-0.828125 -0.671875 -2.0625 -0.671875q-1.21875 0 -2.0625 0.671875q-0.828125 0.671875 -1.25 1.84375q-0.40625 1.15625 -0.40625 2.640625l0 0.28125q0 1.484375 0.40625 2.65625q0.421875 1.15625 1.265625 1.828125q0.84375 0.671875 2.078125 0.671875zm8.270325 1.734375l0 -1.640625l2.109375 -0.359375l0 -10.0625l-2.109375 -0.375l0 -1.640625l4.40625 0l0.1875 2.09375q0.703125 -1.125 1.75 -1.734375q1.0625 -0.625 2.421875 -0.625q2.28125 0 3.53125 1.34375q1.25 1.328125 1.25 4.109375l0 6.890625l2.125 0.359375l0 1.640625l-6.8125 0l0 -1.640625l2.125 -0.359375l0 -6.84375q0 -1.859375 -0.734375 -2.640625q-0.734375 -0.78125 -2.25 -0.78125q-1.109375 0 -1.96875 0.546875q-0.84375 0.53125 -1.34375 1.453125l0 8.265625l2.109375 0.359375l0 1.640625l-6.796875 0z" fill-rule="nonzero"/><path fill="#000000" fill-opacity="0.0" d="m0 25.75328l125.291336 0l0 42.3937l-125.291336 0z" fill-rule="evenodd"/><path fill="#000000" d="m59.04338 56.470154l0 -1.171875l1.390625 -0.25l0 -10.8125l-1.484375 -0.265625l0 -1.15625l3.015625 0l0.171875 1.203125q0.484375 -0.671875 1.1875 -1.015625q0.71875 -0.359375 1.640625 -0.359375q1.21875 0 2.078125 0.65625q0.875 0.65625 1.328125 1.84375q0.453125 1.1875 0.453125 2.78125l0 0.1875q0 1.421875 -0.453125 2.5q-0.453125 1.0625 -1.3125 1.65625q-0.859375 0.59375 -2.0625 0.59375q-0.90625 0 -1.59375 -0.296875q-0.6875 -0.3125 -1.171875 -0.90625l0 3.390625l1.5625 0.25l0 1.171875l-4.75 0zm5.390625 -5.015625q1.28125 0 1.9375 -0.921875q0.65625 -0.921875 0.65625 -2.421875l0 -0.1875q0 -1.125 -0.296875 -1.984375q-0.28125 -0.859375 -0.859375 -1.34375q-0.578125 -0.5 -1.453125 -0.5q-0.765625 0 -1.3125 0.34375q-0.546875 0.34375 -0.875 0.953125l0 4.796875q0.328125 0.609375 0.875 0.9375q0.546875 0.328125 1.328125 0.328125zm10.643646 1.40625q-1.375 0 -2.390625 -0.625q-1.0 -0.625 -1.5625 -1.734375q-0.546875 -1.109375 -0.546875 -2.5625l0 -0.40625q0 -1.40625 0.578125 -2.5q0.578125 -1.109375 1.53125 -1.75q0.96875 -0.640625 2.109375 -0.640625q1.328125 0 2.21875 0.546875q0.90625 0.53125 1.359375 1.53125q0.453125 0.984375 0.453125 2.328125l0 1.109375l-6.390625 0l-0.03125 0.046875q0.015625 0.953125 0.328125 1.6875q0.328125 0.734375 0.921875 1.15625q0.59375 0.40625 1.421875 0.40625q0.90625 0 1.59375 -0.25q0.6875 -0.265625 1.1875 -0.71875l0.703125 1.171875q-0.53125 0.5 -1.40625 0.859375q-0.859375 0.34375 -2.078125 0.34375zm-2.578125 -6.09375l4.53125 0l0 -0.25q0 -0.703125 -0.25 -1.265625q-0.25 -0.5625 -0.75 -0.875q-0.484375 -0.328125 -1.234375 -0.328125q-0.59375 0 -1.09375 0.359375q-0.484375 0.34375 -0.8125 0.953125q-0.3125 0.59375 -0.421875 1.359375l0.03125 0.046875zm12.451645 6.09375q-1.359375 0 -2.359375 -0.640625q-0.984375 -0.640625 -1.53125 -1.765625q-0.53125 -1.140625 -0.53125 -2.59375l0 -0.203125q0 -1.46875 0.53125 -2.59375q0.546875 -1.140625 1.53125 -1.78125q1.0 -0.640625 2.34375 -0.640625q1.375 0 2.359375 0.640625q0.984375 0.640625 1.515625 1.78125q0.546875 1.125 0.546875 2.59375l0 0.203125q0 1.453125 -0.546875 2.59375q-0.53125 1.140625 -1.515625 1.78125q-0.984375 0.625 -2.34375 0.625zm0 -1.40625q0.859375 0 1.4375 -0.46875q0.578125 -0.46875 0.875 -1.28125q0.296875 -0.8125 0.296875 -1.84375l0 -0.203125q0 -1.046875 -0.296875 -1.859375q-0.296875 -0.8125 -0.890625 -1.28125q-0.578125 -0.46875 -1.4375 -0.46875q-0.859375 0 -1.4375 0.46875q-0.578125 0.46875 -0.875 1.28125q-0.296875 0.8125 -0.296875 1.859375l0 0.203125q0 1.03125 0.296875 1.84375q0.296875 0.8125 0.875 1.28125q0.59375 0.46875 1.453125 0.46875zm5.5203247 5.015625l0 -1.171875l1.390625 -0.25l0 -10.8125l-1.484375 -0.265625l0 -1.15625l3.015625 0l0.171875 1.203125q0.484375 -0.671875 1.1875 -1.015625q0.71875 -0.359375 1.640625 -0.359375q1.21875 0 2.078125 0.65625q0.875 0.65625 1.328125 1.84375q0.453125 1.1875 0.453125 2.78125l0 0.1875q0 1.421875 -0.453125 2.5q-0.453125 1.0625 -1.3125 1.65625q-0.859375 0.59375 -2.0625 0.59375q-0.90625 0 -1.59375 -0.296875q-0.6875 -0.3125 -1.171875 -0.90625l0 3.390625l1.5625 0.25l0 1.171875l-4.75 0zm5.390625 -5.015625q1.28125 0 1.9375 -0.921875q0.65625 -0.921875 0.65625 -2.421875l0 -0.1875q0 -1.125 -0.296875 -1.984375q-0.28125 -0.859375 -0.859375 -1.34375q-0.578125 -0.5 -1.453125 -0.5q-0.765625 0 -1.3125 0.34375q-0.546875 0.34375 -0.875 0.953125l0 4.796875q0.328125 0.609375 0.875 0.9375q0.546875 0.328125 1.328125 0.328125zm5.5941772 1.21875l0 -1.140625l1.484375 -0.265625l0 -11.390625l-1.484375 -0.25l0 -1.15625l3.28125 0l0 12.796875l1.484375 0.265625l0 1.140625l-4.765625 0zm10.359955 0.1875q-1.375 0 -2.390625 -0.625q-1.0 -0.625 -1.5625 -1.734375q-0.546875 -1.109375 -0.546875 -2.5625l0 -0.40625q0 -1.40625 0.578125 -2.5q0.578125 -1.109375 1.53125 -1.75q0.96875 -0.640625 2.109375 -0.640625q1.328125 0 2.21875 0.546875q0.90625 0.53125 1.359375 1.53125q0.453125 0.984375 0.453125 2.328125l0 1.109375l-6.390625 0l-0.03125 0.046875q0.015625 0.953125 0.328125 1.6875q0.328125 0.734375 0.921875 1.15625q0.59375 0.40625 1.421875 0.40625q0.90625 0 1.59375 -0.25q0.6875 -0.265625 1.1875 -0.71875l0.703125 1.171875q-0.53125 0.5 -1.40625 0.859375q-0.859375 0.34375 -2.078125 0.34375zm-2.578125 -6.09375l4.53125 0l0 -0.25q0 -0.703125 -0.25 -1.265625q-0.25 -0.5625 -0.75 -0.875q-0.484375 -0.328125 -1.234375 -0.328125q-0.59375 0 -1.09375 0.359375q-0.484375 0.34375 -0.8125 0.953125q-0.3125 0.59375 -0.421875 1.359375l0.03125 0.046875z" fill-rule="nonzero"/><path fill="#000000" fill-opacity="0.0" d="m0 123.17585l125.291336 0l0 42.015755l-125.291336 0z" fill-rule="evenodd"/><path fill="#000000" d="m18.551971 150.28336q-1.328125 0 -2.328125 -0.625q-1.0 -0.625 -1.546875 -1.734375q-0.546875 -1.109375 -0.546875 -2.5625l0 -0.390625q0 -1.390625 0.53125 -2.5q0.53125 -1.125 1.515625 -1.765625q1.0 -0.640625 2.375 -0.640625q1.203125 0 2.09375 0.390625q0.890625 0.390625 1.515625 1.0625l0.03125 2.375l-1.390625 0l-0.3125 -1.71875q-0.3125 -0.328125 -0.78125 -0.515625q-0.453125 -0.1875 -1.09375 -0.1875q-0.796875 0 -1.40625 0.484375q-0.609375 0.46875 -0.953125 1.265625q-0.328125 0.78125 -0.328125 1.75l0 0.390625q0 1.078125 0.3125 1.875q0.328125 0.78125 0.90625 1.21875q0.59375 0.421875 1.40625 0.421875q0.90625 0 1.5 -0.5q0.609375 -0.5 0.75 -1.375l1.609375 0l0.015625 0.0625q-0.046875 0.84375 -0.5 1.59375q-0.453125 0.734375 -1.296875 1.1875q-0.84375 0.4375 -2.078125 0.4375zm9.947693 0q-1.359375 0 -2.359375 -0.640625q-0.984375 -0.640625 -1.53125 -1.765625q-0.53125 -1.140625 -0.53125 -2.59375l0 -0.203125q0 -1.46875 0.53125 -2.59375q0.546875 -1.140625 1.53125 -1.78125q1.0 -0.640625 2.34375 -0.640625q1.375 0 2.359375 0.640625q0.984375 0.640625 1.515625 1.78125q0.546875 1.125 0.546875 2.59375l0 0.203125q0 1.453125 -0.546875 2.59375q-0.53125 1.140625 -1.515625 1.78125q-0.984375 0.625 -2.34375 0.625zm0 -1.40625q0.859375 0 1.4375 -0.46875q0.578125 -0.46875 0.875 -1.28125q0.296875 -0.8125 0.296875 -1.84375l0 -0.203125q0 -1.046875 -0.296875 -1.859375q-0.296875 -0.8125 -0.890625 -1.28125q-0.578125 -0.46875 -1.4375 -0.46875q-0.859375 0 -1.4375 0.46875q-0.578125 0.46875 -0.875 1.28125q-0.296875 0.8125 -0.296875 1.859375l0 0.203125q0 1.03125 0.296875 1.84375q0.296875 0.8125 0.875 1.28125q0.59375 0.46875 1.453125 0.46875zm5.7859497 1.21875l0 -1.140625l1.484375 -0.265625l0 -7.03125l-1.484375 -0.265625l0 -1.15625l3.09375 0l0.125 1.28125q0.46875 -0.703125 1.21875 -1.078125q0.75 -0.375 1.734375 -0.375q0.984375 0 1.6875 0.453125q0.703125 0.453125 1.0625 1.359375q0.46875 -0.84375 1.234375 -1.328125q0.765625 -0.484375 1.78125 -0.484375q1.515625 0 2.390625 1.03125q0.875 1.03125 0.875 3.109375l0 4.484375l1.484375 0.265625l0 1.140625l-4.78125 0l0 -1.140625l1.484375 -0.265625l0 -4.5q0 -1.46875 -0.5 -2.0625q-0.5 -0.609375 -1.484375 -0.609375q-0.9375 0 -1.515625 0.65625q-0.5625 0.65625 -0.65625 1.65625l0 4.859375l1.484375 0.265625l0 1.140625l-4.765625 0l0 -1.140625l1.484375 -0.265625l0 -4.5q0 -1.390625 -0.515625 -2.03125q-0.5 -0.640625 -1.484375 -0.640625q-0.8125 0 -1.34375 0.34375q-0.53125 0.328125 -0.8125 0.9375l0 5.890625l1.484375 0.265625l0 1.140625l-4.765625 0zm18.009476 0l0 -1.140625l1.484375 -0.265625l0 -7.03125l-1.484375 -0.265625l0 -1.15625l3.09375 0l0.125 1.28125q0.46875 -0.703125 1.21875 -1.078125q0.75 -0.375 1.734375 -0.375q0.984375 0 1.6875 0.453125q0.703125 0.453125 1.0625 1.359375q0.46875 -0.84375 1.234375 -1.328125q0.765625 -0.484375 1.78125 -0.484375q1.515625 0 2.390625 1.03125q0.875 1.03125 0.875 3.109375l0 4.484375l1.484375 0.265625l0 1.140625l-4.78125 0l0 -1.140625l1.484375 -0.265625l0 -4.5q0 -1.46875 -0.5 -2.0625q-0.5 -0.609375 -1.484375 -0.609375q-0.9375 0 -1.515625 0.65625q-0.5625 0.65625 -0.65625 1.65625l0 4.859375l1.484375 0.265625l0 1.140625l-4.765625 0l0 -1.140625l1.484375 -0.265625l0 -4.5q0 -1.390625 -0.515625 -2.03125q-0.5 -0.640625 -1.484375 -0.640625q-0.8125 0 -1.34375 0.34375q-0.53125 0.328125 -0.8125 0.9375l0 5.890625l1.484375 0.265625l0 1.140625l-4.765625 0zm21.988647 0.1875q-1.609375 0 -2.515625 -1.03125q-0.890625 -1.03125 -0.890625 -3.203125l0 -4.390625l-1.140625 -0.265625l0 -1.15625l1.140625 0l1.78125 0l0 5.828125q0 1.578125 0.46875 2.171875q0.46875 0.59375 1.453125 0.59375q0.953125 0 1.578125 -0.390625q0.625 -0.390625 0.9375 -1.09375l0 -5.6875l-1.3125 -0.265625l0 -1.15625l1.3125 0l1.796875 0l0 8.453125l1.140625 0.265625l0 1.140625l-2.75 0l-0.125 -1.453125q-0.453125 0.78125 -1.1875 1.21875q-0.734375 0.421875 -1.6875 0.421875zm6.997574 -0.1875l0 -1.140625l1.484375 -0.265625l0 -7.03125l-1.484375 -0.265625l0 -1.15625l3.09375 0l0.125 1.46875q0.484375 -0.78125 1.21875 -1.203125q0.75 -0.4375 1.703125 -0.4375q1.59375 0 2.46875 0.9375q0.875 0.921875 0.875 2.875l0 4.8125l1.484375 0.265625l0 1.140625l-4.765625 0l0 -1.140625l1.484375 -0.265625l0 -4.78125q0 -1.296875 -0.515625 -1.84375q-0.515625 -0.546875 -1.5625 -0.546875q-0.78125 0 -1.375 0.375q-0.59375 0.375 -0.953125 1.015625l0 5.78125l1.484375 0.265625l0 1.140625l-4.765625 0zm12.171555 0l0 -1.140625l1.484375 -0.265625l0 -7.03125l-1.484375 -0.265625l0 -1.15625l3.28125 0l0 8.453125l1.484375 0.265625l0 1.140625l-4.765625 0zm1.390625 -12.28125l0 -1.921875l1.890625 0l0 1.921875l-1.890625 0zm8.095642 12.4375q-1.09375 0 -1.734375 -0.640625q-0.640625 -0.640625 -0.640625 -2.0625l0 -5.984375l-1.5625 0l0 -1.328125l1.5625 0l0 -2.375l1.796875 0l0 2.375l2.140625 0l0 1.328125l-2.140625 0l0 5.984375q0 0.71875 0.28125 1.0625q0.28125 0.328125 0.75 0.328125q0.3125 0 0.703125 -0.0625q0.40625 -0.0625 0.625 -0.109375l0.234375 1.1875q-0.390625 0.109375 -0.96875 0.203125q-0.5625 0.09375 -1.046875 0.09375zm5.306183 3.828125q-0.203125 0 -0.546875 -0.0625q-0.328125 -0.046875 -0.515625 -0.09375l0.1875 -1.40625q0.15625 0.015625 0.421875 0.03125q0.265625 0.015625 0.375 0.015625q0.578125 0 0.9375 -0.4375q0.359375 -0.4375 0.671875 -1.1875l0.421875 -1.046875l-3.484375 -8.34375l-1.0625 -0.15625l0 -1.15625l4.140625 0l0 1.15625l-1.203125 0.1875l1.921875 4.921875l0.46875 1.28125l0.0625 0l2.265625 -6.203125l-1.25 -0.1875l0 -1.15625l4.046875 0l0 1.15625l-1.015625 0.15625l-3.875 10.0625q-0.28125 0.703125 -0.671875 1.265625q-0.375 0.5625 -0.9375 0.875q-0.5625 0.328125 -1.359375 0.328125z" fill-rule="nonzero"/><path fill="#000000" fill-opacity="0.0" d="m0 220.22047l125.291336 0l0 42.01573l-125.291336 0z" fill-rule="evenodd"/><path fill="#000000" d="m36.442764 250.93735l0 -1.171875l1.390625 -0.25l0 -10.8125l-1.484375 -0.265625l0 -1.15625l3.015625 0l0.171875 1.203125q0.484375 -0.671875 1.1875 -1.015625q0.71875 -0.359375 1.640625 -0.359375q1.21875 0 2.078125 0.65625q0.875 0.65625 1.328125 1.84375q0.453125 1.1875 0.453125 2.78125l0 0.1875q0 1.421875 -0.453125 2.5q-0.453125 1.0625 -1.3125 1.65625q-0.859375 0.59375 -2.0625 0.59375q-0.90625 0 -1.59375 -0.296875q-0.6875 -0.3125 -1.171875 -0.90625l0 3.390625l1.5625 0.25l0 1.171875l-4.75 0zm5.390625 -5.015625q1.28125 0 1.9375 -0.921875q0.65625 -0.921875 0.65625 -2.421875l0 -0.1875q0 -1.125 -0.296875 -1.984375q-0.28125 -0.859375 -0.859375 -1.34375q-0.578125 -0.5 -1.453125 -0.5q-0.765625 0 -1.3125 0.34375q-0.546875 0.34375 -0.875 0.953125l0 4.796875q0.328125 0.609375 0.875 0.9375q0.546875 0.328125 1.328125 0.328125zm5.763443 1.21875l0 -1.140625l1.484375 -0.265625l0 -7.03125l-1.484375 -0.265625l0 -1.15625l3.09375 0l0.15625 1.265625l0.015625 0.171875q0.421875 -0.765625 1.03125 -1.1875q0.609375 -0.421875 1.40625 -0.421875q0.28125 0 0.578125 0.046875q0.296875 0.046875 0.421875 0.09375l-0.234375 1.671875l-1.25 -0.078125q-0.703125 -0.046875 -1.1875 0.328125q-0.484375 0.359375 -0.75 0.984375l0 5.578125l1.484375 0.265625l0 1.140625l-4.765625 0zm10.9826355 0.1875q-1.53125 0 -2.34375 -0.75q-0.796875 -0.75 -0.796875 -2.109375q0 -1.40625 1.140625 -2.25q1.15625 -0.859375 3.203125 -0.859375l1.75 0l0 -0.96875q0 -0.890625 -0.546875 -1.375q-0.53125 -0.5 -1.515625 -0.5q-0.625 0 -1.078125 0.15625q-0.453125 0.140625 -0.828125 0.40625l-0.1875 1.375l-1.390625 0l0 -2.265625q0.671875 -0.53125 1.546875 -0.796875q0.890625 -0.28125 1.953125 -0.28125q1.796875 0 2.8125 0.859375q1.03125 0.84375 1.03125 2.4375l0 4.75q0 0.1875 0 0.375q0.015625 0.171875 0.03125 0.359375l0.953125 0.109375l0 1.140625l-2.578125 0q-0.078125 -0.40625 -0.125 -0.71875q-0.046875 -0.3125 -0.0625 -0.640625q-0.53125 0.671875 -1.3125 1.109375q-0.765625 0.4375 -1.65625 0.4375zm0.265625 -1.5q0.890625 0 1.625 -0.421875q0.75 -0.4375 1.0625 -1.03125l0 -1.796875l-1.828125 0q-1.234375 0 -1.859375 0.59375q-0.609375 0.59375 -0.609375 1.328125q0 0.640625 0.390625 0.984375q0.40625 0.34375 1.21875 0.34375zm11.311951 1.5q-1.328125 0 -2.328125 -0.625q-1.0 -0.625 -1.546875 -1.734375q-0.546875 -1.109375 -0.546875 -2.5625l0 -0.390625q0 -1.390625 0.53125 -2.5q0.53125 -1.125 1.515625 -1.765625q1.0 -0.640625 2.375 -0.640625q1.203125 0 2.09375 0.390625q0.890625 0.390625 1.515625 1.0625l0.03125 2.375l-1.390625 0l-0.3125 -1.71875q-0.3125 -0.328125 -0.78125 -0.515625q-0.453125 -0.1875 -1.09375 -0.1875q-0.796875 0 -1.40625 0.484375q-0.609375 0.46875 -0.953125 1.265625q-0.328125 0.78125 -0.328125 1.75l0 0.390625q0 1.078125 0.3125 1.875q0.328125 0.78125 0.90625 1.21875q0.59375 0.421875 1.40625 0.421875q0.90625 0 1.5 -0.5q0.609375 -0.5 0.75 -1.375l1.609375 0l0.015625 0.0625q-0.046875 0.84375 -0.5 1.59375q-0.453125 0.734375 -1.296875 1.1875q-0.84375 0.4375 -2.078125 0.4375zm8.751083 -0.03125q-1.09375 0 -1.734375 -0.640625q-0.640625 -0.640625 -0.640625 -2.0625l0 -5.984375l-1.5625 0l0 -1.328125l1.5625 0l0 -2.375l1.796875 0l0 2.375l2.140625 0l0 1.328125l-2.140625 0l0 5.984375q0 0.71875 0.28125 1.0625q0.28125 0.328125 0.75 0.328125q0.3125 0 0.703125 -0.0625q0.40625 -0.0625 0.625 -0.109375l0.234375 1.1875q-0.390625 0.109375 -0.96875 0.203125q-0.5625 0.09375 -1.046875 0.09375zm3.1030579 -0.15625l0 -1.140625l1.484375 -0.265625l0 -7.03125l-1.484375 -0.265625l0 -1.15625l3.28125 0l0 8.453125l1.484375 0.265625l0 1.140625l-4.765625 0zm1.390625 -12.28125l0 -1.921875l1.890625 0l0 1.921875l-1.890625 0zm9.064392 12.46875q-1.328125 0 -2.328125 -0.625q-1.0 -0.625 -1.546875 -1.734375q-0.546875 -1.109375 -0.546875 -2.5625l0 -0.390625q0 -1.390625 0.53125 -2.5q0.53125 -1.125 1.515625 -1.765625q1.0 -0.640625 2.375 -0.640625q1.203125 0 2.09375 0.390625q0.890625 0.390625 1.515625 1.0625l0.03125 2.375l-1.390625 0l-0.3125 -1.71875q-0.3125 -0.328125 -0.78125 -0.515625q-0.453125 -0.1875 -1.09375 -0.1875q-0.796875 0 -1.40625 0.484375q-0.609375 0.46875 -0.953125 1.265625q-0.328125 0.78125 -0.328125 1.75l0 0.390625q0 1.078125 0.3125 1.875q0.328125 0.78125 0.90625 1.21875q0.59375 0.421875 1.40625 0.421875q0.90625 0 1.5 -0.5q0.609375 -0.5 0.75 -1.375l1.609375 0l0.015625 0.0625q-0.046875 0.84375 -0.5 1.59375q-0.453125 0.734375 -1.296875 1.1875q-0.84375 0.4375 -2.078125 0.4375zm9.994568 0q-1.375 0 -2.390625 -0.625q-1.0 -0.625 -1.5625 -1.734375q-0.546875 -1.109375 -0.546875 -2.5625l0 -0.40625q0 -1.40625 0.578125 -2.5q0.578125 -1.109375 1.53125 -1.75q0.96875 -0.640625 2.109375 -0.640625q1.328125 0 2.21875 0.546875q0.90625 0.53125 1.359375 1.53125q0.453125 0.984375 0.453125 2.328125l0 1.109375l-6.390625 0l-0.03125 0.046875q0.015625 0.953125 0.328125 1.6875q0.328125 0.734375 0.921875 1.15625q0.59375 0.40625 1.421875 0.40625q0.90625 0 1.59375 -0.25q0.6875 -0.265625 1.1875 -0.71875l0.703125 1.171875q-0.53125 0.5 -1.40625 0.859375q-0.859375 0.34375 -2.078125 0.34375zm-2.578125 -6.09375l4.53125 0l0 -0.25q0 -0.703125 -0.25 -1.265625q-0.25 -0.5625 -0.75 -0.875q-0.484375 -0.328125 -1.234375 -0.328125q-0.59375 0 -1.09375 0.359375q-0.484375 0.34375 -0.8125 0.953125q-0.3125 0.59375 -0.421875 1.359375l0.03125 0.046875zm11.77066 6.09375q-1.0 0 -1.875 -0.1875q-0.859375 -0.203125 -1.828125 -0.625l-0.015625 -2.34375l1.359375 0l0.328125 1.40625q0.515625 0.21875 0.984375 0.3125q0.484375 0.09375 1.046875 0.09375q1.078125 0 1.546875 -0.421875q0.484375 -0.421875 0.484375 -1.03125q0 -0.59375 -0.484375 -1.0q-0.46875 -0.40625 -1.734375 -0.6875q-1.78125 -0.40625 -2.625 -1.09375q-0.84375 -0.6875 -0.84375 -1.828125q0 -0.8125 0.46875 -1.4375q0.46875 -0.640625 1.296875 -1.0q0.828125 -0.375 1.921875 -0.375q1.125 0 1.921875 0.25q0.796875 0.25 1.390625 0.6875l0.09375 2.25l-1.34375 0l-0.296875 -1.3125q-0.3125 -0.25 -0.75 -0.375q-0.4375 -0.125 -1.015625 -0.125q-0.828125 0 -1.359375 0.390625q-0.515625 0.390625 -0.515625 0.984375q0 0.34375 0.140625 0.609375q0.15625 0.25 0.578125 0.453125q0.4375 0.203125 1.265625 0.40625q2.0625 0.484375 2.875 1.234375q0.8125 0.75 0.8125 1.84375q0 1.234375 -0.921875 2.078125q-0.921875 0.84375 -2.90625 0.84375z" fill-rule="nonzero"/></g></svg>