<svg version="1.1" viewBox="0.0 0.0 571.0314960629921 178.0" fill="none" stroke="none" stroke-linecap="square" stroke-miterlimit="10" xmlns:xlink="http://www.w3.org/1999/xlink" xmlns="http://www.w3.org/2000/svg"><clipPath id="p.0"><path d="m0 0l571.0315 0l0 178.0l-571.0315 0l0 -178.0z" clip-rule="nonzero"/></clipPath><g clip-path="url(#p.0)"><path fill="#000000" fill-opacity="0.0" d="m0 0l571.0315 0l0 178.0l-571.0315 0z" fill-rule="evenodd"/><g filter="url(#shadowFilter-p.1)"><use xlink:href="#p.1" transform="matrix(1.0 0.0 0.0 1.0 0.0 2.0)"/></g><defs><filter id="shadowFilter-p.1" filterUnits="userSpaceOnUse"><feGaussianBlur in="SourceAlpha" stdDeviation="2.0" result="blur"/><feComponentTransfer in="blur" color-interpolation-filters="sRGB"><feFuncR type="linear" slope="0" intercept="0.0"/><feFuncG type="linear" slope="0" intercept="0.0"/><feFuncB type="linear" slope="0" intercept="0.0"/><feFuncA type="linear" slope="0.5" intercept="0"/></feComponentTransfer></filter></defs><g id="p.1"><path fill="#ffffff" d="m4.3394856 1.8619832l563.5276 0l0 170.55118l-563.5276 0z" fill-rule="evenodd"/></g><path fill="#ffffff" fill-opacity="0.5333" d="m293.8209 133.62827l246.29922 0l0 32.40944l-246.29922 0z" fill-rule="evenodd"/><path fill="#000000" d="m326.15384 155.69298l0 -1.203125l0.828125 -0.125l3.765625 -10.046875l1.90625 0l3.71875 10.046875l0.828125 0.125l0 1.203125l-3.609375 0l0 -1.203125l0.8125 -0.15625l-0.609375 -1.78125l-4.234375 0l-0.609375 1.78125l0.8125 0.15625l0 1.203125l-3.609375 0zm3.921875 -4.65625l3.21875 0l-1.484375 -4.203125l-0.09375 -0.3125l-0.046875 0l-0.109375 0.328125l-1.484375 4.1875zm8.0546875 4.65625l0 -1.203125l1.25 -0.234375l0 -8.5l-1.25 -0.234375l0 -1.203125l1.25 0l1.96875 0l1.328125 0l0 1.203125l-1.328125 0.234375l0 8.421875l3.546875 0l0.140625 -1.71875l1.5 0l0 3.234375l-8.40625 0zm13.828125 0.171875q-1.171875 0 -2.171875 -0.296875q-1.0 -0.296875 -1.9375 -0.96875l0 -2.609375l1.515625 0l0.25 1.6875q0.421875 0.296875 1.015625 0.484375q0.609375 0.171875 1.328125 0.171875q0.6875 0 1.15625 -0.1875q0.484375 -0.203125 0.734375 -0.5625q0.25 -0.359375 0.25 -0.859375q0 -0.453125 -0.21875 -0.796875q-0.21875 -0.359375 -0.734375 -0.625q-0.5 -0.28125 -1.375 -0.515625q-1.265625 -0.34375 -2.125 -0.8125q-0.859375 -0.46875 -1.296875 -1.125q-0.421875 -0.65625 -0.421875 -1.546875q0 -0.921875 0.484375 -1.625q0.5 -0.703125 1.375 -1.109375q0.890625 -0.40625 2.046875 -0.40625q1.265625 -0.015625 2.234375 0.328125q0.984375 0.34375 1.65625 0.890625l0 2.453125l-1.5 0l-0.28125 -1.59375q-0.3125 -0.234375 -0.828125 -0.390625q-0.515625 -0.15625 -1.203125 -0.15625q-0.59375 0 -1.046875 0.203125q-0.453125 0.1875 -0.71875 0.546875q-0.25 0.34375 -0.25 0.84375q0 0.421875 0.21875 0.75q0.234375 0.3125 0.765625 0.578125q0.53125 0.265625 1.4375 0.53125q1.84375 0.484375 2.796875 1.359375q0.953125 0.859375 0.953125 2.203125q0 0.953125 -0.515625 1.65625q-0.5 0.703125 -1.4375 1.109375q-0.921875 0.390625 -2.15625 0.390625zm10.171875 0q-1.140625 0 -2.0625 -0.421875q-0.90625 -0.4375 -1.5625 -1.203125q-0.640625 -0.78125 -1.0 -1.828125q-0.34375 -1.0625 -0.34375 -2.328125l0 -0.171875q0 -1.25 0.34375 -2.296875q0.359375 -1.0625 1.0 -1.828125q0.65625 -0.78125 1.5625 -1.203125q0.921875 -0.4375 2.046875 -0.4375q1.171875 0 2.09375 0.4375q0.921875 0.421875 1.5625 1.203125q0.65625 0.765625 1.0 1.828125q0.34375 1.046875 0.34375 2.296875l0 0.171875q0 1.265625 -0.34375 2.328125q-0.34375 1.046875 -1.0 1.828125q-0.640625 0.765625 -1.5625 1.203125q-0.921875 0.421875 -2.078125 0.421875zm0 -1.578125q1.03125 0 1.6875 -0.515625q0.671875 -0.53125 1.0 -1.46875q0.328125 -0.953125 0.328125 -2.21875l0 -0.1875q0 -1.234375 -0.328125 -2.171875q-0.328125 -0.9375 -1.0 -1.46875q-0.671875 -0.53125 -1.703125 -0.53125q-0.984375 0 -1.65625 0.53125q-0.65625 0.53125 -1.0 1.46875q-0.328125 0.9375 -0.328125 2.171875l0 0.1875q0 1.25 0.328125 2.203125q0.34375 0.953125 1.015625 1.484375q0.671875 0.515625 1.65625 0.515625zm9.9453125 1.40625l0 -1.203125l1.25 -0.234375l0 -8.5l-1.25 -0.234375l0 -1.203125l8.84375 0l0 2.953125l-1.53125 0l-0.125 -1.4375l-3.96875 0l0 3.46875l4.046875 0l0 1.53125l-4.046875 0l0 3.421875l1.234375 0.234375l0 1.203125l-4.453125 0zm9.8515625 0l0 -1.203125l1.25 -0.234375l0 -8.5l-1.25 -0.234375l0 -1.203125l4.453125 0l0 1.203125l-1.234375 0.234375l0 8.5l1.234375 0.234375l0 1.203125l-4.453125 0zm4.9609375 0l0 -1.203125l0.828125 -0.125l3.765625 -10.046875l1.90625 0l3.71875 10.046875l0.828125 0.125l0 1.203125l-3.609375 0l0 -1.203125l0.8125 -0.15625l-0.609375 -1.78125l-4.234375 0l-0.609375 1.78125l0.8125 0.15625l0 1.203125l-3.609375 0zm3.921875 -4.65625l3.21875 0l-1.484375 -4.203125l-0.09375 -0.3125l-0.046875 0l-0.109375 0.328125l-1.484375 4.1875zm9.2890625 4.65625l0 -1.203125l1.25 -0.234375l0 -8.4375l-2.296875 0l-0.171875 1.453125l-1.46875 0l0 -2.953125l9.84375 0l0 2.953125l-1.484375 0l-0.171875 -1.453125l-2.28125 0l0 8.4375l1.234375 0.234375l0 1.203125l-4.453125 0zm12.1484375 0l0 -1.203125l1.25 -0.234375l0 -8.5l-1.25 -0.234375l0 -1.203125l4.453125 0l0 1.203125l-1.234375 0.234375l0 3.546875l4.96875 0l0 -3.546875l-1.234375 -0.234375l0 -1.203125l1.234375 0l1.96875 0l1.234375 0l0 1.203125l-1.234375 0.234375l0 8.5l1.234375 0.234375l0 1.203125l-4.4375 0l0 -1.203125l1.234375 -0.234375l0 -3.421875l-4.96875 0l0 3.421875l1.234375 0.234375l0 1.203125l-4.453125 0zm12.421875 0l0 -1.203125l1.25 -0.234375l0 -8.5l-1.25 -0.234375l0 -1.203125l4.453125 0l0 1.203125l-1.234375 0.234375l0 8.5l1.234375 0.234375l0 1.203125l-4.453125 0zm5.484375 0l0 -1.203125l1.25 -0.234375l0 -8.5l-1.25 -0.234375l0 -1.203125l8.671875 0l0 2.921875l-1.53125 0l-0.140625 -1.40625l-3.78125 0l0 3.21875l3.984375 0l0 1.515625l-3.984375 0l0 3.625l4.0 0l0.125 -1.453125l1.515625 0l0 2.953125l-8.859375 0zm10.2109375 0l0 -1.203125l1.25 -0.234375l0 -8.5l-1.25 -0.234375l0 -1.203125l5.265625 0q1.28125 0 2.1875 0.390625q0.90625 0.390625 1.375 1.125q0.484375 0.734375 0.484375 1.78125q0 1.0 -0.484375 1.75q-0.46875 0.734375 -1.3125 1.140625q-0.84375 0.40625 -1.984375 0.421875l-2.3125 0.03125l0 3.296875l1.234375 0.234375l0 1.203125l-4.453125 0zm7.40625 0l-2.171875 -5.234375l1.84375 -0.3125l1.84375 4.140625l0.890625 0.1875l0 1.21875l-2.40625 0zm-4.1875 -6.265625l1.953125 0q1.109375 0 1.640625 -0.453125q0.53125 -0.453125 0.53125 -1.3125q0 -0.828125 -0.515625 -1.328125q-0.515625 -0.5 -1.5625 -0.5l-2.046875 0l0 3.59375zm7.609375 6.265625l0 -1.203125l0.828125 -0.125l3.765625 -10.046875l1.90625 0l3.71875 10.046875l0.828125 0.125l0 1.203125l-3.609375 0l0 -1.203125l0.8125 -0.15625l-0.609375 -1.78125l-4.234375 0l-0.609375 1.78125l0.8125 0.15625l0 1.203125l-3.609375 0zm3.921875 -4.65625l3.21875 0l-1.484375 -4.203125l-0.09375 -0.3125l-0.046875 0l-0.109375 0.328125l-1.484375 4.1875zm8.0546875 4.65625l0 -1.203125l1.25 -0.234375l0 -8.5l-1.25 -0.234375l0 -1.203125l5.265625 0q1.28125 0 2.1875 0.390625q0.90625 0.390625 1.375 1.125q0.484375 0.734375 0.484375 1.78125q0 1.0 -0.484375 1.75q-0.46875 0.734375 -1.3125 1.140625q-0.84375 0.40625 -1.984375 0.421875l-2.3125 0.03125l0 3.296875l1.234375 0.234375l0 1.203125l-4.453125 0zm7.40625 0l-2.171875 -5.234375l1.84375 -0.3125l1.84375 4.140625l0.890625 0.1875l0 1.21875l-2.40625 0zm-4.1875 -6.265625l1.953125 0q1.109375 0 1.640625 -0.453125q0.53125 -0.453125 0.53125 -1.3125q0 -0.828125 -0.515625 -1.328125q-0.515625 -0.5 -1.5625 -0.5l-2.046875 0l0 3.59375zm13.015625 6.4375q-1.6875 0 -2.875 -0.71875q-1.1875 -0.71875 -1.828125 -2.0q-0.625 -1.296875 -0.625 -3.0l0 -0.28125q0 -1.671875 0.625 -2.953125q0.625 -1.28125 1.78125 -2.015625q1.171875 -0.75 2.796875 -0.75q1.125 0 2.09375 0.34375q0.96875 0.328125 1.6875 0.9375l0 2.625l-1.5 0l-0.203125 -1.75q-0.25 -0.1875 -0.5625 -0.3125q-0.3125 -0.140625 -0.6875 -0.203125q-0.375 -0.078125 -0.8125 -0.078125q-1.015625 0 -1.75 0.515625q-0.734375 0.515625 -1.125 1.453125q-0.375 0.921875 -0.375 2.171875l0 0.296875q0 1.296875 0.40625 2.234375q0.40625 0.9375 1.171875 1.4375q0.765625 0.5 1.828125 0.5q0.515625 0 1.015625 -0.125q0.5 -0.125 0.890625 -0.3125l0.203125 -1.59375l1.484375 0l0 2.609375q-0.65625 0.421875 -1.609375 0.703125q-0.9375 0.265625 -2.03125 0.265625zm4.90625 -0.171875l0 -1.203125l1.25 -0.234375l0 -8.5l-1.25 -0.234375l0 -1.203125l4.453125 0l0 1.203125l-1.234375 0.234375l0 3.546875l4.96875 0l0 -3.546875l-1.234375 -0.234375l0 -1.203125l1.234375 0l1.96875 0l1.234375 0l0 1.203125l-1.234375 0.234375l0 8.5l1.234375 0.234375l0 1.203125l-4.4375 0l0 -1.203125l1.234375 -0.234375l0 -3.421875l-4.96875 0l0 3.421875l1.234375 0.234375l0 1.203125l-4.453125 0zm15.40625 0l0 -1.203125l1.234375 -0.234375l0 -2.5625l-3.421875 -6.015625l-1.03125 -0.15625l0 -1.203125l4.28125 0l0 1.203125l-1.078125 0.140625l2.109375 3.984375l0.171875 0.34375l0.03125 -0.015625l0.15625 -0.3125l2.28125 -4.0l-1.28125 -0.140625l0 -1.203125l4.1875 0l0 1.203125l-1.0625 0.15625l-3.375 5.859375l0 2.71875l1.234375 0.234375l0 1.203125l-4.4375 0z" fill-rule="nonzero"/><path fill="#ffffff" fill-opacity="0.5333" d="m19.603313 133.62827l186.42519 0l0 32.40944l-186.42519 0z" fill-rule="evenodd"/><path fill="#000000" d="m44.982853 155.69298l0 -1.203125l1.25 -0.234375l0 -8.5l-1.25 -0.234375l0 -1.203125l8.84375 0l0 2.953125l-1.53125 0l-0.125 -1.4375l-3.96875 0l0 3.46875l4.046875 0l0 1.53125l-4.046875 0l0 3.421875l1.234375 0.234375l0 1.203125l-4.453125 0zm9.8515625 0l0 -1.203125l1.25 -0.234375l0 -8.5l-1.25 -0.234375l0 -1.203125l4.453125 0l0 1.203125l-1.234375 0.234375l0 8.5l1.234375 0.234375l0 1.203125l-4.453125 0zm4.9609375 0l0 -1.203125l0.828125 -0.125l3.7656212 -10.046875l1.90625 0l3.71875 10.046875l0.828125 0.125l0 1.203125l-3.609375 0l0 -1.203125l0.8125 -0.15625l-0.609375 -1.78125l-4.234371 0l-0.609375 1.78125l0.8125 0.15625l0 1.203125l-3.609375 0zm3.921875 -4.65625l3.2187462 0l-1.484375 -4.203125l-0.09375 -0.3125l-0.046875 0l-0.109375 0.328125l-1.4843712 4.1875zm9.289059 4.65625l0 -1.203125l1.25 -0.234375l0 -8.4375l-2.296875 0l-0.171875 1.453125l-1.46875 0l0 -2.953125l9.84375 0l0 2.953125l-1.484375 0l-0.171875 -1.453125l-2.28125 0l0 8.4375l1.234375 0.234375l0 1.203125l-4.453125 0zm12.1484375 0l0 -1.203125l1.25 -0.234375l0 -8.5l-1.25 -0.234375l0 -1.203125l4.453125 0l0 1.203125l-1.234375 0.234375l0 3.546875l4.96875 0l0 -3.546875l-1.234375 -0.234375l0 -1.203125l1.234375 0l1.96875 0l1.234375 0l0 1.203125l-1.234375 0.234375l0 8.5l1.234375 0.234375l0 1.203125l-4.4375 0l0 -1.203125l1.234375 -0.234375l0 -3.421875l-4.96875 0l0 3.421875l1.234375 0.234375l0 1.203125l-4.453125 0zm12.421875 0l0 -1.203125l1.25 -0.234375l0 -8.5l-1.25 -0.234375l0 -1.203125l4.453125 0l0 1.203125l-1.234375 0.234375l0 8.5l1.234375 0.234375l0 1.203125l-4.453125 0zm5.484375 0l0 -1.203125l1.25 -0.234375l0 -8.5l-1.25 -0.234375l0 -1.203125l8.671875 0l0 2.921875l-1.53125 0l-0.140625 -1.40625l-3.78125 0l0 3.21875l3.984375 0l0 1.515625l-3.984375 0l0 3.625l4.0 0l0.125 -1.453125l1.515625 0l0 2.953125l-8.859375 0zm10.2109375 0l0 -1.203125l1.25 -0.234375l0 -8.5l-1.25 -0.234375l0 -1.203125l5.265625 0q1.28125 0 2.1875 0.390625q0.90625 0.390625 1.375 1.125q0.484375 0.734375 0.484375 1.78125q0 1.0 -0.484375 1.75q-0.46875 0.734375 -1.3125 1.140625q-0.84375 0.40625 -1.984375 0.421875l-2.3125 0.03125l0 3.296875l1.234375 0.234375l0 1.203125l-4.453125 0zm7.40625 0l-2.171875 -5.234375l1.84375 -0.3125l1.84375 4.140625l0.890625 0.1875l0 1.21875l-2.40625 0zm-4.1875 -6.265625l1.953125 0q1.109375 0 1.640625 -0.453125q0.53125 -0.453125 0.53125 -1.3125q0 -0.828125 -0.515625 -1.328125q-0.515625 -0.5 -1.5625 -0.5l-2.046875 0l0 3.59375zm7.609375 6.265625l0 -1.203125l0.828125 -0.125l3.765625 -10.046875l1.90625 0l3.71875 10.046875l0.828125 0.125l0 1.203125l-3.609375 0l0 -1.203125l0.8125 -0.15625l-0.609375 -1.78125l-4.234375 0l-0.609375 1.78125l0.8125 0.15625l0 1.203125l-3.609375 0zm3.921875 -4.65625l3.21875 0l-1.484375 -4.203125l-0.09375 -0.3125l-0.046875 0l-0.109375 0.328125l-1.484375 4.1875zm8.0546875 4.65625l0 -1.203125l1.25 -0.234375l0 -8.5l-1.25 -0.234375l0 -1.203125l5.265625 0q1.28125 0 2.1875 0.390625q0.90625 0.390625 1.375 1.125q0.484375 0.734375 0.484375 1.78125q0 1.0 -0.484375 1.75q-0.46875 0.734375 -1.3125 1.140625q-0.84375 0.40625 -1.984375 0.421875l-2.3125 0.03125l0 3.296875l1.234375 0.234375l0 1.203125l-4.453125 0zm7.40625 0l-2.171875 -5.234375l1.84375 -0.3125l1.84375 4.140625l0.890625 0.1875l0 1.21875l-2.40625 0zm-4.1875 -6.265625l1.953125 0q1.109375 0 1.640625 -0.453125q0.53125 -0.453125 0.53125 -1.3125q0 -0.828125 -0.515625 -1.328125q-0.515625 -0.5 -1.5625 -0.5l-2.046875 0l0 3.59375zm13.01564 6.4375q-1.6875 0 -2.875 -0.71875q-1.1875 -0.71875 -1.828125 -2.0q-0.62501526 -1.296875 -0.62501526 -3.0l0 -0.28125q0 -1.671875 0.62501526 -2.953125q0.625 -1.28125 1.78125 -2.015625q1.171875 -0.75 2.796875 -0.75q1.125 0 2.09375 0.34375q0.96875 0.328125 1.6875 0.9375l0 2.625l-1.5 0l-0.203125 -1.75q-0.25 -0.1875 -0.5625 -0.3125q-0.3125 -0.140625 -0.6875 -0.203125q-0.375 -0.078125 -0.8125 -0.078125q-1.015625 0 -1.75 0.515625q-0.734375 0.515625 -1.125 1.453125q-0.375 0.921875 -0.375 2.171875l0 0.296875q0 1.296875 0.40625 2.234375q0.40625 0.9375 1.171875 1.4375q0.765625 0.5 1.828125 0.5q0.515625 0 1.015625 -0.125q0.5 -0.125 0.890625 -0.3125l0.203125 -1.59375l1.484375 0l0 2.609375q-0.65625 0.421875 -1.609375 0.703125q-0.9375 0.265625 -2.03125 0.265625zm4.90625 -0.171875l0 -1.203125l1.25 -0.234375l0 -8.5l-1.25 -0.234375l0 -1.203125l4.453125 0l0 1.203125l-1.234375 0.234375l0 3.546875l4.96875 0l0 -3.546875l-1.234375 -0.234375l0 -1.203125l1.234375 0l1.96875 0l1.234375 0l0 1.203125l-1.234375 0.234375l0 8.5l1.234375 0.234375l0 1.203125l-4.4375 0l0 -1.203125l1.234375 -0.234375l0 -3.421875l-4.96875 0l0 3.421875l1.234375 0.234375l0 1.203125l-4.453125 0zm15.40625 0l0 -1.203125l1.234375 -0.234375l0 -2.5625l-3.421875 -6.015625l-1.03125 -0.15625l0 -1.203125l4.28125 0l0 1.203125l-1.078125 0.140625l2.109375 3.984375l0.171875 0.34375l0.03125 -0.015625l0.15625 -0.3125l2.28125 -4.0l-1.28125 -0.140625l0 -1.203125l4.1875 0l0 1.203125l-1.0625 0.15625l-3.375 5.859375l0 2.71875l1.234375 0.234375l0 1.203125l-4.4375 0z" fill-rule="nonzero"/><path fill="#000000" fill-opacity="0.0" d="m351.28333 57.707146l0 0c0 -4.792267 3.8919373 -8.677166 8.692902 -8.677166l0 0c2.3055115 0 4.516571 0.9141998 6.14682 2.541481c1.6302185 1.627285 2.5460815 3.8343582 2.5460815 6.135685l0 0c0 4.792267 -3.8919373 8.677162 -8.692902 8.677162l0 0c-4.8009644 0 -8.692902 -3.8848953 -8.692902 -8.677162z" fill-rule="evenodd"/><path stroke="#000000" stroke-width="1.0" stroke-linejoin="round" stroke-linecap="butt" d="m351.28333 57.707146l0 0c0 -4.792267 3.8919373 -8.677166 8.692902 -8.677166l0 0c2.3055115 0 4.516571 0.9141998 6.14682 2.541481c1.6302185 1.627285 2.5460815 3.8343582 2.5460815 6.135685l0 0c0 4.792267 -3.8919373 8.677162 -8.692902 8.677162l0 0c-4.8009644 0 -8.692902 -3.8848953 -8.692902 -8.677162z" fill-rule="evenodd"/><path fill="#000000" fill-opacity="0.0" d="m408.391 57.707146l0 0c0 -4.792267 3.8919373 -8.677166 8.692902 -8.677166l0 0c2.3055115 0 4.5166016 0.9141998 6.14682 2.541481c1.630249 1.627285 2.546112 3.8343582 2.546112 6.135685l0 0c0 4.792267 -3.8919678 8.677162 -8.692932 8.677162l0 0c-4.8009644 0 -8.692902 -3.8848953 -8.692902 -8.677162z" fill-rule="evenodd"/><path stroke="#000000" stroke-width="1.0" stroke-linejoin="round" stroke-linecap="butt" d="m408.391 57.707146l0 0c0 -4.792267 3.8919373 -8.677166 8.692902 -8.677166l0 0c2.3055115 0 4.5166016 0.9141998 6.14682 2.541481c1.630249 1.627285 2.546112 3.8343582 2.546112 6.135685l0 0c0 4.792267 -3.8919678 8.677162 -8.692932 8.677162l0 0c-4.8009644 0 -8.692902 -3.8848953 -8.692902 -8.677162z" fill-rule="evenodd"/><path fill="#000000" fill-opacity="0.0" d="m286.13116 89.72181l0 0c0 -9.401886 7.6428833 -17.02362 17.070862 -17.02362l0 0c4.527466 0 8.869507 1.7935562 12.070923 4.986107c3.201416 3.1925507 4.999939 7.5225754 4.999939 12.037514l0 0c0 9.401894 -7.6428833 17.023628 -17.070862 17.023628l0 0c-9.4279785 0 -17.070862 -7.6217346 -17.070862 -17.023628z" fill-rule="evenodd"/><path stroke="#000000" stroke-width="1.0" stroke-linejoin="round" stroke-linecap="butt" d="m286.13116 89.72181l0 0c0 -9.401886 7.6428833 -17.02362 17.070862 -17.02362l0 0c4.527466 0 8.869507 1.7935562 12.070923 4.986107c3.201416 3.1925507 4.999939 7.5225754 4.999939 12.037514l0 0c0 9.401894 -7.6428833 17.023628 -17.070862 17.023628l0 0c-9.4279785 0 -17.070862 -7.6217346 -17.070862 -17.023628z" fill-rule="evenodd"/><path fill="#000000" fill-opacity="0.0" d="m522.4966 57.707146l0 0c0 -4.792267 3.8919067 -8.677166 8.692871 -8.677166l0 0c2.305542 0 4.5166016 0.9141998 6.1468506 2.541481c1.630249 1.627285 2.5460815 3.8343582 2.5460815 6.135685l0 0c0 4.792267 -3.8919678 8.677162 -8.692932 8.677162l0 0c-4.8009644 0 -8.692871 -3.8848953 -8.692871 -8.677162z" fill-rule="evenodd"/><path stroke="#000000" stroke-width="1.0" stroke-linejoin="round" stroke-linecap="butt" d="m522.4966 57.707146l0 0c0 -4.792267 3.8919067 -8.677166 8.692871 -8.677166l0 0c2.305542 0 4.5166016 0.9141998 6.1468506 2.541481c1.630249 1.627285 2.5460815 3.8343582 2.5460815 6.135685l0 0c0 4.792267 -3.8919678 8.677162 -8.692932 8.677162l0 0c-4.8009644 0 -8.692871 -3.8848953 -8.692871 -8.677162z" fill-rule="evenodd"/><path fill="#000000" fill-opacity="0.0" d="m294.50912 57.707146l0 0c0 -4.792267 3.8919373 -8.677166 8.692902 -8.677166l0 0c2.3055115 0 4.516571 0.9141998 6.14682 2.541481c1.630249 1.627285 2.5460815 3.8343582 2.5460815 6.135685l0 0c0 4.792267 -3.8919373 8.677162 -8.692902 8.677162l0 0c-4.8009644 0 -8.692902 -3.8848953 -8.692902 -8.677162z" fill-rule="evenodd"/><path stroke="#000000" stroke-width="1.0" stroke-linejoin="round" stroke-linecap="butt" d="m294.50912 57.707146l0 0c0 -4.792267 3.8919373 -8.677166 8.692902 -8.677166l0 0c2.3055115 0 4.516571 0.9141998 6.14682 2.541481c1.630249 1.627285 2.5460815 3.8343582 2.5460815 6.135685l0 0c0 4.792267 -3.8919373 8.677162 -8.692902 8.677162l0 0c-4.8009644 0 -8.692902 -3.8848953 -8.692902 -8.677162z" fill-rule="evenodd"/><path fill="#000000" fill-opacity="0.0" d="m465.49796 57.707146l0 0c0 -4.792267 3.8919678 -8.677166 8.692932 -8.677166l0 0c2.305481 0 4.516571 0.9141998 6.1467896 2.541481c1.630249 1.627285 2.546112 3.8343582 2.546112 6.135685l0 0c0 4.792267 -3.8919678 8.677162 -8.692902 8.677162l0 0c-4.8009644 0 -8.692932 -3.8848953 -8.692932 -8.677162z" fill-rule="evenodd"/><path stroke="#000000" stroke-width="1.0" stroke-linejoin="round" stroke-linecap="butt" d="m465.49796 57.707146l0 0c0 -4.792267 3.8919678 -8.677166 8.692932 -8.677166l0 0c2.305481 0 4.516571 0.9141998 6.1467896 2.541481c1.630249 1.627285 2.546112 3.8343582 2.546112 6.135685l0 0c0 4.792267 -3.8919678 8.677162 -8.692902 8.677162l0 0c-4.8009644 0 -8.692932 -3.8848953 -8.692932 -8.677162z" fill-rule="evenodd"/><path fill="#000000" fill-opacity="0.0" d="m413.06976 11.948365l0 0c0 -2.2700205 1.8472595 -4.1102357 4.1259766 -4.1102357l0 0c1.0942993 0 2.1437378 0.4330411 2.917511 1.2038598c0.7737732 0.77081966 1.2084961 1.8162737 1.2084961 2.906376l0 0c0 2.2700214 -1.84729 4.110236 -4.126007 4.110236l0 0c-2.278717 0 -4.1259766 -1.8402147 -4.1259766 -4.110236z" fill-rule="evenodd"/><path stroke="#000000" stroke-width="1.0" stroke-linejoin="round" stroke-linecap="butt" d="m413.06976 11.948365l0 0c0 -2.2700205 1.8472595 -4.1102357 4.1259766 -4.1102357l0 0c1.0942993 0 2.1437378 0.4330411 2.917511 1.2038598c0.7737732 0.77081966 1.2084961 1.8162737 1.2084961 2.906376l0 0c0 2.2700214 -1.84729 4.110236 -4.126007 4.110236l0 0c-2.278717 0 -4.1259766 -1.8402147 -4.1259766 -4.110236z" fill-rule="evenodd"/><path fill="#000000" fill-opacity="0.0" d="m417.19574 16.058601l0 16.48555l-113.98425 0l0 16.49083" fill-rule="evenodd"/><path stroke="#000000" stroke-width="1.0" stroke-linejoin="round" stroke-linecap="butt" d="m417.19574 16.058601l0 16.48555l-113.98425 0l0 16.49083" fill-rule="evenodd"/><path fill="#000000" fill-opacity="0.0" d="m417.19574 16.058601l0 16.48555l-0.12597656 0l0 16.49083" fill-rule="evenodd"/><path stroke="#000000" stroke-width="1.0" stroke-linejoin="round" stroke-linecap="butt" d="m417.19574 16.058601l0 16.48555l-0.12597656 0l0 16.49083" fill-rule="evenodd"/><path fill="#000000" fill-opacity="0.0" d="m359.97623 49.02998l0 -16.48555l57.228333 0l0 -16.490828" fill-rule="evenodd"/><path stroke="#000000" stroke-width="1.0" stroke-linejoin="round" stroke-linecap="butt" d="m359.97623 49.02998l0 -16.48555l57.228333 0l0 -16.490828" fill-rule="evenodd"/><path fill="#000000" fill-opacity="0.0" d="m417.19574 16.058601l0 16.48555l57.007874 0l0 16.49083" fill-rule="evenodd"/><path stroke="#000000" stroke-width="1.0" stroke-linejoin="round" stroke-linecap="butt" d="m417.19574 16.058601l0 16.48555l57.007874 0l0 16.49083" fill-rule="evenodd"/><path fill="#000000" fill-opacity="0.0" d="m417.19574 16.058601l0 16.48555l113.98425 0l0 16.49083" fill-rule="evenodd"/><path stroke="#000000" stroke-width="1.0" stroke-linejoin="round" stroke-linecap="butt" d="m417.19574 16.058601l0 16.48555l113.98425 0l0 16.49083" fill-rule="evenodd"/><path fill="#000000" fill-opacity="0.0" d="m303.20203 66.38431l0 3.1569138l0.06298828 0l0 3.1423035" fill-rule="evenodd"/><path stroke="#000000" stroke-width="1.0" stroke-linejoin="round" stroke-linecap="butt" d="m303.20203 66.38431l0 3.1569138l0.06298828 0l0 3.1423035" fill-rule="evenodd"/><path fill="#000000" fill-opacity="0.0" d="m359.97623 66.38431l0 3.543312l0.06298828 0l0 3.5433044" fill-rule="evenodd"/><path stroke="#000000" stroke-width="1.0" stroke-linejoin="round" stroke-linecap="butt" d="m359.97623 66.38431l0 3.543312l0.06298828 0l0 3.5433044" fill-rule="evenodd"/><path fill="#000000" fill-opacity="0.0" d="m417.0839 66.38431l0 3.5427399l0.06298828 0l0 3.5438766" fill-rule="evenodd"/><path stroke="#000000" stroke-width="1.0" stroke-linejoin="round" stroke-linecap="butt" d="m417.0839 66.38431l0 3.5427399l0.06298828 0l0 3.5438766" fill-rule="evenodd"/><path fill="#000000" fill-opacity="0.0" d="m531.18945 66.38431l0 3.5427399l0.06298828 0l0 3.5438766" fill-rule="evenodd"/><path stroke="#000000" stroke-width="1.0" stroke-linejoin="round" stroke-linecap="butt" d="m531.18945 66.38431l0 3.5427399l0.06298828 0l0 3.5438766" fill-rule="evenodd"/><path fill="#000000" fill-opacity="0.0" d="m329.2518 104.116585l0 0c0 -16.925133 13.755798 -30.645668 30.724426 -30.645668l0 0c8.148621 0 15.963501 3.2287292 21.725433 8.975914c5.7619324 5.747177 8.998962 13.542023 8.998962 21.669754l0 0c0 16.92514 -13.755768 30.645668 -30.724396 30.645668l0 0c-16.968628 0 -30.724426 -13.720528 -30.724426 -30.645668z" fill-rule="evenodd"/><path stroke="#000000" stroke-width="1.0" stroke-linejoin="round" stroke-linecap="butt" d="m329.2518 104.116585l0 0c0 -16.925133 13.755798 -30.645668 30.724426 -30.645668l0 0c8.148621 0 15.963501 3.2287292 21.725433 8.975914c5.7619324 5.747177 8.998962 13.542023 8.998962 21.669754l0 0c0 16.92514 -13.755768 30.645668 -30.724396 30.645668l0 0c-16.968628 0 -30.724426 -13.720528 -30.724426 -30.645668z" fill-rule="evenodd"/><path fill="#000000" fill-opacity="0.0" d="m396.07602 94.43045l0 0c0 -11.576241 9.405548 -20.960632 21.007874 -20.960632l0 0c5.5716553 0 10.91507 2.2083435 14.854828 6.139229c3.9397278 3.9308777 6.1530457 9.262299 6.1530457 14.8214035l0 0c0 11.576233 -9.405548 20.960625 -21.007874 20.960625l0 0c-11.602325 0 -21.007874 -9.384392 -21.007874 -20.960625z" fill-rule="evenodd"/><path stroke="#000000" stroke-width="1.0" stroke-linejoin="round" stroke-linecap="butt" d="m396.07602 94.43045l0 0c0 -11.576241 9.405548 -20.960632 21.007874 -20.960632l0 0c5.5716553 0 10.91507 2.2083435 14.854828 6.139229c3.9397278 3.9308777 6.1530457 9.262299 6.1530457 14.8214035l0 0c0 11.576233 -9.405548 20.960625 -21.007874 20.960625l0 0c-11.602325 0 -21.007874 -9.384392 -21.007874 -20.960625z" fill-rule="evenodd"/><path fill="#000000" fill-opacity="0.0" d="m508.07135 96.52493l0 0c0 -12.732986 10.350342 -23.055115 23.118103 -23.055115l0 0c6.1313477 0 12.011475 2.429016 16.346985 6.7526855c4.3355103 4.323677 6.771118 10.187836 6.771118 16.30243l0 0c0 12.732994 -10.350281 23.055122 -23.118103 23.055122l0 0c-12.767761 0 -23.118103 -10.322128 -23.118103 -23.055122z" fill-rule="evenodd"/><path stroke="#000000" stroke-width="1.0" stroke-linejoin="round" stroke-linecap="butt" d="m508.07135 96.52493l0 0c0 -12.732986 10.350342 -23.055115 23.118103 -23.055115l0 0c6.1313477 0 12.011475 2.429016 16.346985 6.7526855c4.3355103 4.323677 6.771118 10.187836 6.771118 16.30243l0 0c0 12.732994 -10.350281 23.055122 -23.118103 23.055122l0 0c-12.767761 0 -23.118103 -10.322128 -23.118103 -23.055122z" fill-rule="evenodd"/><path fill="#000000" fill-opacity="0.0" d="m133.04716 49.359608l0 0c0 -9.401886 7.6428986 -17.02362 17.070877 -17.02362l0 0c4.527466 0 8.869507 1.7935524 12.070923 4.986103c3.2014008 3.1925468 4.999939 7.5225716 4.999939 12.037518l0 0c0 9.401886 -7.6428833 17.023624 -17.070862 17.023624l0 0c-9.4279785 0 -17.070877 -7.6217384 -17.070877 -17.023624z" fill-rule="evenodd"/><path stroke="#000000" stroke-width="1.0" stroke-linejoin="round" stroke-linecap="butt" d="m133.04716 49.359608l0 0c0 -9.401886 7.6428986 -17.02362 17.070877 -17.02362l0 0c4.527466 0 8.869507 1.7935524 12.070923 4.986103c3.2014008 3.1925468 4.999939 7.5225716 4.999939 12.037518l0 0c0 9.401886 -7.6428833 17.023624 -17.070862 17.023624l0 0c-9.4279785 0 -17.070877 -7.6217384 -17.070877 -17.023624z" fill-rule="evenodd"/><path fill="#000000" fill-opacity="0.0" d="m82.52892 104.116585l0 0c0 -16.925133 13.755791 -30.645668 30.724411 -30.645668l0 0c8.148621 0 15.963493 3.2287292 21.725441 8.975914c5.7619476 5.747177 8.998978 13.542023 8.998978 21.669754l0 0c0 16.92514 -13.755798 30.645668 -30.724419 30.645668l0 0c-16.96862 0 -30.724411 -13.720528 -30.724411 -30.645668z" fill-rule="evenodd"/><path stroke="#000000" stroke-width="1.0" stroke-linejoin="round" stroke-linecap="butt" d="m82.52892 104.116585l0 0c0 -16.925133 13.755791 -30.645668 30.724411 -30.645668l0 0c8.148621 0 15.963493 3.2287292 21.725441 8.975914c5.7619476 5.747177 8.998978 13.542023 8.998978 21.669754l0 0c0 16.92514 -13.755798 30.645668 -30.724419 30.645668l0 0c-16.96862 0 -30.724411 -13.720528 -30.724411 -30.645668z" fill-rule="evenodd"/><path fill="#000000" fill-opacity="0.0" d="m155.44359 98.32131l0 0c0 -13.724495 11.1540985 -24.850395 24.913376 -24.850395l0 0c6.607437 0 12.94426 2.618164 17.616425 7.278511c4.672165 4.6603546 7.2969666 10.981148 7.2969666 17.571884l0 0c0 13.724495 -11.1540985 24.850395 -24.913391 24.850395l0 0c-13.759277 0 -24.913376 -11.1259 -24.913376 -24.850395z" fill-rule="evenodd"/><path stroke="#000000" stroke-width="1.0" stroke-linejoin="round" stroke-linecap="butt" d="m155.44359 98.32131l0 0c0 -13.724495 11.1540985 -24.850395 24.913376 -24.850395l0 0c6.607437 0 12.94426 2.618164 17.616425 7.278511c4.672165 4.6603546 7.2969666 10.981148 7.2969666 17.571884l0 0c0 13.724495 -11.1540985 24.850395 -24.913391 24.850395l0 0c-13.759277 0 -24.913376 -11.1259 -24.913376 -24.850395z" fill-rule="evenodd"/><path fill="#000000" fill-opacity="0.0" d="m26.962065 49.359608l0 0c0 -9.401886 7.642889 -17.02362 17.070868 -17.02362l0 0c4.5274734 0 8.869514 1.7935524 12.070923 4.986103c3.2014084 3.1925468 4.999943 7.5225716 4.999943 12.037518l0 0c0 9.401886 -7.642887 17.023624 -17.070866 17.023624l0 0c-9.4279785 0 -17.070868 -7.6217384 -17.070868 -17.023624z" fill-rule="evenodd"/><path stroke="#000000" stroke-width="1.0" stroke-linejoin="round" stroke-linecap="butt" d="m26.962065 49.359608l0 0c0 -9.401886 7.642889 -17.02362 17.070868 -17.02362l0 0c4.5274734 0 8.869514 1.7935524 12.070923 4.986103c3.2014084 3.1925468 4.999943 7.5225716 4.999943 12.037518l0 0c0 9.401886 -7.642887 17.023624 -17.070866 17.023624l0 0c-9.4279785 0 -17.070868 -7.6217384 -17.070868 -17.023624z" fill-rule="evenodd"/><path fill="#000000" fill-opacity="0.0" d="m92.9495 11.948365l0 0c0 -2.2700205 1.8472672 -4.1102357 4.125984 -4.1102357l0 0c1.0942764 0 2.1437378 0.4330411 2.917511 1.2038598c0.7737732 0.77081966 1.2084732 1.8162737 1.2084732 2.906376l0 0c0 2.2700214 -1.8472672 4.110236 -4.125984 4.110236l0 0c-2.278717 0 -4.125984 -1.8402147 -4.125984 -4.110236z" fill-rule="evenodd"/><path stroke="#000000" stroke-width="1.0" stroke-linejoin="round" stroke-linecap="butt" d="m92.9495 11.948365l0 0c0 -2.2700205 1.8472672 -4.1102357 4.125984 -4.1102357l0 0c1.0942764 0 2.1437378 0.4330411 2.917511 1.2038598c0.7737732 0.77081966 1.2084732 1.8162737 1.2084732 2.906376l0 0c0 2.2700214 -1.8472672 4.110236 -4.125984 4.110236l0 0c-2.278717 0 -4.125984 -1.8402147 -4.125984 -4.110236z" fill-rule="evenodd"/><path fill="#000000" fill-opacity="0.0" d="m97.075485 16.058601c0 0.015748978 0.01574707 0.023622513 0.03149414 0.031496048c0.01574707 0.007873535 0.03149414 0.015748978 0.03149414 0.031496048" fill-rule="evenodd"/><path stroke="#000000" stroke-width="1.0" stroke-linejoin="round" stroke-linecap="butt" d="m97.075485 16.058601c0 0.015748978 0.01574707 0.023622513 0.03149414 0.031496048c0.01574707 0.007873535 0.03149414 0.015748978 0.03149414 0.031496048" fill-rule="evenodd"/><path fill="#000000" fill-opacity="0.0" d="m97.075485 16.058601c0 4.0693474 10.244095 5.4812126 20.48819 8.138693c10.244095 2.6574802 20.48819 6.5605755 20.48819 13.121149" fill-rule="evenodd"/><path stroke="#000000" stroke-width="1.0" stroke-linejoin="round" stroke-linecap="butt" d="m97.075485 16.058601c0 4.0693474 10.244095 5.4812126 20.48819 8.138693c10.244095 2.6574802 20.48819 6.5605755 20.48819 13.121149" fill-rule="evenodd"/><path fill="#000000" fill-opacity="0.0" d="m97.075485 16.058601c0 4.0693474 -10.244095 5.4812126 -20.48819 8.138693c-10.244095 2.6574802 -20.48819 6.5605755 -20.48819 13.121149" fill-rule="evenodd"/><path stroke="#000000" stroke-width="1.0" stroke-linejoin="round" stroke-linecap="butt" d="m97.075485 16.058601c0 4.0693474 -10.244095 5.4812126 -20.48819 8.138693c-10.244095 2.6574802 -20.48819 6.5605755 -20.48819 13.121149" fill-rule="evenodd"/><path fill="#000000" fill-opacity="0.0" d="m24.064428 93.39218l0 0c0 -11.002213 8.940203 -19.921265 19.968504 -19.921265l0 0c5.2959747 0 10.375042 2.0988464 14.119865 5.8348007c3.7448196 3.735962 5.8486366 8.803017 5.8486366 14.086464l0 0c0 11.002205 -8.940201 19.921257 -19.968502 19.921257l0 0c-11.028301 0 -19.968504 -8.919052 -19.968504 -19.921257z" fill-rule="evenodd"/><path stroke="#000000" stroke-width="1.0" stroke-linejoin="round" stroke-linecap="butt" d="m24.064428 93.39218l0 0c0 -11.002213 8.940203 -19.921265 19.968504 -19.921265l0 0c5.2959747 0 10.375042 2.0988464 14.119865 5.8348007c3.7448196 3.735962 5.8486366 8.803017 5.8486366 14.086464l0 0c0 11.002205 -8.940201 19.921257 -19.968502 19.921257l0 0c-11.028301 0 -19.968504 -8.919052 -19.968504 -19.921257z" fill-rule="evenodd"/><path fill="#000000" fill-opacity="0.0" d="m44.032932 66.38323c0 1.7719345 0.01574707 2.658043 0.03149414 3.543869c0.015750885 0.8858261 0.031497955 1.7713699 0.031497955 3.5427399" fill-rule="evenodd"/><path stroke="#000000" stroke-width="1.0" stroke-linejoin="round" stroke-linecap="butt" d="m44.032932 66.38323c0 1.7719345 0.01574707 2.658043 0.03149414 3.543869c0.015750885 0.8858261 0.031497955 1.7713699 0.031497955 3.5427399" fill-rule="evenodd"/><path fill="#000000" fill-opacity="0.0" d="m150.11804 66.38323c0 1.771904 -3.7873993 1.5359421 -7.574814 3.5438156c-3.7873993 2.0078735 -7.5747986 6.25959 -7.5747986 12.519173" fill-rule="evenodd"/><path stroke="#000000" stroke-width="1.0" stroke-linejoin="round" stroke-linecap="butt" d="m150.11804 66.38323c0 1.771904 -3.7873993 1.5359421 -7.574814 3.5438156c-3.7873993 2.0078735 -7.5747986 6.25959 -7.5747986 12.519173" fill-rule="evenodd"/><path fill="#000000" fill-opacity="0.0" d="m150.11804 66.38323c0 1.7719345 3.1574707 1.7485962 6.3149567 3.543869c3.157486 1.7952805 6.3149567 5.409172 6.3149567 10.8183365" fill-rule="evenodd"/><path stroke="#000000" stroke-width="1.0" stroke-linejoin="round" stroke-linecap="butt" d="m150.11804 66.38323c0 1.7719345 3.1574707 1.7485962 6.3149567 3.543869c3.157486 1.7952805 6.3149567 5.409172 6.3149567 10.8183365" fill-rule="evenodd"/></g></svg>