<svg version="1.1" viewBox="0.0 0.0 171.750656167979 100.0" fill="none" stroke="none" stroke-linecap="square" stroke-miterlimit="10" xmlns:xlink="http://www.w3.org/1999/xlink" xmlns="http://www.w3.org/2000/svg"><clipPath id="p.0"><path d="m0 0l171.75066 0l0 100.0l-171.75066 0l0 -100.0z" clip-rule="nonzero"/></clipPath><g clip-path="url(#p.0)"><path fill="#000000" fill-opacity="0.0" d="m0 0l171.75066 0l0 100.0l-171.75066 0z" fill-rule="evenodd"/><path fill="#000000" fill-opacity="0.0" d="m0.48685852 1.7706693l37.51181 0l0 42.01575l-37.51181 0z" fill-rule="evenodd"/><path fill="#000000" d="m19.056606 22.721918l2.953125 5.96875l3.71875 0l0 -1.28125l-0.171875 0q-0.3125 0 -0.578125 -0.0625q-0.25 -0.0625 -0.453125 -0.234375q-0.203125 -0.1875 -0.40625 -0.53125l-2.40625 -4.4375l-2.65625 0.578125zm-1.859375 4.5l0 -10.4375l1.9375 0q0.78125 0 1.28125 0.296875q0.5 0.28125 0.75 0.828125q0.25 0.53125 0.25 1.328125q0 0.828125 -0.25 1.4375q-0.25 0.59375 -0.78125 0.921875q-0.515625 0.328125 -1.34375 0.328125l-2.234375 0l0 1.296875l2.875 0q0.140625 -0.015625 0.265625 -0.0625q0.125 -0.046875 0.265625 -0.109375q0.140625 -0.0625 0.265625 -0.140625q1.25 -0.1875 2.125 -0.6875q0.875 -0.515625 1.34375 -1.296875q0.46875 -0.78125 0.46875 -1.8125q0 -1.171875 -0.578125 -1.984375q-0.578125 -0.828125 -1.671875 -1.250001q-1.078125 -0.4375 -2.625 -0.4375l-6.734375 0l0 1.296876l0.203125 0q0.5625 0 0.921875 0.125q0.375 0.125 0.375 0.546875l0 9.328125q0 0.40625 -0.375 0.546875q-0.359375 0.125 -0.921875 0.125l-0.203125 0l0 1.28125l5.953125 0l0 -1.28125l-0.28125 0q-0.234375 0 -0.46875 -0.015625q-0.234375 -0.015625 -0.421875 -0.03125q-0.171875 -0.03125 -0.28125 -0.0625q-0.109375 -0.03125 -0.109375 -0.078125z" fill-rule="nonzero"/><path fill="#000000" fill-opacity="0.0" d="m18.745665 1.7706693l37.51181 0l0 42.01575l-37.51181 0z" fill-rule="evenodd"/><path fill="#000000" d="m41.913464 20.831293l-8.828125 0l0 -1.515625l8.828125 0l0 1.515625zm0 4.0625l-8.828125 0l0 -1.53125l8.828125 0l0 1.53125z" fill-rule="nonzero"/><path fill="#000000" fill-opacity="0.0" d="m37.00447 1.7706693l37.51181 0l0 42.01575l-37.51181 0z" fill-rule="evenodd"/><path fill="#000000" d="m51.230484 16.831293l0 10.140625q0 0.15625 0.125 0.234375q0.140625 0.078125 0.34375 0.125q0.21875 0.046875 0.484375 0.0625q0.28125 0.015625 0.5625 0.015625l0.328125 0l0 1.28125l-6.234375 0l0 -1.28125l0.203125 0q0.5625 0 0.921875 -0.125q0.375 -0.140625 0.375 -0.546875l0 -9.328125q0 -0.421875 -0.375 -0.546875q-0.359375 -0.125 -0.921875 -0.125l-0.203125 0l0 -1.296876l10.546875 0l0 3.750001l-1.453125 0l-0.1875 -1.546875q-0.046875 -0.328125 -0.28125 -0.5q-0.21875 -0.1875 -0.671875 -0.25q-0.453125 -0.0625 -1.125 -0.0625l-2.4375 0zm-0.4375 4.640625q0.828125 -0.0625 1.640625 -0.09375q0.828125 -0.03125 1.640625 -0.09375q0.8125 -0.0625 1.609375 -0.078125l0 1.78125q-0.796875 -0.0625 -1.609375 -0.109375q-0.8125 -0.046875 -1.640625 -0.09375q-0.8125 -0.046875 -1.640625 -0.078125l0 -1.234375z" fill-rule="nonzero"/><path fill="#000000" d="m62.997208 34.39379q0 0.203125 0.171875 0.3125q0.1875 0.109375 0.484375 0.15625q0.3125 0.03125 0.734375 0.03125l0.375 0l0 0.796875l-5.453125 0l0 -0.796875l0.5625 0q0.390625 0 0.6875 -0.03125q0.296875 -0.046875 0.453125 -0.15625q0.171875 -0.109375 0.171875 -0.3125l0 -5.687498l0.21875 -0.125q-0.109375 0.359375 -0.328125 0.609375q-0.203125 0.25 -0.515625 0.40625q-0.296875 0.15625 -0.671875 0.21875q-0.375 0.0625 -0.828125 0.0625l0 -1.140625q0.5 0 0.890625 -0.0625q0.40625 -0.078125 0.703125 -0.203125q0.296875 -0.125 0.515625 -0.3125q0.234375 -0.1875 0.40625 -0.421875l1.421875 0l0 6.656248z" fill-rule="nonzero"/><path fill="#000000" fill-opacity="0.0" d="m59.785183 1.7706693l37.511806 0l0 42.01575l-37.511806 0z" fill-rule="evenodd"/><path fill="#000000" d="m71.61499 23.128168l5.1875 0l0.140625 1.296875l-5.5 0l0.171875 -1.296875zm2.328125 -6.765625l0.40625 0.421875l-3.296875 10.25q0 0.09375 0.1875 0.1875q0.1875 0.09375 0.484375 0.140625q0.3125 0.046875 0.703125 0.046875l0.21875 0l0 1.28125l-4.28125 0l0 -1.28125l0.109375 0q0.46875 0 0.78125 -0.1875q0.3125 -0.1875 0.484375 -0.8125l3.59375 -11.062501l3.140625 0l3.6875 11.203126q0.15625 0.53125 0.46875 0.703125q0.3125 0.15625 0.78125 0.15625l0.09375 0l0 1.28125l-5.71875 0l0 -1.28125l0.25 0q0.390625 0 0.6875 -0.015625q0.3125 -0.03125 0.5 -0.078125q0.1875 -0.046875 0.1875 -0.09375l-3.46875 -10.859375z" fill-rule="nonzero"/><path fill="#000000" d="m86.53349 34.39379q0 0.203125 0.171875 0.3125q0.1875 0.109375 0.484375 0.15625q0.3125 0.03125 0.734375 0.03125l0.375 0l0 0.796875l-5.453125 0l0 -0.796875l0.5625 0q0.390625 0 0.6875 -0.03125q0.296875 -0.046875 0.453125 -0.15625q0.171875 -0.109375 0.171875 -0.3125l0 -5.687498l0.21875 -0.125q-0.109375 0.359375 -0.328125 0.609375q-0.203125 0.25 -0.515625 0.40625q-0.296875 0.15625 -0.671875 0.21875q-0.375 0.0625 -0.828125 0.0625l0 -1.140625q0.5 0 0.890625 -0.0625q0.40625 -0.078125 0.703125 -0.203125q0.296875 -0.125 0.515625 -0.3125q0.234375 -0.1875 0.40625 -0.421875l1.421875 0l0 6.656248z" fill-rule="nonzero"/><path fill="#000000" fill-opacity="0.0" d="m82.565895 1.7706693l37.51181 0l0 42.01575l-37.51181 0z" fill-rule="evenodd"/><path fill="#000000" d="m94.95125 27.237543l0 -10.40625l1.875 0q0.796875 0 1.328125 0.296875q0.53125 0.28125 0.796875 0.859375q0.28125 0.578125 0.28125 1.46875q0 0.875 -0.28125 1.5q-0.265625 0.609375 -0.828125 0.921875q-0.546875 0.296875 -1.359375 0.296875l-2.34375 0l0 1.359375l2.796875 0q1.484375 0 2.59375 -0.484375q1.109375 -0.5 1.71875 -1.421875q0.609375 -0.921875 0.609375 -2.234375q0 -1.921875 -1.296875 -2.9375q-1.28125 -1.015626 -3.578125 -1.015626l-6.6875 0l0 1.250001l0.203125 0q0.546875 0 0.90625 0.140625q0.375 0.125 0.375 0.53125l0 9.40625q0 0.40625 -0.375 0.546875q-0.359375 0.125 -0.90625 0.125l-0.203125 0l0 1.25l6.125 0l0 -1.28125l-0.4375 0q-0.25 0 -0.484375 -0.015625q-0.234375 -0.015625 -0.421875 -0.03125q-0.1875 -0.015625 -0.296875 -0.046875q-0.109375 -0.03125 -0.109375 -0.078125z" fill-rule="nonzero"/><path fill="#000000" d="m105.57312 33.92504q0.625 0 1.0625 -0.34375q0.4375 -0.34375 0.71875 -0.890625q0.296875 -0.5625 0.46875 -1.2187481l-0.578125 -0.015625q-0.140625 0.359375 -0.359375 0.6718731q-0.203125 0.296875 -0.515625 0.484375q-0.296875 0.171875 -0.734375 0.171875q-0.421875 0 -0.734375 -0.171875q-0.296875 -0.171875 -0.453125 -0.484375q-0.140625 -0.3281231 -0.140625 -0.7812481q0 -0.703125 0.3125 -1.09375q0.3125 -0.40625 0.859375 -0.40625q0.421875 0 0.703125 0.234375q0.28125 0.21875 0.484375 0.609375q0.203125 0.390625 0.40625 0.921875q0.1875 0.4531231 0.40625 0.8749981q0.234375 0.40625 0.53125 0.734375q0.296875 0.328125 0.703125 0.515625q0.40625 0.1875 0.9375 0.1875q0.6875 0 1.21875 -0.34375q0.53125 -0.34375 0.828125 -0.9375q0.296875 -0.609375 0.296875 -1.3749981q0 -0.75 -0.265625 -1.328125q-0.25 -0.59375 -0.734375 -0.921875q-0.46875 -0.34375 -1.109375 -0.34375q-0.59375 0 -1.046875 0.34375q-0.453125 0.34375 -0.75 0.90625q-0.28125 0.546875 -0.453125 1.21875l0.5625 0q0.15625 -0.359375 0.359375 -0.65625q0.21875 -0.3125 0.515625 -0.484375q0.3125 -0.171875 0.75 -0.171875q0.4375 0 0.71875 0.171875q0.296875 0.171875 0.4375 0.484375q0.15625 0.3125 0.15625 0.765625q0 0.4375 -0.125 0.7812481q-0.125 0.34375 -0.390625 0.53125q-0.25 0.1875 -0.625 0.1875q-0.421875 0 -0.6875 -0.21875q-0.25 -0.234375 -0.46875 -0.6406231q-0.203125 -0.40625 -0.453125 -0.9375q-0.1875 -0.421875 -0.40625 -0.8125q-0.21875 -0.390625 -0.515625 -0.71875q-0.28125 -0.34375 -0.6875 -0.546875q-0.40625 -0.203125 -0.953125 -0.203125q-0.6875 0 -1.234375 0.359375q-0.53125 0.34375 -0.84375 0.9375q-0.296875 0.59375 -0.296875 1.359375q0 0.7499981 0.265625 1.3437481q0.265625 0.59375 0.734375 0.921875q0.484375 0.328125 1.125 0.328125z" fill-rule="nonzero"/><path fill="#000000" fill-opacity="0.0" d="m105.3466 1.7706693l37.51181 0l0 42.01575l-37.51181 0z" fill-rule="evenodd"/><path fill="#000000" d="m120.43388 22.721918l2.953125 5.96875l3.71875 0l0 -1.28125l-0.171875 0q-0.3125 0 -0.578125 -0.0625q-0.25 -0.0625 -0.453125 -0.234375q-0.203125 -0.1875 -0.40625 -0.53125l-2.40625 -4.4375l-2.65625 0.578125zm-1.859375 4.5l0 -10.4375l1.9375 0q0.78125 0 1.28125 0.296875q0.5 0.28125 0.75 0.828125q0.25 0.53125 0.25 1.328125q0 0.828125 -0.25 1.4375q-0.25 0.59375 -0.78125 0.921875q-0.515625 0.328125 -1.34375 0.328125l-2.234375 0l0 1.296875l2.875 0q0.140625 -0.015625 0.265625 -0.0625q0.125 -0.046875 0.265625 -0.109375q0.140625 -0.0625 0.265625 -0.140625q1.25 -0.1875 2.125 -0.6875q0.875 -0.515625 1.34375 -1.296875q0.46875 -0.78125 0.46875 -1.8125q0 -1.171875 -0.578125 -1.984375q-0.578125 -0.828125 -1.671875 -1.250001q-1.078125 -0.4375 -2.625 -0.4375l-6.734375 0l0 1.296876l0.203125 0q0.5625 0 0.921875 0.125q0.375 0.125 0.375 0.546875l0 9.328125q0 0.40625 -0.375 0.546875q-0.359375 0.125 -0.921875 0.125l-0.203125 0l0 1.28125l5.953125 0l0 -1.28125l-0.28125 0q-0.234375 0 -0.46875 -0.015625q-0.234375 -0.015625 -0.421875 -0.03125q-0.171875 -0.03125 -0.28125 -0.0625q-0.109375 -0.03125 -0.109375 -0.078125z" fill-rule="nonzero"/><path fill="#000000" d="m132.33745 34.39379q0 0.203125 0.171875 0.3125q0.1875 0.109375 0.484375 0.15625q0.3125 0.03125 0.734375 0.03125l0.375 0l0 0.796875l-5.453125 0l0 -0.796875l0.5625 0q0.390625 0 0.6875 -0.03125q0.296875 -0.046875 0.453125 -0.15625q0.171875 -0.109375 0.171875 -0.3125l0 -5.687498l0.21875 -0.125q-0.109375 0.359375 -0.328125 0.609375q-0.203125 0.25 -0.515625 0.40625q-0.296875 0.15625 -0.671875 0.21875q-0.375 0.0625 -0.828125 0.0625l0 -1.140625q0.5 0 0.890625 -0.0625q0.40625 -0.078125 0.703125 -0.203125q0.296875 -0.125 0.515625 -0.3125q0.234375 -0.1875 0.40625 -0.421875l1.421875 0l0 6.656248z" fill-rule="nonzero"/><path fill="#000000" fill-opacity="0.0" d="m128.12732 1.7706693l37.51181 0l0 42.01575l-37.51181 0z" fill-rule="evenodd"/><path fill="#000000" d="m140.38605 26.737543l0 -9.90625l-0.734375 0q-0.78125 0 -1.25 0.078125q-0.46875 0.0625 -0.6875 0.265625q-0.21875 0.203125 -0.265625 0.546875l-0.1875 2.25l-1.5 0l0 -4.531251l12.15625 0l0 4.531251l-1.5 0l-0.1875 -2.25q-0.046875 -0.34375 -0.265625 -0.546875q-0.21875 -0.203125 -0.703125 -0.265625q-0.46875 -0.078125 -1.234375 -0.078125l-0.75 0l0 9.90625q0 0.40625 0.390625 0.546875q0.390625 0.125 0.953125 0.125l0.3125 0l0 1.28125l-6.1875 0l0 -1.28125l0.3125 0q0.5625 0 0.9375 -0.125q0.390625 -0.140625 0.390625 -0.546875z" fill-rule="nonzero"/><path fill="#000000" d="m151.43304 33.92504q0.625 0 1.0625 -0.34375q0.4375 -0.34375 0.71875 -0.890625q0.296875 -0.5625 0.46875 -1.2187481l-0.578125 -0.015625q-0.140625 0.359375 -0.359375 0.6718731q-0.203125 0.296875 -0.515625 0.484375q-0.296875 0.171875 -0.734375 0.171875q-0.421875 0 -0.734375 -0.171875q-0.296875 -0.171875 -0.453125 -0.484375q-0.140625 -0.3281231 -0.140625 -0.7812481q0 -0.703125 0.3125 -1.09375q0.3125 -0.40625 0.859375 -0.40625q0.421875 0 0.703125 0.234375q0.28125 0.21875 0.484375 0.609375q0.203125 0.390625 0.40625 0.921875q0.1875 0.4531231 0.40625 0.8749981q0.234375 0.40625 0.53125 0.734375q0.296875 0.328125 0.703125 0.515625q0.40625 0.1875 0.9375 0.1875q0.6875 0 1.21875 -0.34375q0.53125 -0.34375 0.828125 -0.9375q0.296875 -0.609375 0.296875 -1.3749981q0 -0.75 -0.265625 -1.328125q-0.25 -0.59375 -0.734375 -0.921875q-0.46875 -0.34375 -1.109375 -0.34375q-0.59375 0 -1.046875 0.34375q-0.453125 0.34375 -0.75 0.90625q-0.28125 0.546875 -0.453125 1.21875l0.5625 0q0.15625 -0.359375 0.359375 -0.65625q0.21875 -0.3125 0.515625 -0.484375q0.3125 -0.171875 0.75 -0.171875q0.4375 0 0.71875 0.171875q0.296875 0.171875 0.4375 0.484375q0.15625 0.3125 0.15625 0.765625q0 0.4375 -0.125 0.7812481q-0.125 0.34375 -0.390625 0.53125q-0.25 0.1875 -0.625 0.1875q-0.421875 0 -0.6875 -0.21875q-0.25 -0.234375 -0.46875 -0.6406231q-0.203125 -0.40625 -0.453125 -0.9375q-0.1875 -0.421875 -0.40625 -0.8125q-0.21875 -0.390625 -0.515625 -0.71875q-0.28125 -0.34375 -0.6875 -0.546875q-0.40625 -0.203125 -0.953125 -0.203125q-0.6875 0 -1.234375 0.359375q-0.53125 0.34375 -0.84375 0.9375q-0.296875 0.59375 -0.296875 1.359375q0 0.7499981 0.265625 1.3437481q0.265625 0.59375 0.734375 0.921875q0.484375 0.328125 1.125 0.328125z" fill-rule="nonzero"/><path fill="#000000" fill-opacity="0.0" d="m51.19882 44.906498l47.59055 0l0 53.322834l-47.59055 0z" fill-rule="evenodd"/><path fill="#000000" d="m51.308193 55.199623l0 2.171875q0 0.03125 0.03125 0.0625q0.03125 0.015625 0.078125 0.03125q0.046875 0 0.09375 0q0.0625 0 0.125 0l0.078125 0l0 0.28125l-1.34375 0l0 -0.28125l0.046875 0q0.125 0 0.1875 -0.015625q0.078125 -0.03125 0.078125 -0.125l0 -2.0q0 -0.09375 -0.078125 -0.109375q-0.0625 -0.03125 -0.1875 -0.03125l-0.046875 0l0 -0.28125l2.265625 0l0 0.8125l-0.3125 0l-0.046875 -0.34375q0 -0.0625 -0.0625 -0.09375q-0.046875 -0.046875 -0.140625 -0.0625q-0.09375 -0.015625 -0.234375 -0.015625l-0.53125 0zm-0.09375 1.0q0.1875 -0.015625 0.359375 -0.015625q0.171875 -0.015625 0.34375 -0.015625q0.171875 -0.015625 0.34375 -0.03125l0 0.390625q-0.171875 -0.015625 -0.34375 -0.015625q-0.171875 -0.015625 -0.34375 -0.03125q-0.171875 -0.015625 -0.359375 -0.015625l0 -0.265625zm4.659958 -0.40625l0 0.390625l-1.78125 0l0 -0.390625l1.78125 0zm0 0.859375l0 0.390625l-1.78125 0l0 -0.390625l1.78125 0zm2.3737183 -1.453125l0 2.171875q0 0.03125 0.03125 0.0625q0.03125 0.015625 0.078125 0.03125q0.046875 0 0.09375 0q0.0625 0 0.125 0l0.078125 0l0 0.28125l-1.34375 0l0 -0.28125l0.046875 0q0.125 0 0.1875 -0.015625q0.078125 -0.03125 0.078125 -0.125l0 -2.0q0 -0.09375 -0.078125 -0.109375q-0.0625 -0.03125 -0.1875 -0.03125l-0.046875 0l0 -0.28125l2.265625 0l0 0.8125l-0.3125 0l-0.046875 -0.34375q0 -0.0625 -0.0625 -0.09375q-0.046875 -0.046875 -0.140625 -0.0625q-0.09375 -0.015625 -0.234375 -0.015625l-0.53125 0zm-0.09375 1.0q0.1875 -0.015625 0.359375 -0.015625q0.171875 -0.015625 0.34375 -0.015625q0.171875 -0.015625 0.34375 -0.03125l0 0.390625q-0.171875 -0.015625 -0.34375 -0.015625q-0.171875 -0.015625 -0.34375 -0.03125q-0.171875 -0.015625 -0.359375 -0.015625l0 -0.265625zm3.885086 0.46875q0 0.34375 -0.140625 0.59375q-0.140625 0.25 -0.40625 0.390625q-0.25 0.140625 -0.609375 0.140625q-0.359375 0 -0.625 -0.140625q-0.25 -0.140625 -0.390625 -0.390625q-0.140625 -0.25 -0.140625 -0.59375q0 -0.25 0.078125 -0.453125q0.078125 -0.21875 0.234375 -0.359375q0.15625 -0.15625 0.359375 -0.234375q0.21875 -0.078125 0.484375 -0.078125q0.265625 0 0.484375 0.078125q0.21875 0.078125 0.359375 0.234375q0.15625 0.140625 0.234375 0.359375q0.078125 0.203125 0.078125 0.453125zm-1.703125 0q0 0.28125 0.0625 0.46875q0.0625 0.1875 0.171875 0.28125q0.125 0.078125 0.3125 0.078125q0.1875 0 0.3125 -0.078125q0.125 -0.09375 0.171875 -0.28125q0.0625 -0.1875 0.0625 -0.46875q0 -0.28125 -0.0625 -0.453125q-0.046875 -0.1875 -0.171875 -0.265625q-0.125 -0.09375 -0.3125 -0.09375q-0.1875 0 -0.3125 0.09375q-0.109375 0.078125 -0.171875 0.265625q-0.0625 0.171875 -0.0625 0.453125zm2.8350983 -1.078125l0 1.53125q0 0.09375 0.015625 0.171875q0.03125 0.0625 0.09375 0.109375q0.0625 0.03125 0.15625 0.03125q0.109375 0 0.203125 -0.046875q0.109375 -0.0625 0.203125 -0.171875q0.109375 -0.109375 0.21875381 -0.265625l-0.015625 0.28125q-0.093753815 0.171875 -0.23437881 0.296875q-0.125 0.125 -0.28125 0.203125q-0.140625 0.0625 -0.3125 0.0625q-0.203125 0 -0.34375 -0.078125q-0.140625 -0.078125 -0.21875 -0.21875q-0.078125 -0.140625 -0.078125 -0.34375l0 -1.140625q0 -0.0625 -0.0625 -0.09375q-0.046875 -0.03125 -0.171875 -0.046875l-0.046875 -0.015625l0 -0.265625l0.875 0zm1.3906288 0l0 1.75q0 0.046875 0.015625 0.078125q0.03125 0.015625 0.09375 0.03125q0.0625 0.015625 0.140625 0.03125l0.015625 0l0 0.265625l-0.78125 0l-0.046878815 -0.484375l-0.03125 -0.03125l0 -1.21875q0 -0.0625 -0.078125 -0.09375q-0.0625 -0.046875 -0.1875 -0.046875l-0.078125 -0.015625l0 -0.265625l0.9375038 0zm0.5092163 2.15625l0 -0.234375l0.015625 0q0.078125 0 0.140625 -0.015625q0.0625 -0.03125 0.09375 -0.078125q0.03125 -0.046875 0.03125 -0.125l0 -1.28125q0 -0.046875 -0.03125 -0.0625q-0.015625 -0.03125 -0.078125 -0.046875q-0.046875 -0.015625 -0.125 -0.03125l-0.046875 -0.015625l0 -0.265625l0.796875 0l0.046875 0.46875l0.03125 0.03125l0 1.375q0 0.015625 0.03125 0.03125q0.03125 0 0.078125 0.015625q0.0625 0 0.109375 0l0.015625 0l0 0.234375l-1.109375 0zm2.546875 0l-1.109375 0l0 -0.234375l0.015625 0q0.046875 0 0.09375 0q0.0625 -0.015625 0.09375 -0.015625q0.03125 -0.015625 0.03125 -0.03125l0 -1.25q0 -0.09375 -0.03125 -0.15625q-0.015625 -0.078125 -0.078125 -0.109375q-0.0625 -0.046875 -0.15625 -0.046875q-0.109375 0 -0.21875 0.0625q-0.09375 0.046875 -0.203125 0.15625q-0.09375 0.109375 -0.203125 0.265625l0 -0.28125q0.109375 -0.171875 0.234375 -0.296875q0.125 -0.125 0.28125 -0.1875q0.15625 -0.078125 0.328125 -0.078125q0.203125 0 0.34375 0.078125q0.140625 0.0625 0.21875 0.21875q0.078125 0.140625 0.078125 0.34375l0 1.109375q0 0.078125 0.03125 0.125q0.03125 0.046875 0.09375 0.078125q0.0625 0.015625 0.140625 0.015625l0.015625 0l0 0.234375zm2.4830933 -0.40625q0 0.078125 0.0625 0.109375q0.078125 0.015625 0.1875 0.03125l0.03125 0l0 0.265625l-0.78125 0l-0.046875 -0.484375l-0.03125 0.03125l0 -2.15625q0 -0.046875 -0.03125 -0.0625q-0.03125 -0.03125 -0.09375 -0.046875q-0.046875 -0.03125 -0.125 -0.046875l-0.03125 0l0 -0.265625l0.859375 0l0 2.625zm-1.25 -1.796875q0.1875 0 0.328125 0.078125q0.15625 0.0625 0.265625 0.1875q0.109375 0.125 0.203125 0.3125l-0.015625 0.28125q-0.09375 -0.171875 -0.203125 -0.28125q-0.09375 -0.125 -0.203125 -0.171875q-0.09375 -0.0625 -0.234375 -0.0625q-0.125 0 -0.234375 0.0625q-0.09375 0.046875 -0.15625 0.15625q-0.0625 0.09375 -0.09375 0.25q-0.03125 0.140625 -0.03125 0.328125q0 0.1875 0.03125 0.34375q0.03125 0.140625 0.078125 0.234375q0.0625 0.09375 0.15625 0.140625q0.09375 0.046875 0.21875 0.046875q0.140625 0 0.25 -0.046875q0.109375 -0.0625 0.203125 -0.1875q0.109375 -0.125 0.21875 -0.3125l0.015625 0.28125q-0.109375 0.1875 -0.21875 0.328125q-0.109375 0.140625 -0.265625 0.21875q-0.15625 0.0625 -0.34375 0.0625q-0.3125 0 -0.515625 -0.140625q-0.203125 -0.140625 -0.328125 -0.390625q-0.109375 -0.25 -0.109375 -0.578125q0 -0.328125 0.125 -0.578125q0.125 -0.265625 0.34375 -0.40625q0.21875 -0.15625 0.515625 -0.15625zm3.2014618 0.890625l0 0.25q-0.203125 0.03125 -0.34375 0.078125q-0.140625 0.03125 -0.25 0.078125q-0.09375 0.046875 -0.140625 0.109375q-0.046875 0.046875 -0.078125 0.109375q-0.015625 0.0625 -0.015625 0.140625q0 0.109375 0.03125 0.171875q0.03125 0.0625 0.09375 0.09375q0.078125 0.03125 0.171875 0.03125q0.109375 0 0.1875 -0.046875q0.09375 -0.046875 0.171875 -0.140625q0.078125 -0.09375 0.171875 -0.25l0.015625 0.21875q-0.078125 0.171875 -0.1875 0.28125q-0.109375 0.109375 -0.25 0.171875q-0.125 0.0625 -0.296875 0.0625q-0.203125 0 -0.359375 -0.0625q-0.15625 -0.0625 -0.234375 -0.1875q-0.078125 -0.140625 -0.078125 -0.328125q0 -0.15625 0.078125 -0.28125q0.078125 -0.125 0.234375 -0.21875q0.171875 -0.09375 0.4375 -0.15625q0.265625 -0.0625 0.640625 -0.125zm0 1.3125l-0.046875 -0.453125l-0.015625 0l0 -1.125q0 -0.109375 -0.03125 -0.171875q-0.03125 -0.078125 -0.109375 -0.109375q-0.078125 -0.046875 -0.21875 -0.046875q-0.203125 0 -0.34375 0.0625q-0.125 0.0625 -0.1875 0.125q-0.015625 -0.03125 -0.015625 -0.0625q0 -0.03125 0.015625 -0.0625q0.03125 -0.03125 0.078125 -0.046875q0.046875 -0.03125 0.109375 -0.03125l0 0.46875l-0.5 0l0 -0.5q0.0625 -0.046875 0.171875 -0.09375q0.125 -0.0625 0.296875 -0.109375q0.1875 -0.046875 0.421875 -0.046875q0.203125 0 0.359375 0.046875q0.171875 0.03125 0.28125 0.109375q0.109375 0.078125 0.171875 0.203125q0.078125 0.125 0.078125 0.296875l0 1.140625q0 0.046875 0.015625 0.078125q0.03125 0.015625 0.09375 0.03125q0.0625 0.015625 0.140625 0.03125l0.015625 0l0 0.265625l-0.78125 0zm1.0024719 0l0 -0.234375l0.015625 0q0.078125 0 0.140625 -0.015625q0.0625 -0.03125 0.09375 -0.078125q0.03125 -0.046875 0.03125 -0.125l0 -1.28125q0 -0.046875 -0.03125 -0.0625q-0.015625 -0.03125 -0.078125 -0.046875q-0.046875 -0.015625 -0.125 -0.03125l-0.046875 -0.015625l0 -0.265625l0.796875 0l0.046875 0.46875l0.03125 0.03125l0 1.375q0 0.015625 0.03125 0.03125q0.03125 0 0.078125 0.015625q0.0625 0 0.109375 0l0.015625 0l0 0.234375l-1.109375 0zm2.546875 0l-1.109375 0l0 -0.234375l0.015625 0q0.046875 0 0.09375 0q0.0625 -0.015625 0.09375 -0.015625q0.03125 -0.015625 0.03125 -0.03125l0 -1.25q0 -0.09375 -0.03125 -0.15625q-0.015625 -0.078125 -0.078125 -0.109375q-0.0625 -0.046875 -0.15625 -0.046875q-0.109375 0 -0.21875 0.0625q-0.09375 0.046875 -0.203125 0.15625q-0.09375 0.109375 -0.203125 0.265625l0 -0.28125q0.109375 -0.171875 0.234375 -0.296875q0.125 -0.125 0.28125 -0.1875q0.15625 -0.078125 0.328125 -0.078125q0.203125 0 0.34375 0.078125q0.140625 0.0625 0.21875 0.21875q0.078125 0.140625 0.078125 0.34375l0 1.109375q0 0.078125 0.03125 0.125q0.03125 0.046875 0.09375 0.078125q0.0625 0.015625 0.140625 0.015625l0.015625 0l0 0.234375zm0.77996826 -2.484375q-0.15625 0 -0.25 -0.078125q-0.09375 -0.078125 -0.09375 -0.234375q0 -0.15625 0.09375 -0.234375q0.09375 -0.078125 0.25 -0.078125q0.171875 0 0.265625 0.078125q0.09375 0.078125 0.09375 0.234375q0 0.15625 -0.09375 0.234375q-0.09375 0.078125 -0.265625 0.078125zm0.328125 0.328125l0 1.71875q0 0.125 0.0625 0.171875q0.078125 0.03125 0.203125 0.03125l0 0l0 0.234375l-1.140625 0l0 -0.234375l0.015625 0q0.125 0 0.1875 -0.03125q0.078125 -0.046875 0.078125 -0.171875l0 -1.296875q0 -0.0625 -0.0625 -0.09375q-0.0625 -0.03125 -0.171875 -0.046875l-0.046875 -0.015625l0 -0.265625l0.875 0zm1.3411102 0l0 1.53125q0 0.09375 0.015625 0.171875q0.03125 0.0625 0.09375 0.109375q0.0625 0.03125 0.15625 0.03125q0.109375 0 0.203125 -0.046875q0.109375 -0.0625 0.203125 -0.171875q0.109375 -0.109375 0.21875 -0.265625l-0.015625 0.28125q-0.09375 0.171875 -0.234375 0.296875q-0.125 0.125 -0.28125 0.203125q-0.140625 0.0625 -0.3125 0.0625q-0.203125 0 -0.34375 -0.078125q-0.140625 -0.078125 -0.21875 -0.21875q-0.078125 -0.140625 -0.078125 -0.34375l0 -1.140625q0 -0.0625 -0.0625 -0.09375q-0.046875 -0.03125 -0.171875 -0.046875l-0.046875 -0.015625l0 -0.265625l0.875 0zm1.390625 0l0 1.75q0 0.046875 0.015625 0.078125q0.03125 0.015625 0.09375 0.03125q0.0625 0.015625 0.140625 0.03125l0.015625 0l0 0.265625l-0.78125 0l-0.046875 -0.484375l-0.03125 -0.03125l0 -1.21875q0 -0.0625 -0.078125 -0.09375q-0.0625 -0.046875 -0.1875 -0.046875l-0.078125 -0.015625l0 -0.265625l0.9375 0zm0.5092163 2.15625l0 -0.234375l0.015625 0q0.125 0 0.1875 -0.046875q0.078125 -0.046875 0.078125 -0.171875l0 -1.28125q0 -0.046875 -0.03125 -0.0625q-0.015625 -0.03125 -0.078125 -0.046875q-0.046875 -0.015625 -0.125 -0.03125l-0.046875 -0.015625l0 -0.265625l0.796875 0l0.046875 0.484375l0.03125 0.015625l0 1.375q0 0.015625 0.03125 0.03125q0.03125 0 0.078125 0.015625q0.046875 0 0.09375 0l0.015625 0l0 0.234375l-1.09375 0zm2.40625 0l-1.03125 0l0 -0.234375l0.015625 0q0.046875 0 0.09375 0q0.046875 -0.015625 0.078125 -0.015625q0.03125 -0.015625 0.03125 -0.03125l0 -1.25q0 -0.09375 -0.015625 -0.15625q-0.015625 -0.078125 -0.078125 -0.109375q-0.046875 -0.046875 -0.140625 -0.046875q-0.09375 0 -0.1875 0.0625q-0.09375 0.046875 -0.1875 0.15625q-0.09375 0.09375 -0.203125 0.25l0 -0.28125q0.109375 -0.171875 0.21875 -0.28125q0.125 -0.125 0.265625 -0.1875q0.15625 -0.078125 0.328125 -0.078125q0.1875 0 0.3125 0.078125q0.140625 0.0625 0.203125 0.21875q0.078125 0.140625 0.078125 0.34375l0 1.28125q0 0.015625 0.03125 0.03125q0.046875 0 0.09375 0.015625q0.046875 0 0.09375 0l0 0l0 0.234375zm1.375 0l-1.078125 0l0 -0.234375l0 0q0.046875 0 0.09375 0q0.046875 -0.015625 0.078125 -0.015625q0.046875 -0.015625 0.046875 -0.03125l0 -1.25q0 -0.09375 -0.03125 -0.15625q-0.015625 -0.078125 -0.0625 -0.109375q-0.046875 -0.046875 -0.140625 -0.046875q-0.109375 0 -0.203125 0.0625q-0.09375 0.046875 -0.1875 0.15625q-0.09375 0.09375 -0.203125 0.25l0.015625 -0.28125q0.09375 -0.171875 0.21875 -0.28125q0.125 -0.125 0.265625 -0.1875q0.140625 -0.078125 0.3125 -0.078125q0.1875 0 0.3125 0.078125q0.140625 0.0625 0.203125 0.21875q0.078125 0.140625 0.078125 0.34375l0 1.109375q0 0.125 0.078125 0.171875q0.078125 0.046875 0.1875 0.046875l0.015625 0l0 0.234375z" fill-rule="nonzero"/><path fill="#000000" d="m50.964443 63.759l1.109375 0l0.03125 0.2656212l-1.1875 0l0.046875 -0.2656212zm0.5 -1.453125l0.078125 0.09375l-0.703125 2.1874962q0 0.015625 0.03125 0.046875q0.046875 0.015625 0.109375 0.03125q0.078125 0 0.15625 0l0.046875 0l0 0.28125l-0.921875 0l0 -0.28125l0.03125 0q0.09375 0 0.15625 -0.03125q0.0625 -0.046875 0.109375 -0.171875l0.765625 -2.3749962l0.671875 0l0.796875 2.4062462q0.03125 0.109375 0.09375 0.140625q0.078125 0.03125 0.171875 0.03125l0.015625 0l0 0.28125l-1.21875 0l0 -0.28125l0.046875 0q0.09375 0 0.15625 0q0.0625 0 0.09375 0q0.046875 -0.015625 0.046875 -0.03125l-0.734375 -2.3281212zm4.733963 0.6875l0 0.390625l-1.78125 0l0 -0.390625l1.78125 0zm0 0.859375l0 0.3906212l-1.78125 0l0 -0.3906212l1.78125 0zm2.0299683 -0.09375l1.109375 0l0.03125 0.2656212l-1.1875 0l0.046875 -0.2656212zm0.5 -1.453125l0.078125 0.09375l-0.703125 2.1874962q0 0.015625 0.03125 0.046875q0.046875 0.015625 0.109375 0.03125q0.078125 0 0.15625 0l0.046875 0l0 0.28125l-0.921875 0l0 -0.28125l0.03125 0q0.09375 0 0.15625 -0.03125q0.0625 -0.046875 0.109375 -0.171875l0.765625 -2.3749962l0.671875 0l0.796875 2.4062462q0.03125 0.109375 0.09375 0.140625q0.078125 0.03125 0.171875 0.03125l0.015625 0l0 0.28125l-1.21875 0l0 -0.28125l0.046875 0q0.09375 0 0.15625 0q0.0625 0 0.09375 0q0.046875 -0.015625 0.046875 -0.03125l-0.734375 -2.3281212zm2.7219696 -0.390625l0 2.5937462q0 0.125 0.0625 0.171875q0.078125 0.03125 0.203125 0.03125l0.015625 0l0 0.234375l-1.140625 0l0 -0.234375l0 0q0.125 0 0.1875 -0.03125q0.078125 -0.046875 0.078125 -0.171875l0 -2.1718712q0 -0.046875 -0.03125 -0.078125q-0.015625 -0.03125 -0.078125 -0.046875q-0.046875 -0.015625 -0.125 -0.03125l-0.046875 0l0 -0.265625l0.875 0zm1.0558624 0.546875q-0.15625 0 -0.25 -0.078125q-0.09375 -0.078125 -0.09375 -0.234375q0 -0.15625 0.09375 -0.234375q0.09375 -0.078125 0.25 -0.078125q0.171875 0 0.265625 0.078125q0.09375 0.078125 0.09375 0.234375q0 0.15625 -0.09375 0.234375q-0.09375 0.078125 -0.265625 0.078125zm0.328125 0.328125l0 1.7187462q0 0.125 0.0625 0.171875q0.078125 0.03125 0.203125 0.03125l0 0l0 0.234375l-1.140625 0l0 -0.234375l0.015625 0q0.125 0 0.1875 -0.03125q0.078125 -0.046875 0.078125 -0.171875l0 -1.2968712q0 -0.0625 -0.0625 -0.09375q-0.0625 -0.03125 -0.171875 -0.046875l-0.046875 -0.015625l0 -0.265625l0.875 0zm2.9897346 0.34375q-0.171875 -0.015625 -0.296875 -0.015625q-0.125 -0.015625 -0.21875 0q-0.09375 0 -0.171875 0.015625l-0.078125 0.015625q0.0625 -0.140625 0.125 -0.234375q0.078125 -0.09375 0.171875 -0.15625q0.09375 -0.078125 0.203125 -0.09375q0.109375 -0.03125 0.265625 -0.015625l0 0.484375zm-1.375 1.1249962q-0.28125 0 -0.5000038 -0.078125q-0.203125 -0.09375 -0.328125 -0.2656212q-0.109375 -0.171875 -0.109375 -0.40625q0 -0.21875 0.109375 -0.390625q0.125 -0.1875 0.328125 -0.28125q0.21875381 -0.09375 0.5000038 -0.09375q0.28125 0 0.484375 0.09375q0.21875 0.09375 0.34375 0.28125q0.125 0.171875 0.125 0.390625q0 0.234375 -0.125 0.40625q-0.125 0.17187119 -0.34375 0.2656212q-0.203125 0.078125 -0.484375 0.078125zm0 -0.2656212q0.140625 0 0.21875 -0.046875q0.09375 -0.046875 0.125 -0.15625q0.046875 -0.109375 0.046875 -0.265625q0 -0.171875 -0.046875 -0.28125q-0.03125 -0.109375 -0.125 -0.15625q-0.078125 -0.0625 -0.21875 -0.0625q-0.125 0 -0.21875 0.0625q-0.078125 0.046875 -0.125 0.15625q-0.046875 0.109375 -0.046875 0.28125q0 0.15625 0.046875 0.265625q0.046875 0.109375 0.125 0.15625q0.09375 0.046875 0.21875 0.046875zm-0.28125 1.9374962q-0.2656288 0 -0.4687538 -0.046875q-0.203125 -0.046875 -0.3125 -0.15625q-0.109375 -0.109375 -0.109375 -0.265625q0 -0.125 0.0625 -0.21875q0.0625 -0.078125 0.1875 -0.15625q0.125 -0.0625 0.328125 -0.125l0.125 0.09375q-0.09375 0.046875 -0.15625 0.09375q-0.046875 0.0625 -0.0625 0.125q-0.015625 0.0625 -0.015625 0.125q0 0.078125 0.046875 0.125q0.046875 0.0625 0.15625 0.09375q0.109378815 0.03125 0.2968788 0.03125l0.390625 0q0.1875 0 0.3125 -0.046875q0.140625 -0.03125 0.203125 -0.109375q0.0625 -0.078125 0.0625 -0.1875q0 -0.09375 -0.0625 -0.140625q-0.046875 -0.046875 -0.203125 -0.046875l-1.0781288 0l0.015625 -0.03125q-0.15625 -0.03125 -0.265625 -0.09375q-0.109375 -0.0625 -0.15625 -0.140625q-0.046875 -0.09375 -0.046875 -0.21875q0 -0.125 0.0625 -0.21875q0.0625 -0.109375 0.1875 -0.1875q0.125 -0.078125 0.296875 -0.15625l0.15625381 0.09375q-0.078125 0.046875 -0.14062881 0.09375q-0.046875 0.046875 -0.078125 0.09375q-0.03125 0.046875 -0.03125 0.109375q0 0.078125 0.0625 0.125q0.0625 0.03125 0.20312881 0.03125l0.84375 0q0.25 0 0.40625 0.0625q0.15625 0.046875 0.234375 0.171875q0.09375 0.125 0.09375 0.328125q0 0.25 -0.140625 0.40625q-0.140625 0.171875 -0.375 0.25q-0.234375 0.09375 -0.546875 0.09375l-0.484375 0zm1.8394623 -0.984375l0 -0.234375l0.015625 0q0.078125 0 0.140625 -0.015625q0.0625 -0.03125 0.09375 -0.078125q0.03125 -0.046875 0.03125 -0.125l0 -1.2812462q0 -0.046875 -0.03125 -0.0625q-0.015625 -0.03125 -0.078125 -0.046875q-0.046875 -0.015625 -0.125 -0.03125l-0.046875 -0.015625l0 -0.265625l0.796875 0l0.046875 0.46875l0.03125 0.03125l0 1.3749962q0 0.015625 0.03125 0.03125q0.03125 0 0.078125 0.015625q0.0625 0 0.109375 0l0.015625 0l0 0.234375l-1.109375 0zm2.546875 0l-1.109375 0l0 -0.234375l0.015625 0q0.046875 0 0.09375 0q0.0625 -0.015625 0.09375 -0.015625q0.03125 -0.015625 0.03125 -0.03125l0 -1.2499962q0 -0.09375 -0.03125 -0.15625q-0.015625 -0.078125 -0.078125 -0.109375q-0.0625 -0.046875 -0.15625 -0.046875q-0.109375 0 -0.21875 0.0625q-0.09375 0.046875 -0.203125 0.15625q-0.09375 0.109375 -0.203125 0.265625l0 -0.28125q0.109375 -0.171875 0.234375 -0.296875q0.125 -0.125 0.28125 -0.1875q0.15625 -0.078125 0.328125 -0.078125q0.203125 0 0.34375 0.078125q0.140625 0.0625 0.21875 0.21875q0.078125 0.140625 0.078125 0.34375l0 1.1093712q0 0.078125 0.03125 0.125q0.03125 0.046875 0.09375 0.078125q0.0625 0.015625 0.140625 0.015625l0.015625 0l0 0.234375zm0.77996826 -2.4843712q-0.15625 0 -0.25 -0.078125q-0.09375 -0.078125 -0.09375 -0.234375q0 -0.15625 0.09375 -0.234375q0.09375 -0.078125 0.25 -0.078125q0.171875 0 0.265625 0.078125q0.09375 0.078125 0.09375 0.234375q0 0.15625 -0.09375 0.234375q-0.09375 0.078125 -0.265625 0.078125zm0.328125 0.328125l0 1.7187462q0 0.125 0.0625 0.171875q0.078125 0.03125 0.203125 0.03125l0 0l0 0.234375l-1.140625 0l0 -0.234375l0.015625 0q0.125 0 0.1875 -0.03125q0.078125 -0.046875 0.078125 -0.171875l0 -1.2968712q0 -0.0625 -0.0625 -0.09375q-0.0625 -0.03125 -0.171875 -0.046875l-0.046875 -0.015625l0 -0.265625l0.875 0zm1.3411102 0l0 1.5312462q0 0.09375 0.015625 0.171875q0.03125 0.0625 0.09375 0.109375q0.0625 0.03125 0.15625 0.03125q0.109375 0 0.203125 -0.046875q0.109375 -0.0625 0.203125 -0.171875q0.109375 -0.109375 0.21875 -0.265625l-0.015625 0.28125q-0.09375 0.171875 -0.234375 0.296875q-0.125 0.125 -0.28125 0.203125q-0.140625 0.0625 -0.3125 0.0625q-0.203125 0 -0.34375 -0.078125q-0.140625 -0.078125 -0.21875 -0.21875q-0.078125 -0.140625 -0.078125 -0.34375l0 -1.1406212q0 -0.0625 -0.0625 -0.09375q-0.046875 -0.03125 -0.171875 -0.046875l-0.046875 -0.015625l0 -0.265625l0.875 0zm1.390625 0l0 1.7499962q0 0.046875 0.015625 0.078125q0.03125 0.015625 0.09375 0.03125q0.0625 0.015625 0.140625 0.03125l0.015625 0l0 0.265625l-0.78125 0l-0.046875 -0.484375l-0.03125 -0.03125l0 -1.2187462q0 -0.0625 -0.078125 -0.09375q-0.0625 -0.046875 -0.1875 -0.046875l-0.078125 -0.015625l0 -0.265625l0.9375 0zm0.5092163 2.1562462l0 -0.234375l0.015625 0q0.125 0 0.1875 -0.046875q0.078125 -0.046875 0.078125 -0.171875l0 -1.2812462q0 -0.046875 -0.03125 -0.0625q-0.015625 -0.03125 -0.078125 -0.046875q-0.046875 -0.015625 -0.125 -0.03125l-0.046875 -0.015625l0 -0.265625l0.796875 0l0.046875 0.484375l0.03125 0.015625l0 1.3749962q0 0.015625 0.03125 0.03125q0.03125 0 0.078125 0.015625q0.046875 0 0.09375 0l0.015625 0l0 0.234375l-1.09375 0zm2.40625 0l-1.03125 0l0 -0.234375l0.015625 0q0.046875 0 0.09375 0q0.046875 -0.015625 0.078125 -0.015625q0.03125 -0.015625 0.03125 -0.03125l0 -1.2499962q0 -0.09375 -0.015625 -0.15625q-0.015625 -0.078125 -0.078125 -0.109375q-0.046875 -0.046875 -0.140625 -0.046875q-0.09375 0 -0.1875 0.0625q-0.09375 0.046875 -0.1875 0.15625q-0.09375 0.09375 -0.203125 0.25l0 -0.28125q0.109375 -0.171875 0.21875 -0.28125q0.125 -0.125 0.265625 -0.1875q0.15625 -0.078125 0.328125 -0.078125q0.1875 0 0.3125 0.078125q0.140625 0.0625 0.203125 0.21875q0.078125 0.140625 0.078125 0.34375l0 1.2812462q0 0.015625 0.03125 0.03125q0.046875 0 0.09375 0.015625q0.046875 0 0.09375 0l0 0l0 0.234375zm1.375 0l-1.078125 0l0 -0.234375l0 0q0.046875 0 0.09375 0q0.046875 -0.015625 0.078125 -0.015625q0.046875 -0.015625 0.046875 -0.03125l0 -1.2499962q0 -0.09375 -0.03125 -0.15625q-0.015625 -0.078125 -0.0625 -0.109375q-0.046875 -0.046875 -0.140625 -0.046875q-0.109375 0 -0.203125 0.0625q-0.09375 0.046875 -0.1875 0.15625q-0.09375 0.09375 -0.203125 0.25l0.015625 -0.28125q0.09375 -0.171875 0.21875 -0.28125q0.125 -0.125 0.265625 -0.1875q0.140625 -0.078125 0.3125 -0.078125q0.1875 0 0.3125 0.078125q0.140625 0.0625 0.203125 0.21875q0.078125 0.140625 0.078125 0.34375l0 1.1093712q0 0.125 0.078125 0.171875q0.078125 0.046875 0.1875 0.046875l0.015625 0l0 0.234375z" fill-rule="nonzero"/><path fill="#000000" d="m51.308193 71.834l0 -2.234375l0.40625 0q0.171875 0 0.28125 0.0625q0.125 0.0625 0.171875 0.1875q0.0625 0.125 0.0625 0.3125q0 0.1875 -0.0625 0.328125q-0.046875 0.125 -0.171875 0.203125q-0.109375 0.0625 -0.296875 0.0625l-0.5 0l0 0.28125l0.59375 0q0.328125 0 0.5625 -0.09375q0.234375 -0.109375 0.359375 -0.3125q0.140625 -0.203125 0.140625 -0.46875q0 -0.421875 -0.28125 -0.640625q-0.265625 -0.21875 -0.765625 -0.21875l-1.4375 0l0 0.265625l0.046875 0q0.125 0 0.203125 0.03125q0.078125 0.03125 0.078125 0.125l0 2.015625q0 0.078125 -0.078125 0.109375q-0.078125 0.03125 -0.203125 0.03125l-0.046875 0l0 0.265625l1.3125 0l0 -0.28125l-0.09375 0q-0.046875 0 -0.09375 0q-0.046875 0 -0.09375 0q-0.046875 0 -0.078125 0q-0.015625 -0.015625 -0.015625 -0.03125zm4.7462006 -1.640625l0 0.390625l-1.78125 0l0 -0.390625l1.78125 0zm0 0.859375l0 0.390625l-1.78125 0l0 -0.390625l1.78125 0zm2.3737183 0.78125l0 -2.234375l0.40625 0q0.171875 0 0.28125 0.0625q0.125 0.0625 0.171875 0.1875q0.0625 0.125 0.0625 0.3125q0 0.1875 -0.0625 0.328125q-0.046875 0.125 -0.171875 0.203125q-0.109375 0.0625 -0.296875 0.0625l-0.5 0l0 0.28125l0.59375 0q0.328125 0 0.5625 -0.09375q0.234375 -0.109375 0.359375 -0.3125q0.140625 -0.203125 0.140625 -0.46875q0 -0.421875 -0.28125 -0.640625q-0.265625 -0.21875 -0.765625 -0.21875l-1.4375 0l0 0.265625l0.046875 0q0.125 0 0.203125 0.03125q0.078125 0.03125 0.078125 0.125l0 2.015625q0 0.078125 -0.078125 0.109375q-0.078125 0.03125 -0.203125 0.03125l-0.046875 0l0 0.265625l1.3125 0l0 -0.28125l-0.09375 0q-0.046875 0 -0.09375 0q-0.046875 0 -0.09375 0q-0.046875 0 -0.078125 0q-0.015625 -0.015625 -0.015625 -0.03125zm3.1822052 -0.96875l0.625 1.28125l0.796875 0l0 -0.28125l-0.03125 0q-0.0625 0 -0.125 0q-0.046875 -0.015625 -0.09375 -0.046875q-0.046875 -0.046875 -0.09375 -0.125l-0.515625 -0.953125l-0.5625 0.125zm-0.40625 0.96875l0 -2.234375l0.421875 0q0.171875 0 0.265625 0.0625q0.109375 0.0625 0.15625 0.171875q0.0625 0.109375 0.0625 0.28125q0 0.1875 -0.0625 0.3125q-0.046875 0.125 -0.15625 0.203125q-0.109375 0.0625 -0.28125 0.0625l-0.484375 0l0 0.28125l0.609375 0q0.03125 0 0.0625 -0.015625q0.03125 -0.015625 0.046875 -0.015625q0.03125 -0.015625 0.0625 -0.03125q0.265625 -0.046875 0.453125 -0.15625q0.1875 -0.109375 0.28125 -0.265625q0.109375 -0.171875 0.109375 -0.390625q0 -0.25 -0.125 -0.421875q-0.125 -0.1875 -0.359375 -0.28125q-0.21875 -0.09375 -0.5625 -0.09375l-1.4375 0l0 0.28125l0.046875 0q0.125 0 0.1875 0.03125q0.078125 0.015625 0.078125 0.109375l0 2.0q0 0.09375 -0.078125 0.125q-0.0625 0.015625 -0.1875 0.015625l-0.046875 0l0 0.28125l1.28125 0l0 -0.28125l-0.0625 0q-0.046875 0 -0.109375 0q-0.046875 0 -0.09375 0q-0.03125 -0.015625 -0.0625 -0.015625q-0.015625 0 -0.015625 -0.015625zm2.4542084 -0.109375l0 -2.0q0 -0.09375 -0.078125 -0.109375q-0.078125 -0.03125 -0.203125 -0.03125l-0.0625 0l0 -0.28125l1.2968788 0l0 0.28125l-0.0625 0q-0.125 0 -0.203125 0.03125q-0.078125 0.015625 -0.078125 0.109375l0 2.0q0 0.09375 0.078125 0.125q0.078125 0.015625 0.203125 0.015625l0.0625 0l0 0.28125l-1.2968788 0l0 -0.28125l0.0625 0q0.125 0 0.203125 -0.015625q0.078125 -0.03125 0.078125 -0.125zm1.264988 0.421875l0 -0.234375l0.015625 0q0.078125 0 0.140625 -0.015625q0.0625 -0.03125 0.09375 -0.078125q0.03125 -0.046875 0.03125 -0.125l0 -1.28125q0 -0.046875 -0.03125 -0.0625q-0.015625 -0.03125 -0.078125 -0.046875q-0.046875 -0.015625 -0.125 -0.03125l-0.046875 -0.015625l0 -0.265625l0.796875 0l0.046875 0.46875l0.03125 0.03125l0 1.375q0 0.015625 0.03125 0.03125q0.03125 0 0.078125 0.015625q0.0625 0 0.109375 0l0.015625 0l0 0.234375l-1.109375 0zm2.546875 0l-1.109375 0l0 -0.234375l0.015625 0q0.046875 0 0.09375 0q0.0625 -0.015625 0.09375 -0.015625q0.03125 -0.015625 0.03125 -0.03125l0 -1.25q0 -0.09375 -0.03125 -0.15625q-0.015625 -0.078125 -0.078125 -0.109375q-0.0625 -0.046875 -0.15625 -0.046875q-0.109375 0 -0.21875 0.0625q-0.09375 0.046875 -0.203125 0.15625q-0.09375 0.109375 -0.203125 0.265625l0 -0.28125q0.109375 -0.171875 0.234375 -0.296875q0.125 -0.125 0.28125 -0.1875q0.15625 -0.078125 0.328125 -0.078125q0.203125 0 0.34375 0.078125q0.140625 0.0625 0.21875 0.21875q0.078125 0.140625 0.078125 0.34375l0 1.109375q0 0.078125 0.03125 0.125q0.03125 0.046875 0.09375 0.078125q0.0625 0.015625 0.140625 0.015625l0.015625 0l0 0.234375zm0.77996826 -2.484375q-0.15625 0 -0.25 -0.078125q-0.09375 -0.078125 -0.09375 -0.234375q0 -0.15625 0.09375 -0.234375q0.09375 -0.078125 0.25 -0.078125q0.171875 0 0.265625 0.078125q0.09375 0.078125 0.09375 0.234375q0 0.15625 -0.09375 0.234375q-0.09375 0.078125 -0.265625 0.078125zm0.328125 0.328125l0 1.71875q0 0.125 0.0625 0.171875q0.078125 0.03125 0.203125 0.03125l0 0l0 0.234375l-1.140625 0l0 -0.234375l0.015625 0q0.125 0 0.1875 -0.03125q0.078125 -0.046875 0.078125 -0.171875l0 -1.296875q0 -0.0625 -0.0625 -0.09375q-0.0625 -0.03125 -0.171875 -0.046875l-0.046875 -0.015625l0 -0.265625l0.875 0zm1.3411102 0l0 1.53125q0 0.09375 0.015625 0.171875q0.03125 0.0625 0.09375 0.109375q0.0625 0.03125 0.15625 0.03125q0.109375 0 0.203125 -0.046875q0.109375 -0.0625 0.203125 -0.171875q0.109375 -0.109375 0.21875 -0.265625l-0.015625 0.28125q-0.09375 0.171875 -0.234375 0.296875q-0.125 0.125 -0.28125 0.203125q-0.140625 0.0625 -0.3125 0.0625q-0.203125 0 -0.34375 -0.078125q-0.140625 -0.078125 -0.21875 -0.21875q-0.078125 -0.140625 -0.078125 -0.34375l0 -1.140625q0 -0.0625 -0.0625 -0.09375q-0.046875 -0.03125 -0.171875 -0.046875l-0.046875 -0.015625l0 -0.265625l0.875 0zm1.390625 0l0 1.75q0 0.046875 0.015625 0.078125q0.03125 0.015625 0.09375 0.03125q0.0625 0.015625 0.140625 0.03125l0.015625 0l0 0.265625l-0.78125 0l-0.046875 -0.484375l-0.03125 -0.03125l0 -1.21875q0 -0.0625 -0.078125 -0.09375q-0.0625 -0.046875 -0.1875 -0.046875l-0.078125 -0.015625l0 -0.265625l0.9375 0zm0.5092163 2.15625l0 -0.234375l0.015625 0q0.125 0 0.1875 -0.046875q0.078125 -0.046875 0.078125 -0.171875l0 -1.28125q0 -0.046875 -0.03125 -0.0625q-0.015625 -0.03125 -0.078125 -0.046875q-0.046875 -0.015625 -0.125 -0.03125l-0.046875 -0.015625l0 -0.265625l0.796875 0l0.046875 0.484375l0.03125 0.015625l0 1.375q0 0.015625 0.03125 0.03125q0.03125 0 0.078125 0.015625q0.046875 0 0.09375 0l0.015625 0l0 0.234375l-1.09375 0zm2.40625 0l-1.03125 0l0 -0.234375l0.015625 0q0.046875 0 0.09375 0q0.046875 -0.015625 0.078125 -0.015625q0.03125 -0.015625 0.03125 -0.03125l0 -1.25q0 -0.09375 -0.015625 -0.15625q-0.015625 -0.078125 -0.078125 -0.109375q-0.046875 -0.046875 -0.140625 -0.046875q-0.09375 0 -0.1875 0.0625q-0.09375 0.046875 -0.1875 0.15625q-0.09375 0.09375 -0.203125 0.25l0 -0.28125q0.109375 -0.171875 0.21875 -0.28125q0.125 -0.125 0.265625 -0.1875q0.15625 -0.078125 0.328125 -0.078125q0.1875 0 0.3125 0.078125q0.140625 0.0625 0.203125 0.21875q0.078125 0.140625 0.078125 0.34375l0 1.28125q0 0.015625 0.03125 0.03125q0.046875 0 0.09375 0.015625q0.046875 0 0.09375 0l0 0l0 0.234375zm1.375 0l-1.078125 0l0 -0.234375l0 0q0.046875 0 0.09375 0q0.046875 -0.015625 0.078125 -0.015625q0.046875 -0.015625 0.046875 -0.03125l0 -1.25q0 -0.09375 -0.03125 -0.15625q-0.015625 -0.078125 -0.0625 -0.109375q-0.046875 -0.046875 -0.140625 -0.046875q-0.109375 0 -0.203125 0.0625q-0.09375 0.046875 -0.1875 0.15625q-0.09375 0.09375 -0.203125 0.25l0.015625 -0.28125q0.09375 -0.171875 0.21875 -0.28125q0.125 -0.125 0.265625 -0.1875q0.140625 -0.078125 0.3125 -0.078125q0.1875 0 0.3125 0.078125q0.140625 0.0625 0.203125 0.21875q0.078125 0.140625 0.078125 0.34375l0 1.109375q0 0.125 0.078125 0.171875q0.078125 0.046875 0.1875 0.046875l0.015625 0l0 0.234375z" fill-rule="nonzero"/><path fill="#000000" d="m51.714443 78.06525l0.625 1.28125l0.796875 0l0 -0.28125l-0.03125 0q-0.0625 0 -0.125 0q-0.046875 -0.015625 -0.09375 -0.046875q-0.046875 -0.046875 -0.09375 -0.125l-0.515625 -0.953125l-0.5625 0.125zm-0.40625 0.96875l0 -2.234375l0.421875 0q0.171875 0 0.265625 0.0625q0.109375 0.0625 0.15625 0.171875q0.0625 0.109375 0.0625 0.28125q0 0.1875 -0.0625 0.3125q-0.046875 0.125 -0.15625 0.203125q-0.109375 0.0625 -0.28125 0.0625l-0.484375 0l0 0.28125l0.609375 0q0.03125 0 0.0625 -0.015625q0.03125 -0.015625 0.046875 -0.015625q0.03125 -0.015625 0.0625 -0.03125q0.265625 -0.046875 0.453125 -0.15625q0.1875 -0.109375 0.28125 -0.265625q0.109375 -0.171875 0.109375 -0.390625q0 -0.25 -0.125 -0.421875q-0.125 -0.1875 -0.359375 -0.28125q-0.21875 -0.09375 -0.5625 -0.09375l-1.4375 0l0 0.28125l0.046875 0q0.125 0 0.1875 0.03125q0.078125 0.015625 0.078125 0.109375l0 2.0q0 0.09375 -0.078125 0.125q-0.0625 0.015625 -0.1875 0.015625l-0.046875 0l0 0.28125l1.28125 0l0 -0.28125l-0.0625 0q-0.046875 0 -0.109375 0q-0.046875 0 -0.09375 0q-0.03125 -0.015625 -0.0625 -0.015625q-0.015625 0 -0.015625 -0.015625zm4.9942017 -1.640625l0 0.390625l-1.78125 0l0 -0.390625l1.78125 0zm0 0.859375l0 0.390625l-1.78125 0l0 -0.390625l1.78125 0zm2.7799683 -0.1875l0.625 1.28125l0.796875 0l0 -0.28125l-0.03125 0q-0.0625 0 -0.125 0q-0.046875 -0.015625 -0.09375 -0.046875q-0.046875 -0.046875 -0.09375 -0.125l-0.515625 -0.953125l-0.5625 0.125zm-0.40625 0.96875l0 -2.234375l0.421875 0q0.171875 0 0.265625 0.0625q0.109375 0.0625 0.15625 0.171875q0.0625 0.109375 0.0625 0.28125q0 0.1875 -0.0625 0.3125q-0.046875 0.125 -0.15625 0.203125q-0.109375 0.0625 -0.28125 0.0625l-0.484375 0l0 0.28125l0.609375 0q0.03125 0 0.0625 -0.015625q0.03125 -0.015625 0.046875 -0.015625q0.03125 -0.015625 0.0625 -0.03125q0.265625 -0.046875 0.453125 -0.15625q0.1875 -0.109375 0.28125 -0.265625q0.109375 -0.171875 0.109375 -0.390625q0 -0.25 -0.125 -0.421875q-0.125 -0.1875 -0.359375 -0.28125q-0.21875 -0.09375 -0.5625 -0.09375l-1.4375 0l0 0.28125l0.046875 0q0.125 0 0.1875 0.03125q0.078125 0.015625 0.078125 0.109375l0 2.0q0 0.09375 -0.078125 0.125q-0.0625 0.015625 -0.1875 0.015625l-0.046875 0l0 0.28125l1.28125 0l0 -0.28125l-0.0625 0q-0.046875 0 -0.109375 0q-0.046875 0 -0.09375 0q-0.03125 -0.015625 -0.0625 -0.015625q-0.015625 0 -0.015625 -0.015625zm2.736206 -0.875l1.109375 0l0.03125 0.265625l-1.1875 0l0.046875 -0.265625zm0.5 -1.453125l0.078125 0.09375l-0.703125 2.1875q0 0.015625 0.03125 0.046875q0.046875 0.015625 0.109375 0.03125q0.078125 0 0.15625 0l0.046875 0l0 0.28125l-0.921875 0l0 -0.28125l0.03125 0q0.09375 0 0.15625 -0.03125q0.0625 -0.046875 0.109375 -0.171875l0.765625 -2.375l0.671875 0l0.796875 2.40625q0.03125 0.109375 0.09375 0.140625q0.078125 0.03125 0.171875 0.03125l0.015625 0l0 0.28125l-1.21875 0l0 -0.28125l0.046875 0q0.09375 0 0.15625 0q0.0625 0 0.09375 0q0.046875 -0.015625 0.046875 -0.03125l-0.734375 -2.328125zm1.8502197 0.078125l0 -0.28125l1.3750038 0q0.34375 0 0.609375 0.09375q0.28125 0.09375 0.484375 0.265625q0.203125 0.171875 0.3125 0.4375q0.109375 0.265625 0.109375 0.609375q0 0.34375 -0.109375 0.625q-0.109375 0.265625 -0.3125 0.453125q-0.203125 0.171875 -0.484375 0.265625q-0.265625 0.09375 -0.609375 0.09375l-1.3750038 0l0 -0.28125l0.046875 0q0.125 0 0.20312881 -0.015625q0.078125 -0.03125 0.078125 -0.125l0 -2.0q0 -0.078125 -0.078125 -0.109375q-0.078128815 -0.03125 -0.20312881 -0.03125l-0.046875 0zm1.3281288 0.015625l-0.390625 0l0 2.25l0.390625 0q0.21875 0 0.390625 -0.0625q0.171875 -0.078125 0.28125 -0.21875q0.109375 -0.140625 0.171875 -0.359375q0.0625 -0.21875 0.0625 -0.5q0 -0.28125 -0.0625 -0.484375q-0.0625 -0.203125 -0.171875 -0.34375q-0.109375 -0.140625 -0.28125 -0.203125q-0.171875 -0.078125 -0.390625 -0.078125zm3.2283325 2.0q0 -0.09375 -0.046875 -0.140625q-0.046875 -0.0625 -0.125 -0.09375q-0.078125 -0.03125 -0.171875 -0.046875q-0.09375 -0.03125 -0.203125 -0.0625q-0.125 -0.03125 -0.265625 -0.0625q-0.125 -0.046875 -0.234375 -0.109375q-0.09375 -0.078125 -0.171875 -0.1875q-0.0625 -0.125 -0.0625 -0.296875q0 -0.21875 0.109375 -0.359375q0.109375 -0.140625 0.3125 -0.21875q0.203125 -0.078125 0.484375 -0.078125q0.21875 0 0.375 0.03125q0.171875 0.015625 0.265625 0.0625q0.109375 0.03125 0.15625 0.046875l0 0.5l-0.453125 0l0 -0.390625q0.046875 0 0.078125 0.015625q0.03125 0 0.046875 0.03125q0.015625 0.015625 0.015625 0.0625q0 0.03125 0 0.0625q-0.046875 -0.046875 -0.125 -0.078125q-0.078125 -0.03125 -0.171875 -0.046875q-0.078125 -0.015625 -0.1875 -0.015625q-0.203125 0 -0.296875 0.078125q-0.09375 0.0625 -0.09375 0.1875q0 0.078125 0.03125 0.140625q0.046875 0.046875 0.125 0.09375q0.078125 0.03125 0.171875 0.0625q0.109375 0.015625 0.21875 0.046875q0.140625 0.03125 0.265625 0.078125q0.140625 0.03125 0.25 0.109375q0.109375 0.0625 0.171875 0.1875q0.0625 0.109375 0.0625 0.28125q0 0.21875 -0.109375 0.375q-0.109375 0.15625 -0.328125 0.25q-0.203125 0.078125 -0.53125 0.078125q-0.21875 0 -0.390625 -0.03125q-0.171875 -0.03125 -0.296875 -0.078125q-0.125 -0.046875 -0.203125 -0.078125l0 -0.53125l0.46875 0l0 0.515625q-0.078125 -0.015625 -0.125 -0.046875q-0.03125 -0.046875 -0.046875 -0.078125q-0.015625 -0.046875 -0.015625 -0.078125q0.015625 -0.03125 0.046875 -0.03125q0.046875 0.03125 0.125 0.078125q0.09375 0.03125 0.203125 0.0625q0.109375 0.015625 0.234375 0.015625q0.140625 0 0.234375 -0.03125q0.109375 -0.046875 0.15625 -0.109375q0.046875 -0.0625 0.046875 -0.171875zm1.367096 -1.9375q-0.15625 0 -0.25 -0.078125q-0.09375 -0.078125 -0.09375 -0.234375q0 -0.15625 0.09375 -0.234375q0.09375 -0.078125 0.25 -0.078125q0.171875 0 0.265625 0.078125q0.09375 0.078125 0.09375 0.234375q0 0.15625 -0.09375 0.234375q-0.09375 0.078125 -0.265625 0.078125zm0.328125 0.328125l0 1.71875q0 0.125 0.0625 0.171875q0.078125 0.03125 0.203125 0.03125l0 0l0 0.234375l-1.140625 0l0 -0.234375l0.015625 0q0.125 0 0.1875 -0.03125q0.078125 -0.046875 0.078125 -0.171875l0 -1.296875q0 -0.0625 -0.0625 -0.09375q-0.0625 -0.03125 -0.171875 -0.046875l-0.046875 -0.015625l0 -0.265625l0.875 0zm2.7629852 1.75q0 0.078125 0.0625 0.109375q0.078125 0.015625 0.1875 0.03125l0.03125 0l0 0.265625l-0.78125 0l-0.046875 -0.484375l-0.03125 0.03125l0 -2.15625q0 -0.046875 -0.03125 -0.0625q-0.03125 -0.03125 -0.09375 -0.046875q-0.046875 -0.03125 -0.125 -0.046875l-0.03125 0l0 -0.265625l0.859375 0l0 2.625zm-1.25 -1.796875q0.1875 0 0.328125 0.078125q0.15625 0.0625 0.265625 0.1875q0.109375 0.125 0.203125 0.3125l-0.015625 0.28125q-0.09375 -0.171875 -0.203125 -0.28125q-0.09375 -0.125 -0.203125 -0.171875q-0.09375 -0.0625 -0.234375 -0.0625q-0.125 0 -0.234375 0.0625q-0.09375 0.046875 -0.15625 0.15625q-0.0625 0.09375 -0.09375 0.25q-0.03125 0.140625 -0.03125 0.328125q0 0.1875 0.03125 0.34375q0.03125 0.140625 0.078125 0.234375q0.0625 0.09375 0.15625 0.140625q0.09375 0.046875 0.21875 0.046875q0.140625 0 0.25 -0.046875q0.109375 -0.0625 0.203125 -0.1875q0.109375 -0.125 0.21875 -0.3125l0.015625 0.28125q-0.109375 0.1875 -0.21875 0.328125q-0.109375 0.140625 -0.265625 0.21875q-0.15625 0.0625 -0.34375 0.0625q-0.3125 0 -0.515625 -0.140625q-0.203125 -0.140625 -0.328125 -0.390625q-0.109375 -0.25 -0.109375 -0.578125q0 -0.328125 0.125 -0.578125q0.125 -0.265625 0.34375 -0.40625q0.21875 -0.15625 0.515625 -0.15625zm2.3108368 -0.28125q-0.15625 0 -0.25 -0.078125q-0.09375 -0.078125 -0.09375 -0.234375q0 -0.15625 0.09375 -0.234375q0.09375 -0.078125 0.25 -0.078125q0.171875 0 0.265625 0.078125q0.09375 0.078125 0.09375 0.234375q0 0.15625 -0.09375 0.234375q-0.09375 0.078125 -0.265625 0.078125zm0.328125 0.328125l0 1.71875q0 0.125 0.0625 0.171875q0.078125 0.03125 0.203125 0.03125l0 0l0 0.234375l-1.140625 0l0 -0.234375l0.015625 0q0.125 0 0.1875 -0.03125q0.078125 -0.046875 0.078125 -0.171875l0 -1.296875q0 -0.0625 -0.0625 -0.09375q-0.0625 -0.03125 -0.171875 -0.046875l-0.046875 -0.015625l0 -0.265625l0.875 0zm0.5129852 2.15625l0 -0.234375l0.015625 0q0.125 0 0.1875 -0.046875q0.078125 -0.046875 0.078125 -0.171875l0 -1.28125q0 -0.046875 -0.03125 -0.0625q-0.015625 -0.03125 -0.078125 -0.046875q-0.046875 -0.015625 -0.125 -0.03125l-0.046875 -0.015625l0 -0.265625l0.796875 0l0.046875 0.484375l0.03125 0.015625l0 1.375q0 0.015625 0.03125 0.03125q0.03125 0 0.078125 0.015625q0.046875 0 0.09375 0l0.015625 0l0 0.234375l-1.09375 0zm2.40625 0l-1.03125 0l0 -0.234375l0.015625 0q0.046875 0 0.09375 0q0.046875 -0.015625 0.078125 -0.015625q0.03125 -0.015625 0.03125 -0.03125l0 -1.25q0 -0.09375 -0.015625 -0.15625q-0.015625 -0.078125 -0.078125 -0.109375q-0.046875 -0.046875 -0.140625 -0.046875q-0.09375 0 -0.1875 0.0625q-0.09375 0.046875 -0.1875 0.15625q-0.09375 0.09375 -0.203125 0.25l0 -0.28125q0.109375 -0.171875 0.21875 -0.28125q0.125 -0.125 0.265625 -0.1875q0.15625 -0.078125 0.328125 -0.078125q0.1875 0 0.3125 0.078125q0.140625 0.0625 0.203125 0.21875q0.078125 0.140625 0.078125 0.34375l0 1.28125q0 0.015625 0.03125 0.03125q0.046875 0 0.09375 0.015625q0.046875 0 0.09375 0l0 0l0 0.234375zm1.375 0l-1.078125 0l0 -0.234375l0 0q0.046875 0 0.09375 0q0.046875 -0.015625 0.078125 -0.015625q0.046875 -0.015625 0.046875 -0.03125l0 -1.25q0 -0.09375 -0.03125 -0.15625q-0.015625 -0.078125 -0.0625 -0.109375q-0.046875 -0.046875 -0.140625 -0.046875q-0.109375 0 -0.203125 0.0625q-0.09375 0.046875 -0.1875 0.15625q-0.09375 0.09375 -0.203125 0.25l0.015625 -0.28125q0.09375 -0.171875 0.21875 -0.28125q0.125 -0.125 0.265625 -0.1875q0.140625 -0.078125 0.3125 -0.078125q0.1875 0 0.3125 0.078125q0.140625 0.0625 0.203125 0.21875q0.078125 0.140625 0.078125 0.34375l0 1.109375q0 0.125 0.078125 0.171875q0.078125 0.046875 0.1875 0.046875l0.015625 0l0 0.234375z" fill-rule="nonzero"/><path fill="#000000" d="m51.35507 86.124626l0 -2.125l-0.15625 0q-0.171875 0 -0.28125 0.015625q-0.09375 0.015625 -0.140625 0.0625q-0.046875 0.046875 -0.046875 0.109375l-0.046875 0.484375l-0.328125 0l0 -0.96875l2.609375 0l0 0.96875l-0.328125 0l-0.03125 -0.484375q-0.015625 -0.0625 -0.0625 -0.109375q-0.046875 -0.046875 -0.15625 -0.0625q-0.09375 -0.015625 -0.25 -0.015625l-0.171875 0l0 2.125q0 0.09375 0.078125 0.125q0.09375 0.015625 0.21875 0.015625l0.0625 0l0 0.28125l-1.328125 0l0 -0.28125l0.078125 0q0.109375 0 0.1875 -0.015625q0.09375 -0.03125 0.09375 -0.125zm4.8273315 -1.53125l0 0.390625l-1.78125 0l0 -0.390625l1.78125 0zm0 0.859375l0 0.390625l-1.78125 0l0 -0.390625l1.78125 0zm2.4205933 0.671875l0 -2.125l-0.15625 0q-0.171875 0 -0.28125 0.015625q-0.09375 0.015625 -0.140625 0.0625q-0.046875 0.046875 -0.046875 0.109375l-0.046875 0.484375l-0.328125 0l0 -0.96875l2.609375 0l0 0.96875l-0.328125 0l-0.03125 -0.484375q-0.015625 -0.0625 -0.0625 -0.109375q-0.046875 -0.046875 -0.15625 -0.0625q-0.09375 -0.015625 -0.25 -0.015625l-0.171875 0l0 2.125q0 0.09375 0.078125 0.125q0.09375 0.015625 0.21875 0.015625l0.0625 0l0 0.28125l-1.328125 0l0 -0.28125l0.078125 0q0.109375 0 0.1875 -0.015625q0.09375 -0.03125 0.09375 -0.125zm3.5845947 -1.75l0 0.546875q-0.03125 0 -0.078125 0q-0.046875 -0.015625 -0.109375 -0.015625q-0.046875 0 -0.09375 0q-0.109375 0 -0.1875 0.015625q-0.078125 0.015625 -0.15625 0.046875q-0.0625 0.03125 -0.125 0.09375q-0.0625 0.046875 -0.109375 0.109375l-0.015625 -0.15625q0.09375 -0.21875 0.1875 -0.359375q0.109375 -0.15625 0.234375 -0.234375q0.125 -0.078125 0.296875 -0.078125q0.046875 0 0.09375 0.015625q0.046875 0 0.0625 0.015625zm-1.65625 2.171875l0 -0.234375l0.015625 0q0.125 0 0.1875 -0.046875q0.078125 -0.046875 0.078125 -0.171875l0 -1.28125q0 -0.046875 -0.03125 -0.0625q-0.015625 -0.03125 -0.078125 -0.046875q-0.046875 -0.015625 -0.125 -0.03125l-0.046875 -0.015625l0 -0.265625l0.796875 0l0.046875 0.59375l0.03125 -0.015625l0 1.265625q0 0.03125 0.046875 0.046875q0.046875 0.015625 0.109375 0.03125q0.0625 0 0.125 0l0.0625 0l0 0.234375l-1.21875 0zm2.7601013 -2.15625l0 1.53125q0 0.09375 0.015625 0.171875q0.03125 0.0625 0.09375 0.109375q0.0625 0.03125 0.15625 0.03125q0.109375 0 0.203125 -0.046875q0.109375 -0.0625 0.203125 -0.171875q0.109378815 -0.109375 0.21875381 -0.265625l-0.015625 0.28125q-0.09375 0.171875 -0.23437881 0.296875q-0.125 0.125 -0.28125 0.203125q-0.140625 0.0625 -0.3125 0.0625q-0.203125 0 -0.34375 -0.078125q-0.140625 -0.078125 -0.21875 -0.21875q-0.078125 -0.140625 -0.078125 -0.34375l0 -1.140625q0 -0.0625 -0.0625 -0.09375q-0.046875 -0.03125 -0.171875 -0.046875l-0.046875 -0.015625l0 -0.265625l0.875 0zm1.3906288 0l0 1.75q0 0.046875 0.015625 0.078125q0.03125 0.015625 0.09375 0.03125q0.0625 0.015625 0.140625 0.03125l0.015625 0l0 0.265625l-0.78125 0l-0.046875 -0.484375l-0.03125 -0.03125l0 -1.21875q0 -0.0625 -0.078125 -0.09375q-0.062503815 -0.046875 -0.18750381 -0.046875l-0.078125 -0.015625l0 -0.265625l0.9375038 0zm1.8689728 1.609375q0 -0.09375 -0.046875 -0.140625q-0.046875 -0.0625 -0.125 -0.09375q-0.078125 -0.03125 -0.171875 -0.046875q-0.09375 -0.03125 -0.203125 -0.0625q-0.125 -0.03125 -0.265625 -0.0625q-0.125 -0.046875 -0.234375 -0.109375q-0.09375 -0.078125 -0.171875 -0.1875q-0.0625 -0.125 -0.0625 -0.296875q0 -0.21875 0.109375 -0.359375q0.109375 -0.140625 0.3125 -0.21875q0.203125 -0.078125 0.484375 -0.078125q0.21875 0 0.375 0.03125q0.171875 0.015625 0.265625 0.0625q0.109375 0.03125 0.15625 0.046875l0 0.5l-0.453125 0l0 -0.390625q0.046875 0 0.078125 0.015625q0.03125 0 0.046875 0.03125q0.015625 0.015625 0.015625 0.0625q0 0.03125 0 0.0625q-0.046875 -0.046875 -0.125 -0.078125q-0.078125 -0.03125 -0.171875 -0.046875q-0.078125 -0.015625 -0.1875 -0.015625q-0.203125 0 -0.296875 0.078125q-0.09375 0.0625 -0.09375 0.1875q0 0.078125 0.03125 0.140625q0.046875 0.046875 0.125 0.09375q0.078125 0.03125 0.171875 0.0625q0.109375 0.015625 0.21875 0.046875q0.140625 0.03125 0.265625 0.078125q0.140625 0.03125 0.25 0.109375q0.109375 0.0625 0.171875 0.1875q0.0625 0.109375 0.0625 0.28125q0 0.21875 -0.109375 0.375q-0.109375 0.15625 -0.328125 0.25q-0.203125 0.078125 -0.53125 0.078125q-0.21875 0 -0.390625 -0.03125q-0.171875 -0.03125 -0.296875 -0.078125q-0.125 -0.046875 -0.203125 -0.078125l0 -0.53125l0.46875 0l0 0.515625q-0.078125 -0.015625 -0.125 -0.046875q-0.03125 -0.046875 -0.046875 -0.078125q-0.015625 -0.046875 -0.015625 -0.078125q0.015625 -0.03125 0.046875 -0.03125q0.046875 0.03125 0.125 0.078125q0.09375 0.03125 0.203125 0.0625q0.109375 0.015625 0.234375 0.015625q0.140625 0 0.234375 -0.03125q0.109375 -0.046875 0.15625 -0.109375q0.046875 -0.0625 0.046875 -0.171875zm0.71847534 -1.3125l0 -0.28125l0.03125 0q0.125 0 0.203125 -0.015625q0.078125 -0.015625 0.109375 -0.0625q0.046875 -0.046875 0.046875 -0.15625l0.375 0.21875l0.828125 0l0 0.296875l-1.59375 0zm0.953125 1.1875q0 0.140625 0.046875 0.234375q0.046875 0.078125 0.125 0.125q0.078125 0.03125 0.1875 0.03125q0.09375 0 0.171875 -0.015625q0.09375 -0.015625 0.125 -0.015625l0 0.296875q-0.046875 0.015625 -0.125 0.03125q-0.0625 0.015625 -0.140625 0.015625q-0.078125 0.015625 -0.171875 0.015625q-0.234375 0 -0.421875 -0.0625q-0.171875 -0.0625 -0.28125 -0.203125q-0.09375 -0.15625 -0.09375 -0.4375l0 -1.4375l0.015625 -0.03125l0 -0.640625l0.5625 0l0 2.09375zm2.342102 -0.640625l0 0.25q-0.203125 0.03125 -0.34375 0.078125q-0.140625 0.03125 -0.25 0.078125q-0.09375 0.046875 -0.140625 0.109375q-0.046875 0.046875 -0.078125 0.109375q-0.015625 0.0625 -0.015625 0.140625q0 0.109375 0.03125 0.171875q0.03125 0.0625 0.09375 0.09375q0.078125 0.03125 0.171875 0.03125q0.109375 0 0.1875 -0.046875q0.09375 -0.046875 0.171875 -0.140625q0.078125 -0.09375 0.171875 -0.25l0.015625 0.21875q-0.078125 0.171875 -0.1875 0.28125q-0.109375 0.109375 -0.25 0.171875q-0.125 0.0625 -0.296875 0.0625q-0.203125 0 -0.359375 -0.0625q-0.15625 -0.0625 -0.234375 -0.1875q-0.078125 -0.140625 -0.078125 -0.328125q0 -0.15625 0.078125 -0.28125q0.078125 -0.125 0.234375 -0.21875q0.171875 -0.09375 0.4375 -0.15625q0.265625 -0.0625 0.640625 -0.125zm0 1.3125l-0.046875 -0.453125l-0.015625 0l0 -1.125q0 -0.109375 -0.03125 -0.171875q-0.03125 -0.078125 -0.109375 -0.109375q-0.078125 -0.046875 -0.21875 -0.046875q-0.203125 0 -0.34375 0.0625q-0.125 0.0625 -0.1875 0.125q-0.015625 -0.03125 -0.015625 -0.0625q0 -0.03125 0.015625 -0.0625q0.03125 -0.03125 0.078125 -0.046875q0.046875 -0.03125 0.109375 -0.03125l0 0.46875l-0.5 0l0 -0.5q0.0625 -0.046875 0.171875 -0.09375q0.125 -0.0625 0.296875 -0.109375q0.1875 -0.046875 0.421875 -0.046875q0.203125 0 0.359375 0.046875q0.171875 0.03125 0.28125 0.109375q0.109375 0.078125 0.171875 0.203125q0.078125 0.125 0.078125 0.296875l0 1.140625q0 0.046875 0.015625 0.078125q0.03125 0.015625 0.09375 0.03125q0.0625 0.015625 0.140625 0.03125l0.015625 0l0 0.265625l-0.78125 0zm3.4592285 -1.8125q-0.171875 -0.015625 -0.296875 -0.015625q-0.125 -0.015625 -0.21875 0q-0.09375 0 -0.171875 0.015625l-0.078125 0.015625q0.0625 -0.140625 0.125 -0.234375q0.078125 -0.09375 0.171875 -0.15625q0.09375 -0.078125 0.203125 -0.09375q0.109375 -0.03125 0.265625 -0.015625l0 0.484375zm-1.375 1.125q-0.28125 0 -0.5 -0.078125q-0.203125 -0.09375 -0.328125 -0.265625q-0.109375 -0.171875 -0.109375 -0.40625q0 -0.21875 0.109375 -0.390625q0.125 -0.1875 0.328125 -0.28125q0.21875 -0.09375 0.5 -0.09375q0.28125 0 0.484375 0.09375q0.21875 0.09375 0.34375 0.28125q0.125 0.171875 0.125 0.390625q0 0.234375 -0.125 0.40625q-0.125 0.171875 -0.34375 0.265625q-0.203125 0.078125 -0.484375 0.078125zm0 -0.265625q0.140625 0 0.21875 -0.046875q0.09375 -0.046875 0.125 -0.15625q0.046875 -0.109375 0.046875 -0.265625q0 -0.171875 -0.046875 -0.28125q-0.03125 -0.109375 -0.125 -0.15625q-0.078125 -0.0625 -0.21875 -0.0625q-0.125 0 -0.21875 0.0625q-0.078125 0.046875 -0.125 0.15625q-0.046875 0.109375 -0.046875 0.28125q0 0.15625 0.046875 0.265625q0.046875 0.109375 0.125 0.15625q0.09375 0.046875 0.21875 0.046875zm-0.28125 1.9375q-0.265625 0 -0.46875 -0.046875q-0.203125 -0.046875 -0.3125 -0.15625q-0.109375 -0.109375 -0.109375 -0.265625q0 -0.125 0.0625 -0.21875q0.0625 -0.078125 0.1875 -0.15625q0.125 -0.0625 0.328125 -0.125l0.125 0.09375q-0.09375 0.046875 -0.15625 0.09375q-0.046875 0.0625 -0.0625 0.125q-0.015625 0.0625 -0.015625 0.125q0 0.078125 0.046875 0.125q0.046875 0.0625 0.15625 0.09375q0.109375 0.03125 0.296875 0.03125l0.390625 0q0.1875 0 0.3125 -0.046875q0.140625 -0.03125 0.203125 -0.109375q0.0625 -0.078125 0.0625 -0.1875q0 -0.09375 -0.0625 -0.140625q-0.046875 -0.046875 -0.203125 -0.046875l-1.078125 0l0.015625 -0.03125q-0.15625 -0.03125 -0.265625 -0.09375q-0.109375 -0.0625 -0.15625 -0.140625q-0.046875 -0.09375 -0.046875 -0.21875q0 -0.125 0.0625 -0.21875q0.0625 -0.109375 0.1875 -0.1875q0.125 -0.078125 0.296875 -0.15625l0.15625 0.09375q-0.078125 0.046875 -0.140625 0.09375q-0.046875 0.046875 -0.078125 0.09375q-0.03125 0.046875 -0.03125 0.109375q0 0.078125 0.0625 0.125q0.0625 0.03125 0.203125 0.03125l0.84375 0q0.25 0 0.40625 0.0625q0.15625 0.046875 0.234375 0.171875q0.09375 0.125 0.09375 0.328125q0 0.25 -0.140625 0.40625q-0.140625 0.171875 -0.375 0.25q-0.234375 0.09375 -0.546875 0.09375l-0.484375 0zm3.4957123 -3.15625l0 0.546875q-0.03125 0 -0.078125 0q-0.046875 -0.015625 -0.109375 -0.015625q-0.046875 0 -0.09375 0q-0.109375 0 -0.1875 0.015625q-0.078125 0.015625 -0.15625 0.046875q-0.0625 0.03125 -0.125 0.09375q-0.0625 0.046875 -0.109375 0.109375l-0.015625 -0.15625q0.09375 -0.21875 0.1875 -0.359375q0.109375 -0.15625 0.234375 -0.234375q0.125 -0.078125 0.296875 -0.078125q0.046875 0 0.09375 0.015625q0.046875 0 0.0625 0.015625zm-1.65625 2.171875l0 -0.234375l0.015625 0q0.125 0 0.1875 -0.046875q0.078125 -0.046875 0.078125 -0.171875l0 -1.28125q0 -0.046875 -0.03125 -0.0625q-0.015625 -0.03125 -0.078125 -0.046875q-0.046875 -0.015625 -0.125 -0.03125l-0.046875 -0.015625l0 -0.265625l0.796875 0l0.046875 0.59375l0.03125 -0.015625l0 1.265625q0 0.03125 0.046875 0.046875q0.046875 0.015625 0.109375 0.03125q0.0625 0 0.125 0l0.0625 0l0 0.234375l-1.21875 0zm2.4893494 -1.0625q0 0.21875 0.03125 0.375q0.046875 0.15625 0.125 0.25q0.09375 0.09375 0.203125 0.140625q0.125 0.03125 0.28125 0.03125q0.15625 0 0.265625 -0.046875q0.109375 -0.046875 0.1875 -0.125q0.09375 -0.09375 0.15625 -0.203125l0.25 0.1875q-0.09375 0.15625 -0.21875 0.265625q-0.125 0.109375 -0.3125 0.171875q-0.171875 0.0625 -0.390625 0.0625q-0.359375 0 -0.625 -0.125q-0.25 -0.125 -0.40625 -0.375q-0.140625 -0.25 -0.140625 -0.609375q0 -0.34375 0.140625 -0.59375q0.140625 -0.265625 0.375 -0.40625q0.25 -0.140625 0.578125 -0.140625q0.265625 0 0.453125 0.078125q0.1875 0.078125 0.296875 0.234375q0.125 0.15625 0.1875 0.390625q0.078125 0.234375 0.078125 0.546875l-1.65625 0l0 -0.28125l1.1875 0l-0.09375 0.109375q0 -0.21875 -0.03125 -0.375q-0.03125 -0.15625 -0.078125 -0.234375q-0.046875 -0.09375 -0.140625 -0.125q-0.078125 -0.046875 -0.203125 -0.046875q-0.109375 0 -0.203125 0.046875q-0.09375 0.046875 -0.171875 0.15625q-0.0625 0.09375 -0.09375 0.25q-0.03125 0.15625 -0.03125 0.390625zm2.4159698 0q0 0.21875 0.03125 0.375q0.046875 0.15625 0.125 0.25q0.09375 0.09375 0.203125 0.140625q0.125 0.03125 0.28125 0.03125q0.15625 0 0.265625 -0.046875q0.109375 -0.046875 0.1875 -0.125q0.09375 -0.09375 0.15625 -0.203125l0.25 0.1875q-0.09375 0.15625 -0.21875 0.265625q-0.125 0.109375 -0.3125 0.171875q-0.171875 0.0625 -0.390625 0.0625q-0.359375 0 -0.625 -0.125q-0.25 -0.125 -0.40625 -0.375q-0.140625 -0.25 -0.140625 -0.609375q0 -0.34375 0.140625 -0.59375q0.140625 -0.265625 0.375 -0.40625q0.25 -0.140625 0.578125 -0.140625q0.265625 0 0.453125 0.078125q0.1875 0.078125 0.296875 0.234375q0.125 0.15625 0.1875 0.390625q0.078125 0.234375 0.078125 0.546875l-1.65625 0l0 -0.28125l1.1875 0l-0.09375 0.109375q0 -0.21875 -0.03125 -0.375q-0.03125 -0.15625 -0.078125 -0.234375q-0.046875 -0.09375 -0.140625 -0.125q-0.078125 -0.046875 -0.203125 -0.046875q-0.109375 0 -0.203125 0.046875q-0.09375 0.046875 -0.171875 0.15625q-0.0625 0.09375 -0.09375 0.25q-0.03125 0.15625 -0.03125 0.390625zm4.056595 0.65625q0 0.078125 0.0625 0.109375q0.078125 0.015625 0.1875 0.03125l0.03125 0l0 0.265625l-0.78125 0l-0.046875 -0.484375l-0.03125 0.03125l0 -2.15625q0 -0.046875 -0.03125 -0.0625q-0.03125 -0.03125 -0.09375 -0.046875q-0.046875 -0.03125 -0.125 -0.046875l-0.03125 0l0 -0.265625l0.859375 0l0 2.625zm-1.25 -1.796875q0.1875 0 0.328125 0.078125q0.15625 0.0625 0.265625 0.1875q0.109375 0.125 0.203125 0.3125l-0.015625 0.28125q-0.09375 -0.171875 -0.203125 -0.28125q-0.09375 -0.125 -0.203125 -0.171875q-0.09375 -0.0625 -0.234375 -0.0625q-0.125 0 -0.234375 0.0625q-0.09375 0.046875 -0.15625 0.15625q-0.0625 0.09375 -0.09375 0.25q-0.03125 0.140625 -0.03125 0.328125q0 0.1875 0.03125 0.34375q0.03125 0.140625 0.078125 0.234375q0.0625 0.09375 0.15625 0.140625q0.09375 0.046875 0.21875 0.046875q0.140625 0 0.25 -0.046875q0.109375 -0.0625 0.203125 -0.1875q0.109375 -0.125 0.21875 -0.3125l0.015625 0.28125q-0.109375 0.1875 -0.21875 0.328125q-0.109375 0.140625 -0.265625 0.21875q-0.15625 0.0625 -0.34375 0.0625q-0.3125 0 -0.515625 -0.140625q-0.203125 -0.140625 -0.328125 -0.390625q-0.109375 -0.25 -0.109375 -0.578125q0 -0.328125 0.125 -0.578125q0.125 -0.265625 0.34375 -0.40625q0.21875 -0.15625 0.515625 -0.15625zm2.3108368 -0.28125q-0.15625 0 -0.25 -0.078125q-0.09375 -0.078125 -0.09375 -0.234375q0 -0.15625 0.09375 -0.234375q0.09375 -0.078125 0.25 -0.078125q0.171875 0 0.265625 0.078125q0.09375 0.078125 0.09375 0.234375q0 0.15625 -0.09375 0.234375q-0.09375 0.078125 -0.265625 0.078125zm0.328125 0.328125l0 1.71875q0 0.125 0.0625 0.171875q0.078125 0.03125 0.203125 0.03125l0 0l0 0.234375l-1.140625 0l0 -0.234375l0.015625 0q0.125 0 0.1875 -0.03125q0.078125 -0.046875 0.078125 -0.171875l0 -1.296875q0 -0.0625 -0.0625 -0.09375q-0.0625 -0.03125 -0.171875 -0.046875l-0.046875 -0.015625l0 -0.265625l0.875 0zm1.3411102 0l0 1.53125q0 0.09375 0.015625 0.171875q0.03125 0.0625 0.09375 0.109375q0.0625 0.03125 0.15625 0.03125q0.109375 0 0.203125 -0.046875q0.109375 -0.0625 0.203125 -0.171875q0.109375 -0.109375 0.21875 -0.265625l-0.015625 0.28125q-0.09375 0.171875 -0.234375 0.296875q-0.125 0.125 -0.28125 0.203125q-0.140625 0.0625 -0.3125 0.0625q-0.203125 0 -0.34375 -0.078125q-0.140625 -0.078125 -0.21875 -0.21875q-0.078125 -0.140625 -0.078125 -0.34375l0 -1.140625q0 -0.0625 -0.0625 -0.09375q-0.046875 -0.03125 -0.171875 -0.046875l-0.046875 -0.015625l0 -0.265625l0.875 0zm1.390625 0l0 1.75q0 0.046875 0.015625 0.078125q0.03125 0.015625 0.09375 0.03125q0.0625 0.015625 0.140625 0.03125l0.015625 0l0 0.265625l-0.78125 0l-0.046875 -0.484375l-0.03125 -0.03125l0 -1.21875q0 -0.0625 -0.078125 -0.09375q-0.0625 -0.046875 -0.1875 -0.046875l-0.078125 -0.015625l0 -0.265625l0.9375 0zm0.5092163 2.15625l0 -0.234375l0.015625 0q0.125 0 0.1875 -0.046875q0.078125 -0.046875 0.078125 -0.171875l0 -1.28125q0 -0.046875 -0.03125 -0.0625q-0.015625 -0.03125 -0.078125 -0.046875q-0.046875 -0.015625 -0.125 -0.03125l-0.046875 -0.015625l0 -0.265625l0.796875 0l0.046875 0.484375l0.03125 0.015625l0 1.375q0 0.015625 0.03125 0.03125q0.03125 0 0.078125 0.015625q0.046875 0 0.09375 0l0.015625 0l0 0.234375l-1.09375 0zm2.40625 0l-1.03125 0l0 -0.234375l0.015625 0q0.046875 0 0.09375 0q0.046875 -0.015625 0.078125 -0.015625q0.03125 -0.015625 0.03125 -0.03125l0 -1.25q0 -0.09375 -0.015625 -0.15625q-0.015625 -0.078125 -0.078125 -0.109375q-0.046875 -0.046875 -0.140625 -0.046875q-0.09375 0 -0.1875 0.0625q-0.09375 0.046875 -0.1875 0.15625q-0.09375 0.09375 -0.203125 0.25l0 -0.28125q0.109375 -0.171875 0.21875 -0.28125q0.125 -0.125 0.265625 -0.1875q0.15625 -0.078125 0.328125 -0.078125q0.1875 0 0.3125 0.078125q0.140625 0.0625 0.203125 0.21875q0.078125 0.140625 0.078125 0.34375l0 1.28125q0 0.015625 0.03125 0.03125q0.046875 0 0.09375 0.015625q0.046875 0 0.09375 0l0 0l0 0.234375zm1.375 0l-1.078125 0l0 -0.234375l0 0q0.046875 0 0.09375 0q0.046875 -0.015625 0.078125 -0.015625q0.046875 -0.015625 0.046875 -0.03125l0 -1.25q0 -0.09375 -0.03125 -0.15625q-0.015625 -0.078125 -0.0625 -0.109375q-0.046875 -0.046875 -0.140625 -0.046875q-0.109375 0 -0.203125 0.0625q-0.09375 0.046875 -0.1875 0.15625q-0.09375 0.09375 -0.203125 0.25l0.015625 -0.28125q0.09375 -0.171875 0.21875 -0.28125q0.125 -0.125 0.265625 -0.1875q0.140625 -0.078125 0.3125 -0.078125q0.1875 0 0.3125 0.078125q0.140625 0.0625 0.203125 0.21875q0.078125 0.140625 0.078125 0.34375l0 1.109375q0 0.125 0.078125 0.171875q0.078125 0.046875 0.1875 0.046875l0.015625 0l0 0.234375z" fill-rule="nonzero"/><path fill="#000000" fill-opacity="0.0" d="m17.98491 36.404526l47.590553 0l0 24.251972l-47.590553 0z" fill-rule="evenodd"/><path fill="#000000" d="m18.500534 47.963276l0.625 1.28125l0.796875 0l0 -0.28125l-0.03125 0q-0.0625 0 -0.125 0q-0.046875 -0.015625 -0.09375 -0.046875q-0.046875 -0.046875 -0.09375 -0.125l-0.515625 -0.953125l-0.5625 0.125zm-0.40625 0.96875l0 -2.234375l0.421875 0q0.171875 0 0.265625 0.0625q0.109375 0.0625 0.15625 0.171875q0.0625 0.109375 0.0625 0.28125q0 0.1875 -0.0625 0.3125q-0.046875 0.125 -0.15625 0.203125q-0.109375 0.0625 -0.28125 0.0625l-0.484375 0l0 0.28125l0.609375 0q0.03125 0 0.0625 -0.015625q0.03125 -0.015625 0.046875 -0.015625q0.03125 -0.015625 0.0625 -0.03125q0.265625 -0.046875 0.453125 -0.15625q0.1875 -0.109375 0.28125 -0.265625q0.109375 -0.171875 0.109375 -0.390625q0 -0.25 -0.125 -0.421875q-0.125 -0.1875 -0.359375 -0.28125q-0.21875 -0.09375 -0.5625 -0.09375l-1.4375 0l0 0.28125l0.046875 0q0.125 0 0.1875 0.03125q0.078125 0.015625 0.078125 0.109375l0 2.0q0 0.09375 -0.078125 0.125q-0.0625 0.015625 -0.1875 0.015625l-0.046875 0l0 0.28125l1.28125 0l0 -0.28125l-0.0625 0q-0.046875 0 -0.109375 0q-0.046875 0 -0.09375 0q-0.03125 -0.015625 -0.0625 -0.015625q-0.015625 0 -0.015625 -0.015625zm4.9942017 -1.640625l0 0.390625l-1.78125 0l0 -0.390625l1.78125 0zm0 0.859375l0 0.390625l-1.78125 0l0 -0.390625l1.78125 0zm2.7799683 -0.1875l0.625 1.28125l0.796875 0l0 -0.28125l-0.03125 0q-0.0625 0 -0.125 0q-0.046875 -0.015625 -0.09375 -0.046875q-0.046875 -0.046875 -0.09375 -0.125l-0.515625 -0.953125l-0.5625 0.125zm-0.40625 0.96875l0 -2.234375l0.421875 0q0.171875 0 0.265625 0.0625q0.109375 0.0625 0.15625 0.171875q0.0625 0.109375 0.0625 0.28125q0 0.1875 -0.0625 0.3125q-0.046875 0.125 -0.15625 0.203125q-0.109375 0.0625 -0.28125 0.0625l-0.484375 0l0 0.28125l0.609375 0q0.03125 0 0.0625 -0.015625q0.03125 -0.015625 0.046875 -0.015625q0.03125 -0.015625 0.0625 -0.03125q0.265625 -0.046875 0.453125 -0.15625q0.1875 -0.109375 0.28125 -0.265625q0.109375 -0.171875 0.109375 -0.390625q0 -0.25 -0.125 -0.421875q-0.125 -0.1875 -0.359375 -0.28125q-0.21875 -0.09375 -0.5625 -0.09375l-1.4375 0l0 0.28125l0.046875 0q0.125 0 0.1875 0.03125q0.078125 0.015625 0.078125 0.109375l0 2.0q0 0.09375 -0.078125 0.125q-0.0625 0.015625 -0.1875 0.015625l-0.046875 0l0 0.28125l1.28125 0l0 -0.28125l-0.0625 0q-0.046875 0 -0.109375 0q-0.046875 0 -0.09375 0q-0.03125 -0.015625 -0.0625 -0.015625q-0.015625 0 -0.015625 -0.015625zm3.4887085 -1.0l0 0.25q-0.203125 0.03125 -0.34375 0.078125q-0.140625 0.03125 -0.25 0.078125q-0.09375 0.046875 -0.140625 0.109375q-0.046875 0.046875 -0.078125 0.109375q-0.015625 0.0625 -0.015625 0.140625q0 0.109375 0.03125 0.171875q0.03125 0.0625 0.09375 0.09375q0.078125 0.03125 0.171875 0.03125q0.109375 0 0.1875 -0.046875q0.09375 -0.046875 0.171875 -0.140625q0.078125 -0.09375 0.171875 -0.25l0.015625 0.21875q-0.078125 0.171875 -0.1875 0.28125q-0.109375 0.109375 -0.25 0.171875q-0.125 0.0625 -0.296875 0.0625q-0.203125 0 -0.359375 -0.0625q-0.15625 -0.0625 -0.234375 -0.1875q-0.078125 -0.140625 -0.078125 -0.328125q0 -0.15625 0.078125 -0.28125q0.078125 -0.125 0.234375 -0.21875q0.171875 -0.09375 0.4375 -0.15625q0.265625 -0.0625 0.640625 -0.125zm0 1.3125l-0.046875 -0.453125l-0.015625 0l0 -1.125q0 -0.109375 -0.03125 -0.171875q-0.03125 -0.078125 -0.109375 -0.109375q-0.078125 -0.046875 -0.21875 -0.046875q-0.203125 0 -0.34375 0.0625q-0.125 0.0625 -0.1875 0.125q-0.015625 -0.03125 -0.015625 -0.0625q0 -0.03125 0.015625 -0.0625q0.03125 -0.03125 0.078125 -0.046875q0.046875 -0.03125 0.109375 -0.03125l0 0.46875l-0.5 0l0 -0.5q0.0625 -0.046875 0.171875 -0.09375q0.125 -0.0625 0.296875 -0.109375q0.1875 -0.046875 0.421875 -0.046875q0.203125 0 0.359375 0.046875q0.171875 0.03125 0.28125 0.109375q0.109375 0.078125 0.171875 0.203125q0.078125 0.125 0.078125 0.296875l0 1.140625q0 0.046875 0.015625 0.078125q0.03125 0.015625 0.09375 0.03125q0.0625 0.015625 0.140625 0.03125l0.015625 0l0 0.265625l-0.78125 0zm3.2284698 -0.40625q0 0.078125 0.0625 0.109375q0.078125 0.015625 0.1875 0.03125l0.03125 0l0 0.265625l-0.78125 0l-0.046875 -0.484375l-0.03125 0.03125l0 -2.15625q0 -0.046875 -0.03125 -0.0625q-0.03125 -0.03125 -0.09375 -0.046875q-0.046875 -0.03125 -0.125 -0.046875l-0.03125 0l0 -0.265625l0.859375 0l0 2.625zm-1.25 -1.796875q0.1875 0 0.328125 0.078125q0.15625 0.0625 0.265625 0.1875q0.109375 0.125 0.203125 0.3125l-0.015625 0.28125q-0.09375 -0.171875 -0.203125 -0.28125q-0.09375 -0.125 -0.203125 -0.171875q-0.09375 -0.0625 -0.234375 -0.0625q-0.125 0 -0.234375 0.0625q-0.09375 0.046875 -0.15625 0.15625q-0.0625 0.09375 -0.09375 0.25q-0.03125 0.140625 -0.03125 0.328125q0 0.1875 0.03125 0.34375q0.03125 0.140625 0.078125 0.234375q0.0625 0.09375 0.15625 0.140625q0.09375 0.046875 0.21875 0.046875q0.140625 0 0.25 -0.046875q0.109375 -0.0625 0.203125 -0.1875q0.109375 -0.125 0.21875 -0.3125l0.015625 0.28125q-0.109375 0.1875 -0.21875 0.328125q-0.109375 0.140625 -0.265625 0.21875q-0.15625 0.0625 -0.34375 0.0625q-0.3125 0 -0.515625 -0.140625q-0.203125 -0.140625 -0.328125 -0.390625q-0.109375 -0.25 -0.109375 -0.578125q0 -0.328125 0.125 -0.578125q0.125 -0.265625 0.34375 -0.40625q0.21875 -0.15625 0.515625 -0.15625zm2.3108368 -0.28125q-0.15625 0 -0.25 -0.078125q-0.09375 -0.078125 -0.09375 -0.234375q0 -0.15625 0.09375 -0.234375q0.09375 -0.078125 0.25 -0.078125q0.171875 0 0.265625 0.078125q0.09375 0.078125 0.09375 0.234375q0 0.15625 -0.09375 0.234375q-0.09375 0.078125 -0.265625 0.078125zm0.328125 0.328125l0 1.71875q0 0.125 0.0625 0.171875q0.078125 0.03125 0.203125 0.03125l0 0l0 0.234375l-1.140625 0l0 -0.234375l0.015625 0q0.125 0 0.1875 -0.03125q0.078125 -0.046875 0.078125 -0.171875l0 -1.296875q0 -0.0625 -0.0625 -0.09375q-0.0625 -0.03125 -0.171875 -0.046875l-0.046875 -0.015625l0 -0.265625l0.875 0zm1.7786102 1.890625q0.140625 0 0.25 -0.046875q0.125 -0.0625 0.203125 -0.15625q0.078125 -0.09375 0.140625 -0.1875l0.234375 0.15625q-0.078125 0.171875 -0.203125 0.296875q-0.125 0.109375 -0.3125 0.1875q-0.171875 0.0625 -0.390625 0.0625q-0.359375 0 -0.625 -0.125q-0.25 -0.140625 -0.40625 -0.390625q-0.140625 -0.25 -0.140625 -0.609375q0 -0.359375 0.140625 -0.609375q0.15625 -0.25 0.40625 -0.375q0.265625 -0.140625 0.640625 -0.140625q0.21875 0 0.390625 0.046875q0.171875 0.03125 0.28125 0.078125q0.109375 0.03125 0.15625 0.0625l0 0.65625l-0.484375 0l0 -0.5625q0.046875 0 0.078125 0.03125q0.03125 0.015625 0.046875 0.046875q0.03125 0.03125 0.03125 0.0625q0 0.03125 0 0.0625q-0.078125 -0.078125 -0.203125 -0.125q-0.109375 -0.046875 -0.265625 -0.046875q-0.21875 0 -0.359375 0.09375q-0.125 0.09375 -0.1875 0.28125q-0.0625 0.171875 -0.0625 0.4375q0 0.203125 0.03125 0.359375q0.046875 0.15625 0.125 0.265625q0.078125 0.09375 0.1875 0.140625q0.125 0.046875 0.296875 0.046875zm2.5398407 -1.046875l0 0.25q-0.203125 0.03125 -0.34375 0.078125q-0.140625 0.03125 -0.25 0.078125q-0.09375 0.046875 -0.140625 0.109375q-0.046875 0.046875 -0.078125 0.109375q-0.015625 0.0625 -0.015625 0.140625q0 0.109375 0.03125 0.171875q0.03125 0.0625 0.09375 0.09375q0.078125 0.03125 0.171875 0.03125q0.109375 0 0.1875 -0.046875q0.09375 -0.046875 0.171875 -0.140625q0.078125 -0.09375 0.171875 -0.25l0.015625 0.21875q-0.078125 0.171875 -0.1875 0.28125q-0.109375 0.109375 -0.25 0.171875q-0.125 0.0625 -0.296875 0.0625q-0.203125 0 -0.359375 -0.0625q-0.15625 -0.0625 -0.234375 -0.1875q-0.078125 -0.140625 -0.078125 -0.328125q0 -0.15625 0.078125 -0.28125q0.078125 -0.125 0.234375 -0.21875q0.171875 -0.09375 0.4375 -0.15625q0.265625 -0.0625 0.640625 -0.125zm0 1.3125l-0.046875 -0.453125l-0.015625 0l0 -1.125q0 -0.109375 -0.03125 -0.171875q-0.03125 -0.078125 -0.109375 -0.109375q-0.078125 -0.046875 -0.21875 -0.046875q-0.203125 0 -0.34375 0.0625q-0.125 0.0625 -0.1875 0.125q-0.015625 -0.03125 -0.015625 -0.0625q0 -0.03125 0.015625 -0.0625q0.03125 -0.03125 0.078125 -0.046875q0.046875 -0.03125 0.109375 -0.03125l0 0.46875l-0.5 0l0 -0.5q0.0625 -0.046875 0.171875 -0.09375q0.125 -0.0625 0.296875 -0.109375q0.1875 -0.046875 0.421875 -0.046875q0.203125 0 0.359375 0.046875q0.171875 0.03125 0.28125 0.109375q0.109375 0.078125 0.171875 0.203125q0.078125 0.125 0.078125 0.296875l0 1.140625q0 0.046875 0.015625 0.078125q0.03125 0.015625 0.09375 0.03125q0.0625 0.015625 0.140625 0.03125l0.015625 0l0 0.265625l-0.78125 0zm1.8774719 -3.03125l0 2.59375q0 0.125 0.0625 0.171875q0.078125 0.03125 0.203125 0.03125l0.015625 0l0 0.234375l-1.140625 0l0 -0.234375l0 0q0.125 0 0.1875 -0.03125q0.078125 -0.046875 0.078125 -0.171875l0 -2.171875q0 -0.046875 -0.03125 -0.078125q-0.015625 -0.03125 -0.078125 -0.046875q-0.046875 -0.015625 -0.125 -0.03125l-0.046875 0l0 -0.265625l0.875 0zm1.0558624 0.546875q-0.15625 0 -0.25 -0.078125q-0.09375 -0.078125 -0.09375 -0.234375q0 -0.15625 0.09375 -0.234375q0.09375 -0.078125 0.25 -0.078125q0.171875 0 0.265625 0.078125q0.09375 0.078125 0.09375 0.234375q0 0.15625 -0.09375 0.234375q-0.09375 0.078125 -0.265625 0.078125zm0.328125 0.328125l0 1.71875q0 0.125 0.0625 0.171875q0.078125 0.03125 0.203125 0.03125l0 0l0 0.234375l-1.140625 0l0 -0.234375l0.015625 0q0.125 0 0.1875 -0.03125q0.078125 -0.046875 0.078125 -0.171875l0 -1.296875q0 -0.0625 -0.0625 -0.09375q-0.0625 -0.03125 -0.171875 -0.046875l-0.046875 -0.015625l0 -0.265625l0.875 0zm1.3411102 0l0 1.53125q0 0.09375 0.015625 0.171875q0.03125 0.0625 0.09375 0.109375q0.0625 0.03125 0.15625 0.03125q0.109375 0 0.203125 -0.046875q0.109375 -0.0625 0.203125 -0.171875q0.109375 -0.109375 0.21875 -0.265625l-0.015625 0.28125q-0.09375 0.171875 -0.234375 0.296875q-0.125 0.125 -0.28125 0.203125q-0.140625 0.0625 -0.3125 0.0625q-0.203125 0 -0.34375 -0.078125q-0.140625 -0.078125 -0.21875 -0.21875q-0.078125 -0.140625 -0.078125 -0.34375l0 -1.140625q0 -0.0625 -0.0625 -0.09375q-0.046875 -0.03125 -0.171875 -0.046875l-0.046875 -0.015625l0 -0.265625l0.875 0zm1.390625 0l0 1.75q0 0.046875 0.015625 0.078125q0.03125 0.015625 0.09375 0.03125q0.0625 0.015625 0.140625 0.03125l0.015625 0l0 0.265625l-0.78125 0l-0.046875 -0.484375l-0.03125 -0.03125l0 -1.21875q0 -0.0625 -0.078125 -0.09375q-0.0625 -0.046875 -0.1875 -0.046875l-0.078125 -0.015625l0 -0.265625l0.9375 0zm0.5092163 2.15625l0 -0.234375l0.015625 0q0.125 0 0.1875 -0.046875q0.078125 -0.046875 0.078125 -0.171875l0 -1.28125q0 -0.046875 -0.03125 -0.0625q-0.015625 -0.03125 -0.078125 -0.046875q-0.046875 -0.015625 -0.125 -0.03125l-0.046875 -0.015625l0 -0.265625l0.796875 0l0.046875 0.484375l0.03125 0.015625l0 1.375q0 0.015625 0.03125 0.03125q0.03125 0 0.078125 0.015625q0.046875 0 0.09375 0l0.015625 0l0 0.234375l-1.09375 0zm2.40625 0l-1.03125 0l0 -0.234375l0.015625 0q0.046875 0 0.09375 0q0.046875 -0.015625 0.078125 -0.015625q0.03125 -0.015625 0.03125 -0.03125l0 -1.25q0 -0.09375 -0.015625 -0.15625q-0.015625 -0.078125 -0.078125 -0.109375q-0.046875 -0.046875 -0.140625 -0.046875q-0.09375 0 -0.1875 0.0625q-0.09375 0.046875 -0.1875 0.15625q-0.09375 0.09375 -0.203125 0.25l0 -0.28125q0.109375 -0.171875 0.21875 -0.28125q0.125 -0.125 0.265625 -0.1875q0.15625 -0.078125 0.328125 -0.078125q0.1875 0 0.3125 0.078125q0.140625 0.0625 0.203125 0.21875q0.078125 0.140625 0.078125 0.34375l0 1.28125q0 0.015625 0.03125 0.03125q0.046875 0 0.09375 0.015625q0.046875 0 0.09375 0l0 0l0 0.234375zm1.375 0l-1.078125 0l0 -0.234375l0 0q0.046875 0 0.09375 0q0.046875 -0.015625 0.078125 -0.015625q0.046875 -0.015625 0.046875 -0.03125l0 -1.25q0 -0.09375 -0.03125 -0.15625q-0.015625 -0.078125 -0.0625 -0.109375q-0.046875 -0.046875 -0.140625 -0.046875q-0.109375 0 -0.203125 0.0625q-0.09375 0.046875 -0.1875 0.15625q-0.09375 0.09375 -0.203125 0.25l0.015625 -0.28125q0.09375 -0.171875 0.21875 -0.28125q0.125 -0.125 0.265625 -0.1875q0.140625 -0.078125 0.3125 -0.078125q0.1875 0 0.3125 0.078125q0.140625 0.0625 0.203125 0.21875q0.078125 0.140625 0.078125 0.34375l0 1.109375q0 0.125 0.078125 0.171875q0.078125 0.046875 0.1875 0.046875l0.015625 0l0 0.234375z" fill-rule="nonzero"/></g></svg>