<svg version="1.1" viewBox="0.0 0.0 546.8845144356956 100.0" fill="none" stroke="none" stroke-linecap="square" stroke-miterlimit="10" xmlns:xlink="http://www.w3.org/1999/xlink" xmlns="http://www.w3.org/2000/svg"><clipPath id="p.0"><path d="m0 0l546.8845 0l0 100.0l-546.8845 0l0 -100.0z" clip-rule="nonzero"/></clipPath><g clip-path="url(#p.0)"><path fill="#000000" fill-opacity="0.0" d="m0 0l546.8845 0l0 100.0l-546.8845 0z" fill-rule="evenodd"/><path fill="#000000" fill-opacity="0.0" d="m5.89895 0.015748031l140.97638 0l0 100.0l-140.97638 0z" fill-rule="evenodd"/><path fill="#000000" d="m29.47811 47.61575l0 -28.640623l10.796873 0q2.84375 0 4.359375 0.28125q2.109375 0.34375 3.53125 1.34375q1.421875 0.984375 2.28125 2.765625q0.875 1.765625 0.875 3.890625q0 3.65625 -2.328125 6.187498q-2.3125 2.53125 -8.390625 2.53125l-7.34375 0l0 11.640625l-3.781248 0zm3.781248 -15.015625l7.40625 0q3.671875 0 5.203125 -1.3593731q1.546875 -1.375 1.546875 -3.859375q0 -1.796875 -0.90625 -3.078125q-0.90625 -1.28125 -2.390625 -1.6875q-0.953125 -0.25 -3.53125 -0.25l-7.328125 0l0 10.234373zm23.539062 15.015625l0 -28.640623l3.78125 0l0 28.640623l-3.78125 0zm10.425785 0l0 -28.640623l3.890625 0l15.03125 22.484373l0 -22.484373l3.640625 0l0 28.640623l-3.890625 0l-15.03125 -22.499998l0 22.499998l-3.640625 0zm42.32422 -11.234375l0 -3.359375l12.125 -0.015625l0 10.625q-2.78125 2.21875 -5.75 3.34375q-2.96875 1.125 -6.09375 1.125q-4.21875 0 -7.671875 -1.796875q-3.453125 -1.8125 -5.21875 -5.234375q-1.75 -3.421875 -1.75 -7.640625q0 -4.171873 1.75 -7.796873q1.75 -3.625 5.03125 -5.375q3.28125 -1.765625 7.5625 -1.765625q3.109375 0 5.609375 1.015625q2.515625 1.0 3.9375 2.796875q1.421875 1.796875 2.171875 4.6875l-3.421875 0.9375q-0.640625 -2.1875 -1.609375 -3.4375q-0.953125 -1.25 -2.734375 -2.0q-1.765625 -0.75 -3.9375 -0.75q-2.59375 0 -4.5 0.796875q-1.890625 0.78125 -3.046875 2.078125q-1.15625 1.28125 -1.8125 2.828125q-1.09375 2.65625 -1.09375 5.749998q0 3.828125 1.3125 6.40625q1.328125 2.578125 3.84375 3.828125q2.53125 1.25 5.359375 1.25q2.453125 0 4.796875 -0.9375q2.34375 -0.953125 3.5625 -2.03125l0 -5.328125l-8.421875 0zm15.863281 5.046875l3.4687576 -0.546875q0.296875 2.078125 1.625 3.203125q1.34375 1.109375 3.75 1.109375q2.421875 0 3.59375 -0.984375q1.171875 -0.984375 1.171875 -2.3125q0 -1.203125 -1.03125 -1.875q-0.71875 -0.46875 -3.59375 -1.203125q-3.875 -0.96875 -5.375 -1.671875q-1.4843826 -0.71875 -2.2656326 -1.984375q-0.765625 -1.265625 -0.765625 -2.78125q0 -1.3906231 0.640625 -2.562498q0.640625 -1.1875 1.7343826 -1.96875q0.8125 -0.609375 2.21875 -1.03125q1.421875 -0.421875 3.046875 -0.421875q2.4375 0 4.28125 0.703125q1.859375 0.703125 2.734375 1.90625q0.875 1.203125 1.203125 3.218748l-3.4375 0.46875q-0.234375 -1.6093731 -1.359375 -2.499998q-1.109375 -0.90625 -3.171875 -0.90625q-2.421875 0 -3.453125 0.8125q-1.03125 0.796875 -1.03125 1.875q0 0.6718731 0.421875 1.2187481q0.4375 0.578125 1.359375 0.9375q0.515625 0.203125 3.09375 0.90625q3.734375 1.0 5.203125 1.640625q1.484375 0.625 2.3125 1.84375q0.84375 1.203125 0.84375 3.0q0 1.75 -1.03125 3.3125q-1.015625 1.546875 -2.953125 2.40625q-1.921875 0.84375 -4.375 0.84375q-4.03125 0 -6.15625 -1.671875q-2.1250076 -1.6875 -2.7031326 -4.984375z" fill-rule="nonzero"/><path fill="#000000" d="m10.03475 89.65825l4.1875 -20.078125l2.28125 0l-0.421875 2.015625q1.28125 -1.328125 2.28125 -1.828125q1.0 -0.515625 2.125 -0.515625q2.078125 0 3.4375 1.515625q1.375 1.5 1.375 4.3125q0 2.28125 -0.75 4.140625q-0.75 1.859375 -1.84375 3.0q-1.09375 1.140625 -2.21875 1.671875q-1.125 0.53125 -2.296875 0.53125q-2.609375 0 -4.046875 -2.65625l-1.640625 7.890625l-2.46875 0zm4.890625 -11.5q0 1.625 0.234375 2.265625q0.34375 0.875 1.109375 1.421875q0.78125 0.546875 1.8125 0.546875q2.140625 0 3.453125 -2.390625q1.3125 -2.40625 1.3125 -4.90625q0 -1.84375 -0.890625 -2.84375q-0.875 -1.015625 -2.1875 -1.015625q-0.953125 0 -1.765625 0.5q-0.796875 0.5 -1.484375 1.5q-0.6875 0.984375 -1.140625 2.421875q-0.453125 1.4375 -0.453125 2.5zm22.556639 1.0l2.40625 0.25q-0.515625 1.78125 -2.390625 3.40625q-1.859375 1.609375 -4.4375 1.609375q-1.6249981 0 -2.968748 -0.734375q-1.34375 -0.75 -2.046875 -2.171875q-0.703125 -1.421875 -0.703125 -3.25q0 -2.375 1.09375 -4.609375q1.109375 -2.234375 2.859375 -3.3125q1.7499981 -1.09375 3.781248 -1.09375q2.59375 0 4.140625 1.609375q1.5625 1.609375 1.5625 4.40625q0 1.0625 -0.1875 2.1875l-10.703123 0q-0.046875 0.421875 -0.046875 0.765625q0 2.03125 0.9375 3.109375q0.9375 1.0625 2.281248 1.0625q1.28125 0 2.5 -0.828125q1.234375 -0.828125 1.921875 -2.40625zm-7.187498 -3.59375l8.140623 0q0.015625 -0.390625 0.015625 -0.546875q0 -1.859375 -0.9375 -2.84375q-0.921875 -1.0 -2.375 -1.0q-1.59375 0 -2.90625 1.09375q-1.2968731 1.09375 -1.9374981 3.296875zm12.103514 8.53125l3.03125 -14.515625l2.1875 0l-0.625 2.96875q1.125 -1.6875 2.203125 -2.484375q1.078125 -0.8125 2.1875 -0.8125q0.75 0 1.828125 0.53125l-1.015625 2.296875q-0.640625 -0.46875 -1.40625 -0.46875q-1.296875 0 -2.671875 1.453125q-1.359375 1.453125 -2.140625 5.203125l-1.234375 5.828125l-2.34375 0zm15.884766 5.5625l4.1875 -20.078125l2.2812538 0l-0.421875 2.015625q1.28125 -1.328125 2.28125 -1.828125q1.0 -0.515625 2.125 -0.515625q2.078125 0 3.4375 1.515625q1.375 1.5 1.375 4.3125q0 2.28125 -0.75 4.140625q-0.75 1.859375 -1.84375 3.0q-1.09375 1.140625 -2.21875 1.671875q-1.125 0.53125 -2.296875 0.53125q-2.6093788 0 -4.046879 -2.65625l-1.640625 7.890625l-2.46875 0zm4.890625 -11.5q0 1.625 0.234375 2.265625q0.34375 0.875 1.1093788 1.421875q0.78125 0.546875 1.8125 0.546875q2.140625 0 3.453125 -2.390625q1.3125 -2.40625 1.3125 -4.90625q0 -1.84375 -0.890625 -2.84375q-0.875 -1.015625 -2.1875 -1.015625q-0.953125 0 -1.765625 0.5q-0.796875 0.5 -1.484375 1.5q-0.6875 0.984375 -1.1406288 2.421875q-0.453125 1.4375 -0.453125 2.5zm22.556644 1.0l2.40625 0.25q-0.515625 1.78125 -2.390625 3.40625q-1.859375 1.609375 -4.4375 1.609375q-1.625 0 -2.96875 -0.734375q-1.34375 -0.75 -2.046875 -2.171875q-0.703125 -1.421875 -0.703125 -3.25q0 -2.375 1.09375 -4.609375q1.109375 -2.234375 2.859375 -3.3125q1.75 -1.09375 3.78125 -1.09375q2.59375 0 4.140625 1.609375q1.5625 1.609375 1.5625 4.40625q0 1.0625 -0.1875 2.1875l-10.703125 0q-0.046875 0.421875 -0.046875 0.765625q0 2.03125 0.9375 3.109375q0.9375 1.0625 2.28125 1.0625q1.28125 0 2.5 -0.828125q1.234375 -0.828125 1.921875 -2.40625zm-7.1875 -3.59375l8.140625 0q0.015625 -0.390625 0.015625 -0.546875q0 -1.859375 -0.9375 -2.84375q-0.921875 -1.0 -2.375 -1.0q-1.59375 0 -2.90625 1.09375q-1.296875 1.09375 -1.9375 3.296875zm12.103516 8.53125l3.03125 -14.515625l2.1875 0l-0.625 2.96875q1.125 -1.6875 2.203125 -2.484375q1.078125 -0.8125 2.1875 -0.8125q0.75 0 1.828125 0.53125l-1.015625 2.296875q-0.640625 -0.46875 -1.40625 -0.46875q-1.296875 0 -2.671875 1.453125q-1.359375 1.453125 -2.140625 5.203125l-1.234375 5.828125l-2.34375 0zm9.542969 -4.96875l2.484375 -0.140625q0 1.0625 0.328125 1.8125q0.328125 0.75 1.203125 1.234375q0.890625 0.46875 2.0625 0.46875q1.640625 0 2.453125 -0.65625q0.828125 -0.65625 0.828125 -1.53125q0 -0.65625 -0.5 -1.21875q-0.5 -0.578125 -2.46875 -1.421875q-1.953125 -0.84375 -2.5 -1.1875q-0.921875 -0.546875 -1.390625 -1.3125q-0.453125 -0.765625 -0.453125 -1.75q0 -1.71875 1.359375 -2.9375q1.375 -1.234375 3.828125 -1.234375q2.734375 0 4.15625 1.265625q1.4375 1.265625 1.5 3.328125l-2.421875 0.15625q-0.0625 -1.3125 -0.9375 -2.078125q-0.875 -0.765625 -2.46875 -0.765625q-1.28125 0 -2.0 0.59375q-0.703125 0.578125 -0.703125 1.265625q0 0.6875 0.609375 1.203125q0.40625 0.359375 2.125 1.09375q2.84375 1.234375 3.578125 1.9375q1.171875 1.140625 1.171875 2.765625q0 1.078125 -0.671875 2.125q-0.65625 1.03125 -2.015625 1.65625q-1.359375 0.625 -3.203125 0.625q-2.515625 0 -4.28125 -1.25q-1.765625 -1.234375 -1.671875 -4.046875zm14.21875 -0.546875q0 -4.25 2.5 -7.03125q2.0625 -2.296875 5.40625 -2.296875q2.625 0 4.234375 1.640625q1.6093826 1.640625 1.6093826 4.421875q0 2.5 -1.0156326 4.65625q-1.015625 2.15625 -2.890625 3.3125q-1.859375 1.140625 -3.921875 1.140625q-1.6875 0 -3.078125 -0.71875q-1.390625 -0.734375 -2.125 -2.0625q-0.71875 -1.328125 -0.71875 -3.0625zm2.46875 -0.234375q0 2.046875 0.984375 3.109375q0.984375 1.046875 2.5 1.046875q0.796875 0 1.578125 -0.3125q0.78125 -0.328125 1.4375 -0.984375q0.671875 -0.65625 1.140625 -1.484375q0.484375 -0.84375 0.765625 -1.8125q0.421875 -1.359375 0.421875 -2.609375q0 -1.96875 -1.0 -3.046875q-0.984375 -1.09375 -2.484375 -1.09375q-1.15625 0 -2.125 0.5625q-0.953125 0.546875 -1.734375 1.625q-0.765625 1.0625 -1.125 2.484375q-0.359375 1.40625 -0.359375 2.515625zm12.666023 5.75l3.03125 -14.515625l2.234375 0l-0.53125 2.53125q1.46875 -1.5 2.734375 -2.171875q1.28125 -0.6875 2.59375 -0.6875q1.765625 0 2.765625 0.953125q1.015625 0.953125 1.015625 2.5625q0 0.796875 -0.359375 2.53125l-1.84375 8.796875l-2.46875 0l1.921875 -9.203125q0.28125 -1.34375 0.28125 -1.984375q0 -0.71875 -0.5 -1.171875q-0.484375 -0.453125 -1.4375 -0.453125q-1.890625 0 -3.375 1.375q-1.484375 1.359375 -2.1875 4.6875l-1.40625 6.75l-2.46875 0z" fill-rule="nonzero"/><path fill="#000000" fill-opacity="0.0" d="m400.0092 0l140.97635 0l0 100.0l-140.97635 0z" fill-rule="evenodd"/><path fill="#000000" d="m404.9498 47.600002l0 -28.640625l12.703125 0q3.828125 0 5.8125 0.78125q2.0 0.765625 3.1875 2.71875q1.1875 1.953125 1.1875 4.3125q0 3.046875 -1.96875 5.140625q-1.96875 2.09375 -6.09375 2.65625q1.5 0.71875 2.28125 1.421875q1.671875 1.53125 3.15625 3.8125l4.96875 7.796875l-4.765625 0l-3.78125 -5.953125q-1.65625 -2.578125 -2.734375 -3.9375q-1.078125 -1.375 -1.9375 -1.921875q-0.84375 -0.546875 -1.71875 -0.765625q-0.640625 -0.140625 -2.109375 -0.140625l-4.390625 0l0 12.71875l-3.796875 0zm3.796875 -16.0l8.140625 0q2.59375 0 4.0625 -0.53125q1.46875 -0.546875 2.21875 -1.71875q0.765625 -1.1875 0.765625 -2.578125q0 -2.03125 -1.46875 -3.328125q-1.46875 -1.3125 -4.65625 -1.3125l-9.0625 0l0 9.46875zm21.886719 16.0l11.0 -28.640625l4.078125 0l11.71875 28.640625l-4.3125 0l-3.34375 -8.671875l-11.96875 0l-3.140625 8.671875l-4.03125 0zm8.265625 -11.765625l9.703125 0l-2.984375 -7.921875q-1.359375 -3.609375 -2.03125 -5.9375q-0.546875 2.75 -1.546875 5.46875l-3.140625 8.390625zm21.570312 11.765625l0 -28.640625l9.8594055 0q3.34375 0 5.09375 0.421875q2.46875 0.5625 4.203125 2.046875q2.265625 1.90625 3.390625 4.890625q1.125 2.984375 1.125 6.8125q0 3.25 -0.765625 5.78125q-0.765625 2.515625 -1.953125 4.171875q-1.1875 1.640625 -2.609375 2.59375q-1.421875 0.9375 -3.421875 1.4375q-2.0 0.484375 -4.59375 0.484375l-10.3281555 0zm3.7812805 -3.375l6.109375 0q2.84375 0 4.453125 -0.53125q1.609375 -0.53125 2.5625 -1.484375q1.34375 -1.34375 2.09375 -3.625q0.765625 -2.28125 0.765625 -5.515625q0 -4.5 -1.484375 -6.90625q-1.46875 -2.40625 -3.578125 -3.234375q-1.53125 -0.578125 -4.90625 -0.578125l-6.015625 0l0 21.875zm23.246094 -2.8125l3.46875 -0.546875q0.296875 2.078125 1.625 3.203125q1.34375 1.109375 3.75 1.109375q2.421875 0 3.59375 -0.984375q1.171875 -0.984375 1.171875 -2.3125q0 -1.203125 -1.03125 -1.875q-0.71875 -0.46875 -3.59375 -1.203125q-3.875 -0.96875 -5.375 -1.671875q-1.484375 -0.71875 -2.265625 -1.984375q-0.765625 -1.265625 -0.765625 -2.78125q0 -1.390625 0.640625 -2.5625q0.640625 -1.1875 1.734375 -1.96875q0.8125 -0.609375 2.21875 -1.03125q1.421875 -0.421875 3.046875 -0.421875q2.4375 0 4.28125 0.703125q1.859375 0.703125 2.734375 1.90625q0.875 1.203125 1.203125 3.21875l-3.4375 0.46875q-0.234375 -1.609375 -1.359375 -2.5q-1.109375 -0.90625 -3.171875 -0.90625q-2.421875 0 -3.453125 0.8125q-1.03125 0.796875 -1.03125 1.875q0 0.671875 0.421875 1.21875q0.4375 0.578125 1.359375 0.9375q0.515625 0.203125 3.09375 0.90625q3.734375 1.0 5.203125 1.640625q1.484375 0.625 2.3125 1.84375q0.84375 1.203125 0.84375 3.0q0 1.75 -1.03125 3.3125q-1.015625 1.546875 -2.953125 2.40625q-1.921875 0.84375 -4.375 0.84375q-4.03125 0 -6.15625 -1.671875q-2.125 -1.6875 -2.703125 -4.984375z" fill-rule="nonzero"/><path fill="#000000" d="m401.52792 89.6425l4.1875 -20.078125l2.28125 0l-0.421875 2.015625q1.28125 -1.328125 2.28125 -1.828125q1.0 -0.515625 2.125 -0.515625q2.078125 0 3.4375 1.515625q1.375 1.5 1.375 4.3125q0 2.28125 -0.75 4.140625q-0.75 1.859375 -1.84375 3.0q-1.09375 1.140625 -2.21875 1.671875q-1.125 0.53125 -2.296875 0.53125q-2.609375 0 -4.046875 -2.65625l-1.640625 7.890625l-2.46875 0zm4.890625 -11.5q0 1.625 0.234375 2.265625q0.34375 0.875 1.109375 1.421875q0.78125 0.546875 1.8125 0.546875q2.140625 0 3.453125 -2.390625q1.3125 -2.40625 1.3125 -4.90625q0 -1.84375 -0.890625 -2.84375q-0.875 -1.015625 -2.1875 -1.015625q-0.953125 0 -1.765625 0.5q-0.796875 0.5 -1.484375 1.5q-0.6875 0.984375 -1.140625 2.421875q-0.453125 1.4375 -0.453125 2.5zm22.55664 1.0l2.40625 0.25q-0.515625 1.78125 -2.390625 3.40625q-1.859375 1.609375 -4.4375 1.609375q-1.625 0 -2.96875 -0.734375q-1.34375 -0.75 -2.046875 -2.171875q-0.703125 -1.421875 -0.703125 -3.25q0 -2.375 1.09375 -4.609375q1.109375 -2.234375 2.859375 -3.3125q1.75 -1.09375 3.78125 -1.09375q2.59375 0 4.140625 1.609375q1.5625 1.609375 1.5625 4.40625q0 1.0625 -0.1875 2.1875l-10.703125 0q-0.046875 0.421875 -0.046875 0.765625q0 2.03125 0.9375 3.109375q0.9375 1.0625 2.28125 1.0625q1.28125 0 2.5 -0.828125q1.234375 -0.828125 1.921875 -2.40625zm-7.1875 -3.59375l8.140625 0q0.015625 -0.390625 0.015625 -0.546875q0 -1.859375 -0.9375 -2.84375q-0.921875 -1.0 -2.375 -1.0q-1.59375 0 -2.90625 1.09375q-1.296875 1.09375 -1.9375 3.296875zm12.103516 8.53125l3.03125 -14.515625l2.1875 0l-0.625 2.96875q1.125 -1.6875 2.203125 -2.484375q1.078125 -0.8125 2.1875 -0.8125q0.75 0 1.828125 0.53125l-1.015625 2.296875q-0.640625 -0.46875 -1.40625 -0.46875q-1.296875 0 -2.671875 1.453125q-1.359375 1.453125 -2.140625 5.203125l-1.234375 5.828125l-2.34375 0zm15.884766 5.5625l4.1875 -20.078125l2.28125 0l-0.421875 2.015625q1.28125 -1.328125 2.28125 -1.828125q1.0 -0.515625 2.125 -0.515625q2.078125 0 3.4375 1.515625q1.3750305 1.5 1.3750305 4.3125q0 2.28125 -0.75 4.140625q-0.7500305 1.859375 -1.8437805 3.0q-1.09375 1.140625 -2.21875 1.671875q-1.125 0.53125 -2.296875 0.53125q-2.609375 0 -4.046875 -2.65625l-1.640625 7.890625l-2.46875 0zm4.890625 -11.5q0 1.625 0.234375 2.265625q0.34375 0.875 1.109375 1.421875q0.78125 0.546875 1.8125 0.546875q2.140625 0 3.453125 -2.390625q1.3125 -2.40625 1.3125 -4.90625q0 -1.84375 -0.890625 -2.84375q-0.875 -1.015625 -2.1875 -1.015625q-0.953125 0 -1.765625 0.5q-0.796875 0.5 -1.484375 1.5q-0.6875 0.984375 -1.140625 2.421875q-0.453125 1.4375 -0.453125 2.5zm22.556671 1.0l2.40625 0.25q-0.515625 1.78125 -2.390625 3.40625q-1.859375 1.609375 -4.4375 1.609375q-1.625 0 -2.96875 -0.734375q-1.34375 -0.75 -2.046875 -2.171875q-0.703125 -1.421875 -0.703125 -3.25q0 -2.375 1.09375 -4.609375q1.109375 -2.234375 2.859375 -3.3125q1.75 -1.09375 3.78125 -1.09375q2.59375 0 4.140625 1.609375q1.5625 1.609375 1.5625 4.40625q0 1.0625 -0.1875 2.1875l-10.703125 0q-0.046875 0.421875 -0.046875 0.765625q0 2.03125 0.9375 3.109375q0.9375 1.0625 2.28125 1.0625q1.28125 0 2.5 -0.828125q1.234375 -0.828125 1.921875 -2.40625zm-7.1875 -3.59375l8.140625 0q0.015625 -0.390625 0.015625 -0.546875q0 -1.859375 -0.9375 -2.84375q-0.921875 -1.0 -2.375 -1.0q-1.59375 0 -2.90625 1.09375q-1.296875 1.09375 -1.9375 3.296875zm12.103516 8.53125l3.03125 -14.515625l2.1875 0l-0.625 2.96875q1.125 -1.6875 2.203125 -2.484375q1.078125 -0.8125 2.1875 -0.8125q0.75 0 1.828125 0.53125l-1.015625 2.296875q-0.640625 -0.46875 -1.40625 -0.46875q-1.296875 0 -2.671875 1.453125q-1.359375 1.453125 -2.140625 5.203125l-1.234375 5.828125l-2.34375 0zm9.542969 -4.96875l2.484375 -0.140625q0 1.0625 0.328125 1.8125q0.328125 0.75 1.203125 1.234375q0.890625 0.46875 2.0625 0.46875q1.640625 0 2.453125 -0.65625q0.828125 -0.65625 0.828125 -1.53125q0 -0.65625 -0.5 -1.21875q-0.5 -0.578125 -2.46875 -1.421875q-1.953125 -0.84375 -2.5 -1.1875q-0.921875 -0.546875 -1.390625 -1.3125q-0.453125 -0.765625 -0.453125 -1.75q0 -1.71875 1.359375 -2.9375q1.375 -1.234375 3.828125 -1.234375q2.734375 0 4.15625 1.265625q1.4375 1.265625 1.5 3.328125l-2.421875 0.15625q-0.0625 -1.3125 -0.9375 -2.078125q-0.875 -0.765625 -2.46875 -0.765625q-1.28125 0 -2.0 0.59375q-0.703125 0.578125 -0.703125 1.265625q0 0.6875 0.609375 1.203125q0.40625 0.359375 2.125 1.09375q2.84375 1.234375 3.578125 1.9375q1.171875 1.140625 1.171875 2.765625q0 1.078125 -0.671875 2.125q-0.65625 1.03125 -2.015625 1.65625q-1.359375 0.625 -3.203125 0.625q-2.515625 0 -4.28125 -1.25q-1.765625 -1.234375 -1.671875 -4.046875zm14.21875 -0.546875q0 -4.25 2.5 -7.03125q2.0625 -2.296875 5.40625 -2.296875q2.625 0 4.234375 1.640625q1.609375 1.640625 1.609375 4.421875q0 2.5 -1.015625 4.65625q-1.015625 2.15625 -2.890625 3.3125q-1.859375 1.140625 -3.921875 1.140625q-1.6875 0 -3.078125 -0.71875q-1.390625 -0.734375 -2.125 -2.0625q-0.71875 -1.328125 -0.71875 -3.0625zm2.46875 -0.234375q0 2.046875 0.984375 3.109375q0.984375 1.046875 2.5 1.046875q0.796875 0 1.578125 -0.3125q0.78125 -0.328125 1.4375 -0.984375q0.671875 -0.65625 1.140625 -1.484375q0.484375 -0.84375 0.765625 -1.8125q0.421875 -1.359375 0.421875 -2.609375q0 -1.96875 -1.0 -3.046875q-0.984375 -1.09375 -2.484375 -1.09375q-1.15625 0 -2.125 0.5625q-0.953125 0.546875 -1.734375 1.625q-0.765625 1.0625 -1.125 2.484375q-0.359375 1.40625 -0.359375 2.515625zm12.666016 5.75l3.03125 -14.515625l2.234375 0l-0.53125 2.53125q1.46875 -1.5 2.734375 -2.171875q1.28125 -0.6875 2.59375 -0.6875q1.765625 0 2.765625 0.953125q1.015625 0.953125 1.015625 2.5625q0 0.796875 -0.359375 2.53125l-1.84375 8.796875l-2.46875 0l1.921875 -9.203125q0.28125 -1.34375 0.28125 -1.984375q0 -0.71875 -0.5 -1.171875q-0.484375 -0.453125 -1.4375 -0.453125q-1.890625 0 -3.375 1.375q-1.484375 1.359375 -2.1875 4.6875l-1.40625 6.75l-2.46875 0z" fill-rule="nonzero"/><path fill="#000000" fill-opacity="0.0" d="m191.36089 50.27048l167.08662 0l0 50.236217l-167.08662 0z" fill-rule="evenodd"/><path fill="#000000" d="m210.09485 83.265465l0.359375 2.171875q-1.046875 0.21875 -1.859375 0.21875q-1.34375 0 -2.078125 -0.421875q-0.734375 -0.421875 -1.046875 -1.109375q-0.296875 -0.6875 -0.296875 -2.90625l0 -8.359375l-1.796875 0l0 -1.90625l1.796875 0l0 -3.59375l2.453125 -1.484375l0 5.078125l2.46875 0l0 1.90625l-2.46875 0l0 8.5q0 1.046875 0.125 1.34375q0.125 0.296875 0.421875 0.484375q0.296875 0.171875 0.84375 0.171875q0.40625 0 1.078125 -0.09375zm1.4980469 -5.0625q0 -4.03125 2.234375 -5.96875q1.875 -1.609375 4.5625 -1.609375q3.0 0 4.890625 1.96875q1.90625 1.953125 1.90625 5.40625q0 2.8125 -0.84375 4.421875q-0.828125 1.59375 -2.4375 2.484375q-1.609375 0.890625 -3.515625 0.890625q-3.046875 0 -4.921875 -1.953125q-1.875 -1.953125 -1.875 -5.640625zm2.515625 0q0 2.796875 1.21875 4.1875q1.21875 1.375 3.0625 1.375q1.84375 0 3.046875 -1.390625q1.21875 -1.390625 1.21875 -4.25q0 -2.6875 -1.21875 -4.078125q-1.21875 -1.390625 -3.046875 -1.390625q-1.84375 0 -3.0625 1.390625q-1.21875 1.375 -1.21875 4.15625zm19.33789 5.0625l0.359375 2.171875q-1.046875 0.21875 -1.859375 0.21875q-1.34375 0 -2.078125 -0.421875q-0.734375 -0.421875 -1.046875 -1.109375q-0.296875 -0.6875 -0.296875 -2.90625l0 -8.359375l-1.796875 0l0 -1.90625l1.796875 0l0 -3.59375l2.453125 -1.484375l0 5.078125l2.46875 0l0 1.90625l-2.46875 0l0 8.5q0 1.046875 0.125 1.34375q0.125 0.296875 0.421875 0.484375q0.296875 0.171875 0.84375 0.171875q0.40625 0 1.078125 -0.09375zm11.888672 0.40625q-1.375 1.171875 -2.640625 1.65625q-1.265625 0.46875 -2.71875 0.46875q-2.390625 0 -3.671875 -1.171875q-1.28125 -1.171875 -1.28125 -2.984375q0 -1.0625 0.484375 -1.9375q0.484375 -0.890625 1.265625 -1.421875q0.796875 -0.53125 1.78125 -0.8125q0.71875 -0.1875 2.1875 -0.375q2.96875 -0.34375 4.375 -0.84375q0.015625 -0.5 0.015625 -0.640625q0 -1.5 -0.6875 -2.125q-0.953125 -0.828125 -2.8125 -0.828125q-1.734375 0 -2.5625 0.609375q-0.828125 0.609375 -1.21875 2.15625l-2.40625 -0.328125q0.328125 -1.546875 1.078125 -2.5q0.75 -0.953125 2.171875 -1.453125q1.421875 -0.515625 3.296875 -0.515625q1.859375 0 3.015625 0.4375q1.171875 0.4375 1.71875 1.109375q0.546875 0.65625 0.765625 1.65625q0.125 0.640625 0.125 2.28125l0 3.28125q0 3.421875 0.15625 4.34375q0.15625 0.90625 0.625 1.734375l-2.578125 0q-0.375 -0.765625 -0.484375 -1.796875zm-0.21875 -5.484375q-1.328125 0.546875 -4.015625 0.921875q-1.515625 0.21875 -2.140625 0.5q-0.625 0.265625 -0.96875 0.796875q-0.34375 0.515625 -0.34375 1.171875q0 0.984375 0.734375 1.640625q0.75 0.65625 2.1875 0.65625q1.421875 0 2.53125 -0.625q1.109375 -0.625 1.625 -1.703125q0.390625 -0.84375 0.390625 -2.46875l0 -0.890625zm6.2597656 7.28125l0 -20.046875l2.453125 0l0 20.046875l-2.453125 0zm14.359375 0l0 -20.046875l7.5625 0q2.0 0 3.046875 0.1875q1.484375 0.25 2.484375 0.953125q1.0 0.6875 1.59375 1.9375q0.609375 1.234375 0.609375 2.71875q0 2.5625 -1.625 4.328125q-1.625 1.765625 -5.875 1.765625l-5.140625 0l0 8.15625l-2.65625 0zm2.65625 -10.515625l5.1875 0q2.5625 0 3.640625 -0.953125q1.078125 -0.953125 1.078125 -2.703125q0 -1.25 -0.640625 -2.140625q-0.625 -0.90625 -1.65625 -1.1875q-0.671875 -0.171875 -2.484375 -0.171875l-5.125 0l0 7.15625zm16.472656 10.515625l0 -20.046875l2.65625 0l0 20.046875l-2.65625 0zm7.310547 0l0 -20.046875l2.71875 0l10.515625 15.734375l0 -15.734375l2.546875 0l0 20.046875l-2.71875 0l-10.53125 -15.75l0 15.75l-2.53125 0zm29.626953 -7.859375l0 -2.359375l8.484375 -0.015625l0 7.4375q-1.953125 1.5625 -4.03125 2.359375q-2.078125 0.78125 -4.265625 0.78125q-2.953125 0 -5.375 -1.265625q-2.40625 -1.265625 -3.640625 -3.65625q-1.234375 -2.390625 -1.234375 -5.34375q0 -2.9375 1.21875 -5.46875q1.234375 -2.53125 3.53125 -3.765625q2.296875 -1.234375 5.296875 -1.234375q2.171875 0 3.921875 0.703125q1.765625 0.703125 2.75 1.96875q1.0 1.25 1.53125 3.28125l-2.390625 0.65625q-0.453125 -1.53125 -1.125 -2.40625q-0.671875 -0.875 -1.921875 -1.390625q-1.234375 -0.53125 -2.75 -0.53125q-1.828125 0 -3.15625 0.546875q-1.328125 0.546875 -2.140625 1.453125q-0.8125 0.90625 -1.265625 1.984375q-0.765625 1.859375 -0.765625 4.03125q0 2.6875 0.921875 4.5q0.9375 1.796875 2.6875 2.671875q1.765625 0.875 3.75 0.875q1.71875 0 3.359375 -0.65625q1.640625 -0.671875 2.5 -1.421875l0 -3.734375l-5.890625 0zm11.091797 3.53125l2.4375 -0.390625q0.203125 1.46875 1.140625 2.25q0.9375 0.765625 2.625 0.765625q1.6875 0 2.5 -0.6875q0.828125 -0.6875 0.828125 -1.609375q0 -0.84375 -0.71875 -1.3125q-0.515625 -0.328125 -2.515625 -0.84375q-2.71875 -0.6875 -3.765625 -1.171875q-1.03125 -0.5 -1.578125 -1.375q-0.546875 -0.890625 -0.546875 -1.96875q0 -0.96875 0.4375 -1.796875q0.453125 -0.828125 1.21875 -1.375q0.578125 -0.421875 1.5625 -0.703125q1.0 -0.296875 2.140625 -0.296875q1.703125 0 2.984375 0.5q1.296875 0.484375 1.90625 1.328125q0.625 0.828125 0.859375 2.234375l-2.40625 0.328125q-0.171875 -1.109375 -0.953125 -1.734375q-0.78125 -0.640625 -2.21875 -0.640625q-1.703125 0 -2.421875 0.5625q-0.71875 0.5625 -0.71875 1.3125q0 0.484375 0.296875 0.859375q0.296875 0.40625 0.9375 0.65625q0.375 0.140625 2.171875 0.625q2.625 0.703125 3.65625 1.15625q1.03125 0.4375 1.609375 1.28125q0.59375 0.84375 0.59375 2.109375q0 1.234375 -0.71875 2.328125q-0.71875 1.078125 -2.078125 1.671875q-1.34375 0.59375 -3.0625 0.59375q-2.828125 0 -4.3125 -1.171875q-1.484375 -1.1875 -1.890625 -3.484375z" fill-rule="nonzero"/><path fill="#000000" fill-opacity="0.0" d="m191.36089 0.015748031l167.08662 0l0 50.23622l-167.08662 0z" fill-rule="evenodd"/><path fill="#000000" d="m214.7638 33.010735l0.359375 2.171875q-1.046875 0.21875 -1.859375 0.21875q-1.34375 0 -2.078125 -0.421875q-0.734375 -0.421875 -1.046875 -1.109375q-0.296875 -0.6875 -0.296875 -2.906248l0 -8.359375l-1.796875 0l0 -1.90625l1.796875 0l0 -3.59375l2.453125 -1.484376l0 5.078126l2.46875 0l0 1.90625l-2.46875 0l0 8.5q0 1.0468731 0.125 1.3437481q0.125 0.296875 0.421875 0.484375q0.296875 0.171875 0.84375 0.171875q0.40625 0 1.078125 -0.09375zm1.4980469 -5.062498q0 -4.03125 2.234375 -5.96875q1.875 -1.609375 4.5625 -1.609375q3.0 0 4.890625 1.96875q1.90625 1.953125 1.90625 5.40625q0 2.8125 -0.84375 4.421873q-0.828125 1.59375 -2.4375 2.484375q-1.609375 0.890625 -3.515625 0.890625q-3.046875 0 -4.921875 -1.953125q-1.875 -1.9531231 -1.875 -5.640623zm2.515625 0q0 2.796875 1.21875 4.187498q1.21875 1.375 3.0625 1.375q1.84375 0 3.046875 -1.390625q1.21875 -1.3906231 1.21875 -4.249998q0 -2.6875 -1.21875 -4.078125q-1.21875 -1.390625 -3.046875 -1.390625q-1.84375 0 -3.0625 1.390625q-1.21875 1.375 -1.21875 4.15625zm19.33789 5.062498l0.359375 2.171875q-1.046875 0.21875 -1.859375 0.21875q-1.34375 0 -2.078125 -0.421875q-0.734375 -0.421875 -1.046875 -1.109375q-0.296875 -0.6875 -0.296875 -2.906248l0 -8.359375l-1.796875 0l0 -1.90625l1.796875 0l0 -3.59375l2.453125 -1.484376l0 5.078126l2.46875 0l0 1.90625l-2.46875 0l0 8.5q0 1.0468731 0.125 1.3437481q0.125 0.296875 0.421875 0.484375q0.296875 0.171875 0.84375 0.171875q0.40625 0 1.078125 -0.09375zm11.888672 0.40625q-1.375 1.171875 -2.640625 1.65625q-1.265625 0.46875 -2.71875 0.46875q-2.390625 0 -3.671875 -1.171875q-1.28125 -1.171875 -1.28125 -2.984373q0 -1.0625 0.484375 -1.9375q0.484375 -0.890625 1.265625 -1.421875q0.796875 -0.53125 1.78125 -0.8125q0.71875 -0.1875 2.1875 -0.375q2.96875 -0.34375 4.375 -0.84375q0.015625 -0.5 0.015625 -0.640625q0 -1.5 -0.6875 -2.125q-0.953125 -0.828125 -2.8125 -0.828125q-1.734375 0 -2.5625 0.609375q-0.828125 0.609375 -1.21875 2.15625l-2.40625 -0.328125q0.328125 -1.546875 1.078125 -2.5q0.75 -0.953125 2.171875 -1.453125q1.421875 -0.515625 3.296875 -0.515625q1.859375 0 3.015625 0.4375q1.171875 0.4375 1.71875 1.109375q0.546875 0.65625 0.765625 1.65625q0.125 0.640625 0.125 2.28125l0 3.28125q0 3.421873 0.15625 4.343748q0.15625 0.90625 0.625 1.734375l-2.578125 0q-0.375 -0.765625 -0.484375 -1.796875zm-0.21875 -5.484373q-1.328125 0.546875 -4.015625 0.921875q-1.515625 0.21875 -2.140625 0.5q-0.625 0.265625 -0.96875 0.796875q-0.34375 0.515625 -0.34375 1.171875q0 0.9843731 0.734375 1.6406231q0.75 0.65625 2.1875 0.65625q1.421875 0 2.53125 -0.625q1.109375 -0.625 1.625 -1.7031231q0.390625 -0.84375 0.390625 -2.46875l0 -0.890625zm6.2597656 7.281248l0 -20.046875l2.453125 0l0 20.046875l-2.453125 0zm14.40625 0l0 -20.046875l8.890625 0q2.671875 0 4.0625 0.546875q1.40625 0.53125095 2.234375 1.906251q0.828125 1.359375 0.828125 3.015625q0 2.140625 -1.375 3.609375q-1.375 1.453125 -4.265625 1.84375q1.046875 0.515625 1.59375 1.0q1.171875 1.0625 2.203125 2.671875l3.484375 5.453123l-3.328125 0l-2.65625 -4.171873q-1.15625 -1.796875 -1.90625 -2.75q-0.75 -0.96875 -1.359375 -1.34375q-0.59375 -0.390625 -1.203125 -0.546875q-0.453125 -0.09375 -1.46875 -0.09375l-3.078125 0l0 8.906248l-2.65625 0zm2.65625 -11.203123l5.703125 0q1.8125 0 2.828125 -0.375q1.03125 -0.375 1.5625 -1.203125q0.53125 -0.828125 0.53125 -1.796875q0 -1.421875 -1.03125 -2.328125q-1.03125 -0.921875 -3.25 -0.921875l-6.34375 0l0 6.625zm15.314453 11.203123l7.703125 -20.046875l2.859375 0l8.203125 20.046875l-3.015625 0l-2.34375 -6.078123l-8.375 0l-2.203125 6.078123l-2.828125 0zm5.796875 -8.234373l6.78125 0l-2.078125 -5.546875q-0.96875 -2.53125 -1.421875 -4.15625q-0.390625 1.921875 -1.09375 3.828125l-2.1875 5.875zm15.082031 8.234373l0 -20.046875l6.90625 0q2.34375 0 3.578125 0.296875q1.71875 0.390625 2.9375 1.421876q1.578125 1.34375 2.359375 3.4375q0.796875 2.078125 0.796875 4.765625q0 2.28125 -0.53125 4.046875q-0.53125 1.75 -1.375 2.906248q-0.828125 1.15625 -1.828125 1.828125q-0.984375 0.65625 -2.390625 1.0q-1.390625 0.34375 -3.21875 0.34375l-7.234375 0zm2.65625 -2.359375l4.28125 0q1.984375 0 3.109375 -0.375q1.125 -0.375 1.796875 -1.0468731q0.9375 -0.9375 1.46875 -2.53125q0.53125 -1.59375 0.53125 -3.859375q0 -3.140625 -1.03125 -4.828125q-1.03125 -1.6875 -2.515625 -2.265625q-1.0625 -0.40625 -3.421875 -0.40625l-4.21875 0l0 15.312498zm16.267578 -1.9687481l2.4375 -0.390625q0.203125 1.46875 1.140625 2.249998q0.9375 0.765625 2.625 0.765625q1.6875 0 2.5 -0.6875q0.828125 -0.6875 0.828125 -1.6093731q0 -0.84375 -0.71875 -1.3125q-0.515625 -0.328125 -2.515625 -0.84375q-2.71875 -0.6875 -3.765625 -1.171875q-1.03125 -0.5 -1.578125 -1.375q-0.546875 -0.890625 -0.546875 -1.96875q0 -0.96875 0.4375 -1.796875q0.453125 -0.828125 1.21875 -1.375q0.578125 -0.421875 1.5625 -0.703125q1.0 -0.296875 2.140625 -0.296875q1.703125 0 2.984375 0.5q1.296875 0.484375 1.90625 1.328125q0.625 0.828125 0.859375 2.234375l-2.40625 0.328125q-0.171875 -1.109375 -0.953125 -1.734375q-0.78125 -0.640625 -2.21875 -0.640625q-1.703125 0 -2.421875 0.5625q-0.71875 0.5625 -0.71875 1.3125q0 0.484375 0.296875 0.859375q0.296875 0.40625 0.9375 0.65625q0.375 0.140625 2.171875 0.625q2.625 0.703125 3.65625 1.15625q1.03125 0.4375 1.609375 1.28125q0.59375 0.84375 0.59375 2.109375q0 1.2343731 -0.71875 2.328123q-0.71875 1.078125 -2.078125 1.671875q-1.34375 0.59375 -3.0625 0.59375q-2.828125 0 -4.3125 -1.171875q-1.484375 -1.1875 -1.890625 -3.484373z" fill-rule="nonzero"/><path fill="#000000" fill-opacity="0.0" d="m204.40855 50.33474l140.97636 0" fill-rule="evenodd"/><path stroke="#000000" stroke-width="1.0" stroke-linejoin="round" stroke-linecap="butt" d="m204.40855 50.33474l140.97636 0" fill-rule="evenodd"/><path fill="#000000" fill-opacity="0.0" d="m154.87793 5.149606l41.51181 0l0 89.70079l-41.51181 0z" fill-rule="evenodd"/><path fill="#000000" d="m165.01186 61.519997l8.859375 -11.9375l-7.8125 -10.96875l3.609375 0l4.15625 5.875q1.296875 1.828125 1.84375 2.8125q0.765625 -1.25 1.8125 -2.609375l4.609375 -6.078125l3.296875 0l-8.046875 10.796875l8.671875 12.109375l-3.75 0l-5.765625 -8.171875q-0.484375 -0.703125 -1.0 -1.53125q-0.765625 1.25 -1.09375 1.71875l-5.75 7.984375l-3.640625 0z" fill-rule="nonzero"/><path fill="#000000" fill-opacity="0.0" d="m353.37665 5.4173226l36.503937 0l0 89.70079l-36.503937 0z" fill-rule="evenodd"/><path fill="#000000" d="m379.1004 48.318966l-15.125 0l0 -2.625l15.125 0l0 2.625zm0 6.953125l-15.125 0l0 -2.625l15.125 0l0 2.625z" fill-rule="nonzero"/></g></svg>