<svg version="1.1" viewBox="0.0 0.0 518.7874015748032 118.83989501312335" fill="none" stroke="none" stroke-linecap="square" stroke-miterlimit="10" xmlns:xlink="http://www.w3.org/1999/xlink" xmlns="http://www.w3.org/2000/svg"><clipPath id="p.0"><path d="m0 0l518.7874 0l0 118.8399l-518.7874 0l0 -118.8399z" clip-rule="nonzero"/></clipPath><g clip-path="url(#p.0)"><path fill="#000000" fill-opacity="0.0" d="m0 0l518.7874 0l0 118.8399l-518.7874 0z" fill-rule="evenodd"/><path fill="#000000" fill-opacity="0.0" d="m5.89895 8.015748l140.97638 0l0 100.0l-140.97638 0z" fill-rule="evenodd"/><path fill="#000000" d="m31.97196 57.85575l0 -9.671875l1.4687481 0l0 1.359375q0.453125 -0.71875 1.203125 -1.140625q0.765625 -0.4375 1.71875 -0.4375q1.078125 0 1.765625 0.453125q0.6875 0.4375 0.96875 1.234375q1.15625 -1.6875 2.984375 -1.6875q1.453125 0 2.21875 0.796875q0.78125 0.796875 0.78125 2.453125l0 6.640625l-1.640625 0l0 -6.09375q0 -0.984375 -0.15625 -1.40625q-0.15625 -0.4375 -0.578125 -0.703125q-0.421875 -0.265625 -0.984375 -0.265625q-1.015625 0 -1.6875 0.6875q-0.671875 0.671875 -0.671875 2.15625l0 5.625l-1.640625 0l0 -6.28125q0 -1.09375 -0.40625 -1.640625q-0.40625 -0.546875 -1.3125 -0.546875q-0.6875 0 -1.28125 0.359375q-0.59375 0.359375 -0.859375 1.0625q-0.25 0.703125 -0.25 2.03125l0 5.015625l-1.6406231 0zm15.462675 3.71875l-0.1875 -1.53125q0.546875 0.140625 0.9375 0.140625q0.546875 0 0.875 -0.1875q0.328125 -0.171875 0.546875 -0.5q0.15625 -0.25 0.5 -1.21875q0.046875 -0.140625 0.140625 -0.40625l-3.671875 -9.6875l1.765625 0l2.015625 5.59375q0.390625 1.078125 0.703125 2.25q0.28125 -1.125 0.671875 -2.203125l2.078125 -5.640625l1.640625 0l-3.6875 9.828125q-0.59375 1.609375 -0.921875 2.203125q-0.4375 0.8125 -1.0 1.1875q-0.5625 0.375 -1.34375 0.375q-0.484375 0 -1.0625 -0.203125z" fill-rule="nonzero"/><path fill="#000000" d="m66.53005 57.85575l0 -21.9375l9.734375 0q2.9375 0 4.453125 0.59375q1.53125 0.578125 2.4375 2.078125q0.921875 1.5 0.921875 3.3125q0 2.328125 -1.515625 3.9375q-1.5 1.59375 -4.671875 2.03125q1.15625 0.546875 1.75 1.09375q1.28125 1.171875 2.421875 2.921875l3.8125 5.96875l-3.65625 0l-2.90625 -4.5625q-1.265625 -1.984375 -2.09375 -3.03125q-0.8125 -1.046875 -1.46875 -1.453125q-0.65625 -0.421875 -1.328125 -0.59375q-0.5 -0.109375 -1.609375 -0.109375l-3.375 0l0 9.75l-2.90625 0zm2.90625 -12.265625l6.25 0q1.984375 0 3.109375 -0.40625q1.125 -0.40625 1.703125 -1.3125q0.578125 -0.90625 0.578125 -1.96875q0 -1.5625 -1.125 -2.5625q-1.125 -1.0 -3.5625 -1.0l-6.953125 0l0 7.25zm16.779587 12.265625l8.421875 -21.9375l3.140625 0l8.984375 21.9375l-3.3125 0l-2.5625 -6.640625l-9.171875 0l-2.421875 6.640625l-3.078125 0zm6.328125 -9.015625l7.4375 0l-2.28125 -6.078125q-1.046875 -2.765625 -1.5625 -4.546875q-0.421875 2.109375 -1.171875 4.1875l-2.421875 6.4375zm16.525604 9.015625l0 -21.9375l7.5625 0q2.5625 0 3.90625 0.3125q1.890625 0.421875 3.21875 1.5625q1.734375 1.46875 2.59375 3.75q0.859375 2.28125 0.859375 5.21875q0 2.5 -0.578125 4.4375q-0.578125 1.921875 -1.5 3.1875q-0.90625 1.265625 -2.0 2.0q-1.078125 0.71875 -2.609375 1.09375q-1.53125 0.375 -3.53125 0.375l-7.921875 0zm2.90625 -2.59375l4.6875 0q2.171875 0 3.40625 -0.390625q1.234375 -0.40625 1.96875 -1.140625q1.03125 -1.046875 1.609375 -2.78125q0.578125 -1.75 0.578125 -4.234375q0 -3.4375 -1.140625 -5.28125q-1.125 -1.859375 -2.734375 -2.484375q-1.171875 -0.453125 -3.765625 -0.453125l-4.609375 0l0 16.765625zm17.810844 -2.15625l2.671875 -0.421875q0.21875 1.609375 1.234375 2.46875q1.03125 0.84375 2.875 0.84375q1.859375 0 2.75 -0.75q0.90625 -0.765625 0.90625 -1.78125q0 -0.90625 -0.796875 -1.4375q-0.546875 -0.359375 -2.75 -0.90625q-2.96875 -0.75 -4.109375 -1.296875q-1.140625 -0.546875 -1.734375 -1.515625q-0.59375 -0.96875 -0.59375 -2.125q0 -1.0625 0.484375 -1.96875q0.484375 -0.90625 1.328125 -1.515625q0.625 -0.453125 1.703125 -0.765625q1.09375 -0.328125 2.34375 -0.328125q1.859375 0 3.265625 0.546875q1.421875 0.53125 2.09375 1.453125q0.6875 0.90625 0.9375 2.453125l-2.640625 0.359375q-0.171875 -1.21875 -1.03125 -1.90625q-0.859375 -0.703125 -2.4375 -0.703125q-1.859375 0 -2.65625 0.625q-0.78125 0.609375 -0.78125 1.4375q0 0.515625 0.328125 0.9375q0.328125 0.4375 1.03125 0.71875q0.40625 0.15625 2.375 0.6875q2.859375 0.765625 3.984375 1.25q1.140625 0.484375 1.78125 1.421875q0.640625 0.921875 0.640625 2.296875q0 1.34375 -0.78125 2.546875q-0.78125 1.1875 -2.265625 1.84375q-1.484375 0.640625 -3.359375 0.640625q-3.09375 0 -4.71875 -1.28125q-1.625 -1.296875 -2.078125 -3.828125z" fill-rule="nonzero"/><path fill="#000000" d="m21.662481 81.93262q-0.859375 0.734375 -1.65625 1.078125q-0.78125 0.34375 -1.6875 0.34375q-1.34375 0 -2.171875 -0.78125q-0.8125 -0.796875 -0.8125 -2.03125q0 -0.796875 0.375 -1.421875q0.375 -0.625 0.984375 -1.0q0.609375 -0.390625 1.484375 -0.546875q0.5625 -0.109375 2.109375 -0.171875q1.5625 -0.0625 2.234375 -0.328125q0.1875 -0.671875 0.1875 -1.125q0 -0.578125 -0.421875 -0.90625q-0.5625 -0.453125 -1.671875 -0.453125q-1.03125 0 -1.703125 0.46875q-0.65625 0.453125 -0.953125 1.296875l-1.671875 -0.140625q0.515625 -1.4375 1.609375 -2.203125q1.109375 -0.765625 2.796875 -0.765625q1.796875 0 2.84375 0.859375q0.796875 0.625 0.796875 1.65625q0 0.765625 -0.21875 1.796875l-0.53125 2.40625q-0.265625 1.140625 -0.265625 1.859375q0 0.453125 0.203125 1.3125l-1.671875 0q-0.125 -0.46875 -0.1875 -1.203125zm0.609375 -3.703125q-0.34375 0.140625 -0.75 0.21875q-0.390625 0.0625 -1.3125 0.15625q-1.4375 0.125 -2.03125 0.328125q-0.59375 0.1875 -0.90625 0.625q-0.296875 0.421875 -0.296875 0.9375q0 0.6875 0.484375 1.140625q0.484375 0.4375 1.359375 0.4375q0.828125 0 1.578125 -0.421875q0.75 -0.4375 1.1875 -1.203125q0.4375 -0.78125 0.6875 -2.21875zm7.094467 3.5625l-0.265625 1.359375q-0.59375 0.140625 -1.15625 0.140625q-0.984375 0 -1.5625 -0.46875q-0.4375 -0.375 -0.4375 -1.0q0 -0.3125 0.234375 -1.46875l1.171875 -5.625l-1.296875 0l0.265625 -1.265625l1.296875 0l0.5 -2.375l1.890625 -1.140625l-0.734375 3.515625l1.625 0l-0.28125 1.265625l-1.609375 0l-1.125 5.359375q-0.203125 1.015625 -0.203125 1.21875q0 0.28125 0.15625 0.4375q0.171875 0.15625 0.5625 0.15625q0.546875 0 0.96875 -0.109375zm13.616606 -1.9375l1.609375 0.15625q-0.34375 1.1875 -1.59375 2.265625q-1.234375 1.078125 -2.96875 1.078125q-1.0625 0 -1.96875 -0.5q-0.890625 -0.5 -1.359375 -1.4375q-0.46875 -0.953125 -0.46875 -2.15625q0 -1.59375 0.734375 -3.078125q0.734375 -1.484375 1.890625 -2.203125q1.171875 -0.734375 2.53125 -0.734375q1.734375 0 2.765625 1.078125q1.03125 1.0625 1.03125 2.921875q0 0.71875 -0.125 1.46875l-7.125 0q-0.046875 0.28125 -0.046875 0.5q0 1.359375 0.625 2.078125q0.625 0.71875 1.53125 0.71875q0.84375 0 1.65625 -0.546875q0.828125 -0.5625 1.28125 -1.609375zm-4.78125 -2.40625l5.421875 0q0.015625 -0.25 0.015625 -0.359375q0 -1.234375 -0.625 -1.890625q-0.625 -0.671875 -1.59375 -0.671875q-1.0625 0 -1.9375 0.734375q-0.859375 0.71875 -1.28125 2.1875zm8.063217 5.6875l2.015625 -9.671875l1.5 0l-0.359375 1.6875q0.96875 -1.0 1.8125 -1.453125q0.859375 -0.453125 1.734375 -0.453125q1.1875 0 1.84375 0.640625q0.671875 0.625 0.671875 1.703125q0 0.53125 -0.234375 1.6875l-1.234375 5.859375l-1.640625 0l1.28125 -6.125q0.1875 -0.890625 0.1875 -1.328125q0 -0.484375 -0.328125 -0.78125q-0.328125 -0.296875 -0.953125 -0.296875q-1.28125 0 -2.265625 0.90625q-0.984375 0.90625 -1.453125 3.125l-0.9375 4.5l-1.640625 0zm16.891342 -1.40625q-1.40625 1.625 -2.953125 1.625q-1.375 0 -2.296875 -1.015625q-0.90625 -1.015625 -0.90625 -2.953125q0 -1.765625 0.71875 -3.21875q0.734375 -1.46875 1.8125 -2.1875q1.09375 -0.734375 2.1875 -0.734375q1.796875 0 2.7187538 1.734375l1.09375 -5.203125l1.640625 0l-2.78125 13.359375l-1.5312538 0l0.296875 -1.40625zm-4.515625 -2.640625q0 1.0 0.203125 1.59375q0.203125 0.578125 0.671875 0.96875q0.484375 0.375 1.171875 0.375q1.109375 0 2.03125 -1.15625q1.21875 -1.546875 1.21875 -3.828125q0 -1.140625 -0.609375 -1.78125q-0.59375 -0.65625 -1.515625 -0.65625q-0.59375 0 -1.078125 0.265625q-0.484375 0.265625 -0.96875 0.90625q-0.46875 0.625 -0.796875 1.59375q-0.328125 0.96875 -0.328125 1.71875zm13.840275 0.375q0 -2.828125 1.671875 -4.6875q1.375 -1.53125 3.609375 -1.53125q1.75 0 2.8125 1.09375q1.078125 1.09375 1.078125 2.953125q0 1.65625 -0.671875 3.09375q-0.671875 1.4375 -1.921875 2.203125q-1.25 0.765625 -2.625 0.765625q-1.125 0 -2.046875 -0.484375q-0.921875 -0.484375 -1.421875 -1.359375q-0.484375 -0.890625 -0.484375 -2.046875zm1.65625 -0.15625q0 1.359375 0.65625 2.0625q0.65625 0.703125 1.65625 0.703125q0.53125 0 1.046875 -0.203125q0.53125 -0.21875 0.96875 -0.65625q0.453125 -0.4375 0.765625 -1.0q0.3125 -0.5625 0.5 -1.203125q0.28125 -0.90625 0.28125 -1.734375q0 -1.3125 -0.65625 -2.03125q-0.65625 -0.734375 -1.65625 -0.734375q-0.78125 0 -1.421875 0.375q-0.625 0.375 -1.140625 1.09375q-0.515625 0.703125 -0.765625 1.640625q-0.234375 0.9375 -0.234375 1.6875zm8.656967 3.828125l1.765625 -8.40625l-1.484375 0l0.265625 -1.265625l1.484375 0l0.28125 -1.375q0.21875 -1.03125 0.4375 -1.484375q0.234375 -0.453125 0.75 -0.75q0.53125 -0.296875 1.4375 -0.296875q0.625 0 1.828125 0.265625l-0.296875 1.4375q-0.84375 -0.21875 -1.40625 -0.21875q-0.484375 0 -0.734375 0.25q-0.25 0.234375 -0.4375 1.125l-0.21875 1.046875l1.84375 0l-0.265625 1.265625l-1.84375 0l-1.75 8.40625l-1.65625 0zm9.335358 3.703125l2.796875 -13.375l1.515625 0l-0.28125 1.34375q0.84375 -0.875 1.515625 -1.21875q0.671875 -0.34375 1.421875 -0.34375q1.375 0 2.28125 1.015625q0.921875 1.0 0.921875 2.875q0 1.515625 -0.5 2.765625q-0.5 1.234375 -1.234375 2.0q-0.71875 0.75 -1.46875 1.109375q-0.75 0.34375 -1.53125 0.34375q-1.75 0 -2.703125 -1.765625l-1.09375 5.25l-1.640625 0zm3.25 -7.65625q0 1.078125 0.15625 1.5q0.234375 0.59375 0.75 0.96875q0.515625 0.359375 1.203125 0.359375q1.421875 0 2.296875 -1.59375q0.875 -1.609375 0.875 -3.28125q0 -1.21875 -0.59375 -1.890625q-0.578125 -0.671875 -1.453125 -0.671875q-0.625 0 -1.171875 0.34375q-0.53125 0.328125 -1.0 0.984375q-0.453125 0.65625 -0.765625 1.609375q-0.296875 0.953125 -0.296875 1.671875zm15.031967 0.671875l1.609375 0.15625q-0.34375 1.1875 -1.59375 2.265625q-1.234375 1.078125 -2.96875 1.078125q-1.0625 0 -1.96875 -0.5q-0.890625 -0.5 -1.359375 -1.4375q-0.46875 -0.953125 -0.46875 -2.15625q0 -1.59375 0.734375 -3.078125q0.734375 -1.484375 1.890625 -2.203125q1.171875 -0.734375 2.53125 -0.734375q1.734375 0 2.765625 1.078125q1.03125 1.0625 1.03125 2.921875q0 0.71875 -0.125 1.46875l-7.125 0q-0.046875 0.28125 -0.046875 0.5q0 1.359375 0.625 2.078125q0.625 0.71875 1.53125 0.71875q0.84375 0 1.65625 -0.546875q0.828125 -0.5625 1.28125 -1.609375zm-4.78125 -2.40625l5.421875 0q0.015625 -0.25 0.015625 -0.359375q0 -1.234375 -0.625 -1.890625q-0.625 -0.671875 -1.59375 -0.671875q-1.0625 0 -1.9375 0.734375q-0.859375 0.71875 -1.28125 2.1875zm8.063217 5.6875l2.015625 -9.671875l1.453125 0l-0.40625 1.96875q0.75 -1.109375 1.453125 -1.640625q0.71875 -0.546875 1.46875 -0.546875q0.5 0 1.21875 0.359375l-0.671875 1.53125q-0.4375 -0.3125 -0.9375 -0.3125q-0.875 0 -1.78125 0.96875q-0.90625 0.953125 -1.4375 3.46875l-0.8125 3.875l-1.5625 0zm8.540802 -11.484375l0.40625 -1.875l1.625 0l-0.390625 1.875l-1.640625 0zm-2.390625 11.484375l2.015625 -9.671875l1.65625 0l-2.03125 9.671875l-1.640625 0zm4.488571 -3.671875q0 -2.828125 1.671875 -4.6875q1.375 -1.53125 3.6093826 -1.53125q1.75 0 2.8125 1.09375q1.078125 1.09375 1.078125 2.953125q0 1.65625 -0.671875 3.09375q-0.671875 1.4375 -1.921875 2.203125q-1.25 0.765625 -2.625 0.765625q-1.1250076 0 -2.0468826 -0.484375q-0.921875 -0.484375 -1.421875 -1.359375q-0.484375 -0.890625 -0.484375 -2.046875zm1.65625 -0.15625q0 1.359375 0.65625 2.0625q0.65625 0.703125 1.6562576 0.703125q0.53125 0 1.046875 -0.203125q0.53125 -0.21875 0.96875 -0.65625q0.453125 -0.4375 0.765625 -1.0q0.3125 -0.5625 0.5 -1.203125q0.28125 -0.90625 0.28125 -1.734375q0 -1.3125 -0.65625 -2.03125q-0.65625 -0.734375 -1.65625 -0.734375q-0.78125 0 -1.421875 0.375q-0.6250076 0.375 -1.1406326 1.09375q-0.515625 0.703125 -0.765625 1.640625q-0.234375 0.9375 -0.234375 1.6875zm14.95385 2.421875q-1.40625 1.625 -2.953125 1.625q-1.375 0 -2.296875 -1.015625q-0.90625 -1.015625 -0.90625 -2.953125q0 -1.765625 0.71875 -3.21875q0.734375 -1.46875 1.8125 -2.1875q1.09375 -0.734375 2.1875 -0.734375q1.796875 0 2.71875 1.734375l1.09375 -5.203125l1.640625 0l-2.78125 13.359375l-1.53125 0l0.296875 -1.40625zm-4.515625 -2.640625q0 1.0 0.203125 1.59375q0.203125 0.578125 0.671875 0.96875q0.484375 0.375 1.171875 0.375q1.109375 0 2.03125 -1.15625q1.21875 -1.546875 1.21875 -3.828125q0 -1.140625 -0.609375 -1.78125q-0.59375 -0.65625 -1.515625 -0.65625q-0.59375 0 -1.078125 0.265625q-0.484375 0.265625 -0.96875 0.90625q-0.46875 0.625 -0.796875 1.59375q-0.328125 0.96875 -0.328125 1.71875z" fill-rule="nonzero"/><path fill="#000000" fill-opacity="0.0" d="m400.01025 8.0l115.30707 0l0 100.0l-115.30707 0z" fill-rule="evenodd"/><path fill="#000000" d="m404.21652 56.24l0 -21.9375l9.734375 0q2.9375 0 4.453125 0.59375q1.53125 0.578125 2.4375 2.078125q0.921875 1.5 0.921875 3.3125q0 2.328125 -1.515625 3.9375q-1.5 1.59375 -4.671875 2.03125q1.15625 0.546875 1.75 1.09375q1.28125 1.171875 2.421875 2.921875l3.8125 5.96875l-3.65625 0l-2.90625 -4.5625q-1.265625 -1.984375 -2.09375 -3.03125q-0.8125 -1.046875 -1.46875 -1.453125q-0.65625 -0.421875 -1.328125 -0.59375q-0.5 -0.109375 -1.609375 -0.109375l-3.375 0l0 9.75l-2.90625 0zm2.90625 -12.265625l6.25 0q1.984375 0 3.109375 -0.40625q1.125 -0.40625 1.703125 -1.3125q0.578125 -0.90625 0.578125 -1.96875q0 -1.5625 -1.125 -2.5625q-1.125 -1.0 -3.5625 -1.0l-6.953125 0l0 7.25zm16.779572 12.265625l8.421875 -21.9375l3.140625 0l8.984375 21.9375l-3.3125 0l-2.5625 -6.640625l-9.171875 0l-2.421875 6.640625l-3.078125 0zm6.328125 -9.015625l7.4375 0l-2.28125 -6.078125q-1.046875 -2.765625 -1.5625 -4.546875q-0.421875 2.109375 -1.171875 4.1875l-2.421875 6.4375zm16.525604 9.015625l0 -21.9375l7.5625 0q2.5625 0 3.90625 0.3125q1.890625 0.421875 3.21875 1.5625q1.734375 1.46875 2.59375 3.75q0.859375 2.28125 0.859375 5.21875q0 2.5 -0.578125 4.4375q-0.578125 1.921875 -1.5 3.1875q-0.90625 1.265625 -2.0 2.0q-1.078125 0.71875 -2.609375 1.09375q-1.53125 0.375 -3.53125 0.375l-7.921875 0zm2.90625 -2.59375l4.6875 0q2.171875 0 3.40625 -0.390625q1.234375 -0.40625 1.96875 -1.140625q1.03125 -1.046875 1.609375 -2.78125q0.578125 -1.75 0.578125 -4.234375q0 -3.4375 -1.140625 -5.28125q-1.125 -1.859375 -2.734375 -2.484375q-1.171875 -0.453125 -3.765625 -0.453125l-4.609375 0l0 16.765625zm17.810852 -2.15625l2.671875 -0.421875q0.21875 1.609375 1.234375 2.46875q1.03125 0.84375 2.875 0.84375q1.859375 0 2.75 -0.75q0.90625 -0.765625 0.90625 -1.78125q0 -0.90625 -0.796875 -1.4375q-0.546875 -0.359375 -2.75 -0.90625q-2.96875 -0.75 -4.109375 -1.296875q-1.140625 -0.546875 -1.734375 -1.515625q-0.59375 -0.96875 -0.59375 -2.125q0 -1.0625 0.484375 -1.96875q0.484375 -0.90625 1.328125 -1.515625q0.625 -0.453125 1.703125 -0.765625q1.09375 -0.328125 2.34375 -0.328125q1.859375 0 3.265625 0.546875q1.421875 0.53125 2.09375 1.453125q0.6875 0.90625 0.9375 2.453125l-2.640625 0.359375q-0.171875 -1.21875 -1.03125 -1.90625q-0.859375 -0.703125 -2.4375 -0.703125q-1.859375 0 -2.65625 0.625q-0.78125 0.609375 -0.78125 1.4375q0 0.515625 0.328125 0.9375q0.328125 0.4375 1.03125 0.71875q0.40625 0.15625 2.375 0.6875q2.859375 0.765625 3.984375 1.25q1.140625 0.484375 1.78125 1.421875q0.640625 0.921875 0.640625 2.296875q0 1.34375 -0.78125 2.546875q-0.78125 1.1875 -2.265625 1.84375q-1.484375 0.640625 -3.359375 0.640625q-3.09375 0 -4.71875 -1.28125q-1.625 -1.296875 -2.078125 -3.828125z" fill-rule="nonzero"/><path fill="#000000" d="m401.59152 88.31438l3.203125 -15.296875l1.734375 0l-0.328125 1.546875q0.96875 -1.015625 1.734375 -1.40625q0.765625 -0.390625 1.625 -0.390625q1.578125 0 2.609375 1.15625q1.046875 1.140625 1.046875 3.296875q0 1.71875 -0.578125 3.140625q-0.5625 1.421875 -1.390625 2.296875q-0.828125 0.859375 -1.6875 1.265625q-0.859375 0.40625 -1.75 0.40625q-1.984375 0 -3.078125 -2.015625l-1.25 6.0l-1.890625 0zm3.734375 -8.75q0 1.234375 0.171875 1.71875q0.265625 0.671875 0.859375 1.09375q0.59375 0.40625 1.375 0.40625q1.625 0 2.625 -1.828125q1.0 -1.828125 1.0 -3.734375q0 -1.40625 -0.671875 -2.171875q-0.671875 -0.765625 -1.671875 -0.765625q-0.71875 0 -1.34375 0.390625q-0.609375 0.375 -1.140625 1.140625q-0.515625 0.75 -0.859375 1.84375q-0.34375 1.09375 -0.34375 1.90625zm17.174194 0.75l1.84375 0.1875q-0.40625 1.375 -1.828125 2.609375q-1.421875 1.21875 -3.390625 1.21875q-1.21875 0 -2.25 -0.5625q-1.03125 -0.578125 -1.5625 -1.65625q-0.53125 -1.078125 -0.53125 -2.46875q0 -1.8125 0.828125 -3.515625q0.84375 -1.703125 2.171875 -2.53125q1.34375 -0.828125 2.890625 -0.828125q1.984375 0 3.15625 1.234375q1.1875 1.21875 1.1875 3.34375q0 0.8125 -0.15625 1.671875l-8.140625 0q-0.03125 0.328125 -0.03125 0.578125q0 1.5625 0.703125 2.375q0.71875 0.8125 1.75 0.8125q0.96875 0 1.90625 -0.625q0.9375 -0.640625 1.453125 -1.84375zm-5.46875 -2.734375l6.203125 0q0.015625 -0.296875 0.015625 -0.421875q0 -1.40625 -0.71875 -2.15625q-0.703125 -0.765625 -1.8125 -0.765625q-1.21875 0 -2.21875 0.84375q-0.984375 0.828125 -1.46875 2.5zm9.205444 6.5l2.3125 -11.0625l1.671875 0l-0.46875 2.265625q0.859375 -1.28125 1.671875 -1.890625q0.8125 -0.625 1.671875 -0.625q0.5625 0 1.390625 0.40625l-0.78125 1.75q-0.484375 -0.359375 -1.0625 -0.359375q-1.0 0 -2.046875 1.109375q-1.03125 1.109375 -1.625 3.96875l-0.9375 4.4375l-1.796875 0zm12.106201 4.234375l3.203125 -15.296875l1.734375 0l-0.328125 1.546875q0.96875 -1.015625 1.734375 -1.40625q0.765625 -0.390625 1.625 -0.390625q1.578125 0 2.609375 1.15625q1.046875 1.140625 1.046875 3.296875q0 1.71875 -0.578125 3.140625q-0.5625 1.421875 -1.390625 2.296875q-0.828125 0.859375 -1.6875 1.265625q-0.859375 0.40625 -1.75 0.40625q-1.984375 0 -3.078125 -2.015625l-1.25 6.0l-1.890625 0zm3.734375 -8.75q0 1.234375 0.171875 1.71875q0.265625 0.671875 0.859375 1.09375q0.59375 0.40625 1.375 0.40625q1.625 0 2.625 -1.828125q1.0 -1.828125 1.0 -3.734375q0 -1.40625 -0.671875 -2.171875q-0.671875 -0.765625 -1.671875 -0.765625q-0.71875 0 -1.34375 0.390625q-0.609375 0.375 -1.140625 1.140625q-0.515625 0.75 -0.859375 1.84375q-0.34375 1.09375 -0.34375 1.90625zm17.174194 0.75l1.84375 0.1875q-0.40625 1.375 -1.828125 2.609375q-1.421875 1.21875 -3.390625 1.21875q-1.21875 0 -2.25 -0.5625q-1.03125 -0.578125 -1.5625 -1.65625q-0.53125 -1.078125 -0.53125 -2.46875q0 -1.8125 0.828125 -3.515625q0.84375 -1.703125 2.171875 -2.53125q1.34375 -0.828125 2.890625 -0.828125q1.984375 0 3.15625 1.234375q1.1875 1.21875 1.1875 3.34375q0 0.8125 -0.15625 1.671875l-8.140625 0q-0.03125 0.328125 -0.03125 0.578125q0 1.5625 0.703125 2.375q0.71875 0.8125 1.75 0.8125q0.96875 0 1.90625 -0.625q0.9375 -0.640625 1.453125 -1.84375zm-5.46875 -2.734375l6.203125 0q0.015625 -0.296875 0.015625 -0.421875q0 -1.40625 -0.71875 -2.15625q-0.703125 -0.765625 -1.8125 -0.765625q-1.21875 0 -2.21875 0.84375q-0.984375 0.828125 -1.46875 2.5zm9.205444 6.5l2.3125 -11.0625l1.671875 0l-0.46875 2.265625q0.859375 -1.28125 1.671875 -1.890625q0.8125 -0.625 1.671875 -0.625q0.5625 0 1.390625 0.40625l-0.78125 1.75q-0.484375 -0.359375 -1.0625 -0.359375q-1.0 0 -2.046875 1.109375q-1.03125 1.109375 -1.625 3.96875l-0.9375 4.4375l-1.796875 0zm7.289917 -3.78125l1.875 -0.109375q0 0.8125 0.25 1.390625q0.25 0.5625 0.921875 0.9375q0.671875 0.359375 1.578125 0.359375q1.25 0 1.875 -0.5q0.625 -0.5 0.625 -1.1875q0 -0.484375 -0.375 -0.921875q-0.390625 -0.4375 -1.890625 -1.078125q-1.484375 -0.640625 -1.90625 -0.90625q-0.703125 -0.421875 -1.0625 -1.0q-0.34375 -0.578125 -0.34375 -1.328125q0 -1.3125 1.03125 -2.25q1.046875 -0.9375 2.921875 -0.9375q2.09375 0 3.171875 0.96875q1.09375 0.953125 1.125 2.53125l-1.828125 0.125q-0.046875 -1.0 -0.71875 -1.578125q-0.65625 -0.59375 -1.875 -0.59375q-0.984375 0 -1.53125 0.453125q-0.53125 0.453125 -0.53125 0.96875q0 0.515625 0.46875 0.921875q0.3125 0.265625 1.609375 0.828125q2.171875 0.9375 2.734375 1.484375q0.890625 0.859375 0.890625 2.09375q0 0.828125 -0.515625 1.625q-0.5 0.78125 -1.53125 1.265625q-1.03125 0.46875 -2.4375 0.46875q-1.921875 0 -3.265625 -0.953125q-1.34375 -0.9375 -1.265625 -3.078125zm10.8203125 -0.421875q0 -3.234375 1.90625 -5.359375q1.5625 -1.75 4.125 -1.75q2.0 0 3.21875 1.25q1.21875 1.25 1.21875 3.375q0 1.90625 -0.765625 3.546875q-0.765625 1.640625 -2.1875 2.515625q-1.421875 0.875 -3.0 0.875q-1.296875 0 -2.359375 -0.546875q-1.046875 -0.5625 -1.609375 -1.5625q-0.546875 -1.015625 -0.546875 -2.34375zm1.875 -0.1875q0 1.5625 0.75 2.375q0.75 0.8125 1.90625 0.8125q0.609375 0 1.203125 -0.25q0.59375 -0.25 1.09375 -0.75q0.515625 -0.5 0.875 -1.140625q0.359375 -0.640625 0.578125 -1.375q0.328125 -1.03125 0.328125 -1.984375q0 -1.5 -0.765625 -2.328125q-0.75 -0.828125 -1.890625 -0.828125q-0.890625 0 -1.625 0.421875q-0.71875 0.421875 -1.3125 1.234375q-0.578125 0.8125 -0.859375 1.890625q-0.28125 1.078125 -0.28125 1.921875zm9.642944 4.390625l2.3125 -11.0625l1.71875 0l-0.40625 1.921875q1.109375 -1.125 2.078125 -1.640625q0.96875 -0.53125 1.984375 -0.53125q1.34375 0 2.09375 0.734375q0.765625 0.71875 0.765625 1.9375q0 0.625 -0.265625 1.9375l-1.40625 6.703125l-1.875 0l1.46875 -7.015625q0.21875 -1.015625 0.21875 -1.5q0 -0.5625 -0.390625 -0.90625q-0.375 -0.34375 -1.09375 -0.34375q-1.453125 0 -2.578125 1.046875q-1.125 1.046875 -1.65625 3.578125l-1.078125 5.140625l-1.890625 0z" fill-rule="nonzero"/><path fill="#000000" fill-opacity="0.0" d="m191.36089 65.64308l167.08662 0l0 50.23622l-167.08662 0z" fill-rule="evenodd"/><path fill="#000000" d="m217.76892 90.60119l0 -9.671875l1.46875 0l0 1.359375q0.453125 -0.71875 1.203125 -1.140625q0.765625 -0.4375 1.71875 -0.4375q1.078125 0 1.765625 0.453125q0.6875 0.4375 0.96875 1.234375q1.15625 -1.6875 2.984375 -1.6875q1.453125 0 2.21875 0.796875q0.78125 0.796875 0.78125 2.453125l0 6.640625l-1.640625 0l0 -6.09375q0 -0.984375 -0.15625 -1.40625q-0.15625 -0.4375 -0.578125 -0.703125q-0.421875 -0.265625 -0.984375 -0.265625q-1.015625 0 -1.6875 0.6875q-0.671875 0.671875 -0.671875 2.15625l0 5.625l-1.640625 0l0 -6.28125q0 -1.09375 -0.40625 -1.640625q-0.40625 -0.546875 -1.3125 -0.546875q-0.6875 0 -1.28125 0.359375q-0.59375 0.359375 -0.859375 1.0625q-0.25 0.703125 -0.25 2.03125l0 5.015625l-1.640625 0zm15.462677 3.71875l-0.1875 -1.53125q0.546875 0.140625 0.9375 0.140625q0.546875 0 0.875 -0.1875q0.328125 -0.171875 0.546875 -0.5q0.15625 -0.25 0.5 -1.21875q0.046875 -0.140625 0.140625 -0.40625l-3.671875 -9.6875l1.765625 0l2.015625 5.59375q0.390625 1.078125 0.703125 2.25q0.28125 -1.125 0.671875 -2.203125l2.078125 -5.640625l1.640625 0l-3.6875 9.828125q-0.59375 1.609375 -0.921875 2.203125q-0.4375 0.8125 -1.0 1.1875q-0.5625 0.375 -1.34375 0.375q-0.484375 0 -1.0625 -0.203125z" fill-rule="nonzero"/><path fill="#000000" d="m252.07701 90.60119l0 -20.046875l7.5625153 0q2.0 0 3.046875 0.1875q1.484375 0.25 2.484375 0.953125q1.0 0.6875 1.59375 1.9375q0.609375 1.234375 0.609375 2.71875q0 2.5625 -1.625 4.328125q-1.625 1.765625 -5.875 1.765625l-5.1406403 0l0 8.15625l-2.65625 0zm2.65625 -10.515625l5.1875153 0q2.5625 0 3.640625 -0.953125q1.078125 -0.953125 1.078125 -2.703125q0 -1.25 -0.640625 -2.140625q-0.625 -0.90625 -1.65625 -1.1875q-0.671875 -0.171875 -2.484375 -0.171875l-5.1250153 0l0 7.15625zm16.472672 10.515625l0 -20.046875l2.65625 0l0 20.046875l-2.65625 0zm7.310547 0l0 -20.046875l2.71875 0l10.515625 15.734375l0 -15.734375l2.546875 0l0 20.046875l-2.71875 0l-10.53125 -15.75l0 15.75l-2.53125 0zm29.626953 -7.859375l0 -2.359375l8.484375 -0.015625l0 7.4375q-1.953125 1.5625 -4.03125 2.359375q-2.078125 0.78125 -4.265625 0.78125q-2.953125 0 -5.375 -1.265625q-2.40625 -1.265625 -3.640625 -3.65625q-1.234375 -2.390625 -1.234375 -5.34375q0 -2.9375 1.21875 -5.46875q1.234375 -2.53125 3.53125 -3.765625q2.296875 -1.234375 5.296875 -1.234375q2.171875 0 3.921875 0.703125q1.765625 0.703125 2.75 1.96875q1.0 1.25 1.53125 3.28125l-2.390625 0.65625q-0.453125 -1.53125 -1.125 -2.40625q-0.671875 -0.875 -1.921875 -1.390625q-1.234375 -0.53125 -2.75 -0.53125q-1.828125 0 -3.15625 0.546875q-1.328125 0.546875 -2.140625 1.453125q-0.8125 0.90625 -1.265625 1.984375q-0.765625 1.859375 -0.765625 4.03125q0 2.6875 0.921875 4.5q0.9375 1.796875 2.6875 2.671875q1.765625 0.875 3.75 0.875q1.71875 0 3.359375 -0.65625q1.640625 -0.671875 2.5 -1.421875l0 -3.734375l-5.890625 0zm11.091797 3.53125l2.4375 -0.390625q0.203125 1.46875 1.140625 2.25q0.9375 0.765625 2.625 0.765625q1.6875 0 2.5 -0.6875q0.828125 -0.6875 0.828125 -1.609375q0 -0.84375 -0.71875 -1.3125q-0.515625 -0.328125 -2.515625 -0.84375q-2.71875 -0.6875 -3.765625 -1.171875q-1.03125 -0.5 -1.578125 -1.375q-0.546875 -0.890625 -0.546875 -1.96875q0 -0.96875 0.4375 -1.796875q0.453125 -0.828125 1.21875 -1.375q0.578125 -0.421875 1.5625 -0.703125q1.0 -0.296875 2.140625 -0.296875q1.703125 0 2.984375 0.5q1.296875 0.484375 1.90625 1.328125q0.625 0.828125 0.859375 2.234375l-2.40625 0.328125q-0.171875 -1.109375 -0.953125 -1.734375q-0.78125 -0.640625 -2.21875 -0.640625q-1.703125 0 -2.421875 0.5625q-0.71875 0.5625 -0.71875 1.3125q0 0.484375 0.296875 0.859375q0.296875 0.40625 0.9375 0.65625q0.375 0.140625 2.171875 0.625q2.625 0.703125 3.65625 1.15625q1.03125 0.4375 1.609375 1.28125q0.59375 0.84375 0.59375 2.109375q0 1.234375 -0.71875 2.328125q-0.71875 1.078125 -2.078125 1.671875q-1.34375 0.59375 -3.0625 0.59375q-2.828125 0 -4.3125 -1.171875q-1.484375 -1.1875 -1.890625 -3.484375z" fill-rule="nonzero"/><path fill="#000000" d="m216.76808 114.67806q-0.859375 0.734375 -1.65625 1.078125q-0.78125 0.34375 -1.6875 0.34375q-1.34375 0 -2.171875 -0.78125q-0.8125 -0.796875 -0.8125 -2.03125q0 -0.796875 0.375 -1.421875q0.375 -0.625 0.984375 -1.0q0.609375 -0.390625 1.484375 -0.546875q0.5625 -0.109375 2.109375 -0.171875q1.5625 -0.0625 2.234375 -0.328125q0.1875 -0.671875 0.1875 -1.125q0 -0.578125 -0.421875 -0.90625q-0.5625 -0.453125 -1.671875 -0.453125q-1.03125 0 -1.703125 0.46875q-0.65625 0.453125 -0.953125 1.296875l-1.671875 -0.140625q0.515625 -1.4375 1.609375 -2.203125q1.109375 -0.765625 2.796875 -0.765625q1.796875 0 2.84375 0.859375q0.796875 0.625 0.796875 1.65625q0 0.765625 -0.21875 1.796875l-0.53125 2.40625q-0.265625 1.140625 -0.265625 1.859375q0 0.453125 0.203125 1.3125l-1.671875 0q-0.125 -0.46875 -0.1875 -1.203125zm0.609375 -3.703125q-0.34375 0.140625 -0.75 0.21875q-0.390625 0.0625 -1.3125 0.15625q-1.4375 0.125 -2.03125 0.328125q-0.59375 0.1875 -0.90625 0.625q-0.296875 0.421875 -0.296875 0.9375q0 0.6875 0.484375 1.140625q0.484375 0.4375 1.359375 0.4375q0.828125 0 1.578125 -0.421875q0.75 -0.4375 1.1875 -1.203125q0.4375 -0.78125 0.6875 -2.21875zm7.094467 3.5625l-0.265625 1.359375q-0.59375 0.140625 -1.15625 0.140625q-0.984375 0 -1.5625 -0.46875q-0.4375 -0.375 -0.4375 -1.0q0 -0.3125 0.234375 -1.46875l1.171875 -5.625l-1.296875 0l0.265625 -1.265625l1.296875 0l0.5 -2.375l1.890625 -1.140625l-0.734375 3.515625l1.625 0l-0.28125 1.265625l-1.609375 0l-1.125 5.359375q-0.203125 1.015625 -0.203125 1.21875q0 0.28125 0.15625 0.4375q0.171875 0.15625 0.5625 0.15625q0.546875 0 0.96875 -0.109375zm13.616608 -1.9375l1.609375 0.15625q-0.34375 1.1875 -1.59375 2.265625q-1.234375 1.078125 -2.96875 1.078125q-1.0625 0 -1.96875 -0.5q-0.890625 -0.5 -1.359375 -1.4375q-0.46875 -0.953125 -0.46875 -2.15625q0 -1.59375 0.734375 -3.078125q0.734375 -1.484375 1.890625 -2.203125q1.171875 -0.734375 2.53125 -0.734375q1.734375 0 2.765625 1.078125q1.03125 1.0625 1.03125 2.921875q0 0.71875 -0.125 1.46875l-7.125 0q-0.046875 0.28125 -0.046875 0.5q0 1.359375 0.625 2.078125q0.625 0.71875 1.53125 0.71875q0.84375 0 1.65625 -0.546875q0.828125 -0.5625 1.28125 -1.609375zm-4.78125 -2.40625l5.421875 0q0.015625 -0.25 0.015625 -0.359375q0 -1.234375 -0.625 -1.890625q-0.625 -0.671875 -1.59375 -0.671875q-1.0625 0 -1.9375 0.734375q-0.859375 0.71875 -1.28125 2.1875zm8.063217 5.6875l2.015625 -9.671875l1.5 0l-0.359375 1.6875q0.96875 -1.0 1.8125 -1.453125q0.859375 -0.453125 1.734375 -0.453125q1.1875 0 1.84375 0.640625q0.671875 0.625 0.671875 1.703125q0 0.53125 -0.234375 1.6875l-1.234375 5.859375l-1.640625 0l1.28125 -6.125q0.1875 -0.890625 0.1875 -1.328125q0 -0.484375 -0.328125 -0.78125q-0.328125 -0.296875 -0.953125 -0.296875q-1.28125 0 -2.265625 0.90625q-0.984375 0.90625 -1.453125 3.125l-0.9375 4.5l-1.640625 0zm16.891342 -1.40625q-1.40625 1.625 -2.953125 1.625q-1.375 0 -2.296875 -1.015625q-0.90625 -1.015625 -0.90625 -2.953125q0 -1.765625 0.71875 -3.21875q0.734375 -1.46875 1.8125 -2.1875q1.09375 -0.734375 2.1875 -0.734375q1.796875 0 2.71875 1.734375l1.09375 -5.203125l1.640625 0l-2.78125 13.359375l-1.53125 0l0.296875 -1.40625zm-4.515625 -2.640625q0 1.0 0.203125 1.59375q0.203125 0.578125 0.671875 0.96875q0.484375 0.375 1.171875 0.375q1.109375 0 2.03125 -1.15625q1.21875 -1.546875 1.21875 -3.828125q0 -1.140625 -0.609375 -1.78125q-0.59375 -0.65625 -1.515625 -0.65625q-0.59375 0 -1.078125 0.265625q-0.484375 0.265625 -0.96875 0.90625q-0.46875 0.625 -0.796875 1.59375q-0.328125 0.96875 -0.328125 1.71875zm13.840271 0.375q0 -2.828125 1.671875 -4.6875q1.375 -1.53125 3.609375 -1.53125q1.75 0 2.8125 1.09375q1.078125 1.09375 1.078125 2.953125q0 1.65625 -0.671875 3.09375q-0.671875 1.4375 -1.921875 2.203125q-1.25 0.765625 -2.625 0.765625q-1.125 0 -2.046875 -0.484375q-0.921875 -0.484375 -1.421875 -1.359375q-0.484375 -0.890625 -0.484375 -2.046875zm1.65625 -0.15625q0 1.359375 0.65625 2.0625q0.65625 0.703125 1.65625 0.703125q0.53125 0 1.046875 -0.203125q0.53125 -0.21875 0.96875 -0.65625q0.453125 -0.4375 0.765625 -1.0q0.3125 -0.5625 0.5 -1.203125q0.28125 -0.90625 0.28125 -1.734375q0 -1.3125 -0.65625 -2.03125q-0.65625 -0.734375 -1.65625 -0.734375q-0.78125 0 -1.421875 0.375q-0.625 0.375 -1.140625 1.09375q-0.515625 0.703125 -0.765625 1.640625q-0.234375 0.9375 -0.234375 1.6875zm8.656982 3.828125l1.765625 -8.40625l-1.484375 0l0.265625 -1.265625l1.484375 0l0.28125 -1.375q0.21875 -1.03125 0.4375 -1.484375q0.234375 -0.453125 0.75 -0.75q0.53125 -0.296875 1.4375 -0.296875q0.625 0 1.828125 0.265625l-0.296875 1.4375q-0.84375 -0.21875 -1.40625 -0.21875q-0.484375 0 -0.734375 0.25q-0.25 0.234375 -0.4375 1.125l-0.21875 1.046875l1.84375 0l-0.265625 1.265625l-1.84375 0l-1.75 8.40625l-1.65625 0zm9.335358 3.703125l2.796875 -13.375l1.515625 0l-0.28125 1.34375q0.84375 -0.875 1.515625 -1.21875q0.671875 -0.34375 1.421875 -0.34375q1.375 0 2.28125 1.015625q0.921875 1.0 0.921875 2.875q0 1.515625 -0.5 2.765625q-0.5 1.234375 -1.234375 2.0q-0.71875 0.75 -1.46875 1.109375q-0.75 0.34375 -1.53125 0.34375q-1.75 0 -2.703125 -1.765625l-1.09375 5.25l-1.640625 0zm3.25 -7.65625q0 1.078125 0.15625 1.5q0.234375 0.59375 0.75 0.96875q0.515625 0.359375 1.203125 0.359375q1.421875 0 2.296875 -1.59375q0.875 -1.609375 0.875 -3.28125q0 -1.21875 -0.59375 -1.890625q-0.578125 -0.671875 -1.453125 -0.671875q-0.625 0 -1.171875 0.34375q-0.53125 0.328125 -1.0 0.984375q-0.453125 0.65625 -0.765625 1.609375q-0.296875 0.953125 -0.296875 1.671875zm15.031952 0.671875l1.609375 0.15625q-0.34375 1.1875 -1.59375 2.265625q-1.234375 1.078125 -2.96875 1.078125q-1.0625 0 -1.96875 -0.5q-0.890625 -0.5 -1.359375 -1.4375q-0.46875 -0.953125 -0.46875 -2.15625q0 -1.59375 0.734375 -3.078125q0.734375 -1.484375 1.890625 -2.203125q1.171875 -0.734375 2.53125 -0.734375q1.734375 0 2.765625 1.078125q1.03125 1.0625 1.03125 2.921875q0 0.71875 -0.125 1.46875l-7.125 0q-0.046875 0.28125 -0.046875 0.5q0 1.359375 0.625 2.078125q0.625 0.71875 1.53125 0.71875q0.84375 0 1.65625 -0.546875q0.828125 -0.5625 1.28125 -1.609375zm-4.78125 -2.40625l5.421875 0q0.015625 -0.25 0.015625 -0.359375q0 -1.234375 -0.625 -1.890625q-0.625 -0.671875 -1.59375 -0.671875q-1.0625 0 -1.9375 0.734375q-0.859375 0.71875 -1.28125 2.1875zm8.063232 5.6875l2.015625 -9.671875l1.453125 0l-0.40625 1.96875q0.75 -1.109375 1.453125 -1.640625q0.71875 -0.546875 1.46875 -0.546875q0.5 0 1.21875 0.359375l-0.671875 1.53125q-0.4375 -0.3125 -0.9375 -0.3125q-0.875 0 -1.78125 0.96875q-0.90625 0.953125 -1.4375 3.46875l-0.8125 3.875l-1.5625 0zm8.540802 -11.484375l0.40625 -1.875l1.625 0l-0.390625 1.875l-1.640625 0zm-2.390625 11.484375l2.015625 -9.671875l1.65625 0l-2.03125 9.671875l-1.640625 0zm4.488556 -3.671875q0 -2.828125 1.671875 -4.6875q1.375 -1.53125 3.609375 -1.53125q1.75 0 2.8125 1.09375q1.078125 1.09375 1.078125 2.953125q0 1.65625 -0.671875 3.09375q-0.671875 1.4375 -1.921875 2.203125q-1.25 0.765625 -2.625 0.765625q-1.125 0 -2.046875 -0.484375q-0.921875 -0.484375 -1.421875 -1.359375q-0.484375 -0.890625 -0.484375 -2.046875zm1.65625 -0.15625q0 1.359375 0.65625 2.0625q0.65625 0.703125 1.65625 0.703125q0.53125 0 1.046875 -0.203125q0.53125 -0.21875 0.96875 -0.65625q0.453125 -0.4375 0.765625 -1.0q0.3125 -0.5625 0.5 -1.203125q0.28125 -0.90625 0.28125 -1.734375q0 -1.3125 -0.65625 -2.03125q-0.65625 -0.734375 -1.65625 -0.734375q-0.78125 0 -1.421875 0.375q-0.625 0.375 -1.140625 1.09375q-0.515625 0.703125 -0.765625 1.640625q-0.234375 0.9375 -0.234375 1.6875zm14.953857 2.421875q-1.40625 1.625 -2.953125 1.625q-1.375 0 -2.296875 -1.015625q-0.90625 -1.015625 -0.90625 -2.953125q0 -1.765625 0.71875 -3.21875q0.734375 -1.46875 1.8125 -2.1875q1.09375 -0.734375 2.1875 -0.734375q1.796875 0 2.71875 1.734375l1.09375 -5.203125l1.640625 0l-2.78125 13.359375l-1.53125 0l0.296875 -1.40625zm-4.515625 -2.640625q0 1.0 0.203125 1.59375q0.203125 0.578125 0.671875 0.96875q0.484375 0.375 1.171875 0.375q1.109375 0 2.03125 -1.15625q1.21875 -1.546875 1.21875 -3.828125q0 -1.140625 -0.609375 -1.78125q-0.59375 -0.65625 -1.515625 -0.65625q-0.59375 0 -1.078125 0.265625q-0.484375 0.265625 -0.96875 0.90625q-0.46875 0.625 -0.796875 1.59375q-0.328125 0.96875 -0.328125 1.71875z" fill-rule="nonzero"/><path fill="#000000" fill-opacity="0.0" d="m191.36089 0.6431496l167.08662 0l0 50.23622l-167.08662 0z" fill-rule="evenodd"/><path fill="#000000" d="m235.38391 24.641262l0 -20.046875l7.5625 0q2.0 0 3.046875 0.1875q1.484375 0.25 2.484375 0.953125q1.0 0.6875 1.59375 1.9375q0.609375 1.234375 0.609375 2.71875q0 2.5625 -1.625 4.328125q-1.625 1.765626 -5.875 1.765626l-5.140625 0l0 8.15625l-2.65625 0zm2.65625 -10.515626l5.1875 0q2.5625 0 3.640625 -0.953125q1.078125 -0.953125 1.078125 -2.703125q0 -1.25 -0.640625 -2.140625q-0.625 -0.90625 -1.65625 -1.1875q-0.671875 -0.171875 -2.484375 -0.171875l-5.125 0l0 7.15625zm16.472656 10.515626l0 -20.046875l2.65625 0l0 20.046875l-2.65625 0zm7.310547 0l0 -20.046875l2.71875 0l10.515625 15.734376l0 -15.734376l2.546875 0l0 20.046875l-2.71875 0l-10.53125 -15.750001l0 15.750001l-2.53125 0zm29.626953 -7.859375l0 -2.359376l8.484375 -0.015625l0 7.437501q-1.953125 1.5625 -4.03125 2.359375q-2.078125 0.78125 -4.265625 0.78125q-2.953125 0 -5.375 -1.265625q-2.40625 -1.265625 -3.640625 -3.65625q-1.234375 -2.390625 -1.234375 -5.343751q0 -2.9375 1.21875 -5.46875q1.234375 -2.53125 3.53125 -3.765625q2.296875 -1.234375 5.296875 -1.234375q2.171875 0 3.921875 0.703125q1.765625 0.703125 2.75 1.96875q1.0 1.25 1.53125 3.28125l-2.390625 0.65625q-0.453125 -1.53125 -1.125 -2.40625q-0.671875 -0.875 -1.921875 -1.390625q-1.234375 -0.53125 -2.75 -0.53125q-1.828125 0 -3.15625 0.546875q-1.328125 0.546875 -2.140625 1.453125q-0.8125 0.90625 -1.265625 1.984375q-0.765625 1.859375 -0.765625 4.03125q0 2.687501 0.921875 4.500001q0.9375 1.796875 2.6875 2.671875q1.765625 0.875 3.75 0.875q1.71875 0 3.359375 -0.65625q1.640625 -0.671875 2.5 -1.421875l0 -3.734375l-5.890625 0zm11.091797 3.53125l2.4375 -0.390625q0.203125 1.46875 1.140625 2.25q0.9375 0.765625 2.625 0.765625q1.6875 0 2.5 -0.6875q0.828125 -0.6875 0.828125 -1.609375q0 -0.84375 -0.71875 -1.3125q-0.515625 -0.328125 -2.515625 -0.84375q-2.71875 -0.6875 -3.765625 -1.171875q-1.03125 -0.5 -1.578125 -1.375001q-0.546875 -0.890625 -0.546875 -1.96875q0 -0.96875 0.4375 -1.796875q0.453125 -0.828125 1.21875 -1.375q0.578125 -0.421875 1.5625 -0.703125q1.0 -0.296875 2.140625 -0.296875q1.703125 0 2.984375 0.5q1.296875 0.484375 1.90625 1.328125q0.625 0.828125 0.859375 2.234375l-2.40625 0.328125q-0.171875 -1.109375 -0.953125 -1.734375q-0.78125 -0.640625 -2.21875 -0.640625q-1.703125 0 -2.421875 0.5625q-0.71875 0.5625 -0.71875 1.3125q0 0.484375 0.296875 0.859375q0.296875 0.40625 0.9375 0.65625q0.375 0.140625 2.171875 0.625q2.625 0.70312595 3.65625 1.156251q1.03125 0.4375 1.609375 1.28125q0.59375 0.84375 0.59375 2.109375q0 1.234375 -0.71875 2.328125q-0.71875 1.078125 -2.078125 1.671875q-1.34375 0.59375 -3.0625 0.59375q-2.828125 0 -4.3125 -1.171875q-1.484375 -1.1875 -1.890625 -3.484375z" fill-rule="nonzero"/><path fill="#000000" d="m231.09402 52.984383l0 -13.375l1.484375 0l0 1.25q0.53125 -0.734375 1.1875 -1.09375q0.671875 -0.375 1.625 -0.375q1.234375 0 2.171875 0.640625q0.953125 0.625 1.4375 1.796875q0.484375 1.15625 0.484375 2.546875q0 1.484375 -0.53125 2.671875q-0.53125 1.1875 -1.546875 1.828125q-1.015625 0.625 -2.140625 0.625q-0.8125 0 -1.46875 -0.34375q-0.65625 -0.34375 -1.0625 -0.875l0 4.703125l-1.640625 0zm1.484375 -8.484375q0 1.859375 0.75 2.765625q0.765625 0.890625 1.828125 0.890625q1.09375 0 1.875 -0.921875q0.78125 -0.9375 0.78125 -2.875q0 -1.84375 -0.765625 -2.765625q-0.75 -0.921875 -1.8125 -0.921875q-1.046875 0 -1.859375 0.984375q-0.796875 0.96875 -0.796875 2.84375zm15.516342 1.671875l1.6875 0.203125q-0.40625 1.484375 -1.484375 2.3125q-1.078125 0.8125 -2.765625 0.8125q-2.125 0 -3.375 -1.296875q-1.234375 -1.3125 -1.234375 -3.671875q0 -2.453125 1.25 -3.796875q1.265625 -1.34375 3.265625 -1.34375q1.9375 0 3.15625 1.328125q1.234375 1.3125 1.234375 3.703125q0 0.15625 0 0.4375l-7.21875 0q0.09375 1.59375 0.90625 2.453125q0.8125 0.84375 2.015625 0.84375q0.90625 0 1.546875 -0.46875q0.640625 -0.484375 1.015625 -1.515625zm-5.390625 -2.65625l5.40625 0q-0.109375 -1.21875 -0.625 -1.828125q-0.78125 -0.953125 -2.03125 -0.953125q-1.125 0 -1.90625 0.765625q-0.765625 0.75 -0.84375 2.015625zm9.125717 5.765625l0 -9.671875l1.46875 0l0 1.46875q0.5625 -1.03125 1.03125 -1.359375q0.484375 -0.328125 1.0625 -0.328125q0.828125 0 1.6875 0.53125l-0.5625 1.515625q-0.609375 -0.359375 -1.203125 -0.359375q-0.546875 0 -0.96875 0.328125q-0.421875 0.328125 -0.609375 0.890625q-0.28125 0.875 -0.28125 1.921875l0 5.0625l-1.625 0zm11.411621 3.703125l0 -13.375l1.484375 0l0 1.25q0.53125 -0.734375 1.1875 -1.09375q0.671875 -0.375 1.625 -0.375q1.234375 0 2.171875 0.640625q0.953125 0.625 1.4375 1.796875q0.484375 1.15625 0.484375 2.546875q0 1.484375 -0.53125 2.671875q-0.53125 1.1875 -1.546875 1.828125q-1.015625 0.625 -2.140625 0.625q-0.8125 0 -1.46875 -0.34375q-0.65625 -0.34375 -1.0625 -0.875l0 4.703125l-1.640625 0zm1.484375 -8.484375q0 1.859375 0.75 2.765625q0.765625 0.890625 1.828125 0.890625q1.09375 0 1.875 -0.921875q0.78125 -0.9375 0.78125 -2.875q0 -1.84375 -0.765625 -2.765625q-0.75 -0.921875 -1.8125 -0.921875q-1.046875 0 -1.859375 0.984375q-0.796875 0.96875 -0.796875 2.84375zm15.516327 1.671875l1.6875 0.203125q-0.40625 1.484375 -1.484375 2.3125q-1.078125 0.8125 -2.765625 0.8125q-2.125 0 -3.375 -1.296875q-1.234375 -1.3125 -1.234375 -3.671875q0 -2.453125 1.25 -3.796875q1.265625 -1.34375 3.265625 -1.34375q1.9375 0 3.15625 1.328125q1.234375 1.3125 1.234375 3.703125q0 0.15625 0 0.4375l-7.21875 0q0.09375 1.59375 0.90625 2.453125q0.8125 0.84375 2.015625 0.84375q0.90625 0 1.546875 -0.46875q0.640625 -0.484375 1.015625 -1.515625zm-5.390625 -2.65625l5.40625 0q-0.109375 -1.21875 -0.625 -1.828125q-0.78125 -0.953125 -2.03125 -0.953125q-1.125 0 -1.90625 0.765625q-0.765625 0.75 -0.84375 2.015625zm9.125732 5.765625l0 -9.671875l1.46875 0l0 1.46875q0.5625 -1.03125 1.03125 -1.359375q0.484375 -0.328125 1.0625 -0.328125q0.828125 0 1.6875 0.53125l-0.5625 1.515625q-0.609375 -0.359375 -1.203125 -0.359375q-0.546875 0 -0.96875 0.328125q-0.421875 0.328125 -0.609375 0.890625q-0.28125 0.875 -0.28125 1.921875l0 5.0625l-1.625 0zm5.572052 -2.890625l1.625 -0.25q0.125 0.96875 0.75 1.5q0.625 0.515625 1.75 0.515625q1.125 0 1.671875 -0.453125q0.546875 -0.46875 0.546875 -1.09375q0 -0.546875 -0.484375 -0.875q-0.328125 -0.21875 -1.671875 -0.546875q-1.8125 -0.46875 -2.515625 -0.796875q-0.6875 -0.328125 -1.046875 -0.90625q-0.359375 -0.59375 -0.359375 -1.3125q0 -0.640625 0.296875 -1.1875q0.296875 -0.5625 0.8125 -0.921875q0.375 -0.28125 1.03125 -0.46875q0.671875 -0.203125 1.421875 -0.203125q1.140625 0 2.0 0.328125q0.859375 0.328125 1.265625 0.890625q0.421875 0.5625 0.578125 1.5l-1.609375 0.21875q-0.109375 -0.75 -0.640625 -1.171875q-0.515625 -0.421875 -1.46875 -0.421875q-1.140625 0 -1.625 0.375q-0.46875 0.375 -0.46875 0.875q0 0.3125 0.1875 0.578125q0.203125 0.265625 0.640625 0.4375q0.234375 0.09375 1.4375 0.421875q1.75 0.453125 2.4375 0.75q0.6875 0.296875 1.078125 0.859375q0.390625 0.5625 0.390625 1.40625q0 0.828125 -0.484375 1.546875q-0.46875 0.71875 -1.375 1.125q-0.90625 0.390625 -2.046875 0.390625q-1.875 0 -2.875 -0.78125q-0.984375 -0.78125 -1.25 -2.328125zm9.375 -1.953125q0 -2.6875 1.484375 -3.96875q1.25 -1.078125 3.046875 -1.078125q2.0 0 3.265625 1.3125q1.265625 1.296875 1.265625 3.609375q0 1.859375 -0.5625 2.9375q-0.5625 1.0625 -1.640625 1.65625q-1.0625 0.59375 -2.328125 0.59375q-2.03125 0 -3.28125 -1.296875q-1.25 -1.3125 -1.25 -3.765625zm1.6875 0q0 1.859375 0.796875 2.796875q0.8125 0.921875 2.046875 0.921875q1.21875 0 2.03125 -0.921875q0.8125 -0.9375 0.8125 -2.84375q0 -1.796875 -0.8125 -2.71875q-0.8125 -0.921875 -2.03125 -0.921875q-1.234375 0 -2.046875 0.921875q-0.796875 0.90625 -0.796875 2.765625zm9.297577 4.84375l0 -9.671875l1.46875 0l0 1.375q1.0625 -1.59375 3.078125 -1.59375q0.875 0 1.609375 0.3125q0.734375 0.3125 1.09375 0.828125q0.375 0.5 0.515625 1.203125q0.09375 0.453125 0.09375 1.59375l0 5.953125l-1.640625 0l0 -5.890625q0 -1.0 -0.203125 -1.484375q-0.1875 -0.5 -0.671875 -0.796875q-0.484375 -0.296875 -1.140625 -0.296875q-1.046875 0 -1.8125 0.671875q-0.75 0.65625 -0.75 2.515625l0 5.28125l-1.640625 0z" fill-rule="nonzero"/><path fill="#000000" fill-opacity="0.0" d="m204.40855 58.33474l140.97636 0" fill-rule="evenodd"/><path stroke="#000000" stroke-width="1.0" stroke-linejoin="round" stroke-linecap="butt" d="m204.40855 58.33474l140.97636 0" fill-rule="evenodd"/><path fill="#000000" fill-opacity="0.0" d="m154.87793 13.149607l41.51181 0l0 89.70079l-41.51181 0z" fill-rule="evenodd"/><path fill="#000000" d="m165.01186 69.52l8.859375 -11.9375l-7.8125 -10.96875l3.609375 0l4.15625 5.875q1.296875 1.828125 1.84375 2.8125q0.765625 -1.25 1.8125 -2.609375l4.609375 -6.078125l3.296875 0l-8.046875 10.796875l8.671875 12.109375l-3.75 0l-5.765625 -8.171875q-0.484375 -0.703125 -1.0 -1.53125q-0.765625 1.25 -1.09375 1.71875l-5.75 7.984375l-3.640625 0z" fill-rule="nonzero"/><path fill="#000000" fill-opacity="0.0" d="m354.63147 13.417323l36.503937 0l0 89.70079l-36.503937 0z" fill-rule="evenodd"/><path fill="#000000" d="m380.3552 56.318966l-15.125 0l0 -2.625l15.125 0l0 2.625zm0 6.953125l-15.125 0l0 -2.625l15.125 0l0 2.625z" fill-rule="nonzero"/></g></svg>