<svg version="1.1" viewBox="0.0 0.0 389.18372703412075 100.0" fill="none" stroke="none" stroke-linecap="square" stroke-miterlimit="10" xmlns:xlink="http://www.w3.org/1999/xlink" xmlns="http://www.w3.org/2000/svg"><clipPath id="p.0"><path d="m0 0l389.18372 0l0 100.0l-389.18372 0l0 -100.0z" clip-rule="nonzero"/></clipPath><g clip-path="url(#p.0)"><path fill="#000000" fill-opacity="0.0" d="m0 0l389.18372 0l0 100.0l-389.18372 0z" fill-rule="evenodd"/><path fill="#000000" fill-opacity="0.0" d="m15.998844 -4.9500804l109.133865 0l0 74.33071l-109.133865 0z" fill-rule="evenodd"/><path fill="#000000" d="m27.01361 33.82054l0 -2.46875q-1.84375 -0.234375 -3.0 -0.828125q-1.15625 -0.59375 -2.0 -1.921875q-0.828125 -1.328125 -0.96875 -3.234375l2.46875 -0.46875q0.296875 1.984375 1.015625 2.90625q1.046875 1.3125 2.484375 1.46875l0 -7.828125q-1.515625 -0.296875 -3.09375 -1.1875q-1.1875 -0.65625 -1.828125 -1.8125q-0.625 -1.15625 -0.625 -2.640625q0 -2.625 1.859375 -4.25q1.25 -1.09375 3.6875 -1.34375l0 -1.171875l1.453125 0l0 1.171875q2.140625 0.203125 3.40625 1.265625q1.609375 1.34375 1.9375 3.671875l-2.546875 0.390625q-0.21875 -1.453125 -0.90625 -2.21875q-0.6875 -0.78125 -1.890625 -1.03125l0 7.09375q1.859375 0.46875 2.46875 0.734375q1.140625 0.5 1.859375 1.234375q0.734375 0.71875 1.125 1.71875q0.390625 1.0 0.390625 2.15625q0 2.5625 -1.640625 4.28125q-1.625 1.703125 -4.203125 1.8125l0 2.5l-1.453125 0zm0 -21.546875q-1.4375 0.21875 -2.265625 1.15625q-0.8125 0.921875 -0.8125 2.1875q0 1.25 0.703125 2.109375q0.703125 0.84375 2.375 1.34375l0 -6.796875zm1.453125 17.0q1.4375 -0.171875 2.375 -1.234375q0.9375 -1.078125 0.9375 -2.640625q0 -1.34375 -0.671875 -2.15625q-0.65625 -0.8125 -2.640625 -1.453125l0 7.484375zm17.58789 1.65625l-2.46875 0l0 -15.6875q-0.890625 0.859375 -2.328125 1.703125q-1.4375 0.84375 -2.59375 1.265625l0 -2.375q2.0625 -0.96875 3.609375 -2.34375q1.546875 -1.390625 2.1875 -2.6875l1.59375 0l0 20.125zm6.2910156 -9.890625q0 -3.546875 0.734375 -5.71875q0.734375 -2.171875 2.171875 -3.34375q1.453125 -1.171875 3.640625 -1.171875q1.609375 0 2.828125 0.65625q1.21875 0.640625 2.0 1.875q0.796875 1.21875 1.25 2.984375q0.453125 1.75 0.453125 4.71875q0 3.53125 -0.734375 5.703125q-0.71875 2.15625 -2.15625 3.34375q-1.4375 1.1875 -3.640625 1.1875q-2.90625 0 -4.5625 -2.078125q-1.984375 -2.5 -1.984375 -8.15625zm2.53125 0q0 4.9375 1.15625 6.578125q1.15625 1.625 2.859375 1.625q1.6875 0 2.84375 -1.640625q1.15625 -1.640625 1.15625 -6.5625q0 -4.9375 -1.15625 -6.5625q-1.15625 -1.640625 -2.875 -1.640625q-1.703125 0 -2.703125 1.4375q-1.28125 1.828125 -1.28125 6.765625zm14.369141 9.890625l0 -2.796875l2.8125 0l0 2.796875q0 1.546875 -0.546875 2.5q-0.546875 0.953125 -1.734375 1.46875l-0.6875 -1.0625q0.78125 -0.328125 1.140625 -1.0q0.375 -0.65625 0.421875 -1.90625l-1.40625 0zm6.451172 -9.890625q0 -3.546875 0.734375 -5.71875q0.734375 -2.171875 2.171875 -3.34375q1.4531326 -1.171875 3.6406326 -1.171875q1.609375 0 2.828125 0.65625q1.21875 0.640625 2.0 1.875q0.796875 1.21875 1.25 2.984375q0.453125 1.75 0.453125 4.71875q0 3.53125 -0.734375 5.703125q-0.71875 2.15625 -2.15625 3.34375q-1.4375 1.1875 -3.640625 1.1875q-2.9062576 0 -4.5625076 -2.078125q-1.984375 -2.5 -1.984375 -8.15625zm2.53125 0q0 4.9375 1.15625 6.578125q1.1562576 1.625 2.8593826 1.625q1.6875 0 2.84375 -1.640625q1.15625 -1.640625 1.15625 -6.5625q0 -4.9375 -1.15625 -6.5625q-1.15625 -1.640625 -2.875 -1.640625q-1.703125 0 -2.7031326 1.4375q-1.28125 1.828125 -1.28125 6.765625zm13.041023 0q0 -3.546875 0.734375 -5.71875q0.734375 -2.171875 2.171875 -3.34375q1.453125 -1.171875 3.640625 -1.171875q1.609375 0 2.828125 0.65625q1.21875 0.640625 2.0 1.875q0.796875 1.21875 1.25 2.984375q0.453125 1.75 0.453125 4.71875q0 3.53125 -0.734375 5.703125q-0.71875 2.15625 -2.15625 3.34375q-1.4375 1.1875 -3.640625 1.1875q-2.90625 0 -4.5625 -2.078125q-1.984375 -2.5 -1.984375 -8.15625zm2.53125 0q0 4.9375 1.15625 6.578125q1.15625 1.625 2.859375 1.625q1.6875 0 2.84375 -1.640625q1.15625 -1.640625 1.15625 -6.5625q0 -4.9375 -1.15625 -6.5625q-1.15625 -1.640625 -2.875 -1.640625q-1.703125 0 -2.703125 1.4375q-1.28125 1.828125 -1.28125 6.765625zm13.041016 0q0 -3.546875 0.734375 -5.71875q0.734375 -2.171875 2.171875 -3.34375q1.453125 -1.171875 3.640625 -1.171875q1.609375 0 2.828125 0.65625q1.21875 0.640625 2.0 1.875q0.796875 1.21875 1.25 2.984375q0.453125 1.75 0.453125 4.71875q0 3.53125 -0.734375 5.703125q-0.71875 2.15625 -2.15625 3.34375q-1.4375 1.1875 -3.640625 1.1875q-2.90625 0 -4.5625 -2.078125q-1.984375 -2.5 -1.984375 -8.15625zm2.53125 0q0 4.9375 1.15625 6.578125q1.15625 1.625 2.859375 1.625q1.6875 0 2.84375 -1.640625q1.15625 -1.640625 1.15625 -6.5625q0 -4.9375 -1.15625 -6.5625q-1.15625 -1.640625 -2.875 -1.640625q-1.703125 0 -2.703125 1.4375q-1.28125 1.828125 -1.28125 6.765625z" fill-rule="nonzero"/><path fill="#000000" d="m45.610962 54.508667l3.59375 -12.828125l1.21875 0l-3.578125 12.828125l-1.234375 0zm12.425507 -0.21875l-2.75 -8.984375l1.578125 0l1.421875 5.1875l0.546875 1.921875q0.03125 -0.140625 0.453125 -1.84375l1.4375 -5.265625l1.5625 0l1.34375 5.203125l0.453125 1.71875l0.515625 -1.734375l1.53125 -5.1875l1.484375 0l-2.8125 8.984375l-1.578125 0l-1.421875 -5.375l-0.359375 -1.53125l-1.8125 6.90625l-1.59375 0zm17.013824 -2.890625l1.5625 0.1875q-0.359375 1.390625 -1.375 2.15625q-1.0 0.75 -2.5625 0.75q-1.984375 0 -3.140625 -1.203125q-1.140625 -1.21875 -1.140625 -3.421875q0 -2.265625 1.15625 -3.515625q1.171875 -1.25 3.03125 -1.25q1.8125 0 2.953125 1.234375q1.140625 1.21875 1.140625 3.4375q0 0.140625 -0.015625 0.40625l-6.703125 0q0.09375 1.484375 0.84375 2.28125q0.75 0.78125 1.875 0.78125q0.84375 0 1.4375 -0.4375q0.59375 -0.4375 0.9375 -1.40625zm-5.0 -2.46875l5.015625 0q-0.109375 -1.125 -0.578125 -1.703125q-0.734375 -0.875 -1.890625 -0.875q-1.046875 0 -1.765625 0.703125q-0.703125 0.703125 -0.78125 1.875zm14.637093 2.46875l1.5625 0.1875q-0.359375 1.390625 -1.375 2.15625q-1.0 0.75 -2.5625 0.75q-1.984375 0 -3.1406326 -1.203125q-1.140625 -1.21875 -1.140625 -3.421875q0 -2.265625 1.15625 -3.515625q1.1718826 -1.25 3.0312576 -1.25q1.8125 0 2.953125 1.234375q1.140625 1.21875 1.140625 3.4375q0 0.140625 -0.015625 0.40625l-6.7031326 0q0.09375 1.484375 0.8437576 2.28125q0.75 0.78125 1.875 0.78125q0.84375 0 1.4375 -0.4375q0.59375 -0.4375 0.9375 -1.40625zm-5.0000076 -2.46875l5.0156326 0q-0.109375 -1.125 -0.578125 -1.703125q-0.734375 -0.875 -1.890625 -0.875q-1.046875 0 -1.765625 0.703125q-0.7031326 0.703125 -0.7812576 1.875zm8.496468 5.359375l0 -12.40625l1.515625 0l0 7.078125l3.609375 -3.65625l1.96875 0l-3.4375 3.328125l3.78125 5.65625l-1.875 0l-2.96875 -4.59375l-1.078125 1.03125l0 3.5625l-1.515625 0z" fill-rule="nonzero"/><path fill="#000000" fill-opacity="0.0" d="m125.238495 -4.9500804l23.905518 0l0 53.322834l-23.905518 0z" fill-rule="evenodd"/><path fill="#000000" d="m130.4799 30.929916l5.3125 -7.546875l-4.90625 -6.96875l3.0625 0l2.234375 3.40625q0.625 0.96875 1.015625 1.625q0.59375 -0.90625 1.109375 -1.609375l2.4375 -3.421875l2.9375 0l-5.015625 6.828125l5.40625 7.6875l-3.015625 0l-2.984375 -4.515625l-0.796875 -1.21875l-3.8125 5.734375l-2.984375 0z" fill-rule="nonzero"/><path fill="#000000" fill-opacity="0.0" d="m138.98428 -4.9500804l66.01575 0l0 74.33071l-66.01575 0z" fill-rule="evenodd"/><path fill="#000000" d="m170.59918 28.570541l0 2.359375l-13.25 0q-0.015625 -0.890625 0.296875 -1.703125q0.5 -1.359375 1.609375 -2.671875q1.125 -1.3125 3.21875 -3.03125q3.28125 -2.6875 4.421875 -4.25q1.15625 -1.5625 1.15625 -2.953125q0 -1.46875 -1.046875 -2.46875q-1.046875 -1.015625 -2.734375 -1.015625q-1.78125 0 -2.84375 1.078125q-1.0625 1.0625 -1.078125 2.953125l-2.53125 -0.265625q0.265625 -2.828125 1.953125 -4.3125q1.703125 -1.484375 4.5625 -1.484375q2.875 0 4.546875 1.609375q1.6875 1.59375 1.6875 3.953125q0 1.203125 -0.5 2.375q-0.484375 1.15625 -1.625 2.4375q-1.140625 1.28125 -3.78125 3.53125q-2.21875 1.859375 -2.859375 2.53125q-0.625 0.65625 -1.03125 1.328125l9.828125 0zm15.416016 -12.78125l-2.453125 0.203125q-0.328125 -1.453125 -0.921875 -2.109375q-1.0 -1.0625 -2.46875 -1.0625q-1.171875 0 -2.0625 0.65625q-1.15625 0.859375 -1.828125 2.484375q-0.671875 1.625 -0.703125 4.625q0.890625 -1.34375 2.171875 -2.0q1.28125 -0.65625 2.703125 -0.65625q2.453125 0 4.171875 1.8125q1.734375 1.8125 1.734375 4.671875q0 1.890625 -0.8125 3.515625q-0.8125 1.625 -2.234375 2.484375q-1.421875 0.859375 -3.21875 0.859375q-3.078125 0 -5.03125 -2.265625q-1.9375 -2.265625 -1.9375 -7.453125q0 -5.8125 2.15625 -8.453125q1.875 -2.296875 5.046875 -2.296875q2.359375 0 3.859375 1.328125q1.515625 1.328125 1.828125 3.65625zm-10.046875 8.640625q0 1.28125 0.53125 2.4375q0.546875 1.15625 1.515625 1.765625q0.96875 0.609375 2.03125 0.609375q1.5625 0 2.671875 -1.25q1.125 -1.265625 1.125 -3.421875q0 -2.078125 -1.109375 -3.265625q-1.09375 -1.203125 -2.78125 -1.203125q-1.671875 0 -2.828125 1.203125q-1.15625 1.1875 -1.15625 3.125z" fill-rule="nonzero"/><path fill="#000000" d="m150.31651 54.289917l-2.75 -8.984375l1.578125 0l1.421875 5.1875l0.546875 1.921875q0.03125 -0.140625 0.453125 -1.84375l1.4375 -5.265625l1.5625 0l1.34375 5.203125l0.453125 1.71875l0.515625 -1.734375l1.53125 -5.1875l1.484375 0l-2.8125 8.984375l-1.578125 0l-1.421875 -5.375l-0.359375 -1.53125l-1.8125 6.90625l-1.59375 0zm17.013824 -2.890625l1.5625 0.1875q-0.359375 1.390625 -1.375 2.15625q-1.0 0.75 -2.5625 0.75q-1.984375 0 -3.140625 -1.203125q-1.140625 -1.21875 -1.140625 -3.421875q0 -2.265625 1.15625 -3.515625q1.171875 -1.25 3.03125 -1.25q1.8125 0 2.953125 1.234375q1.140625 1.21875 1.140625 3.4375q0 0.140625 -0.015625 0.40625l-6.703125 0q0.09375 1.484375 0.84375 2.28125q0.75 0.78125 1.875 0.78125q0.84375 0 1.4375 -0.4375q0.59375 -0.4375 0.9375 -1.40625zm-5.0 -2.46875l5.015625 0q-0.109375 -1.125 -0.578125 -1.703125q-0.734375 -0.875 -1.890625 -0.875q-1.046875 0 -1.765625 0.703125q-0.703125 0.703125 -0.78125 1.875zm14.637085 2.46875l1.5625 0.1875q-0.359375 1.390625 -1.375 2.15625q-1.0 0.75 -2.5625 0.75q-1.984375 0 -3.140625 -1.203125q-1.140625 -1.21875 -1.140625 -3.421875q0 -2.265625 1.15625 -3.515625q1.171875 -1.25 3.03125 -1.25q1.8125 0 2.953125 1.234375q1.140625 1.21875 1.140625 3.4375q0 0.140625 -0.015625 0.40625l-6.703125 0q0.09375 1.484375 0.84375 2.28125q0.75 0.78125 1.875 0.78125q0.84375 0 1.4375 -0.4375q0.59375 -0.4375 0.9375 -1.40625zm-5.0 -2.46875l5.015625 0q-0.109375 -1.125 -0.578125 -1.703125q-0.734375 -0.875 -1.890625 -0.875q-1.046875 0 -1.765625 0.703125q-0.703125 0.703125 -0.78125 1.875zm8.49646 5.359375l0 -12.40625l1.515625 0l0 7.078125l3.609375 -3.65625l1.96875 0l-3.4375 3.328125l3.78125 5.65625l-1.875 0l-2.96875 -4.59375l-1.078125 1.03125l0 3.5625l-1.515625 0zm8.0390625 -2.6875l1.515625 -0.234375q0.125 0.90625 0.703125 1.390625q0.578125 0.484375 1.609375 0.484375q1.0625 0 1.5625 -0.421875q0.515625 -0.4375 0.515625 -1.015625q0 -0.515625 -0.453125 -0.8125q-0.3125 -0.203125 -1.5625 -0.515625q-1.671875 -0.421875 -2.328125 -0.71875q-0.640625 -0.3125 -0.984375 -0.859375q-0.328125 -0.546875 -0.328125 -1.203125q0 -0.609375 0.28125 -1.109375q0.28125 -0.515625 0.75 -0.859375q0.359375 -0.265625 0.96875 -0.4375q0.609375 -0.1875 1.3125 -0.1875q1.0625 0 1.859375 0.3125q0.796875 0.296875 1.171875 0.828125q0.390625 0.515625 0.53125 1.375l-1.484375 0.203125q-0.109375 -0.6875 -0.59375 -1.078125q-0.484375 -0.390625 -1.375 -0.390625q-1.046875 0 -1.5 0.34375q-0.4375 0.34375 -0.4375 0.8125q0 0.296875 0.171875 0.53125q0.1875 0.25 0.59375 0.40625q0.21875 0.09375 1.34375 0.390625q1.609375 0.4375 2.25 0.71875q0.640625 0.265625 1.0 0.796875q0.375 0.515625 0.375 1.296875q0 0.765625 -0.453125 1.4375q-0.4375 0.671875 -1.28125 1.046875q-0.828125 0.359375 -1.890625 0.359375q-1.75 0 -2.671875 -0.71875q-0.921875 -0.734375 -1.171875 -2.171875z" fill-rule="nonzero"/><path fill="#000000" fill-opacity="0.0" d="m208.64555 -4.466086l23.905502 0l0 53.322834l-23.905502 0z" fill-rule="evenodd"/><path fill="#000000" d="m227.30493 19.632662l-13.234375 0l0 -2.296875l13.234375 0l0 2.296875zm0 6.078125l-13.234375 0l0 -2.296875l13.234375 0l0 2.296875z" fill-rule="nonzero"/><path fill="#000000" fill-opacity="0.0" d="m236.19658 -4.8569045l132.15749 0l0 53.322834l-132.15749 0z" fill-rule="evenodd"/><path fill="#000000" d="m250.93703 33.91372l0 -2.468752q-1.84375 -0.234375 -3.0 -0.828125q-1.15625 -0.59375 -2.0 -1.921875q-0.828125 -1.328125 -0.96875 -3.234375l2.46875 -0.46875q0.296875 1.984375 1.015625 2.90625q1.046875 1.3125 2.484375 1.46875l0 -7.828125q-1.515625 -0.296875 -3.09375 -1.1875q-1.1875 -0.65625 -1.828125 -1.8125q-0.625 -1.15625 -0.625 -2.640625q0 -2.625 1.859375 -4.25q1.25 -1.09375 3.6875 -1.34375l0 -1.171875l1.453125 0l0 1.171875q2.140625 0.203125 3.40625 1.265625q1.6093597 1.34375 1.9374847 3.671875l-2.5468597 0.390625q-0.21875 -1.453125 -0.90625 -2.21875q-0.6875 -0.78125 -1.890625 -1.03125l0 7.09375q1.859375 0.46875 2.46875 0.734375q1.140625 0.5 1.8593597 1.234375q0.734375 0.71875 1.125 1.71875q0.390625 1.0 0.390625 2.15625q0 2.5625 -1.640625 4.28125q-1.6249847 1.703125 -4.2031097 1.8125l0 2.500002l-1.453125 0zm0 -21.546877q-1.4375 0.21875 -2.265625 1.15625q-0.8125 0.921875 -0.8125 2.1875q0 1.25 0.703125 2.109375q0.703125 0.84375 2.375 1.34375l0 -6.796875zm1.453125 17.0q1.4375 -0.171875 2.375 -1.234375q0.9375 -1.078125 0.9375 -2.640625q0 -1.34375 -0.671875 -2.15625q-0.65625 -0.8125 -2.640625 -1.453125l0 7.484375zm21.244125 -0.703125l0 2.359375l-13.25 0q-0.015625 -0.890625 0.296875 -1.703125q0.5 -1.359375 1.609375 -2.671875q1.125 -1.3125 3.21875 -3.03125q3.28125 -2.6875 4.421875 -4.25q1.15625 -1.5625 1.15625 -2.953125q0 -1.46875 -1.046875 -2.46875q-1.046875 -1.015625 -2.734375 -1.015625q-1.78125 0 -2.84375 1.078125q-1.0625 1.0625 -1.078125 2.953125l-2.53125 -0.265625q0.265625 -2.828125 1.953125 -4.3125q1.703125 -1.484375 4.5625 -1.484375q2.875 0 4.546875 1.609375q1.6875 1.59375 1.6875 3.953125q0 1.203125 -0.5 2.375q-0.484375 1.15625 -1.625 2.4375q-1.140625 1.28125 -3.78125 3.53125q-2.21875 1.859375 -2.859375 2.53125q-0.625 0.65625 -1.03125 1.328125l9.828125 0zm15.416016 -12.78125l-2.453125 0.203125q-0.328125 -1.453125 -0.921875 -2.109375q-1.0 -1.0625 -2.46875 -1.0625q-1.171875 0 -2.0625 0.65625q-1.15625 0.859375 -1.828125 2.484375q-0.671875 1.625 -0.703125 4.625q0.890625 -1.34375 2.171875 -2.0q1.28125 -0.65625 2.703125 -0.65625q2.453125 0 4.171875 1.8125q1.734375 1.8125 1.734375 4.671875q0 1.890625 -0.8125 3.515625q-0.8125 1.625 -2.234375 2.484375q-1.421875 0.859375 -3.21875 0.859375q-3.078125 0 -5.03125 -2.265625q-1.9375 -2.265625 -1.9375 -7.453125q0 -5.8125 2.15625 -8.453125q1.875 -2.296875 5.046875 -2.296875q2.359375 0 3.859375 1.328125q1.515625 1.328125 1.828125 3.65625zm-10.046875 8.640625q0 1.28125 0.53125 2.4375q0.546875 1.15625 1.515625 1.765625q0.96875 0.609375 2.03125 0.609375q1.5625 0 2.671875 -1.25q1.125 -1.265625 1.125 -3.421875q0 -2.078125 -1.109375 -3.265625q-1.09375 -1.203125 -2.78125 -1.203125q-1.671875 0 -2.828125 1.203125q-1.15625 1.1875 -1.15625 3.125zm12.837891 -3.390625q0 -3.546875 0.734375 -5.71875q0.734375 -2.171875 2.171875 -3.34375q1.453125 -1.171875 3.640625 -1.171875q1.609375 0 2.828125 0.65625q1.21875 0.640625 2.0 1.875q0.796875 1.21875 1.25 2.984375q0.453125 1.75 0.453125 4.71875q0 3.53125 -0.734375 5.703125q-0.71875 2.15625 -2.15625 3.34375q-1.4375 1.1875 -3.640625 1.1875q-2.90625 0 -4.5625 -2.078125q-1.984375 -2.5 -1.984375 -8.15625zm2.53125 0q0 4.9375 1.15625 6.578125q1.15625 1.625 2.859375 1.625q1.6875 0 2.84375 -1.640625q1.15625 -1.640625 1.15625 -6.5625q0 -4.9375 -1.15625 -6.5625q-1.15625 -1.640625 -2.875 -1.640625q-1.703125 0 -2.703125 1.4375q-1.28125 1.828125 -1.28125 6.765625zm14.369141 9.890625l0 -2.796875l2.8125 0l0 2.796875q0 1.5468769 -0.546875 2.500002q-0.546875 0.953125 -1.734375 1.46875l-0.6875 -1.0625q0.78125 -0.328125 1.140625 -1.0q0.375 -0.65625 0.421875 -1.9062519l-1.40625 0zm6.451172 -9.890625q0 -3.546875 0.734375 -5.71875q0.734375 -2.171875 2.171875 -3.34375q1.453125 -1.171875 3.640625 -1.171875q1.609375 0 2.828125 0.65625q1.21875 0.640625 2.0 1.875q0.796875 1.21875 1.25 2.984375q0.453125 1.75 0.453125 4.71875q0 3.53125 -0.734375 5.703125q-0.71875 2.15625 -2.15625 3.34375q-1.4375 1.1875 -3.640625 1.1875q-2.90625 0 -4.5625 -2.078125q-1.984375 -2.5 -1.984375 -8.15625zm2.53125 0q0 4.9375 1.15625 6.578125q1.15625 1.625 2.859375 1.625q1.6875 0 2.84375 -1.640625q1.15625 -1.640625 1.15625 -6.5625q0 -4.9375 -1.15625 -6.5625q-1.15625 -1.640625 -2.875 -1.640625q-1.703125 0 -2.703125 1.4375q-1.28125 1.828125 -1.28125 6.765625zm13.041016 0q0 -3.546875 0.734375 -5.71875q0.734375 -2.171875 2.171875 -3.34375q1.453125 -1.171875 3.640625 -1.171875q1.609375 0 2.828125 0.65625q1.21875 0.640625 2.0 1.875q0.796875 1.21875 1.25 2.984375q0.453125 1.75 0.453125 4.71875q0 3.53125 -0.734375 5.703125q-0.71875 2.15625 -2.15625 3.34375q-1.4375 1.1875 -3.640625 1.1875q-2.90625 0 -4.5625 -2.078125q-1.984375 -2.5 -1.984375 -8.15625zm2.53125 0q0 4.9375 1.15625 6.578125q1.15625 1.625 2.859375 1.625q1.6875 0 2.84375 -1.640625q1.15625 -1.640625 1.15625 -6.5625q0 -4.9375 -1.15625 -6.5625q-1.15625 -1.640625 -2.875 -1.640625q-1.703125 0 -2.703125 1.4375q-1.28125 1.828125 -1.28125 6.765625zm13.041016 0q0 -3.546875 0.734375 -5.71875q0.734375 -2.171875 2.171875 -3.34375q1.453125 -1.171875 3.640625 -1.171875q1.609375 0 2.828125 0.65625q1.21875 0.640625 2.0 1.875q0.796875 1.21875 1.25 2.984375q0.453125 1.75 0.453125 4.71875q0 3.53125 -0.734375 5.703125q-0.71875 2.15625 -2.15625 3.34375q-1.4375 1.1875 -3.640625 1.1875q-2.90625 0 -4.5625 -2.078125q-1.984375 -2.5 -1.984375 -8.15625zm2.53125 0q0 4.9375 1.15625 6.578125q1.15625 1.625 2.859375 1.625q1.6875 0 2.84375 -1.640625q1.15625 -1.640625 1.15625 -6.5625q0 -4.9375 -1.15625 -6.5625q-1.15625 -1.640625 -2.875 -1.640625q-1.703125 0 -2.703125 1.4375q-1.28125 1.828125 -1.28125 6.765625z" fill-rule="nonzero"/><path fill="#000000" fill-opacity="0.0" d="m248.57845 29.01525l106.17323 0l0 82.42519l-106.17323 0z" fill-rule="evenodd"/><path fill="#000000" d="m261.60034 54.65525l-3.28125 -12.40625l1.671875 0l1.890625 8.140625q0.3125 1.265625 0.53125 2.53125q0.46875 -1.984375 0.546875 -2.296875l2.359375 -8.375l1.984375 0l1.78125 6.28125q0.671875 2.328125 0.96875 4.390625q0.234375 -1.171875 0.609375 -2.703125l1.953125 -7.96875l1.640625 0l-3.390625 12.40625l-1.59375 0l-2.609375 -9.453125q-0.328125 -1.1875 -0.390625 -1.453125q-0.1875 0.859375 -0.359375 1.453125l-2.640625 9.453125l-1.671875 0zm13.120087 -4.5q0 -2.484375 1.390625 -3.6875q1.15625 -1.0 2.8125 -1.0q1.859375 0 3.03125 1.21875q1.1875 1.203125 1.1875 3.34375q0 1.734375 -0.53125 2.734375q-0.515625 1.0 -1.515625 1.546875q-0.984375 0.546875 -2.171875 0.546875q-1.875 0 -3.046875 -1.203125q-1.15625 -1.21875 -1.15625 -3.5zm1.5625 0q0 1.734375 0.75 2.59375q0.75 0.859375 1.890625 0.859375q1.140625 0 1.890625 -0.859375q0.75 -0.875 0.75 -2.640625q0 -1.65625 -0.75 -2.515625q-0.75 -0.859375 -1.890625 -0.859375q-1.140625 0 -1.890625 0.859375q-0.75 0.84375 -0.75 2.5625zm8.62146 4.5l0 -8.984375l1.375 0l0 1.359375q0.515625 -0.953125 0.953125 -1.25q0.453125 -0.3125 0.984375 -0.3125q0.78125 0 1.5625 0.484375l-0.515625 1.421875q-0.5625 -0.328125 -1.125 -0.328125q-0.5 0 -0.890625 0.296875q-0.390625 0.296875 -0.5625 0.828125q-0.265625 0.8125 -0.265625 1.78125l0 4.703125l-1.515625 0zm5.1766357 -2.6875l1.515625 -0.234375q0.125 0.90625 0.703125 1.390625q0.578125 0.484375 1.609375 0.484375q1.0625 0 1.5625 -0.421875q0.515625 -0.4375 0.515625 -1.015625q0 -0.515625 -0.453125 -0.8125q-0.3125 -0.203125 -1.5625 -0.515625q-1.671875 -0.421875 -2.328125 -0.71875q-0.640625 -0.3125 -0.984375 -0.859375q-0.328125 -0.546875 -0.328125 -1.203125q0 -0.609375 0.28125 -1.109375q0.28125 -0.515625 0.75 -0.859375q0.359375 -0.265625 0.96875 -0.4375q0.609375 -0.1875 1.3125 -0.1875q1.0625 0 1.859375 0.3125q0.796875 0.296875 1.171875 0.828125q0.390625 0.515625 0.53125 1.375l-1.484375 0.203125q-0.109375 -0.6875 -0.59375 -1.078125q-0.484375 -0.390625 -1.375 -0.390625q-1.046875 0 -1.5 0.34375q-0.4375 0.34375 -0.4375 0.8125q0 0.296875 0.171875 0.53125q0.1875 0.25 0.59375 0.40625q0.21875 0.09375 1.34375 0.390625q1.609375 0.4375 2.25 0.71875q0.640625 0.265625 1.0 0.796875q0.375 0.515625 0.375 1.296875q0 0.765625 -0.453125 1.4375q-0.4375 0.671875 -1.28125 1.046875q-0.828125 0.359375 -1.890625 0.359375q-1.75 0 -2.671875 -0.71875q-0.921875 -0.734375 -1.171875 -2.171875zm12.6015625 1.328125l0.21875 1.34375q-0.640625 0.140625 -1.15625 0.140625q-0.828125 0 -1.28125 -0.265625q-0.453125 -0.265625 -0.640625 -0.6875q-0.1875 -0.4375 -0.1875 -1.796875l0 -5.171875l-1.125 0l0 -1.1875l1.125 0l0 -2.21875l1.515625 -0.921875l0 3.140625l1.53125 0l0 1.1875l-1.53125 0l0 5.25q0 0.65625 0.078125 0.84375q0.078125 0.1875 0.25 0.296875q0.1875 0.109375 0.53125 0.109375q0.25 0 0.671875 -0.0625zm0.89245605 -2.359375l0 -1.53125l4.6875 0l0 1.53125l-4.6875 0zm12.223511 0.421875l1.5 0.203125q-0.234375 1.546875 -1.25 2.421875q-1.015625 0.875 -2.484375 0.875q-1.84375 0 -2.96875 -1.203125q-1.125 -1.203125 -1.125 -3.453125q0 -1.46875 0.484375 -2.546875q0.484375 -1.09375 1.46875 -1.640625q0.984375 -0.546875 2.140625 -0.546875q1.46875 0 2.390625 0.75q0.9375 0.734375 1.203125 2.09375l-1.484375 0.21875q-0.203125 -0.890625 -0.75 -1.34375q-0.53125 -0.46875 -1.296875 -0.46875q-1.140625 0 -1.875 0.828125q-0.71875 0.828125 -0.71875 2.609375q0 1.8125 0.6875 2.640625q0.703125 0.8125 1.828125 0.8125q0.890625 0 1.484375 -0.546875q0.609375 -0.5625 0.765625 -1.703125zm8.6640625 2.1875q-0.84375 0.71875 -1.625 1.015625q-0.78125 0.296875 -1.671875 0.296875q-1.484375 0 -2.28125 -0.71875q-0.796875 -0.734375 -0.796875 -1.859375q0 -0.65625 0.296875 -1.203125q0.3125 -0.546875 0.796875 -0.875q0.484375 -0.328125 1.09375 -0.5q0.4375 -0.109375 1.34375 -0.21875q1.84375 -0.21875 2.71875 -0.53125q0.015625 -0.3125 0.015625 -0.390625q0 -0.9375 -0.4375 -1.3125q-0.578125 -0.515625 -1.734375 -0.515625q-1.078125 0 -1.59375 0.375q-0.5 0.375 -0.75 1.328125l-1.484375 -0.203125q0.203125 -0.953125 0.65625 -1.53125q0.46875 -0.59375 1.34375 -0.90625q0.890625 -0.328125 2.046875 -0.328125q1.15625 0 1.875 0.28125q0.71875 0.265625 1.046875 0.671875q0.34375 0.40625 0.484375 1.03125q0.078125 0.390625 0.078125 1.40625l0 2.03125q0 2.125 0.09375 2.6875q0.09375 0.5625 0.390625 1.078125l-1.59375 0q-0.234375 -0.46875 -0.3125 -1.109375zm-0.125 -3.40625q-0.828125 0.34375 -2.484375 0.578125q-0.9375 0.140625 -1.328125 0.3125q-0.390625 0.171875 -0.609375 0.5q-0.203125 0.3125 -0.203125 0.71875q0 0.609375 0.453125 1.015625q0.46875 0.40625 1.359375 0.40625q0.875 0 1.5625 -0.390625q0.6875 -0.390625 1.015625 -1.046875q0.234375 -0.515625 0.234375 -1.53125l0 -0.5625zm3.293335 1.828125l1.515625 -0.234375q0.125 0.90625 0.703125 1.390625q0.578125 0.484375 1.609375 0.484375q1.0625 0 1.5625 -0.421875q0.515625 -0.4375 0.515625 -1.015625q0 -0.515625 -0.453125 -0.8125q-0.3125 -0.203125 -1.5625 -0.515625q-1.671875 -0.421875 -2.328125 -0.71875q-0.640625 -0.3125 -0.984375 -0.859375q-0.328125 -0.546875 -0.328125 -1.203125q0 -0.609375 0.28125 -1.109375q0.28125 -0.515625 0.75 -0.859375q0.359375 -0.265625 0.96875 -0.4375q0.609375 -0.1875 1.3125 -0.1875q1.0625 0 1.859375 0.3125q0.796875 0.296875 1.171875 0.828125q0.390625 0.515625 0.53125 1.375l-1.484375 0.203125q-0.109375 -0.6875 -0.59375 -1.078125q-0.484375 -0.390625 -1.375 -0.390625q-1.046875 0 -1.5 0.34375q-0.4375 0.34375 -0.4375 0.8125q0 0.296875 0.171875 0.53125q0.1875 0.25 0.59375 0.40625q0.21875 0.09375 1.34375 0.390625q1.609375 0.4375 2.25 0.71875q0.640625 0.265625 1.0 0.796875q0.375 0.515625 0.375 1.296875q0 0.765625 -0.453125 1.4375q-0.4375 0.671875 -1.28125 1.046875q-0.828125 0.359375 -1.890625 0.359375q-1.75 0 -2.671875 -0.71875q-0.921875 -0.734375 -1.171875 -2.171875zm15.4296875 -0.203125l1.5625 0.1875q-0.359375 1.390625 -1.375 2.15625q-1.0 0.75 -2.5625 0.75q-1.984375 0 -3.140625 -1.203125q-1.140625 -1.21875 -1.140625 -3.421875q0 -2.265625 1.15625 -3.515625q1.171875 -1.25 3.03125 -1.25q1.8125 0 2.953125 1.234375q1.140625 1.21875 1.140625 3.4375q0 0.140625 -0.015625 0.40625l-6.703125 0q0.09375 1.484375 0.84375 2.28125q0.75 0.78125 1.875 0.78125q0.84375 0 1.4375 -0.4375q0.59375 -0.4375 0.9375 -1.40625zm-5.0 -2.46875l5.015625 0q-0.109375 -1.125 -0.578125 -1.703125q-0.734375 -0.875 -1.890625 -0.875q-1.046875 0 -1.765625 0.703125q-0.703125 0.703125 -0.78125 1.875z" fill-rule="nonzero"/><path fill="#000000" d="m278.59183 66.09587l-1.515625 0.109375q-0.203125 -0.890625 -0.578125 -1.296875q-0.609375 -0.65625 -1.515625 -0.65625q-0.734375 0 -1.28125 0.40625q-0.71875 0.53125 -1.140625 1.53125q-0.40625 1.0 -0.421875 2.875q0.546875 -0.84375 1.34375 -1.25q0.796875 -0.40625 1.65625 -0.40625q1.53125 0 2.59375 1.125q1.078125 1.125 1.078125 2.890625q0 1.171875 -0.515625 2.171875q-0.5 1.0 -1.375 1.546875q-0.875 0.53125 -2.0 0.53125q-1.90625 0 -3.109375 -1.40625q-1.1875 -1.40625 -1.1875 -4.609375q0 -3.609375 1.328125 -5.234375q1.15625 -1.4218712 3.125 -1.4218712q1.453125 0 2.390625 0.828125q0.9375 0.8124962 1.125 2.2656212zm-6.21875 5.34375q0 0.78125 0.328125 1.5q0.34375 0.71875 0.9375 1.09375q0.59375 0.375 1.265625 0.375q0.953125 0 1.640625 -0.765625q0.703125 -0.78125 0.703125 -2.125q0 -1.28125 -0.6875 -2.015625q-0.671875 -0.75 -1.71875 -0.75q-1.03125 0 -1.75 0.75q-0.71875 0.734375 -0.71875 1.9375zm7.77771 0.296875l0 -1.53125l4.6875 0l0 1.53125l-4.6875 0zm6.3641663 3.71875l0 -8.984375l1.359375 0l0 1.265625q0.421875 -0.671875 1.125 -1.0625q0.703125 -0.40625 1.609375 -0.40625q1.0 0 1.625 0.421875q0.640625 0.40625 0.90625 1.15625q1.0625 -1.578125 2.78125 -1.578125q1.328125 0 2.046875 0.75q0.71875 0.734375 0.71875 2.265625l0 6.171875l-1.515625 0l0 -5.65625q0 -0.921875 -0.15625 -1.3125q-0.140625 -0.40625 -0.53125 -0.65625q-0.375 -0.25 -0.90625 -0.25q-0.953125 0 -1.578125 0.640625q-0.625 0.625 -0.625 2.015625l0 5.21875l-1.515625 0l0 -5.84375q0 -1.015625 -0.375 -1.515625q-0.375 -0.515625 -1.21875 -0.515625q-0.640625 0 -1.1875 0.34375q-0.546875 0.34375 -0.796875 1.0q-0.234375 0.640625 -0.234375 1.875l0 4.65625l-1.53125 0zm13.871948 -4.5q0 -2.484375 1.390625 -3.6875q1.15625 -1.0 2.8125 -1.0q1.859375 0 3.03125 1.21875q1.1875 1.203125 1.1875 3.34375q0 1.734375 -0.53125 2.734375q-0.515625 1.0 -1.515625 1.546875q-0.984375 0.546875 -2.171875 0.546875q-1.875 0 -3.046875 -1.203125q-1.15625 -1.21875 -1.15625 -3.5zm1.5625 0q0 1.734375 0.75 2.59375q0.75 0.859375 1.890625 0.859375q1.140625 0 1.890625 -0.859375q0.75 -0.875 0.75 -2.640625q0 -1.65625 -0.75 -2.515625q-0.75 -0.859375 -1.890625 -0.859375q-1.140625 0 -1.890625 0.859375q-0.75 0.84375 -0.75 2.5625zm8.637085 4.5l0 -8.984375l1.375 0l0 1.28125q0.984375 -1.484375 2.859375 -1.484375q0.8125 0 1.484375 0.296875q0.6875 0.28125 1.015625 0.765625q0.34375 0.46875 0.484375 1.125q0.078125 0.421875 0.078125 1.46875l0 5.53125l-1.515625 0l0 -5.46875q0 -0.921875 -0.1875 -1.375q-0.171875 -0.46875 -0.625 -0.75q-0.453125 -0.28125 -1.0625 -0.28125q-0.96875 0 -1.671875 0.625q-0.703125 0.609375 -0.703125 2.34375l0 4.90625l-1.53125 0zm12.96521 -1.359375l0.21875 1.34375q-0.640625 0.140625 -1.15625 0.140625q-0.828125 0 -1.28125 -0.265625q-0.453125 -0.265625 -0.640625 -0.6875q-0.1875 -0.4375 -0.1875 -1.796875l0 -5.171875l-1.125 0l0 -1.1875l1.125 0l0 -2.21875l1.515625 -0.9218712l0 3.1406212l1.53125 0l0 1.1875l-1.53125 0l0 5.25q0 0.65625 0.078125 0.84375q0.078125 0.1875 0.25 0.296875q0.1875 0.109375 0.53125 0.109375q0.25 0 0.671875 -0.0625zm1.4861755 1.359375l0 -12.406246l1.53125 0l0 4.453121q1.0625 -1.234375 2.6875 -1.234375q1.0 0 1.734375 0.390625q0.734375 0.390625 1.046875 1.09375q0.328125 0.6875 0.328125 2.015625l0 5.6875l-1.53125 0l0 -5.6875q0 -1.15625 -0.5 -1.671875q-0.484375 -0.515625 -1.390625 -0.515625q-0.6875 0 -1.28125 0.359375q-0.59375 0.34375 -0.84375 0.953125q-0.25 0.59375 -0.25 1.640625l0 4.921875l-1.53125 0z" fill-rule="nonzero"/><path fill="#000000" d="m269.38147 96.25525l0 -12.40625l4.671875 0q1.234375 0 1.890625 0.125q0.90625 0.140625 1.515625 0.578125q0.625 0.421875 1.0 1.203125q0.390625 0.765625 0.390625 1.6875q0 1.578125 -1.015625 2.671875q-1.0 1.09375 -3.640625 1.09375l-3.171875 0l0 5.046875l-1.640625 0zm1.640625 -6.5l3.203125 0q1.59375 0 2.25 -0.59375q0.671875 -0.59375 0.671875 -1.671875q0 -0.78125 -0.390625 -1.328125q-0.390625 -0.5625 -1.03125 -0.734375q-0.421875 -0.109375 -1.53125 -0.109375l-3.171875 0l0 4.4375zm9.932709 6.5l0 -12.40625l5.5 0q1.65625 0 2.515625 0.34375q0.875 0.328125 1.390625 1.171875q0.515625 0.84375 0.515625 1.875q0 1.3125 -0.859375 2.21875q-0.859375 0.90625 -2.640625 1.15625q0.65625 0.3125 1.0 0.609375q0.71875 0.671875 1.359375 1.65625l2.15625 3.375l-2.0625 0l-1.640625 -2.578125q-0.71875 -1.125 -1.1875 -1.703125q-0.46875 -0.59375 -0.84375 -0.828125q-0.359375 -0.25 -0.734375 -0.34375q-0.28125 -0.0625 -0.921875 -0.0625l-1.90625 0l0 5.515625l-1.640625 0zm1.640625 -6.921875l3.53125 0q1.125 0 1.75 -0.234375q0.640625 -0.234375 0.96875 -0.75q0.34375 -0.515625 0.34375 -1.109375q0 -0.890625 -0.640625 -1.453125q-0.640625 -0.5625 -2.03125 -0.5625l-3.921875 0l0 4.109375zm11.123199 6.921875l0 -12.40625l1.640625 0l0 12.40625l-1.640625 0zm9.519257 0l0 -7.796875l-1.34375 0l0 -1.1875l1.34375 0l0 -0.953125q0 -0.90625 0.171875 -1.34375q0.21875 -0.59375 0.765625 -0.953125q0.5625 -0.375 1.5625 -0.375q0.640625 0 1.421875 0.140625l-0.234375 1.328125q-0.46875 -0.078125 -0.890625 -0.078125q-0.703125 0 -1.0 0.296875q-0.28125 0.296875 -0.28125 1.109375l0 0.828125l1.75 0l0 1.1875l-1.75 0l0 7.796875l-1.515625 0zm10.345581 0l0 -1.3125q-1.046875 1.515625 -2.84375 1.515625q-0.796875 0 -1.5 -0.296875q-0.6875 -0.3125 -1.015625 -0.765625q-0.328125 -0.46875 -0.46875 -1.140625q-0.09375 -0.4375 -0.09375 -1.421875l0 -5.5625l1.515625 0l0 4.984375q0 1.1875 0.09375 1.609375q0.15625 0.59375 0.609375 0.9375q0.46875 0.34375 1.15625 0.34375q0.6875 0 1.28125 -0.34375q0.609375 -0.359375 0.859375 -0.953125q0.25 -0.609375 0.25 -1.765625l0 -4.8125l1.515625 0l0 8.984375l-1.359375 0zm3.74646 0l0 -8.984375l1.375 0l0 1.28125q0.984375 -1.484375 2.859375 -1.484375q0.8125 0 1.484375 0.296875q0.6875 0.28125 1.015625 0.765625q0.34375 0.46875 0.484375 1.125q0.078125 0.421875 0.078125 1.46875l0 5.53125l-1.515625 0l0 -5.46875q0 -0.921875 -0.1875 -1.375q-0.171875 -0.46875 -0.625 -0.75q-0.453125 -0.28125 -1.0625 -0.28125q-0.96875 0 -1.671875 0.625q-0.703125 0.609375 -0.703125 2.34375l0 4.90625l-1.53125 0zm15.46521 0l0 -1.140625q-0.84375 1.34375 -2.515625 1.34375q-1.0625 0 -1.96875 -0.59375q-0.90625 -0.59375 -1.40625 -1.65625q-0.484375 -1.0625 -0.484375 -2.4375q0 -1.34375 0.4375 -2.4375q0.453125 -1.09375 1.34375 -1.671875q0.90625 -0.59375 2.015625 -0.59375q0.8125 0 1.4375 0.34375q0.640625 0.34375 1.046875 0.890625l0 -4.453125l1.515625 0l0 12.40625l-1.421875 0zm-4.8125 -4.484375q0 1.71875 0.71875 2.578125q0.734375 0.859375 1.734375 0.859375q0.984375 0 1.6875 -0.8125q0.703125 -0.828125 0.703125 -2.5q0 -1.84375 -0.71875 -2.703125q-0.703125 -0.859375 -1.75 -0.859375q-1.015625 0 -1.703125 0.828125q-0.671875 0.828125 -0.671875 2.609375z" fill-rule="nonzero"/></g></svg>