<svg version="1.1" viewBox="0.0 0.0 440.43569553805776 100.0" fill="none" stroke="none" stroke-linecap="square" stroke-miterlimit="10" xmlns:xlink="http://www.w3.org/1999/xlink" xmlns="http://www.w3.org/2000/svg"><clipPath id="p.0"><path d="m0 0l440.4357 0l0 100.0l-440.4357 0l0 -100.0z" clip-rule="nonzero"/></clipPath><g clip-path="url(#p.0)"><path fill="#000000" fill-opacity="0.0" d="m0 0l440.4357 0l0 100.0l-440.4357 0z" fill-rule="evenodd"/><path fill="#000000" fill-opacity="0.0" d="m17.913624 11.166667l109.133865 0l0 77.57481l-109.133865 0z" fill-rule="evenodd"/><path fill="#000000" d="m33.10119 47.096043l0 -2.21875q-1.671875 -0.21875 -2.71875 -0.75q-1.046875 -0.546875 -1.8125 -1.734375q-0.75 -1.203125 -0.875 -2.9375l2.234375 -0.421875q0.265625 1.796875 0.921875 2.640625q0.9375 1.1875 2.25 1.3125l0 -7.078125q-1.375 -0.265625 -2.8125 -1.0625q-1.0625 -0.59375 -1.640625 -1.640625q-0.578125 -1.0625 -0.578125 -2.390627q0 -2.375 1.6875 -3.859375q1.125 -0.984375 3.34375 -1.203125l0 -1.0625l1.3125 0l0 1.0625q1.9375 0.1875 3.078125 1.140625q1.453125 1.203125 1.75 3.328125l-2.296875 0.34375q-0.203125 -1.3125 -0.828125 -2.015625q-0.625 -0.703125 -1.703125 -0.921875l0 6.421877q1.671875 0.421875 2.21875 0.65625q1.046875 0.453125 1.6875 1.109375q0.65625 0.65625 1.015625 1.5625q0.359375 0.90625 0.359375 1.953125q0 2.3125 -1.484375 3.859375q-1.46875 1.546875 -3.796875 1.65625l0 2.25l-1.3125 0zm0 -19.484377q-1.296875 0.1875 -2.046875 1.03125q-0.75 0.84375 -0.75 2.0q0 1.125 0.625 1.8906269q0.640625 0.765625 2.171875 1.234375l0 -6.156252zm1.3125 15.375002q1.296875 -0.15625 2.140625 -1.125q0.84375 -0.96875 0.84375 -2.390625q0 -1.203125 -0.609375 -1.9375q-0.59375 -0.734375 -2.375 -1.328125l0 6.78125zm15.898804 1.5l-2.234375 0l0 -14.187502q-0.796875 0.765625 -2.109375 1.53125q-1.296875 0.7656269 -2.328125 1.1562519l0 -2.156252q1.859375 -0.875 3.25 -2.125q1.40625 -1.25 1.984375 -2.421875l1.4375 0l0 18.203127zm5.6956787 -8.9375q0 -3.21875 0.65625 -5.171877q0.671875 -1.96875 1.96875 -3.03125q1.3125 -1.0625 3.296875 -1.0625q1.453125 0 2.546875 0.59375q1.109375 0.578125 1.828125 1.6875q0.71875 1.109375 1.125 2.703125q0.40625 1.5781269 0.40625 4.281252q0 3.1875 -0.65625 5.15625q-0.65625 1.953125 -1.96875 3.03125q-1.296875 1.0625 -3.28125 1.0625q-2.625 0 -4.125 -1.890625q-1.796875 -2.25 -1.796875 -7.359375zm2.296875 0q0 4.453125 1.03125 5.9375q1.046875 1.484375 2.59375 1.484375q1.53125 0 2.578125 -1.484375q1.046875 -1.484375 1.046875 -5.9375q0 -4.484377 -1.046875 -5.953127q-1.046875 -1.46875 -2.609375 -1.46875q-1.53125 0 -2.453125 1.296875q-1.140625 1.65625 -1.140625 6.125002zm12.992554 8.9375l0 -2.53125l2.53125 0l0 2.53125q0 1.390625 -0.5 2.25q-0.484375 0.859375 -1.5625 1.34375l-0.609375 -0.953125q0.703125 -0.3125 1.03125 -0.921875q0.328125 -0.59375 0.375 -1.71875l-1.265625 0zm5.833847 -8.9375q0 -3.21875 0.65625 -5.171877q0.671875 -1.96875 1.96875 -3.03125q1.3125 -1.0625 3.296875 -1.0625q1.453125 0 2.546875 0.59375q1.109375 0.578125 1.828125 1.6875q0.71875 1.109375 1.125 2.703125q0.40625 1.5781269 0.40625 4.281252q0 3.1875 -0.65625 5.15625q-0.65625 1.953125 -1.96875 3.03125q-1.296875 1.0625 -3.28125 1.0625q-2.625 0 -4.125 -1.890625q-1.796875 -2.25 -1.796875 -7.359375zm2.296875 0q0 4.453125 1.03125 5.9375q1.046875 1.484375 2.59375 1.484375q1.53125 0 2.578125 -1.484375q1.046875 -1.484375 1.046875 -5.9375q0 -4.484377 -1.046875 -5.953127q-1.046875 -1.46875 -2.609375 -1.46875q-1.53125 0 -2.453125 1.296875q-1.140625 1.65625 -1.140625 6.125002zm11.789429 0q0 -3.21875 0.65625 -5.171877q0.671875 -1.96875 1.96875 -3.03125q1.3125 -1.0625 3.296875 -1.0625q1.453125 0 2.546875 0.59375q1.109375 0.578125 1.828125 1.6875q0.71875 1.109375 1.125 2.703125q0.40625 1.5781269 0.40625 4.281252q0 3.1875 -0.65625 5.15625q-0.65625 1.953125 -1.96875 3.03125q-1.296875 1.0625 -3.28125 1.0625q-2.625 0 -4.125 -1.890625q-1.796875 -2.25 -1.796875 -7.359375zm2.296875 0q0 4.453125 1.03125 5.9375q1.046875 1.484375 2.59375 1.484375q1.53125 0 2.578125 -1.484375q1.046875 -1.484375 1.046875 -5.9375q0 -4.484377 -1.046875 -5.953127q-1.046875 -1.46875 -2.609375 -1.46875q-1.53125 0 -2.453125 1.296875q-1.140625 1.65625 -1.140625 6.125002zm11.789429 0q0 -3.21875 0.65625 -5.171877q0.671875 -1.96875 1.96875 -3.03125q1.3125 -1.0625 3.296875 -1.0625q1.453125 0 2.546875 0.59375q1.109375 0.578125 1.828125 1.6875q0.71875 1.109375 1.125 2.703125q0.40625 1.5781269 0.40625 4.281252q0 3.1875 -0.65625 5.15625q-0.65625 1.953125 -1.96875 3.03125q-1.296875 1.0625 -3.28125 1.0625q-2.625 0 -4.125 -1.890625q-1.796875 -2.25 -1.796875 -7.359375zm2.296875 0q0 4.453125 1.03125 5.9375q1.046875 1.484375 2.59375 1.484375q1.53125 0 2.578125 -1.484375q1.046875 -1.484375 1.046875 -5.9375q0 -4.484377 -1.046875 -5.953127q-1.046875 -1.46875 -2.609375 -1.46875q-1.53125 0 -2.453125 1.296875q-1.140625 1.65625 -1.140625 6.125002z" fill-rule="nonzero"/><path fill="#000000" d="m39.826256 72.60792l4.703125 -16.78125l1.59375 0l-4.6875 16.78125l-1.609375 0zm16.245514 -0.28125l-3.59375 -11.75l2.0625 0l1.875 6.78125l0.6875 2.53125q0.046875 -0.203125 0.609375 -2.4375l1.875 -6.875l2.046875 0l1.75 6.8125l0.59375 2.25l0.671875 -2.265625l2.015625 -6.796875l1.9375 0l-3.671875 11.75l-2.078125 0l-1.859375 -7.03125l-0.453125 -2.0l-2.390625 9.03125l-2.078125 0zm22.236618 -3.78125l2.0625 0.25q-0.484375 1.8125 -1.8125 2.8125q-1.3125 0.984375 -3.359375 0.984375q-2.578125 0 -4.09375 -1.578125q-1.5 -1.59375 -1.5 -4.46875q0 -2.953125 1.53125 -4.59375q1.53125 -1.640625 3.953125 -1.640625q2.359375 0 3.84375 1.609375q1.5 1.59375 1.5 4.515625q0 0.171875 0 0.53125l-8.765625 0q0.109375 1.9375 1.09375 2.96875q0.984375 1.015625 2.453125 1.015625q1.09375 0 1.859375 -0.5625q0.78125 -0.578125 1.234375 -1.84375zm-6.53125 -3.21875l6.5625 0q-0.140625 -1.484375 -0.75 -2.21875q-0.953125 -1.15625 -2.46875 -1.15625q-1.375 0 -2.3125 0.921875q-0.9375 0.90625 -1.03125 2.453125zm19.131577 3.21875l2.0625 0.25q-0.484375 1.8125 -1.8125 2.8125q-1.3125 0.984375 -3.359375 0.984375q-2.578125 0 -4.09375 -1.578125q-1.5 -1.59375 -1.5 -4.46875q0 -2.953125 1.53125 -4.59375q1.53125 -1.640625 3.953125 -1.640625q2.359375 0 3.84375 1.609375q1.5 1.59375 1.5 4.515625q0 0.171875 0 0.53125l-8.765625 0q0.109375 1.9375 1.09375 2.96875q0.984375 1.015625 2.453125 1.015625q1.09375 0 1.859375 -0.5625q0.78125 -0.578125 1.234375 -1.84375zm-6.53125 -3.21875l6.5625 0q-0.140625 -1.484375 -0.75 -2.21875q-0.953125 -1.15625 -2.46875 -1.15625q-1.375 0 -2.3125 0.921875q-0.9375 0.90625 -1.03125 2.453125zm11.100327 7.0l0 -16.21875l2.0 0l0 9.25l4.703125 -4.78125l2.578125 0l-4.484375 4.359375l4.9375 7.390625l-2.453125 0l-3.875 -6.0l-1.40625 1.34375l0 4.65625l-2.0 0z" fill-rule="nonzero"/><path fill="#000000" fill-opacity="0.0" d="m121.7299 11.166667l23.90551 0l0 50.07874l-23.90551 0z" fill-rule="evenodd"/><path fill="#000000" d="m127.62366 44.486668l4.796875 -6.828125l-4.4375 -6.312502l2.78125 0l2.015625 3.093752q0.5625 0.875 0.921875 1.46875q0.53125 -0.828125 1.0 -1.453125l2.203125 -3.109377l2.65625 0l-4.53125 6.187502l4.890625 6.953125l-2.734375 0l-2.703125 -4.078125l-0.71875 -1.109375l-3.453125 5.1875l-2.6875 0z" fill-rule="nonzero"/><path fill="#000000" fill-opacity="0.0" d="m145.7299 11.166667l66.01575 0l0 75.93701l-66.01575 0z" fill-rule="evenodd"/><path fill="#000000" d="m177.487 42.346043l0 2.140625l-11.984375 0q-0.03125 -0.796875 0.265625 -1.546875q0.453125 -1.21875 1.453125 -2.40625q1.015625 -1.1875 2.921875 -2.75q2.953125 -2.421875 3.984375 -3.828125q1.046875 -1.421875 1.046875 -2.687502q0 -1.328125 -0.953125 -2.234375q-0.9375 -0.90625 -2.453125 -0.90625q-1.609375 0 -2.578125 0.96875q-0.96875 0.953125 -0.984375 2.671875l-2.28125 -0.234375q0.234375 -2.5625 1.765625 -3.90625q1.53125 -1.34375 4.125 -1.34375q2.609375 0 4.125 1.453125q1.515625 1.4375 1.515625 3.578125q0 1.0937519 -0.453125 2.140627q-0.4375 1.046875 -1.46875 2.21875q-1.03125 1.15625 -3.421875 3.1875q-2.0 1.6875 -2.578125 2.28125q-0.5625 0.59375 -0.9375 1.203125l8.890625 0zm13.945679 -11.546877l-2.21875 0.171875q-0.296875 -1.3125 -0.84375 -1.90625q-0.90625 -0.953125 -2.21875 -0.953125q-1.0625 0 -1.875 0.59375q-1.046875 0.765625 -1.65625 2.234375q-0.609375 1.4687519 -0.625 4.203127q0.796875 -1.234375 1.953125 -1.828125q1.171875 -0.59375 2.4375 -0.59375q2.234375 0 3.796875 1.640625q1.5625 1.640625 1.5625 4.234375q0 1.703125 -0.734375 3.171875q-0.734375 1.46875 -2.03125 2.25q-1.28125 0.78125 -2.90625 0.78125q-2.78125 0 -4.546875 -2.046875q-1.75 -2.046875 -1.75 -6.75q0 -5.250002 1.9375 -7.640627q1.703125 -2.078125 4.5625 -2.078125q2.140625 0 3.5 1.203125q1.375 1.1875 1.65625 3.3125zm-9.09375 7.812502q0 1.15625 0.484375 2.203125q0.484375 1.046875 1.359375 1.609375q0.890625 0.546875 1.84375 0.546875q1.421875 0 2.421875 -1.140625q1.015625 -1.140625 1.015625 -3.09375q0 -1.875 -1.0 -2.953125q-1.0 -1.09375 -2.515625 -1.09375q-1.515625 0 -2.5625 1.09375q-1.046875 1.078125 -1.046875 2.828125z" fill-rule="nonzero"/><path fill="#000000" d="m152.04942 71.04667l-3.390625 -11.0625l1.9375 0l1.765625 6.390625l0.65625 2.375q0.03125 -0.1875 0.5625 -2.28125l1.765625 -6.484375l1.921875 0l1.65625 6.421875l0.546875 2.109375l0.640625 -2.140625l1.890625 -6.390625l1.828125 0l-3.453125 11.0625l-1.953125 0l-1.75 -6.625l-0.4375 -1.890625l-2.234375 8.515625l-1.953125 0zm20.933746 -3.5625l1.921875 0.234375q-0.453125 1.703125 -1.6875 2.640625q-1.234375 0.9375 -3.171875 0.9375q-2.421875 0 -3.84375 -1.484375q-1.421875 -1.5 -1.421875 -4.203125q0 -2.796875 1.4375 -4.328125q1.4375 -1.546875 3.734375 -1.546875q2.21875 0 3.609375 1.515625q1.40625 1.5 1.40625 4.25q0 0.15625 0 0.5l-8.25 0q0.109375 1.8125 1.03125 2.78125q0.921875 0.96875 2.3125 0.96875q1.03125 0 1.75 -0.53125q0.734375 -0.546875 1.171875 -1.734375zm-6.15625 -3.03125l6.171875 0q-0.125 -1.390625 -0.703125 -2.09375q-0.90625 -1.078125 -2.328125 -1.078125q-1.296875 0 -2.171875 0.859375q-0.875 0.859375 -0.96875 2.3125zm18.017944 3.03125l1.921875 0.234375q-0.453125 1.703125 -1.6875 2.640625q-1.234375 0.9375 -3.171875 0.9375q-2.421875 0 -3.84375 -1.484375q-1.421875 -1.5 -1.421875 -4.203125q0 -2.796875 1.4375 -4.328125q1.4375 -1.546875 3.734375 -1.546875q2.21875 0 3.609375 1.515625q1.40625 1.5 1.40625 4.25q0 0.15625 0 0.5l-8.25 0q0.109375 1.8125 1.03125 2.78125q0.921875 0.96875 2.3125 0.96875q1.03125 0 1.75 -0.53125q0.734375 -0.546875 1.171875 -1.734375zm-6.15625 -3.03125l6.171875 0q-0.125 -1.390625 -0.703125 -2.09375q-0.90625 -1.078125 -2.328125 -1.078125q-1.296875 0 -2.171875 0.859375q-0.875 0.859375 -0.96875 2.3125zm10.455444 6.59375l0 -15.265625l1.875 0l0 8.703125l4.4375 -4.5l2.421875 0l-4.234375 4.109375l4.65625 6.953125l-2.3125 0l-3.65625 -5.65625l-1.3125 1.265625l0 4.390625l-1.875 0zm9.8984375 -3.296875l1.859375 -0.296875q0.15625 1.109375 0.859375 1.703125q0.71875 0.59375 2.0 0.59375q1.296875 0 1.921875 -0.515625q0.625 -0.53125 0.625 -1.234375q0 -0.640625 -0.5625 -1.0q-0.375 -0.25 -1.90625 -0.640625q-2.0625 -0.515625 -2.859375 -0.890625q-0.796875 -0.390625 -1.21875 -1.0625q-0.40625 -0.671875 -0.40625 -1.484375q0 -0.734375 0.328125 -1.359375q0.34375 -0.640625 0.9375 -1.0625q0.4375 -0.3125 1.1875 -0.53125q0.75 -0.234375 1.625 -0.234375q1.296875 0 2.28125 0.375q0.984375 0.375 1.453125 1.015625q0.46875 0.640625 0.640625 1.71875l-1.828125 0.25q-0.125 -0.859375 -0.734375 -1.328125q-0.59375 -0.484375 -1.6875 -0.484375q-1.28125 0 -1.84375 0.421875q-0.546875 0.421875 -0.546875 1.0q0 0.359375 0.234375 0.65625q0.21875 0.296875 0.71875 0.5q0.28125 0.109375 1.65625 0.484375q1.984375 0.53125 2.765625 0.875q0.796875 0.328125 1.234375 0.984375q0.453125 0.640625 0.453125 1.59375q0 0.9375 -0.546875 1.765625q-0.546875 0.828125 -1.578125 1.28125q-1.03125 0.453125 -2.328125 0.453125q-2.15625 0 -3.296875 -0.890625q-1.125 -0.90625 -1.4375 -2.65625z" fill-rule="nonzero"/><path fill="#000000" fill-opacity="0.0" d="m209.37753 11.6506605l23.905518 0l0 50.07874l-23.905518 0z" fill-rule="evenodd"/><path fill="#000000" d="m227.39522 34.31441l-11.96875 0l0 -2.078125l11.96875 0l0 2.078125zm0 5.5l-11.96875 0l0 -2.078125l11.96875 0l0 2.078125z" fill-rule="nonzero"/><path fill="#000000" fill-opacity="0.0" d="m226.96301 11.258531l195.55905 0l0 77.57481l-195.55905 0z" fill-rule="evenodd"/><path fill="#000000" d="m278.32004 47.187904l0 -2.21875q-1.671875 -0.21875 -2.71875 -0.75q-1.046875 -0.546875 -1.8125 -1.734375q-0.75 -1.203125 -0.875 -2.9375l2.234375 -0.421875q0.265625 1.796875 0.921875 2.640625q0.9375 1.1875 2.25 1.3125l0 -7.078125q-1.375 -0.265625 -2.8125 -1.0625q-1.0625 -0.59375 -1.640625 -1.640625q-0.578125 -1.0625 -0.578125 -2.390625q0 -2.375 1.6875 -3.859375q1.125 -0.984375 3.34375 -1.203125l0 -1.0625l1.3125 0l0 1.0625q1.9375 0.1875 3.078125 1.140625q1.453125 1.203125 1.75 3.328125l-2.296875 0.34375q-0.203125 -1.3125 -0.828125 -2.015625q-0.625 -0.703125 -1.703125 -0.921875l0 6.421875q1.671875 0.421875 2.21875 0.65625q1.046875 0.453125 1.6875 1.109375q0.65625 0.65625 1.015625 1.5625q0.359375 0.90625 0.359375 1.953125q0 2.3125 -1.484375 3.859375q-1.46875 1.546875 -3.796875 1.65625l0 2.25l-1.3125 0zm0 -19.484375q-1.296875 0.1875 -2.046875 1.03125q-0.75 0.84375 -0.75 2.0q0 1.125 0.625 1.890625q0.640625 0.765625 2.171875 1.234375l0 -6.15625zm1.3125 15.375q1.296875 -0.15625 2.140625 -1.125q0.84375 -0.96875 0.84375 -2.390625q0 -1.203125 -0.609375 -1.9375q-0.59375 -0.734375 -2.375 -1.328125l0 6.78125zm19.211304 -0.640625l0 2.140625l-11.984375 0q-0.03125 -0.796875 0.265625 -1.546875q0.453125 -1.21875 1.453125 -2.40625q1.015625 -1.1875 2.921875 -2.75q2.953125 -2.421875 3.984375 -3.828125q1.046875 -1.421875 1.046875 -2.6875q0 -1.328125 -0.953125 -2.234375q-0.9375 -0.90625 -2.453125 -0.90625q-1.609375 0 -2.578125 0.96875q-0.96875 0.953125 -0.984375 2.671875l-2.28125 -0.234375q0.234375 -2.5625 1.765625 -3.90625q1.53125 -1.34375 4.125 -1.34375q2.609375 0 4.125 1.453125q1.515625 1.4375 1.515625 3.578125q0 1.09375 -0.453125 2.140625q-0.4375 1.046875 -1.46875 2.21875q-1.03125 1.15625 -3.421875 3.1875q-2.0 1.6875 -2.578125 2.28125q-0.5625 0.59375 -0.9375 1.203125l8.890625 0zm13.945679 -11.546875l-2.21875 0.171875q-0.296875 -1.3125 -0.84375 -1.90625q-0.90625 -0.953125 -2.21875 -0.953125q-1.0625 0 -1.875 0.59375q-1.046875 0.765625 -1.65625 2.234375q-0.609375 1.46875 -0.625 4.203125q0.796875 -1.234375 1.953125 -1.828125q1.171875 -0.59375 2.4375 -0.59375q2.234375 0 3.796875 1.640625q1.5625 1.640625 1.5625 4.234375q0 1.703125 -0.734375 3.171875q-0.734375 1.46875 -2.03125 2.25q-1.28125 0.78125 -2.90625 0.78125q-2.78125 0 -4.546875 -2.046875q-1.75 -2.046875 -1.75 -6.75q0 -5.25 1.9375 -7.640625q1.703125 -2.078125 4.5625 -2.078125q2.140625 0 3.5 1.203125q1.375 1.1875 1.65625 3.3125zm-9.09375 7.8125q0 1.15625 0.484375 2.203125q0.484375 1.046875 1.359375 1.609375q0.890625 0.546875 1.84375 0.546875q1.421875 0 2.421875 -1.140625q1.015625 -1.140625 1.015625 -3.09375q0 -1.875 -1.0 -2.953125q-1.0 -1.09375 -2.515625 -1.09375q-1.515625 0 -2.5625 1.09375q-1.046875 1.078125 -1.046875 2.828125zm11.617554 -3.0625q0 -3.21875 0.65625 -5.171875q0.671875 -1.96875 1.96875 -3.03125q1.3125 -1.0625 3.296875 -1.0625q1.453125 0 2.546875 0.59375q1.109375 0.578125 1.828125 1.6875q0.71875 1.109375 1.125 2.703125q0.40625 1.578125 0.40625 4.28125q0 3.1875 -0.65625 5.15625q-0.65625 1.953125 -1.96875 3.03125q-1.296875 1.0625 -3.28125 1.0625q-2.625 0 -4.125 -1.890625q-1.796875 -2.25 -1.796875 -7.359375zm2.296875 0q0 4.453125 1.03125 5.9375q1.046875 1.484375 2.59375 1.484375q1.53125 0 2.578125 -1.484375q1.046875 -1.484375 1.046875 -5.9375q0 -4.484375 -1.046875 -5.953125q-1.046875 -1.46875 -2.609375 -1.46875q-1.53125 0 -2.453125 1.296875q-1.140625 1.65625 -1.140625 6.125zm12.992554 8.9375l0 -2.53125l2.53125 0l0 2.53125q0 1.390625 -0.5 2.25q-0.484375 0.859375 -1.5625 1.34375l-0.609375 -0.953125q0.703125 -0.3125 1.03125 -0.921875q0.328125 -0.59375 0.375 -1.71875l-1.265625 0zm5.833832 -8.9375q0 -3.21875 0.65625 -5.171875q0.671875 -1.96875 1.96875 -3.03125q1.3125 -1.0625 3.296875 -1.0625q1.453125 0 2.546875 0.59375q1.109375 0.578125 1.828125 1.6875q0.71875 1.109375 1.125 2.703125q0.40625 1.578125 0.40625 4.28125q0 3.1875 -0.65625 5.15625q-0.65625 1.953125 -1.96875 3.03125q-1.296875 1.0625 -3.28125 1.0625q-2.625 0 -4.125 -1.890625q-1.796875 -2.25 -1.796875 -7.359375zm2.296875 0q0 4.453125 1.03125 5.9375q1.046875 1.484375 2.59375 1.484375q1.53125 0 2.578125 -1.484375q1.046875 -1.484375 1.046875 -5.9375q0 -4.484375 -1.046875 -5.953125q-1.046875 -1.46875 -2.609375 -1.46875q-1.53125 0 -2.453125 1.296875q-1.140625 1.65625 -1.140625 6.125zm11.789429 0q0 -3.21875 0.65625 -5.171875q0.671875 -1.96875 1.96875 -3.03125q1.3125 -1.0625 3.296875 -1.0625q1.453125 0 2.546875 0.59375q1.109375 0.578125 1.828125 1.6875q0.71875 1.109375 1.125 2.703125q0.40625 1.578125 0.40625 4.28125q0 3.1875 -0.65625 5.15625q-0.65625 1.953125 -1.96875 3.03125q-1.296875 1.0625 -3.28125 1.0625q-2.625 0 -4.125 -1.890625q-1.796875 -2.25 -1.796875 -7.359375zm2.296875 0q0 4.453125 1.03125 5.9375q1.046875 1.484375 2.59375 1.484375q1.53125 0 2.578125 -1.484375q1.046875 -1.484375 1.046875 -5.9375q0 -4.484375 -1.046875 -5.953125q-1.046875 -1.46875 -2.609375 -1.46875q-1.53125 0 -2.453125 1.296875q-1.140625 1.65625 -1.140625 6.125zm11.789429 0q0 -3.21875 0.65625 -5.171875q0.671875 -1.96875 1.96875 -3.03125q1.3125 -1.0625 3.296875 -1.0625q1.453125 0 2.546875 0.59375q1.109375 0.578125 1.828125 1.6875q0.71875 1.109375 1.125 2.703125q0.40625 1.578125 0.40625 4.28125q0 3.1875 -0.65625 5.15625q-0.65625 1.953125 -1.96875 3.03125q-1.296875 1.0625 -3.28125 1.0625q-2.625 0 -4.125 -1.890625q-1.796875 -2.25 -1.796875 -7.359375zm2.296875 0q0 4.453125 1.03125 5.9375q1.046875 1.484375 2.59375 1.484375q1.53125 0 2.578125 -1.484375q1.046875 -1.484375 1.046875 -5.9375q0 -4.484375 -1.046875 -5.953125q-1.046875 -1.46875 -2.609375 -1.46875q-1.53125 0 -2.453125 1.296875q-1.140625 1.65625 -1.140625 6.125z" fill-rule="nonzero"/><path fill="#000000" d="m247.31062 60.16853l-1.96875 0.15625q-0.265625 -1.171875 -0.75 -1.703125q-0.8125 -0.84375 -2.0 -0.84375q-0.953125 0 -1.671875 0.53125q-0.9375 0.671875 -1.484375 2.0q-0.53125 1.3125 -0.5625 3.7500038q0.71875 -1.0937538 1.75 -1.6250038q1.046875 -0.53125 2.1875 -0.53125q2.0 0 3.390625 1.46875q1.40625 1.4531288 1.40625 3.7812538q0 1.53125 -0.65625 2.84375q-0.65625 1.296875 -1.8125 2.0q-1.15625 0.703125 -2.609375 0.703125q-2.484375 0 -4.0625 -1.828125q-1.5625 -1.84375 -1.5625 -6.046875q0 -4.703129 1.734375 -6.828129q1.515625 -1.859375 4.078125 -1.859375q1.90625 0 3.125 1.078125q1.234375 1.0625 1.46875 2.953125zm-8.125 7.000004q0 1.03125 0.4375 1.96875q0.4375 0.9375 1.21875 1.4375q0.796875 0.484375 1.65625 0.484375q1.25 0 2.15625 -1.015625q0.921875 -1.015625 0.921875 -2.765625q0 -1.6875 -0.90625 -2.65625q-0.890625 -0.9687538 -2.25 -0.9687538q-1.359375 0 -2.296875 0.9687538q-0.9375 0.96875 -0.9375 2.546875zm10.178452 0.375l0 -2.0l6.125 0l0 2.0l-6.125 0zm8.325958 4.875l0 -11.750004l1.78125 0l0 1.65625q0.546875 -0.875 1.46875 -1.390625q0.921875 -0.53125 2.09375 -0.53125q1.296875 0 2.125 0.546875q0.84375 0.53125 1.1875 1.515625q1.390625 -2.0625 3.625 -2.0625q1.75 0 2.6875 0.96875q0.9375 0.96875 0.9375 2.9843788l0 8.0625l-1.96875 0l0 -7.40625q0 -1.1875038 -0.203125 -1.7031288q-0.1875 -0.53125 -0.703125 -0.84375q-0.5 -0.328125 -1.1875 -0.328125q-1.234375 0 -2.0625 0.828125q-0.8125 0.8125 -0.8125 2.6250038l0 6.828125l-2.0 0l0 -7.640625q0 -1.3125038 -0.484375 -1.9687538q-0.484375 -0.671875 -1.59375 -0.671875q-0.84375 0 -1.5625 0.4375q-0.703125 0.4375 -1.03125 1.296875q-0.3125 0.8437538 -0.3125 2.4531288l0 6.09375l-1.984375 0zm18.122833 -5.875q0 -3.2656288 1.8125 -4.828129q1.515625 -1.3125 3.703125 -1.3125q2.421875 0 3.953125 1.59375q1.546875 1.578125 1.546875 4.375004q0 2.28125 -0.6875 3.578125q-0.671875 1.296875 -1.984375 2.015625q-1.296875 0.71875 -2.828125 0.71875q-2.46875 0 -4.0 -1.578125q-1.515625 -1.578125 -1.515625 -4.5625zm2.046875 0q0 2.25 0.984375 3.375q0.984375 1.125 2.484375 1.125q1.484375 0 2.46875 -1.125q0.984375 -1.125 0.984375 -3.4375q0 -2.1875 -1.0 -3.2968788q-0.984375 -1.125 -2.453125 -1.125q-1.5 0 -2.484375 1.125q-0.984375 1.1093788 -0.984375 3.3593788zm11.303467 5.875l0 -11.750004l1.78125 0l0 1.671875q1.296875 -1.9375 3.75 -1.9375q1.0625 0 1.953125 0.390625q0.890625 0.375 1.328125 1.0q0.4375 0.609375 0.625 1.46875q0.109375 0.546875 0.109375 1.9375038l0 7.21875l-2.0 0l0 -7.140625q0 -1.21875 -0.234375 -1.8125038q-0.234375 -0.609375 -0.828125 -0.96875q-0.578125 -0.359375 -1.375 -0.359375q-1.28125 0 -2.203125 0.8125q-0.921875 0.796875 -0.921875 3.0468788l0 6.421875l-1.984375 0zm16.944061 -1.78125l0.28125 1.765625q-0.84375 0.171875 -1.5 0.171875q-1.078125 0 -1.6875 -0.34375q-0.59375 -0.34375 -0.84375 -0.890625q-0.234375 -0.5625 -0.234375 -2.359375l0 -6.765629l-1.46875 0l0 -1.546875l1.46875 0l0 -2.90625l1.984375 -1.203125l0 4.109375l2.0 0l0 1.546875l-2.0 0l0 6.875004q0 0.84375 0.09375 1.09375q0.109375 0.25 0.34375 0.390625q0.25 0.140625 0.6875 0.140625q0.328125 0 0.875 -0.078125zm1.9508972 1.78125l0 -16.218754l1.984375 0l0 5.8125q1.390625 -1.609375 3.515625 -1.609375q1.3125 0 2.265625 0.515625q0.96875 0.515625 1.375 1.421875q0.421875 0.90625 0.421875 2.6406288l0 7.4375l-1.984375 0l0 -7.4375q0 -1.5000038 -0.65625 -2.1718788q-0.640625 -0.6875 -1.828125 -0.6875q-0.890625 0 -1.671875 0.46875q-0.765625 0.453125 -1.109375 1.234375q-0.328125 0.7812538 -0.328125 2.1718788l0 6.421875l-1.984375 0zm19.144958 0l0 -16.218754l6.109375 0q1.625 0 2.46875 0.15625q1.203125 0.203125 2.0 0.765625q0.8125 0.546875 1.296875 1.5625q0.5 1.0 0.5 2.203125q0 2.078125 -1.3125 3.5156288q-1.3125 1.421875 -4.765625 1.421875l-4.15625 0l0 6.59375l-2.140625 0zm2.140625 -8.500004l4.203125 0q2.078125 0 2.953125 -0.78125q0.875 -0.78125 0.875 -2.171875q0 -1.03125 -0.515625 -1.75q-0.515625 -0.71875 -1.359375 -0.953125q-0.546875 -0.140625 -2.0 -0.140625l-4.15625 0l0 5.796875zm13.002167 8.500004l0 -16.218754l7.1875 0q2.171875 0 3.296875 0.4375q1.125 0.4375 1.796875 1.546875q0.6875 1.109375 0.6875 2.4375q0 1.734375 -1.125 2.921875q-1.109375 1.1718788 -3.453125 1.5000038q0.859375 0.40625 1.296875 0.796875q0.9375 0.875 1.78125 2.171875l2.828125 4.40625l-2.703125 0l-2.140625 -3.375q-0.953125 -1.453125 -1.5625 -2.234375q-0.59375 -0.78125 -1.078125 -1.078125q-0.484375 -0.3125 -0.984375 -0.4375q-0.359375 -0.078125 -1.1875 -0.078125l-2.5 0l0 7.203125l-2.140625 0zm2.140625 -9.062504l4.625 0q1.46875 0 2.296875 -0.296875q0.828125 -0.3125 1.25 -0.96875q0.4375 -0.671875 0.4375 -1.46875q0 -1.140625 -0.84375 -1.875q-0.828125 -0.75 -2.625 -0.75l-5.140625 0l0 5.359375zm14.549103 9.062504l0 -16.218754l2.15625 0l0 16.218754l-2.15625 0zm12.448639 0l0 -10.203129l-1.765625 0l0 -1.546875l1.765625 0l0 -1.25q0 -1.1875 0.203125 -1.75q0.296875 -0.78125 1.015625 -1.265625q0.734375 -0.484375 2.03125 -0.484375q0.84375 0 1.859375 0.203125l-0.296875 1.734375q-0.625 -0.109375 -1.171875 -0.109375q-0.90625 0 -1.28125 0.390625q-0.375 0.390625 -0.375 1.453125l0 1.078125l2.28125 0l0 1.546875l-2.28125 0l0 10.203129l-1.984375 0zm13.513397 0l0 -1.71875q-1.359375 1.984375 -3.71875 1.984375q-1.046875 0 -1.953125 -0.390625q-0.890625 -0.40625 -1.328125 -1.0q-0.4375 -0.609375 -0.609375 -1.484375q-0.125 -0.59375 -0.125 -1.859375l0 -7.281254l1.984375 0l0 6.515629q0 1.5625 0.125 2.109375q0.1875 0.78125 0.796875 1.234375q0.609375 0.4375 1.5 0.4375q0.90625 0 1.6875 -0.453125q0.78125 -0.46875 1.109375 -1.25q0.328125 -0.796875 0.328125 -2.296875l0 -6.296879l1.984375 0l0 11.750004l-1.78125 0zm4.9128113 0l0 -11.750004l1.78125 0l0 1.671875q1.296875 -1.9375 3.75 -1.9375q1.0625 0 1.953125 0.390625q0.890625 0.375 1.328125 1.0q0.4375 0.609375 0.625 1.46875q0.109375 0.546875 0.109375 1.9375038l0 7.21875l-2.0 0l0 -7.140625q0 -1.21875 -0.234375 -1.8125038q-0.234375 -0.609375 -0.828125 -0.96875q-0.578125 -0.359375 -1.375 -0.359375q-1.28125 0 -2.203125 0.8125q-0.921875 0.796875 -0.921875 3.0468788l0 6.421875l-1.984375 0zm20.209717 0l0 -1.484375q-1.109375 1.75 -3.28125 1.75q-1.40625 0 -2.59375 -0.765625q-1.171875 -0.78125 -1.8125 -2.171875q-0.640625 -1.390625 -0.640625 -3.1875q0 -1.765625 0.578125 -3.1875038q0.59375 -1.4375 1.765625 -2.203125q1.171875 -0.765625 2.609375 -0.765625q1.0625 0 1.890625 0.453125q0.84375 0.4375 1.359375 1.15625l0 -5.8125l1.984375 0l0 16.218754l-1.859375 0zm-6.28125 -5.859375q0 2.25 0.9375 3.375q0.953125 1.109375 2.25 1.109375q1.3125 0 2.21875 -1.0625q0.921875 -1.0625 0.921875 -3.265625q0 -2.40625 -0.9375 -3.5312538q-0.921875 -1.125 -2.296875 -1.125q-1.3125 0 -2.203125 1.078125q-0.890625 1.0781288 -0.890625 3.4218788z" fill-rule="nonzero"/></g></svg>