<svg version="1.1" viewBox="0.0 0.0 268.43832020997377 269.12598425196853" fill="none" stroke="none" stroke-linecap="square" stroke-miterlimit="10" xmlns:xlink="http://www.w3.org/1999/xlink" xmlns="http://www.w3.org/2000/svg"><clipPath id="p.0"><path d="m0 0l268.43832 0l0 269.12598l-268.43832 0l0 -269.12598z" clip-rule="nonzero"/></clipPath><g clip-path="url(#p.0)"><path fill="#000000" fill-opacity="0.0" d="m0 0l268.43832 0l0 269.12598l-268.43832 0z" fill-rule="evenodd"/><path fill="#ffffff" d="m-59.136482 204.13654l0 0c0 -91.8793 72.24785 -166.3622 161.37009 -166.3622l0 0c42.798004 0 83.84311 17.527397 114.10588 48.72636c30.262756 31.198967 47.26419 73.51385 47.26419 117.63584l0 0c0 91.8793 -72.24783 166.36221 -161.37007 166.36221l0 0c-89.12224 0 -161.37009 -74.48291 -161.37009 -166.36221z" fill-rule="evenodd"/><path stroke="#666666" stroke-width="1.0" stroke-linejoin="round" stroke-linecap="butt" stroke-dasharray="4.0,3.0" d="m-59.136482 204.13654l0 0c0 -91.8793 72.24785 -166.3622 161.37009 -166.3622l0 0c42.798004 0 83.84311 17.527397 114.10588 48.72636c30.262756 31.198967 47.26419 73.51385 47.26419 117.63584l0 0c0 91.8793 -72.24783 166.36221 -161.37007 166.36221l0 0c-89.12224 0 -161.37009 -74.48291 -161.37009 -166.36221z" fill-rule="evenodd"/><path fill="#f3f3f3" d="m13.573491 204.12204l0 0c0 -48.95764 39.68802 -88.64566 88.64567 -88.64566l0 0c23.510292 0 46.057663 9.339424 62.681946 25.963715c16.624298 16.624283 25.963715 39.17166 25.963715 62.681946l0 0c0 48.957657 -39.688004 88.64569 -88.64566 88.64569l0 0c-48.957653 0 -88.64567 -39.688034 -88.64567 -88.64569z" fill-rule="evenodd"/><path stroke="#666666" stroke-width="1.0" stroke-linejoin="round" stroke-linecap="butt" stroke-dasharray="4.0,3.0" d="m13.573491 204.12204l0 0c0 -48.95764 39.68802 -88.64566 88.64567 -88.64566l0 0c23.510292 0 46.057663 9.339424 62.681946 25.963715c16.624298 16.624283 25.963715 39.17166 25.963715 62.681946l0 0c0 48.957657 -39.688004 88.64569 -88.64566 88.64569l0 0c-48.957653 0 -88.64567 -39.688034 -88.64567 -88.64569z" fill-rule="evenodd"/><path fill="#efefef" d="m24.414698 204.12862l0 0c0 -42.973846 34.83718 -77.81103 77.81103 -77.81103l0 0c20.636765 0 40.4283 8.197914 55.020706 22.790321c14.592392 14.592392 22.790314 34.383926 22.790314 55.020706l0 0c0 42.97383 -34.837173 77.81102 -77.81102 77.81102l0 0c-42.973843 0 -77.81103 -34.83719 -77.81103 -77.81102z" fill-rule="evenodd"/><path stroke="#666666" stroke-width="1.0" stroke-linejoin="round" stroke-linecap="butt" stroke-dasharray="4.0,3.0" d="m24.414698 204.12862l0 0c0 -42.973846 34.83718 -77.81103 77.81103 -77.81103l0 0c20.636765 0 40.4283 8.197914 55.020706 22.790321c14.592392 14.592392 22.790314 34.383926 22.790314 55.020706l0 0c0 42.97383 -34.837173 77.81102 -77.81102 77.81102l0 0c-42.973843 0 -77.81103 -34.83719 -77.81103 -77.81102z" fill-rule="evenodd"/><path fill="#ffffff" d="m159.86493 157.62682l-9.233002 16.229126l-9.166641 2.9945679l-1.5885162 -9.415329l9.145874 -15.858307l3.1730652 1.6927185l0.05404663 -5.4477844l8.973358 5.248291l-4.5825806 2.6460876z" fill-rule="evenodd"/><path stroke="#000000" stroke-width="2.0" stroke-linejoin="round" stroke-linecap="butt" d="m159.86493 157.62682l-9.233002 16.229126l-9.166641 2.9945679l-1.5885162 -9.415329l9.145874 -15.858307l3.1730652 1.6927185l0.05404663 -5.4477844l8.973358 5.248291l-4.5825806 2.6460876z" fill-rule="evenodd"/><defs><radialGradient id="p.1" gradientUnits="userSpaceOnUse" gradientTransform="matrix(-1.7268023749447214 -0.9970821250164645 0.9970821250164645 -1.7268023749447214 0.0 0.0)" spreadMethod="pad" cx="-105.81576505876609" cy="-37.303946636501" fx="-105.81576505876609" fy="-37.303946636501" r="1.7268023490905762"><stop offset="0.0" stop-color="#dfe9fb"/><stop offset="1.0" stop-color="#6e9be7"/></radialGradient></defs><path fill="url(#p.1)" d="m147.63641 171.14108l0 0c-0.6721344 1.1645508 -2.1610565 1.5634918 -3.3256073 0.8910675l0 0c-0.5592346 -0.3229065 -0.9673462 -0.8547516 -1.134552 -1.4785156c-0.16720581 -0.6237793 -0.07980347 -1.2883911 0.2429657 -1.8476257l0 0c0.6721344 -1.1645355 2.1610565 -1.5634766 3.3256073 -0.89105225l0 0c1.1645508 0.6724243 1.5637207 2.1615906 0.8915863 3.326126z" fill-rule="evenodd"/><path stroke="#000000" stroke-width="1.0" stroke-linejoin="round" stroke-linecap="butt" d="m147.63641 171.14108l0 0c-0.6721344 1.1645508 -2.1610565 1.5634918 -3.3256073 0.8910675l0 0c-0.5592346 -0.3229065 -0.9673462 -0.8547516 -1.134552 -1.4785156c-0.16720581 -0.6237793 -0.07980347 -1.2883911 0.2429657 -1.8476257l0 0c0.6721344 -1.1645355 2.1610565 -1.5634766 3.3256073 -0.89105225l0 0c1.1645508 0.6724243 1.5637207 2.1615906 0.8915863 3.326126z" fill-rule="evenodd"/><path fill="#ff0000" d="m151.74518 172.18108c0.8254242 -0.4363098 3.015854 -0.76312256 4.952591 -2.6179047c1.9367371 -1.8547668 6.560959 -7.331833 6.667801 -8.510773c0.10684204 -1.1789551 -5.022293 1.1975708 -6.0267487 1.4370728" fill-rule="evenodd"/><path stroke="#000000" stroke-width="1.0" stroke-linejoin="round" stroke-linecap="butt" d="m151.74518 172.18108c0.8254242 -0.4363098 3.015854 -0.76312256 4.952591 -2.6179047c1.9367371 -1.8547668 6.560959 -7.331833 6.667801 -8.510773c0.10684204 -1.1789551 -5.022293 1.1975708 -6.0267487 1.4370728" fill-rule="evenodd"/><path fill="#ff0000" d="m140.59705 165.74397c-0.03501892 -0.93315125 -0.84747314 -2.993866 -0.21012878 -5.598938c0.6373291 -2.605072 3.0668488 -9.3493805 4.034134 -10.031494c0.9673004 -0.68211365 1.4747009 4.9490204 1.7696381 5.9388275" fill-rule="evenodd"/><path stroke="#000000" stroke-width="1.0" stroke-linejoin="round" stroke-linecap="butt" d="m140.59705 165.74397c-0.03501892 -0.93315125 -0.84747314 -2.993866 -0.21012878 -5.598938c0.6373291 -2.605072 3.0668488 -9.3493805 4.034134 -10.031494c0.9673004 -0.68211365 1.4747009 4.9490204 1.7696381 5.9388275" fill-rule="evenodd"/><path fill="#ffffff" d="m92.37354 29.566156l-0.18043518 -29.059376l10.025406 -11.170032l9.4653015 11.45384l0.009391785 28.491758l-5.5934753 0.18795395l4.165039 7.3846645l-16.177094 -0.09021759l4.118042 -7.1328087z" fill-rule="evenodd"/><path stroke="#000000" stroke-width="2.0" stroke-linejoin="round" stroke-linecap="butt" d="m92.37354 29.566156l-0.18043518 -29.059376l10.025406 -11.170032l9.4653015 11.45384l0.009391785 28.491758l-5.5934753 0.18795395l4.165039 7.3846645l-16.177094 -0.09021759l4.118042 -7.1328087z" fill-rule="evenodd"/><defs><radialGradient id="p.2" gradientUnits="userSpaceOnUse" gradientTransform="matrix(2.314872681044368 0.0 0.0 2.314872681044368 0.0 0.0)" spreadMethod="pad" cx="44.11971954988368" cy="0.7925430264688368" fx="44.11971954988368" fy="0.7925430264688368" r="2.3148727416992188"><stop offset="0.0" stop-color="#dfe9fb"/><stop offset="1.0" stop-color="#6e9be7"/></radialGradient></defs><path fill="url(#p.2)" d="m98.34241 1.8346362l0 0c0 -2.0926774 1.6964493 -3.7891276 3.7891235 -3.7891276l0 0c1.0049438 0 1.9687195 0.39921057 2.6793213 1.1098098c0.7106018 0.7105993 1.1098099 1.6743786 1.1098099 2.679318l0 0c0 2.0926774 -1.6964493 3.7891273 -3.7891312 3.7891273l0 0c-2.0926743 0 -3.7891235 -1.69645 -3.7891235 -3.7891273z" fill-rule="evenodd"/><path stroke="#000000" stroke-width="1.0" stroke-linejoin="round" stroke-linecap="butt" d="m98.34241 1.8346362l0 0c0 -2.0926774 1.6964493 -3.7891276 3.7891235 -3.7891276l0 0c1.0049438 0 1.9687195 0.39921057 2.6793213 1.1098098c0.7106018 0.7105993 1.1098099 1.6743786 1.1098099 2.679318l0 0c0 2.0926774 -1.6964493 3.7891273 -3.7891312 3.7891273l0 0c-2.0926743 0 -3.7891235 -1.69645 -3.7891235 -3.7891273z" fill-rule="evenodd"/><path fill="#ff0000" d="m91.995544 3.630555c-0.77310944 1.2304642 -3.4711761 3.3756316 -4.638672 7.382784c-1.1675034 4.0071526 -3.1394348 14.987979 -2.3663254 16.660133c0.77310944 1.6721535 5.8375015 -5.5226784 7.0049973 -6.6272144" fill-rule="evenodd"/><path stroke="#000000" stroke-width="1.0" stroke-linejoin="round" stroke-linecap="butt" d="m91.995544 3.630555c-0.77310944 1.2304642 -3.4711761 3.3756316 -4.638672 7.382784c-1.1675034 4.0071526 -3.1394348 14.987979 -2.3663254 16.660133c0.77310944 1.6721535 5.8375015 -5.5226784 7.0049973 -6.6272144" fill-rule="evenodd"/><path fill="#ff0000" d="m112.028625 3.630555c0.77310944 1.2304642 3.4711685 3.3756316 4.638672 7.382784c1.1674957 4.0071526 3.1394348 14.987979 2.3663254 16.660133c-0.77311707 1.6721535 -5.8375015 -5.5226784 -7.0049973 -6.6272144" fill-rule="evenodd"/><path stroke="#000000" stroke-width="1.0" stroke-linejoin="round" stroke-linecap="butt" d="m112.028625 3.630555c0.77310944 1.2304642 3.4711685 3.3756316 4.638672 7.382784c1.1674957 4.0071526 3.1394348 14.987979 2.3663254 16.660133c-0.77311707 1.6721535 -5.8375015 -5.5226784 -7.0049973 -6.6272144" fill-rule="evenodd"/><path fill="#000000" fill-opacity="0.0" d="m107.59055 145.5262c6.4584427 -1.4111938 29.954506 -10.062988 38.75065 -8.467194c8.796158 1.5957947 11.688538 15.035004 14.026245 18.041992" fill-rule="evenodd"/><path stroke="#000000" stroke-width="1.0" stroke-linejoin="round" stroke-linecap="butt" d="m107.59055 145.5262c6.4584427 -1.4111938 29.954506 -10.062988 38.75065 -8.467194c8.796158 1.5957947 11.688538 15.035004 14.026245 18.041992" fill-rule="evenodd"/><path fill="#000000" fill-opacity="0.0" d="m138.08401 18.96588l129.6063 0l0 64.62992l-129.6063 0z" fill-rule="evenodd"/><path fill="#0000ff" d="m147.95901 45.479626q0 -1.75 0.0625 -3.5625q0.0625 -1.828125 0.046875 -3.671875q0 -1.84375 -0.15625 -3.671875q-0.140625 -1.828125 -0.53125 -3.578123q0 -0.078125 0.0625 -0.21875q0.078125 -0.140625 0.1875 -0.25q0.109375 -0.109375 0.234375 -0.171875q0.140625 -0.0625 0.296875 -0.015625q0.234375 0.09375 0.390625 0.359375q0.15625 0.265625 0.234375 0.578125q0.078125 0.3125 0.109375 0.59375q0.03125 0.2812481 0.03125 0.4062481l7.015625 -1.7499981q0.15625 0.03125 0.25 0.1875q0.109375 0.15625 0.09375 0.359375q0 0.1875 -0.125 0.375q-0.109375 0.171875 -0.34375 0.25l-6.90625 1.8749981q0 1.1875 0.0625 2.359375q0.0625 1.15625 0.15625 2.359375l5.0625 -1.765625q0 0 0.109375 -0.109375q0.109375 -0.109375 0.265625 -0.1875q0.15625 -0.078125 0.328125 -0.046875q0.171875 0.015625 0.328125 0.265625q0 0.359375 -0.4375 0.671875q-0.4375 0.296875 -1.09375 0.546875q-0.640625 0.25 -1.390625 0.484375q-0.75 0.234375 -1.40625 0.46875q-0.640625 0.234375 -1.078125 0.484375q-0.4375 0.234375 -0.4375 0.515625l-0.125 4.796875q0.265625 0.15625 0.78125 0.09375q0.53125 -0.0625 1.15625 -0.234375q0.640625 -0.1875 1.34375 -0.453125q0.71875 -0.265625 1.375 -0.5q0.65625 -0.25 1.203125 -0.421875q0.5625 -0.1875 0.921875 -0.203125q0.15625 0.015625 0.28125 0.125q0.125 0.09375 0.171875 0.21875q0.0625 0.125 0.015625 0.265625q-0.046875 0.140625 -0.234375 0.234375q-0.71875 0.296875 -1.71875 0.6875q-1.0 0.375 -2.0625 0.734375q-1.0625 0.359375 -2.078125 0.625q-1.0 0.265625 -1.6875 0.3125q-0.25 -0.03125 -0.40625 -0.109375q-0.15625 -0.09375 -0.359375 -0.3125zm8.713211 -0.90625q0.34375 0.28125 0.84375 0.296875q0.5 0.015625 1.046875 -0.140625q0.5625 -0.15625 1.140625 -0.453125q0.578125 -0.296875 1.046875 -0.65625q0.484375 -0.375 0.84375 -0.78125q0.359375 -0.421875 0.484375 -0.78125q0.125 -0.375 -0.03125 -0.6875q-0.140625 -0.3125 -0.640625 -0.5q-0.9375 0.21875 -1.875 0.359375q-0.921875 0.125 -1.65625 0q-0.734375 -0.140625 -1.1875 -0.609375q-0.453125 -0.46875 -0.421875 -1.453125q0.046875 -0.953125 0.515625 -1.78125q0.46875 -0.828125 1.1875 -1.40625q0.71875 -0.59375 1.59375 -0.890625q0.890625 -0.3125 1.796875 -0.265625q0.1875 0.015625 0.34375 0.03125q0.15625 0.015625 0.28125 0.078125q0.125 0.046875 0.1875 0.15625q0.0625 0.109375 0.046875 0.328125q-0.015625 0.265625 -0.203125 0.4375q-0.171875 0.15625 -0.484375 0.125q-1.078125 -0.21875 -1.9375 0.09375q-0.84375 0.296875 -1.421875 0.859375q-0.5625 0.546875 -0.796875 1.25q-0.234375 0.6875 -0.078125 1.25q0.359375 0.65625 0.90625 0.828125q0.5625 0.171875 1.1875 0.125q0.625 -0.0625 1.28125 -0.1875q0.65625 -0.140625 1.1875 -0.09375q0.53125 0.046875 0.875 0.40625q0.34375 0.34375 0.375 1.296875q-0.015625 0.59375 -0.40625 1.15625q-0.375 0.546875 -0.96875 1.03125q-0.59375 0.484375 -1.328125 0.875q-0.71875 0.390625 -1.4375 0.65625q-0.71875 0.25 -1.34375 0.34375q-0.625 0.09375 -1.015625 -0.015625q-0.421875 -0.375 -0.4375 -0.71875q-0.015625 -0.359375 0.5 -0.5625zm7.2301636 -3.359375q0.046875 -0.734375 0.125 -1.5q0.078125 -0.765625 0.21875 -1.484375q0.140625 -0.71875 0.375 -1.359375q0.25 -0.640625 0.609375 -1.109375q0.375 -0.484375 0.90625 -0.75q0.546875 -0.28125 1.296875 -0.25q0.515625 0 0.78125 0.421875q0.28125 0.421875 0.390625 1.03125q0.125 0.59375 0.125 1.234375q0.015625 0.640625 0.015625 1.046875q-0.28125 0.109375 -0.46875 0q-0.1875 -0.109375 -0.3125 -0.359375q-0.109375 -0.25 -0.203125 -0.578125q-0.09375 -0.328125 -0.15625 -0.65625q-0.0625 -0.328125 -0.140625 -0.609375q-0.078125 -0.296875 -0.1875 -0.484375q-0.328125 -0.140625 -0.640625 0.09375q-0.3125 0.234375 -0.578125 0.6875q-0.25 0.4375 -0.46875 1.0625q-0.203125 0.625 -0.34375 1.25q-0.140625 0.625 -0.234375 1.21875q-0.09375 0.578125 -0.09375 0.96875q0.015625 0.546875 0.109375 1.1875q0.09375 0.625 0.296875 1.171875q0.203125 0.546875 0.53125 0.9375q0.328125 0.390625 0.828125 0.5q0.703125 0 1.171875 -0.21875q0.484375 -0.234375 0.796875 -0.59375q0.328125 -0.359375 0.5 -0.796875q0.1875 -0.4375 0.296875 -0.875q0.109375 -0.453125 0.171875 -0.84375q0.078125 -0.390625 0.140625 -0.640625q0.484375 -0.125 0.734375 0.015625q0.265625 0.140625 0.265625 0.34375q0 0.84375 -0.296875 1.671875q-0.28125 0.828125 -0.828125 1.484375q-0.53125 0.65625 -1.296875 1.0625q-0.765625 0.390625 -1.71875 0.390625q-0.828125 0 -1.359375 -0.515625q-0.53125 -0.515625 -0.828125 -1.25q-0.296875 -0.734375 -0.421875 -1.53125q-0.109375 -0.796875 -0.109375 -1.375zm13.792603 4.484375q-0.265625 -0.375 -0.328125 -0.984375q-0.0625 -0.625 -0.078125 -1.3125q0 -0.6875 0 -1.34375q0.015625 -0.671875 -0.09375 -1.140625q-0.859375 1.875 -1.609375 2.921875q-0.75 1.046875 -1.390625 1.5q-0.625 0.4375 -1.140625 0.390625q-0.5 -0.046875 -0.859375 -0.359375q-0.359375 -0.328125 -0.5625 -0.78125q-0.1875 -0.46875 -0.203125 -0.890625q-0.140625 -0.6875 -0.015625 -1.65625q0.125 -0.984375 0.421875 -2.015625q0.296875 -1.046875 0.765625 -2.03125q0.46875 -1.0 1.046875 -1.71875q0.59375 -0.734375 1.265625 -1.09375q0.6875 -0.359375 1.40625 -0.125q0.375 -0.03125 0.609375 0.03125q0.25 0.0625 0.40625 0.265625q0.171875 0.203125 0.234375 0.5625q0.078125 0.34375 0.125 0.890625q-0.046875 1.765625 0.09375 3.015625q0.140625 1.234375 0.3125 2.1875q0.1875 0.9375 0.359375 1.703125q0.171875 0.765625 0.21875 1.59375q0 0.28125 -0.15625 0.4375q-0.140625 0.15625 -0.328125 0.203125q-0.171875 0.046875 -0.328125 -0.03125q-0.15625 -0.0625 -0.171875 -0.21875zm-1.0625 -9.1875q-0.4375 -0.59375 -0.953125 -0.5q-0.5 0.09375 -1.0 0.640625q-0.5 0.53125 -0.96875 1.390625q-0.453125 0.859375 -0.78125 1.84375q-0.328125 0.984375 -0.484375 1.96875q-0.140625 0.96875 -0.0625 1.71875q0.265625 0.8125 0.625 0.984375q0.359375 0.15625 0.78125 -0.125q0.421875 -0.28125 0.859375 -0.890625q0.4375 -0.625 0.828125 -1.34375q0.40625 -0.71875 0.71875 -1.4375q0.328125 -0.71875 0.53125 -1.21875l-0.09375 -3.03125zm2.7663574 14.765625q0.171875 -2.25 0.234375 -3.75q0.078125 -1.5 0.109375 -2.5625q0.03125 -1.0625 0 -1.875q-0.015625 -0.828125 -0.046875 -1.75q-0.03125 -0.921875 -0.078125 -2.109375q-0.046875 -1.203125 -0.09375 -3.015625q0.046875 -0.203125 0.15625 -0.359375q0.109375 -0.15625 0.234375 -0.21875q0.140625 -0.0625 0.296875 0.015625q0.171875 0.0625 0.34375 0.328125l-0.0625 2.359375q0.625 -0.796875 1.390625 -1.453125q0.78125 -0.65625 1.5625 -1.078125q0.796875 -0.4375 1.546875 -0.609375q0.75 -0.171875 1.296875 -0.015625q0.5625 0.140625 0.859375 0.640625q0.3125 0.5 0.21875 1.40625q-0.078125 0.796875 -0.5 1.71875q-0.40625 0.921875 -1.03125 1.828125q-0.609375 0.90625 -1.34375 1.75q-0.71875 0.828125 -1.40625 1.46875q-0.6875 0.640625 -1.28125 1.03125q-0.59375 0.390625 -0.9375 0.390625q-0.03125 0.25 -0.0625 0.703125q-0.03125 0.46875 -0.078125 1.0625q-0.03125 0.59375 -0.078125 1.234375q-0.046875 0.640625 -0.078125 1.21875q-0.03125 0.59375 -0.078125 1.0625q-0.03125 0.46875 -0.03125 0.703125q-0.09375 0.09375 -0.21875 0.15625q-0.125 0.078125 -0.28125 0.09375q-0.140625 0.03125 -0.296875 -0.0625q-0.140625 -0.078125 -0.265625 -0.3125zm1.375 -6.90625q0.59375 -0.234375 1.4375 -0.953125q0.84375 -0.71875 1.671875 -1.71875q0.828125 -1.015625 1.5 -2.21875q0.671875 -1.203125 0.9375 -2.390625q-0.109375 -0.578125 -0.5 -0.765625q-0.375 -0.1875 -0.890625 -0.078125q-0.515625 0.09375 -1.140625 0.453125q-0.609375 0.34375 -1.1875 0.828125q-0.578125 0.484375 -1.078125 1.078125q-0.484375 0.578125 -0.75 1.140625l0 4.625zm7.95874 -3.34375q-0.125 0.109375 -0.453125 0.078125q-0.3125 -0.03125 -0.578125 -0.140625q-0.265625 -0.109375 -0.34375 -0.296875q-0.09375 -0.1875 0.203125 -0.453125q0.125 -0.109375 0.28125 -0.140625q0.15625 -0.046875 0.3125 -0.09375q0.15625 -0.046875 0.25 -0.140625q0.109375 -0.09375 0.125 -0.296875q0.015625 -0.8125 0.125 -1.671875q0.125 -0.859375 0.453125 -1.53125q0.328125 -0.671875 0.9375 -1.0625q0.625 -0.40625 1.625 -0.328125q0.359375 0 0.8125 0.1875q0.453125 0.171875 0.875 0.453125q0.421875 0.28125 0.734375 0.671875q0.3125 0.390625 0.375 0.84375q0.125 0.1875 -0.15625 0.46875q-0.265625 0.265625 -0.765625 0.609375q-0.484375 0.328125 -1.109375 0.671875q-0.609375 0.34375 -1.1875 0.65625q-0.5625 0.3125 -1.0 0.546875q-0.4375 0.234375 -0.5625 0.328125q0.109375 0.703125 0.234375 1.5q0.125 0.78125 0.359375 1.4375q0.234375 0.65625 0.59375 1.078125q0.359375 0.421875 0.90625 0.421875q0.796875 0.0625 1.359375 -0.21875q0.578125 -0.296875 0.953125 -0.765625q0.390625 -0.484375 0.625 -1.046875q0.234375 -0.5625 0.34375 -1.078125q0.125 -0.515625 0.171875 -0.859375q0.046875 -0.359375 0.078125 -0.390625q0.203125 -0.109375 0.453125 -0.015625q0.25 0.09375 0.296875 0.53125q0.015625 0.71875 -0.3125 1.625q-0.328125 0.90625 -0.90625 1.671875q-0.578125 0.765625 -1.375 1.234375q-0.78125 0.46875 -1.671875 0.328125q-0.9375 -0.03125 -1.484375 -0.546875q-0.546875 -0.515625 -0.859375 -1.25q-0.3125 -0.75 -0.46875 -1.5625q-0.140625 -0.828125 -0.25 -1.453125zm4.765625 -3.921875q-0.578125 -0.796875 -1.1875 -1.015625q-0.59375 -0.21875 -1.234375 -0.125q-0.375 0.046875 -0.671875 0.34375q-0.28125 0.296875 -0.46875 0.765625q-0.1875 0.46875 -0.265625 1.046875q-0.0625 0.5625 -0.015625 1.171875l3.84375 -2.1875z" fill-rule="nonzero"/><path fill="#0000ff" d="m147.20901 53.285873q-0.046875 -0.234375 0.0625 -0.359375q0.125 -0.140625 0.296875 -0.140625q0.1875 -0.015625 0.390625 0.109375q0.203125 0.125 0.328125 0.390625l4.5 13.375l3.890625 -13.71875q0.0625 -0.171875 0.234375 -0.21875q0.171875 -0.046875 0.34375 0q0.1875 0.046875 0.328125 0.1875q0.15625 0.125 0.140625 0.296875l-4.234375 14.84375q-0.515625 0.265625 -0.828125 0.234375q-0.3125 -0.046875 -0.53125 -0.234375l-4.921875 -14.765625l0 0zm10.0954895 10.140625q-0.125 0.109375 -0.453125 0.078125q-0.3125 -0.03125 -0.578125 -0.140625q-0.265625 -0.109375 -0.34375 -0.296875q-0.09375 -0.1875 0.203125 -0.453125q0.125 -0.109375 0.28125 -0.140625q0.15625 -0.046875 0.3125 -0.09375q0.15625 -0.046875 0.25 -0.140625q0.109375 -0.09375 0.125 -0.296875q0.015625 -0.8125 0.125 -1.671875q0.125 -0.859375 0.453125 -1.53125q0.328125 -0.671875 0.9375 -1.0625q0.625 -0.40625 1.625 -0.328125q0.359375 0 0.8125 0.1875q0.453125 0.171875 0.875 0.453125q0.421875 0.28125 0.734375 0.671875q0.3125 0.390625 0.375 0.84375q0.125 0.1875 -0.15625 0.46875q-0.265625 0.265625 -0.765625 0.609375q-0.484375 0.328125 -1.109375 0.671875q-0.609375 0.34375 -1.1875 0.65625q-0.5625 0.3125 -1.0 0.546875q-0.4375 0.234375 -0.5625 0.328125q0.109375 0.703125 0.234375 1.5q0.125 0.78125 0.359375 1.4375q0.234375 0.65625 0.59375 1.078125q0.359375 0.421875 0.90625 0.421875q0.796875 0.0625 1.359375 -0.21875q0.578125 -0.296875 0.953125 -0.765625q0.390625 -0.484375 0.625 -1.046875q0.234375 -0.5625 0.34375 -1.078125q0.125 -0.515625 0.171875 -0.859375q0.046875 -0.359375 0.078125 -0.390625q0.203125 -0.109375 0.453125 -0.015625q0.25 0.09375 0.296875 0.53125q0.015625 0.71875 -0.3125 1.625q-0.328125 0.90625 -0.90625 1.671875q-0.578125 0.765625 -1.375 1.234375q-0.78125 0.46875 -1.671875 0.328125q-0.9375 -0.03125 -1.484375 -0.546875q-0.546875 -0.515625 -0.859375 -1.25q-0.3125 -0.75 -0.46875 -1.5625q-0.140625 -0.828125 -0.25 -1.453125zm4.765625 -3.921875q-0.578125 -0.796875 -1.1875 -1.015625q-0.59375 -0.21875 -1.234375 -0.125q-0.375 0.046875 -0.671875 0.34375q-0.28125 0.296875 -0.46875 0.765625q-0.1875 0.46875 -0.265625 1.046875q-0.0625 0.5625 -0.015625 1.171875l3.84375 -2.1875zm3.3962402 -6.40625q0.109375 -0.078125 0.21875 -0.15625q0.125 -0.09375 0.25 -0.109375q0.125 -0.03125 0.21875 0.03125q0.109375 0.046875 0.1875 0.234375l0.109375 15.03125q-0.09375 0.171875 -0.25 0.234375q-0.140625 0.0625 -0.28125 0.03125q-0.140625 -0.015625 -0.265625 -0.109375q-0.109375 -0.09375 -0.15625 -0.21875l-0.03125 -14.96875zm4.2981873 15.109375q-0.734375 -0.078125 -1.203125 -0.5625q-0.453125 -0.5 -0.734375 -1.203125q-0.265625 -0.71875 -0.359375 -1.5625q-0.078125 -0.859375 -0.03125 -1.671875q0.046875 -1.265625 0.453125 -2.40625q0.421875 -1.15625 1.03125 -2.0q0.609375 -0.84375 1.34375 -1.3125q0.734375 -0.46875 1.453125 -0.359375q0.75 0.109375 1.203125 0.71875q0.46875 0.59375 0.71875 1.46875q0.265625 0.875 0.3125 1.90625q0.0625 1.03125 -0.015625 1.984375q-0.09375 1.0625 -0.484375 2.0q-0.375 0.921875 -0.953125 1.609375q-0.5625 0.671875 -1.28125 1.046875q-0.71875 0.375 -1.453125 0.34375zm1.765625 -10.03125q-0.59375 -0.078125 -1.125 0.375q-0.515625 0.4375 -0.921875 1.1875q-0.40625 0.734375 -0.6875 1.671875q-0.265625 0.9375 -0.359375 1.84375q-0.078125 0.65625 -0.0625 1.359375q0.03125 0.6875 0.171875 1.25q0.15625 0.5625 0.5 0.921875q0.34375 0.359375 0.90625 0.359375q0.453125 0.015625 0.953125 -0.3125q0.5 -0.328125 0.9375 -0.875q0.4375 -0.5625 0.765625 -1.265625q0.34375 -0.71875 0.453125 -1.46875q0.125 -0.78125 0.0625 -1.609375q-0.0625 -0.828125 -0.28125 -1.53125q-0.203125 -0.71875 -0.546875 -1.234375q-0.328125 -0.53125 -0.765625 -0.671875zm3.2486267 5.4375q0.046875 -0.734375 0.125 -1.5q0.078125 -0.765625 0.21875 -1.484375q0.140625 -0.71875 0.375 -1.359375q0.25 -0.640625 0.609375 -1.109375q0.375 -0.484375 0.90625 -0.75q0.546875 -0.28125 1.296875 -0.25q0.515625 0 0.78125 0.421875q0.28125 0.421875 0.390625 1.03125q0.125 0.59375 0.125 1.234375q0.015625 0.640625 0.015625 1.046875q-0.28125 0.109375 -0.46875 0q-0.1875 -0.109375 -0.3125 -0.359375q-0.109375 -0.25 -0.203125 -0.578125q-0.09375 -0.328125 -0.15625 -0.65625q-0.0625 -0.328125 -0.140625 -0.609375q-0.078125 -0.296875 -0.1875 -0.484375q-0.328125 -0.140625 -0.640625 0.09375q-0.3125 0.234375 -0.578125 0.6875q-0.25 0.4375 -0.46875 1.0625q-0.203125 0.625 -0.34375 1.25q-0.140625 0.625 -0.234375 1.21875q-0.09375 0.578125 -0.09375 0.96875q0.015625 0.546875 0.109375 1.1875q0.09375 0.625 0.296875 1.171875q0.203125 0.546875 0.53125 0.9375q0.328125 0.390625 0.828125 0.5q0.703125 0 1.171875 -0.21875q0.484375 -0.234375 0.796875 -0.59375q0.328125 -0.359375 0.5 -0.796875q0.1875 -0.4375 0.296875 -0.875q0.109375 -0.453125 0.171875 -0.84375q0.078125 -0.390625 0.140625 -0.640625q0.484375 -0.125 0.734375 0.015625q0.265625 0.140625 0.265625 0.34375q0 0.84375 -0.296875 1.671875q-0.28125 0.828125 -0.828125 1.484375q-0.53125 0.65625 -1.296875 1.0625q-0.765625 0.390625 -1.71875 0.390625q-0.828125 0 -1.359375 -0.515625q-0.53125 -0.515625 -0.828125 -1.25q-0.296875 -0.734375 -0.421875 -1.53125q-0.109375 -0.796875 -0.109375 -1.375zm7.7457275 -6.515625q0.109375 -0.046875 0.25 -0.078125q0.140625 -0.046875 0.28125 -0.046875q0.140625 0 0.265625 0.0625q0.125 0.046875 0.203125 0.1875q0 1.1875 0.015625 2.5625q0.03125 1.375 0.078125 2.796875q0.046875 1.40625 0.078125 2.78125q0.046875 1.359375 0.078125 2.515625q0.015625 0.28125 -0.15625 0.421875q-0.15625 0.140625 -0.34375 0.140625q-0.1875 0 -0.359375 -0.140625q-0.15625 -0.125 -0.15625 -0.421875l-0.234375 -10.78125zm-0.21875 -3.71875q0 -0.234375 0.15625 -0.3125q0.171875 -0.078125 0.359375 -0.078125q0.40625 0 0.5 0.265625q0.109375 0.25 0.109375 0.609375q-0.109375 0.21875 -0.296875 0.3125q-0.171875 0.078125 -0.375 0.03125q-0.1875 -0.0625 -0.328125 -0.25q-0.125 -0.203125 -0.125 -0.578125zm4.0950623 6.25l-1.671875 0.5625q-0.203125 -0.046875 -0.34375 -0.1875q-0.140625 -0.15625 -0.1875 -0.3125q-0.0625 -0.171875 -0.03125 -0.3125q0.03125 -0.15625 0.15625 -0.21875l2.078125 -0.78125l-0.03125 -5.15625q0.046875 -0.234375 0.21875 -0.34375q0.1875 -0.109375 0.375 -0.09375q0.203125 0 0.359375 0.125q0.171875 0.109375 0.21875 0.296875q-0.03125 0.5625 -0.046875 1.1875q-0.015625 0.625 -0.03125 1.265625q0 0.625 0.015625 1.21875q0.015625 0.578125 0.0625 1.078125l2.828125 -1.15625q0.25 -0.0625 0.390625 0.0625q0.15625 0.109375 0.203125 0.296875q0.046875 0.1875 -0.03125 0.375q-0.0625 0.1875 -0.25 0.25l-3.140625 1.421875q0 0.1875 0.015625 0.875q0.03125 0.671875 0.046875 1.609375q0.015625 0.921875 0.03125 1.984375q0.015625 1.0625 0.03125 2.0q0.015625 0.921875 0.015625 1.609375q0.015625 0.671875 0.015625 0.859375q-0.046875 0.59375 -0.359375 0.59375q-0.296875 0 -0.671875 -0.296875l-0.265625 -8.8125zm7.5184326 8.671875l-4.015625 -9.15625q-0.15625 -0.21875 -0.078125 -0.4375q0.078125 -0.234375 0.25 -0.359375q0.1875 -0.140625 0.421875 -0.109375q0.25 0.03125 0.453125 0.296875l3.359375 8.015625l1.578125 -9.046875q0.109375 -0.0625 0.265625 -0.09375q0.15625 -0.03125 0.3125 -0.015625q0.15625 0.015625 0.28125 0.109375q0.125 0.09375 0.171875 0.28125q-0.09375 0.734375 -0.28125 1.875q-0.1875 1.125 -0.40625 2.3125q-0.21875 1.1875 -0.421875 2.28125q-0.203125 1.078125 -0.3125 1.71875q-0.078125 0.375 -0.1875 1.03125q-0.109375 0.640625 -0.25 1.40625q-0.140625 0.765625 -0.296875 1.59375q-0.140625 0.828125 -0.28125 1.59375q-0.140625 0.765625 -0.28125 1.390625q-0.125 0.640625 -0.21875 1.015625q-0.03125 0.21875 -0.21875 0.328125q-0.1875 0.109375 -0.40625 0.09375q-0.21875 -0.015625 -0.40625 -0.15625q-0.1875 -0.125 -0.203125 -0.359375l1.171875 -5.609375z" fill-rule="nonzero"/><path fill="#000000" fill-opacity="0.0" d="m102.2336 37.774334l1.1338577 117.00787" fill-rule="evenodd"/><path stroke="#000000" stroke-width="1.0" stroke-linejoin="round" stroke-linecap="butt" d="m102.2336 37.774334l1.1338577 117.00787" fill-rule="evenodd"/><path fill="#000000" fill-opacity="0.0" d="m104.367455 145.52432c-6.0043716 -3.786087 -27.64698 -20.430443 -36.026245 -22.716537c-8.379269 -2.286087 -11.8744545 7.5 -14.249348 9.0" fill-rule="evenodd"/><path stroke="#000000" stroke-width="1.0" stroke-linejoin="round" stroke-linecap="butt" d="m104.367455 145.52432c-6.0043716 -3.786087 -27.64698 -20.430443 -36.026245 -22.716537c-8.379269 -2.286087 -11.8744545 7.5 -14.249348 9.0" fill-rule="evenodd"/><path fill="#ffffff" d="m63.366543 133.63083l10.034443 22.65123l-4.0329056 12.143646l-11.29755 -5.7297516l-9.707512 -22.265808l4.3078384 -2.051239l-5.769512 -4.3538055l12.674644 -5.4370575l-0.79024124 6.9769745z" fill-rule="evenodd"/><path stroke="#000000" stroke-width="2.0" stroke-linejoin="round" stroke-linecap="butt" d="m63.366543 133.63083l10.034443 22.65123l-4.0329056 12.143646l-11.29755 -5.7297516l-9.707512 -22.265808l4.3078384 -2.051239l-5.769512 -4.3538055l12.674644 -5.4370575l-0.79024124 6.9769745z" fill-rule="evenodd"/><defs><radialGradient id="p.3" gradientUnits="userSpaceOnUse" gradientTransform="matrix(-2.0465291251012885 0.8914486341055409 -0.8914486341055409 -2.0465291251012885 0.0 0.0)" spreadMethod="pad" cx="1.6081881941418006" cy="-76.81013950418208" fx="1.6081881941418006" fy="-76.81013950418208" r="2.0465290546417236"><stop offset="0.0" stop-color="#dfe9fb"/><stop offset="1.0" stop-color="#6e9be7"/></radialGradient></defs><path fill="url(#p.3)" d="m68.142654 157.33778l0 0c0.7124634 1.6356201 -0.03591156 3.5391235 -1.6715393 4.251587l0 0c-0.7854538 0.34213257 -1.6746521 0.3582306 -2.4719772 0.044769287c-0.79732895 -0.31347656 -1.4374733 -0.93084717 -1.7796097 -1.7163086l0 0c-0.7124634 -1.6356201 0.035907745 -3.5391235 1.6715317 -4.251587l0 0c1.6356277 -0.7124634 3.5391312 0.03590393 4.2515945 1.6715393z" fill-rule="evenodd"/><path stroke="#000000" stroke-width="1.0" stroke-linejoin="round" stroke-linecap="butt" d="m68.142654 157.33778l0 0c0.7124634 1.6356201 -0.03591156 3.5391235 -1.6715393 4.251587l0 0c-0.7854538 0.34213257 -1.6746521 0.3582306 -2.4719772 0.044769287c-0.79732895 -0.31347656 -1.4374733 -0.93084717 -1.7796097 -1.7163086l0 0c-0.7124634 -1.6356201 0.035907745 -3.5391235 1.6715317 -4.251587l0 0c1.6356277 -0.7124634 3.5391312 0.03590393 4.2515945 1.6715393z" fill-rule="evenodd"/><path fill="#ff0000" d="m72.4919 153.77327c0.18534088 -1.2249298 1.563797 -3.8201447 1.1120529 -7.3496094c-0.45174408 -3.5294495 -2.6489716 -12.783356 -3.822525 -13.827087c-1.1735535 -1.043747 -2.6823273 6.303894 -3.2187958 7.564682" fill-rule="evenodd"/><path stroke="#000000" stroke-width="1.0" stroke-linejoin="round" stroke-linecap="butt" d="m72.4919 153.77327c0.18534088 -1.2249298 1.563797 -3.8201447 1.1120529 -7.3496094c-0.45174408 -3.5294495 -2.6489716 -12.783356 -3.822525 -13.827087c-1.1735535 -1.043747 -2.6823273 6.303894 -3.2187958 7.564682" fill-rule="evenodd"/><path fill="#ff0000" d="m56.83415 160.59364c-1.0231781 -0.69851685 -3.8623047 -1.456604 -6.1390724 -4.191086c-2.2767677 -2.734497 -7.5565033 -10.645691 -7.521534 -12.215851c0.034965515 -1.5701447 6.4427834 2.3290863 7.7313385 2.7949066" fill-rule="evenodd"/><path stroke="#000000" stroke-width="1.0" stroke-linejoin="round" stroke-linecap="butt" d="m56.83415 160.59364c-1.0231781 -0.69851685 -3.8623047 -1.456604 -6.1390724 -4.191086c-2.2767677 -2.734497 -7.5565033 -10.645691 -7.521534 -12.215851c0.034965515 -1.5701447 6.4427834 2.3290863 7.7313385 2.7949066" fill-rule="evenodd"/><path fill="#93c47d" d="m43.60499 204.12204l0 0c0 -32.371704 26.242455 -58.614166 58.614174 -58.614166l0 0c15.545441 0 30.454193 6.1754 41.446472 17.167694c10.992294 10.992294 17.167694 25.901031 17.167694 41.446472l0 0c0 32.37172 -26.242447 58.614166 -58.614166 58.614166l0 0c-32.37172 0 -58.614174 -26.242447 -58.614174 -58.614166z" fill-rule="evenodd"/><path stroke="#6aa84f" stroke-width="1.0" stroke-linejoin="round" stroke-linecap="butt" d="m43.60499 204.12204l0 0c0 -32.371704 26.242455 -58.614166 58.614174 -58.614166l0 0c15.545441 0 30.454193 6.1754 41.446472 17.167694c10.992294 10.992294 17.167694 25.901031 17.167694 41.446472l0 0c0 32.37172 -26.242447 58.614166 -58.614166 58.614166l0 0c-32.37172 0 -58.614174 -26.242447 -58.614174 -58.614166z" fill-rule="evenodd"/><path fill="#000000" fill-opacity="0.0" d="m138.08401 51.280838c-9.096481 0 -13.645729 6.2204742 -18.19297 12.4409485c-4.547249 6.2204742 -9.092491 12.440941 -18.184975 12.440941" fill-rule="evenodd"/><path stroke="#000000" stroke-width="1.0" stroke-linejoin="round" stroke-linecap="butt" d="m138.08401 51.280838c-9.096481 0 -13.645729 6.2204742 -18.19297 12.4409485c-2.2736206 3.1102371 -4.5467377 6.2204742 -7.3880234 8.553146c-1.420639 1.1663437 -2.9833145 2.1382904 -4.7591095 2.8186493l-0.12564087 0.0464859" fill-rule="evenodd"/><path fill="#000000" stroke="#000000" stroke-width="1.0" stroke-linecap="butt" d="m107.33675 73.512505l-4.1901703 2.4010544l4.7532196 0.8540726z" fill-rule="evenodd"/><path fill="#000000" fill-opacity="0.0" d="m220.18373 -10.950131c0 0.015748024 0.01574707 0.023622513 0.03149414 0.031496048c0.01574707 0.007874489 0.03149414 0.015748024 0.03149414 0.031496048" fill-rule="evenodd"/><path stroke="#000000" stroke-width="1.0" stroke-linejoin="round" stroke-linecap="butt" d="m220.18373 -10.950131c0 0.015748024 0.01574707 0.023622513 0.03149414 0.031496048c0.01574707 0.007874489 0.03149414 0.015748024 0.03149414 0.031496048" fill-rule="evenodd"/><path fill="#ffffff" d="m82.32809 76.166664l0 0c0 -5.3489 4.336136 -9.685036 9.685036 -9.685036l0 0c2.568634 0 5.0320587 1.0203857 6.848358 2.8366776c1.8162994 1.8162994 2.8366852 4.2797318 2.8366852 6.848358l0 0c0 5.3489 -4.3361435 9.685043 -9.685043 9.685043l0 0c-5.3489 0 -9.685036 -4.3361435 -9.685036 -9.685043z" fill-rule="evenodd"/><path fill="#000000" fill-opacity="0.0" d="m0 0l268.44095 0l0 268.44095l-268.44095 0z" fill-rule="evenodd"/><path stroke="#000000" stroke-width="1.0" stroke-linejoin="round" stroke-linecap="butt" d="m0 0l268.44095 0l0 268.44095l-268.44095 0z" fill-rule="evenodd"/></g></svg>