<svg version="1.1" viewBox="0.0 0.0 2136.490813648294 489.20997375328085" fill="none" stroke="none" stroke-linecap="square" stroke-miterlimit="10" xmlns:xlink="http://www.w3.org/1999/xlink" xmlns="http://www.w3.org/2000/svg"><clipPath id="p.0"><path d="m0 0l2136.4907 0l0 489.20996l-2136.4907 0l0 -489.20996z" clip-rule="nonzero"/></clipPath><g clip-path="url(#p.0)"><path fill="#000000" fill-opacity="0.0" d="m0 0l2136.4907 0l0 489.20996l-2136.4907 0z" fill-rule="evenodd"/><path fill="#45818e" fill-opacity="0.5333" d="m1575.7318 0l560.52966 0l0 318.83466l-560.52966 0z" fill-rule="evenodd"/><path fill="#ff0000" fill-opacity="0.5333" d="m1575.7296 420.96588l560.5355 0l0 68.409454l-560.5355 0z" fill-rule="evenodd"/><path fill="#6aa84f" fill-opacity="0.5333" d="m1575.7296 317.77954l560.5355 0l0 102.834625l-560.5355 0z" fill-rule="evenodd"/><path fill="#6aa84f" fill-opacity="0.5333" d="m285.71127 109.31774l645.7638 0l0 242.57132l-645.7638 0z" fill-rule="evenodd"/><path fill="#45818e" fill-opacity="0.5333" d="m285.71127 0.05770174l645.7638 0l0 109.266655l-645.7638 0z" fill-rule="evenodd"/><path fill="#ff0000" fill-opacity="0.5333" d="m285.71127 351.88922l645.7638 0l0 138.2266l-645.7638 0z" fill-rule="evenodd"/><path fill="#45818e" fill-opacity="0.5333" d="m930.0315 0.003607874l645.7638 0l0 211.93701l-645.7638 0z" fill-rule="evenodd"/><path fill="#6aa84f" fill-opacity="0.5333" d="m930.0315 211.94147l645.7638 0l0 208.15747l-645.7638 0z" fill-rule="evenodd"/><path fill="#ff0000" fill-opacity="0.5333" d="m930.0341 420.09973l645.76373 0l0 68.409454l-645.76373 0z" fill-rule="evenodd"/><path fill="#000000" fill-opacity="0.0" d="m1679.0447 5.4593177l457.41724 0l0 311.9685l-457.41724 0z" fill-rule="evenodd"/><path fill="#000000" d="m1689.1228 178.24358l0 -3.734375l2.390625 -0.34375l10.765625 -29.09375l6.171875 0l10.6875 29.09375l2.375 0.34375l0 3.734375l-10.921875 0l0 -3.734375l2.359375 -0.4375l-1.625 -4.875l-12.0 0l-1.625 4.875l2.328125 0.4375l0 3.734375l-10.90625 0zm11.71875 -13.71875l8.953125 0l-4.078125 -11.796875l-0.3125 -0.953125l-0.140625 0l-0.34375 1.0l-4.078125 11.75zm36.349 14.203125q-3.53125 0 -6.515625 -0.828125q-2.96875 -0.84375 -5.796875 -2.828125l0 -7.828125l4.78125 0l0.734375 4.828125q1.125 0.859375 2.90625 1.390625q1.78125 0.515625 3.890625 0.515625q1.90625 0 3.21875 -0.53125q1.3125 -0.53125 1.984375 -1.515625q0.6875 -1.0 0.6875 -2.328125q0 -1.265625 -0.625 -2.234375q-0.609375 -0.96875 -2.015625 -1.75q-1.390625 -0.796875 -3.78125 -1.5q-3.828125 -1.0625 -6.375 -2.421875q-2.546875 -1.375 -3.8125 -3.296875q-1.265625 -1.9375 -1.265625 -4.59375q0 -2.671875 1.46875 -4.734375q1.46875 -2.0625 4.078125 -3.25q2.609375 -1.1875 6.0 -1.203125q3.78125 -0.046875 6.671875 0.9375q2.890625 0.96875 4.9375 2.640625l0 7.28125l-4.65625 0l-0.84375 -4.578125q-0.921875 -0.609375 -2.40625 -1.03125q-1.46875 -0.4375 -3.40625 -0.4375q-1.671875 0 -2.953125 0.515625q-1.265625 0.5 -2.0 1.484375q-0.71875 0.984375 -0.71875 2.34375q0 1.1875 0.625 2.078125q0.640625 0.890625 2.140625 1.640625q1.515625 0.75 4.09375 1.546875q5.4375 1.484375 8.25 4.0q2.8125 2.515625 2.8125 6.515625q0 2.78125 -1.515625 4.84375q-1.515625 2.0625 -4.234375 3.203125q-2.71875 1.125 -6.359375 1.125zm14.984619 -0.484375l0 -3.734375l3.578125 -0.6875l0 -24.3125l-3.578125 -0.671875l0 -3.765625l3.578125 0l12.09375 0q3.765625 0 6.453125 1.3125q2.703125 1.3125 4.15625 3.671875q1.46875 2.359375 1.46875 5.46875q0 3.15625 -1.46875 5.484375q-1.453125 2.328125 -4.15625 3.640625q-2.6875 1.296875 -6.453125 1.296875l-5.90625 0l0 7.875l3.578125 0.6875l0 3.734375l-13.34375 0zm9.765625 -17.09375l5.90625 0q2.921875 0 4.390625 -1.5625q1.484375 -1.578125 1.484375 -4.015625q0 -2.453125 -1.484375 -4.078125q-1.46875 -1.640625 -4.390625 -1.640625l-5.90625 0l0 11.296875zm20.282959 17.09375l0 -3.734375l3.578125 -0.6875l0 -24.3125l-3.578125 -0.671875l0 -3.765625l13.34375 0l0 3.765625l-3.578125 0.671875l0 24.3125l3.578125 0.6875l0 3.734375l-13.34375 0zm16.129272 0l0 -3.734375l3.578125 -0.6875l0 -24.3125l-3.578125 -0.671875l0 -3.765625l15.53125 0q3.765625 0 6.453125 1.171875q2.703125 1.15625 4.125 3.34375q1.4375 2.1875 1.4375 5.234375q0 2.921875 -1.421875 5.15625q-1.40625 2.234375 -3.953125 3.5q-2.53125 1.25 -5.890625 1.28125l-6.515625 0.015625l0 9.046875l3.578125 0.6875l0 3.734375l-13.34375 0zm21.453125 0l-5.96875 -14.8125l5.703125 -1.15625l5.09375 11.59375l2.71875 0.59375l0 3.78125l-7.546875 0zm-11.6875 -18.25l5.5625 0q3.078125 0 4.5625 -1.265625q1.484375 -1.265625 1.484375 -3.671875q0 -2.375 -1.46875 -3.78125q-1.453125 -1.421875 -4.375 -1.421875l-5.765625 0l0 10.140625zm21.884155 18.25l0 -3.734375l2.390625 -0.34375l10.765625 -29.09375l6.171875 0l10.6875 29.09375l2.375 0.34375l0 3.734375l-10.921875 0l0 -3.734375l2.359375 -0.4375l-1.625 -4.875l-12.0 0l-1.625 4.875l2.328125 0.4375l0 3.734375l-10.90625 0zm11.71875 -13.71875l8.953125 0l-4.078125 -11.796875l-0.3125 -0.953125l-0.140625 0l-0.34375 1.0l-4.078125 11.75zm27.045044 13.71875l0 -3.734375l3.578125 -0.6875l0 -23.984375l-6.359375 0l-0.421875 4.09375l-4.671875 0l0 -8.859375l29.15625 0l0 8.859375l-4.6875 0l-0.4375 -4.09375l-6.375 0l0 23.984375l3.59375 0.6875l0 3.734375l-13.375 0zm23.96875 0l0 -3.734375l3.578125 -0.6875l0 -24.3125l-3.578125 -0.671875l0 -3.765625l13.34375 0l0 3.765625l-3.578125 0.671875l0 24.3125l3.578125 0.6875l0 3.734375l-13.34375 0zm30.988647 0.484375q-3.328125 0 -6.046875 -1.234375q-2.703125 -1.25 -4.65625 -3.515625q-1.953125 -2.265625 -3.0 -5.328125q-1.046875 -3.078125 -1.046875 -6.734375l0 -0.5q0 -3.65625 1.046875 -6.71875q1.046875 -3.0625 3.0 -5.328125q1.953125 -2.265625 4.640625 -3.515625q2.703125 -1.25 6.03125 -1.25q3.390625 0 6.109375 1.25q2.734375 1.25 4.6875 3.515625q1.96875 2.265625 3.0 5.328125q1.03125 3.0625 1.03125 6.71875l0 0.5q0 3.65625 -1.03125 6.734375q-1.03125 3.0625 -2.984375 5.328125q-1.953125 2.265625 -4.6875 3.515625q-2.734375 1.234375 -6.09375 1.234375zm0 -4.875q2.90625 0 4.8125 -1.484375q1.921875 -1.5 2.859375 -4.1875q0.953125 -2.6875 0.953125 -6.265625l0 -0.546875q0 -3.53125 -0.953125 -6.203125q-0.953125 -2.671875 -2.890625 -4.171875q-1.921875 -1.5 -4.8125 -1.5q-2.828125 0 -4.71875 1.5q-1.890625 1.484375 -2.84375 4.15625q-0.9375 2.65625 -0.9375 6.21875l0 0.546875q0 3.546875 0.9375 6.25q0.953125 2.703125 2.859375 4.203125q1.90625 1.484375 4.734375 1.484375zm17.642456 4.390625l0 -3.734375l3.5625 -0.6875l0 -24.3125l-3.5625 -0.671875l0 -3.765625l3.5625 0l6.28125 0l14.828125 23.609375l0.140625 -0.03125l0 -19.140625l-4.21875 -0.671875l0 -3.765625l9.78125 0l3.578125 0l0 3.765625l-3.578125 0.671875l0 28.734375l-5.953125 0l-15.140625 -23.4375l-0.140625 0.015625l0 19.0l4.21875 0.6875l0 3.734375l-13.359375 0zm49.676147 0.484375q-3.53125 0 -6.515625 -0.828125q-2.96875 -0.84375 -5.796875 -2.828125l0 -7.828125l4.78125 0l0.734375 4.828125q1.125 0.859375 2.90625 1.390625q1.78125 0.515625 3.890625 0.515625q1.90625 0 3.21875 -0.53125q1.3125 -0.53125 1.984375 -1.515625q0.6875 -1.0 0.6875 -2.328125q0 -1.265625 -0.625 -2.234375q-0.609375 -0.96875 -2.015625 -1.75q-1.390625 -0.796875 -3.78125 -1.5q-3.828125 -1.0625 -6.375 -2.421875q-2.546875 -1.375 -3.8125 -3.296875q-1.265625 -1.9375 -1.265625 -4.59375q0 -2.671875 1.46875 -4.734375q1.46875 -2.0625 4.078125 -3.25q2.609375 -1.1875 6.0 -1.203125q3.78125 -0.046875 6.671875 0.9375q2.890625 0.96875 4.9375 2.640625l0 7.28125l-4.65625 0l-0.84375 -4.578125q-0.921875 -0.609375 -2.40625 -1.03125q-1.46875 -0.4375 -3.40625 -0.4375q-1.671875 0 -2.953125 0.515625q-1.265625 0.5 -2.0 1.484375q-0.71875 0.984375 -0.71875 2.34375q0 1.1875 0.625 2.078125q0.640625 0.890625 2.140625 1.640625q1.515625 0.75 4.09375 1.546875q5.4375 1.484375 8.25 4.0q2.8125 2.515625 2.8125 6.515625q0 2.78125 -1.515625 4.84375q-1.515625 2.0625 -4.234375 3.203125q-2.71875 1.125 -6.359375 1.125z" fill-rule="nonzero"/><path fill="#000000" fill-opacity="0.0" d="m1803.4856 318.8399l332.97632 0l0 102.834625l-332.97632 0z" fill-rule="evenodd"/><path fill="#000000" d="m1813.8606 385.71722l0 -3.203125l3.3125 -0.625l0 -22.640625l-3.3125 -0.625l0 -3.234375l11.84375 0l0 3.234375l-3.28125 0.625l0 22.640625l3.28125 0.625l0 3.203125l-11.84375 0zm14.621338 0l0 -3.203125l3.328125 -0.65625l0 -22.578125l-3.328125 -0.65625l0 -3.234375l3.328125 0l9.375 0q4.0625 0 7.109375 1.921875q3.0625 1.90625 4.765625 5.265625q1.703125 3.359375 1.703125 7.6875l0 0.609375q0 4.265625 -1.671875 7.625q-1.65625 3.359375 -4.6875 5.296875q-3.03125 1.921875 -7.078125 1.921875l-12.84375 0zm8.578125 -4.046875l4.0 0q2.671875 0 4.546875 -1.421875q1.890625 -1.421875 2.890625 -3.859375q1.0 -2.453125 1.0 -5.515625l0 -0.625q0 -3.15625 -1.0 -5.578125q-1.0 -2.421875 -2.890625 -3.8125q-1.875 -1.40625 -4.546875 -1.40625l-4.0 0l0 22.21875zm20.519043 4.046875l0 -3.203125l3.3125 -0.625l0 -22.640625l-3.3125 -0.625l0 -3.234375l23.09375 0l0 7.8125l-4.078125 0l-0.359375 -3.765625l-10.09375 0l0 8.578125l10.640625 0l0 4.0625l-10.640625 0l0 9.640625l10.65625 0l0.359375 -3.859375l4.046875 0l0 7.859375l-23.625 0zm26.956787 0l0 -3.203125l2.203125 -0.3125l10.03125 -26.8125l5.109375 0l9.921875 26.8125l2.203125 0.3125l0 3.203125l-9.640625 0l0 -3.203125l2.15625 -0.40625l-1.59375 -4.765625l-11.296875 0l-1.640625 4.765625l2.1875 0.40625l0 3.203125l-9.640625 0zm10.46875 -12.390625l8.5625 0l-3.9375 -11.234375l-0.265625 -0.8125l-0.125 0l-0.296875 0.859375l-3.9375 11.1875zm21.476685 12.390625l0 -3.203125l3.3125 -0.625l0 -22.640625l-3.3125 -0.625l0 -3.234375l3.3125 0l5.25 0l3.5625 0l0 3.234375l-3.5625 0.625l0 22.453125l9.46875 0l0.359375 -4.59375l4.015625 0l0 8.609375l-22.40625 0zm36.842896 0.4375q-3.09375 0 -5.765625 -0.765625q-2.671875 -0.78125 -5.1875 -2.5625l0 -6.984375l4.0625 0l0.671875 4.515625q1.09375 0.796875 2.703125 1.28125q1.625 0.46875 3.515625 0.46875q1.859375 0 3.109375 -0.53125q1.265625 -0.53125 1.921875 -1.484375q0.671875 -0.953125 0.671875 -2.265625q0 -1.21875 -0.578125 -2.140625q-0.578125 -0.9375 -1.9375 -1.671875q-1.359375 -0.75 -3.671875 -1.375q-3.390625 -0.921875 -5.671875 -2.171875q-2.28125 -1.25 -3.4375 -3.0q-1.15625 -1.75 -1.15625 -4.125q0 -2.4375 1.328125 -4.3125q1.328125 -1.875 3.671875 -2.953125q2.359375 -1.078125 5.4375 -1.109375q3.375 -0.03125 5.96875 0.890625q2.59375 0.90625 4.390625 2.390625l0 6.515625l-3.984375 0l-0.75 -4.25q-0.859375 -0.609375 -2.21875 -1.03125q-1.359375 -0.421875 -3.21875 -0.421875q-1.578125 0 -2.796875 0.515625q-1.203125 0.515625 -1.890625 1.46875q-0.6875 0.953125 -0.6875 2.265625q0 1.140625 0.609375 2.0q0.609375 0.84375 2.015625 1.546875q1.421875 0.703125 3.828125 1.40625q4.9375 1.3125 7.484375 3.625q2.546875 2.3125 2.546875 5.890625q0 2.515625 -1.375 4.40625q-1.359375 1.890625 -3.828125 2.9375q-2.46875 1.03125 -5.78125 1.03125z" fill-rule="nonzero"/><path fill="#45818e" d="m-238.2618 4.05058l46.204727 0l0 34.70727l-46.204727 0z" fill-rule="evenodd"/><path stroke="#000000" stroke-width="1.0" stroke-linejoin="round" stroke-linecap="butt" d="m-238.2618 4.05058l46.204727 0l0 34.70727l-46.204727 0z" fill-rule="evenodd"/><path fill="#45818e" d="m-238.2618 38.75295l46.204727 0l0 34.70727l-46.204727 0z" fill-rule="evenodd"/><path stroke="#000000" stroke-width="1.0" stroke-linejoin="round" stroke-linecap="butt" d="m-238.2618 38.75295l46.204727 0l0 34.70727l-46.204727 0z" fill-rule="evenodd"/><path fill="#45818e" d="m-238.2618 73.455315l46.204727 0l0 34.707268l-46.204727 0z" fill-rule="evenodd"/><path stroke="#000000" stroke-width="1.0" stroke-linejoin="round" stroke-linecap="butt" d="m-238.2618 73.455315l46.204727 0l0 34.707268l-46.204727 0z" fill-rule="evenodd"/><path fill="#6aa84f" d="m-238.2618 108.157684l46.204727 0l0 34.707275l-46.204727 0z" fill-rule="evenodd"/><path stroke="#000000" stroke-width="1.0" stroke-linejoin="round" stroke-linecap="butt" d="m-238.2618 108.157684l46.204727 0l0 34.707275l-46.204727 0z" fill-rule="evenodd"/><path fill="#6aa84f" d="m-238.2618 142.86005l46.204727 0l0 34.707275l-46.204727 0z" fill-rule="evenodd"/><path stroke="#000000" stroke-width="1.0" stroke-linejoin="round" stroke-linecap="butt" d="m-238.2618 142.86005l46.204727 0l0 34.707275l-46.204727 0z" fill-rule="evenodd"/><path fill="#6aa84f" d="m-238.2618 177.56242l46.204727 0l0 34.70726l-46.204727 0z" fill-rule="evenodd"/><path stroke="#000000" stroke-width="1.0" stroke-linejoin="round" stroke-linecap="butt" d="m-238.2618 177.56242l46.204727 0l0 34.70726l-46.204727 0z" fill-rule="evenodd"/><path fill="#6aa84f" d="m-238.2618 212.26479l46.204727 0l0 34.707275l-46.204727 0z" fill-rule="evenodd"/><path stroke="#000000" stroke-width="1.0" stroke-linejoin="round" stroke-linecap="butt" d="m-238.2618 212.26479l46.204727 0l0 34.707275l-46.204727 0z" fill-rule="evenodd"/><path fill="#6aa84f" d="m-238.2618 246.96716l46.204727 0l0 34.707275l-46.204727 0z" fill-rule="evenodd"/><path stroke="#000000" stroke-width="1.0" stroke-linejoin="round" stroke-linecap="butt" d="m-238.2618 246.96716l46.204727 0l0 34.707275l-46.204727 0z" fill-rule="evenodd"/><path fill="#6aa84f" d="m-238.2618 281.89612l46.204727 0l0 34.707275l-46.204727 0z" fill-rule="evenodd"/><path stroke="#000000" stroke-width="1.0" stroke-linejoin="round" stroke-linecap="butt" d="m-238.2618 281.89612l46.204727 0l0 34.707275l-46.204727 0z" fill-rule="evenodd"/><path fill="#6aa84f" d="m-238.2618 316.59848l46.204727 0l0 34.707275l-46.204727 0z" fill-rule="evenodd"/><path stroke="#000000" stroke-width="1.0" stroke-linejoin="round" stroke-linecap="butt" d="m-238.2618 316.59848l46.204727 0l0 34.707275l-46.204727 0z" fill-rule="evenodd"/><path fill="#cc0000" d="m-238.2618 351.30087l46.204727 0l0 34.707245l-46.204727 0z" fill-rule="evenodd"/><path stroke="#000000" stroke-width="1.0" stroke-linejoin="round" stroke-linecap="butt" d="m-238.2618 351.30087l46.204727 0l0 34.707245l-46.204727 0z" fill-rule="evenodd"/><path fill="#cc0000" d="m-238.2618 386.00323l46.204727 0l0 34.707275l-46.204727 0z" fill-rule="evenodd"/><path stroke="#000000" stroke-width="1.0" stroke-linejoin="round" stroke-linecap="butt" d="m-238.2618 386.00323l46.204727 0l0 34.707275l-46.204727 0z" fill-rule="evenodd"/><path fill="#cc0000" d="m-238.2618 420.70587l46.204727 0l0 34.707275l-46.204727 0z" fill-rule="evenodd"/><path stroke="#000000" stroke-width="1.0" stroke-linejoin="round" stroke-linecap="butt" d="m-238.2618 420.70587l46.204727 0l0 34.707275l-46.204727 0z" fill-rule="evenodd"/><path fill="#cc0000" d="m-238.2618 455.40823l46.204727 0l0 34.707275l-46.204727 0z" fill-rule="evenodd"/><path stroke="#000000" stroke-width="1.0" stroke-linejoin="round" stroke-linecap="butt" d="m-238.2618 455.40823l46.204727 0l0 34.707275l-46.204727 0z" fill-rule="evenodd"/><path fill="#45818e" d="m-156.09694 4.050573l46.204727 0l0 34.70727l-46.204727 0z" fill-rule="evenodd"/><path stroke="#000000" stroke-width="1.0" stroke-linejoin="round" stroke-linecap="butt" d="m-156.09694 4.050573l46.204727 0l0 34.70727l-46.204727 0z" fill-rule="evenodd"/><path fill="#45818e" d="m-156.09694 38.75294l46.204727 0l0 34.70727l-46.204727 0z" fill-rule="evenodd"/><path stroke="#000000" stroke-width="1.0" stroke-linejoin="round" stroke-linecap="butt" d="m-156.09694 38.75294l46.204727 0l0 34.70727l-46.204727 0z" fill-rule="evenodd"/><path fill="#45818e" d="m-156.09694 73.45531l46.204727 0l0 34.707268l-46.204727 0z" fill-rule="evenodd"/><path stroke="#000000" stroke-width="1.0" stroke-linejoin="round" stroke-linecap="butt" d="m-156.09694 73.45531l46.204727 0l0 34.707268l-46.204727 0z" fill-rule="evenodd"/><path fill="#45818e" d="m-156.09694 108.15768l46.204727 0l0 34.707268l-46.204727 0z" fill-rule="evenodd"/><path stroke="#000000" stroke-width="1.0" stroke-linejoin="round" stroke-linecap="butt" d="m-156.09694 108.15768l46.204727 0l0 34.707268l-46.204727 0z" fill-rule="evenodd"/><path fill="#45818e" d="m-156.09694 142.86005l46.204727 0l0 34.70726l-46.204727 0z" fill-rule="evenodd"/><path stroke="#000000" stroke-width="1.0" stroke-linejoin="round" stroke-linecap="butt" d="m-156.09694 142.86005l46.204727 0l0 34.70726l-46.204727 0z" fill-rule="evenodd"/><path fill="#45818e" d="m-156.09694 177.56241l46.204727 0l0 34.707275l-46.204727 0z" fill-rule="evenodd"/><path stroke="#000000" stroke-width="1.0" stroke-linejoin="round" stroke-linecap="butt" d="m-156.09694 177.56241l46.204727 0l0 34.707275l-46.204727 0z" fill-rule="evenodd"/><path fill="#6aa84f" d="m-156.09694 212.26479l46.204727 0l0 34.70726l-46.204727 0z" fill-rule="evenodd"/><path stroke="#000000" stroke-width="1.0" stroke-linejoin="round" stroke-linecap="butt" d="m-156.09694 212.26479l46.204727 0l0 34.70726l-46.204727 0z" fill-rule="evenodd"/><path fill="#6aa84f" d="m-156.09694 246.96715l46.204727 0l0 34.70726l-46.204727 0z" fill-rule="evenodd"/><path stroke="#000000" stroke-width="1.0" stroke-linejoin="round" stroke-linecap="butt" d="m-156.09694 246.96715l46.204727 0l0 34.70726l-46.204727 0z" fill-rule="evenodd"/><path fill="#6aa84f" d="m-156.09694 281.89606l46.204727 0l0 34.707245l-46.204727 0z" fill-rule="evenodd"/><path stroke="#000000" stroke-width="1.0" stroke-linejoin="round" stroke-linecap="butt" d="m-156.09694 281.89606l46.204727 0l0 34.707245l-46.204727 0z" fill-rule="evenodd"/><path fill="#6aa84f" d="m-156.09694 316.59842l46.204727 0l0 34.707275l-46.204727 0z" fill-rule="evenodd"/><path stroke="#000000" stroke-width="1.0" stroke-linejoin="round" stroke-linecap="butt" d="m-156.09694 316.59842l46.204727 0l0 34.707275l-46.204727 0z" fill-rule="evenodd"/><path fill="#6aa84f" d="m-156.09694 351.30078l46.204727 0l0 34.707275l-46.204727 0z" fill-rule="evenodd"/><path stroke="#000000" stroke-width="1.0" stroke-linejoin="round" stroke-linecap="butt" d="m-156.09694 351.30078l46.204727 0l0 34.707275l-46.204727 0z" fill-rule="evenodd"/><path fill="#cc0000" d="m-156.09694 386.00314l46.204727 0l0 34.707275l-46.204727 0z" fill-rule="evenodd"/><path stroke="#000000" stroke-width="1.0" stroke-linejoin="round" stroke-linecap="butt" d="m-156.09694 386.00314l46.204727 0l0 34.707275l-46.204727 0z" fill-rule="evenodd"/><path fill="#cc0000" d="m-156.09694 420.70575l46.204727 0l0 34.707275l-46.204727 0z" fill-rule="evenodd"/><path stroke="#000000" stroke-width="1.0" stroke-linejoin="round" stroke-linecap="butt" d="m-156.09694 420.70575l46.204727 0l0 34.707275l-46.204727 0z" fill-rule="evenodd"/><path fill="#cc0000" d="m-156.09694 455.4081l46.204727 0l0 34.707275l-46.204727 0z" fill-rule="evenodd"/><path stroke="#000000" stroke-width="1.0" stroke-linejoin="round" stroke-linecap="butt" d="m-156.09694 455.4081l46.204727 0l0 34.707275l-46.204727 0z" fill-rule="evenodd"/><path fill="#45818e" d="m-72.62986 4.05058l46.20472 0l0 34.70727l-46.20472 0z" fill-rule="evenodd"/><path stroke="#000000" stroke-width="1.0" stroke-linejoin="round" stroke-linecap="butt" d="m-72.62986 4.05058l46.20472 0l0 34.70727l-46.20472 0z" fill-rule="evenodd"/><path fill="#45818e" d="m-72.62986 38.75295l46.20472 0l0 34.70727l-46.20472 0z" fill-rule="evenodd"/><path stroke="#000000" stroke-width="1.0" stroke-linejoin="round" stroke-linecap="butt" d="m-72.62986 38.75295l46.20472 0l0 34.70727l-46.20472 0z" fill-rule="evenodd"/><path fill="#45818e" d="m-72.62986 73.455315l46.20472 0l0 34.707268l-46.20472 0z" fill-rule="evenodd"/><path stroke="#000000" stroke-width="1.0" stroke-linejoin="round" stroke-linecap="butt" d="m-72.62986 73.455315l46.20472 0l0 34.707268l-46.20472 0z" fill-rule="evenodd"/><path fill="#45818e" d="m-72.62986 108.157684l46.20472 0l0 34.707275l-46.20472 0z" fill-rule="evenodd"/><path stroke="#000000" stroke-width="1.0" stroke-linejoin="round" stroke-linecap="butt" d="m-72.62986 108.157684l46.20472 0l0 34.707275l-46.20472 0z" fill-rule="evenodd"/><path fill="#45818e" d="m-72.62986 142.86005l46.20472 0l0 34.707275l-46.20472 0z" fill-rule="evenodd"/><path stroke="#000000" stroke-width="1.0" stroke-linejoin="round" stroke-linecap="butt" d="m-72.62986 142.86005l46.20472 0l0 34.707275l-46.20472 0z" fill-rule="evenodd"/><path fill="#45818e" d="m-72.62986 177.56242l46.20472 0l0 34.70726l-46.20472 0z" fill-rule="evenodd"/><path stroke="#000000" stroke-width="1.0" stroke-linejoin="round" stroke-linecap="butt" d="m-72.62986 177.56242l46.20472 0l0 34.70726l-46.20472 0z" fill-rule="evenodd"/><path fill="#45818e" d="m-72.62986 212.26479l46.20472 0l0 34.707275l-46.20472 0z" fill-rule="evenodd"/><path stroke="#000000" stroke-width="1.0" stroke-linejoin="round" stroke-linecap="butt" d="m-72.62986 212.26479l46.20472 0l0 34.707275l-46.20472 0z" fill-rule="evenodd"/><path fill="#45818e" d="m-72.62986 246.96716l46.20472 0l0 34.707275l-46.20472 0z" fill-rule="evenodd"/><path stroke="#000000" stroke-width="1.0" stroke-linejoin="round" stroke-linecap="butt" d="m-72.62986 246.96716l46.20472 0l0 34.707275l-46.20472 0z" fill-rule="evenodd"/><path fill="#45818e" d="m-72.62986 281.89612l46.20472 0l0 34.707275l-46.20472 0z" fill-rule="evenodd"/><path stroke="#000000" stroke-width="1.0" stroke-linejoin="round" stroke-linecap="butt" d="m-72.62986 281.89612l46.20472 0l0 34.707275l-46.20472 0z" fill-rule="evenodd"/><path fill="#6aa84f" d="m-72.62986 316.59848l46.20472 0l0 34.707275l-46.20472 0z" fill-rule="evenodd"/><path stroke="#000000" stroke-width="1.0" stroke-linejoin="round" stroke-linecap="butt" d="m-72.62986 316.59848l46.20472 0l0 34.707275l-46.20472 0z" fill-rule="evenodd"/><path fill="#6aa84f" d="m-72.62986 351.30087l46.20472 0l0 34.707245l-46.20472 0z" fill-rule="evenodd"/><path stroke="#000000" stroke-width="1.0" stroke-linejoin="round" stroke-linecap="butt" d="m-72.62986 351.30087l46.20472 0l0 34.707245l-46.20472 0z" fill-rule="evenodd"/><path fill="#6aa84f" d="m-72.62986 386.00323l46.20472 0l0 34.707275l-46.20472 0z" fill-rule="evenodd"/><path stroke="#000000" stroke-width="1.0" stroke-linejoin="round" stroke-linecap="butt" d="m-72.62986 386.00323l46.20472 0l0 34.707275l-46.20472 0z" fill-rule="evenodd"/><path fill="#cc0000" d="m-72.62986 420.70587l46.20472 0l0 34.707275l-46.20472 0z" fill-rule="evenodd"/><path stroke="#000000" stroke-width="1.0" stroke-linejoin="round" stroke-linecap="butt" d="m-72.62986 420.70587l46.20472 0l0 34.707275l-46.20472 0z" fill-rule="evenodd"/><path fill="#cc0000" d="m-72.62986 455.40823l46.20472 0l0 34.707275l-46.20472 0z" fill-rule="evenodd"/><path stroke="#000000" stroke-width="1.0" stroke-linejoin="round" stroke-linecap="butt" d="m-72.62986 455.40823l46.20472 0l0 34.707275l-46.20472 0z" fill-rule="evenodd"/><path fill="#cc0000" d="m1292.8849 489.79932l283.57483 -486.07874l283.57483 486.07874z" fill-rule="evenodd"/><path fill="#6aa84f" d="m1332.5227 421.45288l243.93701 -417.7323l243.93701 417.7323z" fill-rule="evenodd"/><path fill="#45818e" d="m1392.2235 318.83868l184.2362 -315.1181l184.2362 315.1181z" fill-rule="evenodd"/><path fill="#cc0000" d="m2.0419436 489.8062l283.5793 -486.08554l283.5793 486.08554z" fill-rule="evenodd"/><path fill="#6aa84f" d="m81.58591 353.0281l204.03534 -349.3089l204.03534 349.3089z" fill-rule="evenodd"/><path fill="#45818e" d="m219.71799 116.88042l65.90326 -113.15856l65.90326 113.15856z" fill-rule="evenodd"/><path fill="#cc0000" d="m647.46765 490.03168l283.57483 -486.07874l283.57483 486.07874z" fill-rule="evenodd"/><path fill="#6aa84f" d="m707.4834 387.22836l223.55908 -383.2756l223.55908 383.2756z" fill-rule="evenodd"/><path fill="#45818e" d="m810.822 209.93701l120.22046 -205.98425l120.22046 205.98425z" fill-rule="evenodd"/><path fill="#000000" fill-opacity="0.0" d="m647.4587 488.28873l283.57483 -486.04724l283.57477 486.04724z" fill-rule="evenodd"/><path stroke="#000000" stroke-width="4.0" stroke-linejoin="round" stroke-linecap="butt" d="m647.4587 488.28873l283.57483 -486.04724l283.57477 486.04724z" fill-rule="evenodd"/><path fill="#000000" fill-opacity="0.0" d="m2.0464473 488.28873l283.5748 -486.04724l283.5748 486.04724z" fill-rule="evenodd"/><path stroke="#000000" stroke-width="4.0" stroke-linejoin="round" stroke-linecap="butt" d="m2.0464473 488.28873l283.5748 -486.04724l283.5748 486.04724z" fill-rule="evenodd"/><path fill="#000000" fill-opacity="0.0" d="m1847.2749 421.65878l289.19678 0l0 68.409454l-289.19678 0z" fill-rule="evenodd"/><path fill="#000000" d="m1866.1655 469.98352l-6.375 -24.078125l-2.71875 -0.296875l0 -3.109375l10.609375 0l0 3.109375l-2.953125 0.4375l3.3125 13.75l0.640625 2.671875l0.109375 0.015625l0.765625 -2.6875l5.46875 -17.296875l3.90625 0l5.625 17.671875l0.734375 2.515625l0.109375 0l0.65625 -2.515625l3.375 -14.125l-3.09375 -0.4375l0 -3.109375l10.40625 0l0 3.109375l-2.53125 0.296875l-6.375 24.078125l-4.703125 0l-5.359375 -16.6875l-0.6875 -2.375l-0.109375 0l-0.734375 2.4375l-5.421875 16.625l-4.65625 0zm28.843628 0l0 -3.09375l1.984375 -0.28125l8.921875 -24.109375l5.109375 0l8.859375 24.109375l1.96875 0.28125l0 3.09375l-9.046875 0l0 -3.09375l1.9375 -0.359375l-1.328125 -4.046875l-9.953125 0l-1.34375 4.046875l1.921875 0.359375l0 3.09375l-9.03125 0zm9.71875 -11.359375l7.421875 0l-3.390625 -9.78125l-0.25 -0.796875l-0.125 0l-0.28125 0.828125l-3.375 9.75zm19.161621 11.359375l0 -3.09375l2.953125 -0.5625l0 -20.140625l-2.953125 -0.578125l0 -3.109375l12.875 0q3.109375 0 5.34375 0.96875q2.234375 0.953125 3.40625 2.765625q1.1875 1.8125 1.1875 4.34375q0 2.421875 -1.171875 4.28125q-1.171875 1.84375 -3.28125 2.890625q-2.09375 1.046875 -4.875 1.0625l-5.390625 0.015625l0 7.5l2.96875 0.5625l0 3.09375l-11.0625 0zm17.78125 0l-4.953125 -12.265625l4.71875 -0.96875l4.234375 9.609375l2.234375 0.484375l0 3.140625l-6.234375 0zm-9.6875 -15.125l4.609375 0q2.546875 0 3.765625 -1.046875q1.234375 -1.046875 1.234375 -3.046875q0 -1.953125 -1.21875 -3.125q-1.203125 -1.171875 -3.609375 -1.171875l-4.78125 0l0 8.390625zm38.838623 15.515625q-2.921875 0 -5.390625 -0.6875q-2.453125 -0.6875 -4.796875 -2.328125l0 -6.484375l3.96875 0l0.59375 4.0q0.9375 0.71875 2.40625 1.15625q1.484375 0.421875 3.21875 0.421875q1.59375 0 2.671875 -0.4375q1.09375 -0.453125 1.65625 -1.265625q0.5625 -0.828125 0.5625 -1.921875q0 -1.046875 -0.515625 -1.84375q-0.5 -0.8125 -1.671875 -1.46875q-1.15625 -0.65625 -3.125 -1.234375q-3.171875 -0.890625 -5.296875 -2.015625q-2.109375 -1.140625 -3.15625 -2.734375q-1.046875 -1.59375 -1.046875 -3.796875q0 -2.21875 1.21875 -3.921875q1.21875 -1.703125 3.375 -2.6875q2.15625 -0.984375 4.96875 -1.0q3.140625 -0.03125 5.53125 0.78125q2.40625 0.796875 4.09375 2.1875l0 6.03125l-3.859375 0l-0.703125 -3.796875q-0.75 -0.5 -1.984375 -0.859375q-1.21875 -0.359375 -2.828125 -0.359375q-1.375 0 -2.4375 0.421875q-1.046875 0.421875 -1.65625 1.234375q-0.609375 0.8125 -0.609375 1.953125q0 0.96875 0.53125 1.71875q0.53125 0.734375 1.765625 1.359375q1.25 0.609375 3.390625 1.28125q4.515625 1.21875 6.84375 3.3125q2.328125 2.078125 2.328125 5.40625q0 2.296875 -1.265625 4.015625q-1.25 1.703125 -3.5 2.640625q-2.25 0.921875 -5.28125 0.921875zm18.86731 -0.390625l0 -3.09375l2.953125 -0.5625l0 -19.875l-5.265625 0l-0.359375 3.390625l-3.859375 0l0 -7.34375l24.15625 0l0 7.34375l-3.890625 0l-0.359375 -3.390625l-5.28125 0l0 19.875l2.984375 0.5625l0 3.09375l-11.078125 0zm31.62378 0.390625q-2.75 0 -5.0 -1.015625q-2.25 -1.03125 -3.859375 -2.90625q-1.609375 -1.890625 -2.484375 -4.421875q-0.859375 -2.546875 -0.859375 -5.578125l0 -0.421875q0 -3.015625 0.859375 -5.546875q0.875 -2.546875 2.484375 -4.421875q1.609375 -1.875 3.84375 -2.90625q2.25 -1.046875 5.0 -1.046875q2.8125 0 5.0625 1.046875q2.265625 1.03125 3.890625 2.90625q1.625 1.875 2.484375 4.421875q0.859375 2.53125 0.859375 5.546875l0 0.421875q0 3.03125 -0.859375 5.578125q-0.859375 2.53125 -2.484375 4.421875q-1.609375 1.875 -3.875 2.90625q-2.265625 1.015625 -5.0625 1.015625zm0 -4.03125q2.421875 0 4.0 -1.234375q1.59375 -1.234375 2.375 -3.453125q0.78125 -2.234375 0.78125 -5.203125l0 -0.453125q0 -2.921875 -0.796875 -5.125q-0.78125 -2.21875 -2.375 -3.46875q-1.59375 -1.25 -4.0 -1.25q-2.34375 0 -3.90625 1.25q-1.5625 1.234375 -2.34375 3.4375q-0.78125 2.203125 -0.78125 5.15625l0 0.453125q0 2.9375 0.78125 5.1875q0.78125 2.234375 2.359375 3.46875q1.578125 1.234375 3.90625 1.234375zm14.619141 3.640625l0 -3.09375l2.953125 -0.5625l0 -20.140625l-2.953125 -0.578125l0 -3.109375l12.875 0q3.109375 0 5.34375 0.96875q2.234375 0.953125 3.40625 2.765625q1.1875 1.8125 1.1875 4.34375q0 2.421875 -1.171875 4.28125q-1.171875 1.84375 -3.28125 2.890625q-2.09375 1.046875 -4.875 1.0625l-5.390625 0.015625l0 7.5l2.96875 0.5625l0 3.09375l-11.0625 0zm17.78125 0l-4.953125 -12.265625l4.71875 -0.96875l4.234375 9.609375l2.234375 0.484375l0 3.140625l-6.234375 0zm-9.6875 -15.125l4.609375 0q2.546875 0 3.765625 -1.046875q1.234375 -1.046875 1.234375 -3.046875q0 -1.953125 -1.21875 -3.125q-1.203125 -1.171875 -3.609375 -1.171875l-4.78125 0l0 8.390625zm18.38794 15.125l0 -3.09375l2.953125 -0.5625l0 -20.140625l-2.953125 -0.578125l0 -3.109375l11.0625 0l0 3.109375l-2.96875 0.578125l0 20.140625l2.96875 0.5625l0 3.09375l-11.0625 0zm13.363525 0l0 -3.09375l2.953125 -0.5625l0 -20.140625l-2.953125 -0.578125l0 -3.109375l21.109375 0l0 7.25l-3.953125 0l-0.28125 -3.296875l-8.78125 0l0 7.34375l9.46875 0l0 3.96875l-9.46875 0l0 8.296875l9.265625 0l0.28125 -3.375l3.921875 0l0 7.296875l-21.5625 0zm35.60742 0.390625q-2.921875 0 -5.390625 -0.6875q-2.453125 -0.6875 -4.796875 -2.328125l0 -6.484375l3.96875 0l0.59375 4.0q0.9375 0.71875 2.40625 1.15625q1.484375 0.421875 3.21875 0.421875q1.59375 0 2.671875 -0.4375q1.09375 -0.453125 1.65625 -1.265625q0.5625 -0.828125 0.5625 -1.921875q0 -1.046875 -0.515625 -1.84375q-0.5 -0.8125 -1.671875 -1.46875q-1.15625 -0.65625 -3.125 -1.234375q-3.171875 -0.890625 -5.296875 -2.015625q-2.109375 -1.140625 -3.15625 -2.734375q-1.046875 -1.59375 -1.046875 -3.796875q0 -2.21875 1.21875 -3.921875q1.21875 -1.703125 3.375 -2.6875q2.15625 -0.984375 4.96875 -1.0q3.140625 -0.03125 5.53125 0.78125q2.40625 0.796875 4.09375 2.1875l0 6.03125l-3.859375 0l-0.703125 -3.796875q-0.75 -0.5 -1.984375 -0.859375q-1.21875 -0.359375 -2.828125 -0.359375q-1.375 0 -2.4375 0.421875q-1.046875 0.421875 -1.65625 1.234375q-0.609375 0.8125 -0.609375 1.953125q0 0.96875 0.53125 1.71875q0.53125 0.734375 1.765625 1.359375q1.25 0.609375 3.390625 1.28125q4.515625 1.21875 6.84375 3.3125q2.328125 2.078125 2.328125 5.40625q0 2.296875 -1.265625 4.015625q-1.25 1.703125 -3.5 2.640625q-2.25 0.921875 -5.28125 0.921875z" fill-rule="nonzero"/><path fill="#000000" fill-opacity="0.0" d="m1292.8832 487.27954l283.57483 -486.04724l283.57483 486.04724z" fill-rule="evenodd"/><path stroke="#000000" stroke-width="4.0" stroke-linejoin="round" stroke-linecap="butt" d="m1292.8832 487.27954l283.57483 -486.04724l283.57483 486.04724z" fill-rule="evenodd"/></g></svg>