<svg version="1.1" viewBox="0.0 0.0 268.43832020997377 269.12598425196853" fill="none" stroke="none" stroke-linecap="square" stroke-miterlimit="10" xmlns:xlink="http://www.w3.org/1999/xlink" xmlns="http://www.w3.org/2000/svg"><clipPath id="p.0"><path d="m0 0l268.43832 0l0 269.12598l-268.43832 0l0 -269.12598z" clip-rule="nonzero"/></clipPath><g clip-path="url(#p.0)"><path fill="#000000" fill-opacity="0.0" d="m0 0l268.43832 0l0 269.12598l-268.43832 0z" fill-rule="evenodd"/><defs><radialGradient id="p.1" gradientUnits="userSpaceOnUse" gradientTransform="matrix(19.356319673144974 11.175601651342404 -11.175601651342404 19.356319673144974 0.0 0.0)" spreadMethod="pad" cx="9.51045120689124" cy="7.755847971034373" fx="9.51045120689124" fy="7.755847971034373" r="19.356319427490234"><stop offset="0.0" stop-color="#dfe9fb"/><stop offset="0.5" stop-color="#6d9eeb"/><stop offset="1.0" stop-color="#434343"/></radialGradient></defs><path fill="url(#p.1)" d="m-163.45508 105.79552l0 0c85.75634 -148.52547 272.06934 -201.49687 416.14172 -118.314964l0 0c69.18599 39.945362 119.17897 106.58819 138.98103 185.26782c19.802094 78.67963 7.791168 162.95105 -33.390472 234.27548l0 0c-85.75635 148.52545 -272.06934 201.49689 -416.14175 118.31494l0 0c-144.07239 -83.181885 -191.3469 -271.01782 -105.59055 -419.54327z" fill-rule="evenodd"/><path fill="#f3f3f3" d="m1.3703401 200.93431l0 0c30.606142 -53.010635 98.39094 -71.17308 151.40157 -40.566925l0 0c25.456604 14.697586 44.031982 38.905792 51.639755 67.2991c7.607773 28.393295 3.624771 58.64586 -11.07283 84.10246l0 0c-30.60614 53.01065 -98.39093 71.173065 -151.40157 40.566925l0 0c-53.01064 -30.60614 -71.17307 -98.39093 -40.566933 -151.40157z" fill-rule="evenodd"/><path stroke="#666666" stroke-width="1.0" stroke-linejoin="round" stroke-linecap="butt" stroke-dasharray="4.0,3.0" d="m1.3703401 200.93431l0 0c30.606142 -53.010635 98.39094 -71.17308 151.40157 -40.566925l0 0c25.456604 14.697586 44.031982 38.905792 51.639755 67.2991c7.607773 28.393295 3.624771 58.64586 -11.07283 84.10246l0 0c-30.60614 53.01065 -98.39093 71.173065 -151.40157 40.566925l0 0c-53.01064 -30.60614 -71.17307 -98.39093 -40.566933 -151.40157z" fill-rule="evenodd"/><path fill="#efefef" d="m28.108082 216.38579l0 0c22.100086 -38.277252 71.04559 -51.384384 109.322845 -29.275604l0 0c18.381378 10.61702 31.793976 28.101166 37.28717 48.606125c5.4931793 20.504974 2.6170044 42.351074 -7.9958344 60.732452l0 0c-22.100098 38.277252 -71.04559 51.3844 -109.32284 29.275604l0 0c-38.27725 -22.108795 -51.391426 -71.06134 -29.29134 -109.33858z" fill-rule="evenodd"/><path stroke="#999999" stroke-width="1.0" stroke-linejoin="round" stroke-linecap="butt" stroke-dasharray="4.0,3.0" d="m28.108082 216.38579l0 0c22.100086 -38.277252 71.04559 -51.384384 109.322845 -29.275604l0 0c18.381378 10.61702 31.793976 28.101166 37.28717 48.606125c5.4931793 20.504974 2.6170044 42.351074 -7.9958344 60.732452l0 0c-22.100098 38.277252 -71.04559 51.3844 -109.32284 29.275604l0 0c-38.27725 -22.108795 -51.391426 -71.06134 -29.29134 -109.33858z" fill-rule="evenodd"/><path fill="#000000" fill-opacity="0.0" d="m-0.001312336 0.34251967l268.44095 0l0 268.44095l-268.44095 0z" fill-rule="evenodd"/><path stroke="#000000" stroke-width="1.0" stroke-linejoin="round" stroke-linecap="butt" d="m-0.001312336 0.34251967l268.44095 0l0 268.44095l-268.44095 0z" fill-rule="evenodd"/><path fill="#000000" fill-opacity="0.0" d="m189.36195 94.36691l0 0c2.6700897 -4.6357117 8.592636 -6.2220993 13.228348 -3.5433044l0 0c2.2261353 1.2864075 3.8517456 3.404457 4.5191956 5.8882065c0.6674652 2.4837494 0.32208252 5.129738 -0.96014404 7.3558884l0 0c-2.670105 4.6357117 -8.592636 6.222107 -13.228348 3.5433044l0 0c-4.6357117 -2.6787949 -6.2291565 -8.608376 -3.5590515 -13.244095z" fill-rule="evenodd"/><path fill="#000000" fill-opacity="0.0" d="m126.18517 206.1476c0 -13.6236725 -6.7480316 -25.361511 -13.496063 -27.24733c-6.7480316 -1.8858337 -13.496063 6.080353 -13.496063 12.160721" fill-rule="evenodd"/><path stroke="#999999" stroke-width="1.0" stroke-linejoin="round" stroke-linecap="butt" d="m126.18517 206.1476c0 -13.6236725 -6.7480316 -25.361511 -13.496063 -27.24733c-6.7480316 -1.8858337 -13.496063 6.080353 -13.496063 12.160721" fill-rule="evenodd"/><path fill="#000000" fill-opacity="0.0" d="m219.06706 45.257477l-92.88189 160.8819" fill-rule="evenodd"/><path stroke="#000000" stroke-width="3.0" stroke-linejoin="round" stroke-linecap="butt" d="m219.06706 45.257477l-92.88189 160.8819" fill-rule="evenodd"/><path fill="#000000" fill-opacity="0.0" d="m160.01886 75.938515c7.0121613 0 10.3550415 4.6063004 14.0243225 9.212601c3.6692963 4.6063004 7.6650085 9.212601 15.330017 9.212601" fill-rule="evenodd"/><path stroke="#ffffff" stroke-width="2.0" stroke-linejoin="round" stroke-linecap="butt" d="m160.01886 75.93852c7.0121613 0 10.355026 4.6063004 14.0243225 9.212593c0.9173279 1.1515732 1.8550568 2.3031464 2.8654022 3.3827515c0.252594 0.26989746 0.50971985 0.5352936 0.7722168 0.7950821c0.13122559 0.12989044 0.2638092 0.25836945 0.3978424 0.3853073l0.16789246 0.15531158" fill-rule="evenodd"/><path fill="#ffffff" stroke="#ffffff" stroke-width="2.0" stroke-linecap="butt" d="m177.00934 92.93262l9.652847 0.33609772l-7.178467 -6.4621887z" fill-rule="evenodd"/><path fill="#000000" fill-opacity="0.0" d="m307.11243 129.12778c-0.007873535 0.01574707 0.0039367676 0.03149414 0.01574707 0.04724121c0.011810303 0.01574707 0.023620605 0.03149414 0.01574707 0.04724121" fill-rule="evenodd"/><path stroke="#000000" stroke-width="1.0" stroke-linejoin="round" stroke-linecap="butt" d="m307.11243 129.12778c-0.007873535 0.01574707 0.0039367676 0.03149414 0.01574707 0.04724121c0.011810303 0.01574707 0.023620605 0.03149414 0.01574707 0.04724121" fill-rule="evenodd"/><path fill="#ffffff" d="m92.64682 187.12674l-8.357994 16.696136l2.6064835 9.285065l8.709656 -3.9125214l8.098175 -16.417587l-3.1710052 -1.6970825l4.4984894 -3.072876l-9.351006 -4.542923l0.3478775 5.2804413z" fill-rule="evenodd"/><path stroke="#000000" stroke-width="2.0" stroke-linejoin="round" stroke-linecap="butt" d="m92.64682 187.12674l-8.357994 16.696136l2.6064835 9.285065l8.709656 -3.9125214l8.098175 -16.417587l-3.1710052 -1.6970825l4.4984894 -3.072876l-9.351006 -4.542923l0.3478775 5.2804413z" fill-rule="evenodd"/><defs><radialGradient id="p.2" gradientUnits="userSpaceOnUse" gradientTransform="matrix(1.7574741661880167 0.8659647422416544 0.8659647422416544 -1.7574741661880167 0.0 0.0)" spreadMethod="pad" cx="87.83184250438654" cy="-73.86806947505819" fx="87.83184250438654" fy="-73.86806947505819" r="1.7574741840362549"><stop offset="0.0" stop-color="#dfe9fb"/><stop offset="1.0" stop-color="#6e9be7"/></radialGradient></defs><path fill="url(#p.2)" d="m88.210785 204.80424l0 0c-0.5943985 1.2060394 -0.09832764 2.6655884 1.1080093 3.2599945l0 0c0.5792999 0.28544617 1.2482681 0.32911682 1.8597336 0.12142944c0.61146545 -0.20768738 1.1153488 -0.64974976 1.4007874 -1.2289124l0 0c0.5943985 -1.2060394 0.09832764 -2.6655884 -1.1080093 -3.2599945l0 0c-1.206337 -0.59439087 -2.6661224 -0.09855652 -3.260521 1.1074829z" fill-rule="evenodd"/><path stroke="#000000" stroke-width="1.0" stroke-linejoin="round" stroke-linecap="butt" d="m88.210785 204.80424l0 0c-0.5943985 1.2060394 -0.09832764 2.6655884 1.1080093 3.2599945l0 0c0.5792999 0.28544617 1.2482681 0.32911682 1.8597336 0.12142944c0.61146545 -0.20768738 1.1153488 -0.64974976 1.4007874 -1.2289124l0 0c0.5943985 -1.2060394 0.09832764 -2.6655884 -1.1080093 -3.2599945l0 0c-1.206337 -0.59439087 -2.6661224 -0.09855652 -3.260521 1.1074829z" fill-rule="evenodd"/><path fill="#ff0000" d="m85.06221 201.96648c-0.09616089 -0.9287262 -1.0421677 -2.9313812 -0.57699585 -5.5723877c0.46517944 -2.6409912 2.4474182 -9.529526 3.368042 -10.273621c0.92061615 -0.74409485 1.796402 4.8408813 2.1556854 5.8090515" fill-rule="evenodd"/><path stroke="#000000" stroke-width="1.0" stroke-linejoin="round" stroke-linecap="butt" d="m85.06221 201.96648c-0.09616089 -0.9287262 -1.0421677 -2.9313812 -0.57699585 -5.5723877c0.46517944 -2.6409912 2.4474182 -9.529526 3.368042 -10.273621c0.92061615 -0.74409485 1.796402 4.8408813 2.1556854 5.8090515" fill-rule="evenodd"/><path fill="#ff0000" d="m96.6104 207.65665c0.7951584 -0.48954773 2.9597855 -0.9594879 4.770981 -2.9372559c1.811203 -1.9777832 6.06691 -7.7460938 6.0962067 -8.929382c0.029289246 -1.1832886 -4.933716 1.5247345 -5.920456 1.8296814" fill-rule="evenodd"/><path stroke="#000000" stroke-width="1.0" stroke-linejoin="round" stroke-linecap="butt" d="m96.6104 207.65665c0.7951584 -0.48954773 2.9597855 -0.9594879 4.770981 -2.9372559c1.811203 -1.9777832 6.06691 -7.7460938 6.0962067 -8.929382c0.029289246 -1.1832886 -4.933716 1.5247345 -5.920456 1.8296814" fill-rule="evenodd"/><path fill="#000000" fill-opacity="0.0" d="m126.18517 206.1476c0 -28.030472 -21.267715 -54.51764 -42.53544 -56.060944c-21.267712 -1.5433044 -42.53543 21.857239 -42.53543 43.714493" fill-rule="evenodd"/><path stroke="#666666" stroke-width="2.0" stroke-linejoin="round" stroke-linecap="butt" d="m126.18517 206.1476c0 -28.030472 -21.267715 -54.51764 -42.53544 -56.060944c-21.267712 -1.5433044 -42.53543 21.857239 -42.53543 43.714493" fill-rule="evenodd"/><path fill="#ffffff" d="m35.0235 199.71478l17.320633 16.275314l12.274002 0.20141602l-1.6005554 -12.049377l-17.0755 -15.856949l-3.2245903 3.2502747l-2.1098824 -6.6065216l-8.94599 9.752838l6.5671597 1.4983978z" fill-rule="evenodd"/><path stroke="#000000" stroke-width="2.0" stroke-linejoin="round" stroke-linecap="butt" d="m35.0235 199.71478l17.320633 16.275314l12.274002 0.20141602l-1.6005554 -12.049377l-17.0755 -15.856949l-3.2245903 3.2502747l-2.1098824 -6.6065216l-8.94599 9.752838l6.5671597 1.4983978z" fill-rule="evenodd"/><defs><radialGradient id="p.3" gradientUnits="userSpaceOnUse" gradientTransform="matrix(1.6628414925272836 -1.792646639774075 -1.792646639774075 -1.6628414925272836 0.0 0.0)" spreadMethod="pad" cx="-46.8792558510332" cy="-75.32441976765728" fx="-46.8792558510332" fy="-75.32441976765728" r="1.7926466464996338"><stop offset="0.0" stop-color="#dfe9fb"/><stop offset="1.0" stop-color="#6e9be7"/></radialGradient></defs><path fill="url(#p.3)" d="m54.969227 211.56314l0 0c1.2545547 1.1642609 3.2153854 1.0905762 4.3796425 -0.16456604l0 0c0.5590935 -0.6027374 0.85596466 -1.4028778 0.8253021 -2.2244263c-0.030662537 -0.8215332 -0.38634872 -1.597168 -0.9888077 -2.1562653l0 0c-1.2545509 -1.1642609 -3.2153854 -1.0905762 -4.3796387 0.16456604l0 0c-1.1642532 1.255127 -1.091053 3.2164307 0.16350174 4.3806915z" fill-rule="evenodd"/><path stroke="#000000" stroke-width="1.0" stroke-linejoin="round" stroke-linecap="butt" d="m54.969227 211.56314l0 0c1.2545547 1.1642609 3.2153854 1.0905762 4.3796425 -0.16456604l0 0c0.5590935 -0.6027374 0.85596466 -1.4028778 0.8253021 -2.2244263c-0.030662537 -0.8215332 -0.38634872 -1.597168 -0.9888077 -2.1562653l0 0c-1.2545509 -1.1642609 -3.2153854 -1.0905762 -4.3796387 0.16456604l0 0c-1.1642532 1.255127 -1.091053 3.2164307 0.16350174 4.3806915z" fill-rule="evenodd"/><path fill="#ff0000" d="m50.361523 214.37068c-1.167778 -0.22087097 -3.9548607 0.2039032 -7.006672 -1.3252106c-3.0518112 -1.529129 -10.731869 -6.4555664 -11.304199 -7.8495483c-0.5723343 -1.3939972 6.558502 -0.42868042 7.870205 -0.5144043" fill-rule="evenodd"/><path stroke="#000000" stroke-width="1.0" stroke-linejoin="round" stroke-linecap="butt" d="m50.361523 214.37068c-1.167778 -0.22087097 -3.9548607 0.2039032 -7.006672 -1.3252106c-3.0518112 -1.529129 -10.731869 -6.4555664 -11.304199 -7.8495483c-0.5723343 -1.3939972 6.558502 -0.42868042 7.870205 -0.5144043" fill-rule="evenodd"/><path fill="#ff0000" d="m61.506863 202.35532c-0.3075409 -1.1482544 -0.09250641 -3.9599457 -1.8452492 -6.889557c-1.7527428 -2.9296112 -7.238636 -10.221481 -8.671204 -10.68808c-1.4325714 -0.4665985 0.06315613 6.573715 0.07578659 7.8884583" fill-rule="evenodd"/><path stroke="#000000" stroke-width="1.0" stroke-linejoin="round" stroke-linecap="butt" d="m61.506863 202.35532c-0.3075409 -1.1482544 -0.09250641 -3.9599457 -1.8452492 -6.889557c-1.7527428 -2.9296112 -7.238636 -10.221481 -8.671204 -10.68808c-1.4325714 -0.4665985 0.06315613 6.573715 0.07578659 7.8884583" fill-rule="evenodd"/><path fill="#ffffff" d="m41.117844 193.80208l0 0c2.9484177 -2.3569946 7.2493057 -1.8775482 9.6063 1.0708618l0 0c1.1318665 1.4158783 1.6549225 3.223404 1.4540939 5.024933c-0.20082474 1.8015289 -1.1090813 3.4494934 -2.5249634 4.581375l0 0c-2.9484177 2.3569946 -7.249302 1.8775482 -9.606297 -1.0708771l0 0c-2.3569946 -2.94841 -1.877552 -7.249298 1.0708656 -9.606293z" fill-rule="evenodd"/><path fill="#ffffff" d="m90.60554 195.31863l0 0c-0.19133759 -2.861435 1.9732056 -5.336212 4.834648 -5.5275574l0 0c1.374115 -0.09188843 2.728447 0.36586 3.765068 1.272522c1.0366135 0.90667725 1.6706009 2.1880035 1.7624893 3.5621185l0 0c0.19134521 2.8614502 -1.9731979 5.3362274 -4.834648 5.5275726l0 0c-2.8614426 0.19132996 -5.336212 -1.9732056 -5.5275574 -4.834656z" fill-rule="evenodd"/><path fill="#000000" fill-opacity="0.0" d="m116.468636 208.74602l0 0c1.9656143 -3.4006805 6.3158493 -4.564026 9.716537 -2.5984192l0 0c1.6330643 0.94392395 2.8242722 2.4979095 3.3115768 4.320114c0.48728943 1.8222046 0.23075867 3.7633514 -0.71315 5.3964233l0 0c-1.9656143 3.4006805 -6.315857 4.564041 -9.716537 2.5984192l0 0c-3.4006805 -1.9656067 -4.564041 -6.315857 -2.5984268 -9.716537z" fill-rule="evenodd"/><path fill="#ffffff" d="m208.17534 44.893723l14.371384 -25.257977l14.267044 -4.6607437l2.4715881 14.653255l-14.235748 24.680847l-4.9383698 -2.634346l-0.08456421 8.478516l-13.965546 -8.167809l7.1324615 -4.1182747z" fill-rule="evenodd"/><path stroke="#000000" stroke-width="2.0" stroke-linejoin="round" stroke-linecap="butt" d="m208.17534 44.893723l14.371384 -25.257977l14.267044 -4.6607437l2.4715881 14.653255l-14.235748 24.680847l-4.9383698 -2.634346l-0.08456421 8.478516l-13.965546 -8.167809l7.1324615 -4.1182747z" fill-rule="evenodd"/><defs><radialGradient id="p.4" gradientUnits="userSpaceOnUse" gradientTransform="matrix(2.1542622561758153 1.24385893914049 -1.24385893914049 2.1542622561758153 0.0 0.0)" spreadMethod="pad" cx="85.41863011542597" cy="-37.36455286346255" fx="85.41863011542597" fy="-37.36455286346255" r="2.1542623043060303"><stop offset="0.0" stop-color="#dfe9fb"/><stop offset="1.0" stop-color="#6e9be7"/></radialGradient></defs><path fill="url(#p.4)" d="m227.20868 23.860853l0 0c1.0461884 -1.8124275 3.363556 -2.4333458 5.1759796 -1.3868599l0 0c0.8703613 0.5025387 1.5054932 1.3302441 1.765686 2.3010292c0.2601776 0.97078514 0.12409973 2.0051289 -0.3782959 2.8754864l0 0c-1.0461884 1.8124256 -3.363556 2.433344 -5.1759796 1.3868599l0 0c-1.8124237 -1.046484 -2.4335938 -3.36409 -1.3873901 -5.1765156z" fill-rule="evenodd"/><path stroke="#000000" stroke-width="1.0" stroke-linejoin="round" stroke-linecap="butt" d="m227.20868 23.860853l0 0c1.0461884 -1.8124275 3.363556 -2.4333458 5.1759796 -1.3868599l0 0c0.8703613 0.5025387 1.5054932 1.3302441 1.765686 2.3010292c0.2601776 0.97078514 0.12409973 2.0051289 -0.3782959 2.8754864l0 0c-1.0461884 1.8124256 -3.363556 2.433344 -5.1759796 1.3868599l0 0c-1.8124237 -1.046484 -2.4335938 -3.36409 -1.3873901 -5.1765156z" fill-rule="evenodd"/><path fill="#ff0000" d="m220.81395 22.242388c-1.2847137 0.6790714 -4.6938934 1.1877384 -7.7083435 4.074423c-3.0144348 2.8866844 -10.211945 11.410854 -10.378326 13.245682c-0.16638184 1.8348274 7.816696 -1.8639259 9.380035 -2.2367096" fill-rule="evenodd"/><path stroke="#000000" stroke-width="1.0" stroke-linejoin="round" stroke-linecap="butt" d="m220.81395 22.242388c-1.2847137 0.6790714 -4.6938934 1.1877384 -7.7083435 4.074423c-3.0144348 2.8866844 -10.211945 11.410854 -10.378326 13.245682c-0.16638184 1.8348274 7.816696 -1.8639259 9.380035 -2.2367096" fill-rule="evenodd"/><path fill="#ff0000" d="m238.1642 32.260326c0.0544281 1.4522896 1.3187408 4.659397 0.32658386 8.713741c-0.9921417 4.054348 -4.773941 14.550732 -6.2794647 15.612339c-1.505539 1.0616074 -2.2947998 -7.70224 -2.7537537 -9.242687" fill-rule="evenodd"/><path stroke="#000000" stroke-width="1.0" stroke-linejoin="round" stroke-linecap="butt" d="m238.1642 32.260326c0.0544281 1.4522896 1.3187408 4.659397 0.32658386 8.713741c-0.9921417 4.054348 -4.773941 14.550732 -6.2794647 15.612339c-1.505539 1.0616074 -2.2947998 -7.70224 -2.7537537 -9.242687" fill-rule="evenodd"/><path fill="#ffffff" d="m216.46863 35.540943l0 0c1.965622 -3.4006844 6.315857 -4.564039 9.716537 -2.5984268l0 0c1.6330719 0.94392014 2.8242798 2.4979134 3.3115845 4.320118c0.48728943 1.8222008 0.23075867 3.7633514 -0.71315 5.3964157l0 0c-1.965622 3.4006844 -6.315857 4.5640373 -9.716537 2.5984268l0 0c-3.4006805 -1.9656105 -4.564041 -6.315853 -2.5984344 -9.716534z" fill-rule="evenodd"/><path fill="#000000" fill-opacity="0.0" d="m81.02673 43.623558l78.99213 0l0 64.62992l-78.99213 0z" fill-rule="evenodd"/><path fill="#ffffff" d="m101.64993 58.231056q1.875 0 2.796875 0.359375l0 1.46875q-0.84375 0.125 -1.71875 0.140625q-0.859375 0 -1.828125 0.015625q-2.65625 0.046875 -3.375 0.203125q-0.25 1.1875 -0.234375 1.6875q0.03125 0.5 0.046875 0.78125q0.078125 0.71875 0.078125 1.328125q0.828125 0 2.40625 -0.21875q1.59375 -0.21875 2.484375 -0.3125q0.890625 -0.109375 2.203125 -0.109375l0 1.71875l-6.953125 0.859375l0.078125 2.296875q1.421875 0 3.296875 -0.171875q1.890625 -0.171875 2.859375 -0.25q0.984375 -0.09375 2.46875 -0.09375q0 0.84375 -0.28125 1.28125q-0.65625 0.890625 -1.1875 0.53125q-3.078125 0.328125 -5.609375 0.53125q-2.515625 0.1875 -3.796875 0.296875l0.078125 -12.53125q0.90625 0.265625 2.125 0.265625l4.0625 -0.078125zm11.32196 6.859375q2.390625 0 2.390625 1.390625q0 0.9375 -1.25 2.078125q-1.71875 1.5625 -4.640625 2.515625q-0.40625 0 -0.609375 -0.34375q-0.203125 -0.34375 -0.296875 -0.46875q-0.078125 -0.140625 -0.375 -0.59375q2.5 -0.828125 3.796875 -1.765625q0.765625 -0.546875 0.765625 -0.6875q0 -0.140625 -0.875 -0.140625q-0.859375 0 -2.9375 0.515625q-1.15625 -0.03125 -1.9375 -0.78125q-0.71875 -0.671875 -0.71875 -1.375q0 -0.71875 0.375 -1.265625q0.375 -0.5625 0.953125 -1.015625q0.59375 -0.453125 1.359375 -0.8125q1.875 -0.890625 3.859375 -0.890625q0.59375 0 1.125 0.109375q0.71875 0 0.8125 0.5625q0.109375 0.546875 0.109375 2.046875q-1.53125 -0.71875 -2.796875 -0.71875q-1.5625 0 -2.578125 0.640625q-0.953125 0.546875 -0.984375 1.390625q0 0.125 0.359375 0.125l1.28125 -0.15625q1.75 -0.359375 2.8125 -0.359375zm10.364563 2.8125q0.734375 -0.296875 1.484375 -0.5625q0.75 -0.28125 1.609375 -0.28125q0.875 0 0.875 0.78125q0 0.140625 -0.078125 0.4375q-0.0625 0.28125 -0.59375 0.59375q-0.53125 0.3125 -1.203125 0.5625q-0.671875 0.234375 -1.453125 0.4375q-0.78125 0.203125 -1.5 0.359375q-1.5625 0.3125 -2.234375 0.3125q-0.671875 0 -1.453125 -0.15625q-0.78125 -0.15625 -1.46875 -0.515625q-1.671875 -0.859375 -1.671875 -2.578125q0 -0.109375 0 -0.46875q0 -0.375 0.296875 -1.046875q0.3125 -0.671875 0.890625 -1.3125q0.578125 -0.65625 1.328125 -1.203125q1.59375 -1.140625 3.34375 -1.484375q0.640625 -0.125 1.046875 -0.125q0.40625 0 0.671875 0.015625q0.265625 0 0.578125 0.03125q0.328125 0.03125 0.59375 0.171875q0.671875 0.34375 0.671875 1.265625q0 0.640625 -0.78125 1.171875q-0.15625 0.109375 -0.78125 0.515625q-0.171875 -0.921875 -0.265625 -1.09375q-0.078125 -0.171875 -0.296875 -0.171875q-2.046875 0.453125 -3.546875 1.328125q-1.5625 0.921875 -1.5625 1.859375q0 0.109375 0.015625 0.25q0 0.96875 0.703125 1.34375q0.578125 0.328125 1.5625 0.328125q1.0 0 1.75 -0.234375q0.75 -0.25 1.46875 -0.53125zm11.634033 -0.140625q-1.03125 1.859375 -3.453125 2.40625q-0.578125 0.125 -1.03125 0.125q-0.4375 0 -0.75 0q-0.296875 -0.015625 -0.703125 -0.09375q-0.390625 -0.09375 -0.71875 -0.28125q-0.859375 -0.5 -0.859375 -1.359375q-0.078125 -0.328125 -0.078125 -0.78125q0 -0.46875 0.1875 -1.1875q0.203125 -0.734375 0.703125 -1.546875q0.515625 -0.828125 1.234375 -1.515625q1.53125 -1.46875 3.3125 -1.875q0.515625 -0.125 0.96875 -0.125q0.453125 0 0.78125 0.046875q1.3125 0 1.75 1.71875q0.25 0.96875 0.296875 2.609375q0.046875 1.640625 0.09375 2.515625q0.046875 0.859375 0.3125 2.015625l-1.875 0q-0.109375 -0.8125 -0.15625 -1.203125q-0.03125 -0.390625 -0.0625 -0.703125q-0.09375 -0.75 0.046875 -0.765625zm-0.34375 -3.4375q0 -0.6875 -0.671875 -0.6875q-0.140625 -0.015625 -0.25 -0.015625q-1.1875 0 -2.546875 1.1875q-0.671875 0.546875 -1.125 1.234375q-0.671875 0.953125 -0.671875 1.640625q0 0.765625 0.90625 0.90625q1.453125 -0.03125 2.828125 -1.390625q0.609375 -0.59375 1.0 -1.296875q0.53125 -0.90625 0.53125 -1.578125zm4.742096 -1.84375q2.203125 -0.84375 4.0625 -0.84375q2.5 0 3.375 1.375q0.40625 0.65625 0.40625 1.421875q0 1.015625 -0.609375 2.0625q-0.609375 1.03125 -1.625 1.859375q-2.28125 1.859375 -5.34375 2.140625q0.140625 0 0.140625 0.4375q0.015625 0.453125 0.015625 1.0q0.015625 0.546875 0.015625 1.15625q0.015625 0.625 0.03125 1.1875q0.0625 1.375 0.078125 1.578125q0.03125 0.21875 0.03125 0.359375q0 0.640625 -0.421875 0.953125q-0.40625 0.328125 -1.0 0.328125q-0.09375 0 -0.5625 0l-0.296875 -15.140625q0.359375 -0.5 0.796875 -0.46875q0.4375 0.015625 0.703125 0.21875q0.265625 0.203125 0.203125 0.375zm4.9375 1.34375q-0.53125 -0.265625 -1.15625 -0.265625q-0.609375 0 -1.234375 0.140625q-1.390625 0.25 -2.03125 1.125q-0.265625 0.375 -0.265625 0.953125q0 0.078125 0 0.140625l0 2.6875q3.1875 -0.71875 4.703125 -2.125q0.78125 -0.75 0.78125 -1.5q0 -0.734375 -0.796875 -1.15625zm7.1973267 4.6875q1.53125 0 4.75 -1.453125q0.453125 0 0.671875 0.265625q0.234375 0.25 0.234375 0.65625q-0.84375 1.46875 -3.03125 2.203125q-2.171875 0.71875 -4.0625 0.234375q-2.234375 -0.578125 -2.734375 -2.5625q-0.046875 -0.390625 -0.046875 -1.015625q0 -0.640625 0.328125 -1.65625q0.328125 -1.015625 1.09375 -1.921875q0.78125 -0.921875 1.828125 -1.453125q1.0625 -0.53125 2.265625 -0.53125q1.15625 0 2.5625 0.78125q0.671875 0.375 1.09375 0.890625q0.4375 0.515625 0.4375 1.109375q0 0.15625 -0.015625 0.296875q-0.046875 1.375 -1.34375 1.71875q-0.5 0.15625 -1.1875 0.15625l-2.609375 -0.109375q-1.171875 0 -1.765625 0.484375q-0.296875 0.234375 -0.40625 0.625q0.34375 1.28125 1.9375 1.28125zm2.984375 -4.984375q-0.3125 -0.21875 -0.6875 -0.328125q-0.375 -0.109375 -0.625 -0.109375q-0.234375 0 -0.859375 0.1875q-0.609375 0.1875 -1.09375 0.40625q-1.03125 0.46875 -1.03125 0.53125q1.09375 0.09375 1.8125 0.09375q1.9375 0 2.578125 -0.3125q0.21875 -0.09375 0.21875 -0.109375q0 -0.140625 -0.3125 -0.359375z" fill-rule="nonzero"/><path fill="#ffffff" d="m94.1712 92.427925q-0.484375 -1.3125 -1.8125 -3.890625q-1.3125 -2.59375 -1.75 -3.453125q-1.015625 -2.0625 -1.015625 -2.5q0 -0.484375 1.46875 -1.0625q0.796875 1.46875 1.34375 2.65625q0.5625 1.171875 1.109375 2.203125q1.28125 2.5 1.8125 3.125q-0.046875 0.03125 0.9375 -2.078125l1.5 -3.15625q1.203125 -2.546875 1.5625 -3.390625q0.796875 -0.9375 1.40625 -0.9375q0.8125 0 0.8125 1.21875l-5.25 11.53125q-0.5 0.328125 -1.15625 0.328125q-0.640625 0 -0.96875 -0.59375zm11.493469 -1.515625q1.53125 0 4.75 -1.453125q0.453125 0 0.671875 0.265625q0.234375 0.25 0.234375 0.65625q-0.84375 1.46875 -3.03125 2.203125q-2.171875 0.71875 -4.0625 0.234375q-2.234375 -0.578125 -2.734375 -2.5625q-0.046875 -0.390625 -0.046875 -1.015625q0 -0.640625 0.328125 -1.65625q0.328125 -1.015625 1.09375 -1.921875q0.78125 -0.921875 1.828125 -1.453125q1.0625 -0.53125 2.265625 -0.53125q1.15625 0 2.5625 0.78125q0.671875 0.375 1.09375 0.890625q0.4375 0.515625 0.4375 1.109375q0 0.15625 -0.015625 0.296875q-0.046875 1.375 -1.34375 1.71875q-0.5 0.15625 -1.1875 0.15625l-2.609375 -0.109375q-1.171875 0 -1.765625 0.484375q-0.296875 0.234375 -0.40625 0.625q0.34375 1.28125 1.9375 1.28125zm2.984375 -4.984375q-0.3125 -0.21875 -0.6875 -0.328125q-0.375 -0.109375 -0.625 -0.109375q-0.234375 0 -0.859375 0.1875q-0.609375 0.1875 -1.09375 0.40625q-1.03125 0.46875 -1.03125 0.53125q1.09375 0.09375 1.8125 0.09375q1.9375 0 2.578125 -0.3125q0.21875 -0.09375 0.21875 -0.109375q0 -0.140625 -0.3125 -0.359375zm3.3433228 -0.40625q-0.03125 -0.984375 -0.078125 -1.75q-0.03125 -0.78125 -0.046875 -1.140625q0 -0.359375 -0.3125 -1.96875q0.265625 -0.34375 0.46875 -0.609375q0.21875 -0.28125 0.703125 -0.28125q0.96875 0 1.359375 5.734375q0.171875 3.109375 0.171875 6.25q0 1.203125 -1.546875 1.203125l-0.515625 -0.046875q0 -1.296875 -0.0625 -2.765625q-0.046875 -1.46875 -0.078125 -2.546875q-0.015625 -1.09375 -0.0625 -2.078125zm3.073883 3.578125q0 -2.328125 2.015625 -3.765625q1.546875 -1.09375 3.75 -1.328125q0.125 0 0.546875 0q0.4375 0 1.171875 0.265625q1.65625 0.5625 2.265625 2.015625q0.25 0.578125 0.25 0.984375q0 0.390625 -0.015625 0.546875q0 2.4375 -1.890625 3.859375q-1.703125 1.28125 -4.21875 1.28125q-1.875 0 -2.875 -0.890625q-1.0 -0.90625 -1.0 -2.96875zm2.0 0.46875q0 0.90625 0.4375 1.1875q0.359375 0.234375 1.359375 0.234375q1.0 0 1.765625 -0.15625q0.765625 -0.15625 1.34375 -0.515625q1.203125 -0.765625 1.203125 -2.390625q0 -0.953125 -0.5 -1.546875q-0.53125 -0.609375 -1.359375 -0.609375q-0.6875 0.125 -1.375 0.265625q-0.671875 0.125 -1.234375 0.5q-1.25 0.8125 -1.640625 3.03125zm15.634766 0.734375q0.734375 -0.296875 1.484375 -0.5625q0.75 -0.28125 1.609375 -0.28125q0.875 0 0.875 0.78125q0 0.140625 -0.078125 0.4375q-0.0625 0.28125 -0.59375 0.59375q-0.53125 0.3125 -1.203125 0.5625q-0.671875 0.234375 -1.453125 0.4375q-0.78125 0.203125 -1.5 0.359375q-1.5625 0.3125 -2.234375 0.3125q-0.671875 0 -1.453125 -0.15625q-0.78125 -0.15625 -1.46875 -0.515625q-1.671875 -0.859375 -1.671875 -2.578125q0 -0.109375 0 -0.46875q0 -0.375 0.296875 -1.046875q0.3125 -0.671875 0.890625 -1.3125q0.578125 -0.65625 1.328125 -1.203125q1.59375 -1.140625 3.34375 -1.484375q0.640625 -0.125 1.046875 -0.125q0.40625 0 0.671875 0.015625q0.265625 0 0.578125 0.03125q0.328125 0.03125 0.59375 0.171875q0.671875 0.34375 0.671875 1.265625q0 0.640625 -0.78125 1.171875q-0.15625 0.109375 -0.78125 0.515625q-0.171875 -0.921875 -0.265625 -1.09375q-0.078125 -0.171875 -0.296875 -0.171875q-2.046875 0.453125 -3.546875 1.328125q-1.5625 0.921875 -1.5625 1.859375q0 0.109375 0.015625 0.25q0 0.96875 0.703125 1.34375q0.578125 0.328125 1.5625 0.328125q1.0 0 1.75 -0.234375q0.75 -0.25 1.46875 -0.53125zm6.555908 -6.671875q0.28125 3.765625 0.4375 8.296875q-0.171875 0.90625 -1.25 0.90625q-0.265625 0 -0.609375 -0.125q-0.328125 -0.125 -0.4375 -0.5l0 -8.578125l1.859375 0zm-2.40625 -2.015625q0 -1.09375 1.125 -1.09375q0.609375 0 1.109375 0.359375q0.125 0.359375 0.125 0.65625q0 0.296875 -0.234375 0.578125q-0.265625 0.3125 -0.6875 0.3125q-0.40625 0 -0.796875 -0.171875q-0.390625 -0.171875 -0.640625 -0.640625zm5.636444 9.203125l0.03125 -2.921875q0 -0.640625 -0.046875 -0.796875l-2.890625 0l-0.0625 -2.015625l2.75 0l0 -4.390625q0.09375 -0.296875 0.328125 -0.53125q0.359375 -0.359375 0.640625 -0.359375q0.28125 0 0.484375 0.0625q0.21875 0.0625 0.484375 0.453125q0.3125 1.3125 0.3125 3.78125q0 0.578125 0.015625 0.765625q0.21875 -0.03125 0.828125 -0.03125q0 0 0.953125 0q0.328125 0 1.03125 -0.078125l-0.09375 2.125l-2.640625 -0.078125l0.09375 6.140625q-0.625 0.265625 -0.9375 0.265625q-1.28125 0 -1.28125 -2.390625zm9.355164 8.765625q-0.5 1.078125 -1.265625 1.078125q-0.484375 0 -0.6875 -0.40625q-0.203125 -0.390625 -0.046875 -0.84375q0.390625 -1.6875 1.140625 -3.875q0.765625 -2.171875 0.953125 -2.6875q-0.484375 -0.5 -1.890625 -2.4375q-2.859375 -4.015625 -2.859375 -4.53125q0 -0.171875 0.125 -0.296875l0.9375 -0.96875q1.734375 1.625 4.0625 4.84375q0.609375 0.796875 0.609375 0.828125q0.0625 -0.1875 0.28125 -0.734375q0.21875 -0.546875 0.359375 -0.875q0.140625 -0.34375 0.375 -0.921875q0.625 -1.515625 1.78125 -4.0q0.359375 -0.140625 0.625 -0.140625q0.625 0 0.953125 0.375q0.140625 0.21875 0.140625 0.421875q0 0.1875 -0.046875 0.375l-5.546875 14.796875z" fill-rule="nonzero"/><path fill="#93c47d" d="m46.654667 227.09091l0 0c16.185856 -28.031708 52.031277 -37.634674 80.06299 -21.448807l0 0c13.461296 7.7727203 23.283562 20.57457 27.305992 35.589294c4.0224457 15.014725 1.9155426 31.012375 -5.8571777 44.47368l0 0c-16.185852 28.031738 -52.031273 37.634705 -80.06299 21.448822l0 0c-28.031712 -16.185852 -37.634674 -52.031265 -21.448818 -80.06299z" fill-rule="evenodd"/><path stroke="#6aa84f" stroke-width="1.0" stroke-linejoin="round" stroke-linecap="butt" d="m46.654667 227.09091l0 0c16.185856 -28.031708 52.031277 -37.634674 80.06299 -21.448807l0 0c13.461296 7.7727203 23.283562 20.57457 27.305992 35.589294c4.0224457 15.014725 1.9155426 31.012375 -5.8571777 44.47368l0 0c-16.185852 28.031738 -52.031273 37.634705 -80.06299 21.448822l0 0c-28.031712 -16.185852 -37.634674 -52.031265 -21.448818 -80.06299z" fill-rule="evenodd"/></g></svg>