<svg version="1.1" viewBox="0.0 0.0 268.43832020997377 269.12598425196853" fill="none" stroke="none" stroke-linecap="square" stroke-miterlimit="10" xmlns:xlink="http://www.w3.org/1999/xlink" xmlns="http://www.w3.org/2000/svg"><clipPath id="p.0"><path d="m0 0l268.43832 0l0 269.12598l-268.43832 0l0 -269.12598z" clip-rule="nonzero"/></clipPath><g clip-path="url(#p.0)"><path fill="#000000" fill-opacity="0.0" d="m0 0l268.43832 0l0 269.12598l-268.43832 0z" fill-rule="evenodd"/><defs><radialGradient id="p.1" gradientUnits="userSpaceOnUse" gradientTransform="matrix(19.356319673144974 11.175601651342404 -11.175601651342404 19.356319673144974 0.0 0.0)" spreadMethod="pad" cx="9.509261149772117" cy="7.753551915864949" fx="9.509261149772117" fy="7.753551915864949" r="19.356319427490234"><stop offset="0.0" stop-color="#dfe9fb"/><stop offset="0.5" stop-color="#6d9eeb"/><stop offset="1.0" stop-color="#434343"/></radialGradient></defs><path fill="url(#p.1)" d="m-163.45245 105.73777l0 0c85.75634 -148.52545 272.06934 -201.49687 416.14172 -118.31496l0 0c69.18599 39.945362 119.17897 106.58819 138.98103 185.26782c19.802094 78.67964 7.791168 162.95103 -33.390472 234.2755l0 0c-85.75635 148.52545 -272.06934 201.49689 -416.14175 118.31494l0 0c-144.07239 -83.181885 -191.3469 -271.01782 -105.59055 -419.5433z" fill-rule="evenodd"/><path fill="#f3f3f3" d="m-11.560271 194.88715l0 0c34.72871 -60.1512 111.64407 -80.7602 171.79527 -46.031494l0 0c28.885635 16.677322 49.963135 44.146347 58.59572 76.3642c8.632584 32.217865 4.113098 66.54544 -12.564224 95.43109l0 0c-34.7287 60.151184 -111.644066 80.76019 -171.79527 46.031494l0 0c-60.151203 -34.72873 -80.76021 -111.64409 -46.031498 -171.79529z" fill-rule="evenodd"/><path fill="#d9d9d9" d="m10.183588 207.42258l0 0c27.79688 -48.14009 89.35597 -64.624466 137.49606 -36.818893l0 0c23.117676 13.352707 39.985855 35.341995 46.893677 61.130463c6.907837 25.788467 3.2894897 53.263657 -10.059036 76.38136l0 0c-27.79689 48.140076 -89.355965 64.62448 -137.49606 36.81888l0 0c-48.1401 -27.805573 -64.63153 -89.371704 -36.83465 -137.51181z" fill-rule="evenodd"/><path fill="#000000" fill-opacity="0.0" d="m104.9849 134.24c-10.078743 0 -20.157486 24.362213 -20.157486 48.72441" fill-rule="evenodd"/><path stroke="#000000" stroke-width="1.0" stroke-linejoin="round" stroke-linecap="butt" stroke-dasharray="1.0,3.0" d="m104.9849 134.24c-10.078743 0 -20.157486 24.362213 -20.157486 48.72441" fill-rule="evenodd"/><path fill="#ffffff" d="m77.03388 181.95801l-0.14352417 23.763733l8.201363 9.131638l7.740097 -9.369171l0.0037078857 -23.299515l-4.5749435 -0.15213013l3.4055557 -6.0400696l-13.23127 0.07829285l3.369156 5.8318024z" fill-rule="evenodd"/><path stroke="#000000" stroke-width="2.0" stroke-linejoin="round" stroke-linecap="butt" d="m77.03388 181.95801l-0.14352417 23.763733l8.201363 9.131638l7.740097 -9.369171l0.0037078857 -23.299515l-4.5749435 -0.15213013l3.4055557 -6.0400696l-13.23127 0.07829285l3.369156 5.8318024z" fill-rule="evenodd"/><defs><radialGradient id="p.2" gradientUnits="userSpaceOnUse" gradientTransform="matrix(2.093434379193903 -7.148488668846959E-4 -7.148488668846959E-4 -2.093434379193903 0.0 0.0)" spreadMethod="pad" cx="40.57874979064612" cy="-97.76379744649404" fx="40.57874979064612" fy="-97.76379744649404" r="2.0934343338012695"><stop offset="0.0" stop-color="#dfe9fb"/><stop offset="1.0" stop-color="#6e9be7"/></radialGradient></defs><path fill="url(#p.2)" d="m81.9197 204.63414l0 0c2.89917E-4 1.711319 1.3880615 3.0981445 3.0996628 3.0975494l0 0c0.8219452 -2.746582E-4 1.6101685 -0.3270111 2.191269 -0.90830994c0.58110046 -0.5812988 0.90747833 -1.3695526 0.907341 -2.1913452l0 0c-2.89917E-4 -1.711319 -1.3880615 -3.0981445 -3.0996628 -3.0975494l0 0c-1.7116089 5.79834E-4 -3.0988998 1.3883514 -3.09861 3.0996552z" fill-rule="evenodd"/><path stroke="#000000" stroke-width="1.0" stroke-linejoin="round" stroke-linecap="butt" d="m81.9197 204.63414l0 0c2.89917E-4 1.711319 1.3880615 3.0981445 3.0996628 3.0975494l0 0c0.8219452 -2.746582E-4 1.6101685 -0.3270111 2.191269 -0.90830994c0.58110046 -0.5812988 0.90747833 -1.3695526 0.907341 -2.1913452l0 0c-2.89917E-4 -1.711319 -1.3880615 -3.0981445 -3.0996628 -3.0975494l0 0c-1.7116089 5.79834E-4 -3.0988998 1.3883514 -3.09861 3.0996552z" fill-rule="evenodd"/><path fill="#ff0000" d="m76.72833 203.16728c-0.6324997 -1.006012 -2.8395538 -2.759491 -3.7950134 -6.036072c-0.9554596 -3.2765808 -2.569847 -12.255737 -1.9377441 -13.623383c0.63209534 -1.36763 4.775276 4.514618 5.7303314 5.4175415" fill-rule="evenodd"/><path stroke="#000000" stroke-width="1.0" stroke-linejoin="round" stroke-linecap="butt" d="m76.72833 203.16728c-0.6324997 -1.006012 -2.8395538 -2.759491 -3.7950134 -6.036072c-0.9554596 -3.2765808 -2.569847 -12.255737 -1.9377441 -13.623383c0.63209534 -1.36763 4.775276 4.514618 5.7303314 5.4175415" fill-rule="evenodd"/><path fill="#ff0000" d="m93.11344 203.16168c0.6321564 -1.0064392 2.8386078 -2.7614288 3.7929459 -6.0386505c0.9543457 -3.277237 2.5656662 -12.257492 1.9330978 -13.62471c-0.63256073 -1.3672028 -4.773735 4.5178833 -5.7284775 5.4214478" fill-rule="evenodd"/><path stroke="#000000" stroke-width="1.0" stroke-linejoin="round" stroke-linecap="butt" d="m93.11344 203.16168c0.6321564 -1.0064392 2.8386078 -2.7614288 3.7929459 -6.0386505c0.9543457 -3.277237 2.5656662 -12.257492 1.9330978 -13.62471c-0.63256073 -1.3672028 -4.773735 4.5178833 -5.7284775 5.4214478" fill-rule="evenodd"/><path fill="#000000" fill-opacity="0.0" d="m189.36195 94.36691l0 0c2.6700897 -4.6357117 8.592636 -6.2220993 13.228348 -3.5433044l0 0c2.2261353 1.2864075 3.8517456 3.404457 4.5191956 5.8882065c0.6674652 2.4837494 0.32208252 5.129738 -0.96014404 7.3558884l0 0c-2.670105 4.6357117 -8.592636 6.222107 -13.228348 3.5433044l0 0c-4.6357117 -2.6787949 -6.2291565 -8.608376 -3.5590515 -13.244095z" fill-rule="evenodd"/><path fill="#000000" fill-opacity="0.0" d="m219.06706 45.257477l-92.88189 160.8819" fill-rule="evenodd"/><path stroke="#434343" stroke-width="1.0" stroke-linejoin="round" stroke-linecap="butt" stroke-dasharray="1.0,3.0" d="m219.06706 45.257477l-92.88189 160.8819" fill-rule="evenodd"/><path fill="#ffff00" d="m219.50919 60.535435l-13.123352 -7.5013123l-2.1128693 4.144356l1.4304504 -0.7007866l-2.7506561 6.068241l2.9238892 -1.9553833l-4.0577545 9.288715l3.9448853 -2.937004l-5.0026245 9.71653l7.5957947 -9.107613l1.1364899 2.2152252l4.233597 -3.81102l-0.6797943 3.1994705z" fill-rule="evenodd"/><path fill="#ff9900" d="m217.0105 59.34646l-8.874008 -5.312336l-0.9501343 3.7270317l0.8582611 -0.40157318l-1.4461975 3.2414703l1.734909 -1.0971146l-2.1207275 4.958008l2.3280792 -1.6377983l-2.2414703 5.396328l3.8845215 -5.146984l0.80314636 1.1286125l2.4750671 -2.104988l-0.28608704 1.6902885z" fill-rule="evenodd"/><path fill="#ff0000" d="m215.72406 58.167274l-4.7875977 -3.122013l-0.38130188 1.7703819l0.4809265 -0.21229553l-0.81129456 1.7053185l0.9733887 -0.577343l-1.1894379 2.607582l1.3061371 -0.86203384l-1.5092468 2.7383232l2.4291077 -2.607582l0.45129395 0.5926361l1.3856964 -1.1046791l-0.15957642 0.8875389z" fill-rule="evenodd"/><path fill="#000000" fill-opacity="0.0" d="m160.01886 75.938515c7.0121613 0 10.3550415 4.6063004 14.0243225 9.212601c3.6692963 4.6063004 7.6650085 9.212601 15.330017 9.212601" fill-rule="evenodd"/><path stroke="#ffffff" stroke-width="2.0" stroke-linejoin="round" stroke-linecap="butt" d="m160.01886 75.93852c7.0121613 0 10.355026 4.6063004 14.0243225 9.212593c0.9173279 1.1515732 1.8550568 2.3031464 2.8654022 3.3827515c0.252594 0.26989746 0.50971985 0.5352936 0.7722168 0.7950821c0.13122559 0.12989044 0.2638092 0.25836945 0.3978424 0.3853073l0.16789246 0.15531158" fill-rule="evenodd"/><path fill="#ffffff" stroke="#ffffff" stroke-width="2.0" stroke-linecap="butt" d="m177.00934 92.93262l9.652847 0.33609772l-7.178467 -6.4621887z" fill-rule="evenodd"/><path fill="#000000" fill-opacity="0.0" d="m307.11243 129.12778c-0.007873535 0.01574707 0.0039367676 0.03149414 0.01574707 0.04724121c0.011810303 0.01574707 0.023620605 0.03149414 0.01574707 0.04724121" fill-rule="evenodd"/><path stroke="#000000" stroke-width="1.0" stroke-linejoin="round" stroke-linecap="butt" d="m307.11243 129.12778c-0.007873535 0.01574707 0.0039367676 0.03149414 0.01574707 0.04724121c0.011810303 0.01574707 0.023620605 0.03149414 0.01574707 0.04724121" fill-rule="evenodd"/><path fill="#ffffff" d="m77.99681 189.80466l0 0c0 -3.7746582 3.0599747 -6.8346405 6.834648 -6.8346405l0 0c1.8126602 0 3.5510788 0.7200775 4.8328247 2.0018158c1.2817459 1.2817535 2.0018234 3.020172 2.0018234 4.8328247l0 0c0 3.7746735 -3.0599747 6.834656 -6.834648 6.834656l0 0c-3.7746735 0 -6.834648 -3.0599823 -6.834648 -6.834656z" fill-rule="evenodd"/><path fill="#ffffff" d="m208.17534 44.893723l14.371384 -25.257977l14.267044 -4.6607437l2.4715881 14.653255l-14.235748 24.680847l-4.9383698 -2.634346l-0.08456421 8.478516l-13.965546 -8.167809l7.1324615 -4.1182747z" fill-rule="evenodd"/><path stroke="#000000" stroke-width="2.0" stroke-linejoin="round" stroke-linecap="butt" d="m208.17534 44.893723l14.371384 -25.257977l14.267044 -4.6607437l2.4715881 14.653255l-14.235748 24.680847l-4.9383698 -2.634346l-0.08456421 8.478516l-13.965546 -8.167809l7.1324615 -4.1182747z" fill-rule="evenodd"/><defs><radialGradient id="p.3" gradientUnits="userSpaceOnUse" gradientTransform="matrix(2.1542622561758153 1.24385893914049 -1.24385893914049 2.1542622561758153 0.0 0.0)" spreadMethod="pad" cx="85.41863011542597" cy="-37.36455286346255" fx="85.41863011542597" fy="-37.36455286346255" r="2.1542623043060303"><stop offset="0.0" stop-color="#dfe9fb"/><stop offset="1.0" stop-color="#6e9be7"/></radialGradient></defs><path fill="url(#p.3)" d="m227.20868 23.860853l0 0c1.0461884 -1.8124275 3.363556 -2.4333458 5.1759796 -1.3868599l0 0c0.8703613 0.5025387 1.5054932 1.3302441 1.765686 2.3010292c0.2601776 0.97078514 0.12409973 2.0051289 -0.3782959 2.8754864l0 0c-1.0461884 1.8124256 -3.363556 2.433344 -5.1759796 1.3868599l0 0c-1.8124237 -1.046484 -2.4335938 -3.36409 -1.3873901 -5.1765156z" fill-rule="evenodd"/><path stroke="#000000" stroke-width="1.0" stroke-linejoin="round" stroke-linecap="butt" d="m227.20868 23.860853l0 0c1.0461884 -1.8124275 3.363556 -2.4333458 5.1759796 -1.3868599l0 0c0.8703613 0.5025387 1.5054932 1.3302441 1.765686 2.3010292c0.2601776 0.97078514 0.12409973 2.0051289 -0.3782959 2.8754864l0 0c-1.0461884 1.8124256 -3.363556 2.433344 -5.1759796 1.3868599l0 0c-1.8124237 -1.046484 -2.4335938 -3.36409 -1.3873901 -5.1765156z" fill-rule="evenodd"/><path fill="#ff0000" d="m220.81395 22.242388c-1.2847137 0.6790714 -4.6938934 1.1877384 -7.7083435 4.074423c-3.0144348 2.8866844 -10.211945 11.410854 -10.378326 13.245682c-0.16638184 1.8348274 7.816696 -1.8639259 9.380035 -2.2367096" fill-rule="evenodd"/><path stroke="#000000" stroke-width="1.0" stroke-linejoin="round" stroke-linecap="butt" d="m220.81395 22.242388c-1.2847137 0.6790714 -4.6938934 1.1877384 -7.7083435 4.074423c-3.0144348 2.8866844 -10.211945 11.410854 -10.378326 13.245682c-0.16638184 1.8348274 7.816696 -1.8639259 9.380035 -2.2367096" fill-rule="evenodd"/><path fill="#ff0000" d="m238.1642 32.260326c0.0544281 1.4522896 1.3187408 4.659397 0.32658386 8.713741c-0.9921417 4.054348 -4.773941 14.550732 -6.2794647 15.612339c-1.505539 1.0616074 -2.2947998 -7.70224 -2.7537537 -9.242687" fill-rule="evenodd"/><path stroke="#000000" stroke-width="1.0" stroke-linejoin="round" stroke-linecap="butt" d="m238.1642 32.260326c0.0544281 1.4522896 1.3187408 4.659397 0.32658386 8.713741c-0.9921417 4.054348 -4.773941 14.550732 -6.2794647 15.612339c-1.505539 1.0616074 -2.2947998 -7.70224 -2.7537537 -9.242687" fill-rule="evenodd"/><path fill="#ffffff" d="m216.46863 35.540943l0 0c1.965622 -3.4006844 6.315857 -4.564039 9.716537 -2.5984268l0 0c1.6330719 0.94392014 2.8242798 2.4979134 3.3115845 4.320118c0.48728943 1.8222008 0.23075867 3.7633514 -0.71315 5.3964157l0 0c-1.965622 3.4006844 -6.315857 4.5640373 -9.716537 2.5984268l0 0c-3.4006805 -1.9656105 -4.564041 -6.315853 -2.5984344 -9.716534z" fill-rule="evenodd"/><path fill="#000000" fill-opacity="0.0" d="m81.02673 43.623558l78.99213 0l0 64.62992l-78.99213 0z" fill-rule="evenodd"/><path fill="#ffffff" d="m101.64993 58.231056q1.875 0 2.796875 0.359375l0 1.46875q-0.84375 0.125 -1.71875 0.140625q-0.859375 0 -1.828125 0.015625q-2.65625 0.046875 -3.375 0.203125q-0.25 1.1875 -0.234375 1.6875q0.03125 0.5 0.046875 0.78125q0.078125 0.71875 0.078125 1.328125q0.828125 0 2.40625 -0.21875q1.59375 -0.21875 2.484375 -0.3125q0.890625 -0.109375 2.203125 -0.109375l0 1.71875l-6.953125 0.859375l0.078125 2.296875q1.421875 0 3.296875 -0.171875q1.890625 -0.171875 2.859375 -0.25q0.984375 -0.09375 2.46875 -0.09375q0 0.84375 -0.28125 1.28125q-0.65625 0.890625 -1.1875 0.53125q-3.078125 0.328125 -5.609375 0.53125q-2.515625 0.1875 -3.796875 0.296875l0.078125 -12.53125q0.90625 0.265625 2.125 0.265625l4.0625 -0.078125zm11.32196 6.859375q2.390625 0 2.390625 1.390625q0 0.9375 -1.25 2.078125q-1.71875 1.5625 -4.640625 2.515625q-0.40625 0 -0.609375 -0.34375q-0.203125 -0.34375 -0.296875 -0.46875q-0.078125 -0.140625 -0.375 -0.59375q2.5 -0.828125 3.796875 -1.765625q0.765625 -0.546875 0.765625 -0.6875q0 -0.140625 -0.875 -0.140625q-0.859375 0 -2.9375 0.515625q-1.15625 -0.03125 -1.9375 -0.78125q-0.71875 -0.671875 -0.71875 -1.375q0 -0.71875 0.375 -1.265625q0.375 -0.5625 0.953125 -1.015625q0.59375 -0.453125 1.359375 -0.8125q1.875 -0.890625 3.859375 -0.890625q0.59375 0 1.125 0.109375q0.71875 0 0.8125 0.5625q0.109375 0.546875 0.109375 2.046875q-1.53125 -0.71875 -2.796875 -0.71875q-1.5625 0 -2.578125 0.640625q-0.953125 0.546875 -0.984375 1.390625q0 0.125 0.359375 0.125l1.28125 -0.15625q1.75 -0.359375 2.8125 -0.359375zm10.364563 2.8125q0.734375 -0.296875 1.484375 -0.5625q0.75 -0.28125 1.609375 -0.28125q0.875 0 0.875 0.78125q0 0.140625 -0.078125 0.4375q-0.0625 0.28125 -0.59375 0.59375q-0.53125 0.3125 -1.203125 0.5625q-0.671875 0.234375 -1.453125 0.4375q-0.78125 0.203125 -1.5 0.359375q-1.5625 0.3125 -2.234375 0.3125q-0.671875 0 -1.453125 -0.15625q-0.78125 -0.15625 -1.46875 -0.515625q-1.671875 -0.859375 -1.671875 -2.578125q0 -0.109375 0 -0.46875q0 -0.375 0.296875 -1.046875q0.3125 -0.671875 0.890625 -1.3125q0.578125 -0.65625 1.328125 -1.203125q1.59375 -1.140625 3.34375 -1.484375q0.640625 -0.125 1.046875 -0.125q0.40625 0 0.671875 0.015625q0.265625 0 0.578125 0.03125q0.328125 0.03125 0.59375 0.171875q0.671875 0.34375 0.671875 1.265625q0 0.640625 -0.78125 1.171875q-0.15625 0.109375 -0.78125 0.515625q-0.171875 -0.921875 -0.265625 -1.09375q-0.078125 -0.171875 -0.296875 -0.171875q-2.046875 0.453125 -3.546875 1.328125q-1.5625 0.921875 -1.5625 1.859375q0 0.109375 0.015625 0.25q0 0.96875 0.703125 1.34375q0.578125 0.328125 1.5625 0.328125q1.0 0 1.75 -0.234375q0.75 -0.25 1.46875 -0.53125zm11.634033 -0.140625q-1.03125 1.859375 -3.453125 2.40625q-0.578125 0.125 -1.03125 0.125q-0.4375 0 -0.75 0q-0.296875 -0.015625 -0.703125 -0.09375q-0.390625 -0.09375 -0.71875 -0.28125q-0.859375 -0.5 -0.859375 -1.359375q-0.078125 -0.328125 -0.078125 -0.78125q0 -0.46875 0.1875 -1.1875q0.203125 -0.734375 0.703125 -1.546875q0.515625 -0.828125 1.234375 -1.515625q1.53125 -1.46875 3.3125 -1.875q0.515625 -0.125 0.96875 -0.125q0.453125 0 0.78125 0.046875q1.3125 0 1.75 1.71875q0.25 0.96875 0.296875 2.609375q0.046875 1.640625 0.09375 2.515625q0.046875 0.859375 0.3125 2.015625l-1.875 0q-0.109375 -0.8125 -0.15625 -1.203125q-0.03125 -0.390625 -0.0625 -0.703125q-0.09375 -0.75 0.046875 -0.765625zm-0.34375 -3.4375q0 -0.6875 -0.671875 -0.6875q-0.140625 -0.015625 -0.25 -0.015625q-1.1875 0 -2.546875 1.1875q-0.671875 0.546875 -1.125 1.234375q-0.671875 0.953125 -0.671875 1.640625q0 0.765625 0.90625 0.90625q1.453125 -0.03125 2.828125 -1.390625q0.609375 -0.59375 1.0 -1.296875q0.53125 -0.90625 0.53125 -1.578125zm4.742096 -1.84375q2.203125 -0.84375 4.0625 -0.84375q2.5 0 3.375 1.375q0.40625 0.65625 0.40625 1.421875q0 1.015625 -0.609375 2.0625q-0.609375 1.03125 -1.625 1.859375q-2.28125 1.859375 -5.34375 2.140625q0.140625 0 0.140625 0.4375q0.015625 0.453125 0.015625 1.0q0.015625 0.546875 0.015625 1.15625q0.015625 0.625 0.03125 1.1875q0.0625 1.375 0.078125 1.578125q0.03125 0.21875 0.03125 0.359375q0 0.640625 -0.421875 0.953125q-0.40625 0.328125 -1.0 0.328125q-0.09375 0 -0.5625 0l-0.296875 -15.140625q0.359375 -0.5 0.796875 -0.46875q0.4375 0.015625 0.703125 0.21875q0.265625 0.203125 0.203125 0.375zm4.9375 1.34375q-0.53125 -0.265625 -1.15625 -0.265625q-0.609375 0 -1.234375 0.140625q-1.390625 0.25 -2.03125 1.125q-0.265625 0.375 -0.265625 0.953125q0 0.078125 0 0.140625l0 2.6875q3.1875 -0.71875 4.703125 -2.125q0.78125 -0.75 0.78125 -1.5q0 -0.734375 -0.796875 -1.15625zm7.1973267 4.6875q1.53125 0 4.75 -1.453125q0.453125 0 0.671875 0.265625q0.234375 0.25 0.234375 0.65625q-0.84375 1.46875 -3.03125 2.203125q-2.171875 0.71875 -4.0625 0.234375q-2.234375 -0.578125 -2.734375 -2.5625q-0.046875 -0.390625 -0.046875 -1.015625q0 -0.640625 0.328125 -1.65625q0.328125 -1.015625 1.09375 -1.921875q0.78125 -0.921875 1.828125 -1.453125q1.0625 -0.53125 2.265625 -0.53125q1.15625 0 2.5625 0.78125q0.671875 0.375 1.09375 0.890625q0.4375 0.515625 0.4375 1.109375q0 0.15625 -0.015625 0.296875q-0.046875 1.375 -1.34375 1.71875q-0.5 0.15625 -1.1875 0.15625l-2.609375 -0.109375q-1.171875 0 -1.765625 0.484375q-0.296875 0.234375 -0.40625 0.625q0.34375 1.28125 1.9375 1.28125zm2.984375 -4.984375q-0.3125 -0.21875 -0.6875 -0.328125q-0.375 -0.109375 -0.625 -0.109375q-0.234375 0 -0.859375 0.1875q-0.609375 0.1875 -1.09375 0.40625q-1.03125 0.46875 -1.03125 0.53125q1.09375 0.09375 1.8125 0.09375q1.9375 0 2.578125 -0.3125q0.21875 -0.09375 0.21875 -0.109375q0 -0.140625 -0.3125 -0.359375z" fill-rule="nonzero"/><path fill="#ffffff" d="m94.1712 92.427925q-0.484375 -1.3125 -1.8125 -3.890625q-1.3125 -2.59375 -1.75 -3.453125q-1.015625 -2.0625 -1.015625 -2.5q0 -0.484375 1.46875 -1.0625q0.796875 1.46875 1.34375 2.65625q0.5625 1.171875 1.109375 2.203125q1.28125 2.5 1.8125 3.125q-0.046875 0.03125 0.9375 -2.078125l1.5 -3.15625q1.203125 -2.546875 1.5625 -3.390625q0.796875 -0.9375 1.40625 -0.9375q0.8125 0 0.8125 1.21875l-5.25 11.53125q-0.5 0.328125 -1.15625 0.328125q-0.640625 0 -0.96875 -0.59375zm11.493469 -1.515625q1.53125 0 4.75 -1.453125q0.453125 0 0.671875 0.265625q0.234375 0.25 0.234375 0.65625q-0.84375 1.46875 -3.03125 2.203125q-2.171875 0.71875 -4.0625 0.234375q-2.234375 -0.578125 -2.734375 -2.5625q-0.046875 -0.390625 -0.046875 -1.015625q0 -0.640625 0.328125 -1.65625q0.328125 -1.015625 1.09375 -1.921875q0.78125 -0.921875 1.828125 -1.453125q1.0625 -0.53125 2.265625 -0.53125q1.15625 0 2.5625 0.78125q0.671875 0.375 1.09375 0.890625q0.4375 0.515625 0.4375 1.109375q0 0.15625 -0.015625 0.296875q-0.046875 1.375 -1.34375 1.71875q-0.5 0.15625 -1.1875 0.15625l-2.609375 -0.109375q-1.171875 0 -1.765625 0.484375q-0.296875 0.234375 -0.40625 0.625q0.34375 1.28125 1.9375 1.28125zm2.984375 -4.984375q-0.3125 -0.21875 -0.6875 -0.328125q-0.375 -0.109375 -0.625 -0.109375q-0.234375 0 -0.859375 0.1875q-0.609375 0.1875 -1.09375 0.40625q-1.03125 0.46875 -1.03125 0.53125q1.09375 0.09375 1.8125 0.09375q1.9375 0 2.578125 -0.3125q0.21875 -0.09375 0.21875 -0.109375q0 -0.140625 -0.3125 -0.359375zm3.3433228 -0.40625q-0.03125 -0.984375 -0.078125 -1.75q-0.03125 -0.78125 -0.046875 -1.140625q0 -0.359375 -0.3125 -1.96875q0.265625 -0.34375 0.46875 -0.609375q0.21875 -0.28125 0.703125 -0.28125q0.96875 0 1.359375 5.734375q0.171875 3.109375 0.171875 6.25q0 1.203125 -1.546875 1.203125l-0.515625 -0.046875q0 -1.296875 -0.0625 -2.765625q-0.046875 -1.46875 -0.078125 -2.546875q-0.015625 -1.09375 -0.0625 -2.078125zm3.073883 3.578125q0 -2.328125 2.015625 -3.765625q1.546875 -1.09375 3.75 -1.328125q0.125 0 0.546875 0q0.4375 0 1.171875 0.265625q1.65625 0.5625 2.265625 2.015625q0.25 0.578125 0.25 0.984375q0 0.390625 -0.015625 0.546875q0 2.4375 -1.890625 3.859375q-1.703125 1.28125 -4.21875 1.28125q-1.875 0 -2.875 -0.890625q-1.0 -0.90625 -1.0 -2.96875zm2.0 0.46875q0 0.90625 0.4375 1.1875q0.359375 0.234375 1.359375 0.234375q1.0 0 1.765625 -0.15625q0.765625 -0.15625 1.34375 -0.515625q1.203125 -0.765625 1.203125 -2.390625q0 -0.953125 -0.5 -1.546875q-0.53125 -0.609375 -1.359375 -0.609375q-0.6875 0.125 -1.375 0.265625q-0.671875 0.125 -1.234375 0.5q-1.25 0.8125 -1.640625 3.03125zm15.634766 0.734375q0.734375 -0.296875 1.484375 -0.5625q0.75 -0.28125 1.609375 -0.28125q0.875 0 0.875 0.78125q0 0.140625 -0.078125 0.4375q-0.0625 0.28125 -0.59375 0.59375q-0.53125 0.3125 -1.203125 0.5625q-0.671875 0.234375 -1.453125 0.4375q-0.78125 0.203125 -1.5 0.359375q-1.5625 0.3125 -2.234375 0.3125q-0.671875 0 -1.453125 -0.15625q-0.78125 -0.15625 -1.46875 -0.515625q-1.671875 -0.859375 -1.671875 -2.578125q0 -0.109375 0 -0.46875q0 -0.375 0.296875 -1.046875q0.3125 -0.671875 0.890625 -1.3125q0.578125 -0.65625 1.328125 -1.203125q1.59375 -1.140625 3.34375 -1.484375q0.640625 -0.125 1.046875 -0.125q0.40625 0 0.671875 0.015625q0.265625 0 0.578125 0.03125q0.328125 0.03125 0.59375 0.171875q0.671875 0.34375 0.671875 1.265625q0 0.640625 -0.78125 1.171875q-0.15625 0.109375 -0.78125 0.515625q-0.171875 -0.921875 -0.265625 -1.09375q-0.078125 -0.171875 -0.296875 -0.171875q-2.046875 0.453125 -3.546875 1.328125q-1.5625 0.921875 -1.5625 1.859375q0 0.109375 0.015625 0.25q0 0.96875 0.703125 1.34375q0.578125 0.328125 1.5625 0.328125q1.0 0 1.75 -0.234375q0.75 -0.25 1.46875 -0.53125zm6.555908 -6.671875q0.28125 3.765625 0.4375 8.296875q-0.171875 0.90625 -1.25 0.90625q-0.265625 0 -0.609375 -0.125q-0.328125 -0.125 -0.4375 -0.5l0 -8.578125l1.859375 0zm-2.40625 -2.015625q0 -1.09375 1.125 -1.09375q0.609375 0 1.109375 0.359375q0.125 0.359375 0.125 0.65625q0 0.296875 -0.234375 0.578125q-0.265625 0.3125 -0.6875 0.3125q-0.40625 0 -0.796875 -0.171875q-0.390625 -0.171875 -0.640625 -0.640625zm5.636444 9.203125l0.03125 -2.921875q0 -0.640625 -0.046875 -0.796875l-2.890625 0l-0.0625 -2.015625l2.75 0l0 -4.390625q0.09375 -0.296875 0.328125 -0.53125q0.359375 -0.359375 0.640625 -0.359375q0.28125 0 0.484375 0.0625q0.21875 0.0625 0.484375 0.453125q0.3125 1.3125 0.3125 3.78125q0 0.578125 0.015625 0.765625q0.21875 -0.03125 0.828125 -0.03125q0 0 0.953125 0q0.328125 0 1.03125 -0.078125l-0.09375 2.125l-2.640625 -0.078125l0.09375 6.140625q-0.625 0.265625 -0.9375 0.265625q-1.28125 0 -1.28125 -2.390625zm9.355164 8.765625q-0.5 1.078125 -1.265625 1.078125q-0.484375 0 -0.6875 -0.40625q-0.203125 -0.390625 -0.046875 -0.84375q0.390625 -1.6875 1.140625 -3.875q0.765625 -2.171875 0.953125 -2.6875q-0.484375 -0.5 -1.890625 -2.4375q-2.859375 -4.015625 -2.859375 -4.53125q0 -0.171875 0.125 -0.296875l0.9375 -0.96875q1.734375 1.625 4.0625 4.84375q0.609375 0.796875 0.609375 0.828125q0.0625 -0.1875 0.28125 -0.734375q0.21875 -0.546875 0.359375 -0.875q0.140625 -0.34375 0.375 -0.921875q0.625 -1.515625 1.78125 -4.0q0.359375 -0.140625 0.625 -0.140625q0.625 0 0.953125 0.375q0.140625 0.21875 0.140625 0.421875q0 0.1875 -0.046875 0.375l-5.546875 14.796875z" fill-rule="nonzero"/><path fill="#ffffff" d="m110.48977 193.57074l0 0c0 -2.8701477 2.326706 -5.1968536 5.196846 -5.1968536l0 0c1.3782883 0 2.7001343 0.54751587 3.6747284 1.5221252c0.97460175 0.9745941 1.5221252 2.2964325 1.5221252 3.6747284l0 0c0 2.8701324 -2.3267136 5.1968384 -5.1968536 5.1968384l0 0c-2.87014 0 -5.196846 -2.326706 -5.196846 -5.1968384z" fill-rule="evenodd"/><path fill="#ffffff" d="m104.9849 134.24l0 0c0 -0.5827179 0.47238922 -1.0551147 1.0551147 -1.0551147l0 0c0.27983856 0 0.54821014 0.11116028 0.7460785 0.30903625c0.19787598 0.19787598 0.30904388 0.46624756 0.30904388 0.7460785l0 0c0 0.58273315 -0.47239685 1.05513 -1.0551224 1.05513l0 0c-0.5827255 0 -1.0551147 -0.47239685 -1.0551147 -1.05513z" fill-rule="evenodd"/><path fill="#000000" fill-opacity="0.0" d="m126.18517 206.1476c0 -35.95276 -9.543312 -71.90552 -19.086617 -71.90552" fill-rule="evenodd"/><path stroke="#000000" stroke-width="1.0" stroke-linejoin="round" stroke-linecap="butt" stroke-dasharray="1.0,3.0" d="m126.18517 206.1476c0 -35.95276 -9.543312 -71.90552 -19.086617 -71.90552" fill-rule="evenodd"/><path fill="#000000" fill-opacity="0.0" d="m136.7699 169.90178l0 0c0 -0.5827179 0.47239685 -1.0551147 1.0551147 -1.0551147l0 0c0.2798462 0 0.5482178 0.11116028 0.74609375 0.30903625c0.19786072 0.19787598 0.30903625 0.46624756 0.30903625 0.7460785l0 0c0 0.58273315 -0.47239685 1.05513 -1.05513 1.05513l0 0c-0.5827179 0 -1.0551147 -0.47239685 -1.0551147 -1.05513z" fill-rule="evenodd"/><path fill="#000000" fill-opacity="0.0" d="m137.82501 170.95691l-18.456688 18.929123" fill-rule="evenodd"/><path stroke="#000000" stroke-width="1.0" stroke-linejoin="round" stroke-linecap="butt" stroke-dasharray="1.0,3.0" d="m137.82501 170.95691l-18.456688 18.929123" fill-rule="evenodd"/><path fill="#000000" fill-opacity="0.0" d="m137.82501 170.95691l-11.653534 35.18109" fill-rule="evenodd"/><path stroke="#000000" stroke-width="1.0" stroke-linejoin="round" stroke-linecap="butt" stroke-dasharray="1.0,3.0" d="m137.82501 170.95691l-11.653534 35.18109" fill-rule="evenodd"/><path fill="#ffffff" d="m115.05925 184.81459l-12.354759 13.996994l0.1411972 9.641724l9.420486 -1.5512238l12.03228 -13.794296l-2.6303024 -2.452301l5.135086 -1.8180542l-7.874748 -6.785431l-1.0161896 5.1927643z" fill-rule="evenodd"/><path stroke="#000000" stroke-width="2.0" stroke-linejoin="round" stroke-linecap="butt" d="m115.05925 184.81459l-12.354759 13.996994l0.1411972 9.641724l9.420486 -1.5512238l12.03228 -13.794296l-2.6303024 -2.452301l5.135086 -1.8180542l-7.874748 -6.785431l-1.0161896 5.1927643z" fill-rule="evenodd"/><defs><radialGradient id="p.4" gradientUnits="userSpaceOnUse" gradientTransform="matrix(1.6111079446376668 1.4039721303930903 1.4039721303930903 -1.6111079446376668 0.0 0.0)" spreadMethod="pad" cx="100.34170705148308" cy="-38.16444210832544" fx="100.34170705148308" fy="-38.16444210832544" r="1.6111079454421997"><stop offset="0.0" stop-color="#dfe9fb"/><stop offset="1.0" stop-color="#6e9be7"/></radialGradient></defs><path fill="url(#p.4)" d="m106.24394 200.76442l0 0c-0.8834152 1.0134735 -0.77776337 2.5511932 0.23599243 3.434616l0 0c0.48682404 0.42422485 1.1222305 0.63775635 1.766449 0.5935974c0.6442108 -0.044158936 1.2444534 -0.3423767 1.6686935 -0.82907104l0 0c0.8834152 -1.0134583 0.77775574 -2.551178 -0.23600006 -3.4346008l0 0c-1.0137482 -0.88342285 -2.551712 -0.7779999 -3.435135 0.23545837z" fill-rule="evenodd"/><path stroke="#000000" stroke-width="1.0" stroke-linejoin="round" stroke-linecap="butt" d="m106.24394 200.76442l0 0c-0.8834152 1.0134735 -0.77776337 2.5511932 0.23599243 3.434616l0 0c0.48682404 0.42422485 1.1222305 0.63775635 1.766449 0.5935974c0.6442108 -0.044158936 1.2444534 -0.3423767 1.6686935 -0.82907104l0 0c0.8834152 -1.0134583 0.77775574 -2.551178 -0.23600006 -3.4346008l0 0c-1.0137482 -0.88342285 -2.551712 -0.7779999 -3.435135 0.23545837z" fill-rule="evenodd"/><path fill="#ff0000" d="m103.92748 197.21536c0.14491272 -0.9222717 -0.25653076 -3.1001282 0.86951447 -5.533615c1.1260376 -2.4334717 4.806305 -8.583832 5.8867188 -9.067261c1.0804138 -0.4834442 0.4964676 5.138855 0.59576416 6.166626" fill-rule="evenodd"/><path stroke="#000000" stroke-width="1.0" stroke-linejoin="round" stroke-linecap="butt" d="m103.92748 197.21536c0.14491272 -0.9222717 -0.25653076 -3.1001282 0.86951447 -5.533615c1.1260376 -2.4334717 4.806305 -8.583832 5.8867188 -9.067261c1.0804138 -0.4834442 0.4964676 5.138855 0.59576416 6.166626" fill-rule="evenodd"/><path fill="#ff0000" d="m113.632095 205.67229c0.8939514 -0.26953125 3.1065521 -0.1694336 5.3637314 -1.6172028c2.257187 -1.4477692 7.8479843 -5.9332275 8.179359 -7.069397c0.33137512 -1.1361694 -5.1592484 0.21029663 -6.1910934 0.25234985" fill-rule="evenodd"/><path stroke="#000000" stroke-width="1.0" stroke-linejoin="round" stroke-linecap="butt" d="m113.632095 205.67229c0.8939514 -0.26953125 3.1065521 -0.1694336 5.3637314 -1.6172028c2.257187 -1.4477692 7.8479843 -5.9332275 8.179359 -7.069397c0.33137512 -1.1361694 -5.1592484 0.21029663 -6.1910934 0.25234985" fill-rule="evenodd"/><path fill="#93c47d" d="m46.659916 227.04367l0 0c16.185856 -28.031708 52.031277 -37.634674 80.06299 -21.448822l0 0c13.461296 7.7727356 23.283562 20.574585 27.305992 35.58931c4.0224457 15.014725 1.9155426 31.012375 -5.8571777 44.47368l0 0c-16.185852 28.031738 -52.031273 37.634674 -80.06299 21.448822l0 0c-28.031712 -16.185852 -37.634674 -52.031265 -21.448818 -80.06299z" fill-rule="evenodd"/><path stroke="#6aa84f" stroke-width="1.0" stroke-linejoin="round" stroke-linecap="butt" d="m46.659916 227.04367l0 0c16.185856 -28.031708 52.031277 -37.634674 80.06299 -21.448822l0 0c13.461296 7.7727356 23.283562 20.574585 27.305992 35.58931c4.0224457 15.014725 1.9155426 31.012375 -5.8571777 44.47368l0 0c-16.185852 28.031738 -52.031273 37.634674 -80.06299 21.448822l0 0c-28.031712 -16.185852 -37.634674 -52.031265 -21.448818 -80.06299z" fill-rule="evenodd"/><path fill="#000000" fill-opacity="0.0" d="m116.468636 208.74602l0 0c1.9656143 -3.4006805 6.3158493 -4.564026 9.716537 -2.5984192l0 0c1.6330643 0.94392395 2.8242722 2.4979095 3.3115768 4.320114c0.48728943 1.8222046 0.23075867 3.7633514 -0.71315 5.3964233l0 0c-1.9656143 3.4006805 -6.315857 4.564041 -9.716537 2.5984192l0 0c-3.4006805 -1.9656067 -4.564041 -6.315857 -2.5984268 -9.716537z" fill-rule="evenodd"/><path fill="#000000" fill-opacity="0.0" d="m-0.0014383203 -7.6587925l268.44095 0l0 268.44095l-268.44095 0z" fill-rule="evenodd"/><path stroke="#000000" stroke-width="1.0" stroke-linejoin="round" stroke-linecap="butt" d="m-0.0014383203 -7.6587925l268.44095 0l0 268.44095l-268.44095 0z" fill-rule="evenodd"/></g></svg>