<svg version="1.1" viewBox="0.0 0.0 268.43832020997377 269.12598425196853" fill="none" stroke="none" stroke-linecap="square" stroke-miterlimit="10" xmlns:xlink="http://www.w3.org/1999/xlink" xmlns="http://www.w3.org/2000/svg"><clipPath id="p.0"><path d="m0 0l268.43832 0l0 269.12598l-268.43832 0l0 -269.12598z" clip-rule="nonzero"/></clipPath><g clip-path="url(#p.0)"><path fill="#000000" fill-opacity="0.0" d="m0 0l268.43832 0l0 269.12598l-268.43832 0z" fill-rule="evenodd"/><defs><linearGradient id="p.1" gradientUnits="userSpaceOnUse" gradientTransform="matrix(16.384197161813578 0.0 0.0 16.384197161813578 0.0 0.0)" spreadMethod="pad" x1="2.1470311193081294E-10" y1="-5.931041490506879E-5" x2="-5.931041490506879E-5" y2="16.384137851291324"><stop offset="0.0" stop-color="#dfe9fb"/><stop offset="1.0" stop-color="#6e9be7"/></linearGradient></defs><path fill="url(#p.1)" d="m0 0l268.44095 0l0 268.44095l-268.44095 0z" fill-rule="evenodd"/><path fill="#ffffff" d="m13.892018 268.13123l0 0c0 -127.72998 100.44333 -231.27557 224.34647 -231.27557l0 0c59.50038 0 116.56377 24.366467 158.63689 67.73905c42.07312 43.37259 65.709564 102.19844 65.709564 163.53653l0 0c0 127.72998 -100.44333 231.2756 -224.34645 231.2756l0 0c-123.90313 0 -224.34647 -103.54562 -224.34647 -231.2756z" fill-rule="evenodd"/><path stroke="#666666" stroke-width="1.0" stroke-linejoin="round" stroke-linecap="butt" stroke-dasharray="4.0,3.0" d="m13.892018 268.13123l0 0c0 -127.72998 100.44333 -231.27557 224.34647 -231.27557l0 0c59.50038 0 116.56377 24.366467 158.63689 67.73905c42.07312 43.37259 65.709564 102.19844 65.709564 163.53653l0 0c0 127.72998 -100.44333 231.2756 -224.34645 231.2756l0 0c-123.90313 0 -224.34647 -103.54562 -224.34647 -231.2756z" fill-rule="evenodd"/><path fill="#f3f3f3" d="m117.62992 268.09973l0 0c0 -66.552475 53.951454 -120.50394 120.503944 -120.50394l0 0c31.95961 0 62.610275 12.695923 85.20915 35.294785c22.598877 22.598877 35.29477 53.249527 35.29477 85.20915l0 0c0 66.55249 -53.951447 120.50394 -120.50392 120.50394l0 0c-66.55249 0 -120.503944 -53.951447 -120.503944 -120.50394z" fill-rule="evenodd"/><path stroke="#666666" stroke-width="1.0" stroke-linejoin="round" stroke-linecap="butt" stroke-dasharray="4.0,3.0" d="m117.62992 268.09973l0 0c0 -66.552475 53.951454 -120.50394 120.503944 -120.50394l0 0c31.95961 0 62.610275 12.695923 85.20915 35.294785c22.598877 22.598877 35.29477 53.249527 35.29477 85.20915l0 0c0 66.55249 -53.951447 120.50394 -120.50392 120.50394l0 0c-66.55249 0 -120.503944 -53.951447 -120.503944 -120.50394z" fill-rule="evenodd"/><path fill="#efefef" d="m151.24934 268.1286l0 0c0 -48.03572 38.940643 -86.976364 86.97638 -86.976364l0 0c23.067581 0 45.190353 9.163544 61.50157 25.474792c16.311249 16.311234 25.474792 38.434006 25.474792 61.50157l0 0c0 48.035736 -38.940643 86.97638 -86.976364 86.97638l0 0c-48.035736 0 -86.97638 -38.940643 -86.97638 -86.97638z" fill-rule="evenodd"/><path stroke="#666666" stroke-width="1.0" stroke-linejoin="round" stroke-linecap="butt" stroke-dasharray="4.0,3.0" d="m151.24934 268.1286l0 0c0 -48.03572 38.940643 -86.976364 86.97638 -86.976364l0 0c23.067581 0 45.190353 9.163544 61.50157 25.474792c16.311249 16.311234 25.474792 38.434006 25.474792 61.50157l0 0c0 48.035736 -38.940643 86.97638 -86.976364 86.97638l0 0c-48.035736 0 -86.97638 -38.940643 -86.97638 -86.97638z" fill-rule="evenodd"/><path fill="#000000" fill-opacity="0.0" d="m238.01208 24.447348l0 185.76378" fill-rule="evenodd"/><path stroke="#000000" stroke-width="3.0" stroke-linejoin="round" stroke-linecap="butt" d="m238.01208 24.447348l0 185.76378" fill-rule="evenodd"/><path fill="#000000" fill-opacity="0.0" d="m207.49344 100.28084c7.958725 0 11.937119 3.9685059 15.917435 7.9370117c3.9803162 3.9684982 7.9625397 7.937004 15.925079 7.937004" fill-rule="evenodd"/><path stroke="#0000ff" stroke-width="1.0" stroke-linejoin="round" stroke-linecap="butt" d="m207.49344 100.28084c7.958725 0 11.937134 3.9685059 15.91745 7.9370117c1.9901581 1.9842529 3.9807892 3.9684982 6.4691925 5.456688c0.6221161 0.37204742 1.2753296 0.7130966 1.9674225 1.0153809c0.34603882 0.15114594 0.70181274 0.29260254 1.0682831 0.42339325c0.09159851 0.032707214 0.18388367 0.06473541 0.27685547 0.096084595l0.2078247 0.06804657" fill-rule="evenodd"/><path fill="#0000ff" stroke="#0000ff" stroke-width="1.0" stroke-linecap="butt" d="m233.15892 116.91142l4.73085 -0.97034454l-4.247772 -2.2976074z" fill-rule="evenodd"/><path fill="#000000" fill-opacity="0.0" d="m356.18372 53.04987c0 0.01574707 0.01574707 0.023620605 0.03149414 0.03149414c0.01574707 0.007873535 0.03149414 0.015750885 0.03149414 0.031497955" fill-rule="evenodd"/><path stroke="#000000" stroke-width="1.0" stroke-linejoin="round" stroke-linecap="butt" d="m356.18372 53.04987c0 0.01574707 0.01574707 0.023620605 0.03149414 0.03149414c0.01574707 0.007873535 0.03149414 0.015750885 0.03149414 0.031497955" fill-rule="evenodd"/><path fill="#ffffff" d="m239.32808 116.166664l0 0c0 -5.3489 4.336151 -9.685036 9.685043 -9.685036l0 0c2.568634 0 5.0320587 1.0203857 6.848358 2.8366776c1.8162842 1.8162994 2.83667 4.2797318 2.83667 6.848358l0 0c0 5.3489 -4.3361206 9.685043 -9.685028 9.685043l0 0c-5.348892 0 -9.685043 -4.3361435 -9.685043 -9.685043z" fill-rule="evenodd"/><path fill="#000000" fill-opacity="0.0" d="m238.01208 210.21112c0 -12.5 -7.724411 -25.051178 -15.448822 -24.999985c-7.724411 0.05117798 -15.448822 12.704712 -15.448822 25.40944" fill-rule="evenodd"/><path stroke="#b7b7b7" stroke-width="1.0" stroke-linejoin="round" stroke-linecap="butt" d="m238.01208 210.21112c0 -12.5 -7.724411 -25.051178 -15.448822 -24.999985c-7.724411 0.05117798 -15.448822 12.704712 -15.448822 25.40944" fill-rule="evenodd"/><path fill="#ffffff" d="m199.45114 210.50583l1.1098175 18.637924l6.899872 6.7370453l5.5865936 -7.743698l-1.1955566 -18.266785l-3.594757 0.11616516l2.3594055 -4.910614l-10.3697815 0.7423248l2.941513 4.3986816z" fill-rule="evenodd"/><path stroke="#000000" stroke-width="2.0" stroke-linejoin="round" stroke-linecap="butt" d="m199.45114 210.50583l1.1098175 18.637924l6.899872 6.7370453l5.5865936 -7.743698l-1.1955566 -18.266785l-3.594757 0.11616516l2.3594055 -4.910614l-10.3697815 0.7423248l2.941513 4.3986816z" fill-rule="evenodd"/><defs><radialGradient id="p.2" gradientUnits="userSpaceOnUse" gradientTransform="matrix(1.8536004479521184 -0.12230856634914629 -0.12230856634914629 -1.8536004479521184 0.0 0.0)" spreadMethod="pad" cx="103.0482902855169" cy="-129.734337058158" fx="103.0482902855169" fy="-129.734337058158" r="1.8536005020141602"><stop offset="0.0" stop-color="#dfe9fb"/><stop offset="1.0" stop-color="#6e9be7"/></radialGradient></defs><path fill="url(#p.2)" d="m204.4482 228.03226l0 0c0.088256836 1.3416443 1.2476501 2.357483 2.5895844 2.2689362l0 0c0.6444092 -0.042526245 1.2456055 -0.33924866 1.6713104 -0.82489014c0.42570496 -0.48564148 0.64105225 -1.1204224 0.59866333 -1.7646942l0 0c-0.08824158 -1.3416443 -1.2476501 -2.3574677 -2.589569 -2.268921l0 0c-1.3419342 0.08854675 -2.3582458 1.2479401 -2.269989 2.589569z" fill-rule="evenodd"/><path stroke="#000000" stroke-width="1.0" stroke-linejoin="round" stroke-linecap="butt" d="m204.4482 228.03226l0 0c0.088256836 1.3416443 1.2476501 2.357483 2.5895844 2.2689362l0 0c0.6444092 -0.042526245 1.2456055 -0.33924866 1.6713104 -0.82489014c0.42570496 -0.48564148 0.64105225 -1.1204224 0.59866333 -1.7646942l0 0c-0.08824158 -1.3416443 -1.2476501 -2.3574677 -2.589569 -2.268921l0 0c-1.3419342 0.08854675 -2.3582458 1.2479401 -2.269989 2.589569z" fill-rule="evenodd"/><path fill="#ff0000" d="m200.30252 227.14943c-0.5476532 -0.7561493 -2.3682556 -2.017273 -3.285904 -4.536911c-0.9176483 -2.519638 -2.6452484 -9.476135 -2.2200165 -10.580887c0.4252472 -1.1047363 3.9762115 3.2936554 4.771454 3.9523926" fill-rule="evenodd"/><path stroke="#000000" stroke-width="1.0" stroke-linejoin="round" stroke-linecap="butt" d="m200.30252 227.14943c-0.5476532 -0.7561493 -2.3682556 -2.017273 -3.285904 -4.536911c-0.9176483 -2.519638 -2.6452484 -9.476135 -2.2200165 -10.580887c0.4252472 -1.1047363 3.9762115 3.2936554 4.771454 3.9523926" fill-rule="evenodd"/><path fill="#ff0000" d="m213.14876 226.30179c0.44386292 -0.821579 2.0835419 -2.3110352 2.663208 -4.929474c0.57966614 -2.6184235 1.381073 -9.741806 0.8148041 -10.781128c-0.5662842 -1.0393219 -3.5104065 3.7876587 -4.2124786 4.5451813" fill-rule="evenodd"/><path stroke="#000000" stroke-width="1.0" stroke-linejoin="round" stroke-linecap="butt" d="m213.14876 226.30179c0.44386292 -0.821579 2.0835419 -2.3110352 2.663208 -4.929474c0.57966614 -2.6184235 1.381073 -9.741806 0.8148041 -10.781128c-0.5662842 -1.0393219 -3.5104065 3.7876587 -4.2124786 4.5451813" fill-rule="evenodd"/><path fill="#000000" fill-opacity="0.0" d="m238.01208 210.21112c0 -12.500061 -27.120193 -25.439484 -52.443146 -25.000122c-25.322968 0.43936157 -48.84871 14.257507 -52.44316 28.295334c-3.594452 14.037842 12.742371 28.29535 25.484726 28.29535" fill-rule="evenodd"/><path stroke="#666666" stroke-width="2.0" stroke-linejoin="round" stroke-linecap="butt" d="m238.01208 210.21112c0 -12.500061 -27.120193 -25.439484 -52.443146 -25.000122c-25.322968 0.43936157 -48.84871 14.257507 -52.44316 28.295334c-3.594452 14.037842 12.742371 28.29535 25.484726 28.29535" fill-rule="evenodd"/><path fill="#ffffff" d="m155.8434 250.21777l23.138382 5.435562l10.730896 -5.9627686l-7.410721 -9.635742l-22.716888 -5.1957855l-1.1676483 4.4274445l-5.130478 -4.666992l-2.8716125 12.920151l6.4368286 -1.9859009z" fill-rule="evenodd"/><path stroke="#000000" stroke-width="2.0" stroke-linejoin="round" stroke-linecap="butt" d="m155.8434 250.21777l23.138382 5.435562l10.730896 -5.9627686l-7.410721 -9.635742l-22.716888 -5.1957855l-1.1676483 4.4274445l-5.130478 -4.666992l-2.8716125 12.920151l6.4368286 -1.9859009z" fill-rule="evenodd"/><defs><radialGradient id="p.3" gradientUnits="userSpaceOnUse" gradientTransform="matrix(0.4715834696546498 -2.067294533052162 -2.067294533052162 -0.4715834696546498 0.0 0.0)" spreadMethod="pad" cx="-94.94104696875652" cy="-108.597965433051" fx="-94.94104696875652" fy="-108.597965433051" r="2.0672945976257324"><stop offset="0.0" stop-color="#dfe9fb"/><stop offset="1.0" stop-color="#6e9be7"/></radialGradient></defs><path fill="url(#p.3)" d="m179.04189 250.50653l0 0c1.6686554 0.381073 3.3300476 -0.66319275 3.7108154 -2.332428l0 0c0.18286133 -0.80158997 0.039901733 -1.6430511 -0.3973999 -2.339264c-0.4373169 -0.69621277 -1.1331787 -1.1901398 -1.934494 -1.3731384l0 0c-1.6686401 -0.381073 -3.3300323 0.66319275 -3.7108154 2.332428l0 0c-0.38076782 1.66922 0.6632538 3.3313293 2.331894 3.7124023z" fill-rule="evenodd"/><path stroke="#000000" stroke-width="1.0" stroke-linejoin="round" stroke-linecap="butt" d="m179.04189 250.50653l0 0c1.6686554 0.381073 3.3300476 -0.66319275 3.7108154 -2.332428l0 0c0.18286133 -0.80158997 0.039901733 -1.6430511 -0.3973999 -2.339264c-0.4373169 -0.69621277 -1.1331787 -1.1901398 -1.934494 -1.3731384l0 0c-1.6686401 -0.381073 -3.3300323 0.66319275 -3.7108154 2.332428l0 0c-0.38076782 1.66922 0.6632538 3.3313293 2.331894 3.7124023z" fill-rule="evenodd"/><path fill="#ff0000" d="m176.45502 255.2421c-1.1218262 0.39260864 -3.3232574 2.1540833 -6.730896 2.3556519c-3.4076385 0.2015686 -12.522278 -0.22506714 -13.714935 -1.1462402c-1.1926575 -0.9211731 5.4658203 -3.65065 6.5589905 -4.380768" fill-rule="evenodd"/><path stroke="#000000" stroke-width="1.0" stroke-linejoin="round" stroke-linecap="butt" d="m176.45502 255.2421c-1.1218262 0.39260864 -3.3232574 2.1540833 -6.730896 2.3556519c-3.4076385 0.2015686 -12.522278 -0.22506714 -13.714935 -1.1462402c-1.1926575 -0.9211731 5.4658203 -3.65065 6.5589905 -4.380768" fill-rule="evenodd"/><path fill="#ff0000" d="m180.10019 239.26263c-0.84046936 -0.840744 -2.0600433 -3.3834991 -5.042801 -5.044449c-2.9827728 -1.6609497 -11.379791 -5.2334595 -12.853806 -4.92128c-1.473999 0.31217957 3.3414764 5.661972 4.0097656 6.7943726" fill-rule="evenodd"/><path stroke="#000000" stroke-width="1.0" stroke-linejoin="round" stroke-linecap="butt" d="m180.10019 239.26263c-0.84046936 -0.840744 -2.0600433 -3.3834991 -5.042801 -5.044449c-2.9827728 -1.6609497 -11.379791 -5.2334595 -12.853806 -4.92128c-1.473999 0.31217957 3.3414764 5.661972 4.0097656 6.7943726" fill-rule="evenodd"/><path fill="#ffffff" d="m158.59712 241.80371l0 0c1.3741913 -3.5137482 5.3366394 -5.2481995 8.850388 -3.8740082l0 0c1.6873627 0.65989685 3.0434723 1.963089 3.769989 3.6228485c0.7265167 1.6597748 0.76394653 3.5401764 0.104034424 5.227539l0 0c-1.3741913 3.5137482 -5.3366394 5.2481995 -8.850388 3.8740082l0 0c-3.5137634 -1.374176 -5.2482147 -5.3366394 -3.8740234 -8.850388z" fill-rule="evenodd"/><path fill="#ffffff" d="m201.78574 218.6275l0 0c-1.6003265 -2.3830872 -0.9657593 -5.612274 1.4173279 -7.2126007l0 0c1.1443939 -0.76849365 2.5472107 -1.0509186 3.899826 -0.7851105c1.3526306 0.26579285 2.5442657 1.0580444 3.3127747 2.2024384l0 0c1.6003113 2.3830872 0.9657593 5.612274 -1.4173279 7.2126007l0 0c-2.3830872 1.6003113 -5.612274 0.9657593 -7.2126007 -1.4173279z" fill-rule="evenodd"/><path fill="#93c47d" d="m179.60498 268.12204l0 0c0 -32.371704 26.242462 -58.614166 58.61418 -58.614166l0 0c15.545441 0 30.454178 6.1754 41.446487 17.167694c10.992279 10.992294 17.167694 25.901031 17.167694 41.446472l0 0c0 32.371735 -26.242462 58.614166 -58.61418 58.614166l0 0c-32.37172 0 -58.61418 -26.242432 -58.61418 -58.614166z" fill-rule="evenodd"/><path stroke="#6aa84f" stroke-width="1.0" stroke-linejoin="round" stroke-linecap="butt" d="m179.60498 268.12204l0 0c0 -32.371704 26.242462 -58.614166 58.61418 -58.614166l0 0c15.545441 0 30.454178 6.1754 41.446487 17.167694c10.992279 10.992294 17.167694 25.901031 17.167694 41.446472l0 0c0 32.371735 -26.242462 58.614166 -58.61418 58.614166l0 0c-32.37172 0 -58.61418 -26.242432 -58.61418 -58.614166z" fill-rule="evenodd"/><path fill="#000000" fill-opacity="0.0" d="m230.89397 217.32924l0 0c0 -3.9312286 3.1868896 -7.1181183 7.1181183 -7.1181183l0 0c1.8878326 0 3.6983643 0.7499542 5.033264 2.0848541c1.3348999 1.3348999 2.0848389 3.1454163 2.0848389 5.033264l0 0c0 3.9312286 -3.1868744 7.118103 -7.118103 7.118103l0 0c-3.9312286 0 -7.1181183 -3.1868744 -7.1181183 -7.118103z" fill-rule="evenodd"/><path fill="#ffffff" d="m228.37355 29.566156l-0.18043518 -29.059376l10.025391 -11.170032l9.4653015 11.45384l0.009399414 28.491758l-5.5934753 0.18795395l4.165039 7.3846645l-16.177094 -0.09021759l4.118042 -7.1328087z" fill-rule="evenodd"/><path stroke="#000000" stroke-width="2.0" stroke-linejoin="round" stroke-linecap="butt" d="m228.37355 29.566156l-0.18043518 -29.059376l10.025391 -11.170032l9.4653015 11.45384l0.009399414 28.491758l-5.5934753 0.18795395l4.165039 7.3846645l-16.177094 -0.09021759l4.118042 -7.1328087z" fill-rule="evenodd"/><defs><radialGradient id="p.4" gradientUnits="userSpaceOnUse" gradientTransform="matrix(2.314872681044368 0.0 0.0 2.314872681044368 0.0 0.0)" spreadMethod="pad" cx="102.87025089169504" cy="0.7925430264688368" fx="102.87025089169504" fy="0.7925430264688368" r="2.3148727416992188"><stop offset="0.0" stop-color="#dfe9fb"/><stop offset="1.0" stop-color="#6e9be7"/></radialGradient></defs><path fill="url(#p.4)" d="m234.3424 1.8346362l0 0c0 -2.0926774 1.6964417 -3.7891276 3.7891235 -3.7891276l0 0c1.0049438 0 1.9687195 0.39921057 2.6793213 1.1098098c0.7106018 0.7105993 1.1098022 1.6743786 1.1098022 2.679318l0 0c0 2.0926774 -1.6964417 3.7891273 -3.7891235 3.7891273l0 0c-2.092682 0 -3.7891235 -1.69645 -3.7891235 -3.7891273z" fill-rule="evenodd"/><path stroke="#000000" stroke-width="1.0" stroke-linejoin="round" stroke-linecap="butt" d="m234.3424 1.8346362l0 0c0 -2.0926774 1.6964417 -3.7891276 3.7891235 -3.7891276l0 0c1.0049438 0 1.9687195 0.39921057 2.6793213 1.1098098c0.7106018 0.7105993 1.1098022 1.6743786 1.1098022 2.679318l0 0c0 2.0926774 -1.6964417 3.7891273 -3.7891235 3.7891273l0 0c-2.092682 0 -3.7891235 -1.69645 -3.7891235 -3.7891273z" fill-rule="evenodd"/><path fill="#ff0000" d="m227.99554 3.630555c-0.77311707 1.2304642 -3.4711761 3.3756316 -4.638672 7.382784c-1.1674957 4.0071526 -3.1394348 14.987979 -2.366333 16.660133c0.77311707 1.6721535 5.837509 -5.5226784 7.005005 -6.6272144" fill-rule="evenodd"/><path stroke="#000000" stroke-width="1.0" stroke-linejoin="round" stroke-linecap="butt" d="m227.99554 3.630555c-0.77311707 1.2304642 -3.4711761 3.3756316 -4.638672 7.382784c-1.1674957 4.0071526 -3.1394348 14.987979 -2.366333 16.660133c0.77311707 1.6721535 5.837509 -5.5226784 7.005005 -6.6272144" fill-rule="evenodd"/><path fill="#ff0000" d="m248.02863 3.630555c0.7731018 1.2304642 3.4711761 3.3756316 4.638672 7.382784c1.1674957 4.0071526 3.1394348 14.987979 2.3663177 16.660133c-0.7731018 1.6721535 -5.837494 -5.5226784 -7.0049896 -6.6272144" fill-rule="evenodd"/><path stroke="#000000" stroke-width="1.0" stroke-linejoin="round" stroke-linecap="butt" d="m248.02863 3.630555c0.7731018 1.2304642 3.4711761 3.3756316 4.638672 7.382784c1.1674957 4.0071526 3.1394348 14.987979 2.3663177 16.660133c-0.7731018 1.6721535 -5.837494 -5.5226784 -7.0049896 -6.6272144" fill-rule="evenodd"/><path fill="#ffffff" d="m230.89397 17.329237l0 0c0 -3.931223 3.1868896 -7.1181097 7.1181183 -7.1181097l0 0c1.8878326 0 3.6983643 0.7499418 5.033264 2.0848465c1.3348999 1.3349047 2.0848389 3.145424 2.0848389 5.033263l0 0c0 3.9312248 -3.1868744 7.1181107 -7.118103 7.1181107l0 0c-3.9312286 0 -7.1181183 -3.1868858 -7.1181183 -7.1181107z" fill-rule="evenodd"/><path fill="#ffffff" d="m128.50131 67.96588l78.99213 0l0 64.62991l-78.99213 0z" fill-rule="evenodd"/><path fill="#0000ff" d="m149.12451 82.57338q1.875 0 2.796875 0.359375l0 1.46875q-0.84375 0.125 -1.71875 0.140625q-0.859375 0 -1.828125 0.015625q-2.65625 0.046875 -3.375 0.203125q-0.25 1.1875 -0.234375 1.6875q0.03125 0.5 0.046875 0.78125q0.078125 0.71875 0.078125 1.328125q0.828125 0 2.40625 -0.21875q1.59375 -0.21875 2.484375 -0.3125q0.890625 -0.109375 2.203125 -0.109375l0 1.71875l-6.953125 0.859375l0.078125 2.296875q1.421875 0 3.296875 -0.171875q1.890625 -0.171875 2.859375 -0.25q0.984375 -0.09375 2.46875 -0.09375q0 0.84375 -0.28125 1.28125q-0.65625 0.890625 -1.1875 0.53125q-3.078125 0.328125 -5.609375 0.53125q-2.515625 0.1875 -3.796875 0.296875l0.078125 -12.53125q0.90625 0.265625 2.125 0.265625l4.0625 -0.078125zm11.32196 6.859375q2.390625 0 2.390625 1.390625q0 0.9375 -1.25 2.078125q-1.71875 1.5625 -4.640625 2.515625q-0.40625 0 -0.609375 -0.34375q-0.203125 -0.34375 -0.296875 -0.46875q-0.078125 -0.140625 -0.375 -0.59375q2.5 -0.828125 3.796875 -1.765625q0.765625 -0.546875 0.765625 -0.6875q0 -0.140625 -0.875 -0.140625q-0.859375 0 -2.9375 0.515625q-1.15625 -0.03125 -1.9375 -0.78125q-0.71875 -0.671875 -0.71875 -1.375q0 -0.71875 0.375 -1.265625q0.375 -0.5625 0.953125 -1.015625q0.59375 -0.453125 1.359375 -0.8125q1.875 -0.890625 3.859375 -0.890625q0.59375 0 1.125 0.109375q0.71875 0 0.8125 0.5625q0.109375 0.546875 0.109375 2.046875q-1.53125 -0.71875 -2.796875 -0.71875q-1.5625 0 -2.578125 0.640625q-0.953125 0.546875 -0.984375 1.390625q0 0.125 0.359375 0.125l1.28125 -0.15625q1.75 -0.359375 2.8125 -0.359375zm10.364563 2.8125q0.734375 -0.296875 1.484375 -0.5625q0.75 -0.28125 1.609375 -0.28125q0.875 0 0.875 0.78125q0 0.140625 -0.078125 0.4375q-0.0625 0.28125 -0.59375 0.59375q-0.53125 0.3125 -1.203125 0.5625q-0.671875 0.234375 -1.453125 0.4375q-0.78125 0.203125 -1.5 0.359375q-1.5625 0.3125 -2.234375 0.3125q-0.671875 0 -1.453125 -0.15625q-0.78125 -0.15625 -1.46875 -0.515625q-1.671875 -0.859375 -1.671875 -2.578125q0 -0.109375 0 -0.46875q0 -0.375 0.296875 -1.046875q0.3125 -0.671875 0.890625 -1.3125q0.578125 -0.65625 1.328125 -1.203125q1.59375 -1.140625 3.34375 -1.484375q0.640625 -0.125 1.046875 -0.125q0.40625 0 0.671875 0.015625q0.265625 0 0.578125 0.03125q0.328125 0.03125 0.59375 0.171875q0.671875 0.34375 0.671875 1.265625q0 0.640625 -0.78125 1.171875q-0.15625 0.109375 -0.78125 0.515625q-0.171875 -0.921875 -0.265625 -1.09375q-0.078125 -0.171875 -0.296875 -0.171875q-2.046875 0.453125 -3.546875 1.328125q-1.5625 0.921875 -1.5625 1.859375q0 0.109375 0.015625 0.25q0 0.96875 0.703125 1.34375q0.578125 0.328125 1.5625 0.328125q1.0 0 1.75 -0.234375q0.75 -0.25 1.46875 -0.53125zm11.634033 -0.140625q-1.03125 1.859375 -3.453125 2.40625q-0.578125 0.125 -1.03125 0.125q-0.4375 0 -0.75 0q-0.296875 -0.015625 -0.703125 -0.09375q-0.390625 -0.09375 -0.71875 -0.28125q-0.859375 -0.5 -0.859375 -1.359375q-0.078125 -0.328125 -0.078125 -0.78125q0 -0.46875 0.1875 -1.1875q0.203125 -0.734375 0.703125 -1.546875q0.515625 -0.828125 1.234375 -1.515625q1.53125 -1.46875 3.3125 -1.875q0.515625 -0.125 0.96875 -0.125q0.453125 0 0.78125 0.046875q1.3125 0 1.75 1.71875q0.25 0.96875 0.296875 2.609375q0.046875 1.640625 0.09375 2.515625q0.046875 0.859375 0.3125 2.015625l-1.875 0q-0.109375 -0.8125 -0.15625 -1.203125q-0.03125 -0.390625 -0.0625 -0.703125q-0.09375 -0.75 0.046875 -0.765625zm-0.34375 -3.4375q0 -0.6875 -0.671875 -0.6875q-0.140625 -0.015625 -0.25 -0.015625q-1.1875 0 -2.546875 1.1875q-0.671875 0.546875 -1.125 1.234375q-0.671875 0.953125 -0.671875 1.640625q0 0.765625 0.90625 0.90625q1.453125 -0.03125 2.828125 -1.390625q0.609375 -0.59375 1.0 -1.296875q0.53125 -0.90625 0.53125 -1.578125zm4.742096 -1.84375q2.203125 -0.84375 4.0625 -0.84375q2.5 0 3.375 1.375q0.40625 0.65625 0.40625 1.421875q0 1.015625 -0.609375 2.0625q-0.609375 1.03125 -1.625 1.859375q-2.28125 1.859375 -5.34375 2.140625q0.140625 0 0.140625 0.4375q0.015625 0.453125 0.015625 1.0q0.015625 0.546875 0.015625 1.15625q0.015625 0.625 0.03125 1.1875q0.0625 1.375 0.078125 1.578125q0.03125 0.21875 0.03125 0.359375q0 0.640625 -0.421875 0.953125q-0.40625 0.328125 -1.0 0.328125q-0.09375 0 -0.5625 0l-0.296875 -15.140625q0.359375 -0.5 0.796875 -0.46875q0.4375 0.015625 0.703125 0.21875q0.265625 0.203125 0.203125 0.375zm4.9375 1.34375q-0.53125 -0.265625 -1.15625 -0.265625q-0.609375 0 -1.234375 0.140625q-1.390625 0.25 -2.03125 1.125q-0.265625 0.375 -0.265625 0.953125q0 0.078125 0 0.140625l0 2.6875q3.1875 -0.71875 4.703125 -2.125q0.78125 -0.75 0.78125 -1.5q0 -0.734375 -0.796875 -1.15625zm7.1973267 4.6875q1.53125 0 4.75 -1.453125q0.453125 0 0.671875 0.265625q0.234375 0.25 0.234375 0.65625q-0.84375 1.46875 -3.03125 2.203125q-2.171875 0.71875 -4.0625 0.234375q-2.234375 -0.578125 -2.734375 -2.5625q-0.046875 -0.390625 -0.046875 -1.015625q0 -0.640625 0.328125 -1.65625q0.328125 -1.015625 1.09375 -1.921875q0.78125 -0.921875 1.828125 -1.453125q1.0625 -0.53125 2.265625 -0.53125q1.15625 0 2.5625 0.78125q0.671875 0.375 1.09375 0.890625q0.4375 0.515625 0.4375 1.109375q0 0.15625 -0.015625 0.296875q-0.046875 1.375 -1.34375 1.71875q-0.5 0.15625 -1.1875 0.15625l-2.609375 -0.109375q-1.171875 0 -1.765625 0.484375q-0.296875 0.234375 -0.40625 0.625q0.34375 1.28125 1.9375 1.28125zm2.984375 -4.984375q-0.3125 -0.21875 -0.6875 -0.328125q-0.375 -0.109375 -0.625 -0.109375q-0.234375 0 -0.859375 0.1875q-0.609375 0.1875 -1.09375 0.40625q-1.03125 0.46875 -1.03125 0.53125q1.09375 0.09375 1.8125 0.09375q1.9375 0 2.578125 -0.3125q0.21875 -0.09375 0.21875 -0.109375q0 -0.140625 -0.3125 -0.359375z" fill-rule="nonzero"/><path fill="#0000ff" d="m141.64578 116.77025q-0.484375 -1.3125 -1.8125 -3.890625q-1.3125 -2.59375 -1.75 -3.453125q-1.015625 -2.0625 -1.015625 -2.5q0 -0.484375 1.46875 -1.0625q0.796875 1.46875 1.34375 2.65625q0.5625 1.171875 1.109375 2.203125q1.28125 2.5 1.8125 3.125q-0.046875 0.03125 0.9375 -2.078125l1.5 -3.15625q1.203125 -2.546875 1.5625 -3.390625q0.796875 -0.9375 1.40625 -0.9375q0.8125 0 0.8125 1.21875l-5.25 11.53125q-0.5 0.328125 -1.15625 0.328125q-0.640625 0 -0.96875 -0.59375zm11.493469 -1.515625q1.53125 0 4.75 -1.453125q0.453125 0 0.671875 0.265625q0.234375 0.25 0.234375 0.65625q-0.84375 1.46875 -3.03125 2.203125q-2.171875 0.71875 -4.0625 0.234375q-2.234375 -0.578125 -2.734375 -2.5625q-0.046875 -0.390625 -0.046875 -1.015625q0 -0.640625 0.328125 -1.65625q0.328125 -1.015625 1.09375 -1.921875q0.78125 -0.921875 1.828125 -1.453125q1.0625 -0.53125 2.265625 -0.53125q1.15625 0 2.5625 0.78125q0.671875 0.375 1.09375 0.890625q0.4375 0.515625 0.4375 1.109375q0 0.15625 -0.015625 0.296875q-0.046875 1.375 -1.34375 1.71875q-0.5 0.15625 -1.1875 0.15625l-2.609375 -0.109375q-1.171875 0 -1.765625 0.484375q-0.296875 0.234375 -0.40625 0.625q0.34375 1.28125 1.9375 1.28125zm2.984375 -4.984375q-0.3125 -0.21875 -0.6875 -0.328125q-0.375 -0.109375 -0.625 -0.109375q-0.234375 0 -0.859375 0.1875q-0.609375 0.1875 -1.09375 0.40625q-1.03125 0.46875 -1.03125 0.53125q1.09375 0.09375 1.8125 0.09375q1.9375 0 2.578125 -0.3125q0.21875 -0.09375 0.21875 -0.109375q0 -0.140625 -0.3125 -0.359375zm3.3433228 -0.40625q-0.03125 -0.984375 -0.078125 -1.75q-0.03125 -0.78125 -0.046875 -1.140625q0 -0.359375 -0.3125 -1.96875q0.265625 -0.34375 0.46875 -0.609375q0.21875 -0.28125 0.703125 -0.28125q0.96875 0 1.359375 5.734375q0.171875 3.109375 0.171875 6.25q0 1.203125 -1.546875 1.203125l-0.515625 -0.046875q0 -1.296875 -0.0625 -2.765625q-0.046875 -1.46875 -0.078125 -2.546875q-0.015625 -1.09375 -0.0625 -2.078125zm3.073883 3.578125q0 -2.328125 2.015625 -3.765625q1.546875 -1.09375 3.75 -1.328125q0.125 0 0.546875 0q0.4375 0 1.171875 0.265625q1.65625 0.5625 2.265625 2.015625q0.25 0.578125 0.25 0.984375q0 0.390625 -0.015625 0.546875q0 2.4375 -1.890625 3.859375q-1.703125 1.28125 -4.21875 1.28125q-1.875 0 -2.875 -0.890625q-1.0 -0.90625 -1.0 -2.96875zm2.0 0.46875q0 0.90625 0.4375 1.1875q0.359375 0.234375 1.359375 0.234375q1.0 0 1.765625 -0.15625q0.765625 -0.15625 1.34375 -0.515625q1.203125 -0.765625 1.203125 -2.390625q0 -0.953125 -0.5 -1.546875q-0.53125 -0.609375 -1.359375 -0.609375q-0.6875 0.125 -1.375 0.265625q-0.671875 0.125 -1.234375 0.5q-1.25 0.8125 -1.640625 3.03125zm15.634766 0.734375q0.734375 -0.296875 1.484375 -0.5625q0.75 -0.28125 1.609375 -0.28125q0.875 0 0.875 0.78125q0 0.140625 -0.078125 0.4375q-0.0625 0.28125 -0.59375 0.59375q-0.53125 0.3125 -1.203125 0.5625q-0.671875 0.234375 -1.453125 0.4375q-0.78125 0.203125 -1.5 0.359375q-1.5625 0.3125 -2.234375 0.3125q-0.671875 0 -1.453125 -0.15625q-0.78125 -0.15625 -1.46875 -0.515625q-1.671875 -0.859375 -1.671875 -2.578125q0 -0.109375 0 -0.46875q0 -0.375 0.296875 -1.046875q0.3125 -0.671875 0.890625 -1.3125q0.578125 -0.65625 1.328125 -1.203125q1.59375 -1.140625 3.34375 -1.484375q0.640625 -0.125 1.046875 -0.125q0.40625 0 0.671875 0.015625q0.265625 0 0.578125 0.03125q0.328125 0.03125 0.59375 0.171875q0.671875 0.34375 0.671875 1.265625q0 0.640625 -0.78125 1.171875q-0.15625 0.109375 -0.78125 0.515625q-0.171875 -0.921875 -0.265625 -1.09375q-0.078125 -0.171875 -0.296875 -0.171875q-2.046875 0.453125 -3.546875 1.328125q-1.5625 0.921875 -1.5625 1.859375q0 0.109375 0.015625 0.25q0 0.96875 0.703125 1.34375q0.578125 0.328125 1.5625 0.328125q1.0 0 1.75 -0.234375q0.75 -0.25 1.46875 -0.53125zm6.555908 -6.671875q0.28125 3.765625 0.4375 8.296875q-0.171875 0.90625 -1.25 0.90625q-0.265625 0 -0.609375 -0.125q-0.328125 -0.125 -0.4375 -0.5l0 -8.578125l1.859375 0zm-2.40625 -2.015625q0 -1.09375 1.125 -1.09375q0.609375 0 1.109375 0.359375q0.125 0.359375 0.125 0.65625q0 0.296875 -0.234375 0.578125q-0.265625 0.3125 -0.6875 0.3125q-0.40625 0 -0.796875 -0.171875q-0.390625 -0.171875 -0.640625 -0.640625zm5.636444 9.203125l0.03125 -2.921875q0 -0.640625 -0.046875 -0.796875l-2.890625 0l-0.0625 -2.015625l2.75 0l0 -4.390625q0.09375 -0.296875 0.328125 -0.53125q0.359375 -0.359375 0.640625 -0.359375q0.28125 0 0.484375 0.0625q0.21875 0.0625 0.484375 0.453125q0.3125 1.3125 0.3125 3.78125q0 0.578125 0.015625 0.765625q0.21875 -0.03125 0.828125 -0.03125q0 0 0.953125 0q0.328125 0 1.03125 -0.078125l-0.09375 2.125l-2.640625 -0.078125l0.09375 6.140625q-0.625 0.265625 -0.9375 0.265625q-1.28125 0 -1.28125 -2.390625zm9.355164 8.765625q-0.5 1.078125 -1.265625 1.078125q-0.484375 0 -0.6875 -0.40625q-0.203125 -0.390625 -0.046875 -0.84375q0.390625 -1.6875 1.140625 -3.875q0.765625 -2.171875 0.953125 -2.6875q-0.484375 -0.5 -1.890625 -2.4375q-2.859375 -4.015625 -2.859375 -4.53125q0 -0.171875 0.125 -0.296875l0.9375 -0.96875q1.734375 1.625 4.0625 4.84375q0.609375 0.796875 0.609375 0.828125q0.0625 -0.1875 0.28125 -0.734375q0.21875 -0.546875 0.359375 -0.875q0.140625 -0.34375 0.375 -0.921875q0.625 -1.515625 1.78125 -4.0q0.359375 -0.140625 0.625 -0.140625q0.625 0 0.953125 0.375q0.140625 0.21875 0.140625 0.421875q0 0.1875 -0.046875 0.375l-5.546875 14.796875z" fill-rule="nonzero"/><path fill="#000000" fill-opacity="0.0" d="m0 0l268.44095 0l0 268.44095l-268.44095 0z" fill-rule="evenodd"/><path stroke="#000000" stroke-width="1.0" stroke-linejoin="round" stroke-linecap="butt" d="m0 0l268.44095 0l0 268.44095l-268.44095 0z" fill-rule="evenodd"/></g></svg>