<svg version="1.1" viewBox="0.0 0.0 385.18110236220474 100.0" fill="none" stroke="none" stroke-linecap="square" stroke-miterlimit="10" xmlns:xlink="http://www.w3.org/1999/xlink" xmlns="http://www.w3.org/2000/svg"><clipPath id="p.0"><path d="m0 0l385.1811 0l0 100.0l-385.1811 0l0 -100.0z" clip-rule="nonzero"/></clipPath><g clip-path="url(#p.0)"><path fill="#000000" fill-opacity="0.0" d="m0 0l385.1811 0l0 100.0l-385.1811 0z" fill-rule="evenodd"/><path fill="#000000" fill-opacity="0.0" d="m303.22083 19.716515l82.74014 0l0 60.566925l-82.74014 0z" fill-rule="evenodd"/><path fill="#000000" d="m320.28183 49.519978l0 -1.5l1.421875 -0.265625l0 -9.71875l-1.421875 -0.28125l0 -1.5l6.203125 0q1.5 0 2.578125 0.46875q1.09375 0.46875 1.65625 1.34375q0.5625 0.875 0.5625 2.09375q0 1.15625 -0.5625 2.0625q-0.5625 0.890625 -1.578125 1.390625q-1.015625 0.5 -2.359375 0.515625l-2.59375 0l0 3.625l1.421875 0.265625l0 1.5l-5.328125 0zm8.578125 0l-2.390625 -5.921875l2.28125 -0.46875l2.03125 4.640625l1.09375 0.234375l0 1.515625l-3.015625 0zm-4.671875 -7.296875l2.21875 0q1.234375 0 1.8125 -0.5q0.59375 -0.515625 0.59375 -1.484375q0 -0.9375 -0.578125 -1.5q-0.578125 -0.5625 -1.75 -0.5625l-2.296875 0l0 4.046875zm8.733765 7.296875l0 -1.5l0.96875 -0.125l4.296875 -11.640625l2.46875 0l4.28125 11.640625l0.9375 0.125l0 1.5l-4.359375 0l0 -1.5l0.9375 -0.171875l-0.640625 -1.9375l-4.796875 0l-0.65625 1.9375l0.9375 0.171875l0 1.5l-4.375 0zm4.703125 -5.484375l3.578125 0l-1.640625 -4.71875l-0.125 -0.375l-0.046875 0l-0.140625 0.390625l-1.625 4.703125zm9.247498 5.484375l0 -1.5l1.4375 -0.296875l0 -9.65625l-1.4375 -0.3125l0 -1.5l1.4375 0l4.25 0q1.78125 0 3.125 0.84375q1.34375 0.828125 2.09375 2.296875q0.75 1.46875 0.75 3.375l0 0.25q0 1.875 -0.75 3.34375q-0.734375 1.46875 -2.0625 2.3125q-1.328125 0.84375 -3.109375 0.84375l-5.734375 0zm3.90625 -1.90625l1.703125 0q1.140625 0 1.921875 -0.59375q0.796875 -0.609375 1.21875 -1.640625q0.421875 -1.046875 0.421875 -2.359375l0 -0.265625q0 -1.34375 -0.421875 -2.375q-0.421875 -1.03125 -1.21875 -1.609375q-0.78125 -0.59375 -1.921875 -0.59375l-1.703125 0l0 9.4375zm13.159485 2.09375q-1.078125 0 -2.015625 -0.203125q-0.921875 -0.203125 -1.828125 -0.609375l-0.015625 -2.6875l1.75 0l0.34375 1.421875q0.359375 0.15625 0.75 0.25q0.390625 0.09375 0.875 0.09375q0.9375 0 1.328125 -0.3125q0.390625 -0.3125 0.390625 -0.796875q0 -0.453125 -0.421875 -0.78125q-0.40625 -0.328125 -1.578125 -0.578125q-1.75 -0.375 -2.59375 -1.125q-0.828125 -0.75 -0.828125 -1.921875q0 -0.828125 0.421875 -1.484375q0.4375 -0.671875 1.28125 -1.078125q0.84375 -0.40625 2.125 -0.40625q1.109375 0 2.0 0.234375q0.90625 0.21875 1.53125 0.578125l0.046875 2.609375l-1.734375 0l-0.296875 -1.296875q-0.25 -0.1875 -0.609375 -0.296875q-0.359375 -0.109375 -0.8125 -0.109375q-0.71875 0 -1.125 0.3125q-0.40625 0.3125 -0.40625 0.78125q0 0.28125 0.125 0.515625q0.140625 0.21875 0.53125 0.421875q0.40625 0.1875 1.171875 0.359375q1.875 0.421875 2.703125 1.140625q0.84375 0.703125 0.84375 1.9375q0 1.34375 -0.984375 2.1875q-0.96875 0.84375 -2.96875 0.84375z" fill-rule="nonzero"/><path fill="#000000" d="m306.5296 67.95747l0 -0.96875l0.84375 -0.171875l0 -6.499996l-0.921875 -0.171875l0 -0.96875l2.375 0l0.078125 0.75q0.296875 -0.421875 0.703125 -0.640625q0.40625 -0.21875 0.96875 -0.21875q0.765625 0 1.3125 0.421875q0.546875 0.40625 0.84375 1.171875q0.296875 0.75 0.296875 1.75l0 0.125q0 0.9375 -0.296875 1.6406212q-0.296875 0.6875 -0.84375 1.078125q-0.546875 0.390625 -1.3125 0.390625q-0.53125 0 -0.9375 -0.1875q-0.390625 -0.1875 -0.671875 -0.546875l0 1.90625l0.859375 0.171875l0 0.96875l-3.296875 0zm3.5625 -3.546875q0.6875 0 1.0 -0.4999962q0.328125 -0.515625 0.328125 -1.375l0 -0.125q0 -0.625 -0.140625 -1.09375q-0.140625 -0.46875 -0.4375 -0.734375q-0.296875 -0.265625 -0.765625 -0.265625q-0.375 0 -0.671875 0.171875q-0.28125 0.171875 -0.4375 0.484375l0 2.828125q0.15625 0.2968712 0.4375 0.4531212q0.296875 0.15625 0.6875 0.15625zm6.8398438 1.234375q-0.90625 0 -1.578125 -0.40625q-0.671875 -0.40625 -1.046875 -1.109375q-0.359375 -0.7031212 -0.359375 -1.6093712l0 -0.234375q0 -0.9375 0.34375 -1.65625q0.359375 -0.734375 1.0 -1.140625q0.640625 -0.421875 1.484375 -0.421875q0.859375 0 1.4375 0.34375q0.59375 0.34375 0.890625 0.984375q0.296875 0.625 0.296875 1.53125l0 0.875l-3.796875 0l-0.015625 0.046875q0.015625 0.453125 0.203125 0.8125q0.1875 0.3437462 0.515625 0.5468712q0.328125 0.203125 0.796875 0.203125q0.5 0 0.90625 -0.125q0.40625 -0.125 0.78125 -0.3749962l0.46875 0.9843712q-0.390625 0.3125 -0.984375 0.53125q-0.578125 0.21875 -1.34375 0.21875zm-1.3125 -3.9218712l2.28125 0l0 -0.15625q0 -0.390625 -0.125 -0.6875q-0.109375 -0.296875 -0.359375 -0.453125q-0.234375 -0.171875 -0.625 -0.171875q-0.34375 0 -0.609375 0.1875q-0.25 0.1875 -0.390625 0.515625q-0.140625 0.328125 -0.1875 0.734375l0.015625 0.03125zm4.6992188 3.7968712l0 -0.96875l0.84375 -0.171875l0 -4.062496l-0.90625 -0.171875l0 -0.96875l2.390625 0l0.0625 0.796875l0.015625 0.125q0.234375 -0.5 0.59375 -0.765625q0.359375 -0.265625 0.84375 -0.265625q0.15625 0 0.34375 0.03125q0.1875 0.015625 0.3125 0.0625l-0.171875 1.46875l-0.84375 -0.046875q-0.375 -0.015625 -0.625 0.140625q-0.25 0.15625 -0.421875 0.453125l0 3.2031212l0.859375 0.171875l0 0.96875l-3.296875 0zm10.962891 0.125q-0.90625 0 -1.5625 -0.40625q-0.65625 -0.40625 -1.015625 -1.125q-0.359375 -0.7343712 -0.359375 -1.6718712l0 -0.1875q0 -0.921875 0.359375 -1.640625q0.359375 -0.71875 1.015625 -1.125q0.65625 -0.421875 1.546875 -0.421875q0.84375 0 1.453125 0.265625q0.609375 0.25 0.984375 0.625l0 1.765625l-1.203125 0l-0.21875 -1.140625q-0.15625 -0.15625 -0.390625 -0.25q-0.234375 -0.09375 -0.5 -0.09375q-0.46875 0 -0.796875 0.25q-0.328125 0.25 -0.5 0.703125q-0.15625 0.453125 -0.15625 1.0625l0 0.1875q0 0.671875 0.171875 1.109375q0.171875 0.4375 0.484375 0.6562462q0.3125 0.203125 0.6875 0.203125q0.484375 0 0.78125 -0.25q0.296875 -0.24999619 0.40625 -0.7187462l1.359375 0l0.015625 0.03125q-0.078125 0.6562462 -0.375 1.1406212q-0.296875 0.484375 -0.84375 0.765625q-0.53125 0.265625 -1.34375 0.265625zm6.3828125 0q-0.9375 0 -1.59375 -0.40625q-0.65625 -0.421875 -1.015625 -1.140625q-0.359375 -0.7343712 -0.359375 -1.6874962l0 -0.125q0 -0.9375 0.359375 -1.65625q0.359375 -0.734375 1.015625 -1.140625q0.65625 -0.421875 1.578125 -0.421875q0.9375 0 1.59375 0.421875q0.65625 0.40625 1.015625 1.140625q0.359375 0.71875 0.359375 1.65625l0 0.125q0 0.953125 -0.359375 1.6874962q-0.359375 0.71875 -1.015625 1.140625q-0.65625 0.40625 -1.578125 0.40625zm0 -1.234375q0.46875 0 0.765625 -0.25q0.296875 -0.24999619 0.4375 -0.7031212q0.15625 -0.453125 0.15625 -1.046875l0 -0.125q0 -0.578125 -0.15625 -1.03125q-0.140625 -0.453125 -0.453125 -0.703125q-0.296875 -0.265625 -0.765625 -0.265625q-0.46875 0 -0.765625 0.265625q-0.296875 0.25 -0.453125 0.703125q-0.140625 0.453125 -0.140625 1.03125l0 0.125q0 0.59375 0.140625 1.046875q0.15625 0.453125 0.453125 0.7031212q0.3125 0.25 0.78125 0.25zm4.1484375 -1.9218712l0 -1.21875l3.21875 0l0 1.21875l-3.21875 0zm7.330078 3.1562462q-0.9375 0 -1.59375 -0.40625q-0.65625 -0.421875 -1.015625 -1.140625q-0.359375 -0.7343712 -0.359375 -1.6874962l0 -0.125q0 -0.9375 0.359375 -1.65625q0.359375 -0.734375 1.015625 -1.140625q0.65625 -0.421875 1.578125 -0.421875q0.9375 0 1.59375 0.421875q0.65625 0.40625 1.015625 1.140625q0.359375 0.71875 0.359375 1.65625l0 0.125q0 0.953125 -0.359375 1.6874962q-0.359375 0.71875 -1.015625 1.140625q-0.65625 0.40625 -1.578125 0.40625zm0 -1.234375q0.46875 0 0.765625 -0.25q0.296875 -0.24999619 0.4375 -0.7031212q0.15625 -0.453125 0.15625 -1.046875l0 -0.125q0 -0.578125 -0.15625 -1.03125q-0.140625 -0.453125 -0.453125 -0.703125q-0.296875 -0.265625 -0.765625 -0.265625q-0.46875 0 -0.765625 0.265625q-0.296875 0.25 -0.453125 0.703125q-0.140625 0.453125 -0.140625 1.03125l0 0.125q0 0.59375 0.140625 1.046875q0.15625 0.453125 0.453125 0.7031212q0.3125 0.25 0.78125 0.25zm5.6484375 1.109375l-1.5 -5.234371l-0.765625 -0.140625l0 -0.96875l2.96875 0l0 0.96875l-0.6875 0.125l0.640625 2.609375l0.140625 0.546875l0.03125 0l0.1875 -0.546875l1.3125 -3.703125l1.109375 0l1.265625 3.75l0.1875 0.59375l0.03125 0l0.1875 -0.59375l0.734375 -2.65625l-0.75 -0.125l0 -0.96875l2.90625 0l0 0.96875l-0.734375 0.140625l-1.609375 5.234371l-1.375 0l-1.1875 -3.2812462l-0.234375 -0.765625l-0.03125 0l-0.21875 0.765625l-1.203125 3.2812462l-1.40625 0zm8.519531 0l0 -0.96875l0.84375 -0.171875l0 -4.062496l-0.90625 -0.171875l0 -0.96875l2.390625 0l0.078125 0.921875q0.3125 -0.484375 0.78125 -0.75q0.46875 -0.28125 1.078125 -0.28125q0.953125 0 1.484375 0.609375q0.546875 0.59375 0.546875 1.875l0 2.8281212l0.859375 0.171875l0 0.96875l-3.234375 0l0 -0.96875l0.78125 -0.171875l0 -2.8281212q0 -0.671875 -0.28125 -0.953125q-0.265625 -0.28125 -0.796875 -0.28125q-0.390625 0 -0.6875 0.171875q-0.296875 0.171875 -0.5 0.484375l0 3.4062462l0.75 0.171875l0 0.96875l-3.1875 0zm10.703125 0.125q-0.90625 0 -1.578125 -0.40625q-0.671875 -0.40625 -1.046875 -1.109375q-0.359375 -0.7031212 -0.359375 -1.6093712l0 -0.234375q0 -0.9375 0.34375 -1.65625q0.359375 -0.734375 1.0 -1.140625q0.640625 -0.421875 1.484375 -0.421875q0.859375 0 1.4375 0.34375q0.59375 0.34375 0.890625 0.984375q0.296875 0.625 0.296875 1.53125l0 0.875l-3.796875 0l-0.015625 0.046875q0.015625 0.453125 0.203125 0.8125q0.1875 0.3437462 0.515625 0.5468712q0.328125 0.203125 0.796875 0.203125q0.5 0 0.90625 -0.125q0.40625 -0.125 0.78125 -0.3749962l0.46875 0.9843712q-0.390625 0.3125 -0.984375 0.53125q-0.578125 0.21875 -1.34375 0.21875zm-1.3125 -3.9218712l2.28125 0l0 -0.15625q0 -0.390625 -0.125 -0.6875q-0.109375 -0.296875 -0.359375 -0.453125q-0.234375 -0.171875 -0.625 -0.171875q-0.34375 0 -0.609375 0.1875q-0.25 0.1875 -0.390625 0.515625q-0.140625 0.328125 -0.1875 0.734375l0.015625 0.03125zm4.6992188 3.7968712l0 -0.96875l0.84375 -0.171875l0 -4.062496l-0.90625 -0.171875l0 -0.96875l2.390625 0l0.0625 0.796875l0.015625 0.125q0.234375 -0.5 0.59375 -0.765625q0.359375 -0.265625 0.84375 -0.265625q0.15625 0 0.34375 0.03125q0.1875 0.015625 0.3125 0.0625l-0.171875 1.46875l-0.84375 -0.046875q-0.375 -0.015625 -0.625 0.140625q-0.25 0.15625 -0.421875 0.453125l0 3.2031212l0.859375 0.171875l0 0.96875l-3.296875 0z" fill-rule="nonzero"/><path fill="#000000" fill-opacity="0.0" d="m268.06763 22.83541l31.811035 0l0 54.330704l-31.811035 0z" fill-rule="evenodd"/><path fill="#000000" d="m295.25742 52.249516l-22.765625 9.734375l0 -4.203125l18.03125 -7.46875l-18.03125 -7.40625l0 -4.203125l22.765625 9.609375l0 3.9375z" fill-rule="nonzero"/><path fill="#000000" fill-opacity="0.0" d="m211.21365 31.601475l53.51181 0l0 36.787403l-53.51181 0z" fill-rule="evenodd"/><path fill="#999999" d="m229.37965 47.115177l0 -0.78125q-0.59375 0.921875 -1.734375 0.921875q-0.74998474 0 -1.3749847 -0.40625q-0.625 -0.421875 -0.96875 -1.15625q-0.34375 -0.734375 -0.34375 -1.6875q0 -0.921875 0.3125 -1.6875q0.3125 -0.765625 0.9375 -1.15625q0.625 -0.40625 1.3906097 -0.40625q0.5625 0 1.0 0.234375q0.4375 0.234375 0.71875 0.609375l0 -3.078125l1.046875 0l0 8.59375l-0.984375 0zm-3.3281097 -3.109375q0 1.203125 0.5 1.796875q0.5 0.578125 1.1874847 0.578125q0.6875 0 1.171875 -0.5625q0.484375 -0.5625 0.484375 -1.71875q0 -1.28125 -0.5 -1.875q-0.484375 -0.59375 -1.203125 -0.59375q-0.70310974 0 -1.1718597 0.578125q-0.46875 0.5625 -0.46875 1.796875zm10.033188 2.34375q-0.59375 0.5 -1.140625 0.703125q-0.53125 0.203125 -1.15625 0.203125q-1.03125 0 -1.578125 -0.5q-0.546875 -0.5 -0.546875 -1.28125q0 -0.453125 0.203125 -0.828125q0.203125 -0.390625 0.546875 -0.609375q0.34375 -0.234375 0.765625 -0.34375q0.296875 -0.09375 0.9375 -0.171875q1.265625 -0.140625 1.875 -0.359375q0 -0.21875 0 -0.265625q0 -0.65625 -0.296875 -0.921875q-0.40625 -0.34375 -1.203125 -0.34375q-0.734375 0 -1.09375 0.265625q-0.359375 0.25 -0.53125 0.90625l-1.03125 -0.140625q0.140625 -0.65625 0.46875 -1.0625q0.328125 -0.40625 0.9375 -0.625q0.609375 -0.21875 1.40625 -0.21875q0.796875 0 1.296875 0.1875q0.5 0.1875 0.734375 0.46875q0.234375 0.28125 0.328125 0.71875q0.046875 0.265625 0.046875 0.96875l0 1.40625q0 1.46875 0.0625 1.859375q0.078125 0.390625 0.28125 0.75l-1.109375 0q-0.15625 -0.328125 -0.203125 -0.765625zm-0.09375 -2.359375q-0.578125 0.234375 -1.71875 0.40625q-0.65625 0.09375 -0.921875 0.21875q-0.265625 0.109375 -0.421875 0.328125q-0.140625 0.21875 -0.140625 0.5q0 0.421875 0.3125 0.703125q0.328125 0.28125 0.9375 0.28125q0.609375 0 1.078125 -0.265625q0.484375 -0.265625 0.703125 -0.734375q0.171875 -0.359375 0.171875 -1.046875l0 -0.390625zm2.6582031 5.515625l-0.125 -0.984375q0.34375 0.09375 0.609375 0.09375q0.34375 0 0.546875 -0.125q0.21875 -0.109375 0.359375 -0.3125q0.09375 -0.171875 0.328125 -0.796875q0.015625 -0.078125 0.09375 -0.25l-2.375 -6.234375l1.140625 0l1.296875 3.59375q0.25 0.6875 0.453125 1.453125q0.1875 -0.734375 0.4375 -1.421875l1.328125 -3.625l1.046875 0l-2.359375 6.328125q-0.390625 1.015625 -0.59375 1.40625q-0.28125 0.53125 -0.65625 0.765625q-0.359375 0.25 -0.859375 0.25q-0.296875 0 -0.671875 -0.140625zm5.625 -4.25l1.03125 -0.15625q0.09375 0.625 0.484375 0.953125q0.40625 0.328125 1.140625 0.328125q0.71875 0 1.0625 -0.28125q0.359375 -0.296875 0.359375 -0.703125q0 -0.359375 -0.3125 -0.5625q-0.21875 -0.140625 -1.078125 -0.359375q-1.15625 -0.296875 -1.609375 -0.5q-0.4375 -0.21875 -0.671875 -0.59375q-0.234375 -0.375 -0.234375 -0.84375q0 -0.40625 0.1875 -0.765625q0.1875 -0.359375 0.515625 -0.59375q0.25 -0.171875 0.671875 -0.296875q0.421875 -0.125 0.921875 -0.125q0.71875 0 1.265625 0.21875q0.5625 0.203125 0.828125 0.5625q0.265625 0.359375 0.359375 0.953125l-1.03125 0.140625q-0.0625 -0.46875 -0.40625 -0.734375q-0.328125 -0.28125 -0.953125 -0.28125q-0.71875 0 -1.03125 0.25q-0.3125 0.234375 -0.3125 0.5625q0 0.203125 0.125 0.359375q0.140625 0.171875 0.40625 0.28125q0.15625 0.0625 0.9375 0.265625q1.125 0.3125 1.5625 0.5q0.4375 0.1875 0.6875 0.546875q0.25 0.359375 0.25 0.90625q0 0.53125 -0.3125 1.0q-0.296875 0.453125 -0.875 0.71875q-0.578125 0.25 -1.3125 0.25q-1.21875 0 -1.859375 -0.5q-0.625 -0.515625 -0.796875 -1.5z" fill-rule="nonzero"/><path fill="#999999" d="m219.12479 54.12455l0.25 -1.203125l1.0625 0l-0.265625 1.203125l-1.046875 0zm-1.546875 7.390625l1.296875 -6.21875l1.0625 0l-1.296875 6.21875l-1.0625 0zm2.7128906 0l1.296875 -6.21875l0.953125 0l-0.21875 1.078125q0.625 -0.640625 1.171875 -0.921875q0.546875 -0.296875 1.109375 -0.296875q0.75 0 1.171875 0.40625q0.4375 0.40625 0.4375 1.09375q0 0.34375 -0.140625 1.09375l-0.796875 3.765625l-1.0625 0l0.828125 -3.9375q0.125 -0.578125 0.125 -0.859375q0 -0.3125 -0.21875 -0.5q-0.203125 -0.1875 -0.609375 -0.1875q-0.8125 0 -1.453125 0.59375q-0.640625 0.578125 -0.9375 2.0l-0.609375 2.890625l-1.046875 0zm14.289047 -2.265625l1.0625 0.109375q-0.390625 1.171875 -1.125 1.734375q-0.734375 0.5625 -1.671875 0.5625q-1.015625 0 -1.65625 -0.65625q-0.625 -0.65625 -0.625 -1.828125q0 -1.03125 0.40625 -2.015625q0.40625 -0.984375 1.15625 -1.484375q0.75 -0.515625 1.71875 -0.515625q1.0 0 1.578125 0.5625q0.59375 0.5625 0.59375 1.5l-1.03125 0.0625q-0.015625 -0.59375 -0.359375 -0.921875q-0.328125 -0.328125 -0.875 -0.328125q-0.640625 0 -1.109375 0.40625q-0.46875 0.390625 -0.734375 1.21875q-0.265625 0.828125 -0.265625 1.578125q0 0.796875 0.34375 1.203125q0.359375 0.390625 0.875 0.390625q0.515625 0 0.984375 -0.390625q0.46875 -0.390625 0.734375 -1.1875zm1.3125 4.671875l0.0625 -1.0q0.328125 0.09375 0.640625 0.09375q0.328125 0 0.515625 -0.140625q0.265625 -0.203125 0.5625 -0.734375l0.34375 -0.609375l-1.03125 -6.234375l1.046875 0l0.46875 3.140625q0.140625 0.9375 0.234375 1.859375l2.78125 -5.0l1.109375 0l-3.96875 7.046875q-0.578125 1.03125 -1.03125 1.359375q-0.4375 0.34375 -1.015625 0.34375q-0.359375 0 -0.71875 -0.125zm10.6875 -4.671875l1.0625 0.109375q-0.390625 1.171875 -1.125 1.734375q-0.734375 0.5625 -1.671875 0.5625q-1.015625 0 -1.65625 -0.65625q-0.625 -0.65625 -0.625 -1.828125q0 -1.03125 0.40625 -2.015625q0.40625 -0.984375 1.15625 -1.484375q0.75 -0.515625 1.71875 -0.515625q1.0 0 1.578125 0.5625q0.59375 0.5625 0.59375 1.5l-1.03125 0.0625q-0.015625 -0.59375 -0.359375 -0.921875q-0.328125 -0.328125 -0.875 -0.328125q-0.640625 0 -1.109375 0.40625q-0.46875 0.390625 -0.734375 1.21875q-0.265625 0.828125 -0.265625 1.578125q0 0.796875 0.34375 1.203125q0.359375 0.390625 0.875 0.390625q0.515625 0 0.984375 -0.390625q0.46875 -0.390625 0.734375 -1.1875zm1.625 2.265625l1.796875 -8.59375l1.0625 0l-1.796875 8.59375l-1.0625 0zm7.3222656 -2.109375l1.0312653 0.09375q-0.21875 0.765625 -1.0312653 1.46875q-0.796875 0.6875 -1.890625 0.6875q-0.703125 0 -1.28125 -0.3125q-0.578125 -0.328125 -0.875 -0.9375q-0.296875 -0.609375 -0.296875 -1.390625q0 -1.015625 0.46875 -1.96875q0.46875 -0.96875 1.21875 -1.421875q0.75 -0.46875 1.625 -0.46875q1.109375 0 1.7656403 0.6875q0.671875 0.6875 0.671875 1.890625q0 0.453125 -0.078125 0.9375l-4.5781403 0q-0.03125 0.171875 -0.03125 0.328125q0 0.875 0.40625 1.328125q0.40625 0.453125 0.984375 0.453125q0.546875 0 1.0625 -0.34375q0.53125 -0.359375 0.828125 -1.03125zm-3.078125 -1.546875l3.484375 0q0.015625 -0.171875 0.015625 -0.234375q0 -0.796875 -0.40625 -1.21875q-0.390625 -0.421875 -1.015625 -0.421875q-0.6875 0 -1.25 0.46875q-0.5625 0.46875 -0.828125 1.40625z" fill-rule="nonzero"/><path fill="#000000" fill-opacity="0.0" d="m189.23561 22.83541l34.48819 0l0 54.330704l-34.48819 0z" fill-rule="evenodd"/><path fill="#b7b7b7" d="m199.36989 57.680767l5.90625 -7.953125l-5.203125 -7.3125l2.40625 0l2.765625 3.921875q0.859375 1.203125 1.234375 1.859375q0.5 -0.828125 1.203125 -1.734375l3.0625 -4.046875l2.203125 0l-5.359375 7.1875l5.78125 8.078125l-2.5 0l-3.84375 -5.453125q-0.328125 -0.46875 -0.671875 -1.015625q-0.5 0.828125 -0.71875 1.140625l-3.84375 5.328125l-2.421875 0z" fill-rule="nonzero"/><path fill="#000000" fill-opacity="0.0" d="m120.13102 51.020996l78.04725 0l0 30.425201l-78.04725 0z" fill-rule="evenodd"/><path fill="#999999" d="m127.13435 63.353596l0 -6.21875l0.953125 0l0 0.9375q0.359375 -0.65625 0.65625 -0.859375q0.3125 -0.21875 0.6875 -0.21875q0.53125 0 1.078125 0.328125l-0.359375 0.984375q-0.390625 -0.234375 -0.765625 -0.234375q-0.359375 0 -0.640625 0.21875q-0.265625 0.203125 -0.375 0.578125q-0.1875 0.5625 -0.1875 1.21875l0 3.265625l-1.046875 0zm8.261719 -2.0l1.09375 0.125q-0.25 0.953125 -0.953125 1.484375q-0.703125 0.53125 -1.78125 0.53125q-1.359375 0 -2.171875 -0.84375q-0.796875 -0.84375 -0.796875 -2.359375q0 -1.5625 0.8125 -2.421875q0.8125 -0.875 2.09375 -0.875q1.25 0 2.03125 0.84375q0.796875 0.84375 0.796875 2.390625q0 0.09375 0 0.28125l-4.640625 0q0.0625 1.03125 0.578125 1.578125q0.515625 0.53125 1.296875 0.53125q0.578125 0 0.984375 -0.296875q0.421875 -0.3125 0.65625 -0.96875zm-3.453125 -1.703125l3.46875 0q-0.0625 -0.796875 -0.390625 -1.1875q-0.515625 -0.609375 -1.3125 -0.609375q-0.734375 0 -1.234375 0.484375q-0.484375 0.484375 -0.53125 1.3125zm9.939453 1.421875l1.03125 0.140625q-0.171875 1.0625 -0.875 1.671875q-0.703125 0.609375 -1.71875 0.609375q-1.28125 0 -2.0625 -0.828125q-0.765625 -0.84375 -0.765625 -2.40625q0 -1.0 0.328125 -1.75q0.34375 -0.765625 1.015625 -1.140625q0.6875 -0.375 1.5 -0.375q1.0 0 1.640625 0.515625q0.65625 0.5 0.84375 1.453125l-1.03125 0.15625q-0.140625 -0.625 -0.515625 -0.9375q-0.375 -0.328125 -0.90625 -0.328125q-0.796875 0 -1.296875 0.578125q-0.5 0.5625 -0.5 1.796875q0 1.265625 0.484375 1.828125q0.484375 0.5625 1.25 0.5625q0.625 0 1.03125 -0.375q0.421875 -0.375 0.546875 -1.171875zm1.546875 -0.828125q0 -1.734375 0.953125 -2.5625q0.796875 -0.6875 1.953125 -0.6875q1.28125 0 2.09375 0.84375q0.828125 0.828125 0.828125 2.3125q0 1.203125 -0.359375 1.890625q-0.359375 0.6875 -1.0625 1.078125q-0.6875 0.375 -1.5 0.375q-1.296875 0 -2.109375 -0.828125q-0.796875 -0.84375 -0.796875 -2.421875zm1.078125 0q0 1.1875 0.515625 1.78125q0.53125 0.59375 1.3125 0.59375q0.796875 0 1.3125 -0.59375q0.515625 -0.59375 0.515625 -1.8125q0 -1.15625 -0.53125 -1.75q-0.515625 -0.59375 -1.296875 -0.59375q-0.78125 0 -1.3125 0.59375q-0.515625 0.578125 -0.515625 1.78125zm5.783203 3.625l1.03125 0.15625381q0.0625 0.46875 0.359375 0.6875q0.390625 0.296875 1.0625 0.296875q0.734375 0 1.125 -0.296875q0.40625 -0.296875 0.546875 -0.8125038q0.09375 -0.328125 0.078125 -1.359375q-0.6875 0.8125 -1.71875 0.8125q-1.28125 0 -1.984375 -0.921875q-0.703125 -0.9375 -0.703125 -2.21875q0 -0.890625 0.3125 -1.640625q0.328125 -0.765625 0.9375 -1.171875q0.609375 -0.40625 1.4375 -0.40625q1.109375 0 1.828125 0.890625l0 -0.75l0.96875 0l0 5.375q0 1.453125 -0.296875 2.0625038q-0.296875 0.609375 -0.9375 0.953125q-0.640625 0.359375 -1.578125 0.359375q-1.109375 0 -1.796875 -0.5q-0.6875 -0.5 -0.671875 -1.5156288zm0.875 -3.734375q0 1.21875 0.484375 1.78125q0.484375 0.5625 1.21875 0.5625q0.734375 0 1.21875 -0.5625q0.5 -0.5625 0.5 -1.75q0 -1.140625 -0.515625 -1.71875q-0.5 -0.578125 -1.21875 -0.578125q-0.703125 0 -1.203125 0.578125q-0.484375 0.5625 -0.484375 1.6875zm6.001953 3.21875l0 -6.21875l0.9375 0l0 0.875q0.6875 -1.015625 1.984375 -1.015625q0.5625 0 1.03125 0.203125q0.484375 0.203125 0.71875 0.53125q0.234375 0.328125 0.328125 0.765625q0.046875 0.296875 0.046875 1.03125l0 3.828125l-1.046875 0l0 -3.78125q0 -0.65625 -0.125 -0.96875q-0.125 -0.3125 -0.4375 -0.5q-0.3125 -0.203125 -0.734375 -0.203125q-0.671875 0 -1.171875 0.4375q-0.484375 0.421875 -0.484375 1.609375l0 3.40625l-1.046875 0zm6.673828 -7.375l0 -1.21875l1.0625 0l0 1.21875l-1.0625 0zm0 7.375l0 -6.21875l1.0625 0l0 6.21875l-1.0625 0zm4.9628906 -0.9375l0.15625 0.921875q-0.453125 0.09375 -0.796875 0.09375q-0.578125 0 -0.890625 -0.171875q-0.3125 -0.1875 -0.453125 -0.484375q-0.125 -0.296875 -0.125 -1.25l0 -3.578125l-0.765625 0l0 -0.8125l0.765625 0l0 -1.546875l1.046875 -0.625l0 2.171875l1.0625 0l0 0.8125l-1.0625 0l0 3.640625q0 0.453125 0.046875 0.578125q0.0625 0.125 0.1875 0.203125q0.125 0.078125 0.359375 0.078125q0.1875 0 0.46875 -0.03125zm1.0371094 -6.4375l0 -1.21875l1.0625 0l0 1.21875l-1.0625 0zm0 7.375l0 -6.21875l1.0625 0l0 6.21875l-1.0625 0zm2.2753906 -3.109375q0 -1.734375 0.953125 -2.5625q0.796875 -0.6875 1.953125 -0.6875q1.28125 0 2.09375 0.84375q0.828125 0.828125 0.828125 2.3125q0 1.203125 -0.359375 1.890625q-0.359375 0.6875 -1.0625 1.078125q-0.6875 0.375 -1.5 0.375q-1.296875 0 -2.109375 -0.828125q-0.796875 -0.84375 -0.796875 -2.421875zm1.078125 0q0 1.1875 0.515625 1.78125q0.53125 0.59375 1.3125 0.59375q0.796875 0 1.3125 -0.59375q0.515625 -0.59375 0.515625 -1.8125q0 -1.15625 -0.53125 -1.75q-0.515625 -0.59375 -1.296875 -0.59375q-0.78125 0 -1.3125 0.59375q-0.515625 0.578125 -0.515625 1.78125zm5.986328 3.109375l0 -6.21875l0.9375 0l0 0.875q0.6875 -1.015625 1.984375 -1.015625q0.5625 0 1.03125 0.203125q0.484375 0.203125 0.71875 0.53125q0.234375 0.328125 0.328125 0.765625q0.046875 0.296875 0.046875 1.03125l0 3.828125l-1.046875 0l0 -3.78125q0 -0.65625 -0.125 -0.96875q-0.125 -0.3125 -0.4375 -0.5q-0.3125 -0.203125 -0.734375 -0.203125q-0.671875 0 -1.171875 0.4375q-0.484375 0.421875 -0.484375 1.609375l0 3.40625l-1.046875 0zm6.251953 -1.859375l1.03125 -0.15625q0.09375 0.625 0.484375 0.953125q0.40625 0.328125 1.140625 0.328125q0.71875 0 1.0625 -0.28125q0.359375 -0.296875 0.359375 -0.703125q0 -0.359375 -0.3125 -0.5625q-0.21875 -0.140625 -1.078125 -0.359375q-1.15625 -0.296875 -1.609375 -0.5q-0.4375 -0.21875 -0.671875 -0.59375q-0.234375 -0.375 -0.234375 -0.84375q0 -0.40625 0.1875 -0.765625q0.1875 -0.359375 0.515625 -0.59375q0.25 -0.171875 0.671875 -0.296875q0.421875 -0.125 0.921875 -0.125q0.71875 0 1.265625 0.21875q0.5625 0.203125 0.828125 0.5625q0.265625 0.359375 0.359375 0.953125l-1.03125 0.140625q-0.0625 -0.46875 -0.40625 -0.734375q-0.328125 -0.28125 -0.953125 -0.28125q-0.71875 0 -1.03125 0.25q-0.3125 0.234375 -0.3125 0.5625q0 0.203125 0.125 0.359375q0.140625 0.171875 0.40625 0.28125q0.15625 0.0625 0.9375 0.265625q1.125 0.3125 1.5625 0.5q0.4375 0.1875 0.6875 0.546875q0.25 0.359375 0.25 0.90625q0 0.53125 -0.3125 1.0q-0.296875 0.453125 -0.875 0.71875q-0.578125 0.25 -1.3125 0.25q-1.21875 0 -1.859375 -0.5q-0.625 -0.515625 -0.796875 -1.5z" fill-rule="nonzero"/><path fill="#999999" d="m134.8406 76.89422l-0.171875 0.859375q-0.375 0.109375 -0.734375 0.109375q-0.640625 0 -1.015625 -0.3125q-0.28125 -0.234375 -0.28125 -0.640625q0 -0.203125 0.15625 -0.9375l0.75 -3.625l-0.828125 0l0.171875 -0.8125l0.828125 0l0.328125 -1.53125l1.203125 -0.734375l-0.46875 2.265625l1.046875 0l-0.171875 0.8125l-1.046875 0l-0.71875 3.4375q-0.140625 0.65625 -0.140625 0.796875q0 0.1875 0.109375 0.28125q0.109375 0.09375 0.359375 0.09375q0.359375 0 0.625 -0.0625zm1.0527344 -1.5q0 -1.828125 1.0625 -3.015625q0.890625 -0.984375 2.328125 -0.984375q1.125 0 1.8125 0.703125q0.6875 0.703125 0.6875 1.890625q0 1.078125 -0.4375 2.0q-0.4375 0.921875 -1.234375 1.421875q-0.796875 0.484375 -1.6875 0.484375q-0.71875 0 -1.3125 -0.3125q-0.59375 -0.3125 -0.90625 -0.875q-0.3125 -0.578125 -0.3125 -1.3125zm1.046875 -0.109375q0 0.875 0.421875 1.328125q0.421875 0.453125 1.078125 0.453125q0.34375 0 0.671875 -0.125q0.34375 -0.140625 0.625 -0.421875q0.28125 -0.28125 0.484375 -0.640625q0.203125 -0.359375 0.328125 -0.78125q0.1875 -0.578125 0.1875 -1.109375q0 -0.84375 -0.4375 -1.3125q-0.421875 -0.46875 -1.0625 -0.46875q-0.5 0 -0.90625 0.25q-0.40625 0.234375 -0.75 0.6875q-0.328125 0.453125 -0.484375 1.0625q-0.15625 0.609375 -0.15625 1.078125zm7.908203 1.609375l-0.171875 0.859375q-0.375 0.109375 -0.734375 0.109375q-0.640625 0 -1.015625 -0.3125q-0.28125 -0.234375 -0.28125 -0.640625q0 -0.203125 0.15625 -0.9375l0.75 -3.625l-0.828125 0l0.171875 -0.8125l0.828125 0l0.328125 -1.53125l1.203125 -0.734375l-0.46875 2.265625l1.046875 0l-0.171875 0.8125l-1.046875 0l-0.71875 3.4375q-0.140625 0.65625 -0.140625 0.796875q0 0.1875 0.109375 0.28125q0.109375 0.09375 0.359375 0.09375q0.359375 0 0.625 -0.0625zm5.0527344 0.078125q-0.546875 0.484375 -1.0625 0.703125q-0.5 0.21875 -1.09375 0.21875q-0.859375 0 -1.390625 -0.5q-0.515625 -0.515625 -0.515625 -1.3125q0 -0.515625 0.234375 -0.90625q0.234375 -0.40625 0.625 -0.640625q0.390625 -0.25 0.96875 -0.359375q0.359375 -0.078125 1.359375 -0.109375q1.0 -0.046875 1.421875 -0.21875q0.125 -0.4375 0.125 -0.71875q0 -0.375 -0.265625 -0.578125q-0.375 -0.296875 -1.078125 -0.296875q-0.671875 0 -1.09375 0.296875q-0.421875 0.296875 -0.625 0.84375l-1.0625 -0.09375q0.328125 -0.921875 1.03125 -1.40625q0.71875 -0.5 1.796875 -0.5q1.15625 0 1.828125 0.546875q0.515625 0.40625 0.515625 1.0625q0 0.5 -0.140625 1.15625l-0.34375 1.546875q-0.171875 0.734375 -0.171875 1.203125q0 0.296875 0.140625 0.84375l-1.078125 0q-0.09375 -0.3125 -0.125 -0.78125zm0.390625 -2.375q-0.21875 0.09375 -0.484375 0.140625q-0.25 0.046875 -0.84375 0.09375q-0.921875 0.078125 -1.3125 0.21875q-0.375 0.125 -0.578125 0.40625q-0.1875 0.265625 -0.1875 0.59375q0 0.453125 0.3125 0.734375q0.3125 0.28125 0.875 0.28125q0.53125 0 1.015625 -0.265625q0.484375 -0.28125 0.765625 -0.78125q0.28125 -0.5 0.4375 -1.421875zm2.0019531 3.15625l1.796875 -8.59375l1.0625 0l-1.796875 8.59375l-1.0625 0zm6.03125 0.5625l1.0625 0.09375q0 0.375 0.09375 0.546875q0.09375 0.1875 0.3125 0.28125q0.296875 0.140625 0.75 0.140625q0.953125 0 1.375 -0.5q0.28125 -0.34375 0.515625 -1.453125l0.109375 -0.515625q-0.828125 0.84375 -1.765625 0.84375q-0.9375 0 -1.578125 -0.6875q-0.625 -0.703125 -0.625 -1.96875q0 -1.046875 0.5 -1.921875q0.5 -0.890625 1.1875 -1.328125q0.6875 -0.453125 1.421875 -0.453125q1.21875 0 1.890625 1.15625l0.203125 -1.015625l0.984375 0l-1.265625 6.0q-0.203125 1.0 -0.546875 1.546875q-0.328125 0.546875 -0.921875 0.84375q-0.59375 0.3125 -1.375 0.3125q-0.75 0 -1.296875 -0.1875q-0.53125 -0.1875 -0.796875 -0.5625q-0.265625 -0.375 -0.265625 -0.859375q0 -0.140625 0.03125 -0.3125zm1.328125 -3.3125q0 0.640625 0.109375 0.953125q0.1875 0.453125 0.5 0.6875q0.328125 0.234375 0.734375 0.234375q0.515625 0 1.03125 -0.359375q0.515625 -0.359375 0.828125 -1.125q0.328125 -0.78125 0.328125 -1.46875q0 -0.765625 -0.421875 -1.21875q-0.421875 -0.46875 -1.046875 -0.46875q-0.390625 0 -0.765625 0.21875q-0.359375 0.203125 -0.671875 0.625q-0.3125 0.421875 -0.46875 1.015625q-0.15625 0.59375 -0.15625 0.90625zm6.908203 -4.640625l0.25 -1.203125l1.0625 0l-0.265625 1.203125l-1.046875 0zm-1.546875 7.390625l1.296875 -6.21875l1.0625 0l-1.296875 6.21875l-1.0625 0zm4.2753906 0l-1.015625 -6.21875l1.03125 0l0.53125 3.421875q0.09375 0.5625 0.21875 1.828125q0.296875 -0.65625 0.78125 -1.515625l2.078125 -3.734375l1.109375 0l-3.5625 6.21875l-1.171875 0zm9.0 -2.109375l1.03125 0.09375q-0.21875 0.765625 -1.03125 1.46875q-0.796875 0.6875 -1.890625 0.6875q-0.703125 0 -1.28125 -0.3125q-0.578125 -0.328125 -0.875 -0.9375q-0.296875 -0.609375 -0.296875 -1.390625q0 -1.015625 0.46875 -1.96875q0.46875 -0.96875 1.21875 -1.421875q0.75 -0.46875 1.625 -0.46875q1.109375 0 1.765625 0.6875q0.671875 0.6875 0.671875 1.890625q0 0.453125 -0.078125 0.9375l-4.578125 0q-0.03125 0.171875 -0.03125 0.328125q0 0.875 0.40625 1.328125q0.40625 0.453125 0.984375 0.453125q0.546875 0 1.0625 -0.34375q0.53125 -0.359375 0.828125 -1.03125zm-3.078125 -1.546875l3.484375 0q0.015625 -0.171875 0.015625 -0.234375q0 -0.796875 -0.40625 -1.21875q-0.390625 -0.421875 -1.015625 -0.421875q-0.6875 0 -1.25 0.46875q-0.5625 0.46875 -0.828125 1.40625zm5.189453 3.65625l1.296875 -6.21875l0.953125 0l-0.21875 1.078125q0.625 -0.640625 1.171875 -0.921875q0.54689026 -0.296875 1.1093903 -0.296875q0.75 0 1.171875 0.40625q0.4375 0.40625 0.4375 1.09375q0 0.34375 -0.140625 1.09375l-0.796875 3.765625l-1.0625 0l0.828125 -3.9375q0.125 -0.578125 0.125 -0.859375q0 -0.3125 -0.21875 -0.5q-0.203125 -0.1875 -0.609375 -0.1875q-0.81251526 0 -1.4531403 0.59375q-0.640625 0.578125 -0.9375 2.0l-0.609375 2.890625l-1.046875 0z" fill-rule="nonzero"/><path fill="#000000" fill-opacity="0.0" d="m117.77826 18.553806l82.74016 0l0 30.425198l-82.74016 0z" fill-rule="evenodd"/><path fill="#999999" d="m127.739586 30.886404l0 -6.21875l0.9531174 0l0 0.9375q0.359375 -0.65625 0.65625 -0.859375q0.3125 -0.21875 0.6875 -0.21875q0.53125 0 1.078125 0.328125l-0.359375 0.984375q-0.390625 -0.234375 -0.765625 -0.234375q-0.359375 0 -0.640625 0.21875q-0.265625 0.203125 -0.375 0.578125q-0.1875 0.5625 -0.1875 1.21875l0 3.265625l-1.0468674 0zm8.261711 -2.0l1.09375 0.125q-0.25 0.953125 -0.953125 1.484375q-0.703125 0.53125 -1.78125 0.53125q-1.359375 0 -2.171875 -0.84375q-0.796875 -0.84375 -0.796875 -2.359375q0 -1.5625 0.8125 -2.421875q0.8125 -0.875 2.09375 -0.875q1.25 0 2.03125 0.84375q0.796875 0.84375 0.796875 2.390625q0 0.09375 0 0.28125l-4.640625 0q0.0625 1.03125 0.578125 1.578125q0.515625 0.53125 1.296875 0.53125q0.578125 0 0.984375 -0.296875q0.421875 -0.3125 0.65625 -0.96875zm-3.453125 -1.703125l3.46875 0q-0.0625 -0.796875 -0.390625 -1.1875q-0.515625 -0.609375 -1.3125 -0.609375q-0.734375 0 -1.234375 0.484375q-0.484375 0.484375 -0.53125 1.3125zm9.939453 1.421875l1.03125 0.140625q-0.171875 1.0625 -0.875 1.671875q-0.703125 0.609375 -1.71875 0.609375q-1.28125 0 -2.0625 -0.828125q-0.765625 -0.84375 -0.765625 -2.40625q0 -1.0 0.328125 -1.75q0.34375 -0.765625 1.015625 -1.140625q0.6875 -0.375 1.5 -0.375q1.0 0 1.640625 0.515625q0.65625 0.5 0.84375 1.453125l-1.03125 0.15625q-0.140625 -0.625 -0.515625 -0.9375q-0.375 -0.328125 -0.90625 -0.328125q-0.796875 0 -1.296875 0.578125q-0.5 0.5625 -0.5 1.796875q0 1.265625 0.484375 1.828125q0.484375 0.5625 1.25 0.5625q0.625 0 1.03125 -0.375q0.421875 -0.375 0.546875 -1.171875zm1.546875 -0.828125q0 -1.734375 0.953125 -2.5625q0.796875 -0.6875 1.953125 -0.6875q1.28125 0 2.09375 0.84375q0.828125 0.828125 0.828125 2.3125q0 1.203125 -0.359375 1.890625q-0.359375 0.6875 -1.0625 1.078125q-0.6875 0.375 -1.5 0.375q-1.296875 0 -2.109375 -0.828125q-0.796875 -0.84375 -0.796875 -2.421875zm1.078125 0q0 1.1875 0.515625 1.78125q0.53125 0.59375 1.3125 0.59375q0.796875 0 1.3125 -0.59375q0.515625 -0.59375 0.515625 -1.8125q0 -1.15625 -0.53125 -1.75q-0.515625 -0.59375 -1.296875 -0.59375q-0.78125 0 -1.3125 0.59375q-0.515625 0.578125 -0.515625 1.78125zm5.783203 3.625l1.03125 0.15625q0.0625 0.4687519 0.359375 0.6875019q0.390625 0.296875 1.0625 0.296875q0.734375 0 1.125 -0.296875q0.40625 -0.2968769 0.546875 -0.8125019q0.09375 -0.328125 0.078125 -1.359375q-0.6875 0.8125 -1.71875 0.8125q-1.28125 0 -1.984375 -0.921875q-0.703125 -0.9375 -0.703125 -2.21875q0 -0.890625 0.3125 -1.640625q0.328125 -0.765625 0.9375 -1.171875q0.609375 -0.40625 1.4375 -0.40625q1.109375 0 1.828125 0.890625l0 -0.75l0.96875 0l0 5.375q0 1.453125 -0.296875 2.062502q-0.296875 0.609375 -0.9375 0.953125q-0.640625 0.359375 -1.578125 0.359375q-1.109375 0 -1.796875 -0.5q-0.6875 -0.5 -0.671875 -1.5156269zm0.875 -3.734375q0 1.21875 0.484375 1.78125q0.484375 0.5625 1.21875 0.5625q0.734375 0 1.21875 -0.5625q0.5 -0.5625 0.5 -1.75q0 -1.140625 -0.515625 -1.71875q-0.5 -0.578125 -1.21875 -0.578125q-0.703125 0 -1.203125 0.578125q-0.484375 0.5625 -0.484375 1.6875zm6.001953 3.21875l0 -6.21875l0.9375 0l0 0.875q0.6875 -1.015625 1.984375 -1.015625q0.5625 0 1.03125 0.203125q0.484375 0.203125 0.71875 0.53125q0.234375 0.328125 0.328125 0.765625q0.046875 0.296875 0.046875 1.03125l0 3.828125l-1.046875 0l0 -3.78125q0 -0.65625 -0.125 -0.96875q-0.125 -0.3125 -0.4375 -0.5q-0.3125 -0.203125 -0.734375 -0.203125q-0.671875 0 -1.171875 0.4375q-0.484375 0.421875 -0.484375 1.609375l0 3.40625l-1.046875 0zm6.673828 -7.375l0 -1.21875l1.0625 0l0 1.21875l-1.0625 0zm0 7.375l0 -6.21875l1.0625 0l0 6.21875l-1.0625 0zm4.9628906 -0.9375l0.15625 0.921875q-0.453125 0.09375 -0.796875 0.09375q-0.578125 0 -0.890625 -0.171875q-0.3125 -0.1875 -0.453125 -0.484375q-0.125 -0.296875 -0.125 -1.25l0 -3.578125l-0.765625 0l0 -0.8125l0.765625 0l0 -1.546875l1.046875 -0.625l0 2.171875l1.0625 0l0 0.8125l-1.0625 0l0 3.640625q0 0.453125 0.046875 0.578125q0.0625 0.125 0.1875 0.203125q0.125 0.078125 0.359375 0.078125q0.1875 0 0.46875 -0.03125zm1.0371094 -6.4375l0 -1.21875l1.0625 0l0 1.21875l-1.0625 0zm0 7.375l0 -6.21875l1.0625 0l0 6.21875l-1.0625 0zm2.2753906 -3.109375q0 -1.734375 0.953125 -2.5625q0.796875 -0.6875 1.953125 -0.6875q1.28125 0 2.09375 0.84375q0.828125 0.828125 0.828125 2.3125q0 1.203125 -0.359375 1.890625q-0.359375 0.6875 -1.0625 1.078125q-0.6875 0.375 -1.5 0.375q-1.296875 0 -2.109375 -0.828125q-0.796875 -0.84375 -0.796875 -2.421875zm1.078125 0q0 1.1875 0.515625 1.78125q0.53125 0.59375 1.3125 0.59375q0.796875 0 1.3125 -0.59375q0.515625 -0.59375 0.515625 -1.8125q0 -1.15625 -0.53125 -1.75q-0.515625 -0.59375 -1.296875 -0.59375q-0.78125 0 -1.3125 0.59375q-0.515625 0.578125 -0.515625 1.78125zm5.986328 3.109375l0 -6.21875l0.9375 0l0 0.875q0.6875 -1.015625 1.984375 -1.015625q0.5625 0 1.03125 0.203125q0.484375 0.203125 0.71875 0.53125q0.234375 0.328125 0.328125 0.765625q0.046875 0.296875 0.046875 1.03125l0 3.828125l-1.046875 0l0 -3.78125q0 -0.65625 -0.125 -0.96875q-0.125 -0.3125 -0.4375 -0.5q-0.3125 -0.203125 -0.734375 -0.203125q-0.671875 0 -1.171875 0.4375q-0.484375 0.421875 -0.484375 1.609375l0 3.40625l-1.046875 0zm6.251953 -1.859375l1.03125 -0.15625q0.09375 0.625 0.484375 0.953125q0.40625 0.328125 1.140625 0.328125q0.71875 0 1.0625 -0.28125q0.359375 -0.296875 0.359375 -0.703125q0 -0.359375 -0.3125 -0.5625q-0.21875 -0.140625 -1.078125 -0.359375q-1.15625 -0.296875 -1.609375 -0.5q-0.4375 -0.21875 -0.671875 -0.59375q-0.234375 -0.375 -0.234375 -0.84375q0 -0.40625 0.1875 -0.765625q0.1875 -0.359375 0.515625 -0.59375q0.25 -0.171875 0.671875 -0.296875q0.421875 -0.125 0.921875 -0.125q0.71875 0 1.265625 0.21875q0.5625 0.203125 0.828125 0.5625q0.265625 0.359375 0.359375 0.953125l-1.03125 0.140625q-0.0625 -0.46875 -0.40625 -0.734375q-0.328125 -0.28125 -0.953125 -0.28125q-0.71875 0 -1.03125 0.25q-0.3125 0.234375 -0.3125 0.5625q0 0.203125 0.125 0.359375q0.140625 0.171875 0.40625 0.28125q0.15625 0.0625 0.9375 0.265625q1.125 0.3125 1.5625 0.5q0.4375 0.1875 0.6875 0.546875q0.25 0.359375 0.25 0.90625q0 0.53125 -0.3125 1.0q-0.296875 0.453125 -0.875 0.71875q-0.578125 0.25 -1.3125 0.25q-1.21875 0 -1.859375 -0.5q-0.625 -0.515625 -0.796875 -1.5z" fill-rule="nonzero"/><path fill="#999999" d="m124.17025 47.67703l1.796875 -8.609375l0.984375 0l-0.1875 0.859375q0.546875 -0.5625 0.96875 -0.78125q0.43749237 -0.21875 0.9218674 -0.21875q0.890625 0 1.46875 0.65625q0.59375 0.640625 0.59375 1.84375q0 0.96875 -0.328125 1.765625q-0.3125 0.796875 -0.78125 1.296875q-0.46875 0.484375 -0.953125 0.71875q-0.484375 0.21875 -0.9843674 0.21875q-1.125 0 -1.734375 -1.140625l-0.703125 3.390625l-1.0625 0zm2.09375 -4.9375q0 0.703125 0.109375 0.96875q0.140625 0.375 0.46875 0.609375q0.34375 0.234375 0.78125 0.234375q0.9218674 0 1.4843674 -1.015625q0.5625 -1.03125 0.5625 -2.109375q0 -0.78125 -0.390625 -1.21875q-0.375 -0.4375 -0.9375 -0.4375q-0.40624237 0 -0.7499924 0.21875q-0.34375 0.21875 -0.640625 0.640625q-0.296875 0.421875 -0.5 1.046875q-0.1875 0.609375 -0.1875 1.0625zm9.6738205 0.4375l1.03125 0.09375q-0.21875 0.765625 -1.03125 1.46875q-0.796875 0.6875 -1.890625 0.6875q-0.703125 0 -1.28125 -0.3125q-0.578125 -0.328125 -0.875 -0.9375q-0.296875 -0.609375 -0.296875 -1.390625q0 -1.015625 0.46875 -1.96875q0.46875 -0.96875 1.21875 -1.421875q0.75 -0.46875 1.625 -0.46875q1.109375 0 1.765625 0.6875q0.671875 0.6875 0.671875 1.890625q0 0.453125 -0.078125 0.9375l-4.578125 0q-0.03125 0.171875 -0.03125 0.328125q0 0.875 0.40625 1.328125q0.40625 0.453125 0.984375 0.453125q0.546875 0 1.0625 -0.34375q0.53125 -0.359375 0.828125 -1.03125zm-3.078125 -1.546875l3.484375 0q0.015625 -0.171875 0.015625 -0.234375q0 -0.796875 -0.40625 -1.21875q-0.390625 -0.421875 -1.015625 -0.421875q-0.6875 0 -1.25 0.46875q-0.5625 0.46875 -0.828125 1.40625zm5.189453 3.65625l1.296875 -6.21875l0.9375 0l-0.265625 1.265625q0.484375 -0.71875 0.9375 -1.0625q0.46875 -0.34375 0.9375 -0.34375q0.328125 0 0.78125 0.21875l-0.4375 0.984375q-0.265625 -0.1875 -0.59375 -0.1875q-0.5625 0 -1.15625 0.625q-0.578125 0.609375 -0.90625 2.21875l-0.53125 2.5l-1.0 0zm11.611328 -2.265625l1.0625 0.109375q-0.390625 1.171875 -1.125 1.734375q-0.734375 0.5625 -1.671875 0.5625q-1.015625 0 -1.65625 -0.65625q-0.625 -0.65625 -0.625 -1.828125q0 -1.03125 0.40625 -2.015625q0.40625 -0.984375 1.15625 -1.484375q0.75 -0.515625 1.71875 -0.515625q1.0 0 1.578125 0.5625q0.59375 0.5625 0.59375 1.5l-1.03125 0.0625q-0.015625 -0.59375 -0.359375 -0.921875q-0.328125 -0.328125 -0.875 -0.328125q-0.640625 0 -1.109375 0.40625q-0.46875 0.390625 -0.734375 1.21875q-0.265625 0.828125 -0.265625 1.578125q0 0.796875 0.34375 1.203125q0.359375 0.390625 0.875 0.390625q0.515625 0 0.984375 -0.390625q0.46875 -0.390625 0.734375 -1.1875zm1.90625 -0.09375q0 -1.828125 1.0625 -3.015625q0.890625 -0.984375 2.328125 -0.984375q1.125 0 1.8125 0.703125q0.6875 0.703125 0.6875 1.890625q0 1.078125 -0.4375 2.0q-0.4375 0.921875 -1.234375 1.421875q-0.796875 0.484375 -1.6875 0.484375q-0.71875 0 -1.3125 -0.3125q-0.59375 -0.3125 -0.90625 -0.875q-0.3125 -0.578125 -0.3125 -1.3125zm1.046875 -0.109375q0 0.875 0.421875 1.328125q0.421875 0.453125 1.078125 0.453125q0.34375 0 0.671875 -0.125q0.34375 -0.140625 0.625 -0.421875q0.28125 -0.28125 0.484375 -0.640625q0.203125 -0.359375 0.328125 -0.78125q0.1875 -0.578125 0.1875 -1.109375q0 -0.84375 -0.4375 -1.3125q-0.421875 -0.46875 -1.0625 -0.46875q-0.5 0 -0.90625 0.25q-0.40625 0.234375 -0.75 0.6875q-0.328125 0.453125 -0.484375 1.0625q-0.15625 0.609375 -0.15625 1.078125zm5.595703 -0.109375l0.21875 -1.0625l3.234375 0l-0.21875 1.0625l-3.234375 0zm4.0273438 0.21875q0 -1.828125 1.0625 -3.015625q0.890625 -0.984375 2.328125 -0.984375q1.125 0 1.8125 0.703125q0.6875 0.703125 0.6875 1.890625q0 1.078125 -0.4375 2.0q-0.4375 0.921875 -1.234375 1.421875q-0.796875 0.484375 -1.6875 0.484375q-0.71875 0 -1.3125 -0.3125q-0.59375 -0.3125 -0.90625 -0.875q-0.3125 -0.578125 -0.3125 -1.3125zm1.046875 -0.109375q0 0.875 0.421875 1.328125q0.421875 0.453125 1.078125 0.453125q0.34375 0 0.671875 -0.125q0.34375 -0.140625 0.625 -0.421875q0.28125 -0.28125 0.484375 -0.640625q0.203125 -0.359375 0.328125 -0.78125q0.1875 -0.578125 0.1875 -1.109375q0 -0.84375 -0.4375 -1.3125q-0.421875 -0.46875 -1.0625 -0.46875q-0.5 0 -0.90625 0.25q-0.40625 0.234375 -0.75 0.6875q-0.328125 0.453125 -0.484375 1.0625q-0.15625 0.609375 -0.15625 1.078125zm6.611328 2.46875l-0.640625 -6.21875l1.015625 0l0.28125 2.796875l0.109375 1.5625q0.015625 0.171875 0.03125 0.703125q0.1875 -0.59375 0.296875 -0.90625q0.125 -0.328125 0.40625 -0.921875l1.46875 -3.234375l1.15625 0l0.203125 3.109375q0.046875 0.703125 0.0625 1.890625q0.296875 -0.78125 0.953125 -2.1875l1.34375 -2.8125l1.0625 0l-3.046875 6.21875l-1.09375 0l-0.234375 -3.65625q-0.03125 -0.328125 -0.046875 -1.3125q-0.234375 0.625 -0.5625 1.34375l-1.640625 3.625l-1.125 0zm7.4941406 0l1.296875 -6.21875l0.953125 0l-0.21875 1.078125q0.625 -0.640625 1.171875 -0.921875q0.546875 -0.296875 1.109375 -0.296875q0.75 0 1.171875 0.40625q0.4375 0.40625 0.4375 1.09375q0 0.34375 -0.140625 1.09375l-0.796875 3.765625l-1.0625 0l0.828125 -3.9375q0.125 -0.578125 0.125 -0.859375q0 -0.3125 -0.21875 -0.5q-0.203125 -0.1875 -0.609375 -0.1875q-0.8125 0 -1.453125 0.59375q-0.640625 0.578125 -0.9375 2.0l-0.609375 2.890625l-1.046875 0zm11.236328 -2.109375l1.03125 0.09375q-0.21875 0.765625 -1.03125 1.46875q-0.796875 0.6875 -1.890625 0.6875q-0.703125 0 -1.28125 -0.3125q-0.578125 -0.328125 -0.875 -0.9375q-0.296875 -0.609375 -0.296875 -1.390625q0 -1.015625 0.46875 -1.96875q0.46875 -0.96875 1.21875 -1.421875q0.75 -0.46875 1.625 -0.46875q1.109375 0 1.765625 0.6875q0.671875 0.6875 0.671875 1.890625q0 0.453125 -0.078125 0.9375l-4.578125 0q-0.03125 0.171875 -0.03125 0.328125q0 0.875 0.40625 1.328125q0.40625 0.453125 0.984375 0.453125q0.546875 0 1.0625 -0.34375q0.53125 -0.359375 0.828125 -1.03125zm-3.078125 -1.546875l3.484375 0q0.015625 -0.171875 0.015625 -0.234375q0 -0.796875 -0.40625 -1.21875q-0.390625 -0.421875 -1.015625 -0.421875q-0.6875 0 -1.25 0.46875q-0.5625 0.46875 -0.828125 1.40625zm5.189453 3.65625l1.296875 -6.21875l0.9375 0l-0.265625 1.265625q0.484375 -0.71875 0.9375 -1.0625q0.46875 -0.34375 0.9375 -0.34375q0.328125 0 0.78125 0.21875l-0.4375 0.984375q-0.265625 -0.1875 -0.59375 -0.1875q-0.5625 0 -1.15625 0.625q-0.578125 0.609375 -0.90625 2.21875l-0.53125 2.5l-1.0 0z" fill-rule="nonzero"/><path fill="#000000" fill-opacity="0.0" d="m120.13017 49.26558l75.49606 0" fill-rule="evenodd"/><path stroke="#b7b7b7" stroke-width="1.0" stroke-linejoin="round" stroke-linecap="butt" d="m120.13017 49.26558l75.49606 0" fill-rule="evenodd"/><path fill="#000000" fill-opacity="0.0" d="m-0.7821528 19.716536l79.21259 0l0 60.566925l-79.21259 0z" fill-rule="evenodd"/><path fill="#000000" d="m15.653485 39.92l0 -0.96875l0.85937595 -0.171875l0 -4.0625l-0.95312595 0l0 -1.140625l0.95312595 0l0 -0.71875q0 -1.0624981 0.59375 -1.6249981q0.59375 -0.578125 1.65625 -0.578125q0.265625 0 0.546875 0.046875q0.296875 0.03125 0.515625 0.09375l-0.140625 1.1875q-0.140625 -0.03125 -0.328125 -0.046875q-0.171875 -0.03125 -0.359375 -0.03125q-0.453125 0 -0.671875 0.2499981q-0.21875 0.234375 -0.21875 0.703125l0 0.71875l1.421875 0l0 1.140625l-1.421875 0l0 4.0625l1.109375 0.171875l0 0.96875l-3.562501 0zm7.513673 0.125q-0.90625 0 -1.578125 -0.40625q-0.671875 -0.40625 -1.046875 -1.109375q-0.359375 -0.703125 -0.359375 -1.609375l0 -0.234375q0 -0.9375 0.34375 -1.65625q0.359375 -0.734375 1.0 -1.140625q0.640625 -0.421875 1.484375 -0.421875q0.859375 0 1.4375 0.34375q0.59375 0.34375 0.890625 0.984375q0.296875 0.625 0.296875 1.53125l0 0.875l-3.796875 0l-0.015625 0.046875q0.015625 0.453125 0.203125 0.8125q0.1875 0.34375 0.515625 0.546875q0.328125 0.203125 0.796875 0.203125q0.5 0 0.90625 -0.125q0.40625 -0.125 0.78125 -0.375l0.46875 0.984375q-0.390625 0.3125 -0.984375 0.53125q-0.578125 0.21875 -1.34375 0.21875zm-1.3125 -3.921875l2.28125 0l0 -0.15625q0 -0.390625 -0.125 -0.6875q-0.109375 -0.296875 -0.359375 -0.453125q-0.234375 -0.171875 -0.625 -0.171875q-0.34375 0 -0.609375 0.1875q-0.25 0.1875 -0.390625 0.515625q-0.140625 0.328125 -0.1875 0.734375l0.015625 0.03125zm7.658203 3.921875q-0.90625 0 -1.578125 -0.40625q-0.671875 -0.40625 -1.046875 -1.109375q-0.359375 -0.703125 -0.359375 -1.609375l0 -0.234375q0 -0.9375 0.34375 -1.65625q0.359375 -0.734375 1.0 -1.140625q0.640625 -0.421875 1.484375 -0.421875q0.859375 0 1.4375 0.34375q0.59375 0.34375 0.890625 0.984375q0.296875 0.625 0.296875 1.53125l0 0.875l-3.796875 0l-0.015625 0.046875q0.015625 0.453125 0.203125 0.8125q0.1875 0.34375 0.515625 0.546875q0.328125 0.203125 0.796875 0.203125q0.5 0 0.90625 -0.125q0.40625 -0.125 0.78125 -0.375l0.46875 0.984375q-0.390625 0.3125 -0.984375 0.53125q-0.578125 0.21875 -1.34375 0.21875zm-1.3125 -3.921875l2.28125 0l0 -0.15625q0 -0.390625 -0.125 -0.6875q-0.109375 -0.296875 -0.359375 -0.453125q-0.234375 -0.171875 -0.625 -0.171875q-0.34375 0 -0.609375 0.1875q-0.25 0.1875 -0.390625 0.515625q-0.140625 0.328125 -0.1875 0.734375l0.015625 0.03125zm4.511717 3.796875l0 -0.96875l0.859375 -0.171875l0 -6.859373l-0.921875 -0.171875l0 -0.96875l2.515625 0l0 7.999998l0.84375 0.171875l0 0.96875l-3.296875 0zm3.8574219 0l0 -0.96875l0.859375 -0.171875l0 -4.0625l-0.921875 -0.171875l0 -0.96875l2.515625 0l0 5.203125l0.84375 0.171875l0 0.96875l-3.296875 0zm0.796875 -7.734375l0 -1.4062481l1.65625 0l0 1.4062481l-1.65625 0zm3.0644531 7.734375l0 -0.96875l0.84375 -0.171875l0 -4.0625l-0.90625 -0.171875l0 -0.96875l2.390625 0l0.078125 0.921875q0.3125 -0.484375 0.78125 -0.75q0.46875 -0.28125 1.078125 -0.28125q0.953125 0 1.484375 0.609375q0.546875 0.59375 0.546875 1.875l0 2.828125l0.859375 0.171875l0 0.96875l-3.234375 0l0 -0.96875l0.78125 -0.171875l0 -2.828125q0 -0.671875 -0.28125 -0.953125q-0.265625 -0.28125 -0.796875 -0.28125q-0.390625 0 -0.6875 0.171875q-0.296875 0.171875 -0.5 0.484375l0 3.40625l0.75 0.171875l0 0.96875l-3.1875 0zm10.484375 2.5625q-0.46875 0 -1.0625 -0.125q-0.578125 -0.125 -1.03125 -0.34375l0.328125 -1.15625q0.390625 0.171875 0.84375 0.265625q0.453125 0.109375 0.84375 0.109375q0.71875 0 1.046875 -0.390625q0.328125 -0.390625 0.328125 -1.09375l0 -0.453125q-0.296875 0.359375 -0.6875 0.5625q-0.390625 0.1875 -0.890625 0.1875q-0.78125 0 -1.34375 -0.390625q-0.546875 -0.390625 -0.84375 -1.078125q-0.296875 -0.703125 -0.296875 -1.640625l0 -0.125q0 -1.0 0.296875 -1.75q0.296875 -0.765625 0.84375 -1.171875q0.546875 -0.421875 1.3125 -0.421875q0.578125 0 0.984375 0.234375q0.421875 0.234375 0.71875 0.671875l0.125 -0.796875l1.375 0l0 6.171875q0 0.84375 -0.34375 1.453125q-0.34375 0.609375 -1.0 0.9375q-0.640625 0.34375 -1.546875 0.34375zm0.15625 -3.6875q0.390625 0 0.671875 -0.15625q0.28125 -0.171875 0.46875 -0.484375l0 -2.78125q-0.171875 -0.3125 -0.46875 -0.484375q-0.28125 -0.171875 -0.671875 -0.171875q-0.453125 0 -0.75 0.265625q-0.296875 0.265625 -0.4375 0.734375q-0.140625 0.46875 -0.140625 1.09375l0 0.125q0 0.859375 0.3125 1.359375q0.3125 0.5 1.015625 0.5zm2.53125 -4.046875l-0.6875 -1.171875l1.640625 0l0 0.96875l-0.953125 0.203125zm4.1914062 5.296875q-0.703125 0 -1.3125 -0.125q-0.59375 -0.140625 -1.171875 -0.40625l-0.015625 -1.734375l1.125 0l0.21875 0.921875q0.234375 0.109375 0.484375 0.171875q0.25 0.046875 0.578125 0.046875q0.59375 0 0.84375 -0.203125q0.25 -0.203125 0.25 -0.5q0 -0.296875 -0.265625 -0.5q-0.265625 -0.21875 -1.015625 -0.375q-1.125 -0.25 -1.671875 -0.734375q-0.53125 -0.484375 -0.53125 -1.234375q0 -0.53125 0.265625 -0.953125q0.28125 -0.4375 0.828125 -0.6875q0.546875 -0.265625 1.359375 -0.265625q0.734375 0 1.296875 0.15625q0.578125 0.140625 0.984375 0.359375l0.03125 1.6875l-1.125 0l-0.171875 -0.84375q-0.171875 -0.109375 -0.40625 -0.171875q-0.234375 -0.078125 -0.515625 -0.078125q-0.46875 0 -0.734375 0.203125q-0.25 0.1875 -0.25 0.5q0 0.171875 0.078125 0.328125q0.09375 0.140625 0.34375 0.265625q0.265625 0.125 0.75 0.234375q1.203125 0.28125 1.734375 0.734375q0.546875 0.453125 0.546875 1.25q0 0.859375 -0.640625 1.40625q-0.625 0.546875 -1.890625 0.546875z" fill-rule="nonzero"/><path fill="#000000" d="m24.379072 54.445q-0.953125 0 -1.5 -0.5q-0.546875 -0.5 -0.546875 -1.375q0 -0.59375 0.328125 -1.046875q0.328125 -0.46875 0.953125 -0.71875q0.640625 -0.25 1.5625 -0.25l0.890625 0l0 -0.5q0 -0.484375 -0.28125 -0.765625q-0.28125 -0.296875 -0.828125 -0.296875q-0.296875 0 -0.546875 0.078125q-0.234375 0.0625 -0.421875 0.203125l-0.125 0.84375l-1.171875 0l0 -1.609375q0.46875 -0.28125 1.046875 -0.453125q0.578125 -0.1875 1.296875 -0.1875q1.21875 0 1.921875 0.578125q0.703125 0.5625 0.703125 1.625l0 2.703125q0 0.125 0 0.25q0.015625 0.125 0.03125 0.234375l0.65625 0.09375l0 0.96875l-2.03125 0q-0.0625 -0.1875 -0.125 -0.375q-0.046875 -0.1875 -0.078125 -0.375q-0.296875 0.390625 -0.734375 0.640625q-0.4375 0.234375 -1.0 0.234375zm0.40625 -1.203125q0.390625 0 0.75 -0.1875q0.359375 -0.1875 0.53125 -0.46875l0 -1.03125l-0.90625 0q-0.609375 0 -0.921875 0.28125q-0.3125 0.28125 -0.3125 0.671875q0 0.34375 0.21875 0.546875q0.21875 0.1875 0.640625 0.1875zm7.8515606 1.203125q-0.59375 0 -1.0156231 -0.234375q-0.421875 -0.234375 -0.703125 -0.671875l-0.125 0.78125l-1.375 0l0 -8.0l-0.921875 -0.171875l0 -0.96875l2.515625 0l0 3.484375q0.28125 -0.390625 0.6875 -0.59375q0.4062481 -0.203125 0.9531231 -0.203125q0.78125 0 1.3125 0.421875q0.546875 0.40625 0.828125 1.15625q0.28125 0.75 0.28125 1.765625l0 0.125q0 0.9375 -0.28125 1.640625q-0.28125 0.703125 -0.828125 1.09375q-0.546875 0.375 -1.328125 0.375zm-0.46875 -1.25q0.703125 0 1.0 -0.484375q0.3125 -0.5 0.3125 -1.375l0 -0.125q0 -0.640625 -0.140625 -1.109375q-0.125 -0.46875 -0.421875 -0.71875q-0.28125 -0.265625 -0.734375 -0.265625q-0.4218731 0 -0.7187481 0.203125q-0.28125 0.1875 -0.453125 0.515625l0 2.6875q0.1875 0.3125 0.46875 0.5q0.296875 0.171875 0.6874981 0.171875zm6.8125 1.25q-0.9375 0 -1.59375 -0.40625q-0.65625 -0.421875 -1.015625 -1.140625q-0.359375 -0.734375 -0.359375 -1.6875l0 -0.125q0 -0.9375 0.359375 -1.65625q0.359375 -0.734375 1.015625 -1.140625q0.65625 -0.421875 1.578125 -0.421875q0.9375 0 1.59375 0.421875q0.65625 0.40625 1.015625 1.140625q0.359375 0.71875 0.359375 1.65625l0 0.125q0 0.953125 -0.359375 1.6875q-0.359375 0.71875 -1.015625 1.140625q-0.65625 0.40625 -1.578125 0.40625zm0 -1.234375q0.46875 0 0.765625 -0.25q0.296875 -0.25 0.4375 -0.703125q0.15625 -0.453125 0.15625 -1.046875l0 -0.125q0 -0.578125 -0.15625 -1.03125q-0.140625 -0.453125 -0.453125 -0.703125q-0.296875 -0.265625 -0.765625 -0.265625q-0.46875 0 -0.765625 0.265625q-0.296875 0.25 -0.453125 0.703125q-0.140625 0.453125 -0.140625 1.03125l0 0.125q0 0.59375 0.140625 1.046875q0.15625 0.453125 0.453125 0.703125q0.3125 0.25 0.78125 0.25zm6.4453125 1.234375q-1.015625 0 -1.59375 -0.640625q-0.5625 -0.640625 -0.5625 -2.0l0 -2.6875l-0.703125 -0.171875l0 -0.96875l0.703125 0l1.59375 0l0 3.84375q0 0.75 0.25 1.0625q0.25 0.3125 0.765625 0.3125q0.421875 0 0.734375 -0.171875q0.328125 -0.171875 0.515625 -0.484375l0 -3.421875l-0.765625 -0.171875l0 -0.96875l0.765625 0l1.59375 0l0 5.203125l0.765625 0.171875l0 0.96875l-2.171875 0l-0.109375 -0.828125q-0.296875 0.453125 -0.75 0.703125q-0.453125 0.25 -1.03125 0.25zm7.1484375 0q-0.84375 0 -1.3125 -0.46875q-0.453125 -0.484375 -0.453125 -1.515625l0 -3.34375l-0.90625 0l0 -1.140625l0.90625 0l0 -1.546875l1.578125 0l0 1.546875l1.21875 0l0 1.140625l-1.21875 0l0 3.34375q0 0.390625 0.15625 0.5625q0.171875 0.171875 0.453125 0.171875q0.15625 0 0.328125 -0.015625q0.1875 -0.03125 0.3125 -0.0625l0.15625 1.140625q-0.265625 0.078125 -0.59375 0.125q-0.3125 0.0625 -0.625 0.0625z" fill-rule="nonzero"/><path fill="#000000" d="m2.8234076 68.845q-0.9062501 0 -1.5625001 -0.40625q-0.65625 -0.40625 -1.015625 -1.125q-0.359375 -0.734375 -0.359375 -1.671875l0 -0.1875q0 -0.921875 0.359375 -1.640625q0.359375 -0.71875 1.015625 -1.125q0.65625 -0.421875 1.5468751 -0.421875q0.84375 0 1.453125 0.265625q0.609375 0.25 0.984375 0.625l0 1.765625l-1.203125 0l-0.21875 -1.140625q-0.15625 -0.15625 -0.390625 -0.25q-0.234375 -0.09375 -0.5 -0.09375q-0.46875 0 -0.796875 0.25q-0.32812512 0.25 -0.5000001 0.703125q-0.15625 0.453125 -0.15625 1.0625l0 0.1875q0 0.671875 0.171875 1.109375q0.171875 0.4375 0.48437512 0.65625q0.3125 0.203125 0.6875 0.203125q0.484375 0 0.78125 -0.25q0.296875 -0.25 0.40625 -0.71875l1.359375 0l0.015625 0.03125q-0.078125 0.65625 -0.375 1.140625q-0.296875 0.484375 -0.84375 0.765625q-0.53125 0.265625 -1.34375 0.265625zm6.382812 0q-0.9375 0 -1.5937495 -0.40625q-0.65625 -0.421875 -1.015625 -1.140625q-0.359375 -0.734375 -0.359375 -1.6875l0 -0.125q0 -0.9375 0.359375 -1.65625q0.359375 -0.734375 1.015625 -1.140625q0.6562495 -0.421875 1.5781245 -0.421875q0.9375 0 1.59375 0.421875q0.65625 0.40625 1.015625 1.140625q0.359375 0.71875 0.359375 1.65625l0 0.125q0 0.953125 -0.359375 1.6875q-0.359375 0.71875 -1.015625 1.140625q-0.65625 0.40625 -1.578125 0.40625zm0 -1.234375q0.46875 0 0.765625 -0.25q0.296875 -0.25 0.4375 -0.703125q0.15625 -0.453125 0.15625 -1.046875l0 -0.125q0 -0.578125 -0.15625 -1.03125q-0.140625 -0.453125 -0.453125 -0.703125q-0.296875 -0.265625 -0.765625 -0.265625q-0.46875 0 -0.765625 0.265625q-0.296875 0.25 -0.45312452 0.703125q-0.140625 0.453125 -0.140625 1.03125l0 0.125q0 0.59375 0.140625 1.046875q0.15624952 0.453125 0.45312452 0.703125q0.3125 0.25 0.78125 0.25zm3.6796875 1.109375l0 -0.96875l0.84375 -0.171875l0 -4.0625l-0.90625 -0.171875l0 -0.96875l2.390625 0l0.078125 0.921875q0.3125 -0.484375 0.78125095 -0.75q0.46875 -0.28125 1.078125 -0.28125q0.953125 0 1.484375 0.609375q0.546875 0.59375 0.546875 1.875l0 2.828125l0.859375 0.171875l0 0.96875l-3.234375 0l0 -0.96875l0.78125 -0.171875l0 -2.828125q0 -0.671875 -0.28125 -0.953125q-0.265625 -0.28125 -0.796875 -0.28125q-0.390625 0 -0.68750095 0.171875q-0.296875 0.171875 -0.5 0.484375l0 3.40625l0.75000095 0.171875l0 0.96875l-3.187501 0zm9.978517 0.125q-0.84375 0 -1.3125 -0.46875q-0.453125 -0.484375 -0.453125 -1.515625l0 -3.34375l-0.90625 0l0 -1.140625l0.90625 0l0 -1.546875l1.578125 0l0 1.546875l1.21875 0l0 1.140625l-1.21875 0l0 3.34375q0 0.390625 0.15625 0.5625q0.171875 0.171875 0.453125 0.171875q0.15625 0 0.328125 -0.015625q0.1875 -0.03125 0.3125 -0.0625l0.15625 1.140625q-0.265625 0.078125 -0.59375 0.125q-0.3125 0.0625 -0.625 0.0625zm1.9726562 -0.125l0 -0.96875l0.84375 -0.171875l0 -4.0625l-0.90625 -0.171875l0 -0.96875l2.390625 0l0.0625 0.796875l0.015625 0.125q0.234375 -0.5 0.59375 -0.765625q0.359375 -0.265625 0.84375 -0.265625q0.15625 0 0.34375 0.03125q0.1875 0.015625 0.3125 0.0625l-0.171875 1.46875l-0.84375 -0.046875q-0.375 -0.015625 -0.625 0.140625q-0.25 0.15625 -0.421875 0.453125l0 3.203125l0.859375 0.171875l0 0.96875l-3.296875 0zm5.0585938 0l0 -0.96875l0.859375 -0.171875l0 -4.0625l-0.921875 -0.171875l0 -0.96875l2.515623 0l0 5.203125l0.84375 0.171875l0 0.96875l-3.296873 0zm0.796875 -7.734375l0 -1.40625l1.6562481 0l0 1.40625l-1.6562481 0zm6.751951 7.859375q-0.59375 0 -1.015625 -0.234375q-0.421875 -0.234375 -0.703125 -0.671875l-0.125 0.78125l-1.375 0l0 -8.0l-0.921875 -0.171875l0 -0.96875l2.515625 0l0 3.484375q0.28125 -0.390625 0.6875 -0.59375q0.40625 -0.203125 0.953125 -0.203125q0.78125 0 1.3125 0.421875q0.546875 0.40625 0.828125 1.15625q0.28125 0.75 0.28125 1.765625l0 0.125q0 0.9375 -0.28125 1.640625q-0.28125 0.703125 -0.828125 1.09375q-0.546875 0.375 -1.328125 0.375zm-0.46875 -1.25q0.703125 0 1.0 -0.484375q0.3125 -0.5 0.3125 -1.375l0 -0.125q0 -0.640625 -0.140625 -1.109375q-0.125 -0.46875 -0.421875 -0.71875q-0.28125 -0.265625 -0.734375 -0.265625q-0.421875 0 -0.71875 0.203125q-0.28125 0.1875 -0.453125 0.515625l0 2.6875q0.1875 0.3125 0.46875 0.5q0.296875 0.171875 0.6875 0.171875zm6.419922 1.25q-1.015625 0 -1.59375 -0.640625q-0.5625 -0.640625 -0.5625 -2.0l0 -2.6875l-0.703125 -0.171875l0 -0.96875l0.703125 0l1.59375 0l0 3.84375q0 0.75 0.25 1.0625q0.25 0.3125 0.765625 0.3125q0.421875 0 0.734375 -0.171875q0.328125 -0.171875 0.515625 -0.484375l0 -3.421875l-0.765625 -0.171875l0 -0.96875l0.765625 0l1.59375 0l0 5.203125l0.765625 0.171875l0 0.96875l-2.171875 0l-0.109375 -0.828125q-0.296875 0.453125 -0.75 0.703125q-0.453125 0.25 -1.03125 0.25zm7.1484375 0q-0.84375 0 -1.3125 -0.46875q-0.453125 -0.484375 -0.453125 -1.515625l0 -3.34375l-0.90625 0l0 -1.140625l0.90625 0l0 -1.546875l1.578125 0l0 1.546875l1.21875 0l0 1.140625l-1.21875 0l0 3.34375q0 0.390625 0.15625 0.5625q0.171875 0.171875 0.453125 0.171875q0.15625 0 0.328125 -0.015625q0.1875 -0.03125 0.3125 -0.0625l0.15625 1.140625q-0.265625 0.078125 -0.59375 0.125q-0.3125 0.0625 -0.625 0.0625zm1.9277344 -0.125l0 -0.96875l0.859375 -0.171875l0 -4.0625l-0.921875 -0.171875l0 -0.96875l2.515625 0l0 5.203125l0.84375 0.171875l0 0.96875l-3.296875 0zm0.796875 -7.734375l0 -1.40625l1.65625 0l0 1.40625l-1.65625 0zm6.111328 7.859375q-0.9375 0 -1.59375 -0.40625q-0.65625 -0.421875 -1.015625 -1.140625q-0.359375 -0.734375 -0.359375 -1.6875l0 -0.125q0 -0.9375 0.359375 -1.65625q0.359375 -0.734375 1.015625 -1.140625q0.65625 -0.421875 1.578125 -0.421875q0.9375 0 1.59375 0.421875q0.65625 0.40625 1.015625 1.140625q0.359375 0.71875 0.359375 1.65625l0 0.125q0 0.953125 -0.359375 1.6875q-0.359375 0.71875 -1.015625 1.140625q-0.65625 0.40625 -1.578125 0.40625zm0 -1.234375q0.46875 0 0.765625 -0.25q0.296875 -0.25 0.4375 -0.703125q0.15625 -0.453125 0.15625 -1.046875l0 -0.125q0 -0.578125 -0.15625 -1.03125q-0.140625 -0.453125 -0.453125 -0.703125q-0.296875 -0.265625 -0.765625 -0.265625q-0.46875 0 -0.765625 0.265625q-0.296875 0.25 -0.453125 0.703125q-0.140625 0.453125 -0.140625 1.03125l0 0.125q0 0.59375 0.140625 1.046875q0.15625 0.453125 0.453125 0.703125q0.3125 0.25 0.78125 0.25zm3.6796875 1.109375l0 -0.96875l0.84375 -0.171875l0 -4.0625l-0.90625 -0.171875l0 -0.96875l2.3906288 0l0.078125 0.921875q0.3125 -0.484375 0.78125 -0.75q0.46875 -0.28125 1.078125 -0.28125q0.953125 0 1.484375 0.609375q0.546875 0.59375 0.546875 1.875l0 2.828125l0.859375 0.171875l0 0.96875l-3.234375 0l0 -0.96875l0.78125 -0.171875l0 -2.828125q0 -0.671875 -0.28125 -0.953125q-0.265625 -0.28125 -0.796875 -0.28125q-0.390625 0 -0.6875 0.171875q-0.296875 0.171875 -0.5 0.484375l0 3.40625l0.75 0.171875l0 0.96875l-3.1875038 0zm10.455082 0.125q-0.703125 0 -1.3125 -0.125q-0.59375 -0.140625 -1.171875 -0.40625l-0.015625 -1.734375l1.125 0l0.21875 0.921875q0.234375 0.109375 0.484375 0.171875q0.25 0.046875 0.578125 0.046875q0.59375 0 0.84375 -0.203125q0.25 -0.203125 0.25 -0.5q0 -0.296875 -0.265625 -0.5q-0.265625 -0.21875 -1.015625 -0.375q-1.125 -0.25 -1.671875 -0.734375q-0.53125 -0.484375 -0.53125 -1.234375q0 -0.53125 0.265625 -0.953125q0.28125 -0.4375 0.828125 -0.6875q0.546875 -0.265625 1.359375 -0.265625q0.734375 0 1.296875 0.15625q0.578125 0.140625 0.984375 0.359375l0.03125 1.6875l-1.125 0l-0.171875 -0.84375q-0.171875 -0.109375 -0.40625 -0.171875q-0.234375 -0.078125 -0.515625 -0.078125q-0.46875 0 -0.734375 0.203125q-0.25 0.1875 -0.25 0.5q0 0.171875 0.078125 0.328125q0.09375 0.140625 0.34375 0.265625q0.265625 0.125 0.75 0.234375q1.203125 0.28125 1.734375 0.734375q0.546875 0.453125 0.546875 1.25q0 0.859375 -0.640625 1.40625q-0.625 0.546875 -1.890625 0.546875z" fill-rule="nonzero"/><path fill="#000000" fill-opacity="0.0" d="m78.4362 22.83541l31.81102 0l0 54.330704l-31.81102 0z" fill-rule="evenodd"/><path fill="#000000" d="m105.62598 52.249516l-22.765625 9.734375l0 -4.203125l18.03125 -7.46875l-18.03125 -7.40625l0 -4.203125l22.765625 9.609375l0 3.9375z" fill-rule="nonzero"/></g></svg>