<svg version="1.1" viewBox="0.0 0.0 369.9685039370079 102.70603674540682" fill="none" stroke="none" stroke-linecap="square" stroke-miterlimit="10" xmlns:xlink="http://www.w3.org/1999/xlink" xmlns="http://www.w3.org/2000/svg"><clipPath id="p.0"><path d="m0 0l369.9685 0l0 102.70604l-369.9685 0l0 -102.70604z" clip-rule="nonzero"/></clipPath><g clip-path="url(#p.0)"><path fill="#000000" fill-opacity="0.0" d="m0 0l369.9685 0l0 102.70604l-369.9685 0z" fill-rule="evenodd"/><path fill="#000000" fill-opacity="0.0" d="m164.22124 21.353903l64.409454 0l0 60.755905l-64.409454 0z" fill-rule="evenodd"/><path fill="#000000" d="m186.09315 48.211857l0 -0.953125q-0.71875 1.125 -2.125 1.125q-0.90625 0 -1.671875 -0.5q-0.75 -0.5 -1.171875 -1.390625q-0.421875 -0.90625 -0.421875 -2.078125q0 -1.140625 0.375 -2.0625q0.390625 -0.921875 1.140625 -1.40625q0.765625 -0.5 1.703125 -0.5q0.6875 0 1.21875 0.296875q0.53125 0.28125 0.875 0.734375l0 -3.75l1.28125 0l0 10.484375l-1.203125 0zm-4.0625 -3.796875q0 1.46875 0.609375 2.1875q0.625 0.71875 1.453125 0.71875q0.84375 0 1.4375 -0.6875q0.59375 -0.6875 0.59375 -2.109375q0 -1.5625 -0.609375 -2.28125q-0.59375 -0.734375 -1.484375 -0.734375q-0.84375 0 -1.421875 0.703125q-0.578125 0.703125 -0.578125 2.203125zm12.244858 2.859375q-0.71875 0.609375 -1.375 0.859375q-0.65625 0.25 -1.421875 0.25q-1.25 0 -1.921875 -0.609375q-0.671875 -0.609375 -0.671875 -1.5625q0 -0.5625 0.25 -1.015625q0.25 -0.46875 0.65625 -0.75q0.421875 -0.28125 0.9375 -0.421875q0.375 -0.09375 1.140625 -0.1875q1.5625 -0.1875 2.296875 -0.453125q0.015625 -0.265625 0.015625 -0.328125q0 -0.796875 -0.375 -1.109375q-0.484375 -0.4375 -1.453125 -0.4375q-0.921875 0 -1.359375 0.328125q-0.421875 0.3125 -0.625 1.109375l-1.265625 -0.171875q0.171875 -0.796875 0.5625 -1.296875q0.390625 -0.5 1.140625 -0.765625q0.75 -0.265625 1.71875 -0.265625q0.984375 0 1.59375 0.234375q0.609375 0.21875 0.890625 0.5625q0.28125 0.34375 0.40625 0.875q0.0625 0.328125 0.0625 1.1875l0 1.71875q0 1.796875 0.078125 2.28125q0.078125 0.46875 0.328125 0.90625l-1.34375 0q-0.203125 -0.40625 -0.265625 -0.9375zm-0.109375 -2.875q-0.703125 0.28125 -2.09375 0.484375q-0.796875 0.109375 -1.125 0.265625q-0.328125 0.140625 -0.515625 0.421875q-0.171875 0.265625 -0.171875 0.59375q0 0.515625 0.390625 0.859375q0.390625 0.34375 1.140625 0.34375q0.734375 0 1.3125 -0.3125q0.59375 -0.328125 0.859375 -0.890625q0.203125 -0.4375 0.203125 -1.296875l0 -0.46875zm3.2448578 6.734375l-0.140625 -1.203125q0.421875 0.109375 0.734375 0.109375q0.4375 0 0.6875 -0.140625q0.265625 -0.140625 0.421875 -0.40625q0.125 -0.1875 0.390625 -0.953125q0.046875 -0.109375 0.125 -0.3125l-2.890625 -7.609375l1.390625 0l1.578125 4.390625q0.3125 0.84375 0.546875 1.765625q0.234375 -0.890625 0.53125 -1.734375l1.625 -4.421875l1.296875 0l-2.890625 7.71875q-0.46875 1.25 -0.734375 1.734375q-0.34375 0.625 -0.78125 0.921875q-0.4375 0.296875 -1.0625 0.296875q-0.375 0 -0.828125 -0.15625zm6.875 -5.1875l1.265625 -0.203125q0.109375 0.765625 0.59375 1.171875q0.5 0.40625 1.375 0.40625q0.890625 0 1.3125 -0.359375q0.4375 -0.359375 0.4375 -0.84375q0 -0.4375 -0.375 -0.6875q-0.265625 -0.171875 -1.3125 -0.4375q-1.421875 -0.359375 -1.96875 -0.609375q-0.546875 -0.265625 -0.828125 -0.734375q-0.28125 -0.46875 -0.28125 -1.015625q0 -0.515625 0.21875 -0.9375q0.234375 -0.4375 0.640625 -0.734375q0.296875 -0.21875 0.8125 -0.359375q0.53125 -0.15625 1.125 -0.15625q0.890625 0 1.5625 0.265625q0.671875 0.25 1.0 0.6875q0.328125 0.4375 0.4375 1.171875l-1.25 0.171875q-0.09375 -0.578125 -0.5 -0.90625q-0.40625 -0.34375 -1.15625 -0.34375q-0.890625 0 -1.28125 0.296875q-0.375 0.296875 -0.375 0.6875q0 0.25 0.15625 0.453125q0.15625 0.203125 0.5 0.34375q0.1875 0.078125 1.140625 0.328125q1.359375 0.359375 1.890625 0.59375q0.546875 0.234375 0.859375 0.6875q0.3125 0.4375 0.3125 1.09375q0 0.640625 -0.375 1.21875q-0.375 0.5625 -1.09375 0.875q-0.703125 0.3125 -1.59375 0.3125q-1.484375 0 -2.265625 -0.609375q-0.765625 -0.625 -0.984375 -1.828125z" fill-rule="nonzero"/><path fill="#000000" d="m173.57445 56.780605l0.3125 -1.453125l1.28125 0l-0.3125 1.453125l-1.28125 0zm-1.890625 9.031254l1.59375 -7.593754l1.296875 0l-1.59375 7.593754l-1.296875 0zm3.3030243 0l1.59375 -7.593754l1.171875 0l-0.28125 1.3125q0.765625 -0.78125 1.421875 -1.125q0.671875 -0.359375 1.375 -0.359375q0.921875 0 1.4375 0.5q0.53125 0.5 0.53125 1.328125q0 0.421875 -0.1875 1.34375l-0.96875 4.593754l-1.296875 0l1.015625 -4.812504q0.15625 -0.703125 0.15625 -1.046875q0 -0.375 -0.265625 -0.609375q-0.265625 -0.234375 -0.75 -0.234375q-1.0 0 -1.78125 0.71875q-0.765625 0.703125 -1.140625 2.453125l-0.734375 3.5312538l-1.296875 0zm17.473083 -2.7656288l1.296875 0.125q-0.484375 1.4375038 -1.390625 2.1250038q-0.890625 0.6875 -2.046875 0.6875q-1.234375 0 -2.0 -0.796875q-0.765625 -0.8125 -0.765625 -2.2500038q0 -1.234375 0.484375 -2.4375q0.5 -1.203125 1.421875 -1.828125q0.921875 -0.625 2.09375 -0.625q1.21875 0 1.9375 0.6875q0.71875 0.6875 0.71875 1.828125l-1.265625 0.078125q-0.015625 -0.71875 -0.4375 -1.125q-0.40625 -0.40625 -1.078125 -0.40625q-0.78125 0 -1.359375 0.5q-0.5625 0.484375 -0.890625 1.5q-0.328125 1.0 -0.328125 1.921875q0 0.9843788 0.421875 1.4687538q0.4375 0.484375 1.078125 0.484375q0.625 0 1.203125 -0.484375q0.578125 -0.484375 0.90625 -1.4531288zm1.59375 5.703129l0.078125 -1.21875q0.40625 0.109375 0.78125 0.109375q0.390625 0 0.640625 -0.171875q0.3125 -0.234375 0.6875 -0.890625l0.40625 -0.75l-1.265625 -7.609379l1.28125 0l0.5625 3.84375q0.171875 1.125 0.296875 2.2656288l3.40625 -6.109379l1.34375 0l-4.84375 8.609379q-0.703125 1.25 -1.25 1.65625q-0.53125 0.40625 -1.25 0.40625q-0.453125 0 -0.875 -0.140625zm13.0625 -5.703129l1.296875 0.125q-0.484375 1.4375038 -1.390625 2.1250038q-0.890625 0.6875 -2.046875 0.6875q-1.234375 0 -2.0 -0.796875q-0.765625 -0.8125 -0.765625 -2.2500038q0 -1.234375 0.484375 -2.4375q0.5 -1.203125 1.421875 -1.828125q0.921875 -0.625 2.09375 -0.625q1.21875 0 1.9375 0.6875q0.71875 0.6875 0.71875 1.828125l-1.265625 0.078125q-0.015625 -0.71875 -0.4375 -1.125q-0.40625 -0.40625 -1.078125 -0.40625q-0.78125 0 -1.359375 0.5q-0.5625 0.484375 -0.890625 1.5q-0.328125 1.0 -0.328125 1.921875q0 0.9843788 0.421875 1.4687538q0.4375 0.484375 1.078125 0.484375q0.625 0 1.203125 -0.484375q0.578125 -0.484375 0.90625 -1.4531288zm1.984375 2.7656288l2.1875 -10.484379l1.296875 0l-2.1875 10.484379l-1.296875 0zm8.928024 -2.5781288l1.265625 0.125q-0.265625 0.9375038 -1.25 1.7812538q-0.96875 0.84375 -2.328125 0.84375q-0.84375 0 -1.546875 -0.390625q-0.703125 -0.390625 -1.078125 -1.125q-0.359375 -0.7500038 -0.359375 -1.7031288q0 -1.25 0.5625 -2.421875q0.578125 -1.171875 1.5 -1.734375q0.921875 -0.5625 1.984375 -0.5625q1.359375 0 2.171875 0.84375q0.8125 0.84375 0.8125 2.296875q0 0.5625 -0.109375 1.140625l-5.59375 0q-0.03125 0.234375 -0.03125 0.40625q0 1.0625 0.484375 1.6250038q0.5 0.5625 1.203125 0.5625q0.671875 0 1.3125 -0.4375q0.640625 -0.4375 1.0 -1.2500038zm-3.765625 -1.890625l4.265625 0q0.015625 -0.203125 0.015625 -0.28125q0 -0.96875 -0.484375 -1.484375q-0.484375 -0.53125 -1.25 -0.53125q-0.84375 0 -1.53125 0.578125q-0.671875 0.5625 -1.015625 1.71875z" fill-rule="nonzero"/><path fill="#000000" fill-opacity="0.0" d="m270.39108 1.7322835l99.590546 0l0 100.0l-99.590546 0z" fill-rule="evenodd"/><path fill="#000000" d="m287.02698 52.532284l0 -19.078125l8.46875 0q2.546875 0 3.875 0.515625q1.328125 0.515625 2.109375 1.8125q0.796875 1.296875 0.796875 2.875q0 2.03125 -1.3125 3.421875q-1.3125 1.390625 -4.0625 1.765625q1.015625 0.484375 1.53125 0.953125q1.109375 1.015625 2.09375 2.546875l3.3125 5.1875l-3.171875 0l-2.515625 -3.96875q-1.109375 -1.71875 -1.828125 -2.625q-0.71875 -0.921875 -1.28125 -1.28125q-0.5625 -0.359375 -1.15625 -0.5q-0.421875 -0.09375 -1.40625 -0.09375l-2.921875 0l0 8.46875l-2.53125 0zm2.53125 -10.65625l5.421875 0q1.734375 0 2.703125 -0.359375q0.984375 -0.359375 1.484375 -1.140625q0.515625 -0.796875 0.515625 -1.71875q0 -1.359375 -0.984375 -2.21875q-0.984375 -0.875 -3.109375 -0.875l-6.03125 0l0 6.3125zm14.594055 10.65625l7.3125 -19.078125l2.734375 0l7.796875 19.078125l-2.875 0l-2.21875 -5.78125l-7.984375 0l-2.09375 5.78125l-2.671875 0zm5.5 -7.828125l6.46875 0l-2.0 -5.296875q-0.90625 -2.40625 -1.34375 -3.953125q-0.375 1.84375 -1.03125 3.640625l-2.09375 5.609375zm14.3732605 7.828125l0 -19.078125l6.5625 0q2.234375 0 3.40625 0.265625q1.640625 0.375 2.796875 1.375q1.5 1.265625 2.25 3.25q0.75 1.984375 0.75 4.546875q0 2.171875 -0.515625 3.859375q-0.5 1.671875 -1.296875 2.78125q-0.78125 1.09375 -1.734375 1.71875q-0.9375 0.625 -2.28125 0.953125q-1.328125 0.328125 -3.0625 0.328125l-6.875 0zm2.515625 -2.25l4.078125 0q1.890625 0 2.953125 -0.34375q1.078125 -0.359375 1.71875 -1.0q0.890625 -0.890625 1.390625 -2.40625q0.515625 -1.515625 0.515625 -3.6875q0 -2.984375 -0.984375 -4.59375q-0.984375 -1.609375 -2.390625 -2.15625q-1.015625 -0.390625 -3.265625 -0.390625l-4.015625 0l0 14.578125zm15.48465 -1.875l2.328125 -0.359375q0.1875 1.390625 1.078125 2.140625q0.890625 0.734375 2.5 0.734375q1.609375 0 2.390625 -0.65625q0.78125 -0.65625 0.78125 -1.546875q0 -0.796875 -0.6875 -1.25q-0.484375 -0.3125 -2.390625 -0.796875q-2.578125 -0.65625 -3.578125 -1.125q-1.0 -0.46875 -1.515625 -1.3125q-0.515625 -0.84375 -0.515625 -1.859375q0 -0.921875 0.421875 -1.703125q0.4375 -0.796875 1.15625 -1.3125q0.546875 -0.40625 1.484375 -0.6875q0.953125 -0.28125 2.03125 -0.28125q1.625 0 2.859375 0.46875q1.234375 0.46875 1.8125 1.28125q0.59375 0.796875 0.8125 2.140625l-2.296875 0.3125q-0.15625 -1.078125 -0.90625 -1.671875q-0.75 -0.59375 -2.109375 -0.59375q-1.609375 0 -2.3125 0.53125q-0.6875 0.53125 -0.6875 1.25q0 0.453125 0.296875 0.8125q0.28125 0.375 0.890625 0.625q0.359375 0.140625 2.078125 0.609375q2.484375 0.65625 3.46875 1.078125q0.984375 0.421875 1.53125 1.234375q0.5625 0.796875 0.5625 2.0q0 1.171875 -0.6875 2.21875q-0.671875 1.03125 -1.96875 1.59375q-1.28125 0.5625 -2.90625 0.5625q-2.703125 0 -4.125 -1.109375q-1.40625 -1.125 -1.796875 -3.328125z" fill-rule="nonzero"/><path fill="#000000" d="m276.8146 75.91853l2.203125 -10.5l1.1875 0l-0.21875 1.046875q0.671875 -0.6875 1.1875 -0.953125q0.53125 -0.265625 1.125 -0.265625q1.078125 0 1.796875 0.796875q0.71875 0.78125 0.71875 2.25q0 1.1875 -0.390625 2.171875q-0.390625 0.96875 -0.96875 1.5625q-0.578125 0.59375 -1.171875 0.875q-0.578125 0.28125 -1.1875 0.28125q-1.375 0 -2.125 -1.390625l-0.859375 4.125l-1.296875 0zm2.5625 -6.015625q0 0.859375 0.125 1.1875q0.1875 0.46875 0.59375 0.75q0.40625 0.28125 0.9375 0.28125q1.125 0 1.8125 -1.25q0.6875 -1.265625 0.6875 -2.5625q0 -0.96875 -0.46875 -1.5q-0.46875 -0.53125 -1.15625 -0.53125q-0.484375 0 -0.90625 0.265625q-0.421875 0.265625 -0.78125 0.78125q-0.359375 0.515625 -0.609375 1.265625q-0.234375 0.75 -0.234375 1.3125zm11.807373 0.53125l1.265625 0.125q-0.265625 0.9375 -1.25 1.78125q-0.96875 0.84375 -2.328125 0.84375q-0.84375 0 -1.546875 -0.390625q-0.703125 -0.390625 -1.078125 -1.125q-0.359375 -0.75 -0.359375 -1.703125q0 -1.25 0.5625 -2.421875q0.578125 -1.171875 1.5 -1.734375q0.921875 -0.5625 1.984375 -0.5625q1.359375 0 2.171875 0.84375q0.8125 0.84375 0.8125 2.296875q0 0.5625 -0.109375 1.140625l-5.59375 0q-0.03125 0.234375 -0.03125 0.40625q0 1.0625 0.484375 1.625q0.5 0.5625 1.203125 0.5625q0.671875 0 1.3125 -0.4375q0.640625 -0.4375 1.0 -1.25zm-3.765625 -1.890625l4.265625 0q0.015625 -0.203125 0.015625 -0.28125q0 -0.96875 -0.484375 -1.484375q-0.484375 -0.53125 -1.25 -0.53125q-0.84375 0 -1.53125 0.578125q-0.671875 0.5625 -1.015625 1.71875zm6.3385925 4.46875l1.59375 -7.59375l1.140625 0l-0.328125 1.546875q0.59375 -0.875 1.15625 -1.296875q0.5625 -0.421875 1.15625 -0.421875q0.375 0 0.9375 0.265625l-0.515625 1.203125q-0.34375 -0.234375 -0.75 -0.234375q-0.671875 0 -1.390625 0.765625q-0.71875 0.75 -1.125 2.71875l-0.640625 3.046875l-1.234375 0zm14.202637 -2.765625l1.296875 0.125q-0.484375 1.4375 -1.390625 2.125q-0.890625 0.6875 -2.046875 0.6875q-1.234375 0 -2.0 -0.796875q-0.765625 -0.8125 -0.765625 -2.25q0 -1.234375 0.484375 -2.4375q0.5 -1.203125 1.421875 -1.828125q0.921875 -0.625 2.09375 -0.625q1.21875 0 1.9375 0.6875q0.71875 0.6875 0.71875 1.828125l-1.265625 0.078125q-0.015625 -0.71875 -0.4375 -1.125q-0.40625 -0.40625 -1.078125 -0.40625q-0.78125 0 -1.359375 0.5q-0.5625 0.484375 -0.890625 1.5q-0.328125 1.0 -0.328125 1.921875q0 0.984375 0.421875 1.46875q0.4375 0.484375 1.078125 0.484375q0.625 0 1.203125 -0.484375q0.578125 -0.484375 0.90625 -1.453125zm2.3125 -0.125q0 -2.21875 1.3125 -3.671875q1.078125 -1.203125 2.828125 -1.203125q1.375 0 2.21875 0.859375q0.84375 0.859375 0.84375 2.3125q0 1.3125 -0.53125 2.4375q-0.53125 1.125 -1.515625 1.734375q-0.96875 0.59375 -2.046875 0.59375q-0.890625 0 -1.625 -0.375q-0.71875 -0.390625 -1.109375 -1.078125q-0.375 -0.6875 -0.375 -1.609375zm1.296875 -0.125q0 1.078125 0.515625 1.640625q0.515625 0.546875 1.296875 0.546875q0.421875 0 0.828125 -0.171875q0.40625 -0.171875 0.75 -0.515625q0.359375 -0.34375 0.609375 -0.78125q0.25 -0.4375 0.390625 -0.9375q0.234375 -0.71875 0.234375 -1.359375q0 -1.03125 -0.53125 -1.59375q-0.515625 -0.578125 -1.296875 -0.578125q-0.609375 0 -1.109375 0.296875q-0.5 0.28125 -0.90625 0.84375q-0.40625 0.546875 -0.59375 1.296875q-0.1875 0.734375 -0.1875 1.3125zm6.8229675 -0.140625l0.265625 -1.28125l3.953125 0l-0.265625 1.28125l-3.953125 0zm4.9118958 0.265625q0 -2.21875 1.3125 -3.671875q1.078125 -1.203125 2.828125 -1.203125q1.375 0 2.21875 0.859375q0.84375 0.859375 0.84375 2.3125q0 1.3125 -0.53125 2.4375q-0.53125 1.125 -1.515625 1.734375q-0.96875 0.59375 -2.046875 0.59375q-0.890625 0 -1.625 -0.375q-0.71875 -0.390625 -1.109375 -1.078125q-0.375 -0.6875 -0.375 -1.609375zm1.296875 -0.125q0 1.078125 0.515625 1.640625q0.515625 0.546875 1.296875 0.546875q0.421875 0 0.828125 -0.171875q0.40625 -0.171875 0.75 -0.515625q0.359375 -0.34375 0.609375 -0.78125q0.25 -0.4375 0.390625 -0.9375q0.234375 -0.71875 0.234375 -1.359375q0 -1.03125 -0.53125 -1.59375q-0.515625 -0.578125 -1.296875 -0.578125q-0.609375 0 -1.109375 0.296875q-0.5 0.28125 -0.90625 0.84375q-0.40625 0.546875 -0.59375 1.296875q-0.1875 0.734375 -0.1875 1.3125zm8.072998 3.015625l-0.796875 -7.59375l1.25 0l0.34375 3.40625l0.125 1.921875q0.015625 0.21875 0.046875 0.859375q0.21875 -0.71875 0.359375 -1.109375q0.15625 -0.390625 0.484375 -1.125l1.8125 -3.953125l1.40625 0l0.25 3.796875q0.0625 0.859375 0.078125 2.3125q0.359375 -0.96875 1.15625 -2.671875l1.640625 -3.4375l1.296875 0l-3.71875 7.59375l-1.34375 0l-0.28125 -4.453125q-0.03125 -0.421875 -0.046875 -1.625q-0.296875 0.765625 -0.703125 1.65625l-2.0 4.421875l-1.359375 0zm9.131134 0l1.59375 -7.59375l1.171875 0l-0.28125 1.3125q0.765625 -0.78125 1.421875 -1.125q0.671875 -0.359375 1.375 -0.359375q0.921875 0 1.4375 0.5q0.53125 0.5 0.53125 1.328125q0 0.421875 -0.1875 1.34375l-0.96875 4.59375l-1.296875 0l1.015625 -4.8125q0.15625 -0.703125 0.15625 -1.046875q0 -0.375 -0.265625 -0.609375q-0.265625 -0.234375 -0.75 -0.234375q-1.0 0 -1.78125 0.71875q-0.765625 0.703125 -1.140625 2.453125l-0.734375 3.53125l-1.296875 0zm13.729248 -2.578125l1.265625 0.125q-0.265625 0.9375 -1.25 1.78125q-0.96875 0.84375 -2.328125 0.84375q-0.84375 0 -1.546875 -0.390625q-0.703125 -0.390625 -1.078125 -1.125q-0.359375 -0.75 -0.359375 -1.703125q0 -1.25 0.5625 -2.421875q0.578125 -1.171875 1.5 -1.734375q0.921875 -0.5625 1.984375 -0.5625q1.359375 0 2.171875 0.84375q0.8125 0.84375 0.8125 2.296875q0 0.5625 -0.109375 1.140625l-5.59375 0q-0.03125 0.234375 -0.03125 0.40625q0 1.0625 0.484375 1.625q0.5 0.5625 1.203125 0.5625q0.671875 0 1.3125 -0.4375q0.640625 -0.4375 1.0 -1.25zm-3.765625 -1.890625l4.265625 0q0.015625 -0.203125 0.015625 -0.28125q0 -0.96875 -0.484375 -1.484375q-0.484375 -0.53125 -1.25 -0.53125q-0.84375 0 -1.53125 0.578125q-0.671875 0.5625 -1.015625 1.71875zm6.3385925 4.46875l1.59375 -7.59375l1.140625 0l-0.328125 1.546875q0.59375 -0.875 1.15625 -1.296875q0.5625 -0.421875 1.15625 -0.421875q0.375 0 0.9375 0.265625l-0.515625 1.203125q-0.34375 -0.234375 -0.75 -0.234375q-0.671875 0 -1.390625 0.765625q-0.71875 0.75 -1.125 2.71875l-0.640625 3.046875l-1.234375 0z" fill-rule="nonzero"/><path fill="#000000" fill-opacity="0.0" d="m125.337326 6.881461l41.51181 0l0 89.70078l-41.51181 0z" fill-rule="evenodd"/><path fill="#000000" d="m138.9834 59.411858l5.90625 -7.953125l-5.203125 -7.3125l2.40625 0l2.765625 3.921875q0.859375 1.203125 1.234375 1.859375q0.5 -0.828125 1.203125 -1.734375l3.0625 -4.046875l2.203125 0l-5.359375 7.1875l5.78125 8.078125l-2.5 0l-3.84375 -5.453125q-0.328125 -0.46875 -0.671875 -1.015625q-0.5 0.828125 -0.71875 1.140625l-3.84375 5.328125l-2.421875 0z" fill-rule="nonzero"/><path fill="#000000" fill-opacity="0.0" d="m233.39256 6.881461l38.267715 0l0 89.70078l-38.267715 0z" fill-rule="evenodd"/><path fill="#000000" d="m259.99817 49.783104l-15.124985 0l0 -2.625l15.124985 0l0 2.625zm0 6.953125l-15.124985 0l0 -2.625l15.124985 0l0 2.625z" fill-rule="nonzero"/><path fill="#000000" fill-opacity="0.0" d="m0.37847376 53.41427l119.74803 0l0 50.23622l-119.74803 0z" fill-rule="evenodd"/><path fill="#000000" d="m21.242704 75.01238l0 -7.59375l1.15625 0l0 1.140625q0.453125 -0.796875 0.828125 -1.046875q0.375 -0.265625 0.8125 -0.265625q0.65625 0 1.328125 0.40625l-0.4375 1.203125q-0.46875 -0.28125 -0.953125 -0.28125q-0.421875 0 -0.765625 0.25q-0.328125 0.25 -0.46875 0.703125q-0.21875 0.6875 -0.21875 1.5l0 3.984375l-1.28125 0zm10.099396 -2.453125l1.3281269 0.171875q-0.3125 1.171875 -1.1718769 1.8125q-0.84375 0.640625 -2.171875 0.640625q-1.671875 0 -2.65625 -1.015625q-0.96875 -1.03125 -0.96875 -2.890625q0 -1.921875 0.984375 -2.96875q1.0 -1.0625 2.578125 -1.0625q1.515625 0 2.484375 1.03125q0.9687519 1.03125 0.9687519 2.921875q0 0.109375 -0.015625 0.34375l-5.656252 0q0.0625 1.25 0.703125 1.921875q0.640625 0.65625 1.59375 0.65625q0.703125 0 1.203125 -0.359375q0.5 -0.375 0.796875 -1.203125zm-4.234375 -2.078125l4.25 0q-0.09375 -0.953125 -0.484375 -1.4375q-0.625 -0.75 -1.609375 -0.75q-0.875 0 -1.484375 0.59375q-0.609375 0.59375 -0.671875 1.59375zm12.135485 1.75l1.265625 0.15625q-0.203125 1.3125 -1.0625 2.0625q-0.84375 0.734375 -2.09375 0.734375q-1.5625 0 -2.515625 -1.015625q-0.9375 -1.03125 -0.9375 -2.921875q0 -1.234375 0.40625 -2.15625q0.40625 -0.921875 1.234375 -1.375q0.84375 -0.46875 1.8125 -0.46875q1.25 0 2.03125 0.625q0.78125 0.625 1.015625 1.765625l-1.265625 0.203125q-0.171875 -0.765625 -0.625 -1.15625q-0.453125 -0.390625 -1.09375 -0.390625q-0.984375 0 -1.59375 0.703125q-0.609375 0.703125 -0.609375 2.203125q0 1.53125 0.578125 2.234375q0.59375 0.6875 1.546875 0.6875q0.75 0 1.265625 -0.453125q0.515625 -0.46875 0.640625 -1.4375zm1.890625 -1.015625q0 -2.109375 1.171875 -3.125q0.984375 -0.84375 2.390625 -0.84375q1.578125 0 2.5625 1.03125q1.0 1.015625 1.0 2.828125q0 1.46875 -0.4375 2.3125q-0.4375 0.828125 -1.28125 1.296875q-0.84375 0.46875 -1.84375 0.46875q-1.59375 0 -2.578125 -1.015625q-0.984375 -1.03125 -0.984375 -2.953125zm1.328125 0q0 1.453125 0.625 2.1875q0.640625 0.71875 1.609375 0.71875q0.96875 0 1.59375 -0.71875q0.640625 -0.734375 0.640625 -2.234375q0 -1.40625 -0.640625 -2.125q-0.640625 -0.734375 -1.59375 -0.734375q-0.96875 0 -1.609375 0.71875q-0.625 0.71875 -0.625 2.1875zm7.072983 4.421875l1.25 0.1875q0.078125 0.578125 0.4375 0.84375q0.46875 0.359375 1.3125 0.359375q0.890625 0 1.375 -0.359375q0.484375 -0.359375 0.65625 -1.0q0.109375 -0.390625 0.09375 -1.65625q-0.84375 1.0 -2.109375 1.0q-1.5625 0 -2.421875 -1.125q-0.859375 -1.140625 -0.859375 -2.71875q0 -1.09375 0.390625 -2.0q0.40625 -0.921875 1.140625 -1.421875q0.75 -0.5 1.765625 -0.5q1.34375 0 2.21875 1.078125l0 -0.90625l1.1875 0l0 6.5625q0 1.78125 -0.359375 2.515625q-0.359375 0.734375 -1.15625 1.15625q-0.78125 0.4375 -1.921875 0.4375q-1.359375 0 -2.203125 -0.609375q-0.828125 -0.609375 -0.796875 -1.84375zm1.0625 -4.5625q0 1.5 0.59375 2.1875q0.59375 0.6875 1.484375 0.6875q0.890625 0 1.484375 -0.6875q0.609375 -0.6875 0.609375 -2.140625q0 -1.390625 -0.625 -2.09375q-0.609375 -0.71875 -1.484375 -0.71875q-0.859375 0 -1.46875 0.703125q-0.59375 0.6875 -0.59375 2.0625zm7.322983 3.9375l0 -7.59375l1.15625 0l0 1.078125q0.84375 -1.25 2.421875 -1.25q0.6875 0 1.265625 0.25q0.578125 0.234375 0.859375 0.640625q0.28125 0.40625 0.40625 0.953125q0.0625 0.359375 0.0625 1.25l0 4.671875l-1.28125 0l0 -4.625q0 -0.78125 -0.15625 -1.171875q-0.15625 -0.390625 -0.546875 -0.625q-0.375 -0.234375 -0.890625 -0.234375q-0.8125 0 -1.421875 0.53125q-0.59375 0.515625 -0.59375 1.96875l0 4.15625l-1.28125 0zm8.1511 -9.015625l0 -1.46875l1.296875 0l0 1.46875l-1.296875 0zm0 9.015625l0 -7.59375l1.296875 0l0 7.59375l-1.296875 0zm6.0686493 -1.15625l0.1875 1.140625q-0.546875 0.109375 -0.984375 0.109375q-0.6875 0 -1.078125 -0.21875q-0.390625 -0.21875 -0.546875 -0.578125q-0.15625 -0.359375 -0.15625 -1.515625l0 -4.375l-0.953125 0l0 -1.0l0.953125 0l0 -1.890625l1.28125 -0.765625l0 2.65625l1.296875 0l0 1.0l-1.296875 0l0 4.4375q0 0.546875 0.0625 0.71875q0.078125 0.15625 0.21875 0.25q0.15625 0.078125 0.453125 0.078125q0.203125 0 0.5625 -0.046875zm1.2594757 -7.859375l0 -1.46875l1.296875 0l0 1.46875l-1.296875 0zm0 9.015625l0 -7.59375l1.296875 0l0 7.59375l-1.296875 0zm2.7717743 -3.796875q0 -2.109375 1.171875 -3.125q0.984375 -0.84375 2.390625 -0.84375q1.578125 0 2.5625 1.03125q1.0 1.015625 1.0 2.828125q0 1.46875 -0.4375 2.3125q-0.4375 0.828125 -1.28125 1.296875q-0.84375 0.46875 -1.84375 0.46875q-1.59375 0 -2.578125 -1.015625q-0.984375 -1.03125 -0.984375 -2.953125zm1.328125 0q0 1.453125 0.625 2.1875q0.640625 0.71875 1.609375 0.71875q0.96875 0 1.59375 -0.71875q0.640625 -0.734375 0.640625 -2.234375q0 -1.40625 -0.640625 -2.125q-0.640625 -0.734375 -1.59375 -0.734375q-0.96875 0 -1.609375 0.71875q-0.625 0.71875 -0.625 2.1875zm7.307358 3.796875l0 -7.59375l1.15625 0l0 1.078125q0.84375 -1.25 2.421875 -1.25q0.6875 0 1.265625 0.25q0.578125 0.234375 0.859375 0.640625q0.28125 0.40625 0.40625 0.953125q0.0625 0.359375 0.0625 1.25l0 4.671875l-1.28125 0l0 -4.625q0 -0.78125 -0.15625 -1.171875q-0.15625 -0.390625 -0.546875 -0.625q-0.375 -0.234375 -0.890625 -0.234375q-0.8125 0 -1.421875 0.53125q-0.59375 0.515625 -0.59375 1.96875l0 4.15625l-1.28125 0zm7.635483 -2.265625l1.265625 -0.203125q0.109375 0.765625 0.59375 1.171875q0.5 0.40625 1.375 0.40625q0.890625 0 1.3125 -0.359375q0.4375 -0.359375 0.4375 -0.84375q0 -0.4375 -0.375 -0.6875q-0.265625 -0.171875 -1.3125 -0.4375q-1.421875 -0.359375 -1.96875 -0.609375q-0.546875 -0.265625 -0.828125 -0.734375q-0.28125 -0.46875 -0.28125 -1.015625q0 -0.515625 0.21875 -0.9375q0.234375 -0.4375 0.640625 -0.734375q0.296875 -0.21875 0.8125 -0.359375q0.53125 -0.15625 1.125 -0.15625q0.890625 0 1.5625 0.265625q0.671875 0.25 1.0 0.6875q0.328125 0.4375 0.4375 1.171875l-1.25 0.171875q-0.09375 -0.578125 -0.5 -0.90625q-0.40625 -0.34375 -1.15625 -0.34375q-0.890625 0 -1.28125 0.296875q-0.375 0.296875 -0.375 0.6875q0 0.25 0.15625 0.453125q0.15625 0.203125 0.5 0.34375q0.1875 0.078125 1.140625 0.328125q1.359375 0.359375 1.890625 0.59375q0.546875 0.234375 0.859375 0.6875q0.3125 0.4375 0.3125 1.09375q0 0.640625 -0.375 1.21875q-0.375 0.5625 -1.09375 0.875q-0.703125 0.3125 -1.59375 0.3125q-1.484375 0 -2.265625 -0.609375q-0.765625 -0.625 -0.984375 -1.828125z" fill-rule="nonzero"/><path fill="#000000" d="m30.524702 91.565506l-0.21875 1.046875q-0.46875 0.125 -0.90625 0.125q-0.765625 0 -1.21875 -0.375q-0.34375 -0.28125 -0.34375 -0.78125q0 -0.25 0.1875 -1.15625l0.921875 -4.40625l-1.03125 0l0.203125 -1.0l1.03125 0l0.390625 -1.875l1.484375 -0.890625l-0.578125 2.765625l1.265625 0l-0.203125 1.0l-1.265625 0l-0.890625 4.203125q-0.15625 0.796875 -0.15625 0.953125q0 0.234375 0.125 0.359375q0.140625 0.109375 0.4375 0.109375q0.421875 0 0.765625 -0.078125zm1.2751007 -1.84375q0 -2.21875 1.3125019 -3.671875q1.078125 -1.203125 2.828125 -1.203125q1.375 0 2.21875 0.859375q0.84375 0.859375 0.84375 2.3125q0 1.3125 -0.53125 2.4375q-0.53125 1.125 -1.515625 1.734375q-0.96875 0.59375 -2.046875 0.59375q-0.890625 0 -1.625 -0.375q-0.71875 -0.390625 -1.109375 -1.078125q-0.3750019 -0.6875 -0.3750019 -1.609375zm1.2968769 -0.125q0 1.078125 0.515625 1.640625q0.515625 0.546875 1.296875 0.546875q0.421875 0 0.828125 -0.171875q0.40625 -0.171875 0.75 -0.515625q0.359375 -0.34375 0.609375 -0.78125q0.25 -0.4375 0.390625 -0.9375q0.234375 -0.71875 0.234375 -1.359375q0 -1.03125 -0.53125 -1.59375q-0.515625 -0.578125 -1.296875 -0.578125q-0.609375 0 -1.109375 0.296875q-0.5 0.28125 -0.90625 0.84375q-0.40625 0.546875 -0.59375 1.296875q-0.1875 0.734375 -0.1875 1.3125zm9.651108 1.96875l-0.21875 1.046875q-0.46875 0.125 -0.90625 0.125q-0.765625 0 -1.21875 -0.375q-0.34375 -0.28125 -0.34375 -0.78125q0 -0.25 0.1875 -1.15625l0.921875 -4.40625l-1.03125 0l0.203125 -1.0l1.03125 0l0.390625 -1.875l1.484375 -0.890625l-0.578125 2.765625l1.265625 0l-0.203125 1.0l-1.265625 0l-0.890625 4.203125q-0.15625 0.796875 -0.15625 0.953125q0 0.234375 0.125 0.359375q0.140625 0.109375 0.4375 0.109375q0.421875 0 0.765625 -0.078125zm6.1657257 0.109375q-0.671875 0.578125 -1.296875 0.84375q-0.625 0.265625 -1.328125 0.265625q-1.046875 0 -1.703125 -0.609375q-0.640625 -0.625 -0.640625 -1.59375q0 -0.640625 0.28125 -1.125q0.296875 -0.5 0.78125 -0.796875q0.484375 -0.296875 1.171875 -0.421875q0.4375 -0.078125 1.65625 -0.125q1.21875 -0.0625 1.75 -0.265625q0.15625 -0.53125 0.15625 -0.875q0 -0.453125 -0.328125 -0.71875q-0.453125 -0.359375 -1.328125 -0.359375q-0.8125 0 -1.328125 0.375q-0.515625 0.359375 -0.75 1.015625l-1.3125 -0.109375q0.40625 -1.125 1.265625 -1.71875q0.875 -0.609375 2.203125 -0.609375q1.40625 0 2.21875 0.671875q0.640625 0.5 0.640625 1.296875q0 0.609375 -0.1875 1.40625l-0.421875 1.890625q-0.203125 0.90625 -0.203125 1.46875q0 0.359375 0.171875 1.03125l-1.3125 0q-0.109375 -0.375 -0.15625 -0.9375zm0.484375 -2.90625q-0.28125 0.09375 -0.59375 0.15625q-0.296875 0.0625 -1.03125 0.125q-1.140625 0.09375 -1.609375 0.25q-0.453125 0.15625 -0.6875 0.5q-0.234375 0.328125 -0.234375 0.734375q0 0.546875 0.375 0.90625q0.375 0.34375 1.0625 0.34375q0.640625 0 1.234375 -0.34375q0.59375 -0.34375 0.9375 -0.953125q0.34375 -0.609375 0.546875 -1.71875zm2.4479828 3.84375l2.1875 -10.484375l1.296875 0l-2.1875 10.484375l-1.296875 0zm7.359375 0.6875l1.296875 0.125q-0.015625 0.4375 0.109375 0.65625q0.125 0.234375 0.390625 0.34375q0.34375 0.15625 0.90625 0.15625q1.171875 0 1.6875 -0.609375q0.34375 -0.40625 0.625 -1.765625l0.125 -0.609375q-1.0 1.015625 -2.140625 1.015625q-1.15625 0 -1.9375 -0.84375q-0.765625 -0.859375 -0.765625 -2.40625q0 -1.28125 0.609375 -2.34375q0.609375 -1.078125 1.453125 -1.625q0.84375 -0.546875 1.734375 -0.546875q1.4999924 0 2.3124924 1.40625l0.25 -1.234375l1.1875 0l-1.53125 7.328125q-0.25 1.203125 -0.65625 1.875q-0.40625 0.6875 -1.1406174 1.0625q-0.71875 0.375 -1.671875 0.375q-0.90625 0 -1.578125 -0.25q-0.65625 -0.234375 -0.984375 -0.6875q-0.328125 -0.453125 -0.328125 -1.03125q0 -0.1875 0.046875 -0.390625zm1.609375 -4.046875q0 0.78125 0.15625 1.171875q0.203125 0.546875 0.59375 0.84375q0.40625 0.28125 0.890625 0.28125q0.640625 0 1.265625 -0.4375q0.640625 -0.453125 1.0312424 -1.390625q0.390625 -0.9375 0.390625 -1.796875q0 -0.9375 -0.53125 -1.484375q-0.5156174 -0.5625 -1.2812424 -0.5625q-0.46875 0 -0.921875 0.265625q-0.4375 0.25 -0.828125 0.765625q-0.375 0.515625 -0.578125 1.25q-0.1875 0.71875 -0.1875 1.09375zm8.447975 -5.671875l0.3125 -1.453125l1.28125 0l-0.3125 1.453125l-1.28125 0zm-1.890625 9.03125l1.59375 -7.59375l1.296875 0l-1.59375 7.59375l-1.296875 0zm5.2248993 0l-1.25 -7.59375l1.265625 0l0.640625 4.1875q0.109375 0.671875 0.265625 2.234375q0.375 -0.8125 0.953125 -1.859375l2.546875 -4.5625l1.359375 0l-4.34375 7.59375l-1.4375 0zm10.984375 -2.578125l1.265625 0.125q-0.265625 0.9375 -1.25 1.78125q-0.96875 0.84375 -2.328125 0.84375q-0.84375 0 -1.546875 -0.390625q-0.703125 -0.390625 -1.078125 -1.125q-0.359375 -0.75 -0.359375 -1.703125q0 -1.25 0.5625 -2.421875q0.578125 -1.171875 1.5 -1.734375q0.921875 -0.5625 1.984375 -0.5625q1.359375 0 2.171875 0.84375q0.8125 0.84375 0.8125 2.296875q0 0.5625 -0.109375 1.140625l-5.59375 0q-0.03125 0.234375 -0.03125 0.40625q0 1.0625 0.484375 1.625q0.5 0.5625 1.203125 0.5625q0.671875 0 1.3125 -0.4375q0.640625 -0.4375 1.0 -1.25zm-3.765625 -1.890625l4.265625 0q0.015625 -0.203125 0.015625 -0.28125q0 -0.96875 -0.484375 -1.484375q-0.484375 -0.53125 -1.25 -0.53125q-0.84375 0 -1.53125 0.578125q-0.671875 0.5625 -1.015625 1.71875zm6.338608 4.46875l1.59375 -7.59375l1.171875 0l-0.28125 1.3125q0.765625 -0.78125 1.421875 -1.125q0.671875 -0.359375 1.375 -0.359375q0.921875 0 1.4375 0.5q0.53125 0.5 0.53125 1.328125q0 0.421875 -0.1875 1.34375l-0.96875 4.59375l-1.296875 0l1.015625 -4.8125q0.15625 -0.703125 0.15625 -1.046875q0 -0.375 -0.265625 -0.609375q-0.265625 -0.234375 -0.75 -0.234375q-1.0 0 -1.78125 0.71875q-0.765625 0.703125 -1.140625 2.453125l-0.734375 3.53125l-1.296875 0z" fill-rule="nonzero"/><path fill="#000000" fill-opacity="0.0" d="m0.37847376 -0.18678032l119.74803 0l0 50.236217l-119.74803 0z" fill-rule="evenodd"/><path fill="#000000" d="m21.854239 21.411331l0 -7.593749l1.15625 0l0 1.140625q0.453125 -0.796875 0.828125 -1.046875q0.375 -0.265625 0.8125 -0.265625q0.65625 0 1.328125 0.40625l-0.4375 1.203125q-0.46875 -0.28125 -0.953125 -0.28125q-0.421875 0 -0.765625 0.25q-0.328125 0.25 -0.46875 0.703125q-0.21875 0.68749905 -0.21875 1.499999l0 3.984375l-1.28125 0zm10.099396 -2.453125l1.3281269 0.171875q-0.3125 1.171875 -1.171875 1.8125q-0.8437519 0.640625 -2.171877 0.640625q-1.671875 0 -2.65625 -1.015625q-0.96875 -1.03125 -0.96875 -2.890625q0 -1.921874 0.984375 -2.968749q1.0 -1.0625 2.578125 -1.0625q1.515625 0 2.484377 1.03125q0.96875 1.03125 0.96875 2.921874q0 0.109375 -0.015625 0.34375l-5.656252 0q0.0625 1.25 0.703125 1.921875q0.640625 0.65625 1.59375 0.65625q0.703125 0 1.203125 -0.359375q0.5 -0.375 0.796875 -1.203125zm-4.234375 -2.078125l4.25 0q-0.09375 -0.95312405 -0.484375 -1.437499q-0.625 -0.75 -1.609375 -0.75q-0.875 0 -1.484375 0.59375q-0.609375 0.59375 -0.671875 1.593749zm12.135485 1.75l1.265625 0.15625q-0.203125 1.3125 -1.0625 2.0625q-0.84375 0.734375 -2.09375 0.734375q-1.5625 0 -2.515625 -1.015625q-0.9375 -1.03125 -0.9375 -2.921875q0 -1.234375 0.40625 -2.156249q0.40625 -0.921875 1.234375 -1.375q0.84375 -0.46875 1.8125 -0.46875q1.25 0 2.03125 0.625q0.78125 0.625 1.015625 1.765624l-1.265625 0.203125q-0.171875 -0.76562405 -0.625 -1.156249q-0.453125 -0.390625 -1.09375 -0.390625q-0.984375 0 -1.59375 0.703125q-0.609375 0.70312405 -0.609375 2.203124q0 1.53125 0.578125 2.234375q0.59375 0.6875 1.546875 0.6875q0.75 0 1.265625 -0.453125q0.515625 -0.46875 0.640625 -1.4375zm1.890625 -1.015625q0 -2.109374 1.171875 -3.124999q0.984375 -0.84375 2.390625 -0.84375q1.578125 0 2.5625 1.03125q1.0 1.015625 1.0 2.828124q0 1.46875 -0.4375 2.3125q-0.4375 0.828125 -1.28125 1.296875q-0.84375 0.46875 -1.84375 0.46875q-1.59375 0 -2.578125 -1.015625q-0.984375 -1.03125 -0.984375 -2.953125zm1.328125 0q0 1.453125 0.625 2.1875q0.640625 0.71875 1.609375 0.71875q0.96875 0 1.59375 -0.71875q0.640625 -0.734375 0.640625 -2.234375q0 -1.40625 -0.640625 -2.124999q-0.640625 -0.734375 -1.59375 -0.734375q-0.96875 0 -1.609375 0.71875q-0.625 0.71874905 -0.625 2.187499zm7.072983 4.421875l1.25 0.1875q0.078125 0.578125 0.4375 0.84375q0.46875 0.359375 1.3125 0.359375q0.890625 0 1.375 -0.359375q0.484375 -0.359375 0.65625 -1.0q0.109375 -0.390625 0.09375 -1.65625q-0.84375 1.0 -2.109375 1.0q-1.5625 0 -2.421875 -1.125q-0.859375 -1.140625 -0.859375 -2.71875q0 -1.09375 0.390625 -1.999999q0.40625 -0.921875 1.140625 -1.421875q0.75 -0.5 1.765625 -0.5q1.34375 0 2.21875 1.078125l0 -0.90625l1.1875 0l0 6.562499q0 1.78125 -0.359375 2.515625q-0.359375 0.734375 -1.15625 1.15625q-0.78125 0.4375 -1.921875 0.4375q-1.359375 0 -2.203125 -0.609375q-0.828125 -0.609375 -0.796875 -1.84375zm1.0625 -4.5625q0 1.5 0.59375 2.1875q0.59375 0.6875 1.484375 0.6875q0.890625 0 1.484375 -0.6875q0.609375 -0.6875 0.609375 -2.140625q0 -1.390625 -0.625 -2.093749q-0.609375 -0.71875 -1.484375 -0.71875q-0.859375 0 -1.46875 0.703125q-0.59375 0.68749905 -0.59375 2.062499zm7.322983 3.9375l0 -7.593749l1.15625 0l0 1.078125q0.84375 -1.25 2.421875 -1.25q0.6875 0 1.265625 0.25q0.578125 0.234375 0.859375 0.640625q0.28125 0.40625 0.40625 0.953125q0.0625 0.359375 0.0625 1.249999l0 4.671875l-1.28125 0l0 -4.625q0 -0.78125 -0.15625 -1.171874q-0.15625 -0.390625 -0.546875 -0.625q-0.375 -0.234375 -0.890625 -0.234375q-0.8125 0 -1.421875 0.53125q-0.59375 0.515625 -0.59375 1.968749l0 4.15625l-1.28125 0zm8.151108 -9.015624l0 -1.46875l1.296875 0l0 1.46875l-1.296875 0zm0 9.015624l0 -7.593749l1.296875 0l0 7.593749l-1.296875 0zm6.0686493 -1.15625l0.1875 1.140625q-0.546875 0.109375 -0.984375 0.109375q-0.6875 0 -1.078125 -0.21875q-0.390625 -0.21875 -0.546875 -0.578125q-0.15625 -0.359375 -0.15625 -1.515625l0 -4.374999l-0.953125 0l0 -1.0l0.953125 0l0 -1.890625l1.28125 -0.765625l0 2.65625l1.296875 0l0 1.0l-1.296875 0l0 4.437499q0 0.546875 0.0625 0.71875q0.078125 0.15625 0.21875 0.25q0.15625 0.078125 0.453125 0.078125q0.203125 0 0.5625 -0.046875zm1.2594757 -7.859374l0 -1.46875l1.296875 0l0 1.46875l-1.296875 0zm0 9.015624l0 -7.593749l1.296875 0l0 7.593749l-1.296875 0zm2.7717743 -3.796875q0 -2.109374 1.171875 -3.124999q0.984375 -0.84375 2.390625 -0.84375q1.578125 0 2.5625 1.03125q1.0 1.015625 1.0 2.828124q0 1.46875 -0.4375 2.3125q-0.4375 0.828125 -1.28125 1.296875q-0.84375 0.46875 -1.84375 0.46875q-1.59375 0 -2.578125 -1.015625q-0.984375 -1.03125 -0.984375 -2.953125zm1.328125 0q0 1.453125 0.625 2.1875q0.640625 0.71875 1.609375 0.71875q0.96875 0 1.59375 -0.71875q0.640625 -0.734375 0.640625 -2.234375q0 -1.40625 -0.640625 -2.124999q-0.640625 -0.734375 -1.59375 -0.734375q-0.96875 0 -1.609375 0.71875q-0.625 0.71874905 -0.625 2.187499zm7.307358 3.796875l0 -7.593749l1.15625 0l0 1.078125q0.84375 -1.25 2.421875 -1.25q0.6875 0 1.265625 0.25q0.578125 0.234375 0.859375 0.640625q0.28125 0.40625 0.40625 0.953125q0.0625 0.359375 0.0625 1.249999l0 4.671875l-1.28125 0l0 -4.625q0 -0.78125 -0.15625 -1.171874q-0.15625 -0.390625 -0.546875 -0.625q-0.375 -0.234375 -0.890625 -0.234375q-0.8125 0 -1.421875 0.53125q-0.59375 0.515625 -0.59375 1.968749l0 4.15625l-1.28125 0zm7.635483 -2.265625l1.265625 -0.203125q0.109375 0.765625 0.59375 1.171875q0.5 0.40625 1.375 0.40625q0.890625 0 1.3125 -0.359375q0.4375 -0.359375 0.4375 -0.84375q0 -0.4375 -0.375 -0.6875q-0.265625 -0.171875 -1.3125 -0.4375q-1.421875 -0.359375 -1.96875 -0.609375q-0.546875 -0.265625 -0.828125 -0.734375q-0.28125 -0.46875 -0.28125 -1.015624q0 -0.515625 0.21875 -0.9375q0.234375 -0.4375 0.640625 -0.734375q0.296875 -0.21875 0.8125 -0.359375q0.53125 -0.15625 1.125 -0.15625q0.890625 0 1.5625 0.265625q0.671875 0.25 1.0 0.6875q0.328125 0.4375 0.4375 1.171875l-1.25 0.171875q-0.09375 -0.578125 -0.5 -0.90625q-0.40625 -0.34375 -1.15625 -0.34375q-0.890625 0 -1.28125 0.296875q-0.375 0.296875 -0.375 0.6875q0 0.25 0.15625 0.45312405q0.15625 0.203125 0.5 0.34375q0.1875 0.078125 1.140625 0.328125q1.359375 0.359375 1.890625 0.59375q0.546875 0.234375 0.859375 0.6875q0.3125 0.4375 0.3125 1.09375q0 0.640625 -0.375 1.21875q-0.375 0.5625 -1.09375 0.875q-0.703125 0.3125 -1.59375 0.3125q-1.484375 0 -2.265625 -0.609375q-0.765625 -0.625 -0.984375 -1.828125z" fill-rule="nonzero"/><path fill="#000000" d="m17.492292 41.917583l2.203125 -10.500002l1.1875 0l-0.21875 1.0468769q0.671875 -0.6875019 1.1875 -0.9531269q0.53125 -0.265625 1.125 -0.265625q1.078125 0 1.796875 0.7968769q0.71875 0.78125 0.71875 2.25q0 1.1875 -0.390625 2.171875q-0.390625 0.96875 -0.96875 1.5625q-0.578125 0.59375 -1.171875 0.875q-0.578125 0.28125 -1.1875 0.28125q-1.375 0 -2.125 -1.390625l-0.859375 4.125l-1.296875 0zm2.5625 -6.015625q0 0.859375 0.125 1.1875q0.1875 0.46875 0.59375 0.75q0.40625 0.28125 0.9375 0.28125q1.125 0 1.8125 -1.25q0.6875 -1.265625 0.6875 -2.5625q0 -0.96875 -0.46875 -1.5q-0.46875 -0.53125 -1.15625 -0.53125q-0.484375 0 -0.90625 0.265625q-0.421875 0.265625 -0.78125 0.78125q-0.359375 0.515625 -0.609375 1.265625q-0.234375 0.75 -0.234375 1.3125zm11.807358 0.53125l1.2656269 0.125q-0.265625 0.9375 -1.2500019 1.78125q-0.96875 0.84375 -2.328125 0.84375q-0.84375 0 -1.546875 -0.390625q-0.703125 -0.390625 -1.078125 -1.125q-0.359375 -0.75 -0.359375 -1.703125q0 -1.25 0.5625 -2.421875q0.578125 -1.171875 1.5 -1.7343769q0.921875 -0.5625 1.984375 -0.5625q1.359375 0 2.171877 0.8437519q0.8125 0.84375 0.8125 2.296875q0 0.5625 -0.109375 1.140625l-5.593752 0q-0.03125 0.234375 -0.03125 0.40625q0 1.0625 0.484375 1.625q0.5 0.5625 1.203125 0.5625q0.671875 0 1.3125 -0.4375q0.640625 -0.4375 1.0 -1.25zm-3.765625 -1.890625l4.265627 0q0.015625 -0.203125 0.015625 -0.28125q0 -0.96875 -0.4843769 -1.484375q-0.484375 -0.53125 -1.25 -0.53125q-0.84375 0 -1.53125 0.578125q-0.671875 0.5625 -1.015625 1.71875zm6.3386097 4.46875l1.59375 -7.593752l1.140625 0l-0.328125 1.5468769q0.59375 -0.875 1.15625 -1.2968769q0.5625 -0.421875 1.15625 -0.421875q0.375 0 0.9375 0.265625l-0.515625 1.2031269q-0.34375 -0.234375 -0.75 -0.234375q-0.671875 0 -1.390625 0.765625q-0.71875 0.75 -1.125 2.71875l-0.640625 3.046875l-1.234375 0zm14.202621 -2.765625l1.296875 0.125q-0.484375 1.4375 -1.390625 2.125q-0.890625 0.6875 -2.046875 0.6875q-1.234375 0 -2.0 -0.796875q-0.765625 -0.8125 -0.765625 -2.25q0 -1.234375 0.484375 -2.4375q0.5 -1.203125 1.421875 -1.8281269q0.921875 -0.625 2.09375 -0.625q1.21875 0 1.9375 0.6875q0.71875 0.6875019 0.71875 1.8281269l-1.265625 0.078125q-0.015625 -0.71875 -0.4375 -1.125q-0.40625 -0.40625 -1.078125 -0.40625q-0.78125 0 -1.359375 0.5q-0.5625 0.484375 -0.890625 1.5q-0.328125 1.0 -0.328125 1.921875q0 0.984375 0.421875 1.46875q0.4375 0.484375 1.078125 0.484375q0.625 0 1.203125 -0.484375q0.578125 -0.484375 0.90625 -1.453125zm2.3125 -0.125q0 -2.21875 1.3125 -3.671875q1.078125 -1.2031269 2.828125 -1.2031269q1.375 0 2.21875 0.8593769q0.84375 0.859375 0.84375 2.3125q0 1.3125 -0.53125 2.4375q-0.53125 1.125 -1.515625 1.734375q-0.96875 0.59375 -2.046875 0.59375q-0.890625 0 -1.625 -0.375q-0.71875 -0.390625 -1.109375 -1.078125q-0.375 -0.6875 -0.375 -1.609375zm1.296875 -0.125q0 1.078125 0.515625 1.640625q0.515625 0.546875 1.296875 0.546875q0.421875 0 0.828125 -0.171875q0.40625 -0.171875 0.75 -0.515625q0.359375 -0.34375 0.609375 -0.78125q0.25 -0.4375 0.390625 -0.9375q0.234375 -0.71875 0.234375 -1.359375q0 -1.03125 -0.53125 -1.59375q-0.515625 -0.578125 -1.296875 -0.578125q-0.609375 0 -1.109375 0.296875q-0.5 0.28125 -0.90625 0.84375q-0.40625 0.546875 -0.59375 1.296875q-0.1875 0.734375 -0.1875 1.3125zm6.822983 -0.140625l0.265625 -1.28125l3.953125 0l-0.265625 1.28125l-3.953125 0zm4.9118958 0.265625q0 -2.21875 1.3124924 -3.671875q1.078125 -1.2031269 2.828125 -1.2031269q1.375 0 2.21875 0.8593769q0.84375 0.859375 0.84375 2.3125q0 1.3125 -0.53125 2.4375q-0.53125 1.125 -1.515625 1.734375q-0.96875 0.59375 -2.046875 0.59375q-0.890625 0 -1.625 -0.375q-0.71875 -0.390625 -1.1093674 -1.078125q-0.375 -0.6875 -0.375 -1.609375zm1.2968674 -0.125q0 1.078125 0.515625 1.640625q0.515625 0.546875 1.296875 0.546875q0.421875 0 0.828125 -0.171875q0.40625 -0.171875 0.75 -0.515625q0.359375 -0.34375 0.609375 -0.78125q0.25 -0.4375 0.390625 -0.9375q0.234375 -0.71875 0.234375 -1.359375q0 -1.03125 -0.53125 -1.59375q-0.515625 -0.578125 -1.296875 -0.578125q-0.609375 0 -1.109375 0.296875q-0.5 0.28125 -0.90625 0.84375q-0.40625 0.546875 -0.59375 1.296875q-0.1875 0.734375 -0.1875 1.3125zm8.072983 3.015625l-0.796875 -7.593752l1.25 0l0.34375 3.406252l0.125 1.921875q0.015625 0.21875 0.046875 0.859375q0.21875 -0.71875 0.359375 -1.109375q0.15625 -0.390625 0.484375 -1.125l1.8125 -3.953127l1.40625 0l0.25 3.796877q0.0625 0.859375 0.078125 2.3125q0.359375 -0.96875 1.15625 -2.671875l1.640625 -3.437502l1.296875 0l-3.71875 7.593752l-1.34375 0l-0.28125 -4.453125q-0.03125 -0.421875 -0.046875 -1.625q-0.296875 0.765625 -0.703125 1.65625l-2.0 4.421875l-1.359375 0zm9.131149 0l1.59375 -7.593752l1.171875 0l-0.28125 1.3125019q0.765625 -0.7812519 1.421875 -1.1250019q0.671875 -0.359375 1.375 -0.359375q0.921875 0 1.4375 0.5q0.53125 0.5000019 0.53125 1.3281269q0 0.421875 -0.1875 1.34375l-0.96875 4.59375l-1.296875 0l1.015625 -4.8125q0.15625 -0.703125 0.15625 -1.046875q0 -0.375 -0.265625 -0.609375q-0.265625 -0.234375 -0.75 -0.234375q-1.0 0 -1.78125 0.71875q-0.765625 0.703125 -1.140625 2.453125l-0.734375 3.53125l-1.296875 0zm13.729233 -2.578125l1.265625 0.125q-0.265625 0.9375 -1.25 1.78125q-0.96875 0.84375 -2.328125 0.84375q-0.84375 0 -1.546875 -0.390625q-0.703125 -0.390625 -1.078125 -1.125q-0.359375 -0.75 -0.359375 -1.703125q0 -1.25 0.5625 -2.421875q0.578125 -1.171875 1.5 -1.7343769q0.921875 -0.5625 1.984375 -0.5625q1.359375 0 2.171875 0.8437519q0.8125 0.84375 0.8125 2.296875q0 0.5625 -0.109375 1.140625l-5.59375 0q-0.03125 0.234375 -0.03125 0.40625q0 1.0625 0.484375 1.625q0.5 0.5625 1.203125 0.5625q0.671875 0 1.3125 -0.4375q0.640625 -0.4375 1.0 -1.25zm-3.765625 -1.890625l4.265625 0q0.015625 -0.203125 0.015625 -0.28125q0 -0.96875 -0.484375 -1.484375q-0.484375 -0.53125 -1.25 -0.53125q-0.84375 0 -1.53125 0.578125q-0.671875 0.5625 -1.015625 1.71875zm6.338608 4.46875l1.59375 -7.593752l1.140625 0l-0.328125 1.5468769q0.59375 -0.875 1.15625 -1.2968769q0.5625 -0.421875 1.15625 -0.421875q0.375 0 0.9375 0.265625l-0.515625 1.2031269q-0.34375 -0.234375 -0.75 -0.234375q-0.671875 0 -1.390625 0.765625q-0.71875 0.75 -1.125 2.71875l-0.640625 3.046875l-1.234375 0z" fill-rule="nonzero"/><path fill="#000000" fill-opacity="0.0" d="m0.37847376 51.731853l119.74803 0" fill-rule="evenodd"/><path stroke="#000000" stroke-width="1.0" stroke-linejoin="round" stroke-linecap="butt" d="m0.37847376 51.731853l119.74803 0" fill-rule="evenodd"/></g></svg>