<svg version="1.1" viewBox="0.0 0.0 218.53805774278214 501.20472440944883" fill="none" stroke="none" stroke-linecap="square" stroke-miterlimit="10" xmlns:xlink="http://www.w3.org/1999/xlink" xmlns="http://www.w3.org/2000/svg"><clipPath id="p.0"><path d="m0 0l218.53806 0l0 501.2047l-218.53806 0l0 -501.2047z" clip-rule="nonzero"/></clipPath><g clip-path="url(#p.0)"><path fill="#000000" fill-opacity="0.0" d="m0 0l218.53806 0l0 501.2047l-218.53806 0z" fill-rule="evenodd"/><path fill="#ffffff" d="m2.311342 35.50202l0 0c0 -19.607225 15.894796 -35.50202 35.502026 -35.50202l142.00383 0l0 0c9.41571 0 18.4458 3.740381 25.103714 10.398302c6.6579285 6.657921 10.3983 15.687998 10.3983 25.10372l0 257.78336c0 19.607239 -15.894791 35.502045 -35.502014 35.502045l-142.00383 0c-19.607227 0 -35.502026 -15.894806 -35.502026 -35.502045z" fill-rule="evenodd"/><path stroke="#000000" stroke-width="1.0" stroke-linejoin="round" stroke-linecap="butt" d="m2.311342 35.50202l0 0c0 -19.607225 15.894796 -35.50202 35.502026 -35.50202l142.00383 0l0 0c9.41571 0 18.4458 3.740381 25.103714 10.398302c6.6579285 6.657921 10.3983 15.687998 10.3983 25.10372l0 257.78336c0 19.607239 -15.894791 35.502045 -35.502014 35.502045l-142.00383 0c-19.607227 0 -35.502026 -15.894806 -35.502026 -35.502045z" fill-rule="evenodd"/><g filter="url(#shadowFilter-p.1)"><use xlink:href="#p.1" transform="matrix(1.0 0.0 0.0 1.0 0.0 2.0)"/></g><defs><filter id="shadowFilter-p.1" filterUnits="userSpaceOnUse"><feGaussianBlur in="SourceAlpha" stdDeviation="2.0" result="blur"/><feComponentTransfer in="blur" color-interpolation-filters="sRGB"><feFuncR type="linear" slope="0" intercept="0.0"/><feFuncG type="linear" slope="0" intercept="0.0"/><feFuncB type="linear" slope="0" intercept="0.0"/><feFuncA type="linear" slope="0.5" intercept="0"/></feComponentTransfer></filter></defs><g id="p.1"><path fill="#6aa84f" d="m18.065348 40.84831l0 0c0 -12.846315 10.413994 -23.26031 23.26031 -23.26031l133.73135 0c6.1690216 0 12.085373 2.450632 16.447525 6.812786c4.362152 4.362154 6.81279 10.278505 6.81279 16.447523l0 93.03844c0 12.846313 -10.414001 23.2603 -23.260315 23.2603l-133.73135 0l0 0c-12.846315 0 -23.26031 -10.413986 -23.26031 -23.2603z" fill-rule="evenodd"/></g><path fill="#fff2cc" d="m63.850273 87.625885l0 0c0 -24.483177 19.847534 -44.33071 44.330704 -44.33071l0 0c11.75724 0 23.03292 4.6705437 31.34655 12.984165c8.313614 8.313618 12.984161 19.589314 12.984161 31.346546l0 0c0 24.48317 -19.847534 44.330704 -44.33071 44.330704l0 0c-24.48317 0 -44.330704 -19.847534 -44.330704 -44.330704z" fill-rule="evenodd"/><path fill="#000000" d="m105.52473 103.15964l0 -12.5625l-12.46875 0l0 -5.25l12.46875 0l0 -12.46875l5.3125 0l0 12.46875l12.46875 0l0 5.25l-12.46875 0l0 12.5625l-5.3125 0z" fill-rule="nonzero"/><path fill="#000000" fill-opacity="0.0" d="m63.850273 86.94198l0 0c0 -24.483177 19.847534 -44.33071 44.330704 -44.33071l0 0c11.75724 0 23.03292 4.6705437 31.34655 12.984165c8.313614 8.3136215 12.984161 19.589306 12.984161 31.346546l0 0c0 24.48317 -19.847534 44.33071 -44.33071 44.33071l0 0c-24.48317 0 -44.330704 -19.847542 -44.330704 -44.33071z" fill-rule="evenodd"/><path stroke="#000000" stroke-width="1.0" stroke-linejoin="round" stroke-linecap="butt" d="m63.850273 86.94198l0 0c0 -24.483177 19.847534 -44.33071 44.330704 -44.33071l0 0c11.75724 0 23.03292 4.6705437 31.34655 12.984165c8.313614 8.3136215 12.984161 19.589306 12.984161 31.346546l0 0c0 24.48317 -19.847534 44.33071 -44.33071 44.33071l0 0c-24.48317 0 -44.330704 -19.847542 -44.330704 -44.33071z" fill-rule="evenodd"/><g filter="url(#shadowFilter-p.2)"><use xlink:href="#p.2" transform="matrix(1.0 0.0 0.0 1.0 0.0 2.0)"/></g><defs><filter id="shadowFilter-p.2" filterUnits="userSpaceOnUse"><feGaussianBlur in="SourceAlpha" stdDeviation="2.0" result="blur"/><feComponentTransfer in="blur" color-interpolation-filters="sRGB"><feFuncR type="linear" slope="0" intercept="0.0"/><feFuncG type="linear" slope="0" intercept="0.0"/><feFuncB type="linear" slope="0" intercept="0.0"/><feFuncA type="linear" slope="0.5" intercept="0"/></feComponentTransfer></filter></defs><g id="p.2"><path fill="#ffffff" d="m18.065617 356.9661l0 0c0 -6.0563965 4.909689 -10.966095 10.966099 -10.966095l159.54813 0c2.9083862 0 5.6976624 1.155365 7.754196 3.2118835c2.056549 2.056549 3.2118988 4.845825 3.2118988 7.7542114l0 43.863068c0 6.056427 -4.909683 10.9661255 -10.966095 10.9661255l-159.54813 0c-6.05641 0 -10.966099 -4.9096985 -10.966099 -10.9661255z" fill-rule="evenodd"/><path stroke="#000000" stroke-width="1.0" stroke-linejoin="round" stroke-linecap="butt" d="m18.065617 356.9661l0 0c0 -6.0563965 4.909689 -10.966095 10.966099 -10.966095l159.54813 0c2.9083862 0 5.6976624 1.155365 7.754196 3.2118835c2.056549 2.056549 3.2118988 4.845825 3.2118988 7.7542114l0 43.863068c0 6.056427 -4.909683 10.9661255 -10.966095 10.9661255l-159.54813 0c-6.05641 0 -10.966099 -4.9096985 -10.966099 -10.9661255z" fill-rule="evenodd"/><path fill="#000000" d="m52.558743 368.97952l2.53125 0.34375q-0.40625 2.609375 -2.125 4.09375q-1.71875 1.484375 -4.203125 1.484375q-3.125 0 -5.03125 -2.03125q-1.890625 -2.046875 -1.890625 -5.859375q0 -2.46875 0.8125 -4.3125q0.828125 -1.84375 2.484375 -2.765625q1.671875 -0.921875 3.640625 -0.921875q2.46875 0 4.046875 1.25q1.578125 1.25 2.03125 3.5625l-2.515625 0.375q-0.359375 -1.53125 -1.265625 -2.296875q-0.90625 -0.78125 -2.203125 -0.78125q-1.9375 0 -3.15625 1.40625q-1.21875 1.390625 -1.21875 4.40625q0 3.078125 1.171875 4.46875q1.171875 1.375 3.0625 1.375q1.515625 0 2.53125 -0.921875q1.015625 -0.9375 1.296875 -2.875zm3.7734375 -2.03125q0 -4.21875 2.359375 -6.25q1.953125 -1.6875 4.78125 -1.6875q3.1250038 0 5.109379 2.0625q2.0 2.046875 2.0 5.671875q0 2.921875 -0.875 4.609375q-0.875 1.6875 -2.5625 2.625q-1.6875 0.921875 -3.6718788 0.921875q-3.203125 0 -5.171875 -2.046875q-1.96875 -2.046875 -1.96875 -5.90625zm2.65625 0q0 2.921875 1.265625 4.375q1.28125 1.453125 3.21875 1.453125q1.9218788 0 3.1875038 -1.453125q1.28125 -1.46875 1.28125 -4.453125q0 -2.828125 -1.28125 -4.28125q-1.28125 -1.453125 -3.1875038 -1.453125q-1.9375 0 -3.21875 1.453125q-1.265625 1.4375 -1.265625 4.359375zm14.623417 7.609375l0 -15.203125l2.296875 0l0 2.125q0.71875 -1.109375 1.90625 -1.78125q1.1875 -0.6875 2.703125 -0.6875q1.703125 0 2.78125 0.703125q1.078125 0.6875 1.515625 1.953125q1.8125 -2.65625 4.703125 -2.65625q2.265625 0 3.484375 1.25q1.21875 1.25 1.21875 3.859375l0 10.4375l-2.5625 0l0 -9.578125q0 -1.546875 -0.265625 -2.21875q-0.25 -0.6875 -0.90625 -1.09375q-0.65625 -0.421875 -1.546875 -0.421875q-1.59375 0 -2.65625 1.0625q-1.0625 1.0625 -1.0625 3.421875l0 8.828125l-2.578125 0l0 -9.875q0 -1.71875 -0.640625 -2.578125q-0.625 -0.859375 -2.046875 -0.859375q-1.09375 0 -2.015625 0.578125q-0.921875 0.5625 -1.34375 1.671875q-0.40625 1.09375 -0.40625 3.171875l0 7.890625l-2.578125 0zm24.430557 0l0 -15.203125l2.296875 0l0 2.125q0.71875 -1.109375 1.90625 -1.78125q1.1875 -0.6875 2.703125 -0.6875q1.703125 0 2.78125 0.703125q1.078125 0.6875 1.515625 1.953125q1.8125 -2.65625 4.703125 -2.65625q2.265625 0 3.484375 1.25q1.21875 1.25 1.21875 3.859375l0 10.4375l-2.5625 0l0 -9.578125q0 -1.546875 -0.265625 -2.21875q-0.25 -0.6875 -0.90625 -1.09375q-0.65625 -0.421875 -1.546875 -0.421875q-1.59375 0 -2.65625 1.0625q-1.0625 1.0625 -1.0625 3.421875l0 8.828125l-2.578125 0l0 -9.875q0 -1.71875 -0.640625 -2.578125q-0.625 -0.859375 -2.046875 -0.859375q-1.09375 0 -2.015625 0.578125q-0.921875 0.5625 -1.34375 1.671875q-0.40625 1.09375 -0.40625 3.171875l0 7.890625l-2.578125 0zm34.836807 -4.890625l2.65625 0.328125q-0.625 2.328125 -2.328125 3.625q-1.703125 1.28125 -4.359375 1.28125q-3.328125 0 -5.28125 -2.046875q-1.953125 -2.0625 -1.953125 -5.765625q0 -3.84375 1.96875 -5.953125q1.984375 -2.125 5.125 -2.125q3.0625 0 4.984375 2.078125q1.9375 2.0625 1.9375 5.84375q0 0.21875 -0.015625 0.671875l-11.34375 0q0.140625 2.515625 1.421875 3.84375q1.28125 1.328125 3.171875 1.328125q1.421875 0 2.421875 -0.734375q1.0 -0.75 1.59375 -2.375zm-8.46875 -4.171875l8.5 0q-0.171875 -1.921875 -0.96875 -2.875q-1.234375 -1.5 -3.203125 -1.5q-1.765625 0 -2.984375 1.1875q-1.203125 1.1875 -1.34375 3.1875zm14.373413 9.0625l0 -15.203125l2.3125 0l0 2.15625q1.671875 -2.5 4.84375 -2.5q1.375 0 2.53125 0.5q1.15625 0.484375 1.71875 1.296875q0.578125 0.796875 0.8125 1.890625q0.140625 0.71875 0.140625 2.515625l0 9.34375l-2.578125 0l0 -9.25q0 -1.578125 -0.3125 -2.359375q-0.296875 -0.78125 -1.0625 -1.234375q-0.765625 -0.46875 -1.796875 -0.46875q-1.640625 0 -2.84375 1.046875q-1.1875 1.03125 -1.1875 3.953125l0 8.3125l-2.578125 0zm21.935913 -2.3125l0.375 2.28125q-1.09375 0.234375 -1.953125 0.234375q-1.40625 0 -2.1875 -0.4375q-0.765625 -0.453125 -1.078125 -1.171875q-0.3125 -0.734375 -0.3125 -3.046875l0 -8.75l-1.890625 0l0 -2.0l1.890625 0l0 -3.765625l2.5625 -1.546875l0 5.3125l2.59375 0l0 2.0l-2.59375 0l0 8.890625q0 1.109375 0.125 1.421875q0.140625 0.3125 0.453125 0.5q0.3125 0.1875 0.890625 0.1875q0.421875 0 1.125 -0.109375zm1.4920502 -2.234375l2.546875 -0.390625q0.21875 1.53125 1.1875 2.34375q0.984375 0.8125 2.75 0.8125q1.78125 0 2.640625 -0.71875q0.859375 -0.71875 0.859375 -1.703125q0 -0.859375 -0.765625 -1.375q-0.53125 -0.34375 -2.640625 -0.859375q-2.828125 -0.71875 -3.921875 -1.234375q-1.09375 -0.53125 -1.671875 -1.453125q-0.5625 -0.921875 -0.5625 -2.046875q0 -1.015625 0.46875 -1.875q0.46875 -0.875 1.265625 -1.453125q0.609375 -0.4375 1.640625 -0.734375q1.046875 -0.3125 2.234375 -0.3125q1.78125 0 3.125 0.515625q1.359375 0.515625 2.0 1.390625q0.65625 0.875 0.890625 2.359375l-2.515625 0.34375q-0.171875 -1.171875 -1.0 -1.828125q-0.8125 -0.671875 -2.3125 -0.671875q-1.78125 0 -2.546875 0.59375q-0.75 0.578125 -0.75 1.375q0 0.5 0.3125 0.90625q0.3125 0.40625 0.984375 0.6875q0.390625 0.140625 2.28125 0.65625q2.734375 0.734375 3.8125 1.203125q1.078125 0.453125 1.6875 1.34375q0.625 0.890625 0.625 2.203125q0 1.296875 -0.75 2.4375q-0.75 1.125 -2.171875 1.75q-1.421875 0.625 -3.203125 0.625q-2.96875 0 -4.53125 -1.234375q-1.546875 -1.234375 -1.96875 -3.65625z" fill-rule="nonzero"/><path fill="#000000" d="m90.55716 396.8895q0 -4.515625 2.421875 -7.0625q2.4375 -2.5625 6.265625 -2.5625q2.515625 0 4.53125 1.203125q2.015625 1.203125 3.0625 3.34375q1.0625 2.140625 1.0625 4.859375q0 2.765625 -1.109375 4.953125q-1.109375 2.171875 -3.15625 3.296875q-2.046875 1.109375 -4.40625 1.109375q-2.5625 0 -4.578125 -1.234375q-2.015625 -1.25 -3.0625 -3.375q-1.03125 -2.140625 -1.03125 -4.53125zm2.484375 0.03125q0 3.28125 1.75 5.171875q1.765625 1.875 4.421875 1.875q2.71875 0 4.46875 -1.890625q1.75 -1.90625 1.75 -5.40625q0 -2.21875 -0.75 -3.859375q-0.75 -1.65625 -2.1875 -2.5625q-1.4375 -0.921875 -3.234375 -0.921875q-2.546875 0 -4.390625 1.75q-1.828125 1.75 -1.828125 5.84375zm17.919785 8.796875l0 -18.125l2.46875 0l9.515625 14.234375l0 -14.234375l2.3125 0l0 18.125l-2.46875 0l-9.515625 -14.25l0 14.25l-2.3125 0z" fill-rule="nonzero"/></g><path fill="#4a86e8" d="m18.065617 437.9248l0 0c0 -6.0563965 4.909689 -10.966095 10.966099 -10.966095l159.54813 0c2.9083862 0 5.6976624 1.155365 7.754196 3.211914c2.056549 2.0565186 3.2118988 4.8457947 3.2118988 7.754181l0 43.8631c0 6.0563965 -4.909683 10.966095 -10.966095 10.966095l-159.54813 0c-6.05641 0 -10.966099 -4.9096985 -10.966099 -10.966095z" fill-rule="evenodd"/><path stroke="#000000" stroke-width="1.0" stroke-linejoin="round" stroke-linecap="butt" d="m18.065617 437.9248l0 0c0 -6.0563965 4.909689 -10.966095 10.966099 -10.966095l159.54813 0c2.9083862 0 5.6976624 1.155365 7.754196 3.211914c2.056549 2.0565186 3.2118988 4.8457947 3.2118988 7.754181l0 43.8631c0 6.0563965 -4.909683 10.966095 -10.966095 10.966095l-159.54813 0c-6.05641 0 -10.966099 -4.9096985 -10.966099 -10.966095z" fill-rule="evenodd"/><path fill="#ffffff" d="m50.352062 444.7976l-3.953125 0.71875q-0.203125 -1.1875 -0.921875 -1.78125q-0.703125 -0.609375 -1.828125 -0.609375q-1.515625 0 -2.40625 1.046875q-0.890625 1.03125 -0.890625 3.46875q0 2.703125 0.90625 3.828125q0.90625 1.109375 2.4375 1.109375q1.15625 0 1.875 -0.640625q0.734375 -0.65625 1.03125 -2.25l3.953125 0.671875q-0.609375 2.71875 -2.359375 4.109375q-1.75 1.390625 -4.6875 1.390625q-3.328125 0 -5.3125 -2.09375q-1.984375 -2.109375 -1.984375 -5.84375q0 -3.765625 1.984375 -5.859375q2.0 -2.09375 5.390625 -2.09375q2.78125 0 4.421875 1.203125q1.640625 1.1875 2.34375 3.625zm2.123413 2.90625q0 -2.015625 0.984375 -3.890625q1.0 -1.875 2.8125 -2.859375q1.8125 -0.984375 4.03125 -0.984375q3.453125 0 5.656254 2.25q2.21875 2.234375 2.21875 5.65625q0 3.4375 -2.234375 5.71875q-2.2187538 2.265625 -5.609379 2.265625q-2.078125 0 -3.984375 -0.9375q-1.890625 -0.953125 -2.890625 -2.78125q-0.984375 -1.828125 -0.984375 -4.4375zm4.125 0.203125q0 2.265625 1.078125 3.46875q1.078125 1.203125 2.640625 1.203125q1.578125 0 2.640625 -1.203125q1.0781288 -1.203125 1.0781288 -3.484375q0 -2.234375 -1.0781288 -3.4375q-1.0625 -1.203125 -2.640625 -1.203125q-1.5625 0 -2.640625 1.203125q-1.078125 1.203125 -1.078125 3.453125zm14.414799 -7.59375l3.71875 0l0 2.078125q1.984375 -2.421875 4.734375 -2.421875q1.46875 0 2.53125 0.609375q1.078125 0.59375 1.765625 1.8125q1.0 -1.21875 2.15625 -1.8125q1.171875 -0.609375 2.484375 -0.609375q1.671875 0 2.828125 0.6875q1.171875 0.671875 1.734375 1.984375q0.421875 0.96875 0.421875 3.15625l0 9.71875l-4.015625 0l0 -8.6875q0 -2.265625 -0.421875 -2.921875q-0.5625 -0.859375 -1.71875 -0.859375q-0.84375 0 -1.59375 0.515625q-0.734375 0.515625 -1.078125 1.515625q-0.328125 0.984375 -0.328125 3.140625l0 7.296875l-4.015625 0l0 -8.328125q0 -2.21875 -0.21875 -2.859375q-0.21875 -0.65625 -0.671875 -0.96875q-0.4375 -0.3125 -1.21875 -0.3125q-0.921875 0 -1.671875 0.5q-0.75 0.5 -1.078125 1.453125q-0.3125 0.9375 -0.3125 3.125l0 7.390625l-4.03125 0l0 -15.203125zm26.077408 0l3.71875 0l0 2.078125q1.984375 -2.421875 4.734375 -2.421875q1.46875 0 2.53125 0.609375q1.078125 0.59375 1.765625 1.8125q1.0 -1.21875 2.15625 -1.8125q1.171875 -0.609375 2.484375 -0.609375q1.671875 0 2.828125 0.6875q1.171875 0.671875 1.734375 1.984375q0.421875 0.96875 0.421875 3.15625l0 9.71875l-4.015625 0l0 -8.6875q0 -2.265625 -0.421875 -2.921875q-0.5625 -0.859375 -1.71875 -0.859375q-0.84375 0 -1.59375 0.515625q-0.734375 0.515625 -1.078125 1.515625q-0.328125 0.984375 -0.328125 3.140625l0 7.296875l-4.015625 0l0 -8.328125q0 -2.21875 -0.21875 -2.859375q-0.21875 -0.65625 -0.671875 -0.96875q-0.4375 -0.3125 -1.21875 -0.3125q-0.921875 0 -1.671875 0.5q-0.75 0.5 -1.078125 1.453125q-0.3125 0.9375 -0.3125 3.125l0 7.390625l-4.03125 0l0 -15.203125zm35.186783 10.359375l4.015625 0.671875q-0.765625 2.203125 -2.4375 3.359375q-1.671875 1.15625 -4.171875 1.15625q-3.96875 0 -5.875 -2.59375q-1.5 -2.078125 -1.5 -5.234375q0 -3.78125 1.96875 -5.921875q1.984375 -2.140625 5.0 -2.140625q3.390625 0 5.34375 2.25q1.96875 2.234375 1.890625 6.859375l-10.078125 0q0.03125 1.78125 0.953125 2.78125q0.9375 1.0 2.328125 1.0q0.953125 0 1.59375 -0.515625q0.640625 -0.515625 0.96875 -1.671875zm0.234375 -4.0625q-0.046875 -1.75 -0.90625 -2.65625q-0.859375 -0.90625 -2.09375 -0.90625q-1.3125 0 -2.171875 0.953125q-0.859375 0.96875 -0.84375 2.609375l6.015625 0zm21.107788 8.90625l-4.015625 0l0 -7.765625q0 -2.453125 -0.265625 -3.171875q-0.25 -0.734375 -0.84375 -1.125q-0.578125 -0.40625 -1.390625 -0.40625q-1.046875 0 -1.875 0.578125q-0.828125 0.5625 -1.140625 1.515625q-0.3125 0.9375 -0.3125 3.484375l0 6.890625l-4.015625 0l0 -15.203125l3.734375 0l0 2.234375q1.984375 -2.578125 5.015625 -2.578125q1.328125 0 2.421875 0.484375q1.109375 0.46875 1.671875 1.21875q0.578125 0.734375 0.796875 1.6875q0.21875 0.9375 0.21875 2.703125l0 9.453125zm11.05542 -15.203125l0 3.203125l-2.75 0l0 6.125q0 1.859375 0.078125 2.171875q0.078125 0.3125 0.359375 0.515625q0.28125 0.1875 0.6875 0.1875q0.546875 0 1.609375 -0.375l0.34375 3.125q-1.40625 0.59375 -3.171875 0.59375q-1.09375 0 -1.96875 -0.359375q-0.875 -0.375 -1.28125 -0.953125q-0.40625 -0.578125 -0.5625 -1.5625q-0.125 -0.703125 -0.125 -2.84375l0 -6.625l-1.859375 0l0 -3.203125l1.859375 0l0 -3.03125l4.03125 -2.34375l0 5.375l2.75 0zm1.3758698 10.859375l4.03125 -0.609375q0.265625 1.171875 1.046875 1.78125q0.796875 0.609375 2.203125 0.609375q1.5625 0 2.359375 -0.578125q0.53125 -0.390625 0.53125 -1.0625q0 -0.46875 -0.296875 -0.765625q-0.296875 -0.28125 -1.34375 -0.53125q-4.859375 -1.078125 -6.171875 -1.953125q-1.796875 -1.234375 -1.796875 -3.4375q0 -1.96875 1.5625 -3.3125q1.5625 -1.34375 4.828125 -1.34375q3.125 0 4.640625 1.015625q1.53125 1.015625 2.09375 3.0l-3.796875 0.703125q-0.234375 -0.890625 -0.921875 -1.359375q-0.671875 -0.46875 -1.9375 -0.46875q-1.59375 0 -2.28125 0.4375q-0.453125 0.3125 -0.453125 0.8125q0 0.4375 0.40625 0.734375q0.53125 0.40625 3.75 1.140625q3.21875 0.71875 4.5 1.78125q1.25 1.078125 1.25 3.0q0 2.09375 -1.75 3.59375q-1.734375 1.5 -5.171875 1.5q-3.09375 0 -4.90625 -1.25q-1.8125 -1.265625 -2.375 -3.4375z" fill-rule="nonzero"/><path fill="#ffffff" d="m84.10631 477.72324q0 -2.765625 0.828125 -4.65625q0.625 -1.375 1.6875 -2.46875q1.078125 -1.109375 2.359375 -1.640625q1.6875 -0.71875 3.90625 -0.71875q4.0 0 6.40625 2.484375q2.40625 2.484375 2.40625 6.90625q0 4.390625 -2.390625 6.875q-2.390625 2.484375 -6.375 2.484375q-4.046875 0 -6.4375 -2.46875q-2.390625 -2.46875 -2.390625 -6.796875zm3.78125 -0.125q0 3.078125 1.421875 4.671875q1.421875 1.59375 3.609375 1.59375q2.1875 0 3.59375 -1.578125q1.40625 -1.578125 1.40625 -4.734375q0 -3.125 -1.375 -4.65625q-1.359375 -1.53125 -3.625 -1.53125q-2.265625 0 -3.65625 1.5625q-1.375 1.546875 -1.375 4.671875zm16.701035 9.078125l0 -18.125l12.421875 0l0 3.0625l-8.765625 0l0 4.296875l7.5625 0l0 3.0625l-7.5625 0l0 7.703125l-3.65625 0zm15.471436 0l0 -18.125l12.421875 0l0 3.0625l-8.765625 0l0 4.296875l7.5625 0l0 3.0625l-7.5625 0l0 7.703125l-3.65625 0z" fill-rule="nonzero"/><path fill="#000000" fill-opacity="0.0" d="m66.07479 86.88499l0 0c0 -23.335121 18.916847 -42.251972 42.25197 -42.251972l0 0c11.205917 0 21.952873 4.4515343 29.876656 12.375317c7.9237823 7.9237823 12.375305 18.67073 12.375305 29.876656l0 0c0 23.335114 -18.91684 42.25196 -42.25196 42.25196l0 0c-23.335121 0 -42.25197 -18.916847 -42.25197 -42.25196z" fill-rule="evenodd"/><path stroke="#b7b7b7" stroke-width="3.0" stroke-linejoin="round" stroke-linecap="butt" d="m66.07479 86.88499l0 0c0 -23.335121 18.916847 -42.251972 42.25197 -42.251972l0 0c11.205917 0 21.952873 4.4515343 29.876656 12.375317c7.9237823 7.9237823 12.375305 18.67073 12.375305 29.876656l0 0c0 23.335114 -18.91684 42.25196 -42.25196 42.25196l0 0c-23.335121 0 -42.25197 -18.916847 -42.25197 -42.25196z" fill-rule="evenodd"/><g filter="url(#shadowFilter-p.3)"><use xlink:href="#p.3" transform="matrix(1.0 0.0 0.0 1.0 0.0 2.0)"/></g><defs><filter id="shadowFilter-p.3" filterUnits="userSpaceOnUse"><feGaussianBlur in="SourceAlpha" stdDeviation="2.0" result="blur"/><feComponentTransfer in="blur" color-interpolation-filters="sRGB"><feFuncR type="linear" slope="0" intercept="0.0"/><feFuncG type="linear" slope="0" intercept="0.0"/><feFuncB type="linear" slope="0" intercept="0.0"/><feFuncA type="linear" slope="0.5" intercept="0"/></feComponentTransfer></filter></defs><g id="p.3"><path fill="#e06666" d="m18.065348 193.08734l0 0c0 -12.846313 10.413994 -23.2603 23.26031 -23.2603l133.73135 0c6.1690216 0 12.085373 2.4506226 16.447525 6.8127747c4.362152 4.362152 6.81279 10.278503 6.81279 16.447525l0 93.03845c0 12.846313 -10.414001 23.260284 -23.260315 23.260284l-133.73135 0l0 0c-12.846315 0 -23.26031 -10.413971 -23.26031 -23.260284z" fill-rule="evenodd"/></g><path fill="#fff2cc" d="m64.48016 239.59752l0 0c0 -24.483185 19.847534 -44.33072 44.330704 -44.33072l0 0c11.75724 0 23.032928 4.6705475 31.346542 12.984161c8.313629 8.313629 12.984177 19.58931 12.984177 31.346558l0 0c0 24.48317 -19.84755 44.330704 -44.33072 44.330704l0 0c-24.48317 0 -44.330704 -19.847534 -44.330704 -44.330704z" fill-rule="evenodd"/><path fill="#000000" fill-opacity="0.0" d="m66.561295 239.5999l0 0c0 -23.335114 18.916847 -42.25197 42.25197 -42.25197l0 0c11.205917 0 21.952866 4.451538 29.876648 12.37532c7.9237823 7.9237823 12.37532 18.67073 12.37532 29.876648l0 0c0 23.335129 -18.916855 42.25197 -42.25197 42.25197l0 0c-23.335121 0 -42.25197 -18.91684 -42.25197 -42.25197z" fill-rule="evenodd"/><path stroke="#b7b7b7" stroke-width="3.0" stroke-linejoin="round" stroke-linecap="butt" d="m66.561295 239.5999l0 0c0 -23.335114 18.916847 -42.25197 42.25197 -42.25197l0 0c11.205917 0 21.952866 4.451538 29.876648 12.37532c7.9237823 7.9237823 12.37532 18.67073 12.37532 29.876648l0 0c0 23.335129 -18.916855 42.25197 -42.25197 42.25197l0 0c-23.335121 0 -42.25197 -18.91684 -42.25197 -42.25197z" fill-rule="evenodd"/><path fill="#000000" fill-opacity="0.0" d="m64.48016 239.59752l0 0c0 -24.483185 19.847534 -44.33072 44.330704 -44.33072l0 0c11.75724 0 23.032928 4.6705475 31.346542 12.984161c8.313629 8.313629 12.984177 19.58931 12.984177 31.346558l0 0c0 24.48317 -19.84755 44.330704 -44.33072 44.330704l0 0c-24.48317 0 -44.330704 -19.847534 -44.330704 -44.330704z" fill-rule="evenodd"/><path stroke="#000000" stroke-width="1.0" stroke-linejoin="round" stroke-linecap="butt" d="m64.48016 239.59752l0 0c0 -24.483185 19.847534 -44.33072 44.330704 -44.33072l0 0c11.75724 0 23.032928 4.6705475 31.346542 12.984161c8.313629 8.313629 12.984177 19.58931 12.984177 31.346558l0 0c0 24.48317 -19.84755 44.330704 -44.33072 44.330704l0 0c-24.48317 0 -44.330704 -19.847534 -44.330704 -44.330704z" fill-rule="evenodd"/><path fill="#000000" fill-opacity="0.0" d="m56.55433 235.6031l0 0c0 -24.485992 19.849815 -44.3358 44.335808 -44.3358l0 0c11.758583 0 23.035568 4.6710815 31.350143 12.985657c8.314575 8.314575 12.985657 19.591553 12.985657 31.350143l0 0c0 24.485977 -19.849815 44.3358 -44.3358 44.3358l0 0c-24.485992 0 -44.335808 -19.849823 -44.335808 -44.3358z" fill-rule="evenodd"/><path fill="#000000" d="m91.72411 245.27373l0 -6.015625l18.359375 0l0 6.015625l-18.359375 0z" fill-rule="nonzero"/><path fill="#000000" fill-opacity="0.0" d="m72.839645 235.6031l0 0c0 -24.485992 19.849823 -44.3358 44.335808 -44.3358l0 0c11.758583 0 23.035576 4.6710815 31.350151 12.985657c8.314575 8.314575 12.985657 19.591553 12.985657 31.350143l0 0c0 24.485977 -19.849823 44.3358 -44.335808 44.3358l0 0c-24.485985 0 -44.335808 -19.849823 -44.335808 -44.3358z" fill-rule="evenodd"/><path fill="#000000" d="m108.00944 245.27373l0 -6.015625l18.359375 0l0 6.015625l-18.359375 0z" fill-rule="nonzero"/></g></svg>