<svg version="1.1" viewBox="0.0 0.0 440.0997375328084 439.51443569553805" fill="none" stroke="none" stroke-linecap="square" stroke-miterlimit="10" xmlns:xlink="http://www.w3.org/1999/xlink" xmlns="http://www.w3.org/2000/svg"><clipPath id="p.0"><path d="m0 0l440.09973 0l0 439.51443l-440.09973 0l0 -439.51443z" clip-rule="nonzero"/></clipPath><g clip-path="url(#p.0)"><path fill="#000000" fill-opacity="0.0" d="m0 0l440.09973 0l0 439.51443l-440.09973 0z" fill-rule="evenodd"/><path fill="#000000" fill-opacity="0.0" d="m0 0l440.09448 0l0 463.46457l-440.09448 0z" fill-rule="evenodd"/><path fill="#000000" d="m7.1442995 45.377502q8.5 -2.9375 14.687499 -2.9375q7.875 0 10.5 4.125q1.1875 1.9375 1.1875 4.1875q0 3.125 -1.96875 6.4375q-1.96875 3.3125 -5.21875 6.0q-7.5625 6.1875 -18.375 7.6875q0 0.6875 0.03125 2.21875q0.03125 1.53125 0.0625 3.40625q0.03125 1.875 0.0625 4.0q0.03125 2.125 0.09375 4.0625q0.1875 4.8125 0.28125 5.5q0.09375 0.6875 0.09375 1.125q0 1.5625 -1.0 2.34375q-1.0 0.78125 -2.625 0.78125q-0.3125 0 -0.625 0l-1.0 -50.25q0.5625 -0.8125 1.5 -0.75q0.9375 0.0625 1.5 0.5q0.5625 0.4375 0.8125 1.5625zm18.25 2.1875q-2.0625 -1.0625 -4.40625 -1.0625q-2.34375 0 -4.65625 0.4375q-5.249999 1.0 -7.749999 4.4375q-1.125 1.625 -1.125 4.0q0 0.25 0 0.5l0 10.8125q12.874999 -2.875 18.25 -8.0q3.125 -2.9375 3.125 -6.0625q0 -3.3125 -3.4375 -5.0625zm42.062504 0.0625q-2.625 -1.875 -6.750004 -1.875q-3.875 0 -7.1875 1.4375q-6.25 2.625 -8.5625 6.75q-1.0 1.875 -1.0 4.0q0 0.375 0 2.09375q0 1.71875 0.625 4.625q0.625 2.90625 0.625 5.90625q-1.3125 0.0625 -2.125 0.3125q-0.8125 0.25 -1.375 0.25q-0.5625 0 -0.96875 -0.5q-0.40625 -0.5 -0.90625 -1.9375q-0.0625 -0.375 -0.25 -2.125q-0.1875 -1.75 -0.46875 -4.25q-0.28125 -2.5 -0.625 -5.46875q-0.34375 -2.96875 -0.65625 -5.84375q-0.6875 -6.25 -1.0625 -9.1875q0 -1.5 2.1875 -1.5q1.3125 0 2.0625 1.09375q0.75 1.09375 1.1875 2.5q0.4375 1.40625 0.59375 2.78125q0.15625 1.375 0.28125 1.9375q8.25 -7.375 20.5 -7.375q1.3750038 0 2.8750038 0.0625q0.375 -0.0625 0.9375 -0.0625q0.5625 0 1.125 0.75q0.6875 0.875 0.6875 2.125q0 3.125 -1.75 3.5zm10.25 -6.5625q0.8125 11.6875 1.375 27.0625q-0.375 1.9375 -3.0 1.9375q-0.6875 0 -1.40625 -0.28125q-0.71875 -0.28125 -0.90625 -0.78125l0 -27.9375l3.9375 0zm-5.8125 -8.5q0 -2.1875 2.5625 -2.1875q1.6875 0 2.75 0.75q0.1875 0.6875 0.1875 1.34375q0 0.65625 -0.5 1.28125q-0.5 0.625 -1.5 0.625q-1.0 0 -2.0 -0.46875q-1.0 -0.46875 -1.5 -1.34375zm34.25 24.1875q0 -7.4375 -0.8125 -10.9375q0.5 -0.9375 -1.5 -0.9375q-2.125 0 -5.5 1.0625q-3.375 1.0625 -5.5 2.125q-5.0625 2.4375 -5.625 4.75l0 17.0l-4.1875 0q-0.8125 -2.125 -0.8125 -11.9375q0 -8.75 0.34375 -12.875q0.34375 -4.125 0.53125 -4.6875q1.625 -1.0625 2.625 -1.0625q1.5625 0 1.5625 3.6875q0 1.4375 -0.15625 2.78125q-0.15625 1.34375 -0.15625 1.84375q10.125 -7.4375 15.6875 -7.4375q6.3125 0 7.1875 10.1875q0.375 3.5625 0.375 9.875l-0.0625 4.9375q0 2.75 0.125 5.3125q-0.625 0.375 -1.0 0.375q-0.1875 -0.0625 -0.8125 -0.1875q-0.625 -0.125 -1.625 -0.1875q-0.625 -2.5 -0.6875 -5.09375q-0.0625 -2.59375 -0.0625 -4.78125l0.0625 -3.8125zm17.0625 7.6875l0.125 -10.0q0 -2.375 -0.4375 -4.0625l-9.6875 0l-0.125 -4.3125l9.375 0l0 -16.125q0.1875 -0.5625 0.75 -1.125q0.875 -0.875 1.46875 -0.875q0.59375 0 1.03125 0.125q0.4375 0.125 0.9375 0.875q1.0 4.125 1.0 12.4375q0 2.0625 0.1875 4.0625q2.0 -0.25 4.0 -0.25q0 0 3.25 0q1.1875 0 2.1875 -0.125l-0.1875 4.5l-9.125 -0.25l0.3125 21.5625q-1.125 0.5 -1.9375 0.5q-3.125 0 -3.125 -6.9375zm41.0 -4.375q-4.6875 7.375 -12.5 9.125q-1.8125 0.375 -3.28125 0.375q-1.46875 0 -2.4375 -0.03125q-0.96875 -0.03125 -2.15625 -0.28125q-1.1875 -0.25 -2.1875 -0.8125q-2.3125 -1.3125 -2.3125 -3.6875q-0.25 -1.125 -0.25 -2.53125q0 -1.40625 0.625 -3.71875q0.625 -2.3125 2.28125 -5.0q1.65625 -2.6875 4.03125 -4.9375q4.9375 -4.75 10.6875 -6.125q1.6875 -0.375 3.09375 -0.375q1.40625 0 2.53125 0.1875q3.625 0 4.875 4.9375q0.8125 3.125 0.96875 8.71875q0.15625 5.59375 0.3125 8.625q0.15625 3.03125 0.78125 5.53125l-3.6875 0q-0.25 -1.6875 -0.375 -3.0q-0.125 -1.3125 -0.25 -2.4375q-0.3125 -2.625 -0.75 -4.5625zm-0.25 -9.6875q0 -3.625 -3.5625 -3.625q-0.4375 -0.0625 -0.875 -0.0625q-4.5625 0 -9.625 4.375q-2.375 2.0 -4.0625 4.5q-2.5 3.5625 -2.5 6.375q0 3.6875 4.25 4.375q5.625 -0.125 10.75 -5.125q2.1875 -2.1875 3.625 -4.75q2.0 -3.4375 2.0 -6.0625zm8.625 -16.1875l-0.1875 -8.0625q0 -1.0 0.6875 -1.5625q0.6875 -0.5625 1.6875 -0.5625q1.0 0 1.8125 0.53125q0.8125 0.53125 0.625 1.46875l0.4375 27.0q3.9375 -5.25 10.625 -8.8125q5.5625 -3.0 9.75 -3.0q3.6875 0 5.6875 2.375q1.5 1.875 1.5 4.96875q0 3.09375 -1.15625 5.375q-1.15625 2.28125 -3.03125 4.375q-1.875 2.09375 -4.3125 3.90625q-2.4375 1.8125 -4.9375 3.25q-4.75 2.75 -9.375 4.5625q-0.375 -0.125 -1.25 -0.0625q-0.875 0.0625 -2.125 0.0625q-3.375 0 -5.9375 -0.8125q-0.625 -5.9375 -0.625 -18.0625l0.125 -16.9375zm5.25 30.6875q0 0.6875 1.28125 0.6875q1.28125 0 3.15625 -0.5q1.875 -0.5 4.53125 -1.71875q2.65625 -1.21875 5.34375 -3.15625q6.25 -4.4375 9.4375 -10.4375q-0.8125 -3.5625 -4.875 -3.5625q-3.6875 0 -8.3125 2.75q-6.5625 3.9375 -9.375 9.75q-1.1875 2.3125 -1.1875 4.6875q0 0.625 0 1.0q0 0.375 0 0.5zm31.4375 -18.6875q-0.125 -3.375 -0.25 -6.03125q-0.125 -2.65625 -0.15625 -3.9375q-0.03125 -1.28125 -1.03125 -6.28125q0.5625 -0.75 1.09375 -1.4375q0.53125 -0.6875 1.53125 -0.6875q2.1875 0 3.375 18.4375q0.625 10.6875 0.625 21.375q0 2.875 -4.0 2.875l-0.5 -0.0625q0 -3.25 -0.1875 -8.3125q-0.1875 -5.0625 -0.28125 -8.8125q-0.09375 -3.75 -0.21875 -7.125zm21.6875 19.875q5.5 0 16.5625 -5.0q0.6875 0 1.125 0.46875q0.4375 0.46875 0.4375 1.09375q-2.5 4.25 -9.5625 6.625q-7.0625 2.375 -13.1875 0.8125q-6.9375 -1.8125 -8.4375 -7.8125q-0.125 -1.1875 -0.125 -3.1875q0 -2.0 1.03125 -5.28125q1.03125 -3.28125 3.53125 -6.21875q2.5 -2.9375 5.875 -4.625q3.375 -1.6875 7.1875 -1.6875q3.625 0 8.125 2.5q2.125 1.1875 3.375 2.6875q1.25 1.5 1.25 3.0625q0 0.4375 -0.0625 0.875q-0.125 3.8125 -3.6875 4.8125q-1.5625 0.4375 -3.625 0.4375l-9.0 -0.375q-4.5 0 -6.875 1.9375q-1.375 1.0625 -1.9375 3.1875q1.5625 5.6875 8.0 5.6875zm11.15625 -19.3125q-1.40625 -1.0 -2.90625 -1.4375q-1.5 -0.4375 -2.5 -0.4375q-1.0 0 -3.25 0.65625q-2.25 0.65625 -4.0 1.46875q-4.3125 2.0 -4.3125 4.1875q5.0 0.4375 7.5 0.4375q6.9375 0 9.375 -1.1875q1.5 -0.625 1.5 -1.5625q0 -1.125 -1.40625 -2.125z" fill-rule="nonzero"/><path fill="#000000" d="m30.706799 124.572495q0 6.0 -0.34375 11.71875q-0.34375 5.71875 -0.625 11.1875q-0.28125 5.46875 -0.28125 11.625q0 6.15625 0.875 13.03125q0 1.4375 -0.53125 2.0625q-0.53125 0.625 -1.78125 0.625q-2.9375 0 -2.9375 -4.875l0 -2.0625q-8.875 6.625 -14.999999 6.625q-2.4375 0 -4.96875 -1.1875q-2.53125 -1.1875 -4.78125 -4.8125q-0.3125 -1.5 -0.3125 -3.0625q0 -1.5625 0.59375 -3.78125q0.59375 -2.21875 2.4375 -4.59375q1.84375 -2.375 4.46875 -4.1875q5.75 -3.875 12.437499 -3.875q2.875 0 5.5 0.875q0 -1.125 0.15625 -3.9375q0.15625 -2.8125 0.34375 -5.9375q0.375 -8.125 0.5 -9.59375q0.125 -1.46875 0.34375 -2.5q0.21875 -1.03125 0.65625 -1.78125q0.9375 -1.5625 3.25 -1.5625zm-26.125 40.375q0 4.9375 3.5625 4.9375q0.5625 0 1.25 -0.125q2.5625 0 6.3125 -1.5q7.124999 -2.8125 8.687499 -4.875l0 -8.3125q0 -2.1875 -3.5625 -2.1875q-0.4375 -0.0625 -1.15625 -0.0625q-0.71875 0 -2.21875 0.3125q-1.499999 0.3125 -3.374999 1.125q-1.875 0.8125 -3.6875 2.0q-3.8125 2.5625 -5.25 6.0q-0.5625 1.3125 -0.5625 2.6875zm42.125 5.4375q5.5 0 16.5625 -5.0q0.6875 0 1.1250038 0.46875q0.4375 0.46875 0.4375 1.09375q-2.5000038 4.25 -9.562504 6.625q-7.0625 2.375 -13.1875 0.8125q-6.9375 -1.8125 -8.4375 -7.8125q-0.125 -1.1875 -0.125 -3.1875q0 -2.0 1.03125 -5.28125q1.03125 -3.28125 3.53125 -6.21875q2.5 -2.9375 5.875 -4.625q3.375 -1.6875 7.1875 -1.6875q3.625 0 8.125 2.5q2.125 1.1875 3.375 2.6875q1.25 1.5 1.25 3.0625q0 0.4375 -0.0625 0.875q-0.125 3.8125 -3.6875 4.8125q-1.5625 0.4375 -3.625 0.4375l-9.0 -0.375q-4.5 0 -6.875 1.9375q-1.375 1.0625 -1.9375 3.1875q1.5625 5.6875 8.0 5.6875zm11.15625 -19.3125q-1.40625 -1.0 -2.90625 -1.4375q-1.5 -0.4375 -2.5 -0.4375q-1.0 0 -3.25 0.65625q-2.25 0.65625 -4.0 1.46875q-4.3125 2.0 -4.3125 4.1875q5.0 0.4375 7.5 0.4375q6.9375 0 9.375 -1.1875q1.5 -0.625 1.5 -1.5625q0 -1.125 -1.40625 -2.125zm11.093754 -12.5625l-0.1875 -8.0625q0 -1.0 0.6875 -1.5625q0.6875 -0.5625 1.6875 -0.5625q1.0 0 1.8125 0.53125q0.8125 0.53125 0.625 1.46875l0.4375 27.0q3.9375 -5.25 10.625 -8.8125q5.5625 -3.0 9.75 -3.0q3.6875 0 5.6875 2.375q1.5 1.875 1.5 4.96875q0 3.09375 -1.15625 5.375q-1.15625 2.28125 -3.03125 4.375q-1.875 2.09375 -4.3125 3.90625q-2.4375 1.8125 -4.9375 3.25q-4.75 2.75 -9.375 4.5625q-0.375 -0.125 -1.25 -0.0625q-0.875 0.0625 -2.125 0.0625q-3.375 0 -5.9375 -0.8125q-0.625 -5.9375 -0.625 -18.0625l0.125 -16.9375zm5.25 30.6875q0 0.6875 1.28125 0.6875q1.28125 0 3.15625 -0.5q1.875 -0.5 4.53125 -1.71875q2.65625 -1.21875 5.34375 -3.15625q6.25 -4.4375 9.4375 -10.4375q-0.8125 -3.5625 -4.875 -3.5625q-3.6875 0 -8.3125 2.75q-6.5625 3.9375 -9.375 9.75q-1.1875 2.3125 -1.1875 4.6875q0 0.625 0 1.0q0 0.375 0 0.5zm30.0 -2.75q0 -1.0 -0.15625 -2.78125q-0.15625 -1.78125 -0.28125 -3.90625q-0.125 -2.125 -0.125 -4.3125q0 -2.1875 0.375 -4.0q0.8125 -4.0625 3.375 -4.0625q1.75 0.5 2.34375 1.25q0.59375 0.75 0.59375 1.84375q0 1.09375 -0.5625 2.71875q-2.0625 5.4375 -2.0625 9.8125q0 1.4375 0.1875 3.0625q1.0 4.1875 6.875 4.1875q3.0625 0 5.8125 -1.0625q5.25 -1.9375 7.125 -4.5625q0.5625 -2.875 0.5625 -5.03125q0 -2.15625 -0.15625 -3.84375q-0.15625 -1.6875 -0.375 -3.71875q-0.21875 -2.03125 -0.28125 -4.46875q0.8125 -0.375 1.59375 -0.375q0.78125 0 1.625 0.8125q0.84375 0.8125 1.4375 3.0625q0.59375 2.25 0.78125 5.28125q0.1875 3.03125 0.21875 6.28125q0.03125 3.25 0.03125 6.28125q0 3.03125 0.25 5.21875q-0.75 0.6875 -1.4375 0.6875q-2.5 0 -3.6875 -5.0q-0.8125 0.6875 -2.75 1.6875q-4.125 2.25 -9.75 3.0q-1.0625 0.125 -2.375 0.125q-1.3125 0 -3.28125 -0.5q-1.96875 -0.5 -3.71875 -2.3125q-1.75 -1.8125 -2.1875 -5.375zm50.875 35.0625l-0.875 -0.0625q-1.875 0 -4.0 0.25l-2.375 0q-3.75 0 -5.875 -1.4375q-1.125 -0.75 -1.125 -2.25l14.375 -0.6875q6.625 -0.1875 6.625 -7.125q0 -0.25 0 -0.84375q0 -0.59375 0 -2.59375l0.3125 -20.125q0 -1.0625 -0.0625 -1.75q-10.125 9.4375 -19.5 9.4375q-0.8125 0 -1.625 -0.0625q-4.1875 0 -4.1875 -3.6875q0.125 -2.875 1.6875 -6.34375q1.5625 -3.46875 4.03125 -6.6875q2.46875 -3.21875 5.59375 -5.78125q4.8125 -3.9375 9.3125 -3.9375q5.25 0 8.625 5.5625q1.0 14.875 1.0 21.125q0 6.25 -0.1875 10.25q-0.1875 4.0 -0.84375 7.3125q-0.65625 3.3125 -1.71875 5.25q-1.0625 1.9375 -2.5 2.8125q-2.375 1.375 -6.6875 1.375zm3.75 -49.125q-0.75 -0.25 -2.09375 -0.25q-1.34375 0 -3.46875 1.125q-2.125 1.125 -4.0625 2.90625q-1.9375 1.78125 -3.625 3.96875q-4.125 5.375 -4.125 8.5625q0 1.0 0.5625 1.5q0.4375 0.25 1.09375 0.25q0.65625 0 1.90625 -0.21875q1.25 -0.21875 3.40625 -1.125q2.15625 -0.90625 4.46875 -2.34375q2.3125 -1.4375 4.1875 -3.1875q4.375 -4.0 4.375 -7.8125q0 -2.3125 -2.625 -3.375zm29.25 49.125l-0.875 -0.0625q-1.875 0 -4.0 0.25l-2.375 0q-3.75 0 -5.875 -1.4375q-1.125 -0.75 -1.125 -2.25l14.375 -0.6875q6.625 -0.1875 6.625 -7.125q0 -0.25 0 -0.84375q0 -0.59375 0 -2.59375l0.3125 -20.125q0 -1.0625 -0.0625 -1.75q-10.125 9.4375 -19.5 9.4375q-0.8125 0 -1.625 -0.0625q-4.1875 0 -4.1875 -3.6875q0.125 -2.875 1.6875 -6.34375q1.5625 -3.46875 4.03125 -6.6875q2.46875 -3.21875 5.59375 -5.78125q4.8125 -3.9375 9.3125 -3.9375q5.25 0 8.625 5.5625q1.0 14.875 1.0 21.125q0 6.25 -0.1875 10.25q-0.1875 4.0 -0.84375 7.3125q-0.65625 3.3125 -1.71875 5.25q-1.0625 1.9375 -2.5 2.8125q-2.375 1.375 -6.6875 1.375zm3.75 -49.125q-0.75 -0.25 -2.09375 -0.25q-1.34375 0 -3.46875 1.125q-2.125 1.125 -4.0625 2.90625q-1.9375 1.78125 -3.625 3.96875q-4.125 5.375 -4.125 8.5625q0 1.0 0.5625 1.5q0.4375 0.25 1.09375 0.25q0.65625 0 1.90625 -0.21875q1.25 -0.21875 3.40625 -1.125q2.15625 -0.90625 4.46875 -2.34375q2.3125 -1.4375 4.1875 -3.1875q4.375 -4.0 4.375 -7.8125q0 -2.3125 -2.625 -3.375zm35.75 12.0q-4.6875 7.375 -12.5 9.125q-1.8125 0.375 -3.28125 0.375q-1.46875 0 -2.4375 -0.03125q-0.96875 -0.03125 -2.15625 -0.28125q-1.1875 -0.25 -2.1875 -0.8125q-2.3125 -1.3125 -2.3125 -3.6875q-0.25 -1.125 -0.25 -2.53125q0 -1.40625 0.625 -3.71875q0.625 -2.3125 2.28125 -5.0q1.65625 -2.6875 4.03125 -4.9375q4.9375 -4.75 10.6875 -6.125q1.6875 -0.375 3.09375 -0.375q1.40625 0 2.53125 0.1875q3.625 0 4.875 4.9375q0.8125 3.125 0.96875 8.71875q0.15625 5.59375 0.3125 8.625q0.15625 3.03125 0.78125 5.53125l-3.6875 0q-0.25 -1.6875 -0.375 -3.0q-0.125 -1.3125 -0.25 -2.4375q-0.3125 -2.625 -0.75 -4.5625zm-0.25 -9.6875q0 -3.625 -3.5625 -3.625q-0.4375 -0.0625 -0.875 -0.0625q-4.5625 0 -9.625 4.375q-2.375 2.0 -4.0625 4.5q-2.5 3.5625 -2.5 6.375q0 3.6875 4.25 4.375q5.625 -0.125 10.75 -5.125q2.1875 -2.1875 3.625 -4.75q2.0 -3.4375 2.0 -6.0625zm8.625 -16.1875l-0.1875 -8.0625q0 -1.0 0.6875 -1.5625q0.6875 -0.5625 1.6875 -0.5625q1.0 0 1.8125 0.53125q0.8125 0.53125 0.625 1.46875l0.4375 27.0q3.9375 -5.25 10.625 -8.8125q5.5624847 -3.0 9.749985 -3.0q3.6875 0 5.6875 2.375q1.5 1.875 1.5 4.96875q0 3.09375 -1.15625 5.375q-1.15625 2.28125 -3.03125 4.375q-1.875 2.09375 -4.3125 3.90625q-2.4375 1.8125 -4.9374847 3.25q-4.75 2.75 -9.375 4.5625q-0.375 -0.125 -1.25 -0.0625q-0.875 0.0625 -2.125 0.0625q-3.375 0 -5.9375 -0.8125q-0.625 -5.9375 -0.625 -18.0625l0.125 -16.9375zm5.25 30.6875q0 0.6875 1.28125 0.6875q1.28125 0 3.15625 -0.5q1.875 -0.5 4.53125 -1.71875q2.65625 -1.21875 5.34375 -3.15625q6.2499847 -4.4375 9.437485 -10.4375q-0.8125 -3.5625 -4.875 -3.5625q-3.6875 0 -8.312485 2.75q-6.5625 3.9375 -9.375 9.75q-1.1875 2.3125 -1.1875 4.6875q0 0.625 0 1.0q0 0.375 0 0.5zm31.437485 -18.6875q-0.125 -3.375 -0.25 -6.03125q-0.125 -2.65625 -0.15625 -3.9375q-0.03125 -1.28125 -1.03125 -6.28125q0.5625 -0.75 1.09375 -1.4375q0.53125 -0.6875 1.53125 -0.6875q2.1875 0 3.375 18.4375q0.625 10.6875 0.625 21.375q0 2.875 -4.0 2.875l-0.5 -0.0625q0 -3.25 -0.1875 -8.3125q-0.1875 -5.0625 -0.28125 -8.8125q-0.09375 -3.75 -0.21875 -7.125zm21.6875 19.875q5.5 0 16.5625 -5.0q0.6875 0 1.125 0.46875q0.4375 0.46875 0.4375 1.09375q-2.5 4.25 -9.5625 6.625q-7.0625 2.375 -13.1875 0.8125q-6.9375 -1.8125 -8.4375 -7.8125q-0.125 -1.1875 -0.125 -3.1875q0 -2.0 1.03125 -5.28125q1.03125 -3.28125 3.53125 -6.21875q2.5 -2.9375 5.875 -4.625q3.375 -1.6875 7.1875 -1.6875q3.625 0 8.125 2.5q2.125 1.1875 3.375 2.6875q1.25 1.5 1.25 3.0625q0 0.4375 -0.0625 0.875q-0.125 3.8125 -3.6875 4.8125q-1.5625 0.4375 -3.625 0.4375l-9.0 -0.375q-4.5 0 -6.875 1.9375q-1.375 1.0625 -1.9375 3.1875q1.5625 5.6875 8.0 5.6875zm11.15625 -19.3125q-1.40625 -1.0 -2.90625 -1.4375q-1.5 -0.4375 -2.5 -0.4375q-1.0 0 -3.25 0.65625q-2.25 0.65625 -4.0 1.46875q-4.3125 2.0 -4.3125 4.1875q5.0 0.4375 7.5 0.4375q6.9375 0 9.375 -1.1875q1.5 -0.625 1.5 -1.5625q0 -1.125 -1.40625 -2.125z" fill-rule="nonzero"/><path fill="#000000" d="m0.8317995 270.7675q0 -1.0 -0.15625 -2.78125q-0.15625 -1.78125 -0.28125 -3.90625q-0.125 -2.125 -0.125 -4.3125q0 -2.1875 0.375 -4.0q0.8125 -4.0625 3.375 -4.0625q1.75 0.5 2.34375 1.25q0.59375 0.75 0.59375 1.84375q0 1.09375 -0.5625 2.71875q-2.0625 5.4375 -2.0625 9.8125q0 1.4375 0.1875 3.0625q1.0 4.1875 6.875 4.1875q3.0625 0 5.812499 -1.0625q5.25 -1.9375 7.125 -4.5625q0.5625 -2.875 0.5625 -5.03125q0 -2.15625 -0.15625 -3.84375q-0.15625 -1.6875 -0.375 -3.71875q-0.21875 -2.03125 -0.28125 -4.46875q0.8125 -0.375 1.59375 -0.375q0.78125 0 1.625 0.8125q0.84375 0.8125 1.4375 3.0625q0.59375 2.25 0.78125 5.28125q0.1875 3.03125 0.21875 6.28125q0.03125 3.25 0.03125 6.28125q0 3.03125 0.25 5.21875q-0.75 0.6875 -1.4375 0.6875q-2.5 0 -3.6875 -5.0q-0.8125 0.6875 -2.75 1.6875q-4.125 2.25 -9.749999 3.0q-1.0625 0.125 -2.375 0.125q-1.3125 0 -3.28125 -0.5q-1.96875 -0.5 -3.71875 -2.3125q-1.75 -1.8125 -2.1875 -5.375zm57.1875 -5.375q0 -7.4375 -0.8125 -10.9375q0.5 -0.9375 -1.5 -0.9375q-2.125 0 -5.5 1.0625q-3.375 1.0625 -5.5 2.125q-5.0625 2.4375 -5.625 4.75l0 17.0l-4.1875 0q-0.8125 -2.125 -0.8125 -11.9375q0 -8.75 0.34375 -12.875q0.34375 -4.125 0.53125 -4.6875q1.625 -1.0625 2.625 -1.0625q1.5625 0 1.5625 3.6875q0 1.4375 -0.15625 2.78125q-0.15625 1.34375 -0.15625 1.84375q10.125 -7.4375 15.6875 -7.4375q6.3125 0 7.1875 10.1875q0.375 3.5625 0.375 9.875l-0.0625 4.9375q0 2.75 0.125 5.3125q-0.625 0.375 -1.0 0.375q-0.1875 -0.0625 -0.8125 -0.1875q-0.625 -0.125 -1.625 -0.1875q-0.625 -2.5 -0.6875 -5.09375q-0.0625 -2.59375 -0.0625 -4.78125l0.0625 -3.8125zm37.187504 -36.5q0 6.0 -0.34375 11.71875q-0.34375 5.71875 -0.625 11.1875q-0.28125 5.46875 -0.28125 11.625q0 6.15625 0.875 13.03125q0 1.4375 -0.53125 2.0625q-0.53125 0.625 -1.78125 0.625q-2.9375 0 -2.9375 -4.875l0 -2.0625q-8.875 6.625 -15.0 6.625q-2.4375 0 -4.96875 -1.1875q-2.53125 -1.1875 -4.78125 -4.8125q-0.3125 -1.5 -0.3125 -3.0625q0 -1.5625 0.59375 -3.78125q0.59375 -2.21875 2.4375 -4.59375q1.84375 -2.375 4.46875 -4.1875q5.75 -3.875 12.4375 -3.875q2.875 0 5.5 0.875q0 -1.125 0.15625 -3.9375q0.15625 -2.8125 0.34375 -5.9375q0.375 -8.125 0.5 -9.59375q0.125 -1.46875 0.34375 -2.5q0.21875 -1.03125 0.65625 -1.78125q0.9375 -1.5625 3.25 -1.5625zm-26.125 40.375q0 4.9375 3.5625 4.9375q0.5625 0 1.25 -0.125q2.5625 0 6.3125 -1.5q7.125 -2.8125 8.6875 -4.875l0 -8.3125q0 -2.1875 -3.5625 -2.1875q-0.4375 -0.0625 -1.15625 -0.0625q-0.71875 0 -2.21875 0.3125q-1.5 0.3125 -3.375 1.125q-1.875 0.8125 -3.6875 2.0q-3.8125 2.5625 -5.25 6.0q-0.5625 1.3125 -0.5625 2.6875zm42.125 5.4375q5.5 0 16.5625 -5.0q0.6875 0 1.125 0.46875q0.4375 0.46875 0.4375 1.09375q-2.5 4.25 -9.5625 6.625q-7.0625 2.375 -13.1875 0.8125q-6.9375 -1.8125 -8.4375 -7.8125q-0.125 -1.1875 -0.125 -3.1875q0 -2.0 1.03125 -5.28125q1.03125 -3.28125 3.53125 -6.21875q2.5 -2.9375 5.875 -4.625q3.375 -1.6875 7.1875 -1.6875q3.625 0 8.125 2.5q2.125 1.1875 3.375 2.6875q1.25 1.5 1.25 3.0625q0 0.4375 -0.0625 0.875q-0.125 3.8125 -3.6875 4.8125q-1.5625 0.4375 -3.625 0.4375l-9.0 -0.375q-4.5 0 -6.875 1.9375q-1.375 1.0625 -1.9375 3.1875q1.5625 5.6875 8.0 5.6875zm11.15625 -19.3125q-1.40625 -1.0 -2.90625 -1.4375q-1.5 -0.4375 -2.5 -0.4375q-1.0 0 -3.25 0.65625q-2.25 0.65625 -4.0 1.46875q-4.3125 2.0 -4.3125 4.1875q5.0 0.4375 7.5 0.4375q6.9375 0 9.375 -1.1875q1.5 -0.625 1.5 -1.5625q0 -1.125 -1.40625 -2.125zm41.40625 0.875q-2.625 -1.875 -6.75 -1.875q-3.875 0 -7.1875 1.4375q-6.25 2.625 -8.5625 6.75q-1.0 1.875 -1.0 4.0q0 0.375 0 2.09375q0 1.71875 0.625 4.625q0.625 2.90625 0.625 5.90625q-1.3125 0.0625 -2.125 0.3125q-0.8125 0.25 -1.375 0.25q-0.5625 0 -0.96875 -0.5q-0.40625 -0.5 -0.90625 -1.9375q-0.0625 -0.375 -0.25 -2.125q-0.1875 -1.75 -0.46875 -4.25q-0.28125 -2.5 -0.625 -5.46875q-0.34375 -2.96875 -0.65625 -5.84375q-0.6875 -6.25 -1.0625 -9.1875q0 -1.5 2.1875 -1.5q1.3125 0 2.0625 1.09375q0.75 1.09375 1.1875 2.5q0.4375 1.40625 0.59375 2.78125q0.15625 1.375 0.28125 1.9375q8.25 -7.375 20.5 -7.375q1.375 0 2.875 0.0625q0.375 -0.0625 0.9375 -0.0625q0.5625 0 1.125 0.75q0.6875 0.875 0.6875 2.125q0 3.125 -1.75 3.5zm26.0 6.6875q6.875 0 6.875 3.5q0 2.625 -3.8125 6.125q-5.6875 5.1875 -15.3125 8.3125q-0.4375 0 -0.96875 -0.875q-0.53125 -0.875 -0.8125 -1.34375q-0.28125 -0.46875 -0.40625 -0.59375q7.1875 -2.375 11.8125 -5.75q3.125 -2.25 3.125 -3.6875q0 -1.4375 -3.6875 -1.4375q-3.6875 0 -10.8125 1.75q-3.25 -0.125 -5.625 -2.3125q-2.0625 -1.9375 -2.0625 -3.90625q0 -1.96875 1.125 -3.625q1.125 -1.65625 3.0 -3.09375q1.875 -1.4375 4.375 -2.625q6.125 -2.9375 12.6875 -2.9375q1.9375 0 3.75 0.375q1.5 0 1.75 1.3125q0.25 1.3125 0.25 4.3125q-3.6875 -1.6875 -8.3125 -1.6875q-5.75 0 -9.5 2.3125q-3.875 2.25 -4.0 5.875q0 1.75 2.5625 1.75l4.5625 -0.5q5.875 -1.25 9.4375 -1.25zm20.1875 10.125l0.125 -10.0q0 -2.375 -0.4375 -4.0625l-9.6875 0l-0.125 -4.3125l9.375 0l0 -16.125q0.1875 -0.5625 0.75 -1.125q0.875 -0.875 1.46875 -0.875q0.59375 0 1.03125 0.125q0.4375 0.125 0.9375 0.875q1.0 4.125 1.0 12.4375q0 2.0625 0.1875 4.0625q2.0 -0.25 4.0 -0.25q0 0 3.25 0q1.1875 0 2.1875 -0.125l-0.1875 4.5l-9.125 -0.25l0.3125 21.5625q-1.125 0.5 -1.9375 0.5q-3.125 0 -3.125 -6.9375zm41.0 -4.375q-4.6875 7.375 -12.5 9.125q-1.8125 0.375 -3.28125 0.375q-1.46875 0 -2.4375 -0.03125q-0.96875 -0.03125 -2.15625 -0.28125q-1.1875 -0.25 -2.1875 -0.8125q-2.3125 -1.3125 -2.3125 -3.6875q-0.25 -1.125 -0.25 -2.53125q0 -1.40625 0.625 -3.71875q0.625 -2.3125 2.28125 -5.0q1.65625 -2.6875 4.03125 -4.9375q4.9375 -4.75 10.6875 -6.125q1.6875 -0.375 3.09375 -0.375q1.40625 0 2.53125 0.1875q3.625 0 4.875 4.9375q0.8125 3.125 0.96875 8.71875q0.15625 5.59375 0.3125 8.625q0.15625 3.03125 0.78123474 5.53125l-3.6874847 0q-0.25 -1.6875 -0.375 -3.0q-0.125 -1.3125 -0.25 -2.4375q-0.3125 -2.625 -0.75 -4.5625zm-0.25 -9.6875q0 -3.625 -3.5625 -3.625q-0.4375 -0.0625 -0.875 -0.0625q-4.5625 0 -9.625 4.375q-2.375 2.0 -4.0625 4.5q-2.5 3.5625 -2.5 6.375q0 3.6875 4.25 4.375q5.625 -0.125 10.75 -5.125q2.1875 -2.1875 3.625 -4.75q2.0 -3.4375 2.0 -6.0625zm32.624985 6.375q0 -7.4375 -0.8125 -10.9375q0.5 -0.9375 -1.5 -0.9375q-2.125 0 -5.5 1.0625q-3.375 1.0625 -5.5 2.125q-5.0625 2.4375 -5.625 4.75l0 17.0l-4.1875 0q-0.8125 -2.125 -0.8125 -11.9375q0 -8.75 0.34375 -12.875q0.34375 -4.125 0.53125 -4.6875q1.625 -1.0625 2.625 -1.0625q1.5625 0 1.5625 3.6875q0 1.4375 -0.15625 2.78125q-0.15625 1.34375 -0.15625 1.84375q10.125 -7.4375 15.6875 -7.4375q6.3125 0 7.1875 10.1875q0.375 3.5625 0.375 9.875l-0.0625 4.9375q0 2.75 0.125 5.3125q-0.625 0.375 -1.0 0.375q-0.1875 -0.0625 -0.8125 -0.1875q-0.625 -0.125 -1.625 -0.1875q-0.625 -2.5 -0.6875 -5.09375q-0.0625 -2.59375 -0.0625 -4.78125l0.0625 -3.8125zm37.1875 -36.5q0 6.0 -0.34375 11.71875q-0.34375 5.71875 -0.625 11.1875q-0.28125 5.46875 -0.28125 11.625q0 6.15625 0.875 13.03125q0 1.4375 -0.53125 2.0625q-0.53125 0.625 -1.78125 0.625q-2.9375 0 -2.9375 -4.875l0 -2.0625q-8.875 6.625 -15.0 6.625q-2.4375 0 -4.96875 -1.1875q-2.53125 -1.1875 -4.78125 -4.8125q-0.3125 -1.5 -0.3125 -3.0625q0 -1.5625 0.59375 -3.78125q0.59375 -2.21875 2.4375 -4.59375q1.84375 -2.375 4.46875 -4.1875q5.75 -3.875 12.4375 -3.875q2.875 0 5.5 0.875q0 -1.125 0.15625 -3.9375q0.15625 -2.8125 0.34375 -5.9375q0.375 -8.125 0.5 -9.59375q0.125 -1.46875 0.34375 -2.5q0.21875 -1.03125 0.65625 -1.78125q0.9375 -1.5625 3.25 -1.5625zm-26.125 40.375q0 4.9375 3.5625 4.9375q0.5625 0 1.25 -0.125q2.5625 0 6.3125 -1.5q7.125 -2.8125 8.6875 -4.875l0 -8.3125q0 -2.1875 -3.5625 -2.1875q-0.4375 -0.0625 -1.15625 -0.0625q-0.71875 0 -2.21875 0.3125q-1.5 0.3125 -3.375 1.125q-1.875 0.8125 -3.6875 2.0q-3.8125 2.5625 -5.25 6.0q-0.5625 1.3125 -0.5625 2.6875zm53.9375 -0.5625q-4.6875 7.375 -12.5 9.125q-1.8125 0.375 -3.28125 0.375q-1.46875 0 -2.4375 -0.03125q-0.96875 -0.03125 -2.15625 -0.28125q-1.1875 -0.25 -2.1875 -0.8125q-2.3125 -1.3125 -2.3125 -3.6875q-0.25 -1.125 -0.25 -2.53125q0 -1.40625 0.625 -3.71875q0.625 -2.3125 2.28125 -5.0q1.65625 -2.6875 4.03125 -4.9375q4.9375 -4.75 10.6875 -6.125q1.6875 -0.375 3.09375 -0.375q1.40625 0 2.53125 0.1875q3.625 0 4.875 4.9375q0.8125 3.125 0.96875 8.71875q0.15625 5.59375 0.3125 8.625q0.15625 3.03125 0.78125 5.53125l-3.6875 0q-0.25 -1.6875 -0.375 -3.0q-0.125 -1.3125 -0.25 -2.4375q-0.3125 -2.625 -0.75 -4.5625zm-0.25 -9.6875q0 -3.625 -3.5625 -3.625q-0.4375 -0.0625 -0.875 -0.0625q-4.5625 0 -9.625 4.375q-2.375 2.0 -4.0625 4.5q-2.5 3.5625 -2.5 6.375q0 3.6875 4.25 4.375q5.625 -0.125 10.75 -5.125q2.1875 -2.1875 3.625 -4.75q2.0 -3.4375 2.0 -6.0625zm8.625 -16.1875l-0.1875 -8.0625q0 -1.0 0.6875 -1.5625q0.6875 -0.5625 1.6875 -0.5625q1.0 0 1.8125 0.53125q0.8125 0.53125 0.625 1.46875l0.4375 27.0q3.9375 -5.25 10.625 -8.8125q5.5625 -3.0 9.75 -3.0q3.6875 0 5.6875 2.375q1.5 1.875 1.5 4.96875q0 3.09375 -1.15625 5.375q-1.15625 2.28125 -3.03125 4.375q-1.875 2.09375 -4.3125 3.90625q-2.4375 1.8125 -4.9375 3.25q-4.75 2.75 -9.375 4.5625q-0.375 -0.125 -1.25 -0.0625q-0.875 0.0625 -2.125 0.0625q-3.375 0 -5.9375 -0.8125q-0.625 -5.9375 -0.625 -18.0625l0.125 -16.9375zm5.25 30.6875q0 0.6875 1.28125 0.6875q1.28125 0 3.15625 -0.5q1.875 -0.5 4.53125 -1.71875q2.65625 -1.21875 5.34375 -3.15625q6.25 -4.4375 9.4375 -10.4375q-0.8125 -3.5625 -4.875 -3.5625q-3.6875 0 -8.3125 2.75q-6.5625 3.9375 -9.375 9.75q-1.1875 2.3125 -1.1875 4.6875q0 0.625 0 1.0q0 0.375 0 0.5zm31.4375 -18.6875q-0.125 -3.375 -0.25 -6.03125q-0.125 -2.65625 -0.15625 -3.9375q-0.03125 -1.28125 -1.03125 -6.28125q0.5625 -0.75 1.09375 -1.4375q0.53125 -0.6875 1.53125 -0.6875q2.1875 0 3.375 18.4375q0.625 10.6875 0.625 21.375q0 2.875 -4.0 2.875l-0.5 -0.0625q0 -3.25 -0.1875 -8.3125q-0.1875 -5.0625 -0.28125 -8.8125q-0.09375 -3.75 -0.21875 -7.125zm21.6875 19.875q5.5 0 16.5625 -5.0q0.6875 0 1.125 0.46875q0.4375 0.46875 0.4375 1.09375q-2.5 4.25 -9.5625 6.625q-7.0625 2.375 -13.1875 0.8125q-6.9375 -1.8125 -8.4375 -7.8125q-0.125 -1.1875 -0.125 -3.1875q0 -2.0 1.03125 -5.28125q1.03125 -3.28125 3.53125 -6.21875q2.5 -2.9375 5.875 -4.625q3.375 -1.6875 7.1875 -1.6875q3.625 0 8.125 2.5q2.125 1.1875 3.375 2.6875q1.25 1.5 1.25 3.0625q0 0.4375 -0.0625 0.875q-0.125 3.8125 -3.6875 4.8125q-1.5625 0.4375 -3.625 0.4375l-9.0 -0.375q-4.5 0 -6.875 1.9375q-1.375 1.0625 -1.9375 3.1875q1.5625 5.6875 8.0 5.6875zm11.15625 -19.3125q-1.40625 -1.0 -2.90625 -1.4375q-1.5 -0.4375 -2.5 -0.4375q-1.0 0 -3.25 0.65625q-2.25 0.65625 -4.0 1.46875q-4.3125 2.0 -4.3125 4.1875q5.0 0.4375 7.5 0.4375q6.9375 0 9.375 -1.1875q1.5 -0.625 1.5 -1.5625q0 -1.125 -1.40625 -2.125z" fill-rule="nonzero"/><path fill="#000000" d="m22.519299 351.275q6.875 0 6.875 3.5q0 2.625 -3.8125 6.125q-5.6875 5.1875 -15.312499 8.3125q-0.4375 0 -0.96875 -0.875q-0.53125 -0.875 -0.8125 -1.34375q-0.28125 -0.46875 -0.40625 -0.59375q7.1875 -2.375 11.812499 -5.75q3.125 -2.25 3.125 -3.6875q0 -1.4375 -3.6875 -1.4375q-3.687499 0 -10.812499 1.75q-3.25 -0.125 -5.625 -2.3125q-2.0625 -1.9375 -2.0625 -3.90625q0 -1.96875 1.125 -3.625q1.125 -1.65625 3.0 -3.09375q1.875 -1.4375 4.375 -2.625q6.125 -2.9375 12.687499 -2.9375q1.9375 0 3.75 0.375q1.5 0 1.75 1.3125q0.25 1.3125 0.25 4.3125q-3.6875 -1.6875 -8.3125 -1.6875q-5.749999 0 -9.499999 2.3125q-3.875 2.25 -4.0 5.875q0 1.75 2.5625 1.75l4.5625 -0.5q5.874999 -1.25 9.437499 -1.25zm20.1875 10.125l0.125 -10.0q0 -2.375 -0.4375 -4.0625l-9.6875 0l-0.125 -4.3125l9.375 0l0 -16.125q0.1875 -0.5625 0.75 -1.125q0.875 -0.875 1.46875 -0.875q0.59375 0 1.03125 0.125q0.4375 0.125 0.9375 0.875q1.0 4.125 1.0 12.4375q0 2.0625 0.1875 4.0625q2.0 -0.25 4.0 -0.25q0 0 3.25 0q1.1875 0 2.1875 -0.125l-0.1875 4.5l-9.125 -0.25l0.3125 21.5625q-1.125 0.5 -1.9375 0.5q-3.125 0 -3.125 -6.9375zm16.125 -2.3125q0 -1.0 -0.15625 -2.78125q-0.15625 -1.78125 -0.28125 -3.90625q-0.125 -2.125 -0.125 -4.3125q0 -2.1875 0.375 -4.0q0.8125 -4.0625 3.375 -4.0625q1.75 0.5 2.3437538 1.25q0.59375 0.75 0.59375 1.84375q0 1.09375 -0.5625 2.71875q-2.0625038 5.4375 -2.0625038 9.8125q0 1.4375 0.1875 3.0625q1.0 4.1875 6.875004 4.1875q3.0625 0 5.8125 -1.0625q5.25 -1.9375 7.125 -4.5625q0.5625 -2.875 0.5625 -5.03125q0 -2.15625 -0.15625 -3.84375q-0.15625 -1.6875 -0.375 -3.71875q-0.21875 -2.03125 -0.28125 -4.46875q0.8125 -0.375 1.59375 -0.375q0.78125 0 1.625 0.8125q0.84375 0.8125 1.4375 3.0625q0.59375 2.25 0.78125 5.28125q0.1875 3.03125 0.21875 6.28125q0.03125 3.25 0.03125 6.28125q0 3.03125 0.25 5.21875q-0.75 0.6875 -1.4375 0.6875q-2.5 0 -3.6875 -5.0q-0.8125 0.6875 -2.75 1.6875q-4.125 2.25 -9.75 3.0q-1.0625 0.125 -2.375 0.125q-1.3125 0 -3.28125 -0.5q-1.9687538 -0.5 -3.7187538 -2.3125q-1.75 -1.8125 -2.1875 -5.375zm68.6875 -12.5625q0.3125 0 0.3125 1.6875q0 1.6875 0.125 2.3125l-21.4375 2.625l1.125 13.875l-5.0625 -0.25q0 -5.625 -1.25 -12.875l-8.125 3.125q-0.8125 0 -1.375 -0.9375q-1.0 -1.625 -1.0 -2.9375l9.5 -3.375q-1.25 -10.75 -1.25 -17.46875q0 -6.71875 1.125 -10.46875q1.125 -3.75 3.28125 -5.03125q2.15625 -1.28125 4.59375 -1.28125q2.4375 0 4.96875 1.0625q2.53125 1.0625 4.84375 2.6875q2.3125 1.625 3.9375 3.65625q1.625 2.03125 1.625 3.96875q0 1.5 -0.3125 2.125q-2.5 -3.5 -6.0625 -6.25q-4.25 -3.25 -8.0 -3.25q-3.5625 0 -4.75 5.0625q-0.5625 2.625 -0.5625 7.40625q0 4.78125 0.25 8.75q0.25 3.96875 1.5 7.96875q3.875 0 8.6875 -0.6875q9.25 -1.4375 13.3125 -1.5zm38.0 0q0.3125 0 0.3125 1.6875q0 1.6875 0.125 2.3125l-21.4375 2.625l1.125 13.875l-5.0625 -0.25q0 -5.625 -1.25 -12.875l-8.125 3.125q-0.8125 0 -1.375 -0.9375q-1.0 -1.625 -1.0 -2.9375l9.5 -3.375q-1.25 -10.75 -1.25 -17.46875q0 -6.71875 1.125 -10.46875q1.125 -3.75 3.28125 -5.03125q2.15625 -1.28125 4.59375 -1.28125q2.4375 0 4.96875 1.0625q2.53125 1.0625 4.84375 2.6875q2.3125 1.625 3.9375 3.65625q1.625 2.03125 1.625 3.96875q0 1.5 -0.3125 2.125q-2.5 -3.5 -6.0625 -6.25q-4.25 -3.25 -8.0 -3.25q-3.5625 0 -4.75 5.0625q-0.5625 2.625 -0.5625 7.40625q0 4.78125 0.25 8.75q0.25 3.96875 1.5 7.96875q3.875 0 8.6875 -0.6875q9.25 -1.4375 13.3125 -1.5z" fill-rule="nonzero"/><path fill="#000000" d="m146.26569 432.875q-0.09375 -0.21875 -0.109375 -0.53125q-0.015625 -0.3125 0.0625 -0.59375q0.078125 -0.28125 0.265625 -0.515625q0.1875 -0.234375 0.5 -0.328125q0.3125 -0.0625 1.28125 -0.09375q0.96875 -0.03125 2.328125 -0.03125q1.359375 0 3.015625 0.03125q1.65625 0.03125 3.328125 0.09375q1.671875 0.0625 3.28125 0.125q1.609375 0.0625 2.859375 0.140625q1.25 0.078125 2.0625 0.15625q0.8125 0.078125 0.90625 0.140625q0.5 0.3125 0.375 0.71875q-0.125 0.40625 -0.546875 0.703125q-0.421875 0.296875 -0.953125 0.421875q-0.53125 0.125 -0.84375 -0.125q-1.5625 -0.03125 -3.875 0q-2.3125 0.03125 -4.78125 0.078125q-2.46875 0.046875 -4.78125 0.03125q-2.3125 -0.015625 -3.90625 -0.171875q-0.0625 0 -0.25 -0.09375q-0.1875 -0.09375 -0.21875 -0.15625z" fill-rule="nonzero"/><path fill="#000000" d="m167.92194 441.0l0 0z" fill-rule="nonzero"/><path fill="#000000" d="m183.42194 440.75q-0.625 -0.15625 -1.46875 -0.6875q-0.84375 -0.53125 -1.671875 -1.28125q-0.828125 -0.75 -1.53125 -1.640625q-0.703125 -0.890625 -1.046875 -1.78125q-0.34375 -0.890625 -0.203125 -1.734375q0.140625 -0.84375 0.984375 -1.5q0.125 -0.09375 0.515625 -0.25q0.390625 -0.15625 0.78125 -0.21875q0.390625 -0.0625 0.625 0.09375q0.234375 0.15625 0.078125 0.65625q-1.09375 0.46875 -1.375 1.21875q-0.28125 0.75 0.015625 1.59375q0.296875 0.84375 1.03125 1.6875q0.734375 0.84375 1.671875 1.515625q0.9375 0.671875 1.953125 1.109375q1.015625 0.4375 1.890625 0.4375q0.875 0 1.484375 -0.484375q0.609375 -0.484375 0.703125 -1.671875q0.09375 -1.53125 -0.203125 -2.96875q-0.296875 -1.4375 -1.265625 -2.71875q-0.8125 -1.03125 -1.671875 -1.6875q-0.859375 -0.65625 -1.71875 -1.15625q-0.859375 -0.5 -1.71875 -0.9375q-0.859375 -0.4375 -1.65625 -1.015625q-0.796875 -0.578125 -1.484375 -1.375q-0.6875 -0.796875 -1.25 -2.015625q-0.71875 -1.59375 -0.421875 -2.984375q0.296875 -1.390625 1.25 -2.375q0.953125 -0.984375 2.375 -1.46875q1.421875 -0.484375 2.953125 -0.296875q0.9375 0.125 1.71875 0.71875q0.78125 0.59375 1.296875 1.390625q0.515625 0.796875 0.703125 1.671875q0.1875 0.875 -0.0625 1.546875q-0.25 0.671875 -1.015625 1.0q-0.765625 0.328125 -2.140625 0.078125q-0.15625 -0.53125 0.125 -0.8125q0.28125 -0.28125 0.65625 -0.515625q0.375 -0.234375 0.6875 -0.46875q0.3125 -0.234375 0.25 -0.671875q-0.25 -1.53125 -1.15625 -2.203125q-0.90625 -0.671875 -2.015625 -0.65625q-1.109375 0.015625 -2.171875 0.625q-1.0625 0.609375 -1.640625 1.640625q-0.578125 1.03125 -0.421875 2.390625q0.15625 1.359375 1.5 2.890625q1.0 1.15625 1.90625 1.734375q0.90625 0.578125 1.796875 1.03125q0.890625 0.453125 1.828125 1.015625q0.9375 0.5625 1.96875 1.6875q0.875 0.96875 1.46875 2.203125q0.59375 1.234375 0.796875 2.5q0.203125 1.265625 0 2.40625q-0.203125 1.140625 -0.875 1.921875q-0.671875 0.78125 -1.859375 1.046875q-1.1875 0.265625 -2.96875 -0.234375zm11.5625 0q0 -0.59375 0.046875 -1.59375q0.046875 -1.0 0.078125 -2.1875q0.03125 -1.1875 0.03125 -2.4375q0 -1.25 -0.0625 -2.34375q-0.0625 -1.09375 -0.203125 -1.90625q-0.140625 -0.8125 -0.390625 -1.09375q-1.96875 0.15625 -3.0 -0.03125q-1.03125 -0.1875 -1.046875 -0.5q-0.015625 -0.3125 1.046875 -0.671875q1.0625 -0.359375 3.28125 -0.515625q0 -0.375 0.015625 -1.328125q0.015625 -0.953125 0.015625 -2.015625q0 -1.0625 -0.015625 -2.0q-0.015625 -0.9375 -0.015625 -1.3125q-0.03125 -0.21875 -0.09375 -0.59375q-0.0625 -0.375 -0.125 -0.796875q-0.0625 -0.421875 -0.09375 -0.84375q-0.03125 -0.421875 0.03125 -0.703125q0.0625 -0.375 0.328125 -0.515625q0.265625 -0.140625 0.546875 -0.125q0.28125 0.015625 0.515625 0.1875q0.234375 0.171875 0.234375 0.453125l0 9.34375q0 0.3125 0.78125 0.296875q0.78125 -0.015625 1.90625 -0.140625q1.125 -0.125 2.359375 -0.265625q1.234375 -0.140625 2.125 -0.078125q0.890625 0.0625 1.203125 0.421875q0.3125 0.359375 -0.375 1.234375q-0.0625 0.0625 -0.25 0.15625q-0.1875 0.09375 -0.25 0.09375q-1.6875 -0.0625 -3.5625 -0.03125q-1.875 0.03125 -3.5625 0.28125q-0.5625 0.09375 -0.609375 1.046875q-0.046875 0.953125 0.15625 2.328125q0.203125 1.375 0.46875 2.921875q0.265625 1.546875 0.328125 2.828125q0.0625 1.28125 -0.265625 2.078125q-0.328125 0.796875 -1.328125 0.609375q-0.0625 0 -0.15625 -0.09375q-0.09375 -0.09375 -0.09375 -0.15625zm25.875 0q-0.75 -0.21875 -1.375 -0.796875q-0.625 -0.578125 -1.125 -1.375q-0.5 -0.796875 -0.875 -1.71875q-0.375 -0.921875 -0.671875 -1.84375q-0.296875 -0.921875 -0.515625 -1.734375q-0.21875 -0.8125 -0.375 -1.40625l-0.25 0q-0.375 0.8125 -1.140625 1.953125q-0.765625 1.140625 -1.703125 2.203125q-0.9375 1.0625 -1.984375 1.84375q-1.046875 0.78125 -1.984375 0.921875q-0.9375 0.140625 -1.6875 -0.5625q-0.75 -0.703125 -1.09375 -2.640625q-0.15625 -2.96875 -0.21875 -5.90625q-0.0625 -2.9375 0 -5.90625q0.09375 -0.125 0.328125 -0.3125q0.234375 -0.1875 0.484375 -0.25q0.25 -0.0625 0.453125 0.078125q0.203125 0.140625 0.203125 0.703125l0 10.34375q0 0.28125 0.078125 0.65625q0.078125 0.375 0.25 0.734375q0.171875 0.359375 0.390625 0.65625q0.21875 0.296875 0.5 0.421875q1.125 0.46875 2.03125 -0.015625q0.90625 -0.484375 1.640625 -1.546875q0.734375 -1.0625 1.34375 -2.515625q0.609375 -1.453125 1.109375 -2.859375q0.5 -1.40625 0.921875 -2.609375q0.421875 -1.203125 0.828125 -1.796875q0.0625 0.03125 0.140625 0.140625q0.078125 0.109375 0.109375 0.140625q0.09375 0.125 0.375 0.484375q0.28125 0.359375 0.34375 0.484375q0 0.5625 0.015625 1.546875q0.015625 0.984375 0.109375 2.15625q0.09375 1.171875 0.28125 2.4375q0.1875 1.265625 0.515625 2.421875q0.328125 1.15625 0.84375 2.078125q0.515625 0.921875 1.25 1.40625q0.734375 0.484375 1.71875 0.4375q0.984375 -0.046875 2.296875 -0.859375q0.65625 -0.40625 0.78125 -0.75q0.125 -0.34375 0.09375 -0.703125q-0.03125 -0.359375 -0.046875 -0.734375q-0.015625 -0.375 0.421875 -0.90625q0.78125 -0.25 1.1875 0.1875q0.40625 0.4375 0.453125 1.21875q0.046875 0.78125 -0.3125 1.703125q-0.359375 0.921875 -1.15625 1.609375q-0.796875 0.6875 -2.03125 0.984375q-1.234375 0.296875 -2.953125 -0.203125zm6.5625 -0.90625q-0.625 -0.625 -1.0 -1.90625q-0.375 -1.28125 -0.515625 -2.90625q-0.140625 -1.625 -0.046875 -3.453125q0.09375 -1.828125 0.421875 -3.5625q0.328125 -1.734375 0.875 -3.234375q0.546875 -1.5 1.34375 -2.484375q0.796875 -0.984375 1.8125 -1.28125q1.015625 -0.296875 2.265625 0.359375q0.4375 0.25 0.921875 0.84375q0.484375 0.59375 0.921875 1.328125q0.4375 0.734375 0.765625 1.46875q0.328125 0.734375 0.484375 1.234375q0.03125 0.15625 0.015625 0.953125q-0.015625 0.796875 -0.046875 1.921875q-0.03125 1.125 0.015625 2.484375q0.046875 1.359375 0.21875 2.65625q0.171875 1.296875 0.546875 2.40625q0.375 1.109375 1.0 1.75q0.625 0.640625 1.578125 0.6875q0.953125 0.046875 2.328125 -0.765625q0.5 -0.4375 0.59375 -0.859375q0.09375 -0.421875 0.09375 -0.71875q0 -0.296875 0.0625 -0.390625q0.0625 -0.09375 0.5625 0.15625q0.625 0.8125 0.421875 1.734375q-0.203125 0.921875 -0.90625 1.625q-0.703125 0.703125 -1.765625 1.0q-1.0625 0.296875 -2.171875 -0.140625q-1.109375 -0.4375 -2.109375 -1.78125q-1.0 -1.34375 -1.59375 -3.90625q-0.1875 0.53125 -0.578125 1.3125q-0.390625 0.78125 -0.921875 1.5625q-0.53125 0.78125 -1.203125 1.46875q-0.671875 0.6875 -1.390625 1.03125q-0.71875 0.34375 -1.484375 0.265625q-0.765625 -0.078125 -1.515625 -0.859375zm0.28125 -1.96875q0.53125 1.125 1.25 1.21875q0.71875 0.09375 1.46875 -0.5625q0.75 -0.65625 1.484375 -1.90625q0.734375 -1.25 1.25 -2.828125q0.515625 -1.578125 0.78125 -3.3125q0.265625 -1.734375 0.09375 -3.328125q-0.171875 -1.59375 -0.828125 -2.90625q-0.65625 -1.3125 -2.0 -2.0625q-0.03125 -0.03125 -0.109375 -0.03125q-0.078125 0 -0.140625 0q-0.96875 0.4375 -1.6875 1.5q-0.71875 1.0625 -1.234375 2.5q-0.515625 1.4375 -0.796875 3.09375q-0.28125 1.65625 -0.3125 3.25q-0.03125 1.59375 0.15625 3.015625q0.1875 1.421875 0.625 2.359375zm24.96875 2.28125q-1.25 -0.71875 -1.953125 -1.453125q-0.703125 -0.734375 -1.328125 -1.4375q-0.625 -0.703125 -1.4375 -1.34375q-0.8125 -0.640625 -2.25 -1.140625q-0.21875 0.625 -0.34375 1.46875q-0.125 0.84375 -0.203125 1.703125q-0.078125 0.859375 -0.125 1.625q-0.046875 0.765625 -0.109375 1.171875q-0.40625 0.5 -0.78125 0.4375q-0.375 -0.0625 -0.671875 -0.390625q-0.296875 -0.328125 -0.5 -0.78125q-0.203125 -0.453125 -0.234375 -0.703125q0.71875 -1.6875 0.984375 -3.40625q0.265625 -1.71875 0.25 -3.53125q-0.015625 -1.8125 -0.203125 -3.75q-0.1875 -1.9375 -0.3125 -4.0625q0.15625 -0.25 0.421875 -0.40625q0.265625 -0.15625 0.578125 -0.03125q0.40625 -0.46875 1.0625 -1.046875q0.65625 -0.578125 1.421875 -1.0625q0.765625 -0.484375 1.59375 -0.796875q0.828125 -0.3125 1.546875 -0.265625q0.71875 0.046875 1.265625 0.546875q0.546875 0.5 0.796875 1.625q0.25 1.625 -0.09375 3.03125q-0.34375 1.40625 -1.109375 2.671875q-0.765625 1.265625 -1.921875 2.375q-1.15625 1.109375 -2.5625 2.140625q-0.09375 0.1875 0.078125 0.359375q0.171875 0.171875 0.4375 0.3125q0.265625 0.140625 0.546875 0.234375q0.28125 0.09375 0.40625 0.125q0.625 0.4375 1.375 1.171875q0.75 0.734375 1.578125 1.5q0.828125 0.765625 1.6875 1.390625q0.859375 0.625 1.703125 0.796875q0.84375 0.171875 1.640625 -0.234375q0.796875 -0.40625 1.515625 -1.71875l0.5 0q0.125 0.9375 -0.296875 1.734375q-0.421875 0.796875 -1.1875 1.234375q-0.765625 0.4375 -1.765625 0.46875q-1.0 0.03125 -2.0 -0.5625zm-7.21875 -10.28125q0.03125 0.125 0.0625 0.453125q0.03125 0.328125 0.078125 0.6875q0.046875 0.359375 0.078125 0.671875q0.03125 0.3125 0.03125 0.4375q1.34375 -0.53125 2.34375 -1.65625q1.0 -1.125 1.625 -2.421875q0.625 -1.296875 0.828125 -2.59375q0.203125 -1.296875 -0.015625 -2.140625q-0.21875 -0.84375 -0.921875 -1.046875q-0.703125 -0.203125 -1.890625 0.640625q-1.125 0.8125 -1.640625 1.578125q-0.515625 0.765625 -0.6875 1.59375q-0.171875 0.828125 -0.078125 1.75q0.09375 0.921875 0.1875 2.046875zm15.625 10.875q0 -0.59375 0.046875 -1.59375q0.046875 -1.0 0.078125 -2.1875q0.03125 -1.1875 0.03125 -2.4375q0 -1.25 -0.0625 -2.34375q-0.0625 -1.09375 -0.203125 -1.90625q-0.140625 -0.8125 -0.390625 -1.09375q-1.96875 0.15625 -3.0 -0.03125q-1.03125 -0.1875 -1.046875 -0.5q-0.015625 -0.3125 1.046875 -0.671875q1.0625 -0.359375 3.28125 -0.515625q0 -0.375 0.015625 -1.328125q0.015625 -0.953125 0.015625 -2.015625q0 -1.0625 -0.015625 -2.0q-0.015625 -0.9375 -0.015625 -1.3125q-0.03125 -0.21875 -0.09375 -0.59375q-0.0625 -0.375 -0.125 -0.796875q-0.0625 -0.421875 -0.09375 -0.84375q-0.03125 -0.421875 0.03125 -0.703125q0.0625 -0.375 0.328125 -0.515625q0.265625 -0.140625 0.546875 -0.125q0.28125 0.015625 0.515625 0.1875q0.234375 0.171875 0.234375 0.453125l0 9.34375q0 0.3125 0.78125 0.296875q0.78125 -0.015625 1.90625 -0.140625q1.125 -0.125 2.359375 -0.265625q1.234375 -0.140625 2.125 -0.078125q0.890625 0.0625 1.203125 0.421875q0.3125 0.359375 -0.375 1.234375q-0.0625 0.0625 -0.25 0.15625q-0.1875 0.09375 -0.25 0.09375q-1.6875 -0.0625 -3.5625 -0.03125q-1.875 0.03125 -3.5625 0.28125q-0.5625 0.09375 -0.609375 1.046875q-0.046875 0.953125 0.15625 2.328125q0.203125 1.375 0.46875 2.921875q0.265625 1.546875 0.328125 2.828125q0.0625 1.28125 -0.265625 2.078125q-0.328125 0.796875 -1.328125 0.609375q-0.0625 0 -0.15625 -0.09375q-0.09375 -0.09375 -0.09375 -0.15625zm30.28125 0q-0.0625 -0.03125 -0.25 -0.21875q-0.1875 -0.1875 -0.21875 -0.28125q-0.15625 -2.09375 0.09375 -4.265625q0.25 -2.171875 0.515625 -4.359375q0.265625 -2.1875 0.328125 -4.34375q0.0625 -2.15625 -0.46875 -4.25l-0.25 -0.96875l-2.9375 0q-0.28125 0 -0.375 -0.234375q-0.09375 -0.234375 -0.09375 -0.53125q0 -0.296875 0.078125 -0.578125q0.078125 -0.28125 0.140625 -0.40625q0.0625 -0.0625 0.140625 -0.15625q0.078125 -0.09375 0.109375 -0.09375l2.9375 0l0 -1.71875q0 -0.5625 0.265625 -0.421875q0.265625 0.140625 0.578125 0.53125q0.3125 0.390625 0.59375 0.84375q0.28125 0.453125 0.28125 0.515625q1.6875 0.25 3.359375 0.265625q1.671875 0.015625 3.328125 -0.125q1.65625 -0.140625 3.3125 -0.375q1.65625 -0.234375 3.3125 -0.484375q0.1875 -0.03125 0.484375 0.125q0.296875 0.15625 0.53125 0.390625q0.234375 0.234375 0.328125 0.5q0.09375 0.265625 -0.125 0.484375q-0.5625 0.5625 -1.625 0.8125q-1.0625 0.25 -2.40625 0.3125q-1.34375 0.0625 -2.859375 0.03125q-1.515625 -0.03125 -2.9375 -0.0625q-1.421875 -0.03125 -2.65625 0.03125q-1.234375 0.0625 -2.046875 0.34375q0.0625 2.25 0.015625 4.484375q-0.046875 2.234375 -0.125 4.484375q-0.078125 2.25 -0.125 4.484375q-0.046875 2.234375 0.015625 4.484375l-0.5 1.0q-0.03125 0.0625 -0.3125 -0.046875q-0.28125 -0.109375 -0.4375 -0.203125zm2.46875 -11.34375q-0.0625 0 -0.140625 -0.09375q-0.078125 -0.09375 -0.109375 -0.125q0.125 -0.34375 0.3125 -0.75q0.1875 -0.40625 0.46875 -0.65625q0.28125 -0.25 0.640625 -0.265625q0.359375 -0.015625 0.828125 0.421875q0.40625 0.03125 1.453125 -0.09375q1.046875 -0.125 2.390625 -0.296875q1.34375 -0.171875 2.8125 -0.359375q1.46875 -0.1875 2.71875 -0.3125q1.25 -0.125 2.125 -0.109375q0.875 0.015625 1.03125 0.203125q0.25 0.34375 -0.15625 0.6875q-0.40625 0.34375 -1.25 0.65625q-0.84375 0.3125 -2.03125 0.578125q-1.1875 0.265625 -2.5 0.46875q-1.3125 0.203125 -2.671875 0.328125q-1.359375 0.125 -2.53125 0.140625q-1.171875 0.015625 -2.078125 -0.078125q-0.90625 -0.09375 -1.3125 -0.34375zm22.15625 11.34375q-1.1875 -0.5 -1.796875 -1.28125q-0.609375 -0.78125 -0.890625 -1.71875q-0.28125 -0.9375 -0.34375 -2.0q-0.0625 -1.0625 -0.15625 -2.15625q-0.71875 0.125 -1.40625 0.109375q-0.6875 -0.015625 -1.203125 -0.125q-0.515625 -0.109375 -0.734375 -0.3125q-0.21875 -0.203125 -0.046875 -0.4375q0.171875 -0.234375 0.859375 -0.484375q0.6875 -0.25 2.03125 -0.46875q0.1875 0 0.546875 -0.1875q0.359375 -0.1875 0.421875 -0.28125q0.21875 -0.3125 0.40625 -1.078125q0.1875 -0.765625 0.390625 -1.703125q0.203125 -0.9375 0.5 -1.890625q0.296875 -0.953125 0.75 -1.640625q0.453125 -0.6875 1.09375 -0.96875q0.640625 -0.28125 1.578125 0.125q0.09375 0.0625 0.265625 0.234375q0.171875 0.171875 0.359375 0.359375q0.1875 0.1875 0.359375 0.359375q0.171875 0.171875 0.234375 0.265625q0.125 1.53125 -0.1875 2.59375q-0.3125 1.0625 -0.84375 1.796875q-0.53125 0.734375 -1.1875 1.234375q-0.65625 0.5 -1.25 0.953125q-0.59375 0.453125 -1.015625 0.921875q-0.421875 0.46875 -0.453125 1.15625q-0.0625 0.8125 -0.0625 1.484375q0 0.671875 0.15625 1.265625q0.15625 0.59375 0.53125 1.125q0.375 0.53125 1.09375 1.03125q0.53125 0.375 1.3125 0.1875q0.78125 -0.1875 1.59375 -0.65625q0.8125 -0.46875 1.59375 -1.0625q0.78125 -0.59375 1.34375 -1.015625q0.5625 -0.421875 0.8125 -0.546875q0.25 -0.125 0 0.375q-0.4375 1.03125 -1.03125 2.0625q-0.59375 1.03125 -1.40625 1.75q-0.8125 0.71875 -1.859375 0.953125q-1.046875 0.234375 -2.359375 -0.328125zm-1.0 -11.34375q-0.03125 0.15625 -0.125 0.625q-0.09375 0.46875 -0.09375 0.625q0.03125 0.03125 0.109375 0.03125q0.078125 0 0.109375 -0.03125q0.09375 -0.0625 0.28125 -0.203125q0.1875 -0.140625 0.375 -0.28125q0.1875 -0.140625 0.359375 -0.28125q0.171875 -0.140625 0.234375 -0.203125q0.9375 -0.9375 1.328125 -1.734375q0.390625 -0.796875 0.390625 -1.296875q0 -0.5 -0.328125 -0.671875q-0.328125 -0.171875 -0.78125 0.109375q-0.453125 0.28125 -0.953125 1.078125q-0.5 0.796875 -0.90625 2.234375zm10.09375 11.125q-0.125 -0.5 -0.1875 -1.375q-0.0625 -0.875 -0.0625 -1.953125q0 -1.078125 0.015625 -2.265625q0.015625 -1.1875 0.046875 -2.3125q0.03125 -1.125 0.015625 -2.09375q-0.015625 -0.96875 -0.078125 -1.59375q-0.03125 -0.46875 -0.078125 -1.390625q-0.046875 -0.921875 -0.109375 -2.078125q-0.0625 -1.15625 -0.140625 -2.4375q-0.078125 -1.28125 -0.109375 -2.453125q-0.03125 -1.171875 -0.03125 -2.15625q0 -0.984375 0.0625 -1.515625q0.46875 -0.40625 0.765625 0.203125q0.296875 0.609375 0.453125 1.75q0.15625 1.140625 0.203125 2.578125q0.046875 1.4375 0.046875 2.71875q0 1.28125 -0.03125 2.15625q-0.03125 0.875 -0.03125 0.90625q0.15625 2.9375 0.203125 5.796875q0.046875 2.859375 0.296875 5.765625q0.3125 0.59375 0.328125 1.265625q0.015625 0.671875 -0.1875 1.078125q-0.203125 0.40625 -0.578125 0.34375q-0.375 -0.0625 -0.8125 -0.9375zm4.9375 -0.28125q-0.53125 -0.65625 -0.953125 -1.8125q-0.421875 -1.15625 -0.703125 -2.59375q-0.28125 -1.4375 -0.40625 -3.015625q-0.125 -1.578125 -0.03125 -3.03125q0.09375 -1.453125 0.4375 -2.65625q0.34375 -1.203125 0.984375 -1.90625q0.640625 -0.703125 1.59375 -0.765625q0.953125 -0.0625 2.265625 0.78125q1.09375 0.65625 1.984375 1.609375q0.890625 0.953125 1.484375 2.078125q0 -0.09375 0.015625 -0.34375q0.015625 -0.25 0.015625 -0.515625q0 -0.265625 -0.015625 -0.515625q-0.015625 -0.25 -0.015625 -0.34375q-0.03125 -0.21875 -0.109375 -1.09375q-0.078125 -0.875 -0.171875 -1.859375q-0.09375 -0.984375 -0.15625 -1.859375q-0.0625 -0.875 -0.0625 -1.09375q-0.03125 -0.34375 -0.046875 -0.875q-0.015625 -0.53125 -0.015625 -1.046875q0 -0.515625 0.015625 -0.890625q0.015625 -0.375 0.046875 -0.375l0.25 -0.25q0.3125 -0.34375 0.609375 -0.125q0.296875 0.21875 0.53125 0.71875q0.234375 0.5 0.421875 1.1875q0.1875 0.6875 0.328125 1.34375q0.140625 0.65625 0.203125 1.15625q0.0625 0.5 0.09375 0.625q0.03125 0.25 0.046875 1.28125q0.015625 1.03125 0.015625 2.4375q0 1.40625 0 2.984375q0 1.578125 0.015625 2.921875q0.015625 1.34375 0.046875 2.25q0.03125 0.90625 0.125 0.9375l0.53125 0.21875l0 3.46875q0 0.3125 -0.3125 0.28125q-0.3125 -0.03125 -0.6875 -0.203125q-0.375 -0.171875 -0.6875 -0.421875q-0.3125 -0.25 -0.3125 -0.40625l0 -2.46875q-0.5625 1.0 -1.234375 1.921875q-0.671875 0.921875 -1.484375 1.609375q-0.8125 0.6875 -1.84375 1.015625q-1.03125 0.328125 -2.3125 0.140625q-0.0625 -0.0625 -0.25 -0.25q-0.1875 -0.1875 -0.25 -0.25zm0.5 -1.46875q0.03125 0.03125 0.234375 0.140625q0.203125 0.109375 0.265625 0.109375q1.53125 0.1875 2.6875 -0.625q1.15625 -0.8125 1.890625 -2.125q0.734375 -1.3125 1.078125 -2.859375q0.34375 -1.546875 0.25 -2.765625q-0.75 0.5625 -1.140625 0.65625q-0.390625 0.09375 -0.5625 -0.109375q-0.171875 -0.203125 -0.21875 -0.609375q-0.046875 -0.40625 -0.078125 -0.890625q-0.03125 -0.484375 -0.109375 -0.96875q-0.078125 -0.484375 -0.359375 -0.796875q-1.1875 -1.40625 -2.09375 -1.8125q-0.90625 -0.40625 -1.53125 -0.078125q-0.625 0.328125 -1.015625 1.234375q-0.390625 0.90625 -0.5625 2.125q-0.171875 1.21875 -0.140625 2.625q0.03125 1.40625 0.203125 2.71875q0.171875 1.3125 0.484375 2.390625q0.3125 1.078125 0.71875 1.640625zm32.0 1.75q-0.0625 -0.09375 -0.15625 -0.28125q-0.09375 -0.1875 -0.15625 -0.390625q-0.0625 -0.203125 -0.125 -0.359375q-0.0625 -0.15625 -0.0625 -0.21875q0.03125 -0.375 0.109375 -1.15625q0.078125 -0.78125 0.15625 -1.75q0.078125 -0.96875 0.15625 -2.0625q0.078125 -1.09375 0.078125 -2.078125q0 -0.984375 -0.078125 -1.796875q-0.078125 -0.8125 -0.296875 -1.25q-0.34375 -0.71875 -1.015625 -1.0625q-0.671875 -0.34375 -1.453125 -0.40625q-1.78125 -0.15625 -2.953125 0.625q-1.171875 0.78125 -1.921875 2.078125q-0.75 1.296875 -1.171875 2.890625q-0.421875 1.59375 -0.71875 3.046875q-0.296875 1.453125 -0.5625 2.53125q-0.265625 1.078125 -0.671875 1.359375q-0.3125 0.21875 -0.515625 0.15625q-0.203125 -0.0625 -0.34375 -0.296875q-0.140625 -0.234375 -0.234375 -0.53125q-0.09375 -0.296875 -0.125 -0.546875q0.03125 -1.15625 0.171875 -2.8125q0.140625 -1.65625 0.203125 -3.40625q0.0625 -1.75 -0.015625 -3.359375q-0.078125 -1.609375 -0.484375 -2.703125q-0.46875 -1.3125 -1.0 -1.5625q-0.53125 -0.25 -1.09375 0.25q-0.5625 0.5 -1.109375 1.59375q-0.546875 1.09375 -1.046875 2.46875q-0.5 1.375 -0.9375 2.875q-0.4375 1.5 -0.765625 2.828125q-0.328125 1.328125 -0.546875 2.296875q-0.21875 0.96875 -0.25 1.28125q-0.09375 0.625 -0.5 0.65625q-0.40625 0.03125 -0.78125 -0.28125q-0.375 -0.3125 -0.515625 -0.84375q-0.140625 -0.53125 0.296875 -1.0q0.03125 -0.53125 0.03125 -1.625q0 -1.09375 -0.03125 -2.46875q-0.03125 -1.375 -0.046875 -2.90625q-0.015625 -1.53125 -0.015625 -2.9375q0 -1.40625 0.046875 -2.546875q0.046875 -1.140625 0.140625 -1.765625q0.0625 -0.375 0.28125 -0.421875q0.21875 -0.046875 0.46875 0.078125q0.25 0.125 0.453125 0.375q0.203125 0.25 0.265625 0.46875q0.15625 0.625 0.203125 1.234375q0.046875 0.609375 0.078125 1.21875q0.03125 0.609375 0.0625 1.21875q0.03125 0.609375 0.1875 1.234375q0.28125 -0.59375 0.75 -1.4375q0.46875 -0.84375 1.0625 -1.625q0.59375 -0.78125 1.265625 -1.375q0.671875 -0.59375 1.34375 -0.71875q0.671875 -0.125 1.296875 0.359375q0.625 0.484375 1.15625 1.828125q0.15625 0.4375 0.296875 1.109375q0.140625 0.671875 0.296875 1.390625q0.15625 0.71875 0.375 1.390625q0.21875 0.671875 0.5 1.046875q0.53125 -0.3125 0.921875 -0.84375q0.390625 -0.53125 0.78125 -1.109375q0.390625 -0.578125 0.84375 -1.109375q0.453125 -0.53125 1.140625 -0.875q2.3125 -0.78125 3.828125 -0.46875q1.515625 0.3125 2.421875 1.328125q0.90625 1.015625 1.296875 2.53125q0.390625 1.515625 0.4375 3.140625q0.046875 1.625 -0.171875 3.171875q-0.21875 1.546875 -0.53125 2.578125l0.21875 0.25q0.15625 0.15625 0.734375 -0.21875q0.578125 -0.375 1.265625 -0.84375q0.6875 -0.46875 1.3125 -0.859375q0.625 -0.390625 0.875 -0.296875l0 0.5q-0.25 0.21875 -0.609375 0.671875q-0.359375 0.453125 -0.8125 0.953125q-0.453125 0.5 -0.96875 0.984375q-0.515625 0.484375 -1.03125 0.765625q-0.515625 0.28125 -1.03125 0.28125q-0.515625 0 -0.953125 -0.4375zm7.75 -0.6875q-0.625 -0.625 -1.0 -1.90625q-0.375 -1.28125 -0.515625 -2.90625q-0.140625 -1.625 -0.046875 -3.453125q0.09375 -1.828125 0.421875 -3.5625q0.328125 -1.734375 0.875 -3.234375q0.546875 -1.5 1.34375 -2.484375q0.796875 -0.984375 1.8125 -1.28125q1.015625 -0.296875 2.265625 0.359375q0.4375 0.25 0.921875 0.84375q0.484375 0.59375 0.921875 1.328125q0.4375 0.734375 0.765625 1.46875q0.328125 0.734375 0.484375 1.234375q0.03125 0.15625 0.015625 0.953125q-0.015625 0.796875 -0.046875 1.921875q-0.03125 1.125 0.015625 2.484375q0.046875 1.359375 0.21875 2.65625q0.171875 1.296875 0.546875 2.40625q0.375 1.109375 1.0 1.75q0.625 0.640625 1.578125 0.6875q0.953125 0.046875 2.328125 -0.765625q0.5 -0.4375 0.59375 -0.859375q0.09375 -0.421875 0.09375 -0.71875q0 -0.296875 0.0625 -0.390625q0.0625 -0.09375 0.5625 0.15625q0.625 0.8125 0.421875 1.734375q-0.203125 0.921875 -0.90625 1.625q-0.703125 0.703125 -1.765625 1.0q-1.0625 0.296875 -2.171875 -0.140625q-1.109375 -0.4375 -2.109375 -1.78125q-1.0 -1.34375 -1.59375 -3.90625q-0.1875 0.53125 -0.578125 1.3125q-0.390625 0.78125 -0.921875 1.5625q-0.53125 0.78125 -1.203125 1.46875q-0.671875 0.6875 -1.390625 1.03125q-0.71875 0.34375 -1.484375 0.265625q-0.765625 -0.078125 -1.515625 -0.859375zm0.28125 -1.96875q0.53125 1.125 1.25 1.21875q0.71875 0.09375 1.46875 -0.5625q0.75 -0.65625 1.484375 -1.90625q0.734375 -1.25 1.25 -2.828125q0.515625 -1.578125 0.78125 -3.3125q0.265625 -1.734375 0.09375 -3.328125q-0.171875 -1.59375 -0.828125 -2.90625q-0.65625 -1.3125 -2.0 -2.0625q-0.03125 -0.03125 -0.109375 -0.03125q-0.078125 0 -0.140625 0q-0.96875 0.4375 -1.6875 1.5q-0.71875 1.0625 -1.234375 2.5q-0.515625 1.4375 -0.796875 3.09375q-0.28125 1.65625 -0.3125 3.25q-0.03125 1.59375 0.15625 3.015625q0.1875 1.421875 0.625 2.359375zm15.0 2.875q-0.0625 -0.0625 -0.15625 -0.25q-0.09375 -0.1875 -0.125 -0.25q0.09375 -0.40625 0.203125 -1.828125q0.109375 -1.421875 0.25 -3.296875q0.140625 -1.875 0.34375 -3.90625q0.203125 -2.03125 0.453125 -3.625q0.25 -1.59375 0.59375 -2.453125q0.34375 -0.859375 0.78125 -0.421875q0.9375 0.6875 1.75 1.734375q0.8125 1.046875 1.5625 2.265625q0.75 1.21875 1.453125 2.515625q0.703125 1.296875 1.46875 2.46875q0.765625 1.171875 1.625 2.125q0.859375 0.953125 1.859375 1.484375l0.21875 0q0.0625 -0.75 0.140625 -1.859375q0.078125 -1.109375 0.171875 -2.421875q0.09375 -1.3125 0.1875 -2.703125q0.09375 -1.390625 0.234375 -2.71875q0.140625 -1.328125 0.296875 -2.453125q0.15625 -1.125 0.34375 -1.90625q0.03125 -0.0625 0.140625 -0.265625q0.109375 -0.203125 0.25 -0.40625q0.140625 -0.203125 0.296875 -0.328125q0.15625 -0.125 0.3125 0l1.46875 1.5q0.09375 0.09375 -0.109375 0.390625q-0.203125 0.296875 -0.484375 0.65625q-0.28125 0.359375 -0.5625 0.6875q-0.28125 0.328125 -0.3125 0.484375q-0.21875 0.8125 -0.375 1.953125q-0.15625 1.140625 -0.25 2.4375q-0.09375 1.296875 -0.15625 2.671875q-0.0625 1.375 -0.109375 2.671875q-0.046875 1.296875 -0.0625 2.453125q-0.015625 1.15625 -0.046875 2.0q-1.125 -0.03125 -2.15625 -0.6875q-1.03125 -0.65625 -1.984375 -1.734375q-0.953125 -1.078125 -1.84375 -2.4375q-0.890625 -1.359375 -1.71875 -2.75q-0.828125 -1.390625 -1.609375 -2.734375q-0.78125 -1.34375 -1.5 -2.375l-0.28125 0q-0.125 0 -0.203125 0.671875q-0.078125 0.671875 -0.140625 1.734375q-0.0625 1.0625 -0.125 2.421875q-0.0625 1.359375 -0.171875 2.71875q-0.109375 1.359375 -0.265625 2.59375q-0.15625 1.234375 -0.375 2.078125q-0.21875 0.84375 -0.53125 1.1875q-0.3125 0.34375 -0.75 -0.09375z" fill-rule="nonzero"/></g></svg>